<svg id="close_bg" width="20" height="20" viewBox="0 0 20 20" fill="none" xmlns="http://www.w3.org/2000/svg">
    <path fill-rule="evenodd" clip-rule="evenodd" d="M9.9999 19.5999C15.3018 19.5999 19.5999 15.3018 19.5999 9.9999C19.5999 4.69797 15.3018 0.399902 9.9999 0.399902C4.69797 0.399902 0.399902 4.69797 0.399902 9.9999C0.399902 15.3018 4.69797 19.5999 9.9999 19.5999ZM8.44843 6.75137C7.9798 6.28275 7.22 6.28275 6.75137 6.75137C6.28275 7.22 6.28275 7.9798 6.75137 8.44843L8.30285 9.9999L6.75137 11.5514C6.28275 12.02 6.28275 12.7798 6.75137 13.2484C7.22 13.7171 7.9798 13.7171 8.44843 13.2484L9.9999 11.697L11.5514 13.2484C12.02 13.7171 12.7798 13.7171 13.2484 13.2484C13.7171 12.7798 13.7171 12.02 13.2484 11.5514L11.697 9.9999L13.2484 8.44843C13.7171 7.9798 13.7171 7.22 13.2484 6.75137C12.7798 6.28275 12.02 6.28275 11.5514 6.75137L9.9999 8.30285L8.44843 6.75137Z" fill="#A0A1A9"/>
</svg>
