<svg xmlns="http://www.w3.org/2000/svg">
    <symbol id="mail" width="16" height="12" viewBox="0 0 16 12" xmlns="http://www.w3.org/2000/svg">
        <path d="M0.00300002 1.884L8 5.882L15.997 1.884C15.9674 1.37444 15.7441 0.895488 15.3728 0.545227C15.0016 0.194965 14.5104 -9.35847e-05 14 3.36834e-08H2C1.48958 -9.35847e-05 0.998447 0.194965 0.627178 0.545227C0.255908 0.895488 0.0326041 1.37444 0.00300002 1.884Z"/>
        <path d="M16 4.118L8 8.118L0 4.118V10C0 10.5304 0.210714 11.0391 0.585786 11.4142C0.960859 11.7893 1.46957 12 2 12H14C14.5304 12 15.0391 11.7893 15.4142 11.4142C15.7893 11.0391 16 10.5304 16 10V4.118Z"/>
    </symbol>
    <symbol id="bell" width="14" height="16" viewBox="0 0 14 16" xmlns="http://www.w3.org/2000/svg">
        <path d="M7.00003 0C3.68632 0 1.00003 2.68629 1.00003 6V9.58579L0.292922 10.2929C0.00692448 10.5789 -0.0786313 11.009 0.0761497 11.3827C0.230931 11.7564 0.595567 12 1.00003 12H13C13.4045 12 13.7691 11.7564 13.9239 11.3827C14.0787 11.009 13.9931 10.5789 13.7071 10.2929L13 9.58579V6C13 2.68629 10.3137 0 7.00003 0Z"/>
        <path d="M7 16C5.34315 16 4 14.6569 4 13H10C10 14.6569 8.65685 16 7 16Z"/>
    </symbol>
    <symbol id="cog" width="16" height="16" viewBox="0 0 16 16" xmlns="http://www.w3.org/2000/svg">
        <path fill-rule="evenodd" clip-rule="evenodd" d="M9.48922 1.17094C9.1102 -0.390314 6.8898 -0.390314 6.51078 1.17094C6.26594 2.17949 5.11045 2.65811 4.22416 2.11809C2.85218 1.28212 1.28212 2.85218 2.11809 4.22416C2.65811 5.11045 2.17949 6.26593 1.17094 6.51078C-0.390314 6.8898 -0.390314 9.1102 1.17094 9.48922C2.17949 9.73407 2.65811 10.8896 2.11809 11.7758C1.28212 13.1478 2.85218 14.7179 4.22417 13.8819C5.11045 13.3419 6.26594 13.8205 6.51078 14.8291C6.8898 16.3903 9.1102 16.3903 9.48922 14.8291C9.73407 13.8205 10.8896 13.3419 11.7758 13.8819C13.1478 14.7179 14.7179 13.1478 13.8819 11.7758C13.3419 10.8896 13.8205 9.73407 14.8291 9.48922C16.3903 9.1102 16.3903 6.8898 14.8291 6.51078C13.8205 6.26593 13.3419 5.11045 13.8819 4.22416C14.7179 2.85218 13.1478 1.28212 11.7758 2.11809C10.8896 2.65811 9.73407 2.17949 9.48922 1.17094ZM8 11C9.65685 11 11 9.65685 11 8C11 6.34315 9.65685 5 8 5C6.34315 5 5 6.34315 5 8C5 9.65685 6.34315 11 8 11Z"/>
    </symbol>
    <symbol id="logout" width="16" height="14" viewBox="0 0 16 14" xmlns="http://www.w3.org/2000/svg">
        <path d="M1 0C0.447716 0 0 0.447716 0 1V13C0 13.5523 0.447716 14 1 14C1.55229 14 2 13.5523 2 13V1C2 0.447715 1.55229 0 1 0Z"/>
        <path d="M11.2929 9.29289C10.9024 9.68342 10.9024 10.3166 11.2929 10.7071C11.6834 11.0976 12.3166 11.0976 12.7071 10.7071L15.7071 7.70711C15.8947 7.51957 16 7.26522 16 7C16 6.73478 15.8947 6.48043 15.7071 6.29289L12.7071 3.29289C12.3166 2.90237 11.6834 2.90237 11.2929 3.29289C10.9024 3.68342 10.9024 4.31658 11.2929 4.70711L12.5858 6L5 6C4.44772 6 4 6.44772 4 7C4 7.55229 4.44772 8 5 8H12.5858L11.2929 9.29289Z"/>
    </symbol>
    <symbol id="chevron_right" width="6" height="10" viewBox="0 0 6 10" xmlns="http://www.w3.org/2000/svg">
        <path fill-rule="evenodd" clip-rule="evenodd" d="M0.292894 9.70711C-0.0976307 9.31658 -0.0976307 8.68342 0.292894 8.29289L3.58579 5L0.292893 1.70711C-0.0976311 1.31658 -0.0976311 0.683418 0.292893 0.292894C0.683417 -0.0976312 1.31658 -0.0976312 1.70711 0.292894L5.70711 4.29289C6.09763 4.68342 6.09763 5.31658 5.70711 5.70711L1.70711 9.70711C1.31658 10.0976 0.683418 10.0976 0.292894 9.70711Z"/>
    </symbol>
    <symbol id="chevron_down" width="10" height="6" viewBox="0 0 10 6" xmlns="http://www.w3.org/2000/svg">
        <path fill-rule="evenodd" clip-rule="evenodd" d="M0.292893 0.292893C0.683416 -0.097631 1.31658 -0.097631 1.7071 0.292893L4.99999 3.58579L8.29288 0.292893C8.6834 -0.0976311 9.31657 -0.0976311 9.70709 0.292893C10.0976 0.683417 10.0976 1.31658 9.70709 1.70711L5.7071 5.70711C5.31657 6.09763 4.68341 6.09763 4.29289 5.70711L0.292893 1.70711C-0.0976309 1.31658 -0.0976309 0.683417 0.292893 0.292893Z"/>
    </symbol>
    <symbol id="circle_plus" width="16" height="16" viewBox="0 0 16 16" xmlns="http://www.w3.org/2000/svg">
        <path fill-rule="evenodd" clip-rule="evenodd" d="M8 16C12.4183 16 16 12.4183 16 8C16 3.58172 12.4183 0 8 0C3.58172 0 0 3.58172 0 8C0 12.4183 3.58172 16 8 16ZM9 5C9 4.44772 8.55228 4 8 4C7.44772 4 7 4.44772 7 5V7H5C4.44772 7 4 7.44771 4 8C4 8.55228 4.44772 9 5 9H7V11C7 11.5523 7.44772 12 8 12C8.55228 12 9 11.5523 9 11V9H11C11.5523 9 12 8.55228 12 8C12 7.44772 11.5523 7 11 7H9V5Z"/>
    </symbol>
    <symbol id="star" width="16" height="15" viewBox="0 0 16 15"  xmlns="http://www.w3.org/2000/svg">
        <path d="M7.04894 0.92705C7.3483 0.00573921 8.6517 0.00573969 8.95106 0.92705L10.0206 4.21885C10.1545 4.63087 10.5385 4.90983 10.9717 4.90983H14.4329C15.4016 4.90983 15.8044 6.14945 15.0207 6.71885L12.2205 8.75329C11.87 9.00793 11.7234 9.4593 11.8572 9.87132L12.9268 13.1631C13.2261 14.0844 12.1717 14.8506 11.388 14.2812L8.58778 12.2467C8.2373 11.9921 7.7627 11.9921 7.41221 12.2467L4.61204 14.2812C3.82833 14.8506 2.77385 14.0844 3.0732 13.1631L4.14277 9.87132C4.27665 9.4593 4.12999 9.00793 3.7795 8.75329L0.979333 6.71885C0.195619 6.14945 0.598395 4.90983 1.56712 4.90983H5.02832C5.46154 4.90983 5.8455 4.63087 5.97937 4.21885L7.04894 0.92705Z"/>
    </symbol>
    <symbol id="shopping_bag" width="14" height="16" viewBox="0 0 14 16"  xmlns="http://www.w3.org/2000/svg">
        <path fill-rule="evenodd" clip-rule="evenodd" d="M7 0C4.79086 0 3 1.79086 3 4V5H2C1.49046 5 1.06239 5.38314 1.00612 5.88957L0.00612112 14.8896C-0.0252904 15.1723 0.0651756 15.455 0.254877 15.6669C0.444578 15.8789 0.715562 16 1 16H13C13.2844 16 13.5554 15.8789 13.7451 15.6669C13.9348 15.455 14.0253 15.1723 13.9939 14.8896L12.9939 5.88957C12.9376 5.38314 12.5096 5 12 5H11V4C11 1.79086 9.20914 0 7 0ZM9 5V4C9 2.89543 8.10457 2 7 2C5.89543 2 5 2.89543 5 4V5H9ZM3 8C3 7.44772 3.44772 7 4 7C4.55228 7 5 7.44772 5 8C5 8.55229 4.55228 9 4 9C3.44772 9 3 8.55229 3 8ZM10 7C9.44771 7 9 7.44772 9 8C9 8.55229 9.44771 9 10 9C10.5523 9 11 8.55229 11 8C11 7.44772 10.5523 7 10 7Z"/>
    </symbol>
    <symbol id="document_search" width="13" height="17" viewBox="0 0 13 17"  xmlns="http://www.w3.org/2000/svg">
        <path d="M1 2C1 0.895432 1.89543 0 3 0H7.58579C8.11622 0 8.62493 0.210714 9 0.585786L12.4142 4C12.7893 4.37507 13 4.88378 13 5.41421V14C13 15.1046 12.1046 16 11 16H9.47221C10.4223 14.9385 11 13.5367 11 12C11 8.68629 8.31371 6 5 6C3.46329 6 2.06151 6.57771 1 7.52779V2Z"/>
        <path fill-rule="evenodd" clip-rule="evenodd" d="M5 8C2.79086 8 1 9.79086 1 12C1 12.7414 1.20229 13.4364 1.55397 14.0318L0.292893 15.2929C-0.097631 15.6834 -0.0976311 16.3166 0.292893 16.7071C0.683417 17.0976 1.31658 17.0976 1.70711 16.7071L2.96818 15.446C3.56362 15.7977 4.25862 16 5 16C7.20914 16 9 14.2091 9 12C9 9.79086 7.20914 8 5 8ZM3 12C3 10.8954 3.89543 10 5 10C6.10457 10 7 10.8954 7 12C7 13.1046 6.10457 14 5 14C4.44744 14 3.94881 13.7772 3.58579 13.4142C3.22276 13.0512 3 12.5526 3 12Z"/>
    </symbol>
    <symbol id="view_grid_add" width="14" height="14" viewBox="0 0 14 14"  xmlns="http://www.w3.org/2000/svg">
        <path d="M2 0C0.895431 0 0 0.89543 0 2V4C0 5.10457 0.89543 6 2 6H4C5.10457 6 6 5.10457 6 4V2C6 0.895431 5.10457 0 4 0H2Z"/>
        <path d="M2 8C0.895431 8 0 8.89543 0 10V12C0 13.1046 0.89543 14 2 14H4C5.10457 14 6 13.1046 6 12V10C6 8.89543 5.10457 8 4 8H2Z"/>
        <path d="M8 2C8 0.89543 8.89543 0 10 0H12C13.1046 0 14 0.895431 14 2V4C14 5.10457 13.1046 6 12 6H10C8.89543 6 8 5.10457 8 4V2Z"/>
        <path d="M11 8C11.5523 8 12 8.44771 12 9V10H13C13.5523 10 14 10.4477 14 11C14 11.5523 13.5523 12 13 12H12V13C12 13.5523 11.5523 14 11 14C10.4477 14 10 13.5523 10 13V12H9C8.44771 12 8 11.5523 8 11C8 10.4477 8.44772 10 9 10H10V9C10 8.44771 10.4477 8 11 8Z"/>
    </symbol>
    <symbol id="view_grid" width="14" height="14" viewBox="0 0 14 14" xmlns="http://www.w3.org/2000/svg">
        <path d="M2 0C0.895431 0 0 0.89543 0 2V4C0 5.10457 0.89543 6 2 6H4C5.10457 6 6 5.10457 6 4V2C6 0.895431 5.10457 0 4 0H2Z" />
        <path d="M2 8C0.895431 8 0 8.89543 0 10V12C0 13.1046 0.89543 14 2 14H4C5.10457 14 6 13.1046 6 12V10C6 8.89543 5.10457 8 4 8H2Z" />
        <path d="M8 2C8 0.89543 8.89543 0 10 0H12C13.1046 0 14 0.895431 14 2V4C14 5.10457 13.1046 6 12 6H10C8.89543 6 8 5.10457 8 4V2Z" />
        <path d="M8 10C8 8.89543 8.89543 8 10 8H12C13.1046 8 14 8.89543 14 10V12C14 13.1046 13.1046 14 12 14H10C8.89543 14 8 13.1046 8 12V10Z" />
    </symbol>
    <symbol id="search" width="16" height="16" viewBox="0 0 16 16" xmlns="http://www.w3.org/2000/svg">
        <path fill-rule="evenodd" clip-rule="evenodd" d="M6 2C3.79086 2 2 3.79086 2 6C2 8.20914 3.79086 10 6 10C8.20914 10 10 8.20914 10 6C10 3.79086 8.20914 2 6 2ZM0 6C0 2.68629 2.68629 0 6 0C9.31371 0 12 2.68629 12 6C12 7.29583 11.5892 8.49572 10.8907 9.47653L15.7071 14.2929C16.0976 14.6834 16.0976 15.3166 15.7071 15.7071C15.3166 16.0976 14.6834 16.0976 14.2929 15.7071L9.47653 10.8907C8.49572 11.5892 7.29583 12 6 12C2.68629 12 0 9.31371 0 6Z"/>
    </symbol>
    <symbol id="menu_1" width="14" height="12" viewBox="0 0 14 12" xmlns="http://www.w3.org/2000/svg">
        <path fill-rule="evenodd" clip-rule="evenodd" d="M0 1C0 0.447715 0.447715 0 1 0H13C13.5523 0 14 0.447715 14 1C14 1.55228 13.5523 2 13 2H1C0.447715 2 0 1.55228 0 1Z"/>
        <path fill-rule="evenodd" clip-rule="evenodd" d="M0 6C0 5.44772 0.447715 5 1 5H7C7.55229 5 8 5.44772 8 6C8 6.55228 7.55229 7 7 7H1C0.447715 7 0 6.55228 0 6Z"/>
        <path fill-rule="evenodd" clip-rule="evenodd" d="M0 11C0 10.4477 0.447715 10 1 10H13C13.5523 10 14 10.4477 14 11C14 11.5523 13.5523 12 13 12H1C0.447715 12 0 11.5523 0 11Z"/>
    </symbol>
    <symbol id="check" width="12" height="10" viewBox="0 0 12 10" xmlns="http://www.w3.org/2000/svg">
        <path fill-rule="evenodd" clip-rule="evenodd" d="M13.7071 0.292893C14.0976 0.683417 14.0976 1.31658 13.7071 1.70711L5.70711 9.70711C5.31658 10.0976 4.68342 10.0976 4.29289 9.70711L0.292893 5.70711C-0.0976311 5.31658 -0.0976311 4.68342 0.292893 4.29289C0.683417 3.90237 1.31658 3.90237 1.70711 4.29289L5 7.58579L12.2929 0.292893C12.6834 -0.0976311 13.3166 -0.0976311 13.7071 0.292893Z"/>
    </symbol>
    <symbol id="minus" width="10" height="2" viewBox="0 0 10 2" xmlns="http://www.w3.org/2000/svg">
        <path fill-rule="evenodd" clip-rule="evenodd" d="M0 1C0 0.734784 0.105357 0.48043 0.292893 0.292893C0.48043 0.105357 0.734784 0 1 0H13C13.2652 0 13.5196 0.105357 13.7071 0.292893C13.8946 0.48043 14 0.734784 14 1C14 1.26522 13.8946 1.51957 13.7071 1.70711C13.5196 1.89464 13.2652 2 13 2H1C0.734784 2 0.48043 1.89464 0.292893 1.70711C0.105357 1.51957 0 1.26522 0 1Z"/>
    </symbol>
    <symbol id="menu" width="14" height="12" viewBox="0 0 14 12" xmlns="http://www.w3.org/2000/svg">
        <path fill-rule="evenodd" clip-rule="evenodd" d="M0 1C0 0.447715 0.447715 0 1 0H13C13.5523 0 14 0.447715 14 1C14 1.55228 13.5523 2 13 2H1C0.447715 2 0 1.55228 0 1Z"/>
        <path fill-rule="evenodd" clip-rule="evenodd" d="M0 6C0 5.44772 0.447715 5 1 5H13C13.5523 5 14 5.44772 14 6C14 6.55228 13.5523 7 13 7H1C0.447715 7 0 6.55228 0 6Z"/>
        <path fill-rule="evenodd" clip-rule="evenodd" d="M0 11C0 10.4477 0.447715 10 1 10H13C13.5523 10 14 10.4477 14 11C14 11.5523 13.5523 12 13 12H1C0.447715 12 0 11.5523 0 11Z"/>
    </symbol>
    <symbol id="phone" width="14" height="13" viewBox="0 0 14 13" fill="none" xmlns="http://www.w3.org/2000/svg">
        <path d="M0.599609 0.900098C0.599609 0.45827 0.957782 0.100098 1.39961 0.100098H3.12191C3.51298 0.100098 3.84673 0.382828 3.91102 0.768579L4.50247 4.31728C4.56021 4.6637 4.38525 5.00728 4.07113 5.16434L2.83262 5.78359C3.72566 8.00275 5.49695 9.77405 7.71611 10.6671L8.33537 9.42858C8.49243 9.11445 8.836 8.9395 9.18243 8.99723L12.7311 9.58868C13.1169 9.65298 13.3996 9.98673 13.3996 10.3778V12.1001C13.3996 12.5419 13.0414 12.9001 12.5996 12.9001H10.9996C5.25585 12.9001 0.599609 8.24386 0.599609 2.5001V0.900098Z" fill="black" fill-opacity="0.64"/>
    </symbol>



</svg>
