<svg width="39" height="37" viewBox="0 0 39 37" fill="none" xmlns="http://www.w3.org/2000/svg">
<g filter="url(#filter0_d_839_1078)">
<path d="M18.9504 26C18.5004 26 18.0712 25.9042 17.6629 25.7125C17.2546 25.5208 16.9087 25.25 16.6254 24.9L10.1504 16.925L10.8004 16.3C11.1171 15.9833 11.4921 15.8 11.9254 15.75C12.3587 15.7 12.7504 15.8 13.1004 16.05L16.0004 18.075V8C16.0004 7.71667 16.0962 7.47917 16.2879 7.2875C16.4796 7.09583 16.7171 7 17.0004 7C17.2837 7 17.5212 7.09583 17.7129 7.2875C17.9046 7.47917 18.0004 7.71667 18.0004 8V16H20.0004V12C20.0004 11.7167 20.0962 11.4792 20.2879 11.2875C20.4796 11.0958 20.7171 11 21.0004 11C21.2837 11 21.5212 11.0958 21.7129 11.2875C21.9046 11.4792 22.0004 11.7167 22.0004 12V16H24.0004V13C24.0004 12.7167 24.0962 12.4792 24.2879 12.2875C24.4796 12.0958 24.7171 12 25.0004 12C25.2837 12 25.5212 12.0958 25.7129 12.2875C25.9046 12.4792 26.0004 12.7167 26.0004 13V16H28.0004V15C28.0004 14.7167 28.0962 14.4792 28.2879 14.2875C28.4796 14.0958 28.7171 14 29.0004 14C29.2837 14 29.5212 14.0958 29.7129 14.2875C29.9046 14.4792 30.0004 14.7167 30.0004 15V22C30.0004 23.1 29.6087 24.0417 28.8254 24.825C28.0421 25.6083 27.1004 26 26.0004 26H18.9504Z" fill="white"/>
<path d="M27.5004 15.5V15C27.5004 14.5908 27.6443 14.224 27.9343 13.9339C28.2244 13.6439 28.5911 13.5 29.0004 13.5C29.4096 13.5 29.7764 13.6439 30.0664 13.9339C30.3565 14.224 30.5004 14.5908 30.5004 15V22C30.5004 23.2337 30.0553 24.3022 29.1789 25.1786C28.3026 26.0549 27.2341 26.5 26.0004 26.5H18.9504C18.4268 26.5 17.9251 26.3879 17.4504 26.1651C16.974 25.9415 16.5681 25.6237 16.2372 25.2152L27.5004 15.5ZM27.5004 15.5H26.5004V13C26.5004 12.5907 26.3565 12.224 26.0664 11.9339C25.7764 11.6439 25.4096 11.5 25.0004 11.5C24.5911 11.5 24.2244 11.6439 23.9343 11.9339C23.6443 12.224 23.5004 12.5908 23.5004 13V15.5H22.5004V12C22.5004 11.5907 22.3565 11.224 22.0664 10.9339C21.7764 10.6439 21.4096 10.5 21.0004 10.5C20.5911 10.5 20.2244 10.6439 19.9343 10.9339C19.6443 11.224 19.5004 11.5908 19.5004 12V15.5H18.5004V8C18.5004 7.59075 18.3565 7.22401 18.0664 6.93395C17.7764 6.64388 17.4096 6.5 17.0004 6.5C16.5911 6.5 16.2244 6.64388 15.9343 6.93395C15.6443 7.22401 15.5004 7.59075 15.5004 8V17.116L13.3888 15.6415C12.9369 15.3196 12.4217 15.1894 11.8681 15.2533C11.3212 15.3164 10.8439 15.5509 10.4505 15.9428L9.80384 16.5646L9.47243 16.8832L9.76222 17.2402L16.2368 25.2146L27.5004 15.5Z" stroke="black"/>
</g>
<defs>
<filter id="filter0_d_839_1078" x="0.794922" y="0" width="38.2051" height="37" filterUnits="userSpaceOnUse" color-interpolation-filters="sRGB">
<feFlood flood-opacity="0" result="BackgroundImageFix"/>
<feColorMatrix in="SourceAlpha" type="matrix" values="0 0 0 0 0 0 0 0 0 0 0 0 0 0 0 0 0 0 127 0" result="hardAlpha"/>
<feOffset dy="2"/>
<feGaussianBlur stdDeviation="4"/>
<feComposite in2="hardAlpha" operator="out"/>
<feColorMatrix type="matrix" values="0 0 0 0 0 0 0 0 0 0 0 0 0 0 0 0 0 0 0.25 0"/>
<feBlend mode="normal" in2="BackgroundImageFix" result="effect1_dropShadow_839_1078"/>
<feBlend mode="normal" in="SourceGraphic" in2="effect1_dropShadow_839_1078" result="shape"/>
</filter>
</defs>
</svg>
