<svg width="48" height="48" viewBox="0 0 48 48" fill="none" xmlns="http://www.w3.org/2000/svg">
<path fill-rule="evenodd" clip-rule="evenodd" d="M25.9543 31.5762C25.7177 31.8257 25.2557 31.8761 25.2557 31.8761H23.7256C23.7256 31.8761 20.3499 32.0752 17.3762 29.037C14.1333 25.7222 11.2697 19.1455 11.2697 19.1455C11.2697 19.1455 11.1045 18.7141 11.2835 18.5064C11.4851 18.2717 12.0348 18.2569 12.0348 18.2569L15.6921 18.2336C15.6921 18.2336 16.0365 18.2889 16.2831 18.4671C16.4872 18.6146 16.6012 18.8887 16.6012 18.8887C16.6012 18.8887 17.1922 20.3562 17.9747 21.6835C19.5035 24.2756 20.2147 24.8422 20.7331 24.5644C21.4894 24.1601 21.2627 20.9006 21.2627 20.9006C21.2627 20.9006 21.2765 19.7183 20.8821 19.191C20.5766 18.783 20.0006 18.6638 19.7464 18.6306C19.5398 18.6035 19.8779 18.134 20.3161 17.9239C20.9747 17.608 22.1367 17.5896 23.5102 17.6031C24.5808 17.6141 24.8888 17.6793 25.307 17.7788C26.2776 18.0087 26.2473 18.7455 26.1819 20.3357C26.1623 20.8113 26.1396 21.3631 26.1396 22.0006C26.1396 22.1439 26.1354 22.2966 26.131 22.4537C26.1083 23.2683 26.0823 24.2012 26.6292 24.5485C26.9097 24.7254 27.5946 24.5743 29.3087 21.718C30.1213 20.3635 30.7298 18.7719 30.7298 18.7719C30.7298 18.7719 30.8638 18.488 31.0704 18.3663C31.282 18.2422 31.5675 18.2803 31.5675 18.2803L35.4164 18.2569C35.4164 18.2569 36.5734 18.1205 36.7599 18.6343C36.9565 19.1714 36.328 20.4274 34.7553 22.4849C33.2635 24.4371 32.5376 25.1558 32.6042 25.7915C32.6529 26.256 33.1248 26.6761 34.0304 27.5007C35.9207 29.2235 36.4275 30.1299 36.5492 30.3477C36.5593 30.3657 36.5667 30.379 36.5721 30.3877C37.4198 31.7679 35.6318 31.8761 35.6318 31.8761L32.2123 31.9228C32.2123 31.9228 31.4786 32.0654 30.512 31.414C30.0056 31.073 29.5108 30.5162 29.0395 29.9858C28.3198 29.1758 27.655 28.4276 27.0875 28.6043C26.1346 28.9018 26.1634 30.9162 26.1634 30.9162C26.1634 30.9162 26.1709 31.3476 25.9543 31.5762Z" fill="#6A7088"/>
</svg>
