<svg xmlns="http://www.w3.org/2000/svg">
    <symbol id="circle_plus" width="20" height="20" viewBox="0 0 20 20" fill="none" xmlns="http://www.w3.org/2000/svg">
        <path fill-rule="evenodd" clip-rule="evenodd" d="M10.0004 19.5999C15.3023 19.5999 19.6004 15.3018 19.6004 9.9999C19.6004 4.69797 15.3023 0.399902 10.0004 0.399902C4.69845 0.399902 0.400391 4.69797 0.400391 9.9999C0.400391 15.3018 4.69845 19.5999 10.0004 19.5999ZM11.2004 6.3999C11.2004 5.73716 10.6631 5.1999 10.0004 5.1999C9.33764 5.1999 8.80038 5.73716 8.80038 6.3999V8.7999H6.40039C5.73765 8.7999 5.20039 9.33715 5.20039 9.9999C5.20039 10.6626 5.73765 11.1999 6.40039 11.1999H8.80038V13.5999C8.80038 14.2626 9.33764 14.7999 10.0004 14.7999C10.6631 14.7999 11.2004 14.2626 11.2004 13.5999V11.1999H13.6004C14.2631 11.1999 14.8004 10.6626 14.8004 9.9999C14.8004 9.33715 14.2631 8.7999 13.6004 8.7999H11.2004V6.3999Z" fill="#202123"/>
    </symbol>
</svg>
