<svg xmlns="http://www.w3.org/2000/svg">
    <symbol id="star" width="16" height="15" viewBox="0 0 16 15" fill="none" xmlns="http://www.w3.org/2000/svg">
        <path d="M7.04894 0.92705C7.3483 0.00573921 8.6517 0.00573969 8.95106 0.92705L10.0206 4.21885C10.1545 4.63087 10.5385 4.90983 10.9717 4.90983H14.4329C15.4016 4.90983 15.8044 6.14945 15.0207 6.71885L12.2205 8.75329C11.87 9.00793 11.7234 9.4593 11.8572 9.87132L12.9268 13.1631C13.2261 14.0844 12.1717 14.8506 11.388 14.2812L8.58778 12.2467C8.2373 11.9921 7.7627 11.9921 7.41221 12.2467L4.61204 14.2812C3.82833 14.8506 2.77385 14.0844 3.0732 13.1631L4.14277 9.87132C4.27665 9.4593 4.12999 9.00793 3.7795 8.75329L0.979333 6.71885C0.195619 6.14945 0.598395 4.90983 1.56712 4.90983H5.02832C5.46154 4.90983 5.8455 4.63087 5.97937 4.21885L7.04894 0.92705Z" fill="#65656F"/>
    </symbol>
    <symbol id="shopping_bag" width="14" height="16" viewBox="0 0 14 16" fill="none" xmlns="http://www.w3.org/2000/svg">
        <path fill-rule="evenodd" clip-rule="evenodd" d="M7 0C4.79086 0 3 1.79086 3 4V5H2C1.49046 5 1.06239 5.38314 1.00612 5.88957L0.00612112 14.8896C-0.0252904 15.1723 0.0651756 15.455 0.254877 15.6669C0.444578 15.8789 0.715562 16 1 16H13C13.2844 16 13.5554 15.8789 13.7451 15.6669C13.9348 15.455 14.0253 15.1723 13.9939 14.8896L12.9939 5.88957C12.9376 5.38314 12.5096 5 12 5H11V4C11 1.79086 9.20914 0 7 0ZM9 5V4C9 2.89543 8.10457 2 7 2C5.89543 2 5 2.89543 5 4V5H9ZM3 8C3 7.44772 3.44772 7 4 7C4.55228 7 5 7.44772 5 8C5 8.55229 4.55228 9 4 9C3.44772 9 3 8.55229 3 8ZM10 7C9.44771 7 9 7.44772 9 8C9 8.55229 9.44771 9 10 9C10.5523 9 11 8.55229 11 8C11 7.44772 10.5523 7 10 7Z" fill="#65656F"/>
    </symbol>

    <symbol id="circle_plus" width="16" height="16" viewBox="0 0 16 16" fill="none" xmlns="http://www.w3.org/2000/svg">
        <path fill-rule="evenodd" clip-rule="evenodd" d="M8 16C12.4183 16 16 12.4183 16 8C16 3.58172 12.4183 0 8 0C3.58172 0 0 3.58172 0 8C0 12.4183 3.58172 16 8 16ZM9 5C9 4.44772 8.55228 4 8 4C7.44772 4 7 4.44772 7 5V7H5C4.44772 7 4 7.44771 4 8C4 8.55228 4.44772 9 5 9H7V11C7 11.5523 7.44772 12 8 12C8.55228 12 9 11.5523 9 11V9H11C11.5523 9 12 8.55228 12 8C12 7.44772 11.5523 7 11 7H9V5Z" fill="#65656F"/>
    </symbol>
    <symbol id="document_search" width="13" height="17" viewBox="0 0 13 17" fill="none" xmlns="http://www.w3.org/2000/svg">
        <path d="M1 2C1 0.895432 1.89543 0 3 0H7.58579C8.11622 0 8.62493 0.210714 9 0.585786L12.4142 4C12.7893 4.37507 13 4.88378 13 5.41421V14C13 15.1046 12.1046 16 11 16H9.47221C10.4223 14.9385 11 13.5367 11 12C11 8.68629 8.31371 6 5 6C3.46329 6 2.06151 6.57771 1 7.52779V2Z" fill="#65656F"/>
        <path fill-rule="evenodd" clip-rule="evenodd" d="M5 8C2.79086 8 1 9.79086 1 12C1 12.7414 1.20229 13.4364 1.55397 14.0318L0.292893 15.2929C-0.097631 15.6834 -0.0976311 16.3166 0.292893 16.7071C0.683417 17.0976 1.31658 17.0976 1.70711 16.7071L2.96818 15.446C3.56362 15.7977 4.25862 16 5 16C7.20914 16 9 14.2091 9 12C9 9.79086 7.20914 8 5 8ZM3 12C3 10.8954 3.89543 10 5 10C6.10457 10 7 10.8954 7 12C7 13.1046 6.10457 14 5 14C4.44744 14 3.94881 13.7772 3.58579 13.4142C3.22276 13.0512 3 12.5526 3 12Z" fill="#65656F"/>
    </symbol>

</svg>
