<svg width="12" height="12" viewBox="0 0 12 12" fill="none" xmlns="http://www.w3.org/2000/svg">
<path fill-rule="evenodd" clip-rule="evenodd" d="M6.00039 0.400391C6.44222 0.400391 6.80039 0.758563 6.80039 1.20039V5.20039H10.8004C11.2422 5.20039 11.6004 5.55856 11.6004 6.00039C11.6004 6.44222 11.2422 6.80039 10.8004 6.80039H6.80039V10.8004C6.80039 11.2422 6.44222 11.6004 6.00039 11.6004C5.55856 11.6004 5.20039 11.2422 5.20039 10.8004V6.80039H1.20039C0.758563 6.80039 0.400391 6.44222 0.400391 6.00039C0.400391 5.55856 0.758563 5.20039 1.20039 5.20039L5.20039 5.20039V1.20039C5.20039 0.758563 5.55856 0.400391 6.00039 0.400391Z" fill="#53535A"/>
</svg>
