<svg width="18" height="18" viewBox="0 0 18 18" fill="none" xmlns="http://www.w3.org/2000/svg">
<path d="M2.25 5.5001C2.25 3.7671 3.499 2.2871 5.207 1.9951L11.769 0.875104C12.203 0.801104 12.635 1.0201 12.832 1.4141L12.885 1.5201" stroke="#1C1C1D" stroke-width="1.5" stroke-linecap="round" stroke-linejoin="round"/>
<path d="M15.75 11.25V13.25C15.75 14.355 14.855 15.25 13.75 15.25H4.25C3.145 15.25 2.25 14.355 2.25 13.25V5.75C2.25 4.645 3.145 3.75 4.25 3.75H13.75C14.855 3.75 15.75 4.645 15.75 5.75V7.75" stroke="#1C1C1D" stroke-width="1.5" stroke-linecap="round" stroke-linejoin="round"/>
<path d="M15.75 11.25H13C12.034 11.25 11.25 10.466 11.25 9.5C11.25 8.533 12.034 7.75 13 7.75H15.75C16.302 7.75 16.75 8.198 16.75 8.75V10.25C16.75 10.802 16.302 11.25 15.75 11.25Z" stroke="#1C1C1D" stroke-width="1.5" stroke-linecap="round" stroke-linejoin="round"/>
</svg>
