<svg width="18" height="18" viewBox="0 0 18 18" fill="none" xmlns="http://www.w3.org/2000/svg">
<g clip-path="url(#clip0_2552_28746)">
<path d="M9 13.5C9.15533 13.5 9.28125 13.3741 9.28125 13.2188C9.28125 13.0634 9.15533 12.9375 9 12.9375C8.84467 12.9375 8.71875 13.0634 8.71875 13.2188C8.71875 13.3741 8.84467 13.5 9 13.5Z" fill="#1C1C1D" stroke="#1C1C1D" stroke-width="1.5" stroke-miterlimit="10" stroke-linecap="square"/>
<path d="M9 16.875C13.3492 16.875 16.875 13.3492 16.875 9C16.875 4.65076 13.3492 1.125 9 1.125C4.65076 1.125 1.125 4.65076 1.125 9C1.125 13.3492 4.65076 16.875 9 16.875Z" stroke="#1C1C1D" stroke-width="1.5" stroke-miterlimit="10" stroke-linecap="square"/>
<path d="M6.75488 6.45466C7.10307 5.12829 8.18476 4.44147 9.39582 4.50391C10.5917 4.56522 11.7049 5.22335 11.6537 6.74941C11.5806 8.91897 9.27488 8.62479 9.01726 10.6875" stroke="#1C1C1D" stroke-width="1.5" stroke-miterlimit="10" stroke-linecap="square"/>
</g>
<defs>
<clipPath id="clip0_2552_28746">
<rect width="18" height="18" fill="white"/>
</clipPath>
</defs>
</svg>
