<svg width="18" height="18" viewBox="0 0 18 18" fill="none" xmlns="http://www.w3.org/2000/svg">
<g clip-path="url(#clip0_2552_28682)">
<path d="M16.3125 7.74498C16.0354 7.46806 15.6597 7.3125 15.2679 7.3125C14.8762 7.3125 14.5005 7.46806 14.2234 7.74498C13.9463 8.02208 13.5704 8.17775 13.1785 8.17775C12.7866 8.17775 12.4108 8.02208 12.1337 7.74498C11.8566 7.46806 11.4809 7.3125 11.0891 7.3125C10.6974 7.3125 10.3217 7.46806 10.0446 7.74498C9.90743 7.88224 9.7446 7.99112 9.56537 8.06541C9.38613 8.1397 9.19402 8.17793 9 8.17793C8.80598 8.17793 8.61387 8.1397 8.43463 8.06541C8.2554 7.99112 8.09257 7.88224 7.95544 7.74498C7.67834 7.46806 7.30263 7.3125 6.91088 7.3125C6.51913 7.3125 6.14341 7.46806 5.86631 7.74498C5.5892 8.02208 5.21336 8.17775 4.82147 8.17775C4.42958 8.17775 4.05374 8.02208 3.77663 7.74498C3.49953 7.46806 3.12381 7.3125 2.73206 7.3125C2.34031 7.3125 1.96459 7.46806 1.6875 7.74498L7.875 14.0624H10.125L16.3125 7.74498Z" stroke="#1C1C1D" stroke-width="1.5" stroke-miterlimit="10" stroke-linecap="square"/>
<path d="M7.875 14.0625L6.75 17.4375H11.25L10.125 14.0625" stroke="#1C1C1D" stroke-width="1.5" stroke-miterlimit="10" stroke-linecap="square"/>
<path d="M4.5 2.25C4.05245 2.25 3.62322 2.42779 3.30676 2.74426C2.99029 3.06072 2.8125 3.48995 2.8125 3.9375C2.8125 4.38505 2.99029 4.81428 3.30676 5.13074C3.62322 5.44721 4.05245 5.625 4.5 5.625C4.78993 5.62293 5.07433 5.54538 5.32519 5.4" stroke="#1C1C1D" stroke-width="1.5" stroke-miterlimit="10" stroke-linecap="square"/>
<path d="M13.5 2.25C13.9475 2.25 14.3768 2.42779 14.6932 2.74426C15.0097 3.06072 15.1875 3.48995 15.1875 3.9375C15.1875 4.38505 15.0097 4.81428 14.6932 5.13074C14.3768 5.44721 13.9475 5.625 13.5 5.625C13.2101 5.62293 12.9257 5.54538 12.6748 5.4" stroke="#1C1C1D" stroke-width="1.5" stroke-miterlimit="10" stroke-linecap="square"/>
<path d="M8.67524 2.21953C9.54547 1.37359 10.7112 0.900205 11.9248 0.899902V3.1499C11.9248 3.89582 11.6285 4.61119 11.101 5.13864C10.5736 5.66609 9.85823 5.9624 9.1123 5.9624C8.36638 5.9624 7.65101 5.66609 7.12357 5.13864C6.59612 4.61119 6.2998 3.89582 6.2998 3.1499V0.899902C6.66915 0.899902 7.03487 0.97265 7.3761 1.11399C7.71733 1.25533 8.02738 1.4625 8.28854 1.72366C8.54971 1.98483 8.75687 2.29488 8.89822 2.6361C9.03956 2.97733 9.1123 3.34306 9.1123 3.7124" stroke="#1C1C1D" stroke-width="1.5" stroke-miterlimit="10"/>
</g>
<defs>
<clipPath id="clip0_2552_28682">
<rect width="18" height="18" fill="white"/>
</clipPath>
</defs>
</svg>
