<svg width="45" height="50" viewBox="0 0 45 50" fill="none" xmlns="http://www.w3.org/2000/svg">
<path d="M21.1764 48.5158L21.1785 48.5185C21.6533 49.1587 22.6103 49.1607 23.088 48.5234C23.0885 48.5227 23.0889 48.5221 23.0894 48.5215L23.8907 49.1198C26.2185 45.9742 29.2385 43.4418 32.6671 41.586L21.1764 48.5158ZM21.1764 48.5158L21.1688 48.5055L21.1677 48.5041M21.1764 48.5158L21.1677 48.5041M21.1677 48.5041C18.8259 45.3815 15.869 42.7126 12.3853 40.8888L12.3836 40.8879M21.1677 48.5041L12.3836 40.8879M12.3836 40.8879C5.60808 37.3572 1 30.299 1 22.1303M12.3836 40.8879L1 22.1303M1 22.1303C1 9.68144 11.7964 -0.290477 24.5814 1.1364L1 22.1303ZM43.1234 19.6474C44.1451 28.7085 39.4605 36.7711 32.1911 40.7065L24.582 1.13646C34.2154 2.21723 42.0275 10.0143 43.1234 19.6474Z" fill="#AD2950" stroke="white" stroke-width="2"/>
<path d="M28.0301 21.229V16.3718C26.6401 16.466 25.2655 16.7639 23.9609 17.2504C25.5449 18.331 26.9206 19.6779 28.0301 21.229Z" fill="white"/>
<path d="M32.7679 21.0776H29.9534C29.9534 22.8874 30.1567 24.871 29.753 26.6486C29.372 28.3257 28.4459 29.8534 27.1367 30.9783C30.2856 30.716 32.7679 28.0697 32.7679 24.8542V21.0776Z" fill="white"/>
<path d="M21.8881 12C21.1441 12.5433 19.7617 13.65 18.8867 14.9417C19.918 15.2104 20.9223 15.58 21.8852 16.0469C22.8448 15.5822 23.8497 15.213 24.8809 14.9442C24.0506 13.7264 22.742 12.6226 21.8881 12Z" fill="white"/>
<path d="M27.8773 26.2224C28.0229 25.5811 27.9356 24.8928 27.6313 24.2839C25.3253 19.672 20.8269 16.7042 15.7383 16.3706V24.8543C15.7383 28.2431 18.4953 31.0001 21.8841 31.0001C24.7738 31.0001 27.2382 29.0355 27.8773 26.2224Z" fill="white"/>
<path d="M16.6355 30.9787C14.9097 29.4975 13.8145 27.3015 13.8145 24.8542V21.0776H11V24.8542C11 28.0712 13.4846 30.7184 16.6355 30.9787Z" fill="white"/>
</svg>
