<svg width="20" height="20" viewBox="0 0 20 20" fill="none" xmlns="http://www.w3.org/2000/svg">
<g clip-path="url(#clip0_1515_19743)">
<path d="M9.41406 5.92399V6.25H10.5859V5.92399C11.7586 5.65672 12.6367 4.60618 12.6367 3.35372V0.586059C12.6367 0.409848 12.5586 0.244692 12.4223 0.132934C12.2861 0.021176 12.1087 -0.0230037 11.9359 0.0114885C11.0591 0.18684 10.3361 0.797699 10 1.60321C9.66391 0.797699 8.9409 0.18684 8.0641 0.0114885C7.89121 -0.0230818 7.71402 0.0212151 7.5777 0.132934C7.44145 0.244653 7.36328 0.409809 7.36328 0.586059V3.35372C7.36328 4.60618 8.24137 5.65672 9.41406 5.92399Z" fill="#AD2950"/>
<path d="M17.6655 3.10807C17.5756 2.95647 17.4242 2.85428 17.25 2.82764C16.3662 2.69256 15.4779 3.01928 14.8864 3.66127C14.8497 2.86717 14.4561 2.11514 13.809 1.63623V3.35373C13.809 4.51197 13.2892 5.55096 12.4707 6.25002H16.749C16.7545 6.236 16.7603 6.22221 16.7655 6.20803L17.7121 3.60725C17.7723 3.44162 17.7554 3.25967 17.6655 3.10807Z" fill="#AD2950"/>
<path d="M3.25156 6.25002H7.52984C6.71136 5.55096 6.19156 4.51197 6.19156 3.35373V1.63623C5.54449 2.11514 5.15081 2.86717 5.1141 3.66127C4.52269 3.01932 3.63433 2.69264 2.75058 2.82768C2.57636 2.85432 2.42492 2.9565 2.33503 3.10811C2.24515 3.25971 2.2282 3.44166 2.28847 3.60732L3.23507 6.20803C3.24027 6.22221 3.24609 6.236 3.25156 6.25002Z" fill="#AD2950"/>
<path d="M7.26562 15.2344C6.94203 15.2344 6.67969 15.4967 6.67969 15.8203C6.67969 16.1439 6.94203 16.4062 7.26562 16.4062H7.93016L7.98453 15.2344H7.26562Z" fill="#AD2950"/>
<path d="M12.7345 16.4062C13.0581 16.4062 13.3205 16.1439 13.3205 15.8203C13.3205 15.4967 13.0581 15.2344 12.7345 15.2344H12.0156L12.07 16.4062H12.7345Z" fill="#AD2950"/>
<path d="M9.4974 10.395C11.7584 7.65949 16.0417 7.4309 16.2229 7.4225L16.2365 7.42188H3.75002C3.53267 7.42188 3.33314 7.54219 3.23174 7.73445C3.13033 7.92672 3.14369 8.1593 3.26642 8.33867L7.98455 15.2344H8.21275C7.99521 13.3178 8.42646 11.6907 9.4974 10.395Z" fill="#AD2950"/>
<path d="M16.2776 8.59311C16.2186 8.59611 12.3187 8.81631 10.3978 11.1454C9.51691 12.2134 9.17945 13.5887 9.39335 15.2344H12.0158L16.569 8.57959L16.2776 8.59311Z" fill="#AD2950"/>
<path d="M7.09412 19.2488C7.04201 19.4259 7.07651 19.6173 7.18713 19.7651C7.29776 19.913 7.47158 20 7.65627 20H12.3438C12.5285 20 12.7023 19.913 12.8129 19.7651C12.9235 19.6173 12.958 19.4259 12.9059 19.2488L12.0699 16.4062H7.93018L7.09412 19.2488Z" fill="#AD2950"/>
</g>
<defs>
<clipPath id="clip0_1515_19743">
<rect width="20" height="20" fill="white"/>
</clipPath>
</defs>
</svg>
