<svg width="396" height="149" viewBox="0 0 396 149" fill="none" xmlns="http://www.w3.org/2000/svg">
<path d="M38.9844 35.759H55.7031V91.5403C55.7031 96.6965 54.5443 101.176 52.2266 104.978C49.9349 108.78 46.7448 111.71 42.6563 113.767C38.5677 115.824 33.8151 116.853 28.3984 116.853C23.5807 116.853 19.2057 116.006 15.2734 114.314C11.3672 112.595 8.26823 109.991 5.97656 106.501C3.6849 102.986 2.55208 98.5715 2.57812 93.259H19.4141C19.4661 95.3684 19.8958 97.1783 20.7031 98.6887C21.5365 100.173 22.6693 101.319 24.1016 102.126C25.5599 102.907 27.2786 103.298 29.2578 103.298C31.3411 103.298 33.099 102.855 34.5313 101.97C35.9896 101.059 37.0964 99.7304 37.8516 97.9856C38.6068 96.2408 38.9844 94.0924 38.9844 91.5403V35.759ZM143.003 75.759C143.003 84.483 141.349 91.9049 138.042 98.0247C134.761 104.144 130.282 108.819 124.605 112.048C118.954 115.251 112.599 116.853 105.542 116.853C98.4328 116.853 92.0526 115.238 86.4016 112.009C80.7505 108.78 76.2844 104.105 73.0031 97.9856C69.7219 91.8658 68.0812 84.4569 68.0812 75.759C68.0812 67.0351 69.7219 59.6132 73.0031 53.4934C76.2844 47.3736 80.7505 42.7122 86.4016 39.509C92.0526 36.2799 98.4328 34.6653 105.542 34.6653C112.599 34.6653 118.954 36.2799 124.605 39.509C130.282 42.7122 134.761 47.3736 138.042 53.4934C141.349 59.6132 143.003 67.0351 143.003 75.759ZM125.855 75.759C125.855 70.108 125.008 65.3424 123.316 61.4622C121.649 57.582 119.292 54.6392 116.245 52.634C113.198 50.6288 109.631 49.6262 105.542 49.6262C101.454 49.6262 97.8859 50.6288 94.8391 52.634C91.7922 54.6392 89.4224 57.582 87.7297 61.4622C86.063 65.3424 85.2297 70.108 85.2297 75.759C85.2297 81.4101 86.063 86.1757 87.7297 90.0559C89.4224 93.9361 91.7922 96.8788 94.8391 98.884C97.8859 100.889 101.454 101.892 105.542 101.892C109.631 101.892 113.198 100.889 116.245 98.884C119.292 96.8788 121.649 93.9361 123.316 90.0559C125.008 86.1757 125.855 81.4101 125.855 75.759ZM155.332 115.759V35.759H187.364C193.249 35.759 198.158 36.6314 202.09 38.3762C206.023 40.121 208.978 42.5429 210.957 45.6418C212.937 48.7148 213.926 52.2564 213.926 56.2668C213.926 59.3918 213.301 62.1392 212.051 64.509C210.801 66.8528 209.082 68.7799 206.895 70.2903C204.733 71.7747 202.26 72.8293 199.473 73.4543V74.2356C202.52 74.3658 205.371 75.2252 208.028 76.8137C210.71 78.4023 212.885 80.6288 214.551 83.4934C216.218 86.3319 217.051 89.7174 217.051 93.6497C217.051 97.8944 215.996 101.684 213.887 105.017C211.804 108.324 208.718 110.941 204.629 112.868C200.541 114.795 195.502 115.759 189.512 115.759H155.332ZM172.246 101.931H186.036C190.749 101.931 194.187 101.032 196.348 99.2356C198.51 97.4127 199.59 94.9908 199.59 91.97C199.59 89.7564 199.056 87.8033 197.989 86.1106C196.921 84.4179 195.398 83.0898 193.418 82.1262C191.465 81.1627 189.135 80.6809 186.426 80.6809H172.246V101.931ZM172.246 69.2356H184.786C187.103 69.2356 189.161 68.8319 190.957 68.0247C192.78 67.1913 194.213 66.0194 195.254 64.509C196.322 62.9986 196.856 61.1887 196.856 59.0793C196.856 56.1887 195.827 53.858 193.77 52.0872C191.739 50.3163 188.848 49.4309 185.098 49.4309H172.246V69.2356Z" fill="black"/>
<rect x="244.576" width="150.782" height="148.682" rx="40" fill="#0095FF"/>
<path d="M284.284 115.361H266.159L293.776 35.3614H315.573L343.151 115.361H325.026L304.987 53.6427H304.362L284.284 115.361ZM283.151 83.9161H325.964V97.1193H283.151V83.9161ZM369.494 35.3614V115.361H352.58V35.3614H369.494Z" fill="white"/>
</svg>
