<svg width="144" height="40" viewBox="0 0 144 40" fill="none" xmlns="http://www.w3.org/2000/svg">
<path fill-rule="evenodd" clip-rule="evenodd" d="M3.77611 19.7176C4.95998 20.3436 6.27991 20.6566 7.73593 20.6566C8.97422 20.6566 10.0968 20.4388 11.1038 20.0034C12.1108 19.568 12.9544 18.9352 13.6348 18.1051L11.512 16.1456C10.5459 17.2751 9.34843 17.8398 7.91963 17.8398C7.03514 17.8398 6.24589 17.6493 5.55191 17.2683C4.85792 16.8736 4.31361 16.3293 3.91899 15.6353C3.53798 14.9414 3.34747 14.1521 3.34747 13.2676C3.34747 12.3831 3.53798 11.5939 3.91899 10.8999C4.31361 10.2059 4.85792 9.66841 5.55191 9.2874C6.24589 8.89278 7.03514 8.69547 7.91963 8.69547C9.34843 8.69547 10.5459 9.25338 11.512 10.3692L13.6348 8.40971C12.9544 7.59325 12.1108 6.9673 11.1038 6.53186C10.1105 6.09641 8.99463 5.87869 7.75634 5.87869C6.28672 5.87869 4.95998 6.19847 3.77611 6.83803C2.60586 7.46398 1.68054 8.34167 1.00016 9.4711C0.333386 10.5869 0 11.8524 0 13.2676C0 14.6828 0.333386 15.9551 1.00016 17.0846C1.68054 18.2004 2.60586 19.0781 3.77611 19.7176ZM27.7472 20.4116V17.7581H19.9705V14.4515H26.6042V11.8796H19.9705V8.77711H27.4819V6.12363H16.6843V20.4116H27.7472ZM44.2988 6.12363V20.4116H41.5841L34.4605 11.7368V20.4116H31.1947V6.12363H33.9298L41.033 14.7985V6.12363H44.2988ZM46.8833 8.81794H51.4554V16.1591H54.7621V8.81794H59.3342V6.12363H46.8833V8.81794ZM61.9298 6.12363H65.2365V20.4116H61.9298V6.12363ZM72.3218 19.7176C73.5057 20.3436 74.8256 20.6566 76.2816 20.6566C77.5199 20.6566 78.6425 20.4388 79.6495 20.0034C80.6565 19.568 81.5001 18.9352 82.1805 18.1051L80.0577 16.1456C79.0916 17.2751 77.8941 17.8398 76.4653 17.8398C75.5808 17.8398 74.7916 17.6493 74.0976 17.2683C73.4036 16.8736 72.8593 16.3293 72.4647 15.6353C72.0837 14.9414 71.8932 14.1521 71.8932 13.2676C71.8932 12.3831 72.0837 11.5939 72.4647 10.8999C72.8593 10.2059 73.4036 9.66841 74.0976 9.2874C74.7916 8.89278 75.5808 8.69547 76.4653 8.69547C77.8941 8.69547 79.0916 9.25338 80.0577 10.3692L82.1805 8.40971C81.5001 7.59325 80.6565 6.9673 79.6495 6.53186C78.6562 6.09641 77.5403 5.87869 76.302 5.87869C74.8324 5.87869 73.5057 6.19847 72.3218 6.83803C71.1516 7.46398 70.2262 8.34167 69.5459 9.4711C68.8791 10.5869 68.5457 11.8524 68.5457 13.2676C68.5457 14.6828 68.8791 15.9551 69.5459 17.0846C70.2262 18.2004 71.1516 19.0781 72.3218 19.7176ZM122.986 16.4314L125.741 20.4116H129.293L126.088 15.819C127.027 15.4108 127.748 14.8257 128.252 14.0637C128.769 13.288 129.028 12.3695 129.028 11.3081C129.028 10.2467 128.776 9.32821 128.272 8.55258C127.769 7.77695 127.048 7.17821 126.109 6.75638C125.183 6.33454 124.088 6.12362 122.822 6.12362H116.638V20.4116H119.944V16.4314H122.822H122.986ZM124.904 9.47109C125.421 9.89293 125.68 10.5053 125.68 11.3081C125.68 12.0974 125.421 12.7097 124.904 13.1451C124.387 13.5806 123.632 13.7983 122.639 13.7983H119.944V8.81793H122.639C123.632 8.81793 124.387 9.03565 124.904 9.47109ZM143.527 20.4116V17.7581H135.75V14.4515H142.384V11.8796H135.75V8.77711H143.261V6.12362H132.464V20.4116H143.527Z" fill="white"/>
<path d="M111.295 14.5036H107.498C107.498 8.59042 102.705 3.79677 96.7914 3.79677V0C104.802 0 111.295 6.49352 111.295 14.5036ZM96.7914 3.79677V7.59353C92.8073 7.59353 89.5775 10.8233 89.5775 14.8074H85.7808C85.7808 8.7264 90.7104 3.79677 96.7914 3.79677ZM96.4876 25.5143V21.7175C100.472 21.7175 103.701 18.4878 103.701 14.5036H107.498C107.498 20.5847 102.569 25.5143 96.4876 25.5143ZM89.5775 14.8074H93.3743C93.3743 16.6944 94.6002 17.92 96.4876 17.92V21.7167C92.5035 21.7167 89.5775 18.7914 89.5775 14.8074Z" fill="white"/>
<path d="M36.5924 40C35.9748 40 35.4055 39.9032 34.8846 39.7097C34.3711 39.5088 33.9209 39.226 33.5339 38.8614C33.1544 38.4967 32.8567 38.0689 32.6409 37.5777C32.4326 37.0866 32.3284 36.547 32.3284 35.9591C32.3284 35.3713 32.4326 34.8317 32.6409 34.3406C32.8567 33.8494 33.1581 33.4215 33.5451 33.0569C33.932 32.6923 34.386 32.4132 34.9069 32.2197C35.4278 32.0188 36.0008 31.9183 36.6259 31.9183C37.318 31.9183 37.9394 32.0337 38.4901 32.2644C39.0482 32.495 39.517 32.8299 39.8965 33.269L38.7356 34.3406C38.4529 34.0429 38.144 33.8234 37.8092 33.682C37.4743 33.5332 37.1096 33.4587 36.7152 33.4587C36.3357 33.4587 35.9897 33.5183 35.6771 33.6373C35.3646 33.7564 35.0929 33.9276 34.8623 34.1508C34.639 34.3741 34.4641 34.6382 34.3376 34.9434C34.2186 35.2485 34.159 35.5871 34.159 35.9591C34.159 36.3238 34.2186 36.6587 34.3376 36.9638C34.4641 37.2689 34.639 37.5368 34.8623 37.7675C35.0929 37.9907 35.3608 38.1619 35.666 38.2809C35.9785 38.4 36.3208 38.4595 36.6929 38.4595C37.0501 38.4595 37.3961 38.4037 37.731 38.2921C38.0733 38.173 38.4045 37.9758 38.7245 37.7005L39.7514 39.0065C39.3273 39.3265 38.8324 39.5721 38.2668 39.7432C37.7087 39.9144 37.1506 40 36.5924 40ZM38.0994 38.7721V35.8364H39.7514V39.0065L38.0994 38.7721Z" fill="white"/>
<path d="M48.1287 39.866V32.0523H51.5109C52.2105 32.0523 52.8132 32.1676 53.3193 32.3983C53.8253 32.6216 54.216 32.9453 54.4913 33.3694C54.7667 33.7936 54.9043 34.2997 54.9043 34.8875C54.9043 35.468 54.7667 35.9703 54.4913 36.3945C54.216 36.8112 53.8253 37.1312 53.3193 37.3545C52.8132 37.5777 52.2105 37.6893 51.5109 37.6893H49.1333L49.937 36.8968V39.866H48.1287ZM53.096 39.866L51.1426 37.0307H53.0737L55.0495 39.866H53.096ZM49.937 37.0977L49.1333 36.2494H51.4105C51.9686 36.2494 52.3853 36.1303 52.6607 35.8922C52.936 35.6466 53.0737 35.3117 53.0737 34.8875C53.0737 34.4559 52.936 34.1211 52.6607 33.8829C52.3853 33.6448 51.9686 33.5257 51.4105 33.5257H49.1333L49.937 32.6662V37.0977Z" fill="white"/>
<path d="M66.8298 40C66.2122 40 65.6391 39.8995 65.1108 39.6986C64.5899 39.4977 64.1359 39.2149 63.749 38.8502C63.3694 38.4856 63.0718 38.0577 62.856 37.5665C62.6476 37.0754 62.5434 36.5396 62.5434 35.9591C62.5434 35.3787 62.6476 34.8429 62.856 34.3517C63.0718 33.8606 63.3732 33.4327 63.7601 33.0681C64.1471 32.7034 64.601 32.4206 65.1219 32.2197C65.6429 32.0188 66.2084 31.9183 66.8186 31.9183C67.4363 31.9183 68.0019 32.0188 68.5153 32.2197C69.0363 32.4206 69.4865 32.7034 69.866 33.0681C70.253 33.4327 70.5544 33.8606 70.7702 34.3517C70.986 34.8355 71.0939 35.3713 71.0939 35.9591C71.0939 36.5396 70.986 37.0791 70.7702 37.5777C70.5544 38.0689 70.253 38.4967 69.866 38.8614C69.4865 39.2186 69.0363 39.4977 68.5153 39.6986C68.0019 39.8995 67.44 40 66.8298 40ZM66.8186 38.4595C67.1684 38.4595 67.4884 38.4 67.7786 38.2809C68.0763 38.1619 68.3367 37.9907 68.56 37.7675C68.7832 37.5442 68.9544 37.28 69.0735 36.9749C69.2 36.6698 69.2632 36.3312 69.2632 35.9591C69.2632 35.5871 69.2 35.2485 69.0735 34.9434C68.9544 34.6382 68.7832 34.3741 68.56 34.1508C68.3442 33.9276 68.0875 33.7564 67.7898 33.6373C67.4921 33.5183 67.1684 33.4587 66.8186 33.4587C66.4689 33.4587 66.1452 33.5183 65.8475 33.6373C65.5573 33.7564 65.3005 33.9276 65.0773 34.1508C64.854 34.3741 64.6792 34.6382 64.5527 34.9434C64.4336 35.2485 64.3741 35.5871 64.3741 35.9591C64.3741 36.3238 64.4336 36.6624 64.5527 36.9749C64.6792 37.28 64.8503 37.5442 65.0661 37.7675C65.2894 37.9907 65.5498 38.1619 65.8475 38.2809C66.1452 38.4 66.4689 38.4595 66.8186 38.4595Z" fill="white"/>
<path d="M82.6219 40C81.5131 40 80.6462 39.6911 80.0211 39.0735C79.396 38.4558 79.0834 37.574 79.0834 36.428V32.0523H80.8918V36.361C80.8918 37.1052 81.0443 37.641 81.3494 37.9684C81.6545 38.2958 82.0824 38.4595 82.6331 38.4595C83.1838 38.4595 83.6117 38.2958 83.9168 37.9684C84.2219 37.641 84.3745 37.1052 84.3745 36.361V32.0523H86.1605V36.428C86.1605 37.574 85.8479 38.4558 85.2228 39.0735C84.5977 39.6911 83.7308 40 82.6219 40Z" fill="white"/>
<path d="M94.6449 39.866V32.0523H98.0271C98.7267 32.0523 99.3294 32.1676 99.8355 32.3983C100.342 32.6216 100.732 32.9453 101.008 33.3694C101.283 33.7936 101.421 34.2997 101.421 34.8875C101.421 35.468 101.283 35.9703 101.008 36.3945C100.732 36.8187 100.342 37.1461 99.8355 37.3768C99.3294 37.6 98.7267 37.7117 98.0271 37.7117H95.6495L96.4532 36.8968V39.866H94.6449ZM96.4532 37.0977L95.6495 36.2382H97.9267C98.4848 36.2382 98.9015 36.1191 99.1769 35.881C99.4522 35.6429 99.5899 35.3117 99.5899 34.8875C99.5899 34.4559 99.4522 34.1211 99.1769 33.8829C98.9015 33.6448 98.4848 33.5257 97.9267 33.5257H95.6495L96.4532 32.6662V37.0977Z" fill="white"/>
<path d="M51.4539 17.0097H54.8558V20.4116H51.4539V17.0097Z" fill="white"/>
</svg>
