<svg width="20" height="20" viewBox="0 0 20 20" fill="none" xmlns="http://www.w3.org/2000/svg">
<path d="M12.4548 1.0415C11.3151 1.04149 10.3965 1.04147 9.67405 1.13861C8.92396 1.23945 8.29239 1.4552 7.7908 1.9568C7.35335 2.39424 7.13232 2.9318 7.01629 3.56346C6.90355 4.17726 6.88198 4.92842 6.87696 5.82969C6.87504 6.17487 7.1533 6.45624 7.49847 6.45816C7.84365 6.46008 8.12502 6.18182 8.12694 5.83665C8.13202 4.9254 8.15568 4.2795 8.24572 3.78929C8.33249 3.31695 8.4718 3.04356 8.67468 2.84068C8.90532 2.61004 9.22913 2.45967 9.84061 2.37746C10.4701 2.29283 11.3043 2.29151 12.5005 2.29151H13.3338C14.53 2.29151 15.3643 2.29283 15.9937 2.37746C16.6052 2.45967 16.929 2.61004 17.1597 2.84068C17.3903 3.07132 17.5407 3.39513 17.6229 4.00661C17.7075 4.63606 17.7088 5.47032 17.7088 6.6665V13.3332C17.7088 14.5294 17.7075 15.3636 17.6229 15.9931C17.5407 16.6046 17.3903 16.9284 17.1597 17.159C16.929 17.3896 16.6052 17.54 15.9937 17.6222C15.3643 17.7068 14.53 17.7082 13.3338 17.7082H12.5005C11.3043 17.7082 10.4701 17.7068 9.84061 17.6222C9.22913 17.54 8.90532 17.3896 8.67468 17.159C8.4718 16.9561 8.33249 16.6827 8.24572 16.2104C8.15568 15.7202 8.13202 15.0743 8.12694 14.163C8.12502 13.8179 7.84365 13.5396 7.49847 13.5415C7.1533 13.5434 6.87504 13.8248 6.87696 14.17C6.88198 15.0713 6.90355 15.8224 7.01629 16.4362C7.13232 17.0679 7.35335 17.6054 7.7908 18.0429C8.29239 18.5445 8.92396 18.7602 9.67405 18.8611C10.3965 18.9582 11.3151 18.9582 12.4548 18.9582H13.3796C14.5192 18.9582 15.4378 18.9582 16.1603 18.8611C16.9104 18.7602 17.542 18.5445 18.0435 18.0429C18.5451 17.5413 18.7609 16.9097 18.8617 16.1596C18.9589 15.4372 18.9589 14.5186 18.9588 13.3789V6.62078C18.9589 5.48112 18.9589 4.56252 18.8617 3.84005C18.7609 3.08996 18.5451 2.45839 18.0435 1.9568C17.542 1.4552 16.9104 1.23945 16.1603 1.13861C15.4378 1.04147 14.5192 1.04149 13.3796 1.0415H12.4548Z" fill="#1C1C1D"/>
<path d="M12.5003 9.37484C12.8455 9.37484 13.1253 9.65466 13.1253 9.99984C13.1253 10.345 12.8455 10.6248 12.5003 10.6248H3.35653L4.9904 12.0253C5.25248 12.2499 5.28283 12.6445 5.05819 12.9066C4.83356 13.1687 4.43899 13.199 4.17691 12.9744L1.26025 10.4744C1.12172 10.3556 1.04199 10.1823 1.04199 9.99984C1.04199 9.81739 1.12172 9.64404 1.26025 9.5253L4.17691 7.0253C4.43899 6.80066 4.83356 6.83102 5.05819 7.09309C5.28283 7.35517 5.25248 7.74974 4.9904 7.97437L3.35653 9.37484H12.5003Z" fill="#1C1C1D"/>
</svg>
