<svg width="18" height="20" viewBox="0 0 18 20" fill="none" xmlns="http://www.w3.org/2000/svg">
<path d="M16.5 4.99984V7.0165C16.5 8.33317 15.75 9.1665 14.565 9.1665H12V3.3415C12 2.4165 12.6825 1.6665 13.515 1.6665C14.3325 1.67484 15.0825 2.0415 15.6225 2.6415C16.1625 3.24984 16.5 4.08317 16.5 4.99984Z" stroke="#1C1C1D" stroke-width="1.5" stroke-miterlimit="10" stroke-linecap="round" stroke-linejoin="round"/>
<path d="M1.5 5.83317V17.4998C1.5 18.1915 2.20498 18.5832 2.69998 18.1665L3.9825 17.0998C4.2825 16.8498 4.7025 16.8832 4.9725 17.1832L6.21748 18.5748C6.50998 18.8998 6.99002 18.8998 7.28252 18.5748L8.54251 17.1748C8.80501 16.8832 9.225 16.8498 9.5175 17.0998L10.8 18.1665C11.295 18.5748 12 18.1832 12 17.4998V3.33317C12 2.4165 12.675 1.6665 13.5 1.6665H5.25H4.5C2.25 1.6665 1.5 3.15817 1.5 4.99984V5.83317Z" stroke="#1C1C1D" stroke-width="1.5" stroke-miterlimit="10" stroke-linecap="round" stroke-linejoin="round"/>
<path d="M4.5 7.5H9" stroke="#1C1C1D" stroke-width="1.5" stroke-linecap="round" stroke-linejoin="round"/>
<path d="M5.0625 10.8335H8.4375" stroke="#1C1C1D" stroke-width="1.5" stroke-linecap="round" stroke-linejoin="round"/>
</svg>
