<svg width="18" height="18" viewBox="0 0 18 18" fill="none" xmlns="http://www.w3.org/2000/svg">
<path d="M3.75 16.25V9.5" stroke="#1C1C1D" stroke-width="1.5" stroke-linecap="round" stroke-linejoin="round"/>
<path d="M14.25 9.5V16.25" stroke="#1C1C1D" stroke-width="1.5" stroke-linecap="round" stroke-linejoin="round"/>
<path d="M13.6679 1.75H4.33086C3.97186 1.75 3.63986 1.943 3.46186 2.255L1.75586 5.25C2.23086 6.281 3.26586 7 4.47586 7C5.38386 7 6.18786 6.588 6.73786 5.951C7.28786 6.588 8.09186 7 8.99986 7C9.90786 7 10.7109 6.589 11.2609 5.952C11.8109 6.589 12.6149 7 13.5219 7C14.7309 7 15.7669 6.281 16.2419 5.25L14.5379 2.255C14.3599 1.943 14.0269 1.75 13.6679 1.75Z" stroke="#1C1C1D" stroke-width="1.5" stroke-linecap="round" stroke-linejoin="round"/>
<path d="M7.25 16V13C7.25 12.034 8.034 11.25 9 11.25C9.966 11.25 10.75 12.034 10.75 13V16" stroke="#1C1C1D" stroke-width="1.5" stroke-linecap="round" stroke-linejoin="round"/>
<path d="M1.75 16.25H16.25" stroke="#1C1C1D" stroke-width="1.5" stroke-linecap="round" stroke-linejoin="round"/>
</svg>
