<svg width="20" height="20" viewBox="0 0 20 20" fill="none" xmlns="http://www.w3.org/2000/svg">
<path d="M11.4413 17.4998C11.2948 17.7524 11.0845 17.962 10.8315 18.1078C10.5785 18.2535 10.2916 18.3302 9.99961 18.3302C9.70763 18.3302 9.42077 18.2535 9.16775 18.1078C8.91474 17.962 8.70445 17.7524 8.55794 17.4998M15 6.6665C15 5.34042 14.4732 4.06865 13.5355 3.13097C12.5979 2.19329 11.3261 1.6665 10 1.6665C8.67392 1.6665 7.40215 2.19329 6.46447 3.13097C5.52678 4.06865 5 5.34042 5 6.6665C5 12.4998 2.5 14.1665 2.5 14.1665H17.5C17.5 14.1665 15 12.4998 15 6.6665Z" stroke="#AD2950" stroke-width="1.5" stroke-linecap="round" stroke-linejoin="round"/>
</svg>
