<svg width="20" height="20" viewBox="0 0 20 20" fill="none" xmlns="http://www.w3.org/2000/svg">
<path d="M2.64062 19.032L12.0866 9.58601C12.8686 8.80401 14.1346 8.80401 14.9146 9.58601L19.5006 14.172" stroke="#ACB4C0" stroke-linecap="round" stroke-linejoin="round"/>
<path d="M6 8C7.10457 8 8 7.10457 8 6C8 4.89543 7.10457 4 6 4C4.89543 4 4 4.89543 4 6C4 7.10457 4.89543 8 6 8Z" fill="#ACB4C0"/>
<path d="M15.5 0.5H4.5C2.29086 0.5 0.5 2.29086 0.5 4.5V15.5C0.5 17.7091 2.29086 19.5 4.5 19.5H15.5C17.7091 19.5 19.5 17.7091 19.5 15.5V4.5C19.5 2.29086 17.7091 0.5 15.5 0.5Z" stroke="#ACB4C0" stroke-linecap="round" stroke-linejoin="round"/>
</svg>
