<svg width="18" height="18" viewBox="0 0 18 18" fill="none" xmlns="http://www.w3.org/2000/svg">
<path d="M4.93796 7.68744C2.72186 7.94031 1 9.83255 1 12.1293C1 14.5984 2.98985 16.5999 5.44444 16.5999C6.89831 16.5999 8.18913 15.8977 9 14.8121M4.93796 7.68744C5.63023 9.25101 7.18856 10.3411 9 10.3411C9.17126 10.3411 9.34026 10.3313 9.50648 10.3124M4.93796 7.68744C4.69217 7.13228 4.55556 6.51743 4.55556 5.87049C4.55556 3.40145 6.5454 1.3999 9 1.3999C11.4546 1.3999 13.4444 3.40145 13.4444 5.87049C13.4444 6.51743 13.3078 7.13228 13.062 7.68744M9.50648 10.3124C9.75227 10.8675 9.88889 11.4824 9.88889 12.1293C9.88889 13.1359 9.55814 14.0648 9 14.8121M9.50648 10.3124C11.0984 10.1307 12.4352 9.10318 13.062 7.68744M13.062 7.68744C15.2781 7.94031 17 9.83255 17 12.1293C17 14.5984 15.0102 16.5999 12.5556 16.5999C11.1017 16.5999 9.81087 15.8977 9 14.8121" stroke="#727C8A"/>
</svg>
