<svg width="100" height="100" viewBox="0 0 100 100" fill="none" xmlns="http://www.w3.org/2000/svg">
<path d="M85.5119 30.8163L85.5177 30.8319C85.5158 30.83 85.5119 30.828 85.5099 30.8261C85.5099 30.83 85.508 30.8319 85.508 30.8358L85.5021 30.8202C84.7599 30.2147 83.7345 30.2265 82.8615 29.9393C82.3634 29.7753 81.8771 29.496 81.6076 29.0448C81.3478 28.6093 81.3283 28.039 81.5588 27.5878C81.9943 26.7343 83.1291 26.5311 83.8966 27.0526C84.0509 26.1366 84.9826 25.4569 85.9006 25.7323C86.3869 25.8788 86.7853 26.2851 86.9201 26.7753C87.0607 27.2811 86.9259 27.8261 86.6994 28.2987C86.3029 29.1288 85.5861 29.8612 85.5119 30.8163Z" fill="#AD2950"/>
<path d="M83.2134 21.3826C82.6314 21.572 81.9478 21.5662 81.4536 21.9685L81.4478 21.9802C81.4478 21.9763 81.4478 21.9744 81.4478 21.9724C81.4458 21.9744 81.4439 21.9744 81.4419 21.9763L81.4458 21.9666C81.397 21.3298 80.9185 20.8416 80.6548 20.2888C80.5025 19.9724 80.4146 19.6091 80.5083 19.2713C80.5982 18.947 80.8638 18.6756 81.1861 18.5779C81.7994 18.3943 82.4204 18.8474 82.522 19.4568C83.0337 19.1091 83.7915 19.2439 84.0806 19.8142C84.2349 20.115 84.2232 20.4959 84.0493 20.7849C83.8697 21.0857 83.5454 21.2732 83.2134 21.3826Z" fill="#AD2950"/>
<path d="M77.8457 25.2361L77.8496 25.244C77.8476 25.244 77.8457 25.244 77.8457 25.242C77.8437 25.244 77.8437 25.2459 77.8437 25.2459L77.8398 25.24C77.4687 24.9354 76.957 24.9412 76.5195 24.7986C76.2715 24.7166 76.0273 24.576 75.8945 24.3514C75.7637 24.1326 75.7539 23.8494 75.8691 23.6229C76.0879 23.1951 76.6543 23.0936 77.039 23.3553C77.1152 22.8983 77.5801 22.5584 78.041 22.6951C78.2832 22.7674 78.4824 22.9725 78.5508 23.2166C78.6191 23.4686 78.5527 23.742 78.4394 23.9783C78.2422 24.3924 77.8828 24.7596 77.8457 25.2361Z" fill="#AD2950"/>
<path d="M76.5723 29.0466C76.6328 29.0954 76.9707 29.3337 76.9004 29.4489C76.9082 29.4528 76.9102 29.4587 76.9121 29.4665L76.7813 29.4821C76.4277 29.4567 76.0605 29.2927 75.7246 29.193C75.1094 29.0075 74.4824 28.8493 73.8477 28.7419C72.3242 28.488 70.7813 28.5641 69.2715 28.8649C68.9629 28.9294 68.6973 28.986 68.4863 29.0309L68.4121 28.5954C69.8477 27.7692 71.6582 27.5583 73.2773 27.7848C74.0645 27.8962 74.8438 28.113 75.5645 28.4509C75.916 28.6188 76.2656 28.8102 76.5723 29.0466Z" fill="#AD2950"/>
<path d="M73.0332 37.0977C72.334 36.4395 71.5352 35.8926 70.6699 35.4805C70.1836 35.25 69.6797 35.0625 69.166 34.9121C68.7129 34.7812 68.2852 34.6914 67.8145 34.6758C69.0469 35.1699 69.918 36.2539 70.3535 37.4824C71.2344 38.2813 72.2305 38.9336 73.3438 39.3574C73.8711 39.5586 74.4199 39.7109 74.9785 39.8223C75.2598 39.8789 75.543 39.9238 75.8242 39.9746C75.9883 40.0039 76.1875 40.0215 76.3379 40.1055C76.2363 39.9004 76.2344 39.627 76.1992 39.4023C76.1465 39.0449 76.084 38.6855 75.9961 38.334C75.8027 37.5781 75.4922 36.8496 75.0508 36.2031C74.3379 35.1328 73.3223 34.4375 72.2402 33.7871C71.4063 34.1582 70.5742 34.3906 69.8066 34.5273C70.9277 34.8574 71.9863 35.4395 72.8438 36.2363C73.2012 36.5684 73.5254 36.9395 73.7988 37.3438C73.9258 37.5273 74.0449 37.7148 74.1387 37.916C74.168 37.9785 74.2656 38.1406 74.248 38.2148C74.207 38.377 73.9902 38.0918 73.9297 38.0254C73.6348 37.7129 73.3457 37.3926 73.0332 37.0977ZM63.7246 24L63.8066 23.5996C64.4297 23.7188 65.0234 24.0195 65.5527 24.3555C65.209 23.3008 65.1895 22.1426 65.4727 21.0703C65.6016 20.5879 65.7852 20.1152 66.0352 19.6816C66.2441 19.3203 66.5137 18.8906 66.8789 18.6719L67.0762 18.6777C67.1309 18.834 66.9199 19.2539 66.8867 19.3496C66.6953 19.8652 66.5137 20.3848 66.3828 20.9199C66.0547 22.2734 66.1328 23.6094 66.3633 24.9668C67.4316 25.9199 68.1309 27.1953 68.4121 28.5957L68.4863 29.0312C68.6055 29.877 68.582 30.7422 68.3848 31.5762C69.1445 30.9941 70.0195 30.5605 70.9375 30.2988C71.2969 30.1973 71.6641 30.1191 72.0312 30.0781C72.3281 30.0449 72.7188 29.9805 73.0098 30.0781C73.1426 30.1211 73.1328 30.166 73.0215 30.2285C72.8496 30.3262 72.6289 30.3613 72.4414 30.416C71.6895 30.6309 70.9453 30.8633 70.2246 31.1797C69.5117 31.4883 68.8379 31.8691 68.1738 32.2715C67.9102 32.9746 67.4941 33.6211 66.9492 34.1426C67.2168 34.1191 67.4824 34.0937 67.748 34.0625C68.2949 33.998 68.8398 33.916 69.3789 33.7969C70.9746 33.4434 72.4941 32.8027 73.8574 31.8984C74.4102 31.5313 74.9356 31.123 75.4356 30.6875C75.7246 30.4336 76.0059 30.1719 76.2852 29.9102C76.4414 29.7637 76.5996 29.5957 76.7813 29.4824L76.9121 29.4668C76.959 29.5957 76.6582 30.2305 75.9492 31.0645C75.2812 31.8535 74.207 32.8066 72.8106 33.5156C74.3477 33.9492 75.623 35.1309 76.2676 36.5781C76.5859 37.291 76.7578 38.0723 76.7422 38.8535C76.7402 38.9746 76.6836 40.2188 76.3965 40.1699C76.4199 40.3906 75.584 40.4531 75.4727 40.4629C74.9609 40.5117 74.4434 40.4766 73.9395 40.3867C72.7305 40.1699 71.5859 39.6172 70.6641 38.8027C70.791 39.834 70.6445 41.0273 70.0449 41.9121L69.6113 41.6504C69.7559 40.6914 69.8027 39.752 69.5703 38.8027C69.2949 37.6641 68.7227 36.5332 67.7129 35.8809C67.1914 35.541 66.5859 35.3574 65.9668 35.3008C65.3516 35.2441 64.7793 35.3789 64.1699 35.4277L64.0313 34.9785C65.3809 34.3906 66.5176 33.5137 67.0508 32.0957C67.5801 30.6797 67.4883 28.9199 66.8965 27.5371C66.3359 25.9824 65.0312 24.9141 63.7246 24Z" fill="#AD2950"/>
<path d="M66.043 17.8689C66.168 17.9177 67.2109 18.3767 67.0449 18.6365C67.0586 18.6463 67.0684 18.6599 67.0762 18.6775L66.8789 18.6716C66.4551 18.6463 66.041 18.5154 65.6191 18.4705C65.1133 18.4197 64.6094 18.4412 64.1172 18.5525C63.2207 18.7615 62.4395 19.2595 61.8027 19.9138C61.6875 20.033 61.5859 20.1423 61.498 20.238L61.0703 20.0271C61.5352 18.7634 62.7813 17.8748 64.0879 17.6716C64.7422 17.5662 65.4219 17.6326 66.043 17.8689Z" fill="#AD2950"/>
<path d="M61.2598 39.4508C60.7266 39.3707 60.3105 39.3511 60.0625 39.3179L60.0957 39.0269C61.4141 38.5308 63.0898 38.9039 64.2598 39.6011C65.5527 40.3726 66.5039 41.6207 66.8965 43.0777C67.0195 43.5465 67.0605 43.9312 67.0566 44.1988L66.6992 44.2594C66.627 44.0777 66.5664 43.8844 66.5449 43.8336C66.3184 43.2945 66.0664 42.7691 65.75 42.2789L65.3301 42.15C65.4023 42.0914 65.4727 42.0367 65.5449 41.9781C64.9629 41.1773 64.209 40.523 63.3223 40.0836L62.8535 40.0777C62.8613 40.0133 62.8672 39.9469 62.873 39.8824C62.291 39.65 61.7285 39.5172 61.2598 39.4508Z" fill="#AD2950"/>
<path d="M57.1627 29.9082C55.8287 29.6758 54.9283 28.3906 55.2349 27.0586L55.7017 27.0527C55.7584 27.5078 55.8599 27.9629 56.1412 28.3379C56.4439 28.7402 56.8951 28.9765 57.3892 29.0469C57.9361 29.123 58.522 29.0664 59.0318 28.8496C59.5396 28.6328 59.942 28.2637 60.3267 27.8769C60.0005 27.4707 59.6334 27.1133 59.2466 26.7676C59.1724 26.7012 58.6666 26.3398 58.7545 26.1914L58.7857 26.1601C58.9263 26.0722 59.3267 26.2519 59.4283 26.293C59.7662 26.4297 60.0806 26.6172 60.3716 26.8359C61.0005 27.3144 61.5162 27.9394 61.8697 28.6426C62.2642 29.4219 62.4752 30.3066 62.44 31.1797C62.4283 31.5488 62.3716 31.9297 62.2486 32.2812C62.2193 32.3594 62.108 32.7187 61.9732 32.6836C61.9693 32.6816 61.9634 32.6797 61.9576 32.6777C61.8384 32.6211 61.8482 32.2676 61.8404 32.1758C61.8072 31.7969 61.7798 31.418 61.7173 31.043C61.688 31.0664 61.6568 31.0898 61.6255 31.1113L61.5162 30.7324C61.563 30.7187 61.608 30.7051 61.6548 30.6933C61.5474 30.1894 61.3736 29.6289 61.0963 29.0742C60.9439 28.7637 60.7701 28.4805 60.5845 28.2207C60.0201 29.5371 58.524 30.1465 57.1627 29.9082Z" fill="#AD2950"/>
<path d="M57.9727 41.25L58.2324 40.9043C58.6152 41.293 59.0176 41.6582 59.5254 41.873C60.0352 42.0918 60.6211 42.1484 61.166 42.0723C61.6621 42.002 62.1152 41.7656 62.418 41.3633C62.6992 40.9883 62.8008 40.5332 62.8535 40.0781L63.3223 40.084C63.6309 41.416 62.7285 42.6992 61.3945 42.9316C60.0312 43.1719 58.541 42.5625 57.9727 41.25Z" fill="#AD2950"/>
<path d="M57.1289 43.7852C58.6699 44.2383 60.207 44.457 61.793 44.0762C63.1602 43.7461 64.2539 43.002 65.3301 42.1504L65.75 42.2793C64.9395 43.6836 63.3535 44.6348 61.8027 44.9785C60.1777 45.3359 58.291 45.1094 56.9121 44.125L57.1289 43.7852Z" fill="#AD2950"/>
<path d="M54.2773 23.1402C54.2813 22.8844 54.3242 22.6265 54.3906 22.3785C54.332 22.3726 54.2734 22.3668 54.2148 22.359L54.5117 22.0094C55.502 19.4859 58.8496 19.0601 61.0703 20.0269L61.498 20.2379C62.0195 20.525 62.5313 20.9117 62.8867 21.4C63 20.7515 63.334 20.1558 63.834 19.7301C64.0273 19.5621 64.2422 19.4234 64.4746 19.3238C64.5605 19.2887 64.9766 19.1012 65.0586 19.234C65.1231 19.3414 64.707 19.6207 64.6484 19.6715C64.4355 19.8551 64.2344 20.0523 64.0566 20.273C63.6406 20.7965 63.4043 21.4215 63.3203 22.0836C63.5469 22.5484 63.6816 23.0601 63.7168 23.5797C63.7461 23.5836 63.7773 23.5894 63.8066 23.5992L63.7246 23.9996C63.7168 24.2437 63.6934 24.4918 63.6387 24.732L63.0918 24.6246C63 23.7594 62.7715 22.8863 62.1934 22.2125C61.6719 21.6012 60.9902 21.1969 60.2285 20.9566C58.6387 20.4547 56.5801 20.6461 55.4395 21.982C55.0898 22.4019 54.8926 22.8375 54.748 23.1578L54.2773 23.1402Z" fill="#AD2950"/>
<path d="M53.3343 9.61891C53.2854 8.98219 52.8069 8.49195 52.5432 7.93922C52.3909 7.62476 52.303 7.26148 52.3948 6.92359C52.4846 6.59742 52.7522 6.32594 53.0745 6.22828C53.6878 6.04469 54.3069 6.49781 54.4104 7.10914C54.9221 6.76148 55.678 6.89625 55.969 7.46656C56.1233 7.76734 56.1096 8.14625 55.9378 8.43726C55.7581 8.73805 55.4339 8.92359 55.1018 9.03297C54.5178 9.22437 53.8362 9.21656 53.3401 9.62086L53.3362 9.63062C53.3362 9.62867 53.3362 9.62672 53.3362 9.62476C53.3342 9.62672 53.3323 9.62672 53.3303 9.62867L53.3343 9.61891Z" fill="#AD2950"/>
<path d="M52.8066 29.2539L53.0098 28.9531C54.2031 29.9141 55.4043 30.7637 56.9316 31.0898C57.8008 31.2734 58.6895 31.3047 59.5684 31.1914C60.2012 31.1055 60.8047 30.9316 61.416 30.7617C61.4492 30.752 61.4824 30.7422 61.5156 30.7324L61.625 31.1113C61.5957 31.1328 61.5645 31.1543 61.5332 31.1758C60.1914 32.0957 58.3516 32.2969 56.7969 31.9629C55.2285 31.625 53.623 30.6719 52.8066 29.2539Z" fill="#AD2950"/>
<path d="M52.0966 17.2851C52.1083 16.8066 51.788 16.4062 51.6337 15.9726C51.5438 15.7265 51.5048 15.4492 51.6005 15.2031C51.6923 14.9668 51.911 14.7851 52.161 14.7383C52.6317 14.6465 53.0595 15.0312 53.0907 15.4941C53.4989 15.2754 54.0516 15.4336 54.2255 15.8808C54.3173 16.1172 54.2802 16.3984 54.1278 16.6015C53.9716 16.8125 53.7157 16.9277 53.4598 16.9843C53.0106 17.082 52.5009 17.0254 52.1005 17.289L52.0966 17.2949C52.0966 17.2929 52.0966 17.2929 52.0966 17.291C52.0946 17.291 52.0946 17.2929 52.0927 17.2929L52.0966 17.2851Z" fill="#AD2950"/>
<path d="M52.0122 30.8083C51.9868 30.863 51.9145 31.1032 51.8267 31.3024L51.5005 31.1755C51.4751 29.5798 52.4536 27.9352 53.6899 26.986C54.4321 26.4157 55.2993 26.029 56.2212 25.8727C56.9419 25.7536 57.7681 25.7399 58.4614 26.0016L58.4927 26.2946C58.4614 26.3005 58.4321 26.3005 58.4145 26.3024C58.1509 26.3356 57.8813 26.3532 57.6177 26.3844C56.9536 26.4626 56.3032 26.6071 55.6821 26.8571C55.688 26.9235 55.6958 26.988 55.7017 27.0524L55.2349 27.0583C54.3462 27.4977 53.5923 28.152 53.0103 28.9528L52.8071 29.2536C52.4888 29.7438 52.2368 30.2692 52.0122 30.8083Z" fill="#AD2950"/>
<path d="M51.2324 35.7048C51.2402 35.7908 51.2422 35.8747 51.2422 35.9607C52.5449 36.5466 53.7773 37.5271 54.2871 38.904C54.7969 40.279 54.6211 41.8025 53.8418 43.0408C53.873 43.0818 53.9023 43.1228 53.9316 43.1638L53.5527 43.4451C53.2617 43.8181 52.9043 44.1853 52.4941 44.447C52.4609 44.4685 52.4258 44.49 52.3906 44.5095L52.1211 44.1482C52.7227 43.4216 53.2207 42.6111 53.4258 41.6775C53.6211 40.7771 53.5215 39.824 53.0703 39.0154C52.6055 38.1794 51.8301 37.5544 50.9883 37.1189C50.0918 36.654 49.1133 36.3826 48.0977 36.3865C47.1602 36.3884 46.2422 36.6286 45.3613 36.9392L44.8223 36.7439C44.8789 36.6931 44.9395 36.6384 45.0117 36.5837C46.5977 35.3493 48.8027 35.0837 50.6758 35.7361L51.2324 35.7048Z" fill="#AD2950"/>
<path d="M49.1628 75.3258C49.155 75.236 49.0632 74.5289 49.2253 74.5055C49.3991 74.4782 49.6003 75.3707 49.6355 75.4821C49.7819 75.9567 49.9323 76.4293 50.1198 76.8883C50.4558 77.7106 50.9226 78.4293 51.5085 79.0953C51.5808 79.1793 51.9167 79.5016 51.6237 79.4664C51.2917 79.4235 50.9421 79.0973 50.7116 78.8766C50.0554 78.2457 49.6316 77.4039 49.3855 76.5348C49.2741 76.1422 49.1999 75.734 49.1628 75.3258Z" fill="#AD2950"/>
<path d="M49.1317 61.8572C48.3778 63.2186 47.7333 64.6268 47.3231 66.1307C46.911 67.6404 46.7684 69.1717 46.6825 70.7303L46.2216 70.7029C45.8915 69.0154 46.0751 67.2088 46.5614 65.5721C46.9755 64.1775 47.6454 62.8318 48.5673 61.701C48.7743 61.4432 48.9989 61.1893 49.2509 60.9705C49.3036 60.9236 49.5204 60.7088 49.6122 60.7498C49.7841 60.824 49.1845 61.7635 49.1317 61.8572Z" fill="#AD2950"/>
<path d="M44.8167 90.5605C44.8753 90.2383 45.055 89.9141 45.182 89.6133C45.7034 88.3789 46.1585 87.1328 46.4632 85.8262C46.7601 84.5645 46.8616 83.2891 46.9984 82.0059L47.4066 81.916C47.7894 83.4902 47.5745 85.2676 47.1234 86.8008C46.7405 88.1055 46.1448 89.5352 45.1683 90.5156C45.055 90.6289 44.7601 90.8887 44.8167 90.5605Z" fill="#AD2950"/>
<path d="M47.1197 38.4509C47.4751 38.3239 47.9693 38.4431 48.3189 38.531C48.7232 38.6325 49.1118 38.7946 49.4751 38.9958C50.3462 39.4763 51.0708 40.1989 51.5532 41.0681C51.94 41.7673 52.2739 42.6931 52.1372 43.5056C52.1138 43.6462 52.0669 43.74 52.0064 43.74C52.0044 43.74 52.0005 43.74 51.9986 43.74C51.9595 43.7341 51.9126 43.6911 51.8638 43.5974C51.6333 43.1755 51.4986 42.7028 51.2818 42.2712L50.897 42.0974C50.9693 42.0505 51.0415 42.0036 51.1138 41.9568C50.6704 41.1657 50.0825 40.4665 49.3599 39.9177L48.9185 39.8376C48.9478 39.779 48.979 39.7224 49.0083 39.6657C48.5122 39.3318 47.979 39.0857 47.438 38.8357C47.3443 38.7927 46.9556 38.6384 47.0161 38.5212C47.0298 38.4939 47.0611 38.4704 47.1197 38.4509Z" fill="#AD2950"/>
<path d="M46.6916 13.2029C46.3205 12.9002 45.8088 12.9041 45.3713 12.7615C45.1232 12.6795 44.8791 12.5389 44.7443 12.3143C44.6154 12.0975 44.6056 11.8123 44.7209 11.5858C44.9396 11.158 45.506 11.0584 45.8908 11.3182C45.967 10.8611 46.4318 10.5213 46.8908 10.658C47.1349 10.7322 47.3342 10.9354 47.4006 11.1795C47.4709 11.4315 47.4045 11.7049 47.2912 11.9412C47.092 12.3572 46.7346 12.7225 46.6974 13.201L46.7014 13.2088C46.6994 13.2068 46.6974 13.2068 46.6955 13.2049C46.6955 13.2068 46.6955 13.2088 46.6955 13.2108L46.6916 13.2029Z" fill="#AD2950"/>
<path d="M43.9023 40.4063L44.3457 40.2578C44.5273 40.666 44.7539 41.0566 45.1172 41.334C45.5566 41.6621 46.1016 41.748 46.6328 41.6465C47.1797 41.5391 47.7129 41.2988 48.125 40.9258C48.4648 40.6152 48.7031 40.2344 48.918 39.8379L49.3594 39.918C49.2207 41.2402 48.1367 42.2227 46.873 42.498C45.6797 42.7598 44.4395 42.1934 44.0273 41.0059C43.9512 40.7812 43.918 40.582 43.9023 40.4063Z" fill="#AD2950"/>
<path d="M44.1662 61.6816C43.9924 62.6953 43.8811 63.7168 43.8068 64.7402C43.7658 65.289 43.7873 65.873 43.6799 66.414C43.6662 66.4882 43.6643 66.5937 43.59 66.5234C43.5334 66.4687 43.5236 66.2754 43.51 66.205C43.4807 66.0254 43.4631 65.8418 43.4455 65.6601C43.3479 64.5761 43.3791 63.4726 43.5002 62.3886C43.7561 60.1035 44.3674 57.8144 45.4064 55.7519C45.6447 55.2773 45.8967 54.7929 46.2111 54.3632C46.2561 54.3027 46.3986 54.0586 46.4397 54.1953C46.4729 54.3125 46.3186 54.58 46.2795 54.6836C46.1564 54.998 46.0275 55.3105 45.9045 55.625C45.1311 57.5859 44.5178 59.6015 44.1662 61.6816Z" fill="#AD2950"/>
<path d="M42.6467 93.3691C42.2717 92.9473 41.9924 92.4297 41.7932 91.9043C41.3283 90.6621 41.2776 89.2852 41.4651 87.9844C41.6584 86.6231 42.1233 85.3086 42.6252 84.0332C42.8557 83.4512 43.094 82.875 43.3381 82.2969C43.4358 82.0723 43.5295 81.8438 43.6408 81.627C43.6779 81.5508 43.717 81.459 43.7717 81.3887L43.9221 81.3965C44.0061 81.8809 43.8088 82.4766 43.6955 82.9434C43.5354 83.5918 43.3401 84.2324 43.1467 84.875C42.6838 86.4121 42.2346 87.9707 42.2111 89.5918L42.5608 89.8633C42.4592 89.9883 42.3498 90.1094 42.2229 90.2031C42.2639 90.9277 42.3889 91.6445 42.633 92.3281C42.7404 92.627 42.8674 92.9121 43.008 93.1934C43.0881 93.3516 43.2092 93.5215 43.258 93.6934C43.3576 94.0625 42.7307 93.4609 42.6467 93.3691Z" fill="#AD2950"/>
<path d="M42.2109 89.5918C42.8945 87.8047 44.0098 86.2207 44.6797 84.4258C44.9668 83.6484 45.1133 82.8633 45.2676 82.0527L45.5938 82.1113C46.0137 83.6016 45.3379 85.3086 44.668 86.6211C44.293 87.3535 43.8477 88.0488 43.3867 88.7305C43.1777 89.041 42.9648 89.3457 42.7363 89.6406C42.6797 89.7129 42.6211 89.7891 42.5605 89.8633L42.2109 89.5918Z" fill="#AD2950"/>
<path d="M42.2422 43.2266L42.3496 42.8809C43.0371 43.1484 43.7148 43.4277 44.4395 43.5879C45.2812 43.7715 46.1348 43.8184 46.9902 43.7168C47.8047 43.6191 48.5977 43.375 49.3398 43.0234C49.8887 42.7637 50.3887 42.4297 50.8965 42.0977L51.2812 42.2715C50.3262 43.625 48.6055 44.4277 46.9922 44.6074C45.3574 44.7852 43.4805 44.3691 42.2422 43.2266Z" fill="#AD2950"/>
<path d="M40.3909 69.6698C40.5648 68.2635 40.6976 66.8651 40.6234 65.4471C40.5628 64.3124 40.3519 63.2089 40.1741 62.0897C40.1566 61.9921 40.0394 61.5428 40.1546 61.4628C40.3401 61.3397 40.6917 62.1581 40.7327 62.2479C41.2601 63.4081 41.4964 64.7069 41.5257 65.9745C41.5569 67.2675 41.3773 68.6053 40.8831 69.8065L40.3909 69.6698Z" fill="#AD2950"/>
<path d="M34.4453 79.1074C34.4453 78.9863 34.4414 78.8652 34.4414 78.7441C33.7832 78.3125 32.998 78.1641 32.2207 78.166C30.8125 78.1738 29.4336 78.7285 28.0273 78.5566C27.3301 78.4727 26.6562 78.2285 26.0684 77.8516C25.9863 77.7988 25.2969 77.3496 25.2109 77.1074L25.6094 77.0918C26.5 77.4355 27.3711 77.7344 28.3418 77.6719C29.1758 77.6191 29.9766 77.3027 30.7891 77.123C31.2656 77.0195 31.7539 76.9414 32.2422 76.916C32.6328 76.8887 33.0293 76.8984 33.4199 76.9492C34.2988 77.0645 35.1094 77.4531 35.8027 77.998C36.1328 78.2617 36.4238 78.5586 36.7207 78.8516C37.002 79.1289 37.3379 79.4375 37.7402 79.5019C37.8164 78.5703 38.2461 77.625 38.7129 76.8281C39.1113 76.1426 39.6094 75.4414 40.2402 74.9453C40.3066 74.8906 40.5605 74.6641 40.582 74.8418C40.5977 74.9844 40.377 75.2461 40.3066 75.3594C39.8691 76.0586 39.418 76.748 39.0215 77.4746C38.6602 78.1426 38.3711 78.8398 38.0156 79.5098C38.748 79.418 39.4023 78.9277 40.0957 78.7012C40.8555 78.457 41.7012 78.3887 42.4746 78.6055C43.1953 78.8047 43.7715 79.2617 44.3145 79.7539C44.75 80.1465 45.1855 80.5547 45.7852 80.6621C45.6172 79.7383 45.4961 78.8047 45.3144 77.8828C45.1934 77.2676 44.9746 76.6152 44.957 75.9824C44.9434 75.5254 45.2832 76.1426 45.3418 76.2578C45.9941 77.5723 46.291 79.2285 46.1367 80.6855C46.9414 80.6758 47.6719 80.2246 48.3848 79.9004C49.0918 79.5781 49.8418 79.3281 50.6289 79.3828C51.4121 79.4375 52.1113 79.7832 52.7598 80.2012C53.3633 80.584 53.9512 81.041 54.6484 81.2324C55.3652 81.4316 56.043 81.291 56.7559 81.1777L57.0117 81.1895C57.082 81.3359 56.5801 81.5996 56.4824 81.6504C56.1836 81.8125 55.8574 81.9238 55.5215 81.9883C54.8066 82.1211 54.0918 82 53.4258 81.7168C52.7285 81.4199 52.0937 80.9805 51.3711 80.7402C49.9023 80.2559 48.6953 81.3711 47.3965 81.873C47.4004 81.8848 47.4043 81.9004 47.4062 81.9121C47.4062 81.9141 47.4062 81.9141 47.4062 81.916L46.998 82.0059C46.5684 82.123 46.082 82.1797 45.5937 82.1113L45.2676 82.0527C44.7715 81.9336 44.3027 81.6816 43.9219 81.3965L43.7715 81.3887C43.7891 81.3652 43.8105 81.3418 43.832 81.3262C43.4863 81.0488 43.168 80.7383 42.8145 80.4687C42.5527 81.7246 42.1035 82.9473 41.5391 84.0977C41.416 84.3516 41.2812 84.6035 41.1445 84.8516C41.0801 84.9668 41.0059 85.082 40.9453 85.1992C40.877 85.3379 40.8555 85.4902 40.8242 85.6445C40.7031 86.2227 40.6055 86.8086 40.5273 87.3926C40.416 88.2188 40.3652 89.0527 40.2656 89.8789C40.2539 89.9766 40.252 90.3105 40.1523 90.3711C40.0156 90.457 39.9531 90.1133 39.9316 90.0293C39.668 89.0215 39.6973 87.9102 39.7793 86.8809C39.707 86.9648 39.2949 87.5137 39.1348 87.4141C39.1016 87.3945 39.0977 87.3477 39.1055 87.2949C39.1172 87.2012 39.168 87.084 39.1816 87.0449C39.4414 86.3281 39.9199 85.6797 40.0801 84.9336C40.4512 83.2305 41.1289 81.5195 42.1582 80.1074C41.5098 79.8965 40.7988 80.0469 40.1895 80.3027C40.1836 80.3516 40.1758 80.3984 40.1699 80.4473L39.8633 80.4453C39.0547 80.8105 38.2207 81.1699 37.3184 80.9375L36.9492 80.9082V80.9062C36.9512 80.8769 36.9551 80.8477 36.957 80.8184C36.1035 80.459 35.5938 79.6894 34.9102 79.1055L34.4453 79.1074Z" fill="#AD2950"/>
<path d="M38.4033 92.9902C38.1962 92.5684 38.0439 92.1191 37.9208 91.6699C37.4189 89.8555 37.4736 87.9102 37.8251 86.0703C37.8583 85.8984 37.8935 85.7285 37.9306 85.5605C38.1435 84.6035 38.4345 83.666 38.788 82.752C39.0908 81.9629 39.4208 81.166 39.8642 80.4453L40.1708 80.4473C40.1142 80.7891 40.0048 81.127 39.913 81.457C39.7705 81.9609 39.6201 82.4648 39.4736 82.9727C39.1591 84.0684 38.8779 85.1738 38.6787 86.2969C38.624 86.6035 38.5771 86.9141 38.54 87.2227C38.54 87.2246 38.54 87.2266 38.54 87.2285C38.3232 88.9473 38.3564 90.6816 38.6884 92.3945C38.7548 92.7285 38.8447 93.0625 38.8896 93.4023C38.9052 93.5137 38.9404 93.6738 38.7997 93.6113C38.624 93.5352 38.4775 93.1465 38.4033 92.9902Z" fill="#AD2950"/>
<path d="M38.4355 24.4509C38.4512 24.5173 38.3789 24.613 38.2793 24.7107L38.2969 24.3786C38.3379 24.3806 38.375 24.3903 38.4062 24.4099H38.4082C38.3789 24.3532 38.3711 24.2868 38.3789 24.2126L38.7168 24.236C39.4102 23.9782 40.2344 23.99 40.957 24.1091C41.8789 24.2634 42.7461 24.6521 43.4863 25.2204C44.7246 26.1716 45.7031 27.8161 45.6777 29.4118L45.3223 29.4685C45.2461 29.2868 45.1875 29.0935 45.166 29.0427C44.9414 28.5036 44.6895 27.9782 44.3711 27.488L43.9414 27.3669C44.0156 27.3064 44.0898 27.2478 44.166 27.1872C43.5859 26.3884 42.832 25.736 41.9434 25.2946L41.4766 25.2888C41.4844 25.2243 41.4902 25.1579 41.4961 25.0935C40.873 24.8454 40.2246 24.697 39.5605 24.6189C39.2949 24.5876 39.0273 24.572 38.7598 24.5407C38.7031 24.531 38.4785 24.5271 38.4355 24.4509Z" fill="#AD2950"/>
<path d="M38.239 58.1913C38.198 57.4296 38.1316 56.6698 38.0164 55.9159C37.7937 54.4706 37.3875 53.0799 36.9109 51.701C36.8796 51.6092 36.5945 50.9882 36.6922 50.9003C36.8269 50.7811 37.4148 51.9296 37.4597 52.0135C38.2429 53.5956 38.6472 55.3807 38.6961 57.1425C38.7156 57.8358 38.6882 58.5487 38.5457 59.2323C38.5183 59.371 38.3757 59.9276 38.3132 59.5135C38.2449 59.0819 38.2625 58.6288 38.239 58.1913Z" fill="#AD2950"/>
<path d="M36.5898 26.4551L36.8496 26.1113C37.2363 26.5 37.6387 26.8672 38.1465 27.0859C38.6562 27.3027 39.2402 27.3574 39.7891 27.2832C40.2813 27.2129 40.7344 26.9766 41.0371 26.5723C41.3184 26.1973 41.4219 25.7441 41.4766 25.2891L41.9434 25.2949C42.25 26.625 41.3477 27.9082 40.0156 28.1426C38.6523 28.3828 37.1562 27.7695 36.5898 26.4551Z" fill="#AD2950"/>
<path d="M35.459 29.2813L35.5234 28.9297C36.2266 29.123 36.918 29.3379 37.6484 29.4297C38.5156 29.5391 39.3887 29.5059 40.2441 29.3242C41.6797 29.0176 42.8242 28.252 43.9414 27.3672L44.3711 27.4883C43.5547 28.9102 41.9492 29.8613 40.3809 30.1973C38.7539 30.5488 36.8145 30.3105 35.459 29.2813Z" fill="#AD2950"/>
<path d="M35.323 30.5564C35.3113 30.6697 35.2859 30.9099 35.1902 30.9099C35.1609 30.9099 35.1238 30.8845 35.0808 30.8298C34.8913 30.5896 34.8327 30.2107 34.7878 29.9197C34.737 29.6032 34.7234 29.2829 34.7429 28.9607C34.7917 28.1286 35.0437 27.3083 35.4656 26.5896C35.823 25.9782 36.3073 25.4353 36.8816 25.0173C37.1589 24.8161 37.4597 24.6423 37.78 24.5154C37.8952 24.4724 38.1277 24.365 38.2976 24.3786L38.28 24.7107C38.1316 24.8591 37.9245 25.0095 37.8718 25.0564C37.5046 25.3845 37.1589 25.7282 36.8503 26.1111L36.5905 26.4548C36.0769 27.1775 35.6706 28.0486 35.5241 28.9294L35.4597 29.281C35.3991 29.7048 35.3718 30.1306 35.323 30.5564Z" fill="#AD2950"/>
<path d="M27.0645 38.9844C28.2578 39.9414 29.4551 40.793 30.9844 41.1172C31.8535 41.3008 32.7402 41.3359 33.623 41.2187C34.1855 41.1445 34.7305 40.9961 35.2734 40.8437L35.4043 41.3242C34.082 42.1406 32.334 42.3125 30.8496 41.9922C29.2793 41.6562 27.6777 40.7031 26.8574 39.2812L27.0645 38.9844Z" fill="#AD2950"/>
<path d="M33.813 92.8672C33.979 92.4902 34.1665 92.123 34.3443 91.752C35.1821 90.0039 35.8657 88.1816 36.2876 86.2891C36.5005 85.3359 36.6685 84.3711 36.7661 83.4004C36.8501 82.5723 36.8794 81.7402 36.9497 80.9082L37.3189 80.9375C37.647 82.5664 37.563 84.3105 37.2544 85.9648C37.1743 86.3848 37.0825 86.7988 36.979 87.2031C36.5064 89.0508 35.7212 90.8672 34.5962 92.4102C34.5357 92.4961 33.813 93.5 33.6665 93.3496C33.5923 93.2715 33.7818 92.9355 33.813 92.8672Z" fill="#AD2950"/>
<path d="M29.7541 37.0818C29.8088 37.5388 29.9103 37.9919 30.1916 38.3669C30.4943 38.7693 30.9455 39.0076 31.4435 39.0759C31.9884 39.1541 32.5724 39.0974 33.0822 38.8787C33.592 38.6619 33.9943 38.2927 34.3791 37.9041C34.1076 37.6326 33.8771 37.3279 33.5939 37.0662C33.133 36.6365 32.7931 36.3787 32.7931 36.2517C32.7931 36.2478 32.7931 36.2439 32.7951 36.238C32.797 36.2341 32.797 36.2302 32.799 36.2263L32.8205 36.2029C33.0197 36.0779 33.4474 36.3044 33.6213 36.3826C33.9533 36.5349 34.2658 36.7341 34.549 36.9646C35.8029 37.9822 36.5451 39.5857 36.4943 41.2029C36.4806 41.5466 36.4298 41.8923 36.3283 42.2224C36.299 42.3181 36.1896 42.7224 36.0412 42.7146C36.0314 42.7146 36.0236 42.7126 36.0138 42.7107C35.8947 42.6599 35.9025 42.2908 35.8927 42.2068C35.8576 41.8279 35.8263 41.449 35.7716 41.074C35.7111 41.1189 35.6466 41.1638 35.5841 41.2068C35.5256 41.2478 35.465 41.2869 35.4045 41.324L35.2736 40.8435C35.3381 40.8259 35.4045 40.8084 35.4689 40.7908C35.547 40.7654 35.6252 40.7439 35.7052 40.7224C35.5392 39.8416 35.1623 38.9802 34.6388 38.2517C34.0705 39.5662 32.5783 40.1736 31.2131 39.9373C29.881 39.7029 28.9787 38.4177 29.2873 37.0896L29.7423 36.9861C29.7463 37.0193 29.7502 37.0505 29.7541 37.0818Z" fill="#AD2950"/>
<path d="M32.4415 91.7246C32.5704 91.3184 32.711 90.9141 32.8438 90.5098C33.4767 88.6016 33.9688 86.6426 34.2208 84.6465C34.4552 82.7969 34.4513 80.9648 34.4454 79.1074L34.9103 79.1055C35.379 81.3066 35.3282 83.6523 34.9337 85.8594C34.5899 87.7891 33.9962 89.7148 33.0353 91.4316C32.9845 91.5215 32.4259 92.5078 32.3067 92.3359C32.2306 92.2266 32.4103 91.8242 32.4415 91.7246Z" fill="#AD2950"/>
<path d="M33.1251 75.9785C32.8497 76.0996 32.5235 76.2304 32.2091 76.2597C32.1466 76.2656 32.0841 76.2675 32.0196 76.2656C31.8048 76.2558 31.8536 76.164 31.9903 76.0664C32.2403 75.8867 32.5294 75.7538 32.7931 75.5956C33.2052 75.3496 33.6036 75.0781 33.9689 74.7675C34.3712 74.4394 34.7364 74.0664 35.0743 73.6738C35.2579 73.4628 35.4337 73.1738 35.6603 73.0097C35.8536 72.8691 35.8106 73.1074 35.7716 73.246C35.6798 73.5742 35.504 73.8847 35.3106 74.166C35.2814 74.207 35.254 74.246 35.2247 74.2851C34.6915 75.0195 33.9571 75.6132 33.1251 75.9785Z" fill="#AD2950"/>
<path d="M31.6445 16.7673C31.1934 16.8045 30.7539 16.949 30.3027 16.9744L30.1191 16.9548C30.123 16.9509 30.1309 16.9431 30.1387 16.9392C29.9687 16.6795 31.0156 16.2205 31.1406 16.1716C31.748 15.9412 32.4102 15.8748 33.0527 15.9666C34.3594 16.1521 35.5937 17.0252 36.0918 18.2693C38.3145 17.2927 41.6699 17.7166 42.6641 20.24L42.7871 20.617C42.8535 20.8611 42.8965 21.1189 42.8984 21.3748C42.9004 21.3826 42.9023 21.3904 42.9004 21.3982L42.4258 21.3923C42.0332 20.5037 41.4863 19.7849 40.5937 19.3552C39.6719 18.9119 38.584 18.863 37.5879 19.0291C36.6992 19.2048 35.8437 19.572 35.1914 20.2127C34.4766 20.9158 34.1875 21.8845 34.0859 22.8572L33.5176 22.8709C33.4766 22.6599 33.457 22.449 33.4512 22.2361L33.3691 21.8338C33.3984 21.8259 33.4297 21.8201 33.4609 21.8142C33.4961 21.2986 33.627 20.7888 33.8555 20.324C33.7617 19.6599 33.5059 19.0369 33.0781 18.5173C32.8945 18.2966 32.6875 18.1052 32.4707 17.9197C32.4062 17.865 32.0605 17.6423 32.1289 17.531C32.209 17.4002 32.6641 17.6072 32.748 17.6443C32.9746 17.7478 33.1855 17.8884 33.373 18.0545C33.8418 18.4666 34.166 19.0291 34.2871 19.6404C34.6328 19.1638 35.1309 18.7791 35.6406 18.492C34.9824 17.7791 34.2363 17.1892 33.2871 16.9138C32.7539 16.7615 32.1973 16.7185 31.6445 16.7673Z" fill="#AD2950"/>
<path d="M29.2875 37.0894C28.3988 37.5288 27.643 38.1812 27.0649 38.9839L26.8578 39.2808C26.5414 39.773 26.2895 40.2984 26.0629 40.8355C26.0395 40.8921 25.9692 41.1323 25.8813 41.3296L25.5512 41.2046C25.5278 39.6089 26.5043 37.9644 27.7426 37.0152C28.4828 36.4468 29.35 36.0562 30.2719 35.9038C30.9946 35.7827 31.8188 35.771 32.5141 36.0327L32.5395 36.3257C32.5082 36.3277 32.4848 36.3316 32.4692 36.3335C32.2016 36.3648 31.936 36.3823 31.6684 36.4136C31.0063 36.4917 30.3578 36.6382 29.7348 36.8882C29.7367 36.9214 29.7387 36.9546 29.7426 36.9859L29.2875 37.0894Z" fill="#AD2950"/>
<path d="M67.0415 45.1133C66.9556 46.3672 66.1665 47.5957 65.1997 48.3633C65.2016 48.3633 65.2075 48.3633 65.2095 48.3633C66.7856 48.293 68.2329 47.6426 69.0473 46.2305C69.4653 45.5156 69.6763 44.6836 69.6079 43.8555C69.5434 43.0449 69.2055 42.3203 68.7251 41.6719C68.643 42.3574 68.4165 43.0234 68.0493 43.6074C67.9106 43.8242 67.7544 44.0273 67.5747 44.2109C67.5083 44.2832 67.1372 44.6738 66.9809 44.6289C67.0825 44.709 67.0493 45.0352 67.0415 45.1133ZM56.3891 37.0762C57.7563 36.3652 59.5942 36.1738 61.0649 36.7441C61.1626 36.7793 61.2602 36.8203 61.352 36.8652C62.0864 36.3867 62.9341 36.1719 63.8071 36.1816C63.4634 35.4102 63.0083 34.7168 62.2544 34.2949C61.4653 33.8535 60.561 33.6934 59.6665 33.7422C57.9868 33.832 56.3247 34.6855 55.7407 36.3379C55.9731 36.5664 56.1938 36.8145 56.3891 37.0762ZM60.8989 37.2109C59.5552 37.1621 58.1587 37.3027 56.9731 37.9922C57.3501 38.6895 57.6177 39.457 57.7407 40.2422C58.1177 39.8809 58.5454 39.5723 59.0239 39.3613C59.1118 39.3242 59.6059 39.0957 59.7681 39.1797C59.6802 39 59.9673 38.4355 60.022 38.332C60.2407 37.9082 60.5434 37.5293 60.8989 37.2109ZM59.8169 39.2402C59.852 39.4102 59.3364 39.7656 59.2485 39.8477C58.8833 40.1738 58.5395 40.5215 58.2329 40.9043L57.9731 41.25C57.9204 41.3262 57.8657 41.3984 57.813 41.4785C57.8013 41.7402 57.7681 41.998 57.7173 42.2441C57.604 42.8242 57.3911 43.3418 57.1294 43.7852L56.9126 44.125C56.8774 44.1719 56.8442 44.2227 56.8071 44.2695C56.7661 44.5586 56.7466 44.8457 56.7231 45.1348C56.7114 45.2578 56.77 45.6113 56.6899 45.7227C56.811 45.7656 56.9536 45.9531 57.0317 46.0293C57.5102 46.5 57.9985 46.9609 58.5649 47.3301C59.6997 48.0645 61.1059 48.4414 62.4555 48.2832C63.8032 48.123 64.9868 47.3789 65.8071 46.3105C66.1626 45.8496 66.4223 45.3359 66.7212 44.8438C66.7563 44.791 66.8442 44.6094 66.9302 44.6094C66.854 44.5918 66.77 44.4316 66.6997 44.2598L67.0571 44.1992C67.4888 43.293 67.8188 42.3516 67.7641 41.3301C67.6684 39.4863 66.4243 37.9258 64.6411 37.4277C63.7915 37.1895 62.8696 37.2031 62.0434 37.5234C61.2427 37.834 60.6782 38.4238 60.0962 39.0273L60.063 39.3184C60.061 39.3184 60.061 39.3184 60.0591 39.3184C59.9263 39.2988 59.8403 39.2773 59.8169 39.2402ZM51.8462 31.8398C52.2446 32.5 52.5981 33.1641 53.1294 33.7324C53.7075 34.3535 54.4419 34.8262 55.2544 35.0781C55.7427 34.0078 56.8266 33.2559 57.9087 32.8828C59.102 32.4727 60.4731 32.4375 61.6665 32.8672C61.8052 32.7363 61.8989 32.6641 61.9575 32.6777C61.9634 32.6797 61.9692 32.6816 61.9731 32.6836C62.02 32.709 62.0278 32.8164 61.9868 32.9902C62.0083 33 62.0298 33.0117 62.0552 33.0215C62.9946 32.4063 63.8227 31.584 64.2251 30.5137C64.6587 29.3594 64.4868 28.1211 63.8266 27.0918C63.1938 26.084 62.2153 25.2168 61.1255 24.7363C60.0278 24.252 58.8462 24.1445 57.6587 24.1855C58.0122 24.5039 58.3149 24.8848 58.5337 25.3086C58.5903 25.4121 58.8833 25.9883 58.7856 26.1602L58.7544 26.1914C58.7524 26.1953 58.7466 26.1953 58.7446 26.1992C58.7329 26.2695 58.5923 26.2891 58.4927 26.2949L58.4614 26.002C58.0083 25.5313 57.5766 25.0645 57.0024 24.7324C56.3852 24.373 55.6704 24.2207 54.9634 24.2422C53.4067 24.2871 51.9243 25.1895 51.229 26.5918C50.8657 27.3262 50.729 28.168 50.811 28.9824C50.8891 29.7637 51.1665 30.4727 51.5005 31.1758L51.8266 31.3027C51.7563 31.4609 51.6802 31.5938 51.6059 31.5859C51.604 31.5879 51.6001 31.5938 51.5942 31.5957C51.7095 31.5625 51.7993 31.7637 51.8462 31.8398ZM51.5805 31.6035C51.4243 31.6562 51.0337 31.2441 50.9614 31.1699C50.7915 30.9902 50.6411 30.791 50.5083 30.582C50.1391 29.998 49.9145 29.332 49.8325 28.6465C49.7856 28.7109 49.7407 28.7754 49.6958 28.8418C49.563 29.0352 49.4419 29.2363 49.3345 29.4473C48.854 30.3926 48.8169 31.5273 49.188 32.5176C49.9927 32.9707 50.6313 33.6816 50.9575 34.5508C50.9888 34.5469 51.02 34.5449 51.0513 34.541C51.5923 34.4805 52.1548 34.5566 52.6782 34.6777C52.1313 34.0566 51.7309 33.2734 51.5688 32.4609C51.5356 32.3047 51.3931 31.7227 51.5708 31.6074C51.5727 31.6055 51.5786 31.6035 51.5805 31.6035ZM43.9302 39.3086C44.7036 38.793 45.7173 38.3828 46.6645 38.4316C46.0649 38.0918 45.4575 37.7578 44.77 37.6309C43.938 37.4785 43.0649 37.627 42.313 38.0059C42.5571 38.8262 42.6567 39.6992 42.6001 40.5527C42.9751 40.0723 43.4145 39.6387 43.9302 39.3086ZM43.9028 40.4063C43.188 41.0898 42.6626 41.9414 42.3501 42.8809L42.2427 43.2266C42.0825 43.8008 41.9985 44.3906 41.9438 44.9844C41.9341 45.0898 41.9516 45.7227 41.813 45.8027C41.9204 45.7754 42.0981 45.9785 42.1509 46.0293C42.3813 46.2383 42.602 46.4551 42.8364 46.6563C43.4907 47.2148 44.2524 47.6934 45.0981 47.8965C46.8716 48.3691 48.7388 47.7051 50.0552 46.4863C50.6606 45.9258 51.1196 45.2441 51.5102 44.5234C51.6294 44.3066 51.7251 44.0293 51.8931 43.8438C51.9321 43.7949 51.9673 43.7754 51.9946 43.7754C51.9985 43.7754 52.0005 43.7754 52.0024 43.7754C52.104 43.7793 52.1216 44.0273 52.1216 44.1484L52.3911 44.5098C52.2856 44.5703 52.1782 44.625 52.0669 44.6699C51.6196 47.1543 49.2036 49.082 46.7251 49.2031C47.3774 49.7539 48.1157 50.1543 48.979 50.207C49.8774 50.2637 50.7602 49.9043 51.4848 49.3926C52.9477 48.3594 53.8286 46.6934 53.7583 44.8984C53.7348 44.4082 53.6528 43.9258 53.5532 43.4453L53.9321 43.1641C54.3657 43.791 54.5981 44.5879 54.6645 45.3359C54.8071 45.2129 54.9477 45.084 55.0845 44.9531C55.4927 44.5605 55.8677 44.1328 56.1313 43.623C56.6938 42.5996 56.8052 41.416 56.5649 40.2832C56.3325 39.1914 55.8169 38.0313 55.0395 37.2168C55.0395 37.2129 55.0395 37.2129 55.0376 37.2109C55.0376 37.209 55.0356 37.207 55.0356 37.2031C53.9809 36.0234 52.5766 35.4043 51.0923 34.9492C51.1626 35.1934 51.2114 35.4492 51.2329 35.7051L50.6763 35.7363C50.3345 34.959 49.8716 34.1855 49.1333 33.7227C47.8188 32.8984 46.145 32.9375 44.7368 33.5137C44.0766 33.7852 43.4087 34.2188 42.9848 34.8086C42.5513 35.418 42.3598 36.084 42.2759 36.8242C43.0786 36.5371 44.0063 36.5098 44.8227 36.7441L45.3618 36.9395C45.4321 37.0098 45.5825 37.0469 45.6704 37.0977C45.7856 37.1621 45.897 37.2324 46.0063 37.3086C46.1802 37.4297 46.3462 37.5645 46.4966 37.7148C46.6001 37.8184 47.1294 38.3359 47.0122 38.5176C47.0063 38.5234 47.0024 38.5313 46.9985 38.5352C47.0044 38.625 46.8149 38.6875 46.7602 38.7148C46.5141 38.8281 46.2602 38.9238 46.0161 39.0332C45.393 39.3105 44.8013 39.6484 44.272 40.082C44.2954 40.1406 44.3208 40.1992 44.3462 40.2578L43.9028 40.4063ZM41.77 45.8301C41.6157 45.9395 41.0884 45.625 40.9829 45.5645C40.6548 45.373 40.3579 45.125 40.1001 44.8516C39.7524 45.0723 39.3462 45.2266 38.9477 45.3301C39.0493 46.6328 39.8325 47.8047 40.938 48.4863C42.061 49.1777 43.3481 49.1934 44.5923 48.8672C43.7973 48.5605 43.0825 48.0527 42.5337 47.4023C42.313 47.1406 42.1138 46.8574 41.9614 46.5488C41.9106 46.4473 41.6528 45.9688 41.77 45.8301ZM38.0845 45.0059C38.604 44.7812 39.1274 44.5332 39.5708 44.1797C41.8013 42.5059 41.8364 39.2949 40.6782 36.9785C40.2641 37.2129 39.8247 37.3691 39.3559 37.4434C39.8891 38.8574 39.6802 40.4531 38.7934 41.6777V41.6895C38.5434 42.041 38.2622 42.334 37.9848 42.5723C38.0063 42.6328 38.0259 42.6934 38.0434 42.7559C38.0962 42.9434 38.1333 43.1348 38.1548 43.3262L38.1567 43.3281C38.2466 43.875 38.1958 44.4688 38.0845 45.0059ZM37.9555 45.4883C37.4028 47.252 35.8208 48.5898 34.0688 49.084C34.5884 50.2891 35.0493 51.5215 35.4438 52.7754C36.2095 55.1934 36.7563 57.7051 36.9927 60.2305C37.2427 62.8984 37.1391 65.6387 36.3305 68.209C37.6606 68.7637 39.0063 69.2734 40.3911 69.6699L40.8833 69.8066C42.6313 70.2793 44.4184 70.5723 46.2212 70.7031L46.6821 70.7305V70.7324C47.7954 70.7949 48.9067 70.793 50.018 70.7637C49.9673 69.6465 50.0552 68.5234 50.2466 67.4219C50.9282 63.4844 52.9399 59.8867 55.2661 56.6895C56.5669 54.9121 57.9028 53.4199 59.1118 52.2148C58.7095 52.1426 58.3052 52.0254 57.9126 51.8652C56.7231 53.0137 55.6079 54.2344 54.6255 55.5664C53.8638 56.5996 53.1977 57.6934 52.5454 58.7949C52.4575 58.9434 52.3696 59.0938 52.2778 59.2402C52.2427 59.2969 52.1684 59.4512 52.102 59.4824C52.0376 59.5078 52.0532 59.5137 52.0337 59.4434C51.9966 59.3047 52.1274 59.0391 52.1723 58.9141C52.6489 57.5293 53.4263 56.2324 54.2817 55.0547C55.1977 53.7988 56.2759 52.6465 57.4888 51.6719C55.8325 50.8496 54.5766 49.2422 54.4321 47.3711C54.2016 48.1367 53.7329 48.8594 53.1997 49.4492C52.2114 50.5449 50.7153 51.3672 49.2036 51.2676C47.9673 51.1855 46.8013 50.4883 46.1763 49.418C46.1352 49.3438 46.0962 49.2715 46.0591 49.1973C45.8403 49.1797 45.6274 49.1523 45.4223 49.1094C44.1313 50.2285 42.1528 50.377 40.647 49.6465C39.0669 48.8828 37.9555 47.2617 37.9555 45.4883ZM39.52 22.4219C37.8013 22.3418 36.0942 22.6777 34.7368 23.791C33.4809 24.8184 32.4204 26.3848 32.7681 28.0801C32.9009 28.8145 33.2544 29.4883 33.729 30.0586C33.9751 30.3496 34.2544 30.6113 34.5513 30.8457C34.6919 30.959 34.8696 31.125 35.0434 31.2324C35.102 31.2676 35.1606 31.2969 35.2192 31.3164C35.1899 31.2227 35.1118 30.9863 35.2075 30.9316H35.2095C35.229 30.9219 35.2524 30.9199 35.2837 30.9238C35.3989 30.9434 35.5395 31.127 35.6138 31.2012C36.0454 31.623 36.4751 32.043 36.9673 32.3906C39.0102 33.8379 41.8677 33.9824 43.7778 32.2363C44.227 31.8262 44.5884 31.334 44.9028 30.8145C45.0356 30.5996 45.1567 30.377 45.2837 30.1582C45.3325 30.0703 45.395 29.916 45.4829 29.8594C45.5161 29.8379 45.5454 29.8301 45.5688 29.8379C45.5747 29.8379 45.5786 29.8418 45.5845 29.8438C45.729 29.9141 45.643 30.5273 45.6235 30.6348C45.5239 31.1836 45.3032 31.6973 45.0259 32.1797C45.7739 31.9551 46.5493 31.8672 47.3247 31.9473C47.4673 31.7676 47.5962 31.5742 47.7075 31.373C47.8188 31.1738 47.8501 31.0156 47.8852 30.793C47.9458 30.3965 48.061 30.0117 48.2309 29.6484C48.311 28.6309 47.9458 27.6895 47.3462 26.8828C47.2641 27.5664 47.0395 28.2324 46.6704 28.8164C46.5317 29.0332 46.3774 29.2363 46.1977 29.4238C46.1255 29.4961 45.7368 29.9043 45.5884 29.834C45.5845 29.832 45.5805 29.8301 45.5766 29.8262C45.5747 29.8242 45.5708 29.8223 45.5688 29.8203C45.4888 29.8301 45.397 29.6563 45.3227 29.4688L45.6782 29.4121C46.1684 28.3789 46.5083 27.2988 46.3481 26.1406C46.1919 25.0352 45.6157 24.0156 44.7153 23.3496C43.7954 22.6582 42.5864 22.3477 41.4477 22.5234C40.2837 22.6992 39.5005 23.4238 38.7173 24.2363L38.3794 24.2129C38.3794 24.209 38.3794 24.207 38.3794 24.2031C38.4048 23.959 38.5884 23.6445 38.6704 23.4883C38.8891 23.0859 39.1802 22.7266 39.52 22.4219ZM33.6411 31.0801C33.727 31.9063 33.8696 32.7227 34.229 33.4805H34.2309C34.7739 34.6191 35.7817 35.4453 36.9165 35.957C37.813 36.3359 38.8716 36.5332 39.8227 36.2344C40.7251 35.9531 41.3755 35.3203 41.8774 34.5391C39.4712 35.1504 36.5942 34.043 35.4243 31.7988C35.1079 31.7793 34.7895 31.6875 34.4868 31.5566C34.1841 31.4258 33.895 31.2559 33.6411 31.0801ZM35.8032 43.5957C34.6391 45.8301 31.7485 46.959 29.3501 46.3301C30.0513 47.4336 31.0766 48.166 32.4184 48.166C33.8169 48.166 35.2055 47.4727 36.1645 46.4727C37.1177 45.4766 37.4477 44.207 37.5903 42.873C37.143 43.1523 36.6782 43.416 36.1665 43.5371C36.0473 43.5645 35.9263 43.584 35.8032 43.5957ZM26.0532 42.1406C26.3013 42.5801 26.561 43.0156 26.8774 43.4121C28.143 44.9824 30.1059 45.6348 32.0688 45.1699C33.0259 44.9414 33.9067 44.502 34.6626 43.877C34.9927 43.6074 35.2934 43.3086 35.5962 43.0137C35.6606 42.9512 35.8911 42.666 36.0141 42.7109C36.018 42.7109 36.022 42.7129 36.0259 42.7148C36.0825 42.7441 36.0825 42.8848 36.0083 43.1152C36.9087 42.5137 37.7192 41.7969 38.1743 40.793C38.6587 39.7227 38.6255 38.5234 38.0864 37.4785C37.5923 37.4785 37.0298 37.2715 36.5747 37.0898C36.145 36.9199 35.7368 36.6992 35.3598 36.4336C34.5825 35.8867 33.9048 35.1602 33.5083 34.2891C32.9536 34.1973 32.3618 34.1758 31.7993 34.209C31.768 34.209 31.7388 34.2129 31.7095 34.2148C32.0493 34.5195 32.3403 34.8789 32.5591 35.2812C32.6704 35.4902 32.9497 35.9629 32.8208 36.2031L32.7993 36.2266C32.7973 36.2305 32.7973 36.2344 32.7954 36.2383C32.772 36.3008 32.6372 36.3184 32.5473 36.3262C32.5454 36.3262 32.5415 36.3262 32.5395 36.3262L32.5141 36.0332C31.979 35.4785 31.4653 34.9258 30.7505 34.6055C30.0083 34.2734 29.1821 34.1953 28.3833 34.3379C26.8149 34.6191 25.4634 35.75 25.018 37.2969C24.6196 38.6523 24.9653 39.9688 25.5513 41.2051L25.8813 41.3301C25.813 41.4844 25.7348 41.6152 25.6645 41.6152C25.8384 41.6211 25.9848 42.0195 26.0532 42.1406ZM29.4907 32.0137C29.1938 32.3691 29.0044 32.7715 28.8032 33.1855C29.6743 33.1758 30.5239 33.3906 31.2583 33.8672C31.4126 33.8008 31.5903 33.7207 31.7739 33.6563C31.9575 33.5918 32.145 33.5449 32.3169 33.5449C31.2739 33.2832 30.3442 32.6426 29.7016 31.7852C29.6255 31.8574 29.5571 31.9355 29.4907 32.0137ZM25.1294 24.5254C25.8579 24.7832 26.522 25.3086 27.0688 25.8379C27.7016 26.4453 28.2388 27.166 28.6235 27.957C28.6528 27.4746 28.7153 26.9961 28.8325 26.5254C28.9419 26.0801 29.1372 25.6816 29.2798 25.25C29.2016 25.1914 29.1216 25.1328 29.0415 25.0762L29.5337 24.7676C29.897 24.1797 30.3169 23.6406 30.8345 23.1816C31.0649 21.8418 31.1177 20.5176 30.7915 19.1855C30.6606 18.6563 30.4751 18.1406 30.2876 17.627C30.2524 17.5313 30.0298 17.084 30.1196 16.9551L30.3032 16.9746C30.4653 17.0723 30.7153 17.3203 30.9848 17.7227C31.9165 19.1133 32.145 20.9766 31.6587 22.5684C32.1802 22.2383 32.7583 21.957 33.3657 21.834C33.3677 21.834 33.3677 21.834 33.3696 21.834L33.4516 22.2363C32.145 23.125 30.8305 24.2324 30.2817 25.7715C29.6899 27.1621 29.6079 28.8828 30.1196 30.3086C30.6333 31.7363 31.7993 32.6309 33.147 33.2148C32.9888 32.4883 32.9712 31.6738 33.1899 30.9512C33.2055 30.8926 33.2251 30.834 33.2446 30.7793C32.7524 30.2871 32.3169 29.8164 32.0141 29.1777C31.686 28.4883 31.5454 27.7266 31.5845 26.9648C31.6548 25.5488 32.52 24.1211 33.6118 23.2422C33.5727 23.1211 33.5434 22.998 33.518 22.8711L34.0864 22.8574C34.9731 22.1836 36.0532 21.7715 37.1606 21.666C37.9829 21.5898 38.897 21.6504 39.688 21.9531C39.7837 21.9902 39.8813 22.0273 39.9731 22.0742C40.7075 21.5957 41.5571 21.3828 42.4263 21.3926L42.9009 21.3984C42.9028 21.4043 42.9028 21.4121 42.9028 21.4199C45.3618 21.6855 47.3325 23.7285 47.3774 26.2188C47.4634 26.2617 47.5454 26.3086 47.6235 26.3594C47.7016 26.4063 47.7778 26.4629 47.854 26.5215C47.8423 25.7695 47.9829 25.0078 48.2563 24.3066C48.0864 23.3301 47.6567 22.3242 46.9614 21.6055C46.227 20.8496 45.1977 20.4844 44.1528 20.4941C43.5591 20.5039 43.0923 20.584 42.7876 20.6172L42.6645 20.2402C43.7192 19.4551 45.2856 19.4102 46.4673 19.8945C47.7563 20.4258 48.647 21.6055 49.0513 22.9141C49.7212 22.0859 50.6821 21.5234 51.7407 21.3828C52.5766 21.2734 53.5317 21.4043 54.272 21.8496C54.354 21.8965 54.4341 21.9512 54.5122 22.0098L54.2153 22.3594C53.2427 22.2539 52.2934 22.1777 51.3638 22.5781C50.4087 22.9883 49.7309 23.8047 49.3286 24.748C49.063 25.3477 48.8989 26.002 48.8384 26.6543C48.811 26.9512 48.768 27.3027 48.8227 27.5957C48.8735 27.8711 49.0708 28.1484 49.1587 28.4238C49.352 28.252 49.5649 28.0977 49.8013 27.9824C49.8462 25.4922 51.8169 23.4492 54.2759 23.1855C54.2759 23.1699 54.2759 23.1563 54.2778 23.1406L54.7485 23.1582C55.6216 23.1465 56.4712 23.3613 57.2056 23.8398C57.2973 23.7949 57.3911 23.7539 57.4888 23.7207C59.3227 23.0059 61.5532 23.4824 63.0923 24.625L63.6391 24.7324C63.6372 24.7422 63.6352 24.752 63.6333 24.7617C63.6157 24.8457 63.5923 24.9277 63.5669 25.0078C64.6704 25.9883 65.5727 27.3477 65.5962 28.8711C65.6157 30.2891 65.0161 31.6191 63.9321 32.541C63.9516 32.5957 63.9673 32.6484 63.9848 32.7012C64.2075 33.4238 64.1938 34.2539 64.0317 34.9785L64.1704 35.4277C64.2329 35.666 64.2759 35.9141 64.2778 36.1641C64.2798 36.1777 64.2798 36.1953 64.2798 36.209C66.7388 36.4746 68.7134 38.5176 68.7583 41.0078C68.8774 41.0684 68.9946 41.1367 69.104 41.2148C69.2876 41.3438 69.4575 41.4902 69.6118 41.6504L70.0454 41.9121C70.0141 41.959 69.9829 42.0039 69.9497 42.0488C70.4556 42.7363 70.7134 43.5801 70.7212 44.4316C70.7329 45.959 69.9341 47.4629 68.688 48.3379C67.7153 49.0215 66.4341 49.3125 65.2544 49.082C64.9888 49.0293 64.727 48.9512 64.4751 48.8457C64.2876 48.9512 64.0884 49.041 63.8891 49.1211C63.8891 49.2324 63.8677 49.3516 63.8345 49.4727C63.7759 49.6719 63.688 49.8711 63.6138 50.0371C63.4438 50.4141 63.2192 50.7656 62.9399 51.0684C62.3911 51.668 61.6138 52.1016 60.8091 52.2207C59.8559 53.3164 58.9302 54.4336 58.0532 55.5918C56.4028 57.7812 54.895 60.1113 53.7114 62.5898C52.4966 65.1328 51.6333 67.9004 51.6704 70.7422C51.8052 70.7441 52.3247 70.7148 52.3462 70.9336C52.3657 71.1465 51.8227 71.3477 51.6938 71.4062C51.7622 72.3027 51.9165 73.1836 52.1821 74.0449C52.6255 75.4805 53.3423 76.8066 54.2368 78.0078C54.7036 78.6348 55.2192 79.2207 55.7602 79.7813C56.0278 80.0547 56.3013 80.3242 56.5727 80.5957C56.6509 80.6738 57.102 81.0645 57.0122 81.1895L56.7563 81.1777C55.4497 80.6797 54.2934 79.6836 53.352 78.6738C52.3149 77.5527 51.4751 76.2598 50.9009 74.8418C50.5395 73.957 50.2641 72.9707 50.1196 71.9121C48.893 72.2109 47.6313 72.3477 46.3677 72.3574C46.7036 73.2871 47.0747 74.2012 47.5376 75.0742C47.8559 75.6738 48.2309 76.2383 48.5513 76.8359C48.5786 76.8828 48.7192 77.0977 48.6528 77.1543C48.5513 77.2441 48.1665 76.8262 48.1138 76.7754C46.9634 75.623 46.1763 73.9648 45.9516 72.3574C45.1313 72.3438 44.2622 72.2793 43.3677 72.1465C43.4653 72.8008 43.4048 73.4785 43.2055 74.1094C43.1626 74.2559 42.7251 75.3926 42.4946 75.2227C42.4145 75.1641 42.4868 74.9219 42.5005 74.8516C42.5454 74.5918 42.6098 74.3359 42.6606 74.0762C42.7915 73.4121 42.854 72.7402 42.8716 72.0625C41.5688 71.8359 40.2915 71.4688 39.0649 70.9746C39.0395 71.7676 38.729 72.5449 38.2348 73.1621C37.8423 73.6523 37.313 74.0566 36.7251 74.2773C36.6098 74.3203 36.0786 74.5391 35.9673 74.4023C35.9536 74.3867 35.9516 74.3672 35.9575 74.3496C35.9927 74.2461 36.2524 74.1113 36.3052 74.0801C36.8774 73.709 37.4087 73.2949 37.8169 72.7422C38.2427 72.166 38.5122 71.5039 38.6587 70.8047C37.7095 70.3945 36.7954 69.9062 35.938 69.3242C35.8735 69.3887 35.8345 69.5762 35.7973 69.6621C35.7427 69.791 35.686 69.916 35.6274 70.041C35.5141 70.2832 35.393 70.5234 35.2622 70.7617C35.0239 71.1973 34.7563 71.6172 34.4653 72.0195C33.4126 73.4727 32.0454 74.707 30.4809 75.5879C29.0317 76.4082 27.3384 77.0508 25.6489 77.0898C25.6372 77.0918 25.6216 77.0918 25.6098 77.0918L25.2114 77.1074C25.1977 77.0684 25.1997 77.0371 25.2173 77.0117C25.1899 76.9062 25.4634 76.7773 25.6333 76.707C25.688 76.6816 25.729 76.666 25.7485 76.6582C26.186 76.4609 26.6372 76.3008 27.0766 76.1055C28.7778 75.3438 30.3696 74.3418 31.6763 73.0059C32.3169 72.3496 32.8852 71.627 33.3638 70.8438C33.8735 70.0078 34.2095 69.125 34.5513 68.2109C34.4399 68.0996 34.0473 67.752 34.104 67.5488C34.1606 67.332 34.6255 67.5293 34.7407 67.5684C35.1001 66.2402 35.2817 64.877 35.3305 63.502C35.4223 60.9883 35.0981 58.4707 34.6157 56.0098C34.1684 53.7305 33.5434 51.498 32.8091 49.2949C31.8013 49.332 30.7759 49.0566 30.0024 48.3945C29.6196 48.0664 29.3091 47.6641 29.0786 47.2188C28.9614 46.9844 28.8169 46.6875 28.7524 46.4004C28.7309 46.3066 28.7173 46.2109 28.7173 46.1211C28.5161 46.0469 28.3286 45.9453 28.1352 45.8477C27.9477 45.9277 27.7505 45.9902 27.5493 46.0391C26.9966 46.1758 26.4048 46.1914 25.852 46.1113C24.2759 45.8848 22.9477 44.8047 22.3032 43.3633C21.6841 41.9785 21.7446 40.2949 22.6606 39.0547C22.5942 38.9648 22.5298 38.873 22.4731 38.7773L22.9966 38.6543C23.0591 38.5918 23.1216 38.5273 23.1899 38.4707C23.3911 38.291 23.6118 38.1328 23.852 38.0137C23.8559 37.6973 23.8911 37.3633 23.9653 37.0293C24.4126 34.9609 26.2524 33.4395 28.3286 33.2129C28.3286 33.1992 28.3286 33.1836 28.3305 33.1699C28.3325 32.9141 28.3735 32.6563 28.4399 32.4102C28.3813 32.4023 28.3208 32.3965 28.2622 32.3887L28.3247 31.875C28.4048 31.9238 28.4848 31.9766 28.563 32.0352C28.6704 31.7422 28.8423 31.4922 29.0083 31.2344L29.1821 30.9453C29.186 30.9492 29.188 30.9512 29.1938 30.9531V30.9512C28.8423 30.3066 28.686 29.5156 28.6333 28.7891C28.1118 28.0371 27.6059 27.2871 26.9946 26.6035C26.4575 26.0039 25.8598 25.4785 25.2524 24.9531C25.147 24.8594 24.8891 24.7031 24.8462 24.5566C24.7954 24.3926 25.0376 24.4922 25.1294 24.5254ZM25.5591 41.625C25.3598 41.5879 25.0962 41.2852 24.9966 41.1777C24.8247 40.9961 24.6743 40.793 24.5434 40.5801C24.1841 40.0039 23.9653 39.3496 23.8833 38.6758C23.1841 39.623 22.8286 40.7441 23.061 41.9199C23.3013 43.1387 24.0473 44.0898 25.0688 44.7617C25.7876 45.1738 26.5923 45.332 27.4087 45.3652C26.7817 44.8281 26.2622 44.1992 25.9243 43.4375C25.7739 43.0957 25.6587 42.7363 25.5981 42.3691C25.5669 42.1719 25.4809 41.7852 25.6391 41.625C25.6138 41.6309 25.5884 41.6309 25.5591 41.625ZM60.7856 51.1191C61.8677 50.9746 62.6919 50.2129 63.2544 49.3281C60.8501 49.9551 57.9809 48.8164 56.8032 46.5898C56.1645 46.5371 55.5376 46.2266 55.02 45.8672C55.0493 47.2461 55.6118 48.666 56.6001 49.6289C57.688 50.6875 59.2661 51.3203 60.7856 51.1191Z" fill="#AD2950"/>
<path d="M22.3145 17.291C22.3145 17.291 22.3125 17.2929 22.3106 17.2929L22.3145 17.2851C22.3262 16.8066 22.0059 16.4062 21.8516 15.9726C21.7617 15.7265 21.7246 15.4492 21.8184 15.2031C21.9102 14.9668 22.1289 14.7851 22.3789 14.7383C22.8496 14.6465 23.2774 15.0312 23.3086 15.4941C23.7168 15.2754 24.2715 15.4336 24.4434 15.8808C24.5352 16.1172 24.4981 16.3984 24.3457 16.6015C24.1895 16.8125 23.9336 16.9277 23.6778 16.9843C23.2285 17.082 22.7188 17.0254 22.3184 17.289L22.3145 17.2949C22.3145 17.2929 22.3145 17.2929 22.3145 17.291Z" fill="#AD2950"/>
<path d="M21.6816 22.2751C21.6504 21.9743 23.0957 21.9333 23.2285 21.9294C24.0234 21.9118 24.8262 22.0349 25.5898 22.2556C27.0938 22.6931 28.5313 23.5524 29.5332 24.7673L29.041 25.0759C27.8535 24.2126 26.5977 23.4802 25.1797 23.0368C24.4746 22.8142 23.7461 22.6657 23.0156 22.5563C22.6172 22.4978 22.1562 22.4978 21.7754 22.3532L21.627 22.3278C21.6406 22.2985 21.6562 22.281 21.6816 22.2751Z" fill="#AD2950"/>
<path d="M22.1432 23.1797C22.3034 23.5703 22.4655 23.959 22.6471 24.3379C23.362 25.8496 24.3268 27.2344 25.5397 28.3887C26.112 28.9336 26.7331 29.4238 27.3873 29.8652C27.9674 30.2559 28.5846 30.584 29.1823 30.9453L29.0084 31.2344C28.4538 31.123 27.9577 30.8848 27.4323 30.6816C26.9401 30.4883 26.3209 30.4434 25.7975 30.3984C24.653 30.293 23.5006 30.4004 22.3971 30.7148C21.9284 30.8496 21.4791 31.0254 21.028 31.2129C20.9596 31.2402 20.4362 31.5039 20.4108 31.3809C20.3971 31.3066 20.61 31.1543 20.651 31.1211C20.8092 30.9863 20.9831 30.873 21.1608 30.7637C21.6276 30.4805 22.1354 30.2578 22.6569 30.0977C23.735 29.7656 24.8893 29.6895 26.0045 29.8555C25.362 29.4121 24.7057 28.8516 24.1041 28.1641C23.9909 28.1758 23.8776 28.1895 23.7643 28.2051L23.6959 27.6797C22.9655 26.752 22.3795 25.6914 22.0026 24.5684C21.8327 24.0566 21.6959 23.5293 21.6354 22.9941C21.6276 22.9258 21.5631 22.4863 21.6276 22.3281L21.776 22.3535C21.9381 22.5996 22.0319 22.9082 22.1432 23.1797Z" fill="#AD2950"/>
<path d="M19.0591 13.6698C18.606 13.2166 17.9263 13.1561 17.3658 12.9061C17.0474 12.7635 16.7427 12.5448 16.5963 12.2283C16.4517 11.9217 16.4791 11.5428 16.6627 11.2596C17.0084 10.7225 17.774 10.6639 18.2486 11.0604C18.4127 10.4647 19.0767 10.076 19.6666 10.3221C19.9791 10.451 20.2154 10.7479 20.272 11.0819C20.3306 11.4256 20.2056 11.7791 20.024 12.078C19.7037 12.6014 19.1783 13.0389 19.065 13.6678L19.0689 13.6776C19.067 13.6756 19.065 13.6756 19.0631 13.6737C19.0631 13.6756 19.0611 13.6776 19.0611 13.6795L19.0591 13.6698Z" fill="#AD2950"/>
<path d="M17.7363 32.1894C17.9766 32.1699 18.248 32.2851 18.4727 32.3417C18.793 32.4277 19.1133 32.5117 19.4355 32.5781C20.1934 32.7324 20.9668 32.8085 21.7363 32.7734C22.377 32.7499 22.9707 32.6503 23.498 32.5253C24.7324 31.3534 26.8281 30.9589 28.3242 31.8749L28.2617 32.3886C27.4961 32.3007 26.7383 32.2245 25.9746 32.4159C25.1621 32.6191 24.4512 33.1034 23.9531 33.7734C23.4316 34.4706 23.1133 35.3183 22.959 36.1718C22.8086 37.0019 22.8711 37.8242 22.9961 38.6542L22.4727 38.7773C21.5312 37.246 21.8164 35.041 22.6855 33.5605C21.6094 33.7519 20.4863 33.6816 19.4453 33.3456C19.002 33.2031 18.5684 33.0117 18.1758 32.7577C18.0957 32.7031 17.5625 32.3788 17.6562 32.2245C17.6445 32.2206 17.6328 32.2109 17.623 32.2011L17.7363 32.1894Z" fill="#AD2950"/>
<path d="M18.1153 31.6717C18.0059 31.8397 17.8985 32.0604 17.7364 32.1893L17.6231 32.201C17.5548 32.1189 17.5997 31.867 17.6095 31.8065C17.6583 31.4647 17.7794 31.1307 17.9239 30.8182C18.2423 30.117 18.7227 29.492 19.3067 28.99C20.4962 27.9607 22.1348 27.4334 23.6954 27.6795L23.7637 28.2049C22.5216 28.3592 21.3438 28.6326 20.2774 29.3514C19.6778 29.7498 19.1563 30.2518 18.713 30.8201C18.4981 31.0936 18.3067 31.3807 18.1153 31.6717Z" fill="#AD2950"/>
<path d="M16.8481 21.4549C15.9497 21.6522 14.9321 21.537 14.1332 22.0643L14.1235 22.076C14.1235 22.0741 14.1235 22.0702 14.1235 22.0682C14.1215 22.0702 14.1176 22.0721 14.1157 22.0741L14.1235 22.0584C14.145 21.1014 13.5063 20.3006 13.1957 19.4354C13.02 18.9412 12.9418 18.3846 13.1313 17.8963C13.3149 17.4237 13.7543 17.0584 14.2504 16.9627C15.1938 16.7811 16.0493 17.5526 16.1118 18.4784C16.9282 18.037 18.0356 18.3534 18.3832 19.2479C18.5668 19.7205 18.4887 20.285 18.186 20.6932C17.8735 21.1131 17.3618 21.3436 16.8481 21.4549Z" fill="#AD2950"/>
</svg>
