<svg width="21" height="21" viewBox="0 0 21 21" fill="none" xmlns="http://www.w3.org/2000/svg">
<g clip-path="url(#clip0_2839_10902)">
<path d="M5.73298 15.2669C4.06228 14.1846 2.59107 12.8218 1.38423 11.2387C1.21961 11.0272 1.12982 10.767 1.12891 10.499C1.12801 10.2309 1.21604 9.97015 1.37923 9.7575C2.64235 8.10125 6.05735 4.25 10.5036 4.25C12.1993 4.28902 13.8503 4.80168 15.2699 5.73" stroke="white" stroke-width="1.5" stroke-miterlimit="10"/>
<path d="M17.375 7.32666C18.1926 8.06935 18.9436 8.88225 19.6194 9.75603C19.7849 9.96862 19.8748 10.2304 19.8748 10.4998C19.8748 10.7692 19.7849 11.0309 19.6194 11.2435C18.3387 12.901 14.8913 16.7498 10.5038 16.7498C9.65261 16.7461 8.80747 16.6071 8 16.3379" stroke="white" stroke-width="1.5" stroke-miterlimit="10" stroke-linecap="square"/>
<path d="M7.8524 13.1519C7.14883 12.4489 6.75334 11.4953 6.75293 10.5007C6.75252 9.50608 7.14722 8.55206 7.85021 7.8485C8.5532 7.14493 9.50689 6.74943 10.5015 6.74902C11.4961 6.74861 12.4501 7.14332 13.1537 7.84631" stroke="white" stroke-width="1.5" stroke-miterlimit="10"/>
<path d="M14.2019 9.875C14.2922 10.4127 14.2643 10.9636 14.1201 11.4894C13.9759 12.0152 13.7189 12.5033 13.3669 12.9197C13.015 13.3361 12.5765 13.6708 12.082 13.9006C11.5876 14.1303 11.049 14.2495 10.5038 14.25C10.2931 14.25 10.0828 14.2325 9.875 14.1975" stroke="white" stroke-width="1.5" stroke-miterlimit="10" stroke-linecap="square"/>
<path d="M1.75 19.25L19.25 1.75" stroke="white" stroke-width="1.5" stroke-miterlimit="10" stroke-linecap="square"/>
</g>
<defs>
<clipPath id="clip0_2839_10902">
<rect width="20" height="20" fill="white" transform="translate(0.5 0.5)"/>
</clipPath>
</defs>
</svg>
