<svg width="12" height="12" viewBox="0 0 12 12" fill="none" xmlns="http://www.w3.org/2000/svg">
<path d="M6.44826 0.791763C6.36399 0.613092 6.19023 0.5 6 0.5C5.80977 0.5 5.63601 0.613092 5.55174 0.791763L4.12303 3.82083L0.927774 4.30959C0.73943 4.3384 0.583036 4.47674 0.524363 4.66643C0.465689 4.85613 0.514914 5.06427 0.651336 5.20333L2.96268 7.5593L2.41722 10.8876C2.38502 11.084 2.46208 11.2827 2.61602 11.3999C2.76995 11.5171 2.97407 11.5326 3.14254 11.4399L6 9.86729L8.85746 11.4399C9.02594 11.5326 9.23005 11.5171 9.38398 11.3999C9.53792 11.2827 9.61498 11.084 9.58278 10.8876L9.03732 7.5593L11.3487 5.20333C11.4851 5.06427 11.5343 4.85613 11.4756 4.66643C11.417 4.47674 11.2606 4.3384 11.0722 4.30959L7.87697 3.82083L6.44826 0.791763Z" fill="#F7AA28"/>
</svg>
