<svg width="25" height="24" viewBox="0 0 25 24" fill="none" xmlns="http://www.w3.org/2000/svg">
<path fill-rule="evenodd" clip-rule="evenodd" d="M2.59961 2.75C2.59961 2.33579 2.9354 2 3.34961 2H5.10025C6.25048 2 7.23274 2.84422 7.38673 3.98783L7.59445 5.53058L20.0559 4.25403C21.4997 4.10613 22.7346 5.30922 22.5879 6.76236L21.9737 12.8449C21.8017 14.5474 20.3577 15.8333 18.6456 15.8333H8.98167L9.10222 16.7287C9.15449 17.1169 9.49176 17.4167 9.90211 17.4167H19.437C20.704 17.4167 21.7438 18.4358 21.7438 19.7083C21.7438 20.9809 20.704 22 19.437 22C18.1699 22 17.1301 20.9809 17.1301 19.7083C17.1301 19.4296 17.18 19.163 17.2712 18.9167H11.2238C11.315 19.163 11.3649 19.4296 11.3649 19.7083C11.3649 20.9809 10.3251 22 9.05802 22C7.79093 22 6.75118 20.9809 6.75118 19.7083C6.75118 18.8654 7.20741 18.1336 7.88372 17.7357C7.74787 17.4922 7.65487 17.2202 7.61564 16.9288L5.90014 4.188C5.84787 3.79979 5.51061 3.5 5.10025 3.5H3.34961C2.9354 3.5 2.59961 3.16421 2.59961 2.75ZM19.437 18.9167C18.9844 18.9167 18.6301 19.278 18.6301 19.7083C18.6301 20.1387 18.9844 20.5 19.437 20.5C19.8895 20.5 20.2438 20.1387 20.2438 19.7083C20.2438 19.278 19.8895 18.9167 19.437 18.9167ZM9.05802 18.9167C8.60547 18.9167 8.25118 19.278 8.25118 19.7083C8.25118 20.1387 8.60547 20.5 9.05802 20.5C9.51057 20.5 9.86486 20.1387 9.86486 19.7083C9.86486 19.278 9.51057 18.9167 9.05802 18.9167ZM19.4811 8.66216C19.8928 8.61686 20.1898 8.24636 20.1445 7.83463C20.0992 7.42291 19.7287 7.12586 19.317 7.17116L14.6465 7.68505C14.2348 7.73035 13.9377 8.10085 13.983 8.51258C14.0283 8.9243 14.3988 9.22135 14.8105 9.17605L19.4811 8.66216Z" fill="#AD2950"/>
</svg>
