<svg width="21" height="21" viewBox="0 0 21 21" fill="none" xmlns="http://www.w3.org/2000/svg">
    <g clip-path="url(#clip0_1515_18847)">
        <path d="M1.49706 11.0229C1.39066 10.869 1.33346 10.6864 1.33301 10.4993C1.33256 10.3122 1.38889 10.1294 1.49456 9.975C2.53081 8.47083 5.85247 4.25 10.4996 4.25C15.105 4.25 18.4496 8.46458 19.4996 9.97208C19.6068 10.127 19.6641 10.3111 19.6636 10.4996C19.6632 10.688 19.605 10.8718 19.4971 11.0263C18.4391 12.5317 15.0687 16.75 10.4996 16.75C5.88872 16.75 2.54122 12.5254 1.49706 11.0229Z" stroke="#1C1C1D" stroke-width="1.5" stroke-miterlimit="10" stroke-linecap="square"/>
        <path d="M10.5 14.25C12.5711 14.25 14.25 12.5711 14.25 10.5C14.25 8.42893 12.5711 6.75 10.5 6.75C8.42893 6.75 6.75 8.42893 6.75 10.5C6.75 12.5711 8.42893 14.25 10.5 14.25Z" stroke="#1C1C1D" stroke-width="1.5" stroke-miterlimit="10" stroke-linecap="square"/>
    </g>
    <defs>
        <clipPath id="clip0_1515_18847">
            <rect width="20" height="20" fill="white" transform="translate(0.5 0.5)"/>
        </clipPath>
    </defs>
</svg>