<svg width="269" height="65" viewBox="0 0 269 65" fill="none" xmlns="http://www.w3.org/2000/svg">
<path d="M59.3107 27.1735C59.3107 30.0203 56.9948 32.3362 54.148 32.3362H50.8898L49.8547 30.9161L46.7027 32.3362H44.6058L45.8466 30.2326H54.148C55.8335 30.2326 57.2071 28.859 57.2071 27.1735C57.2071 25.4881 55.8335 24.1144 54.148 24.1144H49.4565L49.5561 23.9419L45.2229 22.0109H54.148C56.9948 22.0109 59.3107 24.3268 59.3107 27.1735ZM54.148 5.56742H6.37699C5.79304 5.56742 5.3219 6.03857 5.3219 6.61588C5.3219 7.19319 5.79304 7.67097 6.37699 7.67097H54.148C55.8335 7.67097 57.2071 9.03794 57.2071 10.7301C57.2071 12.4222 55.8335 13.7892 54.148 13.7892H10.0333C7.18656 13.7892 4.87067 16.1051 4.87067 18.9518C4.87067 21.7986 7.18656 24.1144 10.0333 24.1144H33.1922L33.8558 22.0109H10.0333C8.34782 22.0109 6.97421 20.6373 6.97421 18.9518C6.97421 17.2663 8.34782 15.8927 10.0333 15.8927H54.148C56.9948 15.8927 59.3107 13.5768 59.3107 10.7301C59.3107 7.88331 56.9948 5.56742 54.148 5.56742ZM64.0685 4.00138V60.0738C64.0685 62.2769 62.2702 64.0685 60.0671 64.0685H4.00138C1.79166 64.0685 0 62.2769 0 60.0738V4.00138C0 1.7983 1.7983 0 4.00138 0H60.0671C62.2769 0 64.0685 1.7983 64.0685 4.00138ZM61.4142 4.00138C61.4142 3.25817 60.8103 2.65431 60.0671 2.65431H4.00138C3.25817 2.65431 2.65431 3.25817 2.65431 4.00138V60.0738C2.65431 60.8103 3.25817 61.4142 4.00138 61.4142H48.5076L42.1505 44.5858C42.0244 44.2541 41.5732 44.2209 41.394 44.5261L39.045 48.5341C38.8194 48.9257 38.315 49.0584 37.9235 48.8394L37.7775 48.7598C37.4656 48.5806 37.2998 48.2156 37.3727 47.8639L38.5207 42.4226C38.5539 42.27 38.4743 42.1107 38.3283 42.0443L35.4948 40.7238C35.3555 40.6575 35.1896 40.6973 35.09 40.8167L34.5724 41.4405C34.3734 41.686 34.0748 41.8254 33.7629 41.8254H31.4868C31.2081 41.8254 30.9427 41.7126 30.7502 41.5201L30.0468 40.8234C29.8743 40.6508 29.6487 40.5579 29.4032 40.5579H22.3759H21.7123H10.0333C7.18656 40.5579 4.87067 38.242 4.87067 35.3953C4.87067 32.5485 7.18656 30.2326 10.0333 30.2326H32.2433C32.2698 30.2725 32.2964 30.3056 32.3296 30.3455C32.9334 31.1019 33.597 31.7655 34.3137 32.3362H10.0333C8.34782 32.3362 6.97421 33.7098 6.97421 35.3953C6.97421 37.0808 8.34782 38.4544 10.0333 38.4544H26.0587C26.0587 38.4544 26.072 38.4544 26.0786 38.4544H27.8836C28.1158 38.4544 28.3348 38.3681 28.5073 38.2155L29.8743 36.9547C30.0667 36.7822 30.1729 36.5366 30.1729 36.2778V35.9195C30.1729 35.2758 30.6971 34.7516 31.3408 34.7516H33.1192C33.4908 34.7516 33.8425 34.9308 34.0615 35.2294L34.8711 36.3508C35.1962 36.7423 35.3953 36.7025 35.5147 36.3508L36.4106 33.524C36.5035 33.2187 36.3641 32.8936 36.0788 32.7343C34.8843 32.0575 33.8027 31.1218 32.8471 29.9274C32.4888 29.4894 32.3826 28.8856 32.5618 28.3282L35.6674 18.474L48.6071 24.2405L43.3582 33.1391C43.0596 33.6434 42.542 33.9686 41.978 33.9951C41.0689 34.0482 40.2062 34.0084 39.3768 33.8691C39.2308 33.8425 39.0914 33.9288 39.045 34.0681L38.4411 35.9925C38.388 36.165 38.5207 36.3442 38.7065 36.3309L39.536 36.2911L49.6357 31.739L51.9051 34.8578H56.298C57.6119 34.8578 58.6869 35.8863 58.7533 37.1869C59.6889 37.2533 60.4255 38.0297 60.4255 38.9852C60.4255 39.4829 60.2264 39.9342 59.8946 40.2593C59.596 40.5646 59.1912 40.7504 58.7466 40.7835C58.6205 42.0244 57.5721 42.9866 56.298 42.9866H51.1619C50.9761 42.9866 50.85 43.1923 50.9429 43.3582L60.5383 61.3279C61.0492 61.1355 61.4142 60.6511 61.4142 60.0738V4.00138Z" fill="#FBBB5A"/>
<path d="M85.5105 5.68783H89.8595V21.4977H85.4907L85.5635 13.1427L82.373 18.8105H79.4604L76.0448 13.0627L76.1176 21.4977H71.9673V5.68783H76.3162L81.0557 13.7295L85.5039 5.68783H85.5105ZM102.642 5.68783L108.334 21.4977H103.224L102.35 18.6772H97.399L96.5252 21.4977H91.5474L97.2666 5.68783H102.648H102.642ZM101.364 14.9031L99.8812 10.3888L98.3588 14.9031H101.364ZM111.584 10.2954C111.584 11.4757 111.564 12.4692 111.518 13.2627C111.472 14.0629 111.386 14.7163 111.267 15.2231C111.141 15.7299 110.969 16.1366 110.744 16.4434C110.519 16.7501 110.234 16.9901 109.883 17.1702C109.532 17.3502 109.102 17.5169 108.592 17.6703L109.996 21.8378C110.942 21.6511 111.756 21.3777 112.432 21.011C113.107 20.6509 113.663 20.1775 114.106 19.5907C114.55 19.0039 114.901 18.2771 115.152 17.4036C115.404 16.5367 115.582 15.4965 115.688 14.2896C115.794 13.0827 115.847 11.6757 115.847 10.0754V9.84868H119.455V21.5044H123.982V5.68783H111.584V10.2954ZM133.289 5.68783H139.723V21.4977H135.196V16.0566H134.229L131.178 21.4977H126.041L129.874 15.2631C128.967 14.8164 128.259 14.2296 127.736 13.5028C127.213 12.7759 126.955 11.9224 126.955 10.9489C126.955 9.74866 127.213 8.76846 127.736 7.9883C128.259 7.21481 128.993 6.63469 129.946 6.25461C130.893 5.87454 132.005 5.68116 133.276 5.68116L133.289 5.68783ZM133.514 9.39526C132.912 9.39526 132.429 9.50861 132.071 9.72866C131.714 9.9487 131.542 10.3488 131.542 10.9289C131.542 11.509 131.72 11.9024 132.078 12.1225C132.435 12.3492 132.925 12.4626 133.534 12.4626H135.196V9.38859H133.514V9.39526ZM155.299 8.20168C155.842 9.01518 156.113 10.002 156.113 11.1556C156.113 12.3092 155.861 13.3027 155.365 14.1162C154.868 14.9297 154.14 15.5498 153.187 15.9766C152.241 16.4034 151.089 16.6234 149.745 16.6234H147.68V21.5044H143.152V5.68783H149.858C151.062 5.68783 152.135 5.90121 153.075 6.33463C154.015 6.76138 154.756 7.38818 155.299 8.20168ZM151.585 11.2223C151.585 10.5888 151.4 10.1554 151.023 9.92203C150.645 9.68865 150.169 9.57529 149.586 9.57529H147.68V12.8493H149.56C150.189 12.8493 150.678 12.7293 151.042 12.4959C151.4 12.2558 151.579 11.8358 151.579 11.2223H151.585ZM168.015 11.269H162.765V5.68783H158.238V21.4977H162.765V15.4232H168.015V21.4977H172.542V5.68783H168.015V11.269ZM190.792 21.4977H195.32V5.68783H190.792V21.4977ZM188.005 13.0827C188.548 13.8962 188.826 14.883 188.826 16.0366C188.826 16.9035 188.68 17.677 188.402 18.3504C188.118 19.0306 187.701 19.604 187.158 20.0708C186.615 20.5375 185.946 20.8976 185.159 21.1377C184.371 21.3777 183.471 21.4977 182.465 21.4977H175.984V5.68783H180.512V10.5688H182.577C183.775 10.5688 184.841 10.7822 185.781 11.2156C186.721 11.6424 187.469 12.2692 188.012 13.0827H188.005ZM184.292 16.1033C184.292 15.4698 184.106 15.0364 183.729 14.803C183.352 14.5696 182.875 14.4496 182.293 14.4496H180.499V17.7236H182.273C182.902 17.7236 183.391 17.6036 183.755 17.3702C184.113 17.1302 184.292 16.7101 184.292 16.0966V16.1033ZM203.336 3.79411C204.077 4.15418 204.944 4.33422 205.95 4.33422C206.956 4.33422 207.79 4.14752 208.532 3.78077C209.273 3.41403 209.849 2.90059 210.266 2.25379C210.676 1.60033 210.875 0.853508 210.862 0H207.274C207.294 0.460094 207.188 0.826836 206.95 1.10023C206.711 1.37361 206.381 1.51364 205.95 1.51364C205.52 1.51364 205.189 1.37361 204.951 1.10023C204.712 0.826836 204.607 0.460094 204.626 0H201.039C201.025 0.866844 201.217 1.627 201.621 2.2738C202.025 2.92727 202.594 3.43404 203.336 3.79411ZM203.236 14.3829V5.68783H198.755V21.4977H203.283L208.664 12.6693V21.4977H213.146V5.68783H208.598L203.243 14.3829H203.236ZM235.592 5.68783H231.064V17.3435H226.04V5.68783H221.512V21.4977H233.844V25.4519H238.147V17.3435H235.592V5.68783ZM244.892 15.2698H250.724V11.6757H244.892V9.62197H252.001V5.6945H240.364V21.5044H252.087V17.5303H244.892V15.2698ZM264.373 13.5494L268.927 5.68783H263.592L261.282 9.98204L258.972 5.68783H253.504L258.058 13.4828L253.352 21.4977H258.733L261.11 16.9568L263.486 21.4977H269L264.38 13.5494H264.373Z" fill="white"/>
<path d="M86.9011 29.5361C85.372 28.8633 83.6046 28.5302 81.5922 28.5302H71.9673V57.9391H74.4364V45.2532H81.5459C83.7303 45.2532 85.5838 44.9331 87.0997 44.2994C88.6156 43.6658 89.774 42.7251 90.5684 41.497C91.3627 40.2624 91.7599 38.7469 91.7599 36.9374C91.7599 35.1279 91.3296 33.6842 90.4691 32.43C89.6085 31.1758 88.417 30.2155 86.8945 29.5427L86.9011 29.5361ZM87.3513 41.4578C86.0538 42.4704 84.2202 42.9799 81.8504 42.9799H74.443V30.7969H81.8967C84.1937 30.7969 86.0075 31.3587 87.3248 32.4888C88.6421 33.6189 89.304 35.1279 89.304 37.0158C89.304 38.9036 88.6553 40.4453 87.3579 41.4578H87.3513ZM116.292 28.5302H119.145L109.865 46.3833C108.984 48.0948 108.104 49.6038 107.217 50.9102C106.33 52.2167 105.41 53.3599 104.456 54.3267C103.503 55.2935 102.504 56.1035 101.444 56.7633C100.385 57.4231 99.2467 57.9522 98.0287 58.3572L96.7511 56.0447C98.1544 55.6267 99.485 55.0061 100.729 54.1961C101.981 53.386 103.146 52.3409 104.231 51.067C105.184 49.95 106.065 48.6174 106.886 47.0953L95.9832 28.5236H99.0481L108.302 44.319L116.286 28.5236L116.292 28.5302ZM127.102 28.5302H146.305V57.9391H143.836V30.7969H129.578V37.7735C129.578 40.8568 129.492 43.4829 129.313 45.6647C129.134 47.84 128.856 49.6626 128.485 51.1258C128.108 52.5891 127.632 53.7845 127.049 54.7056C126.467 55.6267 125.778 56.3714 124.977 56.9331C124.176 57.4949 123.256 57.9718 122.217 58.3638L120.939 56.097C121.892 55.79 122.707 55.398 123.395 54.9342C124.083 54.4639 124.666 53.8302 125.149 53.0202C125.632 52.2167 126.016 51.1585 126.301 49.8455C126.586 48.539 126.791 46.8993 126.917 44.9265C127.042 42.9603 127.109 40.576 127.109 37.7735V28.5302H127.102ZM169.752 42.2287C168.23 41.5558 166.456 41.2227 164.443 41.2227H157.294V28.5367H154.825V57.9457H164.403C166.052 57.9457 167.501 57.7693 168.766 57.41C170.03 57.0507 171.096 56.5216 171.97 55.8226C172.843 55.1237 173.505 54.2549 173.949 53.2162C174.392 52.1775 174.618 50.9821 174.618 49.6234C174.618 47.8727 174.187 46.3702 173.327 45.116C172.466 43.8618 171.275 42.9015 169.752 42.2287ZM170.196 54.1503C168.898 55.1629 167.065 55.6724 164.695 55.6724H157.287V43.4894H164.734C167.031 43.4894 168.845 44.0512 170.163 45.1813C171.48 46.3114 172.142 47.8204 172.142 49.7083C172.142 51.5962 171.493 53.1378 170.196 54.1503ZM207.947 28.5302H210.244V57.9391H207.775V33.1878L196.661 50.7992H194.404L183.038 32.8481V57.9391H180.78V28.5302H183.21L195.741 48.3169L207.947 28.5302ZM227.277 28.5302L215.269 57.9391H217.949L221.186 49.8716H235.75L239.159 57.9391H241.926L229.408 28.5302H227.277ZM222.087 47.6048L228.263 32.1426L234.823 47.6048H222.093H222.087ZM269 28.5302V57.9391H266.531V43.2738H249.419V57.9391H246.95V28.5302H249.419V41.0071H266.531V28.5302H269Z" fill="#FBBB5A"/>
</svg>
