<svg width="60" height="695" viewBox="0 0 60 695" fill="none" xmlns="http://www.w3.org/2000/svg">
<path d="M36.2168 3.50239L35.4254 1L27.187 4.46693C22.6839 6.36502 23.1389 10.1263 24.235 14C28.6273 12.1445 38.2705 10.0411 36.2168 3.50239Z" fill="#EDEDED" stroke="#D2D2D2"/>
<path d="M36.2168 11.5024L35.4254 9L27.187 12.4669C22.6839 14.365 23.1389 18.1263 24.235 22C28.6273 20.1445 38.2705 18.0411 36.2168 11.5024Z" fill="#EDEDED" stroke="#D2D2D2"/>
<path d="M36.2168 19.5024L35.4254 17L27.187 20.4669C22.6839 22.365 23.1389 26.1263 24.235 30C28.6273 28.1445 38.2705 26.0411 36.2168 19.5024Z" fill="#EDEDED" stroke="#D2D2D2"/>
<path d="M36.2168 27.5024L35.4254 25L27.187 28.4669C22.6839 30.365 23.1389 34.1263 24.235 38C28.6273 36.1445 38.2705 34.0411 36.2168 27.5024Z" fill="#EDEDED" stroke="#D2D2D2"/>
<path d="M36.2168 35.5024L35.4254 33L27.187 36.4669C22.6839 38.365 23.1389 42.1263 24.235 46C28.6273 44.1445 38.2705 42.0411 36.2168 35.5024Z" fill="#EDEDED" stroke="#D2D2D2"/>
<path d="M36.2168 43.5024L35.4254 41L27.187 44.4669C22.6839 46.365 23.1389 50.1263 24.235 54C28.6273 52.1445 38.2705 50.0411 36.2168 43.5024Z" fill="#EDEDED" stroke="#D2D2D2"/>
<path d="M36.2168 51.5024L35.4254 49L27.187 52.4669C22.6839 54.365 23.1389 58.1263 24.235 62C28.6273 60.1445 38.2705 58.0411 36.2168 51.5024Z" fill="#EDEDED" stroke="#D2D2D2"/>
<path d="M36.2168 59.5024L35.4254 57L27.187 60.4669C22.6839 62.365 23.1389 66.1263 24.235 70C28.6273 68.1445 38.2705 66.0411 36.2168 59.5024Z" fill="#EDEDED" stroke="#D2D2D2"/>
<path d="M36.2168 67.5024L35.4254 65L27.187 68.4669C22.6839 70.365 23.1389 74.1263 24.235 78C28.6273 76.1445 38.2705 74.0411 36.2168 67.5024Z" fill="#EDEDED" stroke="#D2D2D2"/>
<path d="M36.2168 75.5024L35.4254 73L27.187 76.4669C22.6839 78.365 23.1389 82.1263 24.235 86C28.6273 84.1445 38.2705 82.0411 36.2168 75.5024Z" fill="#EDEDED" stroke="#D2D2D2"/>
<path d="M36.2168 83.5024L35.4254 81L27.187 84.4669C22.6839 86.365 23.1389 90.1263 24.235 94C28.6273 92.1445 38.2705 90.0411 36.2168 83.5024Z" fill="#EDEDED" stroke="#D2D2D2"/>
<path d="M36.2168 91.5024L35.4254 89L27.187 92.4669C22.6839 94.365 23.1389 98.1263 24.235 102C28.6273 100.145 38.2705 98.0411 36.2168 91.5024Z" fill="#EDEDED" stroke="#D2D2D2"/>
<path d="M36.2168 99.5024L35.4254 97L27.187 100.467C22.6839 102.365 23.1389 106.126 24.235 110C28.6273 108.145 38.2705 106.041 36.2168 99.5024Z" fill="#EDEDED" stroke="#D2D2D2"/>
<path d="M36.2168 107.502L35.4254 105L27.187 108.467C22.6839 110.365 23.1389 114.126 24.235 118C28.6273 116.145 38.2705 114.041 36.2168 107.502Z" fill="#EDEDED" stroke="#D2D2D2"/>
<path d="M36.2168 115.502L35.4254 113L27.187 116.467C22.6839 118.365 23.1389 122.126 24.235 126C28.6273 124.145 38.2705 122.041 36.2168 115.502Z" fill="#EDEDED" stroke="#D2D2D2"/>
<path d="M36.2168 123.502L35.4254 121L27.187 124.467C22.6839 126.365 23.1389 130.126 24.235 134C28.6273 132.145 38.2705 130.041 36.2168 123.502Z" fill="#EDEDED" stroke="#D2D2D2"/>
<path d="M36.2168 131.502L35.4254 129L27.187 132.467C22.6839 134.365 23.1389 138.126 24.235 142C28.6273 140.145 38.2705 138.041 36.2168 131.502Z" fill="#EDEDED" stroke="#D2D2D2"/>
<path d="M36.2168 139.502L35.4254 137L27.187 140.467C22.6839 142.365 23.1389 146.126 24.235 150C28.6273 148.145 38.2705 146.041 36.2168 139.502Z" fill="#EDEDED" stroke="#D2D2D2"/>
<path d="M36.2168 147.502L35.4254 145L27.187 148.467C22.6839 150.365 23.1389 154.126 24.235 158C28.6273 156.145 38.2705 154.041 36.2168 147.502Z" fill="#EDEDED" stroke="#D2D2D2"/>
<path d="M36.2168 155.502L35.4254 153L27.187 156.467C22.6839 158.365 23.1389 162.126 24.235 166C28.6273 164.145 38.2705 162.041 36.2168 155.502Z" fill="#EDEDED" stroke="#D2D2D2"/>
<path d="M36.2168 163.502L35.4254 161L27.187 164.467C22.6839 166.365 23.1389 170.126 24.235 174C28.6273 172.145 38.2705 170.041 36.2168 163.502Z" fill="#EDEDED" stroke="#D2D2D2"/>
<path d="M36.2168 171.502L35.4254 169L27.187 172.467C22.6839 174.365 23.1389 178.126 24.235 182C28.6273 180.145 38.2705 178.041 36.2168 171.502Z" fill="#EDEDED" stroke="#D2D2D2"/>
<path d="M36.2168 179.502L35.4254 177L27.187 180.467C22.6839 182.365 23.1389 186.126 24.235 190C28.6273 188.145 38.2705 186.041 36.2168 179.502Z" fill="#EDEDED" stroke="#D2D2D2"/>
<path d="M36.2168 187.502L35.4254 185L27.187 188.467C22.6839 190.365 23.1389 194.126 24.235 198C28.6273 196.145 38.2705 194.041 36.2168 187.502Z" fill="#EDEDED" stroke="#D2D2D2"/>
<path d="M36.2168 195.502L35.4254 193L27.187 196.467C22.6839 198.365 23.1389 202.126 24.235 206C28.6273 204.145 38.2705 202.041 36.2168 195.502Z" fill="#EDEDED" stroke="#D2D2D2"/>
<path d="M36.2168 203.502L35.4254 201L27.187 204.467C22.6839 206.365 23.1389 210.126 24.235 214C28.6273 212.145 38.2705 210.041 36.2168 203.502Z" fill="#EDEDED" stroke="#D2D2D2"/>
<path d="M36.2168 211.502L35.4254 209L27.187 212.467C22.6839 214.365 23.1389 218.126 24.235 222C28.6273 220.145 38.2705 218.041 36.2168 211.502Z" fill="#EDEDED" stroke="#D2D2D2"/>
<path d="M36.2168 219.502L35.4254 217L27.187 220.467C22.6839 222.365 23.1389 226.126 24.235 230C28.6273 228.145 38.2705 226.041 36.2168 219.502Z" fill="#EDEDED" stroke="#D2D2D2"/>
<path d="M36.2168 227.502L35.4254 225L27.187 228.467C22.6839 230.365 23.1389 234.126 24.235 238C28.6273 236.145 38.2705 234.041 36.2168 227.502Z" fill="#EDEDED" stroke="#D2D2D2"/>
<path d="M36.2168 235.502L35.4254 233L27.187 236.467C22.6839 238.365 23.1389 242.126 24.235 246C28.6273 244.145 38.2705 242.041 36.2168 235.502Z" fill="#EDEDED" stroke="#D2D2D2"/>
<path d="M36.2168 243.502L35.4254 241L27.187 244.467C22.6839 246.365 23.1389 250.126 24.235 254C28.6273 252.145 38.2705 250.041 36.2168 243.502Z" fill="#EDEDED" stroke="#D2D2D2"/>
<path d="M36.2168 251.502L35.4254 249L27.187 252.467C22.6839 254.365 23.1389 258.126 24.235 262C28.6273 260.145 38.2705 258.041 36.2168 251.502Z" fill="#EDEDED" stroke="#D2D2D2"/>
<path d="M36.2168 259.502L35.4254 257L27.187 260.467C22.6839 262.365 23.1389 266.126 24.235 270C28.6273 268.145 38.2705 266.041 36.2168 259.502Z" fill="#EDEDED" stroke="#D2D2D2"/>
<path d="M36.2168 267.502L35.4254 265L27.187 268.467C22.6839 270.365 23.1389 274.126 24.235 278C28.6273 276.145 38.2705 274.041 36.2168 267.502Z" fill="#EDEDED" stroke="#D2D2D2"/>
<path d="M36.2168 275.502L35.4254 273L27.187 276.467C22.6839 278.365 23.1389 282.126 24.235 286C28.6273 284.145 38.2705 282.041 36.2168 275.502Z" fill="#EDEDED" stroke="#D2D2D2"/>
<path d="M36.2168 283.502L35.4254 281L27.187 284.467C22.6839 286.365 23.1389 290.126 24.235 294C28.6273 292.145 38.2705 290.041 36.2168 283.502Z" fill="#EDEDED" stroke="#D2D2D2"/>
<path d="M36.2168 291.502L35.4254 289L27.187 292.467C22.6839 294.365 23.1389 298.126 24.235 302C28.6273 300.145 38.2705 298.041 36.2168 291.502Z" fill="#EDEDED" stroke="#D2D2D2"/>
<path d="M36.2168 299.502L35.4254 297L27.187 300.467C22.6839 302.365 23.1389 306.126 24.235 310C28.6273 308.145 38.2705 306.041 36.2168 299.502Z" fill="#EDEDED" stroke="#D2D2D2"/>
<path d="M36.2168 307.502L35.4254 305L27.187 308.467C22.6839 310.365 23.1389 314.126 24.235 318C28.6273 316.145 38.2705 314.041 36.2168 307.502Z" fill="#EDEDED" stroke="#D2D2D2"/>
<path d="M36.2168 315.502L35.4254 313L27.187 316.467C22.6839 318.365 23.1389 322.126 24.235 326C28.6273 324.145 38.2705 322.041 36.2168 315.502Z" fill="#EDEDED" stroke="#D2D2D2"/>
<path d="M36.2168 323.502L35.4254 321L27.187 324.467C22.6839 326.365 23.1389 330.126 24.235 334C28.6273 332.145 38.2705 330.041 36.2168 323.502Z" fill="#EDEDED" stroke="#D2D2D2"/>
<path d="M36.2168 331.502L35.4254 329L27.187 332.467C22.6839 334.365 23.1389 338.126 24.235 342C28.6273 340.145 38.2705 338.041 36.2168 331.502Z" fill="#EDEDED" stroke="#D2D2D2"/>
<path d="M36.2168 339.502L35.4254 337L27.187 340.467C22.6839 342.365 23.1389 346.126 24.235 350C28.6273 348.145 38.2705 346.041 36.2168 339.502Z" fill="#EDEDED" stroke="#D2D2D2"/>
<path d="M36.2168 347.502L35.4254 345L27.187 348.467C22.6839 350.365 23.1389 354.126 24.235 358C28.6273 356.145 38.2705 354.041 36.2168 347.502Z" fill="#EDEDED" stroke="#D2D2D2"/>
<path d="M36.2168 355.502L35.4254 353L27.187 356.467C22.6839 358.365 23.1389 362.126 24.235 366C28.6273 364.145 38.2705 362.041 36.2168 355.502Z" fill="#EDEDED" stroke="#D2D2D2"/>
<path d="M36.2168 363.502L35.4254 361L27.187 364.467C22.6839 366.365 23.1389 370.126 24.235 374C28.6273 372.145 38.2705 370.041 36.2168 363.502Z" fill="#EDEDED" stroke="#D2D2D2"/>
<path d="M36.2168 371.502L35.4254 369L27.187 372.467C22.6839 374.365 23.1389 378.126 24.235 382C28.6273 380.145 38.2705 378.041 36.2168 371.502Z" fill="#EDEDED" stroke="#D2D2D2"/>
<path d="M36.2168 379.502L35.4254 377L27.187 380.467C22.6839 382.365 23.1389 386.126 24.235 390C28.6273 388.145 38.2705 386.041 36.2168 379.502Z" fill="#EDEDED" stroke="#D2D2D2"/>
<path d="M36.2168 387.502L35.4254 385L27.187 388.467C22.6839 390.365 23.1389 394.126 24.235 398C28.6273 396.145 38.2705 394.041 36.2168 387.502Z" fill="#EDEDED" stroke="#D2D2D2"/>
<path d="M36.2168 395.502L35.4254 393L27.187 396.467C22.6839 398.365 23.1389 402.126 24.235 406C28.6273 404.145 38.2705 402.041 36.2168 395.502Z" fill="#EDEDED" stroke="#D2D2D2"/>
<path d="M36.2168 403.502L35.4254 401L27.187 404.467C22.6839 406.365 23.1389 410.126 24.235 414C28.6273 412.145 38.2705 410.041 36.2168 403.502Z" fill="#EDEDED" stroke="#D2D2D2"/>
<path d="M36.2168 411.502L35.4254 409L27.187 412.467C22.6839 414.365 23.1389 418.126 24.235 422C28.6273 420.145 38.2705 418.041 36.2168 411.502Z" fill="#EDEDED" stroke="#D2D2D2"/>
<path d="M36.2168 419.502L35.4254 417L27.187 420.467C22.6839 422.365 23.1389 426.126 24.235 430C28.6273 428.145 38.2705 426.041 36.2168 419.502Z" fill="#EDEDED" stroke="#D2D2D2"/>
<path d="M36.2168 427.502L35.4254 425L27.187 428.467C22.6839 430.365 23.1389 434.126 24.235 438C28.6273 436.145 38.2705 434.041 36.2168 427.502Z" fill="#EDEDED" stroke="#D2D2D2"/>
<path d="M36.2168 435.502L35.4254 433L27.187 436.467C22.6839 438.365 23.1389 442.126 24.235 446C28.6273 444.145 38.2705 442.041 36.2168 435.502Z" fill="#EDEDED" stroke="#D2D2D2"/>
<path d="M36.2168 443.502L35.4254 441L27.187 444.467C22.6839 446.365 23.1389 450.126 24.235 454C28.6273 452.145 38.2705 450.041 36.2168 443.502Z" fill="#EDEDED" stroke="#D2D2D2"/>
<path d="M36.2168 451.502L35.4254 449L27.187 452.467C22.6839 454.365 23.1389 458.126 24.235 462C28.6273 460.145 38.2705 458.041 36.2168 451.502Z" fill="#EDEDED" stroke="#D2D2D2"/>
<path d="M36.2168 459.502L35.4254 457L27.187 460.467C22.6839 462.365 23.1389 466.126 24.235 470C28.6273 468.145 38.2705 466.041 36.2168 459.502Z" fill="#EDEDED" stroke="#D2D2D2"/>
<path d="M36.2168 467.502L35.4254 465L27.187 468.467C22.6839 470.365 23.1389 474.126 24.235 478C28.6273 476.145 38.2705 474.041 36.2168 467.502Z" fill="#EDEDED" stroke="#D2D2D2"/>
<path d="M36.2168 475.502L35.4254 473L27.187 476.467C22.6839 478.365 23.1389 482.126 24.235 486C28.6273 484.145 38.2705 482.041 36.2168 475.502Z" fill="#EDEDED" stroke="#D2D2D2"/>
<path d="M36.2168 483.502L35.4254 481L27.187 484.467C22.6839 486.365 23.1389 490.126 24.235 494C28.6273 492.145 38.2705 490.041 36.2168 483.502Z" fill="#EDEDED" stroke="#D2D2D2"/>
<path d="M36.2168 491.502L35.4254 489L27.187 492.467C22.6839 494.365 23.1389 498.126 24.235 502C28.6273 500.145 38.2705 498.041 36.2168 491.502Z" fill="#EDEDED" stroke="#D2D2D2"/>
<path d="M36.2168 499.502L35.4254 497L27.187 500.467C22.6839 502.365 23.1389 506.126 24.235 510C28.6273 508.145 38.2705 506.041 36.2168 499.502Z" fill="#EDEDED" stroke="#D2D2D2"/>
<path d="M36.2168 507.502L35.4254 505L27.187 508.467C22.6839 510.365 23.1389 514.126 24.235 518C28.6273 516.145 38.2705 514.041 36.2168 507.502Z" fill="#EDEDED" stroke="#D2D2D2"/>
<path d="M36.2168 515.502L35.4254 513L27.187 516.467C22.6839 518.365 23.1389 522.126 24.235 526C28.6273 524.145 38.2705 522.041 36.2168 515.502Z" fill="#EDEDED" stroke="#D2D2D2"/>
<path d="M36.2168 523.502L35.4254 521L27.187 524.467C22.6839 526.365 23.1389 530.126 24.235 534C28.6273 532.145 38.2705 530.041 36.2168 523.502Z" fill="#EDEDED" stroke="#D2D2D2"/>
<path d="M36.2168 531.502L35.4254 529L27.187 532.467C22.6839 534.365 23.1389 538.126 24.235 542C28.6273 540.145 38.2705 538.041 36.2168 531.502Z" fill="#EDEDED" stroke="#D2D2D2"/>
<path d="M36.2168 539.502L35.4254 537L27.187 540.467C22.6839 542.365 23.1389 546.126 24.235 550C28.6273 548.145 38.2705 546.041 36.2168 539.502Z" fill="#EDEDED" stroke="#D2D2D2"/>
<path d="M36.2168 547.502L35.4254 545L27.187 548.467C22.6839 550.365 23.1389 554.126 24.235 558C28.6273 556.145 38.2705 554.041 36.2168 547.502Z" fill="#EDEDED" stroke="#D2D2D2"/>
<path d="M36.2168 555.502L35.4254 553L27.187 556.467C22.6839 558.365 23.1389 562.126 24.235 566C28.6273 564.145 38.2705 562.041 36.2168 555.502Z" fill="#EDEDED" stroke="#D2D2D2"/>
<path d="M36.2168 563.502L35.4254 561L27.187 564.467C22.6839 566.365 23.1389 570.126 24.235 574C28.6273 572.145 38.2705 570.041 36.2168 563.502Z" fill="#EDEDED" stroke="#D2D2D2"/>
<path d="M36.2168 571.502L35.4254 569L27.187 572.467C22.6839 574.365 23.1389 578.126 24.235 582C28.6273 580.145 38.2705 578.041 36.2168 571.502Z" fill="#EDEDED" stroke="#D2D2D2"/>
<path d="M36.2168 579.502L35.4254 577L27.187 580.467C22.6839 582.365 23.1389 586.126 24.235 590C28.6273 588.145 38.2705 586.041 36.2168 579.502Z" fill="#EDEDED" stroke="#D2D2D2"/>
<path d="M36.2168 587.502L35.4254 585L27.187 588.467C22.6839 590.365 23.1389 594.126 24.235 598C28.6273 596.145 38.2705 594.041 36.2168 587.502Z" fill="#EDEDED" stroke="#D2D2D2"/>
<path d="M36.2168 595.502L35.4254 593L27.187 596.467C22.6839 598.365 23.1389 602.126 24.235 606C28.6273 604.145 38.2705 602.041 36.2168 595.502Z" fill="#EDEDED" stroke="#D2D2D2"/>
<path d="M36.2168 603.502L35.4254 601L27.187 604.467C22.6839 606.365 23.1389 610.126 24.235 614C28.6273 612.145 38.2705 610.041 36.2168 603.502Z" fill="#EDEDED" stroke="#D2D2D2"/>
<path d="M36.2168 611.502L35.4254 609L27.187 612.467C22.6839 614.365 23.1389 618.126 24.235 622C28.6273 620.145 38.2705 618.041 36.2168 611.502Z" fill="#EDEDED" stroke="#D2D2D2"/>
<path d="M36.2168 619.502L35.4254 617L27.187 620.467C22.6839 622.365 23.1389 626.126 24.235 630C28.6273 628.145 38.2705 626.041 36.2168 619.502Z" fill="#EDEDED" stroke="#D2D2D2"/>
<path d="M36.2168 627.502L35.4254 625L27.187 628.467C22.6839 630.365 23.1389 634.126 24.235 638C28.6273 636.145 38.2705 634.041 36.2168 627.502Z" fill="#EDEDED" stroke="#D2D2D2"/>
<path d="M36.2168 635.502L35.4254 633L27.187 636.467C22.6839 638.365 23.1389 642.126 24.235 646C28.6273 644.145 38.2705 642.041 36.2168 635.502Z" fill="#EDEDED" stroke="#D2D2D2"/>
<path d="M36.2168 643.502L35.4254 641L27.187 644.467C22.6839 646.365 23.1389 650.126 24.235 654C28.6273 652.145 38.2705 650.041 36.2168 643.502Z" fill="#EDEDED" stroke="#D2D2D2"/>
<path d="M23.0071 676.328C22.6967 681.337 22.076 686.336 21.1054 691.28C21.1054 691.317 21.0941 691.335 21.0941 691.353C20.5607 693.959 22.3912 693.752 24.1696 693.752C25.2362 689.387 26.1278 683.322 26.2181 677.992C26.2181 677.992 26.7824 683.009 25.3377 691.942C25.4167 692.511 25.5296 693.191 25.7384 693.752H27.5668C28.2665 687.282 28.7462 679.609 28.8139 672.313C28.8478 673.434 29.0961 681.41 28.0859 693.752H31.1107L31.4888 692.383L31.7766 691.381C31.7709 691.372 31.7709 691.353 31.7709 691.335C31.5395 688.054 31.3985 685.178 31.3025 682.706C31.0373 675.841 31.2292 672.184 31.2292 672.184C31.28 679.379 31.7483 686.942 32.4481 694L35.0044 693.752C33.2438 683.882 33.7799 678.341 33.8194 678.001C33.9435 685.187 35.3035 691.409 35.9356 693.963L37.8824 693.752C38.6443 693.743 39.1804 692.539 38.9434 691.326C37.9671 686.373 37.3407 681.346 37.036 676.328C36.2299 664.515 23.9939 660.729 23.0071 676.328Z" fill="#EDEDED" stroke="#D2D2D2"/>
<path d="M36.2168 651.502L35.4254 649L27.187 652.467C22.6839 654.365 23.1389 658.126 24.235 662C28.6273 660.145 38.2705 658.041 36.2168 651.502Z" fill="#EDEDED" stroke="#D2D2D2"/>
<path d="M32.7314 660.032C33.8986 660.419 35.0383 660.918 35.9533 661.397C36.8684 661.877 37.4181 662.286 37.4181 662.286C37.6668 661.583 37.6479 660.722 37.4189 659.939C35.6612 652.433 26.231 653.714 24.0038 658.041C23.7123 658.608 23.5742 659.016 23.5742 659.016C24.8563 659.87 26.9508 661.661 27.6532 661.759C28.0185 661.829 28.2706 661.736 28.5648 661.628C29.9633 660.603 30.6271 659.335 32.7314 660.032Z" fill="#EDEDED" stroke="#D2D2D2"/>
<path d="M38.2047 668.398C41.0786 666.057 41.0304 662.474 38.2045 658.935C35.3785 655.396 29.4571 657.569 27.5224 663.741C28.879 667.21 36.9374 665.424 38.2047 668.398Z" fill="#EDEDED" stroke="#D2D2D2"/>
<path d="M26.5588 657.076C26.6126 656.581 26.6664 656.134 26.7202 655.837C26.8277 655.539 26.8277 655.341 26.8277 655.341C25.6984 655.44 24.6228 655.986 23.7086 656.68C19.1602 660.38 21.5462 665.56 25.6984 668.381C26.7202 669.075 27.7957 669.472 28.6024 669.67C28.9788 669.769 29.3553 669.819 29.5704 669.868C29.7855 669.918 29.9468 669.918 29.9468 669.918C32.7474 665.151 26.2881 662.068 26.5588 657.076Z" fill="#EDEDED" stroke="#D2D2D2"/>
<path d="M29.0632 665.826C29.0632 665.826 28.9018 665.826 28.6867 665.771C28.4716 665.717 28.1489 665.662 27.7187 665.552C26.912 665.333 25.8365 664.841 24.8147 664.129C23.7929 663.418 22.8787 662.432 22.2334 661.611C21.588 660.79 21.2116 660.188 21.2116 660.188C20.5125 660.9 20.0285 661.83 19.8134 662.87C19.5445 663.91 19.5445 665.115 19.8671 666.319C20.136 667.468 20.7276 668.618 21.5343 669.494C22.3409 670.369 23.3089 670.972 24.2769 671.245C24.2769 671.245 24.4383 671.3 24.7609 671.355C25.0836 671.409 25.5138 671.519 26.0516 671.574C27.1271 671.683 28.4716 671.628 29.7085 671.3C30.9453 670.972 31.8596 670.315 32.4511 669.713C32.72 669.439 32.9351 669.165 33.0427 669.001C33.1502 668.837 33.2578 668.727 33.2578 668.727C32.6125 667.414 32.5587 666.757 32.0209 666.374C31.4294 666.1 30.5152 665.99 29.0632 665.826Z" fill="#EDEDED" stroke="#D2D2D2"/>
<path d="M29.6184 666.9C29.6184 666.9 29.5356 666.989 29.3344 667.098C29.1846 667.223 28.885 667.474 28.5652 667.604C27.8787 668.021 26.7649 668.363 25.4876 668.311C24.2462 668.328 22.9083 667.914 21.9104 667.492C21.4115 667.28 21.0311 667.048 20.738 666.9C20.4449 666.752 20.3062 666.652 20.3062 666.652C20.0607 667.663 20.1083 668.822 20.5473 669.988C20.9349 671.137 21.714 672.293 22.8083 673.147C23.3476 673.599 23.9182 673.947 24.5715 674.207C24.8646 674.354 25.1733 674.45 25.4821 674.545C25.7908 674.641 26.1152 674.684 26.4395 674.727C27.0883 674.813 27.6654 674.763 28.2424 674.712C28.7837 674.594 29.3406 674.423 29.8102 674.167C29.8102 674.167 29.96 674.042 30.2798 673.912C30.5481 673.766 30.9148 673.479 31.3486 673.155C32.1647 672.492 33.0746 671.515 33.7428 670.406C34.411 669.297 34.8421 668.229 35.0922 667.391C35.2173 666.972 35.2752 666.589 35.3377 666.38C35.3488 666.154 35.3957 665.997 35.3957 665.997C34.0174 665.342 32.9212 665.061 32.0914 665.204C31.2101 665.332 30.6468 665.902 29.6184 666.9Z" fill="#EDEDED" stroke="#D2D2D2"/>
<path d="M30.472 665.271C30.4718 666.885 30.6217 668.446 30.1883 670.063C29.8656 671.322 29.2741 672.526 28.6825 673.402C28.3598 673.84 28.0909 674.223 27.8758 674.442C27.6607 674.661 27.4994 674.825 27.4994 674.825C28.4674 675.318 29.5967 675.428 30.726 675.318C31.8554 675.154 32.9847 674.771 33.899 674.114C38.5382 670.876 36.8316 665.877 34.4647 663.403C32.5632 662.314 30.9847 663.162 30.472 665.271Z" fill="#EDEDED" stroke="#D2D2D2"/>
<path d="M35.4512 673.355C39.9189 672.092 40.5418 665.458 36.8751 663.167C33.2085 660.875 30.4585 663.625 30.4598 664.676C35.0443 665.546 36.8745 667.75 35.4512 673.355Z" fill="#EDEDED" stroke="#D2D2D2"/>
</svg>
