<svg width="32" height="339" viewBox="0 0 32 339" fill="none" xmlns="http://www.w3.org/2000/svg">
<path d="M19.8258 2.53993L19.3387 1L14.2689 3.1335C11.4978 4.30155 11.7778 6.61621 12.4523 9C15.1553 7.85816 21.0896 6.56377 19.8258 2.53993Z" fill="#EDEDED" stroke="#D2D2D2"/>
<path d="M19.8258 7.53993L19.3387 6L14.2689 8.1335C11.4978 9.30155 11.7778 11.6162 12.4523 14C15.1553 12.8582 21.0896 11.5638 19.8258 7.53993Z" fill="#EDEDED" stroke="#D2D2D2"/>
<path d="M19.8258 12.5399L19.3387 11L14.2689 13.1335C11.4978 14.3016 11.7778 16.6162 12.4523 19C15.1553 17.8582 21.0896 16.5638 19.8258 12.5399Z" fill="#EDEDED" stroke="#D2D2D2"/>
<path d="M19.8258 17.5399L19.3387 16L14.2689 18.1335C11.4978 19.3016 11.7778 21.6162 12.4523 24C15.1553 22.8582 21.0896 21.5638 19.8258 17.5399Z" fill="#EDEDED" stroke="#D2D2D2"/>
<path d="M19.8258 22.5399L19.3387 21L14.2689 23.1335C11.4978 24.3016 11.7778 26.6162 12.4523 29C15.1553 27.8582 21.0896 26.5638 19.8258 22.5399Z" fill="#EDEDED" stroke="#D2D2D2"/>
<path d="M19.8258 27.5399L19.3387 26L14.2689 28.1335C11.4978 29.3016 11.7778 31.6162 12.4523 34C15.1553 32.8582 21.0896 31.5638 19.8258 27.5399Z" fill="#EDEDED" stroke="#D2D2D2"/>
<path d="M19.8258 32.5399L19.3387 31L14.2689 33.1335C11.4978 34.3016 11.7778 36.6162 12.4523 39C15.1553 37.8582 21.0896 36.5638 19.8258 32.5399Z" fill="#EDEDED" stroke="#D2D2D2"/>
<path d="M19.8258 37.5399L19.3387 36L14.2689 38.1335C11.4978 39.3016 11.7778 41.6162 12.4523 44C15.1553 42.8582 21.0896 41.5638 19.8258 37.5399Z" fill="#EDEDED" stroke="#D2D2D2"/>
<path d="M19.8258 42.5399L19.3387 41L14.2689 43.1335C11.4978 44.3016 11.7778 46.6162 12.4523 49C15.1553 47.8582 21.0896 46.5638 19.8258 42.5399Z" fill="#EDEDED" stroke="#D2D2D2"/>
<path d="M19.8258 47.5399L19.3387 46L14.2689 48.1335C11.4978 49.3016 11.7778 51.6162 12.4523 54C15.1553 52.8582 21.0896 51.5638 19.8258 47.5399Z" fill="#EDEDED" stroke="#D2D2D2"/>
<path d="M19.8258 52.5399L19.3387 51L14.2689 53.1335C11.4978 54.3016 11.7778 56.6162 12.4523 59C15.1553 57.8582 21.0896 56.5638 19.8258 52.5399Z" fill="#EDEDED" stroke="#D2D2D2"/>
<path d="M19.8258 57.5399L19.3387 56L14.2689 58.1335C11.4978 59.3016 11.7778 61.6162 12.4523 64C15.1553 62.8582 21.0896 61.5638 19.8258 57.5399Z" fill="#EDEDED" stroke="#D2D2D2"/>
<path d="M19.8258 62.5399L19.3387 61L14.2689 63.1335C11.4978 64.3016 11.7778 66.6162 12.4523 69C15.1553 67.8582 21.0896 66.5638 19.8258 62.5399Z" fill="#EDEDED" stroke="#D2D2D2"/>
<path d="M19.8258 67.5399L19.3387 66L14.2689 68.1335C11.4978 69.3016 11.7778 71.6162 12.4523 74C15.1553 72.8582 21.0896 71.5638 19.8258 67.5399Z" fill="#EDEDED" stroke="#D2D2D2"/>
<path d="M19.8258 72.5399L19.3387 71L14.2689 73.1335C11.4978 74.3016 11.7778 76.6162 12.4523 79C15.1553 77.8582 21.0896 76.5638 19.8258 72.5399Z" fill="#EDEDED" stroke="#D2D2D2"/>
<path d="M19.8258 77.5399L19.3387 76L14.2689 78.1335C11.4978 79.3016 11.7778 81.6162 12.4523 84C15.1553 82.8582 21.0896 81.5638 19.8258 77.5399Z" fill="#EDEDED" stroke="#D2D2D2"/>
<path d="M19.8258 82.5399L19.3387 81L14.2689 83.1335C11.4978 84.3016 11.7778 86.6162 12.4523 89C15.1553 87.8582 21.0896 86.5638 19.8258 82.5399Z" fill="#EDEDED" stroke="#D2D2D2"/>
<path d="M19.8258 87.5399L19.3387 86L14.2689 88.1335C11.4978 89.3016 11.7778 91.6162 12.4523 94C15.1553 92.8582 21.0896 91.5638 19.8258 87.5399Z" fill="#EDEDED" stroke="#D2D2D2"/>
<path d="M19.8258 92.5399L19.3387 91L14.2689 93.1335C11.4978 94.3016 11.7778 96.6162 12.4523 99C15.1553 97.8582 21.0896 96.5638 19.8258 92.5399Z" fill="#EDEDED" stroke="#D2D2D2"/>
<path d="M19.8258 97.5399L19.3387 96L14.2689 98.1335C11.4978 99.3016 11.7778 101.616 12.4523 104C15.1553 102.858 21.0896 101.564 19.8258 97.5399Z" fill="#EDEDED" stroke="#D2D2D2"/>
<path d="M19.8258 102.54L19.3387 101L14.2689 103.133C11.4978 104.302 11.7778 106.616 12.4523 109C15.1553 107.858 21.0896 106.564 19.8258 102.54Z" fill="#EDEDED" stroke="#D2D2D2"/>
<path d="M19.8258 107.54L19.3387 106L14.2689 108.133C11.4978 109.302 11.7778 111.616 12.4523 114C15.1553 112.858 21.0896 111.564 19.8258 107.54Z" fill="#EDEDED" stroke="#D2D2D2"/>
<path d="M19.8258 112.54L19.3387 111L14.2689 113.133C11.4978 114.302 11.7778 116.616 12.4523 119C15.1553 117.858 21.0896 116.564 19.8258 112.54Z" fill="#EDEDED" stroke="#D2D2D2"/>
<path d="M19.8258 117.54L19.3387 116L14.2689 118.133C11.4978 119.302 11.7778 121.616 12.4523 124C15.1553 122.858 21.0896 121.564 19.8258 117.54Z" fill="#EDEDED" stroke="#D2D2D2"/>
<path d="M19.8258 122.54L19.3387 121L14.2689 123.133C11.4978 124.302 11.7778 126.616 12.4523 129C15.1553 127.858 21.0896 126.564 19.8258 122.54Z" fill="#EDEDED" stroke="#D2D2D2"/>
<path d="M19.8258 127.54L19.3387 126L14.2689 128.133C11.4978 129.302 11.7778 131.616 12.4523 134C15.1553 132.858 21.0896 131.564 19.8258 127.54Z" fill="#EDEDED" stroke="#D2D2D2"/>
<path d="M19.8258 132.54L19.3387 131L14.2689 133.133C11.4978 134.302 11.7778 136.616 12.4523 139C15.1553 137.858 21.0896 136.564 19.8258 132.54Z" fill="#EDEDED" stroke="#D2D2D2"/>
<path d="M19.8258 137.54L19.3387 136L14.2689 138.133C11.4978 139.302 11.7778 141.616 12.4523 144C15.1553 142.858 21.0896 141.564 19.8258 137.54Z" fill="#EDEDED" stroke="#D2D2D2"/>
<path d="M19.8258 142.54L19.3387 141L14.2689 143.133C11.4978 144.302 11.7778 146.616 12.4523 149C15.1553 147.858 21.0896 146.564 19.8258 142.54Z" fill="#EDEDED" stroke="#D2D2D2"/>
<path d="M19.8258 147.54L19.3387 146L14.2689 148.133C11.4978 149.302 11.7778 151.616 12.4523 154C15.1553 152.858 21.0896 151.564 19.8258 147.54Z" fill="#EDEDED" stroke="#D2D2D2"/>
<path d="M19.8258 152.54L19.3387 151L14.2689 153.133C11.4978 154.302 11.7778 156.616 12.4523 159C15.1553 157.858 21.0896 156.564 19.8258 152.54Z" fill="#EDEDED" stroke="#D2D2D2"/>
<path d="M19.8258 157.54L19.3387 156L14.2689 158.133C11.4978 159.302 11.7778 161.616 12.4523 164C15.1553 162.858 21.0896 161.564 19.8258 157.54Z" fill="#EDEDED" stroke="#D2D2D2"/>
<path d="M19.8258 162.54L19.3387 161L14.2689 163.133C11.4978 164.302 11.7778 166.616 12.4523 169C15.1553 167.858 21.0896 166.564 19.8258 162.54Z" fill="#EDEDED" stroke="#D2D2D2"/>
<path d="M19.8258 167.54L19.3387 166L14.2689 168.133C11.4978 169.302 11.7778 171.616 12.4523 174C15.1553 172.858 21.0896 171.564 19.8258 167.54Z" fill="#EDEDED" stroke="#D2D2D2"/>
<path d="M19.8258 172.54L19.3387 171L14.2689 173.133C11.4978 174.302 11.7778 176.616 12.4523 179C15.1553 177.858 21.0896 176.564 19.8258 172.54Z" fill="#EDEDED" stroke="#D2D2D2"/>
<path d="M19.8258 177.54L19.3387 176L14.2689 178.133C11.4978 179.302 11.7778 181.616 12.4523 184C15.1553 182.858 21.0896 181.564 19.8258 177.54Z" fill="#EDEDED" stroke="#D2D2D2"/>
<path d="M19.8258 182.54L19.3387 181L14.2689 183.133C11.4978 184.302 11.7778 186.616 12.4523 189C15.1553 187.858 21.0896 186.564 19.8258 182.54Z" fill="#EDEDED" stroke="#D2D2D2"/>
<path d="M19.8258 187.54L19.3387 186L14.2689 188.133C11.4978 189.302 11.7778 191.616 12.4523 194C15.1553 192.858 21.0896 191.564 19.8258 187.54Z" fill="#EDEDED" stroke="#D2D2D2"/>
<path d="M19.8258 192.54L19.3387 191L14.2689 193.133C11.4978 194.302 11.7778 196.616 12.4523 199C15.1553 197.858 21.0896 196.564 19.8258 192.54Z" fill="#EDEDED" stroke="#D2D2D2"/>
<path d="M19.8258 197.54L19.3387 196L14.2689 198.133C11.4978 199.302 11.7778 201.616 12.4523 204C15.1553 202.858 21.0896 201.564 19.8258 197.54Z" fill="#EDEDED" stroke="#D2D2D2"/>
<path d="M19.8258 202.54L19.3387 201L14.2689 203.133C11.4978 204.302 11.7778 206.616 12.4523 209C15.1553 207.858 21.0896 206.564 19.8258 202.54Z" fill="#EDEDED" stroke="#D2D2D2"/>
<path d="M19.8258 207.54L19.3387 206L14.2689 208.133C11.4978 209.302 11.7778 211.616 12.4523 214C15.1553 212.858 21.0896 211.564 19.8258 207.54Z" fill="#EDEDED" stroke="#D2D2D2"/>
<path d="M19.8258 212.54L19.3387 211L14.2689 213.133C11.4978 214.302 11.7778 216.616 12.4523 219C15.1553 217.858 21.0896 216.564 19.8258 212.54Z" fill="#EDEDED" stroke="#D2D2D2"/>
<path d="M19.8258 217.54L19.3387 216L14.2689 218.133C11.4978 219.302 11.7778 221.616 12.4523 224C15.1553 222.858 21.0896 221.564 19.8258 217.54Z" fill="#EDEDED" stroke="#D2D2D2"/>
<path d="M19.8258 222.54L19.3387 221L14.2689 223.133C11.4978 224.302 11.7778 226.616 12.4523 229C15.1553 227.858 21.0896 226.564 19.8258 222.54Z" fill="#EDEDED" stroke="#D2D2D2"/>
<path d="M19.8258 227.54L19.3387 226L14.2689 228.133C11.4978 229.302 11.7778 231.616 12.4523 234C15.1553 232.858 21.0896 231.564 19.8258 227.54Z" fill="#EDEDED" stroke="#D2D2D2"/>
<path d="M19.8258 232.54L19.3387 231L14.2689 233.133C11.4978 234.302 11.7778 236.616 12.4523 239C15.1553 237.858 21.0896 236.564 19.8258 232.54Z" fill="#EDEDED" stroke="#D2D2D2"/>
<path d="M19.8258 237.54L19.3387 236L14.2689 238.133C11.4978 239.302 11.7778 241.616 12.4523 244C15.1553 242.858 21.0896 241.564 19.8258 237.54Z" fill="#EDEDED" stroke="#D2D2D2"/>
<path d="M19.8258 242.54L19.3387 241L14.2689 243.133C11.4978 244.302 11.7778 246.616 12.4523 249C15.1553 247.858 21.0896 246.564 19.8258 242.54Z" fill="#EDEDED" stroke="#D2D2D2"/>
<path d="M19.8258 247.54L19.3387 246L14.2689 248.133C11.4978 249.302 11.7778 251.616 12.4523 254C15.1553 252.858 21.0896 251.564 19.8258 247.54Z" fill="#EDEDED" stroke="#D2D2D2"/>
<path d="M19.8258 252.54L19.3387 251L14.2689 253.133C11.4978 254.302 11.7778 256.616 12.4523 259C15.1553 257.858 21.0896 256.564 19.8258 252.54Z" fill="#EDEDED" stroke="#D2D2D2"/>
<path d="M19.8258 257.54L19.3387 256L14.2689 258.133C11.4978 259.302 11.7778 261.616 12.4523 264C15.1553 262.858 21.0896 261.564 19.8258 257.54Z" fill="#EDEDED" stroke="#D2D2D2"/>
<path d="M19.8258 262.54L19.3387 261L14.2689 263.133C11.4978 264.302 11.7778 266.616 12.4523 269C15.1553 267.858 21.0896 266.564 19.8258 262.54Z" fill="#EDEDED" stroke="#D2D2D2"/>
<path d="M19.8258 267.54L19.3387 266L14.2689 268.133C11.4978 269.302 11.7778 271.616 12.4523 274C15.1553 272.858 21.0896 271.564 19.8258 267.54Z" fill="#EDEDED" stroke="#D2D2D2"/>
<path d="M19.8258 272.54L19.3387 271L14.2689 273.133C11.4978 274.302 11.7778 276.616 12.4523 279C15.1553 277.858 21.0896 276.564 19.8258 272.54Z" fill="#EDEDED" stroke="#D2D2D2"/>
<path d="M19.8258 277.54L19.3387 276L14.2689 278.133C11.4978 279.302 11.7778 281.616 12.4523 284C15.1553 282.858 21.0896 281.564 19.8258 277.54Z" fill="#EDEDED" stroke="#D2D2D2"/>
<path d="M19.8258 282.54L19.3387 281L14.2689 283.133C11.4978 284.302 11.7778 286.616 12.4523 289C15.1553 287.858 21.0896 286.564 19.8258 282.54Z" fill="#EDEDED" stroke="#D2D2D2"/>
<path d="M19.8258 287.54L19.3387 286L14.2689 288.133C11.4978 289.302 11.7778 291.616 12.4523 294C15.1553 292.858 21.0896 291.564 19.8258 287.54Z" fill="#EDEDED" stroke="#D2D2D2"/>
<path d="M19.8258 292.54L19.3387 291L14.2689 293.133C11.4978 294.302 11.7778 296.616 12.4523 299C15.1553 297.858 21.0896 296.564 19.8258 292.54Z" fill="#EDEDED" stroke="#D2D2D2"/>
<path d="M19.8258 297.54L19.3387 296L14.2689 298.133C11.4978 299.302 11.7778 301.616 12.4523 304C15.1553 302.858 21.0896 301.564 19.8258 297.54Z" fill="#EDEDED" stroke="#D2D2D2"/>
<path d="M19.8258 302.54L19.3387 301L14.2689 303.133C11.4978 304.302 11.7778 306.616 12.4523 309C15.1553 307.858 21.0896 306.564 19.8258 302.54Z" fill="#EDEDED" stroke="#D2D2D2"/>
<path d="M19.8258 307.54L19.3387 306L14.2689 308.133C11.4978 309.302 11.7778 311.616 12.4523 314C15.1553 312.858 21.0896 311.564 19.8258 307.54Z" fill="#EDEDED" stroke="#D2D2D2"/>
<path d="M19.8258 312.54L19.3387 311L14.2689 313.133C11.4978 314.302 11.7778 316.616 12.4523 319C15.1553 317.858 21.0896 316.564 19.8258 312.54Z" fill="#EDEDED" stroke="#D2D2D2"/>
<path d="M19.8258 317.54L19.3387 316L14.2689 318.133C11.4978 319.302 11.7778 321.616 12.4523 324C15.1553 322.858 21.0896 321.564 19.8258 317.54Z" fill="#EDEDED" stroke="#D2D2D2"/>
<path d="M19.8258 322.54L19.3387 321L14.2689 323.133C11.4978 324.302 11.7778 326.616 12.4523 329C15.1553 327.858 21.0896 326.564 19.8258 322.54Z" fill="#EDEDED" stroke="#D2D2D2"/>
<path d="M19.8258 327.54L19.3387 326L14.2689 328.133C11.4978 329.302 11.7778 331.616 12.4523 334C15.1553 332.858 21.0896 331.564 19.8258 327.54Z" fill="#EDEDED" stroke="#D2D2D2"/>
<path d="M19.8258 332.54L19.3387 331L14.2689 333.133C11.4978 334.302 11.7778 336.616 12.4523 339C15.1553 337.858 21.0896 336.564 19.8258 332.54Z" fill="#EDEDED" stroke="#D2D2D2"/>
</svg>
