<svg width="18" height="56" viewBox="0 0 18 56" fill="none" xmlns="http://www.w3.org/2000/svg">
<path d="M11.2339 9.93556C12.1888 10.2519 13.1213 10.66 13.87 11.0522C14.6187 11.4445 15.0684 11.7798 15.0684 11.7798C15.2719 11.204 15.2565 10.5001 15.0691 9.85952C13.631 3.71787 5.91536 4.76634 4.09315 8.30649C3.85459 8.76996 3.74161 9.10371 3.74161 9.10371C4.79059 9.80283 6.50432 11.268 7.07898 11.3487C7.37788 11.4056 7.58416 11.3297 7.82483 11.2411C8.96908 10.4023 9.51221 9.36524 11.2339 9.93556Z" fill="#EDEDED" stroke="#D2D2D2"/>
<path d="M15.7129 16.7804C18.0643 14.8647 18.0249 11.9334 15.7127 9.0376C13.4006 6.14177 8.55581 7.91987 6.9729 12.9696C8.08283 15.808 14.676 14.3465 15.7129 16.7804Z" fill="#EDEDED" stroke="#D2D2D2"/>
<path d="M6.18397 7.51698C6.22797 7.11132 6.27196 6.74623 6.31596 6.50283C6.40396 6.25943 6.40397 6.09717 6.40397 6.09717C5.47997 6.1783 4.59997 6.62451 3.85197 7.19243C0.130572 10.2198 2.08269 14.4581 5.47998 16.766C6.31598 17.334 7.19596 17.6585 7.85596 17.8207C8.16396 17.9019 8.47198 17.9425 8.64798 17.983C8.82398 18.0236 8.95596 18.0236 8.95596 18.0236C11.2473 14.1235 5.96246 11.6014 6.18397 7.51698Z" fill="#EDEDED" stroke="#D2D2D2"/>
<path d="M8.23207 14.6759C8.23207 14.6759 8.10006 14.6759 7.92406 14.6311C7.74806 14.5864 7.48407 14.5416 7.13207 14.452C6.47207 14.2728 5.59206 13.8698 4.75606 13.2876C3.92006 12.7054 3.17206 11.8992 2.64406 11.2274C2.11606 10.5556 1.80805 10.063 1.80805 10.063C1.23605 10.6452 0.840062 11.4066 0.664062 12.2575C0.444062 13.1084 0.444052 14.0937 0.708051 15.079C0.928052 16.0195 1.41207 16.96 2.07207 17.6766C2.73207 18.3931 3.52406 18.8858 4.31606 19.1097C4.31606 19.1097 4.44807 19.1545 4.71207 19.1993C4.97607 19.2441 5.32805 19.3336 5.76805 19.3784C6.64805 19.468 7.74805 19.4232 8.76005 19.1545C9.77205 18.8858 10.5201 18.3484 11.0041 17.8557C11.2241 17.6318 11.4001 17.4079 11.4881 17.2735C11.5761 17.1391 11.6641 17.0496 11.6641 17.0496C11.1361 15.9747 11.0921 15.4373 10.6521 15.1238C10.1681 14.8998 9.42007 14.8103 8.23207 14.6759Z" fill="#EDEDED" stroke="#D2D2D2"/>
<path d="M8.68632 15.5544C8.68632 15.5544 8.61864 15.6271 8.45397 15.7166C8.33141 15.8191 8.08629 16.0242 7.82463 16.1305C7.26296 16.4717 6.3517 16.7517 5.30666 16.7094C4.29092 16.723 3.19629 16.3846 2.37985 16.0386C1.97163 15.8655 1.66042 15.6757 1.4206 15.5548C1.18078 15.4338 1.06726 15.3519 1.06726 15.3519C0.866392 16.1791 0.905334 17.1273 1.26456 18.0809C1.58169 19.0214 2.21911 19.9674 3.11444 20.6654C3.55571 21.0359 4.02255 21.3207 4.55708 21.5327C4.79689 21.6537 5.04949 21.7318 5.3021 21.8098C5.5547 21.8879 5.82008 21.9232 6.08548 21.9585C6.61626 22.0289 7.08842 21.9877 7.56058 21.9465C8.00343 21.8493 8.45907 21.7093 8.84329 21.5005C8.84329 21.5005 8.96585 21.398 9.22751 21.2917C9.44706 21.1723 9.74708 20.9374 10.102 20.6727C10.7697 20.1302 11.5141 19.3307 12.0609 18.4232C12.6076 17.5156 12.9603 16.6418 13.1649 15.9561C13.2672 15.6133 13.3147 15.3003 13.3658 15.1289C13.3749 14.9445 13.4132 14.8159 13.4132 14.8159C12.2856 14.2801 11.3887 14.0496 10.7097 14.1673C9.9887 14.272 9.52775 14.738 8.68632 15.5544Z" fill="#EDEDED" stroke="#D2D2D2"/>
<path d="M9.38508 14.222C9.38497 15.5424 9.50757 16.8192 9.15297 18.1426C8.88897 19.1726 8.40498 20.1579 7.92098 20.8745C7.65698 21.2328 7.43698 21.5463 7.26098 21.7254C7.08498 21.9046 6.95297 22.0389 6.95297 22.0389C7.74497 22.442 8.66897 22.5316 9.59297 22.442C10.517 22.3076 11.441 21.9942 12.189 21.4567C15.9847 18.8074 14.5884 14.7177 12.6519 12.6933C11.0961 11.8023 9.80457 12.4962 9.38508 14.222Z" fill="#EDEDED" stroke="#D2D2D2"/>
<path d="M13.4585 20.8363C17.1139 19.8028 17.6235 14.3751 14.6235 12.4999C11.6236 10.6247 9.37354 12.8748 9.3746 13.735C13.1255 14.4466 14.623 16.25 13.4585 20.8363Z" fill="#EDEDED" stroke="#D2D2D2"/>
</svg>
