<svg width="60" height="432" viewBox="0 0 60 432" fill="none" xmlns="http://www.w3.org/2000/svg">
<path d="M35.2604 3.11741L34.5908 1L27.6198 3.93356C23.8095 5.53963 24.1945 8.72229 25.1219 12C28.8385 10.43 36.9981 8.65019 35.2604 3.11741Z" fill="#994DC5" stroke="#762CA2"/>
<path d="M35.2604 10.1174L34.5908 8L27.6198 10.9336C23.8095 12.5396 24.1945 15.7223 25.1219 19C28.8385 17.43 36.9981 15.6502 35.2604 10.1174Z" fill="#994DC5" stroke="#762CA2"/>
<path d="M35.2604 17.1174L34.5908 15L27.6198 17.9336C23.8095 19.5396 24.1945 22.7223 25.1219 26C28.8385 24.43 36.9981 22.6502 35.2604 17.1174Z" fill="#994DC5" stroke="#762CA2"/>
<path d="M35.2604 24.1174L34.5908 22L27.6198 24.9336C23.8095 26.5396 24.1945 29.7223 25.1219 33C28.8385 31.43 36.9981 29.6502 35.2604 24.1174Z" fill="#994DC5" stroke="#762CA2"/>
<path d="M35.2604 31.1174L34.5908 29L27.6198 31.9336C23.8095 33.5396 24.1945 36.7223 25.1219 40C28.8385 38.43 36.9981 36.6502 35.2604 31.1174Z" fill="#994DC5" stroke="#762CA2"/>
<path d="M35.2604 38.1174L34.5908 36L27.6198 38.9336C23.8095 40.5396 24.1945 43.7223 25.1219 47C28.8385 45.43 36.9981 43.6502 35.2604 38.1174Z" fill="#994DC5" stroke="#762CA2"/>
<path d="M35.2604 45.1174L34.5908 43L27.6198 45.9336C23.8095 47.5396 24.1945 50.7223 25.1219 54C28.8385 52.43 36.9981 50.6502 35.2604 45.1174Z" fill="#994DC5" stroke="#762CA2"/>
<path d="M35.3182 102.458C34.9386 101.488 34.0952 100.518 32.9987 99.9278C31.9023 99.2952 30.6371 99 29.4142 99C23.8927 99.0952 21.8358 105.405 23.3415 109.922C23.468 110.302 23.5945 110.597 23.6789 110.808C23.7632 111.019 23.8053 111.145 23.8053 111.145C25.197 110.935 26.1669 110.681 26.7573 110.175C30.2803 107.533 29.7178 102.458 35.3182 102.458Z" fill="#994DC5" stroke="#762CA2"/>
<path d="M40.0368 106.48C39.9718 105.44 39.4651 104.259 38.6015 103.362C37.7508 102.424 36.6364 101.757 35.4719 101.383C30.4164 99.856 25.4113 104.95 27.2282 109.815C35.2485 112.804 34.8711 104.822 40.0368 106.48Z" fill="#994DC5" stroke="#762CA2"/>
<path d="M23.6759 103.048C23.7603 102.88 23.8446 102.711 23.8868 102.542C24.0133 102.289 24.0976 102.121 24.0976 102.121C23.1699 101.952 22.1156 102.078 21.1456 102.5C20.1757 102.88 19.2479 103.554 18.5732 104.356C15.5273 108.163 17.5819 113.291 21.1878 115.995C21.3565 116.122 21.5674 116.248 21.7361 116.375C22.0734 116.585 22.3264 116.754 22.5373 116.838C22.7481 116.923 22.8747 116.965 22.8747 116.965C23.8446 115.953 24.3928 115.194 24.5615 114.308C25.1374 110.469 22.5932 107.379 23.6759 103.048Z" fill="#994DC5" stroke="#762CA2"/>
<path d="M34.8528 109.796C34.8528 109.796 34.9792 109.754 35.1901 109.669C35.401 109.585 35.6962 109.501 36.0757 109.458C36.8348 109.29 37.9313 109.29 39.0699 109.501C40.2085 109.711 41.3893 110.175 42.2328 110.597C42.6545 110.808 42.9919 111.019 43.2449 111.187C43.4979 111.356 43.6244 111.44 43.6244 111.44C43.9618 110.555 44.0039 109.543 43.7931 108.531C43.5822 107.519 43.0762 106.464 42.3592 105.621C41.6423 104.735 40.7146 104.06 39.7025 103.639C38.6904 103.217 37.5939 103.091 36.6239 103.259C36.6239 103.259 36.4553 103.301 36.1601 103.344C35.8649 103.428 35.4431 103.512 34.9792 103.723C34.5154 103.892 33.9671 104.145 33.4611 104.482C32.955 104.82 32.4912 105.199 32.0695 105.621C31.2682 106.464 30.8886 107.476 30.7621 108.193C30.7199 108.573 30.7199 108.826 30.7621 109.037C30.8043 109.248 30.8043 109.332 30.8043 109.332C31.8164 110.049 32.196 110.597 32.4912 110.597C32.6177 110.597 32.9129 110.513 33.2502 110.344C33.8406 110.218 34.3467 110.007 34.8528 109.796Z" fill="#994DC5" stroke="#762CA2"/>
<path d="M35.4596 94.1174L34.79 92L27.819 94.9336C24.0087 96.5396 24.3937 99.7223 25.3212 103C29.0377 101.43 37.1974 99.6502 35.4596 94.1174Z" fill="#994DC5" stroke="#762CA2"/>
<path d="M35.4596 101.117L34.79 99L27.819 101.934C24.0087 103.54 24.3937 106.722 25.3212 110C29.0377 108.43 37.1974 106.65 35.4596 101.117Z" fill="#994DC5" stroke="#762CA2"/>
<path d="M35.4596 108.117L34.79 106L27.819 108.934C24.0087 110.54 24.3937 113.722 25.3212 117C29.0377 115.43 37.1974 113.65 35.4596 108.117Z" fill="#994DC5" stroke="#762CA2"/>
<path d="M35.4596 115.117L34.79 113L27.819 115.934C24.0087 117.54 24.3937 120.722 25.3212 124C29.0377 122.43 37.1974 120.65 35.4596 115.117Z" fill="#994DC5" stroke="#762CA2"/>
<path d="M35.4596 122.117L34.79 120L27.819 122.934C24.0087 124.54 24.3937 127.722 25.3212 131C29.0377 129.43 37.1974 127.65 35.4596 122.117Z" fill="#994DC5" stroke="#762CA2"/>
<path d="M35.4596 129.117L34.79 127L27.819 129.934C24.0087 131.54 24.3937 134.722 25.3212 138C29.0377 136.43 37.1974 134.65 35.4596 129.117Z" fill="#994DC5" stroke="#762CA2"/>
<path d="M17.3091 110.428C17.2247 110.133 17.1826 110.007 17.1826 110.007C15.58 110.934 14.4836 112.917 14.4414 115.067C14.4414 120.277 20.0414 123.144 24.7734 121.899C25.153 121.815 25.4481 121.73 25.659 121.646C25.8699 121.562 25.9964 121.52 25.9964 121.52C25.7106 116.662 18.7865 115.599 17.3091 110.428Z" fill="#994DC5" stroke="#762CA2"/>
<path d="M25.9981 121.478C25.9981 121.478 25.8715 121.52 25.6607 121.604C25.4498 121.688 25.1546 121.773 24.7751 121.857C24.016 122.026 22.9196 122.152 21.7388 122.068C21.1484 122.026 20.6001 121.899 20.0097 121.731C19.4615 121.562 18.9554 121.351 18.4915 121.182C18.0698 120.972 17.6903 120.761 17.4373 120.634C17.1842 120.466 17.0155 120.381 17.0155 120.381C16.889 120.845 16.8469 121.309 16.8047 121.815C16.8047 122.321 16.889 122.827 17.0577 123.375C17.1842 123.881 17.4372 124.387 17.6903 124.851C17.9433 125.315 18.3229 125.737 18.7024 126.159C19.0819 126.538 19.5037 126.876 19.9675 127.171C20.4314 127.466 20.8953 127.677 21.4014 127.846C21.9074 128.014 22.3713 128.099 22.8774 128.141C23.3834 128.183 23.8474 128.099 24.2691 128.014C24.2691 128.014 24.4378 127.972 24.6908 127.888C24.986 127.803 25.3655 127.677 25.8294 127.55C26.715 127.213 27.8536 126.665 28.7814 125.99C29.2453 125.653 29.667 125.273 30.0465 124.936C30.4261 124.556 30.7213 124.219 30.9321 123.881C31.396 123.207 31.6069 122.785 31.6069 122.785C30.6791 121.731 29.9622 121.14 29.1188 120.972C28.2754 120.803 27.3054 120.972 25.9981 121.478Z" fill="#994DC5" stroke="#762CA2"/>
<path d="M31.6054 122.827C31.6054 122.827 31.3945 123.249 30.9306 123.924C30.6776 124.219 30.3824 124.598 30.045 124.978C29.6655 125.315 29.2438 125.695 28.7799 126.032C27.8521 126.707 26.7135 127.255 25.8279 127.592C25.364 127.761 24.9845 127.888 24.6893 127.93C24.3941 128.014 24.2676 128.014 24.2676 128.014C24.4784 128.436 24.7736 128.815 25.0688 129.153C25.4062 129.532 25.7857 129.828 26.2075 130.081C26.6292 130.376 27.093 130.587 27.5991 130.755C28.1051 130.924 28.6112 131.008 29.1595 131.093C30.2137 131.177 31.3524 131.008 32.3223 130.629C33.2923 130.207 34.1357 129.617 34.6839 128.815C34.6839 128.815 34.7682 128.689 34.9369 128.436C35.1056 128.225 35.3165 127.803 35.5273 127.382C35.9912 126.538 36.4129 125.315 36.5816 124.177C36.7503 123.038 36.7081 121.941 36.5395 121.14C36.4551 120.761 36.3708 120.423 36.3286 120.212C36.2443 120.002 36.2021 119.875 36.2021 119.875C34.8104 119.875 33.8405 119.959 33.2079 120.381C33.0392 120.465 32.9127 120.592 32.744 120.761C32.6175 120.887 32.491 121.056 32.3645 121.267C32.238 121.435 32.1114 121.688 31.9849 121.941C31.9006 122.237 31.7741 122.49 31.6054 122.827Z" fill="#994DC5" stroke="#762CA2"/>
<path d="M36.2838 119.959C36.2838 119.959 36.326 120.086 36.4103 120.297C36.4525 120.507 36.5368 120.803 36.6212 121.224C36.7477 121.983 36.832 123.08 36.6633 124.261C36.4947 125.399 36.0729 126.622 35.6091 127.466C35.3982 127.887 35.1452 128.267 35.0187 128.52C34.85 128.773 34.7656 128.9 34.7656 128.9C34.9765 128.984 35.2295 129.068 35.4826 129.11C35.7356 129.153 35.9886 129.153 36.2416 129.195C36.4947 129.195 36.7477 129.195 37.0429 129.195C37.2959 129.153 37.549 129.11 37.802 129.068C38.8141 128.815 39.8262 128.309 40.6696 127.592C41.5131 126.875 42.1456 125.948 42.5252 125.02C42.9047 124.05 43.0313 123.038 42.8626 122.11C42.8626 122.11 42.8204 121.941 42.7782 121.646C42.736 121.351 42.6095 120.971 42.483 120.507C42.1878 119.58 41.6818 118.441 41.007 117.471C40.3323 116.501 39.4889 115.784 38.8563 115.32C38.5189 115.11 38.2659 114.941 38.055 114.814C37.8442 114.688 37.7598 114.646 37.7598 114.646C36.7477 115.616 36.1573 116.332 35.9886 117.049C35.6512 117.682 35.8621 118.61 36.2838 119.959Z" fill="#994DC5" stroke="#762CA2"/>
<path d="M42.6539 121.562C42.6961 121.857 42.7382 122.026 42.7382 122.026C43.5816 121.646 44.3408 120.929 44.9312 120.044C45.5216 119.158 45.8589 118.062 45.9432 116.965C46.0276 115.869 45.8589 114.73 45.4372 113.802C43.6832 109.768 41.1944 108.359 35.9288 109.392C34.8622 111.353 34.81 112.115 35.1895 112.79C37.4786 116.351 41.75 116.138 42.6539 121.562Z" fill="#994DC5" stroke="#762CA2"/>
<path d="M35.3182 81.4581C34.9386 80.4881 34.0952 79.5182 32.9987 78.9278C31.9023 78.2952 30.6371 78 29.4142 78C23.8927 78.0952 21.8358 84.4055 23.3415 88.9224C23.468 89.302 23.5945 89.5971 23.6789 89.808C23.7632 90.0189 23.8053 90.1454 23.8053 90.1454C25.197 89.9345 26.1669 89.6815 26.7573 89.1754C30.2803 86.5332 29.7178 81.4581 35.3182 81.4581Z" fill="#994DC5" stroke="#762CA2"/>
<path d="M40.0368 85.4796C39.9718 84.4401 39.4651 83.2588 38.6015 82.3616C37.7508 81.4242 36.6364 80.7565 35.4719 80.3828C30.4164 78.856 25.4113 83.9501 27.2282 88.8154C35.2485 91.8043 34.8711 83.8218 40.0368 85.4796Z" fill="#994DC5" stroke="#762CA2"/>
<path d="M23.6759 82.0483C23.7603 81.8797 23.8446 81.711 23.8868 81.5423C24.0133 81.2893 24.0976 81.1206 24.0976 81.1206C23.1699 80.9519 22.1156 81.0784 21.1456 81.5001C20.1757 81.8797 19.2479 82.5544 18.5732 83.3557C15.5273 87.1631 17.5819 92.2906 21.1878 94.995C21.3565 95.1215 21.5674 95.248 21.7361 95.3745C22.0734 95.5854 22.3264 95.7541 22.5373 95.8384C22.7481 95.9228 22.8747 95.9649 22.8747 95.9649C23.8446 94.9528 24.3928 94.1937 24.5615 93.3081C25.1374 89.4687 22.5932 86.3793 23.6759 82.0483Z" fill="#994DC5" stroke="#762CA2"/>
<path d="M34.8528 88.7958C34.8528 88.7958 34.9792 88.7537 35.1901 88.6693C35.401 88.585 35.6962 88.5006 36.0757 88.4585C36.8348 88.2898 37.9313 88.2898 39.0699 88.5006C40.2085 88.7115 41.3893 89.1754 42.2328 89.5971C42.6545 89.8079 42.9919 90.0188 43.2449 90.1875C43.4979 90.3562 43.6244 90.4405 43.6244 90.4405C43.9618 89.5549 44.0039 88.5428 43.7931 87.5307C43.5822 86.5186 43.0762 85.4643 42.3592 84.6208C41.6423 83.7352 40.7146 83.0605 39.7025 82.6388C38.6904 82.2171 37.5939 82.0906 36.6239 82.2592C36.6239 82.2592 36.4553 82.3014 36.1601 82.3436C35.8649 82.4279 35.4431 82.5123 34.9792 82.7231C34.5154 82.8918 33.9671 83.1448 33.4611 83.4822C32.955 83.8196 32.4912 84.1991 32.0695 84.6208C31.2682 85.4643 30.8886 86.4764 30.7621 87.1933C30.7199 87.5729 30.7199 87.8259 30.7621 88.0367C30.8043 88.2476 30.8043 88.3319 30.8043 88.3319C31.8164 89.0488 32.196 89.5971 32.4912 89.5971C32.6177 89.5971 32.9129 89.5127 33.2502 89.344C33.8406 89.2175 34.3467 89.0067 34.8528 88.7958Z" fill="#994DC5" stroke="#762CA2"/>
<path d="M35.4596 73.1174L34.79 71L27.819 73.9336C24.0087 75.5396 24.3937 78.7223 25.3212 82C29.0377 80.43 37.1974 78.6502 35.4596 73.1174Z" fill="#994DC5" stroke="#762CA2"/>
<path d="M35.4596 80.1174L34.79 78L27.819 80.9336C24.0087 82.5396 24.3937 85.7223 25.3212 89C29.0377 87.43 37.1974 85.6502 35.4596 80.1174Z" fill="#994DC5" stroke="#762CA2"/>
<path d="M35.4596 87.1174L34.79 85L27.819 87.9336C24.0087 89.5396 24.3937 92.7223 25.3212 96C29.0377 94.43 37.1974 92.6502 35.4596 87.1174Z" fill="#994DC5" stroke="#762CA2"/>
<path d="M35.4596 94.1174L34.79 92L27.819 94.9336C24.0087 96.5396 24.3937 99.7223 25.3212 103C29.0377 101.43 37.1974 99.6502 35.4596 94.1174Z" fill="#994DC5" stroke="#762CA2"/>
<path d="M35.4596 101.117L34.79 99L27.819 101.934C24.0087 103.54 24.3937 106.722 25.3212 110C29.0377 108.43 37.1974 106.65 35.4596 101.117Z" fill="#994DC5" stroke="#762CA2"/>
<path d="M35.4596 108.117L34.79 106L27.819 108.934C24.0087 110.54 24.3937 113.722 25.3212 117C29.0377 115.43 37.1974 113.65 35.4596 108.117Z" fill="#994DC5" stroke="#762CA2"/>
<path d="M17.3091 89.4284C17.2247 89.1332 17.1826 89.0067 17.1826 89.0067C15.58 89.9345 14.4836 91.9165 14.4414 94.0673C14.4414 99.2769 20.0414 102.144 24.7734 100.899C25.153 100.815 25.4481 100.73 25.659 100.646C25.8699 100.562 25.9964 100.52 25.9964 100.52C25.7106 95.6616 18.7865 94.5994 17.3091 89.4284Z" fill="#994DC5" stroke="#762CA2"/>
<path d="M25.9981 100.478C25.9981 100.478 25.8715 100.52 25.6607 100.604C25.4498 100.688 25.1546 100.773 24.7751 100.857C24.016 101.026 22.9196 101.152 21.7388 101.068C21.1484 101.026 20.6001 100.899 20.0097 100.731C19.4615 100.562 18.9554 100.351 18.4915 100.182C18.0698 99.9716 17.6903 99.7607 17.4373 99.6342C17.1842 99.4655 17.0155 99.3812 17.0155 99.3812C16.889 99.8451 16.8469 100.309 16.8047 100.815C16.8047 101.321 16.889 101.827 17.0577 102.375C17.1842 102.881 17.4372 103.387 17.6903 103.851C17.9433 104.315 18.3229 104.737 18.7024 105.159C19.0819 105.538 19.5037 105.876 19.9675 106.171C20.4314 106.466 20.8953 106.677 21.4014 106.846C21.9074 107.014 22.3713 107.099 22.8774 107.141C23.3834 107.183 23.8474 107.099 24.2691 107.014C24.2691 107.014 24.4378 106.972 24.6908 106.888C24.986 106.803 25.3655 106.677 25.8294 106.55C26.715 106.213 27.8536 105.665 28.7814 104.99C29.2453 104.653 29.667 104.273 30.0465 103.936C30.4261 103.556 30.7213 103.219 30.9321 102.881C31.396 102.207 31.6069 101.785 31.6069 101.785C30.6791 100.731 29.9622 100.14 29.1188 99.9716C28.2754 99.8029 27.3054 99.9716 25.9981 100.478Z" fill="#994DC5" stroke="#762CA2"/>
<path d="M31.6054 101.827C31.6054 101.827 31.3945 102.249 30.9306 102.924C30.6776 103.219 30.3824 103.598 30.045 103.978C29.6655 104.315 29.2438 104.695 28.7799 105.032C27.8521 105.707 26.7135 106.255 25.8279 106.592C25.364 106.761 24.9845 106.888 24.6893 106.93C24.3941 107.014 24.2676 107.014 24.2676 107.014C24.4784 107.436 24.7736 107.815 25.0688 108.153C25.4062 108.532 25.7857 108.828 26.2075 109.081C26.6292 109.376 27.093 109.587 27.5991 109.755C28.1051 109.924 28.6112 110.008 29.1595 110.093C30.2137 110.177 31.3524 110.008 32.3223 109.629C33.2923 109.207 34.1357 108.617 34.6839 107.815C34.6839 107.815 34.7682 107.689 34.9369 107.436C35.1056 107.225 35.3165 106.803 35.5273 106.382C35.9912 105.538 36.4129 104.315 36.5816 103.177C36.7503 102.038 36.7081 100.941 36.5395 100.14C36.4551 99.7607 36.3708 99.4233 36.3286 99.2125C36.2443 99.0016 36.2021 98.8751 36.2021 98.8751C34.8104 98.8751 33.8405 98.9594 33.2079 99.3811C33.0392 99.4655 32.9127 99.592 32.744 99.7607C32.6175 99.8872 32.491 100.056 32.3645 100.267C32.238 100.435 32.1114 100.688 31.9849 100.941C31.9006 101.237 31.7741 101.49 31.6054 101.827Z" fill="#994DC5" stroke="#762CA2"/>
<path d="M36.2838 98.9592C36.2838 98.9592 36.326 99.0857 36.4103 99.2966C36.4525 99.5074 36.5368 99.8027 36.6212 100.224C36.7477 100.983 36.832 102.08 36.6633 103.261C36.4947 104.399 36.0729 105.622 35.6091 106.466C35.3982 106.887 35.1452 107.267 35.0187 107.52C34.85 107.773 34.7656 107.9 34.7656 107.9C34.9765 107.984 35.2295 108.068 35.4826 108.11C35.7356 108.153 35.9886 108.153 36.2416 108.195C36.4947 108.195 36.7477 108.195 37.0429 108.195C37.2959 108.153 37.549 108.11 37.802 108.068C38.8141 107.815 39.8262 107.309 40.6696 106.592C41.5131 105.875 42.1456 104.948 42.5252 104.02C42.9047 103.05 43.0313 102.038 42.8626 101.11C42.8626 101.11 42.8204 100.941 42.7782 100.646C42.736 100.351 42.6095 99.9713 42.483 99.5074C42.1878 98.5797 41.6818 97.4411 41.007 96.4711C40.3323 95.5012 39.4889 94.7842 38.8563 94.3204C38.5189 94.1095 38.2659 93.9408 38.055 93.8143C37.8442 93.6878 37.7598 93.6456 37.7598 93.6456C36.7477 94.6156 36.1573 95.3325 35.9886 96.0494C35.6512 96.682 35.8621 97.6097 36.2838 98.9592Z" fill="#994DC5" stroke="#762CA2"/>
<path d="M42.6539 100.562C42.6961 100.857 42.7382 101.026 42.7382 101.026C43.5816 100.646 44.3408 99.9292 44.9312 99.0436C45.5216 98.158 45.8589 97.0615 45.9432 95.965C46.0276 94.8686 45.8589 93.73 45.4372 92.8022C43.6832 88.7679 41.1944 87.3592 35.9288 88.3917C34.8622 90.353 34.81 91.1153 35.1895 91.7901C37.4786 95.3509 41.75 95.1381 42.6539 100.562Z" fill="#994DC5" stroke="#762CA2"/>
<path d="M35.3182 60.4581C34.9386 59.4881 34.0952 58.5182 32.9987 57.9278C31.9023 57.2952 30.6371 57 29.4142 57C23.8927 57.0952 21.8358 63.4055 23.3415 67.9224C23.468 68.302 23.5945 68.5971 23.6789 68.808C23.7632 69.0189 23.8053 69.1454 23.8053 69.1454C25.197 68.9345 26.1669 68.6815 26.7573 68.1754C30.2803 65.5332 29.7178 60.4581 35.3182 60.4581Z" fill="#994DC5" stroke="#762CA2"/>
<path d="M40.0368 64.4796C39.9718 63.4401 39.4651 62.2588 38.6015 61.3616C37.7508 60.4242 36.6364 59.7565 35.4719 59.3828C30.4164 57.8559 25.4113 62.9501 27.2282 67.8154C35.2485 70.8043 34.8711 62.8217 40.0368 64.4796Z" fill="#994DC5" stroke="#762CA2"/>
<path d="M23.6759 61.0484C23.7603 60.8797 23.8446 60.711 23.8868 60.5423C24.0133 60.2893 24.0976 60.1206 24.0976 60.1206C23.1699 59.9519 22.1156 60.0784 21.1456 60.5002C20.1757 60.8797 19.2479 61.5544 18.5732 62.3557C15.5273 66.1631 17.5819 71.2906 21.1878 73.995C21.3565 74.1215 21.5674 74.248 21.7361 74.3745C22.0734 74.5854 22.3264 74.7541 22.5373 74.8384C22.7481 74.9228 22.8747 74.965 22.8747 74.965C23.8446 73.9528 24.3928 73.1938 24.5615 72.3082C25.1374 68.4687 22.5932 65.3793 23.6759 61.0484Z" fill="#994DC5" stroke="#762CA2"/>
<path d="M34.8528 67.7959C34.8528 67.7959 34.9792 67.7537 35.1901 67.6693C35.401 67.585 35.6962 67.5007 36.0757 67.4585C36.8348 67.2898 37.9313 67.2898 39.0699 67.5006C40.2085 67.7115 41.3893 68.1754 42.2328 68.5971C42.6545 68.808 42.9919 69.0188 43.2449 69.1875C43.4979 69.3562 43.6244 69.4405 43.6244 69.4405C43.9618 68.5549 44.0039 67.5428 43.7931 66.5307C43.5822 65.5186 43.0762 64.4643 42.3592 63.6209C41.6423 62.7353 40.7146 62.0605 39.7025 61.6388C38.6904 61.2171 37.5939 61.0906 36.6239 61.2593C36.6239 61.2593 36.4553 61.3015 36.1601 61.3436C35.8649 61.428 35.4431 61.5123 34.9792 61.7232C34.5154 61.8918 33.9671 62.1449 33.4611 62.4822C32.955 62.8196 32.4912 63.1992 32.0695 63.6209C31.2682 64.4643 30.8886 65.4764 30.7621 66.1933C30.7199 66.5729 30.7199 66.8259 30.7621 67.0368C30.8043 67.2476 30.8043 67.332 30.8043 67.332C31.8164 68.0489 32.196 68.5971 32.4912 68.5971C32.6177 68.5971 32.9129 68.5128 33.2502 68.3441C33.8406 68.2176 34.3467 68.0067 34.8528 67.7959Z" fill="#994DC5" stroke="#762CA2"/>
<path d="M35.4596 52.1174L34.79 50L27.819 52.9336C24.0087 54.5396 24.3937 57.7223 25.3212 61C29.0377 59.43 37.1974 57.6502 35.4596 52.1174Z" fill="#994DC5" stroke="#762CA2"/>
<path d="M35.4596 59.1174L34.79 57L27.819 59.9336C24.0087 61.5396 24.3937 64.7223 25.3212 68C29.0377 66.43 37.1974 64.6502 35.4596 59.1174Z" fill="#994DC5" stroke="#762CA2"/>
<path d="M35.4596 66.1174L34.79 64L27.819 66.9336C24.0087 68.5396 24.3937 71.7223 25.3212 75C29.0377 73.43 37.1974 71.6502 35.4596 66.1174Z" fill="#994DC5" stroke="#762CA2"/>
<path d="M35.4596 73.1174L34.79 71L27.819 73.9336C24.0087 75.5396 24.3937 78.7223 25.3212 82C29.0377 80.43 37.1974 78.6502 35.4596 73.1174Z" fill="#994DC5" stroke="#762CA2"/>
<path d="M35.4596 80.1174L34.79 78L27.819 80.9336C24.0087 82.5396 24.3937 85.7223 25.3212 89C29.0377 87.43 37.1974 85.6502 35.4596 80.1174Z" fill="#994DC5" stroke="#762CA2"/>
<path d="M35.4596 87.1174L34.79 85L27.819 87.9336C24.0087 89.5396 24.3937 92.7223 25.3212 96C29.0377 94.43 37.1974 92.6502 35.4596 87.1174Z" fill="#994DC5" stroke="#762CA2"/>
<path d="M17.3091 68.4284C17.2247 68.1332 17.1826 68.0067 17.1826 68.0067C15.58 68.9345 14.4836 70.9165 14.4414 73.0673C14.4414 78.2769 20.0414 81.1443 24.7734 79.8991C25.153 79.8147 25.4481 79.7304 25.659 79.646C25.8699 79.5617 25.9964 79.5195 25.9964 79.5195C25.7106 74.6616 18.7865 73.5994 17.3091 68.4284Z" fill="#994DC5" stroke="#762CA2"/>
<path d="M25.9981 79.4776C25.9981 79.4776 25.8715 79.5198 25.6607 79.6041C25.4498 79.6885 25.1546 79.7728 24.7751 79.8572C24.016 80.0259 22.9196 80.1524 21.7388 80.068C21.1484 80.0259 20.6001 79.8993 20.0097 79.7307C19.4615 79.562 18.9554 79.3511 18.4915 79.1824C18.0698 78.9716 17.6903 78.7607 17.4373 78.6342C17.1842 78.4655 17.0155 78.3812 17.0155 78.3812C16.889 78.8451 16.8469 79.3089 16.8047 79.815C16.8047 80.3211 16.889 80.8271 17.0577 81.3754C17.1842 81.8814 17.4372 82.3875 17.6903 82.8514C17.9433 83.3152 18.3229 83.7369 18.7024 84.1587C19.0819 84.5382 19.5037 84.8756 19.9675 85.1708C20.4314 85.466 20.8953 85.6768 21.4014 85.8455C21.9074 86.0142 22.3713 86.0985 22.8774 86.1407C23.3834 86.1829 23.8474 86.0986 24.2691 86.0142C24.2691 86.0142 24.4378 85.972 24.6908 85.8877C24.986 85.8033 25.3655 85.6768 25.8294 85.5503C26.715 85.2129 27.8536 84.6647 28.7814 83.99C29.2453 83.6526 29.667 83.273 30.0465 82.9357C30.4261 82.5561 30.7213 82.2188 30.9321 81.8814C31.396 81.2066 31.6069 80.7849 31.6069 80.7849C30.6791 79.7307 29.9622 79.1403 29.1188 78.9716C28.2754 78.8029 27.3054 78.9716 25.9981 79.4776Z" fill="#994DC5" stroke="#762CA2"/>
<path d="M31.6054 80.8271C31.6054 80.8271 31.3945 81.2488 30.9306 81.9235C30.6776 82.2187 30.3824 82.5983 30.045 82.9778C29.6655 83.3152 29.2438 83.6947 28.7799 84.0321C27.8521 84.7069 26.7135 85.2551 25.8279 85.5925C25.364 85.7611 24.9845 85.8877 24.6893 85.9298C24.3941 86.0142 24.2676 86.0142 24.2676 86.0142C24.4784 86.4359 24.7736 86.8154 25.0688 87.1528C25.4062 87.5323 25.7857 87.8275 26.2075 88.0806C26.6292 88.3758 27.093 88.5866 27.5991 88.7553C28.1051 88.924 28.6112 89.0083 29.1595 89.0927C30.2137 89.177 31.3524 89.0083 32.3223 88.6288C33.2923 88.2071 34.1357 87.6167 34.6839 86.8154C34.6839 86.8154 34.7682 86.6889 34.9369 86.4359C35.1056 86.225 35.3165 85.8033 35.5273 85.3816C35.9912 84.5382 36.4129 83.3152 36.5816 82.1766C36.7503 81.0379 36.7081 79.9415 36.5395 79.1402C36.4551 78.7607 36.3708 78.4233 36.3286 78.2125C36.2443 78.0016 36.2021 77.8751 36.2021 77.8751C34.8104 77.8751 33.8405 77.9594 33.2079 78.3811C33.0392 78.4655 32.9127 78.592 32.744 78.7607C32.6175 78.8872 32.491 79.0559 32.3645 79.2667C32.238 79.4354 32.1114 79.6884 31.9849 79.9415C31.9006 80.2367 31.7741 80.4897 31.6054 80.8271Z" fill="#994DC5" stroke="#762CA2"/>
<path d="M36.2838 77.9592C36.2838 77.9592 36.326 78.0857 36.4103 78.2966C36.4525 78.5074 36.5368 78.8027 36.6212 79.2244C36.7477 79.9835 36.832 81.0799 36.6633 82.2607C36.4947 83.3993 36.0729 84.6223 35.6091 85.4657C35.3982 85.8875 35.1452 86.267 35.0187 86.52C34.85 86.7731 34.7656 86.8996 34.7656 86.8996C34.9765 86.9839 35.2295 87.0683 35.4826 87.1104C35.7356 87.1526 35.9886 87.1526 36.2416 87.1948C36.4947 87.1948 36.7477 87.1948 37.0429 87.1948C37.2959 87.1526 37.549 87.1104 37.802 87.0683C38.8141 86.8152 39.8262 86.3092 40.6696 85.5923C41.5131 84.8754 42.1456 83.9476 42.5252 83.0198C42.9047 82.0499 43.0313 81.0378 42.8626 80.11C42.8626 80.11 42.8204 79.9413 42.7782 79.6461C42.736 79.3509 42.6095 78.9713 42.483 78.5074C42.1878 77.5797 41.6818 76.4411 41.007 75.4711C40.3323 74.5012 39.4889 73.7842 38.8563 73.3204C38.5189 73.1095 38.2659 72.9408 38.055 72.8143C37.8442 72.6878 37.7598 72.6456 37.7598 72.6456C36.7477 73.6156 36.1573 74.3325 35.9886 75.0494C35.6512 75.682 35.8621 76.6097 36.2838 77.9592Z" fill="#994DC5" stroke="#762CA2"/>
<path d="M42.6539 79.5617C42.6961 79.8569 42.7382 80.0256 42.7382 80.0256C43.5816 79.6461 44.3408 78.9292 44.9312 78.0436C45.5216 77.158 45.8589 76.0615 45.9432 74.965C46.0276 73.8686 45.8589 72.73 45.4372 71.8022C43.6832 67.7679 41.1944 66.3592 35.9288 67.3917C34.8622 69.353 34.81 70.1153 35.1895 70.7901C37.4786 74.3509 41.75 74.1381 42.6539 79.5617Z" fill="#994DC5" stroke="#762CA2"/>
<path d="M35.2604 136.117L34.5908 134L27.6198 136.934C23.8095 138.54 24.1945 141.722 25.1219 145C28.8385 143.43 36.9981 141.65 35.2604 136.117Z" fill="#994DC5" stroke="#762CA2"/>
<path d="M35.2604 143.117L34.5908 141L27.6198 143.934C23.8095 145.54 24.1945 148.722 25.1219 152C28.8385 150.43 36.9981 148.65 35.2604 143.117Z" fill="#994DC5" stroke="#762CA2"/>
<path d="M35.2604 150.117L34.5908 148L27.6198 150.934C23.8095 152.54 24.1945 155.722 25.1219 159C28.8385 157.43 36.9981 155.65 35.2604 150.117Z" fill="#994DC5" stroke="#762CA2"/>
<path d="M35.2604 157.117L34.5908 155L27.6198 157.934C23.8095 159.54 24.1945 162.722 25.1219 166C28.8385 164.43 36.9981 162.65 35.2604 157.117Z" fill="#994DC5" stroke="#762CA2"/>
<path d="M35.2604 164.117L34.5908 162L27.6198 164.934C23.8095 166.54 24.1945 169.722 25.1219 173C28.8385 171.43 36.9981 169.65 35.2604 164.117Z" fill="#994DC5" stroke="#762CA2"/>
<path d="M35.2604 171.117L34.5908 169L27.6198 171.934C23.8095 173.54 24.1945 176.722 25.1219 180C28.8385 178.43 36.9981 176.65 35.2604 171.117Z" fill="#994DC5" stroke="#762CA2"/>
<path d="M35.2604 178.117L34.5908 176L27.6198 178.934C23.8095 180.54 24.1945 183.722 25.1219 187C28.8385 185.43 36.9981 183.65 35.2604 178.117Z" fill="#994DC5" stroke="#762CA2"/>
<path d="M35.2604 185.117L34.5908 183L27.6198 185.934C23.8095 187.54 24.1945 190.722 25.1219 194C28.8385 192.43 36.9981 190.65 35.2604 185.117Z" fill="#994DC5" stroke="#762CA2"/>
<path d="M35.2604 192.117L34.5908 190L27.6198 192.934C23.8095 194.54 24.1945 197.722 25.1219 201C28.8385 199.43 36.9981 197.65 35.2604 192.117Z" fill="#994DC5" stroke="#762CA2"/>
<path d="M35.2604 199.117L34.5908 197L27.6198 199.934C23.8095 201.54 24.1945 204.722 25.1219 208C28.8385 206.43 36.9981 204.65 35.2604 199.117Z" fill="#994DC5" stroke="#762CA2"/>
<path d="M35.2604 206.117L34.5908 204L27.6198 206.934C23.8095 208.54 24.1945 211.722 25.1219 215C28.8385 213.43 36.9981 211.65 35.2604 206.117Z" fill="#994DC5" stroke="#762CA2"/>
<path d="M35.2604 213.117L34.5908 211L27.6198 213.934C23.8095 215.54 24.1945 218.722 25.1219 222C28.8385 220.43 36.9981 218.65 35.2604 213.117Z" fill="#994DC5" stroke="#762CA2"/>
<path d="M35.2604 220.117L34.5908 218L27.6198 220.934C23.8095 222.54 24.1945 225.722 25.1219 229C28.8385 227.43 36.9981 225.65 35.2604 220.117Z" fill="#994DC5" stroke="#762CA2"/>
<path d="M35.2604 227.117L34.5908 225L27.6198 227.934C23.8095 229.54 24.1945 232.722 25.1219 236C28.8385 234.43 36.9981 232.65 35.2604 227.117Z" fill="#994DC5" stroke="#762CA2"/>
<path d="M35.2604 234.117L34.5908 232L27.6198 234.934C23.8095 236.54 24.1945 239.722 25.1219 243C28.8385 241.43 36.9981 239.65 35.2604 234.117Z" fill="#994DC5" stroke="#762CA2"/>
<path d="M35.3182 291.458C34.9386 290.488 34.0952 289.518 32.9987 288.928C31.9023 288.295 30.6371 288 29.4142 288C23.8927 288.095 21.8358 294.405 23.3415 298.922C23.468 299.302 23.5945 299.597 23.6789 299.808C23.7632 300.019 23.8053 300.145 23.8053 300.145C25.197 299.935 26.1669 299.681 26.7573 299.175C30.2803 296.533 29.7178 291.458 35.3182 291.458Z" fill="#994DC5" stroke="#762CA2"/>
<path d="M40.0368 295.48C39.9718 294.44 39.4651 293.259 38.6015 292.362C37.7508 291.424 36.6364 290.757 35.4719 290.383C30.4164 288.856 25.4113 293.95 27.2282 298.815C35.2485 301.804 34.8711 293.822 40.0368 295.48Z" fill="#994DC5" stroke="#762CA2"/>
<path d="M23.6759 292.048C23.7603 291.88 23.8446 291.711 23.8868 291.542C24.0133 291.289 24.0976 291.121 24.0976 291.121C23.1699 290.952 22.1156 291.078 21.1456 291.5C20.1757 291.88 19.2479 292.554 18.5732 293.356C15.5273 297.163 17.5819 302.291 21.1878 304.995C21.3565 305.122 21.5674 305.248 21.7361 305.375C22.0734 305.585 22.3264 305.754 22.5373 305.838C22.7481 305.923 22.8747 305.965 22.8747 305.965C23.8446 304.953 24.3928 304.194 24.5615 303.308C25.1374 299.469 22.5932 296.379 23.6759 292.048Z" fill="#994DC5" stroke="#762CA2"/>
<path d="M34.8528 298.796C34.8528 298.796 34.9792 298.754 35.1901 298.669C35.401 298.585 35.6962 298.501 36.0757 298.458C36.8348 298.29 37.9313 298.29 39.0699 298.501C40.2085 298.711 41.3893 299.175 42.2328 299.597C42.6545 299.808 42.9919 300.019 43.2449 300.187C43.4979 300.356 43.6244 300.44 43.6244 300.44C43.9618 299.555 44.0039 298.543 43.7931 297.531C43.5822 296.519 43.0762 295.464 42.3592 294.621C41.6423 293.735 40.7146 293.06 39.7025 292.639C38.6904 292.217 37.5939 292.091 36.6239 292.259C36.6239 292.259 36.4553 292.301 36.1601 292.344C35.8649 292.428 35.4431 292.512 34.9792 292.723C34.5154 292.892 33.9671 293.145 33.4611 293.482C32.955 293.82 32.4912 294.199 32.0695 294.621C31.2682 295.464 30.8886 296.476 30.7621 297.193C30.7199 297.573 30.7199 297.826 30.7621 298.037C30.8043 298.248 30.8043 298.332 30.8043 298.332C31.8164 299.049 32.196 299.597 32.4912 299.597C32.6177 299.597 32.9129 299.513 33.2502 299.344C33.8406 299.218 34.3467 299.007 34.8528 298.796Z" fill="#994DC5" stroke="#762CA2"/>
<path d="M35.4596 283.117L34.79 281L27.819 283.934C24.0087 285.54 24.3937 288.722 25.3212 292C29.0377 290.43 37.1974 288.65 35.4596 283.117Z" fill="#994DC5" stroke="#762CA2"/>
<path d="M35.4596 290.117L34.79 288L27.819 290.934C24.0087 292.54 24.3937 295.722 25.3212 299C29.0377 297.43 37.1974 295.65 35.4596 290.117Z" fill="#994DC5" stroke="#762CA2"/>
<path d="M35.4596 297.117L34.79 295L27.819 297.934C24.0087 299.54 24.3937 302.722 25.3212 306C29.0377 304.43 37.1974 302.65 35.4596 297.117Z" fill="#994DC5" stroke="#762CA2"/>
<path d="M35.4596 304.117L34.79 302L27.819 304.934C24.0087 306.54 24.3937 309.722 25.3212 313C29.0377 311.43 37.1974 309.65 35.4596 304.117Z" fill="#994DC5" stroke="#762CA2"/>
<path d="M35.4596 311.117L34.79 309L27.819 311.934C24.0087 313.54 24.3937 316.722 25.3212 320C29.0377 318.43 37.1974 316.65 35.4596 311.117Z" fill="#994DC5" stroke="#762CA2"/>
<path d="M35.4596 318.117L34.79 316L27.819 318.934C24.0087 320.54 24.3937 323.722 25.3212 327C29.0377 325.43 37.1974 323.65 35.4596 318.117Z" fill="#994DC5" stroke="#762CA2"/>
<path d="M17.3091 299.428C17.2247 299.133 17.1826 299.007 17.1826 299.007C15.58 299.934 14.4836 301.917 14.4414 304.067C14.4414 309.277 20.0414 312.144 24.7734 310.899C25.153 310.815 25.4481 310.73 25.659 310.646C25.8699 310.562 25.9964 310.52 25.9964 310.52C25.7106 305.662 18.7865 304.599 17.3091 299.428Z" fill="#994DC5" stroke="#762CA2"/>
<path d="M25.9981 310.478C25.9981 310.478 25.8715 310.52 25.6607 310.604C25.4498 310.688 25.1546 310.773 24.7751 310.857C24.016 311.026 22.9196 311.152 21.7388 311.068C21.1484 311.026 20.6001 310.899 20.0097 310.731C19.4615 310.562 18.9554 310.351 18.4915 310.182C18.0698 309.972 17.6903 309.761 17.4373 309.634C17.1842 309.466 17.0155 309.381 17.0155 309.381C16.889 309.845 16.8469 310.309 16.8047 310.815C16.8047 311.321 16.889 311.827 17.0577 312.375C17.1842 312.881 17.4372 313.387 17.6903 313.851C17.9433 314.315 18.3229 314.737 18.7024 315.159C19.0819 315.538 19.5037 315.876 19.9675 316.171C20.4314 316.466 20.8953 316.677 21.4014 316.846C21.9074 317.014 22.3713 317.099 22.8774 317.141C23.3834 317.183 23.8474 317.099 24.2691 317.014C24.2691 317.014 24.4378 316.972 24.6908 316.888C24.986 316.803 25.3655 316.677 25.8294 316.55C26.715 316.213 27.8536 315.665 28.7814 314.99C29.2453 314.653 29.667 314.273 30.0465 313.936C30.4261 313.556 30.7213 313.219 30.9321 312.881C31.396 312.207 31.6069 311.785 31.6069 311.785C30.6791 310.731 29.9622 310.14 29.1188 309.972C28.2754 309.803 27.3054 309.972 25.9981 310.478Z" fill="#994DC5" stroke="#762CA2"/>
<path d="M31.6054 311.827C31.6054 311.827 31.3945 312.249 30.9306 312.924C30.6776 313.219 30.3824 313.598 30.045 313.978C29.6655 314.315 29.2438 314.695 28.7799 315.032C27.8521 315.707 26.7135 316.255 25.8279 316.592C25.364 316.761 24.9845 316.888 24.6893 316.93C24.3941 317.014 24.2676 317.014 24.2676 317.014C24.4784 317.436 24.7736 317.815 25.0688 318.153C25.4062 318.532 25.7857 318.828 26.2075 319.081C26.6292 319.376 27.093 319.587 27.5991 319.755C28.1051 319.924 28.6112 320.008 29.1595 320.093C30.2137 320.177 31.3524 320.008 32.3223 319.629C33.2923 319.207 34.1357 318.617 34.6839 317.815C34.6839 317.815 34.7682 317.689 34.9369 317.436C35.1056 317.225 35.3165 316.803 35.5273 316.382C35.9912 315.538 36.4129 314.315 36.5816 313.177C36.7503 312.038 36.7081 310.941 36.5395 310.14C36.4551 309.761 36.3708 309.423 36.3286 309.212C36.2443 309.002 36.2021 308.875 36.2021 308.875C34.8104 308.875 33.8405 308.959 33.2079 309.381C33.0392 309.465 32.9127 309.592 32.744 309.761C32.6175 309.887 32.491 310.056 32.3645 310.267C32.238 310.435 32.1114 310.688 31.9849 310.941C31.9006 311.237 31.7741 311.49 31.6054 311.827Z" fill="#994DC5" stroke="#762CA2"/>
<path d="M36.2838 308.959C36.2838 308.959 36.326 309.086 36.4103 309.297C36.4525 309.507 36.5368 309.803 36.6212 310.224C36.7477 310.983 36.832 312.08 36.6633 313.261C36.4947 314.399 36.0729 315.622 35.6091 316.466C35.3982 316.887 35.1452 317.267 35.0187 317.52C34.85 317.773 34.7656 317.9 34.7656 317.9C34.9765 317.984 35.2295 318.068 35.4826 318.11C35.7356 318.153 35.9886 318.153 36.2416 318.195C36.4947 318.195 36.7477 318.195 37.0429 318.195C37.2959 318.153 37.549 318.11 37.802 318.068C38.8141 317.815 39.8262 317.309 40.6696 316.592C41.5131 315.875 42.1456 314.948 42.5252 314.02C42.9047 313.05 43.0313 312.038 42.8626 311.11C42.8626 311.11 42.8204 310.941 42.7782 310.646C42.736 310.351 42.6095 309.971 42.483 309.507C42.1878 308.58 41.6818 307.441 41.007 306.471C40.3323 305.501 39.4889 304.784 38.8563 304.32C38.5189 304.11 38.2659 303.941 38.055 303.814C37.8442 303.688 37.7598 303.646 37.7598 303.646C36.7477 304.616 36.1573 305.332 35.9886 306.049C35.6512 306.682 35.8621 307.61 36.2838 308.959Z" fill="#994DC5" stroke="#762CA2"/>
<path d="M42.6539 310.562C42.6961 310.857 42.7382 311.026 42.7382 311.026C43.5816 310.646 44.3408 309.929 44.9312 309.044C45.5216 308.158 45.8589 307.062 45.9432 305.965C46.0276 304.869 45.8589 303.73 45.4372 302.802C43.6832 298.768 41.1944 297.359 35.9288 298.392C34.8622 300.353 34.81 301.115 35.1895 301.79C37.4786 305.351 41.75 305.138 42.6539 310.562Z" fill="#994DC5" stroke="#762CA2"/>
<path d="M35.3182 270.458C34.9386 269.488 34.0952 268.518 32.9987 267.928C31.9023 267.295 30.6371 267 29.4142 267C23.8927 267.095 21.8358 273.405 23.3415 277.922C23.468 278.302 23.5945 278.597 23.6789 278.808C23.7632 279.019 23.8053 279.145 23.8053 279.145C25.197 278.935 26.1669 278.681 26.7573 278.175C30.2803 275.533 29.7178 270.458 35.3182 270.458Z" fill="#994DC5" stroke="#762CA2"/>
<path d="M40.0368 274.48C39.9718 273.44 39.4651 272.259 38.6015 271.362C37.7508 270.424 36.6364 269.757 35.4719 269.383C30.4164 267.856 25.4113 272.95 27.2282 277.815C35.2485 280.804 34.8711 272.822 40.0368 274.48Z" fill="#994DC5" stroke="#762CA2"/>
<path d="M23.6759 271.048C23.7603 270.88 23.8446 270.711 23.8868 270.542C24.0133 270.289 24.0976 270.121 24.0976 270.121C23.1699 269.952 22.1156 270.078 21.1456 270.5C20.1757 270.88 19.2479 271.554 18.5732 272.356C15.5273 276.163 17.5819 281.291 21.1878 283.995C21.3565 284.122 21.5674 284.248 21.7361 284.375C22.0734 284.585 22.3264 284.754 22.5373 284.838C22.7481 284.923 22.8747 284.965 22.8747 284.965C23.8446 283.953 24.3928 283.194 24.5615 282.308C25.1374 278.469 22.5932 275.379 23.6759 271.048Z" fill="#994DC5" stroke="#762CA2"/>
<path d="M34.8528 277.796C34.8528 277.796 34.9792 277.754 35.1901 277.669C35.401 277.585 35.6962 277.501 36.0757 277.458C36.8348 277.29 37.9313 277.29 39.0699 277.501C40.2085 277.711 41.3893 278.175 42.2328 278.597C42.6545 278.808 42.9919 279.019 43.2449 279.187C43.4979 279.356 43.6244 279.44 43.6244 279.44C43.9618 278.555 44.0039 277.543 43.7931 276.531C43.5822 275.519 43.0762 274.464 42.3592 273.621C41.6423 272.735 40.7146 272.06 39.7025 271.639C38.6904 271.217 37.5939 271.091 36.6239 271.259C36.6239 271.259 36.4553 271.301 36.1601 271.344C35.8649 271.428 35.4431 271.512 34.9792 271.723C34.5154 271.892 33.9671 272.145 33.4611 272.482C32.955 272.82 32.4912 273.199 32.0695 273.621C31.2682 274.464 30.8886 275.476 30.7621 276.193C30.7199 276.573 30.7199 276.826 30.7621 277.037C30.8043 277.248 30.8043 277.332 30.8043 277.332C31.8164 278.049 32.196 278.597 32.4912 278.597C32.6177 278.597 32.9129 278.513 33.2502 278.344C33.8406 278.218 34.3467 278.007 34.8528 277.796Z" fill="#994DC5" stroke="#762CA2"/>
<path d="M35.4596 262.117L34.79 260L27.819 262.934C24.0087 264.54 24.3937 267.722 25.3212 271C29.0377 269.43 37.1974 267.65 35.4596 262.117Z" fill="#994DC5" stroke="#762CA2"/>
<path d="M35.4596 269.117L34.79 267L27.819 269.934C24.0087 271.54 24.3937 274.722 25.3212 278C29.0377 276.43 37.1974 274.65 35.4596 269.117Z" fill="#994DC5" stroke="#762CA2"/>
<path d="M35.4596 276.117L34.79 274L27.819 276.934C24.0087 278.54 24.3937 281.722 25.3212 285C29.0377 283.43 37.1974 281.65 35.4596 276.117Z" fill="#994DC5" stroke="#762CA2"/>
<path d="M35.4596 283.117L34.79 281L27.819 283.934C24.0087 285.54 24.3937 288.722 25.3212 292C29.0377 290.43 37.1974 288.65 35.4596 283.117Z" fill="#994DC5" stroke="#762CA2"/>
<path d="M35.4596 290.117L34.79 288L27.819 290.934C24.0087 292.54 24.3937 295.722 25.3212 299C29.0377 297.43 37.1974 295.65 35.4596 290.117Z" fill="#994DC5" stroke="#762CA2"/>
<path d="M35.4596 297.117L34.79 295L27.819 297.934C24.0087 299.54 24.3937 302.722 25.3212 306C29.0377 304.43 37.1974 302.65 35.4596 297.117Z" fill="#994DC5" stroke="#762CA2"/>
<path d="M17.3091 278.428C17.2247 278.133 17.1826 278.007 17.1826 278.007C15.58 278.934 14.4836 280.917 14.4414 283.067C14.4414 288.277 20.0414 291.144 24.7734 289.899C25.153 289.815 25.4481 289.73 25.659 289.646C25.8699 289.562 25.9964 289.52 25.9964 289.52C25.7106 284.662 18.7865 283.599 17.3091 278.428Z" fill="#994DC5" stroke="#762CA2"/>
<path d="M25.9981 289.478C25.9981 289.478 25.8715 289.52 25.6607 289.604C25.4498 289.688 25.1546 289.773 24.7751 289.857C24.016 290.026 22.9196 290.152 21.7388 290.068C21.1484 290.026 20.6001 289.899 20.0097 289.731C19.4615 289.562 18.9554 289.351 18.4915 289.182C18.0698 288.972 17.6903 288.761 17.4373 288.634C17.1842 288.466 17.0155 288.381 17.0155 288.381C16.889 288.845 16.8469 289.309 16.8047 289.815C16.8047 290.321 16.889 290.827 17.0577 291.375C17.1842 291.881 17.4372 292.387 17.6903 292.851C17.9433 293.315 18.3229 293.737 18.7024 294.159C19.0819 294.538 19.5037 294.876 19.9675 295.171C20.4314 295.466 20.8953 295.677 21.4014 295.846C21.9074 296.014 22.3713 296.099 22.8774 296.141C23.3834 296.183 23.8474 296.099 24.2691 296.014C24.2691 296.014 24.4378 295.972 24.6908 295.888C24.986 295.803 25.3655 295.677 25.8294 295.55C26.715 295.213 27.8536 294.665 28.7814 293.99C29.2453 293.653 29.667 293.273 30.0465 292.936C30.4261 292.556 30.7213 292.219 30.9321 291.881C31.396 291.207 31.6069 290.785 31.6069 290.785C30.6791 289.731 29.9622 289.14 29.1188 288.972C28.2754 288.803 27.3054 288.972 25.9981 289.478Z" fill="#994DC5" stroke="#762CA2"/>
<path d="M31.6054 290.827C31.6054 290.827 31.3945 291.249 30.9306 291.924C30.6776 292.219 30.3824 292.598 30.045 292.978C29.6655 293.315 29.2438 293.695 28.7799 294.032C27.8521 294.707 26.7135 295.255 25.8279 295.592C25.364 295.761 24.9845 295.888 24.6893 295.93C24.3941 296.014 24.2676 296.014 24.2676 296.014C24.4784 296.436 24.7736 296.815 25.0688 297.153C25.4062 297.532 25.7857 297.828 26.2075 298.081C26.6292 298.376 27.093 298.587 27.5991 298.755C28.1051 298.924 28.6112 299.008 29.1595 299.093C30.2137 299.177 31.3524 299.008 32.3223 298.629C33.2923 298.207 34.1357 297.617 34.6839 296.815C34.6839 296.815 34.7682 296.689 34.9369 296.436C35.1056 296.225 35.3165 295.803 35.5273 295.382C35.9912 294.538 36.4129 293.315 36.5816 292.177C36.7503 291.038 36.7081 289.941 36.5395 289.14C36.4551 288.761 36.3708 288.423 36.3286 288.212C36.2443 288.002 36.2021 287.875 36.2021 287.875C34.8104 287.875 33.8405 287.959 33.2079 288.381C33.0392 288.465 32.9127 288.592 32.744 288.761C32.6175 288.887 32.491 289.056 32.3645 289.267C32.238 289.435 32.1114 289.688 31.9849 289.941C31.9006 290.237 31.7741 290.49 31.6054 290.827Z" fill="#994DC5" stroke="#762CA2"/>
<path d="M36.2838 287.959C36.2838 287.959 36.326 288.086 36.4103 288.297C36.4525 288.507 36.5368 288.803 36.6212 289.224C36.7477 289.983 36.832 291.08 36.6633 292.261C36.4947 293.399 36.0729 294.622 35.6091 295.466C35.3982 295.887 35.1452 296.267 35.0187 296.52C34.85 296.773 34.7656 296.9 34.7656 296.9C34.9765 296.984 35.2295 297.068 35.4826 297.11C35.7356 297.153 35.9886 297.153 36.2416 297.195C36.4947 297.195 36.7477 297.195 37.0429 297.195C37.2959 297.153 37.549 297.11 37.802 297.068C38.8141 296.815 39.8262 296.309 40.6696 295.592C41.5131 294.875 42.1456 293.948 42.5252 293.02C42.9047 292.05 43.0313 291.038 42.8626 290.11C42.8626 290.11 42.8204 289.941 42.7782 289.646C42.736 289.351 42.6095 288.971 42.483 288.507C42.1878 287.58 41.6818 286.441 41.007 285.471C40.3323 284.501 39.4889 283.784 38.8563 283.32C38.5189 283.11 38.2659 282.941 38.055 282.814C37.8442 282.688 37.7598 282.646 37.7598 282.646C36.7477 283.616 36.1573 284.332 35.9886 285.049C35.6512 285.682 35.8621 286.61 36.2838 287.959Z" fill="#994DC5" stroke="#762CA2"/>
<path d="M42.6539 289.562C42.6961 289.857 42.7382 290.026 42.7382 290.026C43.5816 289.646 44.3408 288.929 44.9312 288.044C45.5216 287.158 45.8589 286.062 45.9432 284.965C46.0276 283.869 45.8589 282.73 45.4372 281.802C43.6832 277.768 41.1944 276.359 35.9288 277.392C34.8622 279.353 34.81 280.115 35.1895 280.79C37.4786 284.351 41.75 284.138 42.6539 289.562Z" fill="#994DC5" stroke="#762CA2"/>
<path d="M35.3182 249.458C34.9386 248.488 34.0952 247.518 32.9987 246.928C31.9023 246.295 30.6371 246 29.4142 246C23.8927 246.095 21.8358 252.405 23.3415 256.922C23.468 257.302 23.5945 257.597 23.6789 257.808C23.7632 258.019 23.8053 258.145 23.8053 258.145C25.197 257.935 26.1669 257.681 26.7573 257.175C30.2803 254.533 29.7178 249.458 35.3182 249.458Z" fill="#994DC5" stroke="#762CA2"/>
<path d="M40.0368 253.48C39.9718 252.44 39.4651 251.259 38.6015 250.362C37.7508 249.424 36.6364 248.757 35.4719 248.383C30.4164 246.856 25.4113 251.95 27.2282 256.815C35.2485 259.804 34.8711 251.822 40.0368 253.48Z" fill="#994DC5" stroke="#762CA2"/>
<path d="M23.6759 250.048C23.7603 249.88 23.8446 249.711 23.8868 249.542C24.0133 249.289 24.0976 249.121 24.0976 249.121C23.1699 248.952 22.1156 249.078 21.1456 249.5C20.1757 249.88 19.2479 250.554 18.5732 251.356C15.5273 255.163 17.5819 260.291 21.1878 262.995C21.3565 263.122 21.5674 263.248 21.7361 263.375C22.0734 263.585 22.3264 263.754 22.5373 263.838C22.7481 263.923 22.8747 263.965 22.8747 263.965C23.8446 262.953 24.3928 262.194 24.5615 261.308C25.1374 257.469 22.5932 254.379 23.6759 250.048Z" fill="#994DC5" stroke="#762CA2"/>
<path d="M34.8528 256.796C34.8528 256.796 34.9792 256.754 35.1901 256.669C35.401 256.585 35.6962 256.501 36.0757 256.458C36.8348 256.29 37.9313 256.29 39.0699 256.501C40.2085 256.711 41.3893 257.175 42.2328 257.597C42.6545 257.808 42.9919 258.019 43.2449 258.187C43.4979 258.356 43.6244 258.44 43.6244 258.44C43.9618 257.555 44.0039 256.543 43.7931 255.531C43.5822 254.519 43.0762 253.464 42.3592 252.621C41.6423 251.735 40.7146 251.06 39.7025 250.639C38.6904 250.217 37.5939 250.091 36.6239 250.259C36.6239 250.259 36.4553 250.301 36.1601 250.344C35.8649 250.428 35.4431 250.512 34.9792 250.723C34.5154 250.892 33.9671 251.145 33.4611 251.482C32.955 251.82 32.4912 252.199 32.0695 252.621C31.2682 253.464 30.8886 254.476 30.7621 255.193C30.7199 255.573 30.7199 255.826 30.7621 256.037C30.8043 256.248 30.8043 256.332 30.8043 256.332C31.8164 257.049 32.196 257.597 32.4912 257.597C32.6177 257.597 32.9129 257.513 33.2502 257.344C33.8406 257.218 34.3467 257.007 34.8528 256.796Z" fill="#994DC5" stroke="#762CA2"/>
<path d="M35.4596 241.117L34.79 239L27.819 241.934C24.0087 243.54 24.3937 246.722 25.3212 250C29.0377 248.43 37.1974 246.65 35.4596 241.117Z" fill="#994DC5" stroke="#762CA2"/>
<path d="M35.4596 248.117L34.79 246L27.819 248.934C24.0087 250.54 24.3937 253.722 25.3212 257C29.0377 255.43 37.1974 253.65 35.4596 248.117Z" fill="#994DC5" stroke="#762CA2"/>
<path d="M35.4596 255.117L34.79 253L27.819 255.934C24.0087 257.54 24.3937 260.722 25.3212 264C29.0377 262.43 37.1974 260.65 35.4596 255.117Z" fill="#994DC5" stroke="#762CA2"/>
<path d="M35.4596 262.117L34.79 260L27.819 262.934C24.0087 264.54 24.3937 267.722 25.3212 271C29.0377 269.43 37.1974 267.65 35.4596 262.117Z" fill="#994DC5" stroke="#762CA2"/>
<path d="M35.4596 269.117L34.79 267L27.819 269.934C24.0087 271.54 24.3937 274.722 25.3212 278C29.0377 276.43 37.1974 274.65 35.4596 269.117Z" fill="#994DC5" stroke="#762CA2"/>
<path d="M35.4596 276.117L34.79 274L27.819 276.934C24.0087 278.54 24.3937 281.722 25.3212 285C29.0377 283.43 37.1974 281.65 35.4596 276.117Z" fill="#994DC5" stroke="#762CA2"/>
<path d="M17.3091 257.428C17.2247 257.133 17.1826 257.007 17.1826 257.007C15.58 257.934 14.4836 259.917 14.4414 262.067C14.4414 267.277 20.0414 270.144 24.7734 268.899C25.153 268.815 25.4481 268.73 25.659 268.646C25.8699 268.562 25.9964 268.52 25.9964 268.52C25.7106 263.662 18.7865 262.599 17.3091 257.428Z" fill="#994DC5" stroke="#762CA2"/>
<path d="M25.9981 268.478C25.9981 268.478 25.8715 268.52 25.6607 268.604C25.4498 268.688 25.1546 268.773 24.7751 268.857C24.016 269.026 22.9196 269.152 21.7388 269.068C21.1484 269.026 20.6001 268.899 20.0097 268.731C19.4615 268.562 18.9554 268.351 18.4915 268.182C18.0698 267.972 17.6903 267.761 17.4373 267.634C17.1842 267.466 17.0155 267.381 17.0155 267.381C16.889 267.845 16.8469 268.309 16.8047 268.815C16.8047 269.321 16.889 269.827 17.0577 270.375C17.1842 270.881 17.4372 271.387 17.6903 271.851C17.9433 272.315 18.3229 272.737 18.7024 273.159C19.0819 273.538 19.5037 273.876 19.9675 274.171C20.4314 274.466 20.8953 274.677 21.4014 274.846C21.9074 275.014 22.3713 275.099 22.8774 275.141C23.3834 275.183 23.8474 275.099 24.2691 275.014C24.2691 275.014 24.4378 274.972 24.6908 274.888C24.986 274.803 25.3655 274.677 25.8294 274.55C26.715 274.213 27.8536 273.665 28.7814 272.99C29.2453 272.653 29.667 272.273 30.0465 271.936C30.4261 271.556 30.7213 271.219 30.9321 270.881C31.396 270.207 31.6069 269.785 31.6069 269.785C30.6791 268.731 29.9622 268.14 29.1188 267.972C28.2754 267.803 27.3054 267.972 25.9981 268.478Z" fill="#994DC5" stroke="#762CA2"/>
<path d="M31.6054 269.827C31.6054 269.827 31.3945 270.249 30.9306 270.924C30.6776 271.219 30.3824 271.598 30.045 271.978C29.6655 272.315 29.2438 272.695 28.7799 273.032C27.8521 273.707 26.7135 274.255 25.8279 274.592C25.364 274.761 24.9845 274.888 24.6893 274.93C24.3941 275.014 24.2676 275.014 24.2676 275.014C24.4784 275.436 24.7736 275.815 25.0688 276.153C25.4062 276.532 25.7857 276.828 26.2075 277.081C26.6292 277.376 27.093 277.587 27.5991 277.755C28.1051 277.924 28.6112 278.008 29.1595 278.093C30.2137 278.177 31.3524 278.008 32.3223 277.629C33.2923 277.207 34.1357 276.617 34.6839 275.815C34.6839 275.815 34.7682 275.689 34.9369 275.436C35.1056 275.225 35.3165 274.803 35.5273 274.382C35.9912 273.538 36.4129 272.315 36.5816 271.177C36.7503 270.038 36.7081 268.941 36.5395 268.14C36.4551 267.761 36.3708 267.423 36.3286 267.212C36.2443 267.002 36.2021 266.875 36.2021 266.875C34.8104 266.875 33.8405 266.959 33.2079 267.381C33.0392 267.465 32.9127 267.592 32.744 267.761C32.6175 267.887 32.491 268.056 32.3645 268.267C32.238 268.435 32.1114 268.688 31.9849 268.941C31.9006 269.237 31.7741 269.49 31.6054 269.827Z" fill="#994DC5" stroke="#762CA2"/>
<path d="M36.2838 266.959C36.2838 266.959 36.326 267.086 36.4103 267.297C36.4525 267.507 36.5368 267.803 36.6212 268.224C36.7477 268.983 36.832 270.08 36.6633 271.261C36.4947 272.399 36.0729 273.622 35.6091 274.466C35.3982 274.887 35.1452 275.267 35.0187 275.52C34.85 275.773 34.7656 275.9 34.7656 275.9C34.9765 275.984 35.2295 276.068 35.4826 276.11C35.7356 276.153 35.9886 276.153 36.2416 276.195C36.4947 276.195 36.7477 276.195 37.0429 276.195C37.2959 276.153 37.549 276.11 37.802 276.068C38.8141 275.815 39.8262 275.309 40.6696 274.592C41.5131 273.875 42.1456 272.948 42.5252 272.02C42.9047 271.05 43.0313 270.038 42.8626 269.11C42.8626 269.11 42.8204 268.941 42.7782 268.646C42.736 268.351 42.6095 267.971 42.483 267.507C42.1878 266.58 41.6818 265.441 41.007 264.471C40.3323 263.501 39.4889 262.784 38.8563 262.32C38.5189 262.11 38.2659 261.941 38.055 261.814C37.8442 261.688 37.7598 261.646 37.7598 261.646C36.7477 262.616 36.1573 263.332 35.9886 264.049C35.6512 264.682 35.8621 265.61 36.2838 266.959Z" fill="#994DC5" stroke="#762CA2"/>
<path d="M42.6539 268.562C42.6961 268.857 42.7382 269.026 42.7382 269.026C43.5816 268.646 44.3408 267.929 44.9312 267.044C45.5216 266.158 45.8589 265.062 45.9432 263.965C46.0276 262.869 45.8589 261.73 45.4372 260.802C43.6832 256.768 41.1944 255.359 35.9288 256.392C34.8622 258.353 34.81 259.115 35.1895 259.79C37.4786 263.351 41.75 263.138 42.6539 268.562Z" fill="#994DC5" stroke="#762CA2"/>
<path d="M35.2604 325.117L34.5908 323L27.6198 325.934C23.8095 327.54 24.1945 330.722 25.1219 334C28.8385 332.43 36.9981 330.65 35.2604 325.117Z" fill="#994DC5" stroke="#762CA2"/>
<path d="M35.2604 332.117L34.5908 330L27.6198 332.934C23.8095 334.54 24.1945 337.722 25.1219 341C28.8385 339.43 36.9981 337.65 35.2604 332.117Z" fill="#994DC5" stroke="#762CA2"/>
<path d="M35.2604 339.117L34.5908 337L27.6198 339.934C23.8095 341.54 24.1945 344.722 25.1219 348C28.8385 346.43 36.9981 344.65 35.2604 339.117Z" fill="#994DC5" stroke="#762CA2"/>
<path d="M35.2604 346.117L34.5908 344L27.6198 346.934C23.8095 348.54 24.1945 351.722 25.1219 355C28.8385 353.43 36.9981 351.65 35.2604 346.117Z" fill="#994DC5" stroke="#762CA2"/>
<path d="M35.2604 353.117L34.5908 351L27.6198 353.934C23.8095 355.54 24.1945 358.722 25.1219 362C28.8385 360.43 36.9981 358.65 35.2604 353.117Z" fill="#994DC5" stroke="#762CA2"/>
<path d="M35.2604 360.117L34.5908 358L27.6198 360.934C23.8095 362.54 24.1945 365.722 25.1219 369C28.8385 367.43 36.9981 365.65 35.2604 360.117Z" fill="#994DC5" stroke="#762CA2"/>
<path d="M35.2604 367.117L34.5908 365L27.6198 367.934C23.8095 369.54 24.1945 372.722 25.1219 376C28.8385 374.43 36.9981 372.65 35.2604 367.117Z" fill="#994DC5" stroke="#762CA2"/>
<path d="M35.2604 374.117L34.5908 372L27.6198 374.934C23.8095 376.54 24.1945 379.722 25.1219 383C28.8385 381.43 36.9981 379.65 35.2604 374.117Z" fill="#994DC5" stroke="#762CA2"/>
<path d="M35.2604 381.117L34.5908 379L27.6198 381.934C23.8095 383.54 24.1945 386.722 25.1219 390C28.8385 388.43 36.9981 386.65 35.2604 381.117Z" fill="#994DC5" stroke="#762CA2"/>
<path d="M35.2604 388.117L34.5908 386L27.6198 388.934C23.8095 390.54 24.1945 393.722 25.1219 397C28.8385 395.43 36.9981 393.65 35.2604 388.117Z" fill="#994DC5" stroke="#762CA2"/>
<path d="M24.0831 416.124C23.8205 420.362 23.2952 424.592 22.4739 428.775C22.4739 428.806 22.4644 428.822 22.4644 428.837C22.013 431.042 23.5619 430.867 25.0667 430.867C25.9692 427.173 26.7237 422.041 26.8001 417.531C26.8001 417.531 27.2775 421.777 26.0552 429.335C26.122 429.817 26.2175 430.393 26.3942 430.867H27.9413C28.5334 425.393 28.9392 418.9 28.9965 412.726C29.0252 413.674 29.2353 420.424 28.3806 430.867H30.9399L31.2599 429.708L31.5034 428.861C31.4986 428.853 31.4986 428.837 31.4986 428.822C31.3028 426.046 31.1835 423.612 31.1023 421.52C30.8779 415.712 31.0402 412.617 31.0402 412.617C31.0832 418.705 31.4795 425.105 32.0716 431.077L34.2347 430.867C32.7449 422.516 33.1985 417.827 33.2319 417.539C33.337 423.62 34.4877 428.884 35.0225 431.046L36.6699 430.867C37.3145 430.859 37.7682 429.84 37.5676 428.814C36.7415 424.623 36.2115 420.369 35.9537 416.124C35.2716 406.128 24.9181 402.924 24.0831 416.124Z" fill="#994DC5" stroke="#762CA2"/>
<path d="M35.2604 395.117L34.5908 393L27.6198 395.933C23.8095 397.54 24.1945 400.722 25.1219 404C28.8385 402.43 36.9981 400.65 35.2604 395.117Z" fill="#994DC5" stroke="#762CA2"/>
<path d="M32.3113 402.335C33.2989 402.662 34.2633 403.084 35.0376 403.49C35.8118 403.895 36.277 404.242 36.277 404.242C36.4874 403.647 36.4714 402.919 36.2777 402.256C34.7904 395.905 26.811 396.989 24.9265 400.65C24.6798 401.13 24.5629 401.475 24.5629 401.475C25.6477 402.198 27.4201 403.713 28.0144 403.796C28.3235 403.855 28.5368 403.777 28.7857 403.685C29.9691 402.818 30.5308 401.745 32.3113 402.335Z" fill="#994DC5" stroke="#762CA2"/>
<path d="M36.9442 409.414C39.376 407.433 39.3353 404.401 36.944 401.406C34.5528 398.412 29.5424 400.251 27.9054 405.473C29.0533 408.408 35.8719 406.897 36.9442 409.414Z" fill="#994DC5" stroke="#762CA2"/>
<path d="M27.0909 399.834C27.1365 399.414 27.182 399.037 27.2275 398.785C27.3185 398.533 27.3185 398.366 27.3185 398.366C26.3629 398.45 25.4528 398.911 24.6792 399.498C20.8306 402.629 22.8495 407.012 26.3629 409.399C27.2275 409.987 28.1375 410.322 28.8201 410.49C29.1386 410.574 29.4572 410.616 29.6392 410.658C29.8212 410.7 29.9577 410.7 29.9577 410.7C32.3274 406.666 26.8619 404.058 27.0909 399.834Z" fill="#994DC5" stroke="#762CA2"/>
<path d="M29.2085 407.238C29.2085 407.238 29.072 407.238 28.8899 407.191C28.7079 407.145 28.4349 407.099 28.0709 407.006C27.3883 406.821 26.4782 406.404 25.6136 405.802C24.7491 405.2 23.9755 404.366 23.4294 403.671C22.8834 402.977 22.5648 402.467 22.5648 402.467C21.9733 403.069 21.5638 403.857 21.3817 404.737C21.1542 405.617 21.1542 406.636 21.4272 407.655C21.6548 408.627 22.1553 409.6 22.8379 410.341C23.5205 411.082 24.3395 411.592 25.1586 411.823C25.1586 411.823 25.2951 411.869 25.5681 411.916C25.8412 411.962 26.2052 412.055 26.6602 412.101C27.5703 412.194 28.7079 412.147 29.7545 411.869C30.8011 411.592 31.5747 411.036 32.0752 410.526C32.3028 410.295 32.4848 410.063 32.5758 409.924C32.6668 409.785 32.7578 409.693 32.7578 409.693C32.2118 408.581 32.1663 408.025 31.7112 407.701C31.2107 407.469 30.4371 407.377 29.2085 407.238Z" fill="#994DC5" stroke="#762CA2"/>
<path d="M29.679 408.146C29.679 408.146 29.609 408.221 29.4387 408.314C29.312 408.42 29.0585 408.632 28.7879 408.742C28.207 409.095 27.2646 409.384 26.1838 409.341C25.1334 409.355 24.0013 409.005 23.1569 408.647C22.7348 408.468 22.4129 408.272 22.1649 408.146C21.9169 408.021 21.7995 407.937 21.7995 407.937C21.5917 408.792 21.632 409.773 22.0035 410.759C22.3315 411.732 22.9907 412.71 23.9166 413.432C24.373 413.815 24.8558 414.109 25.4086 414.329C25.6566 414.454 25.9179 414.535 26.1791 414.615C26.4403 414.696 26.7148 414.733 26.9893 414.769C27.5382 414.842 28.0265 414.799 28.5148 414.757C28.9728 414.656 29.444 414.511 29.8414 414.295C29.8414 414.295 29.9681 414.189 30.2387 414.079C30.4658 413.956 30.776 413.713 31.1431 413.439C31.8336 412.878 32.6035 412.051 33.1689 411.113C33.7343 410.174 34.0991 409.271 34.3108 408.562C34.4166 408.207 34.4656 407.883 34.5185 407.706C34.5279 407.515 34.5675 407.382 34.5675 407.382C33.4013 406.828 32.4737 406.59 31.7716 406.712C31.0259 406.82 30.5492 407.302 29.679 408.146Z" fill="#994DC5" stroke="#762CA2"/>
<path d="M30.4007 406.768C30.4006 408.134 30.5274 409.454 30.1607 410.823C29.8876 411.888 29.3871 412.907 28.8865 413.648C28.6135 414.019 28.386 414.343 28.204 414.528C28.022 414.713 27.8854 414.852 27.8854 414.852C28.7045 415.269 29.6601 415.362 30.6157 415.269C31.5713 415.13 32.5269 414.806 33.3005 414.25C37.226 411.51 35.7819 407.281 33.7792 405.187C32.1702 404.266 30.8345 404.983 30.4007 406.768Z" fill="#994DC5" stroke="#762CA2"/>
<path d="M34.6136 413.608C38.394 412.54 38.921 406.926 35.8185 404.987C32.716 403.048 30.389 405.375 30.3901 406.264C34.2693 407 35.8179 408.865 34.6136 413.608Z" fill="#994DC5" stroke="#762CA2"/>
</svg>
