<svg width="1164" height="18" viewBox="0 0 1164 18" fill="none" xmlns="http://www.w3.org/2000/svg">
<g clip-path="url(#clip0_206_23305)">
<path d="M1167.08 4.21781L1169 4.82658L1166.33 11.1639C1164.87 14.6278 1161.98 14.2777 1159 13.4346C1160.43 10.0559 1162.05 2.63805 1167.08 4.21781Z" fill="#EDEDED" stroke="#D2D2D2"/>
<path d="M1161.08 4.21781L1163 4.82658L1160.33 11.1639C1158.87 14.6278 1155.98 14.2777 1153 13.4346C1154.43 10.0559 1156.05 2.63805 1161.08 4.21781Z" fill="#EDEDED" stroke="#D2D2D2"/>
<path d="M1155.08 4.21781L1157 4.82658L1154.33 11.1639C1152.87 14.6278 1149.98 14.2777 1147 13.4346C1148.43 10.0559 1150.05 2.63805 1155.08 4.21781Z" fill="#EDEDED" stroke="#D2D2D2"/>
<path d="M1149.08 4.21781L1151 4.82658L1148.33 11.1639C1146.87 14.6278 1143.98 14.2777 1141 13.4346C1142.43 10.0559 1144.05 2.63805 1149.08 4.21781Z" fill="#EDEDED" stroke="#D2D2D2"/>
<path d="M1143.08 4.21781L1145 4.82658L1142.33 11.1639C1140.87 14.6278 1137.98 14.2777 1135 13.4346C1136.43 10.0559 1138.05 2.63805 1143.08 4.21781Z" fill="#EDEDED" stroke="#D2D2D2"/>
<path d="M1137.08 4.21781L1139 4.82658L1136.33 11.1639C1134.87 14.6278 1131.98 14.2777 1129 13.4346C1130.43 10.0559 1132.05 2.63805 1137.08 4.21781Z" fill="#EDEDED" stroke="#D2D2D2"/>
<path d="M1131.08 4.21781L1133 4.82658L1130.33 11.1639C1128.87 14.6278 1125.98 14.2777 1123 13.4346C1124.43 10.0559 1126.05 2.63805 1131.08 4.21781Z" fill="#EDEDED" stroke="#D2D2D2"/>
<path d="M1125.08 4.21781L1127 4.82658L1124.33 11.1639C1122.87 14.6278 1119.98 14.2777 1117 13.4346C1118.43 10.0559 1120.05 2.63805 1125.08 4.21781Z" fill="#EDEDED" stroke="#D2D2D2"/>
<path d="M1119.08 4.21781L1121 4.82658L1118.33 11.1639C1116.87 14.6278 1113.98 14.2777 1111 13.4346C1112.43 10.0559 1114.05 2.63805 1119.08 4.21781Z" fill="#EDEDED" stroke="#D2D2D2"/>
<path d="M1113.08 4.21781L1115 4.82658L1112.33 11.1639C1110.87 14.6278 1107.98 14.2777 1105 13.4346C1106.43 10.0559 1108.05 2.63805 1113.08 4.21781Z" fill="#EDEDED" stroke="#D2D2D2"/>
<path d="M1107.08 4.21781L1109 4.82658L1106.33 11.1639C1104.87 14.6278 1101.98 14.2777 1099 13.4346C1100.43 10.0559 1102.05 2.63805 1107.08 4.21781Z" fill="#EDEDED" stroke="#D2D2D2"/>
<path d="M1101.08 4.21781L1103 4.82658L1100.33 11.1639C1098.87 14.6278 1095.98 14.2777 1093 13.4346C1094.43 10.0559 1096.05 2.63805 1101.08 4.21781Z" fill="#EDEDED" stroke="#D2D2D2"/>
<path d="M1095.08 4.21781L1097 4.82658L1094.33 11.1639C1092.87 14.6278 1089.98 14.2777 1087 13.4346C1088.43 10.0559 1090.05 2.63805 1095.08 4.21781Z" fill="#EDEDED" stroke="#D2D2D2"/>
<path d="M1089.08 4.21781L1091 4.82658L1088.33 11.1639C1086.87 14.6278 1083.98 14.2777 1081 13.4346C1082.43 10.0559 1084.05 2.63805 1089.08 4.21781Z" fill="#EDEDED" stroke="#D2D2D2"/>
<path d="M1083.08 4.21781L1085 4.82658L1082.33 11.1639C1080.87 14.6278 1077.98 14.2777 1075 13.4346C1076.43 10.0559 1078.05 2.63805 1083.08 4.21781Z" fill="#EDEDED" stroke="#D2D2D2"/>
<path d="M1077.08 4.21781L1079 4.82658L1076.33 11.1639C1074.87 14.6278 1071.98 14.2777 1069 13.4346C1070.43 10.0559 1072.05 2.63805 1077.08 4.21781Z" fill="#EDEDED" stroke="#D2D2D2"/>
<path d="M1071.08 4.21781L1073 4.82658L1070.33 11.1639C1068.87 14.6278 1065.98 14.2777 1063 13.4346C1064.43 10.0559 1066.05 2.63805 1071.08 4.21781Z" fill="#EDEDED" stroke="#D2D2D2"/>
<path d="M1065.08 4.21781L1067 4.82658L1064.33 11.1639C1062.87 14.6278 1059.98 14.2777 1057 13.4346C1058.43 10.0559 1060.05 2.63805 1065.08 4.21781Z" fill="#EDEDED" stroke="#D2D2D2"/>
<path d="M1059.08 4.21781L1061 4.82658L1058.33 11.1639C1056.87 14.6278 1053.98 14.2777 1051 13.4346C1052.43 10.0559 1054.05 2.63805 1059.08 4.21781Z" fill="#EDEDED" stroke="#D2D2D2"/>
<path d="M1053.08 4.21781L1055 4.82658L1052.33 11.1639C1050.87 14.6278 1047.98 14.2777 1045 13.4346C1046.43 10.0559 1048.05 2.63805 1053.08 4.21781Z" fill="#EDEDED" stroke="#D2D2D2"/>
<path d="M1047.08 4.21781L1049 4.82658L1046.33 11.1639C1044.87 14.6278 1041.98 14.2777 1039 13.4346C1040.43 10.0559 1042.05 2.63805 1047.08 4.21781Z" fill="#EDEDED" stroke="#D2D2D2"/>
<path d="M1041.08 4.21781L1043 4.82658L1040.33 11.1639C1038.87 14.6278 1035.98 14.2777 1033 13.4346C1034.43 10.0559 1036.05 2.63805 1041.08 4.21781Z" fill="#EDEDED" stroke="#D2D2D2"/>
<path d="M1035.08 4.21781L1037 4.82658L1034.33 11.1639C1032.87 14.6278 1029.98 14.2777 1027 13.4346C1028.43 10.0559 1030.05 2.63805 1035.08 4.21781Z" fill="#EDEDED" stroke="#D2D2D2"/>
<path d="M1029.08 4.21781L1031 4.82658L1028.33 11.1639C1026.87 14.6278 1023.98 14.2777 1021 13.4346C1022.43 10.0559 1024.05 2.63805 1029.08 4.21781Z" fill="#EDEDED" stroke="#D2D2D2"/>
<path d="M1023.08 4.21781L1025 4.82658L1022.33 11.1639C1020.87 14.6278 1017.98 14.2777 1015 13.4346C1016.43 10.0559 1018.05 2.63805 1023.08 4.21781Z" fill="#EDEDED" stroke="#D2D2D2"/>
<path d="M1017.08 4.21781L1019 4.82658L1016.33 11.1639C1014.87 14.6278 1011.98 14.2777 1009 13.4346C1010.43 10.0559 1012.05 2.63805 1017.08 4.21781Z" fill="#EDEDED" stroke="#D2D2D2"/>
<path d="M1011.08 4.21781L1013 4.82658L1010.33 11.1639C1008.87 14.6278 1005.98 14.2777 1003 13.4346C1004.43 10.0559 1006.05 2.63805 1011.08 4.21781Z" fill="#EDEDED" stroke="#D2D2D2"/>
<path d="M1005.08 4.21781L1007 4.82658L1004.33 11.1639C1002.87 14.6278 999.98 14.2777 997 13.4346C998.427 10.0559 1000.05 2.63805 1005.08 4.21781Z" fill="#EDEDED" stroke="#D2D2D2"/>
<path d="M999.075 4.21781L1001 4.82658L998.333 11.1639C996.873 14.6278 993.98 14.2777 991 13.4346C992.427 10.0559 994.045 2.63805 999.075 4.21781Z" fill="#EDEDED" stroke="#D2D2D2"/>
<path d="M993.075 4.21781L995 4.82658L992.333 11.1639C990.873 14.6278 987.98 14.2777 985 13.4346C986.427 10.0559 988.045 2.63805 993.075 4.21781Z" fill="#EDEDED" stroke="#D2D2D2"/>
<path d="M987.075 4.21781L989 4.82658L986.333 11.1639C984.873 14.6278 981.98 14.2777 979 13.4346C980.427 10.0559 982.045 2.63805 987.075 4.21781Z" fill="#EDEDED" stroke="#D2D2D2"/>
<path d="M981.075 4.21781L983 4.82658L980.333 11.1639C978.873 14.6278 975.98 14.2777 973 13.4346C974.427 10.0559 976.045 2.63805 981.075 4.21781Z" fill="#EDEDED" stroke="#D2D2D2"/>
<path d="M975.075 4.21781L977 4.82658L974.333 11.1639C972.873 14.6278 969.98 14.2777 967 13.4346C968.427 10.0559 970.045 2.63805 975.075 4.21781Z" fill="#EDEDED" stroke="#D2D2D2"/>
<path d="M969.075 4.21781L971 4.82658L968.333 11.1639C966.873 14.6278 963.98 14.2777 961 13.4346C962.427 10.0559 964.045 2.63805 969.075 4.21781Z" fill="#EDEDED" stroke="#D2D2D2"/>
<path d="M963.075 4.21781L965 4.82658L962.333 11.1639C960.873 14.6278 957.98 14.2777 955 13.4346C956.427 10.0559 958.045 2.63805 963.075 4.21781Z" fill="#EDEDED" stroke="#D2D2D2"/>
<path d="M957.075 4.21781L959 4.82658L956.333 11.1639C954.873 14.6278 951.98 14.2777 949 13.4346C950.427 10.0559 952.045 2.63805 957.075 4.21781Z" fill="#EDEDED" stroke="#D2D2D2"/>
<path d="M951.075 4.21781L953 4.82658L950.333 11.1639C948.873 14.6278 945.98 14.2777 943 13.4346C944.427 10.0559 946.045 2.63805 951.075 4.21781Z" fill="#EDEDED" stroke="#D2D2D2"/>
<path d="M945.075 4.21781L947 4.82658L944.333 11.1639C942.873 14.6278 939.98 14.2777 937 13.4346C938.427 10.0559 940.045 2.63805 945.075 4.21781Z" fill="#EDEDED" stroke="#D2D2D2"/>
<path d="M939.075 4.21781L941 4.82658L938.333 11.1639C936.873 14.6278 933.98 14.2777 931 13.4346C932.427 10.0559 934.045 2.63805 939.075 4.21781Z" fill="#EDEDED" stroke="#D2D2D2"/>
<path d="M933.075 4.21781L935 4.82658L932.333 11.1639C930.873 14.6278 927.98 14.2777 925 13.4346C926.427 10.0559 928.045 2.63805 933.075 4.21781Z" fill="#EDEDED" stroke="#D2D2D2"/>
<path d="M927.075 4.21781L929 4.82658L926.333 11.1639C924.873 14.6278 921.98 14.2777 919 13.4346C920.427 10.0559 922.045 2.63805 927.075 4.21781Z" fill="#EDEDED" stroke="#D2D2D2"/>
<path d="M921.075 4.21781L923 4.82658L920.333 11.1639C918.873 14.6278 915.98 14.2777 913 13.4346C914.427 10.0559 916.045 2.63805 921.075 4.21781Z" fill="#EDEDED" stroke="#D2D2D2"/>
<path d="M915.075 4.21781L917 4.82658L914.333 11.1639C912.873 14.6278 909.98 14.2777 907 13.4346C908.427 10.0559 910.045 2.63805 915.075 4.21781Z" fill="#EDEDED" stroke="#D2D2D2"/>
<path d="M909.075 4.21781L911 4.82658L908.333 11.1639C906.873 14.6278 903.98 14.2777 901 13.4346C902.427 10.0559 904.045 2.63805 909.075 4.21781Z" fill="#EDEDED" stroke="#D2D2D2"/>
<path d="M903.075 4.21781L905 4.82658L902.333 11.1639C900.873 14.6278 897.98 14.2777 895 13.4346C896.427 10.0559 898.045 2.63805 903.075 4.21781Z" fill="#EDEDED" stroke="#D2D2D2"/>
<path d="M897.075 4.21781L899 4.82658L896.333 11.1639C894.873 14.6278 891.98 14.2777 889 13.4346C890.427 10.0559 892.045 2.63805 897.075 4.21781Z" fill="#EDEDED" stroke="#D2D2D2"/>
<path d="M891.075 4.21781L893 4.82658L890.333 11.1639C888.873 14.6278 885.98 14.2777 883 13.4346C884.427 10.0559 886.045 2.63805 891.075 4.21781Z" fill="#EDEDED" stroke="#D2D2D2"/>
<path d="M885.075 4.21781L887 4.82658L884.333 11.1639C882.873 14.6278 879.98 14.2777 877 13.4346C878.427 10.0559 880.045 2.63805 885.075 4.21781Z" fill="#EDEDED" stroke="#D2D2D2"/>
<path d="M879.075 4.21781L881 4.82658L878.333 11.1639C876.873 14.6278 873.98 14.2777 871 13.4346C872.427 10.0559 874.045 2.63805 879.075 4.21781Z" fill="#EDEDED" stroke="#D2D2D2"/>
<path d="M873.075 4.21781L875 4.82658L872.333 11.1639C870.873 14.6278 867.98 14.2777 865 13.4346C866.427 10.0559 868.045 2.63805 873.075 4.21781Z" fill="#EDEDED" stroke="#D2D2D2"/>
<path d="M867.075 4.21781L869 4.82658L866.333 11.1639C864.873 14.6278 861.98 14.2777 859 13.4346C860.427 10.0559 862.045 2.63805 867.075 4.21781Z" fill="#EDEDED" stroke="#D2D2D2"/>
<path d="M861.075 4.21781L863 4.82658L860.333 11.1639C858.873 14.6278 855.98 14.2777 853 13.4346C854.427 10.0559 856.045 2.63805 861.075 4.21781Z" fill="#EDEDED" stroke="#D2D2D2"/>
<path d="M855.075 4.21781L857 4.82658L854.333 11.1639C852.873 14.6278 849.98 14.2777 847 13.4346C848.427 10.0559 850.045 2.63805 855.075 4.21781Z" fill="#EDEDED" stroke="#D2D2D2"/>
<path d="M849.075 4.21781L851 4.82658L848.333 11.1639C846.873 14.6278 843.98 14.2777 841 13.4346C842.427 10.0559 844.045 2.63805 849.075 4.21781Z" fill="#EDEDED" stroke="#D2D2D2"/>
<path d="M843.075 4.21781L845 4.82658L842.333 11.1639C840.873 14.6278 837.98 14.2777 835 13.4346C836.427 10.0559 838.045 2.63805 843.075 4.21781Z" fill="#EDEDED" stroke="#D2D2D2"/>
<path d="M837.075 4.21781L839 4.82658L836.333 11.1639C834.873 14.6278 831.98 14.2777 829 13.4346C830.427 10.0559 832.045 2.63805 837.075 4.21781Z" fill="#EDEDED" stroke="#D2D2D2"/>
<path d="M831.075 4.21781L833 4.82658L830.333 11.1639C828.873 14.6278 825.98 14.2777 823 13.4346C824.427 10.0559 826.045 2.63805 831.075 4.21781Z" fill="#EDEDED" stroke="#D2D2D2"/>
<path d="M825.075 4.21781L827 4.82658L824.333 11.1639C822.873 14.6278 819.98 14.2777 817 13.4346C818.427 10.0559 820.045 2.63805 825.075 4.21781Z" fill="#EDEDED" stroke="#D2D2D2"/>
<path d="M819.075 4.21781L821 4.82658L818.333 11.1639C816.873 14.6278 813.98 14.2777 811 13.4346C812.427 10.0559 814.045 2.63805 819.075 4.21781Z" fill="#EDEDED" stroke="#D2D2D2"/>
<path d="M813.075 4.21781L815 4.82658L812.333 11.1639C810.873 14.6278 807.98 14.2777 805 13.4346C806.427 10.0559 808.045 2.63805 813.075 4.21781Z" fill="#EDEDED" stroke="#D2D2D2"/>
<path d="M807.075 4.21781L809 4.82658L806.333 11.1639C804.873 14.6278 801.98 14.2777 799 13.4346C800.427 10.0559 802.045 2.63805 807.075 4.21781Z" fill="#EDEDED" stroke="#D2D2D2"/>
<path d="M801.075 4.21781L803 4.82658L800.333 11.1639C798.873 14.6278 795.98 14.2777 793 13.4346C794.427 10.0559 796.045 2.63805 801.075 4.21781Z" fill="#EDEDED" stroke="#D2D2D2"/>
<path d="M795.075 4.21781L797 4.82658L794.333 11.1639C792.873 14.6278 789.98 14.2777 787 13.4346C788.427 10.0559 790.045 2.63805 795.075 4.21781Z" fill="#EDEDED" stroke="#D2D2D2"/>
<path d="M789.075 4.21781L791 4.82658L788.333 11.1639C786.873 14.6278 783.98 14.2777 781 13.4346C782.427 10.0559 784.045 2.63805 789.075 4.21781Z" fill="#EDEDED" stroke="#D2D2D2"/>
<path d="M783.075 4.21781L785 4.82658L782.333 11.1639C780.873 14.6278 777.98 14.2777 775 13.4346C776.427 10.0559 778.045 2.63805 783.075 4.21781Z" fill="#EDEDED" stroke="#D2D2D2"/>
<path d="M777.075 4.21781L779 4.82658L776.333 11.1639C774.873 14.6278 771.98 14.2777 769 13.4346C770.427 10.0559 772.045 2.63805 777.075 4.21781Z" fill="#EDEDED" stroke="#D2D2D2"/>
<path d="M771.075 4.21781L773 4.82658L770.333 11.1639C768.873 14.6278 765.98 14.2777 763 13.4346C764.427 10.0559 766.045 2.63805 771.075 4.21781Z" fill="#EDEDED" stroke="#D2D2D2"/>
<path d="M765.075 4.21781L767 4.82658L764.333 11.1639C762.873 14.6278 759.98 14.2777 757 13.4346C758.427 10.0559 760.045 2.63805 765.075 4.21781Z" fill="#EDEDED" stroke="#D2D2D2"/>
<path d="M759.075 4.21781L761 4.82658L758.333 11.1639C756.873 14.6278 753.98 14.2777 751 13.4346C752.427 10.0559 754.045 2.63805 759.075 4.21781Z" fill="#EDEDED" stroke="#D2D2D2"/>
<path d="M753.075 4.21781L755 4.82658L752.333 11.1639C750.873 14.6278 747.98 14.2777 745 13.4346C746.427 10.0559 748.045 2.63805 753.075 4.21781Z" fill="#EDEDED" stroke="#D2D2D2"/>
<path d="M747.075 4.21781L749 4.82658L746.333 11.1639C744.873 14.6278 741.98 14.2777 739 13.4346C740.427 10.0559 742.045 2.63805 747.075 4.21781Z" fill="#EDEDED" stroke="#D2D2D2"/>
<path d="M741.075 4.21781L743 4.82658L740.333 11.1639C738.873 14.6278 735.98 14.2777 733 13.4346C734.427 10.0559 736.045 2.63805 741.075 4.21781Z" fill="#EDEDED" stroke="#D2D2D2"/>
<path d="M735.075 4.21781L737 4.82658L734.333 11.1639C732.873 14.6278 729.98 14.2777 727 13.4346C728.427 10.0559 730.045 2.63805 735.075 4.21781Z" fill="#EDEDED" stroke="#D2D2D2"/>
<path d="M729.075 4.21781L731 4.82658L728.333 11.1639C726.873 14.6278 723.98 14.2777 721 13.4346C722.427 10.0559 724.045 2.63805 729.075 4.21781Z" fill="#EDEDED" stroke="#D2D2D2"/>
<path d="M723.075 4.21781L725 4.82658L722.333 11.1639C720.873 14.6278 717.98 14.2777 715 13.4346C716.427 10.0559 718.045 2.63805 723.075 4.21781Z" fill="#EDEDED" stroke="#D2D2D2"/>
<path d="M717.075 4.21781L719 4.82658L716.333 11.1639C714.873 14.6278 711.98 14.2777 709 13.4346C710.427 10.0559 712.045 2.63805 717.075 4.21781Z" fill="#EDEDED" stroke="#D2D2D2"/>
<path d="M711.075 4.21781L713 4.82658L710.333 11.1639C708.873 14.6278 705.98 14.2777 703 13.4346C704.427 10.0559 706.045 2.63805 711.075 4.21781Z" fill="#EDEDED" stroke="#D2D2D2"/>
<path d="M705.075 4.21781L707 4.82658L704.333 11.1639C702.873 14.6278 699.98 14.2777 697 13.4346C698.427 10.0559 700.045 2.63805 705.075 4.21781Z" fill="#EDEDED" stroke="#D2D2D2"/>
<path d="M699.075 4.21781L701 4.82658L698.333 11.1639C696.873 14.6278 693.98 14.2777 691 13.4346C692.427 10.0559 694.045 2.63805 699.075 4.21781Z" fill="#EDEDED" stroke="#D2D2D2"/>
<path d="M693.075 4.21781L695 4.82658L692.333 11.1639C690.873 14.6278 687.98 14.2777 685 13.4346C686.427 10.0559 688.045 2.63805 693.075 4.21781Z" fill="#EDEDED" stroke="#D2D2D2"/>
<path d="M687.075 4.21781L689 4.82658L686.333 11.1639C684.873 14.6278 681.98 14.2777 679 13.4346C680.427 10.0559 682.045 2.63805 687.075 4.21781Z" fill="#EDEDED" stroke="#D2D2D2"/>
<path d="M681.075 4.21781L683 4.82658L680.333 11.1639C678.873 14.6278 675.98 14.2777 673 13.4346C674.427 10.0559 676.045 2.63805 681.075 4.21781Z" fill="#EDEDED" stroke="#D2D2D2"/>
<path d="M675.075 4.21781L677 4.82658L674.333 11.1639C672.873 14.6278 669.98 14.2777 667 13.4346C668.427 10.0559 670.045 2.63805 675.075 4.21781Z" fill="#EDEDED" stroke="#D2D2D2"/>
<path d="M669.075 4.21781L671 4.82658L668.333 11.1639C666.873 14.6278 663.98 14.2777 661 13.4346C662.427 10.0559 664.045 2.63805 669.075 4.21781Z" fill="#EDEDED" stroke="#D2D2D2"/>
<path d="M663.075 4.21781L665 4.82658L662.333 11.1639C660.873 14.6278 657.98 14.2777 655 13.4346C656.427 10.0559 658.045 2.63805 663.075 4.21781Z" fill="#EDEDED" stroke="#D2D2D2"/>
<path d="M657.075 4.21781L659 4.82658L656.333 11.1639C654.873 14.6278 651.98 14.2777 649 13.4346C650.427 10.0559 652.045 2.63805 657.075 4.21781Z" fill="#EDEDED" stroke="#D2D2D2"/>
<path d="M651.075 4.21781L653 4.82658L650.333 11.1639C648.873 14.6278 645.98 14.2777 643 13.4346C644.427 10.0559 646.045 2.63805 651.075 4.21781Z" fill="#EDEDED" stroke="#D2D2D2"/>
<path d="M645.075 4.21781L647 4.82658L644.333 11.1639C642.873 14.6278 639.98 14.2777 637 13.4346C638.427 10.0559 640.045 2.63805 645.075 4.21781Z" fill="#EDEDED" stroke="#D2D2D2"/>
<path d="M639.075 4.21781L641 4.82658L638.333 11.1639C636.873 14.6278 633.98 14.2777 631 13.4346C632.427 10.0559 634.045 2.63805 639.075 4.21781Z" fill="#EDEDED" stroke="#D2D2D2"/>
<path d="M633.075 4.21781L635 4.82658L632.333 11.1639C630.873 14.6278 627.98 14.2777 625 13.4346C626.427 10.0559 628.045 2.63805 633.075 4.21781Z" fill="#EDEDED" stroke="#D2D2D2"/>
<path d="M627.075 4.21781L629 4.82658L626.333 11.1639C624.873 14.6278 621.98 14.2777 619 13.4346C620.427 10.0559 622.045 2.63805 627.075 4.21781Z" fill="#EDEDED" stroke="#D2D2D2"/>
<path d="M621.075 4.21781L623 4.82658L620.333 11.1639C618.873 14.6278 615.98 14.2777 613 13.4346C614.427 10.0559 616.045 2.63805 621.075 4.21781Z" fill="#EDEDED" stroke="#D2D2D2"/>
<path d="M615.075 4.21781L617 4.82658L614.333 11.1639C612.873 14.6278 609.98 14.2777 607 13.4346C608.427 10.0559 610.045 2.63805 615.075 4.21781Z" fill="#EDEDED" stroke="#D2D2D2"/>
<path d="M609.075 4.21781L611 4.82658L608.333 11.1639C606.873 14.6278 603.98 14.2777 601 13.4346C602.427 10.0559 604.045 2.63805 609.075 4.21781Z" fill="#EDEDED" stroke="#D2D2D2"/>
<path d="M603.075 4.21781L605 4.82658L602.333 11.1639C600.873 14.6278 597.98 14.2777 595 13.4346C596.427 10.0559 598.045 2.63805 603.075 4.21781Z" fill="#EDEDED" stroke="#D2D2D2"/>
<path d="M597.075 4.21781L599 4.82658L596.333 11.1639C594.873 14.6278 591.98 14.2777 589 13.4346C590.427 10.0559 592.045 2.63805 597.075 4.21781Z" fill="#EDEDED" stroke="#D2D2D2"/>
<path d="M591.075 4.21781L593 4.82658L590.333 11.1639C588.873 14.6278 585.98 14.2777 583 13.4346C584.427 10.0559 586.045 2.63805 591.075 4.21781Z" fill="#EDEDED" stroke="#D2D2D2"/>
<path d="M585.075 4.21781L587 4.82658L584.333 11.1639C582.873 14.6278 579.98 14.2777 577 13.4346C578.427 10.0559 580.045 2.63805 585.075 4.21781Z" fill="#EDEDED" stroke="#D2D2D2"/>
<path d="M579.075 4.21781L581 4.82658L578.333 11.1639C576.873 14.6278 573.98 14.2777 571 13.4346C572.427 10.0559 574.045 2.63805 579.075 4.21781Z" fill="#EDEDED" stroke="#D2D2D2"/>
<path d="M573.075 4.21781L575 4.82658L572.333 11.1639C570.873 14.6278 567.98 14.2777 565 13.4346C566.427 10.0559 568.045 2.63805 573.075 4.21781Z" fill="#EDEDED" stroke="#D2D2D2"/>
<path d="M567.075 4.21781L569 4.82658L566.333 11.1639C564.873 14.6278 561.98 14.2777 559 13.4346C560.427 10.0559 562.045 2.63805 567.075 4.21781Z" fill="#EDEDED" stroke="#D2D2D2"/>
<path d="M561.075 4.21781L563 4.82658L560.333 11.1639C558.873 14.6278 555.98 14.2777 553 13.4346C554.427 10.0559 556.045 2.63805 561.075 4.21781Z" fill="#EDEDED" stroke="#D2D2D2"/>
<path d="M555.075 4.21781L557 4.82658L554.333 11.1639C552.873 14.6278 549.98 14.2777 547 13.4346C548.427 10.0559 550.045 2.63805 555.075 4.21781Z" fill="#EDEDED" stroke="#D2D2D2"/>
<path d="M549.075 4.21781L551 4.82658L548.333 11.1639C546.873 14.6278 543.98 14.2777 541 13.4346C542.427 10.0559 544.045 2.63805 549.075 4.21781Z" fill="#EDEDED" stroke="#D2D2D2"/>
<path d="M543.075 4.21781L545 4.82658L542.333 11.1639C540.873 14.6278 537.98 14.2777 535 13.4346C536.427 10.0559 538.045 2.63805 543.075 4.21781Z" fill="#EDEDED" stroke="#D2D2D2"/>
<path d="M537.075 4.21781L539 4.82658L536.333 11.1639C534.873 14.6278 531.98 14.2777 529 13.4346C530.427 10.0559 532.045 2.63805 537.075 4.21781Z" fill="#EDEDED" stroke="#D2D2D2"/>
<path d="M531.075 4.21781L533 4.82658L530.333 11.1639C528.873 14.6278 525.98 14.2777 523 13.4346C524.427 10.0559 526.045 2.63805 531.075 4.21781Z" fill="#EDEDED" stroke="#D2D2D2"/>
<path d="M525.075 4.21781L527 4.82658L524.333 11.1639C522.873 14.6278 519.98 14.2777 517 13.4346C518.427 10.0559 520.045 2.63805 525.075 4.21781Z" fill="#EDEDED" stroke="#D2D2D2"/>
<path d="M519.075 4.21781L521 4.82658L518.333 11.1639C516.873 14.6278 513.98 14.2777 511 13.4346C512.427 10.0559 514.045 2.63805 519.075 4.21781Z" fill="#EDEDED" stroke="#D2D2D2"/>
<path d="M513.075 4.21781L515 4.82658L512.333 11.1639C510.873 14.6278 507.98 14.2777 505 13.4346C506.427 10.0559 508.045 2.63805 513.075 4.21781Z" fill="#EDEDED" stroke="#D2D2D2"/>
<path d="M507.075 4.21781L509 4.82658L506.333 11.1639C504.873 14.6278 501.98 14.2777 499 13.4346C500.427 10.0559 502.045 2.63805 507.075 4.21781Z" fill="#EDEDED" stroke="#D2D2D2"/>
<path d="M501.075 4.21781L503 4.82658L500.333 11.1639C498.873 14.6278 495.98 14.2777 493 13.4346C494.427 10.0559 496.045 2.63805 501.075 4.21781Z" fill="#EDEDED" stroke="#D2D2D2"/>
<path d="M495.075 4.21781L497 4.82658L494.333 11.1639C492.873 14.6278 489.98 14.2777 487 13.4346C488.427 10.0559 490.045 2.63805 495.075 4.21781Z" fill="#EDEDED" stroke="#D2D2D2"/>
<path d="M489.075 4.21781L491 4.82658L488.333 11.1639C486.873 14.6278 483.98 14.2777 481 13.4346C482.427 10.0559 484.045 2.63805 489.075 4.21781Z" fill="#EDEDED" stroke="#D2D2D2"/>
<path d="M483.075 4.21781L485 4.82658L482.333 11.1639C480.873 14.6278 477.98 14.2777 475 13.4346C476.427 10.0559 478.045 2.63805 483.075 4.21781Z" fill="#EDEDED" stroke="#D2D2D2"/>
<path d="M477.075 4.21781L479 4.82658L476.333 11.1639C474.873 14.6278 471.98 14.2777 469 13.4346C470.427 10.0559 472.045 2.63805 477.075 4.21781Z" fill="#EDEDED" stroke="#D2D2D2"/>
<path d="M471.075 4.21781L473 4.82658L470.333 11.1639C468.873 14.6278 465.98 14.2777 463 13.4346C464.427 10.0559 466.045 2.63805 471.075 4.21781Z" fill="#EDEDED" stroke="#D2D2D2"/>
<path d="M465.075 4.21781L467 4.82658L464.333 11.1639C462.873 14.6278 459.98 14.2777 457 13.4346C458.427 10.0559 460.045 2.63805 465.075 4.21781Z" fill="#EDEDED" stroke="#D2D2D2"/>
<path d="M459.075 4.21781L461 4.82658L458.333 11.1639C456.873 14.6278 453.98 14.2777 451 13.4346C452.427 10.0559 454.045 2.63805 459.075 4.21781Z" fill="#EDEDED" stroke="#D2D2D2"/>
<path d="M453.075 4.21781L455 4.82658L452.333 11.1639C450.873 14.6278 447.98 14.2777 445 13.4346C446.427 10.0559 448.045 2.63805 453.075 4.21781Z" fill="#EDEDED" stroke="#D2D2D2"/>
<path d="M447.075 4.21781L449 4.82658L446.333 11.1639C444.873 14.6278 441.98 14.2777 439 13.4346C440.427 10.0559 442.045 2.63805 447.075 4.21781Z" fill="#EDEDED" stroke="#D2D2D2"/>
<path d="M441.075 4.21781L443 4.82658L440.333 11.1639C438.873 14.6278 435.98 14.2777 433 13.4346C434.427 10.0559 436.045 2.63805 441.075 4.21781Z" fill="#EDEDED" stroke="#D2D2D2"/>
<path d="M435.075 4.21781L437 4.82658L434.333 11.1639C432.873 14.6278 429.98 14.2777 427 13.4346C428.427 10.0559 430.045 2.63805 435.075 4.21781Z" fill="#EDEDED" stroke="#D2D2D2"/>
<path d="M429.075 4.21781L431 4.82658L428.333 11.1639C426.873 14.6278 423.98 14.2777 421 13.4346C422.427 10.0559 424.045 2.63805 429.075 4.21781Z" fill="#EDEDED" stroke="#D2D2D2"/>
<path d="M423.075 4.21781L425 4.82658L422.333 11.1639C420.873 14.6278 417.98 14.2777 415 13.4346C416.427 10.0559 418.045 2.63805 423.075 4.21781Z" fill="#EDEDED" stroke="#D2D2D2"/>
<path d="M417.075 4.21781L419 4.82658L416.333 11.1639C414.873 14.6278 411.98 14.2777 409 13.4346C410.427 10.0559 412.045 2.63805 417.075 4.21781Z" fill="#EDEDED" stroke="#D2D2D2"/>
<path d="M411.075 4.21781L413 4.82658L410.333 11.1639C408.873 14.6278 405.98 14.2777 403 13.4346C404.427 10.0559 406.045 2.63805 411.075 4.21781Z" fill="#EDEDED" stroke="#D2D2D2"/>
<path d="M405.075 4.21781L407 4.82658L404.333 11.1639C402.873 14.6278 399.98 14.2777 397 13.4346C398.427 10.0559 400.045 2.63805 405.075 4.21781Z" fill="#EDEDED" stroke="#D2D2D2"/>
<path d="M399.075 4.21781L401 4.82658L398.333 11.1639C396.873 14.6278 393.98 14.2777 391 13.4346C392.427 10.0559 394.045 2.63805 399.075 4.21781Z" fill="#EDEDED" stroke="#D2D2D2"/>
<path d="M393.075 4.21781L395 4.82658L392.333 11.1639C390.873 14.6278 387.98 14.2777 385 13.4346C386.427 10.0559 388.045 2.63805 393.075 4.21781Z" fill="#EDEDED" stroke="#D2D2D2"/>
<path d="M387.075 4.21781L389 4.82658L386.333 11.1639C384.873 14.6278 381.98 14.2777 379 13.4346C380.427 10.0559 382.045 2.63805 387.075 4.21781Z" fill="#EDEDED" stroke="#D2D2D2"/>
<path d="M381.075 4.21781L383 4.82658L380.333 11.1639C378.873 14.6278 375.98 14.2777 373 13.4346C374.427 10.0559 376.045 2.63805 381.075 4.21781Z" fill="#EDEDED" stroke="#D2D2D2"/>
<path d="M375.075 4.21781L377 4.82658L374.333 11.1639C372.873 14.6278 369.98 14.2777 367 13.4346C368.427 10.0559 370.045 2.63805 375.075 4.21781Z" fill="#EDEDED" stroke="#D2D2D2"/>
<path d="M369.075 4.21781L371 4.82658L368.333 11.1639C366.873 14.6278 363.98 14.2777 361 13.4346C362.427 10.0559 364.045 2.63805 369.075 4.21781Z" fill="#EDEDED" stroke="#D2D2D2"/>
<path d="M363.075 4.21781L365 4.82658L362.333 11.1639C360.873 14.6278 357.98 14.2777 355 13.4346C356.427 10.0559 358.045 2.63805 363.075 4.21781Z" fill="#EDEDED" stroke="#D2D2D2"/>
<path d="M357.075 4.21781L359 4.82658L356.333 11.1639C354.873 14.6278 351.98 14.2777 349 13.4346C350.427 10.0559 352.045 2.63805 357.075 4.21781Z" fill="#EDEDED" stroke="#D2D2D2"/>
<path d="M351.075 4.21781L353 4.82658L350.333 11.1639C348.873 14.6278 345.98 14.2777 343 13.4346C344.427 10.0559 346.045 2.63805 351.075 4.21781Z" fill="#EDEDED" stroke="#D2D2D2"/>
<path d="M345.075 4.21781L347 4.82658L344.333 11.1639C342.873 14.6278 339.98 14.2777 337 13.4346C338.427 10.0559 340.045 2.63805 345.075 4.21781Z" fill="#EDEDED" stroke="#D2D2D2"/>
<path d="M339.075 4.21781L341 4.82658L338.333 11.1639C336.873 14.6278 333.98 14.2777 331 13.4346C332.427 10.0559 334.045 2.63805 339.075 4.21781Z" fill="#EDEDED" stroke="#D2D2D2"/>
<path d="M333.075 4.21781L335 4.82658L332.333 11.1639C330.873 14.6278 327.98 14.2777 325 13.4346C326.427 10.0559 328.045 2.63805 333.075 4.21781Z" fill="#EDEDED" stroke="#D2D2D2"/>
<path d="M327.075 4.21781L329 4.82658L326.333 11.1639C324.873 14.6278 321.98 14.2777 319 13.4346C320.427 10.0559 322.045 2.63805 327.075 4.21781Z" fill="#EDEDED" stroke="#D2D2D2"/>
<path d="M321.075 4.21781L323 4.82658L320.333 11.1639C318.873 14.6278 315.98 14.2777 313 13.4346C314.427 10.0559 316.045 2.63805 321.075 4.21781Z" fill="#EDEDED" stroke="#D2D2D2"/>
<path d="M315.075 4.21781L317 4.82658L314.333 11.1639C312.873 14.6278 309.98 14.2777 307 13.4346C308.427 10.0559 310.045 2.63805 315.075 4.21781Z" fill="#EDEDED" stroke="#D2D2D2"/>
<path d="M309.075 4.21781L311 4.82658L308.333 11.1639C306.873 14.6278 303.98 14.2777 301 13.4346C302.427 10.0559 304.045 2.63805 309.075 4.21781Z" fill="#EDEDED" stroke="#D2D2D2"/>
<path d="M303.075 4.21781L305 4.82658L302.333 11.1639C300.873 14.6278 297.98 14.2777 295 13.4346C296.427 10.0559 298.045 2.63805 303.075 4.21781Z" fill="#EDEDED" stroke="#D2D2D2"/>
<path d="M297.075 4.21781L299 4.82658L296.333 11.1639C294.873 14.6278 291.98 14.2777 289 13.4346C290.427 10.0559 292.045 2.63805 297.075 4.21781Z" fill="#EDEDED" stroke="#D2D2D2"/>
<path d="M291.075 4.21781L293 4.82658L290.333 11.1639C288.873 14.6278 285.98 14.2777 283 13.4346C284.427 10.0559 286.045 2.63805 291.075 4.21781Z" fill="#EDEDED" stroke="#D2D2D2"/>
<path d="M285.075 4.21781L287 4.82658L284.333 11.1639C282.873 14.6278 279.98 14.2777 277 13.4346C278.427 10.0559 280.045 2.63805 285.075 4.21781Z" fill="#EDEDED" stroke="#D2D2D2"/>
<path d="M279.075 4.21781L281 4.82658L278.333 11.1639C276.873 14.6278 273.98 14.2777 271 13.4346C272.427 10.0559 274.045 2.63805 279.075 4.21781Z" fill="#EDEDED" stroke="#D2D2D2"/>
<path d="M273.075 4.21781L275 4.82658L272.333 11.1639C270.873 14.6278 267.98 14.2777 265 13.4346C266.427 10.0559 268.045 2.63805 273.075 4.21781Z" fill="#EDEDED" stroke="#D2D2D2"/>
<path d="M267.075 4.21781L269 4.82658L266.333 11.1639C264.873 14.6278 261.98 14.2777 259 13.4346C260.427 10.0559 262.045 2.63805 267.075 4.21781Z" fill="#EDEDED" stroke="#D2D2D2"/>
<path d="M261.075 4.21781L263 4.82658L260.333 11.1639C258.873 14.6278 255.98 14.2777 253 13.4346C254.427 10.0559 256.045 2.63805 261.075 4.21781Z" fill="#EDEDED" stroke="#D2D2D2"/>
<path d="M255.075 4.21781L257 4.82658L254.333 11.1639C252.873 14.6278 249.98 14.2777 247 13.4346C248.427 10.0559 250.045 2.63805 255.075 4.21781Z" fill="#EDEDED" stroke="#D2D2D2"/>
<path d="M249.075 4.21781L251 4.82658L248.333 11.1639C246.873 14.6278 243.98 14.2777 241 13.4346C242.427 10.0559 244.045 2.63805 249.075 4.21781Z" fill="#EDEDED" stroke="#D2D2D2"/>
<path d="M243.075 4.21781L245 4.82658L242.333 11.1639C240.873 14.6278 237.98 14.2777 235 13.4346C236.427 10.0559 238.045 2.63805 243.075 4.21781Z" fill="#EDEDED" stroke="#D2D2D2"/>
<path d="M237.075 4.21781L239 4.82658L236.333 11.1639C234.873 14.6278 231.98 14.2777 229 13.4346C230.427 10.0559 232.045 2.63805 237.075 4.21781Z" fill="#EDEDED" stroke="#D2D2D2"/>
<path d="M231.075 4.21781L233 4.82658L230.333 11.1639C228.873 14.6278 225.98 14.2777 223 13.4346C224.427 10.0559 226.045 2.63805 231.075 4.21781Z" fill="#EDEDED" stroke="#D2D2D2"/>
<path d="M225.075 4.21781L227 4.82658L224.333 11.1639C222.873 14.6278 219.98 14.2777 217 13.4346C218.427 10.0559 220.045 2.63805 225.075 4.21781Z" fill="#EDEDED" stroke="#D2D2D2"/>
<path d="M219.075 4.21781L221 4.82658L218.333 11.1639C216.873 14.6278 213.98 14.2777 211 13.4346C212.427 10.0559 214.045 2.63805 219.075 4.21781Z" fill="#EDEDED" stroke="#D2D2D2"/>
<path d="M213.075 4.21781L215 4.82658L212.333 11.1639C210.873 14.6278 207.98 14.2777 205 13.4346C206.427 10.0559 208.045 2.63805 213.075 4.21781Z" fill="#EDEDED" stroke="#D2D2D2"/>
<path d="M207.075 4.21781L209 4.82658L206.333 11.1639C204.873 14.6278 201.98 14.2777 199 13.4346C200.427 10.0559 202.045 2.63805 207.075 4.21781Z" fill="#EDEDED" stroke="#D2D2D2"/>
<path d="M201.075 4.21781L203 4.82658L200.333 11.1639C198.873 14.6278 195.98 14.2777 193 13.4346C194.427 10.0559 196.045 2.63805 201.075 4.21781Z" fill="#EDEDED" stroke="#D2D2D2"/>
<path d="M195.075 4.21781L197 4.82658L194.333 11.1639C192.873 14.6278 189.98 14.2777 187 13.4346C188.427 10.0559 190.045 2.63805 195.075 4.21781Z" fill="#EDEDED" stroke="#D2D2D2"/>
<path d="M189.075 4.21781L191 4.82658L188.333 11.1639C186.873 14.6278 183.98 14.2777 181 13.4346C182.427 10.0559 184.045 2.63805 189.075 4.21781Z" fill="#EDEDED" stroke="#D2D2D2"/>
<path d="M183.075 4.21781L185 4.82658L182.333 11.1639C180.873 14.6278 177.98 14.2777 175 13.4346C176.427 10.0559 178.045 2.63805 183.075 4.21781Z" fill="#EDEDED" stroke="#D2D2D2"/>
<path d="M177.075 4.21781L179 4.82658L176.333 11.1639C174.873 14.6278 171.98 14.2777 169 13.4346C170.427 10.0559 172.045 2.63805 177.075 4.21781Z" fill="#EDEDED" stroke="#D2D2D2"/>
<path d="M171.075 4.21781L173 4.82658L170.333 11.1639C168.873 14.6278 165.98 14.2777 163 13.4346C164.427 10.0559 166.045 2.63805 171.075 4.21781Z" fill="#EDEDED" stroke="#D2D2D2"/>
<path d="M165.075 4.21781L167 4.82658L164.333 11.1639C162.873 14.6278 159.98 14.2777 157 13.4346C158.427 10.0559 160.045 2.63805 165.075 4.21781Z" fill="#EDEDED" stroke="#D2D2D2"/>
<path d="M159.075 4.21781L161 4.82658L158.333 11.1639C156.873 14.6278 153.98 14.2777 151 13.4346C152.427 10.0559 154.045 2.63805 159.075 4.21781Z" fill="#EDEDED" stroke="#D2D2D2"/>
<path d="M153.075 4.21781L155 4.82658L152.333 11.1639C150.873 14.6278 147.98 14.2777 145 13.4346C146.427 10.0559 148.045 2.63805 153.075 4.21781Z" fill="#EDEDED" stroke="#D2D2D2"/>
<path d="M147.075 4.21781L149 4.82658L146.333 11.1639C144.873 14.6278 141.98 14.2777 139 13.4346C140.427 10.0559 142.045 2.63805 147.075 4.21781Z" fill="#EDEDED" stroke="#D2D2D2"/>
<path d="M141.075 4.21781L143 4.82658L140.333 11.1639C138.873 14.6278 135.98 14.2777 133 13.4346C134.427 10.0559 136.045 2.63805 141.075 4.21781Z" fill="#EDEDED" stroke="#D2D2D2"/>
<path d="M135.075 4.21781L137 4.82658L134.333 11.1639C132.873 14.6278 129.98 14.2777 127 13.4346C128.427 10.0559 130.045 2.63805 135.075 4.21781Z" fill="#EDEDED" stroke="#D2D2D2"/>
<path d="M129.075 4.21781L131 4.82658L128.333 11.1639C126.873 14.6278 123.98 14.2777 121 13.4346C122.427 10.0559 124.045 2.63805 129.075 4.21781Z" fill="#EDEDED" stroke="#D2D2D2"/>
<path d="M123.075 4.21781L125 4.82658L122.333 11.1639C120.873 14.6278 117.98 14.2777 115 13.4346C116.427 10.0559 118.045 2.63805 123.075 4.21781Z" fill="#EDEDED" stroke="#D2D2D2"/>
<path d="M117.075 4.21781L119 4.82658L116.333 11.1639C114.873 14.6278 111.98 14.2777 109 13.4346C110.427 10.0559 112.045 2.63805 117.075 4.21781Z" fill="#EDEDED" stroke="#D2D2D2"/>
<path d="M111.075 4.21781L113 4.82658L110.333 11.1639C108.873 14.6278 105.98 14.2777 103 13.4346C104.427 10.0559 106.045 2.63805 111.075 4.21781Z" fill="#EDEDED" stroke="#D2D2D2"/>
<path d="M105.075 4.21781L107 4.82658L104.333 11.1639C102.873 14.6278 99.9797 14.2777 97 13.4346C98.4273 10.0559 100.045 2.63805 105.075 4.21781Z" fill="#EDEDED" stroke="#D2D2D2"/>
<path d="M99.0751 4.21781L101 4.82658L98.3331 11.1639C96.8731 14.6278 93.9797 14.2777 91 13.4346C92.4273 10.0559 94.0453 2.63805 99.0751 4.21781Z" fill="#EDEDED" stroke="#D2D2D2"/>
<path d="M93.0751 4.21781L95 4.82658L92.3331 11.1639C90.8731 14.6278 87.9797 14.2777 85 13.4346C86.4273 10.0559 88.0453 2.63805 93.0751 4.21781Z" fill="#EDEDED" stroke="#D2D2D2"/>
<path d="M87.0751 4.21781L89 4.82658L86.3331 11.1639C84.8731 14.6278 81.9797 14.2777 79 13.4346C80.4273 10.0559 82.0453 2.63805 87.0751 4.21781Z" fill="#EDEDED" stroke="#D2D2D2"/>
<path d="M81.0751 4.21781L83 4.82658L80.3331 11.1639C78.8731 14.6278 75.9797 14.2777 73 13.4346C74.4273 10.0559 76.0453 2.63805 81.0751 4.21781Z" fill="#EDEDED" stroke="#D2D2D2"/>
<path d="M75.0751 4.21781L77 4.82658L74.3331 11.1639C72.8731 14.6278 69.9797 14.2777 67 13.4346C68.4273 10.0559 70.0453 2.63805 75.0751 4.21781Z" fill="#EDEDED" stroke="#D2D2D2"/>
<path d="M69.0751 4.21781L71 4.82658L68.3331 11.1639C66.8731 14.6278 63.9797 14.2777 61 13.4346C62.4273 10.0559 64.0453 2.63805 69.0751 4.21781Z" fill="#EDEDED" stroke="#D2D2D2"/>
<path d="M63.0751 4.21781L65 4.82658L62.3331 11.1639C60.8731 14.6278 57.9797 14.2777 55 13.4346C56.4273 10.0559 58.0453 2.63805 63.0751 4.21781Z" fill="#EDEDED" stroke="#D2D2D2"/>
<path d="M57.0751 4.21781L59 4.82658L56.3331 11.1639C54.8731 14.6278 51.9797 14.2777 49 13.4346C50.4273 10.0559 52.0453 2.63805 57.0751 4.21781Z" fill="#EDEDED" stroke="#D2D2D2"/>
<path d="M51.0751 4.21781L53 4.82658L50.3331 11.1639C48.8731 14.6278 45.9797 14.2777 43 13.4346C44.4273 10.0559 46.0453 2.63805 51.0751 4.21781Z" fill="#EDEDED" stroke="#D2D2D2"/>
<path d="M45.0751 4.21781L47 4.82658L44.3331 11.1639C42.8731 14.6278 39.9797 14.2777 37 13.4346C38.4273 10.0559 40.0453 2.63805 45.0751 4.21781Z" fill="#EDEDED" stroke="#D2D2D2"/>
<path d="M39.0751 4.21781L41 4.82658L38.3331 11.1639C36.8731 14.6278 33.9797 14.2777 31 13.4346C32.4273 10.0559 34.0453 2.63805 39.0751 4.21781Z" fill="#EDEDED" stroke="#D2D2D2"/>
<path d="M33.0751 4.21781L35 4.82658L32.3331 11.1639C30.8731 14.6278 27.9797 14.2777 25 13.4346C26.4273 10.0559 28.0453 2.63805 33.0751 4.21781Z" fill="#EDEDED" stroke="#D2D2D2"/>
<path d="M27.0751 4.21781L29 4.82658L26.3331 11.1639C24.8731 14.6278 21.9797 14.2777 19 13.4346C20.4273 10.0559 22.0453 2.63805 27.0751 4.21781Z" fill="#EDEDED" stroke="#D2D2D2"/>
<path d="M21.0751 4.21781L23 4.82658L20.3331 11.1639C18.8731 14.6278 15.9797 14.2777 13 13.4346C14.4273 10.0559 16.0453 2.63805 21.0751 4.21781Z" fill="#EDEDED" stroke="#D2D2D2"/>
<path d="M15.0751 4.21781L17 4.82658L14.3331 11.1639C12.8731 14.6278 9.97974 14.2777 7 13.4346C8.42729 10.0559 10.0453 2.63805 15.0751 4.21781Z" fill="#EDEDED" stroke="#D2D2D2"/>
<path d="M9.07508 4.21781L11 4.82658L8.33313 11.1639C6.87306 14.6278 3.97974 14.2777 1 13.4346C2.42729 10.0559 4.04529 2.63805 9.07508 4.21781Z" fill="#EDEDED" stroke="#D2D2D2"/>
<path d="M3.07508 4.21781L5 4.82658L2.33313 11.1639C0.873059 14.6278 -2.02026 14.2777 -5 13.4346C-3.57271 10.0559 -1.95471 2.63805 3.07508 4.21781Z" fill="#EDEDED" stroke="#D2D2D2"/>
</g>
<defs>
<clipPath id="clip0_206_23305">
<rect width="1164" height="18" fill="white"/>
</clipPath>
</defs>
</svg>
