<svg width="60" height="372" viewBox="0 0 60 372" fill="none" xmlns="http://www.w3.org/2000/svg">
<path d="M35.7386 3.3099L35.0081 1L27.4034 4.20024C23.2467 5.95233 23.6667 9.42431 24.6785 13C28.7329 11.2872 37.6343 9.34566 35.7386 3.3099Z" fill="#5173E3" stroke="#3551AD"/>
<path d="M35.7386 10.3099L35.0081 8L27.4034 11.2002C23.2467 12.9523 23.6667 16.4243 24.6785 20C28.7329 18.2872 37.6343 16.3457 35.7386 10.3099Z" fill="#5173E3" stroke="#3551AD"/>
<path d="M35.7386 17.3099L35.0081 15L27.4034 18.2002C23.2467 19.9523 23.6667 23.4243 24.6785 27C28.7329 25.2872 37.6343 23.3457 35.7386 17.3099Z" fill="#5173E3" stroke="#3551AD"/>
<path d="M35.7386 24.3099L35.0081 22L27.4034 25.2002C23.2467 26.9523 23.6667 30.4243 24.6785 34C28.7329 32.2872 37.6343 30.3457 35.7386 24.3099Z" fill="#5173E3" stroke="#3551AD"/>
<path d="M35.7386 31.3099L35.0081 29L27.4034 32.2002C23.2467 33.9523 23.6667 37.4243 24.6785 41C28.7329 39.2872 37.6343 37.3457 35.7386 31.3099Z" fill="#5173E3" stroke="#3551AD"/>
<path d="M35.4985 68.2769C35.0907 67.2388 34.1845 66.2006 33.0065 65.5687C31.8285 64.8916 30.4693 64.5757 29.1553 64.5757C23.2232 64.6776 21.0133 71.4316 22.6309 76.2662C22.7669 76.6725 22.9028 76.9884 22.9934 77.2141C23.084 77.4398 23.1293 77.5752 23.1293 77.5752C24.6245 77.3495 25.6666 77.0787 26.3009 76.537C30.0859 73.709 29.4815 68.2769 35.4985 68.2769Z" fill="#5173E3" stroke="#3551AD"/>
<path d="M40.5674 72.5813C40.4976 71.4687 39.9532 70.2043 39.0254 69.244C38.1114 68.2407 36.9141 67.5261 35.663 67.1261C30.2315 65.4918 24.854 70.9443 26.8061 76.1517C35.423 79.3508 35.0175 70.8069 40.5674 72.5813Z" fill="#5173E3" stroke="#3551AD"/>
<path d="M22.9896 68.9088C23.0802 68.7282 23.1708 68.5477 23.2161 68.3671C23.3521 68.0963 23.4427 67.9158 23.4427 67.9158C22.4459 67.7352 21.3132 67.8706 20.2711 68.322C19.229 68.7282 18.2322 69.4504 17.5073 70.308C14.2348 74.3832 16.4423 79.8713 20.3164 82.7659C20.4976 82.9013 20.7242 83.0367 20.9054 83.1721C21.2679 83.3978 21.5397 83.5784 21.7662 83.6686C21.9928 83.7589 22.1287 83.8041 22.1287 83.8041C23.1708 82.7208 23.7598 81.9083 23.941 80.9604C24.5598 76.8509 21.8263 73.5443 22.9896 68.9088Z" fill="#5173E3" stroke="#3551AD"/>
<path d="M34.9973 76.1308C34.9973 76.1308 35.1332 76.0856 35.3597 75.9954C35.5862 75.9051 35.9034 75.8148 36.3112 75.7697C37.1268 75.5891 38.3048 75.5891 39.5281 75.8148C40.7514 76.0405 42.02 76.537 42.9262 76.9884C43.3793 77.2141 43.7418 77.4397 44.0136 77.6203C44.2855 77.8008 44.4213 77.8911 44.4213 77.8911C44.7838 76.9432 44.8291 75.86 44.6026 74.7767C44.376 73.6934 43.8323 72.5649 43.0621 71.6622C42.2918 70.7143 41.2951 69.9921 40.2077 69.5407C39.1203 69.0894 37.9423 68.954 36.9002 69.1345C36.9002 69.1345 36.719 69.1797 36.4018 69.2248C36.0847 69.3151 35.6315 69.4053 35.1332 69.631C34.6348 69.8116 34.0458 70.0824 33.5021 70.4435C32.9584 70.8046 32.46 71.2108 32.0069 71.6622C31.1461 72.5649 30.7383 73.6482 30.6023 74.4156C30.557 74.8218 30.557 75.0926 30.6023 75.3183C30.6476 75.544 30.6477 75.6342 30.6477 75.6342C31.7351 76.4016 32.1429 76.9884 32.46 76.9884C32.5959 76.9884 32.9131 76.8981 33.2755 76.7176C33.9098 76.5821 34.4536 76.3565 34.9973 76.1308Z" fill="#5173E3" stroke="#3551AD"/>
<path d="M35.7347 59.3098L35.0042 56.9999L27.3995 60.2001C23.2428 61.9522 23.6628 65.4242 24.6746 68.9999C28.729 67.2871 37.6304 65.3455 35.7347 59.3098Z" fill="#5173E3" stroke="#3551AD"/>
<path d="M35.7347 66.3098L35.0042 63.9999L27.3995 67.2001C23.2428 68.9522 23.6628 72.4242 24.6746 75.9999C28.729 74.2871 37.6304 72.3455 35.7347 66.3098Z" fill="#5173E3" stroke="#3551AD"/>
<path d="M35.7347 73.3098L35.0042 70.9999L27.3995 74.2001C23.2428 75.9522 23.6628 79.4242 24.6746 82.9999C28.729 81.2871 37.6304 79.3455 35.7347 73.3098Z" fill="#5173E3" stroke="#3551AD"/>
<path d="M35.7347 80.3098L35.0042 77.9999L27.3995 81.2001C23.2428 82.9522 23.6628 86.4242 24.6746 89.9999C28.729 88.2871 37.6304 86.3455 35.7347 80.3098Z" fill="#5173E3" stroke="#3551AD"/>
<path d="M35.7347 87.3098L35.0042 84.9999L27.3995 88.2001C23.2428 89.9522 23.6628 93.4242 24.6746 96.9999C28.729 95.2871 37.6304 93.3455 35.7347 87.3098Z" fill="#5173E3" stroke="#3551AD"/>
<path d="M35.7347 94.3098L35.0042 91.9999L27.3995 95.2001C23.2428 96.9522 23.6628 100.424 24.6746 104C28.729 102.287 37.6304 100.346 35.7347 94.3098Z" fill="#5173E3" stroke="#3551AD"/>
<path d="M16.1474 76.8084C16.0568 76.4925 16.0114 76.3571 16.0114 76.3571C14.2897 77.3501 13.1117 79.4715 13.0664 81.7735C13.0664 87.3495 19.0829 90.4186 24.1669 89.0857C24.5747 88.9955 24.8918 88.9052 25.1184 88.8149C25.3449 88.7246 25.4809 88.6795 25.4809 88.6795C25.1738 83.4799 17.7347 82.3431 16.1474 76.8084Z" fill="#5173E3" stroke="#3551AD"/>
<path d="M25.4827 88.6347C25.4827 88.6347 25.3467 88.6798 25.1202 88.7701C24.8936 88.8604 24.5765 88.9506 24.1687 89.0409C23.3532 89.2215 22.1752 89.3569 20.9066 89.2666C20.2722 89.2215 19.6832 89.0861 19.0489 88.9055C18.4599 88.725 17.9162 88.4993 17.4178 88.3187C16.9647 88.0931 16.5569 87.8674 16.2851 87.732C16.0132 87.5514 15.832 87.4611 15.832 87.4611C15.6961 87.9576 15.6508 88.4541 15.6055 88.9958C15.6055 89.5374 15.6961 90.0791 15.8773 90.6659C16.0132 91.2075 16.2851 91.7492 16.5569 92.2457C16.8288 92.7422 17.2366 93.1935 17.6443 93.6449C18.0521 94.0512 18.5052 94.4123 19.0036 94.7282C19.502 95.0442 20.0004 95.2699 20.5441 95.4504C21.0878 95.631 21.5862 95.7212 22.1299 95.7664C22.6736 95.8115 23.172 95.7212 23.625 95.631C23.625 95.631 23.8063 95.5858 24.0781 95.4955C24.3953 95.4053 24.803 95.2699 25.3014 95.1344C26.2529 94.7733 27.4762 94.1866 28.473 93.4644C28.9714 93.1033 29.4245 92.697 29.8322 92.3359C30.24 91.9297 30.5572 91.5686 30.7837 91.2075C31.2821 90.4853 31.5086 90.0339 31.5086 90.0339C30.5118 88.9055 29.7417 88.2736 28.8355 88.0931C27.9293 87.9125 26.8872 88.0931 25.4827 88.6347Z" fill="#5173E3" stroke="#3551AD"/>
<path d="M31.5066 90.079C31.5066 90.079 31.2801 90.5304 30.7817 91.2526C30.5099 91.5685 30.1927 91.9748 29.8302 92.381C29.4225 92.7421 28.9694 93.1483 28.471 93.5094C27.4742 94.2316 26.2509 94.8184 25.2994 95.1795C24.801 95.36 24.3933 95.4955 24.0761 95.5406C23.759 95.6309 23.623 95.6309 23.623 95.6309C23.8496 96.0822 24.1667 96.4885 24.4839 96.8496C24.8463 97.2558 25.2541 97.5718 25.7072 97.8426C26.1603 98.1585 26.6586 98.3842 27.2023 98.5648C27.746 98.7453 28.2898 98.8356 28.8788 98.9259C30.0115 99.0162 31.2348 98.8356 32.2769 98.4294C33.319 97.978 34.2251 97.3461 34.8141 96.4885C34.8141 96.4885 34.9047 96.3531 35.086 96.0822C35.2672 95.8566 35.4938 95.4052 35.7203 94.9538C36.2187 94.0511 36.6718 92.7421 36.853 91.5234C37.0342 90.3047 36.9889 89.1311 36.8077 88.2735C36.7171 87.8673 36.6265 87.5062 36.5812 87.2805C36.4906 87.0548 36.4452 86.9194 36.4452 86.9194C34.9501 86.9194 33.908 87.0097 33.2284 87.461C33.0471 87.5513 32.9112 87.6867 32.73 87.8673C32.5941 88.0027 32.4581 88.1832 32.3222 88.4089C32.1863 88.5895 32.0503 88.8603 31.9144 89.1311C31.8238 89.4471 31.6879 89.7179 31.5066 90.079Z" fill="#5173E3" stroke="#3551AD"/>
<path d="M36.5335 87.0095C36.5335 87.0095 36.5788 87.1449 36.6694 87.3706C36.7147 87.5963 36.8053 87.9123 36.8959 88.3637C37.0318 89.1761 37.1224 90.3497 36.9412 91.6135C36.76 92.8322 36.3069 94.1412 35.8085 95.044C35.582 95.4953 35.3102 95.9016 35.1742 96.1724C34.993 96.4432 34.9023 96.5786 34.9023 96.5786C35.1289 96.6689 35.4008 96.7592 35.6726 96.8043C35.9445 96.8495 36.2163 96.8495 36.4881 96.8946C36.76 96.8946 37.0318 96.8946 37.349 96.8946C37.6208 96.8495 37.8927 96.8043 38.1646 96.7592C39.252 96.4884 40.3393 95.9467 41.2455 95.1794C42.1517 94.4121 42.8313 93.419 43.2391 92.426C43.6468 91.3878 43.7828 90.3046 43.6015 89.3116C43.6015 89.3116 43.5562 89.131 43.5109 88.815C43.4656 88.4991 43.3297 88.0928 43.1938 87.5963C42.8766 86.6033 42.3329 85.3846 41.608 84.3465C40.883 83.3083 39.9769 82.541 39.2973 82.0444C38.9348 81.8188 38.6629 81.6382 38.4364 81.5028C38.2099 81.3674 38.1193 81.3223 38.1193 81.3223C37.0319 82.3604 36.3975 83.1278 36.2163 83.8951C35.8538 84.5721 36.0804 85.5652 36.5335 87.0095Z" fill="#5173E3" stroke="#3551AD"/>
<path d="M43.3774 88.7247C43.4227 89.0406 43.468 89.2212 43.468 89.2212C44.3742 88.815 45.1898 88.0476 45.8241 87.0997C46.4584 86.1519 46.8208 84.9783 46.9114 83.8047C47.002 82.6312 46.8208 81.4125 46.3678 80.4194C44.4833 76.1015 41.8094 74.5937 36.1521 75.6988C35.0062 77.798 34.9501 78.614 35.3578 79.3361C37.8172 83.1474 42.4063 82.9197 43.3774 88.7247Z" fill="#5173E3" stroke="#3551AD"/>
<path d="M35.4985 47.2769C35.0907 46.2388 34.1845 45.2006 33.0065 44.5687C31.8285 43.8916 30.4693 43.5757 29.1553 43.5757C23.2232 43.6776 21.0133 50.4316 22.6309 55.2662C22.7669 55.6725 22.9028 55.9884 22.9934 56.2141C23.084 56.4398 23.1293 56.5752 23.1293 56.5752C24.6245 56.3495 25.6666 56.0787 26.3009 55.537C30.0859 52.709 29.4815 47.2769 35.4985 47.2769Z" fill="#5173E3" stroke="#3551AD"/>
<path d="M40.5674 51.5813C40.4976 50.4686 39.9532 49.2043 39.0254 48.244C38.1114 47.2407 36.9141 46.526 35.663 46.126C30.2315 44.4918 24.854 49.9442 26.8061 55.1516C35.423 58.3507 35.0175 49.8068 40.5674 51.5813Z" fill="#5173E3" stroke="#3551AD"/>
<path d="M22.9896 47.9087C23.0802 47.7282 23.1708 47.5476 23.2161 47.3671C23.3521 47.0963 23.4427 46.9157 23.4427 46.9157C22.4459 46.7352 21.3132 46.8706 20.2711 47.322C19.229 47.7282 18.2322 48.4504 17.5073 49.308C14.2348 53.3832 16.4423 58.8713 20.3164 61.7659C20.4976 61.9013 20.7242 62.0367 20.9054 62.1721C21.2679 62.3978 21.5397 62.5783 21.7662 62.6686C21.9928 62.7589 22.1287 62.804 22.1287 62.804C23.1708 61.7207 23.7598 60.9083 23.941 59.9604C24.5598 55.8509 21.8263 52.5442 22.9896 47.9087Z" fill="#5173E3" stroke="#3551AD"/>
<path d="M34.9973 55.1307C34.9973 55.1307 35.1332 55.0856 35.3597 54.9953C35.5862 54.9051 35.9034 54.8148 36.3112 54.7697C37.1268 54.5891 38.3048 54.5891 39.5281 54.8148C40.7514 55.0405 42.02 55.537 42.9262 55.9883C43.3793 56.214 43.7418 56.4397 44.0136 56.6203C44.2855 56.8008 44.4213 56.8911 44.4213 56.8911C44.7838 55.9432 44.8291 54.8599 44.6026 53.7766C44.376 52.6933 43.8323 51.5649 43.0621 50.6622C42.2918 49.7143 41.2951 48.9921 40.2077 48.5407C39.1203 48.0893 37.9423 47.9539 36.9002 48.1345C36.9002 48.1345 36.719 48.1796 36.4018 48.2248C36.0847 48.315 35.6315 48.4053 35.1332 48.631C34.6348 48.8115 34.0458 49.0823 33.5021 49.4434C32.9584 49.8045 32.46 50.2108 32.0069 50.6622C31.1461 51.5649 30.7383 52.6482 30.6023 53.4155C30.557 53.8218 30.557 54.0926 30.6023 54.3183C30.6476 54.544 30.6477 54.6342 30.6477 54.6342C31.7351 55.4016 32.1429 55.9883 32.46 55.9883C32.5959 55.9883 32.9131 55.8981 33.2755 55.7175C33.9098 55.5821 34.4536 55.3564 34.9973 55.1307Z" fill="#5173E3" stroke="#3551AD"/>
<path d="M35.7347 38.3098L35.0042 35.9999L27.3995 39.2001C23.2428 40.9522 23.6628 44.4242 24.6746 47.9999C28.729 46.2871 37.6304 44.3455 35.7347 38.3098Z" fill="#5173E3" stroke="#3551AD"/>
<path d="M35.7347 45.3098L35.0042 42.9999L27.3995 46.2001C23.2428 47.9522 23.6628 51.4242 24.6746 54.9999C28.729 53.2871 37.6304 51.3455 35.7347 45.3098Z" fill="#5173E3" stroke="#3551AD"/>
<path d="M35.7347 52.3098L35.0042 49.9999L27.3995 53.2001C23.2428 54.9522 23.6628 58.4242 24.6746 61.9999C28.729 60.2871 37.6304 58.3455 35.7347 52.3098Z" fill="#5173E3" stroke="#3551AD"/>
<path d="M35.7347 59.3098L35.0042 56.9999L27.3995 60.2001C23.2428 61.9522 23.6628 65.4242 24.6746 68.9999C28.729 67.2871 37.6304 65.3455 35.7347 59.3098Z" fill="#5173E3" stroke="#3551AD"/>
<path d="M35.7347 66.3098L35.0042 63.9999L27.3995 67.2001C23.2428 68.9522 23.6628 72.4242 24.6746 75.9999C28.729 74.2871 37.6304 72.3455 35.7347 66.3098Z" fill="#5173E3" stroke="#3551AD"/>
<path d="M35.7347 73.3098L35.0042 70.9999L27.3995 74.2001C23.2428 75.9522 23.6628 79.4242 24.6746 82.9999C28.729 81.2871 37.6304 79.3455 35.7347 73.3098Z" fill="#5173E3" stroke="#3551AD"/>
<path d="M16.1474 55.8084C16.0568 55.4924 16.0114 55.357 16.0114 55.357C14.2897 56.35 13.1117 58.4715 13.0664 60.7735C13.0664 66.3495 19.0829 69.4186 24.1669 68.0857C24.5747 67.9954 24.8918 67.9052 25.1184 67.8149C25.3449 67.7246 25.4809 67.6795 25.4809 67.6795C25.1738 62.4799 17.7347 61.343 16.1474 55.8084Z" fill="#5173E3" stroke="#3551AD"/>
<path d="M25.4827 67.6347C25.4827 67.6347 25.3467 67.6798 25.1202 67.7701C24.8936 67.8604 24.5765 67.9506 24.1687 68.0409C23.3532 68.2215 22.1752 68.3569 20.9066 68.2666C20.2722 68.2215 19.6832 68.0861 19.0489 67.9055C18.4599 67.725 17.9162 67.4993 17.4178 67.3187C16.9647 67.0931 16.5569 66.8674 16.2851 66.732C16.0132 66.5514 15.832 66.4611 15.832 66.4611C15.6961 66.9576 15.6508 67.4541 15.6055 67.9958C15.6055 68.5374 15.6961 69.0791 15.8773 69.6659C16.0132 70.2075 16.2851 70.7492 16.5569 71.2457C16.8288 71.7422 17.2366 72.1935 17.6443 72.6449C18.0521 73.0512 18.5052 73.4123 19.0036 73.7282C19.502 74.0442 20.0004 74.2699 20.5441 74.4504C21.0878 74.631 21.5862 74.7212 22.1299 74.7664C22.6736 74.8115 23.172 74.7212 23.625 74.631C23.625 74.631 23.8063 74.5858 24.0781 74.4955C24.3953 74.4053 24.803 74.2699 25.3014 74.1344C26.2529 73.7733 27.4762 73.1866 28.473 72.4644C28.9714 72.1033 29.4245 71.697 29.8322 71.3359C30.24 70.9297 30.5572 70.5686 30.7837 70.2075C31.2821 69.4853 31.5086 69.0339 31.5086 69.0339C30.5118 67.9055 29.7417 67.2736 28.8355 67.0931C27.9293 66.9125 26.8872 67.0931 25.4827 67.6347Z" fill="#5173E3" stroke="#3551AD"/>
<path d="M31.5066 69.079C31.5066 69.079 31.2801 69.5304 30.7817 70.2526C30.5099 70.5685 30.1927 70.9748 29.8302 71.381C29.4225 71.7421 28.9694 72.1483 28.471 72.5094C27.4742 73.2316 26.2509 73.8184 25.2994 74.1795C24.801 74.36 24.3933 74.4955 24.0761 74.5406C23.759 74.6309 23.623 74.6309 23.623 74.6309C23.8496 75.0822 24.1667 75.4885 24.4839 75.8496C24.8463 76.2558 25.2541 76.5718 25.7072 76.8426C26.1603 77.1585 26.6586 77.3842 27.2023 77.5648C27.746 77.7453 28.2898 77.8356 28.8788 77.9259C30.0115 78.0162 31.2348 77.8356 32.2769 77.4294C33.319 76.978 34.2251 76.3461 34.8141 75.4885C34.8141 75.4885 34.9047 75.3531 35.086 75.0822C35.2672 74.8566 35.4938 74.4052 35.7203 73.9538C36.2187 73.0511 36.6718 71.7421 36.853 70.5234C37.0342 69.3047 36.9889 68.1311 36.8077 67.2735C36.7171 66.8673 36.6265 66.5062 36.5812 66.2805C36.4906 66.0548 36.4452 65.9194 36.4452 65.9194C34.9501 65.9194 33.908 66.0097 33.2284 66.461C33.0471 66.5513 32.9112 66.6867 32.73 66.8673C32.5941 67.0027 32.4581 67.1832 32.3222 67.4089C32.1863 67.5895 32.0503 67.8603 31.9144 68.1311C31.8238 68.4471 31.6879 68.7179 31.5066 69.079Z" fill="#5173E3" stroke="#3551AD"/>
<path d="M36.5335 66.0095C36.5335 66.0095 36.5788 66.1449 36.6694 66.3706C36.7147 66.5963 36.8053 66.9123 36.8959 67.3636C37.0318 68.1761 37.1224 69.3497 36.9412 70.6135C36.76 71.8322 36.3069 73.1412 35.8085 74.0439C35.582 74.4953 35.3102 74.9015 35.1742 75.1724C34.993 75.4432 34.9023 75.5786 34.9023 75.5786C35.1289 75.6689 35.4008 75.7592 35.6726 75.8043C35.9445 75.8494 36.2163 75.8494 36.4881 75.8946C36.76 75.8946 37.0318 75.8946 37.349 75.8946C37.6208 75.8494 37.8927 75.8043 38.1646 75.7592C39.252 75.4883 40.3393 74.9467 41.2455 74.1794C42.1517 73.412 42.8313 72.419 43.2391 71.426C43.6468 70.3878 43.7828 69.3045 43.6015 68.3115C43.6015 68.3115 43.5562 68.131 43.5109 67.815C43.4656 67.499 43.3297 67.0928 43.1938 66.5963C42.8766 65.6033 42.3329 64.3846 41.608 63.3464C40.883 62.3083 39.9769 61.5409 39.2973 61.0444C38.9348 60.8187 38.6629 60.6382 38.4364 60.5028C38.2099 60.3674 38.1193 60.3222 38.1193 60.3222C37.0319 61.3604 36.3975 62.1277 36.2163 62.8951C35.8538 63.5721 36.0804 64.5651 36.5335 66.0095Z" fill="#5173E3" stroke="#3551AD"/>
<path d="M43.3774 67.7247C43.4227 68.0406 43.468 68.2212 43.468 68.2212C44.3742 67.815 45.1898 67.0476 45.8241 66.0997C46.4584 65.1519 46.8208 63.9783 46.9114 62.8047C47.002 61.6312 46.8208 60.4125 46.3678 59.4194C44.4833 55.1015 41.8094 53.5937 36.1521 54.6988C35.0062 56.798 34.9501 57.614 35.3578 58.3361C37.8172 62.1474 42.4063 61.9197 43.3774 67.7247Z" fill="#5173E3" stroke="#3551AD"/>
<path d="M35.7386 101.31L35.0081 99L27.4034 102.2C23.2467 103.952 23.6667 107.424 24.6785 111C28.7329 109.287 37.6343 107.346 35.7386 101.31Z" fill="#5173E3" stroke="#3551AD"/>
<path d="M35.7386 108.31L35.0081 106L27.4034 109.2C23.2467 110.952 23.6667 114.424 24.6785 118C28.7329 116.287 37.6343 114.346 35.7386 108.31Z" fill="#5173E3" stroke="#3551AD"/>
<path d="M35.7386 115.31L35.0081 113L27.4034 116.2C23.2467 117.952 23.6667 121.424 24.6785 125C28.7329 123.287 37.6343 121.346 35.7386 115.31Z" fill="#5173E3" stroke="#3551AD"/>
<path d="M35.7386 122.31L35.0081 120L27.4034 123.2C23.2467 124.952 23.6667 128.424 24.6785 132C28.7329 130.287 37.6343 128.346 35.7386 122.31Z" fill="#5173E3" stroke="#3551AD"/>
<path d="M35.7386 129.31L35.0081 127L27.4034 130.2C23.2467 131.952 23.6667 135.424 24.6785 139C28.7329 137.287 37.6343 135.346 35.7386 129.31Z" fill="#5173E3" stroke="#3551AD"/>
<path d="M35.4985 166.277C35.0907 165.239 34.1845 164.201 33.0065 163.569C31.8285 162.892 30.4693 162.576 29.1553 162.576C23.2232 162.678 21.0133 169.432 22.6309 174.266C22.7669 174.672 22.9028 174.988 22.9934 175.214C23.084 175.44 23.1293 175.575 23.1293 175.575C24.6245 175.35 25.6666 175.079 26.3009 174.537C30.0859 171.709 29.4815 166.277 35.4985 166.277Z" fill="#5173E3" stroke="#3551AD"/>
<path d="M40.5674 170.581C40.4976 169.469 39.9532 168.204 39.0254 167.244C38.1114 166.241 36.9141 165.526 35.663 165.126C30.2315 163.492 24.854 168.944 26.8061 174.152C35.423 177.351 35.0175 168.807 40.5674 170.581Z" fill="#5173E3" stroke="#3551AD"/>
<path d="M22.9896 166.909C23.0802 166.728 23.1708 166.548 23.2161 166.367C23.3521 166.096 23.4427 165.916 23.4427 165.916C22.4459 165.735 21.3132 165.871 20.2711 166.322C19.229 166.728 18.2322 167.45 17.5073 168.308C14.2348 172.383 16.4423 177.871 20.3164 180.766C20.4976 180.901 20.7242 181.037 20.9054 181.172C21.2679 181.398 21.5397 181.578 21.7662 181.669C21.9928 181.759 22.1287 181.804 22.1287 181.804C23.1708 180.721 23.7598 179.908 23.941 178.96C24.5598 174.851 21.8263 171.544 22.9896 166.909Z" fill="#5173E3" stroke="#3551AD"/>
<path d="M34.9973 174.131C34.9973 174.131 35.1332 174.086 35.3597 173.995C35.5862 173.905 35.9034 173.815 36.3112 173.77C37.1268 173.589 38.3048 173.589 39.5281 173.815C40.7514 174.04 42.02 174.537 42.9262 174.988C43.3793 175.214 43.7418 175.44 44.0136 175.62C44.2855 175.801 44.4213 175.891 44.4213 175.891C44.7838 174.943 44.8291 173.86 44.6026 172.777C44.376 171.693 43.8323 170.565 43.0621 169.662C42.2918 168.714 41.2951 167.992 40.2077 167.541C39.1203 167.089 37.9423 166.954 36.9002 167.135C36.9002 167.135 36.719 167.18 36.4018 167.225C36.0847 167.315 35.6315 167.405 35.1332 167.631C34.6348 167.812 34.0458 168.082 33.5021 168.443C32.9584 168.805 32.46 169.211 32.0069 169.662C31.1461 170.565 30.7383 171.648 30.6023 172.416C30.557 172.822 30.557 173.093 30.6023 173.318C30.6476 173.544 30.6477 173.634 30.6477 173.634C31.7351 174.402 32.1429 174.988 32.46 174.988C32.5959 174.988 32.9131 174.898 33.2755 174.718C33.9098 174.582 34.4536 174.356 34.9973 174.131Z" fill="#5173E3" stroke="#3551AD"/>
<path d="M35.7347 157.31L35.0042 155L27.3995 158.2C23.2428 159.952 23.6628 163.424 24.6746 167C28.729 165.287 37.6304 163.346 35.7347 157.31Z" fill="#5173E3" stroke="#3551AD"/>
<path d="M35.7347 164.31L35.0042 162L27.3995 165.2C23.2428 166.952 23.6628 170.424 24.6746 174C28.729 172.287 37.6304 170.346 35.7347 164.31Z" fill="#5173E3" stroke="#3551AD"/>
<path d="M35.7347 171.31L35.0042 169L27.3995 172.2C23.2428 173.952 23.6628 177.424 24.6746 181C28.729 179.287 37.6304 177.346 35.7347 171.31Z" fill="#5173E3" stroke="#3551AD"/>
<path d="M35.7347 178.31L35.0042 176L27.3995 179.2C23.2428 180.952 23.6628 184.424 24.6746 188C28.729 186.287 37.6304 184.346 35.7347 178.31Z" fill="#5173E3" stroke="#3551AD"/>
<path d="M35.7347 185.31L35.0042 183L27.3995 186.2C23.2428 187.952 23.6628 191.424 24.6746 195C28.729 193.287 37.6304 191.346 35.7347 185.31Z" fill="#5173E3" stroke="#3551AD"/>
<path d="M35.7347 192.31L35.0042 190L27.3995 193.2C23.2428 194.952 23.6628 198.424 24.6746 202C28.729 200.287 37.6304 198.346 35.7347 192.31Z" fill="#5173E3" stroke="#3551AD"/>
<path d="M16.1474 174.808C16.0568 174.492 16.0114 174.357 16.0114 174.357C14.2897 175.35 13.1117 177.472 13.0664 179.774C13.0664 185.35 19.0829 188.419 24.1669 187.086C24.5747 186.995 24.8918 186.905 25.1184 186.815C25.3449 186.725 25.4809 186.68 25.4809 186.68C25.1738 181.48 17.7347 180.343 16.1474 174.808Z" fill="#5173E3" stroke="#3551AD"/>
<path d="M25.4827 186.635C25.4827 186.635 25.3467 186.68 25.1202 186.77C24.8936 186.86 24.5765 186.951 24.1687 187.041C23.3532 187.221 22.1752 187.357 20.9066 187.267C20.2722 187.221 19.6832 187.086 19.0489 186.906C18.4599 186.725 17.9162 186.499 17.4178 186.319C16.9647 186.093 16.5569 185.867 16.2851 185.732C16.0132 185.551 15.832 185.461 15.832 185.461C15.6961 185.958 15.6508 186.454 15.6055 186.996C15.6055 187.537 15.6961 188.079 15.8773 188.666C16.0132 189.208 16.2851 189.749 16.5569 190.246C16.8288 190.742 17.2366 191.194 17.6443 191.645C18.0521 192.051 18.5052 192.412 19.0036 192.728C19.502 193.044 20.0004 193.27 20.5441 193.45C21.0878 193.631 21.5862 193.721 22.1299 193.766C22.6736 193.812 23.172 193.721 23.625 193.631C23.625 193.631 23.8063 193.586 24.0781 193.496C24.3953 193.405 24.803 193.27 25.3014 193.134C26.2529 192.773 27.4762 192.187 28.473 191.464C28.9714 191.103 29.4245 190.697 29.8322 190.336C30.24 189.93 30.5572 189.569 30.7837 189.208C31.2821 188.485 31.5086 188.034 31.5086 188.034C30.5118 186.906 29.7417 186.274 28.8355 186.093C27.9293 185.913 26.8872 186.093 25.4827 186.635Z" fill="#5173E3" stroke="#3551AD"/>
<path d="M31.5066 188.079C31.5066 188.079 31.2801 188.53 30.7817 189.253C30.5099 189.569 30.1927 189.975 29.8302 190.381C29.4225 190.742 28.9694 191.148 28.471 191.509C27.4742 192.232 26.2509 192.818 25.2994 193.179C24.801 193.36 24.3933 193.495 24.0761 193.541C23.759 193.631 23.623 193.631 23.623 193.631C23.8496 194.082 24.1667 194.488 24.4839 194.85C24.8463 195.256 25.2541 195.572 25.7072 195.843C26.1603 196.159 26.6586 196.384 27.2023 196.565C27.746 196.745 28.2898 196.836 28.8788 196.926C30.0115 197.016 31.2348 196.836 32.2769 196.429C33.319 195.978 34.2251 195.346 34.8141 194.488C34.8141 194.488 34.9047 194.353 35.086 194.082C35.2672 193.857 35.4938 193.405 35.7203 192.954C36.2187 192.051 36.6718 190.742 36.853 189.523C37.0342 188.305 36.9889 187.131 36.8077 186.273C36.7171 185.867 36.6265 185.506 36.5812 185.28C36.4906 185.055 36.4452 184.919 36.4452 184.919C34.9501 184.919 33.908 185.01 33.2284 185.461C33.0471 185.551 32.9112 185.687 32.73 185.867C32.5941 186.003 32.4581 186.183 32.3222 186.409C32.1863 186.589 32.0503 186.86 31.9144 187.131C31.8238 187.447 31.6879 187.718 31.5066 188.079Z" fill="#5173E3" stroke="#3551AD"/>
<path d="M36.5335 185.01C36.5335 185.01 36.5788 185.145 36.6694 185.371C36.7147 185.596 36.8053 185.912 36.8959 186.364C37.0318 187.176 37.1224 188.35 36.9412 189.614C36.76 190.832 36.3069 192.141 35.8085 193.044C35.582 193.495 35.3102 193.902 35.1742 194.172C34.993 194.443 34.9023 194.579 34.9023 194.579C35.1289 194.669 35.4008 194.759 35.6726 194.804C35.9445 194.849 36.2163 194.849 36.4881 194.895C36.76 194.895 37.0318 194.895 37.349 194.895C37.6208 194.849 37.8927 194.804 38.1646 194.759C39.252 194.488 40.3393 193.947 41.2455 193.179C42.1517 192.412 42.8313 191.419 43.2391 190.426C43.6468 189.388 43.7828 188.305 43.6015 187.312C43.6015 187.312 43.5562 187.131 43.5109 186.815C43.4656 186.499 43.3297 186.093 43.1938 185.596C42.8766 184.603 42.3329 183.385 41.608 182.346C40.883 181.308 39.9769 180.541 39.2973 180.044C38.9348 179.819 38.6629 179.638 38.4364 179.503C38.2099 179.367 38.1193 179.322 38.1193 179.322C37.0319 180.36 36.3975 181.128 36.2163 181.895C35.8538 182.572 36.0804 183.565 36.5335 185.01Z" fill="#5173E3" stroke="#3551AD"/>
<path d="M43.3774 186.725C43.4227 187.041 43.468 187.221 43.468 187.221C44.3742 186.815 45.1898 186.048 45.8241 185.1C46.4584 184.152 46.8208 182.978 46.9114 181.805C47.002 180.631 46.8208 179.412 46.3678 178.419C44.4833 174.101 41.8094 172.594 36.1521 173.699C35.0062 175.798 34.9501 176.614 35.3578 177.336C37.8172 181.147 42.4063 180.92 43.3774 186.725Z" fill="#5173E3" stroke="#3551AD"/>
<path d="M35.4985 145.277C35.0907 144.239 34.1845 143.201 33.0065 142.569C31.8285 141.892 30.4693 141.576 29.1553 141.576C23.2232 141.678 21.0133 148.432 22.6309 153.266C22.7669 153.672 22.9028 153.988 22.9934 154.214C23.084 154.44 23.1293 154.575 23.1293 154.575C24.6245 154.35 25.6666 154.079 26.3009 153.537C30.0859 150.709 29.4815 145.277 35.4985 145.277Z" fill="#5173E3" stroke="#3551AD"/>
<path d="M40.5674 149.581C40.4976 148.469 39.9532 147.204 39.0254 146.244C38.1114 145.241 36.9141 144.526 35.663 144.126C30.2315 142.492 24.854 147.944 26.8061 153.152C35.423 156.351 35.0175 147.807 40.5674 149.581Z" fill="#5173E3" stroke="#3551AD"/>
<path d="M22.9896 145.909C23.0802 145.728 23.1708 145.548 23.2161 145.367C23.3521 145.096 23.4427 144.916 23.4427 144.916C22.4459 144.735 21.3132 144.871 20.2711 145.322C19.229 145.728 18.2322 146.45 17.5073 147.308C14.2348 151.383 16.4423 156.871 20.3164 159.766C20.4976 159.901 20.7242 160.037 20.9054 160.172C21.2679 160.398 21.5397 160.578 21.7662 160.669C21.9928 160.759 22.1287 160.804 22.1287 160.804C23.1708 159.721 23.7598 158.908 23.941 157.96C24.5598 153.851 21.8263 150.544 22.9896 145.909Z" fill="#5173E3" stroke="#3551AD"/>
<path d="M34.9973 153.131C34.9973 153.131 35.1332 153.086 35.3597 152.995C35.5862 152.905 35.9034 152.815 36.3112 152.77C37.1268 152.589 38.3048 152.589 39.5281 152.815C40.7514 153.04 42.02 153.537 42.9262 153.988C43.3793 154.214 43.7418 154.44 44.0136 154.62C44.2855 154.801 44.4213 154.891 44.4213 154.891C44.7838 153.943 44.8291 152.86 44.6026 151.777C44.376 150.693 43.8323 149.565 43.0621 148.662C42.2918 147.714 41.2951 146.992 40.2077 146.541C39.1203 146.089 37.9423 145.954 36.9002 146.135C36.9002 146.135 36.719 146.18 36.4018 146.225C36.0847 146.315 35.6315 146.405 35.1332 146.631C34.6348 146.812 34.0458 147.082 33.5021 147.443C32.9584 147.805 32.46 148.211 32.0069 148.662C31.1461 149.565 30.7383 150.648 30.6023 151.416C30.557 151.822 30.557 152.093 30.6023 152.318C30.6476 152.544 30.6477 152.634 30.6477 152.634C31.7351 153.402 32.1429 153.988 32.46 153.988C32.5959 153.988 32.9131 153.898 33.2755 153.718C33.9098 153.582 34.4536 153.356 34.9973 153.131Z" fill="#5173E3" stroke="#3551AD"/>
<path d="M35.7347 136.31L35.0042 134L27.3995 137.2C23.2428 138.952 23.6628 142.424 24.6746 146C28.729 144.287 37.6304 142.346 35.7347 136.31Z" fill="#5173E3" stroke="#3551AD"/>
<path d="M35.7347 143.31L35.0042 141L27.3995 144.2C23.2428 145.952 23.6628 149.424 24.6746 153C28.729 151.287 37.6304 149.346 35.7347 143.31Z" fill="#5173E3" stroke="#3551AD"/>
<path d="M35.7347 150.31L35.0042 148L27.3995 151.2C23.2428 152.952 23.6628 156.424 24.6746 160C28.729 158.287 37.6304 156.346 35.7347 150.31Z" fill="#5173E3" stroke="#3551AD"/>
<path d="M35.7347 157.31L35.0042 155L27.3995 158.2C23.2428 159.952 23.6628 163.424 24.6746 167C28.729 165.287 37.6304 163.346 35.7347 157.31Z" fill="#5173E3" stroke="#3551AD"/>
<path d="M35.7347 164.31L35.0042 162L27.3995 165.2C23.2428 166.952 23.6628 170.424 24.6746 174C28.729 172.287 37.6304 170.346 35.7347 164.31Z" fill="#5173E3" stroke="#3551AD"/>
<path d="M35.7347 171.31L35.0042 169L27.3995 172.2C23.2428 173.952 23.6628 177.424 24.6746 181C28.729 179.287 37.6304 177.346 35.7347 171.31Z" fill="#5173E3" stroke="#3551AD"/>
<path d="M16.1474 153.808C16.0568 153.492 16.0114 153.357 16.0114 153.357C14.2897 154.35 13.1117 156.472 13.0664 158.774C13.0664 164.35 19.0829 167.419 24.1669 166.086C24.5747 165.995 24.8918 165.905 25.1184 165.815C25.3449 165.725 25.4809 165.68 25.4809 165.68C25.1738 160.48 17.7347 159.343 16.1474 153.808Z" fill="#5173E3" stroke="#3551AD"/>
<path d="M25.4827 165.635C25.4827 165.635 25.3467 165.68 25.1202 165.77C24.8936 165.86 24.5765 165.951 24.1687 166.041C23.3532 166.221 22.1752 166.357 20.9066 166.267C20.2722 166.221 19.6832 166.086 19.0489 165.906C18.4599 165.725 17.9162 165.499 17.4178 165.319C16.9647 165.093 16.5569 164.867 16.2851 164.732C16.0132 164.551 15.832 164.461 15.832 164.461C15.6961 164.958 15.6508 165.454 15.6055 165.996C15.6055 166.537 15.6961 167.079 15.8773 167.666C16.0132 168.208 16.2851 168.749 16.5569 169.246C16.8288 169.742 17.2366 170.194 17.6443 170.645C18.0521 171.051 18.5052 171.412 19.0036 171.728C19.502 172.044 20.0004 172.27 20.5441 172.45C21.0878 172.631 21.5862 172.721 22.1299 172.766C22.6736 172.812 23.172 172.721 23.625 172.631C23.625 172.631 23.8063 172.586 24.0781 172.496C24.3953 172.405 24.803 172.27 25.3014 172.134C26.2529 171.773 27.4762 171.187 28.473 170.464C28.9714 170.103 29.4245 169.697 29.8322 169.336C30.24 168.93 30.5572 168.569 30.7837 168.208C31.2821 167.485 31.5086 167.034 31.5086 167.034C30.5118 165.906 29.7417 165.274 28.8355 165.093C27.9293 164.913 26.8872 165.093 25.4827 165.635Z" fill="#5173E3" stroke="#3551AD"/>
<path d="M31.5066 167.079C31.5066 167.079 31.2801 167.53 30.7817 168.253C30.5099 168.569 30.1927 168.975 29.8302 169.381C29.4225 169.742 28.9694 170.148 28.471 170.509C27.4742 171.232 26.2509 171.818 25.2994 172.179C24.801 172.36 24.3933 172.495 24.0761 172.541C23.759 172.631 23.623 172.631 23.623 172.631C23.8496 173.082 24.1667 173.488 24.4839 173.85C24.8463 174.256 25.2541 174.572 25.7072 174.843C26.1603 175.159 26.6586 175.384 27.2023 175.565C27.746 175.745 28.2898 175.836 28.8788 175.926C30.0115 176.016 31.2348 175.836 32.2769 175.429C33.319 174.978 34.2251 174.346 34.8141 173.488C34.8141 173.488 34.9047 173.353 35.086 173.082C35.2672 172.857 35.4938 172.405 35.7203 171.954C36.2187 171.051 36.6718 169.742 36.853 168.523C37.0342 167.305 36.9889 166.131 36.8077 165.273C36.7171 164.867 36.6265 164.506 36.5812 164.28C36.4906 164.055 36.4452 163.919 36.4452 163.919C34.9501 163.919 33.908 164.01 33.2284 164.461C33.0471 164.551 32.9112 164.687 32.73 164.867C32.5941 165.003 32.4581 165.183 32.3222 165.409C32.1863 165.589 32.0503 165.86 31.9144 166.131C31.8238 166.447 31.6879 166.718 31.5066 167.079Z" fill="#5173E3" stroke="#3551AD"/>
<path d="M36.5335 164.01C36.5335 164.01 36.5788 164.145 36.6694 164.371C36.7147 164.596 36.8053 164.912 36.8959 165.364C37.0318 166.176 37.1224 167.35 36.9412 168.614C36.76 169.832 36.3069 171.141 35.8085 172.044C35.582 172.495 35.3102 172.902 35.1742 173.172C34.993 173.443 34.9023 173.579 34.9023 173.579C35.1289 173.669 35.4008 173.759 35.6726 173.804C35.9445 173.849 36.2163 173.849 36.4881 173.895C36.76 173.895 37.0318 173.895 37.349 173.895C37.6208 173.849 37.8927 173.804 38.1646 173.759C39.252 173.488 40.3393 172.947 41.2455 172.179C42.1517 171.412 42.8313 170.419 43.2391 169.426C43.6468 168.388 43.7828 167.305 43.6015 166.312C43.6015 166.312 43.5562 166.131 43.5109 165.815C43.4656 165.499 43.3297 165.093 43.1938 164.596C42.8766 163.603 42.3329 162.385 41.608 161.346C40.883 160.308 39.9769 159.541 39.2973 159.044C38.9348 158.819 38.6629 158.638 38.4364 158.503C38.2099 158.367 38.1193 158.322 38.1193 158.322C37.0319 159.36 36.3975 160.128 36.2163 160.895C35.8538 161.572 36.0804 162.565 36.5335 164.01Z" fill="#5173E3" stroke="#3551AD"/>
<path d="M43.3774 165.725C43.4227 166.041 43.468 166.221 43.468 166.221C44.3742 165.815 45.1898 165.048 45.8241 164.1C46.4584 163.152 46.8208 161.978 46.9114 160.805C47.002 159.631 46.8208 158.412 46.3678 157.419C44.4833 153.101 41.8094 151.594 36.1521 152.699C35.0062 154.798 34.9501 155.614 35.3578 156.336C37.8172 160.147 42.4063 159.92 43.3774 165.725Z" fill="#5173E3" stroke="#3551AD"/>
<path d="M35.7386 199.31L35.0081 197L27.4034 200.2C23.2467 201.952 23.6667 205.424 24.6785 209C28.7329 207.287 37.6343 205.346 35.7386 199.31Z" fill="#5173E3" stroke="#3551AD"/>
<path d="M35.7386 206.31L35.0081 204L27.4034 207.2C23.2467 208.952 23.6667 212.424 24.6785 216C28.7329 214.287 37.6343 212.346 35.7386 206.31Z" fill="#5173E3" stroke="#3551AD"/>
<path d="M35.7386 213.31L35.0081 211L27.4034 214.2C23.2467 215.952 23.6667 219.424 24.6785 223C28.7329 221.287 37.6343 219.346 35.7386 213.31Z" fill="#5173E3" stroke="#3551AD"/>
<path d="M35.7386 220.31L35.0081 218L27.4034 221.2C23.2467 222.952 23.6667 226.424 24.6785 230C28.7329 228.287 37.6343 226.346 35.7386 220.31Z" fill="#5173E3" stroke="#3551AD"/>
<path d="M35.4985 236.277C35.0907 235.239 34.1845 234.201 33.0065 233.569C31.8285 232.892 30.4693 232.576 29.1553 232.576C23.2232 232.678 21.0133 239.432 22.6309 244.266C22.7669 244.672 22.9028 244.988 22.9934 245.214C23.084 245.44 23.1293 245.575 23.1293 245.575C24.6245 245.35 25.6666 245.079 26.3009 244.537C30.0859 241.709 29.4815 236.277 35.4985 236.277Z" fill="#5173E3" stroke="#3551AD"/>
<path d="M40.5674 240.581C40.4976 239.469 39.9532 238.204 39.0254 237.244C38.1114 236.241 36.9141 235.526 35.663 235.126C30.2315 233.492 24.854 238.944 26.8061 244.152C35.423 247.351 35.0175 238.807 40.5674 240.581Z" fill="#5173E3" stroke="#3551AD"/>
<path d="M22.9896 236.909C23.0802 236.728 23.1708 236.548 23.2161 236.367C23.3521 236.096 23.4427 235.916 23.4427 235.916C22.4459 235.735 21.3132 235.871 20.2711 236.322C19.229 236.728 18.2322 237.45 17.5073 238.308C14.2348 242.383 16.4423 247.871 20.3164 250.766C20.4976 250.901 20.7242 251.037 20.9054 251.172C21.2679 251.398 21.5397 251.578 21.7662 251.669C21.9928 251.759 22.1287 251.804 22.1287 251.804C23.1708 250.721 23.7598 249.908 23.941 248.96C24.5598 244.851 21.8263 241.544 22.9896 236.909Z" fill="#5173E3" stroke="#3551AD"/>
<path d="M34.9973 244.131C34.9973 244.131 35.1332 244.086 35.3597 243.995C35.5862 243.905 35.9034 243.815 36.3112 243.77C37.1268 243.589 38.3048 243.589 39.5281 243.815C40.7514 244.04 42.02 244.537 42.9262 244.988C43.3793 245.214 43.7418 245.44 44.0136 245.62C44.2855 245.801 44.4213 245.891 44.4213 245.891C44.7838 244.943 44.8291 243.86 44.6026 242.777C44.376 241.693 43.8323 240.565 43.0621 239.662C42.2918 238.714 41.2951 237.992 40.2077 237.541C39.1203 237.089 37.9423 236.954 36.9002 237.135C36.9002 237.135 36.719 237.18 36.4018 237.225C36.0847 237.315 35.6315 237.405 35.1332 237.631C34.6348 237.812 34.0458 238.082 33.5021 238.443C32.9584 238.805 32.46 239.211 32.0069 239.662C31.1461 240.565 30.7383 241.648 30.6023 242.416C30.557 242.822 30.557 243.093 30.6023 243.318C30.6476 243.544 30.6477 243.634 30.6477 243.634C31.7351 244.402 32.1429 244.988 32.46 244.988C32.5959 244.988 32.9131 244.898 33.2755 244.718C33.9098 244.582 34.4536 244.356 34.9973 244.131Z" fill="#5173E3" stroke="#3551AD"/>
<path d="M35.7347 227.31L35.0042 225L27.3995 228.2C23.2428 229.952 23.6628 233.424 24.6746 237C28.729 235.287 37.6304 233.346 35.7347 227.31Z" fill="#5173E3" stroke="#3551AD"/>
<path d="M35.7347 234.31L35.0042 232L27.3995 235.2C23.2428 236.952 23.6628 240.424 24.6746 244C28.729 242.287 37.6304 240.346 35.7347 234.31Z" fill="#5173E3" stroke="#3551AD"/>
<path d="M35.7347 241.31L35.0042 239L27.3995 242.2C23.2428 243.952 23.6628 247.424 24.6746 251C28.729 249.287 37.6304 247.346 35.7347 241.31Z" fill="#5173E3" stroke="#3551AD"/>
<path d="M35.7347 248.31L35.0042 246L27.3995 249.2C23.2428 250.952 23.6628 254.424 24.6746 258C28.729 256.287 37.6304 254.346 35.7347 248.31Z" fill="#5173E3" stroke="#3551AD"/>
<path d="M35.7347 255.31L35.0042 253L27.3995 256.2C23.2428 257.952 23.6628 261.424 24.6746 265C28.729 263.287 37.6304 261.346 35.7347 255.31Z" fill="#5173E3" stroke="#3551AD"/>
<path d="M35.7347 262.31L35.0042 260L27.3995 263.2C23.2428 264.952 23.6628 268.424 24.6746 272C28.729 270.287 37.6304 268.346 35.7347 262.31Z" fill="#5173E3" stroke="#3551AD"/>
<path d="M16.1474 244.808C16.0568 244.492 16.0114 244.357 16.0114 244.357C14.2897 245.35 13.1117 247.472 13.0664 249.774C13.0664 255.35 19.0829 258.419 24.1669 257.086C24.5747 256.995 24.8918 256.905 25.1184 256.815C25.3449 256.725 25.4809 256.68 25.4809 256.68C25.1738 251.48 17.7347 250.343 16.1474 244.808Z" fill="#5173E3" stroke="#3551AD"/>
<path d="M25.4827 256.635C25.4827 256.635 25.3467 256.68 25.1202 256.77C24.8936 256.86 24.5765 256.951 24.1687 257.041C23.3532 257.221 22.1752 257.357 20.9066 257.267C20.2722 257.221 19.6832 257.086 19.0489 256.906C18.4599 256.725 17.9162 256.499 17.4178 256.319C16.9647 256.093 16.5569 255.867 16.2851 255.732C16.0132 255.551 15.832 255.461 15.832 255.461C15.6961 255.958 15.6508 256.454 15.6055 256.996C15.6055 257.537 15.6961 258.079 15.8773 258.666C16.0132 259.208 16.2851 259.749 16.5569 260.246C16.8288 260.742 17.2366 261.194 17.6443 261.645C18.0521 262.051 18.5052 262.412 19.0036 262.728C19.502 263.044 20.0004 263.27 20.5441 263.45C21.0878 263.631 21.5862 263.721 22.1299 263.766C22.6736 263.812 23.172 263.721 23.625 263.631C23.625 263.631 23.8063 263.586 24.0781 263.496C24.3953 263.405 24.803 263.27 25.3014 263.134C26.2529 262.773 27.4762 262.187 28.473 261.464C28.9714 261.103 29.4245 260.697 29.8322 260.336C30.24 259.93 30.5572 259.569 30.7837 259.208C31.2821 258.485 31.5086 258.034 31.5086 258.034C30.5118 256.906 29.7417 256.274 28.8355 256.093C27.9293 255.913 26.8872 256.093 25.4827 256.635Z" fill="#5173E3" stroke="#3551AD"/>
<path d="M31.5066 258.079C31.5066 258.079 31.2801 258.53 30.7817 259.253C30.5099 259.569 30.1927 259.975 29.8302 260.381C29.4225 260.742 28.9694 261.148 28.471 261.509C27.4742 262.232 26.2509 262.818 25.2994 263.179C24.801 263.36 24.3933 263.495 24.0761 263.541C23.759 263.631 23.623 263.631 23.623 263.631C23.8496 264.082 24.1667 264.488 24.4839 264.85C24.8463 265.256 25.2541 265.572 25.7072 265.843C26.1603 266.159 26.6586 266.384 27.2023 266.565C27.746 266.745 28.2898 266.836 28.8788 266.926C30.0115 267.016 31.2348 266.836 32.2769 266.429C33.319 265.978 34.2251 265.346 34.8141 264.488C34.8141 264.488 34.9047 264.353 35.086 264.082C35.2672 263.857 35.4938 263.405 35.7203 262.954C36.2187 262.051 36.6718 260.742 36.853 259.523C37.0342 258.305 36.9889 257.131 36.8077 256.273C36.7171 255.867 36.6265 255.506 36.5812 255.28C36.4906 255.055 36.4452 254.919 36.4452 254.919C34.9501 254.919 33.908 255.01 33.2284 255.461C33.0471 255.551 32.9112 255.687 32.73 255.867C32.5941 256.003 32.4581 256.183 32.3222 256.409C32.1863 256.589 32.0503 256.86 31.9144 257.131C31.8238 257.447 31.6879 257.718 31.5066 258.079Z" fill="#5173E3" stroke="#3551AD"/>
<path d="M36.5335 255.01C36.5335 255.01 36.5788 255.145 36.6694 255.371C36.7147 255.596 36.8053 255.912 36.8959 256.364C37.0318 257.176 37.1224 258.35 36.9412 259.614C36.76 260.832 36.3069 262.141 35.8085 263.044C35.582 263.495 35.3102 263.902 35.1742 264.172C34.993 264.443 34.9023 264.579 34.9023 264.579C35.1289 264.669 35.4008 264.759 35.6726 264.804C35.9445 264.849 36.2163 264.849 36.4881 264.895C36.76 264.895 37.0318 264.895 37.349 264.895C37.6208 264.849 37.8927 264.804 38.1646 264.759C39.252 264.488 40.3393 263.947 41.2455 263.179C42.1517 262.412 42.8313 261.419 43.2391 260.426C43.6468 259.388 43.7828 258.305 43.6015 257.312C43.6015 257.312 43.5562 257.131 43.5109 256.815C43.4656 256.499 43.3297 256.093 43.1938 255.596C42.8766 254.603 42.3329 253.385 41.608 252.346C40.883 251.308 39.9769 250.541 39.2973 250.044C38.9348 249.819 38.6629 249.638 38.4364 249.503C38.2099 249.367 38.1193 249.322 38.1193 249.322C37.0319 250.36 36.3975 251.128 36.2163 251.895C35.8538 252.572 36.0804 253.565 36.5335 255.01Z" fill="#5173E3" stroke="#3551AD"/>
<path d="M43.3774 256.725C43.4227 257.041 43.468 257.221 43.468 257.221C44.3742 256.815 45.1898 256.048 45.8241 255.1C46.4584 254.152 46.8208 252.978 46.9114 251.805C47.002 250.631 46.8208 249.412 46.3678 248.419C44.4833 244.101 41.8094 242.594 36.1521 243.699C35.0062 245.798 34.9501 246.614 35.3578 247.336C37.8172 251.147 42.4063 250.92 43.3774 256.725Z" fill="#5173E3" stroke="#3551AD"/>
<path d="M35.7386 269.31L35.0081 267L27.4034 270.2C23.2467 271.952 23.6667 275.424 24.6785 279C28.7329 277.287 37.6343 275.346 35.7386 269.31Z" fill="#5173E3" stroke="#3551AD"/>
<path d="M35.7386 276.31L35.0081 274L27.4034 277.2C23.2467 278.952 23.6667 282.424 24.6785 286C28.7329 284.287 37.6343 282.346 35.7386 276.31Z" fill="#5173E3" stroke="#3551AD"/>
<path d="M35.7386 283.31L35.0081 281L27.4034 284.2C23.2467 285.952 23.6667 289.424 24.6785 293C28.7329 291.287 37.6343 289.346 35.7386 283.31Z" fill="#5173E3" stroke="#3551AD"/>
<path d="M35.7386 290.31L35.0081 288L27.4034 291.2C23.2467 292.952 23.6667 296.424 24.6785 300C28.7329 298.287 37.6343 296.346 35.7386 290.31Z" fill="#5173E3" stroke="#3551AD"/>
<path d="M35.7386 297.31L35.0081 295L27.4034 298.2C23.2467 299.952 23.6667 303.424 24.6785 307C28.7329 305.287 37.6343 303.346 35.7386 297.31Z" fill="#5173E3" stroke="#3551AD"/>
<path d="M35.7386 304.31L35.0081 302L27.4034 305.2C23.2467 306.952 23.6667 310.424 24.6785 314C28.7329 312.287 37.6343 310.346 35.7386 304.31Z" fill="#5173E3" stroke="#3551AD"/>
<path d="M35.7386 311.31L35.0081 309L27.4034 312.2C23.2467 313.952 23.6667 317.424 24.6785 321C28.7329 319.287 37.6343 317.346 35.7386 311.31Z" fill="#5173E3" stroke="#3551AD"/>
<path d="M35.7386 318.31L35.0081 316L27.4034 319.2C23.2467 320.952 23.6667 324.424 24.6785 328C28.7329 326.287 37.6343 324.346 35.7386 318.31Z" fill="#5173E3" stroke="#3551AD"/>
<path d="M35.7386 325.31L35.0081 323L27.4034 326.2C23.2467 327.952 23.6667 331.424 24.6785 335C28.7329 333.287 37.6343 331.346 35.7386 325.31Z" fill="#5173E3" stroke="#3551AD"/>
<path d="M23.5441 355.226C23.2576 359.849 22.6846 364.464 21.7887 369.028C21.7887 369.062 21.7783 369.079 21.7783 369.096C21.2859 371.501 22.9755 371.31 24.6172 371.31C25.6017 367.28 26.4247 361.682 26.5081 356.762C26.5081 356.762 27.029 361.393 25.6955 369.639C25.7684 370.164 25.8726 370.792 26.0653 371.31H27.753C28.399 365.338 28.8417 358.255 28.9042 351.519C28.9355 352.554 29.1647 359.917 28.2323 371.31H31.0243L31.3733 370.046L31.639 369.121C31.6338 369.113 31.6338 369.096 31.6338 369.079C31.4202 366.05 31.29 363.395 31.2014 361.113C30.9566 354.777 31.1337 351.401 31.1337 351.401C31.1806 358.043 31.613 365.024 32.2589 371.539L34.6186 371.31C32.9934 362.199 33.4882 357.084 33.5247 356.77C33.6393 363.404 34.8947 369.147 35.4781 371.505L37.2752 371.31C37.9784 371.301 38.4733 370.19 38.2545 369.07C37.3533 364.498 36.7751 359.858 36.4938 355.226C35.7498 344.322 24.455 340.827 23.5441 355.226Z" fill="#5173E3" stroke="#3551AD"/>
<path d="M35.7386 332.31L35.0081 330L27.4034 333.2C23.2467 334.953 23.6667 338.424 24.6785 342C28.7329 340.287 37.6343 338.346 35.7386 332.31Z" fill="#5173E3" stroke="#3551AD"/>
<path d="M32.5184 340.184C33.5958 340.541 34.6479 341.001 35.4925 341.444C36.3372 341.887 36.8446 342.265 36.8446 342.265C37.0742 341.615 37.0567 340.821 36.8454 340.098C35.2229 333.169 26.518 334.352 24.4622 338.346C24.1931 338.869 24.0656 339.246 24.0656 339.246C25.2491 340.034 27.1825 341.687 27.8308 341.778C28.1681 341.843 28.4008 341.757 28.6723 341.657C29.9633 340.711 30.576 339.541 32.5184 340.184Z" fill="#5173E3" stroke="#3551AD"/>
<path d="M37.5725 347.907C40.2254 345.745 40.1809 342.438 37.5723 339.171C34.9637 335.904 29.4978 337.91 27.712 343.607C28.9642 346.81 36.4027 345.161 37.5725 347.907Z" fill="#5173E3" stroke="#3551AD"/>
<path d="M26.8229 337.456C26.8726 336.998 26.9222 336.586 26.9719 336.312C27.0711 336.037 27.0711 335.854 27.0711 335.854C26.0287 335.945 25.0359 336.449 24.192 337.09C19.9935 340.505 22.1959 345.287 26.0287 347.891C26.9719 348.531 27.9647 348.897 28.7093 349.081C29.0568 349.172 29.4043 349.218 29.6029 349.264C29.8014 349.309 29.9503 349.309 29.9503 349.309C32.5354 344.909 26.573 342.064 26.8229 337.456Z" fill="#5173E3" stroke="#3551AD"/>
<path d="M29.1339 345.533C29.1339 345.533 28.9849 345.533 28.7864 345.482C28.5878 345.432 28.29 345.381 27.8928 345.28C27.1482 345.078 26.1554 344.623 25.2122 343.966C24.269 343.309 23.4251 342.4 22.8294 341.642C22.2338 340.884 21.8863 340.328 21.8863 340.328C21.2409 340.985 20.7942 341.844 20.5956 342.804C20.3474 343.764 20.3474 344.876 20.6452 345.987C20.8934 347.048 21.4395 348.109 22.1841 348.918C22.9287 349.726 23.8223 350.282 24.7158 350.535C24.7158 350.535 24.8647 350.585 25.1626 350.636C25.4604 350.686 25.8575 350.787 26.3539 350.838C27.3468 350.939 28.5878 350.888 29.7295 350.585C30.8713 350.282 31.7152 349.676 32.2612 349.12C32.5094 348.867 32.708 348.615 32.8073 348.463C32.9066 348.312 33.0059 348.211 33.0059 348.211C32.4102 346.998 32.3605 346.392 31.8641 346.038C31.3181 345.785 30.4742 345.684 29.1339 345.533Z" fill="#5173E3" stroke="#3551AD"/>
<path d="M29.6458 346.524C29.6458 346.524 29.5694 346.606 29.3836 346.707C29.2453 346.822 28.9688 347.054 28.6736 347.174C28.0399 347.558 27.0118 347.874 25.8328 347.827C24.6868 347.842 23.4519 347.46 22.5308 347.07C22.0702 346.875 21.7191 346.66 21.4485 346.524C21.178 346.388 21.0499 346.295 21.0499 346.295C20.8233 347.228 20.8672 348.298 21.2725 349.374C21.6303 350.435 22.3494 351.502 23.3595 352.29C23.8574 352.708 24.3841 353.029 24.9871 353.268C25.2577 353.405 25.5427 353.493 25.8277 353.581C26.1126 353.669 26.4121 353.709 26.7115 353.749C27.3103 353.828 27.843 353.782 28.3757 353.735C28.8753 353.626 29.3894 353.468 29.8228 353.232C29.8228 353.232 29.9611 353.116 30.2563 352.996C30.504 352.862 30.8425 352.597 31.2429 352.298C31.9962 351.686 32.8361 350.784 33.4529 349.76C34.0697 348.736 34.4677 347.75 34.6986 346.977C34.814 346.59 34.8675 346.237 34.9252 346.044C34.9354 345.835 34.9787 345.69 34.9787 345.69C33.7064 345.086 32.6945 344.826 31.9286 344.959C31.1151 345.077 30.5951 345.603 29.6458 346.524Z" fill="#5173E3" stroke="#3551AD"/>
<path d="M30.4334 345.02C30.4333 346.51 30.5716 347.95 30.1715 349.444C29.8737 350.606 29.3276 351.717 28.7816 352.526C28.4837 352.93 28.2355 353.284 28.037 353.486C27.8384 353.688 27.6895 353.839 27.6895 353.839C28.583 354.294 29.6255 354.395 30.6679 354.294C31.7104 354.143 32.7529 353.789 33.5968 353.183C37.8792 350.194 36.3038 345.58 34.119 343.296C32.3638 342.29 30.9067 343.073 30.4334 345.02Z" fill="#5173E3" stroke="#3551AD"/>
<path d="M35.0295 352.482C39.1535 351.316 39.7284 345.193 36.3439 343.077C32.9593 340.962 30.4208 343.5 30.422 344.471C34.6539 345.274 36.3433 347.308 35.0295 352.482Z" fill="#5173E3" stroke="#3551AD"/>
</svg>
