<svg width="25" height="24" viewBox="0 0 25 24" fill="none" xmlns="http://www.w3.org/2000/svg">
<path d="M3.3967 17.362C3.52364 18.3968 4.11154 19.5552 5.04877 20.4155C5.97512 21.3164 7.15612 21.9375 8.37136 22.2631C13.8825 23.6416 17.5542 18.1142 17.2232 13.3648C17.1954 12.9657 17.1458 12.6478 17.1164 12.4224C17.087 12.1969 17.0778 12.0639 17.0778 12.0639C15.6405 11.8963 14.6114 11.8817 13.8942 12.2117C9.71195 13.8174 8.9617 18.8531 3.3967 17.362Z" fill="#CEC927" stroke="#ACA824"/>
<path d="M11.4026 22.4696C12.3116 22.9802 13.5932 23.1926 14.8415 22.9469C16.116 22.7341 17.3159 22.1503 18.298 21.3639C22.6726 17.7397 20.3935 11.5076 16.3705 8.96148C16.0325 8.74753 15.747 8.59923 15.5479 8.48941C15.3488 8.37959 15.2362 8.30824 15.2362 8.30824C14.25 9.3671 13.6287 10.1876 13.4698 10.961C12.2867 15.2818 15.9 18.8687 11.4026 22.4696Z" fill="#CEC927" stroke="#ACA824"/>
<path d="M20.2574 19.0472C21.2072 18.6172 22.1373 17.7103 22.6786 16.559C23.262 15.406 23.5022 14.0934 23.4502 12.8364C23.1208 7.16507 16.7495 5.31062 12.3153 7.04415C11.9427 7.18982 11.6542 7.33203 11.4478 7.4274C11.2414 7.52277 11.1172 7.5713 11.1172 7.5713C11.3863 8.99304 11.6795 9.97959 12.2085 10.5656C14.9894 14.0779 20.0195 13.2908 20.2574 19.0472Z" fill="#CEC927" stroke="#ACA824"/>
<path d="M22.7429 9.88117C22.9589 8.86119 22.779 7.57471 22.1719 6.45665C21.5884 5.30373 20.673 4.33283 19.6294 3.63023C14.8646 0.536831 9.59694 4.5723 8.36765 9.17183C8.26436 9.55831 8.20804 9.87507 8.16265 10.0979C8.11726 10.3206 8.08279 10.4495 8.08279 10.4495C9.38776 11.0747 10.3563 11.4227 11.1418 11.3435C15.6189 11.1829 17.9637 6.66371 22.7429 9.88117Z" fill="#CEC927" stroke="#ACA824"/>
<path d="M16.8295 2.45249C16.1356 1.67438 14.9924 1.05741 13.732 0.884394C12.4574 0.671817 11.133 0.834334 9.9488 1.25915C4.63434 3.26639 4.76623 9.90081 7.7443 13.6154C7.99454 13.9275 8.2164 14.1605 8.36904 14.329C8.52167 14.4975 8.60506 14.6016 8.60506 14.6016C9.88166 13.9203 10.7357 13.346 11.1371 12.6662C13.6592 8.96369 11.4066 4.39784 16.8295 2.45249Z" fill="#CEC927" stroke="#ACA824"/>
<path d="M7.34319 2.81495C6.30524 2.91327 5.1311 3.46896 4.24522 4.38208C3.31906 5.2832 2.66563 6.44661 2.30658 7.6524C0.776471 13.1233 5.16501 15.7366 9.92179 15.5369C10.3215 15.5201 10.6406 15.4793 10.8668 15.4561C11.093 15.433 11.2262 15.4274 11.2262 15.4274C11.4334 13.9953 12.5117 14.1767 12.2017 13.4507C10.7121 9.22566 5.69897 8.33666 7.34319 2.81495Z" fill="#CEC927" stroke="#ACA824"/>
<path d="M2.01611 10.6771C1.48061 11.5717 1.23298 12.8469 1.44408 14.1015C1.62166 15.3814 2.266 16.3983 3.02493 17.4018C5.49678 19.8517 11.6917 18.5666 12.9739 13.7637C12.7847 12.1758 12.7635 12.1816 12.0974 11.173C8.96686 15.5582 5.49149 15.2722 2.01611 10.6771Z" fill="#CEC927" stroke="#ACA824"/>
</svg>
