<svg width="60" height="54" viewBox="0 0 60 54" fill="none" xmlns="http://www.w3.org/2000/svg">
<path d="M18.1433 39.7085C18.9719 41.3497 20.406 42.3658 22.1107 42.9644C28.2578 45.1228 33.326 39.1443 32.3117 33.4132C32.0525 31.4535 30.5192 29.9805 28.7966 31.0046C24.559 33.5239 23.2486 38.2953 18.1433 39.7085Z" fill="#DD3434" stroke="#AF1E1E"/>
<path d="M29.4194 42.449C31.0273 43.3405 32.7846 43.3746 34.5309 42.9113C40.828 41.2405 41.6586 33.447 37.5978 29.2775C36.2818 27.8025 34.1856 27.4463 33.3367 29.2617C31.2484 33.7275 32.847 38.4102 29.4194 42.449Z" fill="#DD3434" stroke="#AF1E1E"/>
<path d="M40.2718 38.3801C42.1028 38.2134 43.5753 37.2537 44.759 35.8888C49.0276 30.967 45.3331 24.0547 39.6308 22.8893C37.7133 22.4093 35.7794 23.2932 36.0979 25.2717C36.8815 30.139 40.836 33.113 40.2718 38.3801Z" fill="#DD3434" stroke="#AF1E1E"/>
<path d="M46.9721 28.9124C48.3926 27.7453 49.0709 26.1238 49.2825 24.3295C50.0458 17.8594 43.1045 14.2197 37.7334 16.4617C35.8777 17.1427 34.7753 18.9608 36.151 20.4181C39.5353 24.0029 44.4777 24.2392 46.9721 28.9124Z" fill="#DD3434" stroke="#AF1E1E"/>
<path d="M47.1773 17.3178C47.696 15.5539 47.3454 13.8316 46.5117 12.2287C43.5056 6.44873 35.7189 7.34096 32.5373 12.2146C31.3855 13.821 31.4958 15.9444 33.4528 16.3762C38.267 17.4383 42.4872 14.8553 47.1773 17.3178Z" fill="#DD3434" stroke="#AF1E1E"/>
<path d="M13.4234 35.7795C13.7063 37.5961 14.7579 39.0045 16.1954 40.0989C21.3792 44.0453 28.0421 39.918 28.8419 34.153C29.1987 32.2088 28.1935 30.3352 26.2392 30.7791C21.4317 31.8711 18.7158 36.007 13.4234 35.7795Z" fill="#DD3434" stroke="#AF1E1E"/>
<path d="M36.2168 26.5024L35.4254 24L27.187 27.4669C22.6839 29.365 23.1389 33.1263 24.235 37C28.6273 35.1445 38.2705 33.0411 36.2168 26.5024Z" fill="#DD3434" stroke="#AF1E1E"/>
<path d="M36.2168 34.5024L35.4254 32L27.187 35.4669C22.6839 37.365 23.1389 41.1263 24.235 45C28.6273 43.1445 38.2705 41.0411 36.2168 34.5024Z" fill="#DD3434" stroke="#AF1E1E"/>
<path d="M36.2168 42.5024L35.4254 40L27.187 43.4669C22.6839 45.365 23.1389 49.1263 24.235 53C28.6273 51.1445 38.2705 49.0411 36.2168 42.5024Z" fill="#DD3434" stroke="#AF1E1E"/>
<path d="M56.4976 15.7832L59 16.5746L55.5331 24.813C53.635 29.3161 49.8737 28.8611 46 27.765C47.8555 23.3727 49.9589 13.7295 56.4976 15.7832Z" fill="#EDEDED" stroke="#D2D2D2"/>
<path d="M48.4976 15.7832L51 16.5746L47.5331 24.813C45.635 29.3161 41.8737 28.8611 38 27.765C39.8555 23.3727 41.9589 13.7295 48.4976 15.7832Z" fill="#EDEDED" stroke="#D2D2D2"/>
<path d="M40.4976 15.7832L43 16.5746L39.5331 24.813C37.635 29.3161 33.8737 28.8611 30 27.765C31.8555 23.3727 33.9589 13.7295 40.4976 15.7832Z" fill="#EDEDED" stroke="#D2D2D2"/>
<path d="M32.4976 15.7832L35 16.5746L31.5331 24.813C29.635 29.3161 25.8737 28.8611 22 27.765C23.8555 23.3727 25.9589 13.7295 32.4976 15.7832Z" fill="#EDEDED" stroke="#D2D2D2"/>
<path d="M24.4976 15.7832L27 16.5746L23.5331 24.813C21.635 29.3161 17.8737 28.8611 14 27.765C15.8555 23.3727 17.9589 13.7295 24.4976 15.7832Z" fill="#EDEDED" stroke="#D2D2D2"/>
<path d="M40.8346 7.61127C40.272 5.86097 39.0137 4.63373 37.4232 3.77676C31.6877 0.686588 25.7495 5.80199 25.8581 11.6212C25.8087 13.5973 27.0937 15.2913 28.9548 14.5482C33.5334 12.7202 35.5715 8.21144 40.8346 7.61127Z" fill="#DD3434" stroke="#AF1E1E"/>
<path d="M30.1312 3.14745C28.682 2.01621 26.9515 1.7086 25.1543 1.89406C18.6737 2.56281 16.6385 10.1316 19.9998 14.8831C21.0698 16.5452 23.0848 17.2238 24.2063 15.5629C26.9651 11.4772 26.116 6.60259 30.1312 3.14745Z" fill="#DD3434" stroke="#AF1E1E"/>
<path d="M18.7667 5.4726C16.9322 5.3518 15.3281 6.07025 13.9461 7.23397C8.96245 11.4303 11.5343 18.8339 16.9854 20.8739C18.8046 21.6469 20.8526 21.0753 20.8464 19.0713C20.8311 14.1413 17.3884 10.5874 18.7667 5.4726Z" fill="#DD3434" stroke="#AF1E1E"/>
<path d="M10.6825 13.7842C9.09743 14.7156 8.17472 16.2116 7.68596 17.9509C5.92352 24.223 12.2127 28.9001 17.8676 27.5228C19.8067 27.1393 21.1791 25.5153 20.0473 23.8614C17.2632 19.7928 12.4181 18.789 10.6825 13.7842Z" fill="#DD3434" stroke="#AF1E1E"/>
<path d="M8.6632 25.2014C7.87592 26.8629 7.95382 28.6187 8.52744 30.332C10.5959 36.5099 18.4265 36.8423 22.3289 32.5242C23.717 31.1169 23.939 29.0023 22.0732 28.2708C17.4834 26.4712 12.9121 28.3648 8.6632 25.2014Z" fill="#DD3434" stroke="#AF1E1E"/>
</svg>
