<svg width="23" height="22" viewBox="0 0 23 22" fill="none" xmlns="http://www.w3.org/2000/svg">
<path d="M3.15645 15.9153C3.27281 16.8639 3.81171 17.9257 4.67084 18.7143C5.52 19.5402 6.60258 20.1095 7.71656 20.408C12.7684 21.6716 16.1341 16.6048 15.8308 12.2512C15.8053 11.8854 15.7598 11.594 15.7329 11.3873C15.7059 11.1806 15.6974 11.0587 15.6974 11.0587C14.3799 10.9051 13.4366 10.8917 12.7792 11.1942C8.94542 12.6661 8.2577 17.2822 3.15645 15.9153Z" fill="#DB42AD" stroke="#B42A8A"/>
<path d="M10.4938 20.5973C11.327 21.0653 12.5017 21.26 13.646 21.0348C14.8144 20.8397 15.9142 20.3045 16.8145 19.5837C20.8246 16.2615 18.7353 10.5488 15.0477 8.21481C14.7378 8.01869 14.4761 7.88275 14.2936 7.78208C14.1111 7.68141 14.0078 7.61601 14.0078 7.61601C13.1038 8.58663 12.5343 9.33878 12.3887 10.0477C11.3042 14.0085 14.6163 17.2965 10.4938 20.5973Z" fill="#DB42AD" stroke="#B42A8A"/>
<path d="M18.6116 17.4602C19.4823 17.066 20.3348 16.2348 20.831 15.1794C21.3658 14.1224 21.586 12.9193 21.5384 11.767C21.2364 6.56827 15.396 4.86835 11.3314 6.45743C10.9898 6.59095 10.7253 6.72131 10.5361 6.80874C10.3469 6.89616 10.233 6.94064 10.233 6.94064C10.4797 8.24391 10.7485 9.14824 11.2334 9.68542C13.7826 12.905 18.3935 12.1836 18.6116 17.4602Z" fill="#DB42AD" stroke="#B42A8A"/>
<path d="M20.8887 9.05786C21.0867 8.12288 20.9218 6.9436 20.3653 5.91872C19.8303 4.86188 18.9913 3.97188 18.0346 3.32783C13.6669 0.492218 8.83821 4.1914 7.71137 8.40764C7.61668 8.76191 7.56505 9.05227 7.52345 9.25649C7.48184 9.46071 7.45024 9.5788 7.45024 9.5788C8.64646 10.1519 9.53431 10.4709 10.2544 10.3983C14.3583 10.2511 16.5078 6.10853 20.8887 9.05786Z" fill="#DB42AD" stroke="#B42A8A"/>
<path d="M15.4697 2.24824C14.8336 1.53497 13.7857 0.969412 12.6303 0.810816C11.462 0.615954 10.2479 0.764928 9.16237 1.15434C4.29079 2.99431 4.41168 9.07587 7.14158 12.4809C7.37097 12.767 7.57435 12.9805 7.71426 13.135C7.85417 13.2895 7.93061 13.3849 7.93061 13.3849C9.10083 12.7604 9.88371 12.234 10.2517 11.6108C12.5636 8.21683 10.4987 4.03148 15.4697 2.24824Z" fill="#DB42AD" stroke="#B42A8A"/>
<path d="M6.77309 2.58066C5.82163 2.67078 4.74534 3.18016 3.93328 4.01719C3.0843 4.84322 2.48533 5.90967 2.15619 7.01498C0.753595 12.03 4.77643 14.4255 9.13681 14.2424C9.50319 14.2271 9.79572 14.1897 10.0031 14.1684C10.2104 14.1472 10.3325 14.1421 10.3325 14.1421C10.5224 12.8293 11.5109 12.9956 11.2267 12.3301C9.86122 8.45714 5.26588 7.64222 6.77309 2.58066Z" fill="#DB42AD" stroke="#B42A8A"/>
<path d="M1.88928 9.78731C1.3984 10.6073 1.17141 11.7762 1.36492 12.9263C1.5277 14.0996 2.11834 15.0318 2.81403 15.9516C5.07989 18.1974 10.7586 17.0193 11.9339 12.6167C11.7605 11.1611 11.7411 11.1665 11.1304 10.2419C8.2608 14.2616 5.07504 13.9994 1.88928 9.78731Z" fill="#DB42AD" stroke="#B42A8A"/>
</svg>
