<svg width="60" height="535" viewBox="0 0 60 535" fill="none" xmlns="http://www.w3.org/2000/svg">
<path d="M36.2168 3.50239L35.4254 1L27.187 4.46693C22.6839 6.36502 23.1389 10.1263 24.235 14C28.6273 12.1445 38.2705 10.0411 36.2168 3.50239Z" fill="#DE8342" stroke="#A45A25"/>
<path d="M36.2168 11.5024L35.4254 9L27.187 12.4669C22.6839 14.365 23.1389 18.1263 24.235 22C28.6273 20.1445 38.2705 18.0411 36.2168 11.5024Z" fill="#DE8342" stroke="#A45A25"/>
<path d="M36.2168 19.5024L35.4254 17L27.187 20.4669C22.6839 22.365 23.1389 26.1263 24.235 30C28.6273 28.1445 38.2705 26.0411 36.2168 19.5024Z" fill="#DE8342" stroke="#A45A25"/>
<path d="M36.2168 27.5024L35.4254 25L27.187 28.4669C22.6839 30.365 23.1389 34.1263 24.235 38C28.6273 36.1445 38.2705 34.0411 36.2168 27.5024Z" fill="#DE8342" stroke="#A45A25"/>
<path d="M36.2168 35.5024L35.4254 33L27.187 36.4669C22.6839 38.365 23.1389 42.1263 24.235 46C28.6273 44.1445 38.2705 42.0411 36.2168 35.5024Z" fill="#DE8342" stroke="#A45A25"/>
<path d="M36.2168 43.5024L35.4254 41L27.187 44.4669C22.6839 46.365 23.1389 50.1263 24.235 54C28.6273 52.1445 38.2705 50.0411 36.2168 43.5024Z" fill="#DE8342" stroke="#A45A25"/>
<path d="M36.2168 51.5024L35.4254 49L27.187 52.4669C22.6839 54.365 23.1389 58.1263 24.235 62C28.6273 60.1445 38.2705 58.0411 36.2168 51.5024Z" fill="#DE8342" stroke="#A45A25"/>
<path d="M36.2168 59.5024L35.4254 57L27.187 60.4669C22.6839 62.365 23.1389 66.1263 24.235 70C28.6273 68.1445 38.2705 66.0411 36.2168 59.5024Z" fill="#DE8342" stroke="#A45A25"/>
<path d="M36.2168 67.5024L35.4254 65L27.187 68.4669C22.6839 70.365 23.1389 74.1263 24.235 78C28.6273 76.1445 38.2705 74.0411 36.2168 67.5024Z" fill="#DE8342" stroke="#A45A25"/>
<path d="M36.2168 75.5024L35.4254 73L27.187 76.4669C22.6839 78.365 23.1389 82.1263 24.235 86C28.6273 84.1445 38.2705 82.0411 36.2168 75.5024Z" fill="#DE8342" stroke="#A45A25"/>
<path d="M36.2168 83.5024L35.4254 81L27.187 84.4669C22.6839 86.365 23.1389 90.1263 24.235 94C28.6273 92.1445 38.2705 90.0411 36.2168 83.5024Z" fill="#DE8342" stroke="#A45A25"/>
<path d="M36.2168 91.5024L35.4254 89L27.187 92.4669C22.6839 94.365 23.1389 98.1263 24.235 102C28.6273 100.145 38.2705 98.0411 36.2168 91.5024Z" fill="#DE8342" stroke="#A45A25"/>
<path d="M36.0456 157.452C35.597 156.306 34.6002 155.159 33.3044 154.462C32.0086 153.714 30.5135 153.365 29.0681 153.365C22.5428 153.478 20.1119 160.935 21.8913 166.274C22.0408 166.722 22.1904 167.071 22.29 167.32C22.3897 167.569 22.4395 167.719 22.4395 167.719C24.0842 167.47 25.2305 167.171 25.9282 166.573C30.0917 163.45 29.427 157.452 36.0456 157.452Z" fill="#DE8342" stroke="#A45A25"/>
<path d="M41.6214 162.205C41.5446 160.976 40.9458 159.58 39.9252 158.52C38.9198 157.412 37.6028 156.623 36.2266 156.182C30.2519 154.377 24.3367 160.397 26.484 166.147C35.9625 169.68 35.5165 160.246 41.6214 162.205Z" fill="#DE8342" stroke="#A45A25"/>
<path d="M22.2864 158.15C22.3861 157.951 22.4858 157.751 22.5356 157.552C22.6851 157.253 22.7848 157.053 22.7848 157.053C21.6883 156.854 20.4424 157.004 19.2961 157.502C18.1498 157.951 17.0533 158.748 16.2559 159.695C12.6562 164.195 15.0844 170.254 19.3459 173.45C19.5452 173.6 19.7945 173.75 19.9938 173.899C20.3925 174.148 20.6915 174.348 20.9407 174.447C21.1899 174.547 21.3394 174.597 21.3394 174.597C22.4857 173.401 23.1336 172.504 23.333 171.457C24.0136 166.919 21.0068 163.268 22.2864 158.15Z" fill="#DE8342" stroke="#A45A25"/>
<path d="M35.4948 166.124C35.4948 166.124 35.6443 166.074 35.8935 165.975C36.1427 165.875 36.4916 165.775 36.9402 165.725C37.8373 165.526 39.1331 165.526 40.4787 165.775C41.8244 166.025 43.2199 166.573 44.2167 167.071C44.7151 167.32 45.1138 167.57 45.4128 167.769C45.7118 167.968 45.8613 168.068 45.8613 168.068C46.26 167.021 46.3099 165.825 46.0607 164.629C45.8115 163.433 45.2134 162.187 44.3661 161.19C43.5189 160.144 42.4225 159.346 41.2263 158.848C40.0302 158.349 38.7344 158.2 37.5881 158.399C37.5881 158.399 37.3887 158.449 37.0398 158.499C36.691 158.599 36.1926 158.698 35.6443 158.947C35.0961 159.147 34.4482 159.446 33.8501 159.844C33.2521 160.243 32.7039 160.692 32.2055 161.19C31.2585 162.187 30.8099 163.383 30.6604 164.23C30.6106 164.679 30.6106 164.978 30.6604 165.227C30.7103 165.476 30.7103 165.576 30.7103 165.576C31.9064 166.423 32.355 167.071 32.7039 167.071C32.8534 167.071 33.2022 166.971 33.6009 166.772C34.2987 166.623 34.8968 166.373 35.4948 166.124Z" fill="#DE8342" stroke="#A45A25"/>
<path d="M36.2129 147.502L35.4215 145L27.1831 148.467C22.68 150.365 23.135 154.126 24.2311 158C28.6234 156.145 38.2666 154.041 36.2129 147.502Z" fill="#DE8342" stroke="#A45A25"/>
<path d="M36.2129 155.502L35.4215 153L27.1831 156.467C22.68 158.365 23.135 162.126 24.2311 166C28.6234 164.145 38.2666 162.041 36.2129 155.502Z" fill="#DE8342" stroke="#A45A25"/>
<path d="M36.2129 163.502L35.4215 161L27.1831 164.467C22.68 166.365 23.135 170.126 24.2311 174C28.6234 172.145 38.2666 170.041 36.2129 163.502Z" fill="#DE8342" stroke="#A45A25"/>
<path d="M36.2129 171.502L35.4215 169L27.1831 172.467C22.68 174.365 23.135 178.126 24.2311 182C28.6234 180.145 38.2666 178.041 36.2129 171.502Z" fill="#DE8342" stroke="#A45A25"/>
<path d="M36.2129 179.502L35.4215 177L27.1831 180.467C22.68 182.365 23.135 186.126 24.2311 190C28.6234 188.145 38.2666 186.041 36.2129 179.502Z" fill="#DE8342" stroke="#A45A25"/>
<path d="M36.2129 187.502L35.4215 185L27.1831 188.467C22.68 190.365 23.135 194.126 24.2311 198C28.6234 196.145 38.2666 194.041 36.2129 187.502Z" fill="#DE8342" stroke="#A45A25"/>
<path d="M14.7621 166.872C14.6624 166.523 14.6126 166.374 14.6126 166.374C12.7187 167.47 11.4229 169.812 11.373 172.354C11.373 178.511 17.9912 181.9 23.5836 180.428C24.0321 180.329 24.381 180.229 24.6302 180.129C24.8794 180.029 25.0289 179.98 25.0289 179.98C24.6912 174.238 16.5082 172.983 14.7621 166.872Z" fill="#DE8342" stroke="#A45A25"/>
<path d="M25.0309 179.93C25.0309 179.93 24.8814 179.98 24.6322 180.079C24.383 180.179 24.0341 180.279 23.5856 180.378C22.6885 180.578 21.3927 180.727 19.9972 180.628C19.2995 180.578 18.6515 180.428 17.9538 180.229C17.3059 180.03 16.7078 179.78 16.1596 179.581C15.6612 179.332 15.2126 179.083 14.9136 178.933C14.6146 178.734 14.4152 178.634 14.4152 178.634C14.2657 179.182 14.2159 179.731 14.166 180.329C14.166 180.927 14.2657 181.525 14.465 182.173C14.6146 182.771 14.9136 183.369 15.2126 183.917C15.5117 184.465 15.9602 184.964 16.4088 185.462C16.8573 185.911 17.3557 186.309 17.9039 186.658C18.4522 187.007 19.0004 187.256 19.5985 187.456C20.1965 187.655 20.7448 187.755 21.3428 187.804C21.9409 187.854 22.4892 187.755 22.9876 187.655C22.9876 187.655 23.1869 187.605 23.4859 187.505C23.8348 187.406 24.2833 187.256 24.8316 187.107C25.8782 186.708 27.2238 186.06 28.3203 185.263C28.8685 184.864 29.3669 184.415 29.8155 184.017C30.264 183.568 30.6129 183.169 30.8621 182.771C31.4103 181.973 31.6595 181.475 31.6595 181.475C30.563 180.229 29.7158 179.531 28.719 179.332C27.7223 179.132 26.5759 179.332 25.0309 179.93Z" fill="#DE8342" stroke="#A45A25"/>
<path d="M31.6583 181.525C31.6583 181.525 31.4091 182.023 30.8609 182.821C30.5618 183.169 30.213 183.618 29.8142 184.066C29.3657 184.465 28.8673 184.914 28.3191 185.312C27.2226 186.11 25.877 186.758 24.8303 187.157C24.2821 187.356 23.8336 187.505 23.4847 187.555C23.1358 187.655 22.9863 187.655 22.9863 187.655C23.2355 188.153 23.5843 188.602 23.9332 189.001C24.3319 189.449 24.7805 189.798 25.2789 190.097C25.7773 190.446 26.3255 190.695 26.9236 190.894C27.5216 191.094 28.1197 191.193 28.7676 191.293C30.0136 191.393 31.3593 191.193 32.5056 190.745C33.6519 190.247 34.6486 189.549 35.2965 188.602C35.2965 188.602 35.3962 188.452 35.5956 188.153C35.7949 187.904 36.0441 187.406 36.2933 186.907C36.8415 185.911 37.3399 184.465 37.5393 183.12C37.7386 181.774 37.6888 180.478 37.4895 179.531C37.3898 179.083 37.2901 178.684 37.2403 178.435C37.1406 178.185 37.0907 178.036 37.0907 178.036C35.446 178.036 34.2998 178.136 33.5522 178.634C33.3528 178.734 33.2033 178.883 33.004 179.083C32.8544 179.232 32.7049 179.431 32.5554 179.681C32.4059 179.88 32.2563 180.179 32.1068 180.478C32.0071 180.827 31.8576 181.126 31.6583 181.525Z" fill="#DE8342" stroke="#A45A25"/>
<path d="M37.1868 178.135C37.1868 178.135 37.2366 178.285 37.3363 178.534C37.3861 178.783 37.4858 179.132 37.5855 179.631C37.735 180.528 37.8347 181.824 37.6353 183.219C37.436 184.565 36.9376 186.01 36.3894 187.007C36.1402 187.505 35.8412 187.954 35.6917 188.253C35.4923 188.552 35.3926 188.701 35.3926 188.701C35.6418 188.801 35.9408 188.901 36.2399 188.951C36.5389 189 36.8379 189 37.1369 189.05C37.436 189.05 37.735 189.05 38.0839 189.05C38.3829 189 38.682 188.951 38.981 188.901C40.1772 188.602 41.3733 188.004 42.37 187.156C43.3668 186.309 44.1144 185.213 44.563 184.116C45.0115 182.97 45.1611 181.774 44.9617 180.677C44.9617 180.677 44.9118 180.478 44.862 180.129C44.8121 179.78 44.6627 179.332 44.5131 178.783C44.1643 177.687 43.5662 176.341 42.7688 175.195C41.9713 174.049 40.9746 173.201 40.227 172.653C39.8283 172.404 39.5292 172.205 39.28 172.055C39.0308 171.906 38.9312 171.856 38.9312 171.856C37.7351 173.002 37.0373 173.849 36.8379 174.697C36.4392 175.444 36.6884 176.541 37.1868 178.135Z" fill="#DE8342" stroke="#A45A25"/>
<path d="M44.7142 180.029C44.764 180.378 44.8138 180.578 44.8138 180.578C45.8106 180.129 46.7078 179.282 47.4055 178.235C48.1033 177.189 48.5019 175.893 48.6016 174.597C48.7013 173.301 48.5019 171.956 48.0035 170.859C45.9306 166.091 42.9894 164.427 36.7663 165.647C35.5058 167.965 35.4441 168.866 35.8927 169.663C38.5979 173.871 43.6459 173.62 44.7142 180.029Z" fill="#DE8342" stroke="#A45A25"/>
<path d="M36.0456 133.452C35.597 132.306 34.6002 131.159 33.3044 130.462C32.0086 129.714 30.5135 129.365 29.0681 129.365C22.5428 129.478 20.1119 136.935 21.8913 142.274C22.0408 142.722 22.1904 143.071 22.29 143.32C22.3897 143.569 22.4395 143.719 22.4395 143.719C24.0842 143.47 25.2305 143.171 25.9282 142.573C30.0917 139.45 29.427 133.452 36.0456 133.452Z" fill="#DE8342" stroke="#A45A25"/>
<path d="M41.6214 138.205C41.5446 136.976 40.9458 135.58 39.9252 134.52C38.9198 133.412 37.6028 132.623 36.2266 132.182C30.2519 130.377 24.3367 136.397 26.484 142.147C35.9625 145.68 35.5165 136.246 41.6214 138.205Z" fill="#DE8342" stroke="#A45A25"/>
<path d="M22.2864 134.15C22.3861 133.951 22.4858 133.751 22.5356 133.552C22.6851 133.253 22.7848 133.053 22.7848 133.053C21.6883 132.854 20.4424 133.004 19.2961 133.502C18.1498 133.951 17.0533 134.748 16.2559 135.695C12.6562 140.195 15.0844 146.254 19.3459 149.45C19.5452 149.6 19.7945 149.75 19.9938 149.899C20.3925 150.148 20.6915 150.348 20.9407 150.447C21.1899 150.547 21.3394 150.597 21.3394 150.597C22.4857 149.401 23.1336 148.504 23.333 147.457C24.0136 142.919 21.0068 139.268 22.2864 134.15Z" fill="#DE8342" stroke="#A45A25"/>
<path d="M35.4948 142.124C35.4948 142.124 35.6443 142.074 35.8935 141.975C36.1427 141.875 36.4916 141.775 36.9402 141.725C37.8373 141.526 39.1331 141.526 40.4787 141.775C41.8244 142.025 43.2199 142.573 44.2167 143.071C44.7151 143.32 45.1138 143.57 45.4128 143.769C45.7118 143.968 45.8613 144.068 45.8613 144.068C46.26 143.021 46.3099 141.825 46.0607 140.629C45.8115 139.433 45.2134 138.187 44.3661 137.19C43.5189 136.144 42.4225 135.346 41.2263 134.848C40.0302 134.349 38.7344 134.2 37.5881 134.399C37.5881 134.399 37.3887 134.449 37.0398 134.499C36.691 134.599 36.1926 134.698 35.6443 134.947C35.0961 135.147 34.4482 135.446 33.8501 135.844C33.2521 136.243 32.7039 136.692 32.2055 137.19C31.2585 138.187 30.8099 139.383 30.6604 140.23C30.6106 140.679 30.6106 140.978 30.6604 141.227C30.7103 141.476 30.7103 141.576 30.7103 141.576C31.9064 142.423 32.355 143.071 32.7039 143.071C32.8534 143.071 33.2022 142.971 33.6009 142.772C34.2987 142.623 34.8968 142.373 35.4948 142.124Z" fill="#DE8342" stroke="#A45A25"/>
<path d="M36.2129 123.502L35.4215 121L27.1831 124.467C22.68 126.365 23.135 130.126 24.2311 134C28.6234 132.145 38.2666 130.041 36.2129 123.502Z" fill="#DE8342" stroke="#A45A25"/>
<path d="M36.2129 131.502L35.4215 129L27.1831 132.467C22.68 134.365 23.135 138.126 24.2311 142C28.6234 140.145 38.2666 138.041 36.2129 131.502Z" fill="#DE8342" stroke="#A45A25"/>
<path d="M36.2129 139.502L35.4215 137L27.1831 140.467C22.68 142.365 23.135 146.126 24.2311 150C28.6234 148.145 38.2666 146.041 36.2129 139.502Z" fill="#DE8342" stroke="#A45A25"/>
<path d="M36.2129 147.502L35.4215 145L27.1831 148.467C22.68 150.365 23.135 154.126 24.2311 158C28.6234 156.145 38.2666 154.041 36.2129 147.502Z" fill="#DE8342" stroke="#A45A25"/>
<path d="M36.2129 155.502L35.4215 153L27.1831 156.467C22.68 158.365 23.135 162.126 24.2311 166C28.6234 164.145 38.2666 162.041 36.2129 155.502Z" fill="#DE8342" stroke="#A45A25"/>
<path d="M36.2129 163.502L35.4215 161L27.1831 164.467C22.68 166.365 23.135 170.126 24.2311 174C28.6234 172.145 38.2666 170.041 36.2129 163.502Z" fill="#DE8342" stroke="#A45A25"/>
<path d="M14.7621 142.872C14.6624 142.523 14.6126 142.374 14.6126 142.374C12.7187 143.47 11.4229 145.812 11.373 148.354C11.373 154.511 17.9912 157.9 23.5836 156.428C24.0321 156.329 24.381 156.229 24.6302 156.129C24.8794 156.029 25.0289 155.98 25.0289 155.98C24.6912 150.238 16.5082 148.983 14.7621 142.872Z" fill="#DE8342" stroke="#A45A25"/>
<path d="M25.0309 155.93C25.0309 155.93 24.8814 155.98 24.6322 156.079C24.383 156.179 24.0341 156.279 23.5856 156.378C22.6885 156.578 21.3927 156.727 19.9972 156.628C19.2995 156.578 18.6515 156.428 17.9538 156.229C17.3059 156.03 16.7078 155.78 16.1596 155.581C15.6612 155.332 15.2126 155.083 14.9136 154.933C14.6146 154.734 14.4152 154.634 14.4152 154.634C14.2657 155.182 14.2159 155.731 14.166 156.329C14.166 156.927 14.2657 157.525 14.465 158.173C14.6146 158.771 14.9136 159.369 15.2126 159.917C15.5117 160.465 15.9602 160.964 16.4088 161.462C16.8573 161.911 17.3557 162.309 17.9039 162.658C18.4522 163.007 19.0004 163.256 19.5985 163.456C20.1965 163.655 20.7448 163.755 21.3428 163.804C21.9409 163.854 22.4892 163.755 22.9876 163.655C22.9876 163.655 23.1869 163.605 23.4859 163.505C23.8348 163.406 24.2833 163.256 24.8316 163.107C25.8782 162.708 27.2238 162.06 28.3203 161.263C28.8685 160.864 29.3669 160.415 29.8155 160.017C30.264 159.568 30.6129 159.169 30.8621 158.771C31.4103 157.973 31.6595 157.475 31.6595 157.475C30.563 156.229 29.7158 155.531 28.719 155.332C27.7223 155.132 26.5759 155.332 25.0309 155.93Z" fill="#DE8342" stroke="#A45A25"/>
<path d="M31.6583 157.525C31.6583 157.525 31.4091 158.023 30.8609 158.821C30.5618 159.169 30.213 159.618 29.8142 160.066C29.3657 160.465 28.8673 160.914 28.3191 161.312C27.2226 162.11 25.877 162.758 24.8303 163.157C24.2821 163.356 23.8336 163.505 23.4847 163.555C23.1358 163.655 22.9863 163.655 22.9863 163.655C23.2355 164.153 23.5843 164.602 23.9332 165.001C24.3319 165.449 24.7805 165.798 25.2789 166.097C25.7773 166.446 26.3255 166.695 26.9236 166.894C27.5216 167.094 28.1197 167.193 28.7676 167.293C30.0136 167.393 31.3593 167.193 32.5056 166.745C33.6519 166.247 34.6486 165.549 35.2965 164.602C35.2965 164.602 35.3962 164.452 35.5956 164.153C35.7949 163.904 36.0441 163.406 36.2933 162.907C36.8415 161.911 37.3399 160.465 37.5393 159.12C37.7386 157.774 37.6888 156.478 37.4895 155.531C37.3898 155.083 37.2901 154.684 37.2403 154.435C37.1406 154.185 37.0907 154.036 37.0907 154.036C35.446 154.036 34.2998 154.136 33.5522 154.634C33.3528 154.734 33.2033 154.883 33.004 155.083C32.8544 155.232 32.7049 155.431 32.5554 155.681C32.4059 155.88 32.2563 156.179 32.1068 156.478C32.0071 156.827 31.8576 157.126 31.6583 157.525Z" fill="#DE8342" stroke="#A45A25"/>
<path d="M37.1868 154.135C37.1868 154.135 37.2366 154.285 37.3363 154.534C37.3861 154.783 37.4858 155.132 37.5855 155.631C37.735 156.528 37.8347 157.824 37.6353 159.219C37.436 160.565 36.9376 162.01 36.3894 163.007C36.1402 163.505 35.8412 163.954 35.6917 164.253C35.4923 164.552 35.3926 164.701 35.3926 164.701C35.6418 164.801 35.9408 164.901 36.2399 164.951C36.5389 165 36.8379 165 37.1369 165.05C37.436 165.05 37.735 165.05 38.0839 165.05C38.3829 165 38.682 164.951 38.981 164.901C40.1772 164.602 41.3733 164.004 42.37 163.156C43.3668 162.309 44.1144 161.213 44.563 160.116C45.0115 158.97 45.1611 157.774 44.9617 156.677C44.9617 156.677 44.9118 156.478 44.862 156.129C44.8121 155.78 44.6627 155.332 44.5131 154.783C44.1643 153.687 43.5662 152.341 42.7688 151.195C41.9713 150.049 40.9746 149.201 40.227 148.653C39.8283 148.404 39.5292 148.205 39.28 148.055C39.0308 147.906 38.9312 147.856 38.9312 147.856C37.7351 149.002 37.0373 149.849 36.8379 150.697C36.4392 151.444 36.6884 152.541 37.1868 154.135Z" fill="#DE8342" stroke="#A45A25"/>
<path d="M44.7142 156.029C44.764 156.378 44.8138 156.578 44.8138 156.578C45.8106 156.129 46.7078 155.282 47.4055 154.235C48.1033 153.189 48.5019 151.893 48.6016 150.597C48.7013 149.301 48.5019 147.956 48.0035 146.859C45.9306 142.091 42.9894 140.427 36.7663 141.647C35.5058 143.965 35.4441 144.866 35.8927 145.663C38.5979 149.871 43.6459 149.62 44.7142 156.029Z" fill="#DE8342" stroke="#A45A25"/>
<path d="M36.0456 109.452C35.597 108.306 34.6002 107.159 33.3044 106.462C32.0086 105.714 30.5135 105.365 29.0681 105.365C22.5428 105.478 20.1119 112.935 21.8913 118.274C22.0408 118.722 22.1904 119.071 22.29 119.32C22.3897 119.569 22.4395 119.719 22.4395 119.719C24.0842 119.47 25.2305 119.171 25.9282 118.573C30.0917 115.45 29.427 109.452 36.0456 109.452Z" fill="#DE8342" stroke="#A45A25"/>
<path d="M41.6214 114.205C41.5446 112.976 40.9458 111.58 39.9252 110.52C38.9198 109.412 37.6028 108.623 36.2266 108.182C30.2519 106.377 24.3367 112.397 26.484 118.147C35.9625 121.68 35.5165 112.246 41.6214 114.205Z" fill="#DE8342" stroke="#A45A25"/>
<path d="M22.2864 110.15C22.3861 109.951 22.4858 109.751 22.5356 109.552C22.6851 109.253 22.7848 109.053 22.7848 109.053C21.6883 108.854 20.4424 109.004 19.2961 109.502C18.1498 109.951 17.0533 110.748 16.2559 111.695C12.6562 116.195 15.0844 122.254 19.3459 125.45C19.5452 125.6 19.7945 125.75 19.9938 125.899C20.3925 126.148 20.6915 126.348 20.9407 126.447C21.1899 126.547 21.3394 126.597 21.3394 126.597C22.4857 125.401 23.1336 124.504 23.333 123.457C24.0136 118.919 21.0068 115.268 22.2864 110.15Z" fill="#DE8342" stroke="#A45A25"/>
<path d="M35.4948 118.124C35.4948 118.124 35.6443 118.074 35.8935 117.975C36.1427 117.875 36.4916 117.775 36.9402 117.725C37.8373 117.526 39.1331 117.526 40.4787 117.775C41.8244 118.025 43.2199 118.573 44.2167 119.071C44.7151 119.32 45.1138 119.57 45.4128 119.769C45.7118 119.968 45.8613 120.068 45.8613 120.068C46.26 119.021 46.3099 117.825 46.0607 116.629C45.8115 115.433 45.2134 114.187 44.3661 113.19C43.5189 112.144 42.4225 111.346 41.2263 110.848C40.0302 110.349 38.7344 110.2 37.5881 110.399C37.5881 110.399 37.3887 110.449 37.0398 110.499C36.691 110.599 36.1926 110.698 35.6443 110.947C35.0961 111.147 34.4482 111.446 33.8501 111.844C33.2521 112.243 32.7039 112.692 32.2055 113.19C31.2585 114.187 30.8099 115.383 30.6604 116.23C30.6106 116.679 30.6106 116.978 30.6604 117.227C30.7103 117.476 30.7103 117.576 30.7103 117.576C31.9064 118.423 32.355 119.071 32.7039 119.071C32.8534 119.071 33.2022 118.971 33.6009 118.772C34.2987 118.623 34.8968 118.373 35.4948 118.124Z" fill="#DE8342" stroke="#A45A25"/>
<path d="M36.2129 99.5024L35.4215 97L27.1831 100.467C22.68 102.365 23.135 106.126 24.2311 110C28.6234 108.145 38.2666 106.041 36.2129 99.5024Z" fill="#DE8342" stroke="#A45A25"/>
<path d="M36.2129 107.502L35.4215 105L27.1831 108.467C22.68 110.365 23.135 114.126 24.2311 118C28.6234 116.145 38.2666 114.041 36.2129 107.502Z" fill="#DE8342" stroke="#A45A25"/>
<path d="M36.2129 115.502L35.4215 113L27.1831 116.467C22.68 118.365 23.135 122.126 24.2311 126C28.6234 124.145 38.2666 122.041 36.2129 115.502Z" fill="#DE8342" stroke="#A45A25"/>
<path d="M36.2129 123.502L35.4215 121L27.1831 124.467C22.68 126.365 23.135 130.126 24.2311 134C28.6234 132.145 38.2666 130.041 36.2129 123.502Z" fill="#DE8342" stroke="#A45A25"/>
<path d="M36.2129 131.502L35.4215 129L27.1831 132.467C22.68 134.365 23.135 138.126 24.2311 142C28.6234 140.145 38.2666 138.041 36.2129 131.502Z" fill="#DE8342" stroke="#A45A25"/>
<path d="M36.2129 139.502L35.4215 137L27.1831 140.467C22.68 142.365 23.135 146.126 24.2311 150C28.6234 148.145 38.2666 146.041 36.2129 139.502Z" fill="#DE8342" stroke="#A45A25"/>
<path d="M14.7621 118.872C14.6624 118.523 14.6126 118.374 14.6126 118.374C12.7187 119.47 11.4229 121.812 11.373 124.354C11.373 130.511 17.9912 133.9 23.5836 132.428C24.0321 132.329 24.381 132.229 24.6302 132.129C24.8794 132.029 25.0289 131.98 25.0289 131.98C24.6912 126.238 16.5082 124.983 14.7621 118.872Z" fill="#DE8342" stroke="#A45A25"/>
<path d="M25.0309 131.93C25.0309 131.93 24.8814 131.98 24.6322 132.079C24.383 132.179 24.0341 132.279 23.5856 132.378C22.6885 132.578 21.3927 132.727 19.9972 132.628C19.2995 132.578 18.6515 132.428 17.9538 132.229C17.3059 132.03 16.7078 131.78 16.1596 131.581C15.6612 131.332 15.2126 131.083 14.9136 130.933C14.6146 130.734 14.4152 130.634 14.4152 130.634C14.2657 131.182 14.2159 131.731 14.166 132.329C14.166 132.927 14.2657 133.525 14.465 134.173C14.6146 134.771 14.9136 135.369 15.2126 135.917C15.5117 136.465 15.9602 136.964 16.4088 137.462C16.8573 137.911 17.3557 138.309 17.9039 138.658C18.4522 139.007 19.0004 139.256 19.5985 139.456C20.1965 139.655 20.7448 139.755 21.3428 139.804C21.9409 139.854 22.4892 139.755 22.9876 139.655C22.9876 139.655 23.1869 139.605 23.4859 139.505C23.8348 139.406 24.2833 139.256 24.8316 139.107C25.8782 138.708 27.2238 138.06 28.3203 137.263C28.8685 136.864 29.3669 136.415 29.8155 136.017C30.264 135.568 30.6129 135.169 30.8621 134.771C31.4103 133.973 31.6595 133.475 31.6595 133.475C30.563 132.229 29.7158 131.531 28.719 131.332C27.7223 131.132 26.5759 131.332 25.0309 131.93Z" fill="#DE8342" stroke="#A45A25"/>
<path d="M31.6583 133.525C31.6583 133.525 31.4091 134.023 30.8609 134.821C30.5618 135.169 30.213 135.618 29.8142 136.066C29.3657 136.465 28.8673 136.914 28.3191 137.312C27.2226 138.11 25.877 138.758 24.8303 139.157C24.2821 139.356 23.8336 139.505 23.4847 139.555C23.1358 139.655 22.9863 139.655 22.9863 139.655C23.2355 140.153 23.5843 140.602 23.9332 141.001C24.3319 141.449 24.7805 141.798 25.2789 142.097C25.7773 142.446 26.3255 142.695 26.9236 142.894C27.5216 143.094 28.1197 143.193 28.7676 143.293C30.0136 143.393 31.3593 143.193 32.5056 142.745C33.6519 142.247 34.6486 141.549 35.2965 140.602C35.2965 140.602 35.3962 140.452 35.5956 140.153C35.7949 139.904 36.0441 139.406 36.2933 138.907C36.8415 137.911 37.3399 136.465 37.5393 135.12C37.7386 133.774 37.6888 132.478 37.4895 131.531C37.3898 131.083 37.2901 130.684 37.2403 130.435C37.1406 130.185 37.0907 130.036 37.0907 130.036C35.446 130.036 34.2998 130.136 33.5522 130.634C33.3528 130.734 33.2033 130.883 33.004 131.083C32.8544 131.232 32.7049 131.431 32.5554 131.681C32.4059 131.88 32.2563 132.179 32.1068 132.478C32.0071 132.827 31.8576 133.126 31.6583 133.525Z" fill="#DE8342" stroke="#A45A25"/>
<path d="M37.1868 130.135C37.1868 130.135 37.2366 130.285 37.3363 130.534C37.3861 130.783 37.4858 131.132 37.5855 131.631C37.735 132.528 37.8347 133.824 37.6353 135.219C37.436 136.565 36.9376 138.01 36.3894 139.007C36.1402 139.505 35.8412 139.954 35.6917 140.253C35.4923 140.552 35.3926 140.701 35.3926 140.701C35.6418 140.801 35.9408 140.901 36.2399 140.951C36.5389 141 36.8379 141 37.1369 141.05C37.436 141.05 37.735 141.05 38.0839 141.05C38.3829 141 38.682 140.951 38.981 140.901C40.1772 140.602 41.3733 140.004 42.37 139.156C43.3668 138.309 44.1144 137.213 44.563 136.116C45.0115 134.97 45.1611 133.774 44.9617 132.677C44.9617 132.677 44.9118 132.478 44.862 132.129C44.8121 131.78 44.6627 131.332 44.5131 130.783C44.1643 129.687 43.5662 128.341 42.7688 127.195C41.9713 126.049 40.9746 125.201 40.227 124.653C39.8283 124.404 39.5292 124.205 39.28 124.055C39.0308 123.906 38.9312 123.856 38.9312 123.856C37.7351 125.002 37.0373 125.849 36.8379 126.697C36.4392 127.444 36.6884 128.541 37.1868 130.135Z" fill="#DE8342" stroke="#A45A25"/>
<path d="M44.7142 132.029C44.764 132.378 44.8138 132.578 44.8138 132.578C45.8106 132.129 46.7078 131.282 47.4055 130.235C48.1033 129.189 48.5019 127.893 48.6016 126.597C48.7013 125.301 48.5019 123.956 48.0035 122.859C45.9306 118.091 42.9894 116.427 36.7663 117.647C35.5058 119.965 35.4441 120.866 35.8927 121.663C38.5979 125.871 43.6459 125.62 44.7142 132.029Z" fill="#DE8342" stroke="#A45A25"/>
<path d="M36.2168 195.502L35.4254 193L27.187 196.467C22.6839 198.365 23.1389 202.126 24.235 206C28.6273 204.145 38.2705 202.041 36.2168 195.502Z" fill="#DE8342" stroke="#A45A25"/>
<path d="M36.2168 203.502L35.4254 201L27.187 204.467C22.6839 206.365 23.1389 210.126 24.235 214C28.6273 212.145 38.2705 210.041 36.2168 203.502Z" fill="#DE8342" stroke="#A45A25"/>
<path d="M36.2168 211.502L35.4254 209L27.187 212.467C22.6839 214.365 23.1389 218.126 24.235 222C28.6273 220.145 38.2705 218.041 36.2168 211.502Z" fill="#DE8342" stroke="#A45A25"/>
<path d="M36.2168 219.502L35.4254 217L27.187 220.467C22.6839 222.365 23.1389 226.126 24.235 230C28.6273 228.145 38.2705 226.041 36.2168 219.502Z" fill="#DE8342" stroke="#A45A25"/>
<path d="M36.2168 227.502L35.4254 225L27.187 228.467C22.6839 230.365 23.1389 234.126 24.235 238C28.6273 236.145 38.2705 234.041 36.2168 227.502Z" fill="#DE8342" stroke="#A45A25"/>
<path d="M36.2168 235.502L35.4254 233L27.187 236.467C22.6839 238.365 23.1389 242.126 24.235 246C28.6273 244.145 38.2705 242.041 36.2168 235.502Z" fill="#DE8342" stroke="#A45A25"/>
<path d="M36.2168 243.502L35.4254 241L27.187 244.467C22.6839 246.365 23.1389 250.126 24.235 254C28.6273 252.145 38.2705 250.041 36.2168 243.502Z" fill="#DE8342" stroke="#A45A25"/>
<path d="M36.2168 251.502L35.4254 249L27.187 252.467C22.6839 254.365 23.1389 258.126 24.235 262C28.6273 260.145 38.2705 258.041 36.2168 251.502Z" fill="#DE8342" stroke="#A45A25"/>
<path d="M36.2168 259.502L35.4254 257L27.187 260.467C22.6839 262.365 23.1389 266.126 24.235 270C28.6273 268.145 38.2705 266.041 36.2168 259.502Z" fill="#DE8342" stroke="#A45A25"/>
<path d="M36.2168 267.502L35.4254 265L27.187 268.467C22.6839 270.365 23.1389 274.126 24.235 278C28.6273 276.145 38.2705 274.041 36.2168 267.502Z" fill="#DE8342" stroke="#A45A25"/>
<path d="M36.2168 275.502L35.4254 273L27.187 276.467C22.6839 278.365 23.1389 282.126 24.235 286C28.6273 284.145 38.2705 282.041 36.2168 275.502Z" fill="#DE8342" stroke="#A45A25"/>
<path d="M36.2168 283.502L35.4254 281L27.187 284.467C22.6839 286.365 23.1389 290.126 24.235 294C28.6273 292.145 38.2705 290.041 36.2168 283.502Z" fill="#DE8342" stroke="#A45A25"/>
<path d="M36.2168 291.502L35.4254 289L27.187 292.467C22.6839 294.365 23.1389 298.126 24.235 302C28.6273 300.145 38.2705 298.041 36.2168 291.502Z" fill="#DE8342" stroke="#A45A25"/>
<path d="M36.2168 299.502L35.4254 297L27.187 300.467C22.6839 302.365 23.1389 306.126 24.235 310C28.6273 308.145 38.2705 306.041 36.2168 299.502Z" fill="#DE8342" stroke="#A45A25"/>
<path d="M36.2168 307.502L35.4254 305L27.187 308.467C22.6839 310.365 23.1389 314.126 24.235 318C28.6273 316.145 38.2705 314.041 36.2168 307.502Z" fill="#DE8342" stroke="#A45A25"/>
<path d="M36.2168 315.502L35.4254 313L27.187 316.467C22.6839 318.365 23.1389 322.126 24.235 326C28.6273 324.145 38.2705 322.041 36.2168 315.502Z" fill="#DE8342" stroke="#A45A25"/>
<path d="M36.2168 323.502L35.4254 321L27.187 324.467C22.6839 326.365 23.1389 330.126 24.235 334C28.6273 332.145 38.2705 330.041 36.2168 323.502Z" fill="#DE8342" stroke="#A45A25"/>
<path d="M36.2168 331.502L35.4254 329L27.187 332.467C22.6839 334.365 23.1389 338.126 24.235 342C28.6273 340.145 38.2705 338.041 36.2168 331.502Z" fill="#DE8342" stroke="#A45A25"/>
<path d="M36.2168 339.502L35.4254 337L27.187 340.467C22.6839 342.365 23.1389 346.126 24.235 350C28.6273 348.145 38.2705 346.041 36.2168 339.502Z" fill="#DE8342" stroke="#A45A25"/>
<path d="M36.2168 347.502L35.4254 345L27.187 348.467C22.6839 350.365 23.1389 354.126 24.235 358C28.6273 356.145 38.2705 354.041 36.2168 347.502Z" fill="#DE8342" stroke="#A45A25"/>
<path d="M36.2168 355.502L35.4254 353L27.187 356.467C22.6839 358.365 23.1389 362.126 24.235 366C28.6273 364.145 38.2705 362.041 36.2168 355.502Z" fill="#DE8342" stroke="#A45A25"/>
<path d="M36.2168 363.502L35.4254 361L27.187 364.467C22.6839 366.365 23.1389 370.126 24.235 374C28.6273 372.145 38.2705 370.041 36.2168 363.502Z" fill="#DE8342" stroke="#A45A25"/>
<path d="M36.0456 405.452C35.597 404.306 34.6002 403.159 33.3044 402.462C32.0086 401.714 30.5135 401.365 29.0681 401.365C22.5428 401.478 20.1119 408.935 21.8913 414.274C22.0408 414.722 22.1904 415.071 22.29 415.32C22.3897 415.569 22.4395 415.719 22.4395 415.719C24.0842 415.47 25.2305 415.171 25.9282 414.573C30.0917 411.45 29.427 405.452 36.0456 405.452Z" fill="#DE8342" stroke="#A45A25"/>
<path d="M41.6214 410.205C41.5446 408.976 40.9458 407.58 39.9252 406.52C38.9198 405.412 37.6028 404.623 36.2266 404.182C30.2519 402.377 24.3367 408.397 26.484 414.147C35.9625 417.68 35.5165 408.246 41.6214 410.205Z" fill="#DE8342" stroke="#A45A25"/>
<path d="M22.2864 406.15C22.3861 405.951 22.4858 405.751 22.5356 405.552C22.6851 405.253 22.7848 405.053 22.7848 405.053C21.6883 404.854 20.4424 405.004 19.2961 405.502C18.1498 405.951 17.0533 406.748 16.2559 407.695C12.6562 412.195 15.0844 418.254 19.3459 421.45C19.5452 421.6 19.7945 421.75 19.9938 421.899C20.3925 422.148 20.6915 422.348 20.9407 422.447C21.1899 422.547 21.3394 422.597 21.3394 422.597C22.4857 421.401 23.1336 420.504 23.333 419.457C24.0136 414.919 21.0068 411.268 22.2864 406.15Z" fill="#DE8342" stroke="#A45A25"/>
<path d="M35.4948 414.124C35.4948 414.124 35.6443 414.074 35.8935 413.975C36.1427 413.875 36.4916 413.775 36.9402 413.725C37.8373 413.526 39.1331 413.526 40.4787 413.775C41.8244 414.025 43.2199 414.573 44.2167 415.071C44.7151 415.32 45.1138 415.57 45.4128 415.769C45.7118 415.968 45.8613 416.068 45.8613 416.068C46.26 415.021 46.3099 413.825 46.0607 412.629C45.8115 411.433 45.2134 410.187 44.3661 409.19C43.5189 408.144 42.4225 407.346 41.2263 406.848C40.0302 406.349 38.7344 406.2 37.5881 406.399C37.5881 406.399 37.3887 406.449 37.0398 406.499C36.691 406.599 36.1926 406.698 35.6443 406.947C35.0961 407.147 34.4482 407.446 33.8501 407.844C33.2521 408.243 32.7039 408.692 32.2055 409.19C31.2585 410.187 30.8099 411.383 30.6604 412.23C30.6106 412.679 30.6106 412.978 30.6604 413.227C30.7103 413.476 30.7103 413.576 30.7103 413.576C31.9064 414.423 32.355 415.071 32.7039 415.071C32.8534 415.071 33.2022 414.971 33.6009 414.772C34.2987 414.623 34.8968 414.373 35.4948 414.124Z" fill="#DE8342" stroke="#A45A25"/>
<path d="M36.2129 395.502L35.4215 393L27.1831 396.467C22.68 398.365 23.135 402.126 24.2311 406C28.6234 404.145 38.2666 402.041 36.2129 395.502Z" fill="#DE8342" stroke="#A45A25"/>
<path d="M36.2129 403.502L35.4215 401L27.1831 404.467C22.68 406.365 23.135 410.126 24.2311 414C28.6234 412.145 38.2666 410.041 36.2129 403.502Z" fill="#DE8342" stroke="#A45A25"/>
<path d="M36.2129 411.502L35.4215 409L27.1831 412.467C22.68 414.365 23.135 418.126 24.2311 422C28.6234 420.145 38.2666 418.041 36.2129 411.502Z" fill="#DE8342" stroke="#A45A25"/>
<path d="M36.2129 419.502L35.4215 417L27.1831 420.467C22.68 422.365 23.135 426.126 24.2311 430C28.6234 428.145 38.2666 426.041 36.2129 419.502Z" fill="#DE8342" stroke="#A45A25"/>
<path d="M36.2129 427.502L35.4215 425L27.1831 428.467C22.68 430.365 23.135 434.126 24.2311 438C28.6234 436.145 38.2666 434.041 36.2129 427.502Z" fill="#DE8342" stroke="#A45A25"/>
<path d="M36.2129 435.502L35.4215 433L27.1831 436.467C22.68 438.365 23.135 442.126 24.2311 446C28.6234 444.145 38.2666 442.041 36.2129 435.502Z" fill="#DE8342" stroke="#A45A25"/>
<path d="M14.7621 414.872C14.6624 414.523 14.6126 414.374 14.6126 414.374C12.7187 415.47 11.4229 417.812 11.373 420.354C11.373 426.511 17.9912 429.9 23.5836 428.428C24.0321 428.329 24.381 428.229 24.6302 428.129C24.8794 428.029 25.0289 427.98 25.0289 427.98C24.6912 422.238 16.5082 420.983 14.7621 414.872Z" fill="#DE8342" stroke="#A45A25"/>
<path d="M25.0309 427.93C25.0309 427.93 24.8814 427.98 24.6322 428.079C24.383 428.179 24.0341 428.279 23.5856 428.378C22.6885 428.578 21.3927 428.727 19.9972 428.628C19.2995 428.578 18.6515 428.428 17.9538 428.229C17.3059 428.03 16.7078 427.78 16.1596 427.581C15.6612 427.332 15.2126 427.083 14.9136 426.933C14.6146 426.734 14.4152 426.634 14.4152 426.634C14.2657 427.182 14.2159 427.731 14.166 428.329C14.166 428.927 14.2657 429.525 14.465 430.173C14.6146 430.771 14.9136 431.369 15.2126 431.917C15.5117 432.465 15.9602 432.964 16.4088 433.462C16.8573 433.911 17.3557 434.309 17.9039 434.658C18.4522 435.007 19.0004 435.256 19.5985 435.456C20.1965 435.655 20.7448 435.755 21.3428 435.804C21.9409 435.854 22.4892 435.755 22.9876 435.655C22.9876 435.655 23.1869 435.605 23.4859 435.505C23.8348 435.406 24.2833 435.256 24.8316 435.107C25.8782 434.708 27.2238 434.06 28.3203 433.263C28.8685 432.864 29.3669 432.415 29.8155 432.017C30.264 431.568 30.6129 431.169 30.8621 430.771C31.4103 429.973 31.6595 429.475 31.6595 429.475C30.563 428.229 29.7158 427.531 28.719 427.332C27.7223 427.132 26.5759 427.332 25.0309 427.93Z" fill="#DE8342" stroke="#A45A25"/>
<path d="M31.6583 429.525C31.6583 429.525 31.4091 430.023 30.8609 430.821C30.5618 431.169 30.213 431.618 29.8142 432.066C29.3657 432.465 28.8673 432.914 28.3191 433.312C27.2226 434.11 25.877 434.758 24.8303 435.157C24.2821 435.356 23.8336 435.505 23.4847 435.555C23.1358 435.655 22.9863 435.655 22.9863 435.655C23.2355 436.153 23.5843 436.602 23.9332 437.001C24.3319 437.449 24.7805 437.798 25.2789 438.097C25.7773 438.446 26.3255 438.695 26.9236 438.894C27.5216 439.094 28.1197 439.193 28.7676 439.293C30.0136 439.393 31.3593 439.193 32.5056 438.745C33.6519 438.247 34.6486 437.549 35.2965 436.602C35.2965 436.602 35.3962 436.452 35.5956 436.153C35.7949 435.904 36.0441 435.406 36.2933 434.907C36.8415 433.911 37.3399 432.465 37.5393 431.12C37.7386 429.774 37.6888 428.478 37.4895 427.531C37.3898 427.083 37.2901 426.684 37.2403 426.435C37.1406 426.185 37.0907 426.036 37.0907 426.036C35.446 426.036 34.2998 426.136 33.5522 426.634C33.3528 426.734 33.2033 426.883 33.004 427.083C32.8544 427.232 32.7049 427.431 32.5554 427.681C32.4059 427.88 32.2563 428.179 32.1068 428.478C32.0071 428.827 31.8576 429.126 31.6583 429.525Z" fill="#DE8342" stroke="#A45A25"/>
<path d="M37.1868 426.135C37.1868 426.135 37.2366 426.285 37.3363 426.534C37.3861 426.783 37.4858 427.132 37.5855 427.631C37.735 428.528 37.8347 429.824 37.6353 431.219C37.436 432.565 36.9376 434.01 36.3894 435.007C36.1402 435.505 35.8412 435.954 35.6917 436.253C35.4923 436.552 35.3926 436.701 35.3926 436.701C35.6418 436.801 35.9408 436.901 36.2399 436.951C36.5389 437 36.8379 437 37.1369 437.05C37.436 437.05 37.735 437.05 38.0839 437.05C38.3829 437 38.682 436.951 38.981 436.901C40.1772 436.602 41.3733 436.004 42.37 435.156C43.3668 434.309 44.1144 433.213 44.563 432.116C45.0115 430.97 45.1611 429.774 44.9617 428.677C44.9617 428.677 44.9118 428.478 44.862 428.129C44.8121 427.78 44.6627 427.332 44.5131 426.783C44.1643 425.687 43.5662 424.341 42.7688 423.195C41.9713 422.049 40.9746 421.201 40.227 420.653C39.8283 420.404 39.5292 420.205 39.28 420.055C39.0308 419.906 38.9312 419.856 38.9312 419.856C37.7351 421.002 37.0373 421.849 36.8379 422.697C36.4392 423.444 36.6884 424.541 37.1868 426.135Z" fill="#DE8342" stroke="#A45A25"/>
<path d="M44.7142 428.029C44.764 428.378 44.8138 428.578 44.8138 428.578C45.8106 428.129 46.7078 427.282 47.4055 426.235C48.1033 425.189 48.5019 423.893 48.6016 422.597C48.7013 421.301 48.5019 419.956 48.0035 418.859C45.9306 414.091 42.9894 412.427 36.7663 413.647C35.5058 415.965 35.4441 416.866 35.8927 417.663C38.5979 421.871 43.6459 421.62 44.7142 428.029Z" fill="#DE8342" stroke="#A45A25"/>
<path d="M36.0456 381.452C35.597 380.306 34.6002 379.159 33.3044 378.462C32.0086 377.714 30.5135 377.365 29.0681 377.365C22.5428 377.478 20.1119 384.935 21.8913 390.274C22.0408 390.722 22.1904 391.071 22.29 391.32C22.3897 391.569 22.4395 391.719 22.4395 391.719C24.0842 391.47 25.2305 391.171 25.9282 390.573C30.0917 387.45 29.427 381.452 36.0456 381.452Z" fill="#DE8342" stroke="#A45A25"/>
<path d="M41.6214 386.205C41.5446 384.976 40.9458 383.58 39.9252 382.52C38.9198 381.412 37.6028 380.623 36.2266 380.182C30.2519 378.377 24.3367 384.397 26.484 390.147C35.9625 393.68 35.5165 384.246 41.6214 386.205Z" fill="#DE8342" stroke="#A45A25"/>
<path d="M22.2864 382.15C22.3861 381.951 22.4858 381.751 22.5356 381.552C22.6851 381.253 22.7848 381.053 22.7848 381.053C21.6883 380.854 20.4424 381.004 19.2961 381.502C18.1498 381.951 17.0533 382.748 16.2559 383.695C12.6562 388.195 15.0844 394.254 19.3459 397.45C19.5452 397.6 19.7945 397.75 19.9938 397.899C20.3925 398.148 20.6915 398.348 20.9407 398.447C21.1899 398.547 21.3394 398.597 21.3394 398.597C22.4857 397.401 23.1336 396.504 23.333 395.457C24.0136 390.919 21.0068 387.268 22.2864 382.15Z" fill="#DE8342" stroke="#A45A25"/>
<path d="M35.4948 390.124C35.4948 390.124 35.6443 390.074 35.8935 389.975C36.1427 389.875 36.4916 389.775 36.9402 389.725C37.8373 389.526 39.1331 389.526 40.4787 389.775C41.8244 390.025 43.2199 390.573 44.2167 391.071C44.7151 391.32 45.1138 391.57 45.4128 391.769C45.7118 391.968 45.8613 392.068 45.8613 392.068C46.26 391.021 46.3099 389.825 46.0607 388.629C45.8115 387.433 45.2134 386.187 44.3661 385.19C43.5189 384.144 42.4225 383.346 41.2263 382.848C40.0302 382.349 38.7344 382.2 37.5881 382.399C37.5881 382.399 37.3887 382.449 37.0398 382.499C36.691 382.599 36.1926 382.698 35.6443 382.947C35.0961 383.147 34.4482 383.446 33.8501 383.844C33.2521 384.243 32.7039 384.692 32.2055 385.19C31.2585 386.187 30.8099 387.383 30.6604 388.23C30.6106 388.679 30.6106 388.978 30.6604 389.227C30.7103 389.476 30.7103 389.576 30.7103 389.576C31.9064 390.423 32.355 391.071 32.7039 391.071C32.8534 391.071 33.2022 390.971 33.6009 390.772C34.2987 390.623 34.8968 390.373 35.4948 390.124Z" fill="#DE8342" stroke="#A45A25"/>
<path d="M36.2129 371.502L35.4215 369L27.1831 372.467C22.68 374.365 23.135 378.126 24.2311 382C28.6234 380.145 38.2666 378.041 36.2129 371.502Z" fill="#DE8342" stroke="#A45A25"/>
<path d="M36.2129 379.502L35.4215 377L27.1831 380.467C22.68 382.365 23.135 386.126 24.2311 390C28.6234 388.145 38.2666 386.041 36.2129 379.502Z" fill="#DE8342" stroke="#A45A25"/>
<path d="M36.2129 387.502L35.4215 385L27.1831 388.467C22.68 390.365 23.135 394.126 24.2311 398C28.6234 396.145 38.2666 394.041 36.2129 387.502Z" fill="#DE8342" stroke="#A45A25"/>
<path d="M36.2129 395.502L35.4215 393L27.1831 396.467C22.68 398.365 23.135 402.126 24.2311 406C28.6234 404.145 38.2666 402.041 36.2129 395.502Z" fill="#DE8342" stroke="#A45A25"/>
<path d="M36.2129 403.502L35.4215 401L27.1831 404.467C22.68 406.365 23.135 410.126 24.2311 414C28.6234 412.145 38.2666 410.041 36.2129 403.502Z" fill="#DE8342" stroke="#A45A25"/>
<path d="M36.2129 411.502L35.4215 409L27.1831 412.467C22.68 414.365 23.135 418.126 24.2311 422C28.6234 420.145 38.2666 418.041 36.2129 411.502Z" fill="#DE8342" stroke="#A45A25"/>
<path d="M14.7621 390.872C14.6624 390.523 14.6126 390.374 14.6126 390.374C12.7187 391.47 11.4229 393.812 11.373 396.354C11.373 402.511 17.9912 405.9 23.5836 404.428C24.0321 404.329 24.381 404.229 24.6302 404.129C24.8794 404.029 25.0289 403.98 25.0289 403.98C24.6912 398.238 16.5082 396.983 14.7621 390.872Z" fill="#DE8342" stroke="#A45A25"/>
<path d="M25.0309 403.93C25.0309 403.93 24.8814 403.98 24.6322 404.079C24.383 404.179 24.0341 404.279 23.5856 404.378C22.6885 404.578 21.3927 404.727 19.9972 404.628C19.2995 404.578 18.6515 404.428 17.9538 404.229C17.3059 404.03 16.7078 403.78 16.1596 403.581C15.6612 403.332 15.2126 403.083 14.9136 402.933C14.6146 402.734 14.4152 402.634 14.4152 402.634C14.2657 403.182 14.2159 403.731 14.166 404.329C14.166 404.927 14.2657 405.525 14.465 406.173C14.6146 406.771 14.9136 407.369 15.2126 407.917C15.5117 408.465 15.9602 408.964 16.4088 409.462C16.8573 409.911 17.3557 410.309 17.9039 410.658C18.4522 411.007 19.0004 411.256 19.5985 411.456C20.1965 411.655 20.7448 411.755 21.3428 411.804C21.9409 411.854 22.4892 411.755 22.9876 411.655C22.9876 411.655 23.1869 411.605 23.4859 411.505C23.8348 411.406 24.2833 411.256 24.8316 411.107C25.8782 410.708 27.2238 410.06 28.3203 409.263C28.8685 408.864 29.3669 408.415 29.8155 408.017C30.264 407.568 30.6129 407.169 30.8621 406.771C31.4103 405.973 31.6595 405.475 31.6595 405.475C30.563 404.229 29.7158 403.531 28.719 403.332C27.7223 403.132 26.5759 403.332 25.0309 403.93Z" fill="#DE8342" stroke="#A45A25"/>
<path d="M31.6583 405.525C31.6583 405.525 31.4091 406.023 30.8609 406.821C30.5618 407.169 30.213 407.618 29.8142 408.066C29.3657 408.465 28.8673 408.914 28.3191 409.312C27.2226 410.11 25.877 410.758 24.8303 411.157C24.2821 411.356 23.8336 411.505 23.4847 411.555C23.1358 411.655 22.9863 411.655 22.9863 411.655C23.2355 412.153 23.5843 412.602 23.9332 413.001C24.3319 413.449 24.7805 413.798 25.2789 414.097C25.7773 414.446 26.3255 414.695 26.9236 414.894C27.5216 415.094 28.1197 415.193 28.7676 415.293C30.0136 415.393 31.3593 415.193 32.5056 414.745C33.6519 414.247 34.6486 413.549 35.2965 412.602C35.2965 412.602 35.3962 412.452 35.5956 412.153C35.7949 411.904 36.0441 411.406 36.2933 410.907C36.8415 409.911 37.3399 408.465 37.5393 407.12C37.7386 405.774 37.6888 404.478 37.4895 403.531C37.3898 403.083 37.2901 402.684 37.2403 402.435C37.1406 402.185 37.0907 402.036 37.0907 402.036C35.446 402.036 34.2998 402.136 33.5522 402.634C33.3528 402.734 33.2033 402.883 33.004 403.083C32.8544 403.232 32.7049 403.431 32.5554 403.681C32.4059 403.88 32.2563 404.179 32.1068 404.478C32.0071 404.827 31.8576 405.126 31.6583 405.525Z" fill="#DE8342" stroke="#A45A25"/>
<path d="M37.1868 402.135C37.1868 402.135 37.2366 402.285 37.3363 402.534C37.3861 402.783 37.4858 403.132 37.5855 403.631C37.735 404.528 37.8347 405.824 37.6353 407.219C37.436 408.565 36.9376 410.01 36.3894 411.007C36.1402 411.505 35.8412 411.954 35.6917 412.253C35.4923 412.552 35.3926 412.701 35.3926 412.701C35.6418 412.801 35.9408 412.901 36.2399 412.951C36.5389 413 36.8379 413 37.1369 413.05C37.436 413.05 37.735 413.05 38.0839 413.05C38.3829 413 38.682 412.951 38.981 412.901C40.1772 412.602 41.3733 412.004 42.37 411.156C43.3668 410.309 44.1144 409.213 44.563 408.116C45.0115 406.97 45.1611 405.774 44.9617 404.677C44.9617 404.677 44.9118 404.478 44.862 404.129C44.8121 403.78 44.6627 403.332 44.5131 402.783C44.1643 401.687 43.5662 400.341 42.7688 399.195C41.9713 398.049 40.9746 397.201 40.227 396.653C39.8283 396.404 39.5292 396.205 39.28 396.055C39.0308 395.906 38.9312 395.856 38.9312 395.856C37.7351 397.002 37.0373 397.849 36.8379 398.697C36.4392 399.444 36.6884 400.541 37.1868 402.135Z" fill="#DE8342" stroke="#A45A25"/>
<path d="M44.7142 404.029C44.764 404.378 44.8138 404.578 44.8138 404.578C45.8106 404.129 46.7078 403.282 47.4055 402.235C48.1033 401.189 48.5019 399.893 48.6016 398.597C48.7013 397.301 48.5019 395.956 48.0035 394.859C45.9306 390.091 42.9894 388.427 36.7663 389.647C35.5058 391.965 35.4441 392.866 35.8927 393.663C38.5979 397.871 43.6459 397.62 44.7142 404.029Z" fill="#DE8342" stroke="#A45A25"/>
<path d="M36.2168 443.502L35.4254 441L27.187 444.467C22.6839 446.365 23.1389 450.126 24.235 454C28.6273 452.145 38.2705 450.041 36.2168 443.502Z" fill="#DE8342" stroke="#A45A25"/>
<path d="M36.2168 451.502L35.4254 449L27.187 452.467C22.6839 454.365 23.1389 458.126 24.235 462C28.6273 460.145 38.2705 458.041 36.2168 451.502Z" fill="#DE8342" stroke="#A45A25"/>
<path d="M36.2168 459.502L35.4254 457L27.187 460.467C22.6839 462.365 23.1389 466.126 24.235 470C28.6273 468.145 38.2705 466.041 36.2168 459.502Z" fill="#DE8342" stroke="#A45A25"/>
<path d="M36.2168 467.502L35.4254 465L27.187 468.467C22.6839 470.365 23.1389 474.126 24.235 478C28.6273 476.145 38.2705 474.041 36.2168 467.502Z" fill="#DE8342" stroke="#A45A25"/>
<path d="M36.2168 475.502L35.4254 473L27.187 476.467C22.6839 478.365 23.1389 482.126 24.235 486C28.6273 484.145 38.2705 482.041 36.2168 475.502Z" fill="#DE8342" stroke="#A45A25"/>
<path d="M36.2168 483.502L35.4254 481L27.187 484.467C22.6839 486.365 23.1389 490.126 24.235 494C28.6273 492.145 38.2705 490.041 36.2168 483.502Z" fill="#DE8342" stroke="#A45A25"/>
<path d="M23.0071 516.328C22.6967 521.337 22.076 526.336 21.1054 531.28C21.1054 531.317 21.0941 531.335 21.0941 531.353C20.5607 533.959 22.3912 533.752 24.1696 533.752C25.2362 529.387 26.1278 523.322 26.2181 517.992C26.2181 517.992 26.7824 523.009 25.3377 531.942C25.4167 532.511 25.5296 533.191 25.7384 533.752H27.5668C28.2665 527.282 28.7462 519.609 28.8139 512.312C28.8478 513.434 29.0961 521.41 28.0859 533.752H31.1107L31.4888 532.383L31.7766 531.381C31.7709 531.372 31.7709 531.353 31.7709 531.335C31.5395 528.054 31.3985 525.178 31.3025 522.706C31.0373 515.841 31.2292 512.184 31.2292 512.184C31.28 519.379 31.7483 526.942 32.4481 534L35.0044 533.752C33.2438 523.882 33.7799 518.341 33.8194 518.001C33.9435 525.187 35.3035 531.409 35.9356 533.963L37.8824 533.752C38.6443 533.743 39.1804 532.539 38.9434 531.326C37.9671 526.373 37.3407 521.346 37.036 516.328C36.2299 504.515 23.9939 500.729 23.0071 516.328Z" fill="#DE8342" stroke="#A45A25"/>
<path d="M36.2168 491.502L35.4254 489L27.187 492.467C22.6839 494.365 23.1389 498.126 24.235 502C28.6273 500.145 38.2705 498.041 36.2168 491.502Z" fill="#DE8342" stroke="#A45A25"/>
<path d="M32.7314 500.032C33.8986 500.419 35.0383 500.918 35.9533 501.397C36.8684 501.877 37.4181 502.286 37.4181 502.286C37.6668 501.583 37.6479 500.722 37.4189 499.939C35.6612 492.433 26.231 493.714 24.0038 498.041C23.7123 498.608 23.5742 499.016 23.5742 499.016C24.8563 499.87 26.9508 501.661 27.6532 501.759C28.0185 501.829 28.2706 501.736 28.5648 501.628C29.9633 500.603 30.6271 499.335 32.7314 500.032Z" fill="#DE8342" stroke="#A45A25"/>
<path d="M38.2047 508.398C41.0786 506.057 41.0304 502.474 38.2045 498.935C35.3785 495.395 29.4571 497.569 27.5224 503.741C28.879 507.21 36.9374 505.423 38.2047 508.398Z" fill="#DE8342" stroke="#A45A25"/>
<path d="M26.5588 497.076C26.6126 496.58 26.6664 496.134 26.7202 495.837C26.8277 495.539 26.8277 495.341 26.8277 495.341C25.6984 495.44 24.6228 495.985 23.7086 496.68C19.1602 500.38 21.5462 505.56 25.6984 508.381C26.7202 509.075 27.7957 509.471 28.6024 509.67C28.9788 509.769 29.3553 509.819 29.5704 509.868C29.7855 509.918 29.9468 509.918 29.9468 509.918C32.7474 505.151 26.2881 502.068 26.5588 497.076Z" fill="#DE8342" stroke="#A45A25"/>
<path d="M29.0632 505.826C29.0632 505.826 28.9018 505.826 28.6867 505.771C28.4716 505.717 28.1489 505.662 27.7187 505.552C26.912 505.333 25.8365 504.841 24.8147 504.129C23.7929 503.418 22.8787 502.432 22.2334 501.611C21.588 500.79 21.2116 500.188 21.2116 500.188C20.5125 500.9 20.0285 501.83 19.8134 502.87C19.5445 503.91 19.5445 505.114 19.8671 506.319C20.136 507.468 20.7276 508.618 21.5343 509.494C22.3409 510.369 23.3089 510.971 24.2769 511.245C24.2769 511.245 24.4383 511.3 24.7609 511.355C25.0836 511.409 25.5138 511.519 26.0516 511.574C27.1271 511.683 28.4716 511.628 29.7085 511.3C30.9453 510.971 31.8596 510.315 32.4511 509.712C32.72 509.439 32.9351 509.165 33.0427 509.001C33.1502 508.837 33.2578 508.727 33.2578 508.727C32.6125 507.413 32.5587 506.757 32.0209 506.373C31.4294 506.1 30.5152 505.99 29.0632 505.826Z" fill="#DE8342" stroke="#A45A25"/>
<path d="M29.6184 506.9C29.6184 506.9 29.5356 506.989 29.3344 507.098C29.1846 507.223 28.885 507.474 28.5652 507.604C27.8787 508.021 26.7649 508.363 25.4876 508.311C24.2462 508.328 22.9083 507.914 21.9104 507.491C21.4115 507.28 21.0311 507.048 20.738 506.9C20.4449 506.752 20.3062 506.652 20.3062 506.652C20.0607 507.663 20.1083 508.822 20.5473 509.988C20.9349 511.137 21.714 512.293 22.8083 513.147C23.3476 513.599 23.9182 513.947 24.5715 514.207C24.8646 514.354 25.1733 514.45 25.4821 514.545C25.7908 514.641 26.1152 514.684 26.4395 514.727C27.0883 514.813 27.6654 514.763 28.2424 514.712C28.7837 514.594 29.3406 514.422 29.8102 514.167C29.8102 514.167 29.96 514.042 30.2798 513.912C30.5481 513.766 30.9148 513.479 31.3486 513.155C32.1647 512.492 33.0746 511.515 33.7428 510.406C34.411 509.297 34.8421 508.229 35.0922 507.391C35.2173 506.972 35.2752 506.589 35.3377 506.38C35.3488 506.154 35.3957 505.997 35.3957 505.997C34.0174 505.342 32.9212 505.061 32.0914 505.204C31.2101 505.332 30.6468 505.902 29.6184 506.9Z" fill="#DE8342" stroke="#A45A25"/>
<path d="M30.472 505.271C30.4718 506.885 30.6217 508.446 30.1883 510.063C29.8656 511.322 29.2741 512.526 28.6825 513.402C28.3598 513.84 28.0909 514.223 27.8758 514.442C27.6607 514.661 27.4994 514.825 27.4994 514.825C28.4674 515.318 29.5967 515.427 30.726 515.318C31.8554 515.154 32.9847 514.771 33.899 514.114C38.5382 510.876 36.8316 505.877 34.4647 503.403C32.5632 502.314 30.9847 503.162 30.472 505.271Z" fill="#DE8342" stroke="#A45A25"/>
<path d="M35.4512 513.355C39.9189 512.092 40.5418 505.458 36.8751 503.166C33.2085 500.875 30.4585 503.625 30.4598 504.676C35.0443 505.546 36.8745 507.75 35.4512 513.355Z" fill="#DE8342" stroke="#A45A25"/>
</svg>
