<svg width="62" height="44" viewBox="0 0 62 44" fill="none" xmlns="http://www.w3.org/2000/svg">
<path d="M39.708 32.7178C41.3493 31.8892 42.3654 30.4551 42.9639 28.7504C45.1223 22.6033 39.1439 17.5351 33.4127 18.5494C31.4531 18.8086 29.9801 20.3419 31.0042 22.0645C33.5235 26.3022 38.2948 27.6126 39.708 32.7178Z" fill="#EDEDED" stroke="#D2D2D2"/>
<path d="M42.449 21.4417C43.3405 19.8338 43.3746 18.0765 42.9113 16.3302C41.2405 10.0331 33.447 9.20254 29.2775 13.2633C27.8025 14.5793 27.4463 16.6755 29.2617 17.5244C33.7275 19.6127 38.4102 18.0141 42.449 21.4417Z" fill="#EDEDED" stroke="#D2D2D2"/>
<path d="M38.3801 10.5893C38.2134 8.75835 37.2537 7.28586 35.8888 6.1021C30.967 1.83349 24.0547 5.52797 22.8893 11.2303C22.4093 13.1479 23.2932 15.0817 25.2717 14.7632C30.139 13.9796 33.113 10.0251 38.3801 10.5893Z" fill="#EDEDED" stroke="#D2D2D2"/>
<path d="M28.9129 3.88903C27.7458 2.46849 26.1243 1.79023 24.33 1.57857C17.8598 0.815305 14.2202 7.75663 16.4622 13.1277C17.1432 14.9834 18.9613 16.0858 20.4186 14.7101C24.0034 11.3258 24.2397 6.38346 28.9129 3.88903Z" fill="#EDEDED" stroke="#D2D2D2"/>
<path d="M17.3181 3.68386C15.5543 3.16517 13.832 3.51581 12.2291 4.34947C6.44906 7.35561 7.34129 15.1423 12.2149 18.3239C13.8214 19.4757 15.9448 19.3654 16.3765 17.4084C17.4387 12.5942 14.8556 8.37393 17.3181 3.68386Z" fill="#EDEDED" stroke="#D2D2D2"/>
<path d="M35.7808 37.4377C37.5974 37.1548 39.0058 36.1032 40.1002 34.6657C44.0466 29.4819 39.9193 22.819 34.1543 22.0193C32.2101 21.6624 30.3365 22.6676 30.7804 24.6219C31.8724 29.4294 36.0084 32.1454 35.7808 37.4377Z" fill="#EDEDED" stroke="#D2D2D2"/>
<path d="M58.4976 15.7832L61 16.5746L57.5331 24.813C55.635 29.3161 51.8737 28.8611 48 27.765C49.8555 23.3727 51.9589 13.7295 58.4976 15.7832Z" fill="#EDEDED" stroke="#D2D2D2"/>
<path d="M50.4976 15.7832L53 16.5746L49.5331 24.813C47.635 29.3161 43.8737 28.8611 40 27.765C41.8555 23.3727 43.9589 13.7295 50.4976 15.7832Z" fill="#EDEDED" stroke="#D2D2D2"/>
<path d="M42.4976 15.7832L45 16.5746L41.5331 24.813C39.635 29.3161 35.8737 28.8611 32 27.765C33.8555 23.3727 35.9589 13.7295 42.4976 15.7832Z" fill="#EDEDED" stroke="#D2D2D2"/>
<path d="M34.4976 15.7832L37 16.5746L33.5331 24.813C31.635 29.3161 27.8737 28.8611 24 27.765C25.8555 23.3727 27.9589 13.7295 34.4976 15.7832Z" fill="#EDEDED" stroke="#D2D2D2"/>
<path d="M26.4976 15.7832L29 16.5746L25.5331 24.813C23.635 29.3161 19.8737 28.8611 16 27.765C17.8555 23.3727 19.9589 13.7295 26.4976 15.7832Z" fill="#EDEDED" stroke="#D2D2D2"/>
<path d="M28.2168 -3.49761L27.4254 -6L19.187 -2.53307C14.6839 -0.634978 15.1389 3.12634 16.235 7C20.6273 5.14452 30.2705 3.04113 28.2168 -3.49761Z" fill="#EDEDED" stroke="#D2D2D2"/>
<path d="M28.2168 4.50239L27.4254 2L19.187 5.46693C14.6839 7.36502 15.1389 11.1263 16.235 15C20.6273 13.1445 30.2705 11.0411 28.2168 4.50239Z" fill="#EDEDED" stroke="#D2D2D2"/>
<path d="M28.2168 12.5024L27.4254 10L19.187 13.4669C14.6839 15.365 15.1389 19.1263 16.235 23C20.6273 21.1445 30.2705 19.0411 28.2168 12.5024Z" fill="#EDEDED" stroke="#D2D2D2"/>
<path d="M28.2168 20.5024L27.4254 18L19.187 21.4669C14.6839 23.365 15.1389 27.1263 16.235 31C20.6273 29.1445 30.2705 27.0411 28.2168 20.5024Z" fill="#EDEDED" stroke="#D2D2D2"/>
<path d="M28.2168 28.5024L27.4254 26L19.187 29.4669C14.6839 31.365 15.1389 35.1263 16.235 39C20.6273 37.1445 30.2705 35.0411 28.2168 28.5024Z" fill="#EDEDED" stroke="#D2D2D2"/>
<path d="M7.61146 10.0268C5.86116 10.5894 4.63391 11.8476 3.77695 13.4382C0.686771 19.1737 5.80217 25.1119 11.6214 25.0033C13.5975 25.0527 15.2915 23.7677 14.5484 21.9066C12.7204 17.328 8.21162 15.2899 7.61146 10.0268Z" fill="#EDEDED" stroke="#D2D2D2"/>
<path d="M3.14812 20.7301C2.01688 22.1794 1.70927 23.9099 1.89473 25.7071C2.56348 32.1877 10.1323 34.2229 14.8838 30.8616C16.5459 29.7916 17.2245 27.7766 15.5636 26.6551C11.4779 23.8962 6.60327 24.7454 3.14812 20.7301Z" fill="#EDEDED" stroke="#D2D2D2"/>
<path d="M5.47278 32.0947C5.35198 33.9292 6.07043 35.5333 7.23415 36.9153C11.4305 41.8989 18.8341 39.327 20.8741 33.876C21.6471 32.0568 21.0755 30.0088 19.0715 30.015C14.1415 30.0303 10.5875 33.473 5.47278 32.0947Z" fill="#EDEDED" stroke="#D2D2D2"/>
<path d="M13.7844 40.1789C14.7158 41.764 16.2118 42.6867 17.9511 43.1754C24.2232 44.9379 28.9003 38.6487 27.5229 32.9938C27.1395 31.0547 25.5154 29.6823 23.8616 30.814C19.793 33.5982 18.7892 38.4433 13.7844 40.1789Z" fill="#EDEDED" stroke="#D2D2D2"/>
<path d="M25.2011 42.1982C26.8625 42.9855 28.6184 42.9076 30.3317 42.3339C36.5096 40.2655 36.842 32.4349 32.5239 28.5325C31.1166 27.1444 29.002 26.9224 28.2704 28.7882C26.4709 33.378 28.3645 37.9493 25.2011 42.1982Z" fill="#EDEDED" stroke="#D2D2D2"/>
</svg>
