<svg width="60" height="47" viewBox="0 0 60 47" fill="none" xmlns="http://www.w3.org/2000/svg">
<path d="M30.5237 41.847C31.7239 42.3524 32.9641 42.2425 34.1587 41.7832C38.4662 40.1269 38.4575 34.575 35.28 31.9479C34.2409 31.0094 32.7375 30.9182 32.2779 32.2614C31.1474 35.5655 32.6299 38.7416 30.5237 41.847Z" fill="#DB42AD" stroke="#B42A8A"/>
<path d="M37.0051 40.3699C38.3065 40.4185 39.4278 39.8774 40.383 39.0256C43.8271 35.9538 41.8568 30.7633 37.956 29.4287C36.6522 28.9181 35.2136 29.3641 35.2584 30.783C35.3686 34.2734 37.8779 36.7205 37.0051 40.3699Z" fill="#DB42AD" stroke="#B42A8A"/>
<path d="M42.5436 36.6979C43.7782 36.2833 44.636 35.3809 45.2284 34.2464C47.3647 30.1557 43.6871 25.9965 39.5663 26.1267C38.1662 26.1097 36.978 27.0354 37.5214 28.3469C38.8581 31.5731 42.0703 32.9755 42.5436 36.6979Z" fill="#DB42AD" stroke="#B42A8A"/>
<path d="M46.4289 31.3047C47.4373 30.4806 47.9207 29.3332 48.074 28.0626C48.6266 23.4808 43.7164 20.8898 39.9076 22.468C38.5919 22.947 37.8075 24.2328 38.7794 25.2676C41.17 27.8132 44.6706 27.9898 46.4289 31.3047Z" fill="#DB42AD" stroke="#B42A8A"/>
<path d="M48.1599 24.8862C48.812 23.7589 48.8587 22.5148 48.5531 21.272C47.4507 16.7906 41.9417 16.1021 38.9364 18.9246C37.8749 19.8377 37.5956 21.3177 38.8704 21.9423C42.0065 23.4787 45.3435 22.4067 48.1599 24.8862Z" fill="#DB42AD" stroke="#B42A8A"/>
<path d="M47.5053 18.2718C47.7169 16.9867 47.321 15.8063 46.5958 14.7518C43.9808 10.9492 38.5839 12.2522 36.7701 15.9546C36.0998 17.1839 36.3616 18.6671 37.7749 18.8009C41.2516 19.1298 43.9944 16.9476 47.5053 18.2718Z" fill="#DB42AD" stroke="#B42A8A"/>
<path d="M44.5575 12.3143C44.3013 11.0375 43.5137 10.0732 42.4626 9.34301C38.6724 6.70999 34.0844 9.83626 33.6962 13.9408C33.5036 15.3277 34.2727 16.6226 35.642 16.2482C39.0106 15.3272 40.8052 12.3165 44.5575 12.3143Z" fill="#DB42AD" stroke="#B42A8A"/>
<path d="M39.6953 7.78268C39.0044 6.67877 37.9268 6.05508 36.6855 5.7435C32.2094 4.61992 29.0223 9.16594 30.1097 13.1428C30.4197 14.5082 31.5969 15.4478 32.7455 14.6136C35.5712 12.5615 36.1859 9.11084 39.6953 7.78268Z" fill="#DB42AD" stroke="#B42A8A"/>
<path d="M21.5069 39.9427C22.3143 40.9645 23.4535 41.4668 24.7214 41.641C29.2935 42.2689 31.965 37.402 30.4497 33.5677C29.9925 32.2443 28.7197 31.4389 27.669 32.3936C25.0844 34.742 24.8503 38.2392 21.5069 39.9427Z" fill="#DB42AD" stroke="#B42A8A"/>
<path d="M16.1785 35.9691C16.5727 37.2104 17.4609 38.0829 18.5854 38.6939C22.6405 40.8972 26.8596 37.2885 26.7972 33.1662C26.8372 31.7665 25.9312 30.5633 24.611 31.085C21.3632 32.3685 19.9082 35.5572 16.1785 35.9691Z" fill="#DB42AD" stroke="#B42A8A"/>
<path d="M35.2604 23.2024L34.5908 21.085L27.6198 24.0185C23.8095 25.6246 24.1945 28.8072 25.1219 32.085C28.8385 30.5149 36.9981 28.7351 35.2604 23.2024Z" fill="#DB42AD" stroke="#B42A8A"/>
<path d="M35.2604 30.2024L34.5908 28.085L27.6198 31.0185C23.8095 32.6246 24.1945 35.8072 25.1219 39.085C28.8385 37.5149 36.9981 35.7351 35.2604 30.2024Z" fill="#DB42AD" stroke="#B42A8A"/>
<path d="M35.2604 37.2024L34.5908 35.085L27.6198 38.0185C23.8095 39.6246 24.1945 42.8072 25.1219 46.085C28.8385 44.5149 36.9981 42.7351 35.2604 37.2024Z" fill="#DB42AD" stroke="#B42A8A"/>
<path d="M56.4976 15.7832L59 16.5746L55.5331 24.813C53.635 29.3161 49.8737 28.8611 46 27.765C47.8555 23.3727 49.9589 13.7295 56.4976 15.7832Z" fill="#EDEDED" stroke="#D2D2D2"/>
<path d="M48.4976 15.7832L51 16.5746L47.5331 24.813C45.635 29.3161 41.8737 28.8611 38 27.765C39.8555 23.3727 41.9589 13.7295 48.4976 15.7832Z" fill="#EDEDED" stroke="#D2D2D2"/>
<path d="M40.4976 15.7832L43 16.5746L39.5331 24.813C37.635 29.3161 33.8737 28.8611 30 27.765C31.8555 23.3727 33.9589 13.7295 40.4976 15.7832Z" fill="#EDEDED" stroke="#D2D2D2"/>
<path d="M32.4976 15.7832L35 16.5746L31.5331 24.813C29.635 29.3161 25.8737 28.8611 22 27.765C23.8555 23.3727 25.9589 13.7295 32.4976 15.7832Z" fill="#EDEDED" stroke="#D2D2D2"/>
<path d="M24.4976 15.7832L27 16.5746L23.5331 24.813C21.635 29.3161 17.8737 28.8611 14 27.765C15.8555 23.3727 17.9589 13.7295 24.4976 15.7832Z" fill="#EDEDED" stroke="#D2D2D2"/>
<path d="M33.5455 5.2624C32.5089 4.47393 31.2805 4.27133 30.0092 4.41855C25.4248 4.94945 24.0501 10.3285 26.4729 13.6643C27.2454 14.8321 28.6787 15.295 29.4584 14.1087C31.3764 11.1904 30.7319 7.74515 33.5455 5.2624Z" fill="#DB42AD" stroke="#B42A8A"/>
<path d="M26.9009 5.07927C25.6526 4.70801 24.4318 4.95264 23.2946 5.53968C19.1937 7.65652 19.8088 13.1742 23.2541 15.4386C24.3896 16.258 25.8939 16.1844 26.204 14.7991C26.9669 11.3913 25.1464 8.39616 26.9009 5.07927Z" fill="#DB42AD" stroke="#B42A8A"/>
<path d="M20.622 7.25456C19.323 7.34844 18.2675 8.00872 17.4111 8.9598C14.323 12.3894 16.8485 17.3336 20.8718 18.2342C22.2235 18.5994 23.6048 17.9989 23.4053 16.5934C22.9145 13.1359 20.1529 10.9775 20.622 7.25456Z" fill="#DB42AD" stroke="#B42A8A"/>
<path d="M15.5144 11.5103C14.3325 12.0571 13.5784 13.0479 13.1134 14.2402C11.4367 18.5399 15.5466 22.2725 19.6285 21.693C21.0221 21.5569 22.102 20.507 21.4186 19.2627C19.7376 16.2018 16.3914 15.1587 15.5144 11.5103Z" fill="#DB42AD" stroke="#B42A8A"/>
<path d="M12.2401 17.2953C11.3277 18.2246 10.9724 19.4179 10.9589 20.6976C10.9099 25.3123 16.0738 27.3516 19.6874 25.3669C20.943 24.747 21.5822 23.3832 20.5032 22.4608C17.8488 20.1915 14.3499 20.3983 12.2401 17.2953Z" fill="#DB42AD" stroke="#B42A8A"/>
<path d="M11.2243 23.8646C10.6992 25.0564 10.7886 26.2982 11.2282 27.5002C12.8134 31.8344 18.3647 31.917 21.0437 28.7833C21.9992 27.7597 22.1151 26.258 20.7797 25.7764C17.4946 24.5917 14.2946 26.0217 11.2243 23.8646Z" fill="#DB42AD" stroke="#B42A8A"/>
<path d="M12.5936 30.369C12.5237 31.6694 13.0462 32.7995 13.8822 33.7685C16.8969 37.2628 22.1191 35.3781 23.5177 31.4998C24.0498 30.2046 23.6275 28.7588 22.2081 28.7803C18.7163 28.833 16.2282 31.3017 12.5936 30.369Z" fill="#DB42AD" stroke="#B42A8A"/>
</svg>
