<svg width="60" height="348" viewBox="0 0 60 348" fill="none" xmlns="http://www.w3.org/2000/svg">
<path d="M35.2604 3.11741L34.5908 1L27.6198 3.93356C23.8095 5.53963 24.1945 8.72229 25.1219 12C28.8385 10.43 36.9981 8.65019 35.2604 3.11741Z" fill="#DB42AD" stroke="#B42A8A"/>
<path d="M35.2604 10.1174L34.5908 8L27.6198 10.9336C23.8095 12.5396 24.1945 15.7223 25.1219 19C28.8385 17.43 36.9981 15.6502 35.2604 10.1174Z" fill="#DB42AD" stroke="#B42A8A"/>
<path d="M35.2604 17.1174L34.5908 15L27.6198 17.9336C23.8095 19.5396 24.1945 22.7223 25.1219 26C28.8385 24.43 36.9981 22.6502 35.2604 17.1174Z" fill="#DB42AD" stroke="#B42A8A"/>
<path d="M35.2604 24.1174L34.5908 22L27.6198 24.9336C23.8095 26.5396 24.1945 29.7223 25.1219 33C28.8385 31.43 36.9981 29.6502 35.2604 24.1174Z" fill="#DB42AD" stroke="#B42A8A"/>
<path d="M35.2604 31.1174L34.5908 29L27.6198 31.9336C23.8095 33.5396 24.1945 36.7223 25.1219 40C28.8385 38.43 36.9981 36.6502 35.2604 31.1174Z" fill="#DB42AD" stroke="#B42A8A"/>
<path d="M35.2604 38.1174L34.5908 36L27.6198 38.9336C23.8095 40.5396 24.1945 43.7223 25.1219 47C28.8385 45.43 36.9981 43.6502 35.2604 38.1174Z" fill="#DB42AD" stroke="#B42A8A"/>
<path d="M35.2604 45.1174L34.5908 43L27.6198 45.9336C23.8095 47.5396 24.1945 50.7223 25.1219 54C28.8385 52.43 36.9981 50.6502 35.2604 45.1174Z" fill="#DB42AD" stroke="#B42A8A"/>
<path d="M35.2604 52.1174L34.5908 50L27.6198 52.9336C23.8095 54.5396 24.1945 57.7223 25.1219 61C28.8385 59.43 36.9981 57.6502 35.2604 52.1174Z" fill="#DB42AD" stroke="#B42A8A"/>
<path d="M35.2604 59.1174L34.5908 57L27.6198 59.9336C23.8095 61.5396 24.1945 64.7223 25.1219 68C28.8385 66.43 36.9981 64.6502 35.2604 59.1174Z" fill="#DB42AD" stroke="#B42A8A"/>
<path d="M35.2604 66.1174L34.5908 64L27.6198 66.9336C23.8095 68.5396 24.1945 71.7223 25.1219 75C28.8385 73.43 36.9981 71.6502 35.2604 66.1174Z" fill="#DB42AD" stroke="#B42A8A"/>
<path d="M35.2604 73.1174L34.5908 71L27.6198 73.9336C23.8095 75.5396 24.1945 78.7223 25.1219 82C28.8385 80.43 36.9981 78.6502 35.2604 73.1174Z" fill="#DB42AD" stroke="#B42A8A"/>
<path d="M35.2604 80.1174L34.5908 78L27.6198 80.9336C23.8095 82.5396 24.1945 85.7223 25.1219 89C28.8385 87.43 36.9981 85.6502 35.2604 80.1174Z" fill="#DB42AD" stroke="#B42A8A"/>
<path d="M35.2604 87.1174L34.5908 85L27.6198 87.9336C23.8095 89.5396 24.1945 92.7223 25.1219 96C28.8385 94.43 36.9981 92.6502 35.2604 87.1174Z" fill="#DB42AD" stroke="#B42A8A"/>
<path d="M35.2604 94.1174L34.5908 92L27.6198 94.9336C23.8095 96.5396 24.1945 99.7223 25.1219 103C28.8385 101.43 36.9981 99.6502 35.2604 94.1174Z" fill="#DB42AD" stroke="#B42A8A"/>
<path d="M35.2604 101.117L34.5908 99L27.6198 101.934C23.8095 103.54 24.1945 106.722 25.1219 110C28.8385 108.43 36.9981 106.65 35.2604 101.117Z" fill="#DB42AD" stroke="#B42A8A"/>
<path d="M35.3182 158.458C34.9386 157.488 34.0952 156.518 32.9987 155.928C31.9023 155.295 30.6371 155 29.4142 155C23.8927 155.095 21.8358 161.405 23.3415 165.922C23.468 166.302 23.5945 166.597 23.6789 166.808C23.7632 167.019 23.8053 167.145 23.8053 167.145C25.197 166.935 26.1669 166.681 26.7573 166.175C30.2803 163.533 29.7178 158.458 35.3182 158.458Z" fill="#DB42AD" stroke="#B42A8A"/>
<path d="M40.0368 162.48C39.9718 161.44 39.4651 160.259 38.6015 159.362C37.7508 158.424 36.6364 157.757 35.4719 157.383C30.4164 155.856 25.4113 160.95 27.2282 165.815C35.2485 168.804 34.8711 160.822 40.0368 162.48Z" fill="#DB42AD" stroke="#B42A8A"/>
<path d="M23.6759 159.048C23.7603 158.88 23.8446 158.711 23.8868 158.542C24.0133 158.289 24.0976 158.121 24.0976 158.121C23.1699 157.952 22.1156 158.078 21.1456 158.5C20.1757 158.88 19.2479 159.554 18.5732 160.356C15.5273 164.163 17.5819 169.291 21.1878 171.995C21.3565 172.122 21.5674 172.248 21.7361 172.375C22.0734 172.585 22.3264 172.754 22.5373 172.838C22.7481 172.923 22.8747 172.965 22.8747 172.965C23.8446 171.953 24.3928 171.194 24.5615 170.308C25.1374 166.469 22.5932 163.379 23.6759 159.048Z" fill="#DB42AD" stroke="#B42A8A"/>
<path d="M34.8528 165.796C34.8528 165.796 34.9792 165.754 35.1901 165.669C35.401 165.585 35.6962 165.501 36.0757 165.458C36.8348 165.29 37.9313 165.29 39.0699 165.501C40.2085 165.711 41.3893 166.175 42.2328 166.597C42.6545 166.808 42.9919 167.019 43.2449 167.187C43.4979 167.356 43.6244 167.44 43.6244 167.44C43.9618 166.555 44.0039 165.543 43.7931 164.531C43.5822 163.519 43.0762 162.464 42.3592 161.621C41.6423 160.735 40.7146 160.06 39.7025 159.639C38.6904 159.217 37.5939 159.091 36.6239 159.259C36.6239 159.259 36.4553 159.301 36.1601 159.344C35.8649 159.428 35.4431 159.512 34.9792 159.723C34.5154 159.892 33.9671 160.145 33.4611 160.482C32.955 160.82 32.4912 161.199 32.0695 161.621C31.2682 162.464 30.8886 163.476 30.7621 164.193C30.7199 164.573 30.7199 164.826 30.7621 165.037C30.8043 165.248 30.8043 165.332 30.8043 165.332C31.8164 166.049 32.196 166.597 32.4912 166.597C32.6177 166.597 32.9129 166.513 33.2502 166.344C33.8406 166.218 34.3467 166.007 34.8528 165.796Z" fill="#DB42AD" stroke="#B42A8A"/>
<path d="M35.4596 150.117L34.79 148L27.819 150.934C24.0087 152.54 24.3937 155.722 25.3212 159C29.0377 157.43 37.1974 155.65 35.4596 150.117Z" fill="#DB42AD" stroke="#B42A8A"/>
<path d="M35.4596 157.117L34.79 155L27.819 157.934C24.0087 159.54 24.3937 162.722 25.3212 166C29.0377 164.43 37.1974 162.65 35.4596 157.117Z" fill="#DB42AD" stroke="#B42A8A"/>
<path d="M35.4596 164.117L34.79 162L27.819 164.934C24.0087 166.54 24.3937 169.722 25.3212 173C29.0377 171.43 37.1974 169.65 35.4596 164.117Z" fill="#DB42AD" stroke="#B42A8A"/>
<path d="M35.4596 171.117L34.79 169L27.819 171.934C24.0087 173.54 24.3937 176.722 25.3212 180C29.0377 178.43 37.1974 176.65 35.4596 171.117Z" fill="#DB42AD" stroke="#B42A8A"/>
<path d="M35.4596 178.117L34.79 176L27.819 178.934C24.0087 180.54 24.3937 183.722 25.3212 187C29.0377 185.43 37.1974 183.65 35.4596 178.117Z" fill="#DB42AD" stroke="#B42A8A"/>
<path d="M35.4596 185.117L34.79 183L27.819 185.934C24.0087 187.54 24.3937 190.722 25.3212 194C29.0377 192.43 37.1974 190.65 35.4596 185.117Z" fill="#DB42AD" stroke="#B42A8A"/>
<path d="M17.3091 166.428C17.2247 166.133 17.1826 166.007 17.1826 166.007C15.58 166.934 14.4836 168.917 14.4414 171.067C14.4414 176.277 20.0414 179.144 24.7734 177.899C25.153 177.815 25.4481 177.73 25.659 177.646C25.8699 177.562 25.9964 177.52 25.9964 177.52C25.7106 172.662 18.7865 171.599 17.3091 166.428Z" fill="#DB42AD" stroke="#B42A8A"/>
<path d="M25.9981 177.478C25.9981 177.478 25.8715 177.52 25.6607 177.604C25.4498 177.688 25.1546 177.773 24.7751 177.857C24.016 178.026 22.9196 178.152 21.7388 178.068C21.1484 178.026 20.6001 177.899 20.0097 177.731C19.4615 177.562 18.9554 177.351 18.4915 177.182C18.0698 176.972 17.6903 176.761 17.4373 176.634C17.1842 176.466 17.0155 176.381 17.0155 176.381C16.889 176.845 16.8469 177.309 16.8047 177.815C16.8047 178.321 16.889 178.827 17.0577 179.375C17.1842 179.881 17.4372 180.387 17.6903 180.851C17.9433 181.315 18.3229 181.737 18.7024 182.159C19.0819 182.538 19.5037 182.876 19.9675 183.171C20.4314 183.466 20.8953 183.677 21.4014 183.846C21.9074 184.014 22.3713 184.099 22.8774 184.141C23.3834 184.183 23.8474 184.099 24.2691 184.014C24.2691 184.014 24.4378 183.972 24.6908 183.888C24.986 183.803 25.3655 183.677 25.8294 183.55C26.715 183.213 27.8536 182.665 28.7814 181.99C29.2453 181.653 29.667 181.273 30.0465 180.936C30.4261 180.556 30.7213 180.219 30.9321 179.881C31.396 179.207 31.6069 178.785 31.6069 178.785C30.6791 177.731 29.9622 177.14 29.1188 176.972C28.2754 176.803 27.3054 176.972 25.9981 177.478Z" fill="#DB42AD" stroke="#B42A8A"/>
<path d="M31.6054 178.827C31.6054 178.827 31.3945 179.249 30.9306 179.924C30.6776 180.219 30.3824 180.598 30.045 180.978C29.6655 181.315 29.2438 181.695 28.7799 182.032C27.8521 182.707 26.7135 183.255 25.8279 183.592C25.364 183.761 24.9845 183.888 24.6893 183.93C24.3941 184.014 24.2676 184.014 24.2676 184.014C24.4784 184.436 24.7736 184.815 25.0688 185.153C25.4062 185.532 25.7857 185.828 26.2075 186.081C26.6292 186.376 27.093 186.587 27.5991 186.755C28.1051 186.924 28.6112 187.008 29.1595 187.093C30.2137 187.177 31.3524 187.008 32.3223 186.629C33.2923 186.207 34.1357 185.617 34.6839 184.815C34.6839 184.815 34.7682 184.689 34.9369 184.436C35.1056 184.225 35.3165 183.803 35.5273 183.382C35.9912 182.538 36.4129 181.315 36.5816 180.177C36.7503 179.038 36.7081 177.941 36.5395 177.14C36.4551 176.761 36.3708 176.423 36.3286 176.212C36.2443 176.002 36.2021 175.875 36.2021 175.875C34.8104 175.875 33.8405 175.959 33.2079 176.381C33.0392 176.465 32.9127 176.592 32.744 176.761C32.6175 176.887 32.491 177.056 32.3645 177.267C32.238 177.435 32.1114 177.688 31.9849 177.941C31.9006 178.237 31.7741 178.49 31.6054 178.827Z" fill="#DB42AD" stroke="#B42A8A"/>
<path d="M36.2838 175.959C36.2838 175.959 36.326 176.086 36.4103 176.297C36.4525 176.507 36.5368 176.803 36.6212 177.224C36.7477 177.983 36.832 179.08 36.6633 180.261C36.4947 181.399 36.0729 182.622 35.6091 183.466C35.3982 183.887 35.1452 184.267 35.0187 184.52C34.85 184.773 34.7656 184.9 34.7656 184.9C34.9765 184.984 35.2295 185.068 35.4826 185.11C35.7356 185.153 35.9886 185.153 36.2416 185.195C36.4947 185.195 36.7477 185.195 37.0429 185.195C37.2959 185.153 37.549 185.11 37.802 185.068C38.8141 184.815 39.8262 184.309 40.6696 183.592C41.5131 182.875 42.1456 181.948 42.5252 181.02C42.9047 180.05 43.0313 179.038 42.8626 178.11C42.8626 178.11 42.8204 177.941 42.7782 177.646C42.736 177.351 42.6095 176.971 42.483 176.507C42.1878 175.58 41.6818 174.441 41.007 173.471C40.3323 172.501 39.4889 171.784 38.8563 171.32C38.5189 171.11 38.2659 170.941 38.055 170.814C37.8442 170.688 37.7598 170.646 37.7598 170.646C36.7477 171.616 36.1573 172.332 35.9886 173.049C35.6512 173.682 35.8621 174.61 36.2838 175.959Z" fill="#DB42AD" stroke="#B42A8A"/>
<path d="M42.6539 177.562C42.6961 177.857 42.7382 178.026 42.7382 178.026C43.5816 177.646 44.3408 176.929 44.9312 176.044C45.5216 175.158 45.8589 174.062 45.9432 172.965C46.0276 171.869 45.8589 170.73 45.4372 169.802C43.6832 165.768 41.1944 164.359 35.9288 165.392C34.8622 167.353 34.81 168.115 35.1895 168.79C37.4786 172.351 41.75 172.138 42.6539 177.562Z" fill="#DB42AD" stroke="#B42A8A"/>
<path d="M35.3182 137.458C34.9386 136.488 34.0952 135.518 32.9987 134.928C31.9023 134.295 30.6371 134 29.4142 134C23.8927 134.095 21.8358 140.405 23.3415 144.922C23.468 145.302 23.5945 145.597 23.6789 145.808C23.7632 146.019 23.8053 146.145 23.8053 146.145C25.197 145.935 26.1669 145.681 26.7573 145.175C30.2803 142.533 29.7178 137.458 35.3182 137.458Z" fill="#DB42AD" stroke="#B42A8A"/>
<path d="M40.0368 141.48C39.9718 140.44 39.4651 139.259 38.6015 138.362C37.7508 137.424 36.6364 136.757 35.4719 136.383C30.4164 134.856 25.4113 139.95 27.2282 144.815C35.2485 147.804 34.8711 139.822 40.0368 141.48Z" fill="#DB42AD" stroke="#B42A8A"/>
<path d="M23.6759 138.048C23.7603 137.88 23.8446 137.711 23.8868 137.542C24.0133 137.289 24.0976 137.121 24.0976 137.121C23.1699 136.952 22.1156 137.078 21.1456 137.5C20.1757 137.88 19.2479 138.554 18.5732 139.356C15.5273 143.163 17.5819 148.291 21.1878 150.995C21.3565 151.122 21.5674 151.248 21.7361 151.375C22.0734 151.585 22.3264 151.754 22.5373 151.838C22.7481 151.923 22.8747 151.965 22.8747 151.965C23.8446 150.953 24.3928 150.194 24.5615 149.308C25.1374 145.469 22.5932 142.379 23.6759 138.048Z" fill="#DB42AD" stroke="#B42A8A"/>
<path d="M34.8528 144.796C34.8528 144.796 34.9792 144.754 35.1901 144.669C35.401 144.585 35.6962 144.501 36.0757 144.458C36.8348 144.29 37.9313 144.29 39.0699 144.501C40.2085 144.711 41.3893 145.175 42.2328 145.597C42.6545 145.808 42.9919 146.019 43.2449 146.187C43.4979 146.356 43.6244 146.44 43.6244 146.44C43.9618 145.555 44.0039 144.543 43.7931 143.531C43.5822 142.519 43.0762 141.464 42.3592 140.621C41.6423 139.735 40.7146 139.06 39.7025 138.639C38.6904 138.217 37.5939 138.091 36.6239 138.259C36.6239 138.259 36.4553 138.301 36.1601 138.344C35.8649 138.428 35.4431 138.512 34.9792 138.723C34.5154 138.892 33.9671 139.145 33.4611 139.482C32.955 139.82 32.4912 140.199 32.0695 140.621C31.2682 141.464 30.8886 142.476 30.7621 143.193C30.7199 143.573 30.7199 143.826 30.7621 144.037C30.8043 144.248 30.8043 144.332 30.8043 144.332C31.8164 145.049 32.196 145.597 32.4912 145.597C32.6177 145.597 32.9129 145.513 33.2502 145.344C33.8406 145.218 34.3467 145.007 34.8528 144.796Z" fill="#DB42AD" stroke="#B42A8A"/>
<path d="M35.4596 129.117L34.79 127L27.819 129.934C24.0087 131.54 24.3937 134.722 25.3212 138C29.0377 136.43 37.1974 134.65 35.4596 129.117Z" fill="#DB42AD" stroke="#B42A8A"/>
<path d="M35.4596 136.117L34.79 134L27.819 136.934C24.0087 138.54 24.3937 141.722 25.3212 145C29.0377 143.43 37.1974 141.65 35.4596 136.117Z" fill="#DB42AD" stroke="#B42A8A"/>
<path d="M35.4596 143.117L34.79 141L27.819 143.934C24.0087 145.54 24.3937 148.722 25.3212 152C29.0377 150.43 37.1974 148.65 35.4596 143.117Z" fill="#DB42AD" stroke="#B42A8A"/>
<path d="M35.4596 150.117L34.79 148L27.819 150.934C24.0087 152.54 24.3937 155.722 25.3212 159C29.0377 157.43 37.1974 155.65 35.4596 150.117Z" fill="#DB42AD" stroke="#B42A8A"/>
<path d="M35.4596 157.117L34.79 155L27.819 157.934C24.0087 159.54 24.3937 162.722 25.3212 166C29.0377 164.43 37.1974 162.65 35.4596 157.117Z" fill="#DB42AD" stroke="#B42A8A"/>
<path d="M35.4596 164.117L34.79 162L27.819 164.934C24.0087 166.54 24.3937 169.722 25.3212 173C29.0377 171.43 37.1974 169.65 35.4596 164.117Z" fill="#DB42AD" stroke="#B42A8A"/>
<path d="M17.3091 145.428C17.2247 145.133 17.1826 145.007 17.1826 145.007C15.58 145.934 14.4836 147.917 14.4414 150.067C14.4414 155.277 20.0414 158.144 24.7734 156.899C25.153 156.815 25.4481 156.73 25.659 156.646C25.8699 156.562 25.9964 156.52 25.9964 156.52C25.7106 151.662 18.7865 150.599 17.3091 145.428Z" fill="#DB42AD" stroke="#B42A8A"/>
<path d="M25.9981 156.478C25.9981 156.478 25.8715 156.52 25.6607 156.604C25.4498 156.688 25.1546 156.773 24.7751 156.857C24.016 157.026 22.9196 157.152 21.7388 157.068C21.1484 157.026 20.6001 156.899 20.0097 156.731C19.4615 156.562 18.9554 156.351 18.4915 156.182C18.0698 155.972 17.6903 155.761 17.4373 155.634C17.1842 155.466 17.0155 155.381 17.0155 155.381C16.889 155.845 16.8469 156.309 16.8047 156.815C16.8047 157.321 16.889 157.827 17.0577 158.375C17.1842 158.881 17.4372 159.387 17.6903 159.851C17.9433 160.315 18.3229 160.737 18.7024 161.159C19.0819 161.538 19.5037 161.876 19.9675 162.171C20.4314 162.466 20.8953 162.677 21.4014 162.846C21.9074 163.014 22.3713 163.099 22.8774 163.141C23.3834 163.183 23.8474 163.099 24.2691 163.014C24.2691 163.014 24.4378 162.972 24.6908 162.888C24.986 162.803 25.3655 162.677 25.8294 162.55C26.715 162.213 27.8536 161.665 28.7814 160.99C29.2453 160.653 29.667 160.273 30.0465 159.936C30.4261 159.556 30.7213 159.219 30.9321 158.881C31.396 158.207 31.6069 157.785 31.6069 157.785C30.6791 156.731 29.9622 156.14 29.1188 155.972C28.2754 155.803 27.3054 155.972 25.9981 156.478Z" fill="#DB42AD" stroke="#B42A8A"/>
<path d="M31.6054 157.827C31.6054 157.827 31.3945 158.249 30.9306 158.924C30.6776 159.219 30.3824 159.598 30.045 159.978C29.6655 160.315 29.2438 160.695 28.7799 161.032C27.8521 161.707 26.7135 162.255 25.8279 162.592C25.364 162.761 24.9845 162.888 24.6893 162.93C24.3941 163.014 24.2676 163.014 24.2676 163.014C24.4784 163.436 24.7736 163.815 25.0688 164.153C25.4062 164.532 25.7857 164.828 26.2075 165.081C26.6292 165.376 27.093 165.587 27.5991 165.755C28.1051 165.924 28.6112 166.008 29.1595 166.093C30.2137 166.177 31.3524 166.008 32.3223 165.629C33.2923 165.207 34.1357 164.617 34.6839 163.815C34.6839 163.815 34.7682 163.689 34.9369 163.436C35.1056 163.225 35.3165 162.803 35.5273 162.382C35.9912 161.538 36.4129 160.315 36.5816 159.177C36.7503 158.038 36.7081 156.941 36.5395 156.14C36.4551 155.761 36.3708 155.423 36.3286 155.212C36.2443 155.002 36.2021 154.875 36.2021 154.875C34.8104 154.875 33.8405 154.959 33.2079 155.381C33.0392 155.465 32.9127 155.592 32.744 155.761C32.6175 155.887 32.491 156.056 32.3645 156.267C32.238 156.435 32.1114 156.688 31.9849 156.941C31.9006 157.237 31.7741 157.49 31.6054 157.827Z" fill="#DB42AD" stroke="#B42A8A"/>
<path d="M36.2838 154.959C36.2838 154.959 36.326 155.086 36.4103 155.297C36.4525 155.507 36.5368 155.803 36.6212 156.224C36.7477 156.983 36.832 158.08 36.6633 159.261C36.4947 160.399 36.0729 161.622 35.6091 162.466C35.3982 162.887 35.1452 163.267 35.0187 163.52C34.85 163.773 34.7656 163.9 34.7656 163.9C34.9765 163.984 35.2295 164.068 35.4826 164.11C35.7356 164.153 35.9886 164.153 36.2416 164.195C36.4947 164.195 36.7477 164.195 37.0429 164.195C37.2959 164.153 37.549 164.11 37.802 164.068C38.8141 163.815 39.8262 163.309 40.6696 162.592C41.5131 161.875 42.1456 160.948 42.5252 160.02C42.9047 159.05 43.0313 158.038 42.8626 157.11C42.8626 157.11 42.8204 156.941 42.7782 156.646C42.736 156.351 42.6095 155.971 42.483 155.507C42.1878 154.58 41.6818 153.441 41.007 152.471C40.3323 151.501 39.4889 150.784 38.8563 150.32C38.5189 150.11 38.2659 149.941 38.055 149.814C37.8442 149.688 37.7598 149.646 37.7598 149.646C36.7477 150.616 36.1573 151.332 35.9886 152.049C35.6512 152.682 35.8621 153.61 36.2838 154.959Z" fill="#DB42AD" stroke="#B42A8A"/>
<path d="M42.6539 156.562C42.6961 156.857 42.7382 157.026 42.7382 157.026C43.5816 156.646 44.3408 155.929 44.9312 155.044C45.5216 154.158 45.8589 153.062 45.9432 151.965C46.0276 150.869 45.8589 149.73 45.4372 148.802C43.6832 144.768 41.1944 143.359 35.9288 144.392C34.8622 146.353 34.81 147.115 35.1895 147.79C37.4786 151.351 41.75 151.138 42.6539 156.562Z" fill="#DB42AD" stroke="#B42A8A"/>
<path d="M35.3182 116.458C34.9386 115.488 34.0952 114.518 32.9987 113.928C31.9023 113.295 30.6371 113 29.4142 113C23.8927 113.095 21.8358 119.405 23.3415 123.922C23.468 124.302 23.5945 124.597 23.6789 124.808C23.7632 125.019 23.8053 125.145 23.8053 125.145C25.197 124.935 26.1669 124.681 26.7573 124.175C30.2803 121.533 29.7178 116.458 35.3182 116.458Z" fill="#DB42AD" stroke="#B42A8A"/>
<path d="M40.0368 120.48C39.9718 119.44 39.4651 118.259 38.6015 117.362C37.7508 116.424 36.6364 115.757 35.4719 115.383C30.4164 113.856 25.4113 118.95 27.2282 123.815C35.2485 126.804 34.8711 118.822 40.0368 120.48Z" fill="#DB42AD" stroke="#B42A8A"/>
<path d="M23.6759 117.048C23.7603 116.88 23.8446 116.711 23.8868 116.542C24.0133 116.289 24.0976 116.121 24.0976 116.121C23.1699 115.952 22.1156 116.078 21.1456 116.5C20.1757 116.88 19.2479 117.554 18.5732 118.356C15.5273 122.163 17.5819 127.291 21.1878 129.995C21.3565 130.122 21.5674 130.248 21.7361 130.375C22.0734 130.585 22.3264 130.754 22.5373 130.838C22.7481 130.923 22.8747 130.965 22.8747 130.965C23.8446 129.953 24.3928 129.194 24.5615 128.308C25.1374 124.469 22.5932 121.379 23.6759 117.048Z" fill="#DB42AD" stroke="#B42A8A"/>
<path d="M34.8528 123.796C34.8528 123.796 34.9792 123.754 35.1901 123.669C35.401 123.585 35.6962 123.501 36.0757 123.458C36.8348 123.29 37.9313 123.29 39.0699 123.501C40.2085 123.711 41.3893 124.175 42.2328 124.597C42.6545 124.808 42.9919 125.019 43.2449 125.187C43.4979 125.356 43.6244 125.44 43.6244 125.44C43.9618 124.555 44.0039 123.543 43.7931 122.531C43.5822 121.519 43.0762 120.464 42.3592 119.621C41.6423 118.735 40.7146 118.06 39.7025 117.639C38.6904 117.217 37.5939 117.091 36.6239 117.259C36.6239 117.259 36.4553 117.301 36.1601 117.344C35.8649 117.428 35.4431 117.512 34.9792 117.723C34.5154 117.892 33.9671 118.145 33.4611 118.482C32.955 118.82 32.4912 119.199 32.0695 119.621C31.2682 120.464 30.8886 121.476 30.7621 122.193C30.7199 122.573 30.7199 122.826 30.7621 123.037C30.8043 123.248 30.8043 123.332 30.8043 123.332C31.8164 124.049 32.196 124.597 32.4912 124.597C32.6177 124.597 32.9129 124.513 33.2502 124.344C33.8406 124.218 34.3467 124.007 34.8528 123.796Z" fill="#DB42AD" stroke="#B42A8A"/>
<path d="M35.4596 108.117L34.79 106L27.819 108.934C24.0087 110.54 24.3937 113.722 25.3212 117C29.0377 115.43 37.1974 113.65 35.4596 108.117Z" fill="#DB42AD" stroke="#B42A8A"/>
<path d="M35.4596 115.117L34.79 113L27.819 115.934C24.0087 117.54 24.3937 120.722 25.3212 124C29.0377 122.43 37.1974 120.65 35.4596 115.117Z" fill="#DB42AD" stroke="#B42A8A"/>
<path d="M35.4596 122.117L34.79 120L27.819 122.934C24.0087 124.54 24.3937 127.722 25.3212 131C29.0377 129.43 37.1974 127.65 35.4596 122.117Z" fill="#DB42AD" stroke="#B42A8A"/>
<path d="M35.4596 129.117L34.79 127L27.819 129.934C24.0087 131.54 24.3937 134.722 25.3212 138C29.0377 136.43 37.1974 134.65 35.4596 129.117Z" fill="#DB42AD" stroke="#B42A8A"/>
<path d="M35.4596 136.117L34.79 134L27.819 136.934C24.0087 138.54 24.3937 141.722 25.3212 145C29.0377 143.43 37.1974 141.65 35.4596 136.117Z" fill="#DB42AD" stroke="#B42A8A"/>
<path d="M35.4596 143.117L34.79 141L27.819 143.934C24.0087 145.54 24.3937 148.722 25.3212 152C29.0377 150.43 37.1974 148.65 35.4596 143.117Z" fill="#DB42AD" stroke="#B42A8A"/>
<path d="M17.3091 124.428C17.2247 124.133 17.1826 124.007 17.1826 124.007C15.58 124.934 14.4836 126.917 14.4414 129.067C14.4414 134.277 20.0414 137.144 24.7734 135.899C25.153 135.815 25.4481 135.73 25.659 135.646C25.8699 135.562 25.9964 135.52 25.9964 135.52C25.7106 130.662 18.7865 129.599 17.3091 124.428Z" fill="#DB42AD" stroke="#B42A8A"/>
<path d="M25.9981 135.478C25.9981 135.478 25.8715 135.52 25.6607 135.604C25.4498 135.688 25.1546 135.773 24.7751 135.857C24.016 136.026 22.9196 136.152 21.7388 136.068C21.1484 136.026 20.6001 135.899 20.0097 135.731C19.4615 135.562 18.9554 135.351 18.4915 135.182C18.0698 134.972 17.6903 134.761 17.4373 134.634C17.1842 134.466 17.0155 134.381 17.0155 134.381C16.889 134.845 16.8469 135.309 16.8047 135.815C16.8047 136.321 16.889 136.827 17.0577 137.375C17.1842 137.881 17.4372 138.387 17.6903 138.851C17.9433 139.315 18.3229 139.737 18.7024 140.159C19.0819 140.538 19.5037 140.876 19.9675 141.171C20.4314 141.466 20.8953 141.677 21.4014 141.846C21.9074 142.014 22.3713 142.099 22.8774 142.141C23.3834 142.183 23.8474 142.099 24.2691 142.014C24.2691 142.014 24.4378 141.972 24.6908 141.888C24.986 141.803 25.3655 141.677 25.8294 141.55C26.715 141.213 27.8536 140.665 28.7814 139.99C29.2453 139.653 29.667 139.273 30.0465 138.936C30.4261 138.556 30.7213 138.219 30.9321 137.881C31.396 137.207 31.6069 136.785 31.6069 136.785C30.6791 135.731 29.9622 135.14 29.1188 134.972C28.2754 134.803 27.3054 134.972 25.9981 135.478Z" fill="#DB42AD" stroke="#B42A8A"/>
<path d="M31.6054 136.827C31.6054 136.827 31.3945 137.249 30.9306 137.924C30.6776 138.219 30.3824 138.598 30.045 138.978C29.6655 139.315 29.2438 139.695 28.7799 140.032C27.8521 140.707 26.7135 141.255 25.8279 141.592C25.364 141.761 24.9845 141.888 24.6893 141.93C24.3941 142.014 24.2676 142.014 24.2676 142.014C24.4784 142.436 24.7736 142.815 25.0688 143.153C25.4062 143.532 25.7857 143.828 26.2075 144.081C26.6292 144.376 27.093 144.587 27.5991 144.755C28.1051 144.924 28.6112 145.008 29.1595 145.093C30.2137 145.177 31.3524 145.008 32.3223 144.629C33.2923 144.207 34.1357 143.617 34.6839 142.815C34.6839 142.815 34.7682 142.689 34.9369 142.436C35.1056 142.225 35.3165 141.803 35.5273 141.382C35.9912 140.538 36.4129 139.315 36.5816 138.177C36.7503 137.038 36.7081 135.941 36.5395 135.14C36.4551 134.761 36.3708 134.423 36.3286 134.212C36.2443 134.002 36.2021 133.875 36.2021 133.875C34.8104 133.875 33.8405 133.959 33.2079 134.381C33.0392 134.465 32.9127 134.592 32.744 134.761C32.6175 134.887 32.491 135.056 32.3645 135.267C32.238 135.435 32.1114 135.688 31.9849 135.941C31.9006 136.237 31.7741 136.49 31.6054 136.827Z" fill="#DB42AD" stroke="#B42A8A"/>
<path d="M36.2838 133.959C36.2838 133.959 36.326 134.086 36.4103 134.297C36.4525 134.507 36.5368 134.803 36.6212 135.224C36.7477 135.983 36.832 137.08 36.6633 138.261C36.4947 139.399 36.0729 140.622 35.6091 141.466C35.3982 141.887 35.1452 142.267 35.0187 142.52C34.85 142.773 34.7656 142.9 34.7656 142.9C34.9765 142.984 35.2295 143.068 35.4826 143.11C35.7356 143.153 35.9886 143.153 36.2416 143.195C36.4947 143.195 36.7477 143.195 37.0429 143.195C37.2959 143.153 37.549 143.11 37.802 143.068C38.8141 142.815 39.8262 142.309 40.6696 141.592C41.5131 140.875 42.1456 139.948 42.5252 139.02C42.9047 138.05 43.0313 137.038 42.8626 136.11C42.8626 136.11 42.8204 135.941 42.7782 135.646C42.736 135.351 42.6095 134.971 42.483 134.507C42.1878 133.58 41.6818 132.441 41.007 131.471C40.3323 130.501 39.4889 129.784 38.8563 129.32C38.5189 129.11 38.2659 128.941 38.055 128.814C37.8442 128.688 37.7598 128.646 37.7598 128.646C36.7477 129.616 36.1573 130.332 35.9886 131.049C35.6512 131.682 35.8621 132.61 36.2838 133.959Z" fill="#DB42AD" stroke="#B42A8A"/>
<path d="M42.6539 135.562C42.6961 135.857 42.7382 136.026 42.7382 136.026C43.5816 135.646 44.3408 134.929 44.9312 134.044C45.5216 133.158 45.8589 132.062 45.9432 130.965C46.0276 129.869 45.8589 128.73 45.4372 127.802C43.6832 123.768 41.1944 122.359 35.9288 123.392C34.8622 125.353 34.81 126.115 35.1895 126.79C37.4786 130.351 41.75 130.138 42.6539 135.562Z" fill="#DB42AD" stroke="#B42A8A"/>
<path d="M35.2604 192.117L34.5908 190L27.6198 192.934C23.8095 194.54 24.1945 197.722 25.1219 201C28.8385 199.43 36.9981 197.65 35.2604 192.117Z" fill="#DB42AD" stroke="#B42A8A"/>
<path d="M35.2604 199.117L34.5908 197L27.6198 199.934C23.8095 201.54 24.1945 204.722 25.1219 208C28.8385 206.43 36.9981 204.65 35.2604 199.117Z" fill="#DB42AD" stroke="#B42A8A"/>
<path d="M35.2604 206.117L34.5908 204L27.6198 206.934C23.8095 208.54 24.1945 211.722 25.1219 215C28.8385 213.43 36.9981 211.65 35.2604 206.117Z" fill="#DB42AD" stroke="#B42A8A"/>
<path d="M35.2604 213.117L34.5908 211L27.6198 213.934C23.8095 215.54 24.1945 218.722 25.1219 222C28.8385 220.43 36.9981 218.65 35.2604 213.117Z" fill="#DB42AD" stroke="#B42A8A"/>
<path d="M35.2604 220.117L34.5908 218L27.6198 220.934C23.8095 222.54 24.1945 225.722 25.1219 229C28.8385 227.43 36.9981 225.65 35.2604 220.117Z" fill="#DB42AD" stroke="#B42A8A"/>
<path d="M35.2604 227.117L34.5908 225L27.6198 227.934C23.8095 229.54 24.1945 232.722 25.1219 236C28.8385 234.43 36.9981 232.65 35.2604 227.117Z" fill="#DB42AD" stroke="#B42A8A"/>
<path d="M35.2604 234.117L34.5908 232L27.6198 234.934C23.8095 236.54 24.1945 239.722 25.1219 243C28.8385 241.43 36.9981 239.65 35.2604 234.117Z" fill="#DB42AD" stroke="#B42A8A"/>
<path d="M35.3182 249.458C34.9386 248.488 34.0952 247.518 32.9987 246.928C31.9023 246.295 30.6371 246 29.4142 246C23.8927 246.095 21.8358 252.405 23.3415 256.922C23.468 257.302 23.5945 257.597 23.6789 257.808C23.7632 258.019 23.8053 258.145 23.8053 258.145C25.197 257.935 26.1669 257.681 26.7573 257.175C30.2803 254.533 29.7178 249.458 35.3182 249.458Z" fill="#DB42AD" stroke="#B42A8A"/>
<path d="M40.0368 253.48C39.9718 252.44 39.4651 251.259 38.6015 250.362C37.7508 249.424 36.6364 248.757 35.4719 248.383C30.4164 246.856 25.4113 251.95 27.2282 256.815C35.2485 259.804 34.8711 251.822 40.0368 253.48Z" fill="#DB42AD" stroke="#B42A8A"/>
<path d="M23.6759 250.048C23.7603 249.88 23.8446 249.711 23.8868 249.542C24.0133 249.289 24.0976 249.121 24.0976 249.121C23.1699 248.952 22.1156 249.078 21.1456 249.5C20.1757 249.88 19.2479 250.554 18.5732 251.356C15.5273 255.163 17.5819 260.291 21.1878 262.995C21.3565 263.122 21.5674 263.248 21.7361 263.375C22.0734 263.585 22.3264 263.754 22.5373 263.838C22.7481 263.923 22.8747 263.965 22.8747 263.965C23.8446 262.953 24.3928 262.194 24.5615 261.308C25.1374 257.469 22.5932 254.379 23.6759 250.048Z" fill="#DB42AD" stroke="#B42A8A"/>
<path d="M34.8528 256.796C34.8528 256.796 34.9792 256.754 35.1901 256.669C35.401 256.585 35.6962 256.501 36.0757 256.458C36.8348 256.29 37.9313 256.29 39.0699 256.501C40.2085 256.711 41.3893 257.175 42.2328 257.597C42.6545 257.808 42.9919 258.019 43.2449 258.187C43.4979 258.356 43.6244 258.44 43.6244 258.44C43.9618 257.555 44.0039 256.543 43.7931 255.531C43.5822 254.519 43.0762 253.464 42.3592 252.621C41.6423 251.735 40.7146 251.06 39.7025 250.639C38.6904 250.217 37.5939 250.091 36.6239 250.259C36.6239 250.259 36.4553 250.301 36.1601 250.344C35.8649 250.428 35.4431 250.512 34.9792 250.723C34.5154 250.892 33.9671 251.145 33.4611 251.482C32.955 251.82 32.4912 252.199 32.0695 252.621C31.2682 253.464 30.8886 254.476 30.7621 255.193C30.7199 255.573 30.7199 255.826 30.7621 256.037C30.8043 256.248 30.8043 256.332 30.8043 256.332C31.8164 257.049 32.196 257.597 32.4912 257.597C32.6177 257.597 32.9129 257.513 33.2502 257.344C33.8406 257.218 34.3467 257.007 34.8528 256.796Z" fill="#DB42AD" stroke="#B42A8A"/>
<path d="M35.4596 241.117L34.79 239L27.819 241.934C24.0087 243.54 24.3937 246.722 25.3212 250C29.0377 248.43 37.1974 246.65 35.4596 241.117Z" fill="#DB42AD" stroke="#B42A8A"/>
<path d="M35.4596 248.117L34.79 246L27.819 248.934C24.0087 250.54 24.3937 253.722 25.3212 257C29.0377 255.43 37.1974 253.65 35.4596 248.117Z" fill="#DB42AD" stroke="#B42A8A"/>
<path d="M35.4596 255.117L34.79 253L27.819 255.934C24.0087 257.54 24.3937 260.722 25.3212 264C29.0377 262.43 37.1974 260.65 35.4596 255.117Z" fill="#DB42AD" stroke="#B42A8A"/>
<path d="M35.4596 262.117L34.79 260L27.819 262.934C24.0087 264.54 24.3937 267.722 25.3212 271C29.0377 269.43 37.1974 267.65 35.4596 262.117Z" fill="#DB42AD" stroke="#B42A8A"/>
<path d="M35.4596 269.117L34.79 267L27.819 269.934C24.0087 271.54 24.3937 274.722 25.3212 278C29.0377 276.43 37.1974 274.65 35.4596 269.117Z" fill="#DB42AD" stroke="#B42A8A"/>
<path d="M35.4596 276.117L34.79 274L27.819 276.934C24.0087 278.54 24.3937 281.722 25.3212 285C29.0377 283.43 37.1974 281.65 35.4596 276.117Z" fill="#DB42AD" stroke="#B42A8A"/>
<path d="M17.3091 257.428C17.2247 257.133 17.1826 257.007 17.1826 257.007C15.58 257.934 14.4836 259.917 14.4414 262.067C14.4414 267.277 20.0414 270.144 24.7734 268.899C25.153 268.815 25.4481 268.73 25.659 268.646C25.8699 268.562 25.9964 268.52 25.9964 268.52C25.7106 263.662 18.7865 262.599 17.3091 257.428Z" fill="#DB42AD" stroke="#B42A8A"/>
<path d="M25.9981 268.478C25.9981 268.478 25.8715 268.52 25.6607 268.604C25.4498 268.688 25.1546 268.773 24.7751 268.857C24.016 269.026 22.9196 269.152 21.7388 269.068C21.1484 269.026 20.6001 268.899 20.0097 268.731C19.4615 268.562 18.9554 268.351 18.4915 268.182C18.0698 267.972 17.6903 267.761 17.4373 267.634C17.1842 267.466 17.0155 267.381 17.0155 267.381C16.889 267.845 16.8469 268.309 16.8047 268.815C16.8047 269.321 16.889 269.827 17.0577 270.375C17.1842 270.881 17.4372 271.387 17.6903 271.851C17.9433 272.315 18.3229 272.737 18.7024 273.159C19.0819 273.538 19.5037 273.876 19.9675 274.171C20.4314 274.466 20.8953 274.677 21.4014 274.846C21.9074 275.014 22.3713 275.099 22.8774 275.141C23.3834 275.183 23.8474 275.099 24.2691 275.014C24.2691 275.014 24.4378 274.972 24.6908 274.888C24.986 274.803 25.3655 274.677 25.8294 274.55C26.715 274.213 27.8536 273.665 28.7814 272.99C29.2453 272.653 29.667 272.273 30.0465 271.936C30.4261 271.556 30.7213 271.219 30.9321 270.881C31.396 270.207 31.6069 269.785 31.6069 269.785C30.6791 268.731 29.9622 268.14 29.1188 267.972C28.2754 267.803 27.3054 267.972 25.9981 268.478Z" fill="#DB42AD" stroke="#B42A8A"/>
<path d="M31.6054 269.827C31.6054 269.827 31.3945 270.249 30.9306 270.924C30.6776 271.219 30.3824 271.598 30.045 271.978C29.6655 272.315 29.2438 272.695 28.7799 273.032C27.8521 273.707 26.7135 274.255 25.8279 274.592C25.364 274.761 24.9845 274.888 24.6893 274.93C24.3941 275.014 24.2676 275.014 24.2676 275.014C24.4784 275.436 24.7736 275.815 25.0688 276.153C25.4062 276.532 25.7857 276.828 26.2075 277.081C26.6292 277.376 27.093 277.587 27.5991 277.755C28.1051 277.924 28.6112 278.008 29.1595 278.093C30.2137 278.177 31.3524 278.008 32.3223 277.629C33.2923 277.207 34.1357 276.617 34.6839 275.815C34.6839 275.815 34.7682 275.689 34.9369 275.436C35.1056 275.225 35.3165 274.803 35.5273 274.382C35.9912 273.538 36.4129 272.315 36.5816 271.177C36.7503 270.038 36.7081 268.941 36.5395 268.14C36.4551 267.761 36.3708 267.423 36.3286 267.212C36.2443 267.002 36.2021 266.875 36.2021 266.875C34.8104 266.875 33.8405 266.959 33.2079 267.381C33.0392 267.465 32.9127 267.592 32.744 267.761C32.6175 267.887 32.491 268.056 32.3645 268.267C32.238 268.435 32.1114 268.688 31.9849 268.941C31.9006 269.237 31.7741 269.49 31.6054 269.827Z" fill="#DB42AD" stroke="#B42A8A"/>
<path d="M36.2838 266.959C36.2838 266.959 36.326 267.086 36.4103 267.297C36.4525 267.507 36.5368 267.803 36.6212 268.224C36.7477 268.983 36.832 270.08 36.6633 271.261C36.4947 272.399 36.0729 273.622 35.6091 274.466C35.3982 274.887 35.1452 275.267 35.0187 275.52C34.85 275.773 34.7656 275.9 34.7656 275.9C34.9765 275.984 35.2295 276.068 35.4826 276.11C35.7356 276.153 35.9886 276.153 36.2416 276.195C36.4947 276.195 36.7477 276.195 37.0429 276.195C37.2959 276.153 37.549 276.11 37.802 276.068C38.8141 275.815 39.8262 275.309 40.6696 274.592C41.5131 273.875 42.1456 272.948 42.5252 272.02C42.9047 271.05 43.0313 270.038 42.8626 269.11C42.8626 269.11 42.8204 268.941 42.7782 268.646C42.736 268.351 42.6095 267.971 42.483 267.507C42.1878 266.58 41.6818 265.441 41.007 264.471C40.3323 263.501 39.4889 262.784 38.8563 262.32C38.5189 262.11 38.2659 261.941 38.055 261.814C37.8442 261.688 37.7598 261.646 37.7598 261.646C36.7477 262.616 36.1573 263.332 35.9886 264.049C35.6512 264.682 35.8621 265.61 36.2838 266.959Z" fill="#DB42AD" stroke="#B42A8A"/>
<path d="M42.6539 268.562C42.6961 268.857 42.7382 269.026 42.7382 269.026C43.5816 268.646 44.3408 267.929 44.9312 267.044C45.5216 266.158 45.8589 265.062 45.9432 263.965C46.0276 262.869 45.8589 261.73 45.4372 260.802C43.6832 256.768 41.1944 255.359 35.9288 256.392C34.8622 258.353 34.81 259.115 35.1895 259.79C37.4786 263.351 41.75 263.138 42.6539 268.562Z" fill="#DB42AD" stroke="#B42A8A"/>
<path d="M35.2604 283.117L34.5908 281L27.6198 283.934C23.8095 285.54 24.1945 288.722 25.1219 292C28.8385 290.43 36.9981 288.65 35.2604 283.117Z" fill="#DB42AD" stroke="#B42A8A"/>
<path d="M35.2604 290.117L34.5908 288L27.6198 290.934C23.8095 292.54 24.1945 295.722 25.1219 299C28.8385 297.43 36.9981 295.65 35.2604 290.117Z" fill="#DB42AD" stroke="#B42A8A"/>
<path d="M35.2604 297.117L34.5908 295L27.6198 297.934C23.8095 299.54 24.1945 302.722 25.1219 306C28.8385 304.43 36.9981 302.65 35.2604 297.117Z" fill="#DB42AD" stroke="#B42A8A"/>
<path d="M35.2604 304.117L34.5908 302L27.6198 304.934C23.8095 306.54 24.1945 309.722 25.1219 313C28.8385 311.43 36.9981 309.65 35.2604 304.117Z" fill="#DB42AD" stroke="#B42A8A"/>
<path d="M24.0831 332.124C23.8205 336.362 23.2952 340.592 22.4739 344.775C22.4739 344.806 22.4644 344.822 22.4644 344.837C22.013 347.042 23.5619 346.867 25.0667 346.867C25.9692 343.173 26.7237 338.041 26.8001 333.531C26.8001 333.531 27.2775 337.777 26.0552 345.335C26.122 345.817 26.2175 346.393 26.3942 346.867H27.9413C28.5334 341.393 28.9392 334.9 28.9965 328.726C29.0252 329.674 29.2353 336.424 28.3806 346.867H30.9399L31.2599 345.708L31.5034 344.861C31.4986 344.853 31.4986 344.837 31.4986 344.822C31.3028 342.046 31.1835 339.612 31.1023 337.52C30.8779 331.712 31.0402 328.617 31.0402 328.617C31.0832 334.705 31.4795 341.105 32.0716 347.077L34.2347 346.867C32.7449 338.516 33.1985 333.827 33.2319 333.539C33.337 339.62 34.4877 344.884 35.0225 347.046L36.6699 346.867C37.3145 346.859 37.7682 345.84 37.5676 344.814C36.7415 340.623 36.2115 336.369 35.9537 332.124C35.2716 322.128 24.9181 318.924 24.0831 332.124Z" fill="#DB42AD" stroke="#B42A8A"/>
<path d="M35.2604 311.117L34.5908 309L27.6198 311.933C23.8095 313.54 24.1945 316.722 25.1219 320C28.8385 318.43 36.9981 316.65 35.2604 311.117Z" fill="#DB42AD" stroke="#B42A8A"/>
<path d="M32.3113 318.335C33.2989 318.662 34.2633 319.084 35.0376 319.49C35.8118 319.895 36.277 320.242 36.277 320.242C36.4874 319.647 36.4714 318.919 36.2777 318.256C34.7904 311.905 26.811 312.989 24.9265 316.65C24.6798 317.13 24.5629 317.475 24.5629 317.475C25.6477 318.198 27.4201 319.713 28.0144 319.796C28.3235 319.855 28.5368 319.777 28.7857 319.685C29.9691 318.818 30.5308 317.745 32.3113 318.335Z" fill="#DB42AD" stroke="#B42A8A"/>
<path d="M36.9442 325.414C39.376 323.433 39.3353 320.401 36.944 317.406C34.5528 314.412 29.5424 316.251 27.9054 321.473C29.0533 324.408 35.8719 322.897 36.9442 325.414Z" fill="#DB42AD" stroke="#B42A8A"/>
<path d="M27.0909 315.834C27.1365 315.414 27.182 315.037 27.2275 314.785C27.3185 314.533 27.3185 314.366 27.3185 314.366C26.3629 314.45 25.4528 314.911 24.6792 315.498C20.8306 318.629 22.8495 323.012 26.3629 325.399C27.2275 325.987 28.1375 326.322 28.8201 326.49C29.1386 326.574 29.4572 326.616 29.6392 326.658C29.8212 326.7 29.9577 326.7 29.9577 326.7C32.3274 322.666 26.8619 320.058 27.0909 315.834Z" fill="#DB42AD" stroke="#B42A8A"/>
<path d="M29.2085 323.238C29.2085 323.238 29.072 323.238 28.8899 323.191C28.7079 323.145 28.4349 323.099 28.0709 323.006C27.3883 322.821 26.4782 322.404 25.6136 321.802C24.7491 321.2 23.9755 320.366 23.4294 319.671C22.8834 318.977 22.5648 318.467 22.5648 318.467C21.9733 319.069 21.5638 319.857 21.3817 320.737C21.1542 321.617 21.1542 322.636 21.4272 323.655C21.6548 324.627 22.1553 325.6 22.8379 326.341C23.5205 327.082 24.3395 327.592 25.1586 327.823C25.1586 327.823 25.2951 327.869 25.5681 327.916C25.8412 327.962 26.2052 328.055 26.6602 328.101C27.5703 328.194 28.7079 328.147 29.7545 327.869C30.8011 327.592 31.5747 327.036 32.0752 326.526C32.3028 326.295 32.4848 326.063 32.5758 325.924C32.6668 325.785 32.7578 325.693 32.7578 325.693C32.2118 324.581 32.1663 324.025 31.7112 323.701C31.2107 323.469 30.4371 323.377 29.2085 323.238Z" fill="#DB42AD" stroke="#B42A8A"/>
<path d="M29.679 324.146C29.679 324.146 29.609 324.221 29.4387 324.314C29.312 324.42 29.0585 324.632 28.7879 324.742C28.207 325.095 27.2646 325.384 26.1838 325.341C25.1334 325.355 24.0013 325.005 23.1569 324.647C22.7348 324.468 22.4129 324.272 22.1649 324.146C21.9169 324.021 21.7995 323.937 21.7995 323.937C21.5917 324.792 21.632 325.773 22.0035 326.759C22.3315 327.732 22.9907 328.71 23.9166 329.432C24.373 329.815 24.8558 330.109 25.4086 330.329C25.6566 330.454 25.9179 330.535 26.1791 330.615C26.4403 330.696 26.7148 330.733 26.9893 330.769C27.5382 330.842 28.0265 330.799 28.5148 330.757C28.9728 330.656 29.444 330.511 29.8414 330.295C29.8414 330.295 29.9681 330.189 30.2387 330.079C30.4658 329.956 30.776 329.713 31.1431 329.439C31.8336 328.878 32.6035 328.051 33.1689 327.113C33.7343 326.174 34.0991 325.271 34.3108 324.562C34.4166 324.207 34.4656 323.883 34.5185 323.706C34.5279 323.515 34.5675 323.382 34.5675 323.382C33.4013 322.828 32.4737 322.59 31.7716 322.712C31.0259 322.82 30.5492 323.302 29.679 324.146Z" fill="#DB42AD" stroke="#B42A8A"/>
<path d="M30.4007 322.768C30.4006 324.134 30.5274 325.454 30.1607 326.823C29.8876 327.888 29.3871 328.907 28.8865 329.648C28.6135 330.019 28.386 330.343 28.204 330.528C28.022 330.713 27.8854 330.852 27.8854 330.852C28.7045 331.269 29.6601 331.362 30.6157 331.269C31.5713 331.13 32.5269 330.806 33.3005 330.25C37.226 327.51 35.7819 323.281 33.7792 321.187C32.1702 320.266 30.8345 320.983 30.4007 322.768Z" fill="#DB42AD" stroke="#B42A8A"/>
<path d="M34.6136 329.608C38.394 328.54 38.921 322.926 35.8185 320.987C32.716 319.048 30.389 321.375 30.3901 322.264C34.2693 323 35.8179 324.865 34.6136 329.608Z" fill="#DB42AD" stroke="#B42A8A"/>
</svg>
