<svg width="60" height="414" viewBox="0 0 60 414" fill="none" xmlns="http://www.w3.org/2000/svg">
<path d="M35.7386 3.3099L35.0081 1L27.4034 4.20024C23.2467 5.95233 23.6667 9.42431 24.6785 13C28.7329 11.2872 37.6343 9.34566 35.7386 3.3099Z" fill="#CEC927" stroke="#ACA824"/>
<path d="M35.7386 10.3099L35.0081 8L27.4034 11.2002C23.2467 12.9523 23.6667 16.4243 24.6785 20C28.7329 18.2872 37.6343 16.3457 35.7386 10.3099Z" fill="#CEC927" stroke="#ACA824"/>
<path d="M35.7386 17.3099L35.0081 15L27.4034 18.2002C23.2467 19.9523 23.6667 23.4243 24.6785 27C28.7329 25.2872 37.6343 23.3457 35.7386 17.3099Z" fill="#CEC927" stroke="#ACA824"/>
<path d="M35.7386 24.3099L35.0081 22L27.4034 25.2002C23.2467 26.9523 23.6667 30.4243 24.6785 34C28.7329 32.2872 37.6343 30.3457 35.7386 24.3099Z" fill="#CEC927" stroke="#ACA824"/>
<path d="M35.7386 31.3099L35.0081 29L27.4034 32.2002C23.2467 33.9523 23.6667 37.4243 24.6785 41C28.7329 39.2872 37.6343 37.3457 35.7386 31.3099Z" fill="#CEC927" stroke="#ACA824"/>
<path d="M35.7386 38.3099L35.0081 36L27.4034 39.2002C23.2467 40.9523 23.6667 44.4243 24.6785 48C28.7329 46.2872 37.6343 44.3457 35.7386 38.3099Z" fill="#CEC927" stroke="#ACA824"/>
<path d="M35.7386 45.3099L35.0081 43L27.4034 46.2003C23.2467 47.9524 23.6667 51.4243 24.6785 55C28.7329 53.2873 37.6343 51.3457 35.7386 45.3099Z" fill="#CEC927" stroke="#ACA824"/>
<path d="M35.7386 52.3099L35.0081 50L27.4034 53.2002C23.2467 54.9523 23.6667 58.4243 24.6785 62C28.7329 60.2872 37.6343 58.3457 35.7386 52.3099Z" fill="#CEC927" stroke="#ACA824"/>
<path d="M35.7386 59.3099L35.0081 57L27.4034 60.2002C23.2467 61.9523 23.6667 65.4243 24.6785 69C28.7329 67.2872 37.6343 65.3457 35.7386 59.3099Z" fill="#CEC927" stroke="#ACA824"/>
<path d="M35.7386 66.3099L35.0081 64L27.4034 67.2002C23.2467 68.9523 23.6667 72.4243 24.6785 76C28.7329 74.2872 37.6343 72.3457 35.7386 66.3099Z" fill="#CEC927" stroke="#ACA824"/>
<path d="M35.7386 73.3099L35.0081 71L27.4034 74.2002C23.2467 75.9523 23.6667 79.4243 24.6785 83C28.7329 81.2872 37.6343 79.3457 35.7386 73.3099Z" fill="#CEC927" stroke="#ACA824"/>
<path d="M35.7386 80.3099L35.0081 78L27.4034 81.2002C23.2467 82.9523 23.6667 86.4243 24.6785 90C28.7329 88.2872 37.6343 86.3457 35.7386 80.3099Z" fill="#CEC927" stroke="#ACA824"/>
<path d="M35.7386 87.3099L35.0081 85L27.4034 88.2002C23.2467 89.9523 23.6667 93.4243 24.6785 97C28.7329 95.2872 37.6343 93.3457 35.7386 87.3099Z" fill="#CEC927" stroke="#ACA824"/>
<path d="M35.7386 94.3099L35.0081 92L27.4034 95.2002C23.2467 96.9523 23.6667 100.424 24.6785 104C28.7329 102.287 37.6343 100.346 35.7386 94.3099Z" fill="#CEC927" stroke="#ACA824"/>
<path d="M27.3989 64.0334L25.0098 63.6314L27.1205 55.6553C28.277 51.2952 31.7737 51.228 35.4554 51.7323C34.3236 55.9856 33.6397 65.0706 27.3989 64.0334Z" fill="#CEC927" stroke="#ACA824"/>
<path d="M34.7133 63.0058L32.3242 62.6039L34.4349 54.6278C35.5915 50.2677 39.9905 50.0084 41.4595 51.7604C42.9285 53.5125 40.9542 64.0431 34.7133 63.0058Z" fill="#CEC927" stroke="#ACA824"/>
<path d="M25.5249 52.6803L27.914 53.0823L25.8033 61.0584C24.6468 65.4185 20.2477 65.6778 18.7787 63.9258C17.3098 62.1737 19.2841 51.6431 25.5249 52.6803Z" fill="#CEC927" stroke="#ACA824"/>
<path d="M27.3969 75.2335L25.0078 74.8316L27.1185 66.8555C28.2751 62.4954 31.7717 62.4281 35.4534 62.9324C34.3216 67.1857 33.6378 76.2708 27.3969 75.2335Z" fill="#CEC927" stroke="#ACA824"/>
<path d="M34.7114 74.2057L32.3223 73.8037L34.433 65.8276C35.5895 61.4675 39.9886 61.2082 41.4576 62.9602C42.9265 64.7123 40.9522 75.2429 34.7114 74.2057Z" fill="#CEC927" stroke="#ACA824"/>
<path d="M25.523 63.8798L27.9121 64.2817L25.8013 72.2578C24.6448 76.6179 20.2457 76.8772 18.7768 75.1252C17.3078 73.3731 19.2821 62.8425 25.523 63.8798Z" fill="#CEC927" stroke="#ACA824"/>
<path d="M27.4008 86.4336L25.0117 86.0316L27.1224 78.0555C28.279 73.6954 31.7756 73.6281 35.4573 74.1324C34.3255 78.3858 33.6417 87.4708 27.4008 86.4336Z" fill="#CEC927" stroke="#ACA824"/>
<path d="M34.7133 85.4059L32.3242 85.004L34.4349 77.0278C35.5915 72.6678 39.9905 72.4084 41.4595 74.1605C42.9285 75.9125 40.9542 86.4431 34.7133 85.4059Z" fill="#CEC927" stroke="#ACA824"/>
<path d="M25.5249 75.0805L27.914 75.4824L25.8033 83.4586C24.6468 87.8186 20.2477 88.078 18.7787 86.3259C17.3098 84.5739 19.2841 74.0432 25.5249 75.0805Z" fill="#CEC927" stroke="#ACA824"/>
<path d="M27.4008 97.6331L25.0117 97.2311L27.1224 89.255C28.279 84.8949 31.7756 84.8277 35.4573 85.332C34.3255 89.5853 33.6417 98.6703 27.4008 97.6331Z" fill="#CEC927" stroke="#ACA824"/>
<path d="M34.7133 96.6059L32.3242 96.204L34.4349 88.2278C35.5915 83.8678 39.9905 83.6084 41.4595 85.3605C42.9285 87.1125 40.9542 97.6432 34.7133 96.6059Z" fill="#CEC927" stroke="#ACA824"/>
<path d="M25.5249 86.28L27.914 86.682L25.8033 94.6581C24.6468 99.0182 20.2477 99.2775 18.7787 97.5254C17.3098 95.7734 19.2841 85.2428 25.5249 86.28Z" fill="#CEC927" stroke="#ACA824"/>
<path d="M35.7386 101.31L35.0081 99L27.4034 102.2C23.2467 103.952 23.6667 107.424 24.6785 111C28.7329 109.287 37.6343 107.346 35.7386 101.31Z" fill="#CEC927" stroke="#ACA824"/>
<path d="M35.7386 108.31L35.0081 106L27.4034 109.2C23.2467 110.952 23.6667 114.424 24.6785 118C28.7329 116.287 37.6343 114.346 35.7386 108.31Z" fill="#CEC927" stroke="#ACA824"/>
<path d="M35.7386 115.31L35.0081 113L27.4034 116.2C23.2467 117.952 23.6667 121.424 24.6785 125C28.7329 123.287 37.6343 121.346 35.7386 115.31Z" fill="#CEC927" stroke="#ACA824"/>
<path d="M35.7386 122.31L35.0081 120L27.4034 123.2C23.2467 124.952 23.6667 128.424 24.6785 132C28.7329 130.287 37.6343 128.346 35.7386 122.31Z" fill="#CEC927" stroke="#ACA824"/>
<path d="M35.7386 129.31L35.0081 127L27.4034 130.2C23.2467 131.952 23.6667 135.424 24.6785 139C28.7329 137.287 37.6343 135.346 35.7386 129.31Z" fill="#CEC927" stroke="#ACA824"/>
<path d="M35.7386 136.31L35.0081 134L27.4034 137.2C23.2467 138.952 23.6667 142.424 24.6785 146C28.7329 144.287 37.6343 142.346 35.7386 136.31Z" fill="#CEC927" stroke="#ACA824"/>
<path d="M35.7386 143.31L35.0081 141L27.4034 144.2C23.2467 145.952 23.6667 149.424 24.6785 153C28.7329 151.287 37.6343 149.346 35.7386 143.31Z" fill="#CEC927" stroke="#ACA824"/>
<path d="M35.7386 150.31L35.0081 148L27.4034 151.2C23.2467 152.952 23.6667 156.424 24.6785 160C28.7329 158.287 37.6343 156.346 35.7386 150.31Z" fill="#CEC927" stroke="#ACA824"/>
<path d="M35.4985 208.277C35.0907 207.239 34.1845 206.201 33.0065 205.569C31.8285 204.892 30.4693 204.576 29.1553 204.576C23.2232 204.678 21.0133 211.432 22.6309 216.266C22.7669 216.672 22.9028 216.988 22.9934 217.214C23.084 217.44 23.1293 217.575 23.1293 217.575C24.6245 217.35 25.6666 217.079 26.3009 216.537C30.0859 213.709 29.4815 208.277 35.4985 208.277Z" fill="#CEC927" stroke="#ACA824"/>
<path d="M40.5674 212.581C40.4976 211.469 39.9532 210.204 39.0254 209.244C38.1114 208.241 36.9141 207.526 35.663 207.126C30.2315 205.492 24.854 210.944 26.8061 216.152C35.423 219.351 35.0175 210.807 40.5674 212.581Z" fill="#CEC927" stroke="#ACA824"/>
<path d="M22.9896 208.909C23.0802 208.728 23.1708 208.548 23.2161 208.367C23.3521 208.096 23.4427 207.916 23.4427 207.916C22.4459 207.735 21.3132 207.871 20.2711 208.322C19.229 208.728 18.2322 209.45 17.5073 210.308C14.2348 214.383 16.4423 219.871 20.3164 222.766C20.4976 222.901 20.7242 223.037 20.9054 223.172C21.2679 223.398 21.5397 223.578 21.7662 223.669C21.9928 223.759 22.1287 223.804 22.1287 223.804C23.1708 222.721 23.7598 221.908 23.941 220.96C24.5598 216.851 21.8263 213.544 22.9896 208.909Z" fill="#CEC927" stroke="#ACA824"/>
<path d="M34.9973 216.131C34.9973 216.131 35.1332 216.086 35.3597 215.995C35.5862 215.905 35.9034 215.815 36.3112 215.77C37.1268 215.589 38.3048 215.589 39.5281 215.815C40.7514 216.04 42.02 216.537 42.9262 216.988C43.3793 217.214 43.7418 217.44 44.0136 217.62C44.2855 217.801 44.4213 217.891 44.4213 217.891C44.7838 216.943 44.8291 215.86 44.6026 214.777C44.376 213.693 43.8323 212.565 43.0621 211.662C42.2918 210.714 41.2951 209.992 40.2077 209.541C39.1203 209.089 37.9423 208.954 36.9002 209.135C36.9002 209.135 36.719 209.18 36.4018 209.225C36.0847 209.315 35.6315 209.405 35.1332 209.631C34.6348 209.812 34.0458 210.082 33.5021 210.443C32.9584 210.805 32.46 211.211 32.0069 211.662C31.1461 212.565 30.7383 213.648 30.6023 214.416C30.557 214.822 30.557 215.093 30.6023 215.318C30.6476 215.544 30.6477 215.634 30.6477 215.634C31.7351 216.402 32.1429 216.988 32.46 216.988C32.5959 216.988 32.9131 216.898 33.2755 216.718C33.9098 216.582 34.4536 216.356 34.9973 216.131Z" fill="#CEC927" stroke="#ACA824"/>
<path d="M35.7347 199.31L35.0042 197L27.3995 200.2C23.2428 201.952 23.6628 205.424 24.6746 209C28.729 207.287 37.6304 205.346 35.7347 199.31Z" fill="#CEC927" stroke="#ACA824"/>
<path d="M35.7347 206.31L35.0042 204L27.3995 207.2C23.2428 208.952 23.6628 212.424 24.6746 216C28.729 214.287 37.6304 212.346 35.7347 206.31Z" fill="#CEC927" stroke="#ACA824"/>
<path d="M35.7347 213.31L35.0042 211L27.3995 214.2C23.2428 215.952 23.6628 219.424 24.6746 223C28.729 221.287 37.6304 219.346 35.7347 213.31Z" fill="#CEC927" stroke="#ACA824"/>
<path d="M35.7347 220.31L35.0042 218L27.3995 221.2C23.2428 222.952 23.6628 226.424 24.6746 230C28.729 228.287 37.6304 226.346 35.7347 220.31Z" fill="#CEC927" stroke="#ACA824"/>
<path d="M35.7347 227.31L35.0042 225L27.3995 228.2C23.2428 229.952 23.6628 233.424 24.6746 237C28.729 235.287 37.6304 233.346 35.7347 227.31Z" fill="#CEC927" stroke="#ACA824"/>
<path d="M35.7347 234.31L35.0042 232L27.3995 235.2C23.2428 236.952 23.6628 240.424 24.6746 244C28.729 242.287 37.6304 240.346 35.7347 234.31Z" fill="#CEC927" stroke="#ACA824"/>
<path d="M16.1474 216.808C16.0568 216.492 16.0114 216.357 16.0114 216.357C14.2897 217.35 13.1117 219.472 13.0664 221.774C13.0664 227.35 19.0829 230.419 24.1669 229.086C24.5747 228.995 24.8918 228.905 25.1184 228.815C25.3449 228.725 25.4809 228.68 25.4809 228.68C25.1738 223.48 17.7347 222.343 16.1474 216.808Z" fill="#CEC927" stroke="#ACA824"/>
<path d="M25.4827 228.635C25.4827 228.635 25.3467 228.68 25.1202 228.77C24.8936 228.86 24.5765 228.951 24.1687 229.041C23.3532 229.221 22.1752 229.357 20.9066 229.267C20.2722 229.221 19.6832 229.086 19.0489 228.906C18.4599 228.725 17.9162 228.499 17.4178 228.319C16.9647 228.093 16.5569 227.867 16.2851 227.732C16.0132 227.551 15.832 227.461 15.832 227.461C15.6961 227.958 15.6508 228.454 15.6055 228.996C15.6055 229.537 15.6961 230.079 15.8773 230.666C16.0132 231.208 16.2851 231.749 16.5569 232.246C16.8288 232.742 17.2366 233.194 17.6443 233.645C18.0521 234.051 18.5052 234.412 19.0036 234.728C19.502 235.044 20.0004 235.27 20.5441 235.45C21.0878 235.631 21.5862 235.721 22.1299 235.766C22.6736 235.812 23.172 235.721 23.625 235.631C23.625 235.631 23.8063 235.586 24.0781 235.496C24.3953 235.405 24.803 235.27 25.3014 235.134C26.2529 234.773 27.4762 234.187 28.473 233.464C28.9714 233.103 29.4245 232.697 29.8322 232.336C30.24 231.93 30.5572 231.569 30.7837 231.208C31.2821 230.485 31.5086 230.034 31.5086 230.034C30.5118 228.906 29.7417 228.274 28.8355 228.093C27.9293 227.913 26.8872 228.093 25.4827 228.635Z" fill="#CEC927" stroke="#ACA824"/>
<path d="M31.5066 230.079C31.5066 230.079 31.2801 230.53 30.7817 231.253C30.5099 231.569 30.1927 231.975 29.8302 232.381C29.4225 232.742 28.9694 233.148 28.471 233.509C27.4742 234.232 26.2509 234.818 25.2994 235.179C24.801 235.36 24.3933 235.495 24.0761 235.541C23.759 235.631 23.623 235.631 23.623 235.631C23.8496 236.082 24.1667 236.488 24.4839 236.85C24.8463 237.256 25.2541 237.572 25.7072 237.843C26.1603 238.159 26.6586 238.384 27.2023 238.565C27.746 238.745 28.2898 238.836 28.8788 238.926C30.0115 239.016 31.2348 238.836 32.2769 238.429C33.319 237.978 34.2251 237.346 34.8141 236.488C34.8141 236.488 34.9047 236.353 35.086 236.082C35.2672 235.857 35.4938 235.405 35.7203 234.954C36.2187 234.051 36.6718 232.742 36.853 231.523C37.0342 230.305 36.9889 229.131 36.8077 228.273C36.7171 227.867 36.6265 227.506 36.5812 227.28C36.4906 227.055 36.4452 226.919 36.4452 226.919C34.9501 226.919 33.908 227.01 33.2284 227.461C33.0471 227.551 32.9112 227.687 32.73 227.867C32.5941 228.003 32.4581 228.183 32.3222 228.409C32.1863 228.589 32.0503 228.86 31.9144 229.131C31.8238 229.447 31.6879 229.718 31.5066 230.079Z" fill="#CEC927" stroke="#ACA824"/>
<path d="M36.5335 227.01C36.5335 227.01 36.5788 227.145 36.6694 227.371C36.7147 227.596 36.8053 227.912 36.8959 228.364C37.0318 229.176 37.1224 230.35 36.9412 231.614C36.76 232.832 36.3069 234.141 35.8085 235.044C35.582 235.495 35.3102 235.902 35.1742 236.172C34.993 236.443 34.9023 236.579 34.9023 236.579C35.1289 236.669 35.4008 236.759 35.6726 236.804C35.9445 236.849 36.2163 236.849 36.4881 236.895C36.76 236.895 37.0318 236.895 37.349 236.895C37.6208 236.849 37.8927 236.804 38.1646 236.759C39.252 236.488 40.3393 235.947 41.2455 235.179C42.1517 234.412 42.8313 233.419 43.2391 232.426C43.6468 231.388 43.7828 230.305 43.6015 229.312C43.6015 229.312 43.5562 229.131 43.5109 228.815C43.4656 228.499 43.3297 228.093 43.1938 227.596C42.8766 226.603 42.3329 225.385 41.608 224.346C40.883 223.308 39.9769 222.541 39.2973 222.044C38.9348 221.819 38.6629 221.638 38.4364 221.503C38.2099 221.367 38.1193 221.322 38.1193 221.322C37.0319 222.36 36.3975 223.128 36.2163 223.895C35.8538 224.572 36.0804 225.565 36.5335 227.01Z" fill="#CEC927" stroke="#ACA824"/>
<path d="M43.3774 228.725C43.4227 229.041 43.468 229.221 43.468 229.221C44.3742 228.815 45.1898 228.048 45.8241 227.1C46.4584 226.152 46.8208 224.978 46.9114 223.805C47.002 222.631 46.8208 221.412 46.3678 220.419C44.4833 216.101 41.8094 214.594 36.1521 215.699C35.0062 217.798 34.9501 218.614 35.3578 219.336C37.8172 223.147 42.4063 222.92 43.3774 228.725Z" fill="#CEC927" stroke="#ACA824"/>
<path d="M35.4985 187.277C35.0907 186.239 34.1845 185.201 33.0065 184.569C31.8285 183.892 30.4693 183.576 29.1553 183.576C23.2232 183.678 21.0133 190.432 22.6309 195.266C22.7669 195.672 22.9028 195.988 22.9934 196.214C23.084 196.44 23.1293 196.575 23.1293 196.575C24.6245 196.35 25.6666 196.079 26.3009 195.537C30.0859 192.709 29.4815 187.277 35.4985 187.277Z" fill="#CEC927" stroke="#ACA824"/>
<path d="M40.5674 191.581C40.4976 190.469 39.9532 189.204 39.0254 188.244C38.1114 187.241 36.9141 186.526 35.663 186.126C30.2315 184.492 24.854 189.944 26.8061 195.152C35.423 198.351 35.0175 189.807 40.5674 191.581Z" fill="#CEC927" stroke="#ACA824"/>
<path d="M22.9896 187.909C23.0802 187.728 23.1708 187.548 23.2161 187.367C23.3521 187.096 23.4427 186.916 23.4427 186.916C22.4459 186.735 21.3132 186.871 20.2711 187.322C19.229 187.728 18.2322 188.45 17.5073 189.308C14.2348 193.383 16.4423 198.871 20.3164 201.766C20.4976 201.901 20.7242 202.037 20.9054 202.172C21.2679 202.398 21.5397 202.578 21.7662 202.669C21.9928 202.759 22.1287 202.804 22.1287 202.804C23.1708 201.721 23.7598 200.908 23.941 199.96C24.5598 195.851 21.8263 192.544 22.9896 187.909Z" fill="#CEC927" stroke="#ACA824"/>
<path d="M34.9973 195.131C34.9973 195.131 35.1332 195.086 35.3597 194.995C35.5862 194.905 35.9034 194.815 36.3112 194.77C37.1268 194.589 38.3048 194.589 39.5281 194.815C40.7514 195.04 42.02 195.537 42.9262 195.988C43.3793 196.214 43.7418 196.44 44.0136 196.62C44.2855 196.801 44.4213 196.891 44.4213 196.891C44.7838 195.943 44.8291 194.86 44.6026 193.777C44.376 192.693 43.8323 191.565 43.0621 190.662C42.2918 189.714 41.2951 188.992 40.2077 188.541C39.1203 188.089 37.9423 187.954 36.9002 188.135C36.9002 188.135 36.719 188.18 36.4018 188.225C36.0847 188.315 35.6315 188.405 35.1332 188.631C34.6348 188.812 34.0458 189.082 33.5021 189.443C32.9584 189.805 32.46 190.211 32.0069 190.662C31.1461 191.565 30.7383 192.648 30.6023 193.416C30.557 193.822 30.557 194.093 30.6023 194.318C30.6476 194.544 30.6477 194.634 30.6477 194.634C31.7351 195.402 32.1429 195.988 32.46 195.988C32.5959 195.988 32.9131 195.898 33.2755 195.718C33.9098 195.582 34.4536 195.356 34.9973 195.131Z" fill="#CEC927" stroke="#ACA824"/>
<path d="M35.7347 178.31L35.0042 176L27.3995 179.2C23.2428 180.952 23.6628 184.424 24.6746 188C28.729 186.287 37.6304 184.346 35.7347 178.31Z" fill="#CEC927" stroke="#ACA824"/>
<path d="M35.7347 185.31L35.0042 183L27.3995 186.2C23.2428 187.952 23.6628 191.424 24.6746 195C28.729 193.287 37.6304 191.346 35.7347 185.31Z" fill="#CEC927" stroke="#ACA824"/>
<path d="M35.7347 192.31L35.0042 190L27.3995 193.2C23.2428 194.952 23.6628 198.424 24.6746 202C28.729 200.287 37.6304 198.346 35.7347 192.31Z" fill="#CEC927" stroke="#ACA824"/>
<path d="M35.7347 199.31L35.0042 197L27.3995 200.2C23.2428 201.952 23.6628 205.424 24.6746 209C28.729 207.287 37.6304 205.346 35.7347 199.31Z" fill="#CEC927" stroke="#ACA824"/>
<path d="M35.7347 206.31L35.0042 204L27.3995 207.2C23.2428 208.952 23.6628 212.424 24.6746 216C28.729 214.287 37.6304 212.346 35.7347 206.31Z" fill="#CEC927" stroke="#ACA824"/>
<path d="M35.7347 213.31L35.0042 211L27.3995 214.2C23.2428 215.952 23.6628 219.424 24.6746 223C28.729 221.287 37.6304 219.346 35.7347 213.31Z" fill="#CEC927" stroke="#ACA824"/>
<path d="M16.1474 195.808C16.0568 195.492 16.0114 195.357 16.0114 195.357C14.2897 196.35 13.1117 198.472 13.0664 200.774C13.0664 206.35 19.0829 209.419 24.1669 208.086C24.5747 207.995 24.8918 207.905 25.1184 207.815C25.3449 207.725 25.4809 207.68 25.4809 207.68C25.1738 202.48 17.7347 201.343 16.1474 195.808Z" fill="#CEC927" stroke="#ACA824"/>
<path d="M25.4827 207.635C25.4827 207.635 25.3467 207.68 25.1202 207.77C24.8936 207.86 24.5765 207.951 24.1687 208.041C23.3532 208.221 22.1752 208.357 20.9066 208.267C20.2722 208.221 19.6832 208.086 19.0489 207.906C18.4599 207.725 17.9162 207.499 17.4178 207.319C16.9647 207.093 16.5569 206.867 16.2851 206.732C16.0132 206.551 15.832 206.461 15.832 206.461C15.6961 206.958 15.6508 207.454 15.6055 207.996C15.6055 208.537 15.6961 209.079 15.8773 209.666C16.0132 210.208 16.2851 210.749 16.5569 211.246C16.8288 211.742 17.2366 212.194 17.6443 212.645C18.0521 213.051 18.5052 213.412 19.0036 213.728C19.502 214.044 20.0004 214.27 20.5441 214.45C21.0878 214.631 21.5862 214.721 22.1299 214.766C22.6736 214.812 23.172 214.721 23.625 214.631C23.625 214.631 23.8063 214.586 24.0781 214.496C24.3953 214.405 24.803 214.27 25.3014 214.134C26.2529 213.773 27.4762 213.187 28.473 212.464C28.9714 212.103 29.4245 211.697 29.8322 211.336C30.24 210.93 30.5572 210.569 30.7837 210.208C31.2821 209.485 31.5086 209.034 31.5086 209.034C30.5118 207.906 29.7417 207.274 28.8355 207.093C27.9293 206.913 26.8872 207.093 25.4827 207.635Z" fill="#CEC927" stroke="#ACA824"/>
<path d="M31.5066 209.079C31.5066 209.079 31.2801 209.53 30.7817 210.253C30.5099 210.569 30.1927 210.975 29.8302 211.381C29.4225 211.742 28.9694 212.148 28.471 212.509C27.4742 213.232 26.2509 213.818 25.2994 214.179C24.801 214.36 24.3933 214.495 24.0761 214.541C23.759 214.631 23.623 214.631 23.623 214.631C23.8496 215.082 24.1667 215.488 24.4839 215.85C24.8463 216.256 25.2541 216.572 25.7072 216.843C26.1603 217.159 26.6586 217.384 27.2023 217.565C27.746 217.745 28.2898 217.836 28.8788 217.926C30.0115 218.016 31.2348 217.836 32.2769 217.429C33.319 216.978 34.2251 216.346 34.8141 215.488C34.8141 215.488 34.9047 215.353 35.086 215.082C35.2672 214.857 35.4938 214.405 35.7203 213.954C36.2187 213.051 36.6718 211.742 36.853 210.523C37.0342 209.305 36.9889 208.131 36.8077 207.273C36.7171 206.867 36.6265 206.506 36.5812 206.28C36.4906 206.055 36.4452 205.919 36.4452 205.919C34.9501 205.919 33.908 206.01 33.2284 206.461C33.0471 206.551 32.9112 206.687 32.73 206.867C32.5941 207.003 32.4581 207.183 32.3222 207.409C32.1863 207.589 32.0503 207.86 31.9144 208.131C31.8238 208.447 31.6879 208.718 31.5066 209.079Z" fill="#CEC927" stroke="#ACA824"/>
<path d="M36.5335 206.01C36.5335 206.01 36.5788 206.145 36.6694 206.371C36.7147 206.596 36.8053 206.912 36.8959 207.364C37.0318 208.176 37.1224 209.35 36.9412 210.614C36.76 211.832 36.3069 213.141 35.8085 214.044C35.582 214.495 35.3102 214.902 35.1742 215.172C34.993 215.443 34.9023 215.579 34.9023 215.579C35.1289 215.669 35.4008 215.759 35.6726 215.804C35.9445 215.849 36.2163 215.849 36.4881 215.895C36.76 215.895 37.0318 215.895 37.349 215.895C37.6208 215.849 37.8927 215.804 38.1646 215.759C39.252 215.488 40.3393 214.947 41.2455 214.179C42.1517 213.412 42.8313 212.419 43.2391 211.426C43.6468 210.388 43.7828 209.305 43.6015 208.312C43.6015 208.312 43.5562 208.131 43.5109 207.815C43.4656 207.499 43.3297 207.093 43.1938 206.596C42.8766 205.603 42.3329 204.385 41.608 203.346C40.883 202.308 39.9769 201.541 39.2973 201.044C38.9348 200.819 38.6629 200.638 38.4364 200.503C38.2099 200.367 38.1193 200.322 38.1193 200.322C37.0319 201.36 36.3975 202.128 36.2163 202.895C35.8538 203.572 36.0804 204.565 36.5335 206.01Z" fill="#CEC927" stroke="#ACA824"/>
<path d="M43.3774 207.725C43.4227 208.041 43.468 208.221 43.468 208.221C44.3742 207.815 45.1898 207.048 45.8241 206.1C46.4584 205.152 46.8208 203.978 46.9114 202.805C47.002 201.631 46.8208 200.412 46.3678 199.419C44.4833 195.101 41.8094 193.594 36.1521 194.699C35.0062 196.798 34.9501 197.614 35.3578 198.336C37.8172 202.147 42.4063 201.92 43.3774 207.725Z" fill="#CEC927" stroke="#ACA824"/>
<path d="M35.4985 166.277C35.0907 165.239 34.1845 164.201 33.0065 163.569C31.8285 162.892 30.4693 162.576 29.1553 162.576C23.2232 162.678 21.0133 169.432 22.6309 174.266C22.7669 174.672 22.9028 174.988 22.9934 175.214C23.084 175.44 23.1293 175.575 23.1293 175.575C24.6245 175.35 25.6666 175.079 26.3009 174.537C30.0859 171.709 29.4815 166.277 35.4985 166.277Z" fill="#CEC927" stroke="#ACA824"/>
<path d="M40.5674 170.581C40.4976 169.469 39.9532 168.204 39.0254 167.244C38.1114 166.241 36.9141 165.526 35.663 165.126C30.2315 163.492 24.854 168.944 26.8061 174.152C35.423 177.351 35.0175 168.807 40.5674 170.581Z" fill="#CEC927" stroke="#ACA824"/>
<path d="M22.9896 166.909C23.0802 166.728 23.1708 166.548 23.2161 166.367C23.3521 166.096 23.4427 165.916 23.4427 165.916C22.4459 165.735 21.3132 165.871 20.2711 166.322C19.229 166.728 18.2322 167.45 17.5073 168.308C14.2348 172.383 16.4423 177.871 20.3164 180.766C20.4976 180.901 20.7242 181.037 20.9054 181.172C21.2679 181.398 21.5397 181.578 21.7662 181.669C21.9928 181.759 22.1287 181.804 22.1287 181.804C23.1708 180.721 23.7598 179.908 23.941 178.96C24.5598 174.851 21.8263 171.544 22.9896 166.909Z" fill="#CEC927" stroke="#ACA824"/>
<path d="M34.9973 174.131C34.9973 174.131 35.1332 174.086 35.3597 173.995C35.5862 173.905 35.9034 173.815 36.3112 173.77C37.1268 173.589 38.3048 173.589 39.5281 173.815C40.7514 174.04 42.02 174.537 42.9262 174.988C43.3793 175.214 43.7418 175.44 44.0136 175.62C44.2855 175.801 44.4213 175.891 44.4213 175.891C44.7838 174.943 44.8291 173.86 44.6026 172.777C44.376 171.693 43.8323 170.565 43.0621 169.662C42.2918 168.714 41.2951 167.992 40.2077 167.541C39.1203 167.089 37.9423 166.954 36.9002 167.135C36.9002 167.135 36.719 167.18 36.4018 167.225C36.0847 167.315 35.6315 167.405 35.1332 167.631C34.6348 167.812 34.0458 168.082 33.5021 168.443C32.9584 168.805 32.46 169.211 32.0069 169.662C31.1461 170.565 30.7383 171.648 30.6023 172.416C30.557 172.822 30.557 173.093 30.6023 173.318C30.6476 173.544 30.6477 173.634 30.6477 173.634C31.7351 174.402 32.1429 174.988 32.46 174.988C32.5959 174.988 32.9131 174.898 33.2755 174.718C33.9098 174.582 34.4536 174.356 34.9973 174.131Z" fill="#CEC927" stroke="#ACA824"/>
<path d="M35.7347 157.31L35.0042 155L27.3995 158.2C23.2428 159.952 23.6628 163.424 24.6746 167C28.729 165.287 37.6304 163.346 35.7347 157.31Z" fill="#CEC927" stroke="#ACA824"/>
<path d="M35.7347 164.31L35.0042 162L27.3995 165.2C23.2428 166.952 23.6628 170.424 24.6746 174C28.729 172.287 37.6304 170.346 35.7347 164.31Z" fill="#CEC927" stroke="#ACA824"/>
<path d="M35.7347 171.31L35.0042 169L27.3995 172.2C23.2428 173.952 23.6628 177.424 24.6746 181C28.729 179.287 37.6304 177.346 35.7347 171.31Z" fill="#CEC927" stroke="#ACA824"/>
<path d="M35.7347 178.31L35.0042 176L27.3995 179.2C23.2428 180.952 23.6628 184.424 24.6746 188C28.729 186.287 37.6304 184.346 35.7347 178.31Z" fill="#CEC927" stroke="#ACA824"/>
<path d="M35.7347 185.31L35.0042 183L27.3995 186.2C23.2428 187.952 23.6628 191.424 24.6746 195C28.729 193.287 37.6304 191.346 35.7347 185.31Z" fill="#CEC927" stroke="#ACA824"/>
<path d="M35.7347 192.31L35.0042 190L27.3995 193.2C23.2428 194.952 23.6628 198.424 24.6746 202C28.729 200.287 37.6304 198.346 35.7347 192.31Z" fill="#CEC927" stroke="#ACA824"/>
<path d="M16.1474 174.808C16.0568 174.492 16.0114 174.357 16.0114 174.357C14.2897 175.35 13.1117 177.472 13.0664 179.774C13.0664 185.35 19.0829 188.419 24.1669 187.086C24.5747 186.995 24.8918 186.905 25.1184 186.815C25.3449 186.725 25.4809 186.68 25.4809 186.68C25.1738 181.48 17.7347 180.343 16.1474 174.808Z" fill="#CEC927" stroke="#ACA824"/>
<path d="M25.4827 186.635C25.4827 186.635 25.3467 186.68 25.1202 186.77C24.8936 186.86 24.5765 186.951 24.1687 187.041C23.3532 187.221 22.1752 187.357 20.9066 187.267C20.2722 187.221 19.6832 187.086 19.0489 186.906C18.4599 186.725 17.9162 186.499 17.4178 186.319C16.9647 186.093 16.5569 185.867 16.2851 185.732C16.0132 185.551 15.832 185.461 15.832 185.461C15.6961 185.958 15.6508 186.454 15.6055 186.996C15.6055 187.537 15.6961 188.079 15.8773 188.666C16.0132 189.208 16.2851 189.749 16.5569 190.246C16.8288 190.742 17.2366 191.194 17.6443 191.645C18.0521 192.051 18.5052 192.412 19.0036 192.728C19.502 193.044 20.0004 193.27 20.5441 193.45C21.0878 193.631 21.5862 193.721 22.1299 193.766C22.6736 193.812 23.172 193.721 23.625 193.631C23.625 193.631 23.8063 193.586 24.0781 193.496C24.3953 193.405 24.803 193.27 25.3014 193.134C26.2529 192.773 27.4762 192.187 28.473 191.464C28.9714 191.103 29.4245 190.697 29.8322 190.336C30.24 189.93 30.5572 189.569 30.7837 189.208C31.2821 188.485 31.5086 188.034 31.5086 188.034C30.5118 186.906 29.7417 186.274 28.8355 186.093C27.9293 185.913 26.8872 186.093 25.4827 186.635Z" fill="#CEC927" stroke="#ACA824"/>
<path d="M31.5066 188.079C31.5066 188.079 31.2801 188.53 30.7817 189.253C30.5099 189.569 30.1927 189.975 29.8302 190.381C29.4225 190.742 28.9694 191.148 28.471 191.509C27.4742 192.232 26.2509 192.818 25.2994 193.179C24.801 193.36 24.3933 193.495 24.0761 193.541C23.759 193.631 23.623 193.631 23.623 193.631C23.8496 194.082 24.1667 194.488 24.4839 194.85C24.8463 195.256 25.2541 195.572 25.7072 195.843C26.1603 196.159 26.6586 196.384 27.2023 196.565C27.746 196.745 28.2898 196.836 28.8788 196.926C30.0115 197.016 31.2348 196.836 32.2769 196.429C33.319 195.978 34.2251 195.346 34.8141 194.488C34.8141 194.488 34.9047 194.353 35.086 194.082C35.2672 193.857 35.4938 193.405 35.7203 192.954C36.2187 192.051 36.6718 190.742 36.853 189.523C37.0342 188.305 36.9889 187.131 36.8077 186.273C36.7171 185.867 36.6265 185.506 36.5812 185.28C36.4906 185.055 36.4452 184.919 36.4452 184.919C34.9501 184.919 33.908 185.01 33.2284 185.461C33.0471 185.551 32.9112 185.687 32.73 185.867C32.5941 186.003 32.4581 186.183 32.3222 186.409C32.1863 186.589 32.0503 186.86 31.9144 187.131C31.8238 187.447 31.6879 187.718 31.5066 188.079Z" fill="#CEC927" stroke="#ACA824"/>
<path d="M36.5335 185.01C36.5335 185.01 36.5788 185.145 36.6694 185.371C36.7147 185.596 36.8053 185.912 36.8959 186.364C37.0318 187.176 37.1224 188.35 36.9412 189.614C36.76 190.832 36.3069 192.141 35.8085 193.044C35.582 193.495 35.3102 193.902 35.1742 194.172C34.993 194.443 34.9023 194.579 34.9023 194.579C35.1289 194.669 35.4008 194.759 35.6726 194.804C35.9445 194.849 36.2163 194.849 36.4881 194.895C36.76 194.895 37.0318 194.895 37.349 194.895C37.6208 194.849 37.8927 194.804 38.1646 194.759C39.252 194.488 40.3393 193.947 41.2455 193.179C42.1517 192.412 42.8313 191.419 43.2391 190.426C43.6468 189.388 43.7828 188.305 43.6015 187.312C43.6015 187.312 43.5562 187.131 43.5109 186.815C43.4656 186.499 43.3297 186.093 43.1938 185.596C42.8766 184.603 42.3329 183.385 41.608 182.346C40.883 181.308 39.9769 180.541 39.2973 180.044C38.9348 179.819 38.6629 179.638 38.4364 179.503C38.2099 179.367 38.1193 179.322 38.1193 179.322C37.0319 180.36 36.3975 181.128 36.2163 181.895C35.8538 182.572 36.0804 183.565 36.5335 185.01Z" fill="#CEC927" stroke="#ACA824"/>
<path d="M43.3774 186.725C43.4227 187.041 43.468 187.221 43.468 187.221C44.3742 186.815 45.1898 186.048 45.8241 185.1C46.4584 184.152 46.8208 182.978 46.9114 181.805C47.002 180.631 46.8208 179.412 46.3678 178.419C44.4833 174.101 41.8094 172.594 36.1521 173.699C35.0062 175.798 34.9501 176.614 35.3578 177.336C37.8172 181.147 42.4063 180.92 43.3774 186.725Z" fill="#CEC927" stroke="#ACA824"/>
<path d="M35.7386 241.31L35.0081 239L27.4034 242.2C23.2467 243.952 23.6667 247.424 24.6785 251C28.7329 249.287 37.6343 247.346 35.7386 241.31Z" fill="#CEC927" stroke="#ACA824"/>
<path d="M35.7386 248.31L35.0081 246L27.4034 249.2C23.2467 250.952 23.6667 254.424 24.6785 258C28.7329 256.287 37.6343 254.346 35.7386 248.31Z" fill="#CEC927" stroke="#ACA824"/>
<path d="M35.7386 255.31L35.0081 253L27.4034 256.2C23.2467 257.952 23.6667 261.424 24.6785 265C28.7329 263.287 37.6343 261.346 35.7386 255.31Z" fill="#CEC927" stroke="#ACA824"/>
<path d="M35.7386 262.31L35.0081 260L27.4034 263.2C23.2467 264.952 23.6667 268.424 24.6785 272C28.7329 270.287 37.6343 268.346 35.7386 262.31Z" fill="#CEC927" stroke="#ACA824"/>
<path d="M35.7386 269.31L35.0081 267L27.4034 270.2C23.2467 271.952 23.6667 275.424 24.6785 279C28.7329 277.287 37.6343 275.346 35.7386 269.31Z" fill="#CEC927" stroke="#ACA824"/>
<path d="M35.4985 306.277C35.0907 305.239 34.1845 304.201 33.0065 303.569C31.8285 302.892 30.4693 302.576 29.1553 302.576C23.2232 302.678 21.0133 309.432 22.6309 314.266C22.7669 314.672 22.9028 314.988 22.9934 315.214C23.084 315.44 23.1293 315.575 23.1293 315.575C24.6245 315.35 25.6666 315.079 26.3009 314.537C30.0859 311.709 29.4815 306.277 35.4985 306.277Z" fill="#CEC927" stroke="#ACA824"/>
<path d="M40.5674 310.581C40.4976 309.469 39.9532 308.204 39.0254 307.244C38.1114 306.241 36.9141 305.526 35.663 305.126C30.2315 303.492 24.854 308.944 26.8061 314.152C35.423 317.351 35.0175 308.807 40.5674 310.581Z" fill="#CEC927" stroke="#ACA824"/>
<path d="M22.9896 306.909C23.0802 306.728 23.1708 306.548 23.2161 306.367C23.3521 306.096 23.4427 305.916 23.4427 305.916C22.4459 305.735 21.3132 305.871 20.2711 306.322C19.229 306.728 18.2322 307.45 17.5073 308.308C14.2348 312.383 16.4423 317.871 20.3164 320.766C20.4976 320.901 20.7242 321.037 20.9054 321.172C21.2679 321.398 21.5397 321.578 21.7662 321.669C21.9928 321.759 22.1287 321.804 22.1287 321.804C23.1708 320.721 23.7598 319.908 23.941 318.96C24.5598 314.851 21.8263 311.544 22.9896 306.909Z" fill="#CEC927" stroke="#ACA824"/>
<path d="M34.9973 314.131C34.9973 314.131 35.1332 314.086 35.3597 313.995C35.5862 313.905 35.9034 313.815 36.3112 313.77C37.1268 313.589 38.3048 313.589 39.5281 313.815C40.7514 314.04 42.02 314.537 42.9262 314.988C43.3793 315.214 43.7418 315.44 44.0136 315.62C44.2855 315.801 44.4213 315.891 44.4213 315.891C44.7838 314.943 44.8291 313.86 44.6026 312.777C44.376 311.693 43.8323 310.565 43.0621 309.662C42.2918 308.714 41.2951 307.992 40.2077 307.541C39.1203 307.089 37.9423 306.954 36.9002 307.135C36.9002 307.135 36.719 307.18 36.4018 307.225C36.0847 307.315 35.6315 307.405 35.1332 307.631C34.6348 307.812 34.0458 308.082 33.5021 308.443C32.9584 308.805 32.46 309.211 32.0069 309.662C31.1461 310.565 30.7383 311.648 30.6023 312.416C30.557 312.822 30.557 313.093 30.6023 313.318C30.6476 313.544 30.6477 313.634 30.6477 313.634C31.7351 314.402 32.1429 314.988 32.46 314.988C32.5959 314.988 32.9131 314.898 33.2755 314.718C33.9098 314.582 34.4536 314.356 34.9973 314.131Z" fill="#CEC927" stroke="#ACA824"/>
<path d="M35.7347 297.31L35.0042 295L27.3995 298.2C23.2428 299.952 23.6628 303.424 24.6746 307C28.729 305.287 37.6304 303.346 35.7347 297.31Z" fill="#CEC927" stroke="#ACA824"/>
<path d="M35.7347 304.31L35.0042 302L27.3995 305.2C23.2428 306.952 23.6628 310.424 24.6746 314C28.729 312.287 37.6304 310.346 35.7347 304.31Z" fill="#CEC927" stroke="#ACA824"/>
<path d="M35.7347 311.31L35.0042 309L27.3995 312.2C23.2428 313.952 23.6628 317.424 24.6746 321C28.729 319.287 37.6304 317.346 35.7347 311.31Z" fill="#CEC927" stroke="#ACA824"/>
<path d="M35.7347 318.31L35.0042 316L27.3995 319.2C23.2428 320.952 23.6628 324.424 24.6746 328C28.729 326.287 37.6304 324.346 35.7347 318.31Z" fill="#CEC927" stroke="#ACA824"/>
<path d="M35.7347 325.31L35.0042 323L27.3995 326.2C23.2428 327.952 23.6628 331.424 24.6746 335C28.729 333.287 37.6304 331.346 35.7347 325.31Z" fill="#CEC927" stroke="#ACA824"/>
<path d="M35.7347 332.31L35.0042 330L27.3995 333.2C23.2428 334.952 23.6628 338.424 24.6746 342C28.729 340.287 37.6304 338.346 35.7347 332.31Z" fill="#CEC927" stroke="#ACA824"/>
<path d="M16.1474 314.808C16.0568 314.492 16.0114 314.357 16.0114 314.357C14.2897 315.35 13.1117 317.472 13.0664 319.774C13.0664 325.35 19.0829 328.419 24.1669 327.086C24.5747 326.995 24.8918 326.905 25.1184 326.815C25.3449 326.725 25.4809 326.68 25.4809 326.68C25.1738 321.48 17.7347 320.343 16.1474 314.808Z" fill="#CEC927" stroke="#ACA824"/>
<path d="M25.4827 326.635C25.4827 326.635 25.3467 326.68 25.1202 326.77C24.8936 326.86 24.5765 326.951 24.1687 327.041C23.3532 327.221 22.1752 327.357 20.9066 327.267C20.2722 327.221 19.6832 327.086 19.0489 326.906C18.4599 326.725 17.9162 326.499 17.4178 326.319C16.9647 326.093 16.5569 325.867 16.2851 325.732C16.0132 325.551 15.832 325.461 15.832 325.461C15.6961 325.958 15.6508 326.454 15.6055 326.996C15.6055 327.537 15.6961 328.079 15.8773 328.666C16.0132 329.208 16.2851 329.749 16.5569 330.246C16.8288 330.742 17.2366 331.194 17.6443 331.645C18.0521 332.051 18.5052 332.412 19.0036 332.728C19.502 333.044 20.0004 333.27 20.5441 333.45C21.0878 333.631 21.5862 333.721 22.1299 333.766C22.6736 333.812 23.172 333.721 23.625 333.631C23.625 333.631 23.8063 333.586 24.0781 333.496C24.3953 333.405 24.803 333.27 25.3014 333.134C26.2529 332.773 27.4762 332.187 28.473 331.464C28.9714 331.103 29.4245 330.697 29.8322 330.336C30.24 329.93 30.5572 329.569 30.7837 329.208C31.2821 328.485 31.5086 328.034 31.5086 328.034C30.5118 326.906 29.7417 326.274 28.8355 326.093C27.9293 325.913 26.8872 326.093 25.4827 326.635Z" fill="#CEC927" stroke="#ACA824"/>
<path d="M31.5066 328.079C31.5066 328.079 31.2801 328.53 30.7817 329.253C30.5099 329.569 30.1927 329.975 29.8302 330.381C29.4225 330.742 28.9694 331.148 28.471 331.509C27.4742 332.232 26.2509 332.818 25.2994 333.179C24.801 333.36 24.3933 333.495 24.0761 333.541C23.759 333.631 23.623 333.631 23.623 333.631C23.8496 334.082 24.1667 334.488 24.4839 334.85C24.8463 335.256 25.2541 335.572 25.7072 335.843C26.1603 336.159 26.6586 336.384 27.2023 336.565C27.746 336.745 28.2898 336.836 28.8788 336.926C30.0115 337.016 31.2348 336.836 32.2769 336.429C33.319 335.978 34.2251 335.346 34.8141 334.488C34.8141 334.488 34.9047 334.353 35.086 334.082C35.2672 333.857 35.4938 333.405 35.7203 332.954C36.2187 332.051 36.6718 330.742 36.853 329.523C37.0342 328.305 36.9889 327.131 36.8077 326.273C36.7171 325.867 36.6265 325.506 36.5812 325.28C36.4906 325.055 36.4452 324.919 36.4452 324.919C34.9501 324.919 33.908 325.01 33.2284 325.461C33.0471 325.551 32.9112 325.687 32.73 325.867C32.5941 326.003 32.4581 326.183 32.3222 326.409C32.1863 326.589 32.0503 326.86 31.9144 327.131C31.8238 327.447 31.6879 327.718 31.5066 328.079Z" fill="#CEC927" stroke="#ACA824"/>
<path d="M36.5335 325.01C36.5335 325.01 36.5788 325.145 36.6694 325.371C36.7147 325.596 36.8053 325.912 36.8959 326.364C37.0318 327.176 37.1224 328.35 36.9412 329.614C36.76 330.832 36.3069 332.141 35.8085 333.044C35.582 333.495 35.3102 333.902 35.1742 334.172C34.993 334.443 34.9023 334.579 34.9023 334.579C35.1289 334.669 35.4008 334.759 35.6726 334.804C35.9445 334.849 36.2163 334.849 36.4881 334.895C36.76 334.895 37.0318 334.895 37.349 334.895C37.6208 334.849 37.8927 334.804 38.1646 334.759C39.252 334.488 40.3393 333.947 41.2455 333.179C42.1517 332.412 42.8313 331.419 43.2391 330.426C43.6468 329.388 43.7828 328.305 43.6015 327.312C43.6015 327.312 43.5562 327.131 43.5109 326.815C43.4656 326.499 43.3297 326.093 43.1938 325.596C42.8766 324.603 42.3329 323.385 41.608 322.346C40.883 321.308 39.9769 320.541 39.2973 320.044C38.9348 319.819 38.6629 319.638 38.4364 319.503C38.2099 319.367 38.1193 319.322 38.1193 319.322C37.0319 320.36 36.3975 321.128 36.2163 321.895C35.8538 322.572 36.0804 323.565 36.5335 325.01Z" fill="#CEC927" stroke="#ACA824"/>
<path d="M43.3774 326.725C43.4227 327.041 43.468 327.221 43.468 327.221C44.3742 326.815 45.1898 326.048 45.8241 325.1C46.4584 324.152 46.8208 322.978 46.9114 321.805C47.002 320.631 46.8208 319.412 46.3678 318.419C44.4833 314.101 41.8094 312.594 36.1521 313.699C35.0062 315.798 34.9501 316.614 35.3578 317.336C37.8172 321.147 42.4063 320.92 43.3774 326.725Z" fill="#CEC927" stroke="#ACA824"/>
<path d="M35.4985 285.277C35.0907 284.239 34.1845 283.201 33.0065 282.569C31.8285 281.892 30.4693 281.576 29.1553 281.576C23.2232 281.678 21.0133 288.432 22.6309 293.266C22.7669 293.672 22.9028 293.988 22.9934 294.214C23.084 294.44 23.1293 294.575 23.1293 294.575C24.6245 294.35 25.6666 294.079 26.3009 293.537C30.0859 290.709 29.4815 285.277 35.4985 285.277Z" fill="#CEC927" stroke="#ACA824"/>
<path d="M40.5674 289.581C40.4976 288.469 39.9532 287.204 39.0254 286.244C38.1114 285.241 36.9141 284.526 35.663 284.126C30.2315 282.492 24.854 287.944 26.8061 293.152C35.423 296.351 35.0175 287.807 40.5674 289.581Z" fill="#CEC927" stroke="#ACA824"/>
<path d="M22.9896 285.909C23.0802 285.728 23.1708 285.548 23.2161 285.367C23.3521 285.096 23.4427 284.916 23.4427 284.916C22.4459 284.735 21.3132 284.871 20.2711 285.322C19.229 285.728 18.2322 286.45 17.5073 287.308C14.2348 291.383 16.4423 296.871 20.3164 299.766C20.4976 299.901 20.7242 300.037 20.9054 300.172C21.2679 300.398 21.5397 300.578 21.7662 300.669C21.9928 300.759 22.1287 300.804 22.1287 300.804C23.1708 299.721 23.7598 298.908 23.941 297.96C24.5598 293.851 21.8263 290.544 22.9896 285.909Z" fill="#CEC927" stroke="#ACA824"/>
<path d="M34.9973 293.131C34.9973 293.131 35.1332 293.086 35.3597 292.995C35.5862 292.905 35.9034 292.815 36.3112 292.77C37.1268 292.589 38.3048 292.589 39.5281 292.815C40.7514 293.04 42.02 293.537 42.9262 293.988C43.3793 294.214 43.7418 294.44 44.0136 294.62C44.2855 294.801 44.4213 294.891 44.4213 294.891C44.7838 293.943 44.8291 292.86 44.6026 291.777C44.376 290.693 43.8323 289.565 43.0621 288.662C42.2918 287.714 41.2951 286.992 40.2077 286.541C39.1203 286.089 37.9423 285.954 36.9002 286.135C36.9002 286.135 36.719 286.18 36.4018 286.225C36.0847 286.315 35.6315 286.405 35.1332 286.631C34.6348 286.812 34.0458 287.082 33.5021 287.443C32.9584 287.805 32.46 288.211 32.0069 288.662C31.1461 289.565 30.7383 290.648 30.6023 291.416C30.557 291.822 30.557 292.093 30.6023 292.318C30.6476 292.544 30.6477 292.634 30.6477 292.634C31.7351 293.402 32.1429 293.988 32.46 293.988C32.5959 293.988 32.9131 293.898 33.2755 293.718C33.9098 293.582 34.4536 293.356 34.9973 293.131Z" fill="#CEC927" stroke="#ACA824"/>
<path d="M35.7347 276.31L35.0042 274L27.3995 277.2C23.2428 278.952 23.6628 282.424 24.6746 286C28.729 284.287 37.6304 282.346 35.7347 276.31Z" fill="#CEC927" stroke="#ACA824"/>
<path d="M35.7347 283.31L35.0042 281L27.3995 284.2C23.2428 285.952 23.6628 289.424 24.6746 293C28.729 291.287 37.6304 289.346 35.7347 283.31Z" fill="#CEC927" stroke="#ACA824"/>
<path d="M35.7347 290.31L35.0042 288L27.3995 291.2C23.2428 292.952 23.6628 296.424 24.6746 300C28.729 298.287 37.6304 296.346 35.7347 290.31Z" fill="#CEC927" stroke="#ACA824"/>
<path d="M35.7347 297.31L35.0042 295L27.3995 298.2C23.2428 299.952 23.6628 303.424 24.6746 307C28.729 305.287 37.6304 303.346 35.7347 297.31Z" fill="#CEC927" stroke="#ACA824"/>
<path d="M35.7347 304.31L35.0042 302L27.3995 305.2C23.2428 306.952 23.6628 310.424 24.6746 314C28.729 312.287 37.6304 310.346 35.7347 304.31Z" fill="#CEC927" stroke="#ACA824"/>
<path d="M35.7347 311.31L35.0042 309L27.3995 312.2C23.2428 313.952 23.6628 317.424 24.6746 321C28.729 319.287 37.6304 317.346 35.7347 311.31Z" fill="#CEC927" stroke="#ACA824"/>
<path d="M16.1474 293.808C16.0568 293.492 16.0114 293.357 16.0114 293.357C14.2897 294.35 13.1117 296.472 13.0664 298.774C13.0664 304.35 19.0829 307.419 24.1669 306.086C24.5747 305.995 24.8918 305.905 25.1184 305.815C25.3449 305.725 25.4809 305.68 25.4809 305.68C25.1738 300.48 17.7347 299.343 16.1474 293.808Z" fill="#CEC927" stroke="#ACA824"/>
<path d="M25.4827 305.635C25.4827 305.635 25.3467 305.68 25.1202 305.77C24.8936 305.86 24.5765 305.951 24.1687 306.041C23.3532 306.221 22.1752 306.357 20.9066 306.267C20.2722 306.221 19.6832 306.086 19.0489 305.906C18.4599 305.725 17.9162 305.499 17.4178 305.319C16.9647 305.093 16.5569 304.867 16.2851 304.732C16.0132 304.551 15.832 304.461 15.832 304.461C15.6961 304.958 15.6508 305.454 15.6055 305.996C15.6055 306.537 15.6961 307.079 15.8773 307.666C16.0132 308.208 16.2851 308.749 16.5569 309.246C16.8288 309.742 17.2366 310.194 17.6443 310.645C18.0521 311.051 18.5052 311.412 19.0036 311.728C19.502 312.044 20.0004 312.27 20.5441 312.45C21.0878 312.631 21.5862 312.721 22.1299 312.766C22.6736 312.812 23.172 312.721 23.625 312.631C23.625 312.631 23.8063 312.586 24.0781 312.496C24.3953 312.405 24.803 312.27 25.3014 312.134C26.2529 311.773 27.4762 311.187 28.473 310.464C28.9714 310.103 29.4245 309.697 29.8322 309.336C30.24 308.93 30.5572 308.569 30.7837 308.208C31.2821 307.485 31.5086 307.034 31.5086 307.034C30.5118 305.906 29.7417 305.274 28.8355 305.093C27.9293 304.913 26.8872 305.093 25.4827 305.635Z" fill="#CEC927" stroke="#ACA824"/>
<path d="M31.5066 307.079C31.5066 307.079 31.2801 307.53 30.7817 308.253C30.5099 308.569 30.1927 308.975 29.8302 309.381C29.4225 309.742 28.9694 310.148 28.471 310.509C27.4742 311.232 26.2509 311.818 25.2994 312.179C24.801 312.36 24.3933 312.495 24.0761 312.541C23.759 312.631 23.623 312.631 23.623 312.631C23.8496 313.082 24.1667 313.488 24.4839 313.85C24.8463 314.256 25.2541 314.572 25.7072 314.843C26.1603 315.159 26.6586 315.384 27.2023 315.565C27.746 315.745 28.2898 315.836 28.8788 315.926C30.0115 316.016 31.2348 315.836 32.2769 315.429C33.319 314.978 34.2251 314.346 34.8141 313.488C34.8141 313.488 34.9047 313.353 35.086 313.082C35.2672 312.857 35.4938 312.405 35.7203 311.954C36.2187 311.051 36.6718 309.742 36.853 308.523C37.0342 307.305 36.9889 306.131 36.8077 305.273C36.7171 304.867 36.6265 304.506 36.5812 304.28C36.4906 304.055 36.4452 303.919 36.4452 303.919C34.9501 303.919 33.908 304.01 33.2284 304.461C33.0471 304.551 32.9112 304.687 32.73 304.867C32.5941 305.003 32.4581 305.183 32.3222 305.409C32.1863 305.589 32.0503 305.86 31.9144 306.131C31.8238 306.447 31.6879 306.718 31.5066 307.079Z" fill="#CEC927" stroke="#ACA824"/>
<path d="M36.5335 304.01C36.5335 304.01 36.5788 304.145 36.6694 304.371C36.7147 304.596 36.8053 304.912 36.8959 305.364C37.0318 306.176 37.1224 307.35 36.9412 308.614C36.76 309.832 36.3069 311.141 35.8085 312.044C35.582 312.495 35.3102 312.902 35.1742 313.172C34.993 313.443 34.9023 313.579 34.9023 313.579C35.1289 313.669 35.4008 313.759 35.6726 313.804C35.9445 313.849 36.2163 313.849 36.4881 313.895C36.76 313.895 37.0318 313.895 37.349 313.895C37.6208 313.849 37.8927 313.804 38.1646 313.759C39.252 313.488 40.3393 312.947 41.2455 312.179C42.1517 311.412 42.8313 310.419 43.2391 309.426C43.6468 308.388 43.7828 307.305 43.6015 306.312C43.6015 306.312 43.5562 306.131 43.5109 305.815C43.4656 305.499 43.3297 305.093 43.1938 304.596C42.8766 303.603 42.3329 302.385 41.608 301.346C40.883 300.308 39.9769 299.541 39.2973 299.044C38.9348 298.819 38.6629 298.638 38.4364 298.503C38.2099 298.367 38.1193 298.322 38.1193 298.322C37.0319 299.36 36.3975 300.128 36.2163 300.895C35.8538 301.572 36.0804 302.565 36.5335 304.01Z" fill="#CEC927" stroke="#ACA824"/>
<path d="M43.3774 305.725C43.4227 306.041 43.468 306.221 43.468 306.221C44.3742 305.815 45.1898 305.048 45.8241 304.1C46.4584 303.152 46.8208 301.978 46.9114 300.805C47.002 299.631 46.8208 298.412 46.3678 297.419C44.4833 293.101 41.8094 291.594 36.1521 292.699C35.0062 294.798 34.9501 295.614 35.3578 296.336C37.8172 300.147 42.4063 299.92 43.3774 305.725Z" fill="#CEC927" stroke="#ACA824"/>
<path d="M35.7386 339.31L35.0081 337L27.4034 340.2C23.2467 341.952 23.6667 345.424 24.6785 349C28.7329 347.287 37.6343 345.346 35.7386 339.31Z" fill="#CEC927" stroke="#ACA824"/>
<path d="M35.7386 346.31L35.0081 344L27.4034 347.2C23.2467 348.952 23.6667 352.424 24.6785 356C28.7329 354.287 37.6343 352.346 35.7386 346.31Z" fill="#CEC927" stroke="#ACA824"/>
<path d="M35.7386 353.31L35.0081 351L27.4034 354.2C23.2467 355.952 23.6667 359.424 24.6785 363C28.7329 361.287 37.6343 359.346 35.7386 353.31Z" fill="#CEC927" stroke="#ACA824"/>
<path d="M35.7386 360.31L35.0081 358L27.4034 361.2C23.2467 362.952 23.6667 366.424 24.6785 370C28.7329 368.287 37.6343 366.346 35.7386 360.31Z" fill="#CEC927" stroke="#ACA824"/>
<path d="M35.7386 367.31L35.0081 365L27.4034 368.2C23.2467 369.952 23.6667 373.424 24.6785 377C28.7329 375.287 37.6343 373.346 35.7386 367.31Z" fill="#CEC927" stroke="#ACA824"/>
<path d="M23.5441 397.226C23.2576 401.849 22.6846 406.464 21.7887 411.028C21.7887 411.062 21.7783 411.079 21.7783 411.096C21.2859 413.501 22.9755 413.31 24.6172 413.31C25.6017 409.28 26.4247 403.682 26.5081 398.762C26.5081 398.762 27.029 403.393 25.6955 411.639C25.7684 412.164 25.8726 412.792 26.0653 413.31H27.753C28.399 407.338 28.8417 400.255 28.9042 393.519C28.9355 394.554 29.1647 401.917 28.2323 413.31H31.0243L31.3733 412.046L31.639 411.121C31.6338 411.113 31.6338 411.096 31.6338 411.079C31.4202 408.05 31.29 405.395 31.2014 403.113C30.9566 396.777 31.1337 393.401 31.1337 393.401C31.1806 400.043 31.613 407.024 32.2589 413.539L34.6186 413.31C32.9934 404.199 33.4882 399.084 33.5247 398.77C33.6393 405.404 34.8947 411.147 35.4781 413.505L37.2752 413.31C37.9784 413.301 38.4733 412.19 38.2545 411.07C37.3533 406.498 36.7751 401.858 36.4938 397.226C35.7498 386.322 24.455 382.827 23.5441 397.226Z" fill="#CEC927" stroke="#ACA824"/>
<path d="M35.7386 374.31L35.0081 372L27.4034 375.2C23.2467 376.953 23.6667 380.424 24.6785 384C28.7329 382.287 37.6343 380.346 35.7386 374.31Z" fill="#CEC927" stroke="#ACA824"/>
<path d="M32.5184 382.184C33.5958 382.541 34.6479 383.001 35.4925 383.444C36.3372 383.887 36.8446 384.265 36.8446 384.265C37.0742 383.615 37.0567 382.821 36.8454 382.098C35.2229 375.169 26.518 376.352 24.4622 380.346C24.1931 380.869 24.0656 381.246 24.0656 381.246C25.2491 382.034 27.1825 383.687 27.8308 383.778C28.1681 383.843 28.4008 383.757 28.6723 383.657C29.9633 382.711 30.576 381.541 32.5184 382.184Z" fill="#CEC927" stroke="#ACA824"/>
<path d="M37.5725 389.907C40.2254 387.745 40.1809 384.438 37.5723 381.171C34.9637 377.904 29.4978 379.91 27.712 385.607C28.9642 388.81 36.4027 387.161 37.5725 389.907Z" fill="#CEC927" stroke="#ACA824"/>
<path d="M26.8229 379.456C26.8726 378.998 26.9222 378.586 26.9719 378.312C27.0711 378.037 27.0711 377.854 27.0711 377.854C26.0287 377.945 25.0359 378.449 24.192 379.09C19.9935 382.505 22.1959 387.287 26.0287 389.891C26.9719 390.531 27.9647 390.897 28.7093 391.081C29.0568 391.172 29.4043 391.218 29.6029 391.264C29.8014 391.309 29.9503 391.309 29.9503 391.309C32.5354 386.909 26.573 384.064 26.8229 379.456Z" fill="#CEC927" stroke="#ACA824"/>
<path d="M29.1339 387.533C29.1339 387.533 28.9849 387.533 28.7864 387.482C28.5878 387.432 28.29 387.381 27.8928 387.28C27.1482 387.078 26.1554 386.623 25.2122 385.966C24.269 385.309 23.4251 384.4 22.8294 383.642C22.2338 382.884 21.8863 382.328 21.8863 382.328C21.2409 382.985 20.7942 383.844 20.5956 384.804C20.3474 385.764 20.3474 386.876 20.6452 387.987C20.8934 389.048 21.4395 390.109 22.1841 390.918C22.9287 391.726 23.8223 392.282 24.7158 392.535C24.7158 392.535 24.8647 392.585 25.1626 392.636C25.4604 392.686 25.8575 392.787 26.3539 392.838C27.3468 392.939 28.5878 392.888 29.7295 392.585C30.8713 392.282 31.7152 391.676 32.2612 391.12C32.5094 390.867 32.708 390.615 32.8073 390.463C32.9066 390.312 33.0059 390.211 33.0059 390.211C32.4102 388.998 32.3605 388.392 31.8641 388.038C31.3181 387.785 30.4742 387.684 29.1339 387.533Z" fill="#CEC927" stroke="#ACA824"/>
<path d="M29.6458 388.524C29.6458 388.524 29.5694 388.606 29.3836 388.707C29.2453 388.822 28.9688 389.054 28.6736 389.174C28.0399 389.558 27.0118 389.874 25.8328 389.827C24.6868 389.842 23.4519 389.46 22.5308 389.07C22.0702 388.875 21.7191 388.66 21.4485 388.524C21.178 388.388 21.0499 388.295 21.0499 388.295C20.8233 389.228 20.8672 390.298 21.2725 391.374C21.6303 392.435 22.3494 393.502 23.3595 394.29C23.8574 394.708 24.3841 395.029 24.9871 395.268C25.2577 395.405 25.5427 395.493 25.8277 395.581C26.1126 395.669 26.4121 395.709 26.7115 395.749C27.3103 395.828 27.843 395.782 28.3757 395.735C28.8753 395.626 29.3894 395.468 29.8228 395.232C29.8228 395.232 29.9611 395.116 30.2563 394.996C30.504 394.862 30.8425 394.597 31.2429 394.298C31.9962 393.686 32.8361 392.784 33.4529 391.76C34.0697 390.736 34.4677 389.75 34.6986 388.977C34.814 388.59 34.8675 388.237 34.9252 388.044C34.9354 387.835 34.9787 387.69 34.9787 387.69C33.7064 387.086 32.6945 386.826 31.9286 386.959C31.1151 387.077 30.5951 387.603 29.6458 388.524Z" fill="#CEC927" stroke="#ACA824"/>
<path d="M30.4334 387.02C30.4333 388.51 30.5716 389.95 30.1715 391.444C29.8737 392.606 29.3276 393.717 28.7816 394.526C28.4837 394.93 28.2355 395.284 28.037 395.486C27.8384 395.688 27.6895 395.839 27.6895 395.839C28.583 396.294 29.6255 396.395 30.6679 396.294C31.7104 396.143 32.7529 395.789 33.5968 395.183C37.8792 392.194 36.3038 387.58 34.119 385.296C32.3638 384.29 30.9067 385.073 30.4334 387.02Z" fill="#CEC927" stroke="#ACA824"/>
<path d="M35.0295 394.482C39.1535 393.316 39.7284 387.193 36.3439 385.077C32.9593 382.962 30.4208 385.5 30.422 386.471C34.6539 387.274 36.3433 389.308 35.0295 394.482Z" fill="#CEC927" stroke="#ACA824"/>
</svg>
