<svg width="528" height="36" viewBox="0 0 528 36" fill="none" xmlns="http://www.w3.org/2000/svg">
<path d="M525.075 13.2178L527 13.8266L524.333 20.1639C522.873 23.6278 519.98 23.2777 517 22.4346C518.427 19.0559 520.045 11.6381 525.075 13.2178Z" fill="#EDEDED" stroke="#D2D2D2"/>
<path d="M519.075 13.2178L521 13.8266L518.333 20.1639C516.873 23.6278 513.98 23.2777 511 22.4346C512.427 19.0559 514.045 11.6381 519.075 13.2178Z" fill="#EDEDED" stroke="#D2D2D2"/>
<path d="M513.075 13.2178L515 13.8266L512.333 20.1639C510.873 23.6278 507.98 23.2777 505 22.4346C506.427 19.0559 508.045 11.6381 513.075 13.2178Z" fill="#EDEDED" stroke="#D2D2D2"/>
<path d="M507.075 13.2178L509 13.8266L506.333 20.1639C504.873 23.6278 501.98 23.2777 499 22.4346C500.427 19.0559 502.045 11.6381 507.075 13.2178Z" fill="#EDEDED" stroke="#D2D2D2"/>
<path d="M501.075 13.2178L503 13.8266L500.333 20.1639C498.873 23.6278 495.98 23.2777 493 22.4346C494.427 19.0559 496.045 11.6381 501.075 13.2178Z" fill="#EDEDED" stroke="#D2D2D2"/>
<path d="M495.075 13.2178L497 13.8266L494.333 20.1639C492.873 23.6278 489.98 23.2777 487 22.4346C488.427 19.0559 490.045 11.6381 495.075 13.2178Z" fill="#EDEDED" stroke="#D2D2D2"/>
<path d="M489.075 13.2178L491 13.8266L488.333 20.1639C486.873 23.6278 483.98 23.2777 481 22.4346C482.427 19.0559 484.045 11.6381 489.075 13.2178Z" fill="#EDEDED" stroke="#D2D2D2"/>
<path d="M483.075 13.2178L485 13.8266L482.333 20.1639C480.873 23.6278 477.98 23.2777 475 22.4346C476.427 19.0559 478.045 11.6381 483.075 13.2178Z" fill="#EDEDED" stroke="#D2D2D2"/>
<path d="M477.075 13.2178L479 13.8266L476.333 20.1639C474.873 23.6278 471.98 23.2777 469 22.4346C470.427 19.0559 472.045 11.6381 477.075 13.2178Z" fill="#EDEDED" stroke="#D2D2D2"/>
<path d="M471.075 13.2178L473 13.8266L470.333 20.1639C468.873 23.6278 465.98 23.2777 463 22.4346C464.427 19.0559 466.045 11.6381 471.075 13.2178Z" fill="#EDEDED" stroke="#D2D2D2"/>
<path d="M465.075 13.2178L467 13.8266L464.333 20.1639C462.873 23.6278 459.98 23.2777 457 22.4346C458.427 19.0559 460.045 11.6381 465.075 13.2178Z" fill="#EDEDED" stroke="#D2D2D2"/>
<path d="M410.925 22.7822L409 22.1734L411.667 15.8361C413.127 12.3722 416.02 12.7223 419 13.5654C417.573 16.9441 415.955 24.3619 410.925 22.7822Z" fill="#EDEDED" stroke="#D2D2D2"/>
<path d="M416.925 22.7822L415 22.1734L417.667 15.8361C419.127 12.3722 422.02 12.7223 425 13.5654C423.573 16.9441 421.955 24.3619 416.925 22.7822Z" fill="#EDEDED" stroke="#D2D2D2"/>
<path d="M422.925 22.7822L421 22.1734L423.667 15.8361C425.127 12.3722 428.02 12.7223 431 13.5654C429.573 16.9441 427.955 24.3619 422.925 22.7822Z" fill="#EDEDED" stroke="#D2D2D2"/>
<path d="M428.925 22.7822L427 22.1734L429.667 15.8361C431.127 12.3722 434.02 12.7223 437 13.5654C435.573 16.9441 433.955 24.3619 428.925 22.7822Z" fill="#EDEDED" stroke="#D2D2D2"/>
<path d="M434.925 22.7822L433 22.1734L435.667 15.8361C437.127 12.3722 440.02 12.7223 443 13.5654C441.573 16.9441 439.955 24.3619 434.925 22.7822Z" fill="#EDEDED" stroke="#D2D2D2"/>
<path d="M440.925 22.7822L439 22.1734L441.667 15.8361C443.127 12.3722 446.02 12.7223 449 13.5654C447.573 16.9441 445.955 24.3619 440.925 22.7822Z" fill="#EDEDED" stroke="#D2D2D2"/>
<path d="M446.925 22.7822L445 22.1734L447.667 15.8361C449.127 12.3722 452.02 12.7223 455 13.5654C453.573 16.9441 451.955 24.3619 446.925 22.7822Z" fill="#EDEDED" stroke="#D2D2D2"/>
<path d="M452.925 22.7822L451 22.1734L453.667 15.8361C455.127 12.3722 458.02 12.7223 461 13.5654C459.573 16.9441 457.955 24.3619 452.925 22.7822Z" fill="#EDEDED" stroke="#D2D2D2"/>
<path d="M426.143 15.8517L425.808 13.8608L419.162 15.6197C415.528 16.5835 415.472 19.4974 415.892 22.5655C419.437 21.6223 427.008 21.0524 426.143 15.8517Z" fill="#EDEDED" stroke="#D2D2D2"/>
<path d="M425.287 21.9467L424.952 19.9557L418.305 21.7147C414.672 22.6785 414.455 26.3444 415.915 27.5685C417.375 28.7926 426.151 27.1474 425.287 21.9467Z" fill="#EDEDED" stroke="#D2D2D2"/>
<path d="M416.682 14.2899L417.017 16.2809L423.664 14.5219C427.297 13.5581 427.513 9.89224 426.053 8.6681C424.593 7.44396 415.817 9.08923 416.682 14.2899Z" fill="#EDEDED" stroke="#D2D2D2"/>
<path d="M435.565 15.8537L435.23 13.8628L428.583 15.6217C424.95 16.5855 424.894 19.4994 425.314 22.5674C428.859 21.6243 436.43 21.0544 435.565 15.8537Z" fill="#EDEDED" stroke="#D2D2D2"/>
<path d="M434.71 21.9486L434.375 19.9577L427.728 21.7166C424.094 22.6804 423.878 26.3463 425.338 27.5705C426.798 28.7946 435.574 27.1493 434.71 21.9486Z" fill="#EDEDED" stroke="#D2D2D2"/>
<path d="M426.105 14.2899L426.44 16.2809L433.086 14.5219C436.72 13.5581 436.936 9.89224 435.476 8.6681C434.016 7.44396 425.24 9.08923 426.105 14.2899Z" fill="#EDEDED" stroke="#D2D2D2"/>
<path d="M444.989 15.8527L444.654 13.8618L438.007 15.6208C434.374 16.5845 434.318 19.4984 434.738 22.5665C438.282 21.6233 445.853 21.0534 444.989 15.8527Z" fill="#EDEDED" stroke="#D2D2D2"/>
<path d="M444.132 21.9465L443.797 19.9556L437.151 21.7145C433.517 22.6783 433.301 26.3442 434.761 27.5683C436.221 28.7925 444.997 27.1472 444.132 21.9465Z" fill="#EDEDED" stroke="#D2D2D2"/>
<path d="M435.528 14.2908L435.862 16.2817L442.509 14.5228C446.143 13.559 446.359 9.8931 444.899 8.66896C443.439 7.44481 434.663 9.09009 435.528 14.2908Z" fill="#EDEDED" stroke="#D2D2D2"/>
<path d="M454.413 15.8527L454.078 13.8618L447.431 15.6208C443.798 16.5845 443.742 19.4984 444.162 22.5665C447.706 21.6233 455.277 21.0534 454.413 15.8527Z" fill="#EDEDED" stroke="#D2D2D2"/>
<path d="M453.556 21.9465L453.221 19.9556L446.574 21.7145C442.941 22.6783 442.725 26.3442 444.185 27.5683C445.645 28.7925 454.421 27.1472 453.556 21.9465Z" fill="#EDEDED" stroke="#D2D2D2"/>
<path d="M444.951 14.2908L445.286 16.2817L451.933 14.5228C455.566 13.559 455.783 9.8931 454.323 8.66896C452.863 7.44481 444.087 9.09009 444.951 14.2908Z" fill="#EDEDED" stroke="#D2D2D2"/>
<path d="M411.075 13.2178L413 13.8266L410.333 20.1639C408.873 23.6278 405.98 23.2777 403 22.4346C404.427 19.0559 406.045 11.6381 411.075 13.2178Z" fill="#EDEDED" stroke="#D2D2D2"/>
<path d="M405.075 13.2178L407 13.8266L404.333 20.1639C402.873 23.6278 399.98 23.2777 397 22.4346C398.427 19.0559 400.045 11.6381 405.075 13.2178Z" fill="#EDEDED" stroke="#D2D2D2"/>
<path d="M399.075 13.2178L401 13.8266L398.333 20.1639C396.873 23.6278 393.98 23.2777 391 22.4346C392.427 19.0559 394.045 11.6381 399.075 13.2178Z" fill="#EDEDED" stroke="#D2D2D2"/>
<path d="M393.075 13.2178L395 13.8266L392.333 20.1639C390.873 23.6278 387.98 23.2777 385 22.4346C386.427 19.0559 388.045 11.6381 393.075 13.2178Z" fill="#EDEDED" stroke="#D2D2D2"/>
<path d="M387.075 13.2178L389 13.8266L386.333 20.1639C384.873 23.6278 381.98 23.2777 379 22.4346C380.427 19.0559 382.045 11.6381 387.075 13.2178Z" fill="#EDEDED" stroke="#D2D2D2"/>
<path d="M381.075 13.2178L383 13.8266L380.333 20.1639C378.873 23.6278 375.98 23.2777 373 22.4346C374.427 19.0559 376.045 11.6381 381.075 13.2178Z" fill="#EDEDED" stroke="#D2D2D2"/>
<path d="M375.075 13.2178L377 13.8266L374.333 20.1639C372.873 23.6278 369.98 23.2777 367 22.4346C368.427 19.0559 370.045 11.6381 375.075 13.2178Z" fill="#EDEDED" stroke="#D2D2D2"/>
<path d="M369.075 13.2178L371 13.8266L368.333 20.1639C366.873 23.6278 363.98 23.2777 361 22.4346C362.427 19.0559 364.045 11.6381 369.075 13.2178Z" fill="#EDEDED" stroke="#D2D2D2"/>
<path d="M363.075 13.2178L365 13.8266L362.333 20.1639C360.873 23.6278 357.98 23.2777 355 22.4346C356.427 19.0559 358.045 11.6381 363.075 13.2178Z" fill="#EDEDED" stroke="#D2D2D2"/>
<path d="M357.075 13.2178L359 13.8266L356.333 20.1639C354.873 23.6278 351.98 23.2777 349 22.4346C350.427 19.0559 352.045 11.6381 357.075 13.2178Z" fill="#EDEDED" stroke="#D2D2D2"/>
<path d="M351.075 13.2178L353 13.8266L350.333 20.1639C348.873 23.6278 345.98 23.2777 343 22.4346C344.427 19.0559 346.045 11.6381 351.075 13.2178Z" fill="#EDEDED" stroke="#D2D2D2"/>
<path d="M345.075 13.2178L347 13.8266L344.333 20.1639C342.873 23.6278 339.98 23.2777 337 22.4346C338.427 19.0559 340.045 11.6381 345.075 13.2178Z" fill="#EDEDED" stroke="#D2D2D2"/>
<path d="M339.075 13.2178L341 13.8266L338.333 20.1639C336.873 23.6278 333.98 23.2777 331 22.4346C332.427 19.0559 334.045 11.6381 339.075 13.2178Z" fill="#EDEDED" stroke="#D2D2D2"/>
<path d="M333.075 13.2178L335 13.8266L332.333 20.1639C330.873 23.6278 327.98 23.2777 325 22.4346C326.427 19.0559 328.045 11.6381 333.075 13.2178Z" fill="#EDEDED" stroke="#D2D2D2"/>
<path d="M327.075 13.2178L329 13.8266L326.333 20.1639C324.873 23.6278 321.98 23.2777 319 22.4346C320.427 19.0559 322.045 11.6381 327.075 13.2178Z" fill="#EDEDED" stroke="#D2D2D2"/>
<path d="M321.075 13.2178L323 13.8266L320.333 20.1639C318.873 23.6278 315.98 23.2777 313 22.4346C314.427 19.0559 316.045 11.6381 321.075 13.2178Z" fill="#EDEDED" stroke="#D2D2D2"/>
<path d="M315.075 13.2178L317 13.8266L314.333 20.1639C312.873 23.6278 309.98 23.2777 307 22.4346C308.427 19.0559 310.045 11.6381 315.075 13.2178Z" fill="#EDEDED" stroke="#D2D2D2"/>
<path d="M309.075 13.2178L311 13.8266L308.333 20.1639C306.873 23.6278 303.98 23.2777 301 22.4346C302.427 19.0559 304.045 11.6381 309.075 13.2178Z" fill="#EDEDED" stroke="#D2D2D2"/>
<path d="M303.075 13.2178L305 13.8266L302.333 20.1639C300.873 23.6278 297.98 23.2777 295 22.4346C296.427 19.0559 298.045 11.6381 303.075 13.2178Z" fill="#EDEDED" stroke="#D2D2D2"/>
<path d="M297.075 13.2178L299 13.8266L296.333 20.1639C294.873 23.6278 291.98 23.2777 289 22.4346C290.427 19.0559 292.045 11.6381 297.075 13.2178Z" fill="#EDEDED" stroke="#D2D2D2"/>
<path d="M291.075 13.2178L293 13.8266L290.333 20.1639C288.873 23.6278 285.98 23.2777 283 22.4346C284.427 19.0559 286.045 11.6381 291.075 13.2178Z" fill="#EDEDED" stroke="#D2D2D2"/>
<path d="M285.075 13.2178L287 13.8266L284.333 20.1639C282.873 23.6278 279.98 23.2777 277 22.4346C278.427 19.0559 280.045 11.6381 285.075 13.2178Z" fill="#EDEDED" stroke="#D2D2D2"/>
<path d="M279.075 13.2178L281 13.8266L278.333 20.1639C276.873 23.6278 273.98 23.2777 271 22.4346C272.427 19.0559 274.045 11.6381 279.075 13.2178Z" fill="#EDEDED" stroke="#D2D2D2"/>
<path d="M273.075 13.2178L275 13.8266L272.333 20.1639C270.873 23.6278 267.98 23.2777 265 22.4346C266.427 19.0559 268.045 11.6381 273.075 13.2178Z" fill="#EDEDED" stroke="#D2D2D2"/>
<path d="M295.145 20.1483L295.48 22.1392L302.127 20.3803C305.76 19.4165 305.816 16.5026 305.396 13.4345C301.851 14.3777 294.28 14.9476 295.145 20.1483Z" fill="#EDEDED" stroke="#D2D2D2"/>
<path d="M296.001 14.0533L296.336 16.0443L302.983 14.2853C306.617 13.3215 306.833 9.65564 305.373 8.4315C303.913 7.20735 295.137 8.85263 296.001 14.0533Z" fill="#EDEDED" stroke="#D2D2D2"/>
<path d="M304.606 21.7101L304.271 19.7191L297.625 21.4781C293.991 22.4419 293.775 26.1078 295.235 27.3319C296.695 28.556 305.471 26.9108 304.606 21.7101Z" fill="#EDEDED" stroke="#D2D2D2"/>
<path d="M285.722 20.1473L286.057 22.1382L292.704 20.3792C296.337 19.4155 296.393 16.5016 295.973 13.4335C292.428 14.3767 284.858 14.9466 285.722 20.1473Z" fill="#EDEDED" stroke="#D2D2D2"/>
<path d="M286.579 14.0535L286.914 16.0444L293.56 14.2855C297.194 13.3217 297.41 9.65583 295.95 8.43168C294.49 7.20754 285.714 8.85281 286.579 14.0535Z" fill="#EDEDED" stroke="#D2D2D2"/>
<path d="M295.183 21.7092L294.848 19.7183L288.202 21.4772C284.568 22.441 284.352 26.1069 285.812 27.331C287.272 28.5552 296.048 26.9099 295.183 21.7092Z" fill="#EDEDED" stroke="#D2D2D2"/>
<path d="M276.299 20.1473L276.634 22.1382L283.281 20.3792C286.914 19.4155 286.97 16.5016 286.55 13.4335C283.006 14.3767 275.435 14.9466 276.299 20.1473Z" fill="#EDEDED" stroke="#D2D2D2"/>
<path d="M277.156 14.0535L277.491 16.0444L284.137 14.2855C287.771 13.3217 287.987 9.65583 286.527 8.43168C285.067 7.20754 276.291 8.85281 277.156 14.0535Z" fill="#EDEDED" stroke="#D2D2D2"/>
<path d="M285.761 21.7092L285.426 19.7183L278.779 21.4772C275.145 22.441 274.929 26.1069 276.389 27.331C277.849 28.5552 286.625 26.9099 285.761 21.7092Z" fill="#EDEDED" stroke="#D2D2D2"/>
<path d="M267.075 13.2178L269 13.8266L266.333 20.1639C264.873 23.6278 261.98 23.2777 259 22.4346C260.427 19.0559 262.045 11.6381 267.075 13.2178Z" fill="#EDEDED" stroke="#D2D2D2"/>
<path d="M261.075 13.2178L263 13.8266L260.333 20.1639C258.873 23.6278 255.98 23.2777 253 22.4346C254.427 19.0559 256.045 11.6381 261.075 13.2178Z" fill="#EDEDED" stroke="#D2D2D2"/>
<path d="M255.075 13.2178L257 13.8266L254.333 20.1639C252.873 23.6278 249.98 23.2777 247 22.4346C248.427 19.0559 250.045 11.6381 255.075 13.2178Z" fill="#EDEDED" stroke="#D2D2D2"/>
<path d="M249.075 13.2178L251 13.8266L248.333 20.1639C246.873 23.6278 243.98 23.2777 241 22.4346C242.427 19.0559 244.045 11.6381 249.075 13.2178Z" fill="#EDEDED" stroke="#D2D2D2"/>
<path d="M243.075 13.2178L245 13.8266L242.333 20.1639C240.873 23.6278 237.98 23.2777 235 22.4346C236.427 19.0559 238.045 11.6381 243.075 13.2178Z" fill="#EDEDED" stroke="#D2D2D2"/>
<path d="M237.075 13.2178L239 13.8266L236.333 20.1639C234.873 23.6278 231.98 23.2777 229 22.4346C230.427 19.0559 232.045 11.6381 237.075 13.2178Z" fill="#EDEDED" stroke="#D2D2D2"/>
<path d="M231.075 13.2178L233 13.8266L230.333 20.1639C228.873 23.6278 225.98 23.2777 223 22.4346C224.427 19.0559 226.045 11.6381 231.075 13.2178Z" fill="#EDEDED" stroke="#D2D2D2"/>
<path d="M225.075 13.2178L227 13.8266L224.333 20.1639C222.873 23.6278 219.98 23.2777 217 22.4346C218.427 19.0559 220.045 11.6381 225.075 13.2178Z" fill="#EDEDED" stroke="#D2D2D2"/>
<path d="M219.075 13.2178L221 13.8266L218.333 20.1639C216.873 23.6278 213.98 23.2777 211 22.4346C212.427 19.0559 214.045 11.6381 219.075 13.2178Z" fill="#EDEDED" stroke="#D2D2D2"/>
<path d="M213.075 13.2178L215 13.8266L212.333 20.1639C210.873 23.6278 207.98 23.2777 205 22.4346C206.427 19.0559 208.045 11.6381 213.075 13.2178Z" fill="#EDEDED" stroke="#D2D2D2"/>
<path d="M207.075 13.2178L209 13.8266L206.333 20.1639C204.873 23.6278 201.98 23.2777 199 22.4346C200.427 19.0559 202.045 11.6381 207.075 13.2178Z" fill="#EDEDED" stroke="#D2D2D2"/>
<path d="M201.075 13.2178L203 13.8266L200.333 20.1639C198.873 23.6278 195.98 23.2777 193 22.4346C194.427 19.0559 196.045 11.6381 201.075 13.2178Z" fill="#EDEDED" stroke="#D2D2D2"/>
<path d="M195.075 13.2178L197 13.8266L194.333 20.1639C192.873 23.6278 189.98 23.2777 187 22.4346C188.427 19.0559 190.045 11.6381 195.075 13.2178Z" fill="#EDEDED" stroke="#D2D2D2"/>
<path d="M189.075 13.2178L191 13.8266L188.333 20.1639C186.873 23.6278 183.98 23.2777 181 22.4346C182.427 19.0559 184.045 11.6381 189.075 13.2178Z" fill="#EDEDED" stroke="#D2D2D2"/>
<path d="M183.075 13.2178L185 13.8266L182.333 20.1639C180.873 23.6278 177.98 23.2777 175 22.4346C176.427 19.0559 178.045 11.6381 183.075 13.2178Z" fill="#EDEDED" stroke="#D2D2D2"/>
<path d="M177.075 13.2178L179 13.8266L176.333 20.1639C174.873 23.6278 171.98 23.2777 169 22.4346C170.427 19.0559 172.045 11.6381 177.075 13.2178Z" fill="#EDEDED" stroke="#D2D2D2"/>
<path d="M171.075 13.2178L173 13.8266L170.333 20.1639C168.873 23.6278 165.98 23.2777 163 22.4346C164.427 19.0559 166.045 11.6381 171.075 13.2178Z" fill="#EDEDED" stroke="#D2D2D2"/>
<path d="M165.075 13.2178L167 13.8266L164.333 20.1639C162.873 23.6278 159.98 23.2777 157 22.4346C158.427 19.0559 160.045 11.6381 165.075 13.2178Z" fill="#EDEDED" stroke="#D2D2D2"/>
<path d="M159.075 13.2178L161 13.8266L158.333 20.1639C156.873 23.6278 153.98 23.2777 151 22.4346C152.427 19.0559 154.045 11.6381 159.075 13.2178Z" fill="#EDEDED" stroke="#D2D2D2"/>
<path d="M153.075 13.2178L155 13.8266L152.333 20.1639C150.873 23.6278 147.98 23.2777 145 22.4346C146.427 19.0559 148.045 11.6381 153.075 13.2178Z" fill="#EDEDED" stroke="#D2D2D2"/>
<path d="M147.075 13.2178L149 13.8266L146.333 20.1639C144.873 23.6278 141.98 23.2777 139 22.4346C140.427 19.0559 142.045 11.6381 147.075 13.2178Z" fill="#EDEDED" stroke="#D2D2D2"/>
<path d="M141.075 13.2178L143 13.8266L140.333 20.1639C138.873 23.6278 135.98 23.2777 133 22.4346C134.427 19.0559 136.045 11.6381 141.075 13.2178Z" fill="#EDEDED" stroke="#D2D2D2"/>
<path d="M135.075 13.2178L137 13.8266L134.333 20.1639C132.873 23.6278 129.98 23.2777 127 22.4346C128.427 19.0559 130.045 11.6381 135.075 13.2178Z" fill="#EDEDED" stroke="#D2D2D2"/>
<path d="M129.075 13.2178L131 13.8266L128.333 20.1639C126.873 23.6278 123.98 23.2777 121 22.4346C122.427 19.0559 124.045 11.6381 129.075 13.2178Z" fill="#EDEDED" stroke="#D2D2D2"/>
<path d="M123.075 13.2178L125 13.8266L122.333 20.1639C120.873 23.6278 117.98 23.2777 115 22.4346C116.427 19.0559 118.045 11.6381 123.075 13.2178Z" fill="#EDEDED" stroke="#D2D2D2"/>
<path d="M117.075 13.2178L119 13.8266L116.333 20.1639C114.873 23.6278 111.98 23.2777 109 22.4346C110.427 19.0559 112.045 11.6381 117.075 13.2178Z" fill="#EDEDED" stroke="#D2D2D2"/>
<path d="M111.075 13.2178L113 13.8266L110.333 20.1639C108.873 23.6278 105.98 23.2777 103 22.4346C104.427 19.0559 106.045 11.6381 111.075 13.2178Z" fill="#EDEDED" stroke="#D2D2D2"/>
<path d="M105.075 13.2178L107 13.8266L104.333 20.1639C102.873 23.6278 99.9797 23.2777 97 22.4346C98.4273 19.0559 100.045 11.6381 105.075 13.2178Z" fill="#EDEDED" stroke="#D2D2D2"/>
<path d="M99.0751 13.2178L101 13.8266L98.3331 20.1639C96.8731 23.6278 93.9797 23.2777 91 22.4346C92.4273 19.0559 94.0453 11.6381 99.0751 13.2178Z" fill="#EDEDED" stroke="#D2D2D2"/>
<path d="M93.0751 13.2178L95 13.8266L92.3331 20.1639C90.8731 23.6278 87.9797 23.2777 85 22.4346C86.4273 19.0559 88.0453 11.6381 93.0751 13.2178Z" fill="#EDEDED" stroke="#D2D2D2"/>
<path d="M87.0751 13.2178L89 13.8266L86.3331 20.1639C84.8731 23.6278 81.9797 23.2777 79 22.4346C80.4273 19.0559 82.0453 11.6381 87.0751 13.2178Z" fill="#EDEDED" stroke="#D2D2D2"/>
<path d="M81.0751 13.2178L83 13.8266L80.3331 20.1639C78.8731 23.6278 75.9797 23.2777 73 22.4346C74.4273 19.0559 76.0453 11.6381 81.0751 13.2178Z" fill="#EDEDED" stroke="#D2D2D2"/>
<path d="M75.0751 13.2178L77 13.8266L74.3331 20.1639C72.8731 23.6278 69.9797 23.2777 67 22.4346C68.4273 19.0559 70.0453 11.6381 75.0751 13.2178Z" fill="#EDEDED" stroke="#D2D2D2"/>
<path d="M69.0751 13.2178L71 13.8266L68.3331 20.1639C66.8731 23.6278 63.9797 23.2777 61 22.4346C62.4273 19.0559 64.0453 11.6381 69.0751 13.2178Z" fill="#EDEDED" stroke="#D2D2D2"/>
<path d="M63.0751 13.2178L65 13.8266L62.3331 20.1639C60.8731 23.6278 57.9797 23.2777 55 22.4346C56.4273 19.0559 58.0453 11.6381 63.0751 13.2178Z" fill="#EDEDED" stroke="#D2D2D2"/>
<path d="M57.0751 13.2178L59 13.8266L56.3331 20.1639C54.8731 23.6278 51.9797 23.2777 49 22.4346C50.4273 19.0559 52.0453 11.6381 57.0751 13.2178Z" fill="#EDEDED" stroke="#D2D2D2"/>
<path d="M51.0751 13.2178L53 13.8266L50.3331 20.1639C48.8731 23.6278 45.9797 23.2777 43 22.4346C44.4273 19.0559 46.0453 11.6381 51.0751 13.2178Z" fill="#EDEDED" stroke="#D2D2D2"/>
<path d="M45.0751 13.2178L47 13.8266L44.3331 20.1639C42.8731 23.6278 39.9797 23.2777 37 22.4346C38.4273 19.0559 40.0453 11.6381 45.0751 13.2178Z" fill="#EDEDED" stroke="#D2D2D2"/>
<path d="M62.4339 20.1483L62.7688 22.1392L69.4156 20.3803C73.049 19.4165 73.105 16.5026 72.6848 13.4345C69.1404 14.3777 61.5695 14.9476 62.4339 20.1483Z" fill="#EDEDED" stroke="#D2D2D2"/>
<path d="M63.2905 14.0533L63.6254 16.0443L70.2722 14.2853C73.9056 13.3215 74.1217 9.65564 72.6617 8.4315C71.2017 7.20735 62.4261 8.85263 63.2905 14.0533Z" fill="#EDEDED" stroke="#D2D2D2"/>
<path d="M71.8953 21.7101L71.5604 19.7191L64.9136 21.4781C61.2802 22.4419 61.0641 26.1078 62.5241 27.3319C63.9842 28.556 72.7597 26.9108 71.8953 21.7101Z" fill="#EDEDED" stroke="#D2D2D2"/>
<path d="M53.011 20.1473L53.346 22.1382L59.9927 20.3792C63.6261 19.4155 63.6822 16.5016 63.2619 13.4335C59.7175 14.3767 52.1466 14.9466 53.011 20.1473Z" fill="#EDEDED" stroke="#D2D2D2"/>
<path d="M53.8676 14.0535L54.2026 16.0444L60.8494 14.2855C64.4828 13.3217 64.6989 9.65583 63.2388 8.43168C61.7788 7.20754 53.0033 8.85281 53.8676 14.0535Z" fill="#EDEDED" stroke="#D2D2D2"/>
<path d="M62.4725 21.7092L62.1375 19.7183L55.4908 21.4772C51.8574 22.441 51.6412 26.1069 53.1013 27.331C54.5613 28.5552 63.3368 26.9099 62.4725 21.7092Z" fill="#EDEDED" stroke="#D2D2D2"/>
<path d="M39.0751 13.2178L41 13.8266L38.3331 20.1639C36.8731 23.6278 33.9797 23.2777 31 22.4346C32.4273 19.0559 34.0453 11.6381 39.0751 13.2178Z" fill="#EDEDED" stroke="#D2D2D2"/>
<path d="M33.0751 13.2178L35 13.8266L32.3331 20.1639C30.8731 23.6278 27.9797 23.2777 25 22.4346C26.4273 19.0559 28.0453 11.6381 33.0751 13.2178Z" fill="#EDEDED" stroke="#D2D2D2"/>
<path d="M27.0751 13.2178L29 13.8266L26.3331 20.1639C24.8731 23.6278 21.9797 23.2777 19 22.4346C20.4273 19.0559 22.0453 11.6381 27.0751 13.2178Z" fill="#EDEDED" stroke="#D2D2D2"/>
<path d="M21.0751 13.2178L23 13.8266L20.3331 20.1639C18.8731 23.6278 15.9797 23.2777 13 22.4346C14.4273 19.0559 16.0453 11.6381 21.0751 13.2178Z" fill="#EDEDED" stroke="#D2D2D2"/>
<path d="M15.0751 13.2178L17 13.8266L14.3331 20.1639C12.8731 23.6278 9.97974 23.2777 7 22.4346C8.42729 19.0559 10.0453 11.6381 15.0751 13.2178Z" fill="#EDEDED" stroke="#D2D2D2"/>
<path d="M9.07508 13.2178L11 13.8266L8.33313 20.1639C6.87306 23.6278 3.97974 23.2777 1 22.4346C2.42729 19.0559 4.04529 11.6381 9.07508 13.2178Z" fill="#EDEDED" stroke="#D2D2D2"/>
</svg>
