<svg width="326" height="24" viewBox="0 0 326 24" fill="none" xmlns="http://www.w3.org/2000/svg">
<g clip-path="url(#clip0_206_22942)">
<path d="M306.925 16.7822L305 16.1734L307.667 9.83614C309.127 6.37224 312.02 6.72225 315 7.5654C313.573 10.9441 311.955 18.3619 306.925 16.7822Z" fill="#EDEDED" stroke="#D2D2D2" stroke-width="1.02564"/>
<path d="M313.484 14.1008C313.781 14.9986 314.165 15.8753 314.534 16.5792C314.902 17.2831 315.218 17.706 315.218 17.706C314.676 17.8973 314.015 17.8827 313.412 17.7066C307.638 16.3545 308.624 9.10048 311.952 7.3873C312.388 7.16301 312.702 7.05679 312.702 7.05679C313.359 8.04301 314.737 9.65421 314.812 10.1945C314.866 10.4755 314.795 10.6694 314.711 10.8957C313.923 11.9715 312.948 12.4821 313.484 14.1008Z" fill="#EDEDED" stroke="#D2D2D2" stroke-width="1.02564"/>
<path d="M319.921 18.3121C318.12 20.5228 315.364 20.4857 312.641 18.3119C309.919 16.138 311.59 11.5831 316.338 10.0949C319.007 11.1385 317.633 17.3372 319.921 18.3121Z" fill="#EDEDED" stroke="#D2D2D2" stroke-width="1.02564"/>
<path d="M311.21 9.3531C310.828 9.39447 310.485 9.43583 310.256 9.4772C310.028 9.55993 309.875 9.55994 309.875 9.55994C309.951 8.69122 310.371 7.86387 310.905 7.16063C313.751 3.66187 317.736 5.49719 319.906 8.69123C320.44 9.47721 320.745 10.3045 320.897 10.9251C320.973 11.2146 321.012 11.5042 321.05 11.6697C321.088 11.8352 321.088 11.9592 321.088 11.9592C317.421 14.1135 315.05 9.14485 311.21 9.3531Z" fill="#EDEDED" stroke="#D2D2D2" stroke-width="1.02564"/>
<path d="M317.942 11.2787C317.942 11.2787 317.942 11.1546 317.9 10.9891C317.858 10.8237 317.816 10.5755 317.732 10.2445C317.563 9.62401 317.185 8.79665 316.637 8.01067C316.09 7.22468 315.332 6.52144 314.7 6.02503C314.069 5.52862 313.605 5.23904 313.605 5.23904C314.153 4.70126 314.869 4.32896 315.669 4.16349C316.469 3.95665 317.395 3.95664 318.321 4.20485C319.206 4.41169 320.09 4.86675 320.764 5.48726C321.437 6.10777 321.9 6.85238 322.111 7.59699C322.111 7.59699 322.153 7.7211 322.195 7.96931C322.237 8.21751 322.321 8.54844 322.364 8.96211C322.448 9.78946 322.406 10.8236 322.153 11.7751C321.9 12.7266 321.395 13.4298 320.932 13.8849C320.721 14.0917 320.511 14.2572 320.385 14.3399C320.258 14.4226 320.174 14.5054 320.174 14.5054C319.164 14.009 318.658 13.9676 318.363 13.5539C318.153 13.0989 318.069 12.3956 317.942 11.2787Z" fill="#EDEDED" stroke="#D2D2D2" stroke-width="1.02564"/>
<path d="M318.768 11.7059C318.768 11.7059 318.836 11.6423 318.92 11.4875C319.017 11.3723 319.21 11.1418 319.31 10.8958C319.63 10.3677 319.894 9.51099 319.854 8.52847C319.867 7.57351 319.549 6.54436 319.223 5.77677C319.061 5.39298 318.882 5.10038 318.768 4.87492C318.655 4.64945 318.578 4.54272 318.578 4.54272C319.355 4.35387 320.247 4.39048 321.143 4.72821C322.028 5.02637 322.917 5.62565 323.573 6.46741C323.922 6.88228 324.189 7.3212 324.389 7.82374C324.502 8.04921 324.576 8.2867 324.649 8.52419C324.723 8.76168 324.756 9.01118 324.789 9.2607C324.855 9.75972 324.816 10.2036 324.778 10.6475C324.686 11.0639 324.555 11.4923 324.358 11.8535C324.358 11.8535 324.262 11.9687 324.162 12.2147C324.05 12.4212 323.829 12.7032 323.58 13.0369C323.07 13.6647 322.318 14.3646 321.465 14.8786C320.612 15.3926 319.79 15.7242 319.146 15.9166C318.823 16.0128 318.529 16.0574 318.368 16.1055C318.195 16.114 318.074 16.15 318.074 16.15C317.57 15.0898 317.353 14.2466 317.464 13.6083C317.562 12.9304 318 12.497 318.768 11.7059Z" fill="#EDEDED" stroke="#D2D2D2" stroke-width="1.02564"/>
<path d="M317.516 12.3631C318.757 12.363 319.958 12.4783 321.202 12.1449C322.17 11.8967 323.097 11.4417 323.77 10.9866C324.107 10.7384 324.402 10.5316 324.57 10.3661C324.739 10.2006 324.865 10.0765 324.865 10.0765C325.244 10.8211 325.328 11.6899 325.244 12.5586C325.118 13.4273 324.823 14.296 324.318 14.9993C321.827 18.5679 317.982 17.2551 316.079 15.4344C315.241 13.9718 315.893 12.7575 317.516 12.3631Z" fill="#EDEDED" stroke="#D2D2D2" stroke-width="1.02564"/>
<path d="M323.735 16.1933C322.763 19.63 317.66 20.1092 315.897 17.2887C314.134 14.4682 316.25 12.3528 317.059 12.3538C317.728 15.8803 319.423 17.2882 323.735 16.1933Z" fill="#EDEDED" stroke="#D2D2D2" stroke-width="1.02564"/>
<path d="M307.075 7.21781L309 7.82658L306.333 14.1639C304.873 17.6278 301.98 17.2777 299 16.4346C300.427 13.0559 302.045 5.63805 307.075 7.21781Z" fill="#EDEDED" stroke="#D2D2D2"/>
<path d="M301.075 7.21781L303 7.82658L300.333 14.1639C298.873 17.6278 295.98 17.2777 293 16.4346C294.427 13.0559 296.045 5.63805 301.075 7.21781Z" fill="#EDEDED" stroke="#D2D2D2"/>
<path d="M295.075 7.21781L297 7.82658L294.333 14.1639C292.873 17.6278 289.98 17.2777 287 16.4346C288.427 13.0559 290.045 5.63805 295.075 7.21781Z" fill="#EDEDED" stroke="#D2D2D2"/>
<path d="M289.075 7.21781L291 7.82658L288.333 14.1639C286.873 17.6278 283.98 17.2777 281 16.4346C282.427 13.0559 284.045 5.63805 289.075 7.21781Z" fill="#EDEDED" stroke="#D2D2D2"/>
<path d="M283.075 7.21781L285 7.82658L282.333 14.1639C280.873 17.6278 277.98 17.2777 275 16.4346C276.427 13.0559 278.045 5.63805 283.075 7.21781Z" fill="#EDEDED" stroke="#D2D2D2"/>
<path d="M277.075 7.21781L279 7.82658L276.333 14.1639C274.873 17.6278 271.98 17.2777 269 16.4346C270.427 13.0559 272.045 5.63805 277.075 7.21781Z" fill="#EDEDED" stroke="#D2D2D2"/>
<path d="M271.075 7.21781L273 7.82658L270.333 14.1639C268.873 17.6278 265.98 17.2777 263 16.4346C264.427 13.0559 266.045 5.63805 271.075 7.21781Z" fill="#EDEDED" stroke="#D2D2D2"/>
<path d="M265.075 7.21781L267 7.82658L264.333 14.1639C262.873 17.6278 259.98 17.2777 257 16.4346C258.427 13.0559 260.045 5.63805 265.075 7.21781Z" fill="#EDEDED" stroke="#D2D2D2"/>
<path d="M259.075 7.21781L261 7.82658L258.333 14.1639C256.873 17.6278 253.98 17.2777 251 16.4346C252.427 13.0559 254.045 5.63805 259.075 7.21781Z" fill="#EDEDED" stroke="#D2D2D2"/>
<path d="M253.075 7.21781L255 7.82658L252.333 14.1639C250.873 17.6278 247.98 17.2777 245 16.4346C246.427 13.0559 248.045 5.63805 253.075 7.21781Z" fill="#EDEDED" stroke="#D2D2D2"/>
<path d="M247.075 7.21781L249 7.82658L246.333 14.1639C244.873 17.6278 241.98 17.2777 239 16.4346C240.427 13.0559 242.045 5.63805 247.075 7.21781Z" fill="#EDEDED" stroke="#D2D2D2"/>
<path d="M241.075 7.21781L243 7.82658L240.333 14.1639C238.873 17.6278 235.98 17.2777 233 16.4346C234.427 13.0559 236.045 5.63805 241.075 7.21781Z" fill="#EDEDED" stroke="#D2D2D2"/>
<path d="M235.075 7.21781L237 7.82658L234.333 14.1639C232.873 17.6278 229.98 17.2777 227 16.4346C228.427 13.0559 230.045 5.63805 235.075 7.21781Z" fill="#EDEDED" stroke="#D2D2D2"/>
<path d="M229.075 7.21781L231 7.82658L228.333 14.1639C226.873 17.6278 223.98 17.2777 221 16.4346C222.427 13.0559 224.045 5.63805 229.075 7.21781Z" fill="#EDEDED" stroke="#D2D2D2"/>
<path d="M174.925 16.7822L173 16.1734L175.667 9.83614C177.127 6.37223 180.02 6.72225 183 7.5654C181.573 10.9441 179.955 18.3619 174.925 16.7822Z" fill="#EDEDED" stroke="#D2D2D2"/>
<path d="M180.925 16.7822L179 16.1734L181.667 9.83614C183.127 6.37223 186.02 6.72225 189 7.5654C187.573 10.9441 185.955 18.3619 180.925 16.7822Z" fill="#EDEDED" stroke="#D2D2D2"/>
<path d="M186.925 16.7822L185 16.1734L187.667 9.83614C189.127 6.37223 192.02 6.72225 195 7.5654C193.573 10.9441 191.955 18.3619 186.925 16.7822Z" fill="#EDEDED" stroke="#D2D2D2"/>
<path d="M192.925 16.7822L191 16.1734L193.667 9.83614C195.127 6.37223 198.02 6.72225 201 7.5654C199.573 10.9441 197.955 18.3619 192.925 16.7822Z" fill="#EDEDED" stroke="#D2D2D2"/>
<path d="M198.925 16.7822L197 16.1734L199.667 9.83614C201.127 6.37223 204.02 6.72225 207 7.5654C205.573 10.9441 203.955 18.3619 198.925 16.7822Z" fill="#EDEDED" stroke="#D2D2D2"/>
<path d="M204.925 16.7822L203 16.1734L205.667 9.83614C207.127 6.37223 210.02 6.72225 213 7.5654C211.573 10.9441 209.955 18.3619 204.925 16.7822Z" fill="#EDEDED" stroke="#D2D2D2"/>
<path d="M210.925 16.7822L209 16.1734L211.667 9.83614C213.127 6.37223 216.02 6.72225 219 7.5654C217.573 10.9441 215.955 18.3619 210.925 16.7822Z" fill="#EDEDED" stroke="#D2D2D2"/>
<path d="M216.925 16.7822L215 16.1734L217.667 9.83614C219.127 6.37223 222.02 6.72225 225 7.5654C223.573 10.9441 221.955 18.3619 216.925 16.7822Z" fill="#EDEDED" stroke="#D2D2D2"/>
<path d="M194.854 9.85175L194.519 7.86084L187.872 9.61978C184.239 10.5836 184.183 13.4974 184.603 16.5655C188.148 15.6223 195.719 15.0525 194.854 9.85175Z" fill="#EDEDED" stroke="#D2D2D2"/>
<path d="M193.999 15.9465L193.664 13.9556L187.017 15.7145C183.383 16.6783 183.167 20.3442 184.627 21.5683C186.087 22.7925 194.863 21.1472 193.999 15.9465Z" fill="#EDEDED" stroke="#D2D2D2"/>
<path d="M185.394 8.28982L185.729 10.2807L192.375 8.52179C196.009 7.55801 196.225 3.89212 194.765 2.66798C193.305 1.44384 184.529 3.08911 185.394 8.28982Z" fill="#EDEDED" stroke="#D2D2D2"/>
<path d="M204.278 9.85272L203.943 7.86182L197.296 9.62075C193.663 10.5845 193.607 13.4984 194.027 16.5665C197.572 15.6233 205.142 15.0534 204.278 9.85272Z" fill="#EDEDED" stroke="#D2D2D2"/>
<path d="M203.422 15.9465L203.087 13.9556L196.441 15.7145C192.807 16.6783 192.591 20.3442 194.051 21.5683C195.511 22.7925 204.287 21.1472 203.422 15.9465Z" fill="#EDEDED" stroke="#D2D2D2"/>
<path d="M194.818 8.2908L195.153 10.2817L201.799 8.52277C205.433 7.55899 205.649 3.8931 204.189 2.66896C202.729 1.44481 193.953 3.09009 194.818 8.2908Z" fill="#EDEDED" stroke="#D2D2D2"/>
<path d="M213.702 9.85272L213.367 7.86182L206.72 9.62075C203.087 10.5845 203.031 13.4984 203.451 16.5665C206.995 15.6233 214.566 15.0534 213.702 9.85272Z" fill="#EDEDED" stroke="#D2D2D2"/>
<path d="M212.844 15.9465L212.509 13.9556L205.863 15.7145C202.229 16.6783 202.013 20.3442 203.473 21.5683C204.933 22.7925 213.709 21.1472 212.844 15.9465Z" fill="#EDEDED" stroke="#D2D2D2"/>
<path d="M204.239 8.2908L204.574 10.2817L211.221 8.52277C214.855 7.55899 215.071 3.8931 213.611 2.66896C212.151 1.44481 203.375 3.09009 204.239 8.2908Z" fill="#EDEDED" stroke="#D2D2D2"/>
<path d="M175.075 7.21781L177 7.82658L174.333 14.1639C172.873 17.6278 169.98 17.2777 167 16.4346C168.427 13.0559 170.045 5.63805 175.075 7.21781Z" fill="#EDEDED" stroke="#D2D2D2"/>
<path d="M169.075 7.21781L171 7.82658L168.333 14.1639C166.873 17.6278 163.98 17.2777 161 16.4346C162.427 13.0559 164.045 5.63805 169.075 7.21781Z" fill="#EDEDED" stroke="#D2D2D2"/>
<path d="M163.075 7.21781L165 7.82658L162.333 14.1639C160.873 17.6278 157.98 17.2777 155 16.4346C156.427 13.0559 158.045 5.63805 163.075 7.21781Z" fill="#EDEDED" stroke="#D2D2D2"/>
<path d="M157.075 7.21781L159 7.82658L156.333 14.1639C154.873 17.6278 151.98 17.2777 149 16.4346C150.427 13.0559 152.045 5.63805 157.075 7.21781Z" fill="#EDEDED" stroke="#D2D2D2"/>
<path d="M151.075 7.21781L153 7.82658L150.333 14.1639C148.873 17.6278 145.98 17.2777 143 16.4346C144.427 13.0559 146.045 5.63805 151.075 7.21781Z" fill="#EDEDED" stroke="#D2D2D2"/>
<path d="M145.075 7.21781L147 7.82658L144.333 14.1639C142.873 17.6278 139.98 17.2777 137 16.4346C138.427 13.0559 140.045 5.63805 145.075 7.21781Z" fill="#EDEDED" stroke="#D2D2D2"/>
<path d="M139.075 7.21781L141 7.82658L138.333 14.1639C136.873 17.6278 133.98 17.2777 131 16.4346C132.427 13.0559 134.045 5.63805 139.075 7.21781Z" fill="#EDEDED" stroke="#D2D2D2"/>
<path d="M133.075 7.21781L135 7.82658L132.333 14.1639C130.873 17.6278 127.98 17.2777 125 16.4346C126.427 13.0559 128.045 5.63805 133.075 7.21781Z" fill="#EDEDED" stroke="#D2D2D2"/>
<path d="M127.075 7.21781L129 7.82658L126.333 14.1639C124.873 17.6278 121.98 17.2777 119 16.4346C120.427 13.0559 122.045 5.63805 127.075 7.21781Z" fill="#EDEDED" stroke="#D2D2D2"/>
<path d="M121.075 7.21781L123 7.82658L120.333 14.1639C118.873 17.6278 115.98 17.2777 113 16.4346C114.427 13.0559 116.045 5.63805 121.075 7.21781Z" fill="#EDEDED" stroke="#D2D2D2"/>
<path d="M115.075 7.21781L117 7.82658L114.333 14.1639C112.873 17.6278 109.98 17.2777 107 16.4346C108.427 13.0559 110.045 5.63805 115.075 7.21781Z" fill="#EDEDED" stroke="#D2D2D2"/>
<path d="M109.075 7.21781L111 7.82658L108.333 14.1639C106.873 17.6278 103.98 17.2777 101 16.4346C102.427 13.0559 104.045 5.63805 109.075 7.21781Z" fill="#EDEDED" stroke="#D2D2D2"/>
<path d="M103.075 7.21781L105 7.82658L102.333 14.1639C100.873 17.6278 97.9797 17.2777 95 16.4346C96.4273 13.0559 98.0453 5.63805 103.075 7.21781Z" fill="#EDEDED" stroke="#D2D2D2"/>
<path d="M97.0751 7.21781L99 7.82658L96.3331 14.1639C94.8731 17.6278 91.9797 17.2777 89 16.4346C90.4273 13.0559 92.0453 5.63805 97.0751 7.21781Z" fill="#EDEDED" stroke="#D2D2D2"/>
<path d="M91.0751 7.21781L93 7.82658L90.3331 14.1639C88.8731 17.6278 85.9797 17.2777 83 16.4346C84.4273 13.0559 86.0453 5.63805 91.0751 7.21781Z" fill="#EDEDED" stroke="#D2D2D2"/>
<path d="M85.0751 7.21781L87 7.82658L84.3331 14.1639C82.8731 17.6278 79.9797 17.2777 77 16.4346C78.4273 13.0559 80.0453 5.63805 85.0751 7.21781Z" fill="#EDEDED" stroke="#D2D2D2"/>
<path d="M79.0751 7.21781L81 7.82658L78.3331 14.1639C76.8731 17.6278 73.9797 17.2777 71 16.4346C72.4273 13.0559 74.0453 5.63805 79.0751 7.21781Z" fill="#EDEDED" stroke="#D2D2D2"/>
<path d="M73.0751 7.21781L75 7.82658L72.3331 14.1639C70.8731 17.6278 67.9797 17.2777 65 16.4346C66.4273 13.0559 68.0453 5.63805 73.0751 7.21781Z" fill="#EDEDED" stroke="#D2D2D2"/>
<path d="M67.0751 7.21781L69 7.82658L66.3331 14.1639C64.8731 17.6278 61.9797 17.2777 59 16.4346C60.4273 13.0559 62.0453 5.63805 67.0751 7.21781Z" fill="#EDEDED" stroke="#D2D2D2"/>
<path d="M61.0751 7.21781L63 7.82658L60.3331 14.1639C58.8731 17.6278 55.9797 17.2777 53 16.4346C54.4273 13.0559 56.0453 5.63805 61.0751 7.21781Z" fill="#EDEDED" stroke="#D2D2D2"/>
<path d="M55.0751 7.21781L57 7.82658L54.3331 14.1639C52.8731 17.6278 49.9797 17.2777 47 16.4346C48.4273 13.0559 50.0453 5.63805 55.0751 7.21781Z" fill="#EDEDED" stroke="#D2D2D2"/>
<path d="M49.0751 7.21781L51 7.82658L48.3331 14.1639C46.8731 17.6278 43.9797 17.2777 41 16.4346C42.4273 13.0559 44.0453 5.63805 49.0751 7.21781Z" fill="#EDEDED" stroke="#D2D2D2"/>
<path d="M43.0751 7.21781L45 7.82658L42.3331 14.1639C40.8731 17.6278 37.9797 17.2777 35 16.4346C36.4273 13.0559 38.0453 5.63805 43.0751 7.21781Z" fill="#EDEDED" stroke="#D2D2D2"/>
<path d="M60.4329 14.1483L60.7678 16.1392L67.4146 14.3802C71.048 13.4164 71.1041 10.5026 70.6838 7.43448C67.1394 8.37767 59.5685 8.94754 60.4329 14.1483Z" fill="#EDEDED" stroke="#D2D2D2"/>
<path d="M61.2885 8.05352L61.6235 10.0444L68.2703 8.28549C71.9037 7.32171 72.1198 3.65583 70.6597 2.43168C69.1997 1.20754 60.4242 2.85281 61.2885 8.05352Z" fill="#EDEDED" stroke="#D2D2D2"/>
<path d="M69.8934 15.7102L69.5584 13.7193L62.9116 15.4782C59.2783 16.442 59.0621 20.1079 60.5222 21.332C61.9822 22.5562 70.7577 20.9109 69.8934 15.7102Z" fill="#EDEDED" stroke="#D2D2D2"/>
<path d="M51.0071 14.1473L51.3421 16.1382L57.9888 14.3792C61.6222 13.4155 61.6783 10.5016 61.258 7.43351C57.7136 8.37669 50.1427 8.94657 51.0071 14.1473Z" fill="#EDEDED" stroke="#D2D2D2"/>
<path d="M51.8647 8.05352L52.1997 10.0444L58.8464 8.28549C62.4798 7.32171 62.696 3.65583 61.2359 2.43168C59.7759 1.20754 51.0003 2.85281 51.8647 8.05352Z" fill="#EDEDED" stroke="#D2D2D2"/>
<path d="M60.4695 15.7092L60.1346 13.7183L53.4878 15.4772C49.8544 16.441 49.6383 20.1069 51.0983 21.331C52.5584 22.5552 61.3339 20.9099 60.4695 15.7092Z" fill="#EDEDED" stroke="#D2D2D2"/>
<path d="M37.0751 7.21781L39 7.82658L36.3331 14.1639C34.8731 17.6278 31.9797 17.2777 29 16.4346C30.4273 13.0559 32.0453 5.63805 37.0751 7.21781Z" fill="#EDEDED" stroke="#D2D2D2"/>
<path d="M31.0751 7.21781L33 7.82658L30.3331 14.1639C28.8731 17.6278 25.9797 17.2777 23 16.4346C24.4273 13.0559 26.0453 5.63805 31.0751 7.21781Z" fill="#EDEDED" stroke="#D2D2D2"/>
<path d="M25.0751 7.21781L27 7.82658L24.3331 14.1639C22.8731 17.6278 19.9797 17.2777 17 16.4346C18.4273 13.0559 20.0453 5.63805 25.0751 7.21781Z" fill="#EDEDED" stroke="#D2D2D2"/>
<path d="M19.0751 7.21781L21 7.82658L18.3331 14.1639C16.8731 17.6278 13.9797 17.2777 11 16.4346C12.4273 13.0559 14.0453 5.63805 19.0751 7.21781Z" fill="#EDEDED" stroke="#D2D2D2" stroke-width="1.02564"/>
<path d="M12.5162 9.89919C12.2188 9.00137 11.8352 8.12466 11.4664 7.42079C11.0976 6.71691 10.7823 6.29405 10.7823 6.29405C11.3236 6.10275 11.9854 6.11728 12.5877 6.29342C18.3619 7.64547 17.3762 14.8995 14.0478 16.6127C13.6121 16.837 13.2983 16.9432 13.2983 16.9432C12.641 15.957 11.2635 14.3458 11.1876 13.8055C11.1341 13.5245 11.2055 13.3306 11.2888 13.1043C12.0774 12.0285 13.0524 11.5179 12.5162 9.89919Z" fill="#EDEDED" stroke="#D2D2D2" stroke-width="1.02564"/>
<path d="M6.07919 5.68793C7.88023 3.47721 10.6362 3.51429 13.3587 5.68813C16.0813 7.86196 14.4096 12.4169 9.66198 13.9051C6.99334 12.8615 8.36743 6.66279 6.07919 5.68793Z" fill="#EDEDED" stroke="#D2D2D2" stroke-width="1.02564"/>
<path d="M14.7901 14.6469C15.1715 14.6055 15.5148 14.5642 15.7436 14.5228C15.9724 14.4401 16.125 14.4401 16.125 14.4401C16.0487 15.3088 15.6292 16.1361 15.0953 16.8394C12.2491 20.3381 8.26426 18.5028 6.09444 15.3088C5.56049 14.5228 5.25539 13.6955 5.10283 13.0749C5.02655 12.7854 4.9884 12.4958 4.95026 12.3303C4.91213 12.1648 4.91214 12.0408 4.91214 12.0408C8.57884 9.88649 10.9501 14.8552 14.7901 14.6469Z" fill="#EDEDED" stroke="#D2D2D2" stroke-width="1.02564"/>
<path d="M8.05759 12.7213C8.05759 12.7213 8.05758 12.8454 8.09969 13.0109C8.1418 13.1763 8.18391 13.4245 8.26813 13.7555C8.43655 14.376 8.8155 15.2034 9.36288 15.9893C9.91026 16.7753 10.6682 17.4786 11.2998 17.975C11.9313 18.4714 12.3945 18.761 12.3945 18.761C11.8472 19.2987 11.1313 19.671 10.3313 19.8365C9.5313 20.0433 8.60497 20.0434 7.67863 19.7952C6.7944 19.5883 5.91017 19.1333 5.23647 18.5127C4.56277 17.8922 4.0996 17.1476 3.88907 16.403C3.88907 16.403 3.84696 16.2789 3.80485 16.0307C3.76274 15.7825 3.67855 15.4516 3.63644 15.0379C3.55223 14.2105 3.59433 13.1764 3.84697 12.2249C4.09961 11.2734 4.60487 10.5702 5.06804 10.1151C5.27857 9.9083 5.48909 9.74284 5.61541 9.66011C5.74173 9.57737 5.82594 9.49463 5.82594 9.49463C6.83649 9.99104 7.34179 10.0324 7.63653 10.4461C7.84706 10.9011 7.93128 11.6044 8.05759 12.7213Z" fill="#EDEDED" stroke="#D2D2D2" stroke-width="1.02564"/>
<path d="M7.23201 12.2941C7.23201 12.2941 7.16368 12.3577 7.07952 12.5125C6.98313 12.6277 6.79035 12.8582 6.69039 13.1042C6.36959 13.6323 6.10638 14.489 6.14611 15.4715C6.13332 16.4265 6.4515 17.4556 6.77682 18.2232C6.93949 18.607 7.11797 18.8996 7.23168 19.1251C7.3454 19.3506 7.42241 19.4573 7.42241 19.4573C6.64468 19.6461 5.75322 19.6095 4.8567 19.2718C3.97241 18.9736 3.08307 18.3743 2.42677 17.5326C2.07848 17.1177 1.81075 16.6788 1.61138 16.1763C1.49766 15.9508 1.42425 15.7133 1.35083 15.4758C1.2774 15.2383 1.24425 14.9888 1.21111 14.7393C1.14484 14.2403 1.18362 13.7964 1.2224 13.3525C1.3137 12.9361 1.44532 12.5077 1.64167 12.1465C1.64167 12.1465 1.73804 12.0313 1.83801 11.7853C1.95022 11.5788 2.17106 11.2968 2.41994 10.9631C2.92995 10.3353 3.68168 9.63543 4.5349 9.12142C5.38811 8.6074 6.2097 8.27576 6.85432 8.0834C7.17663 7.98722 7.47089 7.94263 7.63205 7.89454C7.80544 7.88603 7.92632 7.84997 7.92632 7.84997C8.43012 8.91017 8.64681 9.75341 8.53611 10.3917C8.43765 11.0696 7.99957 11.503 7.23201 12.2941Z" fill="#EDEDED" stroke="#D2D2D2" stroke-width="1.02564"/>
<path d="M8.48416 11.6369C7.24277 11.637 6.04237 11.5217 4.79816 11.8551C3.82971 12.1033 2.90339 12.5583 2.22969 13.0134C1.89284 13.2616 1.59809 13.4684 1.42966 13.6339C1.26124 13.7994 1.13494 13.9235 1.13494 13.9235C0.755982 13.1789 0.67176 12.3101 0.755972 11.4414C0.882291 10.5727 1.17701 9.70398 1.68229 9.00073C4.17307 5.43207 8.01816 6.74488 9.92142 8.56555C10.7591 10.0282 10.1067 11.2425 8.48416 11.6369Z" fill="#EDEDED" stroke="#D2D2D2" stroke-width="1.02564"/>
<path d="M2.26497 7.80666C3.23666 4.36995 8.33961 3.89084 10.1026 6.71131C11.8656 9.53178 9.75019 11.6472 8.9414 11.6462C8.27234 8.11967 6.57686 6.71181 2.26497 7.80666Z" fill="#EDEDED" stroke="#D2D2D2" stroke-width="1.02564"/>
</g>
<defs>
<clipPath id="clip0_206_22942">
<rect width="326" height="24" fill="white"/>
</clipPath>
</defs>
</svg>
