<svg width="498" height="36" viewBox="0 0 498 36" fill="none" xmlns="http://www.w3.org/2000/svg">
<path d="M9.07508 13.2178L11 13.8266L8.33313 20.1639C6.87306 23.6278 3.97974 23.2777 1 22.4346C2.42729 19.0559 4.04529 11.6381 9.07508 13.2178Z" fill="#EDEDED" stroke="#D2D2D2"/>
<path d="M15.0751 13.2178L17 13.8266L14.3331 20.1639C12.8731 23.6278 9.97974 23.2777 7 22.4346C8.42729 19.0559 10.0453 11.6381 15.0751 13.2178Z" fill="#EDEDED" stroke="#D2D2D2"/>
<path d="M21.0751 13.2178L23 13.8266L20.3331 20.1639C18.8731 23.6278 15.9797 23.2777 13 22.4346C14.4273 19.0559 16.0453 11.6381 21.0751 13.2178Z" fill="#EDEDED" stroke="#D2D2D2"/>
<path d="M27.0751 13.2178L29 13.8266L26.3331 20.1639C24.8731 23.6278 21.9797 23.2777 19 22.4346C20.4273 19.0559 22.0453 11.6381 27.0751 13.2178Z" fill="#EDEDED" stroke="#D2D2D2"/>
<path d="M33.0751 13.2178L35 13.8266L32.3331 20.1639C30.8731 23.6278 27.9797 23.2777 25 22.4346C26.4273 19.0559 28.0453 11.6381 33.0751 13.2178Z" fill="#EDEDED" stroke="#D2D2D2"/>
<path d="M39.0751 13.2178L41 13.8266L38.3331 20.1639C36.8731 23.6278 33.9797 23.2777 31 22.4346C32.4273 19.0559 34.0453 11.6381 39.0751 13.2178Z" fill="#EDEDED" stroke="#D2D2D2"/>
<path d="M45.0751 13.2178L47 13.8266L44.3331 20.1639C42.8731 23.6278 39.9797 23.2777 37 22.4346C38.4273 19.0559 40.0453 11.6381 45.0751 13.2178Z" fill="#EDEDED" stroke="#D2D2D2"/>
<path d="M51.0751 13.2178L53 13.8266L50.3331 20.1639C48.8731 23.6278 45.9797 23.2777 43 22.4346C44.4273 19.0559 46.0453 11.6381 51.0751 13.2178Z" fill="#EDEDED" stroke="#D2D2D2"/>
<path d="M57.0751 13.2178L59 13.8266L56.3331 20.1639C54.8731 23.6278 51.9797 23.2777 49 22.4346C50.4273 19.0559 52.0453 11.6381 57.0751 13.2178Z" fill="#EDEDED" stroke="#D2D2D2"/>
<path d="M63.0751 13.2178L65 13.8266L62.3331 20.1639C60.8731 23.6278 57.9797 23.2777 55 22.4346C56.4273 19.0559 58.0453 11.6381 63.0751 13.2178Z" fill="#EDEDED" stroke="#D2D2D2"/>
<path d="M69.0751 13.2178L71 13.8266L68.3331 20.1639C66.8731 23.6278 63.9797 23.2777 61 22.4346C62.4273 19.0559 64.0453 11.6381 69.0751 13.2178Z" fill="#EDEDED" stroke="#D2D2D2"/>
<path d="M75.0751 13.2178L77 13.8266L74.3331 20.1639C72.8731 23.6278 69.9797 23.2777 67 22.4346C68.4273 19.0559 70.0453 11.6381 75.0751 13.2178Z" fill="#EDEDED" stroke="#D2D2D2"/>
<path d="M81.0751 13.2178L83 13.8266L80.3331 20.1639C78.8731 23.6278 75.9797 23.2777 73 22.4346C74.4273 19.0559 76.0453 11.6381 81.0751 13.2178Z" fill="#EDEDED" stroke="#D2D2D2"/>
<path d="M87.0751 13.2178L89 13.8266L86.3331 20.1639C84.8731 23.6278 81.9797 23.2777 79 22.4346C80.4273 19.0559 82.0453 11.6381 87.0751 13.2178Z" fill="#EDEDED" stroke="#D2D2D2"/>
<path d="M93.0751 13.2178L95 13.8266L92.3331 20.1639C90.8731 23.6278 87.9797 23.2777 85 22.4346C86.4273 19.0559 88.0453 11.6381 93.0751 13.2178Z" fill="#EDEDED" stroke="#D2D2D2"/>
<path d="M99.0751 13.2178L101 13.8266L98.3331 20.1639C96.8731 23.6278 93.9797 23.2777 91 22.4346C92.4273 19.0559 94.0453 11.6381 99.0751 13.2178Z" fill="#EDEDED" stroke="#D2D2D2"/>
<path d="M105.075 13.2178L107 13.8266L104.333 20.1639C102.873 23.6278 99.9797 23.2777 97 22.4346C98.4273 19.0559 100.045 11.6381 105.075 13.2178Z" fill="#EDEDED" stroke="#D2D2D2"/>
<path d="M111.075 13.2178L113 13.8266L110.333 20.1639C108.873 23.6278 105.98 23.2777 103 22.4346C104.427 19.0559 106.045 11.6381 111.075 13.2178Z" fill="#EDEDED" stroke="#D2D2D2"/>
<path d="M117.075 13.2178L119 13.8266L116.333 20.1639C114.873 23.6278 111.98 23.2777 109 22.4346C110.427 19.0559 112.045 11.6381 117.075 13.2178Z" fill="#EDEDED" stroke="#D2D2D2"/>
<path d="M123.075 13.2178L125 13.8266L122.333 20.1639C120.873 23.6278 117.98 23.2777 115 22.4346C116.427 19.0559 118.045 11.6381 123.075 13.2178Z" fill="#EDEDED" stroke="#D2D2D2"/>
<path d="M129.075 13.2178L131 13.8266L128.333 20.1639C126.873 23.6278 123.98 23.2777 121 22.4346C122.427 19.0559 124.045 11.6381 129.075 13.2178Z" fill="#EDEDED" stroke="#D2D2D2"/>
<path d="M135.075 13.2178L137 13.8266L134.333 20.1639C132.873 23.6278 129.98 23.2777 127 22.4346C128.427 19.0559 130.045 11.6381 135.075 13.2178Z" fill="#EDEDED" stroke="#D2D2D2"/>
<path d="M141.075 13.2178L143 13.8266L140.333 20.1639C138.873 23.6278 135.98 23.2777 133 22.4346C134.427 19.0559 136.045 11.6381 141.075 13.2178Z" fill="#EDEDED" stroke="#D2D2D2"/>
<path d="M147.075 13.2178L149 13.8266L146.333 20.1639C144.873 23.6278 141.98 23.2777 139 22.4346C140.427 19.0559 142.045 11.6381 147.075 13.2178Z" fill="#EDEDED" stroke="#D2D2D2"/>
<path d="M153.075 13.2178L155 13.8266L152.333 20.1639C150.873 23.6278 147.98 23.2777 145 22.4346C146.427 19.0559 148.045 11.6381 153.075 13.2178Z" fill="#EDEDED" stroke="#D2D2D2"/>
<path d="M159.075 13.2178L161 13.8266L158.333 20.1639C156.873 23.6278 153.98 23.2777 151 22.4346C152.427 19.0559 154.045 11.6381 159.075 13.2178Z" fill="#EDEDED" stroke="#D2D2D2"/>
<path d="M165.075 13.2178L167 13.8266L164.333 20.1639C162.873 23.6278 159.98 23.2777 157 22.4346C158.427 19.0559 160.045 11.6381 165.075 13.2178Z" fill="#EDEDED" stroke="#D2D2D2"/>
<path d="M171.075 13.2178L173 13.8266L170.333 20.1639C168.873 23.6278 165.98 23.2777 163 22.4346C164.427 19.0559 166.045 11.6381 171.075 13.2178Z" fill="#EDEDED" stroke="#D2D2D2"/>
<path d="M177.075 13.2178L179 13.8266L176.333 20.1639C174.873 23.6278 171.98 23.2777 169 22.4346C170.427 19.0559 172.045 11.6381 177.075 13.2178Z" fill="#EDEDED" stroke="#D2D2D2"/>
<path d="M183.075 13.2178L185 13.8266L182.333 20.1639C180.873 23.6278 177.98 23.2777 175 22.4346C176.427 19.0559 178.045 11.6381 183.075 13.2178Z" fill="#EDEDED" stroke="#D2D2D2"/>
<path d="M231.075 13.2178L233 13.8266L230.333 20.1639C228.873 23.6278 225.98 23.2777 223 22.4346C224.427 19.0559 226.045 11.6381 231.075 13.2178Z" fill="#EDEDED" stroke="#D2D2D2"/>
<path d="M225.075 13.2178L227 13.8266L224.333 20.1639C222.873 23.6278 219.98 23.2777 217 22.4346C218.427 19.0559 220.045 11.6381 225.075 13.2178Z" fill="#EDEDED" stroke="#D2D2D2"/>
<path d="M219.075 13.2178L221 13.8266L218.333 20.1639C216.873 23.6278 213.98 23.2777 211 22.4346C212.427 19.0559 214.045 11.6381 219.075 13.2178Z" fill="#EDEDED" stroke="#D2D2D2"/>
<path d="M213.075 13.2178L215 13.8266L212.333 20.1639C210.873 23.6278 207.98 23.2777 205 22.4346C206.427 19.0559 208.045 11.6381 213.075 13.2178Z" fill="#EDEDED" stroke="#D2D2D2"/>
<path d="M207.075 13.2178L209 13.8266L206.333 20.1639C204.873 23.6278 201.98 23.2777 199 22.4346C200.427 19.0559 202.045 11.6381 207.075 13.2178Z" fill="#EDEDED" stroke="#D2D2D2"/>
<path d="M201.075 13.2178L203 13.8266L200.333 20.1639C198.873 23.6278 195.98 23.2777 193 22.4346C194.427 19.0559 196.045 11.6381 201.075 13.2178Z" fill="#EDEDED" stroke="#D2D2D2"/>
<path d="M195.075 13.2178L197 13.8266L194.333 20.1639C192.873 23.6278 189.98 23.2777 187 22.4346C188.427 19.0559 190.045 11.6381 195.075 13.2178Z" fill="#EDEDED" stroke="#D2D2D2"/>
<path d="M189.075 13.2178L191 13.8266L188.333 20.1639C186.873 23.6278 183.98 23.2777 181 22.4346C182.427 19.0559 184.045 11.6381 189.075 13.2178Z" fill="#EDEDED" stroke="#D2D2D2"/>
<path d="M215.857 20.1483L216.192 22.1392L222.838 20.3802C226.472 19.4164 226.528 16.5026 226.108 13.4345C222.563 14.3777 214.992 14.9475 215.857 20.1483Z" fill="#EDEDED" stroke="#D2D2D2"/>
<path d="M216.713 14.0533L217.048 16.0443L223.695 14.2853C227.328 13.3215 227.545 9.65564 226.085 8.4315C224.625 7.20735 215.849 8.85263 216.713 14.0533Z" fill="#EDEDED" stroke="#D2D2D2"/>
<path d="M225.318 21.7101L224.983 19.7191L218.336 21.4781C214.703 22.4419 214.487 26.1078 215.947 27.3319C217.407 28.556 226.183 26.9108 225.318 21.7101Z" fill="#EDEDED" stroke="#D2D2D2"/>
<path d="M206.435 20.1463L206.77 22.1372L213.417 20.3783C217.05 19.4145 217.106 16.5006 216.686 13.4325C213.141 14.3757 205.57 14.9456 206.435 20.1463Z" fill="#EDEDED" stroke="#D2D2D2"/>
<path d="M207.29 14.0514L207.625 16.0423L214.272 14.2834C217.906 13.3196 218.122 9.65369 216.662 8.42955C215.202 7.2054 206.426 8.85068 207.29 14.0514Z" fill="#EDEDED" stroke="#D2D2D2"/>
<path d="M215.895 21.7101L215.56 19.7191L208.914 21.4781C205.28 22.4419 205.064 26.1078 206.524 27.3319C207.984 28.556 216.76 26.9108 215.895 21.7101Z" fill="#EDEDED" stroke="#D2D2D2"/>
<path d="M197.011 20.1473L197.346 22.1382L203.993 20.3792C207.626 19.4155 207.682 16.5016 207.262 13.4335C203.718 14.3767 196.147 14.9466 197.011 20.1473Z" fill="#EDEDED" stroke="#D2D2D2"/>
<path d="M197.868 14.0535L198.203 16.0444L204.849 14.2855C208.483 13.3217 208.699 9.65583 207.239 8.43168C205.779 7.20754 197.003 8.85281 197.868 14.0535Z" fill="#EDEDED" stroke="#D2D2D2"/>
<path d="M206.472 21.7092L206.138 19.7183L199.491 21.4772C195.857 22.441 195.641 26.1069 197.101 27.331C198.561 28.5552 207.337 26.9099 206.472 21.7092Z" fill="#EDEDED" stroke="#D2D2D2"/>
<path d="M187.587 20.1473L187.922 22.1382L194.569 20.3792C198.202 19.4155 198.258 16.5016 197.838 13.4335C194.294 14.3767 186.723 14.9466 187.587 20.1473Z" fill="#EDEDED" stroke="#D2D2D2"/>
<path d="M188.444 14.0535L188.779 16.0444L195.426 14.2855C199.059 13.3217 199.275 9.65583 197.815 8.43168C196.355 7.20754 187.579 8.85281 188.444 14.0535Z" fill="#EDEDED" stroke="#D2D2D2"/>
<path d="M197.049 21.7092L196.714 19.7183L190.067 21.4772C186.434 22.441 186.217 26.1069 187.677 27.331C189.137 28.5552 197.913 26.9099 197.049 21.7092Z" fill="#EDEDED" stroke="#D2D2D2"/>
<path d="M237.075 13.2178L239 13.8266L236.333 20.1639C234.873 23.6278 231.98 23.2777 229 22.4346C230.427 19.0559 232.045 11.6381 237.075 13.2178Z" fill="#EDEDED" stroke="#D2D2D2"/>
<path d="M243.075 13.2178L245 13.8266L242.333 20.1639C240.873 23.6278 237.98 23.2777 235 22.4346C236.427 19.0559 238.045 11.6381 243.075 13.2178Z" fill="#EDEDED" stroke="#D2D2D2"/>
<path d="M249.075 13.2178L251 13.8266L248.333 20.1639C246.873 23.6278 243.98 23.2777 241 22.4346C242.427 19.0559 244.045 11.6381 249.075 13.2178Z" fill="#EDEDED" stroke="#D2D2D2"/>
<path d="M255.075 13.2178L257 13.8266L254.333 20.1639C252.873 23.6278 249.98 23.2777 247 22.4346C248.427 19.0559 250.045 11.6381 255.075 13.2178Z" fill="#EDEDED" stroke="#D2D2D2"/>
<path d="M261.075 13.2178L263 13.8266L260.333 20.1639C258.873 23.6278 255.98 23.2777 253 22.4346C254.427 19.0559 256.045 11.6381 261.075 13.2178Z" fill="#EDEDED" stroke="#D2D2D2"/>
<path d="M267.075 13.2178L269 13.8266L266.333 20.1639C264.873 23.6278 261.98 23.2777 259 22.4346C260.427 19.0559 262.045 11.6381 267.075 13.2178Z" fill="#EDEDED" stroke="#D2D2D2"/>
<path d="M273.075 13.2178L275 13.8266L272.333 20.1639C270.873 23.6278 267.98 23.2777 265 22.4346C266.427 19.0559 268.045 11.6381 273.075 13.2178Z" fill="#EDEDED" stroke="#D2D2D2"/>
<path d="M279.075 13.2178L281 13.8266L278.333 20.1639C276.873 23.6278 273.98 23.2777 271 22.4346C272.427 19.0559 274.045 11.6381 279.075 13.2178Z" fill="#EDEDED" stroke="#D2D2D2"/>
<path d="M285.075 13.2178L287 13.8266L284.333 20.1639C282.873 23.6278 279.98 23.2777 277 22.4346C278.427 19.0559 280.045 11.6381 285.075 13.2178Z" fill="#EDEDED" stroke="#D2D2D2"/>
<path d="M291.075 13.2178L293 13.8266L290.333 20.1639C288.873 23.6278 285.98 23.2777 283 22.4346C284.427 19.0559 286.045 11.6381 291.075 13.2178Z" fill="#EDEDED" stroke="#D2D2D2"/>
<path d="M297.075 13.2178L299 13.8266L296.333 20.1639C294.873 23.6278 291.98 23.2777 289 22.4346C290.427 19.0559 292.045 11.6381 297.075 13.2178Z" fill="#EDEDED" stroke="#D2D2D2"/>
<path d="M303.075 13.2178L305 13.8266L302.333 20.1639C300.873 23.6278 297.98 23.2777 295 22.4346C296.427 19.0559 298.045 11.6381 303.075 13.2178Z" fill="#EDEDED" stroke="#D2D2D2"/>
<path d="M309.075 13.2178L311 13.8266L308.333 20.1639C306.873 23.6278 303.98 23.2777 301 22.4346C302.427 19.0559 304.045 11.6381 309.075 13.2178Z" fill="#EDEDED" stroke="#D2D2D2"/>
<path d="M315.075 13.2178L317 13.8266L314.333 20.1639C312.873 23.6278 309.98 23.2777 307 22.4346C308.427 19.0559 310.045 11.6381 315.075 13.2178Z" fill="#EDEDED" stroke="#D2D2D2"/>
<path d="M321.075 13.2178L323 13.8266L320.333 20.1639C318.873 23.6278 315.98 23.2777 313 22.4346C314.427 19.0559 316.045 11.6381 321.075 13.2178Z" fill="#EDEDED" stroke="#D2D2D2"/>
<path d="M327.075 13.2178L329 13.8266L326.333 20.1639C324.873 23.6278 321.98 23.2777 319 22.4346C320.427 19.0559 322.045 11.6381 327.075 13.2178Z" fill="#EDEDED" stroke="#D2D2D2"/>
<path d="M333.075 13.2178L335 13.8266L332.333 20.1639C330.873 23.6278 327.98 23.2777 325 22.4346C326.427 19.0559 328.045 11.6381 333.075 13.2178Z" fill="#EDEDED" stroke="#D2D2D2"/>
<path d="M339.075 13.2178L341 13.8266L338.333 20.1639C336.873 23.6278 333.98 23.2777 331 22.4346C332.427 19.0559 334.045 11.6381 339.075 13.2178Z" fill="#EDEDED" stroke="#D2D2D2"/>
<path d="M345.075 13.2178L347 13.8266L344.333 20.1639C342.873 23.6278 339.98 23.2777 337 22.4346C338.427 19.0559 340.045 11.6381 345.075 13.2178Z" fill="#EDEDED" stroke="#D2D2D2"/>
<path d="M351.075 13.2178L353 13.8266L350.333 20.1639C348.873 23.6278 345.98 23.2777 343 22.4346C344.427 19.0559 346.045 11.6381 351.075 13.2178Z" fill="#EDEDED" stroke="#D2D2D2"/>
<path d="M357.075 13.2178L359 13.8266L356.333 20.1639C354.873 23.6278 351.98 23.2777 349 22.4346C350.427 19.0559 352.045 11.6381 357.075 13.2178Z" fill="#EDEDED" stroke="#D2D2D2"/>
<path d="M363.075 13.2178L365 13.8266L362.333 20.1639C360.873 23.6278 357.98 23.2777 355 22.4346C356.427 19.0559 358.045 11.6381 363.075 13.2178Z" fill="#EDEDED" stroke="#D2D2D2"/>
<path d="M369.075 13.2178L371 13.8266L368.333 20.1639C366.873 23.6278 363.98 23.2777 361 22.4346C362.427 19.0559 364.045 11.6381 369.075 13.2178Z" fill="#EDEDED" stroke="#D2D2D2"/>
<path d="M375.075 13.2178L377 13.8266L374.333 20.1639C372.873 23.6278 369.98 23.2777 367 22.4346C368.427 19.0559 370.045 11.6381 375.075 13.2178Z" fill="#EDEDED" stroke="#D2D2D2"/>
<path d="M381.075 13.2178L383 13.8266L380.333 20.1639C378.873 23.6278 375.98 23.2777 373 22.4346C374.427 19.0559 376.045 11.6381 381.075 13.2178Z" fill="#EDEDED" stroke="#D2D2D2"/>
<path d="M387.075 13.2178L389 13.8266L386.333 20.1639C384.873 23.6278 381.98 23.2777 379 22.4346C380.427 19.0559 382.045 11.6381 387.075 13.2178Z" fill="#EDEDED" stroke="#D2D2D2"/>
<path d="M386.925 22.7822L385 22.1734L387.667 15.8361C389.127 12.3722 392.02 12.7223 395 13.5654C393.573 16.9441 391.955 24.3619 386.925 22.7822Z" fill="#EDEDED" stroke="#D2D2D2"/>
<path d="M392.925 22.7822L391 22.1734L393.667 15.8361C395.127 12.3722 398.02 12.7223 401 13.5654C399.573 16.9441 397.955 24.3619 392.925 22.7822Z" fill="#EDEDED" stroke="#D2D2D2"/>
<path d="M398.925 22.7822L397 22.1734L399.667 15.8361C401.127 12.3722 404.02 12.7223 407 13.5654C405.573 16.9441 403.955 24.3619 398.925 22.7822Z" fill="#EDEDED" stroke="#D2D2D2"/>
<path d="M404.925 22.7822L403 22.1734L405.667 15.8361C407.127 12.3722 410.02 12.7223 413 13.5654C411.573 16.9441 409.955 24.3619 404.925 22.7822Z" fill="#EDEDED" stroke="#D2D2D2"/>
<path d="M410.925 22.7822L409 22.1734L411.667 15.8361C413.127 12.3722 416.02 12.7223 419 13.5654C417.573 16.9441 415.955 24.3619 410.925 22.7822Z" fill="#EDEDED" stroke="#D2D2D2"/>
<path d="M416.925 22.7822L415 22.1734L417.667 15.8361C419.127 12.3722 422.02 12.7223 425 13.5654C423.573 16.9441 421.955 24.3619 416.925 22.7822Z" fill="#EDEDED" stroke="#D2D2D2"/>
<path d="M422.925 22.7822L421 22.1734L423.667 15.8361C425.127 12.3722 428.02 12.7223 431 13.5654C429.573 16.9441 427.955 24.3619 422.925 22.7822Z" fill="#EDEDED" stroke="#D2D2D2"/>
<path d="M428.925 22.7822L427 22.1734L429.667 15.8361C431.127 12.3722 434.02 12.7223 437 13.5654C435.573 16.9441 433.955 24.3619 428.925 22.7822Z" fill="#EDEDED" stroke="#D2D2D2"/>
<path d="M411.566 15.8517L411.231 13.8608L404.584 15.6198C400.951 16.5836 400.895 19.4974 401.315 22.5655C404.86 21.6223 412.43 21.0525 411.566 15.8517Z" fill="#EDEDED" stroke="#D2D2D2"/>
<path d="M410.71 21.9467L410.375 19.9557L403.728 21.7147C400.094 22.6785 399.878 26.3444 401.338 27.5685C402.798 28.7926 411.574 27.1474 410.71 21.9467Z" fill="#EDEDED" stroke="#D2D2D2"/>
<path d="M402.105 14.2899L402.44 16.2809L409.086 14.5219C412.72 13.5581 412.936 9.89224 411.476 8.6681C410.016 7.44396 401.24 9.08923 402.105 14.2899Z" fill="#EDEDED" stroke="#D2D2D2"/>
<path d="M420.989 15.8527L420.654 13.8618L414.007 15.6208C410.374 16.5845 410.318 19.4984 410.738 22.5665C414.282 21.6233 421.853 21.0534 420.989 15.8527Z" fill="#EDEDED" stroke="#D2D2D2"/>
<path d="M420.132 21.9465L419.797 19.9556L413.151 21.7145C409.517 22.6783 409.301 26.3442 410.761 27.5683C412.221 28.7925 420.997 27.1472 420.132 21.9465Z" fill="#EDEDED" stroke="#D2D2D2"/>
<path d="M411.528 14.2908L411.862 16.2817L418.509 14.5228C422.143 13.559 422.359 9.8931 420.899 8.66896C419.439 7.44481 410.663 9.09009 411.528 14.2908Z" fill="#EDEDED" stroke="#D2D2D2"/>
<path d="M441.075 13.2178L443 13.8266L440.333 20.1639C438.873 23.6278 435.98 23.2777 433 22.4346C434.427 19.0559 436.045 11.6381 441.075 13.2178Z" fill="#EDEDED" stroke="#D2D2D2"/>
<path d="M447.075 13.2178L449 13.8266L446.333 20.1639C444.873 23.6278 441.98 23.2777 439 22.4346C440.427 19.0559 442.045 11.6381 447.075 13.2178Z" fill="#EDEDED" stroke="#D2D2D2"/>
<path d="M453.075 13.2178L455 13.8266L452.333 20.1639C450.873 23.6278 447.98 23.2777 445 22.4346C446.427 19.0559 448.045 11.6381 453.075 13.2178Z" fill="#EDEDED" stroke="#D2D2D2"/>
<path d="M459.075 13.2178L461 13.8266L458.333 20.1639C456.873 23.6278 453.98 23.2777 451 22.4346C452.427 19.0559 454.045 11.6381 459.075 13.2178Z" fill="#EDEDED" stroke="#D2D2D2"/>
<path d="M465.075 13.2178L467 13.8266L464.333 20.1639C462.873 23.6278 459.98 23.2777 457 22.4346C458.427 19.0559 460.045 11.6381 465.075 13.2178Z" fill="#EDEDED" stroke="#D2D2D2"/>
<path d="M471.075 13.2178L473 13.8266L470.333 20.1639C468.873 23.6278 465.98 23.2777 463 22.4346C464.427 19.0559 466.045 11.6381 471.075 13.2178Z" fill="#EDEDED" stroke="#D2D2D2"/>
<path d="M477.075 13.2178L479 13.8266L476.333 20.1639C474.873 23.6278 471.98 23.2777 469 22.4346C470.427 19.0559 472.045 11.6381 477.075 13.2178Z" fill="#EDEDED" stroke="#D2D2D2"/>
<path d="M483.075 13.2178L485 13.8266L482.333 20.1639C480.873 23.6278 477.98 23.2777 475 22.4346C476.427 19.0559 478.045 11.6381 483.075 13.2178Z" fill="#EDEDED" stroke="#D2D2D2"/>
<path d="M489.075 13.2178L491 13.8266L488.333 20.1639C486.873 23.6278 483.98 23.2777 481 22.4346C482.427 19.0559 484.045 11.6381 489.075 13.2178Z" fill="#EDEDED" stroke="#D2D2D2"/>
<path d="M495.075 13.2178L497 13.8266L494.333 20.1639C492.873 23.6278 489.98 23.2777 487 22.4346C488.427 19.0559 490.045 11.6381 495.075 13.2178Z" fill="#EDEDED" stroke="#D2D2D2"/>
</svg>
