<svg width="18" height="19" viewBox="0 0 18 19" fill="none" xmlns="http://www.w3.org/2000/svg">
<path d="M11.2349 5.93531C12.1898 6.25165 13.1223 6.65972 13.871 7.05199C14.6197 7.44425 15.0694 7.77957 15.0694 7.77957C15.2729 7.20379 15.2574 6.49989 15.0701 5.85928C13.632 -0.282371 5.91633 0.766096 4.09413 4.30625C3.85557 4.76971 3.74259 5.10347 3.74259 5.10347C4.79157 5.80259 6.5053 7.26779 7.07995 7.34845C7.37886 7.40539 7.58514 7.32947 7.8258 7.24088C8.97005 6.4021 9.51318 5.365 11.2349 5.93531Z" fill="#EDEDED" stroke="#D2D2D2"/>
<path d="M15.7129 12.7801C18.0643 10.8645 18.0249 7.93318 15.7127 5.03735C13.4006 2.14153 8.55581 3.91962 6.9729 8.96934C8.08283 11.8078 14.676 10.3463 15.7129 12.7801Z" fill="#EDEDED" stroke="#D2D2D2"/>
<path d="M6.18397 3.51698C6.22797 3.11132 6.27196 2.74623 6.31596 2.50283C6.40396 2.25943 6.40397 2.09717 6.40397 2.09717C5.47997 2.1783 4.59997 2.62451 3.85197 3.19243C0.130572 6.21976 2.08269 10.4581 5.47998 12.766C6.31598 13.334 7.19596 13.6585 7.85596 13.8207C8.16396 13.9019 8.47198 13.9425 8.64798 13.983C8.82398 14.0236 8.95596 14.0236 8.95596 14.0236C11.2473 10.1235 5.96246 7.60137 6.18397 3.51698Z" fill="#EDEDED" stroke="#D2D2D2"/>
<path d="M8.23304 10.6759C8.23304 10.6759 8.10104 10.6759 7.92504 10.6311C7.74904 10.5864 7.48504 10.5416 7.13304 10.452C6.47304 10.2728 5.59303 9.86978 4.75703 9.28756C3.92103 8.70535 3.17304 7.89922 2.64504 7.22743C2.11704 6.55565 1.80903 6.06299 1.80903 6.06299C1.23703 6.6452 0.841039 7.40657 0.665039 8.2575C0.445039 9.10843 0.445028 10.0937 0.709028 11.079C0.929028 12.0195 1.41304 12.96 2.07304 13.6766C2.73304 14.3931 3.52503 14.8858 4.31703 15.1097C4.31703 15.1097 4.44904 15.1545 4.71304 15.1993C4.97704 15.2441 5.32903 15.3336 5.76903 15.3784C6.64903 15.468 7.74902 15.4232 8.76102 15.1545C9.77302 14.8858 10.521 14.3484 11.005 13.8557C11.225 13.6318 11.401 13.4079 11.489 13.2735C11.577 13.1391 11.665 13.0496 11.665 13.0496C11.137 11.9747 11.093 11.4373 10.653 11.1238C10.169 10.8998 9.42104 10.8103 8.23304 10.6759Z" fill="#EDEDED" stroke="#D2D2D2"/>
<path d="M8.6873 11.5544C8.6873 11.5544 8.61961 11.6271 8.45495 11.7166C8.33238 11.8191 8.08726 12.0242 7.82561 12.1305C7.26394 12.4717 6.35268 12.7517 5.30763 12.7094C4.2919 12.723 3.19726 12.3846 2.38082 12.0386C1.9726 11.8655 1.66139 11.6757 1.42158 11.5548C1.18176 11.4338 1.06824 11.3519 1.06824 11.3519C0.867368 12.1791 0.906311 13.1273 1.26554 14.0809C1.58267 15.0214 2.22009 15.9674 3.11542 16.6654C3.55668 17.0359 4.02353 17.3207 4.55805 17.5327C4.79787 17.6537 5.05047 17.7318 5.30308 17.8098C5.55568 17.8879 5.82106 17.9232 6.08645 17.9585C6.61724 18.0289 7.0894 17.9877 7.56156 17.9465C8.0044 17.8493 8.46004 17.7093 8.84426 17.5005C8.84426 17.5005 8.96683 17.398 9.22848 17.2917C9.44804 17.1723 9.74806 16.9374 10.103 16.6727C10.7707 16.1302 11.5151 15.3307 12.0618 14.4232C12.6086 13.5156 12.9613 12.6418 13.1659 11.9561C13.2682 11.6133 13.3156 11.3003 13.3668 11.1289C13.3758 10.9445 13.4142 10.8159 13.4142 10.8159C12.2865 10.2801 11.3896 10.0496 10.7107 10.1673C9.98968 10.272 9.52873 10.738 8.6873 11.5544Z" fill="#EDEDED" stroke="#D2D2D2"/>
<path d="M9.38606 10.2219C9.38595 11.5423 9.50854 12.8191 9.15395 14.1424C8.88995 15.1725 8.40596 16.1578 7.92196 16.8744C7.65796 17.2326 7.43796 17.5462 7.26196 17.7253C7.08596 17.9044 6.95395 18.0388 6.95395 18.0388C7.74595 18.4419 8.66995 18.5314 9.59395 18.4419C10.518 18.3075 11.442 17.994 12.19 17.4566C15.9857 14.8073 14.5894 10.7175 12.6528 8.69316C11.0971 7.80215 9.80555 8.49604 9.38606 10.2219Z" fill="#EDEDED" stroke="#D2D2D2"/>
<path d="M13.4594 16.8363C17.1149 15.8028 17.6245 10.3751 14.6245 8.49991C11.6245 6.62471 9.37451 8.87476 9.37558 9.73502C13.1265 10.4466 14.624 12.25 13.4594 16.8363Z" fill="#EDEDED" stroke="#D2D2D2"/>
</svg>
