<svg width="10" height="132" viewBox="0 0 10 132" fill="none" xmlns="http://www.w3.org/2000/svg">
<g clip-path="url(#clip0_206_25467)">
<path d="M8.82575 135.96L8.33873 137.5L3.26891 135.367C0.497787 134.198 0.777801 131.884 1.45232 129.5C4.15526 130.642 10.0896 131.936 8.82575 135.96Z" fill="#EDEDED" stroke="#D2D2D2"/>
<path d="M8.82575 130.96L8.33873 132.5L3.26891 130.367C0.497787 129.198 0.777801 126.884 1.45232 124.5C4.15526 125.642 10.0896 126.936 8.82575 130.96Z" fill="#EDEDED" stroke="#D2D2D2"/>
<path d="M8.82575 125.96L8.33873 127.5L3.26891 125.367C0.497787 124.198 0.777801 121.884 1.45232 119.5C4.15526 120.642 10.0896 121.936 8.82575 125.96Z" fill="#EDEDED" stroke="#D2D2D2"/>
<path d="M8.82575 120.96L8.33873 122.5L3.26891 120.367C0.497787 119.198 0.777801 116.884 1.45232 114.5C4.15526 115.642 10.0896 116.936 8.82575 120.96Z" fill="#EDEDED" stroke="#D2D2D2"/>
<path d="M8.82575 115.96L8.33873 117.5L3.26891 115.367C0.497787 114.198 0.777801 111.884 1.45232 109.5C4.15526 110.642 10.0896 111.936 8.82575 115.96Z" fill="#EDEDED" stroke="#D2D2D2"/>
<path d="M8.82575 110.96L8.33873 112.5L3.26891 110.367C0.497787 109.198 0.777801 106.884 1.45232 104.5C4.15526 105.642 10.0896 106.936 8.82575 110.96Z" fill="#EDEDED" stroke="#D2D2D2"/>
<path d="M8.82575 105.96L8.33873 107.5L3.26891 105.367C0.497787 104.198 0.777801 101.884 1.45232 99.5C4.15526 100.642 10.0896 101.936 8.82575 105.96Z" fill="#EDEDED" stroke="#D2D2D2"/>
<path d="M8.82575 100.96L8.33873 102.5L3.26891 100.367C0.497787 99.1984 0.777801 96.8838 1.45232 94.5C4.15526 95.6418 10.0896 96.9362 8.82575 100.96Z" fill="#EDEDED" stroke="#D2D2D2"/>
<path d="M8.82575 95.9601L8.33873 97.5L3.26891 95.3665C0.497787 94.1984 0.777801 91.8838 1.45232 89.5C4.15526 90.6418 10.0896 91.9362 8.82575 95.9601Z" fill="#EDEDED" stroke="#D2D2D2"/>
<path d="M8.82575 90.9601L8.33873 92.5L3.26891 90.3665C0.497787 89.1984 0.777801 86.8838 1.45232 84.5C4.15526 85.6418 10.0896 86.9362 8.82575 90.9601Z" fill="#EDEDED" stroke="#D2D2D2"/>
<path d="M8.82575 85.9601L8.33873 87.5L3.26891 85.3665C0.497787 84.1984 0.777801 81.8838 1.45232 79.5C4.15526 80.6418 10.0896 81.9362 8.82575 85.9601Z" fill="#EDEDED" stroke="#D2D2D2"/>
<path d="M8.82575 80.9601L8.33873 82.5L3.26891 80.3665C0.497787 79.1984 0.777801 76.8838 1.45232 74.5C4.15526 75.6418 10.0896 76.9362 8.82575 80.9601Z" fill="#EDEDED" stroke="#D2D2D2"/>
<path d="M8.82575 75.9601L8.33873 77.5L3.26891 75.3665C0.497787 74.1984 0.777801 71.8838 1.45232 69.5C4.15526 70.6418 10.0896 71.9362 8.82575 75.9601Z" fill="#EDEDED" stroke="#D2D2D2"/>
<path d="M8.82575 70.9601L8.33873 72.5L3.26891 70.3665C0.497787 69.1984 0.777801 66.8838 1.45232 64.5C4.15526 65.6418 10.0896 66.9362 8.82575 70.9601Z" fill="#EDEDED" stroke="#D2D2D2"/>
<path d="M8.82575 65.9601L8.33873 67.5L3.26891 65.3665C0.497787 64.1984 0.777801 61.8838 1.45232 59.5C4.15526 60.6418 10.0896 61.9362 8.82575 65.9601Z" fill="#EDEDED" stroke="#D2D2D2"/>
<path d="M8.82575 60.9601L8.33873 62.5L3.26891 60.3665C0.497787 59.1984 0.777801 56.8838 1.45232 54.5C4.15526 55.6418 10.0896 56.9362 8.82575 60.9601Z" fill="#EDEDED" stroke="#D2D2D2"/>
<path d="M8.82575 55.9601L8.33873 57.5L3.26891 55.3665C0.497787 54.1984 0.777801 51.8838 1.45232 49.5C4.15526 50.6418 10.0896 51.9362 8.82575 55.9601Z" fill="#EDEDED" stroke="#D2D2D2"/>
<path d="M8.82575 50.9601L8.33873 52.5L3.26891 50.3665C0.497787 49.1984 0.777801 46.8838 1.45232 44.5C4.15526 45.6418 10.0896 46.9362 8.82575 50.9601Z" fill="#EDEDED" stroke="#D2D2D2"/>
<path d="M8.82575 45.9601L8.33873 47.5L3.26891 45.3665C0.497787 44.1984 0.777801 41.8838 1.45232 39.5C4.15526 40.6418 10.0896 41.9362 8.82575 45.9601Z" fill="#EDEDED" stroke="#D2D2D2"/>
<path d="M8.82575 40.9601L8.33873 42.5L3.26891 40.3665C0.497787 39.1984 0.777801 36.8838 1.45232 34.5C4.15526 35.6418 10.0896 36.9362 8.82575 40.9601Z" fill="#EDEDED" stroke="#D2D2D2"/>
<path d="M8.82575 35.9601L8.33873 37.5L3.26891 35.3665C0.497787 34.1984 0.777801 31.8838 1.45232 29.5C4.15526 30.6418 10.0896 31.9362 8.82575 35.9601Z" fill="#EDEDED" stroke="#D2D2D2"/>
<path d="M8.82575 30.9601L8.33873 32.5L3.26891 30.3665C0.497787 29.1984 0.777801 26.8838 1.45232 24.5C4.15526 25.6418 10.0896 26.9362 8.82575 30.9601Z" fill="#EDEDED" stroke="#D2D2D2"/>
<path d="M8.82575 25.9601L8.33873 27.5L3.26891 25.3665C0.497787 24.1984 0.777801 21.8838 1.45232 19.5C4.15526 20.6418 10.0896 21.9362 8.82575 25.9601Z" fill="#EDEDED" stroke="#D2D2D2"/>
<path d="M8.82575 20.9601L8.33873 22.5L3.26891 20.3665C0.497787 19.1984 0.777801 16.8838 1.45232 14.5C4.15526 15.6418 10.0896 16.9362 8.82575 20.9601Z" fill="#EDEDED" stroke="#D2D2D2"/>
<path d="M8.82575 15.9601L8.33873 17.5L3.26891 15.3665C0.497787 14.1984 0.777801 11.8838 1.45232 9.5C4.15526 10.6418 10.0896 11.9362 8.82575 15.9601Z" fill="#EDEDED" stroke="#D2D2D2"/>
<path d="M8.82575 10.9601L8.33873 12.5L3.26891 10.3665C0.497787 9.19845 0.777801 6.88379 1.45232 4.5C4.15526 5.64184 10.0896 6.93623 8.82575 10.9601Z" fill="#EDEDED" stroke="#D2D2D2"/>
<path d="M8.82575 5.96007L8.33873 7.5L3.26891 5.3665C0.497787 4.19845 0.777801 1.88379 1.45232 -0.5C4.15526 0.641835 10.0896 1.93623 8.82575 5.96007Z" fill="#EDEDED" stroke="#D2D2D2"/>
<path d="M8.82575 0.960066L8.33873 2.5L3.26891 0.366504C0.497787 -0.801553 0.777801 -3.11621 1.45232 -5.5C4.15526 -4.35816 10.0896 -3.06377 8.82575 0.960066Z" fill="#EDEDED" stroke="#D2D2D2"/>
</g>
<defs>
<clipPath id="clip0_206_25467">
<rect width="132" height="9.99999" fill="white" transform="translate(10) rotate(90)"/>
</clipPath>
</defs>
</svg>
