<svg width="32" height="197" viewBox="0 0 32 197" fill="none" xmlns="http://www.w3.org/2000/svg">
<g clip-path="url(#clip0_206_21100)">
<path d="M9.45468 24.1369C9.96799 25.1537 10.8565 25.7832 11.9126 26.154C15.7208 27.4912 18.8606 23.7874 18.2322 20.2369C18.0717 19.0228 17.1217 18.1103 16.0546 18.7447C13.4293 20.3055 12.6175 23.2614 9.45468 24.1369Z" fill="#EDEDED" stroke="#D2D2D2"/>
<path d="M16.4413 25.8347C17.4374 26.387 18.5261 26.4081 19.6079 26.1211C23.5091 25.0861 24.0237 20.2578 21.5079 17.6748C20.6927 16.761 19.394 16.5403 18.8681 17.665C17.5744 20.4316 18.5648 23.3326 16.4413 25.8347Z" fill="#EDEDED" stroke="#D2D2D2"/>
<path d="M23.1671 23.3148C24.3014 23.2116 25.2137 22.617 25.947 21.7714C28.5915 18.7223 26.3027 14.44 22.77 13.718C21.582 13.4207 20.384 13.9682 20.5813 15.194C21.0667 18.2093 23.5167 20.0517 23.1671 23.3148Z" fill="#EDEDED" stroke="#D2D2D2"/>
<path d="M27.315 17.4487C28.1951 16.7256 28.6153 15.7211 28.7464 14.6095C29.2193 10.6011 24.919 8.34631 21.5915 9.73524C20.4419 10.1572 19.7589 11.2835 20.6112 12.1863C22.7078 14.4072 25.7697 14.5536 27.315 17.4487Z" fill="#EDEDED" stroke="#D2D2D2"/>
<path d="M27.4413 10.266C27.7627 9.17325 27.5454 8.10626 27.029 7.11323C25.1666 3.53242 20.3426 4.08517 18.3716 7.10448C17.658 8.09969 17.7264 9.41517 18.9387 9.68265C21.9212 10.3407 24.5357 8.74043 27.4413 10.266Z" fill="#EDEDED" stroke="#D2D2D2"/>
<path d="M6.53165 21.7024C6.70692 22.8278 7.35838 23.7003 8.24896 24.3783C11.4604 26.8232 15.5882 24.2662 16.0836 20.6947C16.3047 19.4902 15.682 18.3295 14.4713 18.6045C11.4929 19.281 9.81034 21.8433 6.53165 21.7024Z" fill="#EDEDED" stroke="#D2D2D2"/>
<path d="M19.8258 14.5399L19.3387 13L14.2689 15.1335C11.4978 16.3016 11.7778 18.6162 12.4523 21C15.1553 19.8582 21.0896 18.5638 19.8258 14.5399Z" fill="#EDEDED" stroke="#D2D2D2"/>
<path d="M19.8258 19.5399L19.3387 18L14.2689 20.1335C11.4978 21.3016 11.7778 23.6162 12.4523 26C15.1553 24.8582 21.0896 23.5638 19.8258 19.5399Z" fill="#EDEDED" stroke="#D2D2D2"/>
<path d="M37.0751 9.21781L39 9.82658L36.3331 16.1639C34.8731 19.6278 31.9797 19.2777 29 18.4346C30.4273 15.0559 32.0453 7.63805 37.0751 9.21781Z" fill="#EDEDED" stroke="#D2D2D2"/>
<path d="M31.0751 9.21781L33 9.82658L30.3331 16.1639C28.8731 19.6278 25.9797 19.2777 23 18.4346C24.4273 15.0559 26.0453 7.63805 31.0751 9.21781Z" fill="#EDEDED" stroke="#D2D2D2"/>
<path d="M25.0751 9.21781L27 9.82658L24.3331 16.1639C22.8731 19.6278 19.9797 19.2777 17 18.4346C18.4273 15.0559 20.0453 7.63805 25.0751 9.21781Z" fill="#EDEDED" stroke="#D2D2D2"/>
<path d="M19.0751 9.21781L21 9.82658L18.3331 16.1639C16.8731 19.6278 13.9797 19.2777 11 18.4346C12.4273 15.0559 14.0453 7.63805 19.0751 9.21781Z" fill="#EDEDED" stroke="#D2D2D2"/>
<path d="M13.0751 9.21781L15 9.82658L12.3331 16.1639C10.8731 19.6278 7.97974 19.2777 5 18.4346C6.42729 15.0559 8.04529 7.63805 13.0751 9.21781Z" fill="#EDEDED" stroke="#D2D2D2"/>
<path d="M23.6036 4.32146C23.2503 3.22239 22.4602 2.45177 21.4615 1.91365C17.86 -0.0267656 14.1312 3.18536 14.1994 6.83942C14.1684 8.08026 14.9753 9.144 16.1439 8.67739C19.0189 7.52952 20.2987 4.69833 23.6036 4.32146Z" fill="#EDEDED" stroke="#D2D2D2"/>
<path d="M16.8823 1.51795C15.9723 0.807611 14.8856 0.614453 13.7571 0.730908C9.68776 1.15084 8.40981 5.90353 10.5205 8.88717C11.1923 9.93082 12.4577 10.3569 13.1619 9.31403C14.8942 6.74846 14.361 3.68755 16.8823 1.51795Z" fill="#EDEDED" stroke="#D2D2D2"/>
<path d="M9.74519 2.97871C8.59323 2.90286 7.58597 3.354 6.71814 4.08473C3.58878 6.71973 5.20375 11.3687 8.62662 12.6497C9.769 13.1351 11.055 12.7762 11.0511 11.5178C11.0415 8.4221 8.87971 6.19044 9.74519 2.97871Z" fill="#EDEDED" stroke="#D2D2D2"/>
<path d="M4.66921 8.19623C3.67388 8.78111 3.09448 9.72046 2.78757 10.8127C1.68088 14.7511 5.63005 17.688 9.18094 16.8231C10.3986 16.5823 11.2603 15.5625 10.5497 14.524C8.80141 11.9693 5.75901 11.3389 4.66921 8.19623Z" fill="#EDEDED" stroke="#D2D2D2"/>
<path d="M3.40217 15.367C2.90781 16.4103 2.95673 17.5129 3.31692 18.5887C4.61578 22.468 9.53286 22.6767 11.9833 19.9652C12.8549 19.0815 12.9943 17.7537 11.8228 17.2943C8.94068 16.1643 6.0702 17.3534 3.40217 15.367Z" fill="#EDEDED" stroke="#D2D2D2"/>
<path d="M19.8258 24.5399L19.3387 23L14.2689 25.1335C11.4978 26.3016 11.7778 28.6162 12.4523 31C15.1553 29.8582 21.0896 28.5638 19.8258 24.5399Z" fill="#EDEDED" stroke="#D2D2D2"/>
<path d="M19.8258 29.5399L19.3387 28L14.2689 30.1335C11.4978 31.3016 11.7778 33.6162 12.4523 36C15.1553 34.8582 21.0896 33.5638 19.8258 29.5399Z" fill="#EDEDED" stroke="#D2D2D2"/>
<path d="M19.8258 34.5399L19.3387 33L14.2689 35.1335C11.4978 36.3016 11.7778 38.6162 12.4523 41C15.1553 39.8582 21.0896 38.5638 19.8258 34.5399Z" fill="#EDEDED" stroke="#D2D2D2"/>
<path d="M19.8258 39.5399L19.3387 38L14.2689 40.1335C11.4978 41.3016 11.7778 43.6162 12.4523 46C15.1553 44.8582 21.0896 43.5638 19.8258 39.5399Z" fill="#EDEDED" stroke="#D2D2D2"/>
<path d="M19.8258 44.5399L19.3387 43L14.2689 45.1335C11.4978 46.3016 11.7778 48.6162 12.4523 51C15.1553 49.8582 21.0896 48.5638 19.8258 44.5399Z" fill="#EDEDED" stroke="#D2D2D2"/>
<path d="M19.8258 49.5399L19.3387 48L14.2689 50.1335C11.4978 51.3016 11.7778 53.6162 12.4523 56C15.1553 54.8582 21.0896 53.5638 19.8258 49.5399Z" fill="#EDEDED" stroke="#D2D2D2"/>
<path d="M19.8258 54.5399L19.3387 53L14.2689 55.1335C11.4978 56.3016 11.7778 58.6162 12.4523 61C15.1553 59.8582 21.0896 58.5638 19.8258 54.5399Z" fill="#EDEDED" stroke="#D2D2D2"/>
<path d="M19.8258 59.5399L19.3387 58L14.2689 60.1335C11.4978 61.3016 11.7778 63.6162 12.4523 66C15.1553 64.8582 21.0896 63.5638 19.8258 59.5399Z" fill="#EDEDED" stroke="#D2D2D2"/>
<path d="M19.8258 64.5399L19.3387 63L14.2689 65.1335C11.4978 66.3016 11.7778 68.6162 12.4523 71C15.1553 69.8582 21.0896 68.5638 19.8258 64.5399Z" fill="#EDEDED" stroke="#D2D2D2"/>
<path d="M19.8258 69.5399L19.3387 68L14.2689 70.1335C11.4978 71.3016 11.7778 73.6162 12.4523 76C15.1553 74.8582 21.0896 73.5638 19.8258 69.5399Z" fill="#EDEDED" stroke="#D2D2D2"/>
<path d="M19.8258 74.5399L19.3387 73L14.2689 75.1335C11.4978 76.3016 11.7778 78.6162 12.4523 81C15.1553 79.8582 21.0896 78.5638 19.8258 74.5399Z" fill="#EDEDED" stroke="#D2D2D2"/>
<path d="M19.8258 79.5399L19.3387 78L14.2689 80.1335C11.4978 81.3016 11.7778 83.6162 12.4523 86C15.1553 84.8582 21.0896 83.5638 19.8258 79.5399Z" fill="#EDEDED" stroke="#D2D2D2"/>
<path d="M19.8258 84.5399L19.3387 83L14.2689 85.1335C11.4978 86.3016 11.7778 88.6162 12.4523 91C15.1553 89.8582 21.0896 88.5638 19.8258 84.5399Z" fill="#EDEDED" stroke="#D2D2D2"/>
<path d="M19.8258 89.5399L19.3387 88L14.2689 90.1335C11.4978 91.3016 11.7778 93.6162 12.4523 96C15.1553 94.8582 21.0896 93.5638 19.8258 89.5399Z" fill="#EDEDED" stroke="#D2D2D2"/>
<path d="M19.8258 94.5399L19.3387 93L14.2689 95.1335C11.4978 96.3016 11.7778 98.6162 12.4523 101C15.1553 99.8582 21.0896 98.5638 19.8258 94.5399Z" fill="#EDEDED" stroke="#D2D2D2"/>
<path d="M19.8258 99.5399L19.3387 98L14.2689 100.133C11.4978 101.302 11.7778 103.616 12.4523 106C15.1553 104.858 21.0896 103.564 19.8258 99.5399Z" fill="#EDEDED" stroke="#D2D2D2"/>
<path d="M19.8258 104.54L19.3387 103L14.2689 105.133C11.4978 106.302 11.7778 108.616 12.4523 111C15.1553 109.858 21.0896 108.564 19.8258 104.54Z" fill="#EDEDED" stroke="#D2D2D2"/>
<path d="M19.8258 109.54L19.3387 108L14.2689 110.133C11.4978 111.302 11.7778 113.616 12.4523 116C15.1553 114.858 21.0896 113.564 19.8258 109.54Z" fill="#EDEDED" stroke="#D2D2D2"/>
<path d="M19.8258 114.54L19.3387 113L14.2689 115.133C11.4978 116.302 11.7778 118.616 12.4523 121C15.1553 119.858 21.0896 118.564 19.8258 114.54Z" fill="#EDEDED" stroke="#D2D2D2"/>
<path d="M19.8258 119.54L19.3387 118L14.2689 120.133C11.4978 121.302 11.7778 123.616 12.4523 126C15.1553 124.858 21.0896 123.564 19.8258 119.54Z" fill="#EDEDED" stroke="#D2D2D2"/>
<path d="M19.8258 124.54L19.3387 123L14.2689 125.133C11.4978 126.302 11.7778 128.616 12.4523 131C15.1553 129.858 21.0896 128.564 19.8258 124.54Z" fill="#EDEDED" stroke="#D2D2D2"/>
<path d="M19.8258 129.54L19.3387 128L14.2689 130.133C11.4978 131.302 11.7778 133.616 12.4523 136C15.1553 134.858 21.0896 133.564 19.8258 129.54Z" fill="#EDEDED" stroke="#D2D2D2"/>
<path d="M19.8258 134.54L19.3387 133L14.2689 135.133C11.4978 136.302 11.7778 138.616 12.4523 141C15.1553 139.858 21.0896 138.564 19.8258 134.54Z" fill="#EDEDED" stroke="#D2D2D2"/>
<path d="M19.8258 139.54L19.3387 138L14.2689 140.133C11.4978 141.302 11.7778 143.616 12.4523 146C15.1553 144.858 21.0896 143.564 19.8258 139.54Z" fill="#EDEDED" stroke="#D2D2D2"/>
<path d="M19.8258 144.54L19.3387 143L14.2689 145.133C11.4978 146.302 11.7778 148.616 12.4523 151C15.1553 149.858 21.0896 148.564 19.8258 144.54Z" fill="#EDEDED" stroke="#D2D2D2"/>
<path d="M19.8258 149.54L19.3387 148L14.2689 150.133C11.4978 151.302 11.7778 153.616 12.4523 156C15.1553 154.858 21.0896 153.564 19.8258 149.54Z" fill="#EDEDED" stroke="#D2D2D2"/>
<path d="M19.8258 154.54L19.3387 153L14.2689 155.133C11.4978 156.302 11.7778 158.616 12.4523 161C15.1553 159.858 21.0896 158.564 19.8258 154.54Z" fill="#EDEDED" stroke="#D2D2D2"/>
<path d="M19.8258 159.54L19.3387 158L14.2689 160.133C11.4978 161.302 11.7778 163.616 12.4523 166C15.1553 164.858 21.0896 163.564 19.8258 159.54Z" fill="#EDEDED" stroke="#D2D2D2"/>
<path d="M19.8258 164.54L19.3387 163L14.2689 165.133C11.4978 166.302 11.7778 168.616 12.4523 171C15.1553 169.858 21.0896 168.564 19.8258 164.54Z" fill="#EDEDED" stroke="#D2D2D2"/>
<path d="M19.8258 169.54L19.3387 168L14.2689 170.133C11.4978 171.302 11.7778 173.616 12.4523 176C15.1553 174.858 21.0896 173.564 19.8258 169.54Z" fill="#EDEDED" stroke="#D2D2D2"/>
<path d="M19.8258 174.54L19.3387 173L14.2689 175.133C11.4978 176.302 11.7778 178.616 12.4523 181C15.1553 179.858 21.0896 178.564 19.8258 174.54Z" fill="#EDEDED" stroke="#D2D2D2"/>
<path d="M19.8258 179.54L19.3387 178L14.2689 180.133C11.4978 181.302 11.7778 183.616 12.4523 186C15.1553 184.858 21.0896 183.564 19.8258 179.54Z" fill="#EDEDED" stroke="#D2D2D2"/>
<path d="M17.7383 186.839C18.4811 187.085 19.2064 187.402 19.7887 187.707C20.3709 188.012 20.7208 188.273 20.7208 188.273C20.879 187.825 20.867 187.278 20.7213 186.78C19.6028 182.003 13.6017 182.818 12.1844 185.572C11.9989 185.932 11.911 186.192 11.911 186.192C12.7269 186.735 14.0598 187.875 14.5067 187.938C14.7392 187.982 14.8997 187.923 15.0868 187.854C15.9768 187.202 16.3993 186.395 17.7383 186.839Z" fill="#EDEDED" stroke="#D2D2D2"/>
<path d="M21.2212 192.162C23.05 190.672 23.0194 188.393 21.221 186.14C19.4227 183.888 15.6545 185.271 14.4234 189.198C15.2867 191.406 20.4147 190.269 21.2212 192.162Z" fill="#EDEDED" stroke="#D2D2D2"/>
<path d="M13.8091 184.958C13.8433 184.642 13.8775 184.358 13.9118 184.169C13.9802 183.979 13.9802 183.853 13.9802 183.853C13.2615 183.916 12.5771 184.263 11.9953 184.705C9.10091 187.06 10.6192 190.356 13.2616 192.151C13.9118 192.593 14.5962 192.845 15.1095 192.972C15.3491 193.035 15.5887 193.066 15.7256 193.098C15.8624 193.129 15.9651 193.129 15.9651 193.129C17.7473 190.096 13.6368 188.134 13.8091 184.958Z" fill="#EDEDED" stroke="#D2D2D2"/>
<path d="M15.4029 190.526C15.4029 190.526 15.3003 190.526 15.1634 190.491C15.0265 190.456 14.8212 190.421 14.5474 190.351C14.034 190.212 13.3496 189.899 12.6994 189.446C12.0491 188.993 11.4674 188.366 11.0567 187.843C10.646 187.321 10.4065 186.938 10.4065 186.938C9.96159 187.391 9.6536 187.983 9.51671 188.645C9.3456 189.306 9.34559 190.073 9.55092 190.839C9.72203 191.571 10.0985 192.302 10.6118 192.859C11.1252 193.417 11.7411 193.8 12.3571 193.974C12.3571 193.974 12.4598 194.009 12.6652 194.044C12.8705 194.079 13.1443 194.148 13.4865 194.183C14.1709 194.253 15.0265 194.218 15.8136 194.009C16.6007 193.8 17.1825 193.382 17.5589 192.999C17.73 192.825 17.8669 192.65 17.9354 192.546C18.0038 192.441 18.0723 192.372 18.0723 192.372C17.6616 191.536 17.6274 191.118 17.2852 190.874C16.9087 190.7 16.3269 190.63 15.4029 190.526Z" fill="#EDEDED" stroke="#D2D2D2"/>
<path d="M15.7562 191.209C15.7562 191.209 15.7036 191.265 15.5755 191.335C15.4802 191.415 15.2896 191.574 15.086 191.657C14.6492 191.922 13.9404 192.14 13.1276 192.107C12.3376 192.118 11.4862 191.855 10.8512 191.585C10.5337 191.451 10.2917 191.303 10.1051 191.209C9.9186 191.115 9.83031 191.051 9.83031 191.051C9.67408 191.695 9.70437 192.432 9.98376 193.174C10.2304 193.905 10.7262 194.641 11.4226 195.184C11.7658 195.472 12.1289 195.694 12.5446 195.859C12.7311 195.953 12.9276 196.013 13.1241 196.074C13.3205 196.135 13.5269 196.162 13.7334 196.19C14.1462 196.245 14.5134 196.213 14.8807 196.18C15.2251 196.105 15.5795 195.996 15.8783 195.834C15.8783 195.834 15.9737 195.754 16.1772 195.671C16.3479 195.578 16.5813 195.396 16.8573 195.19C17.3767 194.768 17.9557 194.146 18.3809 193.44C18.8061 192.734 19.0805 192.055 19.2396 191.521C19.3192 191.255 19.3561 191.011 19.3959 190.878C19.4029 190.735 19.4327 190.635 19.4327 190.635C18.5556 190.218 17.8581 190.038 17.33 190.13C16.7692 190.211 16.4107 190.574 15.7562 191.209Z" fill="#EDEDED" stroke="#D2D2D2"/>
<path d="M16.3002 190.173C16.3001 191.2 16.3954 192.193 16.1196 193.222C15.9143 194.023 15.5379 194.789 15.1614 195.347C14.9561 195.625 14.785 195.869 14.6481 196.009C14.5112 196.148 14.4085 196.252 14.4085 196.252C15.0245 196.566 15.7432 196.636 16.4619 196.566C17.1805 196.461 17.8992 196.218 18.481 195.8C21.4332 193.739 20.3472 190.558 18.841 188.984C17.631 188.291 16.6264 188.83 16.3002 190.173Z" fill="#EDEDED" stroke="#D2D2D2"/>
<path d="M19.4697 195.317C22.3127 194.513 22.7091 190.292 20.3758 188.833C18.0425 187.375 16.2925 189.125 16.2933 189.794C19.2107 190.347 20.3754 191.75 19.4697 195.317Z" fill="#EDEDED" stroke="#D2D2D2"/>
</g>
<defs>
<clipPath id="clip0_206_21100">
<rect width="32" height="197" fill="white"/>
</clipPath>
</defs>
</svg>
