<svg width="60" height="512" viewBox="0 0 60 512" fill="none" xmlns="http://www.w3.org/2000/svg">
<path d="M35.7386 3.3099L35.0081 1L27.4034 4.20024C23.2467 5.95233 23.6667 9.42431 24.6785 13C28.7329 11.2872 37.6343 9.34566 35.7386 3.3099Z" fill="#5173E3" stroke="#3551AD"/>
<path d="M35.7386 10.3099L35.0081 8L27.4034 11.2002C23.2467 12.9523 23.6667 16.4243 24.6785 20C28.7329 18.2872 37.6343 16.3457 35.7386 10.3099Z" fill="#5173E3" stroke="#3551AD"/>
<path d="M35.7386 17.3099L35.0081 15L27.4034 18.2002C23.2467 19.9523 23.6667 23.4243 24.6785 27C28.7329 25.2872 37.6343 23.3457 35.7386 17.3099Z" fill="#5173E3" stroke="#3551AD"/>
<path d="M35.7386 24.3099L35.0081 22L27.4034 25.2002C23.2467 26.9523 23.6667 30.4243 24.6785 34C28.7329 32.2872 37.6343 30.3457 35.7386 24.3099Z" fill="#5173E3" stroke="#3551AD"/>
<path d="M35.7386 31.3099L35.0081 29L27.4034 32.2002C23.2467 33.9523 23.6667 37.4243 24.6785 41C28.7329 39.2872 37.6343 37.3457 35.7386 31.3099Z" fill="#5173E3" stroke="#3551AD"/>
<path d="M35.7386 38.3099L35.0081 36L27.4034 39.2002C23.2467 40.9523 23.6667 44.4243 24.6785 48C28.7329 46.2872 37.6343 44.3457 35.7386 38.3099Z" fill="#5173E3" stroke="#3551AD"/>
<path d="M35.4975 75.2769C35.0897 74.2388 34.1836 73.2006 33.0055 72.5687C31.8275 71.8916 30.4683 71.5757 29.1543 71.5757C23.2222 71.6776 21.0123 78.4316 22.63 83.2662C22.7659 83.6725 22.9018 83.9884 22.9924 84.2141C23.0831 84.4398 23.1283 84.5752 23.1283 84.5752C24.6235 84.3495 25.6656 84.0787 26.2999 83.537C30.0849 80.709 29.4806 75.2769 35.4975 75.2769Z" fill="#5173E3" stroke="#3551AD"/>
<path d="M40.5664 79.5813C40.4966 78.4687 39.9522 77.2043 39.0244 76.244C38.1104 75.2407 36.9131 74.526 35.662 74.1261C30.2305 72.4918 24.8531 77.9442 26.8051 83.1517C35.422 86.3508 35.0165 77.8069 40.5664 79.5813Z" fill="#5173E3" stroke="#3551AD"/>
<path d="M22.9896 75.9088C23.0802 75.7282 23.1708 75.5477 23.2161 75.3671C23.3521 75.0963 23.4427 74.9157 23.4427 74.9157C22.4459 74.7352 21.3132 74.8706 20.2711 75.322C19.229 75.7282 18.2322 76.4504 17.5073 77.308C14.2348 81.3832 16.4423 86.8713 20.3164 89.7659C20.4976 89.9013 20.7242 90.0367 20.9054 90.1721C21.2679 90.3978 21.5397 90.5784 21.7662 90.6686C21.9928 90.7589 22.1287 90.804 22.1287 90.804C23.1708 89.7207 23.7598 88.9083 23.941 87.9604C24.5598 83.8509 21.8263 80.5442 22.9896 75.9088Z" fill="#5173E3" stroke="#3551AD"/>
<path d="M34.9973 83.1308C34.9973 83.1308 35.1332 83.0856 35.3597 82.9954C35.5862 82.9051 35.9034 82.8148 36.3112 82.7697C37.1268 82.5891 38.3048 82.5891 39.5281 82.8148C40.7514 83.0405 42.02 83.537 42.9262 83.9884C43.3793 84.214 43.7418 84.4397 44.0136 84.6203C44.2855 84.8008 44.4213 84.8911 44.4213 84.8911C44.7838 83.9432 44.8291 82.8599 44.6026 81.7766C44.376 80.6934 43.8323 79.5649 43.0621 78.6622C42.2918 77.7143 41.2951 76.9921 40.2077 76.5407C39.1203 76.0893 37.9423 75.9539 36.9002 76.1345C36.9002 76.1345 36.719 76.1796 36.4018 76.2248C36.0847 76.315 35.6315 76.4053 35.1332 76.631C34.6348 76.8115 34.0458 77.0824 33.5021 77.4435C32.9584 77.8046 32.46 78.2108 32.0069 78.6622C31.1461 79.5649 30.7383 80.6482 30.6023 81.4156C30.557 81.8218 30.557 82.0926 30.6023 82.3183C30.6476 82.544 30.6477 82.6342 30.6477 82.6342C31.7351 83.4016 32.1429 83.9884 32.46 83.9884C32.5959 83.9884 32.9131 83.8981 33.2755 83.7175C33.9098 83.5821 34.4536 83.3564 34.9973 83.1308Z" fill="#5173E3" stroke="#3551AD"/>
<path d="M35.7357 66.3098L35.0052 63.9999L27.4004 67.2001C23.2438 68.9522 23.6638 72.4242 24.6755 75.9999C28.73 74.2871 37.6314 72.3456 35.7357 66.3098Z" fill="#5173E3" stroke="#3551AD"/>
<path d="M35.7357 73.3098L35.0052 70.9999L27.4004 74.2001C23.2438 75.9522 23.6638 79.4242 24.6755 82.9999C28.73 81.2871 37.6314 79.3456 35.7357 73.3098Z" fill="#5173E3" stroke="#3551AD"/>
<path d="M35.7357 80.3098L35.0052 77.9999L27.4004 81.2001C23.2438 82.9522 23.6638 86.4242 24.6755 89.9999C28.73 88.2871 37.6314 86.3456 35.7357 80.3098Z" fill="#5173E3" stroke="#3551AD"/>
<path d="M35.7357 87.3098L35.0052 84.9999L27.4004 88.2001C23.2438 89.9522 23.6638 93.4242 24.6755 96.9999C28.73 95.2871 37.6314 93.3456 35.7357 87.3098Z" fill="#5173E3" stroke="#3551AD"/>
<path d="M35.7357 94.3098L35.0052 91.9999L27.4004 95.2001C23.2438 96.9522 23.6638 100.424 24.6755 104C28.73 102.287 37.6314 100.346 35.7357 94.3098Z" fill="#5173E3" stroke="#3551AD"/>
<path d="M35.7357 101.31L35.0052 98.9999L27.4004 102.2C23.2438 103.952 23.6638 107.424 24.6755 111C28.73 109.287 37.6314 107.346 35.7357 101.31Z" fill="#5173E3" stroke="#3551AD"/>
<path d="M16.1474 83.8084C16.0568 83.4924 16.0114 83.357 16.0114 83.357C14.2897 84.35 13.1117 86.4715 13.0664 88.7735C13.0664 94.3495 19.0829 97.4186 24.1669 96.0857C24.5747 95.9954 24.8918 95.9052 25.1184 95.8149C25.3449 95.7246 25.4809 95.6795 25.4809 95.6795C25.1738 90.4799 17.7347 89.343 16.1474 83.8084Z" fill="#5173E3" stroke="#3551AD"/>
<path d="M25.4827 95.6347C25.4827 95.6347 25.3467 95.6798 25.1202 95.7701C24.8936 95.8604 24.5765 95.9506 24.1687 96.0409C23.3532 96.2214 22.1752 96.3569 20.9066 96.2666C20.2722 96.2214 19.6832 96.086 19.0489 95.9055C18.4599 95.7249 17.9162 95.4993 17.4178 95.3187C16.9647 95.093 16.5569 94.8673 16.2851 94.7319C16.0132 94.5514 15.832 94.4611 15.832 94.4611C15.6961 94.9576 15.6508 95.4541 15.6055 95.9958C15.6055 96.5374 15.6961 97.0791 15.8773 97.6658C16.0132 98.2075 16.2851 98.7491 16.5569 99.2456C16.8288 99.7422 17.2366 100.194 17.6443 100.645C18.0521 101.051 18.5052 101.412 19.0036 101.728C19.502 102.044 20.0004 102.27 20.5441 102.45C21.0878 102.631 21.5862 102.721 22.1299 102.766C22.6736 102.811 23.172 102.721 23.625 102.631C23.625 102.631 23.8063 102.586 24.0781 102.496C24.3953 102.405 24.803 102.27 25.3014 102.134C26.2529 101.773 27.4762 101.187 28.473 100.464C28.9714 100.103 29.4245 99.697 29.8322 99.3359C30.24 98.9297 30.5572 98.5686 30.7837 98.2075C31.2821 97.4853 31.5086 97.0339 31.5086 97.0339C30.5118 95.9055 29.7417 95.2736 28.8355 95.093C27.9293 94.9125 26.8872 95.093 25.4827 95.6347Z" fill="#5173E3" stroke="#3551AD"/>
<path d="M31.5076 97.079C31.5076 97.079 31.2811 97.5304 30.7827 98.2526C30.5108 98.5685 30.1937 98.9748 29.8312 99.381C29.4234 99.7421 28.9704 100.148 28.472 100.509C27.4752 101.232 26.2519 101.818 25.3004 102.179C24.802 102.36 24.3943 102.495 24.0771 102.541C23.7599 102.631 23.624 102.631 23.624 102.631C23.8506 103.082 24.1677 103.488 24.4848 103.85C24.8473 104.256 25.2551 104.572 25.7082 104.843C26.1613 105.159 26.6596 105.384 27.2033 105.565C27.747 105.745 28.2908 105.836 28.8798 105.926C30.0125 106.016 31.2358 105.836 32.2779 105.429C33.32 104.978 34.2261 104.346 34.8151 103.488C34.8151 103.488 34.9057 103.353 35.087 103.082C35.2682 102.857 35.4947 102.405 35.7213 101.954C36.2197 101.051 36.6728 99.7421 36.854 98.5234C37.0352 97.3047 36.9899 96.1311 36.8087 95.2735C36.7181 94.8673 36.6275 94.5062 36.5821 94.2805C36.4915 94.0548 36.4462 93.9194 36.4462 93.9194C34.951 93.9194 33.909 94.0097 33.2293 94.461C33.0481 94.5513 32.9122 94.6867 32.731 94.8673C32.595 95.0027 32.4591 95.1832 32.3232 95.4089C32.1872 95.5895 32.0513 95.8603 31.9154 96.1311C31.8248 96.4471 31.6888 96.7179 31.5076 97.079Z" fill="#5173E3" stroke="#3551AD"/>
<path d="M36.5335 94.0095C36.5335 94.0095 36.5788 94.1449 36.6694 94.3706C36.7147 94.5963 36.8053 94.9123 36.8959 95.3636C37.0318 96.1761 37.1224 97.3497 36.9412 98.6135C36.76 99.8322 36.3069 101.141 35.8085 102.044C35.582 102.495 35.3102 102.902 35.1742 103.172C34.993 103.443 34.9023 103.579 34.9023 103.579C35.1289 103.669 35.4008 103.759 35.6726 103.804C35.9445 103.849 36.2163 103.849 36.4881 103.895C36.76 103.895 37.0318 103.895 37.349 103.895C37.6208 103.849 37.8927 103.804 38.1646 103.759C39.252 103.488 40.3393 102.947 41.2455 102.179C42.1517 101.412 42.8313 100.419 43.2391 99.426C43.6468 98.3878 43.7828 97.3045 43.6015 96.3115C43.6015 96.3115 43.5562 96.131 43.5109 95.815C43.4656 95.499 43.3297 95.0928 43.1938 94.5963C42.8766 93.6033 42.3329 92.3846 41.608 91.3464C40.883 90.3083 39.9769 89.5409 39.2973 89.0444C38.9348 88.8187 38.6629 88.6382 38.4364 88.5028C38.2099 88.3674 38.1193 88.3222 38.1193 88.3222C37.0319 89.3604 36.3975 90.1277 36.2163 90.8951C35.8538 91.5721 36.0804 92.5651 36.5335 94.0095Z" fill="#5173E3" stroke="#3551AD"/>
<path d="M43.3764 95.7247C43.4218 96.0406 43.467 96.2212 43.467 96.2212C44.3732 95.815 45.1888 95.0476 45.8231 94.0997C46.4574 93.1519 46.8198 91.9783 46.9105 90.8047C47.0011 89.6312 46.8199 88.4125 46.3668 87.4194C44.4823 83.1015 41.8084 81.5937 36.1511 82.6988C35.0052 84.798 34.9491 85.614 35.3569 86.3361C37.8162 90.1474 42.4053 89.9197 43.3764 95.7247Z" fill="#5173E3" stroke="#3551AD"/>
<path d="M35.4975 54.2769C35.0897 53.2388 34.1836 52.2006 33.0055 51.5687C31.8275 50.8916 30.4683 50.5757 29.1543 50.5757C23.2222 50.6776 21.0123 57.4316 22.63 62.2662C22.7659 62.6725 22.9018 62.9884 22.9924 63.2141C23.0831 63.4398 23.1283 63.5752 23.1283 63.5752C24.6235 63.3495 25.6656 63.0787 26.2999 62.537C30.0849 59.709 29.4806 54.2769 35.4975 54.2769Z" fill="#5173E3" stroke="#3551AD"/>
<path d="M40.5664 58.5813C40.4966 57.4687 39.9522 56.2043 39.0244 55.244C38.1104 54.2407 36.9131 53.526 35.662 53.1261C30.2305 51.4918 24.8531 56.9442 26.8051 62.1517C35.422 65.3508 35.0165 56.8069 40.5664 58.5813Z" fill="#5173E3" stroke="#3551AD"/>
<path d="M22.9896 54.9088C23.0802 54.7282 23.1708 54.5477 23.2161 54.3671C23.3521 54.0963 23.4427 53.9157 23.4427 53.9157C22.4459 53.7352 21.3132 53.8706 20.2711 54.322C19.229 54.7282 18.2322 55.4504 17.5073 56.308C14.2348 60.3832 16.4423 65.8713 20.3164 68.7659C20.4976 68.9013 20.7242 69.0367 20.9054 69.1721C21.2679 69.3978 21.5397 69.5784 21.7662 69.6686C21.9928 69.7589 22.1287 69.804 22.1287 69.804C23.1708 68.7207 23.7598 67.9083 23.941 66.9604C24.5598 62.8509 21.8263 59.5442 22.9896 54.9088Z" fill="#5173E3" stroke="#3551AD"/>
<path d="M34.9973 62.1308C34.9973 62.1308 35.1332 62.0856 35.3597 61.9954C35.5862 61.9051 35.9034 61.8148 36.3112 61.7697C37.1268 61.5891 38.3048 61.5891 39.5281 61.8148C40.7514 62.0405 42.02 62.537 42.9262 62.9884C43.3793 63.214 43.7418 63.4397 44.0136 63.6203C44.2855 63.8008 44.4213 63.8911 44.4213 63.8911C44.7838 62.9432 44.8291 61.8599 44.6026 60.7766C44.376 59.6934 43.8323 58.5649 43.0621 57.6622C42.2918 56.7143 41.2951 55.9921 40.2077 55.5407C39.1203 55.0893 37.9423 54.9539 36.9002 55.1345C36.9002 55.1345 36.719 55.1796 36.4018 55.2248C36.0847 55.315 35.6315 55.4053 35.1332 55.631C34.6348 55.8115 34.0458 56.0824 33.5021 56.4435C32.9584 56.8046 32.46 57.2108 32.0069 57.6622C31.1461 58.5649 30.7383 59.6482 30.6023 60.4156C30.557 60.8218 30.557 61.0926 30.6023 61.3183C30.6476 61.544 30.6477 61.6342 30.6477 61.6342C31.7351 62.4016 32.1429 62.9884 32.46 62.9884C32.5959 62.9884 32.9131 62.8981 33.2755 62.7175C33.9098 62.5821 34.4536 62.3564 34.9973 62.1308Z" fill="#5173E3" stroke="#3551AD"/>
<path d="M35.7357 45.3098L35.0052 42.9999L27.4004 46.2001C23.2438 47.9522 23.6638 51.4242 24.6755 54.9999C28.73 53.2871 37.6314 51.3456 35.7357 45.3098Z" fill="#5173E3" stroke="#3551AD"/>
<path d="M35.7357 52.3098L35.0052 49.9999L27.4004 53.2001C23.2438 54.9522 23.6638 58.4242 24.6755 61.9999C28.73 60.2871 37.6314 58.3456 35.7357 52.3098Z" fill="#5173E3" stroke="#3551AD"/>
<path d="M35.7357 59.3098L35.0052 56.9999L27.4004 60.2001C23.2438 61.9522 23.6638 65.4242 24.6755 68.9999C28.73 67.2871 37.6314 65.3456 35.7357 59.3098Z" fill="#5173E3" stroke="#3551AD"/>
<path d="M35.7357 66.3098L35.0052 63.9999L27.4004 67.2001C23.2438 68.9522 23.6638 72.4242 24.6755 75.9999C28.73 74.2871 37.6314 72.3456 35.7357 66.3098Z" fill="#5173E3" stroke="#3551AD"/>
<path d="M35.7357 73.3098L35.0052 70.9999L27.4004 74.2001C23.2438 75.9522 23.6638 79.4242 24.6755 82.9999C28.73 81.2871 37.6314 79.3456 35.7357 73.3098Z" fill="#5173E3" stroke="#3551AD"/>
<path d="M35.7357 80.3098L35.0052 77.9999L27.4004 81.2001C23.2438 82.9522 23.6638 86.4242 24.6755 89.9999C28.73 88.2871 37.6314 86.3456 35.7357 80.3098Z" fill="#5173E3" stroke="#3551AD"/>
<path d="M16.1474 62.8084C16.0568 62.4924 16.0114 62.357 16.0114 62.357C14.2897 63.35 13.1117 65.4715 13.0664 67.7735C13.0664 73.3495 19.0829 76.4186 24.1669 75.0857C24.5747 74.9954 24.8918 74.9052 25.1184 74.8149C25.3449 74.7246 25.4809 74.6795 25.4809 74.6795C25.1738 69.4799 17.7347 68.343 16.1474 62.8084Z" fill="#5173E3" stroke="#3551AD"/>
<path d="M25.4827 74.6347C25.4827 74.6347 25.3467 74.6798 25.1202 74.7701C24.8936 74.8604 24.5765 74.9506 24.1687 75.0409C23.3532 75.2214 22.1752 75.3569 20.9066 75.2666C20.2722 75.2214 19.6832 75.086 19.0489 74.9055C18.4599 74.7249 17.9162 74.4993 17.4178 74.3187C16.9647 74.093 16.5569 73.8673 16.2851 73.7319C16.0132 73.5514 15.832 73.4611 15.832 73.4611C15.6961 73.9576 15.6508 74.4541 15.6055 74.9958C15.6055 75.5374 15.6961 76.0791 15.8773 76.6658C16.0132 77.2075 16.2851 77.7491 16.5569 78.2456C16.8288 78.7422 17.2366 79.1935 17.6443 79.6449C18.0521 80.0511 18.5052 80.4122 19.0036 80.7282C19.502 81.0442 20.0004 81.2698 20.5441 81.4504C21.0878 81.6309 21.5862 81.7212 22.1299 81.7663C22.6736 81.8115 23.172 81.7212 23.625 81.6309C23.625 81.6309 23.8063 81.5858 24.0781 81.4955C24.3953 81.4052 24.803 81.2698 25.3014 81.1344C26.2529 80.7733 27.4762 80.1865 28.473 79.4643C28.9714 79.1032 29.4245 78.697 29.8322 78.3359C30.24 77.9297 30.5572 77.5686 30.7837 77.2075C31.2821 76.4853 31.5086 76.0339 31.5086 76.0339C30.5118 74.9055 29.7417 74.2736 28.8355 74.093C27.9293 73.9125 26.8872 74.093 25.4827 74.6347Z" fill="#5173E3" stroke="#3551AD"/>
<path d="M31.5076 76.079C31.5076 76.079 31.2811 76.5304 30.7827 77.2526C30.5108 77.5685 30.1937 77.9748 29.8312 78.381C29.4234 78.7421 28.9704 79.1483 28.472 79.5094C27.4752 80.2316 26.2519 80.8184 25.3004 81.1795C24.802 81.36 24.3943 81.4955 24.0771 81.5406C23.7599 81.6309 23.624 81.6309 23.624 81.6309C23.8506 82.0822 24.1677 82.4885 24.4848 82.8496C24.8473 83.2558 25.2551 83.5718 25.7082 83.8426C26.1613 84.1585 26.6596 84.3842 27.2033 84.5648C27.747 84.7453 28.2908 84.8356 28.8798 84.9259C30.0125 85.0162 31.2358 84.8356 32.2779 84.4294C33.32 83.978 34.2261 83.3461 34.8151 82.4885C34.8151 82.4885 34.9057 82.3531 35.087 82.0822C35.2682 81.8566 35.4947 81.4052 35.7213 80.9538C36.2197 80.0511 36.6728 78.7421 36.854 77.5234C37.0352 76.3047 36.9899 75.1311 36.8087 74.2735C36.7181 73.8673 36.6275 73.5062 36.5821 73.2805C36.4915 73.0548 36.4462 72.9194 36.4462 72.9194C34.951 72.9194 33.909 73.0097 33.2293 73.461C33.0481 73.5513 32.9122 73.6867 32.731 73.8673C32.595 74.0027 32.4591 74.1832 32.3232 74.4089C32.1872 74.5895 32.0513 74.8603 31.9154 75.1311C31.8248 75.4471 31.6888 75.7179 31.5076 76.079Z" fill="#5173E3" stroke="#3551AD"/>
<path d="M36.5335 73.0095C36.5335 73.0095 36.5788 73.1449 36.6694 73.3706C36.7147 73.5963 36.8053 73.9123 36.8959 74.3636C37.0318 75.1761 37.1224 76.3497 36.9412 77.6135C36.76 78.8322 36.3069 80.1412 35.8085 81.0439C35.582 81.4953 35.3102 81.9015 35.1742 82.1724C34.993 82.4432 34.9023 82.5786 34.9023 82.5786C35.1289 82.6689 35.4008 82.7592 35.6726 82.8043C35.9445 82.8494 36.2163 82.8494 36.4881 82.8946C36.76 82.8946 37.0318 82.8946 37.349 82.8946C37.6208 82.8494 37.8927 82.8043 38.1646 82.7592C39.252 82.4883 40.3393 81.9467 41.2455 81.1794C42.1517 80.412 42.8313 79.419 43.2391 78.426C43.6468 77.3878 43.7828 76.3045 43.6015 75.3115C43.6015 75.3115 43.5562 75.131 43.5109 74.815C43.4656 74.499 43.3297 74.0928 43.1938 73.5963C42.8766 72.6033 42.3329 71.3846 41.608 70.3464C40.883 69.3083 39.9769 68.5409 39.2973 68.0444C38.9348 67.8187 38.6629 67.6382 38.4364 67.5028C38.2099 67.3674 38.1193 67.3222 38.1193 67.3222C37.0319 68.3604 36.3975 69.1277 36.2163 69.8951C35.8538 70.5721 36.0804 71.5651 36.5335 73.0095Z" fill="#5173E3" stroke="#3551AD"/>
<path d="M43.3764 74.7247C43.4218 75.0406 43.467 75.2212 43.467 75.2212C44.3732 74.815 45.1888 74.0476 45.8231 73.0997C46.4574 72.1519 46.8198 70.9783 46.9105 69.8047C47.0011 68.6312 46.8199 67.4125 46.3668 66.4194C44.4823 62.1015 41.8084 60.5937 36.1511 61.6988C35.0052 63.798 34.9491 64.614 35.3569 65.3361C37.8162 69.1474 42.4053 68.9197 43.3764 74.7247Z" fill="#5173E3" stroke="#3551AD"/>
<path d="M35.7386 108.31L35.0081 106L27.4034 109.2C23.2467 110.952 23.6667 114.424 24.6785 118C28.7329 116.287 37.6343 114.346 35.7386 108.31Z" fill="#5173E3" stroke="#3551AD"/>
<path d="M35.7386 115.31L35.0081 113L27.4034 116.2C23.2467 117.952 23.6667 121.424 24.6785 125C28.7329 123.287 37.6343 121.346 35.7386 115.31Z" fill="#5173E3" stroke="#3551AD"/>
<path d="M35.7386 122.31L35.0081 120L27.4034 123.2C23.2467 124.952 23.6667 128.424 24.6785 132C28.7329 130.287 37.6343 128.346 35.7386 122.31Z" fill="#5173E3" stroke="#3551AD"/>
<path d="M35.7386 129.31L35.0081 127L27.4034 130.2C23.2467 131.952 23.6667 135.424 24.6785 139C28.7329 137.287 37.6343 135.346 35.7386 129.31Z" fill="#5173E3" stroke="#3551AD"/>
<path d="M35.7386 136.31L35.0081 134L27.4034 137.2C23.2467 138.952 23.6667 142.424 24.6785 146C28.7329 144.287 37.6343 142.346 35.7386 136.31Z" fill="#5173E3" stroke="#3551AD"/>
<path d="M35.7386 143.31L35.0081 141L27.4034 144.2C23.2467 145.952 23.6667 149.424 24.6785 153C28.7329 151.287 37.6343 149.346 35.7386 143.31Z" fill="#5173E3" stroke="#3551AD"/>
<path d="M35.7386 150.31L35.0081 148L27.4034 151.2C23.2467 152.952 23.6667 156.424 24.6785 160C28.7329 158.287 37.6343 156.346 35.7386 150.31Z" fill="#5173E3" stroke="#3551AD"/>
<path d="M35.7386 157.31L35.0081 155L27.4034 158.2C23.2467 159.952 23.6667 163.424 24.6785 167C28.7329 165.287 37.6343 163.346 35.7386 157.31Z" fill="#5173E3" stroke="#3551AD"/>
<path d="M35.7386 164.31L35.0081 162L27.4034 165.2C23.2467 166.952 23.6667 170.424 24.6785 174C28.7329 172.287 37.6343 170.346 35.7386 164.31Z" fill="#5173E3" stroke="#3551AD"/>
<path d="M35.7386 171.31L35.0081 169L27.4034 172.2C23.2467 173.952 23.6667 177.424 24.6785 181C28.7329 179.287 37.6343 177.346 35.7386 171.31Z" fill="#5173E3" stroke="#3551AD"/>
<path d="M35.7386 178.31L35.0081 176L27.4034 179.2C23.2467 180.952 23.6667 184.424 24.6785 188C28.7329 186.287 37.6343 184.346 35.7386 178.31Z" fill="#5173E3" stroke="#3551AD"/>
<path d="M35.7386 185.31L35.0081 183L27.4034 186.2C23.2467 187.952 23.6667 191.424 24.6785 195C28.7329 193.287 37.6343 191.346 35.7386 185.31Z" fill="#5173E3" stroke="#3551AD"/>
<path d="M35.7386 192.31L35.0081 190L27.4034 193.2C23.2467 194.952 23.6667 198.424 24.6785 202C28.7329 200.287 37.6343 198.346 35.7386 192.31Z" fill="#5173E3" stroke="#3551AD"/>
<path d="M35.7386 199.31L35.0081 197L27.4034 200.2C23.2467 201.952 23.6667 205.424 24.6785 209C28.7329 207.287 37.6343 205.346 35.7386 199.31Z" fill="#5173E3" stroke="#3551AD"/>
<path d="M35.4975 236.277C35.0897 235.239 34.1836 234.201 33.0055 233.569C31.8275 232.892 30.4683 232.576 29.1543 232.576C23.2222 232.678 21.0123 239.432 22.63 244.266C22.7659 244.672 22.9018 244.988 22.9924 245.214C23.0831 245.44 23.1283 245.575 23.1283 245.575C24.6235 245.35 25.6656 245.079 26.2999 244.537C30.0849 241.709 29.4806 236.277 35.4975 236.277Z" fill="#5173E3" stroke="#3551AD"/>
<path d="M40.5664 240.581C40.4966 239.469 39.9522 238.204 39.0244 237.244C38.1104 236.241 36.9131 235.526 35.662 235.126C30.2305 233.492 24.8531 238.944 26.8051 244.152C35.422 247.351 35.0165 238.807 40.5664 240.581Z" fill="#5173E3" stroke="#3551AD"/>
<path d="M22.9896 236.909C23.0802 236.728 23.1708 236.548 23.2161 236.367C23.3521 236.096 23.4427 235.916 23.4427 235.916C22.4459 235.735 21.3132 235.871 20.2711 236.322C19.229 236.728 18.2322 237.45 17.5073 238.308C14.2348 242.383 16.4423 247.871 20.3164 250.766C20.4976 250.901 20.7242 251.037 20.9054 251.172C21.2679 251.398 21.5397 251.578 21.7662 251.669C21.9928 251.759 22.1287 251.804 22.1287 251.804C23.1708 250.721 23.7598 249.908 23.941 248.96C24.5598 244.851 21.8263 241.544 22.9896 236.909Z" fill="#5173E3" stroke="#3551AD"/>
<path d="M34.9973 244.131C34.9973 244.131 35.1332 244.086 35.3597 243.995C35.5862 243.905 35.9034 243.815 36.3112 243.77C37.1268 243.589 38.3048 243.589 39.5281 243.815C40.7514 244.04 42.02 244.537 42.9262 244.988C43.3793 245.214 43.7418 245.44 44.0136 245.62C44.2855 245.801 44.4213 245.891 44.4213 245.891C44.7838 244.943 44.8291 243.86 44.6026 242.777C44.376 241.693 43.8323 240.565 43.0621 239.662C42.2918 238.714 41.2951 237.992 40.2077 237.541C39.1203 237.089 37.9423 236.954 36.9002 237.134C36.9002 237.134 36.719 237.18 36.4018 237.225C36.0847 237.315 35.6315 237.405 35.1332 237.631C34.6348 237.812 34.0458 238.082 33.5021 238.443C32.9584 238.805 32.46 239.211 32.0069 239.662C31.1461 240.565 30.7383 241.648 30.6023 242.416C30.557 242.822 30.557 243.093 30.6023 243.318C30.6476 243.544 30.6477 243.634 30.6477 243.634C31.7351 244.402 32.1429 244.988 32.46 244.988C32.5959 244.988 32.9131 244.898 33.2755 244.718C33.9098 244.582 34.4536 244.356 34.9973 244.131Z" fill="#5173E3" stroke="#3551AD"/>
<path d="M35.7357 227.31L35.0052 225L27.4004 228.2C23.2438 229.952 23.6638 233.424 24.6755 237C28.73 235.287 37.6314 233.346 35.7357 227.31Z" fill="#5173E3" stroke="#3551AD"/>
<path d="M35.7357 234.31L35.0052 232L27.4004 235.2C23.2438 236.952 23.6638 240.424 24.6755 244C28.73 242.287 37.6314 240.346 35.7357 234.31Z" fill="#5173E3" stroke="#3551AD"/>
<path d="M35.7357 241.31L35.0052 239L27.4004 242.2C23.2438 243.952 23.6638 247.424 24.6755 251C28.73 249.287 37.6314 247.346 35.7357 241.31Z" fill="#5173E3" stroke="#3551AD"/>
<path d="M35.7357 248.31L35.0052 246L27.4004 249.2C23.2438 250.952 23.6638 254.424 24.6755 258C28.73 256.287 37.6314 254.346 35.7357 248.31Z" fill="#5173E3" stroke="#3551AD"/>
<path d="M35.7357 255.31L35.0052 253L27.4004 256.2C23.2438 257.952 23.6638 261.424 24.6755 265C28.73 263.287 37.6314 261.346 35.7357 255.31Z" fill="#5173E3" stroke="#3551AD"/>
<path d="M35.7357 262.31L35.0052 260L27.4004 263.2C23.2438 264.952 23.6638 268.424 24.6755 272C28.73 270.287 37.6314 268.346 35.7357 262.31Z" fill="#5173E3" stroke="#3551AD"/>
<path d="M16.1474 244.808C16.0568 244.492 16.0114 244.357 16.0114 244.357C14.2897 245.35 13.1117 247.471 13.0664 249.773C13.0664 255.35 19.0829 258.419 24.1669 257.086C24.5747 256.995 24.8918 256.905 25.1184 256.815C25.3449 256.725 25.4809 256.679 25.4809 256.679C25.1738 251.48 17.7347 250.343 16.1474 244.808Z" fill="#5173E3" stroke="#3551AD"/>
<path d="M25.4827 256.635C25.4827 256.635 25.3467 256.68 25.1202 256.77C24.8936 256.86 24.5765 256.951 24.1687 257.041C23.3532 257.221 22.1752 257.357 20.9066 257.267C20.2722 257.221 19.6832 257.086 19.0489 256.905C18.4599 256.725 17.9162 256.499 17.4178 256.319C16.9647 256.093 16.5569 255.867 16.2851 255.732C16.0132 255.551 15.832 255.461 15.832 255.461C15.6961 255.958 15.6508 256.454 15.6055 256.996C15.6055 257.537 15.6961 258.079 15.8773 258.666C16.0132 259.207 16.2851 259.749 16.5569 260.246C16.8288 260.742 17.2366 261.194 17.6443 261.645C18.0521 262.051 18.5052 262.412 19.0036 262.728C19.502 263.044 20.0004 263.27 20.5441 263.45C21.0878 263.631 21.5862 263.721 22.1299 263.766C22.6736 263.811 23.172 263.721 23.625 263.631C23.625 263.631 23.8063 263.586 24.0781 263.496C24.3953 263.405 24.803 263.27 25.3014 263.134C26.2529 262.773 27.4762 262.187 28.473 261.464C28.9714 261.103 29.4245 260.697 29.8322 260.336C30.24 259.93 30.5572 259.569 30.7837 259.207C31.2821 258.485 31.5086 258.034 31.5086 258.034C30.5118 256.905 29.7417 256.274 28.8355 256.093C27.9293 255.912 26.8872 256.093 25.4827 256.635Z" fill="#5173E3" stroke="#3551AD"/>
<path d="M31.5076 258.079C31.5076 258.079 31.2811 258.53 30.7827 259.253C30.5108 259.569 30.1937 259.975 29.8312 260.381C29.4234 260.742 28.9704 261.148 28.472 261.509C27.4752 262.232 26.2519 262.818 25.3004 263.179C24.802 263.36 24.3943 263.495 24.0771 263.541C23.7599 263.631 23.624 263.631 23.624 263.631C23.8506 264.082 24.1677 264.488 24.4848 264.85C24.8473 265.256 25.2551 265.572 25.7082 265.843C26.1613 266.159 26.6596 266.384 27.2033 266.565C27.747 266.745 28.2908 266.836 28.8798 266.926C30.0125 267.016 31.2358 266.836 32.2779 266.429C33.32 265.978 34.2261 265.346 34.8151 264.488C34.8151 264.488 34.9057 264.353 35.087 264.082C35.2682 263.857 35.4947 263.405 35.7213 262.954C36.2197 262.051 36.6728 260.742 36.854 259.523C37.0352 258.305 36.9899 257.131 36.8087 256.273C36.7181 255.867 36.6275 255.506 36.5821 255.28C36.4915 255.055 36.4462 254.919 36.4462 254.919C34.951 254.919 33.909 255.01 33.2293 255.461C33.0481 255.551 32.9122 255.687 32.731 255.867C32.595 256.003 32.4591 256.183 32.3232 256.409C32.1872 256.589 32.0513 256.86 31.9154 257.131C31.8248 257.447 31.6888 257.718 31.5076 258.079Z" fill="#5173E3" stroke="#3551AD"/>
<path d="M36.5335 255.01C36.5335 255.01 36.5788 255.145 36.6694 255.371C36.7147 255.596 36.8053 255.912 36.8959 256.364C37.0318 257.176 37.1224 258.35 36.9412 259.614C36.76 260.832 36.3069 262.141 35.8085 263.044C35.582 263.495 35.3102 263.902 35.1742 264.172C34.993 264.443 34.9023 264.579 34.9023 264.579C35.1289 264.669 35.4008 264.759 35.6726 264.804C35.9445 264.849 36.2163 264.849 36.4881 264.895C36.76 264.895 37.0318 264.895 37.349 264.895C37.6208 264.849 37.8927 264.804 38.1646 264.759C39.252 264.488 40.3393 263.947 41.2455 263.179C42.1517 262.412 42.8313 261.419 43.2391 260.426C43.6468 259.388 43.7828 258.305 43.6015 257.312C43.6015 257.312 43.5562 257.131 43.5109 256.815C43.4656 256.499 43.3297 256.093 43.1938 255.596C42.8766 254.603 42.3329 253.385 41.608 252.346C40.883 251.308 39.9769 250.541 39.2973 250.044C38.9348 249.819 38.6629 249.638 38.4364 249.503C38.2099 249.367 38.1193 249.322 38.1193 249.322C37.0319 250.36 36.3975 251.128 36.2163 251.895C35.8538 252.572 36.0804 253.565 36.5335 255.01Z" fill="#5173E3" stroke="#3551AD"/>
<path d="M43.3764 256.725C43.4218 257.041 43.467 257.221 43.467 257.221C44.3732 256.815 45.1888 256.048 45.8231 255.1C46.4574 254.152 46.8198 252.978 46.9105 251.805C47.0011 250.631 46.8199 249.412 46.3668 248.419C44.4823 244.101 41.8084 242.594 36.1511 243.699C35.0052 245.798 34.9491 246.614 35.3569 247.336C37.8162 251.147 42.4053 250.92 43.3764 256.725Z" fill="#5173E3" stroke="#3551AD"/>
<path d="M35.4975 215.277C35.0897 214.239 34.1836 213.201 33.0055 212.569C31.8275 211.892 30.4683 211.576 29.1543 211.576C23.2222 211.678 21.0123 218.432 22.63 223.266C22.7659 223.672 22.9018 223.988 22.9924 224.214C23.0831 224.44 23.1283 224.575 23.1283 224.575C24.6235 224.35 25.6656 224.079 26.2999 223.537C30.0849 220.709 29.4806 215.277 35.4975 215.277Z" fill="#5173E3" stroke="#3551AD"/>
<path d="M40.5664 219.581C40.4966 218.469 39.9522 217.204 39.0244 216.244C38.1104 215.241 36.9131 214.526 35.662 214.126C30.2305 212.492 24.8531 217.944 26.8051 223.152C35.422 226.351 35.0165 217.807 40.5664 219.581Z" fill="#5173E3" stroke="#3551AD"/>
<path d="M22.9896 215.909C23.0802 215.728 23.1708 215.548 23.2161 215.367C23.3521 215.096 23.4427 214.916 23.4427 214.916C22.4459 214.735 21.3132 214.871 20.2711 215.322C19.229 215.728 18.2322 216.45 17.5073 217.308C14.2348 221.383 16.4423 226.871 20.3164 229.766C20.4976 229.901 20.7242 230.037 20.9054 230.172C21.2679 230.398 21.5397 230.578 21.7662 230.669C21.9928 230.759 22.1287 230.804 22.1287 230.804C23.1708 229.721 23.7598 228.908 23.941 227.96C24.5598 223.851 21.8263 220.544 22.9896 215.909Z" fill="#5173E3" stroke="#3551AD"/>
<path d="M34.9973 223.131C34.9973 223.131 35.1332 223.086 35.3597 222.995C35.5862 222.905 35.9034 222.815 36.3112 222.77C37.1268 222.589 38.3048 222.589 39.5281 222.815C40.7514 223.04 42.02 223.537 42.9262 223.988C43.3793 224.214 43.7418 224.44 44.0136 224.62C44.2855 224.801 44.4213 224.891 44.4213 224.891C44.7838 223.943 44.8291 222.86 44.6026 221.777C44.376 220.693 43.8323 219.565 43.0621 218.662C42.2918 217.714 41.2951 216.992 40.2077 216.541C39.1203 216.089 37.9423 215.954 36.9002 216.134C36.9002 216.134 36.719 216.18 36.4018 216.225C36.0847 216.315 35.6315 216.405 35.1332 216.631C34.6348 216.812 34.0458 217.082 33.5021 217.443C32.9584 217.805 32.46 218.211 32.0069 218.662C31.1461 219.565 30.7383 220.648 30.6023 221.416C30.557 221.822 30.557 222.093 30.6023 222.318C30.6476 222.544 30.6477 222.634 30.6477 222.634C31.7351 223.402 32.1429 223.988 32.46 223.988C32.5959 223.988 32.9131 223.898 33.2755 223.718C33.9098 223.582 34.4536 223.356 34.9973 223.131Z" fill="#5173E3" stroke="#3551AD"/>
<path d="M35.7357 206.31L35.0052 204L27.4004 207.2C23.2438 208.952 23.6638 212.424 24.6755 216C28.73 214.287 37.6314 212.346 35.7357 206.31Z" fill="#5173E3" stroke="#3551AD"/>
<path d="M35.7357 213.31L35.0052 211L27.4004 214.2C23.2438 215.952 23.6638 219.424 24.6755 223C28.73 221.287 37.6314 219.346 35.7357 213.31Z" fill="#5173E3" stroke="#3551AD"/>
<path d="M35.7357 220.31L35.0052 218L27.4004 221.2C23.2438 222.952 23.6638 226.424 24.6755 230C28.73 228.287 37.6314 226.346 35.7357 220.31Z" fill="#5173E3" stroke="#3551AD"/>
<path d="M35.7357 227.31L35.0052 225L27.4004 228.2C23.2438 229.952 23.6638 233.424 24.6755 237C28.73 235.287 37.6314 233.346 35.7357 227.31Z" fill="#5173E3" stroke="#3551AD"/>
<path d="M35.7357 234.31L35.0052 232L27.4004 235.2C23.2438 236.952 23.6638 240.424 24.6755 244C28.73 242.287 37.6314 240.346 35.7357 234.31Z" fill="#5173E3" stroke="#3551AD"/>
<path d="M35.7357 241.31L35.0052 239L27.4004 242.2C23.2438 243.952 23.6638 247.424 24.6755 251C28.73 249.287 37.6314 247.346 35.7357 241.31Z" fill="#5173E3" stroke="#3551AD"/>
<path d="M16.1474 223.808C16.0568 223.492 16.0114 223.357 16.0114 223.357C14.2897 224.35 13.1117 226.471 13.0664 228.773C13.0664 234.35 19.0829 237.419 24.1669 236.086C24.5747 235.995 24.8918 235.905 25.1184 235.815C25.3449 235.725 25.4809 235.679 25.4809 235.679C25.1738 230.48 17.7347 229.343 16.1474 223.808Z" fill="#5173E3" stroke="#3551AD"/>
<path d="M25.4827 235.635C25.4827 235.635 25.3467 235.68 25.1202 235.77C24.8936 235.86 24.5765 235.951 24.1687 236.041C23.3532 236.221 22.1752 236.357 20.9066 236.267C20.2722 236.221 19.6832 236.086 19.0489 235.905C18.4599 235.725 17.9162 235.499 17.4178 235.319C16.9647 235.093 16.5569 234.867 16.2851 234.732C16.0132 234.551 15.832 234.461 15.832 234.461C15.6961 234.958 15.6508 235.454 15.6055 235.996C15.6055 236.537 15.6961 237.079 15.8773 237.666C16.0132 238.207 16.2851 238.749 16.5569 239.246C16.8288 239.742 17.2366 240.194 17.6443 240.645C18.0521 241.051 18.5052 241.412 19.0036 241.728C19.502 242.044 20.0004 242.27 20.5441 242.45C21.0878 242.631 21.5862 242.721 22.1299 242.766C22.6736 242.811 23.172 242.721 23.625 242.631C23.625 242.631 23.8063 242.586 24.0781 242.496C24.3953 242.405 24.803 242.27 25.3014 242.134C26.2529 241.773 27.4762 241.187 28.473 240.464C28.9714 240.103 29.4245 239.697 29.8322 239.336C30.24 238.93 30.5572 238.569 30.7837 238.207C31.2821 237.485 31.5086 237.034 31.5086 237.034C30.5118 235.905 29.7417 235.274 28.8355 235.093C27.9293 234.912 26.8872 235.093 25.4827 235.635Z" fill="#5173E3" stroke="#3551AD"/>
<path d="M31.5076 237.079C31.5076 237.079 31.2811 237.53 30.7827 238.253C30.5108 238.569 30.1937 238.975 29.8312 239.381C29.4234 239.742 28.9704 240.148 28.472 240.509C27.4752 241.232 26.2519 241.818 25.3004 242.179C24.802 242.36 24.3943 242.495 24.0771 242.541C23.7599 242.631 23.624 242.631 23.624 242.631C23.8506 243.082 24.1677 243.488 24.4848 243.85C24.8473 244.256 25.2551 244.572 25.7082 244.843C26.1613 245.159 26.6596 245.384 27.2033 245.565C27.747 245.745 28.2908 245.836 28.8798 245.926C30.0125 246.016 31.2358 245.836 32.2779 245.429C33.32 244.978 34.2261 244.346 34.8151 243.488C34.8151 243.488 34.9057 243.353 35.087 243.082C35.2682 242.857 35.4947 242.405 35.7213 241.954C36.2197 241.051 36.6728 239.742 36.854 238.523C37.0352 237.305 36.9899 236.131 36.8087 235.273C36.7181 234.867 36.6275 234.506 36.5821 234.28C36.4915 234.055 36.4462 233.919 36.4462 233.919C34.951 233.919 33.909 234.01 33.2293 234.461C33.0481 234.551 32.9122 234.687 32.731 234.867C32.595 235.003 32.4591 235.183 32.3232 235.409C32.1872 235.589 32.0513 235.86 31.9154 236.131C31.8248 236.447 31.6888 236.718 31.5076 237.079Z" fill="#5173E3" stroke="#3551AD"/>
<path d="M36.5335 234.01C36.5335 234.01 36.5788 234.145 36.6694 234.371C36.7147 234.596 36.8053 234.912 36.8959 235.364C37.0318 236.176 37.1224 237.35 36.9412 238.614C36.76 239.832 36.3069 241.141 35.8085 242.044C35.582 242.495 35.3102 242.902 35.1742 243.172C34.993 243.443 34.9023 243.579 34.9023 243.579C35.1289 243.669 35.4008 243.759 35.6726 243.804C35.9445 243.849 36.2163 243.849 36.4881 243.895C36.76 243.895 37.0318 243.895 37.349 243.895C37.6208 243.849 37.8927 243.804 38.1646 243.759C39.252 243.488 40.3393 242.947 41.2455 242.179C42.1517 241.412 42.8313 240.419 43.2391 239.426C43.6468 238.388 43.7828 237.305 43.6015 236.312C43.6015 236.312 43.5562 236.131 43.5109 235.815C43.4656 235.499 43.3297 235.093 43.1938 234.596C42.8766 233.603 42.3329 232.385 41.608 231.346C40.883 230.308 39.9769 229.541 39.2973 229.044C38.9348 228.819 38.6629 228.638 38.4364 228.503C38.2099 228.367 38.1193 228.322 38.1193 228.322C37.0319 229.36 36.3975 230.128 36.2163 230.895C35.8538 231.572 36.0804 232.565 36.5335 234.01Z" fill="#5173E3" stroke="#3551AD"/>
<path d="M43.3764 235.725C43.4218 236.041 43.467 236.221 43.467 236.221C44.3732 235.815 45.1888 235.048 45.8231 234.1C46.4574 233.152 46.8198 231.978 46.9105 230.805C47.0011 229.631 46.8199 228.412 46.3668 227.419C44.4823 223.101 41.8084 221.594 36.1511 222.699C35.0052 224.798 34.9491 225.614 35.3569 226.336C37.8162 230.147 42.4053 229.92 43.3764 235.725Z" fill="#5173E3" stroke="#3551AD"/>
<path d="M35.7386 269.31L35.0081 267L27.4034 270.2C23.2467 271.952 23.6667 275.424 24.6785 279C28.7329 277.287 37.6343 275.346 35.7386 269.31Z" fill="#5173E3" stroke="#3551AD"/>
<path d="M35.7386 276.31L35.0081 274L27.4034 277.2C23.2467 278.952 23.6667 282.424 24.6785 286C28.7329 284.287 37.6343 282.346 35.7386 276.31Z" fill="#5173E3" stroke="#3551AD"/>
<path d="M35.7386 283.31L35.0081 281L27.4034 284.2C23.2467 285.952 23.6667 289.424 24.6785 293C28.7329 291.287 37.6343 289.346 35.7386 283.31Z" fill="#5173E3" stroke="#3551AD"/>
<path d="M35.7386 290.31L35.0081 288L27.4034 291.2C23.2467 292.952 23.6667 296.424 24.6785 300C28.7329 298.287 37.6343 296.346 35.7386 290.31Z" fill="#5173E3" stroke="#3551AD"/>
<path d="M35.7386 297.31L35.0081 295L27.4034 298.2C23.2467 299.952 23.6667 303.424 24.6785 307C28.7329 305.287 37.6343 303.346 35.7386 297.31Z" fill="#5173E3" stroke="#3551AD"/>
<path d="M35.7386 304.31L35.0081 302L27.4034 305.2C23.2467 306.952 23.6667 310.424 24.6785 314C28.7329 312.287 37.6343 310.346 35.7386 304.31Z" fill="#5173E3" stroke="#3551AD"/>
<path d="M35.4975 320.277C35.0897 319.239 34.1836 318.201 33.0055 317.569C31.8275 316.892 30.4683 316.576 29.1543 316.576C23.2222 316.678 21.0123 323.432 22.63 328.266C22.7659 328.672 22.9018 328.988 22.9924 329.214C23.0831 329.44 23.1283 329.575 23.1283 329.575C24.6235 329.35 25.6656 329.079 26.2999 328.537C30.0849 325.709 29.4806 320.277 35.4975 320.277Z" fill="#5173E3" stroke="#3551AD"/>
<path d="M40.5664 324.581C40.4966 323.469 39.9522 322.204 39.0244 321.244C38.1104 320.241 36.9131 319.526 35.662 319.126C30.2305 317.492 24.8531 322.944 26.8051 328.152C35.422 331.351 35.0165 322.807 40.5664 324.581Z" fill="#5173E3" stroke="#3551AD"/>
<path d="M22.9896 320.909C23.0802 320.728 23.1708 320.548 23.2161 320.367C23.3521 320.096 23.4427 319.916 23.4427 319.916C22.4459 319.735 21.3132 319.871 20.2711 320.322C19.229 320.728 18.2322 321.45 17.5073 322.308C14.2348 326.383 16.4423 331.871 20.3164 334.766C20.4976 334.901 20.7242 335.037 20.9054 335.172C21.2679 335.398 21.5397 335.578 21.7662 335.669C21.9928 335.759 22.1287 335.804 22.1287 335.804C23.1708 334.721 23.7598 333.908 23.941 332.96C24.5598 328.851 21.8263 325.544 22.9896 320.909Z" fill="#5173E3" stroke="#3551AD"/>
<path d="M34.9973 328.131C34.9973 328.131 35.1332 328.086 35.3597 327.995C35.5862 327.905 35.9034 327.815 36.3112 327.77C37.1268 327.589 38.3048 327.589 39.5281 327.815C40.7514 328.04 42.02 328.537 42.9262 328.988C43.3793 329.214 43.7418 329.44 44.0136 329.62C44.2855 329.801 44.4213 329.891 44.4213 329.891C44.7838 328.943 44.8291 327.86 44.6026 326.777C44.376 325.693 43.8323 324.565 43.0621 323.662C42.2918 322.714 41.2951 321.992 40.2077 321.541C39.1203 321.089 37.9423 320.954 36.9002 321.134C36.9002 321.134 36.719 321.18 36.4018 321.225C36.0847 321.315 35.6315 321.405 35.1332 321.631C34.6348 321.812 34.0458 322.082 33.5021 322.443C32.9584 322.805 32.46 323.211 32.0069 323.662C31.1461 324.565 30.7383 325.648 30.6023 326.416C30.557 326.822 30.557 327.093 30.6023 327.318C30.6476 327.544 30.6477 327.634 30.6477 327.634C31.7351 328.402 32.1429 328.988 32.46 328.988C32.5959 328.988 32.9131 328.898 33.2755 328.718C33.9098 328.582 34.4536 328.356 34.9973 328.131Z" fill="#5173E3" stroke="#3551AD"/>
<path d="M35.7357 311.31L35.0052 309L27.4004 312.2C23.2438 313.952 23.6638 317.424 24.6755 321C28.73 319.287 37.6314 317.346 35.7357 311.31Z" fill="#5173E3" stroke="#3551AD"/>
<path d="M35.7357 318.31L35.0052 316L27.4004 319.2C23.2438 320.952 23.6638 324.424 24.6755 328C28.73 326.287 37.6314 324.346 35.7357 318.31Z" fill="#5173E3" stroke="#3551AD"/>
<path d="M35.7357 325.31L35.0052 323L27.4004 326.2C23.2438 327.952 23.6638 331.424 24.6755 335C28.73 333.287 37.6314 331.346 35.7357 325.31Z" fill="#5173E3" stroke="#3551AD"/>
<path d="M35.7357 332.31L35.0052 330L27.4004 333.2C23.2438 334.952 23.6638 338.424 24.6755 342C28.73 340.287 37.6314 338.346 35.7357 332.31Z" fill="#5173E3" stroke="#3551AD"/>
<path d="M35.7357 339.31L35.0052 337L27.4004 340.2C23.2438 341.952 23.6638 345.424 24.6755 349C28.73 347.287 37.6314 345.346 35.7357 339.31Z" fill="#5173E3" stroke="#3551AD"/>
<path d="M35.7357 346.31L35.0052 344L27.4004 347.2C23.2438 348.952 23.6638 352.424 24.6755 356C28.73 354.287 37.6314 352.346 35.7357 346.31Z" fill="#5173E3" stroke="#3551AD"/>
<path d="M16.1474 328.808C16.0568 328.492 16.0114 328.357 16.0114 328.357C14.2897 329.35 13.1117 331.471 13.0664 333.773C13.0664 339.35 19.0829 342.419 24.1669 341.086C24.5747 340.995 24.8918 340.905 25.1184 340.815C25.3449 340.725 25.4809 340.679 25.4809 340.679C25.1738 335.48 17.7347 334.343 16.1474 328.808Z" fill="#5173E3" stroke="#3551AD"/>
<path d="M25.4827 340.635C25.4827 340.635 25.3467 340.68 25.1202 340.77C24.8936 340.86 24.5765 340.951 24.1687 341.041C23.3532 341.221 22.1752 341.357 20.9066 341.267C20.2722 341.221 19.6832 341.086 19.0489 340.905C18.4599 340.725 17.9162 340.499 17.4178 340.319C16.9647 340.093 16.5569 339.867 16.2851 339.732C16.0132 339.551 15.832 339.461 15.832 339.461C15.6961 339.958 15.6508 340.454 15.6055 340.996C15.6055 341.537 15.6961 342.079 15.8773 342.666C16.0132 343.207 16.2851 343.749 16.5569 344.246C16.8288 344.742 17.2366 345.194 17.6443 345.645C18.0521 346.051 18.5052 346.412 19.0036 346.728C19.502 347.044 20.0004 347.27 20.5441 347.45C21.0878 347.631 21.5862 347.721 22.1299 347.766C22.6736 347.811 23.172 347.721 23.625 347.631C23.625 347.631 23.8063 347.586 24.0781 347.496C24.3953 347.405 24.803 347.27 25.3014 347.134C26.2529 346.773 27.4762 346.187 28.473 345.464C28.9714 345.103 29.4245 344.697 29.8322 344.336C30.24 343.93 30.5572 343.569 30.7837 343.207C31.2821 342.485 31.5086 342.034 31.5086 342.034C30.5118 340.905 29.7417 340.274 28.8355 340.093C27.9293 339.912 26.8872 340.093 25.4827 340.635Z" fill="#5173E3" stroke="#3551AD"/>
<path d="M31.5076 342.079C31.5076 342.079 31.2811 342.53 30.7827 343.253C30.5108 343.569 30.1937 343.975 29.8312 344.381C29.4234 344.742 28.9704 345.148 28.472 345.509C27.4752 346.232 26.2519 346.818 25.3004 347.179C24.802 347.36 24.3943 347.495 24.0771 347.541C23.7599 347.631 23.624 347.631 23.624 347.631C23.8506 348.082 24.1677 348.488 24.4848 348.85C24.8473 349.256 25.2551 349.572 25.7082 349.843C26.1613 350.159 26.6596 350.384 27.2033 350.565C27.747 350.745 28.2908 350.836 28.8798 350.926C30.0125 351.016 31.2358 350.836 32.2779 350.429C33.32 349.978 34.2261 349.346 34.8151 348.488C34.8151 348.488 34.9057 348.353 35.087 348.082C35.2682 347.857 35.4947 347.405 35.7213 346.954C36.2197 346.051 36.6728 344.742 36.854 343.523C37.0352 342.305 36.9899 341.131 36.8087 340.273C36.7181 339.867 36.6275 339.506 36.5821 339.28C36.4915 339.055 36.4462 338.919 36.4462 338.919C34.951 338.919 33.909 339.01 33.2293 339.461C33.0481 339.551 32.9122 339.687 32.731 339.867C32.595 340.003 32.4591 340.183 32.3232 340.409C32.1872 340.589 32.0513 340.86 31.9154 341.131C31.8248 341.447 31.6888 341.718 31.5076 342.079Z" fill="#5173E3" stroke="#3551AD"/>
<path d="M36.5335 339.01C36.5335 339.01 36.5788 339.145 36.6694 339.371C36.7147 339.596 36.8053 339.912 36.8959 340.364C37.0318 341.176 37.1224 342.35 36.9412 343.614C36.76 344.832 36.3069 346.141 35.8085 347.044C35.582 347.495 35.3102 347.902 35.1742 348.172C34.993 348.443 34.9023 348.579 34.9023 348.579C35.1289 348.669 35.4008 348.759 35.6726 348.804C35.9445 348.849 36.2163 348.849 36.4881 348.895C36.76 348.895 37.0318 348.895 37.349 348.895C37.6208 348.849 37.8927 348.804 38.1646 348.759C39.252 348.488 40.3393 347.947 41.2455 347.179C42.1517 346.412 42.8313 345.419 43.2391 344.426C43.6468 343.388 43.7828 342.305 43.6015 341.312C43.6015 341.312 43.5562 341.131 43.5109 340.815C43.4656 340.499 43.3297 340.093 43.1938 339.596C42.8766 338.603 42.3329 337.385 41.608 336.346C40.883 335.308 39.9769 334.541 39.2973 334.044C38.9348 333.819 38.6629 333.638 38.4364 333.503C38.2099 333.367 38.1193 333.322 38.1193 333.322C37.0319 334.36 36.3975 335.128 36.2163 335.895C35.8538 336.572 36.0804 337.565 36.5335 339.01Z" fill="#5173E3" stroke="#3551AD"/>
<path d="M43.3764 340.725C43.4218 341.041 43.467 341.221 43.467 341.221C44.3732 340.815 45.1888 340.048 45.8231 339.1C46.4574 338.152 46.8198 336.978 46.9105 335.805C47.0011 334.631 46.8199 333.412 46.3668 332.419C44.4823 328.101 41.8084 326.594 36.1511 327.699C35.0052 329.798 34.9491 330.614 35.3569 331.336C37.8162 335.147 42.4053 334.92 43.3764 340.725Z" fill="#5173E3" stroke="#3551AD"/>
<path d="M35.7386 353.31L35.0081 351L27.4034 354.2C23.2467 355.952 23.6667 359.424 24.6785 363C28.7329 361.287 37.6343 359.346 35.7386 353.31Z" fill="#5173E3" stroke="#3551AD"/>
<path d="M35.7386 360.31L35.0081 358L27.4034 361.2C23.2467 362.952 23.6667 366.424 24.6785 370C28.7329 368.287 37.6343 366.346 35.7386 360.31Z" fill="#5173E3" stroke="#3551AD"/>
<path d="M35.7386 367.31L35.0081 365L27.4034 368.2C23.2467 369.952 23.6667 373.424 24.6785 377C28.7329 375.287 37.6343 373.346 35.7386 367.31Z" fill="#5173E3" stroke="#3551AD"/>
<path d="M35.7386 374.31L35.0081 372L27.4034 375.2C23.2467 376.952 23.6667 380.424 24.6785 384C28.7329 382.287 37.6343 380.346 35.7386 374.31Z" fill="#5173E3" stroke="#3551AD"/>
<path d="M35.7386 381.31L35.0081 379L27.4034 382.2C23.2467 383.952 23.6667 387.424 24.6785 391C28.7329 389.287 37.6343 387.346 35.7386 381.31Z" fill="#5173E3" stroke="#3551AD"/>
<path d="M35.7386 388.31L35.0081 386L27.4034 389.2C23.2467 390.952 23.6667 394.424 24.6785 398C28.7329 396.287 37.6343 394.346 35.7386 388.31Z" fill="#5173E3" stroke="#3551AD"/>
<path d="M35.7386 395.31L35.0081 393L27.4034 396.2C23.2467 397.952 23.6667 401.424 24.6785 405C28.7329 403.287 37.6343 401.346 35.7386 395.31Z" fill="#5173E3" stroke="#3551AD"/>
<path d="M35.7386 402.31L35.0081 400L27.4034 403.2C23.2467 404.952 23.6667 408.424 24.6785 412C28.7329 410.287 37.6343 408.346 35.7386 402.31Z" fill="#5173E3" stroke="#3551AD"/>
<path d="M35.7386 409.31L35.0081 407L27.4034 410.2C23.2467 411.952 23.6667 415.424 24.6785 419C28.7329 417.287 37.6343 415.346 35.7386 409.31Z" fill="#5173E3" stroke="#3551AD"/>
<path d="M35.7386 416.31L35.0081 414L27.4034 417.2C23.2467 418.952 23.6667 422.424 24.6785 426C28.7329 424.287 37.6343 422.346 35.7386 416.31Z" fill="#5173E3" stroke="#3551AD"/>
<path d="M35.7386 423.31L35.0081 421L27.4034 424.2C23.2467 425.952 23.6667 429.424 24.6785 433C28.7329 431.287 37.6343 429.346 35.7386 423.31Z" fill="#5173E3" stroke="#3551AD"/>
<path d="M35.7386 430.31L35.0081 428L27.4034 431.2C23.2467 432.952 23.6667 436.424 24.6785 440C28.7329 438.287 37.6343 436.346 35.7386 430.31Z" fill="#5173E3" stroke="#3551AD"/>
<path d="M35.7386 437.31L35.0081 435L27.4034 438.2C23.2467 439.952 23.6667 443.424 24.6785 447C28.7329 445.287 37.6343 443.346 35.7386 437.31Z" fill="#5173E3" stroke="#3551AD"/>
<path d="M35.7386 444.31L35.0081 442L27.4034 445.2C23.2467 446.952 23.6667 450.424 24.6785 454C28.7329 452.287 37.6343 450.346 35.7386 444.31Z" fill="#5173E3" stroke="#3551AD"/>
<path d="M35.7386 451.31L35.0081 449L27.4034 452.2C23.2467 453.952 23.6667 457.424 24.6785 461C28.7329 459.287 37.6343 457.346 35.7386 451.31Z" fill="#5173E3" stroke="#3551AD"/>
<path d="M35.7386 458.31L35.0081 456L27.4034 459.2C23.2467 460.952 23.6667 464.424 24.6785 468C28.7329 466.287 37.6343 464.346 35.7386 458.31Z" fill="#5173E3" stroke="#3551AD"/>
<path d="M35.7386 465.31L35.0081 463L27.4034 466.2C23.2467 467.952 23.6667 471.424 24.6785 475C28.7329 473.287 37.6343 471.346 35.7386 465.31Z" fill="#5173E3" stroke="#3551AD"/>
<path d="M23.5451 495.226C23.2586 499.849 22.6856 504.464 21.7897 509.028C21.7897 509.062 21.7792 509.079 21.7792 509.096C21.2868 511.501 22.9765 511.31 24.6182 511.31C25.6027 507.28 26.4257 501.682 26.5091 496.762C26.5091 496.762 27.03 501.393 25.6964 509.639C25.7694 510.164 25.8736 510.792 26.0663 511.31H27.754C28.3999 505.338 28.8427 498.255 28.9052 491.519C28.9365 492.554 29.1657 499.917 28.2333 511.31H31.0253L31.3743 510.046L31.64 509.121C31.6348 509.113 31.6348 509.096 31.6348 509.079C31.4212 506.05 31.291 503.395 31.2024 501.113C30.9576 494.777 31.1347 491.401 31.1347 491.401C31.1816 498.043 31.6139 505.024 32.2599 511.539L34.6196 511.31C32.9943 502.199 33.4892 497.084 33.5257 496.77C33.6403 503.404 34.8956 509.147 35.479 511.505L37.2762 511.31C37.9794 511.301 38.4743 510.19 38.2555 509.07C37.3543 504.498 36.7761 499.858 36.4948 495.226C35.7508 484.322 24.456 480.827 23.5451 495.226Z" fill="#5173E3" stroke="#3551AD"/>
<path d="M35.7386 472.31L35.0081 470L27.4034 473.2C23.2467 474.953 23.6667 478.424 24.6785 482C28.7329 480.287 37.6343 478.346 35.7386 472.31Z" fill="#5173E3" stroke="#3551AD"/>
<path d="M32.5194 480.184C33.5968 480.541 34.6488 481.001 35.4935 481.444C36.3381 481.887 36.8456 482.265 36.8456 482.265C37.0751 481.615 37.0577 480.821 36.8463 480.098C35.2239 473.169 26.519 474.352 24.4632 478.346C24.194 478.869 24.0666 479.246 24.0666 479.246C25.25 480.034 27.1835 481.687 27.8318 481.778C28.169 481.843 28.4018 481.757 28.6733 481.657C29.9642 480.711 30.577 479.541 32.5194 480.184Z" fill="#5173E3" stroke="#3551AD"/>
<path d="M37.5725 487.907C40.2254 485.745 40.1809 482.438 37.5723 479.171C34.9637 475.904 29.4978 477.91 27.712 483.607C28.9642 486.81 36.4027 485.161 37.5725 487.907Z" fill="#5173E3" stroke="#3551AD"/>
<path d="M26.8229 477.456C26.8726 476.998 26.9222 476.586 26.9719 476.312C27.0711 476.037 27.0711 475.854 27.0711 475.854C26.0287 475.945 25.0359 476.449 24.192 477.09C19.9935 480.505 22.1959 485.287 26.0287 487.891C26.9719 488.531 27.9647 488.897 28.7093 489.081C29.0568 489.172 29.4043 489.218 29.6029 489.264C29.8014 489.309 29.9503 489.309 29.9503 489.309C32.5354 484.909 26.573 482.064 26.8229 477.456Z" fill="#5173E3" stroke="#3551AD"/>
<path d="M29.1329 485.533C29.1329 485.533 28.984 485.533 28.7854 485.482C28.5868 485.432 28.289 485.381 27.8919 485.28C27.1472 485.078 26.1544 484.623 25.2112 483.966C24.2681 483.309 23.4242 482.4 22.8285 481.642C22.2328 480.884 21.8853 480.328 21.8853 480.328C21.2399 480.985 20.7932 481.844 20.5946 482.804C20.3464 483.764 20.3464 484.876 20.6443 485.987C20.8925 487.048 21.4385 488.109 22.1831 488.918C22.9278 489.726 23.8213 490.282 24.7148 490.535C24.7148 490.535 24.8638 490.585 25.1616 490.636C25.4595 490.686 25.8566 490.787 26.353 490.838C27.3458 490.939 28.5868 490.888 29.7286 490.585C30.8703 490.282 31.7142 489.676 32.2603 489.12C32.5085 488.867 32.707 488.615 32.8063 488.463C32.9056 488.312 33.0049 488.211 33.0049 488.211C32.4092 486.998 32.3596 486.392 31.8631 486.038C31.3171 485.785 30.4732 485.684 29.1329 485.533Z" fill="#5173E3" stroke="#3551AD"/>
<path d="M29.6458 486.524C29.6458 486.524 29.5694 486.606 29.3836 486.707C29.2453 486.822 28.9688 487.054 28.6736 487.174C28.0399 487.558 27.0118 487.874 25.8328 487.827C24.6868 487.842 23.4519 487.46 22.5308 487.07C22.0702 486.875 21.7191 486.66 21.4485 486.524C21.178 486.388 21.0499 486.295 21.0499 486.295C20.8233 487.228 20.8672 488.298 21.2725 489.374C21.6303 490.435 22.3494 491.502 23.3595 492.29C23.8574 492.708 24.3841 493.029 24.9871 493.268C25.2577 493.405 25.5427 493.493 25.8277 493.581C26.1126 493.669 26.4121 493.709 26.7115 493.749C27.3103 493.828 27.843 493.782 28.3757 493.735C28.8753 493.626 29.3894 493.468 29.8228 493.232C29.8228 493.232 29.9611 493.116 30.2563 492.996C30.504 492.862 30.8425 492.597 31.2429 492.298C31.9962 491.686 32.8361 490.784 33.4529 489.76C34.0697 488.736 34.4677 487.75 34.6986 486.977C34.814 486.59 34.8675 486.237 34.9252 486.044C34.9354 485.835 34.9787 485.69 34.9787 485.69C33.7064 485.086 32.6945 484.826 31.9286 484.959C31.1151 485.077 30.5951 485.603 29.6458 486.524Z" fill="#5173E3" stroke="#3551AD"/>
<path d="M30.4334 485.02C30.4333 486.51 30.5716 487.95 30.1715 489.444C29.8737 490.606 29.3276 491.717 28.7816 492.526C28.4837 492.93 28.2355 493.284 28.037 493.486C27.8384 493.688 27.6895 493.839 27.6895 493.839C28.583 494.294 29.6255 494.395 30.6679 494.294C31.7104 494.143 32.7529 493.789 33.5968 493.183C37.8792 490.194 36.3038 485.58 34.119 483.296C32.3638 482.29 30.9067 483.073 30.4334 485.02Z" fill="#5173E3" stroke="#3551AD"/>
<path d="M35.0295 492.482C39.1535 491.316 39.7284 485.193 36.3439 483.077C32.9593 480.962 30.4208 483.5 30.422 484.471C34.6539 485.274 36.3433 487.308 35.0295 492.482Z" fill="#5173E3" stroke="#3551AD"/>
</svg>
