<svg width="60" height="495" viewBox="0 0 60 495" fill="none" xmlns="http://www.w3.org/2000/svg">
<path d="M36.2168 3.50239L35.4254 1L27.187 4.46693C22.6839 6.36502 23.1389 10.1263 24.235 14C28.6273 12.1445 38.2705 10.0411 36.2168 3.50239Z" fill="#58BF90" stroke="#329467"/>
<path d="M36.0456 21.452C35.597 20.3057 34.6002 19.1594 33.3044 18.4617C32.0086 17.7141 30.5135 17.3652 29.0681 17.3652C22.5428 17.4777 20.1119 24.9353 21.8913 30.2735C22.0408 30.7221 22.1904 31.071 22.29 31.3202C22.3897 31.5693 22.4395 31.7189 22.4395 31.7189C24.0842 31.4697 25.2305 31.1706 25.9282 30.5726C30.0917 27.45 29.427 21.452 36.0456 21.452Z" fill="#58BF90" stroke="#329467"/>
<path d="M41.6214 26.205C41.5446 24.9765 40.9458 23.5804 39.9252 22.5201C38.9198 21.4123 37.6028 20.6232 36.2266 20.1815C30.2519 18.377 24.3367 24.3974 26.484 30.1473C35.9625 33.6796 35.5165 24.2457 41.6214 26.205Z" fill="#58BF90" stroke="#329467"/>
<path d="M22.2864 22.1499C22.3861 21.9506 22.4858 21.7512 22.5356 21.5518C22.6851 21.2528 22.7848 21.0535 22.7848 21.0535C21.6883 20.8541 20.4424 21.0036 19.2961 21.502C18.1498 21.9506 17.0533 22.748 16.2559 23.6949C12.6562 28.1946 15.0844 34.2544 19.3459 37.4505C19.5452 37.6 19.7945 37.7495 19.9938 37.899C20.3925 38.1482 20.6915 38.3476 20.9407 38.4473C21.1899 38.5469 21.3394 38.5968 21.3394 38.5968C22.4857 37.4006 23.1336 36.5036 23.333 35.4569C24.0136 30.9194 21.0068 27.2683 22.2864 22.1499Z" fill="#58BF90" stroke="#329467"/>
<path d="M35.4948 30.1242C35.4948 30.1242 35.6443 30.0744 35.8935 29.9747C36.1427 29.875 36.4916 29.7753 36.9402 29.7255C37.8373 29.5261 39.1331 29.5261 40.4787 29.7753C41.8244 30.0245 43.2199 30.5727 44.2167 31.0711C44.7151 31.3203 45.1138 31.5695 45.4128 31.7689C45.7118 31.9682 45.8613 32.0679 45.8613 32.0679C46.26 31.0213 46.3099 29.8252 46.0607 28.629C45.8115 27.4329 45.2134 26.1869 44.3661 25.1901C43.5189 24.1435 42.4225 23.3461 41.2263 22.8477C40.0302 22.3493 38.7344 22.1998 37.5881 22.3992C37.5881 22.3992 37.3887 22.449 37.0398 22.4988C36.691 22.5985 36.1926 22.6982 35.6443 22.9474C35.0961 23.1467 34.4482 23.4458 33.8501 23.8445C33.2521 24.2432 32.7039 24.6917 32.2055 25.1901C31.2585 26.1869 30.8099 27.3831 30.6604 28.2303C30.6106 28.6789 30.6106 28.9779 30.6604 29.2271C30.7103 29.4763 30.7103 29.576 30.7103 29.576C31.9064 30.4232 32.355 31.0711 32.7039 31.0711C32.8534 31.0711 33.2022 30.9715 33.6009 30.7721C34.2987 30.6226 34.8968 30.3734 35.4948 30.1242Z" fill="#58BF90" stroke="#329467"/>
<path d="M36.2129 11.5024L35.4215 9L27.1831 12.4669C22.68 14.365 23.135 18.1263 24.2311 22C28.6234 20.1445 38.2666 18.0411 36.2129 11.5024Z" fill="#58BF90" stroke="#329467"/>
<path d="M36.2129 19.5024L35.4215 17L27.1831 20.4669C22.68 22.365 23.135 26.1263 24.2311 30C28.6234 28.1445 38.2666 26.0411 36.2129 19.5024Z" fill="#58BF90" stroke="#329467"/>
<path d="M36.2129 27.5024L35.4215 25L27.1831 28.4669C22.68 30.365 23.135 34.1263 24.2311 38C28.6234 36.1445 38.2666 34.0411 36.2129 27.5024Z" fill="#58BF90" stroke="#329467"/>
<path d="M36.2129 35.5024L35.4215 33L27.1831 36.4669C22.68 38.365 23.135 42.1263 24.2311 46C28.6234 44.1445 38.2666 42.0411 36.2129 35.5024Z" fill="#58BF90" stroke="#329467"/>
<path d="M36.2129 43.5024L35.4215 41L27.1831 44.4669C22.68 46.365 23.135 50.1263 24.2311 54C28.6234 52.1445 38.2666 50.0411 36.2129 43.5024Z" fill="#58BF90" stroke="#329467"/>
<path d="M36.2129 51.5024L35.4215 49L27.1831 52.4669C22.68 54.365 23.135 58.1263 24.2311 62C28.6234 60.1445 38.2666 58.0411 36.2129 51.5024Z" fill="#58BF90" stroke="#329467"/>
<path d="M14.7621 30.872C14.6624 30.5231 14.6126 30.3736 14.6126 30.3736C12.7187 31.4701 11.4229 33.8125 11.373 36.3543C11.373 42.5111 17.9912 45.8999 23.5836 44.4282C24.0321 44.3285 24.381 44.2288 24.6302 44.1291C24.8794 44.0295 25.0289 43.9796 25.0289 43.9796C24.6912 38.2384 16.5082 36.9832 14.7621 30.872Z" fill="#58BF90" stroke="#329467"/>
<path d="M25.0309 43.9299C25.0309 43.9299 24.8814 43.9798 24.6322 44.0794C24.383 44.1791 24.0341 44.2788 23.5856 44.3785C22.6885 44.5778 21.3927 44.7273 19.9972 44.6277C19.2995 44.5778 18.6515 44.4283 17.9538 44.2289C17.3059 44.0296 16.7078 43.7804 16.1596 43.581C15.6612 43.3319 15.2126 43.0827 14.9136 42.9331C14.6146 42.7338 14.4152 42.6341 14.4152 42.6341C14.2657 43.1823 14.2159 43.7306 14.166 44.3286C14.166 44.9267 14.2657 45.5248 14.465 46.1727C14.6146 46.7707 14.9136 47.3688 15.2126 47.917C15.5117 48.4653 15.9602 48.9637 16.4088 49.462C16.8573 49.9106 17.3557 50.3093 17.9039 50.6582C18.4522 51.0071 19.0004 51.2562 19.5985 51.4556C20.1965 51.655 20.7448 51.7546 21.3428 51.8045C21.9409 51.8543 22.4892 51.7546 22.9876 51.655C22.9876 51.655 23.1869 51.6051 23.4859 51.5054C23.8348 51.4057 24.2833 51.2562 24.8316 51.1067C25.8782 50.708 27.2238 50.0601 28.3203 49.2627C28.8685 48.864 29.3669 48.4154 29.8155 48.0167C30.264 47.5681 30.6129 47.1694 30.8621 46.7707C31.4103 45.9733 31.6595 45.4749 31.6595 45.4749C30.563 44.2289 29.7158 43.5312 28.719 43.3319C27.7223 43.1325 26.5759 43.3319 25.0309 43.9299Z" fill="#58BF90" stroke="#329467"/>
<path d="M31.6583 45.5247C31.6583 45.5247 31.4091 46.0231 30.8609 46.8205C30.5618 47.1694 30.213 47.6179 29.8142 48.0665C29.3657 48.4652 28.8673 48.9137 28.3191 49.3125C27.2226 50.1099 25.877 50.7578 24.8303 51.1565C24.2821 51.3559 23.8336 51.5054 23.4847 51.5552C23.1358 51.6549 22.9863 51.6549 22.9863 51.6549C23.2355 52.1533 23.5843 52.6018 23.9332 53.0005C24.3319 53.4491 24.7805 53.798 25.2789 54.097C25.7773 54.4459 26.3255 54.6951 26.9236 54.8944C27.5216 55.0938 28.1197 55.1935 28.7676 55.2931C30.0136 55.3928 31.3593 55.1934 32.5056 54.7449C33.6519 54.2465 34.6486 53.5488 35.2965 52.6018C35.2965 52.6018 35.3962 52.4523 35.5956 52.1533C35.7949 51.9041 36.0441 51.4057 36.2933 50.9073C36.8415 49.9105 37.3399 48.4652 37.5393 47.1195C37.7386 45.7739 37.6888 44.4781 37.4895 43.5311C37.3898 43.0826 37.2901 42.6839 37.2403 42.4347C37.1406 42.1855 37.0907 42.0359 37.0907 42.0359C35.446 42.0359 34.2998 42.1356 33.5522 42.634C33.3528 42.7337 33.2033 42.8832 33.004 43.0826C32.8544 43.2321 32.7049 43.4315 32.5554 43.6807C32.4059 43.88 32.2563 44.179 32.1068 44.4781C32.0071 44.8269 31.8576 45.126 31.6583 45.5247Z" fill="#58BF90" stroke="#329467"/>
<path d="M37.1868 42.1355C37.1868 42.1355 37.2366 42.285 37.3363 42.5342C37.3861 42.7834 37.4858 43.1323 37.5855 43.6306C37.735 44.5277 37.8347 45.8236 37.6353 47.2191C37.436 48.5647 36.9376 50.01 36.3894 51.0068C36.1402 51.5052 35.8412 51.9537 35.6917 52.2528C35.4923 52.5518 35.3926 52.7013 35.3926 52.7013C35.6418 52.801 35.9408 52.9007 36.2399 52.9505C36.5389 53.0004 36.8379 53.0004 37.1369 53.0502C37.436 53.0502 37.735 53.0502 38.0839 53.0502C38.3829 53.0004 38.682 52.9506 38.981 52.9007C40.1772 52.6017 41.3733 52.0036 42.37 51.1563C43.3668 50.3091 44.1144 49.2126 44.563 48.1162C45.0115 46.9699 45.1611 45.7737 44.9617 44.6773C44.9617 44.6773 44.9118 44.4779 44.862 44.129C44.8121 43.7802 44.6627 43.3316 44.5131 42.7834C44.1643 41.6869 43.5662 40.3413 42.7688 39.195C41.9713 38.0487 40.9746 37.2014 40.227 36.6532C39.8283 36.404 39.5292 36.2046 39.28 36.0551C39.0308 35.9056 38.9312 35.8558 38.9312 35.8558C37.7351 37.0021 37.0373 37.8493 36.8379 38.6966C36.4392 39.4442 36.6884 40.5406 37.1868 42.1355Z" fill="#58BF90" stroke="#329467"/>
<path d="M44.7142 44.0295C44.764 44.3784 44.8138 44.5777 44.8138 44.5777C45.8106 44.1292 46.7078 43.2819 47.4055 42.2353C48.1033 41.1887 48.5019 39.8929 48.6016 38.5971C48.7013 37.3012 48.5019 35.9556 48.0035 34.8591C45.9306 30.0914 42.9894 28.4266 36.7663 29.6467C35.5058 31.9646 35.4441 32.8656 35.8927 33.663C38.5979 37.8712 43.6459 37.6198 44.7142 44.0295Z" fill="#58BF90" stroke="#329467"/>
<path d="M36.2168 59.5024L35.4254 57L27.187 60.4669C22.6839 62.365 23.1389 66.1263 24.235 70C28.6273 68.1445 38.2705 66.0411 36.2168 59.5024Z" fill="#58BF90" stroke="#329467"/>
<path d="M36.2168 67.5024L35.4254 65L27.187 68.4669C22.6839 70.365 23.1389 74.1263 24.235 78C28.6273 76.1445 38.2705 74.0411 36.2168 67.5024Z" fill="#58BF90" stroke="#329467"/>
<path d="M36.2168 75.5024L35.4254 73L27.187 76.4669C22.6839 78.365 23.1389 82.1263 24.235 86C28.6273 84.1445 38.2705 82.0411 36.2168 75.5024Z" fill="#58BF90" stroke="#329467"/>
<path d="M36.2168 83.5024L35.4254 81L27.187 84.4669C22.6839 86.365 23.1389 90.1263 24.235 94C28.6273 92.1445 38.2705 90.0411 36.2168 83.5024Z" fill="#58BF90" stroke="#329467"/>
<path d="M36.2168 91.5024L35.4254 89L27.187 92.4669C22.6839 94.365 23.1389 98.1263 24.235 102C28.6273 100.145 38.2705 98.0411 36.2168 91.5024Z" fill="#58BF90" stroke="#329467"/>
<path d="M36.2168 99.5024L35.4254 97L27.187 100.467C22.6839 102.365 23.1389 106.126 24.235 110C28.6273 108.145 38.2705 106.041 36.2168 99.5024Z" fill="#58BF90" stroke="#329467"/>
<path d="M36.2168 107.502L35.4254 105L27.187 108.467C22.6839 110.365 23.1389 114.126 24.235 118C28.6273 116.145 38.2705 114.041 36.2168 107.502Z" fill="#58BF90" stroke="#329467"/>
<path d="M36.2168 115.502L35.4254 113L27.187 116.467C22.6839 118.365 23.1389 122.126 24.235 126C28.6273 124.145 38.2705 122.041 36.2168 115.502Z" fill="#58BF90" stroke="#329467"/>
<path d="M36.2168 123.502L35.4254 121L27.187 124.467C22.6839 126.365 23.1389 130.126 24.235 134C28.6273 132.145 38.2705 130.041 36.2168 123.502Z" fill="#58BF90" stroke="#329467"/>
<path d="M36.0456 189.452C35.597 188.306 34.6002 187.159 33.3044 186.462C32.0086 185.714 30.5135 185.365 29.0681 185.365C22.5428 185.478 20.1119 192.935 21.8913 198.274C22.0408 198.722 22.1904 199.071 22.29 199.32C22.3897 199.569 22.4395 199.719 22.4395 199.719C24.0842 199.47 25.2305 199.171 25.9282 198.573C30.0917 195.45 29.427 189.452 36.0456 189.452Z" fill="#58BF90" stroke="#329467"/>
<path d="M41.6214 194.205C41.5446 192.976 40.9458 191.58 39.9252 190.52C38.9198 189.412 37.6028 188.623 36.2266 188.182C30.2519 186.377 24.3367 192.397 26.484 198.147C35.9625 201.68 35.5165 192.246 41.6214 194.205Z" fill="#58BF90" stroke="#329467"/>
<path d="M22.2864 190.15C22.3861 189.951 22.4858 189.751 22.5356 189.552C22.6851 189.253 22.7848 189.053 22.7848 189.053C21.6883 188.854 20.4424 189.004 19.2961 189.502C18.1498 189.951 17.0533 190.748 16.2559 191.695C12.6562 196.195 15.0844 202.254 19.3459 205.45C19.5452 205.6 19.7945 205.75 19.9938 205.899C20.3925 206.148 20.6915 206.348 20.9407 206.447C21.1899 206.547 21.3394 206.597 21.3394 206.597C22.4857 205.401 23.1336 204.504 23.333 203.457C24.0136 198.919 21.0068 195.268 22.2864 190.15Z" fill="#58BF90" stroke="#329467"/>
<path d="M35.4948 198.124C35.4948 198.124 35.6443 198.074 35.8935 197.975C36.1427 197.875 36.4916 197.775 36.9402 197.725C37.8373 197.526 39.1331 197.526 40.4787 197.775C41.8244 198.025 43.2199 198.573 44.2167 199.071C44.7151 199.32 45.1138 199.57 45.4128 199.769C45.7118 199.968 45.8613 200.068 45.8613 200.068C46.26 199.021 46.3099 197.825 46.0607 196.629C45.8115 195.433 45.2134 194.187 44.3661 193.19C43.5189 192.144 42.4225 191.346 41.2263 190.848C40.0302 190.349 38.7344 190.2 37.5881 190.399C37.5881 190.399 37.3887 190.449 37.0398 190.499C36.691 190.599 36.1926 190.698 35.6443 190.947C35.0961 191.147 34.4482 191.446 33.8501 191.844C33.2521 192.243 32.7039 192.692 32.2055 193.19C31.2585 194.187 30.8099 195.383 30.6604 196.23C30.6106 196.679 30.6106 196.978 30.6604 197.227C30.7103 197.476 30.7103 197.576 30.7103 197.576C31.9064 198.423 32.355 199.071 32.7039 199.071C32.8534 199.071 33.2022 198.971 33.6009 198.772C34.2987 198.623 34.8968 198.373 35.4948 198.124Z" fill="#58BF90" stroke="#329467"/>
<path d="M36.2129 179.502L35.4215 177L27.1831 180.467C22.68 182.365 23.135 186.126 24.2311 190C28.6234 188.145 38.2666 186.041 36.2129 179.502Z" fill="#58BF90" stroke="#329467"/>
<path d="M36.2129 187.502L35.4215 185L27.1831 188.467C22.68 190.365 23.135 194.126 24.2311 198C28.6234 196.145 38.2666 194.041 36.2129 187.502Z" fill="#58BF90" stroke="#329467"/>
<path d="M36.2129 195.502L35.4215 193L27.1831 196.467C22.68 198.365 23.135 202.126 24.2311 206C28.6234 204.145 38.2666 202.041 36.2129 195.502Z" fill="#58BF90" stroke="#329467"/>
<path d="M36.2129 203.502L35.4215 201L27.1831 204.467C22.68 206.365 23.135 210.126 24.2311 214C28.6234 212.145 38.2666 210.041 36.2129 203.502Z" fill="#58BF90" stroke="#329467"/>
<path d="M36.2129 211.502L35.4215 209L27.1831 212.467C22.68 214.365 23.135 218.126 24.2311 222C28.6234 220.145 38.2666 218.041 36.2129 211.502Z" fill="#58BF90" stroke="#329467"/>
<path d="M36.2129 219.502L35.4215 217L27.1831 220.467C22.68 222.365 23.135 226.126 24.2311 230C28.6234 228.145 38.2666 226.041 36.2129 219.502Z" fill="#58BF90" stroke="#329467"/>
<path d="M14.7621 198.872C14.6624 198.523 14.6126 198.374 14.6126 198.374C12.7187 199.47 11.4229 201.812 11.373 204.354C11.373 210.511 17.9912 213.9 23.5836 212.428C24.0321 212.329 24.381 212.229 24.6302 212.129C24.8794 212.029 25.0289 211.98 25.0289 211.98C24.6912 206.238 16.5082 204.983 14.7621 198.872Z" fill="#58BF90" stroke="#329467"/>
<path d="M25.0309 211.93C25.0309 211.93 24.8814 211.98 24.6322 212.079C24.383 212.179 24.0341 212.279 23.5856 212.378C22.6885 212.578 21.3927 212.727 19.9972 212.628C19.2995 212.578 18.6515 212.428 17.9538 212.229C17.3059 212.03 16.7078 211.78 16.1596 211.581C15.6612 211.332 15.2126 211.083 14.9136 210.933C14.6146 210.734 14.4152 210.634 14.4152 210.634C14.2657 211.182 14.2159 211.731 14.166 212.329C14.166 212.927 14.2657 213.525 14.465 214.173C14.6146 214.771 14.9136 215.369 15.2126 215.917C15.5117 216.465 15.9602 216.964 16.4088 217.462C16.8573 217.911 17.3557 218.309 17.9039 218.658C18.4522 219.007 19.0004 219.256 19.5985 219.456C20.1965 219.655 20.7448 219.755 21.3428 219.804C21.9409 219.854 22.4892 219.755 22.9876 219.655C22.9876 219.655 23.1869 219.605 23.4859 219.505C23.8348 219.406 24.2833 219.256 24.8316 219.107C25.8782 218.708 27.2238 218.06 28.3203 217.263C28.8685 216.864 29.3669 216.415 29.8155 216.017C30.264 215.568 30.6129 215.169 30.8621 214.771C31.4103 213.973 31.6595 213.475 31.6595 213.475C30.563 212.229 29.7158 211.531 28.719 211.332C27.7223 211.132 26.5759 211.332 25.0309 211.93Z" fill="#58BF90" stroke="#329467"/>
<path d="M31.6583 213.525C31.6583 213.525 31.4091 214.023 30.8609 214.821C30.5618 215.169 30.213 215.618 29.8142 216.066C29.3657 216.465 28.8673 216.914 28.3191 217.312C27.2226 218.11 25.877 218.758 24.8303 219.157C24.2821 219.356 23.8336 219.505 23.4847 219.555C23.1358 219.655 22.9863 219.655 22.9863 219.655C23.2355 220.153 23.5843 220.602 23.9332 221.001C24.3319 221.449 24.7805 221.798 25.2789 222.097C25.7773 222.446 26.3255 222.695 26.9236 222.894C27.5216 223.094 28.1197 223.193 28.7676 223.293C30.0136 223.393 31.3593 223.193 32.5056 222.745C33.6519 222.247 34.6486 221.549 35.2965 220.602C35.2965 220.602 35.3962 220.452 35.5956 220.153C35.7949 219.904 36.0441 219.406 36.2933 218.907C36.8415 217.911 37.3399 216.465 37.5393 215.12C37.7386 213.774 37.6888 212.478 37.4895 211.531C37.3898 211.083 37.2901 210.684 37.2403 210.435C37.1406 210.185 37.0907 210.036 37.0907 210.036C35.446 210.036 34.2998 210.136 33.5522 210.634C33.3528 210.734 33.2033 210.883 33.004 211.083C32.8544 211.232 32.7049 211.431 32.5554 211.681C32.4059 211.88 32.2563 212.179 32.1068 212.478C32.0071 212.827 31.8576 213.126 31.6583 213.525Z" fill="#58BF90" stroke="#329467"/>
<path d="M37.1868 210.135C37.1868 210.135 37.2366 210.285 37.3363 210.534C37.3861 210.783 37.4858 211.132 37.5855 211.631C37.735 212.528 37.8347 213.824 37.6353 215.219C37.436 216.565 36.9376 218.01 36.3894 219.007C36.1402 219.505 35.8412 219.954 35.6917 220.253C35.4923 220.552 35.3926 220.701 35.3926 220.701C35.6418 220.801 35.9408 220.901 36.2399 220.951C36.5389 221 36.8379 221 37.1369 221.05C37.436 221.05 37.735 221.05 38.0839 221.05C38.3829 221 38.682 220.951 38.981 220.901C40.1772 220.602 41.3733 220.004 42.37 219.156C43.3668 218.309 44.1144 217.213 44.563 216.116C45.0115 214.97 45.1611 213.774 44.9617 212.677C44.9617 212.677 44.9118 212.478 44.862 212.129C44.8121 211.78 44.6627 211.332 44.5131 210.783C44.1643 209.687 43.5662 208.341 42.7688 207.195C41.9713 206.049 40.9746 205.201 40.227 204.653C39.8283 204.404 39.5292 204.205 39.28 204.055C39.0308 203.906 38.9312 203.856 38.9312 203.856C37.7351 205.002 37.0373 205.849 36.8379 206.697C36.4392 207.444 36.6884 208.541 37.1868 210.135Z" fill="#58BF90" stroke="#329467"/>
<path d="M44.7142 212.029C44.764 212.378 44.8138 212.578 44.8138 212.578C45.8106 212.129 46.7078 211.282 47.4055 210.235C48.1033 209.189 48.5019 207.893 48.6016 206.597C48.7013 205.301 48.5019 203.956 48.0035 202.859C45.9306 198.091 42.9894 196.427 36.7663 197.647C35.5058 199.965 35.4441 200.866 35.8927 201.663C38.5979 205.871 43.6459 205.62 44.7142 212.029Z" fill="#58BF90" stroke="#329467"/>
<path d="M36.0456 165.452C35.597 164.306 34.6002 163.159 33.3044 162.462C32.0086 161.714 30.5135 161.365 29.0681 161.365C22.5428 161.478 20.1119 168.935 21.8913 174.274C22.0408 174.722 22.1904 175.071 22.29 175.32C22.3897 175.569 22.4395 175.719 22.4395 175.719C24.0842 175.47 25.2305 175.171 25.9282 174.573C30.0917 171.45 29.427 165.452 36.0456 165.452Z" fill="#58BF90" stroke="#329467"/>
<path d="M41.6214 170.205C41.5446 168.976 40.9458 167.58 39.9252 166.52C38.9198 165.412 37.6028 164.623 36.2266 164.182C30.2519 162.377 24.3367 168.397 26.484 174.147C35.9625 177.68 35.5165 168.246 41.6214 170.205Z" fill="#58BF90" stroke="#329467"/>
<path d="M22.2864 166.15C22.3861 165.951 22.4858 165.751 22.5356 165.552C22.6851 165.253 22.7848 165.053 22.7848 165.053C21.6883 164.854 20.4424 165.004 19.2961 165.502C18.1498 165.951 17.0533 166.748 16.2559 167.695C12.6562 172.195 15.0844 178.254 19.3459 181.45C19.5452 181.6 19.7945 181.75 19.9938 181.899C20.3925 182.148 20.6915 182.348 20.9407 182.447C21.1899 182.547 21.3394 182.597 21.3394 182.597C22.4857 181.401 23.1336 180.504 23.333 179.457C24.0136 174.919 21.0068 171.268 22.2864 166.15Z" fill="#58BF90" stroke="#329467"/>
<path d="M35.4948 174.124C35.4948 174.124 35.6443 174.074 35.8935 173.975C36.1427 173.875 36.4916 173.775 36.9402 173.725C37.8373 173.526 39.1331 173.526 40.4787 173.775C41.8244 174.025 43.2199 174.573 44.2167 175.071C44.7151 175.32 45.1138 175.57 45.4128 175.769C45.7118 175.968 45.8613 176.068 45.8613 176.068C46.26 175.021 46.3099 173.825 46.0607 172.629C45.8115 171.433 45.2134 170.187 44.3661 169.19C43.5189 168.144 42.4225 167.346 41.2263 166.848C40.0302 166.349 38.7344 166.2 37.5881 166.399C37.5881 166.399 37.3887 166.449 37.0398 166.499C36.691 166.599 36.1926 166.698 35.6443 166.947C35.0961 167.147 34.4482 167.446 33.8501 167.844C33.2521 168.243 32.7039 168.692 32.2055 169.19C31.2585 170.187 30.8099 171.383 30.6604 172.23C30.6106 172.679 30.6106 172.978 30.6604 173.227C30.7103 173.476 30.7103 173.576 30.7103 173.576C31.9064 174.423 32.355 175.071 32.7039 175.071C32.8534 175.071 33.2022 174.971 33.6009 174.772C34.2987 174.623 34.8968 174.373 35.4948 174.124Z" fill="#58BF90" stroke="#329467"/>
<path d="M36.2129 155.502L35.4215 153L27.1831 156.467C22.68 158.365 23.135 162.126 24.2311 166C28.6234 164.145 38.2666 162.041 36.2129 155.502Z" fill="#58BF90" stroke="#329467"/>
<path d="M36.2129 163.502L35.4215 161L27.1831 164.467C22.68 166.365 23.135 170.126 24.2311 174C28.6234 172.145 38.2666 170.041 36.2129 163.502Z" fill="#58BF90" stroke="#329467"/>
<path d="M36.2129 171.502L35.4215 169L27.1831 172.467C22.68 174.365 23.135 178.126 24.2311 182C28.6234 180.145 38.2666 178.041 36.2129 171.502Z" fill="#58BF90" stroke="#329467"/>
<path d="M36.2129 179.502L35.4215 177L27.1831 180.467C22.68 182.365 23.135 186.126 24.2311 190C28.6234 188.145 38.2666 186.041 36.2129 179.502Z" fill="#58BF90" stroke="#329467"/>
<path d="M36.2129 187.502L35.4215 185L27.1831 188.467C22.68 190.365 23.135 194.126 24.2311 198C28.6234 196.145 38.2666 194.041 36.2129 187.502Z" fill="#58BF90" stroke="#329467"/>
<path d="M36.2129 195.502L35.4215 193L27.1831 196.467C22.68 198.365 23.135 202.126 24.2311 206C28.6234 204.145 38.2666 202.041 36.2129 195.502Z" fill="#58BF90" stroke="#329467"/>
<path d="M14.7621 174.872C14.6624 174.523 14.6126 174.374 14.6126 174.374C12.7187 175.47 11.4229 177.812 11.373 180.354C11.373 186.511 17.9912 189.9 23.5836 188.428C24.0321 188.329 24.381 188.229 24.6302 188.129C24.8794 188.029 25.0289 187.98 25.0289 187.98C24.6912 182.238 16.5082 180.983 14.7621 174.872Z" fill="#58BF90" stroke="#329467"/>
<path d="M25.0309 187.93C25.0309 187.93 24.8814 187.98 24.6322 188.079C24.383 188.179 24.0341 188.279 23.5856 188.378C22.6885 188.578 21.3927 188.727 19.9972 188.628C19.2995 188.578 18.6515 188.428 17.9538 188.229C17.3059 188.03 16.7078 187.78 16.1596 187.581C15.6612 187.332 15.2126 187.083 14.9136 186.933C14.6146 186.734 14.4152 186.634 14.4152 186.634C14.2657 187.182 14.2159 187.731 14.166 188.329C14.166 188.927 14.2657 189.525 14.465 190.173C14.6146 190.771 14.9136 191.369 15.2126 191.917C15.5117 192.465 15.9602 192.964 16.4088 193.462C16.8573 193.911 17.3557 194.309 17.9039 194.658C18.4522 195.007 19.0004 195.256 19.5985 195.456C20.1965 195.655 20.7448 195.755 21.3428 195.804C21.9409 195.854 22.4892 195.755 22.9876 195.655C22.9876 195.655 23.1869 195.605 23.4859 195.505C23.8348 195.406 24.2833 195.256 24.8316 195.107C25.8782 194.708 27.2238 194.06 28.3203 193.263C28.8685 192.864 29.3669 192.415 29.8155 192.017C30.264 191.568 30.6129 191.169 30.8621 190.771C31.4103 189.973 31.6595 189.475 31.6595 189.475C30.563 188.229 29.7158 187.531 28.719 187.332C27.7223 187.132 26.5759 187.332 25.0309 187.93Z" fill="#58BF90" stroke="#329467"/>
<path d="M31.6583 189.525C31.6583 189.525 31.4091 190.023 30.8609 190.821C30.5618 191.169 30.213 191.618 29.8142 192.066C29.3657 192.465 28.8673 192.914 28.3191 193.312C27.2226 194.11 25.877 194.758 24.8303 195.157C24.2821 195.356 23.8336 195.505 23.4847 195.555C23.1358 195.655 22.9863 195.655 22.9863 195.655C23.2355 196.153 23.5843 196.602 23.9332 197.001C24.3319 197.449 24.7805 197.798 25.2789 198.097C25.7773 198.446 26.3255 198.695 26.9236 198.894C27.5216 199.094 28.1197 199.193 28.7676 199.293C30.0136 199.393 31.3593 199.193 32.5056 198.745C33.6519 198.247 34.6486 197.549 35.2965 196.602C35.2965 196.602 35.3962 196.452 35.5956 196.153C35.7949 195.904 36.0441 195.406 36.2933 194.907C36.8415 193.911 37.3399 192.465 37.5393 191.12C37.7386 189.774 37.6888 188.478 37.4895 187.531C37.3898 187.083 37.2901 186.684 37.2403 186.435C37.1406 186.185 37.0907 186.036 37.0907 186.036C35.446 186.036 34.2998 186.136 33.5522 186.634C33.3528 186.734 33.2033 186.883 33.004 187.083C32.8544 187.232 32.7049 187.431 32.5554 187.681C32.4059 187.88 32.2563 188.179 32.1068 188.478C32.0071 188.827 31.8576 189.126 31.6583 189.525Z" fill="#58BF90" stroke="#329467"/>
<path d="M37.1868 186.135C37.1868 186.135 37.2366 186.285 37.3363 186.534C37.3861 186.783 37.4858 187.132 37.5855 187.631C37.735 188.528 37.8347 189.824 37.6353 191.219C37.436 192.565 36.9376 194.01 36.3894 195.007C36.1402 195.505 35.8412 195.954 35.6917 196.253C35.4923 196.552 35.3926 196.701 35.3926 196.701C35.6418 196.801 35.9408 196.901 36.2399 196.951C36.5389 197 36.8379 197 37.1369 197.05C37.436 197.05 37.735 197.05 38.0839 197.05C38.3829 197 38.682 196.951 38.981 196.901C40.1772 196.602 41.3733 196.004 42.37 195.156C43.3668 194.309 44.1144 193.213 44.563 192.116C45.0115 190.97 45.1611 189.774 44.9617 188.677C44.9617 188.677 44.9118 188.478 44.862 188.129C44.8121 187.78 44.6627 187.332 44.5131 186.783C44.1643 185.687 43.5662 184.341 42.7688 183.195C41.9713 182.049 40.9746 181.201 40.227 180.653C39.8283 180.404 39.5292 180.205 39.28 180.055C39.0308 179.906 38.9312 179.856 38.9312 179.856C37.7351 181.002 37.0373 181.849 36.8379 182.697C36.4392 183.444 36.6884 184.541 37.1868 186.135Z" fill="#58BF90" stroke="#329467"/>
<path d="M44.7142 188.029C44.764 188.378 44.8138 188.578 44.8138 188.578C45.8106 188.129 46.7078 187.282 47.4055 186.235C48.1033 185.189 48.5019 183.893 48.6016 182.597C48.7013 181.301 48.5019 179.956 48.0035 178.859C45.9306 174.091 42.9894 172.427 36.7663 173.647C35.5058 175.965 35.4441 176.866 35.8927 177.663C38.5979 181.871 43.6459 181.62 44.7142 188.029Z" fill="#58BF90" stroke="#329467"/>
<path d="M36.0456 141.452C35.597 140.306 34.6002 139.159 33.3044 138.462C32.0086 137.714 30.5135 137.365 29.0681 137.365C22.5428 137.478 20.1119 144.935 21.8913 150.274C22.0408 150.722 22.1904 151.071 22.29 151.32C22.3897 151.569 22.4395 151.719 22.4395 151.719C24.0842 151.47 25.2305 151.171 25.9282 150.573C30.0917 147.45 29.427 141.452 36.0456 141.452Z" fill="#58BF90" stroke="#329467"/>
<path d="M41.6214 146.205C41.5446 144.976 40.9458 143.58 39.9252 142.52C38.9198 141.412 37.6028 140.623 36.2266 140.182C30.2519 138.377 24.3367 144.397 26.484 150.147C35.9625 153.68 35.5165 144.246 41.6214 146.205Z" fill="#58BF90" stroke="#329467"/>
<path d="M22.2864 142.15C22.3861 141.951 22.4858 141.751 22.5356 141.552C22.6851 141.253 22.7848 141.053 22.7848 141.053C21.6883 140.854 20.4424 141.004 19.2961 141.502C18.1498 141.951 17.0533 142.748 16.2559 143.695C12.6562 148.195 15.0844 154.254 19.3459 157.45C19.5452 157.6 19.7945 157.75 19.9938 157.899C20.3925 158.148 20.6915 158.348 20.9407 158.447C21.1899 158.547 21.3394 158.597 21.3394 158.597C22.4857 157.401 23.1336 156.504 23.333 155.457C24.0136 150.919 21.0068 147.268 22.2864 142.15Z" fill="#58BF90" stroke="#329467"/>
<path d="M35.4948 150.124C35.4948 150.124 35.6443 150.074 35.8935 149.975C36.1427 149.875 36.4916 149.775 36.9402 149.725C37.8373 149.526 39.1331 149.526 40.4787 149.775C41.8244 150.025 43.2199 150.573 44.2167 151.071C44.7151 151.32 45.1138 151.57 45.4128 151.769C45.7118 151.968 45.8613 152.068 45.8613 152.068C46.26 151.021 46.3099 149.825 46.0607 148.629C45.8115 147.433 45.2134 146.187 44.3661 145.19C43.5189 144.144 42.4225 143.346 41.2263 142.848C40.0302 142.349 38.7344 142.2 37.5881 142.399C37.5881 142.399 37.3887 142.449 37.0398 142.499C36.691 142.599 36.1926 142.698 35.6443 142.947C35.0961 143.147 34.4482 143.446 33.8501 143.844C33.2521 144.243 32.7039 144.692 32.2055 145.19C31.2585 146.187 30.8099 147.383 30.6604 148.23C30.6106 148.679 30.6106 148.978 30.6604 149.227C30.7103 149.476 30.7103 149.576 30.7103 149.576C31.9064 150.423 32.355 151.071 32.7039 151.071C32.8534 151.071 33.2022 150.971 33.6009 150.772C34.2987 150.623 34.8968 150.373 35.4948 150.124Z" fill="#58BF90" stroke="#329467"/>
<path d="M36.2129 131.502L35.4215 129L27.1831 132.467C22.68 134.365 23.135 138.126 24.2311 142C28.6234 140.145 38.2666 138.041 36.2129 131.502Z" fill="#58BF90" stroke="#329467"/>
<path d="M36.2129 139.502L35.4215 137L27.1831 140.467C22.68 142.365 23.135 146.126 24.2311 150C28.6234 148.145 38.2666 146.041 36.2129 139.502Z" fill="#58BF90" stroke="#329467"/>
<path d="M36.2129 147.502L35.4215 145L27.1831 148.467C22.68 150.365 23.135 154.126 24.2311 158C28.6234 156.145 38.2666 154.041 36.2129 147.502Z" fill="#58BF90" stroke="#329467"/>
<path d="M36.2129 155.502L35.4215 153L27.1831 156.467C22.68 158.365 23.135 162.126 24.2311 166C28.6234 164.145 38.2666 162.041 36.2129 155.502Z" fill="#58BF90" stroke="#329467"/>
<path d="M36.2129 163.502L35.4215 161L27.1831 164.467C22.68 166.365 23.135 170.126 24.2311 174C28.6234 172.145 38.2666 170.041 36.2129 163.502Z" fill="#58BF90" stroke="#329467"/>
<path d="M36.2129 171.502L35.4215 169L27.1831 172.467C22.68 174.365 23.135 178.126 24.2311 182C28.6234 180.145 38.2666 178.041 36.2129 171.502Z" fill="#58BF90" stroke="#329467"/>
<path d="M14.7621 150.872C14.6624 150.523 14.6126 150.374 14.6126 150.374C12.7187 151.47 11.4229 153.812 11.373 156.354C11.373 162.511 17.9912 165.9 23.5836 164.428C24.0321 164.329 24.381 164.229 24.6302 164.129C24.8794 164.029 25.0289 163.98 25.0289 163.98C24.6912 158.238 16.5082 156.983 14.7621 150.872Z" fill="#58BF90" stroke="#329467"/>
<path d="M25.0309 163.93C25.0309 163.93 24.8814 163.98 24.6322 164.079C24.383 164.179 24.0341 164.279 23.5856 164.378C22.6885 164.578 21.3927 164.727 19.9972 164.628C19.2995 164.578 18.6515 164.428 17.9538 164.229C17.3059 164.03 16.7078 163.78 16.1596 163.581C15.6612 163.332 15.2126 163.083 14.9136 162.933C14.6146 162.734 14.4152 162.634 14.4152 162.634C14.2657 163.182 14.2159 163.731 14.166 164.329C14.166 164.927 14.2657 165.525 14.465 166.173C14.6146 166.771 14.9136 167.369 15.2126 167.917C15.5117 168.465 15.9602 168.964 16.4088 169.462C16.8573 169.911 17.3557 170.309 17.9039 170.658C18.4522 171.007 19.0004 171.256 19.5985 171.456C20.1965 171.655 20.7448 171.755 21.3428 171.804C21.9409 171.854 22.4892 171.755 22.9876 171.655C22.9876 171.655 23.1869 171.605 23.4859 171.505C23.8348 171.406 24.2833 171.256 24.8316 171.107C25.8782 170.708 27.2238 170.06 28.3203 169.263C28.8685 168.864 29.3669 168.415 29.8155 168.017C30.264 167.568 30.6129 167.169 30.8621 166.771C31.4103 165.973 31.6595 165.475 31.6595 165.475C30.563 164.229 29.7158 163.531 28.719 163.332C27.7223 163.132 26.5759 163.332 25.0309 163.93Z" fill="#58BF90" stroke="#329467"/>
<path d="M31.6583 165.525C31.6583 165.525 31.4091 166.023 30.8609 166.821C30.5618 167.169 30.213 167.618 29.8142 168.066C29.3657 168.465 28.8673 168.914 28.3191 169.312C27.2226 170.11 25.877 170.758 24.8303 171.157C24.2821 171.356 23.8336 171.505 23.4847 171.555C23.1358 171.655 22.9863 171.655 22.9863 171.655C23.2355 172.153 23.5843 172.602 23.9332 173.001C24.3319 173.449 24.7805 173.798 25.2789 174.097C25.7773 174.446 26.3255 174.695 26.9236 174.894C27.5216 175.094 28.1197 175.193 28.7676 175.293C30.0136 175.393 31.3593 175.193 32.5056 174.745C33.6519 174.247 34.6486 173.549 35.2965 172.602C35.2965 172.602 35.3962 172.452 35.5956 172.153C35.7949 171.904 36.0441 171.406 36.2933 170.907C36.8415 169.911 37.3399 168.465 37.5393 167.12C37.7386 165.774 37.6888 164.478 37.4895 163.531C37.3898 163.083 37.2901 162.684 37.2403 162.435C37.1406 162.185 37.0907 162.036 37.0907 162.036C35.446 162.036 34.2998 162.136 33.5522 162.634C33.3528 162.734 33.2033 162.883 33.004 163.083C32.8544 163.232 32.7049 163.431 32.5554 163.681C32.4059 163.88 32.2563 164.179 32.1068 164.478C32.0071 164.827 31.8576 165.126 31.6583 165.525Z" fill="#58BF90" stroke="#329467"/>
<path d="M37.1868 162.135C37.1868 162.135 37.2366 162.285 37.3363 162.534C37.3861 162.783 37.4858 163.132 37.5855 163.631C37.735 164.528 37.8347 165.824 37.6353 167.219C37.436 168.565 36.9376 170.01 36.3894 171.007C36.1402 171.505 35.8412 171.954 35.6917 172.253C35.4923 172.552 35.3926 172.701 35.3926 172.701C35.6418 172.801 35.9408 172.901 36.2399 172.951C36.5389 173 36.8379 173 37.1369 173.05C37.436 173.05 37.735 173.05 38.0839 173.05C38.3829 173 38.682 172.951 38.981 172.901C40.1772 172.602 41.3733 172.004 42.37 171.156C43.3668 170.309 44.1144 169.213 44.563 168.116C45.0115 166.97 45.1611 165.774 44.9617 164.677C44.9617 164.677 44.9118 164.478 44.862 164.129C44.8121 163.78 44.6627 163.332 44.5131 162.783C44.1643 161.687 43.5662 160.341 42.7688 159.195C41.9713 158.049 40.9746 157.201 40.227 156.653C39.8283 156.404 39.5292 156.205 39.28 156.055C39.0308 155.906 38.9312 155.856 38.9312 155.856C37.7351 157.002 37.0373 157.849 36.8379 158.697C36.4392 159.444 36.6884 160.541 37.1868 162.135Z" fill="#58BF90" stroke="#329467"/>
<path d="M44.7142 164.029C44.764 164.378 44.8138 164.578 44.8138 164.578C45.8106 164.129 46.7078 163.282 47.4055 162.235C48.1033 161.189 48.5019 159.893 48.6016 158.597C48.7013 157.301 48.5019 155.956 48.0035 154.859C45.9306 150.091 42.9894 148.427 36.7663 149.647C35.5058 151.965 35.4441 152.866 35.8927 153.663C38.5979 157.871 43.6459 157.62 44.7142 164.029Z" fill="#58BF90" stroke="#329467"/>
<path d="M36.2168 227.502L35.4254 225L27.187 228.467C22.6839 230.365 23.1389 234.126 24.235 238C28.6273 236.145 38.2705 234.041 36.2168 227.502Z" fill="#58BF90" stroke="#329467"/>
<path d="M36.2168 235.502L35.4254 233L27.187 236.467C22.6839 238.365 23.1389 242.126 24.235 246C28.6273 244.145 38.2705 242.041 36.2168 235.502Z" fill="#58BF90" stroke="#329467"/>
<path d="M36.2168 243.502L35.4254 241L27.187 244.467C22.6839 246.365 23.1389 250.126 24.235 254C28.6273 252.145 38.2705 250.041 36.2168 243.502Z" fill="#58BF90" stroke="#329467"/>
<path d="M36.2168 251.502L35.4254 249L27.187 252.467C22.6839 254.365 23.1389 258.126 24.235 262C28.6273 260.145 38.2705 258.041 36.2168 251.502Z" fill="#58BF90" stroke="#329467"/>
<path d="M36.2168 259.502L35.4254 257L27.187 260.467C22.6839 262.365 23.1389 266.126 24.235 270C28.6273 268.145 38.2705 266.041 36.2168 259.502Z" fill="#58BF90" stroke="#329467"/>
<path d="M36.2168 267.502L35.4254 265L27.187 268.467C22.6839 270.365 23.1389 274.126 24.235 278C28.6273 276.145 38.2705 274.041 36.2168 267.502Z" fill="#58BF90" stroke="#329467"/>
<path d="M36.2168 275.502L35.4254 273L27.187 276.467C22.6839 278.365 23.1389 282.126 24.235 286C28.6273 284.145 38.2705 282.041 36.2168 275.502Z" fill="#58BF90" stroke="#329467"/>
<path d="M36.2168 283.502L35.4254 281L27.187 284.467C22.6839 286.365 23.1389 290.126 24.235 294C28.6273 292.145 38.2705 290.041 36.2168 283.502Z" fill="#58BF90" stroke="#329467"/>
<path d="M36.2168 291.502L35.4254 289L27.187 292.467C22.6839 294.365 23.1389 298.126 24.235 302C28.6273 300.145 38.2705 298.041 36.2168 291.502Z" fill="#58BF90" stroke="#329467"/>
<path d="M36.2168 299.502L35.4254 297L27.187 300.467C22.6839 302.365 23.1389 306.126 24.235 310C28.6273 308.145 38.2705 306.041 36.2168 299.502Z" fill="#58BF90" stroke="#329467"/>
<path d="M36.2168 307.502L35.4254 305L27.187 308.467C22.6839 310.365 23.1389 314.126 24.235 318C28.6273 316.145 38.2705 314.041 36.2168 307.502Z" fill="#58BF90" stroke="#329467"/>
<path d="M36.2168 315.502L35.4254 313L27.187 316.467C22.6839 318.365 23.1389 322.126 24.235 326C28.6273 324.145 38.2705 322.041 36.2168 315.502Z" fill="#58BF90" stroke="#329467"/>
<path d="M36.2168 323.502L35.4254 321L27.187 324.467C22.6839 326.365 23.1389 330.126 24.235 334C28.6273 332.145 38.2705 330.041 36.2168 323.502Z" fill="#58BF90" stroke="#329467"/>
<path d="M36.2168 331.502L35.4254 329L27.187 332.467C22.6839 334.365 23.1389 338.126 24.235 342C28.6273 340.145 38.2705 338.041 36.2168 331.502Z" fill="#58BF90" stroke="#329467"/>
<path d="M36.2168 339.502L35.4254 337L27.187 340.467C22.6839 342.365 23.1389 346.126 24.235 350C28.6273 348.145 38.2705 346.041 36.2168 339.502Z" fill="#58BF90" stroke="#329467"/>
<path d="M36.2168 347.502L35.4254 345L27.187 348.467C22.6839 350.365 23.1389 354.126 24.235 358C28.6273 356.145 38.2705 354.041 36.2168 347.502Z" fill="#58BF90" stroke="#329467"/>
<path d="M36.2168 355.502L35.4254 353L27.187 356.467C22.6839 358.365 23.1389 362.126 24.235 366C28.6273 364.145 38.2705 362.041 36.2168 355.502Z" fill="#58BF90" stroke="#329467"/>
<path d="M36.2168 363.502L35.4254 361L27.187 364.467C22.6839 366.365 23.1389 370.126 24.235 374C28.6273 372.145 38.2705 370.041 36.2168 363.502Z" fill="#58BF90" stroke="#329467"/>
<path d="M36.2168 371.502L35.4254 369L27.187 372.467C22.6839 374.365 23.1389 378.126 24.235 382C28.6273 380.145 38.2705 378.041 36.2168 371.502Z" fill="#58BF90" stroke="#329467"/>
<path d="M27.1712 342.486L24.583 342.05L26.8696 333.409C28.1225 328.686 31.9106 328.613 35.8991 329.159C34.6729 333.767 33.9321 343.609 27.1712 342.486Z" fill="#58BF90" stroke="#329467"/>
<path d="M35.094 341.373L32.5059 340.937L34.7925 332.297C36.0454 327.573 40.811 327.292 42.4024 329.19C43.9938 331.088 41.855 342.497 35.094 341.373Z" fill="#58BF90" stroke="#329467"/>
<path d="M25.1403 330.186L27.7285 330.622L25.4419 339.263C24.1889 343.986 19.4233 344.267 17.8319 342.369C16.2405 340.471 18.3794 329.063 25.1403 330.186Z" fill="#58BF90" stroke="#329467"/>
<path d="M27.1722 354.486L24.584 354.051L26.8706 345.41C28.1235 340.686 31.9116 340.613 35.9001 341.16C34.6739 345.768 33.9331 355.61 27.1722 354.486Z" fill="#58BF90" stroke="#329467"/>
<path d="M35.096 353.373L32.5078 352.938L34.7944 344.297C36.0473 339.573 40.813 339.292 42.4044 341.191C43.9958 343.089 41.8569 354.497 35.096 353.373Z" fill="#58BF90" stroke="#329467"/>
<path d="M25.1413 342.186L27.7295 342.622L25.4428 351.263C24.1899 355.986 19.4243 356.267 17.8329 354.369C16.2415 352.471 18.3803 341.063 25.1413 342.186Z" fill="#58BF90" stroke="#329467"/>
<path d="M27.1722 366.486L24.584 366.051L26.8706 357.41C28.1235 352.686 31.9116 352.613 35.9001 353.16C34.6739 357.768 33.9331 367.61 27.1722 366.486Z" fill="#58BF90" stroke="#329467"/>
<path d="M35.096 365.373L32.5078 364.938L34.7944 356.297C36.0473 351.573 40.813 351.292 42.4044 353.191C43.9958 355.089 41.8569 366.497 35.096 365.373Z" fill="#58BF90" stroke="#329467"/>
<path d="M25.1413 354.186L27.7295 354.622L25.4428 363.263C24.1899 367.986 19.4243 368.267 17.8329 366.369C16.2415 364.471 18.3803 353.063 25.1413 354.186Z" fill="#58BF90" stroke="#329467"/>
<path d="M36.2168 379.502L35.4254 377L27.187 380.467C22.6839 382.365 23.1389 386.126 24.235 390C28.6273 388.145 38.2705 386.041 36.2168 379.502Z" fill="#58BF90" stroke="#329467"/>
<path d="M36.2168 387.502L35.4254 385L27.187 388.467C22.6839 390.365 23.1389 394.126 24.235 398C28.6273 396.145 38.2705 394.041 36.2168 387.502Z" fill="#58BF90" stroke="#329467"/>
<path d="M36.2168 395.502L35.4254 393L27.187 396.467C22.6839 398.365 23.1389 402.126 24.235 406C28.6273 404.145 38.2705 402.041 36.2168 395.502Z" fill="#58BF90" stroke="#329467"/>
<path d="M36.2168 403.502L35.4254 401L27.187 404.467C22.6839 406.365 23.1389 410.126 24.235 414C28.6273 412.145 38.2705 410.041 36.2168 403.502Z" fill="#58BF90" stroke="#329467"/>
<path d="M36.2168 411.502L35.4254 409L27.187 412.467C22.6839 414.365 23.1389 418.126 24.235 422C28.6273 420.145 38.2705 418.041 36.2168 411.502Z" fill="#58BF90" stroke="#329467"/>
<path d="M36.2168 419.502L35.4254 417L27.187 420.467C22.6839 422.365 23.1389 426.126 24.235 430C28.6273 428.145 38.2705 426.041 36.2168 419.502Z" fill="#58BF90" stroke="#329467"/>
<path d="M36.2168 427.502L35.4254 425L27.187 428.467C22.6839 430.365 23.1389 434.126 24.235 438C28.6273 436.145 38.2705 434.041 36.2168 427.502Z" fill="#58BF90" stroke="#329467"/>
<path d="M36.2168 435.502L35.4254 433L27.187 436.467C22.6839 438.365 23.1389 442.126 24.235 446C28.6273 444.145 38.2705 442.041 36.2168 435.502Z" fill="#58BF90" stroke="#329467"/>
<path d="M36.2168 443.502L35.4254 441L27.187 444.467C22.6839 446.365 23.1389 450.126 24.235 454C28.6273 452.145 38.2705 450.041 36.2168 443.502Z" fill="#58BF90" stroke="#329467"/>
<path d="M23.0071 476.328C22.6967 481.337 22.076 486.336 21.1054 491.28C21.1054 491.317 21.0941 491.335 21.0941 491.353C20.5607 493.959 22.3912 493.752 24.1696 493.752C25.2362 489.387 26.1278 483.322 26.2181 477.992C26.2181 477.992 26.7824 483.009 25.3377 491.942C25.4167 492.511 25.5296 493.191 25.7384 493.752H27.5668C28.2665 487.282 28.7462 479.609 28.8139 472.312C28.8478 473.434 29.0961 481.41 28.0859 493.752H31.1107L31.4888 492.383L31.7766 491.381C31.7709 491.372 31.7709 491.353 31.7709 491.335C31.5395 488.054 31.3985 485.178 31.3025 482.706C31.0373 475.841 31.2292 472.184 31.2292 472.184C31.28 479.379 31.7483 486.942 32.4481 494L35.0044 493.752C33.2438 483.882 33.7799 478.341 33.8194 478.001C33.9435 485.187 35.3035 491.409 35.9356 493.963L37.8824 493.752C38.6443 493.743 39.1804 492.539 38.9434 491.326C37.9671 486.373 37.3407 481.346 37.036 476.328C36.2299 464.515 23.9939 460.729 23.0071 476.328Z" fill="#58BF90" stroke="#329467"/>
<path d="M36.2168 451.502L35.4254 449L27.187 452.467C22.6839 454.365 23.1389 458.126 24.235 462C28.6273 460.145 38.2705 458.041 36.2168 451.502Z" fill="#58BF90" stroke="#329467"/>
<path d="M32.7314 460.032C33.8986 460.419 35.0383 460.918 35.9533 461.397C36.8684 461.877 37.4181 462.286 37.4181 462.286C37.6668 461.583 37.6479 460.722 37.4189 459.939C35.6612 452.433 26.231 453.714 24.0038 458.041C23.7123 458.608 23.5742 459.016 23.5742 459.016C24.8563 459.87 26.9508 461.661 27.6532 461.759C28.0185 461.829 28.2706 461.736 28.5648 461.628C29.9633 460.603 30.6271 459.335 32.7314 460.032Z" fill="#58BF90" stroke="#329467"/>
<path d="M38.2047 468.398C41.0786 466.057 41.0304 462.474 38.2045 458.935C35.3785 455.395 29.4571 457.569 27.5224 463.741C28.879 467.21 36.9374 465.423 38.2047 468.398Z" fill="#58BF90" stroke="#329467"/>
<path d="M26.5588 457.076C26.6126 456.58 26.6664 456.134 26.7202 455.837C26.8277 455.539 26.8277 455.341 26.8277 455.341C25.6984 455.44 24.6228 455.985 23.7086 456.68C19.1602 460.38 21.5462 465.56 25.6984 468.381C26.7202 469.075 27.7957 469.471 28.6024 469.67C28.9788 469.769 29.3553 469.819 29.5704 469.868C29.7855 469.918 29.9468 469.918 29.9468 469.918C32.7474 465.151 26.2881 462.068 26.5588 457.076Z" fill="#58BF90" stroke="#329467"/>
<path d="M29.0622 465.826C29.0622 465.826 28.9008 465.826 28.6857 465.771C28.4706 465.717 28.148 465.662 27.7177 465.552C26.9111 465.333 25.8355 464.841 24.8137 464.129C23.7919 463.418 22.8777 462.432 22.2324 461.611C21.5871 460.79 21.2106 460.188 21.2106 460.188C20.5115 460.9 20.0275 461.83 19.8124 462.87C19.5435 463.91 19.5435 465.114 19.8662 466.319C20.135 467.468 20.7266 468.618 21.5333 469.494C22.34 470.369 23.3079 470.971 24.2759 471.245C24.2759 471.245 24.4373 471.3 24.76 471.355C25.0826 471.409 25.5128 471.519 26.0506 471.574C27.1262 471.683 28.4706 471.628 29.7075 471.3C30.9444 470.971 31.8586 470.315 32.4502 469.712C32.7191 469.439 32.9342 469.165 33.0417 469.001C33.1493 468.837 33.2568 468.727 33.2568 468.727C32.6115 467.413 32.5577 466.757 32.02 466.373C31.4284 466.1 30.5142 465.99 29.0622 465.826Z" fill="#58BF90" stroke="#329467"/>
<path d="M29.6174 466.9C29.6174 466.9 29.5346 466.989 29.3334 467.098C29.1836 467.223 28.884 467.474 28.5642 467.604C27.8777 468.021 26.7639 468.363 25.4867 468.311C24.2452 468.328 22.9073 467.914 21.9095 467.491C21.4105 467.28 21.0302 467.048 20.737 466.9C20.4439 466.752 20.3052 466.652 20.3052 466.652C20.0597 467.663 20.1073 468.822 20.5463 469.988C20.9339 471.137 21.713 472.293 22.8073 473.147C23.3466 473.599 23.9172 473.947 24.5705 474.207C24.8636 474.354 25.1724 474.45 25.4811 474.545C25.7898 474.641 26.1142 474.684 26.4386 474.727C27.0873 474.813 27.6644 474.763 28.2415 474.712C28.7827 474.594 29.3396 474.422 29.8092 474.167C29.8092 474.167 29.959 474.042 30.2788 473.912C30.5472 473.766 30.9139 473.479 31.3476 473.155C32.1637 472.492 33.0736 471.515 33.7418 470.406C34.41 469.297 34.8412 468.229 35.0912 467.391C35.2163 466.972 35.2742 466.589 35.3368 466.38C35.3478 466.154 35.3947 465.997 35.3947 465.997C34.0164 465.342 32.9202 465.061 32.0904 465.204C31.2092 465.332 30.6458 465.902 29.6174 466.9Z" fill="#58BF90" stroke="#329467"/>
<path d="M30.472 465.271C30.4718 466.885 30.6217 468.446 30.1883 470.063C29.8656 471.322 29.2741 472.526 28.6825 473.402C28.3598 473.84 28.0909 474.223 27.8758 474.442C27.6607 474.661 27.4994 474.825 27.4994 474.825C28.4674 475.318 29.5967 475.427 30.726 475.318C31.8554 475.154 32.9847 474.771 33.899 474.114C38.5382 470.876 36.8316 465.877 34.4647 463.403C32.5632 462.314 30.9847 463.162 30.472 465.271Z" fill="#58BF90" stroke="#329467"/>
<path d="M35.4512 473.355C39.9189 472.092 40.5418 465.458 36.8751 463.166C33.2085 460.875 30.4585 463.625 30.4598 464.676C35.0443 465.546 36.8745 467.75 35.4512 473.355Z" fill="#58BF90" stroke="#329467"/>
</svg>
