<svg width="60" height="421" viewBox="0 0 60 421" fill="none" xmlns="http://www.w3.org/2000/svg">
<path d="M35.7386 3.3099L35.0081 1L27.4034 4.20024C23.2467 5.95233 23.6667 9.42431 24.6785 13C28.7329 11.2872 37.6343 9.34566 35.7386 3.3099Z" fill="#CEC927" stroke="#ACA824"/>
<path d="M35.7386 10.3099L35.0081 8L27.4034 11.2002C23.2467 12.9523 23.6667 16.4243 24.6785 20C28.7329 18.2872 37.6343 16.3457 35.7386 10.3099Z" fill="#CEC927" stroke="#ACA824"/>
<path d="M35.7386 17.3099L35.0081 15L27.4034 18.2002C23.2467 19.9523 23.6667 23.4243 24.6785 27C28.7329 25.2872 37.6343 23.3457 35.7386 17.3099Z" fill="#CEC927" stroke="#ACA824"/>
<path d="M35.7386 24.3099L35.0081 22L27.4034 25.2002C23.2467 26.9523 23.6667 30.4243 24.6785 34C28.7329 32.2872 37.6343 30.3457 35.7386 24.3099Z" fill="#CEC927" stroke="#ACA824"/>
<path d="M35.7386 31.3099L35.0081 29L27.4034 32.2002C23.2467 33.9523 23.6667 37.4243 24.6785 41C28.7329 39.2872 37.6343 37.3457 35.7386 31.3099Z" fill="#CEC927" stroke="#ACA824"/>
<path d="M35.7386 38.3099L35.0081 36L27.4034 39.2002C23.2467 40.9523 23.6667 44.4243 24.6785 48C28.7329 46.2872 37.6343 44.3457 35.7386 38.3099Z" fill="#CEC927" stroke="#ACA824"/>
<path d="M35.7386 45.3099L35.0081 43L27.4034 46.2002C23.2467 47.9523 23.6667 51.4243 24.6785 55C28.7329 53.2872 37.6343 51.3457 35.7386 45.3099Z" fill="#CEC927" stroke="#ACA824"/>
<path d="M35.7386 52.3099L35.0081 50L27.4034 53.2002C23.2467 54.9523 23.6667 58.4243 24.6785 62C28.7329 60.2872 37.6343 58.3457 35.7386 52.3099Z" fill="#CEC927" stroke="#ACA824"/>
<path d="M35.7386 59.3099L35.0081 57L27.4034 60.2002C23.2467 61.9523 23.6667 65.4243 24.6785 69C28.7329 67.2872 37.6343 65.3457 35.7386 59.3099Z" fill="#CEC927" stroke="#ACA824"/>
<path d="M35.7386 66.3099L35.0081 64L27.4034 67.2002C23.2467 68.9523 23.6667 72.4243 24.6785 76C28.7329 74.2872 37.6343 72.3457 35.7386 66.3099Z" fill="#CEC927" stroke="#ACA824"/>
<path d="M35.7386 73.3099L35.0081 71L27.4034 74.2002C23.2467 75.9523 23.6667 79.4243 24.6785 83C28.7329 81.2872 37.6343 79.3457 35.7386 73.3099Z" fill="#CEC927" stroke="#ACA824"/>
<path d="M35.7386 80.3099L35.0081 78L27.4034 81.2002C23.2467 82.9523 23.6667 86.4243 24.6785 90C28.7329 88.2872 37.6343 86.3457 35.7386 80.3099Z" fill="#CEC927" stroke="#ACA824"/>
<path d="M35.7386 87.3099L35.0081 85L27.4034 88.2002C23.2467 89.9523 23.6667 93.4243 24.6785 97C28.7329 95.2872 37.6343 93.3457 35.7386 87.3099Z" fill="#CEC927" stroke="#ACA824"/>
<path d="M35.4975 145.277C35.0897 144.239 34.1836 143.201 33.0055 142.569C31.8275 141.892 30.4683 141.576 29.1543 141.576C23.2222 141.678 21.0123 148.432 22.63 153.266C22.7659 153.672 22.9018 153.988 22.9924 154.214C23.0831 154.44 23.1283 154.575 23.1283 154.575C24.6235 154.35 25.6656 154.079 26.2999 153.537C30.0849 150.709 29.4806 145.277 35.4975 145.277Z" fill="#CEC927" stroke="#ACA824"/>
<path d="M40.5664 149.581C40.4966 148.469 39.9522 147.204 39.0244 146.244C38.1104 145.241 36.9131 144.526 35.662 144.126C30.2305 142.492 24.8531 147.944 26.8051 153.152C35.422 156.351 35.0165 147.807 40.5664 149.581Z" fill="#CEC927" stroke="#ACA824"/>
<path d="M22.9896 145.909C23.0802 145.728 23.1708 145.548 23.2161 145.367C23.3521 145.096 23.4427 144.916 23.4427 144.916C22.4459 144.735 21.3132 144.871 20.2711 145.322C19.229 145.728 18.2322 146.45 17.5073 147.308C14.2348 151.383 16.4423 156.871 20.3164 159.766C20.4976 159.901 20.7242 160.037 20.9054 160.172C21.2679 160.398 21.5397 160.578 21.7662 160.669C21.9928 160.759 22.1287 160.804 22.1287 160.804C23.1708 159.721 23.7598 158.908 23.941 157.96C24.5598 153.851 21.8263 150.544 22.9896 145.909Z" fill="#CEC927" stroke="#ACA824"/>
<path d="M34.9973 153.131C34.9973 153.131 35.1332 153.086 35.3597 152.995C35.5862 152.905 35.9034 152.815 36.3112 152.77C37.1268 152.589 38.3048 152.589 39.5281 152.815C40.7514 153.04 42.02 153.537 42.9262 153.988C43.3793 154.214 43.7418 154.44 44.0136 154.62C44.2855 154.801 44.4213 154.891 44.4213 154.891C44.7838 153.943 44.8291 152.86 44.6026 151.777C44.376 150.693 43.8323 149.565 43.0621 148.662C42.2918 147.714 41.2951 146.992 40.2077 146.541C39.1203 146.089 37.9423 145.954 36.9002 146.134C36.9002 146.134 36.719 146.18 36.4018 146.225C36.0847 146.315 35.6315 146.405 35.1332 146.631C34.6348 146.812 34.0458 147.082 33.5021 147.443C32.9584 147.805 32.46 148.211 32.0069 148.662C31.1461 149.565 30.7383 150.648 30.6023 151.416C30.557 151.822 30.557 152.093 30.6023 152.318C30.6476 152.544 30.6477 152.634 30.6477 152.634C31.7351 153.402 32.1429 153.988 32.46 153.988C32.5959 153.988 32.9131 153.898 33.2755 153.718C33.9098 153.582 34.4536 153.356 34.9973 153.131Z" fill="#CEC927" stroke="#ACA824"/>
<path d="M35.7357 136.31L35.0052 134L27.4004 137.2C23.2438 138.952 23.6638 142.424 24.6755 146C28.73 144.287 37.6314 142.346 35.7357 136.31Z" fill="#CEC927" stroke="#ACA824"/>
<path d="M35.7357 143.31L35.0052 141L27.4004 144.2C23.2438 145.952 23.6638 149.424 24.6755 153C28.73 151.287 37.6314 149.346 35.7357 143.31Z" fill="#CEC927" stroke="#ACA824"/>
<path d="M35.7357 150.31L35.0052 148L27.4004 151.2C23.2438 152.952 23.6638 156.424 24.6755 160C28.73 158.287 37.6314 156.346 35.7357 150.31Z" fill="#CEC927" stroke="#ACA824"/>
<path d="M35.7357 157.31L35.0052 155L27.4004 158.2C23.2438 159.952 23.6638 163.424 24.6755 167C28.73 165.287 37.6314 163.346 35.7357 157.31Z" fill="#CEC927" stroke="#ACA824"/>
<path d="M35.7357 164.31L35.0052 162L27.4004 165.2C23.2438 166.952 23.6638 170.424 24.6755 174C28.73 172.287 37.6314 170.346 35.7357 164.31Z" fill="#CEC927" stroke="#ACA824"/>
<path d="M35.7357 171.31L35.0052 169L27.4004 172.2C23.2438 173.952 23.6638 177.424 24.6755 181C28.73 179.287 37.6314 177.346 35.7357 171.31Z" fill="#CEC927" stroke="#ACA824"/>
<path d="M16.1474 153.808C16.0568 153.492 16.0114 153.357 16.0114 153.357C14.2897 154.35 13.1117 156.471 13.0664 158.773C13.0664 164.35 19.0829 167.419 24.1669 166.086C24.5747 165.995 24.8918 165.905 25.1184 165.815C25.3449 165.725 25.4809 165.679 25.4809 165.679C25.1738 160.48 17.7347 159.343 16.1474 153.808Z" fill="#CEC927" stroke="#ACA824"/>
<path d="M25.4827 165.635C25.4827 165.635 25.3467 165.68 25.1202 165.77C24.8936 165.86 24.5765 165.951 24.1687 166.041C23.3532 166.221 22.1752 166.357 20.9066 166.267C20.2722 166.221 19.6832 166.086 19.0489 165.905C18.4599 165.725 17.9162 165.499 17.4178 165.319C16.9647 165.093 16.5569 164.867 16.2851 164.732C16.0132 164.551 15.832 164.461 15.832 164.461C15.6961 164.958 15.6508 165.454 15.6055 165.996C15.6055 166.537 15.6961 167.079 15.8773 167.666C16.0132 168.207 16.2851 168.749 16.5569 169.246C16.8288 169.742 17.2366 170.194 17.6443 170.645C18.0521 171.051 18.5052 171.412 19.0036 171.728C19.502 172.044 20.0004 172.27 20.5441 172.45C21.0878 172.631 21.5862 172.721 22.1299 172.766C22.6736 172.811 23.172 172.721 23.625 172.631C23.625 172.631 23.8063 172.586 24.0781 172.496C24.3953 172.405 24.803 172.27 25.3014 172.134C26.2529 171.773 27.4762 171.187 28.473 170.464C28.9714 170.103 29.4245 169.697 29.8322 169.336C30.24 168.93 30.5572 168.569 30.7837 168.207C31.2821 167.485 31.5086 167.034 31.5086 167.034C30.5118 165.905 29.7417 165.274 28.8355 165.093C27.9293 164.912 26.8872 165.093 25.4827 165.635Z" fill="#CEC927" stroke="#ACA824"/>
<path d="M31.5076 167.079C31.5076 167.079 31.2811 167.53 30.7827 168.253C30.5108 168.569 30.1937 168.975 29.8312 169.381C29.4234 169.742 28.9704 170.148 28.472 170.509C27.4752 171.232 26.2519 171.818 25.3004 172.179C24.802 172.36 24.3943 172.495 24.0771 172.541C23.7599 172.631 23.624 172.631 23.624 172.631C23.8506 173.082 24.1677 173.488 24.4848 173.85C24.8473 174.256 25.2551 174.572 25.7082 174.843C26.1613 175.159 26.6596 175.384 27.2033 175.565C27.747 175.745 28.2908 175.836 28.8798 175.926C30.0125 176.016 31.2358 175.836 32.2779 175.429C33.32 174.978 34.2261 174.346 34.8151 173.488C34.8151 173.488 34.9057 173.353 35.087 173.082C35.2682 172.857 35.4947 172.405 35.7213 171.954C36.2197 171.051 36.6728 169.742 36.854 168.523C37.0352 167.305 36.9899 166.131 36.8087 165.273C36.7181 164.867 36.6275 164.506 36.5821 164.28C36.4915 164.055 36.4462 163.919 36.4462 163.919C34.951 163.919 33.909 164.01 33.2293 164.461C33.0481 164.551 32.9122 164.687 32.731 164.867C32.595 165.003 32.4591 165.183 32.3232 165.409C32.1872 165.589 32.0513 165.86 31.9154 166.131C31.8248 166.447 31.6888 166.718 31.5076 167.079Z" fill="#CEC927" stroke="#ACA824"/>
<path d="M36.5335 164.01C36.5335 164.01 36.5788 164.145 36.6694 164.371C36.7147 164.596 36.8053 164.912 36.8959 165.364C37.0318 166.176 37.1224 167.35 36.9412 168.614C36.76 169.832 36.3069 171.141 35.8085 172.044C35.582 172.495 35.3102 172.902 35.1742 173.172C34.993 173.443 34.9023 173.579 34.9023 173.579C35.1289 173.669 35.4008 173.759 35.6726 173.804C35.9445 173.849 36.2163 173.849 36.4881 173.895C36.76 173.895 37.0318 173.895 37.349 173.895C37.6208 173.849 37.8927 173.804 38.1646 173.759C39.252 173.488 40.3393 172.947 41.2455 172.179C42.1517 171.412 42.8313 170.419 43.2391 169.426C43.6468 168.388 43.7828 167.305 43.6015 166.312C43.6015 166.312 43.5562 166.131 43.5109 165.815C43.4656 165.499 43.3297 165.093 43.1938 164.596C42.8766 163.603 42.3329 162.385 41.608 161.346C40.883 160.308 39.9769 159.541 39.2973 159.044C38.9348 158.819 38.6629 158.638 38.4364 158.503C38.2099 158.367 38.1193 158.322 38.1193 158.322C37.0319 159.36 36.3975 160.128 36.2163 160.895C35.8538 161.572 36.0804 162.565 36.5335 164.01Z" fill="#CEC927" stroke="#ACA824"/>
<path d="M43.3764 165.725C43.4218 166.041 43.467 166.221 43.467 166.221C44.3732 165.815 45.1888 165.048 45.8231 164.1C46.4574 163.152 46.8198 161.978 46.9105 160.805C47.0011 159.631 46.8199 158.412 46.3668 157.419C44.4823 153.101 41.8084 151.594 36.1511 152.699C35.0052 154.798 34.9491 155.614 35.3569 156.336C37.8162 160.147 42.4053 159.92 43.3764 165.725Z" fill="#CEC927" stroke="#ACA824"/>
<path d="M35.4975 124.277C35.0897 123.239 34.1836 122.201 33.0055 121.569C31.8275 120.892 30.4683 120.576 29.1543 120.576C23.2222 120.678 21.0123 127.432 22.63 132.266C22.7659 132.672 22.9018 132.988 22.9924 133.214C23.0831 133.44 23.1283 133.575 23.1283 133.575C24.6235 133.35 25.6656 133.079 26.2999 132.537C30.0849 129.709 29.4806 124.277 35.4975 124.277Z" fill="#CEC927" stroke="#ACA824"/>
<path d="M40.5664 128.581C40.4966 127.469 39.9522 126.204 39.0244 125.244C38.1104 124.241 36.9131 123.526 35.662 123.126C30.2305 121.492 24.8531 126.944 26.8051 132.152C35.422 135.351 35.0165 126.807 40.5664 128.581Z" fill="#CEC927" stroke="#ACA824"/>
<path d="M22.9896 124.909C23.0802 124.728 23.1708 124.548 23.2161 124.367C23.3521 124.096 23.4427 123.916 23.4427 123.916C22.4459 123.735 21.3132 123.871 20.2711 124.322C19.229 124.728 18.2322 125.45 17.5073 126.308C14.2348 130.383 16.4423 135.871 20.3164 138.766C20.4976 138.901 20.7242 139.037 20.9054 139.172C21.2679 139.398 21.5397 139.578 21.7662 139.669C21.9928 139.759 22.1287 139.804 22.1287 139.804C23.1708 138.721 23.7598 137.908 23.941 136.96C24.5598 132.851 21.8263 129.544 22.9896 124.909Z" fill="#CEC927" stroke="#ACA824"/>
<path d="M34.9973 132.131C34.9973 132.131 35.1332 132.086 35.3597 131.995C35.5862 131.905 35.9034 131.815 36.3112 131.77C37.1268 131.589 38.3048 131.589 39.5281 131.815C40.7514 132.04 42.02 132.537 42.9262 132.988C43.3793 133.214 43.7418 133.44 44.0136 133.62C44.2855 133.801 44.4213 133.891 44.4213 133.891C44.7838 132.943 44.8291 131.86 44.6026 130.777C44.376 129.693 43.8323 128.565 43.0621 127.662C42.2918 126.714 41.2951 125.992 40.2077 125.541C39.1203 125.089 37.9423 124.954 36.9002 125.134C36.9002 125.134 36.719 125.18 36.4018 125.225C36.0847 125.315 35.6315 125.405 35.1332 125.631C34.6348 125.812 34.0458 126.082 33.5021 126.443C32.9584 126.805 32.46 127.211 32.0069 127.662C31.1461 128.565 30.7383 129.648 30.6023 130.416C30.557 130.822 30.557 131.093 30.6023 131.318C30.6476 131.544 30.6477 131.634 30.6477 131.634C31.7351 132.402 32.1429 132.988 32.46 132.988C32.5959 132.988 32.9131 132.898 33.2755 132.718C33.9098 132.582 34.4536 132.356 34.9973 132.131Z" fill="#CEC927" stroke="#ACA824"/>
<path d="M35.7357 115.31L35.0052 113L27.4004 116.2C23.2438 117.952 23.6638 121.424 24.6755 125C28.73 123.287 37.6314 121.346 35.7357 115.31Z" fill="#CEC927" stroke="#ACA824"/>
<path d="M35.7357 122.31L35.0052 120L27.4004 123.2C23.2438 124.952 23.6638 128.424 24.6755 132C28.73 130.287 37.6314 128.346 35.7357 122.31Z" fill="#CEC927" stroke="#ACA824"/>
<path d="M35.7357 129.31L35.0052 127L27.4004 130.2C23.2438 131.952 23.6638 135.424 24.6755 139C28.73 137.287 37.6314 135.346 35.7357 129.31Z" fill="#CEC927" stroke="#ACA824"/>
<path d="M35.7357 136.31L35.0052 134L27.4004 137.2C23.2438 138.952 23.6638 142.424 24.6755 146C28.73 144.287 37.6314 142.346 35.7357 136.31Z" fill="#CEC927" stroke="#ACA824"/>
<path d="M35.7357 143.31L35.0052 141L27.4004 144.2C23.2438 145.952 23.6638 149.424 24.6755 153C28.73 151.287 37.6314 149.346 35.7357 143.31Z" fill="#CEC927" stroke="#ACA824"/>
<path d="M35.7357 150.31L35.0052 148L27.4004 151.2C23.2438 152.952 23.6638 156.424 24.6755 160C28.73 158.287 37.6314 156.346 35.7357 150.31Z" fill="#CEC927" stroke="#ACA824"/>
<path d="M16.1474 132.808C16.0568 132.492 16.0114 132.357 16.0114 132.357C14.2897 133.35 13.1117 135.471 13.0664 137.773C13.0664 143.35 19.0829 146.419 24.1669 145.086C24.5747 144.995 24.8918 144.905 25.1184 144.815C25.3449 144.725 25.4809 144.679 25.4809 144.679C25.1738 139.48 17.7347 138.343 16.1474 132.808Z" fill="#CEC927" stroke="#ACA824"/>
<path d="M25.4827 144.635C25.4827 144.635 25.3467 144.68 25.1202 144.77C24.8936 144.86 24.5765 144.951 24.1687 145.041C23.3532 145.221 22.1752 145.357 20.9066 145.267C20.2722 145.221 19.6832 145.086 19.0489 144.905C18.4599 144.725 17.9162 144.499 17.4178 144.319C16.9647 144.093 16.5569 143.867 16.2851 143.732C16.0132 143.551 15.832 143.461 15.832 143.461C15.6961 143.958 15.6508 144.454 15.6055 144.996C15.6055 145.537 15.6961 146.079 15.8773 146.666C16.0132 147.207 16.2851 147.749 16.5569 148.246C16.8288 148.742 17.2366 149.194 17.6443 149.645C18.0521 150.051 18.5052 150.412 19.0036 150.728C19.502 151.044 20.0004 151.27 20.5441 151.45C21.0878 151.631 21.5862 151.721 22.1299 151.766C22.6736 151.811 23.172 151.721 23.625 151.631C23.625 151.631 23.8063 151.586 24.0781 151.496C24.3953 151.405 24.803 151.27 25.3014 151.134C26.2529 150.773 27.4762 150.187 28.473 149.464C28.9714 149.103 29.4245 148.697 29.8322 148.336C30.24 147.93 30.5572 147.569 30.7837 147.207C31.2821 146.485 31.5086 146.034 31.5086 146.034C30.5118 144.905 29.7417 144.274 28.8355 144.093C27.9293 143.912 26.8872 144.093 25.4827 144.635Z" fill="#CEC927" stroke="#ACA824"/>
<path d="M31.5076 146.079C31.5076 146.079 31.2811 146.53 30.7827 147.253C30.5108 147.569 30.1937 147.975 29.8312 148.381C29.4234 148.742 28.9704 149.148 28.472 149.509C27.4752 150.232 26.2519 150.818 25.3004 151.179C24.802 151.36 24.3943 151.495 24.0771 151.541C23.7599 151.631 23.624 151.631 23.624 151.631C23.8506 152.082 24.1677 152.488 24.4848 152.85C24.8473 153.256 25.2551 153.572 25.7082 153.843C26.1613 154.159 26.6596 154.384 27.2033 154.565C27.747 154.745 28.2908 154.836 28.8798 154.926C30.0125 155.016 31.2358 154.836 32.2779 154.429C33.32 153.978 34.2261 153.346 34.8151 152.488C34.8151 152.488 34.9057 152.353 35.087 152.082C35.2682 151.857 35.4947 151.405 35.7213 150.954C36.2197 150.051 36.6728 148.742 36.854 147.523C37.0352 146.305 36.9899 145.131 36.8087 144.273C36.7181 143.867 36.6275 143.506 36.5821 143.28C36.4915 143.055 36.4462 142.919 36.4462 142.919C34.951 142.919 33.909 143.01 33.2293 143.461C33.0481 143.551 32.9122 143.687 32.731 143.867C32.595 144.003 32.4591 144.183 32.3232 144.409C32.1872 144.589 32.0513 144.86 31.9154 145.131C31.8248 145.447 31.6888 145.718 31.5076 146.079Z" fill="#CEC927" stroke="#ACA824"/>
<path d="M36.5335 143.01C36.5335 143.01 36.5788 143.145 36.6694 143.371C36.7147 143.596 36.8053 143.912 36.8959 144.364C37.0318 145.176 37.1224 146.35 36.9412 147.614C36.76 148.832 36.3069 150.141 35.8085 151.044C35.582 151.495 35.3102 151.902 35.1742 152.172C34.993 152.443 34.9023 152.579 34.9023 152.579C35.1289 152.669 35.4008 152.759 35.6726 152.804C35.9445 152.849 36.2163 152.849 36.4881 152.895C36.76 152.895 37.0318 152.895 37.349 152.895C37.6208 152.849 37.8927 152.804 38.1646 152.759C39.252 152.488 40.3393 151.947 41.2455 151.179C42.1517 150.412 42.8313 149.419 43.2391 148.426C43.6468 147.388 43.7828 146.305 43.6015 145.312C43.6015 145.312 43.5562 145.131 43.5109 144.815C43.4656 144.499 43.3297 144.093 43.1938 143.596C42.8766 142.603 42.3329 141.385 41.608 140.346C40.883 139.308 39.9769 138.541 39.2973 138.044C38.9348 137.819 38.6629 137.638 38.4364 137.503C38.2099 137.367 38.1193 137.322 38.1193 137.322C37.0319 138.36 36.3975 139.128 36.2163 139.895C35.8538 140.572 36.0804 141.565 36.5335 143.01Z" fill="#CEC927" stroke="#ACA824"/>
<path d="M43.3764 144.725C43.4218 145.041 43.467 145.221 43.467 145.221C44.3732 144.815 45.1888 144.048 45.8231 143.1C46.4574 142.152 46.8198 140.978 46.9105 139.805C47.0011 138.631 46.8199 137.412 46.3668 136.419C44.4823 132.101 41.8084 130.594 36.1511 131.699C35.0052 133.798 34.9491 134.614 35.3569 135.336C37.8162 139.147 42.4053 138.92 43.3764 144.725Z" fill="#CEC927" stroke="#ACA824"/>
<path d="M35.4975 103.277C35.0897 102.239 34.1836 101.201 33.0055 100.569C31.8275 99.8916 30.4683 99.5757 29.1543 99.5757C23.2222 99.6776 21.0123 106.432 22.63 111.266C22.7659 111.672 22.9018 111.988 22.9924 112.214C23.0831 112.44 23.1283 112.575 23.1283 112.575C24.6235 112.35 25.6656 112.079 26.2999 111.537C30.0849 108.709 29.4806 103.277 35.4975 103.277Z" fill="#CEC927" stroke="#ACA824"/>
<path d="M40.5664 107.581C40.4966 106.469 39.9522 105.204 39.0244 104.244C38.1104 103.241 36.9131 102.526 35.662 102.126C30.2305 100.492 24.8531 105.944 26.8051 111.152C35.422 114.351 35.0165 105.807 40.5664 107.581Z" fill="#CEC927" stroke="#ACA824"/>
<path d="M22.9896 103.909C23.0802 103.728 23.1708 103.548 23.2161 103.367C23.3521 103.096 23.4427 102.916 23.4427 102.916C22.4459 102.735 21.3132 102.871 20.2711 103.322C19.229 103.728 18.2322 104.45 17.5073 105.308C14.2348 109.383 16.4423 114.871 20.3164 117.766C20.4976 117.901 20.7242 118.037 20.9054 118.172C21.2679 118.398 21.5397 118.578 21.7662 118.669C21.9928 118.759 22.1287 118.804 22.1287 118.804C23.1708 117.721 23.7598 116.908 23.941 115.96C24.5598 111.851 21.8263 108.544 22.9896 103.909Z" fill="#CEC927" stroke="#ACA824"/>
<path d="M34.9973 111.131C34.9973 111.131 35.1332 111.086 35.3597 110.995C35.5862 110.905 35.9034 110.815 36.3112 110.77C37.1268 110.589 38.3048 110.589 39.5281 110.815C40.7514 111.04 42.02 111.537 42.9262 111.988C43.3793 112.214 43.7418 112.44 44.0136 112.62C44.2855 112.801 44.4213 112.891 44.4213 112.891C44.7838 111.943 44.8291 110.86 44.6026 109.777C44.376 108.693 43.8323 107.565 43.0621 106.662C42.2918 105.714 41.2951 104.992 40.2077 104.541C39.1203 104.089 37.9423 103.954 36.9002 104.134C36.9002 104.134 36.719 104.18 36.4018 104.225C36.0847 104.315 35.6315 104.405 35.1332 104.631C34.6348 104.812 34.0458 105.082 33.5021 105.443C32.9584 105.805 32.46 106.211 32.0069 106.662C31.1461 107.565 30.7383 108.648 30.6023 109.416C30.557 109.822 30.557 110.093 30.6023 110.318C30.6476 110.544 30.6477 110.634 30.6477 110.634C31.7351 111.402 32.1429 111.988 32.46 111.988C32.5959 111.988 32.9131 111.898 33.2755 111.718C33.9098 111.582 34.4536 111.356 34.9973 111.131Z" fill="#CEC927" stroke="#ACA824"/>
<path d="M35.7357 94.3098L35.0052 91.9999L27.4004 95.2001C23.2438 96.9522 23.6638 100.424 24.6755 104C28.73 102.287 37.6314 100.346 35.7357 94.3098Z" fill="#CEC927" stroke="#ACA824"/>
<path d="M35.7357 101.31L35.0052 98.9999L27.4004 102.2C23.2438 103.952 23.6638 107.424 24.6755 111C28.73 109.287 37.6314 107.346 35.7357 101.31Z" fill="#CEC927" stroke="#ACA824"/>
<path d="M35.7357 108.31L35.0052 106L27.4004 109.2C23.2438 110.952 23.6638 114.424 24.6755 118C28.73 116.287 37.6314 114.346 35.7357 108.31Z" fill="#CEC927" stroke="#ACA824"/>
<path d="M35.7357 115.31L35.0052 113L27.4004 116.2C23.2438 117.952 23.6638 121.424 24.6755 125C28.73 123.287 37.6314 121.346 35.7357 115.31Z" fill="#CEC927" stroke="#ACA824"/>
<path d="M35.7357 122.31L35.0052 120L27.4004 123.2C23.2438 124.952 23.6638 128.424 24.6755 132C28.73 130.287 37.6314 128.346 35.7357 122.31Z" fill="#CEC927" stroke="#ACA824"/>
<path d="M35.7357 129.31L35.0052 127L27.4004 130.2C23.2438 131.952 23.6638 135.424 24.6755 139C28.73 137.287 37.6314 135.346 35.7357 129.31Z" fill="#CEC927" stroke="#ACA824"/>
<path d="M16.1474 111.808C16.0568 111.492 16.0114 111.357 16.0114 111.357C14.2897 112.35 13.1117 114.471 13.0664 116.773C13.0664 122.35 19.0829 125.419 24.1669 124.086C24.5747 123.995 24.8918 123.905 25.1184 123.815C25.3449 123.725 25.4809 123.679 25.4809 123.679C25.1738 118.48 17.7347 117.343 16.1474 111.808Z" fill="#CEC927" stroke="#ACA824"/>
<path d="M25.4827 123.635C25.4827 123.635 25.3467 123.68 25.1202 123.77C24.8936 123.86 24.5765 123.951 24.1687 124.041C23.3532 124.221 22.1752 124.357 20.9066 124.267C20.2722 124.221 19.6832 124.086 19.0489 123.905C18.4599 123.725 17.9162 123.499 17.4178 123.319C16.9647 123.093 16.5569 122.867 16.2851 122.732C16.0132 122.551 15.832 122.461 15.832 122.461C15.6961 122.958 15.6508 123.454 15.6055 123.996C15.6055 124.537 15.6961 125.079 15.8773 125.666C16.0132 126.207 16.2851 126.749 16.5569 127.246C16.8288 127.742 17.2366 128.194 17.6443 128.645C18.0521 129.051 18.5052 129.412 19.0036 129.728C19.502 130.044 20.0004 130.27 20.5441 130.45C21.0878 130.631 21.5862 130.721 22.1299 130.766C22.6736 130.811 23.172 130.721 23.625 130.631C23.625 130.631 23.8063 130.586 24.0781 130.496C24.3953 130.405 24.803 130.27 25.3014 130.134C26.2529 129.773 27.4762 129.187 28.473 128.464C28.9714 128.103 29.4245 127.697 29.8322 127.336C30.24 126.93 30.5572 126.569 30.7837 126.207C31.2821 125.485 31.5086 125.034 31.5086 125.034C30.5118 123.905 29.7417 123.274 28.8355 123.093C27.9293 122.912 26.8872 123.093 25.4827 123.635Z" fill="#CEC927" stroke="#ACA824"/>
<path d="M31.5076 125.079C31.5076 125.079 31.2811 125.53 30.7827 126.253C30.5108 126.569 30.1937 126.975 29.8312 127.381C29.4234 127.742 28.9704 128.148 28.472 128.509C27.4752 129.232 26.2519 129.818 25.3004 130.179C24.802 130.36 24.3943 130.495 24.0771 130.541C23.7599 130.631 23.624 130.631 23.624 130.631C23.8506 131.082 24.1677 131.488 24.4848 131.85C24.8473 132.256 25.2551 132.572 25.7082 132.843C26.1613 133.159 26.6596 133.384 27.2033 133.565C27.747 133.745 28.2908 133.836 28.8798 133.926C30.0125 134.016 31.2358 133.836 32.2779 133.429C33.32 132.978 34.2261 132.346 34.8151 131.488C34.8151 131.488 34.9057 131.353 35.087 131.082C35.2682 130.857 35.4947 130.405 35.7213 129.954C36.2197 129.051 36.6728 127.742 36.854 126.523C37.0352 125.305 36.9899 124.131 36.8087 123.273C36.7181 122.867 36.6275 122.506 36.5821 122.28C36.4915 122.055 36.4462 121.919 36.4462 121.919C34.951 121.919 33.909 122.01 33.2293 122.461C33.0481 122.551 32.9122 122.687 32.731 122.867C32.595 123.003 32.4591 123.183 32.3232 123.409C32.1872 123.589 32.0513 123.86 31.9154 124.131C31.8248 124.447 31.6888 124.718 31.5076 125.079Z" fill="#CEC927" stroke="#ACA824"/>
<path d="M36.5335 122.01C36.5335 122.01 36.5788 122.145 36.6694 122.371C36.7147 122.596 36.8053 122.912 36.8959 123.364C37.0318 124.176 37.1224 125.35 36.9412 126.614C36.76 127.832 36.3069 129.141 35.8085 130.044C35.582 130.495 35.3102 130.902 35.1742 131.172C34.993 131.443 34.9023 131.579 34.9023 131.579C35.1289 131.669 35.4008 131.759 35.6726 131.804C35.9445 131.849 36.2163 131.849 36.4881 131.895C36.76 131.895 37.0318 131.895 37.349 131.895C37.6208 131.849 37.8927 131.804 38.1646 131.759C39.252 131.488 40.3393 130.947 41.2455 130.179C42.1517 129.412 42.8313 128.419 43.2391 127.426C43.6468 126.388 43.7828 125.305 43.6015 124.312C43.6015 124.312 43.5562 124.131 43.5109 123.815C43.4656 123.499 43.3297 123.093 43.1938 122.596C42.8766 121.603 42.3329 120.385 41.608 119.346C40.883 118.308 39.9769 117.541 39.2973 117.044C38.9348 116.819 38.6629 116.638 38.4364 116.503C38.2099 116.367 38.1193 116.322 38.1193 116.322C37.0319 117.36 36.3975 118.128 36.2163 118.895C35.8538 119.572 36.0804 120.565 36.5335 122.01Z" fill="#CEC927" stroke="#ACA824"/>
<path d="M43.3764 123.725C43.4218 124.041 43.467 124.221 43.467 124.221C44.3732 123.815 45.1888 123.048 45.8231 122.1C46.4574 121.152 46.8198 119.978 46.9105 118.805C47.0011 117.631 46.8199 116.412 46.3668 115.419C44.4823 111.101 41.8084 109.594 36.1511 110.699C35.0052 112.798 34.9491 113.614 35.3569 114.336C37.8162 118.147 42.4053 117.92 43.3764 123.725Z" fill="#CEC927" stroke="#ACA824"/>
<path d="M35.7386 178.31L35.0081 176L27.4034 179.2C23.2467 180.952 23.6667 184.424 24.6785 188C28.7329 186.287 37.6343 184.346 35.7386 178.31Z" fill="#CEC927" stroke="#ACA824"/>
<path d="M35.7386 185.31L35.0081 183L27.4034 186.2C23.2467 187.952 23.6667 191.424 24.6785 195C28.7329 193.287 37.6343 191.346 35.7386 185.31Z" fill="#CEC927" stroke="#ACA824"/>
<path d="M35.7386 192.31L35.0081 190L27.4034 193.2C23.2467 194.952 23.6667 198.424 24.6785 202C28.7329 200.287 37.6343 198.346 35.7386 192.31Z" fill="#CEC927" stroke="#ACA824"/>
<path d="M35.7386 199.31L35.0081 197L27.4034 200.2C23.2467 201.952 23.6667 205.424 24.6785 209C28.7329 207.287 37.6343 205.346 35.7386 199.31Z" fill="#CEC927" stroke="#ACA824"/>
<path d="M35.7386 206.31L35.0081 204L27.4034 207.2C23.2467 208.952 23.6667 212.424 24.6785 216C28.7329 214.287 37.6343 212.346 35.7386 206.31Z" fill="#CEC927" stroke="#ACA824"/>
<path d="M35.7386 213.31L35.0081 211L27.4034 214.2C23.2467 215.952 23.6667 219.424 24.6785 223C28.7329 221.287 37.6343 219.346 35.7386 213.31Z" fill="#CEC927" stroke="#ACA824"/>
<path d="M35.7386 220.31L35.0081 218L27.4034 221.2C23.2467 222.952 23.6667 226.424 24.6785 230C28.7329 228.287 37.6343 226.346 35.7386 220.31Z" fill="#CEC927" stroke="#ACA824"/>
<path d="M35.7386 227.31L35.0081 225L27.4034 228.2C23.2467 229.952 23.6667 233.424 24.6785 237C28.7329 235.287 37.6343 233.346 35.7386 227.31Z" fill="#CEC927" stroke="#ACA824"/>
<path d="M35.7386 234.31L35.0081 232L27.4034 235.2C23.2467 236.952 23.6667 240.424 24.6785 244C28.7329 242.287 37.6343 240.346 35.7386 234.31Z" fill="#CEC927" stroke="#ACA824"/>
<path d="M35.7386 241.31L35.0081 239L27.4034 242.2C23.2467 243.952 23.6667 247.424 24.6785 251C28.7329 249.287 37.6343 247.346 35.7386 241.31Z" fill="#CEC927" stroke="#ACA824"/>
<path d="M35.7386 248.31L35.0081 246L27.4034 249.2C23.2467 250.952 23.6667 254.424 24.6785 258C28.7329 256.287 37.6343 254.346 35.7386 248.31Z" fill="#CEC927" stroke="#ACA824"/>
<path d="M35.4975 285.277C35.0897 284.239 34.1836 283.201 33.0055 282.569C31.8275 281.892 30.4683 281.576 29.1543 281.576C23.2222 281.678 21.0123 288.432 22.63 293.266C22.7659 293.672 22.9018 293.988 22.9924 294.214C23.0831 294.44 23.1283 294.575 23.1283 294.575C24.6235 294.35 25.6656 294.079 26.2999 293.537C30.0849 290.709 29.4806 285.277 35.4975 285.277Z" fill="#CEC927" stroke="#ACA824"/>
<path d="M40.5664 289.581C40.4966 288.469 39.9522 287.204 39.0244 286.244C38.1104 285.241 36.9131 284.526 35.662 284.126C30.2305 282.492 24.8531 287.944 26.8051 293.152C35.422 296.351 35.0165 287.807 40.5664 289.581Z" fill="#CEC927" stroke="#ACA824"/>
<path d="M22.9896 285.909C23.0802 285.728 23.1708 285.548 23.2161 285.367C23.3521 285.096 23.4427 284.916 23.4427 284.916C22.4459 284.735 21.3132 284.871 20.2711 285.322C19.229 285.728 18.2322 286.45 17.5073 287.308C14.2348 291.383 16.4423 296.871 20.3164 299.766C20.4976 299.901 20.7242 300.037 20.9054 300.172C21.2679 300.398 21.5397 300.578 21.7662 300.669C21.9928 300.759 22.1287 300.804 22.1287 300.804C23.1708 299.721 23.7598 298.908 23.941 297.96C24.5598 293.851 21.8263 290.544 22.9896 285.909Z" fill="#CEC927" stroke="#ACA824"/>
<path d="M34.9973 293.131C34.9973 293.131 35.1332 293.086 35.3597 292.995C35.5862 292.905 35.9034 292.815 36.3112 292.77C37.1268 292.589 38.3048 292.589 39.5281 292.815C40.7514 293.04 42.02 293.537 42.9262 293.988C43.3793 294.214 43.7418 294.44 44.0136 294.62C44.2855 294.801 44.4213 294.891 44.4213 294.891C44.7838 293.943 44.8291 292.86 44.6026 291.777C44.376 290.693 43.8323 289.565 43.0621 288.662C42.2918 287.714 41.2951 286.992 40.2077 286.541C39.1203 286.089 37.9423 285.954 36.9002 286.134C36.9002 286.134 36.719 286.18 36.4018 286.225C36.0847 286.315 35.6315 286.405 35.1332 286.631C34.6348 286.812 34.0458 287.082 33.5021 287.443C32.9584 287.805 32.46 288.211 32.0069 288.662C31.1461 289.565 30.7383 290.648 30.6023 291.416C30.557 291.822 30.557 292.093 30.6023 292.318C30.6476 292.544 30.6477 292.634 30.6477 292.634C31.7351 293.402 32.1429 293.988 32.46 293.988C32.5959 293.988 32.9131 293.898 33.2755 293.718C33.9098 293.582 34.4536 293.356 34.9973 293.131Z" fill="#CEC927" stroke="#ACA824"/>
<path d="M35.7357 276.31L35.0052 274L27.4004 277.2C23.2438 278.952 23.6638 282.424 24.6755 286C28.73 284.287 37.6314 282.346 35.7357 276.31Z" fill="#CEC927" stroke="#ACA824"/>
<path d="M35.7357 283.31L35.0052 281L27.4004 284.2C23.2438 285.952 23.6638 289.424 24.6755 293C28.73 291.287 37.6314 289.346 35.7357 283.31Z" fill="#CEC927" stroke="#ACA824"/>
<path d="M35.7357 290.31L35.0052 288L27.4004 291.2C23.2438 292.952 23.6638 296.424 24.6755 300C28.73 298.287 37.6314 296.346 35.7357 290.31Z" fill="#CEC927" stroke="#ACA824"/>
<path d="M35.7357 297.31L35.0052 295L27.4004 298.2C23.2438 299.952 23.6638 303.424 24.6755 307C28.73 305.287 37.6314 303.346 35.7357 297.31Z" fill="#CEC927" stroke="#ACA824"/>
<path d="M35.7357 304.31L35.0052 302L27.4004 305.2C23.2438 306.952 23.6638 310.424 24.6755 314C28.73 312.287 37.6314 310.346 35.7357 304.31Z" fill="#CEC927" stroke="#ACA824"/>
<path d="M35.7357 311.31L35.0052 309L27.4004 312.2C23.2438 313.952 23.6638 317.424 24.6755 321C28.73 319.287 37.6314 317.346 35.7357 311.31Z" fill="#CEC927" stroke="#ACA824"/>
<path d="M16.1474 293.808C16.0568 293.492 16.0114 293.357 16.0114 293.357C14.2897 294.35 13.1117 296.471 13.0664 298.773C13.0664 304.35 19.0829 307.419 24.1669 306.086C24.5747 305.995 24.8918 305.905 25.1184 305.815C25.3449 305.725 25.4809 305.679 25.4809 305.679C25.1738 300.48 17.7347 299.343 16.1474 293.808Z" fill="#CEC927" stroke="#ACA824"/>
<path d="M25.4827 305.635C25.4827 305.635 25.3467 305.68 25.1202 305.77C24.8936 305.86 24.5765 305.951 24.1687 306.041C23.3532 306.221 22.1752 306.357 20.9066 306.267C20.2722 306.221 19.6832 306.086 19.0489 305.905C18.4599 305.725 17.9162 305.499 17.4178 305.319C16.9647 305.093 16.5569 304.867 16.2851 304.732C16.0132 304.551 15.832 304.461 15.832 304.461C15.6961 304.958 15.6508 305.454 15.6055 305.996C15.6055 306.537 15.6961 307.079 15.8773 307.666C16.0132 308.207 16.2851 308.749 16.5569 309.246C16.8288 309.742 17.2366 310.194 17.6443 310.645C18.0521 311.051 18.5052 311.412 19.0036 311.728C19.502 312.044 20.0004 312.27 20.5441 312.45C21.0878 312.631 21.5862 312.721 22.1299 312.766C22.6736 312.811 23.172 312.721 23.625 312.631C23.625 312.631 23.8063 312.586 24.0781 312.496C24.3953 312.405 24.803 312.27 25.3014 312.134C26.2529 311.773 27.4762 311.187 28.473 310.464C28.9714 310.103 29.4245 309.697 29.8322 309.336C30.24 308.93 30.5572 308.569 30.7837 308.207C31.2821 307.485 31.5086 307.034 31.5086 307.034C30.5118 305.905 29.7417 305.274 28.8355 305.093C27.9293 304.912 26.8872 305.093 25.4827 305.635Z" fill="#CEC927" stroke="#ACA824"/>
<path d="M31.5076 307.079C31.5076 307.079 31.2811 307.53 30.7827 308.253C30.5108 308.569 30.1937 308.975 29.8312 309.381C29.4234 309.742 28.9704 310.148 28.472 310.509C27.4752 311.232 26.2519 311.818 25.3004 312.179C24.802 312.36 24.3943 312.495 24.0771 312.541C23.7599 312.631 23.624 312.631 23.624 312.631C23.8506 313.082 24.1677 313.488 24.4848 313.85C24.8473 314.256 25.2551 314.572 25.7082 314.843C26.1613 315.159 26.6596 315.384 27.2033 315.565C27.747 315.745 28.2908 315.836 28.8798 315.926C30.0125 316.016 31.2358 315.836 32.2779 315.429C33.32 314.978 34.2261 314.346 34.8151 313.488C34.8151 313.488 34.9057 313.353 35.087 313.082C35.2682 312.857 35.4947 312.405 35.7213 311.954C36.2197 311.051 36.6728 309.742 36.854 308.523C37.0352 307.305 36.9899 306.131 36.8087 305.273C36.7181 304.867 36.6275 304.506 36.5821 304.28C36.4915 304.055 36.4462 303.919 36.4462 303.919C34.951 303.919 33.909 304.01 33.2293 304.461C33.0481 304.551 32.9122 304.687 32.731 304.867C32.595 305.003 32.4591 305.183 32.3232 305.409C32.1872 305.589 32.0513 305.86 31.9154 306.131C31.8248 306.447 31.6888 306.718 31.5076 307.079Z" fill="#CEC927" stroke="#ACA824"/>
<path d="M36.5335 304.01C36.5335 304.01 36.5788 304.145 36.6694 304.371C36.7147 304.596 36.8053 304.912 36.8959 305.364C37.0318 306.176 37.1224 307.35 36.9412 308.614C36.76 309.832 36.3069 311.141 35.8085 312.044C35.582 312.495 35.3102 312.902 35.1742 313.172C34.993 313.443 34.9023 313.579 34.9023 313.579C35.1289 313.669 35.4008 313.759 35.6726 313.804C35.9445 313.849 36.2163 313.849 36.4881 313.895C36.76 313.895 37.0318 313.895 37.349 313.895C37.6208 313.849 37.8927 313.804 38.1646 313.759C39.252 313.488 40.3393 312.947 41.2455 312.179C42.1517 311.412 42.8313 310.419 43.2391 309.426C43.6468 308.388 43.7828 307.305 43.6015 306.312C43.6015 306.312 43.5562 306.131 43.5109 305.815C43.4656 305.499 43.3297 305.093 43.1938 304.596C42.8766 303.603 42.3329 302.385 41.608 301.346C40.883 300.308 39.9769 299.541 39.2973 299.044C38.9348 298.819 38.6629 298.638 38.4364 298.503C38.2099 298.367 38.1193 298.322 38.1193 298.322C37.0319 299.36 36.3975 300.128 36.2163 300.895C35.8538 301.572 36.0804 302.565 36.5335 304.01Z" fill="#CEC927" stroke="#ACA824"/>
<path d="M43.3764 305.725C43.4218 306.041 43.467 306.221 43.467 306.221C44.3732 305.815 45.1888 305.048 45.8231 304.1C46.4574 303.152 46.8198 301.978 46.9105 300.805C47.0011 299.631 46.8199 298.412 46.3668 297.419C44.4823 293.101 41.8084 291.594 36.1511 292.699C35.0052 294.798 34.9491 295.614 35.3569 296.336C37.8162 300.147 42.4053 299.92 43.3764 305.725Z" fill="#CEC927" stroke="#ACA824"/>
<path d="M35.4975 264.277C35.0897 263.239 34.1836 262.201 33.0055 261.569C31.8275 260.892 30.4683 260.576 29.1543 260.576C23.2222 260.678 21.0123 267.432 22.63 272.266C22.7659 272.672 22.9018 272.988 22.9924 273.214C23.0831 273.44 23.1283 273.575 23.1283 273.575C24.6235 273.35 25.6656 273.079 26.2999 272.537C30.0849 269.709 29.4806 264.277 35.4975 264.277Z" fill="#CEC927" stroke="#ACA824"/>
<path d="M40.5664 268.581C40.4966 267.469 39.9522 266.204 39.0244 265.244C38.1104 264.241 36.9131 263.526 35.662 263.126C30.2305 261.492 24.8531 266.944 26.8051 272.152C35.422 275.351 35.0165 266.807 40.5664 268.581Z" fill="#CEC927" stroke="#ACA824"/>
<path d="M22.9896 264.909C23.0802 264.728 23.1708 264.548 23.2161 264.367C23.3521 264.096 23.4427 263.916 23.4427 263.916C22.4459 263.735 21.3132 263.871 20.2711 264.322C19.229 264.728 18.2322 265.45 17.5073 266.308C14.2348 270.383 16.4423 275.871 20.3164 278.766C20.4976 278.901 20.7242 279.037 20.9054 279.172C21.2679 279.398 21.5397 279.578 21.7662 279.669C21.9928 279.759 22.1287 279.804 22.1287 279.804C23.1708 278.721 23.7598 277.908 23.941 276.96C24.5598 272.851 21.8263 269.544 22.9896 264.909Z" fill="#CEC927" stroke="#ACA824"/>
<path d="M34.9973 272.131C34.9973 272.131 35.1332 272.086 35.3597 271.995C35.5862 271.905 35.9034 271.815 36.3112 271.77C37.1268 271.589 38.3048 271.589 39.5281 271.815C40.7514 272.04 42.02 272.537 42.9262 272.988C43.3793 273.214 43.7418 273.44 44.0136 273.62C44.2855 273.801 44.4213 273.891 44.4213 273.891C44.7838 272.943 44.8291 271.86 44.6026 270.777C44.376 269.693 43.8323 268.565 43.0621 267.662C42.2918 266.714 41.2951 265.992 40.2077 265.541C39.1203 265.089 37.9423 264.954 36.9002 265.134C36.9002 265.134 36.719 265.18 36.4018 265.225C36.0847 265.315 35.6315 265.405 35.1332 265.631C34.6348 265.812 34.0458 266.082 33.5021 266.443C32.9584 266.805 32.46 267.211 32.0069 267.662C31.1461 268.565 30.7383 269.648 30.6023 270.416C30.557 270.822 30.557 271.093 30.6023 271.318C30.6476 271.544 30.6477 271.634 30.6477 271.634C31.7351 272.402 32.1429 272.988 32.46 272.988C32.5959 272.988 32.9131 272.898 33.2755 272.718C33.9098 272.582 34.4536 272.356 34.9973 272.131Z" fill="#CEC927" stroke="#ACA824"/>
<path d="M35.7357 255.31L35.0052 253L27.4004 256.2C23.2438 257.952 23.6638 261.424 24.6755 265C28.73 263.287 37.6314 261.346 35.7357 255.31Z" fill="#CEC927" stroke="#ACA824"/>
<path d="M35.7357 262.31L35.0052 260L27.4004 263.2C23.2438 264.952 23.6638 268.424 24.6755 272C28.73 270.287 37.6314 268.346 35.7357 262.31Z" fill="#CEC927" stroke="#ACA824"/>
<path d="M35.7357 269.31L35.0052 267L27.4004 270.2C23.2438 271.952 23.6638 275.424 24.6755 279C28.73 277.287 37.6314 275.346 35.7357 269.31Z" fill="#CEC927" stroke="#ACA824"/>
<path d="M35.7357 276.31L35.0052 274L27.4004 277.2C23.2438 278.952 23.6638 282.424 24.6755 286C28.73 284.287 37.6314 282.346 35.7357 276.31Z" fill="#CEC927" stroke="#ACA824"/>
<path d="M35.7357 283.31L35.0052 281L27.4004 284.2C23.2438 285.952 23.6638 289.424 24.6755 293C28.73 291.287 37.6314 289.346 35.7357 283.31Z" fill="#CEC927" stroke="#ACA824"/>
<path d="M35.7357 290.31L35.0052 288L27.4004 291.2C23.2438 292.952 23.6638 296.424 24.6755 300C28.73 298.287 37.6314 296.346 35.7357 290.31Z" fill="#CEC927" stroke="#ACA824"/>
<path d="M16.1474 272.808C16.0568 272.492 16.0114 272.357 16.0114 272.357C14.2897 273.35 13.1117 275.471 13.0664 277.773C13.0664 283.35 19.0829 286.419 24.1669 285.086C24.5747 284.995 24.8918 284.905 25.1184 284.815C25.3449 284.725 25.4809 284.679 25.4809 284.679C25.1738 279.48 17.7347 278.343 16.1474 272.808Z" fill="#CEC927" stroke="#ACA824"/>
<path d="M25.4827 284.635C25.4827 284.635 25.3467 284.68 25.1202 284.77C24.8936 284.86 24.5765 284.951 24.1687 285.041C23.3532 285.221 22.1752 285.357 20.9066 285.267C20.2722 285.221 19.6832 285.086 19.0489 284.905C18.4599 284.725 17.9162 284.499 17.4178 284.319C16.9647 284.093 16.5569 283.867 16.2851 283.732C16.0132 283.551 15.832 283.461 15.832 283.461C15.6961 283.958 15.6508 284.454 15.6055 284.996C15.6055 285.537 15.6961 286.079 15.8773 286.666C16.0132 287.207 16.2851 287.749 16.5569 288.246C16.8288 288.742 17.2366 289.194 17.6443 289.645C18.0521 290.051 18.5052 290.412 19.0036 290.728C19.502 291.044 20.0004 291.27 20.5441 291.45C21.0878 291.631 21.5862 291.721 22.1299 291.766C22.6736 291.811 23.172 291.721 23.625 291.631C23.625 291.631 23.8063 291.586 24.0781 291.496C24.3953 291.405 24.803 291.27 25.3014 291.134C26.2529 290.773 27.4762 290.187 28.473 289.464C28.9714 289.103 29.4245 288.697 29.8322 288.336C30.24 287.93 30.5572 287.569 30.7837 287.207C31.2821 286.485 31.5086 286.034 31.5086 286.034C30.5118 284.905 29.7417 284.274 28.8355 284.093C27.9293 283.912 26.8872 284.093 25.4827 284.635Z" fill="#CEC927" stroke="#ACA824"/>
<path d="M31.5076 286.079C31.5076 286.079 31.2811 286.53 30.7827 287.253C30.5108 287.569 30.1937 287.975 29.8312 288.381C29.4234 288.742 28.9704 289.148 28.472 289.509C27.4752 290.232 26.2519 290.818 25.3004 291.179C24.802 291.36 24.3943 291.495 24.0771 291.541C23.7599 291.631 23.624 291.631 23.624 291.631C23.8506 292.082 24.1677 292.488 24.4848 292.85C24.8473 293.256 25.2551 293.572 25.7082 293.843C26.1613 294.159 26.6596 294.384 27.2033 294.565C27.747 294.745 28.2908 294.836 28.8798 294.926C30.0125 295.016 31.2358 294.836 32.2779 294.429C33.32 293.978 34.2261 293.346 34.8151 292.488C34.8151 292.488 34.9057 292.353 35.087 292.082C35.2682 291.857 35.4947 291.405 35.7213 290.954C36.2197 290.051 36.6728 288.742 36.854 287.523C37.0352 286.305 36.9899 285.131 36.8087 284.273C36.7181 283.867 36.6275 283.506 36.5821 283.28C36.4915 283.055 36.4462 282.919 36.4462 282.919C34.951 282.919 33.909 283.01 33.2293 283.461C33.0481 283.551 32.9122 283.687 32.731 283.867C32.595 284.003 32.4591 284.183 32.3232 284.409C32.1872 284.589 32.0513 284.86 31.9154 285.131C31.8248 285.447 31.6888 285.718 31.5076 286.079Z" fill="#CEC927" stroke="#ACA824"/>
<path d="M36.5335 283.01C36.5335 283.01 36.5788 283.145 36.6694 283.371C36.7147 283.596 36.8053 283.912 36.8959 284.364C37.0318 285.176 37.1224 286.35 36.9412 287.614C36.76 288.832 36.3069 290.141 35.8085 291.044C35.582 291.495 35.3102 291.902 35.1742 292.172C34.993 292.443 34.9023 292.579 34.9023 292.579C35.1289 292.669 35.4008 292.759 35.6726 292.804C35.9445 292.849 36.2163 292.849 36.4881 292.895C36.76 292.895 37.0318 292.895 37.349 292.895C37.6208 292.849 37.8927 292.804 38.1646 292.759C39.252 292.488 40.3393 291.947 41.2455 291.179C42.1517 290.412 42.8313 289.419 43.2391 288.426C43.6468 287.388 43.7828 286.305 43.6015 285.312C43.6015 285.312 43.5562 285.131 43.5109 284.815C43.4656 284.499 43.3297 284.093 43.1938 283.596C42.8766 282.603 42.3329 281.385 41.608 280.346C40.883 279.308 39.9769 278.541 39.2973 278.044C38.9348 277.819 38.6629 277.638 38.4364 277.503C38.2099 277.367 38.1193 277.322 38.1193 277.322C37.0319 278.36 36.3975 279.128 36.2163 279.895C35.8538 280.572 36.0804 281.565 36.5335 283.01Z" fill="#CEC927" stroke="#ACA824"/>
<path d="M43.3764 284.725C43.4218 285.041 43.467 285.221 43.467 285.221C44.3732 284.815 45.1888 284.048 45.8231 283.1C46.4574 282.152 46.8198 280.978 46.9105 279.805C47.0011 278.631 46.8199 277.412 46.3668 276.419C44.4823 272.101 41.8084 270.594 36.1511 271.699C35.0052 273.798 34.9491 274.614 35.3569 275.336C37.8162 279.147 42.4053 278.92 43.3764 284.725Z" fill="#CEC927" stroke="#ACA824"/>
<path d="M35.7386 318.31L35.0081 316L27.4034 319.2C23.2467 320.952 23.6667 324.424 24.6785 328C28.7329 326.287 37.6343 324.346 35.7386 318.31Z" fill="#CEC927" stroke="#ACA824"/>
<path d="M35.7386 325.31L35.0081 323L27.4034 326.2C23.2467 327.952 23.6667 331.424 24.6785 335C28.7329 333.287 37.6343 331.346 35.7386 325.31Z" fill="#CEC927" stroke="#ACA824"/>
<path d="M35.7386 332.31L35.0081 330L27.4034 333.2C23.2467 334.952 23.6667 338.424 24.6785 342C28.7329 340.287 37.6343 338.346 35.7386 332.31Z" fill="#CEC927" stroke="#ACA824"/>
<path d="M35.7386 339.31L35.0081 337L27.4034 340.2C23.2467 341.952 23.6667 345.424 24.6785 349C28.7329 347.287 37.6343 345.346 35.7386 339.31Z" fill="#CEC927" stroke="#ACA824"/>
<path d="M35.7386 346.31L35.0081 344L27.4034 347.2C23.2467 348.952 23.6667 352.424 24.6785 356C28.7329 354.287 37.6343 352.346 35.7386 346.31Z" fill="#CEC927" stroke="#ACA824"/>
<path d="M35.7386 353.31L35.0081 351L27.4034 354.2C23.2467 355.952 23.6667 359.424 24.6785 363C28.7329 361.287 37.6343 359.346 35.7386 353.31Z" fill="#CEC927" stroke="#ACA824"/>
<path d="M35.7386 360.31L35.0081 358L27.4034 361.2C23.2467 362.952 23.6667 366.424 24.6785 370C28.7329 368.287 37.6343 366.346 35.7386 360.31Z" fill="#CEC927" stroke="#ACA824"/>
<path d="M35.7386 367.31L35.0081 365L27.4034 368.2C23.2467 369.952 23.6667 373.424 24.6785 377C28.7329 375.287 37.6343 373.346 35.7386 367.31Z" fill="#CEC927" stroke="#ACA824"/>
<path d="M35.7386 374.31L35.0081 372L27.4034 375.2C23.2467 376.952 23.6667 380.424 24.6785 384C28.7329 382.287 37.6343 380.346 35.7386 374.31Z" fill="#CEC927" stroke="#ACA824"/>
<path d="M23.5451 404.226C23.2586 408.849 22.6856 413.464 21.7897 418.028C21.7897 418.062 21.7792 418.079 21.7792 418.096C21.2868 420.501 22.9765 420.31 24.6182 420.31C25.6027 416.28 26.4257 410.682 26.5091 405.762C26.5091 405.762 27.03 410.393 25.6964 418.639C25.7694 419.164 25.8736 419.792 26.0663 420.31H27.754C28.3999 414.338 28.8427 407.255 28.9052 400.519C28.9365 401.554 29.1657 408.917 28.2333 420.31H31.0253L31.3743 419.046L31.64 418.121C31.6348 418.113 31.6348 418.096 31.6348 418.079C31.4212 415.05 31.291 412.395 31.2024 410.113C30.9576 403.777 31.1347 400.401 31.1347 400.401C31.1816 407.043 31.6139 414.024 32.2599 420.539L34.6196 420.31C32.9943 411.199 33.4892 406.084 33.5257 405.77C33.6403 412.404 34.8956 418.147 35.479 420.505L37.2762 420.31C37.9794 420.301 38.4743 419.19 38.2555 418.07C37.3543 413.498 36.7761 408.858 36.4948 404.226C35.7508 393.322 24.456 389.827 23.5451 404.226Z" fill="#CEC927" stroke="#ACA824"/>
<path d="M35.7386 381.31L35.0081 379L27.4034 382.2C23.2467 383.953 23.6667 387.424 24.6785 391C28.7329 389.287 37.6343 387.346 35.7386 381.31Z" fill="#CEC927" stroke="#ACA824"/>
<path d="M32.5194 389.184C33.5968 389.541 34.6488 390.001 35.4935 390.444C36.3381 390.887 36.8456 391.265 36.8456 391.265C37.0751 390.615 37.0577 389.821 36.8463 389.098C35.2239 382.169 26.519 383.352 24.4632 387.346C24.194 387.869 24.0666 388.246 24.0666 388.246C25.25 389.034 27.1835 390.687 27.8318 390.778C28.169 390.843 28.4018 390.757 28.6733 390.657C29.9642 389.711 30.577 388.541 32.5194 389.184Z" fill="#CEC927" stroke="#ACA824"/>
<path d="M37.5725 396.907C40.2254 394.745 40.1809 391.438 37.5723 388.171C34.9637 384.904 29.4978 386.91 27.712 392.607C28.9642 395.81 36.4027 394.161 37.5725 396.907Z" fill="#CEC927" stroke="#ACA824"/>
<path d="M26.8229 386.456C26.8726 385.998 26.9222 385.586 26.9719 385.312C27.0711 385.037 27.0711 384.854 27.0711 384.854C26.0287 384.945 25.0359 385.449 24.192 386.09C19.9935 389.505 22.1959 394.287 26.0287 396.891C26.9719 397.531 27.9647 397.897 28.7093 398.081C29.0568 398.172 29.4043 398.218 29.6029 398.264C29.8014 398.309 29.9503 398.309 29.9503 398.309C32.5354 393.909 26.573 391.064 26.8229 386.456Z" fill="#CEC927" stroke="#ACA824"/>
<path d="M29.1329 394.533C29.1329 394.533 28.984 394.533 28.7854 394.482C28.5868 394.432 28.289 394.381 27.8919 394.28C27.1472 394.078 26.1544 393.623 25.2112 392.966C24.2681 392.309 23.4242 391.4 22.8285 390.642C22.2328 389.884 21.8853 389.328 21.8853 389.328C21.2399 389.985 20.7932 390.844 20.5946 391.804C20.3464 392.764 20.3464 393.876 20.6443 394.987C20.8925 396.048 21.4385 397.109 22.1831 397.918C22.9278 398.726 23.8213 399.282 24.7148 399.535C24.7148 399.535 24.8638 399.585 25.1616 399.636C25.4595 399.686 25.8566 399.787 26.353 399.838C27.3458 399.939 28.5868 399.888 29.7286 399.585C30.8703 399.282 31.7142 398.676 32.2603 398.12C32.5085 397.867 32.707 397.615 32.8063 397.463C32.9056 397.312 33.0049 397.211 33.0049 397.211C32.4092 395.998 32.3596 395.392 31.8631 395.038C31.3171 394.785 30.4732 394.684 29.1329 394.533Z" fill="#CEC927" stroke="#ACA824"/>
<path d="M29.6458 395.524C29.6458 395.524 29.5694 395.606 29.3836 395.707C29.2453 395.822 28.9688 396.054 28.6736 396.174C28.0399 396.558 27.0118 396.874 25.8328 396.827C24.6868 396.842 23.4519 396.46 22.5308 396.07C22.0702 395.875 21.7191 395.66 21.4485 395.524C21.178 395.388 21.0499 395.295 21.0499 395.295C20.8233 396.228 20.8672 397.298 21.2725 398.374C21.6303 399.435 22.3494 400.502 23.3595 401.29C23.8574 401.708 24.3841 402.029 24.9871 402.268C25.2577 402.405 25.5427 402.493 25.8277 402.581C26.1126 402.669 26.4121 402.709 26.7115 402.749C27.3103 402.828 27.843 402.782 28.3757 402.735C28.8753 402.626 29.3894 402.468 29.8228 402.232C29.8228 402.232 29.9611 402.116 30.2563 401.996C30.504 401.862 30.8425 401.597 31.2429 401.298C31.9962 400.686 32.8361 399.784 33.4529 398.76C34.0697 397.736 34.4677 396.75 34.6986 395.977C34.814 395.59 34.8675 395.237 34.9252 395.044C34.9354 394.835 34.9787 394.69 34.9787 394.69C33.7064 394.086 32.6945 393.826 31.9286 393.959C31.1151 394.077 30.5951 394.603 29.6458 395.524Z" fill="#CEC927" stroke="#ACA824"/>
<path d="M30.4334 394.02C30.4333 395.51 30.5716 396.95 30.1715 398.444C29.8737 399.606 29.3276 400.717 28.7816 401.526C28.4837 401.93 28.2355 402.284 28.037 402.486C27.8384 402.688 27.6895 402.839 27.6895 402.839C28.583 403.294 29.6255 403.395 30.6679 403.294C31.7104 403.143 32.7529 402.789 33.5968 402.183C37.8792 399.194 36.3038 394.58 34.119 392.296C32.3638 391.29 30.9067 392.073 30.4334 394.02Z" fill="#CEC927" stroke="#ACA824"/>
<path d="M35.0295 401.482C39.1535 400.316 39.7284 394.193 36.3439 392.077C32.9593 389.962 30.4208 392.5 30.422 393.471C34.6539 394.274 36.3433 396.308 35.0295 401.482Z" fill="#CEC927" stroke="#ACA824"/>
</svg>
