<svg width="60" height="516" viewBox="0 0 60 516" fill="none" xmlns="http://www.w3.org/2000/svg">
<path d="M35.2604 3.11741L34.5908 1L27.6198 3.93356C23.8095 5.53963 24.1945 8.72229 25.1219 12C28.8385 10.43 36.9981 8.65019 35.2604 3.11741Z" fill="#994DC5" stroke="#762CA2"/>
<path d="M35.2604 10.1174L34.5908 8L27.6198 10.9336C23.8095 12.5396 24.1945 15.7223 25.1219 19C28.8385 17.43 36.9981 15.6502 35.2604 10.1174Z" fill="#994DC5" stroke="#762CA2"/>
<path d="M35.2604 17.1174L34.5908 15L27.6198 17.9336C23.8095 19.5396 24.1945 22.7223 25.1219 26C28.8385 24.43 36.9981 22.6502 35.2604 17.1174Z" fill="#994DC5" stroke="#762CA2"/>
<path d="M35.2604 24.1174L34.5908 22L27.6198 24.9336C23.8095 26.5396 24.1945 29.7223 25.1219 33C28.8385 31.43 36.9981 29.6502 35.2604 24.1174Z" fill="#994DC5" stroke="#762CA2"/>
<path d="M35.2604 31.1174L34.5908 29L27.6198 31.9336C23.8095 33.5396 24.1945 36.7223 25.1219 40C28.8385 38.43 36.9981 36.6502 35.2604 31.1174Z" fill="#994DC5" stroke="#762CA2"/>
<path d="M35.2604 38.1174L34.5908 36L27.6198 38.9336C23.8095 40.5396 24.1945 43.7223 25.1219 47C28.8385 45.43 36.9981 43.6502 35.2604 38.1174Z" fill="#994DC5" stroke="#762CA2"/>
<path d="M35.2604 45.1174L34.5908 43L27.6198 45.9336C23.8095 47.5396 24.1945 50.7223 25.1219 54C28.8385 52.43 36.9981 50.6502 35.2604 45.1174Z" fill="#994DC5" stroke="#762CA2"/>
<path d="M35.2604 52.1174L34.5908 50L27.6198 52.9336C23.8095 54.5396 24.1945 57.7223 25.1219 61C28.8385 59.43 36.9981 57.6502 35.2604 52.1174Z" fill="#994DC5" stroke="#762CA2"/>
<path d="M35.2604 59.1174L34.5908 57L27.6198 59.9336C23.8095 61.5396 24.1945 64.7223 25.1219 68C28.8385 66.43 36.9981 64.6502 35.2604 59.1174Z" fill="#994DC5" stroke="#762CA2"/>
<path d="M35.2604 66.1174L34.5908 64L27.6198 66.9336C23.8095 68.5396 24.1945 71.7223 25.1219 75C28.8385 73.43 36.9981 71.6502 35.2604 66.1174Z" fill="#994DC5" stroke="#762CA2"/>
<path d="M35.2604 73.1174L34.5908 71L27.6198 73.9336C23.8095 75.5396 24.1945 78.7223 25.1219 82C28.8385 80.43 36.9981 78.6502 35.2604 73.1174Z" fill="#994DC5" stroke="#762CA2"/>
<path d="M35.2604 80.1174L34.5908 78L27.6198 80.9336C23.8095 82.5396 24.1945 85.7223 25.1219 89C28.8385 87.43 36.9981 85.6502 35.2604 80.1174Z" fill="#994DC5" stroke="#762CA2"/>
<path d="M35.3182 137.458C34.9386 136.488 34.0952 135.518 32.9987 134.928C31.9023 134.295 30.6371 134 29.4142 134C23.8927 134.095 21.8358 140.405 23.3415 144.922C23.468 145.302 23.5945 145.597 23.6789 145.808C23.7632 146.019 23.8053 146.145 23.8053 146.145C25.197 145.935 26.1669 145.681 26.7573 145.175C30.2803 142.533 29.7178 137.458 35.3182 137.458Z" fill="#994DC5" stroke="#762CA2"/>
<path d="M40.0368 141.48C39.9718 140.44 39.4651 139.259 38.6015 138.362C37.7508 137.424 36.6364 136.756 35.4719 136.383C30.4164 134.856 25.4113 139.95 27.2282 144.815C35.2485 147.804 34.8711 139.822 40.0368 141.48Z" fill="#994DC5" stroke="#762CA2"/>
<path d="M23.6759 138.048C23.7603 137.88 23.8446 137.711 23.8868 137.542C24.0133 137.289 24.0976 137.121 24.0976 137.121C23.1699 136.952 22.1156 137.078 21.1456 137.5C20.1757 137.88 19.2479 138.554 18.5732 139.356C15.5273 143.163 17.5819 148.291 21.1878 150.995C21.3565 151.122 21.5674 151.248 21.7361 151.375C22.0734 151.585 22.3264 151.754 22.5373 151.838C22.7481 151.923 22.8747 151.965 22.8747 151.965C23.8446 150.953 24.3928 150.194 24.5615 149.308C25.1374 145.469 22.5932 142.379 23.6759 138.048Z" fill="#994DC5" stroke="#762CA2"/>
<path d="M34.8528 144.796C34.8528 144.796 34.9792 144.754 35.1901 144.669C35.401 144.585 35.6962 144.501 36.0757 144.458C36.8348 144.29 37.9313 144.29 39.0699 144.501C40.2085 144.712 41.3893 145.175 42.2328 145.597C42.6545 145.808 42.9919 146.019 43.2449 146.188C43.4979 146.356 43.6244 146.441 43.6244 146.441C43.9618 145.555 44.0039 144.543 43.7931 143.531C43.5822 142.519 43.0762 141.464 42.3592 140.621C41.6423 139.735 40.7146 139.061 39.7025 138.639C38.6904 138.217 37.5939 138.091 36.6239 138.259C36.6239 138.259 36.4553 138.301 36.1601 138.344C35.8649 138.428 35.4431 138.512 34.9792 138.723C34.5154 138.892 33.9671 139.145 33.4611 139.482C32.955 139.82 32.4912 140.199 32.0695 140.621C31.2682 141.464 30.8886 142.476 30.7621 143.193C30.7199 143.573 30.7199 143.826 30.7621 144.037C30.8043 144.248 30.8043 144.332 30.8043 144.332C31.8164 145.049 32.196 145.597 32.4912 145.597C32.6177 145.597 32.9129 145.513 33.2502 145.344C33.8406 145.218 34.3467 145.007 34.8528 144.796Z" fill="#994DC5" stroke="#762CA2"/>
<path d="M35.4596 129.117L34.79 127L27.819 129.934C24.0087 131.54 24.3937 134.722 25.3212 138C29.0377 136.43 37.1974 134.65 35.4596 129.117Z" fill="#994DC5" stroke="#762CA2"/>
<path d="M35.4596 136.117L34.79 134L27.819 136.934C24.0087 138.54 24.3937 141.722 25.3212 145C29.0377 143.43 37.1974 141.65 35.4596 136.117Z" fill="#994DC5" stroke="#762CA2"/>
<path d="M35.4596 143.117L34.79 141L27.819 143.934C24.0087 145.54 24.3937 148.722 25.3212 152C29.0377 150.43 37.1974 148.65 35.4596 143.117Z" fill="#994DC5" stroke="#762CA2"/>
<path d="M35.4596 150.117L34.79 148L27.819 150.934C24.0087 152.54 24.3937 155.722 25.3212 159C29.0377 157.43 37.1974 155.65 35.4596 150.117Z" fill="#994DC5" stroke="#762CA2"/>
<path d="M35.4596 157.117L34.79 155L27.819 157.934C24.0087 159.54 24.3937 162.722 25.3212 166C29.0377 164.43 37.1974 162.65 35.4596 157.117Z" fill="#994DC5" stroke="#762CA2"/>
<path d="M35.4596 164.117L34.79 162L27.819 164.934C24.0087 166.54 24.3937 169.722 25.3212 173C29.0377 171.43 37.1974 169.65 35.4596 164.117Z" fill="#994DC5" stroke="#762CA2"/>
<path d="M17.3091 145.428C17.2247 145.133 17.1826 145.007 17.1826 145.007C15.58 145.934 14.4836 147.917 14.4414 150.067C14.4414 155.277 20.0414 158.144 24.7734 156.899C25.153 156.815 25.4481 156.73 25.659 156.646C25.8699 156.562 25.9964 156.519 25.9964 156.519C25.7106 151.662 18.7865 150.599 17.3091 145.428Z" fill="#994DC5" stroke="#762CA2"/>
<path d="M25.9981 156.478C25.9981 156.478 25.8715 156.52 25.6607 156.604C25.4498 156.688 25.1546 156.773 24.7751 156.857C24.016 157.026 22.9196 157.152 21.7388 157.068C21.1484 157.026 20.6001 156.899 20.0097 156.731C19.4615 156.562 18.9554 156.351 18.4915 156.182C18.0698 155.972 17.6903 155.761 17.4373 155.634C17.1842 155.466 17.0155 155.381 17.0155 155.381C16.889 155.845 16.8469 156.309 16.8047 156.815C16.8047 157.321 16.889 157.827 17.0577 158.375C17.1842 158.881 17.4372 159.387 17.6903 159.851C17.9433 160.315 18.3229 160.737 18.7024 161.159C19.0819 161.538 19.5037 161.876 19.9675 162.171C20.4314 162.466 20.8953 162.677 21.4014 162.846C21.9074 163.014 22.3713 163.099 22.8774 163.141C23.3834 163.183 23.8474 163.099 24.2691 163.014C24.2691 163.014 24.4378 162.972 24.6908 162.888C24.986 162.803 25.3655 162.677 25.8294 162.55C26.715 162.213 27.8536 161.665 28.7814 160.99C29.2453 160.653 29.667 160.273 30.0465 159.936C30.4261 159.556 30.7213 159.219 30.9321 158.881C31.396 158.207 31.6069 157.785 31.6069 157.785C30.6791 156.731 29.9622 156.14 29.1188 155.972C28.2754 155.803 27.3054 155.972 25.9981 156.478Z" fill="#994DC5" stroke="#762CA2"/>
<path d="M31.6054 157.827C31.6054 157.827 31.3945 158.249 30.9306 158.924C30.6776 159.219 30.3824 159.598 30.045 159.978C29.6655 160.315 29.2438 160.695 28.7799 161.032C27.8521 161.707 26.7135 162.255 25.8279 162.592C25.364 162.761 24.9845 162.888 24.6893 162.93C24.3941 163.014 24.2676 163.014 24.2676 163.014C24.4784 163.436 24.7736 163.815 25.0688 164.153C25.4062 164.532 25.7857 164.827 26.2075 165.081C26.6292 165.376 27.093 165.587 27.5991 165.755C28.1051 165.924 28.6112 166.008 29.1595 166.093C30.2137 166.177 31.3524 166.008 32.3223 165.629C33.2923 165.207 34.1357 164.617 34.6839 163.815C34.6839 163.815 34.7682 163.689 34.9369 163.436C35.1056 163.225 35.3165 162.803 35.5273 162.382C35.9912 161.538 36.4129 160.315 36.5816 159.177C36.7503 158.038 36.7081 156.941 36.5395 156.14C36.4551 155.761 36.3708 155.423 36.3286 155.212C36.2443 155.002 36.2021 154.875 36.2021 154.875C34.8104 154.875 33.8405 154.959 33.2079 155.381C33.0392 155.465 32.9127 155.592 32.744 155.761C32.6175 155.887 32.491 156.056 32.3645 156.267C32.238 156.435 32.1114 156.688 31.9849 156.941C31.9006 157.237 31.7741 157.49 31.6054 157.827Z" fill="#994DC5" stroke="#762CA2"/>
<path d="M36.2838 154.959C36.2838 154.959 36.326 155.086 36.4103 155.297C36.4525 155.507 36.5368 155.803 36.6212 156.224C36.7477 156.983 36.832 158.08 36.6633 159.261C36.4947 160.399 36.0729 161.622 35.6091 162.466C35.3982 162.887 35.1452 163.267 35.0187 163.52C34.85 163.773 34.7656 163.9 34.7656 163.9C34.9765 163.984 35.2295 164.068 35.4826 164.11C35.7356 164.153 35.9886 164.153 36.2416 164.195C36.4947 164.195 36.7477 164.195 37.0429 164.195C37.2959 164.153 37.549 164.11 37.802 164.068C38.8141 163.815 39.8262 163.309 40.6696 162.592C41.5131 161.875 42.1456 160.948 42.5252 160.02C42.9047 159.05 43.0313 158.038 42.8626 157.11C42.8626 157.11 42.8204 156.941 42.7782 156.646C42.736 156.351 42.6095 155.971 42.483 155.507C42.1878 154.58 41.6818 153.441 41.007 152.471C40.3323 151.501 39.4889 150.784 38.8563 150.32C38.5189 150.11 38.2659 149.941 38.055 149.814C37.8442 149.688 37.7598 149.646 37.7598 149.646C36.7477 150.616 36.1573 151.333 35.9886 152.049C35.6512 152.682 35.8621 153.61 36.2838 154.959Z" fill="#994DC5" stroke="#762CA2"/>
<path d="M42.6529 156.562C42.6951 156.857 42.7372 157.026 42.7372 157.026C43.5807 156.646 44.3398 155.929 44.9302 155.044C45.5206 154.158 45.8579 153.062 45.9423 151.965C46.0266 150.869 45.8579 149.73 45.4362 148.802C43.6822 144.768 41.1934 143.359 35.9278 144.392C34.8612 146.353 34.809 147.115 35.1885 147.79C37.4776 151.351 41.749 151.138 42.6529 156.562Z" fill="#994DC5" stroke="#762CA2"/>
<path d="M35.3182 116.458C34.9386 115.488 34.0952 114.518 32.9987 113.928C31.9023 113.295 30.6371 113 29.4142 113C23.8927 113.095 21.8358 119.405 23.3415 123.922C23.468 124.302 23.5945 124.597 23.6789 124.808C23.7632 125.019 23.8053 125.145 23.8053 125.145C25.197 124.935 26.1669 124.681 26.7573 124.175C30.2803 121.533 29.7178 116.458 35.3182 116.458Z" fill="#994DC5" stroke="#762CA2"/>
<path d="M40.0368 120.48C39.9718 119.44 39.4651 118.259 38.6015 117.362C37.7508 116.424 36.6364 115.756 35.4719 115.383C30.4164 113.856 25.4113 118.95 27.2282 123.815C35.2485 126.804 34.8711 118.822 40.0368 120.48Z" fill="#994DC5" stroke="#762CA2"/>
<path d="M23.6759 117.048C23.7603 116.88 23.8446 116.711 23.8868 116.542C24.0133 116.289 24.0976 116.121 24.0976 116.121C23.1699 115.952 22.1156 116.078 21.1456 116.5C20.1757 116.88 19.2479 117.554 18.5732 118.356C15.5273 122.163 17.5819 127.291 21.1878 129.995C21.3565 130.122 21.5674 130.248 21.7361 130.375C22.0734 130.585 22.3264 130.754 22.5373 130.838C22.7481 130.923 22.8747 130.965 22.8747 130.965C23.8446 129.953 24.3928 129.194 24.5615 128.308C25.1374 124.469 22.5932 121.379 23.6759 117.048Z" fill="#994DC5" stroke="#762CA2"/>
<path d="M34.8528 123.796C34.8528 123.796 34.9792 123.754 35.1901 123.669C35.401 123.585 35.6962 123.501 36.0757 123.458C36.8348 123.29 37.9313 123.29 39.0699 123.501C40.2085 123.712 41.3893 124.175 42.2328 124.597C42.6545 124.808 42.9919 125.019 43.2449 125.188C43.4979 125.356 43.6244 125.441 43.6244 125.441C43.9618 124.555 44.0039 123.543 43.7931 122.531C43.5822 121.519 43.0762 120.464 42.3592 119.621C41.6423 118.735 40.7146 118.061 39.7025 117.639C38.6904 117.217 37.5939 117.091 36.6239 117.259C36.6239 117.259 36.4553 117.301 36.1601 117.344C35.8649 117.428 35.4431 117.512 34.9792 117.723C34.5154 117.892 33.9671 118.145 33.4611 118.482C32.955 118.82 32.4912 119.199 32.0695 119.621C31.2682 120.464 30.8886 121.476 30.7621 122.193C30.7199 122.573 30.7199 122.826 30.7621 123.037C30.8043 123.248 30.8043 123.332 30.8043 123.332C31.8164 124.049 32.196 124.597 32.4912 124.597C32.6177 124.597 32.9129 124.513 33.2502 124.344C33.8406 124.218 34.3467 124.007 34.8528 123.796Z" fill="#994DC5" stroke="#762CA2"/>
<path d="M35.4596 108.117L34.79 106L27.819 108.934C24.0087 110.54 24.3937 113.722 25.3212 117C29.0377 115.43 37.1974 113.65 35.4596 108.117Z" fill="#994DC5" stroke="#762CA2"/>
<path d="M35.4596 115.117L34.79 113L27.819 115.934C24.0087 117.54 24.3937 120.722 25.3212 124C29.0377 122.43 37.1974 120.65 35.4596 115.117Z" fill="#994DC5" stroke="#762CA2"/>
<path d="M35.4596 122.117L34.79 120L27.819 122.934C24.0087 124.54 24.3937 127.722 25.3212 131C29.0377 129.43 37.1974 127.65 35.4596 122.117Z" fill="#994DC5" stroke="#762CA2"/>
<path d="M35.4596 129.117L34.79 127L27.819 129.934C24.0087 131.54 24.3937 134.722 25.3212 138C29.0377 136.43 37.1974 134.65 35.4596 129.117Z" fill="#994DC5" stroke="#762CA2"/>
<path d="M35.4596 136.117L34.79 134L27.819 136.934C24.0087 138.54 24.3937 141.722 25.3212 145C29.0377 143.43 37.1974 141.65 35.4596 136.117Z" fill="#994DC5" stroke="#762CA2"/>
<path d="M35.4596 143.117L34.79 141L27.819 143.934C24.0087 145.54 24.3937 148.722 25.3212 152C29.0377 150.43 37.1974 148.65 35.4596 143.117Z" fill="#994DC5" stroke="#762CA2"/>
<path d="M17.3091 124.428C17.2247 124.133 17.1826 124.007 17.1826 124.007C15.58 124.934 14.4836 126.917 14.4414 129.067C14.4414 134.277 20.0414 137.144 24.7734 135.899C25.153 135.815 25.4481 135.73 25.659 135.646C25.8699 135.562 25.9964 135.519 25.9964 135.519C25.7106 130.662 18.7865 129.599 17.3091 124.428Z" fill="#994DC5" stroke="#762CA2"/>
<path d="M25.9981 135.478C25.9981 135.478 25.8715 135.52 25.6607 135.604C25.4498 135.688 25.1546 135.773 24.7751 135.857C24.016 136.026 22.9196 136.152 21.7388 136.068C21.1484 136.026 20.6001 135.899 20.0097 135.731C19.4615 135.562 18.9554 135.351 18.4915 135.182C18.0698 134.972 17.6903 134.761 17.4373 134.634C17.1842 134.466 17.0155 134.381 17.0155 134.381C16.889 134.845 16.8469 135.309 16.8047 135.815C16.8047 136.321 16.889 136.827 17.0577 137.375C17.1842 137.881 17.4372 138.387 17.6903 138.851C17.9433 139.315 18.3229 139.737 18.7024 140.159C19.0819 140.538 19.5037 140.876 19.9675 141.171C20.4314 141.466 20.8953 141.677 21.4014 141.846C21.9074 142.014 22.3713 142.099 22.8774 142.141C23.3834 142.183 23.8474 142.099 24.2691 142.014C24.2691 142.014 24.4378 141.972 24.6908 141.888C24.986 141.803 25.3655 141.677 25.8294 141.55C26.715 141.213 27.8536 140.665 28.7814 139.99C29.2453 139.653 29.667 139.273 30.0465 138.936C30.4261 138.556 30.7213 138.219 30.9321 137.881C31.396 137.207 31.6069 136.785 31.6069 136.785C30.6791 135.731 29.9622 135.14 29.1188 134.972C28.2754 134.803 27.3054 134.972 25.9981 135.478Z" fill="#994DC5" stroke="#762CA2"/>
<path d="M31.6054 136.827C31.6054 136.827 31.3945 137.249 30.9306 137.924C30.6776 138.219 30.3824 138.598 30.045 138.978C29.6655 139.315 29.2438 139.695 28.7799 140.032C27.8521 140.707 26.7135 141.255 25.8279 141.592C25.364 141.761 24.9845 141.888 24.6893 141.93C24.3941 142.014 24.2676 142.014 24.2676 142.014C24.4784 142.436 24.7736 142.815 25.0688 143.153C25.4062 143.532 25.7857 143.827 26.2075 144.081C26.6292 144.376 27.093 144.587 27.5991 144.755C28.1051 144.924 28.6112 145.008 29.1595 145.093C30.2137 145.177 31.3524 145.008 32.3223 144.629C33.2923 144.207 34.1357 143.617 34.6839 142.815C34.6839 142.815 34.7682 142.689 34.9369 142.436C35.1056 142.225 35.3165 141.803 35.5273 141.382C35.9912 140.538 36.4129 139.315 36.5816 138.177C36.7503 137.038 36.7081 135.941 36.5395 135.14C36.4551 134.761 36.3708 134.423 36.3286 134.212C36.2443 134.002 36.2021 133.875 36.2021 133.875C34.8104 133.875 33.8405 133.959 33.2079 134.381C33.0392 134.465 32.9127 134.592 32.744 134.761C32.6175 134.887 32.491 135.056 32.3645 135.267C32.238 135.435 32.1114 135.688 31.9849 135.941C31.9006 136.237 31.7741 136.49 31.6054 136.827Z" fill="#994DC5" stroke="#762CA2"/>
<path d="M36.2838 133.959C36.2838 133.959 36.326 134.086 36.4103 134.297C36.4525 134.507 36.5368 134.803 36.6212 135.224C36.7477 135.983 36.832 137.08 36.6633 138.261C36.4947 139.399 36.0729 140.622 35.6091 141.466C35.3982 141.887 35.1452 142.267 35.0187 142.52C34.85 142.773 34.7656 142.9 34.7656 142.9C34.9765 142.984 35.2295 143.068 35.4826 143.11C35.7356 143.153 35.9886 143.153 36.2416 143.195C36.4947 143.195 36.7477 143.195 37.0429 143.195C37.2959 143.153 37.549 143.11 37.802 143.068C38.8141 142.815 39.8262 142.309 40.6696 141.592C41.5131 140.875 42.1456 139.948 42.5252 139.02C42.9047 138.05 43.0313 137.038 42.8626 136.11C42.8626 136.11 42.8204 135.941 42.7782 135.646C42.736 135.351 42.6095 134.971 42.483 134.507C42.1878 133.58 41.6818 132.441 41.007 131.471C40.3323 130.501 39.4889 129.784 38.8563 129.32C38.5189 129.11 38.2659 128.941 38.055 128.814C37.8442 128.688 37.7598 128.646 37.7598 128.646C36.7477 129.616 36.1573 130.333 35.9886 131.049C35.6512 131.682 35.8621 132.61 36.2838 133.959Z" fill="#994DC5" stroke="#762CA2"/>
<path d="M42.6529 135.562C42.6951 135.857 42.7372 136.026 42.7372 136.026C43.5807 135.646 44.3398 134.929 44.9302 134.044C45.5206 133.158 45.8579 132.062 45.9423 130.965C46.0266 129.869 45.8579 128.73 45.4362 127.802C43.6822 123.768 41.1934 122.359 35.9278 123.392C34.8612 125.353 34.809 126.115 35.1885 126.79C37.4776 130.351 41.749 130.138 42.6529 135.562Z" fill="#994DC5" stroke="#762CA2"/>
<path d="M35.3182 95.4581C34.9386 94.4881 34.0952 93.5182 32.9987 92.9278C31.9023 92.2952 30.6371 92 29.4142 92C23.8927 92.0952 21.8358 98.4055 23.3415 102.922C23.468 103.302 23.5945 103.597 23.6789 103.808C23.7632 104.019 23.8053 104.145 23.8053 104.145C25.197 103.935 26.1669 103.681 26.7573 103.175C30.2803 100.533 29.7178 95.4581 35.3182 95.4581Z" fill="#994DC5" stroke="#762CA2"/>
<path d="M40.0368 99.4796C39.9718 98.4401 39.4651 97.2588 38.6015 96.3616C37.7508 95.4242 36.6364 94.7565 35.4719 94.3828C30.4164 92.8559 25.4113 97.9501 27.2282 102.815C35.2485 105.804 34.8711 97.8217 40.0368 99.4796Z" fill="#994DC5" stroke="#762CA2"/>
<path d="M23.6759 96.0484C23.7603 95.8797 23.8446 95.711 23.8868 95.5423C24.0133 95.2893 24.0976 95.1206 24.0976 95.1206C23.1699 94.9519 22.1156 95.0784 21.1456 95.5002C20.1757 95.8797 19.2479 96.5544 18.5732 97.3557C15.5273 101.163 17.5819 106.291 21.1878 108.995C21.3565 109.122 21.5674 109.248 21.7361 109.375C22.0734 109.585 22.3264 109.754 22.5373 109.838C22.7481 109.923 22.8747 109.965 22.8747 109.965C23.8446 108.953 24.3928 108.194 24.5615 107.308C25.1374 103.469 22.5932 100.379 23.6759 96.0484Z" fill="#994DC5" stroke="#762CA2"/>
<path d="M34.8528 102.796C34.8528 102.796 34.9792 102.754 35.1901 102.669C35.401 102.585 35.6962 102.501 36.0757 102.458C36.8348 102.29 37.9313 102.29 39.0699 102.501C40.2085 102.712 41.3893 103.175 42.2328 103.597C42.6545 103.808 42.9919 104.019 43.2449 104.188C43.4979 104.356 43.6244 104.441 43.6244 104.441C43.9618 103.555 44.0039 102.543 43.7931 101.531C43.5822 100.519 43.0762 99.4643 42.3592 98.6209C41.6423 97.7353 40.7146 97.0605 39.7025 96.6388C38.6904 96.2171 37.5939 96.0906 36.6239 96.2593C36.6239 96.2593 36.4553 96.3015 36.1601 96.3436C35.8649 96.428 35.4431 96.5123 34.9792 96.7232C34.5154 96.8918 33.9671 97.1449 33.4611 97.4822C32.955 97.8196 32.4912 98.1992 32.0695 98.6209C31.2682 99.4643 30.8886 100.476 30.7621 101.193C30.7199 101.573 30.7199 101.826 30.7621 102.037C30.8043 102.248 30.8043 102.332 30.8043 102.332C31.8164 103.049 32.196 103.597 32.4912 103.597C32.6177 103.597 32.9129 103.513 33.2502 103.344C33.8406 103.218 34.3467 103.007 34.8528 102.796Z" fill="#994DC5" stroke="#762CA2"/>
<path d="M35.4596 87.1174L34.79 85L27.819 87.9336C24.0087 89.5396 24.3937 92.7223 25.3212 96C29.0377 94.43 37.1974 92.6502 35.4596 87.1174Z" fill="#994DC5" stroke="#762CA2"/>
<path d="M35.4596 94.1174L34.79 92L27.819 94.9336C24.0087 96.5396 24.3937 99.7223 25.3212 103C29.0377 101.43 37.1974 99.6502 35.4596 94.1174Z" fill="#994DC5" stroke="#762CA2"/>
<path d="M35.4596 101.117L34.79 99L27.819 101.934C24.0087 103.54 24.3937 106.722 25.3212 110C29.0377 108.43 37.1974 106.65 35.4596 101.117Z" fill="#994DC5" stroke="#762CA2"/>
<path d="M35.4596 108.117L34.79 106L27.819 108.934C24.0087 110.54 24.3937 113.722 25.3212 117C29.0377 115.43 37.1974 113.65 35.4596 108.117Z" fill="#994DC5" stroke="#762CA2"/>
<path d="M35.4596 115.117L34.79 113L27.819 115.934C24.0087 117.54 24.3937 120.722 25.3212 124C29.0377 122.43 37.1974 120.65 35.4596 115.117Z" fill="#994DC5" stroke="#762CA2"/>
<path d="M35.4596 122.117L34.79 120L27.819 122.934C24.0087 124.54 24.3937 127.722 25.3212 131C29.0377 129.43 37.1974 127.65 35.4596 122.117Z" fill="#994DC5" stroke="#762CA2"/>
<path d="M17.3091 103.428C17.2247 103.133 17.1826 103.007 17.1826 103.007C15.58 103.934 14.4836 105.917 14.4414 108.067C14.4414 113.277 20.0414 116.144 24.7734 114.899C25.153 114.815 25.4481 114.73 25.659 114.646C25.8699 114.562 25.9964 114.519 25.9964 114.519C25.7106 109.662 18.7865 108.599 17.3091 103.428Z" fill="#994DC5" stroke="#762CA2"/>
<path d="M25.9981 114.478C25.9981 114.478 25.8715 114.52 25.6607 114.604C25.4498 114.688 25.1546 114.773 24.7751 114.857C24.016 115.026 22.9196 115.152 21.7388 115.068C21.1484 115.026 20.6001 114.899 20.0097 114.731C19.4615 114.562 18.9554 114.351 18.4915 114.182C18.0698 113.972 17.6903 113.761 17.4373 113.634C17.1842 113.466 17.0155 113.381 17.0155 113.381C16.889 113.845 16.8469 114.309 16.8047 114.815C16.8047 115.321 16.889 115.827 17.0577 116.375C17.1842 116.881 17.4372 117.387 17.6903 117.851C17.9433 118.315 18.3229 118.737 18.7024 119.159C19.0819 119.538 19.5037 119.876 19.9675 120.171C20.4314 120.466 20.8953 120.677 21.4014 120.846C21.9074 121.014 22.3713 121.099 22.8774 121.141C23.3834 121.183 23.8474 121.099 24.2691 121.014C24.2691 121.014 24.4378 120.972 24.6908 120.888C24.986 120.803 25.3655 120.677 25.8294 120.55C26.715 120.213 27.8536 119.665 28.7814 118.99C29.2453 118.653 29.667 118.273 30.0465 117.936C30.4261 117.556 30.7213 117.219 30.9321 116.881C31.396 116.207 31.6069 115.785 31.6069 115.785C30.6791 114.731 29.9622 114.14 29.1188 113.972C28.2754 113.803 27.3054 113.972 25.9981 114.478Z" fill="#994DC5" stroke="#762CA2"/>
<path d="M31.6054 115.827C31.6054 115.827 31.3945 116.249 30.9306 116.924C30.6776 117.219 30.3824 117.598 30.045 117.978C29.6655 118.315 29.2438 118.695 28.7799 119.032C27.8521 119.707 26.7135 120.255 25.8279 120.592C25.364 120.761 24.9845 120.888 24.6893 120.93C24.3941 121.014 24.2676 121.014 24.2676 121.014C24.4784 121.436 24.7736 121.815 25.0688 122.153C25.4062 122.532 25.7857 122.827 26.2075 123.081C26.6292 123.376 27.093 123.587 27.5991 123.755C28.1051 123.924 28.6112 124.008 29.1595 124.093C30.2137 124.177 31.3524 124.008 32.3223 123.629C33.2923 123.207 34.1357 122.617 34.6839 121.815C34.6839 121.815 34.7682 121.689 34.9369 121.436C35.1056 121.225 35.3165 120.803 35.5273 120.382C35.9912 119.538 36.4129 118.315 36.5816 117.177C36.7503 116.038 36.7081 114.941 36.5395 114.14C36.4551 113.761 36.3708 113.423 36.3286 113.212C36.2443 113.002 36.2021 112.875 36.2021 112.875C34.8104 112.875 33.8405 112.959 33.2079 113.381C33.0392 113.465 32.9127 113.592 32.744 113.761C32.6175 113.887 32.491 114.056 32.3645 114.267C32.238 114.435 32.1114 114.688 31.9849 114.941C31.9006 115.237 31.7741 115.49 31.6054 115.827Z" fill="#994DC5" stroke="#762CA2"/>
<path d="M36.2838 112.959C36.2838 112.959 36.326 113.086 36.4103 113.297C36.4525 113.507 36.5368 113.803 36.6212 114.224C36.7477 114.983 36.832 116.08 36.6633 117.261C36.4947 118.399 36.0729 119.622 35.6091 120.466C35.3982 120.887 35.1452 121.267 35.0187 121.52C34.85 121.773 34.7656 121.9 34.7656 121.9C34.9765 121.984 35.2295 122.068 35.4826 122.11C35.7356 122.153 35.9886 122.153 36.2416 122.195C36.4947 122.195 36.7477 122.195 37.0429 122.195C37.2959 122.153 37.549 122.11 37.802 122.068C38.8141 121.815 39.8262 121.309 40.6696 120.592C41.5131 119.875 42.1456 118.948 42.5252 118.02C42.9047 117.05 43.0313 116.038 42.8626 115.11C42.8626 115.11 42.8204 114.941 42.7782 114.646C42.736 114.351 42.6095 113.971 42.483 113.507C42.1878 112.58 41.6818 111.441 41.007 110.471C40.3323 109.501 39.4889 108.784 38.8563 108.32C38.5189 108.11 38.2659 107.941 38.055 107.814C37.8442 107.688 37.7598 107.646 37.7598 107.646C36.7477 108.616 36.1573 109.333 35.9886 110.049C35.6512 110.682 35.8621 111.61 36.2838 112.959Z" fill="#994DC5" stroke="#762CA2"/>
<path d="M42.6529 114.562C42.6951 114.857 42.7372 115.026 42.7372 115.026C43.5807 114.646 44.3398 113.929 44.9302 113.044C45.5206 112.158 45.8579 111.062 45.9423 109.965C46.0266 108.869 45.8579 107.73 45.4362 106.802C43.6822 102.768 41.1934 101.359 35.9278 102.392C34.8612 104.353 34.809 105.115 35.1885 105.79C37.4776 109.351 41.749 109.138 42.6529 114.562Z" fill="#994DC5" stroke="#762CA2"/>
<path d="M35.2604 171.117L34.5908 169L27.6198 171.934C23.8095 173.54 24.1945 176.722 25.1219 180C28.8385 178.43 36.9981 176.65 35.2604 171.117Z" fill="#994DC5" stroke="#762CA2"/>
<path d="M35.2604 178.117L34.5908 176L27.6198 178.934C23.8095 180.54 24.1945 183.722 25.1219 187C28.8385 185.43 36.9981 183.65 35.2604 178.117Z" fill="#994DC5" stroke="#762CA2"/>
<path d="M35.2604 185.117L34.5908 183L27.6198 185.934C23.8095 187.54 24.1945 190.722 25.1219 194C28.8385 192.43 36.9981 190.65 35.2604 185.117Z" fill="#994DC5" stroke="#762CA2"/>
<path d="M35.2604 192.117L34.5908 190L27.6198 192.934C23.8095 194.54 24.1945 197.722 25.1219 201C28.8385 199.43 36.9981 197.65 35.2604 192.117Z" fill="#994DC5" stroke="#762CA2"/>
<path d="M35.2604 199.117L34.5908 197L27.6198 199.934C23.8095 201.54 24.1945 204.722 25.1219 208C28.8385 206.43 36.9981 204.65 35.2604 199.117Z" fill="#994DC5" stroke="#762CA2"/>
<path d="M35.2604 206.117L34.5908 204L27.6198 206.934C23.8095 208.54 24.1945 211.722 25.1219 215C28.8385 213.43 36.9981 211.65 35.2604 206.117Z" fill="#994DC5" stroke="#762CA2"/>
<path d="M35.2604 213.117L34.5908 211L27.6198 213.934C23.8095 215.54 24.1945 218.722 25.1219 222C28.8385 220.43 36.9981 218.65 35.2604 213.117Z" fill="#994DC5" stroke="#762CA2"/>
<path d="M35.2604 220.117L34.5908 218L27.6198 220.934C23.8095 222.54 24.1945 225.722 25.1219 229C28.8385 227.43 36.9981 225.65 35.2604 220.117Z" fill="#994DC5" stroke="#762CA2"/>
<path d="M35.2604 227.117L34.5908 225L27.6198 227.934C23.8095 229.54 24.1945 232.722 25.1219 236C28.8385 234.43 36.9981 232.65 35.2604 227.117Z" fill="#994DC5" stroke="#762CA2"/>
<path d="M35.2604 234.117L34.5908 232L27.6198 234.934C23.8095 236.54 24.1945 239.722 25.1219 243C28.8385 241.43 36.9981 239.65 35.2604 234.117Z" fill="#994DC5" stroke="#762CA2"/>
<path d="M35.2604 241.117L34.5908 239L27.6198 241.934C23.8095 243.54 24.1945 246.722 25.1219 250C28.8385 248.43 36.9981 246.65 35.2604 241.117Z" fill="#994DC5" stroke="#762CA2"/>
<path d="M35.2604 248.117L34.5908 246L27.6198 248.934C23.8095 250.54 24.1945 253.722 25.1219 257C28.8385 255.43 36.9981 253.65 35.2604 248.117Z" fill="#994DC5" stroke="#762CA2"/>
<path d="M35.2604 255.117L34.5908 253L27.6198 255.934C23.8095 257.54 24.1945 260.722 25.1219 264C28.8385 262.43 36.9981 260.65 35.2604 255.117Z" fill="#994DC5" stroke="#762CA2"/>
<path d="M35.2604 262.117L34.5908 260L27.6198 262.934C23.8095 264.54 24.1945 267.722 25.1219 271C28.8385 269.43 36.9981 267.65 35.2604 262.117Z" fill="#994DC5" stroke="#762CA2"/>
<path d="M35.2604 269.117L34.5908 267L27.6198 269.934C23.8095 271.54 24.1945 274.722 25.1219 278C28.8385 276.43 36.9981 274.65 35.2604 269.117Z" fill="#994DC5" stroke="#762CA2"/>
<path d="M35.2604 276.117L34.5908 274L27.6198 276.934C23.8095 278.54 24.1945 281.722 25.1219 285C28.8385 283.43 36.9981 281.65 35.2604 276.117Z" fill="#994DC5" stroke="#762CA2"/>
<path d="M35.2604 283.117L34.5908 281L27.6198 283.934C23.8095 285.54 24.1945 288.722 25.1219 292C28.8385 290.43 36.9981 288.65 35.2604 283.117Z" fill="#994DC5" stroke="#762CA2"/>
<path d="M35.2604 290.117L34.5908 288L27.6198 290.934C23.8095 292.54 24.1945 295.722 25.1219 299C28.8385 297.43 36.9981 295.65 35.2604 290.117Z" fill="#994DC5" stroke="#762CA2"/>
<path d="M35.2604 297.117L34.5908 295L27.6198 297.934C23.8095 299.54 24.1945 302.722 25.1219 306C28.8385 304.43 36.9981 302.65 35.2604 297.117Z" fill="#994DC5" stroke="#762CA2"/>
<path d="M35.3182 354.458C34.9386 353.488 34.0952 352.518 32.9987 351.928C31.9023 351.295 30.6371 351 29.4142 351C23.8927 351.095 21.8358 357.405 23.3415 361.922C23.468 362.302 23.5945 362.597 23.6789 362.808C23.7632 363.019 23.8053 363.145 23.8053 363.145C25.197 362.935 26.1669 362.681 26.7573 362.175C30.2803 359.533 29.7178 354.458 35.3182 354.458Z" fill="#994DC5" stroke="#762CA2"/>
<path d="M40.0368 358.48C39.9718 357.44 39.4651 356.259 38.6015 355.362C37.7508 354.424 36.6364 353.756 35.4719 353.383C30.4164 351.856 25.4113 356.95 27.2282 361.815C35.2485 364.804 34.8711 356.822 40.0368 358.48Z" fill="#994DC5" stroke="#762CA2"/>
<path d="M23.6759 355.048C23.7603 354.88 23.8446 354.711 23.8868 354.542C24.0133 354.289 24.0976 354.121 24.0976 354.121C23.1699 353.952 22.1156 354.078 21.1456 354.5C20.1757 354.88 19.2479 355.554 18.5732 356.356C15.5273 360.163 17.5819 365.291 21.1878 367.995C21.3565 368.122 21.5674 368.248 21.7361 368.375C22.0734 368.585 22.3264 368.754 22.5373 368.838C22.7481 368.923 22.8747 368.965 22.8747 368.965C23.8446 367.953 24.3928 367.194 24.5615 366.308C25.1374 362.469 22.5932 359.379 23.6759 355.048Z" fill="#994DC5" stroke="#762CA2"/>
<path d="M34.8528 361.796C34.8528 361.796 34.9792 361.754 35.1901 361.669C35.401 361.585 35.6962 361.501 36.0757 361.458C36.8348 361.29 37.9313 361.29 39.0699 361.501C40.2085 361.712 41.3893 362.175 42.2328 362.597C42.6545 362.808 42.9919 363.019 43.2449 363.188C43.4979 363.356 43.6244 363.441 43.6244 363.441C43.9618 362.555 44.0039 361.543 43.7931 360.531C43.5822 359.519 43.0762 358.464 42.3592 357.621C41.6423 356.735 40.7146 356.061 39.7025 355.639C38.6904 355.217 37.5939 355.091 36.6239 355.259C36.6239 355.259 36.4553 355.301 36.1601 355.344C35.8649 355.428 35.4431 355.512 34.9792 355.723C34.5154 355.892 33.9671 356.145 33.4611 356.482C32.955 356.82 32.4912 357.199 32.0695 357.621C31.2682 358.464 30.8886 359.476 30.7621 360.193C30.7199 360.573 30.7199 360.826 30.7621 361.037C30.8043 361.248 30.8043 361.332 30.8043 361.332C31.8164 362.049 32.196 362.597 32.4912 362.597C32.6177 362.597 32.9129 362.513 33.2502 362.344C33.8406 362.218 34.3467 362.007 34.8528 361.796Z" fill="#994DC5" stroke="#762CA2"/>
<path d="M35.4596 346.117L34.79 344L27.819 346.934C24.0087 348.54 24.3937 351.722 25.3212 355C29.0377 353.43 37.1974 351.65 35.4596 346.117Z" fill="#994DC5" stroke="#762CA2"/>
<path d="M35.4596 353.117L34.79 351L27.819 353.934C24.0087 355.54 24.3937 358.722 25.3212 362C29.0377 360.43 37.1974 358.65 35.4596 353.117Z" fill="#994DC5" stroke="#762CA2"/>
<path d="M35.4596 360.117L34.79 358L27.819 360.934C24.0087 362.54 24.3937 365.722 25.3212 369C29.0377 367.43 37.1974 365.65 35.4596 360.117Z" fill="#994DC5" stroke="#762CA2"/>
<path d="M35.4596 367.117L34.79 365L27.819 367.934C24.0087 369.54 24.3937 372.722 25.3212 376C29.0377 374.43 37.1974 372.65 35.4596 367.117Z" fill="#994DC5" stroke="#762CA2"/>
<path d="M35.4596 374.117L34.79 372L27.819 374.934C24.0087 376.54 24.3937 379.722 25.3212 383C29.0377 381.43 37.1974 379.65 35.4596 374.117Z" fill="#994DC5" stroke="#762CA2"/>
<path d="M35.4596 381.117L34.79 379L27.819 381.934C24.0087 383.54 24.3937 386.722 25.3212 390C29.0377 388.43 37.1974 386.65 35.4596 381.117Z" fill="#994DC5" stroke="#762CA2"/>
<path d="M17.3091 362.428C17.2247 362.133 17.1826 362.007 17.1826 362.007C15.58 362.934 14.4836 364.917 14.4414 367.067C14.4414 372.277 20.0414 375.144 24.7734 373.899C25.153 373.815 25.4481 373.73 25.659 373.646C25.8699 373.562 25.9964 373.519 25.9964 373.519C25.7106 368.662 18.7865 367.599 17.3091 362.428Z" fill="#994DC5" stroke="#762CA2"/>
<path d="M25.9981 373.478C25.9981 373.478 25.8715 373.52 25.6607 373.604C25.4498 373.688 25.1546 373.773 24.7751 373.857C24.016 374.026 22.9196 374.152 21.7388 374.068C21.1484 374.026 20.6001 373.899 20.0097 373.731C19.4615 373.562 18.9554 373.351 18.4915 373.182C18.0698 372.972 17.6903 372.761 17.4373 372.634C17.1842 372.466 17.0155 372.381 17.0155 372.381C16.889 372.845 16.8469 373.309 16.8047 373.815C16.8047 374.321 16.889 374.827 17.0577 375.375C17.1842 375.881 17.4372 376.387 17.6903 376.851C17.9433 377.315 18.3229 377.737 18.7024 378.159C19.0819 378.538 19.5037 378.876 19.9675 379.171C20.4314 379.466 20.8953 379.677 21.4014 379.846C21.9074 380.014 22.3713 380.099 22.8774 380.141C23.3834 380.183 23.8474 380.099 24.2691 380.014C24.2691 380.014 24.4378 379.972 24.6908 379.888C24.986 379.803 25.3655 379.677 25.8294 379.55C26.715 379.213 27.8536 378.665 28.7814 377.99C29.2453 377.653 29.667 377.273 30.0465 376.936C30.4261 376.556 30.7213 376.219 30.9321 375.881C31.396 375.207 31.6069 374.785 31.6069 374.785C30.6791 373.731 29.9622 373.14 29.1188 372.972C28.2754 372.803 27.3054 372.972 25.9981 373.478Z" fill="#994DC5" stroke="#762CA2"/>
<path d="M31.6054 374.827C31.6054 374.827 31.3945 375.249 30.9306 375.924C30.6776 376.219 30.3824 376.598 30.045 376.978C29.6655 377.315 29.2438 377.695 28.7799 378.032C27.8521 378.707 26.7135 379.255 25.8279 379.592C25.364 379.761 24.9845 379.888 24.6893 379.93C24.3941 380.014 24.2676 380.014 24.2676 380.014C24.4784 380.436 24.7736 380.815 25.0688 381.153C25.4062 381.532 25.7857 381.827 26.2075 382.081C26.6292 382.376 27.093 382.587 27.5991 382.755C28.1051 382.924 28.6112 383.008 29.1595 383.093C30.2137 383.177 31.3524 383.008 32.3223 382.629C33.2923 382.207 34.1357 381.617 34.6839 380.815C34.6839 380.815 34.7682 380.689 34.9369 380.436C35.1056 380.225 35.3165 379.803 35.5273 379.382C35.9912 378.538 36.4129 377.315 36.5816 376.177C36.7503 375.038 36.7081 373.941 36.5395 373.14C36.4551 372.761 36.3708 372.423 36.3286 372.212C36.2443 372.002 36.2021 371.875 36.2021 371.875C34.8104 371.875 33.8405 371.959 33.2079 372.381C33.0392 372.465 32.9127 372.592 32.744 372.761C32.6175 372.887 32.491 373.056 32.3645 373.267C32.238 373.435 32.1114 373.688 31.9849 373.941C31.9006 374.237 31.7741 374.49 31.6054 374.827Z" fill="#994DC5" stroke="#762CA2"/>
<path d="M36.2838 371.959C36.2838 371.959 36.326 372.086 36.4103 372.297C36.4525 372.507 36.5368 372.803 36.6212 373.224C36.7477 373.983 36.832 375.08 36.6633 376.261C36.4947 377.399 36.0729 378.622 35.6091 379.466C35.3982 379.887 35.1452 380.267 35.0187 380.52C34.85 380.773 34.7656 380.9 34.7656 380.9C34.9765 380.984 35.2295 381.068 35.4826 381.11C35.7356 381.153 35.9886 381.153 36.2416 381.195C36.4947 381.195 36.7477 381.195 37.0429 381.195C37.2959 381.153 37.549 381.11 37.802 381.068C38.8141 380.815 39.8262 380.309 40.6696 379.592C41.5131 378.875 42.1456 377.948 42.5252 377.02C42.9047 376.05 43.0313 375.038 42.8626 374.11C42.8626 374.11 42.8204 373.941 42.7782 373.646C42.736 373.351 42.6095 372.971 42.483 372.507C42.1878 371.58 41.6818 370.441 41.007 369.471C40.3323 368.501 39.4889 367.784 38.8563 367.32C38.5189 367.11 38.2659 366.941 38.055 366.814C37.8442 366.688 37.7598 366.646 37.7598 366.646C36.7477 367.616 36.1573 368.333 35.9886 369.049C35.6512 369.682 35.8621 370.61 36.2838 371.959Z" fill="#994DC5" stroke="#762CA2"/>
<path d="M42.6529 373.562C42.6951 373.857 42.7372 374.026 42.7372 374.026C43.5807 373.646 44.3398 372.929 44.9302 372.044C45.5206 371.158 45.8579 370.062 45.9423 368.965C46.0266 367.869 45.8579 366.73 45.4362 365.802C43.6822 361.768 41.1934 360.359 35.9278 361.392C34.8612 363.353 34.809 364.115 35.1885 364.79C37.4776 368.351 41.749 368.138 42.6529 373.562Z" fill="#994DC5" stroke="#762CA2"/>
<path d="M35.3182 333.458C34.9386 332.488 34.0952 331.518 32.9987 330.928C31.9023 330.295 30.6371 330 29.4142 330C23.8927 330.095 21.8358 336.405 23.3415 340.922C23.468 341.302 23.5945 341.597 23.6789 341.808C23.7632 342.019 23.8053 342.145 23.8053 342.145C25.197 341.935 26.1669 341.681 26.7573 341.175C30.2803 338.533 29.7178 333.458 35.3182 333.458Z" fill="#994DC5" stroke="#762CA2"/>
<path d="M40.0368 337.48C39.9718 336.44 39.4651 335.259 38.6015 334.362C37.7508 333.424 36.6364 332.756 35.4719 332.383C30.4164 330.856 25.4113 335.95 27.2282 340.815C35.2485 343.804 34.8711 335.822 40.0368 337.48Z" fill="#994DC5" stroke="#762CA2"/>
<path d="M23.6759 334.048C23.7603 333.88 23.8446 333.711 23.8868 333.542C24.0133 333.289 24.0976 333.121 24.0976 333.121C23.1699 332.952 22.1156 333.078 21.1456 333.5C20.1757 333.88 19.2479 334.554 18.5732 335.356C15.5273 339.163 17.5819 344.291 21.1878 346.995C21.3565 347.122 21.5674 347.248 21.7361 347.375C22.0734 347.585 22.3264 347.754 22.5373 347.838C22.7481 347.923 22.8747 347.965 22.8747 347.965C23.8446 346.953 24.3928 346.194 24.5615 345.308C25.1374 341.469 22.5932 338.379 23.6759 334.048Z" fill="#994DC5" stroke="#762CA2"/>
<path d="M34.8528 340.796C34.8528 340.796 34.9792 340.754 35.1901 340.669C35.401 340.585 35.6962 340.501 36.0757 340.458C36.8348 340.29 37.9313 340.29 39.0699 340.501C40.2085 340.712 41.3893 341.175 42.2328 341.597C42.6545 341.808 42.9919 342.019 43.2449 342.188C43.4979 342.356 43.6244 342.441 43.6244 342.441C43.9618 341.555 44.0039 340.543 43.7931 339.531C43.5822 338.519 43.0762 337.464 42.3592 336.621C41.6423 335.735 40.7146 335.061 39.7025 334.639C38.6904 334.217 37.5939 334.091 36.6239 334.259C36.6239 334.259 36.4553 334.301 36.1601 334.344C35.8649 334.428 35.4431 334.512 34.9792 334.723C34.5154 334.892 33.9671 335.145 33.4611 335.482C32.955 335.82 32.4912 336.199 32.0695 336.621C31.2682 337.464 30.8886 338.476 30.7621 339.193C30.7199 339.573 30.7199 339.826 30.7621 340.037C30.8043 340.248 30.8043 340.332 30.8043 340.332C31.8164 341.049 32.196 341.597 32.4912 341.597C32.6177 341.597 32.9129 341.513 33.2502 341.344C33.8406 341.218 34.3467 341.007 34.8528 340.796Z" fill="#994DC5" stroke="#762CA2"/>
<path d="M35.4596 325.117L34.79 323L27.819 325.934C24.0087 327.54 24.3937 330.722 25.3212 334C29.0377 332.43 37.1974 330.65 35.4596 325.117Z" fill="#994DC5" stroke="#762CA2"/>
<path d="M35.4596 332.117L34.79 330L27.819 332.934C24.0087 334.54 24.3937 337.722 25.3212 341C29.0377 339.43 37.1974 337.65 35.4596 332.117Z" fill="#994DC5" stroke="#762CA2"/>
<path d="M35.4596 339.117L34.79 337L27.819 339.934C24.0087 341.54 24.3937 344.722 25.3212 348C29.0377 346.43 37.1974 344.65 35.4596 339.117Z" fill="#994DC5" stroke="#762CA2"/>
<path d="M35.4596 346.117L34.79 344L27.819 346.934C24.0087 348.54 24.3937 351.722 25.3212 355C29.0377 353.43 37.1974 351.65 35.4596 346.117Z" fill="#994DC5" stroke="#762CA2"/>
<path d="M35.4596 353.117L34.79 351L27.819 353.934C24.0087 355.54 24.3937 358.722 25.3212 362C29.0377 360.43 37.1974 358.65 35.4596 353.117Z" fill="#994DC5" stroke="#762CA2"/>
<path d="M35.4596 360.117L34.79 358L27.819 360.934C24.0087 362.54 24.3937 365.722 25.3212 369C29.0377 367.43 37.1974 365.65 35.4596 360.117Z" fill="#994DC5" stroke="#762CA2"/>
<path d="M17.3091 341.428C17.2247 341.133 17.1826 341.007 17.1826 341.007C15.58 341.934 14.4836 343.917 14.4414 346.067C14.4414 351.277 20.0414 354.144 24.7734 352.899C25.153 352.815 25.4481 352.73 25.659 352.646C25.8699 352.562 25.9964 352.519 25.9964 352.519C25.7106 347.662 18.7865 346.599 17.3091 341.428Z" fill="#994DC5" stroke="#762CA2"/>
<path d="M25.9981 352.478C25.9981 352.478 25.8715 352.52 25.6607 352.604C25.4498 352.688 25.1546 352.773 24.7751 352.857C24.016 353.026 22.9196 353.152 21.7388 353.068C21.1484 353.026 20.6001 352.899 20.0097 352.731C19.4615 352.562 18.9554 352.351 18.4915 352.182C18.0698 351.972 17.6903 351.761 17.4373 351.634C17.1842 351.466 17.0155 351.381 17.0155 351.381C16.889 351.845 16.8469 352.309 16.8047 352.815C16.8047 353.321 16.889 353.827 17.0577 354.375C17.1842 354.881 17.4372 355.387 17.6903 355.851C17.9433 356.315 18.3229 356.737 18.7024 357.159C19.0819 357.538 19.5037 357.876 19.9675 358.171C20.4314 358.466 20.8953 358.677 21.4014 358.846C21.9074 359.014 22.3713 359.099 22.8774 359.141C23.3834 359.183 23.8474 359.099 24.2691 359.014C24.2691 359.014 24.4378 358.972 24.6908 358.888C24.986 358.803 25.3655 358.677 25.8294 358.55C26.715 358.213 27.8536 357.665 28.7814 356.99C29.2453 356.653 29.667 356.273 30.0465 355.936C30.4261 355.556 30.7213 355.219 30.9321 354.881C31.396 354.207 31.6069 353.785 31.6069 353.785C30.6791 352.731 29.9622 352.14 29.1188 351.972C28.2754 351.803 27.3054 351.972 25.9981 352.478Z" fill="#994DC5" stroke="#762CA2"/>
<path d="M31.6054 353.827C31.6054 353.827 31.3945 354.249 30.9306 354.924C30.6776 355.219 30.3824 355.598 30.045 355.978C29.6655 356.315 29.2438 356.695 28.7799 357.032C27.8521 357.707 26.7135 358.255 25.8279 358.592C25.364 358.761 24.9845 358.888 24.6893 358.93C24.3941 359.014 24.2676 359.014 24.2676 359.014C24.4784 359.436 24.7736 359.815 25.0688 360.153C25.4062 360.532 25.7857 360.827 26.2075 361.081C26.6292 361.376 27.093 361.587 27.5991 361.755C28.1051 361.924 28.6112 362.008 29.1595 362.093C30.2137 362.177 31.3524 362.008 32.3223 361.629C33.2923 361.207 34.1357 360.617 34.6839 359.815C34.6839 359.815 34.7682 359.689 34.9369 359.436C35.1056 359.225 35.3165 358.803 35.5273 358.382C35.9912 357.538 36.4129 356.315 36.5816 355.177C36.7503 354.038 36.7081 352.941 36.5395 352.14C36.4551 351.761 36.3708 351.423 36.3286 351.212C36.2443 351.002 36.2021 350.875 36.2021 350.875C34.8104 350.875 33.8405 350.959 33.2079 351.381C33.0392 351.465 32.9127 351.592 32.744 351.761C32.6175 351.887 32.491 352.056 32.3645 352.267C32.238 352.435 32.1114 352.688 31.9849 352.941C31.9006 353.237 31.7741 353.49 31.6054 353.827Z" fill="#994DC5" stroke="#762CA2"/>
<path d="M36.2838 350.959C36.2838 350.959 36.326 351.086 36.4103 351.297C36.4525 351.507 36.5368 351.803 36.6212 352.224C36.7477 352.983 36.832 354.08 36.6633 355.261C36.4947 356.399 36.0729 357.622 35.6091 358.466C35.3982 358.887 35.1452 359.267 35.0187 359.52C34.85 359.773 34.7656 359.9 34.7656 359.9C34.9765 359.984 35.2295 360.068 35.4826 360.11C35.7356 360.153 35.9886 360.153 36.2416 360.195C36.4947 360.195 36.7477 360.195 37.0429 360.195C37.2959 360.153 37.549 360.11 37.802 360.068C38.8141 359.815 39.8262 359.309 40.6696 358.592C41.5131 357.875 42.1456 356.948 42.5252 356.02C42.9047 355.05 43.0313 354.038 42.8626 353.11C42.8626 353.11 42.8204 352.941 42.7782 352.646C42.736 352.351 42.6095 351.971 42.483 351.507C42.1878 350.58 41.6818 349.441 41.007 348.471C40.3323 347.501 39.4889 346.784 38.8563 346.32C38.5189 346.11 38.2659 345.941 38.055 345.814C37.8442 345.688 37.7598 345.646 37.7598 345.646C36.7477 346.616 36.1573 347.333 35.9886 348.049C35.6512 348.682 35.8621 349.61 36.2838 350.959Z" fill="#994DC5" stroke="#762CA2"/>
<path d="M42.6529 352.562C42.6951 352.857 42.7372 353.026 42.7372 353.026C43.5807 352.646 44.3398 351.929 44.9302 351.044C45.5206 350.158 45.8579 349.062 45.9423 347.965C46.0266 346.869 45.8579 345.73 45.4362 344.802C43.6822 340.768 41.1934 339.359 35.9278 340.392C34.8612 342.353 34.809 343.115 35.1885 343.79C37.4776 347.351 41.749 347.138 42.6529 352.562Z" fill="#994DC5" stroke="#762CA2"/>
<path d="M35.3182 312.458C34.9386 311.488 34.0952 310.518 32.9987 309.928C31.9023 309.295 30.6371 309 29.4142 309C23.8927 309.095 21.8358 315.405 23.3415 319.922C23.468 320.302 23.5945 320.597 23.6789 320.808C23.7632 321.019 23.8053 321.145 23.8053 321.145C25.197 320.935 26.1669 320.681 26.7573 320.175C30.2803 317.533 29.7178 312.458 35.3182 312.458Z" fill="#994DC5" stroke="#762CA2"/>
<path d="M40.0368 316.48C39.9718 315.44 39.4651 314.259 38.6015 313.362C37.7508 312.424 36.6364 311.756 35.4719 311.383C30.4164 309.856 25.4113 314.95 27.2282 319.815C35.2485 322.804 34.8711 314.822 40.0368 316.48Z" fill="#994DC5" stroke="#762CA2"/>
<path d="M23.6759 313.048C23.7603 312.88 23.8446 312.711 23.8868 312.542C24.0133 312.289 24.0976 312.121 24.0976 312.121C23.1699 311.952 22.1156 312.078 21.1456 312.5C20.1757 312.88 19.2479 313.554 18.5732 314.356C15.5273 318.163 17.5819 323.291 21.1878 325.995C21.3565 326.122 21.5674 326.248 21.7361 326.375C22.0734 326.585 22.3264 326.754 22.5373 326.838C22.7481 326.923 22.8747 326.965 22.8747 326.965C23.8446 325.953 24.3928 325.194 24.5615 324.308C25.1374 320.469 22.5932 317.379 23.6759 313.048Z" fill="#994DC5" stroke="#762CA2"/>
<path d="M34.8528 319.796C34.8528 319.796 34.9792 319.754 35.1901 319.669C35.401 319.585 35.6962 319.501 36.0757 319.458C36.8348 319.29 37.9313 319.29 39.0699 319.501C40.2085 319.712 41.3893 320.175 42.2328 320.597C42.6545 320.808 42.9919 321.019 43.2449 321.188C43.4979 321.356 43.6244 321.441 43.6244 321.441C43.9618 320.555 44.0039 319.543 43.7931 318.531C43.5822 317.519 43.0762 316.464 42.3592 315.621C41.6423 314.735 40.7146 314.061 39.7025 313.639C38.6904 313.217 37.5939 313.091 36.6239 313.259C36.6239 313.259 36.4553 313.301 36.1601 313.344C35.8649 313.428 35.4431 313.512 34.9792 313.723C34.5154 313.892 33.9671 314.145 33.4611 314.482C32.955 314.82 32.4912 315.199 32.0695 315.621C31.2682 316.464 30.8886 317.476 30.7621 318.193C30.7199 318.573 30.7199 318.826 30.7621 319.037C30.8043 319.248 30.8043 319.332 30.8043 319.332C31.8164 320.049 32.196 320.597 32.4912 320.597C32.6177 320.597 32.9129 320.513 33.2502 320.344C33.8406 320.218 34.3467 320.007 34.8528 319.796Z" fill="#994DC5" stroke="#762CA2"/>
<path d="M35.4596 304.117L34.79 302L27.819 304.934C24.0087 306.54 24.3937 309.722 25.3212 313C29.0377 311.43 37.1974 309.65 35.4596 304.117Z" fill="#994DC5" stroke="#762CA2"/>
<path d="M35.4596 311.117L34.79 309L27.819 311.934C24.0087 313.54 24.3937 316.722 25.3212 320C29.0377 318.43 37.1974 316.65 35.4596 311.117Z" fill="#994DC5" stroke="#762CA2"/>
<path d="M35.4596 318.117L34.79 316L27.819 318.934C24.0087 320.54 24.3937 323.722 25.3212 327C29.0377 325.43 37.1974 323.65 35.4596 318.117Z" fill="#994DC5" stroke="#762CA2"/>
<path d="M35.4596 325.117L34.79 323L27.819 325.934C24.0087 327.54 24.3937 330.722 25.3212 334C29.0377 332.43 37.1974 330.65 35.4596 325.117Z" fill="#994DC5" stroke="#762CA2"/>
<path d="M35.4596 332.117L34.79 330L27.819 332.934C24.0087 334.54 24.3937 337.722 25.3212 341C29.0377 339.43 37.1974 337.65 35.4596 332.117Z" fill="#994DC5" stroke="#762CA2"/>
<path d="M35.4596 339.117L34.79 337L27.819 339.934C24.0087 341.54 24.3937 344.722 25.3212 348C29.0377 346.43 37.1974 344.65 35.4596 339.117Z" fill="#994DC5" stroke="#762CA2"/>
<path d="M17.3091 320.428C17.2247 320.133 17.1826 320.007 17.1826 320.007C15.58 320.934 14.4836 322.917 14.4414 325.067C14.4414 330.277 20.0414 333.144 24.7734 331.899C25.153 331.815 25.4481 331.73 25.659 331.646C25.8699 331.562 25.9964 331.519 25.9964 331.519C25.7106 326.662 18.7865 325.599 17.3091 320.428Z" fill="#994DC5" stroke="#762CA2"/>
<path d="M25.9981 331.478C25.9981 331.478 25.8715 331.52 25.6607 331.604C25.4498 331.688 25.1546 331.773 24.7751 331.857C24.016 332.026 22.9196 332.152 21.7388 332.068C21.1484 332.026 20.6001 331.899 20.0097 331.731C19.4615 331.562 18.9554 331.351 18.4915 331.182C18.0698 330.972 17.6903 330.761 17.4373 330.634C17.1842 330.466 17.0155 330.381 17.0155 330.381C16.889 330.845 16.8469 331.309 16.8047 331.815C16.8047 332.321 16.889 332.827 17.0577 333.375C17.1842 333.881 17.4372 334.387 17.6903 334.851C17.9433 335.315 18.3229 335.737 18.7024 336.159C19.0819 336.538 19.5037 336.876 19.9675 337.171C20.4314 337.466 20.8953 337.677 21.4014 337.846C21.9074 338.014 22.3713 338.099 22.8774 338.141C23.3834 338.183 23.8474 338.099 24.2691 338.014C24.2691 338.014 24.4378 337.972 24.6908 337.888C24.986 337.803 25.3655 337.677 25.8294 337.55C26.715 337.213 27.8536 336.665 28.7814 335.99C29.2453 335.653 29.667 335.273 30.0465 334.936C30.4261 334.556 30.7213 334.219 30.9321 333.881C31.396 333.207 31.6069 332.785 31.6069 332.785C30.6791 331.731 29.9622 331.14 29.1188 330.972C28.2754 330.803 27.3054 330.972 25.9981 331.478Z" fill="#994DC5" stroke="#762CA2"/>
<path d="M31.6054 332.827C31.6054 332.827 31.3945 333.249 30.9306 333.924C30.6776 334.219 30.3824 334.598 30.045 334.978C29.6655 335.315 29.2438 335.695 28.7799 336.032C27.8521 336.707 26.7135 337.255 25.8279 337.592C25.364 337.761 24.9845 337.888 24.6893 337.93C24.3941 338.014 24.2676 338.014 24.2676 338.014C24.4784 338.436 24.7736 338.815 25.0688 339.153C25.4062 339.532 25.7857 339.827 26.2075 340.081C26.6292 340.376 27.093 340.587 27.5991 340.755C28.1051 340.924 28.6112 341.008 29.1595 341.093C30.2137 341.177 31.3524 341.008 32.3223 340.629C33.2923 340.207 34.1357 339.617 34.6839 338.815C34.6839 338.815 34.7682 338.689 34.9369 338.436C35.1056 338.225 35.3165 337.803 35.5273 337.382C35.9912 336.538 36.4129 335.315 36.5816 334.177C36.7503 333.038 36.7081 331.941 36.5395 331.14C36.4551 330.761 36.3708 330.423 36.3286 330.212C36.2443 330.002 36.2021 329.875 36.2021 329.875C34.8104 329.875 33.8405 329.959 33.2079 330.381C33.0392 330.465 32.9127 330.592 32.744 330.761C32.6175 330.887 32.491 331.056 32.3645 331.267C32.238 331.435 32.1114 331.688 31.9849 331.941C31.9006 332.237 31.7741 332.49 31.6054 332.827Z" fill="#994DC5" stroke="#762CA2"/>
<path d="M36.2838 329.959C36.2838 329.959 36.326 330.086 36.4103 330.297C36.4525 330.507 36.5368 330.803 36.6212 331.224C36.7477 331.983 36.832 333.08 36.6633 334.261C36.4947 335.399 36.0729 336.622 35.6091 337.466C35.3982 337.887 35.1452 338.267 35.0187 338.52C34.85 338.773 34.7656 338.9 34.7656 338.9C34.9765 338.984 35.2295 339.068 35.4826 339.11C35.7356 339.153 35.9886 339.153 36.2416 339.195C36.4947 339.195 36.7477 339.195 37.0429 339.195C37.2959 339.153 37.549 339.11 37.802 339.068C38.8141 338.815 39.8262 338.309 40.6696 337.592C41.5131 336.875 42.1456 335.948 42.5252 335.02C42.9047 334.05 43.0313 333.038 42.8626 332.11C42.8626 332.11 42.8204 331.941 42.7782 331.646C42.736 331.351 42.6095 330.971 42.483 330.507C42.1878 329.58 41.6818 328.441 41.007 327.471C40.3323 326.501 39.4889 325.784 38.8563 325.32C38.5189 325.11 38.2659 324.941 38.055 324.814C37.8442 324.688 37.7598 324.646 37.7598 324.646C36.7477 325.616 36.1573 326.333 35.9886 327.049C35.6512 327.682 35.8621 328.61 36.2838 329.959Z" fill="#994DC5" stroke="#762CA2"/>
<path d="M42.6529 331.562C42.6951 331.857 42.7372 332.026 42.7372 332.026C43.5807 331.646 44.3398 330.929 44.9302 330.044C45.5206 329.158 45.8579 328.062 45.9423 326.965C46.0266 325.869 45.8579 324.73 45.4362 323.802C43.6822 319.768 41.1934 318.359 35.9278 319.392C34.8612 321.353 34.809 322.115 35.1885 322.79C37.4776 326.351 41.749 326.138 42.6529 331.562Z" fill="#994DC5" stroke="#762CA2"/>
<path d="M35.2604 388.117L34.5908 386L27.6198 388.934C23.8095 390.54 24.1945 393.722 25.1219 397C28.8385 395.43 36.9981 393.65 35.2604 388.117Z" fill="#994DC5" stroke="#762CA2"/>
<path d="M35.2604 395.117L34.5908 393L27.6198 395.934C23.8095 397.54 24.1945 400.722 25.1219 404C28.8385 402.43 36.9981 400.65 35.2604 395.117Z" fill="#994DC5" stroke="#762CA2"/>
<path d="M35.2604 402.117L34.5908 400L27.6198 402.934C23.8095 404.54 24.1945 407.722 25.1219 411C28.8385 409.43 36.9981 407.65 35.2604 402.117Z" fill="#994DC5" stroke="#762CA2"/>
<path d="M35.2604 409.117L34.5908 407L27.6198 409.934C23.8095 411.54 24.1945 414.722 25.1219 418C28.8385 416.43 36.9981 414.65 35.2604 409.117Z" fill="#994DC5" stroke="#762CA2"/>
<path d="M35.2604 416.117L34.5908 414L27.6198 416.934C23.8095 418.54 24.1945 421.722 25.1219 425C28.8385 423.43 36.9981 421.65 35.2604 416.117Z" fill="#994DC5" stroke="#762CA2"/>
<path d="M35.2604 423.117L34.5908 421L27.6198 423.934C23.8095 425.54 24.1945 428.722 25.1219 432C28.8385 430.43 36.9981 428.65 35.2604 423.117Z" fill="#994DC5" stroke="#762CA2"/>
<path d="M35.2604 430.117L34.5908 428L27.6198 430.934C23.8095 432.54 24.1945 435.722 25.1219 439C28.8385 437.43 36.9981 435.65 35.2604 430.117Z" fill="#994DC5" stroke="#762CA2"/>
<path d="M35.2604 437.117L34.5908 435L27.6198 437.934C23.8095 439.54 24.1945 442.722 25.1219 446C28.8385 444.43 36.9981 442.65 35.2604 437.117Z" fill="#994DC5" stroke="#762CA2"/>
<path d="M35.2604 444.117L34.5908 442L27.6198 444.934C23.8095 446.54 24.1945 449.722 25.1219 453C28.8385 451.43 36.9981 449.65 35.2604 444.117Z" fill="#994DC5" stroke="#762CA2"/>
<path d="M35.2604 451.117L34.5908 449L27.6198 451.934C23.8095 453.54 24.1945 456.722 25.1219 460C28.8385 458.43 36.9981 456.65 35.2604 451.117Z" fill="#994DC5" stroke="#762CA2"/>
<path d="M35.2604 458.117L34.5908 456L27.6198 458.934C23.8095 460.54 24.1945 463.722 25.1219 467C28.8385 465.43 36.9981 463.65 35.2604 458.117Z" fill="#994DC5" stroke="#762CA2"/>
<path d="M35.2604 465.117L34.5908 463L27.6198 465.934C23.8095 467.54 24.1945 470.722 25.1219 474C28.8385 472.43 36.9981 470.65 35.2604 465.117Z" fill="#994DC5" stroke="#762CA2"/>
<path d="M35.2604 472.117L34.5908 470L27.6198 472.934C23.8095 474.54 24.1945 477.722 25.1219 481C28.8385 479.43 36.9981 477.65 35.2604 472.117Z" fill="#994DC5" stroke="#762CA2"/>
<path d="M24.0831 500.124C23.8205 504.362 23.2952 508.592 22.4739 512.775C22.4739 512.806 22.4644 512.822 22.4644 512.837C22.013 515.042 23.5619 514.867 25.0667 514.867C25.9692 511.173 26.7237 506.041 26.8001 501.531C26.8001 501.531 27.2775 505.777 26.0552 513.335C26.122 513.817 26.2175 514.393 26.3942 514.867H27.9413C28.5334 509.393 28.9392 502.9 28.9965 496.726C29.0252 497.674 29.2353 504.424 28.3806 514.867H30.9399L31.2599 513.708L31.5034 512.861C31.4986 512.853 31.4986 512.837 31.4986 512.822C31.3028 510.046 31.1835 507.612 31.1023 505.52C30.8779 499.712 31.0402 496.617 31.0402 496.617C31.0832 502.705 31.4795 509.105 32.0716 515.077L34.2347 514.867C32.7449 506.516 33.1985 501.827 33.2319 501.539C33.337 507.62 34.4877 512.884 35.0225 515.046L36.6699 514.867C37.3145 514.859 37.7682 513.84 37.5676 512.814C36.7415 508.623 36.2115 504.369 35.9537 500.124C35.2716 490.128 24.9181 486.924 24.0831 500.124Z" fill="#994DC5" stroke="#762CA2"/>
<path d="M35.2604 479.117L34.5908 477L27.6198 479.933C23.8095 481.54 24.1945 484.722 25.1219 488C28.8385 486.43 36.9981 484.65 35.2604 479.117Z" fill="#994DC5" stroke="#762CA2"/>
<path d="M32.3113 486.335C33.2989 486.662 34.2633 487.084 35.0376 487.49C35.8118 487.895 36.277 488.242 36.277 488.242C36.4874 487.647 36.4714 486.919 36.2777 486.256C34.7904 479.905 26.811 480.989 24.9265 484.65C24.6798 485.13 24.5629 485.475 24.5629 485.475C25.6477 486.198 27.4201 487.713 28.0144 487.796C28.3235 487.855 28.5368 487.777 28.7857 487.685C29.9691 486.818 30.5308 485.745 32.3113 486.335Z" fill="#994DC5" stroke="#762CA2"/>
<path d="M36.9433 493.414C39.3751 491.433 39.3343 488.401 36.9431 485.406C34.5518 482.412 29.5415 484.251 27.9044 489.473C29.0523 492.408 35.8709 490.897 36.9433 493.414Z" fill="#994DC5" stroke="#762CA2"/>
<path d="M27.089 483.834C27.1345 483.414 27.18 483.037 27.2255 482.785C27.3165 482.533 27.3165 482.366 27.3165 482.366C26.3609 482.45 25.4508 482.911 24.6773 483.498C20.8286 486.629 22.8475 491.012 26.3609 493.399C27.2255 493.987 28.1356 494.322 28.8182 494.49C29.1367 494.574 29.4552 494.616 29.6373 494.658C29.8193 494.7 29.9558 494.7 29.9558 494.7C32.3254 490.666 26.8599 488.058 27.089 483.834Z" fill="#994DC5" stroke="#762CA2"/>
<path d="M29.2075 491.238C29.2075 491.238 29.071 491.238 28.889 491.191C28.707 491.145 28.4339 491.099 28.0699 491.006C27.3873 490.821 26.4772 490.404 25.6127 489.802C24.7481 489.2 23.9745 488.366 23.4285 487.671C22.8824 486.977 22.5639 486.467 22.5639 486.467C21.9723 487.069 21.5628 487.857 21.3808 488.737C21.1532 489.617 21.1532 490.636 21.4263 491.655C21.6538 492.627 22.1543 493.6 22.8369 494.341C23.5195 495.082 24.3385 495.592 25.1576 495.823C25.1576 495.823 25.2941 495.869 25.5672 495.916C25.8402 495.962 26.2042 496.055 26.6593 496.101C27.5693 496.194 28.7069 496.147 29.7535 495.869C30.8001 495.592 31.5737 495.036 32.0743 494.526C32.3018 494.295 32.4838 494.063 32.5748 493.924C32.6658 493.785 32.7568 493.693 32.7568 493.693C32.2108 492.581 32.1653 492.025 31.7102 491.701C31.2097 491.469 30.4361 491.377 29.2075 491.238Z" fill="#994DC5" stroke="#762CA2"/>
<path d="M29.6771 492.146C29.6771 492.146 29.6071 492.221 29.4368 492.314C29.31 492.42 29.0565 492.632 28.7859 492.742C28.205 493.095 27.2626 493.384 26.1819 493.341C25.1314 493.355 23.9993 493.005 23.155 492.647C22.7328 492.468 22.411 492.272 22.1629 492.146C21.9149 492.021 21.7975 491.937 21.7975 491.937C21.5898 492.792 21.6301 493.773 22.0016 494.759C22.3295 495.732 22.9888 496.71 23.9147 497.432C24.371 497.815 24.8539 498.109 25.4067 498.329C25.6547 498.454 25.9159 498.535 26.1771 498.615C26.4384 498.696 26.7128 498.733 26.9873 498.769C27.5362 498.842 28.0245 498.799 28.5128 498.757C28.9708 498.656 29.442 498.511 29.8394 498.295C29.8394 498.295 29.9662 498.189 30.2368 498.079C30.4638 497.956 30.7741 497.713 31.1411 497.439C31.8317 496.878 32.6016 496.051 33.167 495.113C33.7324 494.174 34.0972 493.271 34.3088 492.562C34.4146 492.207 34.4636 491.883 34.5165 491.706C34.5259 491.515 34.5656 491.382 34.5656 491.382C33.3993 490.828 32.4718 490.59 31.7696 490.712C31.024 490.82 30.5473 491.302 29.6771 492.146Z" fill="#994DC5" stroke="#762CA2"/>
<path d="M30.3997 490.768C30.3996 492.134 30.5264 493.454 30.1597 494.823C29.8867 495.888 29.3861 496.907 28.8856 497.648C28.6125 498.019 28.385 498.343 28.203 498.528C28.021 498.713 27.8845 498.852 27.8845 498.852C28.7035 499.269 29.6591 499.362 30.6147 499.269C31.5703 499.13 32.5259 498.806 33.2995 498.25C37.225 495.51 35.7809 491.281 33.7782 489.187C32.1692 488.266 30.8336 488.983 30.3997 490.768Z" fill="#994DC5" stroke="#762CA2"/>
<path d="M34.6126 497.608C38.393 496.54 38.92 490.926 35.8175 488.987C32.715 487.048 30.388 489.375 30.3891 490.264C34.2683 491 35.817 492.865 34.6126 497.608Z" fill="#994DC5" stroke="#762CA2"/>
</svg>
