<svg width="60" height="432" viewBox="0 0 60 432" fill="none" xmlns="http://www.w3.org/2000/svg">
<path d="M35.2604 3.11741L34.5908 1L27.6198 3.93356C23.8095 5.53963 24.1945 8.72229 25.1219 12C28.8385 10.43 36.9981 8.65019 35.2604 3.11741Z" fill="#DB42AD" stroke="#B42A8A"/>
<path d="M35.2604 10.1174L34.5908 8L27.6198 10.9336C23.8095 12.5396 24.1945 15.7223 25.1219 19C28.8385 17.43 36.9981 15.6502 35.2604 10.1174Z" fill="#DB42AD" stroke="#B42A8A"/>
<path d="M35.2604 17.1174L34.5908 15L27.6198 17.9336C23.8095 19.5396 24.1945 22.7223 25.1219 26C28.8385 24.43 36.9981 22.6502 35.2604 17.1174Z" fill="#DB42AD" stroke="#B42A8A"/>
<path d="M35.2604 24.1174L34.5908 22L27.6198 24.9336C23.8095 26.5396 24.1945 29.7223 25.1219 33C28.8385 31.43 36.9981 29.6502 35.2604 24.1174Z" fill="#DB42AD" stroke="#B42A8A"/>
<path d="M35.2604 31.1174L34.5908 29L27.6198 31.9336C23.8095 33.5396 24.1945 36.7223 25.1219 40C28.8385 38.43 36.9981 36.6502 35.2604 31.1174Z" fill="#DB42AD" stroke="#B42A8A"/>
<path d="M35.2604 38.1174L34.5908 36L27.6198 38.9336C23.8095 40.5396 24.1945 43.7223 25.1219 47C28.8385 45.43 36.9981 43.6502 35.2604 38.1174Z" fill="#DB42AD" stroke="#B42A8A"/>
<path d="M35.2604 45.1174L34.5908 43L27.6198 45.9336C23.8095 47.5396 24.1945 50.7223 25.1219 54C28.8385 52.43 36.9981 50.6502 35.2604 45.1174Z" fill="#DB42AD" stroke="#B42A8A"/>
<path d="M35.2604 52.1174L34.5908 50L27.6198 52.9336C23.8095 54.5396 24.1945 57.7223 25.1219 61C28.8385 59.43 36.9981 57.6502 35.2604 52.1174Z" fill="#DB42AD" stroke="#B42A8A"/>
<path d="M35.2604 59.1174L34.5908 57L27.6198 59.9336C23.8095 61.5396 24.1945 64.7223 25.1219 68C28.8385 66.43 36.9981 64.6502 35.2604 59.1174Z" fill="#DB42AD" stroke="#B42A8A"/>
<path d="M35.2604 66.1174L34.5908 64L27.6198 66.9336C23.8095 68.5396 24.1945 71.7223 25.1219 75C28.8385 73.43 36.9981 71.6502 35.2604 66.1174Z" fill="#DB42AD" stroke="#B42A8A"/>
<path d="M35.2604 73.1174L34.5908 71L27.6198 73.9336C23.8095 75.5396 24.1945 78.7223 25.1219 82C28.8385 80.43 36.9981 78.6502 35.2604 73.1174Z" fill="#DB42AD" stroke="#B42A8A"/>
<path d="M35.2604 80.1174L34.5908 78L27.6198 80.9336C23.8095 82.5396 24.1945 85.7223 25.1219 89C28.8385 87.43 36.9981 85.6502 35.2604 80.1174Z" fill="#DB42AD" stroke="#B42A8A"/>
<path d="M35.2604 87.1174L34.5908 85L27.6198 87.9336C23.8095 89.5396 24.1945 92.7223 25.1219 96C28.8385 94.43 36.9981 92.6502 35.2604 87.1174Z" fill="#DB42AD" stroke="#B42A8A"/>
<path d="M35.2604 94.1174L34.5908 92L27.6198 94.9336C23.8095 96.5396 24.1945 99.7223 25.1219 103C28.8385 101.43 36.9981 99.6502 35.2604 94.1174Z" fill="#DB42AD" stroke="#B42A8A"/>
<path d="M35.2604 101.117L34.5908 99L27.6198 101.934C23.8095 103.54 24.1945 106.722 25.1219 110C28.8385 108.43 36.9981 106.65 35.2604 101.117Z" fill="#DB42AD" stroke="#B42A8A"/>
<path d="M35.2604 108.117L34.5908 106L27.6198 108.934C23.8095 110.54 24.1945 113.722 25.1219 117C28.8385 115.43 36.9981 113.65 35.2604 108.117Z" fill="#DB42AD" stroke="#B42A8A"/>
<path d="M35.2604 115.117L34.5908 113L27.6198 115.934C23.8095 117.54 24.1945 120.722 25.1219 124C28.8385 122.43 36.9981 120.65 35.2604 115.117Z" fill="#DB42AD" stroke="#B42A8A"/>
<path d="M35.3182 172.458C34.9386 171.488 34.0952 170.518 32.9987 169.928C31.9023 169.295 30.6371 169 29.4142 169C23.8927 169.095 21.8358 175.405 23.3415 179.922C23.468 180.302 23.5945 180.597 23.6789 180.808C23.7632 181.019 23.8053 181.145 23.8053 181.145C25.197 180.935 26.1669 180.681 26.7573 180.175C30.2803 177.533 29.7178 172.458 35.3182 172.458Z" fill="#DB42AD" stroke="#B42A8A"/>
<path d="M40.0368 176.48C39.9718 175.44 39.4651 174.259 38.6015 173.362C37.7508 172.424 36.6364 171.756 35.4719 171.383C30.4164 169.856 25.4113 174.95 27.2282 179.815C35.2485 182.804 34.8711 174.822 40.0368 176.48Z" fill="#DB42AD" stroke="#B42A8A"/>
<path d="M23.6759 173.048C23.7603 172.88 23.8446 172.711 23.8868 172.542C24.0133 172.289 24.0976 172.121 24.0976 172.121C23.1699 171.952 22.1156 172.078 21.1456 172.5C20.1757 172.88 19.2479 173.554 18.5732 174.356C15.5273 178.163 17.5819 183.291 21.1878 185.995C21.3565 186.122 21.5674 186.248 21.7361 186.375C22.0734 186.585 22.3264 186.754 22.5373 186.838C22.7481 186.923 22.8747 186.965 22.8747 186.965C23.8446 185.953 24.3928 185.194 24.5615 184.308C25.1374 180.469 22.5932 177.379 23.6759 173.048Z" fill="#DB42AD" stroke="#B42A8A"/>
<path d="M34.8528 179.796C34.8528 179.796 34.9792 179.754 35.1901 179.669C35.401 179.585 35.6962 179.501 36.0757 179.458C36.8348 179.29 37.9313 179.29 39.0699 179.501C40.2085 179.712 41.3893 180.175 42.2328 180.597C42.6545 180.808 42.9919 181.019 43.2449 181.188C43.4979 181.356 43.6244 181.441 43.6244 181.441C43.9618 180.555 44.0039 179.543 43.7931 178.531C43.5822 177.519 43.0762 176.464 42.3592 175.621C41.6423 174.735 40.7146 174.061 39.7025 173.639C38.6904 173.217 37.5939 173.091 36.6239 173.259C36.6239 173.259 36.4553 173.301 36.1601 173.344C35.8649 173.428 35.4431 173.512 34.9792 173.723C34.5154 173.892 33.9671 174.145 33.4611 174.482C32.955 174.82 32.4912 175.199 32.0695 175.621C31.2682 176.464 30.8886 177.476 30.7621 178.193C30.7199 178.573 30.7199 178.826 30.7621 179.037C30.8043 179.248 30.8043 179.332 30.8043 179.332C31.8164 180.049 32.196 180.597 32.4912 180.597C32.6177 180.597 32.9129 180.513 33.2502 180.344C33.8406 180.218 34.3467 180.007 34.8528 179.796Z" fill="#DB42AD" stroke="#B42A8A"/>
<path d="M35.4596 164.117L34.79 162L27.819 164.934C24.0087 166.54 24.3937 169.722 25.3212 173C29.0377 171.43 37.1974 169.65 35.4596 164.117Z" fill="#DB42AD" stroke="#B42A8A"/>
<path d="M35.4596 171.117L34.79 169L27.819 171.934C24.0087 173.54 24.3937 176.722 25.3212 180C29.0377 178.43 37.1974 176.65 35.4596 171.117Z" fill="#DB42AD" stroke="#B42A8A"/>
<path d="M35.4596 178.117L34.79 176L27.819 178.934C24.0087 180.54 24.3937 183.722 25.3212 187C29.0377 185.43 37.1974 183.65 35.4596 178.117Z" fill="#DB42AD" stroke="#B42A8A"/>
<path d="M35.4596 185.117L34.79 183L27.819 185.934C24.0087 187.54 24.3937 190.722 25.3212 194C29.0377 192.43 37.1974 190.65 35.4596 185.117Z" fill="#DB42AD" stroke="#B42A8A"/>
<path d="M35.4596 192.117L34.79 190L27.819 192.934C24.0087 194.54 24.3937 197.722 25.3212 201C29.0377 199.43 37.1974 197.65 35.4596 192.117Z" fill="#DB42AD" stroke="#B42A8A"/>
<path d="M35.4596 199.117L34.79 197L27.819 199.934C24.0087 201.54 24.3937 204.722 25.3212 208C29.0377 206.43 37.1974 204.65 35.4596 199.117Z" fill="#DB42AD" stroke="#B42A8A"/>
<path d="M17.3091 180.428C17.2247 180.133 17.1826 180.007 17.1826 180.007C15.58 180.934 14.4836 182.917 14.4414 185.067C14.4414 190.277 20.0414 193.144 24.7734 191.899C25.153 191.815 25.4481 191.73 25.659 191.646C25.8699 191.562 25.9964 191.519 25.9964 191.519C25.7106 186.662 18.7865 185.599 17.3091 180.428Z" fill="#DB42AD" stroke="#B42A8A"/>
<path d="M25.9981 191.478C25.9981 191.478 25.8715 191.52 25.6607 191.604C25.4498 191.688 25.1546 191.773 24.7751 191.857C24.016 192.026 22.9196 192.152 21.7388 192.068C21.1484 192.026 20.6001 191.899 20.0097 191.731C19.4615 191.562 18.9554 191.351 18.4915 191.182C18.0698 190.972 17.6903 190.761 17.4373 190.634C17.1842 190.466 17.0155 190.381 17.0155 190.381C16.889 190.845 16.8469 191.309 16.8047 191.815C16.8047 192.321 16.889 192.827 17.0577 193.375C17.1842 193.881 17.4372 194.387 17.6903 194.851C17.9433 195.315 18.3229 195.737 18.7024 196.159C19.0819 196.538 19.5037 196.876 19.9675 197.171C20.4314 197.466 20.8953 197.677 21.4014 197.846C21.9074 198.014 22.3713 198.099 22.8774 198.141C23.3834 198.183 23.8474 198.099 24.2691 198.014C24.2691 198.014 24.4378 197.972 24.6908 197.888C24.986 197.803 25.3655 197.677 25.8294 197.55C26.715 197.213 27.8536 196.665 28.7814 195.99C29.2453 195.653 29.667 195.273 30.0465 194.936C30.4261 194.556 30.7213 194.219 30.9321 193.881C31.396 193.207 31.6069 192.785 31.6069 192.785C30.6791 191.731 29.9622 191.14 29.1188 190.972C28.2754 190.803 27.3054 190.972 25.9981 191.478Z" fill="#DB42AD" stroke="#B42A8A"/>
<path d="M31.6054 192.827C31.6054 192.827 31.3945 193.249 30.9306 193.924C30.6776 194.219 30.3824 194.598 30.045 194.978C29.6655 195.315 29.2438 195.695 28.7799 196.032C27.8521 196.707 26.7135 197.255 25.8279 197.592C25.364 197.761 24.9845 197.888 24.6893 197.93C24.3941 198.014 24.2676 198.014 24.2676 198.014C24.4784 198.436 24.7736 198.815 25.0688 199.153C25.4062 199.532 25.7857 199.827 26.2075 200.081C26.6292 200.376 27.093 200.587 27.5991 200.755C28.1051 200.924 28.6112 201.008 29.1595 201.093C30.2137 201.177 31.3524 201.008 32.3223 200.629C33.2923 200.207 34.1357 199.617 34.6839 198.815C34.6839 198.815 34.7682 198.689 34.9369 198.436C35.1056 198.225 35.3165 197.803 35.5273 197.382C35.9912 196.538 36.4129 195.315 36.5816 194.177C36.7503 193.038 36.7081 191.941 36.5395 191.14C36.4551 190.761 36.3708 190.423 36.3286 190.212C36.2443 190.002 36.2021 189.875 36.2021 189.875C34.8104 189.875 33.8405 189.959 33.2079 190.381C33.0392 190.465 32.9127 190.592 32.744 190.761C32.6175 190.887 32.491 191.056 32.3645 191.267C32.238 191.435 32.1114 191.688 31.9849 191.941C31.9006 192.237 31.7741 192.49 31.6054 192.827Z" fill="#DB42AD" stroke="#B42A8A"/>
<path d="M36.2838 189.959C36.2838 189.959 36.326 190.086 36.4103 190.297C36.4525 190.507 36.5368 190.803 36.6212 191.224C36.7477 191.983 36.832 193.08 36.6633 194.261C36.4947 195.399 36.0729 196.622 35.6091 197.466C35.3982 197.887 35.1452 198.267 35.0187 198.52C34.85 198.773 34.7656 198.9 34.7656 198.9C34.9765 198.984 35.2295 199.068 35.4826 199.11C35.7356 199.153 35.9886 199.153 36.2416 199.195C36.4947 199.195 36.7477 199.195 37.0429 199.195C37.2959 199.153 37.549 199.11 37.802 199.068C38.8141 198.815 39.8262 198.309 40.6696 197.592C41.5131 196.875 42.1456 195.948 42.5252 195.02C42.9047 194.05 43.0313 193.038 42.8626 192.11C42.8626 192.11 42.8204 191.941 42.7782 191.646C42.736 191.351 42.6095 190.971 42.483 190.507C42.1878 189.58 41.6818 188.441 41.007 187.471C40.3323 186.501 39.4889 185.784 38.8563 185.32C38.5189 185.11 38.2659 184.941 38.055 184.814C37.8442 184.688 37.7598 184.646 37.7598 184.646C36.7477 185.616 36.1573 186.333 35.9886 187.049C35.6512 187.682 35.8621 188.61 36.2838 189.959Z" fill="#DB42AD" stroke="#B42A8A"/>
<path d="M42.6529 191.562C42.6951 191.857 42.7372 192.026 42.7372 192.026C43.5807 191.646 44.3398 190.929 44.9302 190.044C45.5206 189.158 45.8579 188.062 45.9423 186.965C46.0266 185.869 45.8579 184.73 45.4362 183.802C43.6822 179.768 41.1934 178.359 35.9278 179.392C34.8612 181.353 34.809 182.115 35.1885 182.79C37.4776 186.351 41.749 186.138 42.6529 191.562Z" fill="#DB42AD" stroke="#B42A8A"/>
<path d="M35.3182 151.458C34.9386 150.488 34.0952 149.518 32.9987 148.928C31.9023 148.295 30.6371 148 29.4142 148C23.8927 148.095 21.8358 154.405 23.3415 158.922C23.468 159.302 23.5945 159.597 23.6789 159.808C23.7632 160.019 23.8053 160.145 23.8053 160.145C25.197 159.935 26.1669 159.681 26.7573 159.175C30.2803 156.533 29.7178 151.458 35.3182 151.458Z" fill="#DB42AD" stroke="#B42A8A"/>
<path d="M40.0368 155.48C39.9718 154.44 39.4651 153.259 38.6015 152.362C37.7508 151.424 36.6364 150.756 35.4719 150.383C30.4164 148.856 25.4113 153.95 27.2282 158.815C35.2485 161.804 34.8711 153.822 40.0368 155.48Z" fill="#DB42AD" stroke="#B42A8A"/>
<path d="M23.6759 152.048C23.7603 151.88 23.8446 151.711 23.8868 151.542C24.0133 151.289 24.0976 151.121 24.0976 151.121C23.1699 150.952 22.1156 151.078 21.1456 151.5C20.1757 151.88 19.2479 152.554 18.5732 153.356C15.5273 157.163 17.5819 162.291 21.1878 164.995C21.3565 165.122 21.5674 165.248 21.7361 165.375C22.0734 165.585 22.3264 165.754 22.5373 165.838C22.7481 165.923 22.8747 165.965 22.8747 165.965C23.8446 164.953 24.3928 164.194 24.5615 163.308C25.1374 159.469 22.5932 156.379 23.6759 152.048Z" fill="#DB42AD" stroke="#B42A8A"/>
<path d="M34.8528 158.796C34.8528 158.796 34.9792 158.754 35.1901 158.669C35.401 158.585 35.6962 158.501 36.0757 158.458C36.8348 158.29 37.9313 158.29 39.0699 158.501C40.2085 158.712 41.3893 159.175 42.2328 159.597C42.6545 159.808 42.9919 160.019 43.2449 160.188C43.4979 160.356 43.6244 160.441 43.6244 160.441C43.9618 159.555 44.0039 158.543 43.7931 157.531C43.5822 156.519 43.0762 155.464 42.3592 154.621C41.6423 153.735 40.7146 153.061 39.7025 152.639C38.6904 152.217 37.5939 152.091 36.6239 152.259C36.6239 152.259 36.4553 152.301 36.1601 152.344C35.8649 152.428 35.4431 152.512 34.9792 152.723C34.5154 152.892 33.9671 153.145 33.4611 153.482C32.955 153.82 32.4912 154.199 32.0695 154.621C31.2682 155.464 30.8886 156.476 30.7621 157.193C30.7199 157.573 30.7199 157.826 30.7621 158.037C30.8043 158.248 30.8043 158.332 30.8043 158.332C31.8164 159.049 32.196 159.597 32.4912 159.597C32.6177 159.597 32.9129 159.513 33.2502 159.344C33.8406 159.218 34.3467 159.007 34.8528 158.796Z" fill="#DB42AD" stroke="#B42A8A"/>
<path d="M35.4596 143.117L34.79 141L27.819 143.934C24.0087 145.54 24.3937 148.722 25.3212 152C29.0377 150.43 37.1974 148.65 35.4596 143.117Z" fill="#DB42AD" stroke="#B42A8A"/>
<path d="M35.4596 150.117L34.79 148L27.819 150.934C24.0087 152.54 24.3937 155.722 25.3212 159C29.0377 157.43 37.1974 155.65 35.4596 150.117Z" fill="#DB42AD" stroke="#B42A8A"/>
<path d="M35.4596 157.117L34.79 155L27.819 157.934C24.0087 159.54 24.3937 162.722 25.3212 166C29.0377 164.43 37.1974 162.65 35.4596 157.117Z" fill="#DB42AD" stroke="#B42A8A"/>
<path d="M35.4596 164.117L34.79 162L27.819 164.934C24.0087 166.54 24.3937 169.722 25.3212 173C29.0377 171.43 37.1974 169.65 35.4596 164.117Z" fill="#DB42AD" stroke="#B42A8A"/>
<path d="M35.4596 171.117L34.79 169L27.819 171.934C24.0087 173.54 24.3937 176.722 25.3212 180C29.0377 178.43 37.1974 176.65 35.4596 171.117Z" fill="#DB42AD" stroke="#B42A8A"/>
<path d="M35.4596 178.117L34.79 176L27.819 178.934C24.0087 180.54 24.3937 183.722 25.3212 187C29.0377 185.43 37.1974 183.65 35.4596 178.117Z" fill="#DB42AD" stroke="#B42A8A"/>
<path d="M17.3091 159.428C17.2247 159.133 17.1826 159.007 17.1826 159.007C15.58 159.934 14.4836 161.917 14.4414 164.067C14.4414 169.277 20.0414 172.144 24.7734 170.899C25.153 170.815 25.4481 170.73 25.659 170.646C25.8699 170.562 25.9964 170.519 25.9964 170.519C25.7106 165.662 18.7865 164.599 17.3091 159.428Z" fill="#DB42AD" stroke="#B42A8A"/>
<path d="M25.9981 170.478C25.9981 170.478 25.8715 170.52 25.6607 170.604C25.4498 170.688 25.1546 170.773 24.7751 170.857C24.016 171.026 22.9196 171.152 21.7388 171.068C21.1484 171.026 20.6001 170.899 20.0097 170.731C19.4615 170.562 18.9554 170.351 18.4915 170.182C18.0698 169.972 17.6903 169.761 17.4373 169.634C17.1842 169.466 17.0155 169.381 17.0155 169.381C16.889 169.845 16.8469 170.309 16.8047 170.815C16.8047 171.321 16.889 171.827 17.0577 172.375C17.1842 172.881 17.4372 173.387 17.6903 173.851C17.9433 174.315 18.3229 174.737 18.7024 175.159C19.0819 175.538 19.5037 175.876 19.9675 176.171C20.4314 176.466 20.8953 176.677 21.4014 176.846C21.9074 177.014 22.3713 177.099 22.8774 177.141C23.3834 177.183 23.8474 177.099 24.2691 177.014C24.2691 177.014 24.4378 176.972 24.6908 176.888C24.986 176.803 25.3655 176.677 25.8294 176.55C26.715 176.213 27.8536 175.665 28.7814 174.99C29.2453 174.653 29.667 174.273 30.0465 173.936C30.4261 173.556 30.7213 173.219 30.9321 172.881C31.396 172.207 31.6069 171.785 31.6069 171.785C30.6791 170.731 29.9622 170.14 29.1188 169.972C28.2754 169.803 27.3054 169.972 25.9981 170.478Z" fill="#DB42AD" stroke="#B42A8A"/>
<path d="M31.6054 171.827C31.6054 171.827 31.3945 172.249 30.9306 172.924C30.6776 173.219 30.3824 173.598 30.045 173.978C29.6655 174.315 29.2438 174.695 28.7799 175.032C27.8521 175.707 26.7135 176.255 25.8279 176.592C25.364 176.761 24.9845 176.888 24.6893 176.93C24.3941 177.014 24.2676 177.014 24.2676 177.014C24.4784 177.436 24.7736 177.815 25.0688 178.153C25.4062 178.532 25.7857 178.827 26.2075 179.081C26.6292 179.376 27.093 179.587 27.5991 179.755C28.1051 179.924 28.6112 180.008 29.1595 180.093C30.2137 180.177 31.3524 180.008 32.3223 179.629C33.2923 179.207 34.1357 178.617 34.6839 177.815C34.6839 177.815 34.7682 177.689 34.9369 177.436C35.1056 177.225 35.3165 176.803 35.5273 176.382C35.9912 175.538 36.4129 174.315 36.5816 173.177C36.7503 172.038 36.7081 170.941 36.5395 170.14C36.4551 169.761 36.3708 169.423 36.3286 169.212C36.2443 169.002 36.2021 168.875 36.2021 168.875C34.8104 168.875 33.8405 168.959 33.2079 169.381C33.0392 169.465 32.9127 169.592 32.744 169.761C32.6175 169.887 32.491 170.056 32.3645 170.267C32.238 170.435 32.1114 170.688 31.9849 170.941C31.9006 171.237 31.7741 171.49 31.6054 171.827Z" fill="#DB42AD" stroke="#B42A8A"/>
<path d="M36.2838 168.959C36.2838 168.959 36.326 169.086 36.4103 169.297C36.4525 169.507 36.5368 169.803 36.6212 170.224C36.7477 170.983 36.832 172.08 36.6633 173.261C36.4947 174.399 36.0729 175.622 35.6091 176.466C35.3982 176.887 35.1452 177.267 35.0187 177.52C34.85 177.773 34.7656 177.9 34.7656 177.9C34.9765 177.984 35.2295 178.068 35.4826 178.11C35.7356 178.153 35.9886 178.153 36.2416 178.195C36.4947 178.195 36.7477 178.195 37.0429 178.195C37.2959 178.153 37.549 178.11 37.802 178.068C38.8141 177.815 39.8262 177.309 40.6696 176.592C41.5131 175.875 42.1456 174.948 42.5252 174.02C42.9047 173.05 43.0313 172.038 42.8626 171.11C42.8626 171.11 42.8204 170.941 42.7782 170.646C42.736 170.351 42.6095 169.971 42.483 169.507C42.1878 168.58 41.6818 167.441 41.007 166.471C40.3323 165.501 39.4889 164.784 38.8563 164.32C38.5189 164.11 38.2659 163.941 38.055 163.814C37.8442 163.688 37.7598 163.646 37.7598 163.646C36.7477 164.616 36.1573 165.333 35.9886 166.049C35.6512 166.682 35.8621 167.61 36.2838 168.959Z" fill="#DB42AD" stroke="#B42A8A"/>
<path d="M42.6529 170.562C42.6951 170.857 42.7372 171.026 42.7372 171.026C43.5807 170.646 44.3398 169.929 44.9302 169.044C45.5206 168.158 45.8579 167.062 45.9423 165.965C46.0266 164.869 45.8579 163.73 45.4362 162.802C43.6822 158.768 41.1934 157.359 35.9278 158.392C34.8612 160.353 34.809 161.115 35.1885 161.79C37.4776 165.351 41.749 165.138 42.6529 170.562Z" fill="#DB42AD" stroke="#B42A8A"/>
<path d="M35.3182 130.458C34.9386 129.488 34.0952 128.518 32.9987 127.928C31.9023 127.295 30.6371 127 29.4142 127C23.8927 127.095 21.8358 133.405 23.3415 137.922C23.468 138.302 23.5945 138.597 23.6789 138.808C23.7632 139.019 23.8053 139.145 23.8053 139.145C25.197 138.935 26.1669 138.681 26.7573 138.175C30.2803 135.533 29.7178 130.458 35.3182 130.458Z" fill="#DB42AD" stroke="#B42A8A"/>
<path d="M40.0368 134.48C39.9718 133.44 39.4651 132.259 38.6015 131.362C37.7508 130.424 36.6364 129.756 35.4719 129.383C30.4164 127.856 25.4113 132.95 27.2282 137.815C35.2485 140.804 34.8711 132.822 40.0368 134.48Z" fill="#DB42AD" stroke="#B42A8A"/>
<path d="M23.6759 131.048C23.7603 130.88 23.8446 130.711 23.8868 130.542C24.0133 130.289 24.0976 130.121 24.0976 130.121C23.1699 129.952 22.1156 130.078 21.1456 130.5C20.1757 130.88 19.2479 131.554 18.5732 132.356C15.5273 136.163 17.5819 141.291 21.1878 143.995C21.3565 144.122 21.5674 144.248 21.7361 144.375C22.0734 144.585 22.3264 144.754 22.5373 144.838C22.7481 144.923 22.8747 144.965 22.8747 144.965C23.8446 143.953 24.3928 143.194 24.5615 142.308C25.1374 138.469 22.5932 135.379 23.6759 131.048Z" fill="#DB42AD" stroke="#B42A8A"/>
<path d="M34.8528 137.796C34.8528 137.796 34.9792 137.754 35.1901 137.669C35.401 137.585 35.6962 137.501 36.0757 137.458C36.8348 137.29 37.9313 137.29 39.0699 137.501C40.2085 137.712 41.3893 138.175 42.2328 138.597C42.6545 138.808 42.9919 139.019 43.2449 139.188C43.4979 139.356 43.6244 139.441 43.6244 139.441C43.9618 138.555 44.0039 137.543 43.7931 136.531C43.5822 135.519 43.0762 134.464 42.3592 133.621C41.6423 132.735 40.7146 132.061 39.7025 131.639C38.6904 131.217 37.5939 131.091 36.6239 131.259C36.6239 131.259 36.4553 131.301 36.1601 131.344C35.8649 131.428 35.4431 131.512 34.9792 131.723C34.5154 131.892 33.9671 132.145 33.4611 132.482C32.955 132.82 32.4912 133.199 32.0695 133.621C31.2682 134.464 30.8886 135.476 30.7621 136.193C30.7199 136.573 30.7199 136.826 30.7621 137.037C30.8043 137.248 30.8043 137.332 30.8043 137.332C31.8164 138.049 32.196 138.597 32.4912 138.597C32.6177 138.597 32.9129 138.513 33.2502 138.344C33.8406 138.218 34.3467 138.007 34.8528 137.796Z" fill="#DB42AD" stroke="#B42A8A"/>
<path d="M35.4596 122.117L34.79 120L27.819 122.934C24.0087 124.54 24.3937 127.722 25.3212 131C29.0377 129.43 37.1974 127.65 35.4596 122.117Z" fill="#DB42AD" stroke="#B42A8A"/>
<path d="M35.4596 129.117L34.79 127L27.819 129.934C24.0087 131.54 24.3937 134.722 25.3212 138C29.0377 136.43 37.1974 134.65 35.4596 129.117Z" fill="#DB42AD" stroke="#B42A8A"/>
<path d="M35.4596 136.117L34.79 134L27.819 136.934C24.0087 138.54 24.3937 141.722 25.3212 145C29.0377 143.43 37.1974 141.65 35.4596 136.117Z" fill="#DB42AD" stroke="#B42A8A"/>
<path d="M35.4596 143.117L34.79 141L27.819 143.934C24.0087 145.54 24.3937 148.722 25.3212 152C29.0377 150.43 37.1974 148.65 35.4596 143.117Z" fill="#DB42AD" stroke="#B42A8A"/>
<path d="M35.4596 150.117L34.79 148L27.819 150.934C24.0087 152.54 24.3937 155.722 25.3212 159C29.0377 157.43 37.1974 155.65 35.4596 150.117Z" fill="#DB42AD" stroke="#B42A8A"/>
<path d="M35.4596 157.117L34.79 155L27.819 157.934C24.0087 159.54 24.3937 162.722 25.3212 166C29.0377 164.43 37.1974 162.65 35.4596 157.117Z" fill="#DB42AD" stroke="#B42A8A"/>
<path d="M17.3091 138.428C17.2247 138.133 17.1826 138.007 17.1826 138.007C15.58 138.934 14.4836 140.917 14.4414 143.067C14.4414 148.277 20.0414 151.144 24.7734 149.899C25.153 149.815 25.4481 149.73 25.659 149.646C25.8699 149.562 25.9964 149.519 25.9964 149.519C25.7106 144.662 18.7865 143.599 17.3091 138.428Z" fill="#DB42AD" stroke="#B42A8A"/>
<path d="M25.9981 149.478C25.9981 149.478 25.8715 149.52 25.6607 149.604C25.4498 149.688 25.1546 149.773 24.7751 149.857C24.016 150.026 22.9196 150.152 21.7388 150.068C21.1484 150.026 20.6001 149.899 20.0097 149.731C19.4615 149.562 18.9554 149.351 18.4915 149.182C18.0698 148.972 17.6903 148.761 17.4373 148.634C17.1842 148.466 17.0155 148.381 17.0155 148.381C16.889 148.845 16.8469 149.309 16.8047 149.815C16.8047 150.321 16.889 150.827 17.0577 151.375C17.1842 151.881 17.4372 152.387 17.6903 152.851C17.9433 153.315 18.3229 153.737 18.7024 154.159C19.0819 154.538 19.5037 154.876 19.9675 155.171C20.4314 155.466 20.8953 155.677 21.4014 155.846C21.9074 156.014 22.3713 156.099 22.8774 156.141C23.3834 156.183 23.8474 156.099 24.2691 156.014C24.2691 156.014 24.4378 155.972 24.6908 155.888C24.986 155.803 25.3655 155.677 25.8294 155.55C26.715 155.213 27.8536 154.665 28.7814 153.99C29.2453 153.653 29.667 153.273 30.0465 152.936C30.4261 152.556 30.7213 152.219 30.9321 151.881C31.396 151.207 31.6069 150.785 31.6069 150.785C30.6791 149.731 29.9622 149.14 29.1188 148.972C28.2754 148.803 27.3054 148.972 25.9981 149.478Z" fill="#DB42AD" stroke="#B42A8A"/>
<path d="M31.6054 150.827C31.6054 150.827 31.3945 151.249 30.9306 151.924C30.6776 152.219 30.3824 152.598 30.045 152.978C29.6655 153.315 29.2438 153.695 28.7799 154.032C27.8521 154.707 26.7135 155.255 25.8279 155.592C25.364 155.761 24.9845 155.888 24.6893 155.93C24.3941 156.014 24.2676 156.014 24.2676 156.014C24.4784 156.436 24.7736 156.815 25.0688 157.153C25.4062 157.532 25.7857 157.827 26.2075 158.081C26.6292 158.376 27.093 158.587 27.5991 158.755C28.1051 158.924 28.6112 159.008 29.1595 159.093C30.2137 159.177 31.3524 159.008 32.3223 158.629C33.2923 158.207 34.1357 157.617 34.6839 156.815C34.6839 156.815 34.7682 156.689 34.9369 156.436C35.1056 156.225 35.3165 155.803 35.5273 155.382C35.9912 154.538 36.4129 153.315 36.5816 152.177C36.7503 151.038 36.7081 149.941 36.5395 149.14C36.4551 148.761 36.3708 148.423 36.3286 148.212C36.2443 148.002 36.2021 147.875 36.2021 147.875C34.8104 147.875 33.8405 147.959 33.2079 148.381C33.0392 148.465 32.9127 148.592 32.744 148.761C32.6175 148.887 32.491 149.056 32.3645 149.267C32.238 149.435 32.1114 149.688 31.9849 149.941C31.9006 150.237 31.7741 150.49 31.6054 150.827Z" fill="#DB42AD" stroke="#B42A8A"/>
<path d="M36.2838 147.959C36.2838 147.959 36.326 148.086 36.4103 148.297C36.4525 148.507 36.5368 148.803 36.6212 149.224C36.7477 149.983 36.832 151.08 36.6633 152.261C36.4947 153.399 36.0729 154.622 35.6091 155.466C35.3982 155.887 35.1452 156.267 35.0187 156.52C34.85 156.773 34.7656 156.9 34.7656 156.9C34.9765 156.984 35.2295 157.068 35.4826 157.11C35.7356 157.153 35.9886 157.153 36.2416 157.195C36.4947 157.195 36.7477 157.195 37.0429 157.195C37.2959 157.153 37.549 157.11 37.802 157.068C38.8141 156.815 39.8262 156.309 40.6696 155.592C41.5131 154.875 42.1456 153.948 42.5252 153.02C42.9047 152.05 43.0313 151.038 42.8626 150.11C42.8626 150.11 42.8204 149.941 42.7782 149.646C42.736 149.351 42.6095 148.971 42.483 148.507C42.1878 147.58 41.6818 146.441 41.007 145.471C40.3323 144.501 39.4889 143.784 38.8563 143.32C38.5189 143.11 38.2659 142.941 38.055 142.814C37.8442 142.688 37.7598 142.646 37.7598 142.646C36.7477 143.616 36.1573 144.333 35.9886 145.049C35.6512 145.682 35.8621 146.61 36.2838 147.959Z" fill="#DB42AD" stroke="#B42A8A"/>
<path d="M42.6529 149.562C42.6951 149.857 42.7372 150.026 42.7372 150.026C43.5807 149.646 44.3398 148.929 44.9302 148.044C45.5206 147.158 45.8579 146.062 45.9423 144.965C46.0266 143.869 45.8579 142.73 45.4362 141.802C43.6822 137.768 41.1934 136.359 35.9278 137.392C34.8612 139.353 34.809 140.115 35.1885 140.79C37.4776 144.351 41.749 144.138 42.6529 149.562Z" fill="#DB42AD" stroke="#B42A8A"/>
<path d="M35.2604 206.117L34.5908 204L27.6198 206.934C23.8095 208.54 24.1945 211.722 25.1219 215C28.8385 213.43 36.9981 211.65 35.2604 206.117Z" fill="#DB42AD" stroke="#B42A8A"/>
<path d="M35.2604 213.117L34.5908 211L27.6198 213.934C23.8095 215.54 24.1945 218.722 25.1219 222C28.8385 220.43 36.9981 218.65 35.2604 213.117Z" fill="#DB42AD" stroke="#B42A8A"/>
<path d="M35.2604 220.117L34.5908 218L27.6198 220.934C23.8095 222.54 24.1945 225.722 25.1219 229C28.8385 227.43 36.9981 225.65 35.2604 220.117Z" fill="#DB42AD" stroke="#B42A8A"/>
<path d="M35.2604 227.117L34.5908 225L27.6198 227.934C23.8095 229.54 24.1945 232.722 25.1219 236C28.8385 234.43 36.9981 232.65 35.2604 227.117Z" fill="#DB42AD" stroke="#B42A8A"/>
<path d="M35.2604 234.117L34.5908 232L27.6198 234.934C23.8095 236.54 24.1945 239.722 25.1219 243C28.8385 241.43 36.9981 239.65 35.2604 234.117Z" fill="#DB42AD" stroke="#B42A8A"/>
<path d="M35.2604 241.117L34.5908 239L27.6198 241.934C23.8095 243.54 24.1945 246.722 25.1219 250C28.8385 248.43 36.9981 246.65 35.2604 241.117Z" fill="#DB42AD" stroke="#B42A8A"/>
<path d="M35.2604 248.117L34.5908 246L27.6198 248.934C23.8095 250.54 24.1945 253.722 25.1219 257C28.8385 255.43 36.9981 253.65 35.2604 248.117Z" fill="#DB42AD" stroke="#B42A8A"/>
<path d="M35.2604 255.117L34.5908 253L27.6198 255.934C23.8095 257.54 24.1945 260.722 25.1219 264C28.8385 262.43 36.9981 260.65 35.2604 255.117Z" fill="#DB42AD" stroke="#B42A8A"/>
<path d="M35.2604 262.117L34.5908 260L27.6198 262.934C23.8095 264.54 24.1945 267.722 25.1219 271C28.8385 269.43 36.9981 267.65 35.2604 262.117Z" fill="#DB42AD" stroke="#B42A8A"/>
<path d="M35.2604 269.117L34.5908 267L27.6198 269.934C23.8095 271.54 24.1945 274.722 25.1219 278C28.8385 276.43 36.9981 274.65 35.2604 269.117Z" fill="#DB42AD" stroke="#B42A8A"/>
<path d="M35.2604 276.117L34.5908 274L27.6198 276.934C23.8095 278.54 24.1945 281.722 25.1219 285C28.8385 283.43 36.9981 281.65 35.2604 276.117Z" fill="#DB42AD" stroke="#B42A8A"/>
<path d="M35.2604 283.117L34.5908 281L27.6198 283.934C23.8095 285.54 24.1945 288.722 25.1219 292C28.8385 290.43 36.9981 288.65 35.2604 283.117Z" fill="#DB42AD" stroke="#B42A8A"/>
<path d="M35.3182 298.458C34.9386 297.488 34.0952 296.518 32.9987 295.928C31.9023 295.295 30.6371 295 29.4142 295C23.8927 295.095 21.8358 301.405 23.3415 305.922C23.468 306.302 23.5945 306.597 23.6789 306.808C23.7632 307.019 23.8053 307.145 23.8053 307.145C25.197 306.935 26.1669 306.681 26.7573 306.175C30.2803 303.533 29.7178 298.458 35.3182 298.458Z" fill="#DB42AD" stroke="#B42A8A"/>
<path d="M40.0368 302.48C39.9718 301.44 39.4651 300.259 38.6015 299.362C37.7508 298.424 36.6364 297.756 35.4719 297.383C30.4164 295.856 25.4113 300.95 27.2282 305.815C35.2485 308.804 34.8711 300.822 40.0368 302.48Z" fill="#DB42AD" stroke="#B42A8A"/>
<path d="M23.6759 299.048C23.7603 298.88 23.8446 298.711 23.8868 298.542C24.0133 298.289 24.0976 298.121 24.0976 298.121C23.1699 297.952 22.1156 298.078 21.1456 298.5C20.1757 298.88 19.2479 299.554 18.5732 300.356C15.5273 304.163 17.5819 309.291 21.1878 311.995C21.3565 312.122 21.5674 312.248 21.7361 312.375C22.0734 312.585 22.3264 312.754 22.5373 312.838C22.7481 312.923 22.8747 312.965 22.8747 312.965C23.8446 311.953 24.3928 311.194 24.5615 310.308C25.1374 306.469 22.5932 303.379 23.6759 299.048Z" fill="#DB42AD" stroke="#B42A8A"/>
<path d="M34.8528 305.796C34.8528 305.796 34.9792 305.754 35.1901 305.669C35.401 305.585 35.6962 305.501 36.0757 305.458C36.8348 305.29 37.9313 305.29 39.0699 305.501C40.2085 305.712 41.3893 306.175 42.2328 306.597C42.6545 306.808 42.9919 307.019 43.2449 307.188C43.4979 307.356 43.6244 307.441 43.6244 307.441C43.9618 306.555 44.0039 305.543 43.7931 304.531C43.5822 303.519 43.0762 302.464 42.3592 301.621C41.6423 300.735 40.7146 300.061 39.7025 299.639C38.6904 299.217 37.5939 299.091 36.6239 299.259C36.6239 299.259 36.4553 299.301 36.1601 299.344C35.8649 299.428 35.4431 299.512 34.9792 299.723C34.5154 299.892 33.9671 300.145 33.4611 300.482C32.955 300.82 32.4912 301.199 32.0695 301.621C31.2682 302.464 30.8886 303.476 30.7621 304.193C30.7199 304.573 30.7199 304.826 30.7621 305.037C30.8043 305.248 30.8043 305.332 30.8043 305.332C31.8164 306.049 32.196 306.597 32.4912 306.597C32.6177 306.597 32.9129 306.513 33.2502 306.344C33.8406 306.218 34.3467 306.007 34.8528 305.796Z" fill="#DB42AD" stroke="#B42A8A"/>
<path d="M35.4596 290.117L34.79 288L27.819 290.934C24.0087 292.54 24.3937 295.722 25.3212 299C29.0377 297.43 37.1974 295.65 35.4596 290.117Z" fill="#DB42AD" stroke="#B42A8A"/>
<path d="M35.4596 297.117L34.79 295L27.819 297.934C24.0087 299.54 24.3937 302.722 25.3212 306C29.0377 304.43 37.1974 302.65 35.4596 297.117Z" fill="#DB42AD" stroke="#B42A8A"/>
<path d="M35.4596 304.117L34.79 302L27.819 304.934C24.0087 306.54 24.3937 309.722 25.3212 313C29.0377 311.43 37.1974 309.65 35.4596 304.117Z" fill="#DB42AD" stroke="#B42A8A"/>
<path d="M35.4596 311.117L34.79 309L27.819 311.934C24.0087 313.54 24.3937 316.722 25.3212 320C29.0377 318.43 37.1974 316.65 35.4596 311.117Z" fill="#DB42AD" stroke="#B42A8A"/>
<path d="M35.4596 318.117L34.79 316L27.819 318.934C24.0087 320.54 24.3937 323.722 25.3212 327C29.0377 325.43 37.1974 323.65 35.4596 318.117Z" fill="#DB42AD" stroke="#B42A8A"/>
<path d="M35.4596 325.117L34.79 323L27.819 325.934C24.0087 327.54 24.3937 330.722 25.3212 334C29.0377 332.43 37.1974 330.65 35.4596 325.117Z" fill="#DB42AD" stroke="#B42A8A"/>
<path d="M17.3091 306.428C17.2247 306.133 17.1826 306.007 17.1826 306.007C15.58 306.934 14.4836 308.917 14.4414 311.067C14.4414 316.277 20.0414 319.144 24.7734 317.899C25.153 317.815 25.4481 317.73 25.659 317.646C25.8699 317.562 25.9964 317.519 25.9964 317.519C25.7106 312.662 18.7865 311.599 17.3091 306.428Z" fill="#DB42AD" stroke="#B42A8A"/>
<path d="M25.9981 317.478C25.9981 317.478 25.8715 317.52 25.6607 317.604C25.4498 317.688 25.1546 317.773 24.7751 317.857C24.016 318.026 22.9196 318.152 21.7388 318.068C21.1484 318.026 20.6001 317.899 20.0097 317.731C19.4615 317.562 18.9554 317.351 18.4915 317.182C18.0698 316.972 17.6903 316.761 17.4373 316.634C17.1842 316.466 17.0155 316.381 17.0155 316.381C16.889 316.845 16.8469 317.309 16.8047 317.815C16.8047 318.321 16.889 318.827 17.0577 319.375C17.1842 319.881 17.4372 320.387 17.6903 320.851C17.9433 321.315 18.3229 321.737 18.7024 322.159C19.0819 322.538 19.5037 322.876 19.9675 323.171C20.4314 323.466 20.8953 323.677 21.4014 323.846C21.9074 324.014 22.3713 324.099 22.8774 324.141C23.3834 324.183 23.8474 324.099 24.2691 324.014C24.2691 324.014 24.4378 323.972 24.6908 323.888C24.986 323.803 25.3655 323.677 25.8294 323.55C26.715 323.213 27.8536 322.665 28.7814 321.99C29.2453 321.653 29.667 321.273 30.0465 320.936C30.4261 320.556 30.7213 320.219 30.9321 319.881C31.396 319.207 31.6069 318.785 31.6069 318.785C30.6791 317.731 29.9622 317.14 29.1188 316.972C28.2754 316.803 27.3054 316.972 25.9981 317.478Z" fill="#DB42AD" stroke="#B42A8A"/>
<path d="M31.6054 318.827C31.6054 318.827 31.3945 319.249 30.9306 319.924C30.6776 320.219 30.3824 320.598 30.045 320.978C29.6655 321.315 29.2438 321.695 28.7799 322.032C27.8521 322.707 26.7135 323.255 25.8279 323.592C25.364 323.761 24.9845 323.888 24.6893 323.93C24.3941 324.014 24.2676 324.014 24.2676 324.014C24.4784 324.436 24.7736 324.815 25.0688 325.153C25.4062 325.532 25.7857 325.827 26.2075 326.081C26.6292 326.376 27.093 326.587 27.5991 326.755C28.1051 326.924 28.6112 327.008 29.1595 327.093C30.2137 327.177 31.3524 327.008 32.3223 326.629C33.2923 326.207 34.1357 325.617 34.6839 324.815C34.6839 324.815 34.7682 324.689 34.9369 324.436C35.1056 324.225 35.3165 323.803 35.5273 323.382C35.9912 322.538 36.4129 321.315 36.5816 320.177C36.7503 319.038 36.7081 317.941 36.5395 317.14C36.4551 316.761 36.3708 316.423 36.3286 316.212C36.2443 316.002 36.2021 315.875 36.2021 315.875C34.8104 315.875 33.8405 315.959 33.2079 316.381C33.0392 316.465 32.9127 316.592 32.744 316.761C32.6175 316.887 32.491 317.056 32.3645 317.267C32.238 317.435 32.1114 317.688 31.9849 317.941C31.9006 318.237 31.7741 318.49 31.6054 318.827Z" fill="#DB42AD" stroke="#B42A8A"/>
<path d="M36.2838 315.959C36.2838 315.959 36.326 316.086 36.4103 316.297C36.4525 316.507 36.5368 316.803 36.6212 317.224C36.7477 317.983 36.832 319.08 36.6633 320.261C36.4947 321.399 36.0729 322.622 35.6091 323.466C35.3982 323.887 35.1452 324.267 35.0187 324.52C34.85 324.773 34.7656 324.9 34.7656 324.9C34.9765 324.984 35.2295 325.068 35.4826 325.11C35.7356 325.153 35.9886 325.153 36.2416 325.195C36.4947 325.195 36.7477 325.195 37.0429 325.195C37.2959 325.153 37.549 325.11 37.802 325.068C38.8141 324.815 39.8262 324.309 40.6696 323.592C41.5131 322.875 42.1456 321.948 42.5252 321.02C42.9047 320.05 43.0313 319.038 42.8626 318.11C42.8626 318.11 42.8204 317.941 42.7782 317.646C42.736 317.351 42.6095 316.971 42.483 316.507C42.1878 315.58 41.6818 314.441 41.007 313.471C40.3323 312.501 39.4889 311.784 38.8563 311.32C38.5189 311.11 38.2659 310.941 38.055 310.814C37.8442 310.688 37.7598 310.646 37.7598 310.646C36.7477 311.616 36.1573 312.333 35.9886 313.049C35.6512 313.682 35.8621 314.61 36.2838 315.959Z" fill="#DB42AD" stroke="#B42A8A"/>
<path d="M42.6529 317.562C42.6951 317.857 42.7372 318.026 42.7372 318.026C43.5807 317.646 44.3398 316.929 44.9302 316.044C45.5206 315.158 45.8579 314.062 45.9423 312.965C46.0266 311.869 45.8579 310.73 45.4362 309.802C43.6822 305.768 41.1934 304.359 35.9278 305.392C34.8612 307.353 34.809 308.115 35.1885 308.79C37.4776 312.351 41.749 312.138 42.6529 317.562Z" fill="#DB42AD" stroke="#B42A8A"/>
<path d="M35.2604 332.117L34.5908 330L27.6198 332.934C23.8095 334.54 24.1945 337.722 25.1219 341C28.8385 339.43 36.9981 337.65 35.2604 332.117Z" fill="#DB42AD" stroke="#B42A8A"/>
<path d="M35.2604 339.117L34.5908 337L27.6198 339.934C23.8095 341.54 24.1945 344.722 25.1219 348C28.8385 346.43 36.9981 344.65 35.2604 339.117Z" fill="#DB42AD" stroke="#B42A8A"/>
<path d="M35.2604 346.117L34.5908 344L27.6198 346.934C23.8095 348.54 24.1945 351.722 25.1219 355C28.8385 353.43 36.9981 351.65 35.2604 346.117Z" fill="#DB42AD" stroke="#B42A8A"/>
<path d="M35.2604 353.117L34.5908 351L27.6198 353.934C23.8095 355.54 24.1945 358.722 25.1219 362C28.8385 360.43 36.9981 358.65 35.2604 353.117Z" fill="#DB42AD" stroke="#B42A8A"/>
<path d="M35.2604 360.117L34.5908 358L27.6198 360.934C23.8095 362.54 24.1945 365.722 25.1219 369C28.8385 367.43 36.9981 365.65 35.2604 360.117Z" fill="#DB42AD" stroke="#B42A8A"/>
<path d="M35.2604 367.117L34.5908 365L27.6198 367.934C23.8095 369.54 24.1945 372.722 25.1219 376C28.8385 374.43 36.9981 372.65 35.2604 367.117Z" fill="#DB42AD" stroke="#B42A8A"/>
<path d="M35.2604 374.117L34.5908 372L27.6198 374.934C23.8095 376.54 24.1945 379.722 25.1219 383C28.8385 381.43 36.9981 379.65 35.2604 374.117Z" fill="#DB42AD" stroke="#B42A8A"/>
<path d="M35.2604 381.117L34.5908 379L27.6198 381.934C23.8095 383.54 24.1945 386.722 25.1219 390C28.8385 388.43 36.9981 386.65 35.2604 381.117Z" fill="#DB42AD" stroke="#B42A8A"/>
<path d="M35.2604 388.117L34.5908 386L27.6198 388.934C23.8095 390.54 24.1945 393.722 25.1219 397C28.8385 395.43 36.9981 393.65 35.2604 388.117Z" fill="#DB42AD" stroke="#B42A8A"/>
<path d="M24.0831 416.124C23.8205 420.362 23.2952 424.592 22.4739 428.775C22.4739 428.806 22.4644 428.822 22.4644 428.837C22.013 431.042 23.5619 430.867 25.0667 430.867C25.9692 427.173 26.7237 422.041 26.8001 417.531C26.8001 417.531 27.2775 421.777 26.0552 429.335C26.122 429.817 26.2175 430.393 26.3942 430.867H27.9413C28.5334 425.393 28.9392 418.9 28.9965 412.726C29.0252 413.674 29.2353 420.424 28.3806 430.867H30.9399L31.2599 429.708L31.5034 428.861C31.4986 428.853 31.4986 428.837 31.4986 428.822C31.3028 426.046 31.1835 423.612 31.1023 421.52C30.8779 415.712 31.0402 412.617 31.0402 412.617C31.0832 418.705 31.4795 425.105 32.0716 431.077L34.2347 430.867C32.7449 422.516 33.1985 417.827 33.2319 417.539C33.337 423.62 34.4877 428.884 35.0225 431.046L36.6699 430.867C37.3145 430.859 37.7682 429.84 37.5676 428.814C36.7415 424.623 36.2115 420.369 35.9537 416.124C35.2716 406.128 24.9181 402.924 24.0831 416.124Z" fill="#DB42AD" stroke="#B42A8A"/>
<path d="M35.2604 395.117L34.5908 393L27.6198 395.933C23.8095 397.54 24.1945 400.722 25.1219 404C28.8385 402.43 36.9981 400.65 35.2604 395.117Z" fill="#DB42AD" stroke="#B42A8A"/>
<path d="M32.3113 402.335C33.2989 402.662 34.2633 403.084 35.0376 403.49C35.8118 403.895 36.277 404.242 36.277 404.242C36.4874 403.647 36.4714 402.919 36.2777 402.256C34.7904 395.905 26.811 396.989 24.9265 400.65C24.6798 401.13 24.5629 401.475 24.5629 401.475C25.6477 402.198 27.4201 403.713 28.0144 403.796C28.3235 403.855 28.5368 403.777 28.7857 403.685C29.9691 402.818 30.5308 401.745 32.3113 402.335Z" fill="#DB42AD" stroke="#B42A8A"/>
<path d="M36.9433 409.414C39.3751 407.433 39.3343 404.401 36.9431 401.406C34.5518 398.412 29.5415 400.251 27.9044 405.473C29.0523 408.408 35.8709 406.897 36.9433 409.414Z" fill="#DB42AD" stroke="#B42A8A"/>
<path d="M27.089 399.834C27.1345 399.414 27.18 399.037 27.2255 398.785C27.3165 398.533 27.3165 398.366 27.3165 398.366C26.3609 398.45 25.4508 398.911 24.6773 399.498C20.8286 402.629 22.8475 407.012 26.3609 409.399C27.2255 409.987 28.1356 410.322 28.8182 410.49C29.1367 410.574 29.4552 410.616 29.6373 410.658C29.8193 410.7 29.9558 410.7 29.9558 410.7C32.3254 406.666 26.8599 404.058 27.089 399.834Z" fill="#DB42AD" stroke="#B42A8A"/>
<path d="M29.2075 407.238C29.2075 407.238 29.071 407.238 28.889 407.191C28.707 407.145 28.4339 407.099 28.0699 407.006C27.3873 406.821 26.4772 406.404 25.6127 405.802C24.7481 405.2 23.9745 404.366 23.4285 403.671C22.8824 402.977 22.5639 402.467 22.5639 402.467C21.9723 403.069 21.5628 403.857 21.3808 404.737C21.1532 405.617 21.1532 406.636 21.4263 407.655C21.6538 408.627 22.1543 409.6 22.8369 410.341C23.5195 411.082 24.3385 411.592 25.1576 411.823C25.1576 411.823 25.2941 411.869 25.5672 411.916C25.8402 411.962 26.2042 412.055 26.6593 412.101C27.5693 412.194 28.7069 412.147 29.7535 411.869C30.8001 411.592 31.5737 411.036 32.0743 410.526C32.3018 410.295 32.4838 410.063 32.5748 409.924C32.6658 409.785 32.7568 409.693 32.7568 409.693C32.2108 408.581 32.1653 408.025 31.7102 407.701C31.2097 407.469 30.4361 407.377 29.2075 407.238Z" fill="#DB42AD" stroke="#B42A8A"/>
<path d="M29.6771 408.146C29.6771 408.146 29.6071 408.221 29.4368 408.314C29.31 408.42 29.0565 408.632 28.7859 408.742C28.205 409.095 27.2626 409.384 26.1819 409.341C25.1314 409.355 23.9993 409.005 23.155 408.647C22.7328 408.468 22.411 408.272 22.1629 408.146C21.9149 408.021 21.7975 407.937 21.7975 407.937C21.5898 408.792 21.6301 409.773 22.0016 410.759C22.3295 411.732 22.9888 412.71 23.9147 413.432C24.371 413.815 24.8539 414.109 25.4067 414.329C25.6547 414.454 25.9159 414.535 26.1771 414.615C26.4384 414.696 26.7128 414.733 26.9873 414.769C27.5362 414.842 28.0245 414.799 28.5128 414.757C28.9708 414.656 29.442 414.511 29.8394 414.295C29.8394 414.295 29.9662 414.189 30.2368 414.079C30.4638 413.956 30.7741 413.713 31.1411 413.439C31.8317 412.878 32.6016 412.051 33.167 411.113C33.7324 410.174 34.0972 409.271 34.3088 408.562C34.4146 408.207 34.4636 407.883 34.5165 407.706C34.5259 407.515 34.5656 407.382 34.5656 407.382C33.3993 406.828 32.4718 406.59 31.7696 406.712C31.024 406.82 30.5473 407.302 29.6771 408.146Z" fill="#DB42AD" stroke="#B42A8A"/>
<path d="M30.3997 406.768C30.3996 408.134 30.5264 409.454 30.1597 410.823C29.8867 411.888 29.3861 412.907 28.8856 413.648C28.6125 414.019 28.385 414.343 28.203 414.528C28.021 414.713 27.8845 414.852 27.8845 414.852C28.7035 415.269 29.6591 415.362 30.6147 415.269C31.5703 415.13 32.5259 414.806 33.2995 414.25C37.225 411.51 35.7809 407.281 33.7782 405.187C32.1692 404.266 30.8336 404.983 30.3997 406.768Z" fill="#DB42AD" stroke="#B42A8A"/>
<path d="M34.6126 413.608C38.393 412.54 38.92 406.926 35.8175 404.987C32.715 403.048 30.388 405.375 30.3891 406.264C34.2683 407 35.817 408.865 34.6126 413.608Z" fill="#DB42AD" stroke="#B42A8A"/>
</svg>
