<svg width="60" height="54" viewBox="0 0 60 54" fill="none" xmlns="http://www.w3.org/2000/svg">
<path d="M19.1433 39.7085C19.9719 41.3497 21.406 42.3658 23.1107 42.9644C29.2578 45.1228 34.326 39.1443 33.3117 33.4131C33.0525 31.4535 31.5192 29.9805 29.7966 31.0046C25.559 33.5239 24.2486 38.2953 19.1433 39.7085Z" fill="#DE8342" stroke="#A45A25"/>
<path d="M30.4194 42.449C32.0273 43.3405 33.7846 43.3746 35.5309 42.9113C41.828 41.2405 42.6586 33.447 38.5978 29.2775C37.2818 27.8025 35.1856 27.4463 34.3367 29.2617C32.2484 33.7275 33.847 38.4102 30.4194 42.449Z" fill="#DE8342" stroke="#A45A25"/>
<path d="M41.2718 38.3801C43.1028 38.2134 44.5753 37.2537 45.759 35.8888C50.0276 30.967 46.3331 24.0547 40.6308 22.8893C38.7133 22.4093 36.7794 23.2932 37.0979 25.2717C37.8815 30.139 41.836 33.113 41.2718 38.3801Z" fill="#DE8342" stroke="#A45A25"/>
<path d="M47.9721 28.9124C49.3926 27.7453 50.0709 26.1238 50.2825 24.3295C51.0458 17.8594 44.1045 14.2197 38.7334 16.4617C36.8777 17.1427 35.7753 18.9608 37.151 20.4181C40.5353 24.0029 45.4777 24.2392 47.9721 28.9124Z" fill="#DE8342" stroke="#A45A25"/>
<path d="M48.1773 17.3178C48.696 15.5539 48.3454 13.8316 47.5117 12.2287C44.5056 6.44873 36.7189 7.34097 33.5373 12.2146C32.3855 13.821 32.4958 15.9444 34.4528 16.3762C39.267 17.4383 43.4872 14.8553 48.1773 17.3178Z" fill="#DE8342" stroke="#A45A25"/>
<path d="M14.4234 35.7795C14.7063 37.5961 15.7579 39.0045 17.1954 40.0989C22.3792 44.0453 29.0421 39.918 29.8419 34.153C30.1987 32.2088 29.1935 30.3351 27.2392 30.779C22.4317 31.8711 19.7158 36.007 14.4234 35.7795Z" fill="#DE8342" stroke="#A45A25"/>
<path d="M36.2168 26.5024L35.4254 24L27.187 27.4669C22.6839 29.365 23.1389 33.1263 24.235 37C28.6273 35.1445 38.2705 33.0411 36.2168 26.5024Z" fill="#DE8342" stroke="#A45A25"/>
<path d="M36.2168 34.5024L35.4254 32L27.187 35.4669C22.6839 37.365 23.1389 41.1263 24.235 45C28.6273 43.1445 38.2705 41.0411 36.2168 34.5024Z" fill="#DE8342" stroke="#A45A25"/>
<path d="M36.2168 42.5024L35.4254 40L27.187 43.4669C22.6839 45.365 23.1389 49.1263 24.235 53C28.6273 51.1445 38.2705 49.0411 36.2168 42.5024Z" fill="#DE8342" stroke="#A45A25"/>
<path d="M54.9201 14.348L58 15.322L53.733 25.4617C51.3969 31.0039 46.7676 30.4439 42 29.0949C44.2837 23.689 46.8725 11.8204 54.9201 14.348Z" fill="#D5C9BD" stroke="#988E82"/>
<path d="M44.9201 14.348L48 15.322L43.733 25.4617C41.3969 31.0039 36.7676 30.4439 32 29.0949C34.2837 23.689 36.8725 11.8204 44.9201 14.348Z" fill="#D5C9BD" stroke="#988E82"/>
<path d="M34.9201 14.348L38 15.322L33.733 25.4617C31.3969 31.0039 26.7676 30.4439 22 29.0949C24.2837 23.689 26.8725 11.8204 34.9201 14.348Z" fill="#D5C9BD" stroke="#988E82"/>
<path d="M24.9201 14.348L28 15.322L23.733 25.4617C21.3969 31.0039 16.7676 30.4439 12 29.0949C14.2837 23.689 16.8725 11.8204 24.9201 14.348Z" fill="#D5C9BD" stroke="#988E82"/>
<path d="M41.8346 7.61146C41.272 5.86116 40.0137 4.63391 38.4232 3.77695C32.6877 0.686771 26.7495 5.80217 26.8581 11.6214C26.8087 13.5975 28.0937 15.2915 29.9548 14.5484C34.5334 12.7204 36.5715 8.21162 41.8346 7.61146Z" fill="#DE8342" stroke="#A45A25"/>
<path d="M31.1312 3.14763C29.682 2.01639 27.9515 1.70878 26.1543 1.89424C19.6737 2.563 17.6385 10.1318 20.9998 14.8833C22.0698 16.5454 24.0848 17.224 25.2063 15.5631C27.9651 11.4774 27.116 6.60278 31.1312 3.14763Z" fill="#DE8342" stroke="#A45A25"/>
<path d="M19.7667 5.47278C17.9322 5.35198 16.3281 6.07043 14.9461 7.23415C9.96245 11.4305 12.5343 18.8341 17.9854 20.8741C19.8046 21.6471 21.8526 21.0755 21.8464 19.0715C21.8311 14.1415 18.3884 10.5875 19.7667 5.47278Z" fill="#DE8342" stroke="#A45A25"/>
<path d="M11.6825 13.7844C10.0974 14.7158 9.17472 16.2118 8.68596 17.9511C6.92352 24.2232 13.2127 28.9003 18.8676 27.5229C20.8067 27.1395 22.1791 25.5154 21.0473 23.8616C18.2632 19.793 13.4181 18.7892 11.6825 13.7844Z" fill="#DE8342" stroke="#A45A25"/>
<path d="M9.6632 25.2016C8.87592 26.863 8.95382 28.6189 9.52744 30.3322C11.5959 36.5101 19.4265 36.8425 23.3289 32.5244C24.717 31.1171 24.939 29.0025 23.0732 28.2709C18.4834 26.4714 13.9121 28.365 9.6632 25.2016Z" fill="#DE8342" stroke="#A45A25"/>
</svg>
