<svg width="60" height="488" viewBox="0 0 60 488" fill="none" xmlns="http://www.w3.org/2000/svg">
<path d="M35.2604 3.11741L34.5908 1L27.6198 3.93356C23.8095 5.53963 24.1945 8.72229 25.1219 12C28.8385 10.43 36.9981 8.65019 35.2604 3.11741Z" fill="#DB42AD" stroke="#B42A8A"/>
<path d="M35.2604 10.1174L34.5908 8L27.6198 10.9336C23.8095 12.5396 24.1945 15.7223 25.1219 19C28.8385 17.43 36.9981 15.6502 35.2604 10.1174Z" fill="#DB42AD" stroke="#B42A8A"/>
<path d="M35.2604 17.1174L34.5908 15L27.6198 17.9336C23.8095 19.5396 24.1945 22.7223 25.1219 26C28.8385 24.43 36.9981 22.6502 35.2604 17.1174Z" fill="#DB42AD" stroke="#B42A8A"/>
<path d="M35.2604 24.1174L34.5908 22L27.6198 24.9336C23.8095 26.5396 24.1945 29.7223 25.1219 33C28.8385 31.43 36.9981 29.6502 35.2604 24.1174Z" fill="#DB42AD" stroke="#B42A8A"/>
<path d="M35.2604 31.1174L34.5908 29L27.6198 31.9336C23.8095 33.5396 24.1945 36.7223 25.1219 40C28.8385 38.43 36.9981 36.6502 35.2604 31.1174Z" fill="#DB42AD" stroke="#B42A8A"/>
<path d="M35.2604 38.1174L34.5908 36L27.6198 38.9336C23.8095 40.5396 24.1945 43.7223 25.1219 47C28.8385 45.43 36.9981 43.6502 35.2604 38.1174Z" fill="#DB42AD" stroke="#B42A8A"/>
<path d="M35.2604 45.1174L34.5908 43L27.6198 45.9336C23.8095 47.5396 24.1945 50.7223 25.1219 54C28.8385 52.43 36.9981 50.6502 35.2604 45.1174Z" fill="#DB42AD" stroke="#B42A8A"/>
<path d="M35.2604 52.1174L34.5908 50L27.6198 52.9336C23.8095 54.5396 24.1945 57.7223 25.1219 61C28.8385 59.43 36.9981 57.6502 35.2604 52.1174Z" fill="#DB42AD" stroke="#B42A8A"/>
<path d="M35.2604 59.1174L34.5908 57L27.6198 59.9336C23.8095 61.5396 24.1945 64.7223 25.1219 68C28.8385 66.43 36.9981 64.6502 35.2604 59.1174Z" fill="#DB42AD" stroke="#B42A8A"/>
<path d="M35.2604 66.1174L34.5908 64L27.6198 66.9336C23.8095 68.5396 24.1945 71.7223 25.1219 75C28.8385 73.43 36.9981 71.6502 35.2604 66.1174Z" fill="#DB42AD" stroke="#B42A8A"/>
<path d="M35.2604 73.1174L34.5908 71L27.6198 73.9336C23.8095 75.5396 24.1945 78.7223 25.1219 82C28.8385 80.43 36.9981 78.6502 35.2604 73.1174Z" fill="#DB42AD" stroke="#B42A8A"/>
<path d="M35.2604 80.1174L34.5908 78L27.6198 80.9336C23.8095 82.5396 24.1945 85.7223 25.1219 89C28.8385 87.43 36.9981 85.6502 35.2604 80.1174Z" fill="#DB42AD" stroke="#B42A8A"/>
<path d="M35.2604 87.1174L34.5908 85L27.6198 87.9336C23.8095 89.5396 24.1945 92.7223 25.1219 96C28.8385 94.43 36.9981 92.6502 35.2604 87.1174Z" fill="#DB42AD" stroke="#B42A8A"/>
<path d="M35.2604 94.1174L34.5908 92L27.6198 94.9336C23.8095 96.5396 24.1945 99.7223 25.1219 103C28.8385 101.43 36.9981 99.6502 35.2604 94.1174Z" fill="#DB42AD" stroke="#B42A8A"/>
<path d="M35.2604 101.117L34.5908 99L27.6198 101.934C23.8095 103.54 24.1945 106.722 25.1219 110C28.8385 108.43 36.9981 106.65 35.2604 101.117Z" fill="#DB42AD" stroke="#B42A8A"/>
<path d="M35.2604 108.117L34.5908 106L27.6198 108.934C23.8095 110.54 24.1945 113.722 25.1219 117C28.8385 115.43 36.9981 113.65 35.2604 108.117Z" fill="#DB42AD" stroke="#B42A8A"/>
<path d="M35.2604 115.117L34.5908 113L27.6198 115.934C23.8095 117.54 24.1945 120.722 25.1219 124C28.8385 122.43 36.9981 120.65 35.2604 115.117Z" fill="#DB42AD" stroke="#B42A8A"/>
<path d="M35.2604 122.117L34.5908 120L27.6198 122.934C23.8095 124.54 24.1945 127.722 25.1219 131C28.8385 129.43 36.9981 127.65 35.2604 122.117Z" fill="#DB42AD" stroke="#B42A8A"/>
<path d="M35.2604 129.117L34.5908 127L27.6198 129.934C23.8095 131.54 24.1945 134.722 25.1219 138C28.8385 136.43 36.9981 134.65 35.2604 129.117Z" fill="#DB42AD" stroke="#B42A8A"/>
<path d="M35.2604 136.117L34.5908 134L27.6198 136.934C23.8095 138.54 24.1945 141.722 25.1219 145C28.8385 143.43 36.9981 141.65 35.2604 136.117Z" fill="#DB42AD" stroke="#B42A8A"/>
<path d="M35.2604 143.117L34.5908 141L27.6198 143.934C23.8095 145.54 24.1945 148.722 25.1219 152C28.8385 150.43 36.9981 148.65 35.2604 143.117Z" fill="#DB42AD" stroke="#B42A8A"/>
<path d="M35.2604 150.117L34.5908 148L27.6198 150.934C23.8095 152.54 24.1945 155.722 25.1219 159C28.8385 157.43 36.9981 155.65 35.2604 150.117Z" fill="#DB42AD" stroke="#B42A8A"/>
<path d="M35.2604 157.117L34.5908 155L27.6198 157.934C23.8095 159.54 24.1945 162.722 25.1219 166C28.8385 164.43 36.9981 162.65 35.2604 157.117Z" fill="#DB42AD" stroke="#B42A8A"/>
<path d="M35.3182 214.458C34.9386 213.488 34.0952 212.518 32.9987 211.928C31.9023 211.295 30.6371 211 29.4142 211C23.8927 211.095 21.8358 217.405 23.3415 221.922C23.468 222.302 23.5945 222.597 23.6789 222.808C23.7632 223.019 23.8053 223.145 23.8053 223.145C25.197 222.935 26.1669 222.681 26.7573 222.175C30.2803 219.533 29.7178 214.458 35.3182 214.458Z" fill="#DB42AD" stroke="#B42A8A"/>
<path d="M40.0368 218.48C39.9718 217.44 39.4651 216.259 38.6015 215.362C37.7508 214.424 36.6364 213.756 35.4719 213.383C30.4164 211.856 25.4113 216.95 27.2282 221.815C35.2485 224.804 34.8711 216.822 40.0368 218.48Z" fill="#DB42AD" stroke="#B42A8A"/>
<path d="M23.6759 215.048C23.7603 214.88 23.8446 214.711 23.8868 214.542C24.0133 214.289 24.0976 214.121 24.0976 214.121C23.1699 213.952 22.1156 214.078 21.1456 214.5C20.1757 214.88 19.2479 215.554 18.5732 216.356C15.5273 220.163 17.5819 225.291 21.1878 227.995C21.3565 228.122 21.5674 228.248 21.7361 228.375C22.0734 228.585 22.3264 228.754 22.5373 228.838C22.7481 228.923 22.8747 228.965 22.8747 228.965C23.8446 227.953 24.3928 227.194 24.5615 226.308C25.1374 222.469 22.5932 219.379 23.6759 215.048Z" fill="#DB42AD" stroke="#B42A8A"/>
<path d="M34.8528 221.796C34.8528 221.796 34.9792 221.754 35.1901 221.669C35.401 221.585 35.6962 221.501 36.0757 221.458C36.8348 221.29 37.9313 221.29 39.0699 221.501C40.2085 221.712 41.3893 222.175 42.2328 222.597C42.6545 222.808 42.9919 223.019 43.2449 223.188C43.4979 223.356 43.6244 223.441 43.6244 223.441C43.9618 222.555 44.0039 221.543 43.7931 220.531C43.5822 219.519 43.0762 218.464 42.3592 217.621C41.6423 216.735 40.7146 216.061 39.7025 215.639C38.6904 215.217 37.5939 215.091 36.6239 215.259C36.6239 215.259 36.4553 215.301 36.1601 215.344C35.8649 215.428 35.4431 215.512 34.9792 215.723C34.5154 215.892 33.9671 216.145 33.4611 216.482C32.955 216.82 32.4912 217.199 32.0695 217.621C31.2682 218.464 30.8886 219.476 30.7621 220.193C30.7199 220.573 30.7199 220.826 30.7621 221.037C30.8043 221.248 30.8043 221.332 30.8043 221.332C31.8164 222.049 32.196 222.597 32.4912 222.597C32.6177 222.597 32.9129 222.513 33.2502 222.344C33.8406 222.218 34.3467 222.007 34.8528 221.796Z" fill="#DB42AD" stroke="#B42A8A"/>
<path d="M35.4596 206.117L34.79 204L27.819 206.934C24.0087 208.54 24.3937 211.722 25.3212 215C29.0377 213.43 37.1974 211.65 35.4596 206.117Z" fill="#DB42AD" stroke="#B42A8A"/>
<path d="M35.4596 213.117L34.79 211L27.819 213.934C24.0087 215.54 24.3937 218.722 25.3212 222C29.0377 220.43 37.1974 218.65 35.4596 213.117Z" fill="#DB42AD" stroke="#B42A8A"/>
<path d="M35.4596 220.117L34.79 218L27.819 220.934C24.0087 222.54 24.3937 225.722 25.3212 229C29.0377 227.43 37.1974 225.65 35.4596 220.117Z" fill="#DB42AD" stroke="#B42A8A"/>
<path d="M35.4596 227.117L34.79 225L27.819 227.934C24.0087 229.54 24.3937 232.722 25.3212 236C29.0377 234.43 37.1974 232.65 35.4596 227.117Z" fill="#DB42AD" stroke="#B42A8A"/>
<path d="M35.4596 234.117L34.79 232L27.819 234.934C24.0087 236.54 24.3937 239.722 25.3212 243C29.0377 241.43 37.1974 239.65 35.4596 234.117Z" fill="#DB42AD" stroke="#B42A8A"/>
<path d="M35.4596 241.117L34.79 239L27.819 241.934C24.0087 243.54 24.3937 246.722 25.3212 250C29.0377 248.43 37.1974 246.65 35.4596 241.117Z" fill="#DB42AD" stroke="#B42A8A"/>
<path d="M17.3091 222.428C17.2247 222.133 17.1826 222.007 17.1826 222.007C15.58 222.934 14.4836 224.917 14.4414 227.067C14.4414 232.277 20.0414 235.144 24.7734 233.899C25.153 233.815 25.4481 233.73 25.659 233.646C25.8699 233.562 25.9964 233.519 25.9964 233.519C25.7106 228.662 18.7865 227.599 17.3091 222.428Z" fill="#DB42AD" stroke="#B42A8A"/>
<path d="M25.9981 233.478C25.9981 233.478 25.8715 233.52 25.6607 233.604C25.4498 233.688 25.1546 233.773 24.7751 233.857C24.016 234.026 22.9196 234.152 21.7388 234.068C21.1484 234.026 20.6001 233.899 20.0097 233.731C19.4615 233.562 18.9554 233.351 18.4915 233.182C18.0698 232.972 17.6903 232.761 17.4373 232.634C17.1842 232.466 17.0155 232.381 17.0155 232.381C16.889 232.845 16.8469 233.309 16.8047 233.815C16.8047 234.321 16.889 234.827 17.0577 235.375C17.1842 235.881 17.4372 236.387 17.6903 236.851C17.9433 237.315 18.3229 237.737 18.7024 238.159C19.0819 238.538 19.5037 238.876 19.9675 239.171C20.4314 239.466 20.8953 239.677 21.4014 239.846C21.9074 240.014 22.3713 240.099 22.8774 240.141C23.3834 240.183 23.8474 240.099 24.2691 240.014C24.2691 240.014 24.4378 239.972 24.6908 239.888C24.986 239.803 25.3655 239.677 25.8294 239.55C26.715 239.213 27.8536 238.665 28.7814 237.99C29.2453 237.653 29.667 237.273 30.0465 236.936C30.4261 236.556 30.7213 236.219 30.9321 235.881C31.396 235.207 31.6069 234.785 31.6069 234.785C30.6791 233.731 29.9622 233.14 29.1188 232.972C28.2754 232.803 27.3054 232.972 25.9981 233.478Z" fill="#DB42AD" stroke="#B42A8A"/>
<path d="M31.6054 234.827C31.6054 234.827 31.3945 235.249 30.9306 235.924C30.6776 236.219 30.3824 236.598 30.045 236.978C29.6655 237.315 29.2438 237.695 28.7799 238.032C27.8521 238.707 26.7135 239.255 25.8279 239.592C25.364 239.761 24.9845 239.888 24.6893 239.93C24.3941 240.014 24.2676 240.014 24.2676 240.014C24.4784 240.436 24.7736 240.815 25.0688 241.153C25.4062 241.532 25.7857 241.827 26.2075 242.081C26.6292 242.376 27.093 242.587 27.5991 242.755C28.1051 242.924 28.6112 243.008 29.1595 243.093C30.2137 243.177 31.3524 243.008 32.3223 242.629C33.2923 242.207 34.1357 241.617 34.6839 240.815C34.6839 240.815 34.7682 240.689 34.9369 240.436C35.1056 240.225 35.3165 239.803 35.5273 239.382C35.9912 238.538 36.4129 237.315 36.5816 236.177C36.7503 235.038 36.7081 233.941 36.5395 233.14C36.4551 232.761 36.3708 232.423 36.3286 232.212C36.2443 232.002 36.2021 231.875 36.2021 231.875C34.8104 231.875 33.8405 231.959 33.2079 232.381C33.0392 232.465 32.9127 232.592 32.744 232.761C32.6175 232.887 32.491 233.056 32.3645 233.267C32.238 233.435 32.1114 233.688 31.9849 233.941C31.9006 234.237 31.7741 234.49 31.6054 234.827Z" fill="#DB42AD" stroke="#B42A8A"/>
<path d="M36.2838 231.959C36.2838 231.959 36.326 232.086 36.4103 232.297C36.4525 232.507 36.5368 232.803 36.6212 233.224C36.7477 233.983 36.832 235.08 36.6633 236.261C36.4947 237.399 36.0729 238.622 35.6091 239.466C35.3982 239.887 35.1452 240.267 35.0187 240.52C34.85 240.773 34.7656 240.9 34.7656 240.9C34.9765 240.984 35.2295 241.068 35.4826 241.11C35.7356 241.153 35.9886 241.153 36.2416 241.195C36.4947 241.195 36.7477 241.195 37.0429 241.195C37.2959 241.153 37.549 241.11 37.802 241.068C38.8141 240.815 39.8262 240.309 40.6696 239.592C41.5131 238.875 42.1456 237.948 42.5252 237.02C42.9047 236.05 43.0313 235.038 42.8626 234.11C42.8626 234.11 42.8204 233.941 42.7782 233.646C42.736 233.351 42.6095 232.971 42.483 232.507C42.1878 231.58 41.6818 230.441 41.007 229.471C40.3323 228.501 39.4889 227.784 38.8563 227.32C38.5189 227.11 38.2659 226.941 38.055 226.814C37.8442 226.688 37.7598 226.646 37.7598 226.646C36.7477 227.616 36.1573 228.333 35.9886 229.049C35.6512 229.682 35.8621 230.61 36.2838 231.959Z" fill="#DB42AD" stroke="#B42A8A"/>
<path d="M42.6529 233.562C42.6951 233.857 42.7372 234.026 42.7372 234.026C43.5807 233.646 44.3398 232.929 44.9302 232.044C45.5206 231.158 45.8579 230.062 45.9423 228.965C46.0266 227.869 45.8579 226.73 45.4362 225.802C43.6822 221.768 41.1934 220.359 35.9278 221.392C34.8612 223.353 34.809 224.115 35.1885 224.79C37.4776 228.351 41.749 228.138 42.6529 233.562Z" fill="#DB42AD" stroke="#B42A8A"/>
<path d="M35.3182 193.458C34.9386 192.488 34.0952 191.518 32.9987 190.928C31.9023 190.295 30.6371 190 29.4142 190C23.8927 190.095 21.8358 196.405 23.3415 200.922C23.468 201.302 23.5945 201.597 23.6789 201.808C23.7632 202.019 23.8053 202.145 23.8053 202.145C25.197 201.935 26.1669 201.681 26.7573 201.175C30.2803 198.533 29.7178 193.458 35.3182 193.458Z" fill="#DB42AD" stroke="#B42A8A"/>
<path d="M40.0368 197.48C39.9718 196.44 39.4651 195.259 38.6015 194.362C37.7508 193.424 36.6364 192.756 35.4719 192.383C30.4164 190.856 25.4113 195.95 27.2282 200.815C35.2485 203.804 34.8711 195.822 40.0368 197.48Z" fill="#DB42AD" stroke="#B42A8A"/>
<path d="M23.6759 194.048C23.7603 193.88 23.8446 193.711 23.8868 193.542C24.0133 193.289 24.0976 193.121 24.0976 193.121C23.1699 192.952 22.1156 193.078 21.1456 193.5C20.1757 193.88 19.2479 194.554 18.5732 195.356C15.5273 199.163 17.5819 204.291 21.1878 206.995C21.3565 207.122 21.5674 207.248 21.7361 207.375C22.0734 207.585 22.3264 207.754 22.5373 207.838C22.7481 207.923 22.8747 207.965 22.8747 207.965C23.8446 206.953 24.3928 206.194 24.5615 205.308C25.1374 201.469 22.5932 198.379 23.6759 194.048Z" fill="#DB42AD" stroke="#B42A8A"/>
<path d="M34.8528 200.796C34.8528 200.796 34.9792 200.754 35.1901 200.669C35.401 200.585 35.6962 200.501 36.0757 200.458C36.8348 200.29 37.9313 200.29 39.0699 200.501C40.2085 200.712 41.3893 201.175 42.2328 201.597C42.6545 201.808 42.9919 202.019 43.2449 202.188C43.4979 202.356 43.6244 202.441 43.6244 202.441C43.9618 201.555 44.0039 200.543 43.7931 199.531C43.5822 198.519 43.0762 197.464 42.3592 196.621C41.6423 195.735 40.7146 195.061 39.7025 194.639C38.6904 194.217 37.5939 194.091 36.6239 194.259C36.6239 194.259 36.4553 194.301 36.1601 194.344C35.8649 194.428 35.4431 194.512 34.9792 194.723C34.5154 194.892 33.9671 195.145 33.4611 195.482C32.955 195.82 32.4912 196.199 32.0695 196.621C31.2682 197.464 30.8886 198.476 30.7621 199.193C30.7199 199.573 30.7199 199.826 30.7621 200.037C30.8043 200.248 30.8043 200.332 30.8043 200.332C31.8164 201.049 32.196 201.597 32.4912 201.597C32.6177 201.597 32.9129 201.513 33.2502 201.344C33.8406 201.218 34.3467 201.007 34.8528 200.796Z" fill="#DB42AD" stroke="#B42A8A"/>
<path d="M35.4596 185.117L34.79 183L27.819 185.934C24.0087 187.54 24.3937 190.722 25.3212 194C29.0377 192.43 37.1974 190.65 35.4596 185.117Z" fill="#DB42AD" stroke="#B42A8A"/>
<path d="M35.4596 192.117L34.79 190L27.819 192.934C24.0087 194.54 24.3937 197.722 25.3212 201C29.0377 199.43 37.1974 197.65 35.4596 192.117Z" fill="#DB42AD" stroke="#B42A8A"/>
<path d="M35.4596 199.117L34.79 197L27.819 199.934C24.0087 201.54 24.3937 204.722 25.3212 208C29.0377 206.43 37.1974 204.65 35.4596 199.117Z" fill="#DB42AD" stroke="#B42A8A"/>
<path d="M35.4596 206.117L34.79 204L27.819 206.934C24.0087 208.54 24.3937 211.722 25.3212 215C29.0377 213.43 37.1974 211.65 35.4596 206.117Z" fill="#DB42AD" stroke="#B42A8A"/>
<path d="M35.4596 213.117L34.79 211L27.819 213.934C24.0087 215.54 24.3937 218.722 25.3212 222C29.0377 220.43 37.1974 218.65 35.4596 213.117Z" fill="#DB42AD" stroke="#B42A8A"/>
<path d="M35.4596 220.117L34.79 218L27.819 220.934C24.0087 222.54 24.3937 225.722 25.3212 229C29.0377 227.43 37.1974 225.65 35.4596 220.117Z" fill="#DB42AD" stroke="#B42A8A"/>
<path d="M17.3091 201.428C17.2247 201.133 17.1826 201.007 17.1826 201.007C15.58 201.934 14.4836 203.917 14.4414 206.067C14.4414 211.277 20.0414 214.144 24.7734 212.899C25.153 212.815 25.4481 212.73 25.659 212.646C25.8699 212.562 25.9964 212.519 25.9964 212.519C25.7106 207.662 18.7865 206.599 17.3091 201.428Z" fill="#DB42AD" stroke="#B42A8A"/>
<path d="M25.9981 212.478C25.9981 212.478 25.8715 212.52 25.6607 212.604C25.4498 212.688 25.1546 212.773 24.7751 212.857C24.016 213.026 22.9196 213.152 21.7388 213.068C21.1484 213.026 20.6001 212.899 20.0097 212.731C19.4615 212.562 18.9554 212.351 18.4915 212.182C18.0698 211.972 17.6903 211.761 17.4373 211.634C17.1842 211.466 17.0155 211.381 17.0155 211.381C16.889 211.845 16.8469 212.309 16.8047 212.815C16.8047 213.321 16.889 213.827 17.0577 214.375C17.1842 214.881 17.4372 215.387 17.6903 215.851C17.9433 216.315 18.3229 216.737 18.7024 217.159C19.0819 217.538 19.5037 217.876 19.9675 218.171C20.4314 218.466 20.8953 218.677 21.4014 218.846C21.9074 219.014 22.3713 219.099 22.8774 219.141C23.3834 219.183 23.8474 219.099 24.2691 219.014C24.2691 219.014 24.4378 218.972 24.6908 218.888C24.986 218.803 25.3655 218.677 25.8294 218.55C26.715 218.213 27.8536 217.665 28.7814 216.99C29.2453 216.653 29.667 216.273 30.0465 215.936C30.4261 215.556 30.7213 215.219 30.9321 214.881C31.396 214.207 31.6069 213.785 31.6069 213.785C30.6791 212.731 29.9622 212.14 29.1188 211.972C28.2754 211.803 27.3054 211.972 25.9981 212.478Z" fill="#DB42AD" stroke="#B42A8A"/>
<path d="M31.6054 213.827C31.6054 213.827 31.3945 214.249 30.9306 214.924C30.6776 215.219 30.3824 215.598 30.045 215.978C29.6655 216.315 29.2438 216.695 28.7799 217.032C27.8521 217.707 26.7135 218.255 25.8279 218.592C25.364 218.761 24.9845 218.888 24.6893 218.93C24.3941 219.014 24.2676 219.014 24.2676 219.014C24.4784 219.436 24.7736 219.815 25.0688 220.153C25.4062 220.532 25.7857 220.827 26.2075 221.081C26.6292 221.376 27.093 221.587 27.5991 221.755C28.1051 221.924 28.6112 222.008 29.1595 222.093C30.2137 222.177 31.3524 222.008 32.3223 221.629C33.2923 221.207 34.1357 220.617 34.6839 219.815C34.6839 219.815 34.7682 219.689 34.9369 219.436C35.1056 219.225 35.3165 218.803 35.5273 218.382C35.9912 217.538 36.4129 216.315 36.5816 215.177C36.7503 214.038 36.7081 212.941 36.5395 212.14C36.4551 211.761 36.3708 211.423 36.3286 211.212C36.2443 211.002 36.2021 210.875 36.2021 210.875C34.8104 210.875 33.8405 210.959 33.2079 211.381C33.0392 211.465 32.9127 211.592 32.744 211.761C32.6175 211.887 32.491 212.056 32.3645 212.267C32.238 212.435 32.1114 212.688 31.9849 212.941C31.9006 213.237 31.7741 213.49 31.6054 213.827Z" fill="#DB42AD" stroke="#B42A8A"/>
<path d="M36.2838 210.959C36.2838 210.959 36.326 211.086 36.4103 211.297C36.4525 211.507 36.5368 211.803 36.6212 212.224C36.7477 212.983 36.832 214.08 36.6633 215.261C36.4947 216.399 36.0729 217.622 35.6091 218.466C35.3982 218.887 35.1452 219.267 35.0187 219.52C34.85 219.773 34.7656 219.9 34.7656 219.9C34.9765 219.984 35.2295 220.068 35.4826 220.11C35.7356 220.153 35.9886 220.153 36.2416 220.195C36.4947 220.195 36.7477 220.195 37.0429 220.195C37.2959 220.153 37.549 220.11 37.802 220.068C38.8141 219.815 39.8262 219.309 40.6696 218.592C41.5131 217.875 42.1456 216.948 42.5252 216.02C42.9047 215.05 43.0313 214.038 42.8626 213.11C42.8626 213.11 42.8204 212.941 42.7782 212.646C42.736 212.351 42.6095 211.971 42.483 211.507C42.1878 210.58 41.6818 209.441 41.007 208.471C40.3323 207.501 39.4889 206.784 38.8563 206.32C38.5189 206.11 38.2659 205.941 38.055 205.814C37.8442 205.688 37.7598 205.646 37.7598 205.646C36.7477 206.616 36.1573 207.333 35.9886 208.049C35.6512 208.682 35.8621 209.61 36.2838 210.959Z" fill="#DB42AD" stroke="#B42A8A"/>
<path d="M42.6529 212.562C42.6951 212.857 42.7372 213.026 42.7372 213.026C43.5807 212.646 44.3398 211.929 44.9302 211.044C45.5206 210.158 45.8579 209.062 45.9423 207.965C46.0266 206.869 45.8579 205.73 45.4362 204.802C43.6822 200.768 41.1934 199.359 35.9278 200.392C34.8612 202.353 34.809 203.115 35.1885 203.79C37.4776 207.351 41.749 207.138 42.6529 212.562Z" fill="#DB42AD" stroke="#B42A8A"/>
<path d="M35.3182 172.458C34.9386 171.488 34.0952 170.518 32.9987 169.928C31.9023 169.295 30.6371 169 29.4142 169C23.8927 169.095 21.8358 175.405 23.3415 179.922C23.468 180.302 23.5945 180.597 23.6789 180.808C23.7632 181.019 23.8053 181.145 23.8053 181.145C25.197 180.935 26.1669 180.681 26.7573 180.175C30.2803 177.533 29.7178 172.458 35.3182 172.458Z" fill="#DB42AD" stroke="#B42A8A"/>
<path d="M40.0368 176.48C39.9718 175.44 39.4651 174.259 38.6015 173.362C37.7508 172.424 36.6364 171.756 35.4719 171.383C30.4164 169.856 25.4113 174.95 27.2282 179.815C35.2485 182.804 34.8711 174.822 40.0368 176.48Z" fill="#DB42AD" stroke="#B42A8A"/>
<path d="M23.6759 173.048C23.7603 172.88 23.8446 172.711 23.8868 172.542C24.0133 172.289 24.0976 172.121 24.0976 172.121C23.1699 171.952 22.1156 172.078 21.1456 172.5C20.1757 172.88 19.2479 173.554 18.5732 174.356C15.5273 178.163 17.5819 183.291 21.1878 185.995C21.3565 186.122 21.5674 186.248 21.7361 186.375C22.0734 186.585 22.3264 186.754 22.5373 186.838C22.7481 186.923 22.8747 186.965 22.8747 186.965C23.8446 185.953 24.3928 185.194 24.5615 184.308C25.1374 180.469 22.5932 177.379 23.6759 173.048Z" fill="#DB42AD" stroke="#B42A8A"/>
<path d="M34.8528 179.796C34.8528 179.796 34.9792 179.754 35.1901 179.669C35.401 179.585 35.6962 179.501 36.0757 179.458C36.8348 179.29 37.9313 179.29 39.0699 179.501C40.2085 179.712 41.3893 180.175 42.2328 180.597C42.6545 180.808 42.9919 181.019 43.2449 181.188C43.4979 181.356 43.6244 181.441 43.6244 181.441C43.9618 180.555 44.0039 179.543 43.7931 178.531C43.5822 177.519 43.0762 176.464 42.3592 175.621C41.6423 174.735 40.7146 174.061 39.7025 173.639C38.6904 173.217 37.5939 173.091 36.6239 173.259C36.6239 173.259 36.4553 173.301 36.1601 173.344C35.8649 173.428 35.4431 173.512 34.9792 173.723C34.5154 173.892 33.9671 174.145 33.4611 174.482C32.955 174.82 32.4912 175.199 32.0695 175.621C31.2682 176.464 30.8886 177.476 30.7621 178.193C30.7199 178.573 30.7199 178.826 30.7621 179.037C30.8043 179.248 30.8043 179.332 30.8043 179.332C31.8164 180.049 32.196 180.597 32.4912 180.597C32.6177 180.597 32.9129 180.513 33.2502 180.344C33.8406 180.218 34.3467 180.007 34.8528 179.796Z" fill="#DB42AD" stroke="#B42A8A"/>
<path d="M35.4596 164.117L34.79 162L27.819 164.934C24.0087 166.54 24.3937 169.722 25.3212 173C29.0377 171.43 37.1974 169.65 35.4596 164.117Z" fill="#DB42AD" stroke="#B42A8A"/>
<path d="M35.4596 171.117L34.79 169L27.819 171.934C24.0087 173.54 24.3937 176.722 25.3212 180C29.0377 178.43 37.1974 176.65 35.4596 171.117Z" fill="#DB42AD" stroke="#B42A8A"/>
<path d="M35.4596 178.117L34.79 176L27.819 178.934C24.0087 180.54 24.3937 183.722 25.3212 187C29.0377 185.43 37.1974 183.65 35.4596 178.117Z" fill="#DB42AD" stroke="#B42A8A"/>
<path d="M35.4596 185.117L34.79 183L27.819 185.934C24.0087 187.54 24.3937 190.722 25.3212 194C29.0377 192.43 37.1974 190.65 35.4596 185.117Z" fill="#DB42AD" stroke="#B42A8A"/>
<path d="M35.4596 192.117L34.79 190L27.819 192.934C24.0087 194.54 24.3937 197.722 25.3212 201C29.0377 199.43 37.1974 197.65 35.4596 192.117Z" fill="#DB42AD" stroke="#B42A8A"/>
<path d="M35.4596 199.117L34.79 197L27.819 199.934C24.0087 201.54 24.3937 204.722 25.3212 208C29.0377 206.43 37.1974 204.65 35.4596 199.117Z" fill="#DB42AD" stroke="#B42A8A"/>
<path d="M17.3091 180.428C17.2247 180.133 17.1826 180.007 17.1826 180.007C15.58 180.934 14.4836 182.917 14.4414 185.067C14.4414 190.277 20.0414 193.144 24.7734 191.899C25.153 191.815 25.4481 191.73 25.659 191.646C25.8699 191.562 25.9964 191.519 25.9964 191.519C25.7106 186.662 18.7865 185.599 17.3091 180.428Z" fill="#DB42AD" stroke="#B42A8A"/>
<path d="M25.9981 191.478C25.9981 191.478 25.8715 191.52 25.6607 191.604C25.4498 191.688 25.1546 191.773 24.7751 191.857C24.016 192.026 22.9196 192.152 21.7388 192.068C21.1484 192.026 20.6001 191.899 20.0097 191.731C19.4615 191.562 18.9554 191.351 18.4915 191.182C18.0698 190.972 17.6903 190.761 17.4373 190.634C17.1842 190.466 17.0155 190.381 17.0155 190.381C16.889 190.845 16.8469 191.309 16.8047 191.815C16.8047 192.321 16.889 192.827 17.0577 193.375C17.1842 193.881 17.4372 194.387 17.6903 194.851C17.9433 195.315 18.3229 195.737 18.7024 196.159C19.0819 196.538 19.5037 196.876 19.9675 197.171C20.4314 197.466 20.8953 197.677 21.4014 197.846C21.9074 198.014 22.3713 198.099 22.8774 198.141C23.3834 198.183 23.8474 198.099 24.2691 198.014C24.2691 198.014 24.4378 197.972 24.6908 197.888C24.986 197.803 25.3655 197.677 25.8294 197.55C26.715 197.213 27.8536 196.665 28.7814 195.99C29.2453 195.653 29.667 195.273 30.0465 194.936C30.4261 194.556 30.7213 194.219 30.9321 193.881C31.396 193.207 31.6069 192.785 31.6069 192.785C30.6791 191.731 29.9622 191.14 29.1188 190.972C28.2754 190.803 27.3054 190.972 25.9981 191.478Z" fill="#DB42AD" stroke="#B42A8A"/>
<path d="M31.6054 192.827C31.6054 192.827 31.3945 193.249 30.9306 193.924C30.6776 194.219 30.3824 194.598 30.045 194.978C29.6655 195.315 29.2438 195.695 28.7799 196.032C27.8521 196.707 26.7135 197.255 25.8279 197.592C25.364 197.761 24.9845 197.888 24.6893 197.93C24.3941 198.014 24.2676 198.014 24.2676 198.014C24.4784 198.436 24.7736 198.815 25.0688 199.153C25.4062 199.532 25.7857 199.827 26.2075 200.081C26.6292 200.376 27.093 200.587 27.5991 200.755C28.1051 200.924 28.6112 201.008 29.1595 201.093C30.2137 201.177 31.3524 201.008 32.3223 200.629C33.2923 200.207 34.1357 199.617 34.6839 198.815C34.6839 198.815 34.7682 198.689 34.9369 198.436C35.1056 198.225 35.3165 197.803 35.5273 197.382C35.9912 196.538 36.4129 195.315 36.5816 194.177C36.7503 193.038 36.7081 191.941 36.5395 191.14C36.4551 190.761 36.3708 190.423 36.3286 190.212C36.2443 190.002 36.2021 189.875 36.2021 189.875C34.8104 189.875 33.8405 189.959 33.2079 190.381C33.0392 190.465 32.9127 190.592 32.744 190.761C32.6175 190.887 32.491 191.056 32.3645 191.267C32.238 191.435 32.1114 191.688 31.9849 191.941C31.9006 192.237 31.7741 192.49 31.6054 192.827Z" fill="#DB42AD" stroke="#B42A8A"/>
<path d="M36.2838 189.959C36.2838 189.959 36.326 190.086 36.4103 190.297C36.4525 190.507 36.5368 190.803 36.6212 191.224C36.7477 191.983 36.832 193.08 36.6633 194.261C36.4947 195.399 36.0729 196.622 35.6091 197.466C35.3982 197.887 35.1452 198.267 35.0187 198.52C34.85 198.773 34.7656 198.9 34.7656 198.9C34.9765 198.984 35.2295 199.068 35.4826 199.11C35.7356 199.153 35.9886 199.153 36.2416 199.195C36.4947 199.195 36.7477 199.195 37.0429 199.195C37.2959 199.153 37.549 199.11 37.802 199.068C38.8141 198.815 39.8262 198.309 40.6696 197.592C41.5131 196.875 42.1456 195.948 42.5252 195.02C42.9047 194.05 43.0313 193.038 42.8626 192.11C42.8626 192.11 42.8204 191.941 42.7782 191.646C42.736 191.351 42.6095 190.971 42.483 190.507C42.1878 189.58 41.6818 188.441 41.007 187.471C40.3323 186.501 39.4889 185.784 38.8563 185.32C38.5189 185.11 38.2659 184.941 38.055 184.814C37.8442 184.688 37.7598 184.646 37.7598 184.646C36.7477 185.616 36.1573 186.333 35.9886 187.049C35.6512 187.682 35.8621 188.61 36.2838 189.959Z" fill="#DB42AD" stroke="#B42A8A"/>
<path d="M42.6529 191.562C42.6951 191.857 42.7372 192.026 42.7372 192.026C43.5807 191.646 44.3398 190.929 44.9302 190.044C45.5206 189.158 45.8579 188.062 45.9423 186.965C46.0266 185.869 45.8579 184.73 45.4362 183.802C43.6822 179.768 41.1934 178.359 35.9278 179.392C34.8612 181.353 34.809 182.115 35.1885 182.79C37.4776 186.351 41.749 186.138 42.6529 191.562Z" fill="#DB42AD" stroke="#B42A8A"/>
<path d="M35.2604 248.117L34.5908 246L27.6198 248.934C23.8095 250.54 24.1945 253.722 25.1219 257C28.8385 255.43 36.9981 253.65 35.2604 248.117Z" fill="#DB42AD" stroke="#B42A8A"/>
<path d="M35.2604 255.117L34.5908 253L27.6198 255.934C23.8095 257.54 24.1945 260.722 25.1219 264C28.8385 262.43 36.9981 260.65 35.2604 255.117Z" fill="#DB42AD" stroke="#B42A8A"/>
<path d="M35.2604 262.117L34.5908 260L27.6198 262.934C23.8095 264.54 24.1945 267.722 25.1219 271C28.8385 269.43 36.9981 267.65 35.2604 262.117Z" fill="#DB42AD" stroke="#B42A8A"/>
<path d="M35.2604 269.117L34.5908 267L27.6198 269.934C23.8095 271.54 24.1945 274.722 25.1219 278C28.8385 276.43 36.9981 274.65 35.2604 269.117Z" fill="#DB42AD" stroke="#B42A8A"/>
<path d="M35.2604 276.117L34.5908 274L27.6198 276.934C23.8095 278.54 24.1945 281.722 25.1219 285C28.8385 283.43 36.9981 281.65 35.2604 276.117Z" fill="#DB42AD" stroke="#B42A8A"/>
<path d="M35.2604 283.117L34.5908 281L27.6198 283.934C23.8095 285.54 24.1945 288.722 25.1219 292C28.8385 290.43 36.9981 288.65 35.2604 283.117Z" fill="#DB42AD" stroke="#B42A8A"/>
<path d="M35.2604 290.117L34.5908 288L27.6198 290.934C23.8095 292.54 24.1945 295.722 25.1219 299C28.8385 297.43 36.9981 295.65 35.2604 290.117Z" fill="#DB42AD" stroke="#B42A8A"/>
<path d="M35.2604 297.117L34.5908 295L27.6198 297.934C23.8095 299.54 24.1945 302.722 25.1219 306C28.8385 304.43 36.9981 302.65 35.2604 297.117Z" fill="#DB42AD" stroke="#B42A8A"/>
<path d="M35.2604 304.117L34.5908 302L27.6198 304.934C23.8095 306.54 24.1945 309.722 25.1219 313C28.8385 311.43 36.9981 309.65 35.2604 304.117Z" fill="#DB42AD" stroke="#B42A8A"/>
<path d="M35.2604 311.117L34.5908 309L27.6198 311.934C23.8095 313.54 24.1945 316.722 25.1219 320C28.8385 318.43 36.9981 316.65 35.2604 311.117Z" fill="#DB42AD" stroke="#B42A8A"/>
<path d="M35.2604 318.117L34.5908 316L27.6198 318.934C23.8095 320.54 24.1945 323.722 25.1219 327C28.8385 325.43 36.9981 323.65 35.2604 318.117Z" fill="#DB42AD" stroke="#B42A8A"/>
<path d="M35.2604 325.117L34.5908 323L27.6198 325.934C23.8095 327.54 24.1945 330.722 25.1219 334C28.8385 332.43 36.9981 330.65 35.2604 325.117Z" fill="#DB42AD" stroke="#B42A8A"/>
<path d="M35.2604 332.117L34.5908 330L27.6198 332.934C23.8095 334.54 24.1945 337.722 25.1219 341C28.8385 339.43 36.9981 337.65 35.2604 332.117Z" fill="#DB42AD" stroke="#B42A8A"/>
<path d="M35.2604 339.117L34.5908 337L27.6198 339.934C23.8095 341.54 24.1945 344.722 25.1219 348C28.8385 346.43 36.9981 344.65 35.2604 339.117Z" fill="#DB42AD" stroke="#B42A8A"/>
<path d="M35.3182 354.458C34.9386 353.488 34.0952 352.518 32.9987 351.928C31.9023 351.295 30.6371 351 29.4142 351C23.8927 351.095 21.8358 357.405 23.3415 361.922C23.468 362.302 23.5945 362.597 23.6789 362.808C23.7632 363.019 23.8053 363.145 23.8053 363.145C25.197 362.935 26.1669 362.682 26.7573 362.175C30.2803 359.533 29.7178 354.458 35.3182 354.458Z" fill="#DB42AD" stroke="#B42A8A"/>
<path d="M40.0368 358.48C39.9718 357.44 39.4651 356.259 38.6015 355.362C37.7508 354.424 36.6364 353.757 35.4719 353.383C30.4164 351.856 25.4113 356.95 27.2282 361.815C35.2485 364.804 34.8711 356.822 40.0368 358.48Z" fill="#DB42AD" stroke="#B42A8A"/>
<path d="M23.6759 355.048C23.7603 354.88 23.8446 354.711 23.8868 354.542C24.0133 354.289 24.0976 354.121 24.0976 354.121C23.1699 353.952 22.1156 354.078 21.1456 354.5C20.1757 354.88 19.2479 355.554 18.5732 356.356C15.5273 360.163 17.5819 365.291 21.1878 367.995C21.3565 368.122 21.5674 368.248 21.7361 368.375C22.0734 368.585 22.3264 368.754 22.5373 368.838C22.7481 368.923 22.8747 368.965 22.8747 368.965C23.8446 367.953 24.3928 367.194 24.5615 366.308C25.1374 362.469 22.5932 359.379 23.6759 355.048Z" fill="#DB42AD" stroke="#B42A8A"/>
<path d="M34.8528 361.796C34.8528 361.796 34.9792 361.754 35.1901 361.669C35.401 361.585 35.6962 361.501 36.0757 361.459C36.8348 361.29 37.9313 361.29 39.0699 361.501C40.2085 361.712 41.3893 362.175 42.2328 362.597C42.6545 362.808 42.9919 363.019 43.2449 363.188C43.4979 363.356 43.6244 363.441 43.6244 363.441C43.9618 362.555 44.0039 361.543 43.7931 360.531C43.5822 359.519 43.0762 358.464 42.3592 357.621C41.6423 356.735 40.7146 356.061 39.7025 355.639C38.6904 355.217 37.5939 355.091 36.6239 355.259C36.6239 355.259 36.4553 355.301 36.1601 355.344C35.8649 355.428 35.4431 355.512 34.9792 355.723C34.5154 355.892 33.9671 356.145 33.4611 356.482C32.955 356.82 32.4912 357.199 32.0695 357.621C31.2682 358.464 30.8886 359.476 30.7621 360.193C30.7199 360.573 30.7199 360.826 30.7621 361.037C30.8043 361.248 30.8043 361.332 30.8043 361.332C31.8164 362.049 32.196 362.597 32.4912 362.597C32.6177 362.597 32.9129 362.513 33.2502 362.344C33.8406 362.218 34.3467 362.007 34.8528 361.796Z" fill="#DB42AD" stroke="#B42A8A"/>
<path d="M35.4596 346.117L34.79 344L27.819 346.934C24.0087 348.54 24.3937 351.722 25.3212 355C29.0377 353.43 37.1974 351.65 35.4596 346.117Z" fill="#DB42AD" stroke="#B42A8A"/>
<path d="M35.4596 353.117L34.79 351L27.819 353.934C24.0087 355.54 24.3937 358.722 25.3212 362C29.0377 360.43 37.1974 358.65 35.4596 353.117Z" fill="#DB42AD" stroke="#B42A8A"/>
<path d="M35.4596 360.117L34.79 358L27.819 360.934C24.0087 362.54 24.3937 365.722 25.3212 369C29.0377 367.43 37.1974 365.65 35.4596 360.117Z" fill="#DB42AD" stroke="#B42A8A"/>
<path d="M35.4596 367.117L34.79 365L27.819 367.934C24.0087 369.54 24.3937 372.722 25.3212 376C29.0377 374.43 37.1974 372.65 35.4596 367.117Z" fill="#DB42AD" stroke="#B42A8A"/>
<path d="M35.4596 374.117L34.79 372L27.819 374.934C24.0087 376.54 24.3937 379.722 25.3212 383C29.0377 381.43 37.1974 379.65 35.4596 374.117Z" fill="#DB42AD" stroke="#B42A8A"/>
<path d="M35.4596 381.117L34.79 379L27.819 381.934C24.0087 383.54 24.3937 386.722 25.3212 390C29.0377 388.43 37.1974 386.65 35.4596 381.117Z" fill="#DB42AD" stroke="#B42A8A"/>
<path d="M17.3091 362.428C17.2247 362.133 17.1826 362.007 17.1826 362.007C15.58 362.934 14.4836 364.917 14.4414 367.067C14.4414 372.277 20.0414 375.144 24.7734 373.899C25.153 373.815 25.4481 373.73 25.659 373.646C25.8699 373.562 25.9964 373.52 25.9964 373.52C25.7106 368.662 18.7865 367.599 17.3091 362.428Z" fill="#DB42AD" stroke="#B42A8A"/>
<path d="M25.9981 373.478C25.9981 373.478 25.8715 373.52 25.6607 373.604C25.4498 373.689 25.1546 373.773 24.7751 373.857C24.016 374.026 22.9196 374.152 21.7388 374.068C21.1484 374.026 20.6001 373.899 20.0097 373.731C19.4615 373.562 18.9554 373.351 18.4915 373.182C18.0698 372.972 17.6903 372.761 17.4373 372.634C17.1842 372.466 17.0155 372.381 17.0155 372.381C16.889 372.845 16.8469 373.309 16.8047 373.815C16.8047 374.321 16.889 374.827 17.0577 375.375C17.1842 375.881 17.4372 376.387 17.6903 376.851C17.9433 377.315 18.3229 377.737 18.7024 378.159C19.0819 378.538 19.5037 378.876 19.9675 379.171C20.4314 379.466 20.8953 379.677 21.4014 379.846C21.9074 380.014 22.3713 380.099 22.8774 380.141C23.3834 380.183 23.8474 380.099 24.2691 380.014C24.2691 380.014 24.4378 379.972 24.6908 379.888C24.986 379.803 25.3655 379.677 25.8294 379.55C26.715 379.213 27.8536 378.665 28.7814 377.99C29.2453 377.653 29.667 377.273 30.0465 376.936C30.4261 376.556 30.7213 376.219 30.9321 375.881C31.396 375.207 31.6069 374.785 31.6069 374.785C30.6791 373.731 29.9622 373.14 29.1188 372.972C28.2754 372.803 27.3054 372.972 25.9981 373.478Z" fill="#DB42AD" stroke="#B42A8A"/>
<path d="M31.6054 374.827C31.6054 374.827 31.3945 375.249 30.9306 375.924C30.6776 376.219 30.3824 376.598 30.045 376.978C29.6655 377.315 29.2438 377.695 28.7799 378.032C27.8521 378.707 26.7135 379.255 25.8279 379.592C25.364 379.761 24.9845 379.888 24.6893 379.93C24.3941 380.014 24.2676 380.014 24.2676 380.014C24.4784 380.436 24.7736 380.815 25.0688 381.153C25.4062 381.532 25.7857 381.828 26.2075 382.081C26.6292 382.376 27.093 382.587 27.5991 382.755C28.1051 382.924 28.6112 383.008 29.1595 383.093C30.2137 383.177 31.3524 383.008 32.3223 382.629C33.2923 382.207 34.1357 381.617 34.6839 380.815C34.6839 380.815 34.7682 380.689 34.9369 380.436C35.1056 380.225 35.3165 379.803 35.5273 379.382C35.9912 378.538 36.4129 377.315 36.5816 376.177C36.7503 375.038 36.7081 373.941 36.5395 373.14C36.4551 372.761 36.3708 372.423 36.3286 372.212C36.2443 372.002 36.2021 371.875 36.2021 371.875C34.8104 371.875 33.8405 371.959 33.2079 372.381C33.0392 372.465 32.9127 372.592 32.744 372.761C32.6175 372.887 32.491 373.056 32.3645 373.267C32.238 373.435 32.1114 373.688 31.9849 373.941C31.9006 374.237 31.7741 374.49 31.6054 374.827Z" fill="#DB42AD" stroke="#B42A8A"/>
<path d="M36.2838 371.959C36.2838 371.959 36.326 372.086 36.4103 372.297C36.4525 372.508 36.5368 372.803 36.6212 373.224C36.7477 373.984 36.832 375.08 36.6633 376.261C36.4947 377.399 36.0729 378.622 35.6091 379.466C35.3982 379.888 35.1452 380.267 35.0187 380.52C34.85 380.773 34.7656 380.9 34.7656 380.9C34.9765 380.984 35.2295 381.068 35.4826 381.11C35.7356 381.153 35.9886 381.153 36.2416 381.195C36.4947 381.195 36.7477 381.195 37.0429 381.195C37.2959 381.153 37.549 381.111 37.802 381.068C38.8141 380.815 39.8262 380.309 40.6696 379.592C41.5131 378.875 42.1456 377.948 42.5252 377.02C42.9047 376.05 43.0313 375.038 42.8626 374.11C42.8626 374.11 42.8204 373.941 42.7782 373.646C42.736 373.351 42.6095 372.971 42.483 372.508C42.1878 371.58 41.6818 370.441 41.007 369.471C40.3323 368.501 39.4889 367.784 38.8563 367.32C38.5189 367.11 38.2659 366.941 38.055 366.814C37.8442 366.688 37.7598 366.646 37.7598 366.646C36.7477 367.616 36.1573 368.333 35.9886 369.049C35.6512 369.682 35.8621 370.61 36.2838 371.959Z" fill="#DB42AD" stroke="#B42A8A"/>
<path d="M42.6529 373.562C42.6951 373.857 42.7372 374.026 42.7372 374.026C43.5807 373.646 44.3398 372.929 44.9302 372.044C45.5206 371.158 45.8579 370.062 45.9423 368.965C46.0266 367.869 45.8579 366.73 45.4362 365.802C43.6822 361.768 41.1934 360.359 35.9278 361.392C34.8612 363.353 34.809 364.115 35.1885 364.79C37.4776 368.351 41.749 368.138 42.6529 373.562Z" fill="#DB42AD" stroke="#B42A8A"/>
<path d="M35.2604 388.117L34.5908 386L27.6198 388.934C23.8095 390.54 24.1945 393.722 25.1219 397C28.8385 395.43 36.9981 393.65 35.2604 388.117Z" fill="#DB42AD" stroke="#B42A8A"/>
<path d="M35.2604 395.117L34.5908 393L27.6198 395.934C23.8095 397.54 24.1945 400.722 25.1219 404C28.8385 402.43 36.9981 400.65 35.2604 395.117Z" fill="#DB42AD" stroke="#B42A8A"/>
<path d="M35.2604 402.117L34.5908 400L27.6198 402.934C23.8095 404.54 24.1945 407.722 25.1219 411C28.8385 409.43 36.9981 407.65 35.2604 402.117Z" fill="#DB42AD" stroke="#B42A8A"/>
<path d="M35.2604 409.117L34.5908 407L27.6198 409.934C23.8095 411.54 24.1945 414.722 25.1219 418C28.8385 416.43 36.9981 414.65 35.2604 409.117Z" fill="#DB42AD" stroke="#B42A8A"/>
<path d="M35.2604 416.117L34.5908 414L27.6198 416.934C23.8095 418.54 24.1945 421.722 25.1219 425C28.8385 423.43 36.9981 421.65 35.2604 416.117Z" fill="#DB42AD" stroke="#B42A8A"/>
<path d="M35.2604 423.117L34.5908 421L27.6198 423.934C23.8095 425.54 24.1945 428.722 25.1219 432C28.8385 430.43 36.9981 428.65 35.2604 423.117Z" fill="#DB42AD" stroke="#B42A8A"/>
<path d="M35.2604 430.117L34.5908 428L27.6198 430.934C23.8095 432.54 24.1945 435.722 25.1219 439C28.8385 437.43 36.9981 435.65 35.2604 430.117Z" fill="#DB42AD" stroke="#B42A8A"/>
<path d="M35.2604 437.117L34.5908 435L27.6198 437.934C23.8095 439.54 24.1945 442.722 25.1219 446C28.8385 444.43 36.9981 442.65 35.2604 437.117Z" fill="#DB42AD" stroke="#B42A8A"/>
<path d="M35.2604 444.117L34.5908 442L27.6198 444.934C23.8095 446.54 24.1945 449.722 25.1219 453C28.8385 451.43 36.9981 449.65 35.2604 444.117Z" fill="#DB42AD" stroke="#B42A8A"/>
<path d="M24.0831 472.124C23.8205 476.362 23.2952 480.592 22.4739 484.775C22.4739 484.806 22.4644 484.822 22.4644 484.837C22.013 487.042 23.5619 486.867 25.0667 486.867C25.9692 483.173 26.7237 478.041 26.8001 473.531C26.8001 473.531 27.2775 477.777 26.0552 485.335C26.122 485.817 26.2175 486.393 26.3942 486.867H27.9413C28.5334 481.393 28.9392 474.9 28.9965 468.726C29.0252 469.674 29.2353 476.424 28.3806 486.867H30.9399L31.2599 485.708L31.5034 484.861C31.4986 484.853 31.4986 484.837 31.4986 484.822C31.3028 482.046 31.1835 479.612 31.1023 477.52C30.8779 471.712 31.0402 468.617 31.0402 468.617C31.0832 474.705 31.4795 481.105 32.0716 487.077L34.2347 486.867C32.7449 478.516 33.1985 473.827 33.2319 473.539C33.337 479.62 34.4877 484.884 35.0225 487.046L36.6699 486.867C37.3145 486.859 37.7682 485.84 37.5676 484.814C36.7415 480.623 36.2115 476.369 35.9537 472.124C35.2716 462.128 24.9181 458.924 24.0831 472.124Z" fill="#DB42AD" stroke="#B42A8A"/>
<path d="M35.2604 451.117L34.5908 449L27.6198 451.933C23.8095 453.54 24.1945 456.722 25.1219 460C28.8385 458.43 36.9981 456.65 35.2604 451.117Z" fill="#DB42AD" stroke="#B42A8A"/>
<path d="M32.3113 458.335C33.2989 458.662 34.2633 459.084 35.0376 459.49C35.8118 459.895 36.277 460.242 36.277 460.242C36.4874 459.647 36.4714 458.919 36.2777 458.256C34.7904 451.905 26.811 452.989 24.9265 456.65C24.6798 457.13 24.5629 457.475 24.5629 457.475C25.6477 458.198 27.4201 459.713 28.0144 459.796C28.3235 459.855 28.5368 459.777 28.7857 459.685C29.9691 458.818 30.5308 457.745 32.3113 458.335Z" fill="#DB42AD" stroke="#B42A8A"/>
<path d="M36.9433 465.414C39.3751 463.433 39.3343 460.401 36.9431 457.406C34.5518 454.412 29.5415 456.251 27.9044 461.473C29.0523 464.408 35.8709 462.897 36.9433 465.414Z" fill="#DB42AD" stroke="#B42A8A"/>
<path d="M27.089 455.834C27.1345 455.414 27.18 455.037 27.2255 454.785C27.3165 454.533 27.3165 454.366 27.3165 454.366C26.3609 454.45 25.4508 454.911 24.6773 455.498C20.8286 458.629 22.8475 463.012 26.3609 465.399C27.2255 465.987 28.1356 466.322 28.8182 466.49C29.1367 466.574 29.4552 466.616 29.6373 466.658C29.8193 466.7 29.9558 466.7 29.9558 466.7C32.3254 462.666 26.8599 460.058 27.089 455.834Z" fill="#DB42AD" stroke="#B42A8A"/>
<path d="M29.2075 463.238C29.2075 463.238 29.071 463.238 28.889 463.191C28.707 463.145 28.4339 463.099 28.0699 463.006C27.3873 462.821 26.4772 462.404 25.6127 461.802C24.7481 461.2 23.9745 460.366 23.4285 459.671C22.8824 458.977 22.5639 458.467 22.5639 458.467C21.9723 459.069 21.5628 459.857 21.3808 460.737C21.1532 461.617 21.1532 462.636 21.4263 463.655C21.6538 464.627 22.1543 465.6 22.8369 466.341C23.5195 467.082 24.3385 467.592 25.1576 467.823C25.1576 467.823 25.2941 467.869 25.5672 467.916C25.8402 467.962 26.2042 468.055 26.6593 468.101C27.5693 468.194 28.7069 468.147 29.7535 467.869C30.8001 467.592 31.5737 467.036 32.0743 466.526C32.3018 466.295 32.4838 466.063 32.5748 465.924C32.6658 465.785 32.7568 465.693 32.7568 465.693C32.2108 464.581 32.1653 464.025 31.7102 463.701C31.2097 463.469 30.4361 463.377 29.2075 463.238Z" fill="#DB42AD" stroke="#B42A8A"/>
<path d="M29.6771 464.146C29.6771 464.146 29.6071 464.221 29.4368 464.314C29.31 464.42 29.0565 464.632 28.7859 464.742C28.205 465.095 27.2626 465.384 26.1819 465.341C25.1314 465.355 23.9993 465.005 23.155 464.647C22.7328 464.468 22.411 464.272 22.1629 464.146C21.9149 464.021 21.7975 463.937 21.7975 463.937C21.5898 464.792 21.6301 465.773 22.0016 466.759C22.3295 467.732 22.9888 468.71 23.9147 469.432C24.371 469.815 24.8539 470.109 25.4067 470.329C25.6547 470.454 25.9159 470.535 26.1771 470.615C26.4384 470.696 26.7128 470.733 26.9873 470.769C27.5362 470.842 28.0245 470.799 28.5128 470.757C28.9708 470.656 29.442 470.511 29.8394 470.295C29.8394 470.295 29.9662 470.189 30.2368 470.079C30.4638 469.956 30.7741 469.713 31.1411 469.439C31.8317 468.878 32.6016 468.051 33.167 467.113C33.7324 466.174 34.0972 465.271 34.3088 464.562C34.4146 464.207 34.4636 463.883 34.5165 463.706C34.5259 463.515 34.5656 463.382 34.5656 463.382C33.3993 462.828 32.4718 462.59 31.7696 462.712C31.024 462.82 30.5473 463.302 29.6771 464.146Z" fill="#DB42AD" stroke="#B42A8A"/>
<path d="M30.3997 462.768C30.3996 464.134 30.5264 465.454 30.1597 466.823C29.8867 467.888 29.3861 468.907 28.8856 469.648C28.6125 470.019 28.385 470.343 28.203 470.528C28.021 470.713 27.8845 470.852 27.8845 470.852C28.7035 471.269 29.6591 471.362 30.6147 471.269C31.5703 471.13 32.5259 470.806 33.2995 470.25C37.225 467.51 35.7809 463.281 33.7782 461.187C32.1692 460.266 30.8336 460.983 30.3997 462.768Z" fill="#DB42AD" stroke="#B42A8A"/>
<path d="M34.6126 469.608C38.393 468.54 38.92 462.926 35.8175 460.987C32.715 459.048 30.388 461.375 30.3891 462.264C34.2683 463 35.817 464.865 34.6126 469.608Z" fill="#DB42AD" stroke="#B42A8A"/>
</svg>
