<svg width="40" height="267" viewBox="0 0 40 267" fill="none" xmlns="http://www.w3.org/2000/svg">
<path d="M23.8258 2.53993L23.3387 1L18.2689 3.1335C15.4978 4.30155 15.7778 6.61621 16.4523 9C19.1553 7.85816 25.0896 6.56377 23.8258 2.53993Z" fill="#EDEDED" stroke="#D2D2D2"/>
<path d="M23.8258 7.53993L23.3387 6L18.2689 8.1335C15.4978 9.30155 15.7778 11.6162 16.4523 14C19.1553 12.8582 25.0896 11.5638 23.8258 7.53993Z" fill="#EDEDED" stroke="#D2D2D2"/>
<path d="M23.8258 12.5399L23.3387 11L18.2689 13.1335C15.4978 14.3016 15.7778 16.6162 16.4523 19C19.1553 17.8582 25.0896 16.5638 23.8258 12.5399Z" fill="#EDEDED" stroke="#D2D2D2"/>
<path d="M23.8258 17.5399L23.3387 16L18.2689 18.1335C15.4978 19.3016 15.7778 21.6162 16.4523 24C19.1553 22.8582 25.0896 21.5638 23.8258 17.5399Z" fill="#EDEDED" stroke="#D2D2D2"/>
<path d="M23.8258 22.5399L23.3387 21L18.2689 23.1335C15.4978 24.3016 15.7778 26.6162 16.4523 29C19.1553 27.8582 25.0896 26.5638 23.8258 22.5399Z" fill="#EDEDED" stroke="#D2D2D2"/>
<path d="M23.8258 27.5399L23.3387 26L18.2689 28.1335C15.4978 29.3016 15.7778 31.6162 16.4523 34C19.1553 32.8582 25.0896 31.5638 23.8258 27.5399Z" fill="#EDEDED" stroke="#D2D2D2"/>
<path d="M23.8258 32.5399L23.3387 31L18.2689 33.1335C15.4978 34.3016 15.7778 36.6162 16.4523 39C19.1553 37.8582 25.0896 36.5638 23.8258 32.5399Z" fill="#EDEDED" stroke="#D2D2D2"/>
<path d="M23.8258 37.5399L23.3387 36L18.2689 38.1335C15.4978 39.3016 15.7778 41.6162 16.4523 44C19.1553 42.8582 25.0896 41.5638 23.8258 37.5399Z" fill="#EDEDED" stroke="#D2D2D2"/>
<path d="M23.8258 42.5399L23.3387 41L18.2689 43.1335C15.4978 44.3016 15.7778 46.6162 16.4523 49C19.1553 47.8582 25.0896 46.5638 23.8258 42.5399Z" fill="#EDEDED" stroke="#D2D2D2"/>
<path d="M23.8258 47.5399L23.3387 46L18.2689 48.1335C15.4978 49.3016 15.7778 51.6162 16.4523 54C19.1553 52.8582 25.0896 51.5638 23.8258 47.5399Z" fill="#EDEDED" stroke="#D2D2D2"/>
<path d="M23.8258 52.5399L23.3387 51L18.2689 53.1335C15.4978 54.3016 15.7778 56.6162 16.4523 59C19.1553 57.8582 25.0896 56.5638 23.8258 52.5399Z" fill="#EDEDED" stroke="#D2D2D2"/>
<path d="M23.8258 57.5399L23.3387 56L18.2689 58.1335C15.4978 59.3016 15.7778 61.6162 16.4523 64C19.1553 62.8582 25.0896 61.5638 23.8258 57.5399Z" fill="#EDEDED" stroke="#D2D2D2"/>
<path d="M23.8258 62.5399L23.3387 61L18.2689 63.1335C15.4978 64.3016 15.7778 66.6162 16.4523 69C19.1553 67.8582 25.0896 66.5638 23.8258 62.5399Z" fill="#EDEDED" stroke="#D2D2D2"/>
<path d="M23.8258 67.5399L23.3387 66L18.2689 68.1335C15.4978 69.3016 15.7778 71.6162 16.4523 74C19.1553 72.8582 25.0896 71.5638 23.8258 67.5399Z" fill="#EDEDED" stroke="#D2D2D2"/>
<path d="M23.8258 72.5399L23.3387 71L18.2689 73.1335C15.4978 74.3016 15.7778 76.6162 16.4523 79C19.1553 77.8582 25.0896 76.5638 23.8258 72.5399Z" fill="#EDEDED" stroke="#D2D2D2"/>
<path d="M23.8258 77.5399L23.3387 76L18.2689 78.1335C15.4978 79.3016 15.7778 81.6162 16.4523 84C19.1553 82.8582 25.0896 81.5638 23.8258 77.5399Z" fill="#EDEDED" stroke="#D2D2D2"/>
<path d="M23.8258 82.5399L23.3387 81L18.2689 83.1335C15.4978 84.3016 15.7778 86.6162 16.4523 89C19.1553 87.8582 25.0896 86.5638 23.8258 82.5399Z" fill="#EDEDED" stroke="#D2D2D2"/>
<path d="M23.8258 87.5399L23.3387 86L18.2689 88.1335C15.4978 89.3016 15.7778 91.6162 16.4523 94C19.1553 92.8582 25.0896 91.5638 23.8258 87.5399Z" fill="#EDEDED" stroke="#D2D2D2"/>
<path d="M23.8258 92.5399L23.3387 91L18.2689 93.1335C15.4978 94.3016 15.7778 96.6162 16.4523 99C19.1553 97.8582 25.0896 96.5638 23.8258 92.5399Z" fill="#EDEDED" stroke="#D2D2D2"/>
<path d="M23.8258 97.5401L23.3387 96.0002L18.2689 98.1337C15.4978 99.3017 15.7778 101.616 16.4523 104C19.1553 102.858 25.0896 101.564 23.8258 97.5401Z" fill="#EDEDED" stroke="#D2D2D2"/>
<path d="M23.8258 102.54L23.3387 101L18.2689 103.133C15.4978 104.302 15.7778 106.616 16.4523 109C19.1553 107.858 25.0896 106.564 23.8258 102.54Z" fill="#EDEDED" stroke="#D2D2D2"/>
<path d="M23.8258 107.54L23.3387 106L18.2689 108.133C15.4978 109.302 15.7778 111.616 16.4523 114C19.1553 112.858 25.0896 111.564 23.8258 107.54Z" fill="#EDEDED" stroke="#D2D2D2"/>
<path d="M23.8258 112.54L23.3387 111L18.2689 113.133C15.4978 114.302 15.7778 116.616 16.4523 119C19.1553 117.858 25.0896 116.564 23.8258 112.54Z" fill="#EDEDED" stroke="#D2D2D2"/>
<path d="M23.8258 117.54L23.3387 116L18.2689 118.133C15.4978 119.302 15.7778 121.616 16.4523 124C19.1553 122.858 25.0896 121.564 23.8258 117.54Z" fill="#EDEDED" stroke="#D2D2D2"/>
<path d="M23.8258 122.54L23.3387 121L18.2689 123.133C15.4978 124.302 15.7778 126.616 16.4523 129C19.1553 127.858 25.0896 126.564 23.8258 122.54Z" fill="#EDEDED" stroke="#D2D2D2"/>
<path d="M23.8258 127.54L23.3387 126L18.2689 128.133C15.4978 129.302 15.7778 131.616 16.4523 134C19.1553 132.858 25.0896 131.564 23.8258 127.54Z" fill="#EDEDED" stroke="#D2D2D2"/>
<path d="M23.8258 132.54L23.3387 131L18.2689 133.133C15.4978 134.302 15.7778 136.616 16.4523 139C19.1553 137.858 25.0896 136.564 23.8258 132.54Z" fill="#EDEDED" stroke="#D2D2D2"/>
<path d="M18.3056 110.414L16.7129 110.146L18.12 104.829C18.8911 101.922 21.2222 101.877 23.6766 102.213C22.9221 105.049 22.4662 111.106 18.3056 110.414Z" fill="#EDEDED" stroke="#D2D2D2"/>
<path d="M23.1826 109.73L21.5898 109.462L22.997 104.144C23.768 101.238 26.7007 101.065 27.68 102.233C28.6594 103.401 27.3431 110.421 23.1826 109.73Z" fill="#EDEDED" stroke="#D2D2D2"/>
<path d="M17.0547 102.846L18.6474 103.114L17.2403 108.431C16.4693 111.338 13.5365 111.511 12.5572 110.343C11.5779 109.175 12.8941 102.154 17.0547 102.846Z" fill="#EDEDED" stroke="#D2D2D2"/>
<path d="M18.3037 117.952L16.7109 117.684L18.1181 112.367C18.8891 109.46 21.2202 109.415 23.6747 109.752C22.9201 112.587 22.4642 118.644 18.3037 117.952Z" fill="#EDEDED" stroke="#D2D2D2"/>
<path d="M23.1806 117.268L21.5879 117L22.995 111.683C23.7661 108.776 26.6988 108.603 27.6781 109.771C28.6574 110.939 27.3412 117.959 23.1806 117.268Z" fill="#EDEDED" stroke="#D2D2D2"/>
<path d="M17.0547 110.384L18.6474 110.652L17.2403 115.97C16.4693 118.876 13.5365 119.049 12.5572 117.881C11.5779 116.713 12.8941 109.693 17.0547 110.384Z" fill="#EDEDED" stroke="#D2D2D2"/>
<path d="M18.3056 125.491L16.7129 125.223L18.12 119.906C18.8911 116.999 21.2222 116.954 23.6766 117.291C22.9221 120.126 22.4662 126.183 18.3056 125.491Z" fill="#EDEDED" stroke="#D2D2D2"/>
<path d="M23.1806 124.806L21.5879 124.538L22.995 119.221C23.7661 116.314 26.6988 116.141 27.6781 117.309C28.6574 118.477 27.3412 125.498 23.1806 124.806Z" fill="#EDEDED" stroke="#D2D2D2"/>
<path d="M17.0557 117.922L18.6484 118.19L17.2413 123.508C16.4702 126.415 13.5375 126.587 12.5582 125.419C11.5789 124.251 12.8951 117.231 17.0557 117.922Z" fill="#EDEDED" stroke="#D2D2D2"/>
<path d="M18.3056 133.03L16.7129 132.762L18.12 127.444C18.8911 124.538 21.2222 124.493 23.6766 124.829C22.9221 127.665 22.4662 133.721 18.3056 133.03Z" fill="#EDEDED" stroke="#D2D2D2"/>
<path d="M23.1806 132.345L21.5879 132.077L22.995 126.76C23.7661 123.853 26.6988 123.68 27.6781 124.848C28.6574 126.016 27.3412 133.037 23.1806 132.345Z" fill="#EDEDED" stroke="#D2D2D2"/>
<path d="M17.0557 125.461L18.6484 125.729L17.2413 131.047C16.4702 133.953 13.5375 134.126 12.5582 132.958C11.5789 131.79 12.8951 124.77 17.0557 125.461Z" fill="#EDEDED" stroke="#D2D2D2"/>
<path d="M23.8258 137.54L23.3387 136L18.2689 138.133C15.4978 139.302 15.7778 141.616 16.4523 144C19.1553 142.858 25.0896 141.564 23.8258 137.54Z" fill="#EDEDED" stroke="#D2D2D2"/>
<path d="M23.8258 142.54L23.3387 141L18.2689 143.133C15.4978 144.302 15.7778 146.616 16.4523 149C19.1553 147.858 25.0896 146.564 23.8258 142.54Z" fill="#EDEDED" stroke="#D2D2D2"/>
<path d="M23.8258 147.54L23.3387 146L18.2689 148.133C15.4978 149.302 15.7778 151.616 16.4523 154C19.1553 152.858 25.0896 151.564 23.8258 147.54Z" fill="#EDEDED" stroke="#D2D2D2"/>
<path d="M23.8258 152.54L23.3387 151L18.2689 153.133C15.4978 154.302 15.7778 156.616 16.4523 159C19.1553 157.858 25.0896 156.564 23.8258 152.54Z" fill="#EDEDED" stroke="#D2D2D2"/>
<path d="M23.8258 157.54L23.3387 156L18.2689 158.133C15.4978 159.302 15.7778 161.616 16.4523 164C19.1553 162.858 25.0896 161.564 23.8258 157.54Z" fill="#EDEDED" stroke="#D2D2D2"/>
<path d="M23.8258 162.54L23.3387 161L18.2689 163.133C15.4978 164.302 15.7778 166.616 16.4523 169C19.1553 167.858 25.0896 166.564 23.8258 162.54Z" fill="#EDEDED" stroke="#D2D2D2"/>
<path d="M23.8258 167.54L23.3387 166L18.2689 168.133C15.4978 169.302 15.7778 171.616 16.4523 174C19.1553 172.858 25.0896 171.564 23.8258 167.54Z" fill="#EDEDED" stroke="#D2D2D2"/>
<path d="M23.8258 172.54L23.3387 171L18.2689 173.133C15.4978 174.302 15.7778 176.616 16.4523 179C19.1553 177.858 25.0896 176.564 23.8258 172.54Z" fill="#EDEDED" stroke="#D2D2D2"/>
<path d="M23.8258 177.54L23.3387 176L18.2689 178.133C15.4978 179.302 15.7778 181.616 16.4523 184C19.1553 182.858 25.0896 181.564 23.8258 177.54Z" fill="#EDEDED" stroke="#D2D2D2"/>
<path d="M23.8258 182.54L23.3387 181L18.2689 183.133C15.4978 184.302 15.7778 186.616 16.4523 189C19.1553 187.858 25.0896 186.564 23.8258 182.54Z" fill="#EDEDED" stroke="#D2D2D2"/>
<path d="M23.8258 187.54L23.3387 186L18.2689 188.133C15.4978 189.302 15.7778 191.616 16.4523 194C19.1553 192.858 25.0896 191.564 23.8258 187.54Z" fill="#EDEDED" stroke="#D2D2D2"/>
<path d="M23.8258 192.54L23.3387 191L18.2689 193.133C15.4978 194.302 15.7778 196.616 16.4523 199C19.1553 197.858 25.0896 196.564 23.8258 192.54Z" fill="#EDEDED" stroke="#D2D2D2"/>
<path d="M23.8258 197.54L23.3387 196L18.2689 198.133C15.4978 199.302 15.7778 201.616 16.4523 204C19.1553 202.858 25.0896 201.564 23.8258 197.54Z" fill="#EDEDED" stroke="#D2D2D2"/>
<path d="M23.8258 202.54L23.3387 201L18.2689 203.133C15.4978 204.302 15.7778 206.616 16.4523 209C19.1553 207.858 25.0896 206.564 23.8258 202.54Z" fill="#EDEDED" stroke="#D2D2D2"/>
<path d="M23.8258 207.54L23.3387 206L18.2689 208.133C15.4978 209.302 15.7778 211.616 16.4523 214C19.1553 212.858 25.0896 211.564 23.8258 207.54Z" fill="#EDEDED" stroke="#D2D2D2"/>
<path d="M23.8258 212.54L23.3387 211L18.2689 213.133C15.4978 214.302 15.7778 216.616 16.4523 219C19.1553 217.858 25.0896 216.564 23.8258 212.54Z" fill="#EDEDED" stroke="#D2D2D2"/>
<path d="M23.8258 217.54L23.3387 216L18.2689 218.133C15.4978 219.302 15.7778 221.616 16.4523 224C19.1553 222.858 25.0896 221.564 23.8258 217.54Z" fill="#EDEDED" stroke="#D2D2D2"/>
<path d="M23.8258 222.54L23.3387 221L18.2689 223.133C15.4978 224.302 15.7778 226.616 16.4523 229C19.1553 227.858 25.0896 226.564 23.8258 222.54Z" fill="#EDEDED" stroke="#D2D2D2"/>
<path d="M23.8258 227.54L23.3387 226L18.2689 228.133C15.4978 229.302 15.7778 231.616 16.4523 234C19.1553 232.858 25.0896 231.564 23.8258 227.54Z" fill="#EDEDED" stroke="#D2D2D2"/>
<path d="M23.8258 232.54L23.3387 231L18.2689 233.133C15.4978 234.302 15.7778 236.616 16.4523 239C19.1553 237.858 25.0896 236.564 23.8258 232.54Z" fill="#EDEDED" stroke="#D2D2D2"/>
<path d="M23.8258 237.54L23.3387 236L18.2689 238.133C15.4978 239.302 15.7778 241.616 16.4523 244C19.1553 242.858 25.0896 241.564 23.8258 237.54Z" fill="#EDEDED" stroke="#D2D2D2"/>
<path d="M14.5611 252.992C14.3197 256.808 13.8369 260.616 13.082 264.382C13.082 264.41 13.0732 264.424 13.0732 264.438C12.6583 266.423 14.082 266.265 15.4652 266.265C16.2948 262.94 16.9883 258.32 17.0585 254.259C17.0585 254.259 17.4974 258.082 16.3738 264.886C16.4352 265.32 16.523 265.838 16.6854 266.265H18.1075C18.6517 261.337 19.0248 255.492 19.0775 249.933C19.1038 250.787 19.2969 256.864 18.5113 266.265H20.8639L21.1579 265.222L21.3818 264.459C21.3774 264.452 21.3774 264.438 21.3774 264.424C21.1974 261.925 21.0877 259.734 21.0131 257.851C20.8068 252.621 20.956 249.835 20.956 249.835C20.9955 255.317 21.3598 261.078 21.9041 266.454L23.8923 266.265C22.5229 258.747 22.9399 254.525 22.9706 254.266C23.0672 259.741 24.125 264.48 24.6165 266.426L26.1308 266.265C26.7233 266.258 27.1403 265.341 26.9559 264.417C26.1966 260.644 25.7094 256.815 25.4724 252.992C24.8455 243.993 15.3286 241.109 14.5611 252.992Z" fill="#EDEDED" stroke="#D2D2D2"/>
<path d="M23.8368 242.512L23.3585 241L18.3795 243.095C15.6581 244.242 15.3234 247.866 17.1074 248.431C18.8914 248.995 25.0779 246.464 23.8368 242.512Z" fill="#EDEDED" stroke="#D2D2D2"/>
</svg>
