<svg width="24" height="47" viewBox="0 0 24 47" fill="none" xmlns="http://www.w3.org/2000/svg">
<path d="M5.00712 28.3285C4.69674 33.3368 4.076 38.336 3.10538 43.28C3.10538 43.3167 3.09409 43.3351 3.09409 43.3535C2.56066 45.9595 4.39115 45.752 6.1696 45.752C7.23616 41.3869 8.12778 35.3218 8.21807 29.9918C8.21807 29.9918 8.78238 35.0093 7.33773 43.9416C7.41674 44.5114 7.5296 45.1914 7.7384 45.752H9.56678C10.2665 39.2825 10.7462 31.6092 10.8139 24.3126C10.8478 25.4337 11.0961 33.4103 10.0859 45.752H13.1107L13.4888 44.3827L13.7766 43.3811C13.7709 43.3719 13.7709 43.3535 13.7709 43.3351C13.5395 40.0544 13.3985 37.1781 13.3025 34.7061C13.0373 27.8414 13.2292 24.1839 13.2292 24.1839C13.28 31.3794 13.7483 38.9425 14.4481 46.0001L17.0044 45.752C15.2438 35.8823 15.7799 30.341 15.8194 30.001C15.9435 37.1873 17.3035 43.4086 17.9356 45.9634L19.8824 45.752C20.6443 45.7428 21.1804 44.539 20.9434 43.3259C19.9671 38.3727 19.3407 33.346 19.036 28.3284C18.2299 16.5153 5.99389 12.7289 5.00712 28.3285Z" fill="#58BF90" stroke="#329467"/>
<path d="M18.2168 3.50251L17.4254 1.00012L9.18698 4.46705C4.6839 6.36514 5.13893 10.1265 6.23502 14.0001C10.6273 12.1446 20.2705 10.0413 18.2168 3.50251Z" fill="#58BF90" stroke="#329467"/>
<path d="M14.7314 12.0324C15.8986 12.4191 17.0383 12.9178 17.9533 13.3973C18.8684 13.8767 19.4181 14.2865 19.4181 14.2865C19.6668 13.5828 19.6479 12.7225 19.4189 11.9395C17.6612 4.43305 8.23097 5.71451 6.00383 10.0414C5.71226 10.6078 5.57417 11.0157 5.57417 11.0157C6.85625 11.8702 8.95081 13.661 9.65317 13.7596C10.0185 13.8292 10.2706 13.7364 10.5648 13.6281C11.9633 12.603 12.6271 11.3354 14.7314 12.0324Z" fill="#58BF90" stroke="#329467"/>
<path d="M20.2047 20.3983C23.0786 18.0569 23.0304 14.4742 20.2045 10.9349C17.3785 7.39556 11.4571 9.5688 9.52243 15.7407C10.879 19.2099 18.9374 17.4236 20.2047 20.3983Z" fill="#58BF90" stroke="#329467"/>
<path d="M8.55883 9.07639C8.61261 8.58058 8.66638 8.13436 8.72016 7.83687C8.82772 7.53939 8.82772 7.34106 8.82772 7.34106C7.69839 7.44023 6.62284 7.98559 5.70862 8.67972C1.16024 12.3798 3.54616 17.56 7.6984 20.3808C8.72018 21.0749 9.79572 21.4716 10.6024 21.6699C10.9788 21.769 11.3553 21.8186 11.5704 21.8682C11.7855 21.9178 11.9468 21.9178 11.9468 21.9178C14.7474 17.1511 8.2881 14.0684 8.55883 9.07639Z" fill="#58BF90" stroke="#329467"/>
<path d="M11.0632 17.8261C11.0632 17.8261 10.9018 17.8261 10.6867 17.7714C10.4716 17.7167 10.1489 17.6619 9.71871 17.5524C8.91204 17.3335 7.83647 16.8409 6.8147 16.1293C5.79292 15.4177 4.8787 14.4324 4.23337 13.6113C3.58804 12.7902 3.21158 12.1881 3.21158 12.1881C2.51247 12.8997 2.02848 13.8303 1.81337 14.8703C1.54448 15.9103 1.54447 17.1145 1.86713 18.3188C2.13602 19.4683 2.7276 20.6178 3.53426 21.4936C4.34093 22.3694 5.30892 22.9715 6.27692 23.2452C6.27692 23.2452 6.43826 23.3 6.76093 23.3547C7.0836 23.4094 7.5138 23.5189 8.05158 23.5736C9.12713 23.6831 10.4716 23.6284 11.7085 23.2999C12.9453 22.9715 13.8596 22.3147 14.4511 21.7126C14.72 21.4389 14.9351 21.1652 15.0427 21.001C15.1502 20.8368 15.2578 20.7273 15.2578 20.7273C14.6125 19.4136 14.5587 18.7567 14.0209 18.3735C13.4294 18.0998 12.5152 17.9903 11.0632 17.8261Z" fill="#58BF90" stroke="#329467"/>
<path d="M11.6184 18.8999C11.6184 18.8999 11.5356 18.9888 11.3344 19.0982C11.1846 19.2235 10.885 19.4741 10.5652 19.604C9.87869 20.0211 8.76492 20.3632 7.48765 20.3116C6.2462 20.3282 4.90831 19.9146 3.91044 19.4917C3.4115 19.2802 3.03114 19.0482 2.73803 18.9003C2.44492 18.7525 2.30617 18.6524 2.30617 18.6524C2.06066 19.6634 2.10826 20.8224 2.54731 21.9878C2.93491 23.1374 3.71399 24.2935 4.80827 25.1467C5.3476 25.5995 5.91819 25.9476 6.5715 26.2067C6.8646 26.3546 7.17334 26.45 7.48208 26.5455C7.79082 26.6409 8.11517 26.684 8.43954 26.7271C9.08828 26.8133 9.66537 26.7628 10.2424 26.7124C10.7837 26.5937 11.3406 26.4226 11.8102 26.1674C11.8102 26.1674 11.96 26.0421 12.2798 25.9121C12.5481 25.7663 12.9148 25.4792 13.3486 25.1556C14.1647 24.4926 15.0746 23.5154 15.7428 22.4062C16.411 21.297 16.8421 20.2289 17.0922 19.3909C17.2173 18.9719 17.2752 18.5894 17.3377 18.3799C17.3488 18.1545 17.3957 17.9973 17.3957 17.9973C16.0174 17.3424 14.9212 17.0607 14.0914 17.2046C13.2101 17.3326 12.6468 17.9021 11.6184 18.8999Z" fill="#58BF90" stroke="#329467"/>
<path d="M12.472 17.2714C12.4718 18.8853 12.6217 20.4458 12.1883 22.0632C11.8656 23.3222 11.2741 24.5264 10.6825 25.4023C10.3598 25.8402 10.0909 26.2233 9.87583 26.4423C9.66072 26.6612 9.49938 26.8254 9.49938 26.8254C10.4674 27.3181 11.5967 27.4276 12.726 27.3181C13.8554 27.1539 14.9847 26.7707 15.899 26.1139C20.5382 22.8759 18.8316 17.8772 16.4647 15.403C14.5632 14.314 12.9847 15.1621 12.472 17.2714Z" fill="#58BF90" stroke="#329467"/>
<path d="M17.4512 25.3555C21.9189 24.0923 22.5418 17.4585 18.8751 15.1666C15.2085 12.8747 12.4585 15.6248 12.4598 16.6762C17.0443 17.546 18.8745 19.7501 17.4512 25.3555Z" fill="#58BF90" stroke="#329467"/>
</svg>
