<svg width="49" height="36" viewBox="0 0 49 36" fill="none" xmlns="http://www.w3.org/2000/svg">
<path d="M12.2774 23.4982C11.2393 23.0904 10.2011 22.1843 9.5692 21.0063C8.89214 19.8283 8.57617 18.469 8.57617 17.1551C8.67806 11.223 15.4321 9.01305 20.2667 10.6307C20.673 10.7666 20.9889 10.9026 21.2146 10.9932C21.4403 11.0838 21.5757 11.1291 21.5757 11.1291C21.35 12.6242 21.0792 13.6663 20.5375 14.3006C17.7095 18.0856 12.2774 17.4813 12.2774 23.4982Z" fill="#EDEDED" stroke="#D2D2D2"/>
<path d="M16.581 28.5672C15.4684 28.4974 14.204 27.953 13.2437 27.0251C12.2404 26.1112 11.5258 24.9139 11.1258 23.6628C9.49153 18.2313 14.944 12.8538 20.1514 14.8059C23.3505 23.4227 14.8066 23.0172 16.581 28.5672Z" fill="#EDEDED" stroke="#D2D2D2"/>
<path d="M12.9083 10.9898C12.7277 11.0804 12.5472 11.1711 12.3666 11.2164C12.0958 11.3523 11.9153 11.4429 11.9153 11.4429C11.7347 10.4461 11.8701 9.31343 12.3215 8.27134C12.7277 7.22925 13.4499 6.23248 14.3075 5.50755C18.3827 2.23508 23.8708 4.44256 26.7654 8.31664C26.9008 8.49787 27.0362 8.72443 27.1716 8.90567C27.3973 9.26813 27.5779 9.53994 27.6682 9.76648C27.7584 9.99302 27.8036 10.129 27.8036 10.129C26.7203 11.1711 25.9078 11.7601 24.9599 11.9413C20.8505 12.56 17.5438 9.82657 12.9083 10.9898Z" fill="#EDEDED" stroke="#D2D2D2"/>
<path d="M20.1303 22.9975C20.1303 22.9975 20.0852 23.1334 19.9949 23.3599C19.9046 23.5865 19.8143 23.9037 19.7692 24.3115C19.5886 25.127 19.5886 26.305 19.8143 27.5283C20.04 28.7516 20.5365 30.0203 20.9879 30.9264C21.2136 31.3795 21.4393 31.742 21.6198 32.0138C21.8004 32.2857 21.8906 32.4216 21.8906 32.4216C20.9427 32.784 19.8595 32.8294 18.7762 32.6028C17.6929 32.3763 16.5644 31.8326 15.6617 31.0623C14.7138 30.2921 13.9916 29.2953 13.5402 28.2079C13.0889 27.1206 12.9535 25.9425 13.134 24.9004C13.134 24.9004 13.1792 24.7192 13.2243 24.4021C13.3146 24.0849 13.4048 23.6318 13.6305 23.1334C13.8111 22.635 14.0819 22.046 14.443 21.5023C14.8041 20.9586 15.2103 20.4603 15.6617 20.0072C16.5644 19.1463 17.6477 18.7385 18.4151 18.6026C18.8213 18.5573 19.0921 18.5573 19.3178 18.6026C19.5435 18.6479 19.6338 18.6479 19.6338 18.6479C20.4011 19.7353 20.9879 20.1431 20.9879 20.4603C20.9879 20.5962 20.8976 20.9133 20.7171 21.2758C20.5817 21.9101 20.356 22.4538 20.1303 22.9975Z" fill="#EDEDED" stroke="#D2D2D2"/>
<path d="M3.3099 23.7353L1 23.0048L4.20024 15.4001C5.95233 11.2434 9.42431 11.6634 13 12.6752C11.2872 16.7296 9.34566 25.631 3.3099 23.7353Z" fill="#EDEDED" stroke="#D2D2D2"/>
<path d="M10.3099 23.7353L8 23.0048L11.2002 15.4001C12.9523 11.2434 16.4243 11.6634 20 12.6752C18.2872 16.7296 16.3457 25.631 10.3099 23.7353Z" fill="#EDEDED" stroke="#D2D2D2"/>
<path d="M17.3099 23.7353L15 23.0048L18.2002 15.4001C19.9523 11.2434 23.4243 11.6634 27 12.6752C25.2872 16.7296 23.3457 25.631 17.3099 23.7353Z" fill="#EDEDED" stroke="#D2D2D2"/>
<path d="M24.3099 23.7353L22 23.0048L25.2002 15.4001C26.9523 11.2434 30.4243 11.6634 34 12.6752C32.2872 16.7296 30.3457 25.631 24.3099 23.7353Z" fill="#EDEDED" stroke="#D2D2D2"/>
<path d="M31.3099 23.7353L29 23.0048L32.2002 15.4001C33.9523 11.2434 37.4243 11.6634 41 12.6752C39.2872 16.7296 37.3457 25.631 31.3099 23.7353Z" fill="#EDEDED" stroke="#D2D2D2"/>
<path d="M38.3099 23.7353L36 23.0048L39.2002 15.4001C40.9523 11.2434 44.4243 11.6634 48 12.6752C46.2872 16.7296 44.3457 25.631 38.3099 23.7353Z" fill="#EDEDED" stroke="#D2D2D2"/>
<path d="M20.8088 4.14763C20.4928 4.05701 20.3574 4.01168 20.3574 4.01168C21.3504 2.28997 23.4719 1.11196 25.7739 1.06665C31.3499 1.06665 34.419 7.08313 33.0861 12.1672C32.9958 12.5749 32.9055 12.8921 32.8153 13.1186C32.725 13.3452 32.6799 13.4811 32.6799 13.4811C27.4803 13.1741 26.3434 5.73495 20.8088 4.14763Z" fill="#EDEDED" stroke="#D2D2D2"/>
<path d="M32.6345 13.4829C32.6345 13.4829 32.6797 13.347 32.7699 13.1204C32.8602 12.8939 32.9505 12.5767 33.0407 12.169C33.2213 11.3534 33.3567 10.1754 33.2664 8.9068C33.2213 8.27249 33.0859 7.68344 32.9053 7.04912C32.7248 6.46012 32.4991 5.91643 32.3186 5.41804C32.0929 4.96496 31.8672 4.55718 31.7318 4.28534C31.5512 4.01349 31.4609 3.83225 31.4609 3.83225C31.9574 3.69633 32.454 3.65102 32.9956 3.60571C33.5373 3.60571 34.0789 3.69632 34.6657 3.87755C35.2073 4.01348 35.749 4.28532 36.2455 4.55717C36.742 4.82902 37.1934 5.23681 37.6447 5.64458C38.051 6.05235 38.4121 6.50544 38.728 7.00383C39.044 7.50222 39.2697 8.00062 39.4502 8.54431C39.6308 9.08801 39.7211 9.5864 39.7662 10.1301C39.8113 10.6738 39.7211 11.1722 39.6308 11.6253C39.6308 11.6253 39.5856 11.8065 39.4954 12.0784C39.4051 12.3955 39.2697 12.8033 39.1343 13.3017C38.7732 14.2531 38.1864 15.4765 37.4642 16.4732C37.1031 16.9716 36.6968 17.4247 36.3357 17.8325C35.9295 18.2403 35.5684 18.5574 35.2073 18.7839C34.4851 19.2823 34.0338 19.5089 34.0338 19.5089C32.9053 18.5121 32.2734 17.7419 32.0929 16.8357C31.9123 15.9296 32.0929 14.8875 32.6345 13.4829Z" fill="#EDEDED" stroke="#D2D2D2"/>
<path d="M34.0776 19.5077C34.0776 19.5077 34.529 19.2812 35.2512 18.7828C35.5671 18.511 35.9734 18.1938 36.3796 17.8313C36.7407 17.4236 37.1469 16.9705 37.508 16.4721C38.2302 15.4753 38.817 14.252 39.1781 13.3005C39.3586 12.8021 39.4941 12.3944 39.5392 12.0772C39.6295 11.7601 39.6295 11.6241 39.6295 11.6241C40.0808 11.8507 40.4871 12.1678 40.8482 12.485C41.2544 12.8474 41.5704 13.2552 41.8412 13.7083C42.1571 14.1614 42.3828 14.6597 42.5634 15.2034C42.7439 15.7471 42.8342 16.2909 42.9245 16.8799C43.0148 18.0126 42.8342 19.2359 42.428 20.278C41.9766 21.3201 41.3447 22.2262 40.4871 22.8152C40.4871 22.8152 40.3517 22.9058 40.0808 23.0871C39.8552 23.2683 39.4038 23.4949 38.9524 23.7214C38.0497 24.2198 36.7407 24.6729 35.522 24.8541C34.3033 25.0353 33.1297 24.99 32.2721 24.8088C31.8658 24.7182 31.5048 24.6276 31.2791 24.5823C31.0534 24.4917 30.918 24.4463 30.918 24.4463C30.918 22.9512 31.0082 21.9091 31.4596 21.2295C31.5499 21.0482 31.6853 20.9123 31.8659 20.7311C32.0013 20.5952 32.1818 20.4592 32.4075 20.3233C32.5881 20.1874 32.8589 20.0514 33.1297 19.9155C33.4457 19.8249 33.7165 19.689 34.0776 19.5077Z" fill="#EDEDED" stroke="#D2D2D2"/>
<path d="M31.0095 24.5337C31.0095 24.5337 31.1449 24.579 31.3706 24.6696C31.5963 24.7149 31.9123 24.8055 32.3637 24.8962C33.1761 25.0321 34.3497 25.1227 35.6135 24.9415C36.8322 24.7602 38.1412 24.3071 39.044 23.8088C39.4953 23.5822 39.9016 23.3104 40.1724 23.1745C40.4432 22.9932 40.5786 22.9026 40.5786 22.9026C40.6689 23.1291 40.7592 23.401 40.8043 23.6729C40.8495 23.9447 40.8495 24.2165 40.8946 24.4884C40.8946 24.7602 40.8946 25.0321 40.8946 25.3492C40.8495 25.6211 40.8043 25.893 40.7592 26.1648C40.4884 27.2522 39.9467 28.3396 39.1794 29.2457C38.4121 30.1519 37.419 30.8315 36.426 31.2393C35.3878 31.6471 34.3046 31.783 33.3116 31.6018C33.3116 31.6018 33.131 31.5564 32.815 31.5111C32.4991 31.4658 32.0928 31.3299 31.5963 31.194C30.6033 30.8768 29.3846 30.3331 28.3465 29.6082C27.3083 28.8833 26.541 27.9771 26.0444 27.2975C25.8188 26.935 25.6382 26.6632 25.5028 26.4366C25.3674 26.2101 25.3223 26.1195 25.3223 26.1195C26.3604 25.0321 27.1278 24.3978 27.8951 24.2165C28.5721 23.8541 29.5652 24.0806 31.0095 24.5337Z" fill="#EDEDED" stroke="#D2D2D2"/>
<path d="M32.7242 31.3768C33.0401 31.4221 33.2207 31.4674 33.2207 31.4674C32.8145 32.3736 32.0471 33.1892 31.0993 33.8235C30.1514 34.4578 28.9778 34.8202 27.8042 34.9108C26.6307 35.0014 25.412 34.8202 24.419 34.3671C20.101 32.4826 18.5932 29.8088 19.6983 24.1515C21.7975 23.0056 22.6135 22.9495 23.3357 23.3572C27.1469 25.8166 26.9192 30.4057 32.7242 31.3768Z" fill="#EDEDED" stroke="#D2D2D2"/>
</svg>
