<svg width="60" height="1908" viewBox="0 0 60 1908" fill="none" xmlns="http://www.w3.org/2000/svg">
<path d="M36.2168 -7.49761L35.4254 -10L27.187 -6.53307C22.6839 -4.63498 23.1389 -0.87366 24.235 3C28.6273 1.14452 38.2705 -0.958871 36.2168 -7.49761Z" fill="#58BF90" stroke="#329467"/>
<path d="M36.2168 0.502395L35.4254 -2L27.187 1.46693C22.6839 3.36502 23.1389 7.12634 24.235 11C28.6273 9.14452 38.2705 7.04113 36.2168 0.502395Z" fill="#58BF90" stroke="#329467"/>
<path d="M36.2168 8.50239L35.4254 6L27.187 9.46693C22.6839 11.365 23.1389 15.1263 24.235 19C28.6273 17.1445 38.2705 15.0411 36.2168 8.50239Z" fill="#58BF90" stroke="#329467"/>
<path d="M36.2168 16.5024L35.4254 14L27.187 17.4669C22.6839 19.365 23.1389 23.1263 24.235 27C28.6273 25.1445 38.2705 23.0411 36.2168 16.5024Z" fill="#58BF90" stroke="#329467"/>
<path d="M36.2168 24.5024L35.4254 22L27.187 25.4669C22.6839 27.365 23.1389 31.1263 24.235 35C28.6273 33.1445 38.2705 31.0411 36.2168 24.5024Z" fill="#58BF90" stroke="#329467"/>
<path d="M36.2168 32.5024L35.4254 30L27.187 33.4669C22.6839 35.365 23.1389 39.1263 24.235 43C28.6273 41.1445 38.2705 39.0411 36.2168 32.5024Z" fill="#58BF90" stroke="#329467"/>
<path d="M36.2168 40.5024L35.4254 38L27.187 41.4669C22.6839 43.365 23.1389 47.1263 24.235 51C28.6273 49.1445 38.2705 47.0411 36.2168 40.5024Z" fill="#58BF90" stroke="#329467"/>
<path d="M36.2168 48.5024L35.4254 46L27.187 49.4669C22.6839 51.365 23.1389 55.1263 24.235 59C28.6273 57.1445 38.2705 55.0411 36.2168 48.5024Z" fill="#58BF90" stroke="#329467"/>
<path d="M36.2168 56.5024L35.4254 54L27.187 57.4669C22.6839 59.365 23.1389 63.1263 24.235 67C28.6273 65.1445 38.2705 63.0411 36.2168 56.5024Z" fill="#58BF90" stroke="#329467"/>
<path d="M36.2168 64.5024L35.4254 62L27.187 65.4669C22.6839 67.365 23.1389 71.1263 24.235 75C28.6273 73.1445 38.2705 71.0411 36.2168 64.5024Z" fill="#58BF90" stroke="#329467"/>
<path d="M36.2168 72.5024L35.4254 70L27.187 73.4669C22.6839 75.365 23.1389 79.1263 24.235 83C28.6273 81.1445 38.2705 79.0411 36.2168 72.5024Z" fill="#58BF90" stroke="#329467"/>
<path d="M36.2168 80.5024L35.4254 78L27.187 81.4669C22.6839 83.365 23.1389 87.1263 24.235 91C28.6273 89.1445 38.2705 87.0411 36.2168 80.5024Z" fill="#58BF90" stroke="#329467"/>
<path d="M36.2168 88.5024L35.4254 86L27.187 89.4669C22.6839 91.365 23.1389 95.1263 24.235 99C28.6273 97.1445 38.2705 95.0411 36.2168 88.5024Z" fill="#58BF90" stroke="#329467"/>
<path d="M36.2168 96.5024L35.4254 94L27.187 97.4669C22.6839 99.365 23.1389 103.126 24.235 107C28.6273 105.145 38.2705 103.041 36.2168 96.5024Z" fill="#58BF90" stroke="#329467"/>
<path d="M36.2168 104.502L35.4254 102L27.187 105.467C22.6839 107.365 23.1389 111.126 24.235 115C28.6273 113.145 38.2705 111.041 36.2168 104.502Z" fill="#58BF90" stroke="#329467"/>
<path d="M36.2168 112.502L35.4254 110L27.187 113.467C22.6839 115.365 23.1389 119.126 24.235 123C28.6273 121.145 38.2705 119.041 36.2168 112.502Z" fill="#58BF90" stroke="#329467"/>
<path d="M36.2168 120.502L35.4254 118L27.187 121.467C22.6839 123.365 23.1389 127.126 24.235 131C28.6273 129.145 38.2705 127.041 36.2168 120.502Z" fill="#58BF90" stroke="#329467"/>
<path d="M36.2168 128.502L35.4254 126L27.187 129.467C22.6839 131.365 23.1389 135.126 24.235 139C28.6273 137.145 38.2705 135.041 36.2168 128.502Z" fill="#58BF90" stroke="#329467"/>
<path d="M36.2168 136.502L35.4254 134L27.187 137.467C22.6839 139.365 23.1389 143.126 24.235 147C28.6273 145.145 38.2705 143.041 36.2168 136.502Z" fill="#58BF90" stroke="#329467"/>
<path d="M36.2168 144.502L35.4254 142L27.187 145.467C22.6839 147.365 23.1389 151.126 24.235 155C28.6273 153.145 38.2705 151.041 36.2168 144.502Z" fill="#58BF90" stroke="#329467"/>
<path d="M36.2168 152.502L35.4254 150L27.187 153.467C22.6839 155.365 23.1389 159.126 24.235 163C28.6273 161.145 38.2705 159.041 36.2168 152.502Z" fill="#58BF90" stroke="#329467"/>
<path d="M36.2168 160.502L35.4254 158L27.187 161.467C22.6839 163.365 23.1389 167.126 24.235 171C28.6273 169.145 38.2705 167.041 36.2168 160.502Z" fill="#58BF90" stroke="#329467"/>
<path d="M36.2168 168.502L35.4254 166L27.187 169.467C22.6839 171.365 23.1389 175.126 24.235 179C28.6273 177.145 38.2705 175.041 36.2168 168.502Z" fill="#58BF90" stroke="#329467"/>
<path d="M36.2168 176.502L35.4254 174L27.187 177.467C22.6839 179.365 23.1389 183.126 24.235 187C28.6273 185.145 38.2705 183.041 36.2168 176.502Z" fill="#58BF90" stroke="#329467"/>
<path d="M36.2168 184.502L35.4254 182L27.187 185.467C22.6839 187.365 23.1389 191.126 24.235 195C28.6273 193.145 38.2705 191.041 36.2168 184.502Z" fill="#58BF90" stroke="#329467"/>
<path d="M36.2168 192.502L35.4254 190L27.187 193.467C22.6839 195.365 23.1389 199.126 24.235 203C28.6273 201.145 38.2705 199.041 36.2168 192.502Z" fill="#58BF90" stroke="#329467"/>
<path d="M36.2168 200.502L35.4254 198L27.187 201.467C22.6839 203.365 23.1389 207.126 24.235 211C28.6273 209.145 38.2705 207.041 36.2168 200.502Z" fill="#58BF90" stroke="#329467"/>
<path d="M36.2168 208.502L35.4254 206L27.187 209.467C22.6839 211.365 23.1389 215.126 24.235 219C28.6273 217.145 38.2705 215.041 36.2168 208.502Z" fill="#58BF90" stroke="#329467"/>
<path d="M36.2168 216.502L35.4254 214L27.187 217.467C22.6839 219.365 23.1389 223.126 24.235 227C28.6273 225.145 38.2705 223.041 36.2168 216.502Z" fill="#58BF90" stroke="#329467"/>
<path d="M36.2168 224.502L35.4254 222L27.187 225.467C22.6839 227.365 23.1389 231.126 24.235 235C28.6273 233.145 38.2705 231.041 36.2168 224.502Z" fill="#58BF90" stroke="#329467"/>
<path d="M36.2168 232.502L35.4254 230L27.187 233.467C22.6839 235.365 23.1389 239.126 24.235 243C28.6273 241.145 38.2705 239.041 36.2168 232.502Z" fill="#58BF90" stroke="#329467"/>
<path d="M36.2168 240.502L35.4254 238L27.187 241.467C22.6839 243.365 23.1389 247.126 24.235 251C28.6273 249.145 38.2705 247.041 36.2168 240.502Z" fill="#58BF90" stroke="#329467"/>
<path d="M36.2168 248.502L35.4254 246L27.187 249.467C22.6839 251.365 23.1389 255.126 24.235 259C28.6273 257.145 38.2705 255.041 36.2168 248.502Z" fill="#58BF90" stroke="#329467"/>
<path d="M36.2168 256.502L35.4254 254L27.187 257.467C22.6839 259.365 23.1389 263.126 24.235 267C28.6273 265.145 38.2705 263.041 36.2168 256.502Z" fill="#58BF90" stroke="#329467"/>
<path d="M36.2168 264.502L35.4254 262L27.187 265.467C22.6839 267.365 23.1389 271.126 24.235 275C28.6273 273.145 38.2705 271.041 36.2168 264.502Z" fill="#58BF90" stroke="#329467"/>
<path d="M36.2168 272.502L35.4254 270L27.187 273.467C22.6839 275.365 23.1389 279.126 24.235 283C28.6273 281.145 38.2705 279.041 36.2168 272.502Z" fill="#58BF90" stroke="#329467"/>
<path d="M36.2168 280.502L35.4254 278L27.187 281.467C22.6839 283.365 23.1389 287.126 24.235 291C28.6273 289.145 38.2705 287.041 36.2168 280.502Z" fill="#58BF90" stroke="#329467"/>
<path d="M36.2168 288.502L35.4254 286L27.187 289.467C22.6839 291.365 23.1389 295.126 24.235 299C28.6273 297.145 38.2705 295.041 36.2168 288.502Z" fill="#58BF90" stroke="#329467"/>
<path d="M36.2168 296.502L35.4254 294L27.187 297.467C22.6839 299.365 23.1389 303.126 24.235 307C28.6273 305.145 38.2705 303.041 36.2168 296.502Z" fill="#58BF90" stroke="#329467"/>
<path d="M36.2168 304.502L35.4254 302L27.187 305.467C22.6839 307.365 23.1389 311.126 24.235 315C28.6273 313.145 38.2705 311.041 36.2168 304.502Z" fill="#58BF90" stroke="#329467"/>
<path d="M36.2168 312.502L35.4254 310L27.187 313.467C22.6839 315.365 23.1389 319.126 24.235 323C28.6273 321.145 38.2705 319.041 36.2168 312.502Z" fill="#58BF90" stroke="#329467"/>
<path d="M36.2168 320.502L35.4254 318L27.187 321.467C22.6839 323.365 23.1389 327.126 24.235 331C28.6273 329.145 38.2705 327.041 36.2168 320.502Z" fill="#58BF90" stroke="#329467"/>
<path d="M36.2168 328.502L35.4254 326L27.187 329.467C22.6839 331.365 23.1389 335.126 24.235 339C28.6273 337.145 38.2705 335.041 36.2168 328.502Z" fill="#58BF90" stroke="#329467"/>
<path d="M36.2168 336.502L35.4254 334L27.187 337.467C22.6839 339.365 23.1389 343.126 24.235 347C28.6273 345.145 38.2705 343.041 36.2168 336.502Z" fill="#58BF90" stroke="#329467"/>
<path d="M36.2168 344.502L35.4254 342L27.187 345.467C22.6839 347.365 23.1389 351.126 24.235 355C28.6273 353.145 38.2705 351.041 36.2168 344.502Z" fill="#58BF90" stroke="#329467"/>
<path d="M36.2168 352.502L35.4254 350L27.187 353.467C22.6839 355.365 23.1389 359.126 24.235 363C28.6273 361.145 38.2705 359.041 36.2168 352.502Z" fill="#58BF90" stroke="#329467"/>
<path d="M36.2168 360.502L35.4254 358L27.187 361.467C22.6839 363.365 23.1389 367.126 24.235 371C28.6273 369.145 38.2705 367.041 36.2168 360.502Z" fill="#58BF90" stroke="#329467"/>
<path d="M36.2168 368.502L35.4254 366L27.187 369.467C22.6839 371.365 23.1389 375.126 24.235 379C28.6273 377.145 38.2705 375.041 36.2168 368.502Z" fill="#58BF90" stroke="#329467"/>
<path d="M36.2168 376.502L35.4254 374L27.187 377.467C22.6839 379.365 23.1389 383.126 24.235 387C28.6273 385.145 38.2705 383.041 36.2168 376.502Z" fill="#58BF90" stroke="#329467"/>
<path d="M36.2168 384.502L35.4254 382L27.187 385.467C22.6839 387.365 23.1389 391.126 24.235 395C28.6273 393.145 38.2705 391.041 36.2168 384.502Z" fill="#58BF90" stroke="#329467"/>
<path d="M36.2168 392.502L35.4254 390L27.187 393.467C22.6839 395.365 23.1389 399.126 24.235 403C28.6273 401.145 38.2705 399.041 36.2168 392.502Z" fill="#58BF90" stroke="#329467"/>
<path d="M36.2168 400.502L35.4254 398L27.187 401.467C22.6839 403.365 23.1389 407.126 24.235 411C28.6273 409.145 38.2705 407.041 36.2168 400.502Z" fill="#58BF90" stroke="#329467"/>
<path d="M36.2168 408.502L35.4254 406L27.187 409.467C22.6839 411.365 23.1389 415.126 24.235 419C28.6273 417.145 38.2705 415.041 36.2168 408.502Z" fill="#58BF90" stroke="#329467"/>
<path d="M36.2168 416.502L35.4254 414L27.187 417.467C22.6839 419.365 23.1389 423.126 24.235 427C28.6273 425.145 38.2705 423.041 36.2168 416.502Z" fill="#58BF90" stroke="#329467"/>
<path d="M36.2168 424.502L35.4254 422L27.187 425.467C22.6839 427.365 23.1389 431.126 24.235 435C28.6273 433.145 38.2705 431.041 36.2168 424.502Z" fill="#58BF90" stroke="#329467"/>
<path d="M36.2168 432.502L35.4254 430L27.187 433.467C22.6839 435.365 23.1389 439.126 24.235 443C28.6273 441.145 38.2705 439.041 36.2168 432.502Z" fill="#58BF90" stroke="#329467"/>
<path d="M36.2168 440.502L35.4254 438L27.187 441.467C22.6839 443.365 23.1389 447.126 24.235 451C28.6273 449.145 38.2705 447.041 36.2168 440.502Z" fill="#58BF90" stroke="#329467"/>
<path d="M36.2168 448.502L35.4254 446L27.187 449.467C22.6839 451.365 23.1389 455.126 24.235 459C28.6273 457.145 38.2705 455.041 36.2168 448.502Z" fill="#58BF90" stroke="#329467"/>
<path d="M36.2168 456.502L35.4254 454L27.187 457.467C22.6839 459.365 23.1389 463.126 24.235 467C28.6273 465.145 38.2705 463.041 36.2168 456.502Z" fill="#58BF90" stroke="#329467"/>
<path d="M36.2168 464.502L35.4254 462L27.187 465.467C22.6839 467.365 23.1389 471.126 24.235 475C28.6273 473.145 38.2705 471.041 36.2168 464.502Z" fill="#58BF90" stroke="#329467"/>
<path d="M36.2168 472.502L35.4254 470L27.187 473.467C22.6839 475.365 23.1389 479.126 24.235 483C28.6273 481.145 38.2705 479.041 36.2168 472.502Z" fill="#58BF90" stroke="#329467"/>
<path d="M36.2168 480.502L35.4254 478L27.187 481.467C22.6839 483.365 23.1389 487.126 24.235 491C28.6273 489.145 38.2705 487.041 36.2168 480.502Z" fill="#58BF90" stroke="#329467"/>
<path d="M36.2168 488.502L35.4254 486L27.187 489.467C22.6839 491.365 23.1389 495.126 24.235 499C28.6273 497.145 38.2705 495.041 36.2168 488.502Z" fill="#58BF90" stroke="#329467"/>
<path d="M36.2168 496.502L35.4254 494L27.187 497.467C22.6839 499.365 23.1389 503.126 24.235 507C28.6273 505.145 38.2705 503.041 36.2168 496.502Z" fill="#58BF90" stroke="#329467"/>
<path d="M36.2168 504.502L35.4254 502L27.187 505.467C22.6839 507.365 23.1389 511.126 24.235 515C28.6273 513.145 38.2705 511.041 36.2168 504.502Z" fill="#58BF90" stroke="#329467"/>
<path d="M36.2168 512.502L35.4254 510L27.187 513.467C22.6839 515.365 23.1389 519.126 24.235 523C28.6273 521.145 38.2705 519.041 36.2168 512.502Z" fill="#58BF90" stroke="#329467"/>
<path d="M36.2168 520.502L35.4254 518L27.187 521.467C22.6839 523.365 23.1389 527.126 24.235 531C28.6273 529.145 38.2705 527.041 36.2168 520.502Z" fill="#58BF90" stroke="#329467"/>
<path d="M36.2168 528.502L35.4254 526L27.187 529.467C22.6839 531.365 23.1389 535.126 24.235 539C28.6273 537.145 38.2705 535.041 36.2168 528.502Z" fill="#58BF90" stroke="#329467"/>
<path d="M36.2168 536.502L35.4254 534L27.187 537.467C22.6839 539.365 23.1389 543.126 24.235 547C28.6273 545.145 38.2705 543.041 36.2168 536.502Z" fill="#58BF90" stroke="#329467"/>
<path d="M36.2168 544.502L35.4254 542L27.187 545.467C22.6839 547.365 23.1389 551.126 24.235 555C28.6273 553.145 38.2705 551.041 36.2168 544.502Z" fill="#58BF90" stroke="#329467"/>
<path d="M36.2168 552.502L35.4254 550L27.187 553.467C22.6839 555.365 23.1389 559.126 24.235 563C28.6273 561.145 38.2705 559.041 36.2168 552.502Z" fill="#58BF90" stroke="#329467"/>
<path d="M36.2168 560.502L35.4254 558L27.187 561.467C22.6839 563.365 23.1389 567.126 24.235 571C28.6273 569.145 38.2705 567.041 36.2168 560.502Z" fill="#58BF90" stroke="#329467"/>
<path d="M36.2168 568.502L35.4254 566L27.187 569.467C22.6839 571.365 23.1389 575.126 24.235 579C28.6273 577.145 38.2705 575.041 36.2168 568.502Z" fill="#58BF90" stroke="#329467"/>
<path d="M36.2168 576.502L35.4254 574L27.187 577.467C22.6839 579.365 23.1389 583.126 24.235 587C28.6273 585.145 38.2705 583.041 36.2168 576.502Z" fill="#58BF90" stroke="#329467"/>
<path d="M36.2168 584.502L35.4254 582L27.187 585.467C22.6839 587.365 23.1389 591.126 24.235 595C28.6273 593.145 38.2705 591.041 36.2168 584.502Z" fill="#58BF90" stroke="#329467"/>
<path d="M36.2168 592.502L35.4254 590L27.187 593.467C22.6839 595.365 23.1389 599.126 24.235 603C28.6273 601.145 38.2705 599.041 36.2168 592.502Z" fill="#58BF90" stroke="#329467"/>
<path d="M36.2168 600.502L35.4254 598L27.187 601.467C22.6839 603.365 23.1389 607.126 24.235 611C28.6273 609.145 38.2705 607.041 36.2168 600.502Z" fill="#58BF90" stroke="#329467"/>
<path d="M36.2168 608.502L35.4254 606L27.187 609.467C22.6839 611.365 23.1389 615.126 24.235 619C28.6273 617.145 38.2705 615.041 36.2168 608.502Z" fill="#58BF90" stroke="#329467"/>
<path d="M36.2168 616.502L35.4254 614L27.187 617.467C22.6839 619.365 23.1389 623.126 24.235 627C28.6273 625.145 38.2705 623.041 36.2168 616.502Z" fill="#58BF90" stroke="#329467"/>
<path d="M36.2168 624.502L35.4254 622L27.187 625.467C22.6839 627.365 23.1389 631.126 24.235 635C28.6273 633.145 38.2705 631.041 36.2168 624.502Z" fill="#58BF90" stroke="#329467"/>
<path d="M36.2168 632.502L35.4254 630L27.187 633.467C22.6839 635.365 23.1389 639.126 24.235 643C28.6273 641.145 38.2705 639.041 36.2168 632.502Z" fill="#58BF90" stroke="#329467"/>
<path d="M36.2168 640.502L35.4254 638L27.187 641.467C22.6839 643.365 23.1389 647.126 24.235 651C28.6273 649.145 38.2705 647.041 36.2168 640.502Z" fill="#58BF90" stroke="#329467"/>
<path d="M36.2168 648.502L35.4254 646L27.187 649.467C22.6839 651.365 23.1389 655.126 24.235 659C28.6273 657.145 38.2705 655.041 36.2168 648.502Z" fill="#58BF90" stroke="#329467"/>
<path d="M36.2168 656.502L35.4254 654L27.187 657.467C22.6839 659.365 23.1389 663.126 24.235 667C28.6273 665.145 38.2705 663.041 36.2168 656.502Z" fill="#58BF90" stroke="#329467"/>
<path d="M36.2168 664.502L35.4254 662L27.187 665.467C22.6839 667.365 23.1389 671.126 24.235 675C28.6273 673.145 38.2705 671.041 36.2168 664.502Z" fill="#58BF90" stroke="#329467"/>
<path d="M36.2168 672.502L35.4254 670L27.187 673.467C22.6839 675.365 23.1389 679.126 24.235 683C28.6273 681.145 38.2705 679.041 36.2168 672.502Z" fill="#58BF90" stroke="#329467"/>
<path d="M36.2168 680.502L35.4254 678L27.187 681.467C22.6839 683.365 23.1389 687.126 24.235 691C28.6273 689.145 38.2705 687.041 36.2168 680.502Z" fill="#58BF90" stroke="#329467"/>
<path d="M36.2168 688.502L35.4254 686L27.187 689.467C22.6839 691.365 23.1389 695.126 24.235 699C28.6273 697.145 38.2705 695.041 36.2168 688.502Z" fill="#58BF90" stroke="#329467"/>
<path d="M36.2168 696.502L35.4254 694L27.187 697.467C22.6839 699.365 23.1389 703.126 24.235 707C28.6273 705.145 38.2705 703.041 36.2168 696.502Z" fill="#58BF90" stroke="#329467"/>
<path d="M36.2168 704.502L35.4254 702L27.187 705.467C22.6839 707.365 23.1389 711.126 24.235 715C28.6273 713.145 38.2705 711.041 36.2168 704.502Z" fill="#58BF90" stroke="#329467"/>
<path d="M36.2168 712.502L35.4254 710L27.187 713.467C22.6839 715.365 23.1389 719.126 24.235 723C28.6273 721.145 38.2705 719.041 36.2168 712.502Z" fill="#58BF90" stroke="#329467"/>
<path d="M36.2168 720.502L35.4254 718L27.187 721.467C22.6839 723.365 23.1389 727.126 24.235 731C28.6273 729.145 38.2705 727.041 36.2168 720.502Z" fill="#58BF90" stroke="#329467"/>
<path d="M36.2168 728.502L35.4254 726L27.187 729.467C22.6839 731.365 23.1389 735.126 24.235 739C28.6273 737.145 38.2705 735.041 36.2168 728.502Z" fill="#58BF90" stroke="#329467"/>
<path d="M36.2168 736.502L35.4254 734L27.187 737.467C22.6839 739.365 23.1389 743.126 24.235 747C28.6273 745.145 38.2705 743.041 36.2168 736.502Z" fill="#58BF90" stroke="#329467"/>
<path d="M36.2168 744.502L35.4254 742L27.187 745.467C22.6839 747.365 23.1389 751.126 24.235 755C28.6273 753.145 38.2705 751.041 36.2168 744.502Z" fill="#58BF90" stroke="#329467"/>
<path d="M36.2168 752.502L35.4254 750L27.187 753.467C22.6839 755.365 23.1389 759.126 24.235 763C28.6273 761.145 38.2705 759.041 36.2168 752.502Z" fill="#58BF90" stroke="#329467"/>
<path d="M36.2168 760.502L35.4254 758L27.187 761.467C22.6839 763.365 23.1389 767.126 24.235 771C28.6273 769.145 38.2705 767.041 36.2168 760.502Z" fill="#58BF90" stroke="#329467"/>
<path d="M36.2168 768.502L35.4254 766L27.187 769.467C22.6839 771.365 23.1389 775.126 24.235 779C28.6273 777.145 38.2705 775.041 36.2168 768.502Z" fill="#58BF90" stroke="#329467"/>
<path d="M36.2168 776.502L35.4254 774L27.187 777.467C22.6839 779.365 23.1389 783.126 24.235 787C28.6273 785.145 38.2705 783.041 36.2168 776.502Z" fill="#58BF90" stroke="#329467"/>
<path d="M36.2168 784.502L35.4254 782L27.187 785.467C22.6839 787.365 23.1389 791.126 24.235 795C28.6273 793.145 38.2705 791.041 36.2168 784.502Z" fill="#58BF90" stroke="#329467"/>
<path d="M36.2168 792.502L35.4254 790L27.187 793.467C22.6839 795.365 23.1389 799.126 24.235 803C28.6273 801.145 38.2705 799.041 36.2168 792.502Z" fill="#58BF90" stroke="#329467"/>
<path d="M36.2168 800.502L35.4254 798L27.187 801.467C22.6839 803.365 23.1389 807.126 24.235 811C28.6273 809.145 38.2705 807.041 36.2168 800.502Z" fill="#58BF90" stroke="#329467"/>
<path d="M36.2168 808.502L35.4254 806L27.187 809.467C22.6839 811.365 23.1389 815.126 24.235 819C28.6273 817.145 38.2705 815.041 36.2168 808.502Z" fill="#58BF90" stroke="#329467"/>
<path d="M36.2168 816.502L35.4254 814L27.187 817.467C22.6839 819.365 23.1389 823.126 24.235 827C28.6273 825.145 38.2705 823.041 36.2168 816.502Z" fill="#58BF90" stroke="#329467"/>
<path d="M36.2168 824.502L35.4254 822L27.187 825.467C22.6839 827.365 23.1389 831.126 24.235 835C28.6273 833.145 38.2705 831.041 36.2168 824.502Z" fill="#58BF90" stroke="#329467"/>
<path d="M36.2168 832.502L35.4254 830L27.187 833.467C22.6839 835.365 23.1389 839.126 24.235 843C28.6273 841.145 38.2705 839.041 36.2168 832.502Z" fill="#58BF90" stroke="#329467"/>
<path d="M36.2168 840.502L35.4254 838L27.187 841.467C22.6839 843.365 23.1389 847.126 24.235 851C28.6273 849.145 38.2705 847.041 36.2168 840.502Z" fill="#58BF90" stroke="#329467"/>
<path d="M36.2168 848.502L35.4254 846L27.187 849.467C22.6839 851.365 23.1389 855.126 24.235 859C28.6273 857.145 38.2705 855.041 36.2168 848.502Z" fill="#58BF90" stroke="#329467"/>
<path d="M36.2168 856.502L35.4254 854L27.187 857.467C22.6839 859.365 23.1389 863.126 24.235 867C28.6273 865.145 38.2705 863.041 36.2168 856.502Z" fill="#58BF90" stroke="#329467"/>
<path d="M36.2168 864.502L35.4254 862L27.187 865.467C22.6839 867.365 23.1389 871.126 24.235 875C28.6273 873.145 38.2705 871.041 36.2168 864.502Z" fill="#58BF90" stroke="#329467"/>
<path d="M36.2168 872.502L35.4254 870L27.187 873.467C22.6839 875.365 23.1389 879.126 24.235 883C28.6273 881.145 38.2705 879.041 36.2168 872.502Z" fill="#58BF90" stroke="#329467"/>
<path d="M36.2168 880.502L35.4254 878L27.187 881.467C22.6839 883.365 23.1389 887.126 24.235 891C28.6273 889.145 38.2705 887.041 36.2168 880.502Z" fill="#58BF90" stroke="#329467"/>
<path d="M36.2168 888.502L35.4254 886L27.187 889.467C22.6839 891.365 23.1389 895.126 24.235 899C28.6273 897.145 38.2705 895.041 36.2168 888.502Z" fill="#58BF90" stroke="#329467"/>
<path d="M36.2168 896.502L35.4254 894L27.187 897.467C22.6839 899.365 23.1389 903.126 24.235 907C28.6273 905.145 38.2705 903.041 36.2168 896.502Z" fill="#58BF90" stroke="#329467"/>
<path d="M36.2168 904.502L35.4254 902L27.187 905.467C22.6839 907.365 23.1389 911.126 24.235 915C28.6273 913.145 38.2705 911.041 36.2168 904.502Z" fill="#58BF90" stroke="#329467"/>
<path d="M36.2168 912.502L35.4254 910L27.187 913.467C22.6839 915.365 23.1389 919.126 24.235 923C28.6273 921.145 38.2705 919.041 36.2168 912.502Z" fill="#58BF90" stroke="#329467"/>
<path d="M36.2168 920.502L35.4254 918L27.187 921.467C22.6839 923.365 23.1389 927.126 24.235 931C28.6273 929.145 38.2705 927.041 36.2168 920.502Z" fill="#58BF90" stroke="#329467"/>
<path d="M36.2168 928.502L35.4254 926L27.187 929.467C22.6839 931.365 23.1389 935.126 24.235 939C28.6273 937.145 38.2705 935.041 36.2168 928.502Z" fill="#58BF90" stroke="#329467"/>
<path d="M36.2168 936.502L35.4254 934L27.187 937.467C22.6839 939.365 23.1389 943.126 24.235 947C28.6273 945.145 38.2705 943.041 36.2168 936.502Z" fill="#58BF90" stroke="#329467"/>
<path d="M36.2168 944.502L35.4254 942L27.187 945.467C22.6839 947.365 23.1389 951.126 24.235 955C28.6273 953.145 38.2705 951.041 36.2168 944.502Z" fill="#58BF90" stroke="#329467"/>
<path d="M36.2168 952.502L35.4254 950L27.187 953.467C22.6839 955.365 23.1389 959.126 24.235 963C28.6273 961.145 38.2705 959.041 36.2168 952.502Z" fill="#58BF90" stroke="#329467"/>
<path d="M36.2168 960.502L35.4254 958L27.187 961.467C22.6839 963.365 23.1389 967.126 24.235 971C28.6273 969.145 38.2705 967.041 36.2168 960.502Z" fill="#58BF90" stroke="#329467"/>
<path d="M36.2168 968.502L35.4254 966L27.187 969.467C22.6839 971.365 23.1389 975.126 24.235 979C28.6273 977.145 38.2705 975.041 36.2168 968.502Z" fill="#58BF90" stroke="#329467"/>
<path d="M36.2168 976.502L35.4254 974L27.187 977.467C22.6839 979.365 23.1389 983.126 24.235 987C28.6273 985.145 38.2705 983.041 36.2168 976.502Z" fill="#58BF90" stroke="#329467"/>
<path d="M36.2168 984.502L35.4254 982L27.187 985.467C22.6839 987.365 23.1389 991.126 24.235 995C28.6273 993.145 38.2705 991.041 36.2168 984.502Z" fill="#58BF90" stroke="#329467"/>
<path d="M36.2168 992.502L35.4254 990L27.187 993.467C22.6839 995.365 23.1389 999.126 24.235 1003C28.6273 1001.14 38.2705 999.041 36.2168 992.502Z" fill="#58BF90" stroke="#329467"/>
<path d="M36.2168 1000.5L35.4254 998L27.187 1001.47C22.6839 1003.37 23.1389 1007.13 24.235 1011C28.6273 1009.14 38.2705 1007.04 36.2168 1000.5Z" fill="#58BF90" stroke="#329467"/>
<path d="M36.2168 1008.5L35.4254 1006L27.187 1009.47C22.6839 1011.37 23.1389 1015.13 24.235 1019C28.6273 1017.14 38.2705 1015.04 36.2168 1008.5Z" fill="#58BF90" stroke="#329467"/>
<path d="M36.2168 1016.5L35.4254 1014L27.187 1017.47C22.6839 1019.37 23.1389 1023.13 24.235 1027C28.6273 1025.14 38.2705 1023.04 36.2168 1016.5Z" fill="#58BF90" stroke="#329467"/>
<path d="M36.2168 1024.5L35.4254 1022L27.187 1025.47C22.6839 1027.37 23.1389 1031.13 24.235 1035C28.6273 1033.14 38.2705 1031.04 36.2168 1024.5Z" fill="#58BF90" stroke="#329467"/>
<path d="M36.2168 1032.5L35.4254 1030L27.187 1033.47C22.6839 1035.37 23.1389 1039.13 24.235 1043C28.6273 1041.14 38.2705 1039.04 36.2168 1032.5Z" fill="#58BF90" stroke="#329467"/>
<path d="M36.2168 1040.5L35.4254 1038L27.187 1041.47C22.6839 1043.37 23.1389 1047.13 24.235 1051C28.6273 1049.14 38.2705 1047.04 36.2168 1040.5Z" fill="#58BF90" stroke="#329467"/>
<path d="M36.2168 1048.5L35.4254 1046L27.187 1049.47C22.6839 1051.37 23.1389 1055.13 24.235 1059C28.6273 1057.14 38.2705 1055.04 36.2168 1048.5Z" fill="#58BF90" stroke="#329467"/>
<path d="M36.2168 1056.5L35.4254 1054L27.187 1057.47C22.6839 1059.37 23.1389 1063.13 24.235 1067C28.6273 1065.14 38.2705 1063.04 36.2168 1056.5Z" fill="#58BF90" stroke="#329467"/>
<path d="M36.2168 1064.5L35.4254 1062L27.187 1065.47C22.6839 1067.37 23.1389 1071.13 24.235 1075C28.6273 1073.14 38.2705 1071.04 36.2168 1064.5Z" fill="#58BF90" stroke="#329467"/>
<path d="M36.2168 1072.5L35.4254 1070L27.187 1073.47C22.6839 1075.37 23.1389 1079.13 24.235 1083C28.6273 1081.14 38.2705 1079.04 36.2168 1072.5Z" fill="#58BF90" stroke="#329467"/>
<path d="M36.2168 1080.5L35.4254 1078L27.187 1081.47C22.6839 1083.37 23.1389 1087.13 24.235 1091C28.6273 1089.14 38.2705 1087.04 36.2168 1080.5Z" fill="#58BF90" stroke="#329467"/>
<path d="M36.2168 1088.5L35.4254 1086L27.187 1089.47C22.6839 1091.37 23.1389 1095.13 24.235 1099C28.6273 1097.14 38.2705 1095.04 36.2168 1088.5Z" fill="#58BF90" stroke="#329467"/>
<path d="M36.2168 1096.5L35.4254 1094L27.187 1097.47C22.6839 1099.37 23.1389 1103.13 24.235 1107C28.6273 1105.14 38.2705 1103.04 36.2168 1096.5Z" fill="#58BF90" stroke="#329467"/>
<path d="M36.2168 1104.5L35.4254 1102L27.187 1105.47C22.6839 1107.37 23.1389 1111.13 24.235 1115C28.6273 1113.14 38.2705 1111.04 36.2168 1104.5Z" fill="#58BF90" stroke="#329467"/>
<path d="M36.2168 1112.5L35.4254 1110L27.187 1113.47C22.6839 1115.37 23.1389 1119.13 24.235 1123C28.6273 1121.14 38.2705 1119.04 36.2168 1112.5Z" fill="#58BF90" stroke="#329467"/>
<path d="M36.2168 1120.5L35.4254 1118L27.187 1121.47C22.6839 1123.37 23.1389 1127.13 24.235 1131C28.6273 1129.14 38.2705 1127.04 36.2168 1120.5Z" fill="#58BF90" stroke="#329467"/>
<path d="M36.2168 1128.5L35.4254 1126L27.187 1129.47C22.6839 1131.37 23.1389 1135.13 24.235 1139C28.6273 1137.14 38.2705 1135.04 36.2168 1128.5Z" fill="#58BF90" stroke="#329467"/>
<path d="M36.2168 1136.5L35.4254 1134L27.187 1137.47C22.6839 1139.37 23.1389 1143.13 24.235 1147C28.6273 1145.14 38.2705 1143.04 36.2168 1136.5Z" fill="#58BF90" stroke="#329467"/>
<path d="M36.2168 1144.5L35.4254 1142L27.187 1145.47C22.6839 1147.37 23.1389 1151.13 24.235 1155C28.6273 1153.14 38.2705 1151.04 36.2168 1144.5Z" fill="#58BF90" stroke="#329467"/>
<path d="M36.2168 1152.5L35.4254 1150L27.187 1153.47C22.6839 1155.37 23.1389 1159.13 24.235 1163C28.6273 1161.14 38.2705 1159.04 36.2168 1152.5Z" fill="#58BF90" stroke="#329467"/>
<path d="M36.2168 1160.5L35.4254 1158L27.187 1161.47C22.6839 1163.37 23.1389 1167.13 24.235 1171C28.6273 1169.14 38.2705 1167.04 36.2168 1160.5Z" fill="#58BF90" stroke="#329467"/>
<path d="M36.2168 1168.5L35.4254 1166L27.187 1169.47C22.6839 1171.37 23.1389 1175.13 24.235 1179C28.6273 1177.14 38.2705 1175.04 36.2168 1168.5Z" fill="#58BF90" stroke="#329467"/>
<path d="M36.2168 1176.5L35.4254 1174L27.187 1177.47C22.6839 1179.37 23.1389 1183.13 24.235 1187C28.6273 1185.14 38.2705 1183.04 36.2168 1176.5Z" fill="#58BF90" stroke="#329467"/>
<path d="M36.2168 1184.5L35.4254 1182L27.187 1185.47C22.6839 1187.37 23.1389 1191.13 24.235 1195C28.6273 1193.14 38.2705 1191.04 36.2168 1184.5Z" fill="#58BF90" stroke="#329467"/>
<path d="M36.2168 1192.5L35.4254 1190L27.187 1193.47C22.6839 1195.37 23.1389 1199.13 24.235 1203C28.6273 1201.14 38.2705 1199.04 36.2168 1192.5Z" fill="#58BF90" stroke="#329467"/>
<path d="M36.2168 1200.5L35.4254 1198L27.187 1201.47C22.6839 1203.37 23.1389 1207.13 24.235 1211C28.6273 1209.14 38.2705 1207.04 36.2168 1200.5Z" fill="#58BF90" stroke="#329467"/>
<path d="M36.2168 1208.5L35.4254 1206L27.187 1209.47C22.6839 1211.37 23.1389 1215.13 24.235 1219C28.6273 1217.14 38.2705 1215.04 36.2168 1208.5Z" fill="#58BF90" stroke="#329467"/>
<path d="M36.2168 1216.5L35.4254 1214L27.187 1217.47C22.6839 1219.37 23.1389 1223.13 24.235 1227C28.6273 1225.14 38.2705 1223.04 36.2168 1216.5Z" fill="#58BF90" stroke="#329467"/>
<path d="M36.2168 1224.5L35.4254 1222L27.187 1225.47C22.6839 1227.37 23.1389 1231.13 24.235 1235C28.6273 1233.14 38.2705 1231.04 36.2168 1224.5Z" fill="#58BF90" stroke="#329467"/>
<path d="M36.2168 1232.5L35.4254 1230L27.187 1233.47C22.6839 1235.37 23.1389 1239.13 24.235 1243C28.6273 1241.14 38.2705 1239.04 36.2168 1232.5Z" fill="#58BF90" stroke="#329467"/>
<path d="M36.2168 1240.5L35.4254 1238L27.187 1241.47C22.6839 1243.37 23.1389 1247.13 24.235 1251C28.6273 1249.14 38.2705 1247.04 36.2168 1240.5Z" fill="#58BF90" stroke="#329467"/>
<path d="M36.2168 1248.5L35.4254 1246L27.187 1249.47C22.6839 1251.37 23.1389 1255.13 24.235 1259C28.6273 1257.14 38.2705 1255.04 36.2168 1248.5Z" fill="#58BF90" stroke="#329467"/>
<path d="M36.2168 1256.5L35.4254 1254L27.187 1257.47C22.6839 1259.37 23.1389 1263.13 24.235 1267C28.6273 1265.14 38.2705 1263.04 36.2168 1256.5Z" fill="#58BF90" stroke="#329467"/>
<path d="M36.2168 1264.5L35.4254 1262L27.187 1265.47C22.6839 1267.37 23.1389 1271.13 24.235 1275C28.6273 1273.14 38.2705 1271.04 36.2168 1264.5Z" fill="#58BF90" stroke="#329467"/>
<path d="M36.2168 1272.5L35.4254 1270L27.187 1273.47C22.6839 1275.37 23.1389 1279.13 24.235 1283C28.6273 1281.14 38.2705 1279.04 36.2168 1272.5Z" fill="#58BF90" stroke="#329467"/>
<path d="M36.2168 1280.5L35.4254 1278L27.187 1281.47C22.6839 1283.37 23.1389 1287.13 24.235 1291C28.6273 1289.14 38.2705 1287.04 36.2168 1280.5Z" fill="#58BF90" stroke="#329467"/>
<path d="M36.2168 1288.5L35.4254 1286L27.187 1289.47C22.6839 1291.37 23.1389 1295.13 24.235 1299C28.6273 1297.14 38.2705 1295.04 36.2168 1288.5Z" fill="#58BF90" stroke="#329467"/>
<path d="M36.2168 1296.5L35.4254 1294L27.187 1297.47C22.6839 1299.37 23.1389 1303.13 24.235 1307C28.6273 1305.14 38.2705 1303.04 36.2168 1296.5Z" fill="#58BF90" stroke="#329467"/>
<path d="M36.2168 1304.5L35.4254 1302L27.187 1305.47C22.6839 1307.37 23.1389 1311.13 24.235 1315C28.6273 1313.14 38.2705 1311.04 36.2168 1304.5Z" fill="#58BF90" stroke="#329467"/>
<path d="M36.2168 1312.5L35.4254 1310L27.187 1313.47C22.6839 1315.37 23.1389 1319.13 24.235 1323C28.6273 1321.14 38.2705 1319.04 36.2168 1312.5Z" fill="#58BF90" stroke="#329467"/>
<path d="M36.2168 1320.5L35.4254 1318L27.187 1321.47C22.6839 1323.37 23.1389 1327.13 24.235 1331C28.6273 1329.14 38.2705 1327.04 36.2168 1320.5Z" fill="#58BF90" stroke="#329467"/>
<path d="M36.2168 1328.5L35.4254 1326L27.187 1329.47C22.6839 1331.37 23.1389 1335.13 24.235 1339C28.6273 1337.14 38.2705 1335.04 36.2168 1328.5Z" fill="#58BF90" stroke="#329467"/>
<path d="M36.2168 1336.5L35.4254 1334L27.187 1337.47C22.6839 1339.37 23.1389 1343.13 24.235 1347C28.6273 1345.14 38.2705 1343.04 36.2168 1336.5Z" fill="#58BF90" stroke="#329467"/>
<path d="M36.2168 1344.5L35.4254 1342L27.187 1345.47C22.6839 1347.37 23.1389 1351.13 24.235 1355C28.6273 1353.14 38.2705 1351.04 36.2168 1344.5Z" fill="#58BF90" stroke="#329467"/>
<path d="M36.2168 1352.5L35.4254 1350L27.187 1353.47C22.6839 1355.37 23.1389 1359.13 24.235 1363C28.6273 1361.14 38.2705 1359.04 36.2168 1352.5Z" fill="#58BF90" stroke="#329467"/>
<path d="M36.2168 1360.5L35.4254 1358L27.187 1361.47C22.6839 1363.37 23.1389 1367.13 24.235 1371C28.6273 1369.14 38.2705 1367.04 36.2168 1360.5Z" fill="#58BF90" stroke="#329467"/>
<path d="M36.2168 1368.5L35.4254 1366L27.187 1369.47C22.6839 1371.37 23.1389 1375.13 24.235 1379C28.6273 1377.14 38.2705 1375.04 36.2168 1368.5Z" fill="#58BF90" stroke="#329467"/>
<path d="M36.2168 1376.5L35.4254 1374L27.187 1377.47C22.6839 1379.37 23.1389 1383.13 24.235 1387C28.6273 1385.14 38.2705 1383.04 36.2168 1376.5Z" fill="#58BF90" stroke="#329467"/>
<path d="M36.2168 1384.5L35.4254 1382L27.187 1385.47C22.6839 1387.37 23.1389 1391.13 24.235 1395C28.6273 1393.14 38.2705 1391.04 36.2168 1384.5Z" fill="#58BF90" stroke="#329467"/>
<path d="M36.2168 1392.5L35.4254 1390L27.187 1393.47C22.6839 1395.37 23.1389 1399.13 24.235 1403C28.6273 1401.14 38.2705 1399.04 36.2168 1392.5Z" fill="#58BF90" stroke="#329467"/>
<path d="M36.2168 1400.5L35.4254 1398L27.187 1401.47C22.6839 1403.37 23.1389 1407.13 24.235 1411C28.6273 1409.14 38.2705 1407.04 36.2168 1400.5Z" fill="#58BF90" stroke="#329467"/>
<path d="M36.2168 1408.5L35.4254 1406L27.187 1409.47C22.6839 1411.37 23.1389 1415.13 24.235 1419C28.6273 1417.14 38.2705 1415.04 36.2168 1408.5Z" fill="#58BF90" stroke="#329467"/>
<path d="M36.2168 1416.5L35.4254 1414L27.187 1417.47C22.6839 1419.37 23.1389 1423.13 24.235 1427C28.6273 1425.14 38.2705 1423.04 36.2168 1416.5Z" fill="#58BF90" stroke="#329467"/>
<path d="M36.2168 1424.5L35.4254 1422L27.187 1425.47C22.6839 1427.37 23.1389 1431.13 24.235 1435C28.6273 1433.14 38.2705 1431.04 36.2168 1424.5Z" fill="#58BF90" stroke="#329467"/>
<path d="M36.2168 1432.5L35.4254 1430L27.187 1433.47C22.6839 1435.37 23.1389 1439.13 24.235 1443C28.6273 1441.14 38.2705 1439.04 36.2168 1432.5Z" fill="#58BF90" stroke="#329467"/>
<path d="M36.2168 1440.5L35.4254 1438L27.187 1441.47C22.6839 1443.37 23.1389 1447.13 24.235 1451C28.6273 1449.14 38.2705 1447.04 36.2168 1440.5Z" fill="#58BF90" stroke="#329467"/>
<path d="M36.2168 1448.5L35.4254 1446L27.187 1449.47C22.6839 1451.37 23.1389 1455.13 24.235 1459C28.6273 1457.14 38.2705 1455.04 36.2168 1448.5Z" fill="#58BF90" stroke="#329467"/>
<path d="M36.2168 1456.5L35.4254 1454L27.187 1457.47C22.6839 1459.37 23.1389 1463.13 24.235 1467C28.6273 1465.14 38.2705 1463.04 36.2168 1456.5Z" fill="#58BF90" stroke="#329467"/>
<path d="M36.2168 1464.5L35.4254 1462L27.187 1465.47C22.6839 1467.37 23.1389 1471.13 24.235 1475C28.6273 1473.14 38.2705 1471.04 36.2168 1464.5Z" fill="#58BF90" stroke="#329467"/>
<path d="M36.2168 1472.5L35.4254 1470L27.187 1473.47C22.6839 1475.37 23.1389 1479.13 24.235 1483C28.6273 1481.14 38.2705 1479.04 36.2168 1472.5Z" fill="#58BF90" stroke="#329467"/>
<path d="M36.2168 1480.5L35.4254 1478L27.187 1481.47C22.6839 1483.37 23.1389 1487.13 24.235 1491C28.6273 1489.14 38.2705 1487.04 36.2168 1480.5Z" fill="#58BF90" stroke="#329467"/>
<path d="M36.2168 1488.5L35.4254 1486L27.187 1489.47C22.6839 1491.37 23.1389 1495.13 24.235 1499C28.6273 1497.14 38.2705 1495.04 36.2168 1488.5Z" fill="#58BF90" stroke="#329467"/>
<path d="M36.2168 1496.5L35.4254 1494L27.187 1497.47C22.6839 1499.37 23.1389 1503.13 24.235 1507C28.6273 1505.14 38.2705 1503.04 36.2168 1496.5Z" fill="#58BF90" stroke="#329467"/>
<path d="M36.2168 1504.5L35.4254 1502L27.187 1505.47C22.6839 1507.37 23.1389 1511.13 24.235 1515C28.6273 1513.14 38.2705 1511.04 36.2168 1504.5Z" fill="#58BF90" stroke="#329467"/>
<path d="M36.2168 1512.5L35.4254 1510L27.187 1513.47C22.6839 1515.37 23.1389 1519.13 24.235 1523C28.6273 1521.14 38.2705 1519.04 36.2168 1512.5Z" fill="#58BF90" stroke="#329467"/>
<path d="M36.2168 1520.5L35.4254 1518L27.187 1521.47C22.6839 1523.37 23.1389 1527.13 24.235 1531C28.6273 1529.14 38.2705 1527.04 36.2168 1520.5Z" fill="#58BF90" stroke="#329467"/>
<path d="M36.2168 1528.5L35.4254 1526L27.187 1529.47C22.6839 1531.37 23.1389 1535.13 24.235 1539C28.6273 1537.14 38.2705 1535.04 36.2168 1528.5Z" fill="#58BF90" stroke="#329467"/>
<path d="M36.2168 1536.5L35.4254 1534L27.187 1537.47C22.6839 1539.37 23.1389 1543.13 24.235 1547C28.6273 1545.14 38.2705 1543.04 36.2168 1536.5Z" fill="#58BF90" stroke="#329467"/>
<path d="M36.2168 1544.5L35.4254 1542L27.187 1545.47C22.6839 1547.37 23.1389 1551.13 24.235 1555C28.6273 1553.14 38.2705 1551.04 36.2168 1544.5Z" fill="#58BF90" stroke="#329467"/>
<path d="M36.2168 1552.5L35.4254 1550L27.187 1553.47C22.6839 1555.37 23.1389 1559.13 24.235 1563C28.6273 1561.14 38.2705 1559.04 36.2168 1552.5Z" fill="#58BF90" stroke="#329467"/>
<path d="M36.2168 1560.5L35.4254 1558L27.187 1561.47C22.6839 1563.37 23.1389 1567.13 24.235 1571C28.6273 1569.14 38.2705 1567.04 36.2168 1560.5Z" fill="#58BF90" stroke="#329467"/>
<path d="M36.2168 1568.5L35.4254 1566L27.187 1569.47C22.6839 1571.37 23.1389 1575.13 24.235 1579C28.6273 1577.14 38.2705 1575.04 36.2168 1568.5Z" fill="#58BF90" stroke="#329467"/>
<path d="M36.2168 1576.5L35.4254 1574L27.187 1577.47C22.6839 1579.37 23.1389 1583.13 24.235 1587C28.6273 1585.14 38.2705 1583.04 36.2168 1576.5Z" fill="#58BF90" stroke="#329467"/>
<path d="M36.2168 1584.5L35.4254 1582L27.187 1585.47C22.6839 1587.37 23.1389 1591.13 24.235 1595C28.6273 1593.14 38.2705 1591.04 36.2168 1584.5Z" fill="#58BF90" stroke="#329467"/>
<path d="M36.2168 1592.5L35.4254 1590L27.187 1593.47C22.6839 1595.37 23.1389 1599.13 24.235 1603C28.6273 1601.14 38.2705 1599.04 36.2168 1592.5Z" fill="#58BF90" stroke="#329467"/>
<path d="M36.2168 1600.5L35.4254 1598L27.187 1601.47C22.6839 1603.37 23.1389 1607.13 24.235 1611C28.6273 1609.14 38.2705 1607.04 36.2168 1600.5Z" fill="#58BF90" stroke="#329467"/>
<path d="M36.2168 1608.5L35.4254 1606L27.187 1609.47C22.6839 1611.37 23.1389 1615.13 24.235 1619C28.6273 1617.14 38.2705 1615.04 36.2168 1608.5Z" fill="#58BF90" stroke="#329467"/>
<path d="M36.2168 1616.5L35.4254 1614L27.187 1617.47C22.6839 1619.37 23.1389 1623.13 24.235 1627C28.6273 1625.14 38.2705 1623.04 36.2168 1616.5Z" fill="#58BF90" stroke="#329467"/>
<path d="M36.2168 1624.5L35.4254 1622L27.187 1625.47C22.6839 1627.37 23.1389 1631.13 24.235 1635C28.6273 1633.14 38.2705 1631.04 36.2168 1624.5Z" fill="#58BF90" stroke="#329467"/>
<path d="M36.2168 1632.5L35.4254 1630L27.187 1633.47C22.6839 1635.37 23.1389 1639.13 24.235 1643C28.6273 1641.14 38.2705 1639.04 36.2168 1632.5Z" fill="#58BF90" stroke="#329467"/>
<path d="M36.2168 1640.5L35.4254 1638L27.187 1641.47C22.6839 1643.37 23.1389 1647.13 24.235 1651C28.6273 1649.14 38.2705 1647.04 36.2168 1640.5Z" fill="#58BF90" stroke="#329467"/>
<path d="M36.2168 1648.5L35.4254 1646L27.187 1649.47C22.6839 1651.37 23.1389 1655.13 24.235 1659C28.6273 1657.14 38.2705 1655.04 36.2168 1648.5Z" fill="#58BF90" stroke="#329467"/>
<path d="M36.2168 1656.5L35.4254 1654L27.187 1657.47C22.6839 1659.37 23.1389 1663.13 24.235 1667C28.6273 1665.14 38.2705 1663.04 36.2168 1656.5Z" fill="#58BF90" stroke="#329467"/>
<path d="M36.2168 1664.5L35.4254 1662L27.187 1665.47C22.6839 1667.37 23.1389 1671.13 24.235 1675C28.6273 1673.14 38.2705 1671.04 36.2168 1664.5Z" fill="#58BF90" stroke="#329467"/>
<path d="M36.2168 1672.5L35.4254 1670L27.187 1673.47C22.6839 1675.37 23.1389 1679.13 24.235 1683C28.6273 1681.14 38.2705 1679.04 36.2168 1672.5Z" fill="#58BF90" stroke="#329467"/>
<path d="M36.2168 1680.5L35.4254 1678L27.187 1681.47C22.6839 1683.37 23.1389 1687.13 24.235 1691C28.6273 1689.14 38.2705 1687.04 36.2168 1680.5Z" fill="#58BF90" stroke="#329467"/>
<path d="M36.2168 1688.5L35.4254 1686L27.187 1689.47C22.6839 1691.37 23.1389 1695.13 24.235 1699C28.6273 1697.14 38.2705 1695.04 36.2168 1688.5Z" fill="#58BF90" stroke="#329467"/>
<path d="M36.2168 1696.5L35.4254 1694L27.187 1697.47C22.6839 1699.37 23.1389 1703.13 24.235 1707C28.6273 1705.14 38.2705 1703.04 36.2168 1696.5Z" fill="#58BF90" stroke="#329467"/>
<path d="M36.2168 1704.5L35.4254 1702L27.187 1705.47C22.6839 1707.37 23.1389 1711.13 24.235 1715C28.6273 1713.14 38.2705 1711.04 36.2168 1704.5Z" fill="#58BF90" stroke="#329467"/>
<path d="M36.2168 1712.5L35.4254 1710L27.187 1713.47C22.6839 1715.37 23.1389 1719.13 24.235 1723C28.6273 1721.14 38.2705 1719.04 36.2168 1712.5Z" fill="#58BF90" stroke="#329467"/>
<path d="M36.2168 1720.5L35.4254 1718L27.187 1721.47C22.6839 1723.37 23.1389 1727.13 24.235 1731C28.6273 1729.14 38.2705 1727.04 36.2168 1720.5Z" fill="#58BF90" stroke="#329467"/>
<path d="M36.2168 1728.5L35.4254 1726L27.187 1729.47C22.6839 1731.37 23.1389 1735.13 24.235 1739C28.6273 1737.14 38.2705 1735.04 36.2168 1728.5Z" fill="#58BF90" stroke="#329467"/>
<path d="M36.2168 1736.5L35.4254 1734L27.187 1737.47C22.6839 1739.37 23.1389 1743.13 24.235 1747C28.6273 1745.14 38.2705 1743.04 36.2168 1736.5Z" fill="#58BF90" stroke="#329467"/>
<path d="M36.2168 1744.5L35.4254 1742L27.187 1745.47C22.6839 1747.37 23.1389 1751.13 24.235 1755C28.6273 1753.14 38.2705 1751.04 36.2168 1744.5Z" fill="#58BF90" stroke="#329467"/>
<path d="M36.2168 1752.5L35.4254 1750L27.187 1753.47C22.6839 1755.37 23.1389 1759.13 24.235 1763C28.6273 1761.14 38.2705 1759.04 36.2168 1752.5Z" fill="#58BF90" stroke="#329467"/>
<path d="M36.2168 1760.5L35.4254 1758L27.187 1761.47C22.6839 1763.37 23.1389 1767.13 24.235 1771C28.6273 1769.14 38.2705 1767.04 36.2168 1760.5Z" fill="#58BF90" stroke="#329467"/>
<path d="M36.2168 1768.5L35.4254 1766L27.187 1769.47C22.6839 1771.37 23.1389 1775.13 24.235 1779C28.6273 1777.14 38.2705 1775.04 36.2168 1768.5Z" fill="#58BF90" stroke="#329467"/>
<path d="M36.2168 1776.5L35.4254 1774L27.187 1777.47C22.6839 1779.37 23.1389 1783.13 24.235 1787C28.6273 1785.14 38.2705 1783.04 36.2168 1776.5Z" fill="#58BF90" stroke="#329467"/>
<path d="M36.2168 1784.5L35.4254 1782L27.187 1785.47C22.6839 1787.37 23.1389 1791.13 24.235 1795C28.6273 1793.14 38.2705 1791.04 36.2168 1784.5Z" fill="#58BF90" stroke="#329467"/>
<path d="M36.2168 1792.5L35.4254 1790L27.187 1793.47C22.6839 1795.37 23.1389 1799.13 24.235 1803C28.6273 1801.14 38.2705 1799.04 36.2168 1792.5Z" fill="#58BF90" stroke="#329467"/>
<path d="M36.2168 1800.5L35.4254 1798L27.187 1801.47C22.6839 1803.37 23.1389 1807.13 24.235 1811C28.6273 1809.14 38.2705 1807.04 36.2168 1800.5Z" fill="#58BF90" stroke="#329467"/>
<path d="M36.2168 1808.5L35.4254 1806L27.187 1809.47C22.6839 1811.37 23.1389 1815.13 24.235 1819C28.6273 1817.14 38.2705 1815.04 36.2168 1808.5Z" fill="#58BF90" stroke="#329467"/>
<path d="M36.2168 1816.5L35.4254 1814L27.187 1817.47C22.6839 1819.37 23.1389 1823.13 24.235 1827C28.6273 1825.14 38.2705 1823.04 36.2168 1816.5Z" fill="#58BF90" stroke="#329467"/>
<path d="M36.2168 1824.5L35.4254 1822L27.187 1825.47C22.6839 1827.37 23.1389 1831.13 24.235 1835C28.6273 1833.14 38.2705 1831.04 36.2168 1824.5Z" fill="#58BF90" stroke="#329467"/>
<path d="M36.2168 1832.5L35.4254 1830L27.187 1833.47C22.6839 1835.37 23.1389 1839.13 24.235 1843C28.6273 1841.14 38.2705 1839.04 36.2168 1832.5Z" fill="#58BF90" stroke="#329467"/>
<path d="M36.2168 1840.5L35.4254 1838L27.187 1841.47C22.6839 1843.37 23.1389 1847.13 24.235 1851C28.6273 1849.14 38.2705 1847.04 36.2168 1840.5Z" fill="#58BF90" stroke="#329467"/>
<path d="M36.2168 1848.5L35.4254 1846L27.187 1849.47C22.6839 1851.37 23.1389 1855.13 24.235 1859C28.6273 1857.14 38.2705 1855.04 36.2168 1848.5Z" fill="#58BF90" stroke="#329467"/>
<path d="M36.2168 1856.5L35.4254 1854L27.187 1857.47C22.6839 1859.37 23.1389 1863.13 24.235 1867C28.6273 1865.14 38.2705 1863.04 36.2168 1856.5Z" fill="#58BF90" stroke="#329467"/>
<path d="M36.2168 1864.5L35.4254 1862L27.187 1865.47C22.6839 1867.37 23.1389 1871.13 24.235 1875C28.6273 1873.14 38.2705 1871.04 36.2168 1864.5Z" fill="#58BF90" stroke="#329467"/>
<path d="M36.2168 1872.5L35.4254 1870L27.187 1873.47C22.6839 1875.37 23.1389 1879.13 24.235 1883C28.6273 1881.14 38.2705 1879.04 36.2168 1872.5Z" fill="#58BF90" stroke="#329467"/>
<path d="M36.2168 1880.5L35.4254 1878L27.187 1881.47C22.6839 1883.37 23.1389 1887.13 24.235 1891C28.6273 1889.14 38.2705 1887.04 36.2168 1880.5Z" fill="#58BF90" stroke="#329467"/>
<path d="M36.2168 1888.5L35.4254 1886L27.187 1889.47C22.6839 1891.37 23.1389 1895.13 24.235 1899C28.6273 1897.14 38.2705 1895.04 36.2168 1888.5Z" fill="#58BF90" stroke="#329467"/>
<path d="M36.2168 1896.5L35.4254 1894L27.187 1897.47C22.6839 1899.37 23.1389 1903.13 24.235 1907C28.6273 1905.14 38.2705 1903.04 36.2168 1896.5Z" fill="#58BF90" stroke="#329467"/>
</svg>
