<svg width="62" height="44" viewBox="0 0 62 44" fill="none" xmlns="http://www.w3.org/2000/svg">
<path d="M35.674 29.7719C37.0075 29.0986 37.8331 27.9334 38.3195 26.5483C40.0732 21.5538 35.2157 17.4359 30.5591 18.2601C28.9669 18.4706 27.7701 19.7165 28.6021 21.1161C30.6491 24.5592 34.5258 25.6239 35.674 29.7719Z" fill="#EDEDED" stroke="#D2D2D2"/>
<path d="M37.9015 20.6105C38.6259 19.3041 38.6536 17.8763 38.2771 16.4574C36.9197 11.341 30.5874 10.6662 27.1997 13.9656C26.0013 15.0348 25.7119 16.738 27.1869 17.4277C30.8154 19.1245 34.62 17.8256 37.9015 20.6105Z" fill="#EDEDED" stroke="#D2D2D2"/>
<path d="M34.5949 11.7924C34.4595 10.3048 33.6798 9.10841 32.5708 8.1466C28.5718 4.67836 22.9556 7.68013 22.0087 12.3133C21.6187 13.8713 22.3368 15.4425 23.9444 15.1838C27.8991 14.5471 30.3154 11.334 34.5949 11.7924Z" fill="#EDEDED" stroke="#D2D2D2"/>
<path d="M26.9046 6.34812C25.9563 5.19393 24.6388 4.64285 23.181 4.47087C17.924 3.85072 14.9668 9.49054 16.7884 13.8546C17.3417 15.3623 18.8189 16.258 20.0029 15.1403C22.9156 12.3905 23.1076 8.37485 26.9046 6.34812Z" fill="#EDEDED" stroke="#D2D2D2"/>
<path d="M17.4829 6.18149C16.0498 5.76006 14.6505 6.04495 13.3481 6.7223C8.65185 9.16479 9.37679 15.4915 13.3366 18.0765C14.6419 19.0124 16.3671 18.9227 16.7179 17.3327C17.5809 13.4211 15.4822 9.99218 17.4829 6.18149Z" fill="#EDEDED" stroke="#D2D2D2"/>
<path d="M32.4845 33.6069C33.9605 33.377 35.1048 32.5226 35.994 31.3546C39.2005 27.1428 35.8471 21.7292 31.163 21.0794C29.5833 20.7895 28.061 21.6062 28.4217 23.194C29.3089 27.1001 32.6694 29.3069 32.4845 33.6069Z" fill="#EDEDED" stroke="#D2D2D2"/>
<path d="M58.4976 15.7832L61 16.5746L57.5331 24.813C55.635 29.3161 51.8737 28.8611 48 27.765C49.8555 23.3727 51.9589 13.7295 58.4976 15.7832Z" fill="#EDEDED" stroke="#D2D2D2"/>
<path d="M50.4976 15.7832L53 16.5746L49.5331 24.813C47.635 29.3161 43.8737 28.8611 40 27.765C41.8555 23.3727 43.9589 13.7295 50.4976 15.7832Z" fill="#EDEDED" stroke="#D2D2D2"/>
<path d="M42.4976 15.7832L45 16.5746L41.5331 24.813C39.635 29.3161 35.8737 28.8611 32 27.765C33.8555 23.3727 35.9589 13.7295 42.4976 15.7832Z" fill="#EDEDED" stroke="#D2D2D2"/>
<path d="M34.4976 15.7832L37 16.5746L33.5331 24.813C31.635 29.3161 27.8737 28.8611 24 27.765C25.8555 23.3727 27.9589 13.7295 34.4976 15.7832Z" fill="#EDEDED" stroke="#D2D2D2"/>
<path d="M26.4976 15.7832L29 16.5746L25.5331 24.813C23.635 29.3161 19.8737 28.8611 16 27.765C17.8555 23.3727 19.9589 13.7295 26.4976 15.7832Z" fill="#EDEDED" stroke="#D2D2D2"/>
<path d="M28.2168 -3.49761L27.4254 -6L19.187 -2.53307C14.6839 -0.634978 15.1389 3.12634 16.235 7C20.6273 5.14452 30.2705 3.04113 28.2168 -3.49761Z" fill="#58BF90" stroke="#329467"/>
<path d="M28.2168 4.50239L27.4254 2L19.187 5.46693C14.6839 7.36502 15.1389 11.1263 16.235 15C20.6273 13.1445 30.2705 11.0411 28.2168 4.50239Z" fill="#58BF90" stroke="#329467"/>
<path d="M28.2168 12.5024L27.4254 10L19.187 13.4669C14.6839 15.365 15.1389 19.1263 16.235 23C20.6273 21.1445 30.2705 19.0411 28.2168 12.5024Z" fill="#58BF90" stroke="#329467"/>
<path d="M28.2168 20.5024L27.4254 18L19.187 21.4669C14.6839 23.365 15.1389 27.1263 16.235 31C20.6273 29.1445 30.2705 27.0411 28.2168 20.5024Z" fill="#58BF90" stroke="#329467"/>
<path d="M28.2168 28.5024L27.4254 26L19.187 29.4669C14.6839 31.365 15.1389 35.1263 16.235 39C20.6273 37.1445 30.2705 35.0411 28.2168 28.5024Z" fill="#58BF90" stroke="#329467"/>
<path d="M9.59569 11.3363C8.17357 11.7934 7.17643 12.8157 6.48015 14.1081C3.96938 18.7682 8.12564 23.5929 12.8538 23.5047C14.4593 23.5449 15.8357 22.5008 15.232 20.9886C13.7467 17.2685 10.0833 15.6126 9.59569 11.3363Z" fill="#EDEDED" stroke="#D2D2D2"/>
<path d="M5.96898 20.0322C5.04985 21.2097 4.79991 22.6157 4.9506 24.0759C5.49396 29.3414 11.6436 30.995 15.5042 28.264C16.8546 27.3946 17.406 25.7574 16.0566 24.8462C12.7369 22.6046 8.77628 23.2946 5.96898 20.0322Z" fill="#EDEDED" stroke="#D2D2D2"/>
<path d="M7.85777 29.2666C7.75962 30.7571 8.34336 32.0604 9.28888 33.1834C12.6984 37.2325 18.7139 35.1429 20.3713 30.7139C20.9994 29.2358 20.535 27.5718 18.9067 27.5768C14.9011 27.5893 12.0135 30.3864 7.85777 29.2666Z" fill="#EDEDED" stroke="#D2D2D2"/>
<path d="M14.6102 35.8341C15.367 37.122 16.5824 37.8717 17.9957 38.2688C23.0918 39.7008 26.8919 34.5909 25.7728 29.9963C25.4612 28.4207 24.1417 27.3056 22.7979 28.2252C19.4922 30.4873 18.6766 34.424 14.6102 35.8341Z" fill="#EDEDED" stroke="#D2D2D2"/>
<path d="M23.8856 37.4754C25.2355 38.1151 26.6622 38.0518 28.0542 37.5857C33.0737 35.9051 33.3438 29.5428 29.8353 26.3721C28.6919 25.2442 26.9738 25.0639 26.3794 26.5798C24.9173 30.309 26.4559 34.0232 23.8856 37.4754Z" fill="#EDEDED" stroke="#D2D2D2"/>
</svg>
