<svg width="47" height="24" viewBox="0 0 47 24" fill="none" xmlns="http://www.w3.org/2000/svg">
<path d="M28.3283 5.00712C33.3367 4.69675 38.3358 4.076 43.2799 3.10538C43.3166 3.10538 43.335 3.09409 43.3534 3.09409C45.9594 2.56066 45.7519 4.39115 45.7519 6.16961C41.3868 7.23616 35.3216 8.12778 29.9917 8.21807C29.9917 8.21807 35.0092 8.78238 43.9415 7.33774C44.5113 7.41674 45.1913 7.5296 45.7519 7.7384L45.7519 9.56678C39.2824 10.2665 31.609 10.7462 24.3125 10.8139C25.4336 10.8478 33.4102 11.0961 45.7519 10.0859L45.7519 13.1107L44.3826 13.4888L43.381 13.7766C43.3718 13.7709 43.3534 13.7709 43.335 13.7709C40.0543 13.5395 37.1779 13.3985 34.7059 13.3025C27.8413 13.0373 24.1838 13.2292 24.1838 13.2292C31.3793 13.28 38.9424 13.7483 46 14.4481L45.7519 17.0044C35.8822 15.2438 30.3409 15.7799 30.0008 15.8194C37.1871 15.9435 43.4085 17.3035 45.9632 17.9356L45.7519 19.8824C45.7427 20.6443 44.5389 21.1804 43.3258 20.9434C38.3726 19.9671 33.3459 19.3407 28.3283 19.036C16.5152 18.2299 12.7288 5.99389 28.3283 5.00712Z" fill="#EDEDED" stroke="#D2D2D2"/>
<path d="M3.50239 18.2168L1 17.4254L4.46693 9.18698C6.36502 4.6839 10.1263 5.13893 14 6.23502C12.1445 10.6273 10.0411 20.2705 3.50239 18.2168Z" fill="#EDEDED" stroke="#D2D2D2"/>
<path d="M12.0348 14.7309C12.4214 15.8981 12.9202 17.0378 13.3996 17.9528C13.879 18.8679 14.2889 19.4176 14.2889 19.4176C13.5851 19.6663 12.7248 19.6474 11.9418 19.4184C4.43537 17.6607 5.71683 8.23048 10.0437 6.00334C10.6101 5.71177 11.0181 5.57368 11.0181 5.57368C11.8725 6.85576 13.6633 8.95032 13.7619 9.65268C13.8315 10.018 13.7387 10.2701 13.6305 10.5643C12.6053 11.9628 11.3377 12.6266 12.0348 14.7309Z" fill="#EDEDED" stroke="#D2D2D2"/>
<path d="M20.3984 20.2048C18.0571 23.0788 14.4744 23.0306 10.935 20.2046C7.39569 17.3786 9.56892 11.4572 15.7408 9.52255C19.21 10.8791 17.4237 18.9375 20.3984 20.2048Z" fill="#EDEDED" stroke="#D2D2D2"/>
<path d="M9.07908 8.55859C8.58327 8.61237 8.13704 8.66614 7.83956 8.71992C7.54207 8.82747 7.34375 8.82748 7.34375 8.82748C7.44291 7.69815 7.98828 6.6226 8.68241 5.70837C12.3825 1.16 17.5627 3.54591 20.3835 7.69816C21.0776 8.71994 21.4742 9.79547 21.6726 10.6021C21.7717 10.9786 21.8213 11.3551 21.8709 11.5702C21.9205 11.7853 21.9205 11.9466 21.9205 11.9466C17.1538 14.7471 14.0711 8.28786 9.07908 8.55859Z" fill="#EDEDED" stroke="#D2D2D2"/>
<path d="M17.8294 11.062C17.8294 11.062 17.8294 10.9007 17.7747 10.6855C17.72 10.4704 17.6652 10.1478 17.5557 9.71755C17.3368 8.91088 16.8442 7.83531 16.1326 6.81354C15.421 5.79176 14.4357 4.87754 13.6146 4.23221C12.7935 3.58688 12.1914 3.21042 12.1914 3.21042C12.903 2.51131 13.8336 2.02732 14.8736 1.81221C15.9136 1.54332 17.1178 1.54331 18.3221 1.86597C19.4716 2.13486 20.6211 2.72644 21.4969 3.5331C22.3727 4.33977 22.9748 5.30776 23.2485 6.27576C23.2485 6.27576 23.3033 6.43711 23.358 6.75977C23.4127 7.08244 23.5222 7.51264 23.5769 8.05042C23.6864 9.12597 23.6317 10.4704 23.3032 11.7073C22.9748 12.9442 22.318 13.8584 21.7158 14.45C21.4422 14.7189 21.1685 14.934 21.0043 15.0415C20.84 15.1491 20.7306 15.2567 20.7306 15.2567C19.4169 14.6113 18.76 14.5575 18.3768 14.0198C18.1031 13.4282 17.9936 12.514 17.8294 11.062Z" fill="#EDEDED" stroke="#D2D2D2"/>
<path d="M18.8996 11.6172C18.8996 11.6172 18.9884 11.5345 19.0978 11.3332C19.2231 11.1834 19.4737 10.8838 19.6037 10.564C20.0207 9.87753 20.3629 8.76376 20.3112 7.48649C20.3279 6.24504 19.9142 4.90715 19.4913 3.90928C19.2798 3.41035 19.0478 3.02998 18.9 2.73687C18.7522 2.44376 18.652 2.30501 18.652 2.30501C19.6631 2.0595 20.822 2.1071 21.9875 2.54615C23.137 2.93375 24.2932 3.71283 25.1464 4.80711C25.5991 5.34644 25.9472 5.91703 26.2064 6.57034C26.3542 6.86345 26.4496 7.17218 26.5451 7.48092C26.6406 7.78966 26.6837 8.11401 26.7267 8.43838C26.8129 9.08712 26.7625 9.66421 26.7121 10.2413C26.5934 10.7825 26.4223 11.3394 26.167 11.809C26.167 11.809 26.0417 11.9588 25.9118 12.2786C25.7659 12.547 25.4788 12.9137 25.1552 13.3475C24.4922 14.1635 23.515 15.0734 22.4058 15.7416C21.2966 16.4099 20.2286 16.841 19.3906 17.0911C18.9716 17.2161 18.589 17.2741 18.3795 17.3366C18.1541 17.3476 17.997 17.3945 17.997 17.3945C17.342 16.0163 17.0603 14.92 17.2042 14.0902C17.3322 13.209 17.9017 12.6456 18.8996 11.6172Z" fill="#EDEDED" stroke="#D2D2D2"/>
<path d="M17.2735 12.4716C18.8873 12.4715 20.4478 12.6213 22.0653 12.1879C23.3243 11.8652 24.5285 11.2737 25.4043 10.6821C25.8422 10.3595 26.2254 10.0906 26.4444 9.87547C26.6633 9.66036 26.8275 9.49902 26.8275 9.49902C27.3202 10.467 27.4296 11.5963 27.3202 12.7257C27.156 13.855 26.7728 14.9844 26.116 15.8986C22.8779 20.5378 17.8793 18.8312 15.4051 16.4643C14.3161 14.5628 15.1642 12.9843 17.2735 12.4716Z" fill="#EDEDED" stroke="#D2D2D2"/>
<path d="M25.3575 17.4509C24.0943 21.9186 17.4605 22.5415 15.1686 18.8748C12.8767 15.2082 15.6267 12.4582 16.6781 12.4595C17.5479 17.044 19.752 18.8742 25.3575 17.4509Z" fill="#EDEDED" stroke="#D2D2D2"/>
</svg>
