<svg width="1679" height="44" viewBox="0 0 1679 44" fill="none" xmlns="http://www.w3.org/2000/svg">
<path d="M1675.5 15.7832L1678 16.5746L1674.53 24.813C1672.63 29.3161 1668.87 28.8611 1665 27.765C1666.86 23.3727 1668.96 13.7295 1675.5 15.7832Z" fill="#EDEDED" stroke="#D2D2D2"/>
<path d="M1667.5 15.7832L1670 16.5746L1666.53 24.813C1664.63 29.3161 1660.87 28.8611 1657 27.765C1658.86 23.3727 1660.96 13.7295 1667.5 15.7832Z" fill="#EDEDED" stroke="#D2D2D2"/>
<path d="M1659.5 15.7832L1662 16.5746L1658.53 24.813C1656.63 29.3161 1652.87 28.8611 1649 27.765C1650.86 23.3727 1652.96 13.7295 1659.5 15.7832Z" fill="#EDEDED" stroke="#D2D2D2"/>
<path d="M1651.5 15.7832L1654 16.5746L1650.53 24.813C1648.63 29.3161 1644.87 28.8611 1641 27.765C1642.86 23.3727 1644.96 13.7295 1651.5 15.7832Z" fill="#EDEDED" stroke="#D2D2D2"/>
<path d="M1643.5 15.7832L1646 16.5746L1642.53 24.813C1640.63 29.3161 1636.87 28.8611 1633 27.765C1634.86 23.3727 1636.96 13.7295 1643.5 15.7832Z" fill="#EDEDED" stroke="#D2D2D2"/>
<path d="M1635.5 15.7832L1638 16.5746L1634.53 24.813C1632.63 29.3161 1628.87 28.8611 1625 27.765C1626.86 23.3727 1628.96 13.7295 1635.5 15.7832Z" fill="#EDEDED" stroke="#D2D2D2"/>
<path d="M1627.5 15.7832L1630 16.5746L1626.53 24.813C1624.63 29.3161 1620.87 28.8611 1617 27.765C1618.86 23.3727 1620.96 13.7295 1627.5 15.7832Z" fill="#EDEDED" stroke="#D2D2D2"/>
<path d="M1619.5 15.7832L1622 16.5746L1618.53 24.813C1616.63 29.3161 1612.87 28.8611 1609 27.765C1610.86 23.3727 1612.96 13.7295 1619.5 15.7832Z" fill="#EDEDED" stroke="#D2D2D2"/>
<path d="M1611.5 15.7832L1614 16.5746L1610.53 24.813C1608.63 29.3161 1604.87 28.8611 1601 27.765C1602.86 23.3727 1604.96 13.7295 1611.5 15.7832Z" fill="#EDEDED" stroke="#D2D2D2"/>
<path d="M1603.5 15.7832L1606 16.5746L1602.53 24.813C1600.63 29.3161 1596.87 28.8611 1593 27.765C1594.86 23.3727 1596.96 13.7295 1603.5 15.7832Z" fill="#EDEDED" stroke="#D2D2D2"/>
<path d="M1595.5 15.7832L1598 16.5746L1594.53 24.813C1592.63 29.3161 1588.87 28.8611 1585 27.765C1586.86 23.3727 1588.96 13.7295 1595.5 15.7832Z" fill="#EDEDED" stroke="#D2D2D2"/>
<path d="M1587.5 15.7832L1590 16.5746L1586.53 24.813C1584.63 29.3161 1580.87 28.8611 1577 27.765C1578.86 23.3727 1580.96 13.7295 1587.5 15.7832Z" fill="#EDEDED" stroke="#D2D2D2"/>
<path d="M1579.5 15.7832L1582 16.5746L1578.53 24.813C1576.63 29.3161 1572.87 28.8611 1569 27.765C1570.86 23.3727 1572.96 13.7295 1579.5 15.7832Z" fill="#EDEDED" stroke="#D2D2D2"/>
<path d="M1571.5 15.7832L1574 16.5746L1570.53 24.813C1568.63 29.3161 1564.87 28.8611 1561 27.765C1562.86 23.3727 1564.96 13.7295 1571.5 15.7832Z" fill="#EDEDED" stroke="#D2D2D2"/>
<path d="M1563.5 15.7832L1566 16.5746L1562.53 24.813C1560.63 29.3161 1556.87 28.8611 1553 27.765C1554.86 23.3727 1556.96 13.7295 1563.5 15.7832Z" fill="#EDEDED" stroke="#D2D2D2"/>
<path d="M1555.5 15.7832L1558 16.5746L1554.53 24.813C1552.63 29.3161 1548.87 28.8611 1545 27.765C1546.86 23.3727 1548.96 13.7295 1555.5 15.7832Z" fill="#EDEDED" stroke="#D2D2D2"/>
<path d="M1547.5 15.7832L1550 16.5746L1546.53 24.813C1544.63 29.3161 1540.87 28.8611 1537 27.765C1538.86 23.3727 1540.96 13.7295 1547.5 15.7832Z" fill="#EDEDED" stroke="#D2D2D2"/>
<path d="M1539.5 15.7832L1542 16.5746L1538.53 24.813C1536.63 29.3161 1532.87 28.8611 1529 27.765C1530.86 23.3727 1532.96 13.7295 1539.5 15.7832Z" fill="#EDEDED" stroke="#D2D2D2"/>
<path d="M1531.5 15.7832L1534 16.5746L1530.53 24.813C1528.63 29.3161 1524.87 28.8611 1521 27.765C1522.86 23.3727 1524.96 13.7295 1531.5 15.7832Z" fill="#EDEDED" stroke="#D2D2D2"/>
<path d="M1523.5 15.7832L1526 16.5746L1522.53 24.813C1520.63 29.3161 1516.87 28.8611 1513 27.765C1514.86 23.3727 1516.96 13.7295 1523.5 15.7832Z" fill="#EDEDED" stroke="#D2D2D2"/>
<path d="M1515.5 15.7832L1518 16.5746L1514.53 24.813C1512.63 29.3161 1508.87 28.8611 1505 27.765C1506.86 23.3727 1508.96 13.7295 1515.5 15.7832Z" fill="#EDEDED" stroke="#D2D2D2"/>
<path d="M1507.5 15.7832L1510 16.5746L1506.53 24.813C1504.63 29.3161 1500.87 28.8611 1497 27.765C1498.86 23.3727 1500.96 13.7295 1507.5 15.7832Z" fill="#EDEDED" stroke="#D2D2D2"/>
<path d="M1499.5 15.7832L1502 16.5746L1498.53 24.813C1496.63 29.3161 1492.87 28.8611 1489 27.765C1490.86 23.3727 1492.96 13.7295 1499.5 15.7832Z" fill="#EDEDED" stroke="#D2D2D2"/>
<path d="M1491.5 15.7832L1494 16.5746L1490.53 24.813C1488.63 29.3161 1484.87 28.8611 1481 27.765C1482.86 23.3727 1484.96 13.7295 1491.5 15.7832Z" fill="#EDEDED" stroke="#D2D2D2"/>
<path d="M1483.5 15.7832L1486 16.5746L1482.53 24.813C1480.63 29.3161 1476.87 28.8611 1473 27.765C1474.86 23.3727 1476.96 13.7295 1483.5 15.7832Z" fill="#EDEDED" stroke="#D2D2D2"/>
<path d="M1475.5 15.7832L1478 16.5746L1474.53 24.813C1472.63 29.3161 1468.87 28.8611 1465 27.765C1466.86 23.3727 1468.96 13.7295 1475.5 15.7832Z" fill="#EDEDED" stroke="#D2D2D2"/>
<path d="M1467.5 15.7832L1470 16.5746L1466.53 24.813C1464.63 29.3161 1460.87 28.8611 1457 27.765C1458.86 23.3727 1460.96 13.7295 1467.5 15.7832Z" fill="#EDEDED" stroke="#D2D2D2"/>
<path d="M1459.5 15.7832L1462 16.5746L1458.53 24.813C1456.63 29.3161 1452.87 28.8611 1449 27.765C1450.86 23.3727 1452.96 13.7295 1459.5 15.7832Z" fill="#EDEDED" stroke="#D2D2D2"/>
<path d="M1451.5 15.7832L1454 16.5746L1450.53 24.813C1448.63 29.3161 1444.87 28.8611 1441 27.765C1442.86 23.3727 1444.96 13.7295 1451.5 15.7832Z" fill="#EDEDED" stroke="#D2D2D2"/>
<path d="M1443.5 15.7832L1446 16.5746L1442.53 24.813C1440.63 29.3161 1436.87 28.8611 1433 27.765C1434.86 23.3727 1436.96 13.7295 1443.5 15.7832Z" fill="#EDEDED" stroke="#D2D2D2"/>
<path d="M1435.5 15.7832L1438 16.5746L1434.53 24.813C1432.63 29.3161 1428.87 28.8611 1425 27.765C1426.86 23.3727 1428.96 13.7295 1435.5 15.7832Z" fill="#EDEDED" stroke="#D2D2D2"/>
<path d="M1427.5 15.7832L1430 16.5746L1426.53 24.813C1424.63 29.3161 1420.87 28.8611 1417 27.765C1418.86 23.3727 1420.96 13.7295 1427.5 15.7832Z" fill="#EDEDED" stroke="#D2D2D2"/>
<path d="M1419.5 15.7832L1422 16.5746L1418.53 24.813C1416.63 29.3161 1412.87 28.8611 1409 27.765C1410.86 23.3727 1412.96 13.7295 1419.5 15.7832Z" fill="#EDEDED" stroke="#D2D2D2"/>
<path d="M1411.5 15.7832L1414 16.5746L1410.53 24.813C1408.63 29.3161 1404.87 28.8611 1401 27.765C1402.86 23.3727 1404.96 13.7295 1411.5 15.7832Z" fill="#EDEDED" stroke="#D2D2D2"/>
<path d="M1403.5 15.7832L1406 16.5746L1402.53 24.813C1400.63 29.3161 1396.87 28.8611 1393 27.765C1394.86 23.3727 1396.96 13.7295 1403.5 15.7832Z" fill="#EDEDED" stroke="#D2D2D2"/>
<path d="M1395.5 15.7832L1398 16.5746L1394.53 24.813C1392.63 29.3161 1388.87 28.8611 1385 27.765C1386.86 23.3727 1388.96 13.7295 1395.5 15.7832Z" fill="#EDEDED" stroke="#D2D2D2"/>
<path d="M1387.5 15.7832L1390 16.5746L1386.53 24.813C1384.63 29.3161 1380.87 28.8611 1377 27.765C1378.86 23.3727 1380.96 13.7295 1387.5 15.7832Z" fill="#EDEDED" stroke="#D2D2D2"/>
<path d="M1379.5 15.7832L1382 16.5746L1378.53 24.813C1376.63 29.3161 1372.87 28.8611 1369 27.765C1370.86 23.3727 1372.96 13.7295 1379.5 15.7832Z" fill="#EDEDED" stroke="#D2D2D2"/>
<path d="M1371.5 15.7832L1374 16.5746L1370.53 24.813C1368.63 29.3161 1364.87 28.8611 1361 27.765C1362.86 23.3727 1364.96 13.7295 1371.5 15.7832Z" fill="#EDEDED" stroke="#D2D2D2"/>
<path d="M1363.5 15.7832L1366 16.5746L1362.53 24.813C1360.63 29.3161 1356.87 28.8611 1353 27.765C1354.86 23.3727 1356.96 13.7295 1363.5 15.7832Z" fill="#EDEDED" stroke="#D2D2D2"/>
<path d="M1355.5 15.7832L1358 16.5746L1354.53 24.813C1352.63 29.3161 1348.87 28.8611 1345 27.765C1346.86 23.3727 1348.96 13.7295 1355.5 15.7832Z" fill="#EDEDED" stroke="#D2D2D2"/>
<path d="M1347.5 15.7832L1350 16.5746L1346.53 24.813C1344.63 29.3161 1340.87 28.8611 1337 27.765C1338.86 23.3727 1340.96 13.7295 1347.5 15.7832Z" fill="#EDEDED" stroke="#D2D2D2"/>
<path d="M1339.5 15.7832L1342 16.5746L1338.53 24.813C1336.63 29.3161 1332.87 28.8611 1329 27.765C1330.86 23.3727 1332.96 13.7295 1339.5 15.7832Z" fill="#EDEDED" stroke="#D2D2D2"/>
<path d="M1331.5 15.7832L1334 16.5746L1330.53 24.813C1328.63 29.3161 1324.87 28.8611 1321 27.765C1322.86 23.3727 1324.96 13.7295 1331.5 15.7832Z" fill="#EDEDED" stroke="#D2D2D2"/>
<path d="M1323.5 15.7832L1326 16.5746L1322.53 24.813C1320.63 29.3161 1316.87 28.8611 1313 27.765C1314.86 23.3727 1316.96 13.7295 1323.5 15.7832Z" fill="#EDEDED" stroke="#D2D2D2"/>
<path d="M1315.5 15.7832L1318 16.5746L1314.53 24.813C1312.63 29.3161 1308.87 28.8611 1305 27.765C1306.86 23.3727 1308.96 13.7295 1315.5 15.7832Z" fill="#EDEDED" stroke="#D2D2D2"/>
<path d="M1307.5 15.7832L1310 16.5746L1306.53 24.813C1304.63 29.3161 1300.87 28.8611 1297 27.765C1298.86 23.3727 1300.96 13.7295 1307.5 15.7832Z" fill="#EDEDED" stroke="#D2D2D2"/>
<path d="M1299.5 15.7832L1302 16.5746L1298.53 24.813C1296.63 29.3161 1292.87 28.8611 1289 27.765C1290.86 23.3727 1292.96 13.7295 1299.5 15.7832Z" fill="#EDEDED" stroke="#D2D2D2"/>
<path d="M1291.5 15.7832L1294 16.5746L1290.53 24.813C1288.63 29.3161 1284.87 28.8611 1281 27.765C1282.86 23.3727 1284.96 13.7295 1291.5 15.7832Z" fill="#EDEDED" stroke="#D2D2D2"/>
<path d="M1283.5 15.7832L1286 16.5746L1282.53 24.813C1280.63 29.3161 1276.87 28.8611 1273 27.765C1274.86 23.3727 1276.96 13.7295 1283.5 15.7832Z" fill="#EDEDED" stroke="#D2D2D2"/>
<path d="M1275.5 15.7832L1278 16.5746L1274.53 24.813C1272.63 29.3161 1268.87 28.8611 1265 27.765C1266.86 23.3727 1268.96 13.7295 1275.5 15.7832Z" fill="#EDEDED" stroke="#D2D2D2"/>
<path d="M1267.5 15.7832L1270 16.5746L1266.53 24.813C1264.63 29.3161 1260.87 28.8611 1257 27.765C1258.86 23.3727 1260.96 13.7295 1267.5 15.7832Z" fill="#EDEDED" stroke="#D2D2D2"/>
<path d="M1259.5 15.7832L1262 16.5746L1258.53 24.813C1256.63 29.3161 1252.87 28.8611 1249 27.765C1250.86 23.3727 1252.96 13.7295 1259.5 15.7832Z" fill="#EDEDED" stroke="#D2D2D2"/>
<path d="M1251.5 15.7832L1254 16.5746L1250.53 24.813C1248.63 29.3161 1244.87 28.8611 1241 27.765C1242.86 23.3727 1244.96 13.7295 1251.5 15.7832Z" fill="#EDEDED" stroke="#D2D2D2"/>
<path d="M1243.5 15.7832L1246 16.5746L1242.53 24.813C1240.63 29.3161 1236.87 28.8611 1233 27.765C1234.86 23.3727 1236.96 13.7295 1243.5 15.7832Z" fill="#EDEDED" stroke="#D2D2D2"/>
<path d="M1235.5 15.7832L1238 16.5746L1234.53 24.813C1232.63 29.3161 1228.87 28.8611 1225 27.765C1226.86 23.3727 1228.96 13.7295 1235.5 15.7832Z" fill="#EDEDED" stroke="#D2D2D2"/>
<path d="M1227.5 15.7832L1230 16.5746L1226.53 24.813C1224.63 29.3161 1220.87 28.8611 1217 27.765C1218.86 23.3727 1220.96 13.7295 1227.5 15.7832Z" fill="#EDEDED" stroke="#D2D2D2"/>
<path d="M1219.5 15.7832L1222 16.5746L1218.53 24.813C1216.63 29.3161 1212.87 28.8611 1209 27.765C1210.86 23.3727 1212.96 13.7295 1219.5 15.7832Z" fill="#EDEDED" stroke="#D2D2D2"/>
<path d="M1211.5 15.7832L1214 16.5746L1210.53 24.813C1208.63 29.3161 1204.87 28.8611 1201 27.765C1202.86 23.3727 1204.96 13.7295 1211.5 15.7832Z" fill="#EDEDED" stroke="#D2D2D2"/>
<path d="M1203.5 15.7832L1206 16.5746L1202.53 24.813C1200.63 29.3161 1196.87 28.8611 1193 27.765C1194.86 23.3727 1196.96 13.7295 1203.5 15.7832Z" fill="#EDEDED" stroke="#D2D2D2"/>
<path d="M1195.5 15.7832L1198 16.5746L1194.53 24.813C1192.63 29.3161 1188.87 28.8611 1185 27.765C1186.86 23.3727 1188.96 13.7295 1195.5 15.7832Z" fill="#EDEDED" stroke="#D2D2D2"/>
<path d="M1187.5 15.7832L1190 16.5746L1186.53 24.813C1184.63 29.3161 1180.87 28.8611 1177 27.765C1178.86 23.3727 1180.96 13.7295 1187.5 15.7832Z" fill="#EDEDED" stroke="#D2D2D2"/>
<path d="M1179.5 15.7832L1182 16.5746L1178.53 24.813C1176.63 29.3161 1172.87 28.8611 1169 27.765C1170.86 23.3727 1172.96 13.7295 1179.5 15.7832Z" fill="#EDEDED" stroke="#D2D2D2"/>
<path d="M1171.5 15.7832L1174 16.5746L1170.53 24.813C1168.63 29.3161 1164.87 28.8611 1161 27.765C1162.86 23.3727 1164.96 13.7295 1171.5 15.7832Z" fill="#EDEDED" stroke="#D2D2D2"/>
<path d="M1163.5 15.7832L1166 16.5746L1162.53 24.813C1160.63 29.3161 1156.87 28.8611 1153 27.765C1154.86 23.3727 1156.96 13.7295 1163.5 15.7832Z" fill="#EDEDED" stroke="#D2D2D2"/>
<path d="M1155.5 15.7832L1158 16.5746L1154.53 24.813C1152.63 29.3161 1148.87 28.8611 1145 27.765C1146.86 23.3727 1148.96 13.7295 1155.5 15.7832Z" fill="#EDEDED" stroke="#D2D2D2"/>
<path d="M1147.5 15.7832L1150 16.5746L1146.53 24.813C1144.63 29.3161 1140.87 28.8611 1137 27.765C1138.86 23.3727 1140.96 13.7295 1147.5 15.7832Z" fill="#EDEDED" stroke="#D2D2D2"/>
<path d="M1139.5 15.7832L1142 16.5746L1138.53 24.813C1136.63 29.3161 1132.87 28.8611 1129 27.765C1130.86 23.3727 1132.96 13.7295 1139.5 15.7832Z" fill="#EDEDED" stroke="#D2D2D2"/>
<path d="M1131.5 15.7832L1134 16.5746L1130.53 24.813C1128.63 29.3161 1124.87 28.8611 1121 27.765C1122.86 23.3727 1124.96 13.7295 1131.5 15.7832Z" fill="#EDEDED" stroke="#D2D2D2"/>
<path d="M1123.5 15.7832L1126 16.5746L1122.53 24.813C1120.63 29.3161 1116.87 28.8611 1113 27.765C1114.86 23.3727 1116.96 13.7295 1123.5 15.7832Z" fill="#EDEDED" stroke="#D2D2D2"/>
<path d="M1115.5 15.7832L1118 16.5746L1114.53 24.813C1112.63 29.3161 1108.87 28.8611 1105 27.765C1106.86 23.3727 1108.96 13.7295 1115.5 15.7832Z" fill="#EDEDED" stroke="#D2D2D2"/>
<path d="M1107.5 15.7832L1110 16.5746L1106.53 24.813C1104.63 29.3161 1100.87 28.8611 1097 27.765C1098.86 23.3727 1100.96 13.7295 1107.5 15.7832Z" fill="#EDEDED" stroke="#D2D2D2"/>
<path d="M1099.5 15.7832L1102 16.5746L1098.53 24.813C1096.63 29.3161 1092.87 28.8611 1089 27.765C1090.86 23.3727 1092.96 13.7295 1099.5 15.7832Z" fill="#EDEDED" stroke="#D2D2D2"/>
<path d="M1091.5 15.7832L1094 16.5746L1090.53 24.813C1088.63 29.3161 1084.87 28.8611 1081 27.765C1082.86 23.3727 1084.96 13.7295 1091.5 15.7832Z" fill="#EDEDED" stroke="#D2D2D2"/>
<path d="M1083.5 15.7832L1086 16.5746L1082.53 24.813C1080.63 29.3161 1076.87 28.8611 1073 27.765C1074.86 23.3727 1076.96 13.7295 1083.5 15.7832Z" fill="#EDEDED" stroke="#D2D2D2"/>
<path d="M1075.5 15.7832L1078 16.5746L1074.53 24.813C1072.63 29.3161 1068.87 28.8611 1065 27.765C1066.86 23.3727 1068.96 13.7295 1075.5 15.7832Z" fill="#EDEDED" stroke="#D2D2D2"/>
<path d="M1067.5 15.7832L1070 16.5746L1066.53 24.813C1064.63 29.3161 1060.87 28.8611 1057 27.765C1058.86 23.3727 1060.96 13.7295 1067.5 15.7832Z" fill="#EDEDED" stroke="#D2D2D2"/>
<path d="M1059.5 15.7832L1062 16.5746L1058.53 24.813C1056.63 29.3161 1052.87 28.8611 1049 27.765C1050.86 23.3727 1052.96 13.7295 1059.5 15.7832Z" fill="#EDEDED" stroke="#D2D2D2"/>
<path d="M1051.5 15.7832L1054 16.5746L1050.53 24.813C1048.63 29.3161 1044.87 28.8611 1041 27.765C1042.86 23.3727 1044.96 13.7295 1051.5 15.7832Z" fill="#EDEDED" stroke="#D2D2D2"/>
<path d="M1043.5 15.7832L1046 16.5746L1042.53 24.813C1040.63 29.3161 1036.87 28.8611 1033 27.765C1034.86 23.3727 1036.96 13.7295 1043.5 15.7832Z" fill="#EDEDED" stroke="#D2D2D2"/>
<path d="M1035.5 15.7832L1038 16.5746L1034.53 24.813C1032.63 29.3161 1028.87 28.8611 1025 27.765C1026.86 23.3727 1028.96 13.7295 1035.5 15.7832Z" fill="#EDEDED" stroke="#D2D2D2"/>
<path d="M1027.5 15.7832L1030 16.5746L1026.53 24.813C1024.63 29.3161 1020.87 28.8611 1017 27.765C1018.86 23.3727 1020.96 13.7295 1027.5 15.7832Z" fill="#EDEDED" stroke="#D2D2D2"/>
<path d="M1019.5 15.7832L1022 16.5746L1018.53 24.813C1016.63 29.3161 1012.87 28.8611 1009 27.765C1010.86 23.3727 1012.96 13.7295 1019.5 15.7832Z" fill="#EDEDED" stroke="#D2D2D2"/>
<path d="M1011.5 15.7832L1014 16.5746L1010.53 24.813C1008.63 29.3161 1004.87 28.8611 1001 27.765C1002.86 23.3727 1004.96 13.7295 1011.5 15.7832Z" fill="#EDEDED" stroke="#D2D2D2"/>
<path d="M1003.5 15.7832L1006 16.5746L1002.53 24.813C1000.63 29.3161 996.874 28.8611 993 27.765C994.855 23.3727 996.959 13.7295 1003.5 15.7832Z" fill="#EDEDED" stroke="#D2D2D2"/>
<path d="M995.498 15.7832L998 16.5746L994.533 24.813C992.635 29.3161 988.874 28.8611 985 27.765C986.855 23.3727 988.959 13.7295 995.498 15.7832Z" fill="#EDEDED" stroke="#D2D2D2"/>
<path d="M987.498 15.7832L990 16.5746L986.533 24.813C984.635 29.3161 980.874 28.8611 977 27.765C978.855 23.3727 980.959 13.7295 987.498 15.7832Z" fill="#EDEDED" stroke="#D2D2D2"/>
<path d="M979.498 15.7832L982 16.5746L978.533 24.813C976.635 29.3161 972.874 28.8611 969 27.765C970.855 23.3727 972.959 13.7295 979.498 15.7832Z" fill="#EDEDED" stroke="#D2D2D2"/>
<path d="M971.498 15.7832L974 16.5746L970.533 24.813C968.635 29.3161 964.874 28.8611 961 27.765C962.855 23.3727 964.959 13.7295 971.498 15.7832Z" fill="#EDEDED" stroke="#D2D2D2"/>
<path d="M963.498 15.7832L966 16.5746L962.533 24.813C960.635 29.3161 956.874 28.8611 953 27.765C954.855 23.3727 956.959 13.7295 963.498 15.7832Z" fill="#EDEDED" stroke="#D2D2D2"/>
<path d="M955.498 15.7832L958 16.5746L954.533 24.813C952.635 29.3161 948.874 28.8611 945 27.765C946.855 23.3727 948.959 13.7295 955.498 15.7832Z" fill="#EDEDED" stroke="#D2D2D2"/>
<path d="M947.498 15.7832L950 16.5746L946.533 24.813C944.635 29.3161 940.874 28.8611 937 27.765C938.855 23.3727 940.959 13.7295 947.498 15.7832Z" fill="#EDEDED" stroke="#D2D2D2"/>
<path d="M939.498 15.7832L942 16.5746L938.533 24.813C936.635 29.3161 932.874 28.8611 929 27.765C930.855 23.3727 932.959 13.7295 939.498 15.7832Z" fill="#EDEDED" stroke="#D2D2D2"/>
<path d="M931.498 15.7832L934 16.5746L930.533 24.813C928.635 29.3161 924.874 28.8611 921 27.765C922.855 23.3727 924.959 13.7295 931.498 15.7832Z" fill="#EDEDED" stroke="#D2D2D2"/>
<path d="M923.498 15.7832L926 16.5746L922.533 24.813C920.635 29.3161 916.874 28.8611 913 27.765C914.855 23.3727 916.959 13.7295 923.498 15.7832Z" fill="#EDEDED" stroke="#D2D2D2"/>
<path d="M915.498 15.7832L918 16.5746L914.533 24.813C912.635 29.3161 908.874 28.8611 905 27.765C906.855 23.3727 908.959 13.7295 915.498 15.7832Z" fill="#EDEDED" stroke="#D2D2D2"/>
<path d="M907.498 15.7832L910 16.5746L906.533 24.813C904.635 29.3161 900.874 28.8611 897 27.765C898.855 23.3727 900.959 13.7295 907.498 15.7832Z" fill="#EDEDED" stroke="#D2D2D2"/>
<path d="M899.498 15.7832L902 16.5746L898.533 24.813C896.635 29.3161 892.874 28.8611 889 27.765C890.855 23.3727 892.959 13.7295 899.498 15.7832Z" fill="#EDEDED" stroke="#D2D2D2"/>
<path d="M891.498 15.7832L894 16.5746L890.533 24.813C888.635 29.3161 884.874 28.8611 881 27.765C882.855 23.3727 884.959 13.7295 891.498 15.7832Z" fill="#EDEDED" stroke="#D2D2D2"/>
<path d="M883.498 15.7832L886 16.5746L882.533 24.813C880.635 29.3161 876.874 28.8611 873 27.765C874.855 23.3727 876.959 13.7295 883.498 15.7832Z" fill="#EDEDED" stroke="#D2D2D2"/>
<path d="M875.498 15.7832L878 16.5746L874.533 24.813C872.635 29.3161 868.874 28.8611 865 27.765C866.855 23.3727 868.959 13.7295 875.498 15.7832Z" fill="#EDEDED" stroke="#D2D2D2"/>
<path d="M867.498 15.7832L870 16.5746L866.533 24.813C864.635 29.3161 860.874 28.8611 857 27.765C858.855 23.3727 860.959 13.7295 867.498 15.7832Z" fill="#EDEDED" stroke="#D2D2D2"/>
<path d="M859.498 15.7832L862 16.5746L858.533 24.813C856.635 29.3161 852.874 28.8611 849 27.765C850.855 23.3727 852.959 13.7295 859.498 15.7832Z" fill="#EDEDED" stroke="#D2D2D2"/>
<path d="M851.498 15.7832L854 16.5746L850.533 24.813C848.635 29.3161 844.874 28.8611 841 27.765C842.855 23.3727 844.959 13.7295 851.498 15.7832Z" fill="#EDEDED" stroke="#D2D2D2"/>
<path d="M843.498 15.7832L846 16.5746L842.533 24.813C840.635 29.3161 836.874 28.8611 833 27.765C834.855 23.3727 836.959 13.7295 843.498 15.7832Z" fill="#EDEDED" stroke="#D2D2D2"/>
<path d="M835.498 15.7832L838 16.5746L834.533 24.813C832.635 29.3161 828.874 28.8611 825 27.765C826.855 23.3727 828.959 13.7295 835.498 15.7832Z" fill="#EDEDED" stroke="#D2D2D2"/>
<path d="M827.498 15.7832L830 16.5746L826.533 24.813C824.635 29.3161 820.874 28.8611 817 27.765C818.855 23.3727 820.959 13.7295 827.498 15.7832Z" fill="#EDEDED" stroke="#D2D2D2"/>
<path d="M819.498 15.7832L822 16.5746L818.533 24.813C816.635 29.3161 812.874 28.8611 809 27.765C810.855 23.3727 812.959 13.7295 819.498 15.7832Z" fill="#EDEDED" stroke="#D2D2D2"/>
<path d="M811.498 15.7832L814 16.5746L810.533 24.813C808.635 29.3161 804.874 28.8611 801 27.765C802.855 23.3727 804.959 13.7295 811.498 15.7832Z" fill="#EDEDED" stroke="#D2D2D2"/>
<path d="M803.498 15.7832L806 16.5746L802.533 24.813C800.635 29.3161 796.874 28.8611 793 27.765C794.855 23.3727 796.959 13.7295 803.498 15.7832Z" fill="#EDEDED" stroke="#D2D2D2"/>
<path d="M795.498 15.7832L798 16.5746L794.533 24.813C792.635 29.3161 788.874 28.8611 785 27.765C786.855 23.3727 788.959 13.7295 795.498 15.7832Z" fill="#EDEDED" stroke="#D2D2D2"/>
<path d="M787.498 15.7832L790 16.5746L786.533 24.813C784.635 29.3161 780.874 28.8611 777 27.765C778.855 23.3727 780.959 13.7295 787.498 15.7832Z" fill="#EDEDED" stroke="#D2D2D2"/>
<path d="M779.498 15.7832L782 16.5746L778.533 24.813C776.635 29.3161 772.874 28.8611 769 27.765C770.855 23.3727 772.959 13.7295 779.498 15.7832Z" fill="#EDEDED" stroke="#D2D2D2"/>
<path d="M771.498 15.7832L774 16.5746L770.533 24.813C768.635 29.3161 764.874 28.8611 761 27.765C762.855 23.3727 764.959 13.7295 771.498 15.7832Z" fill="#EDEDED" stroke="#D2D2D2"/>
<path d="M763.498 15.7832L766 16.5746L762.533 24.813C760.635 29.3161 756.874 28.8611 753 27.765C754.855 23.3727 756.959 13.7295 763.498 15.7832Z" fill="#EDEDED" stroke="#D2D2D2"/>
<path d="M755.498 15.7832L758 16.5746L754.533 24.813C752.635 29.3161 748.874 28.8611 745 27.765C746.855 23.3727 748.959 13.7295 755.498 15.7832Z" fill="#EDEDED" stroke="#D2D2D2"/>
<path d="M747.498 15.7832L750 16.5746L746.533 24.813C744.635 29.3161 740.874 28.8611 737 27.765C738.855 23.3727 740.959 13.7295 747.498 15.7832Z" fill="#EDEDED" stroke="#D2D2D2"/>
<path d="M739.498 15.7832L742 16.5746L738.533 24.813C736.635 29.3161 732.874 28.8611 729 27.765C730.855 23.3727 732.959 13.7295 739.498 15.7832Z" fill="#EDEDED" stroke="#D2D2D2"/>
<path d="M731.498 15.7832L734 16.5746L730.533 24.813C728.635 29.3161 724.874 28.8611 721 27.765C722.855 23.3727 724.959 13.7295 731.498 15.7832Z" fill="#EDEDED" stroke="#D2D2D2"/>
<path d="M723.498 15.7832L726 16.5746L722.533 24.813C720.635 29.3161 716.874 28.8611 713 27.765C714.855 23.3727 716.959 13.7295 723.498 15.7832Z" fill="#EDEDED" stroke="#D2D2D2"/>
<path d="M715.498 15.7832L718 16.5746L714.533 24.813C712.635 29.3161 708.874 28.8611 705 27.765C706.855 23.3727 708.959 13.7295 715.498 15.7832Z" fill="#EDEDED" stroke="#D2D2D2"/>
<path d="M707.498 15.7832L710 16.5746L706.533 24.813C704.635 29.3161 700.874 28.8611 697 27.765C698.855 23.3727 700.959 13.7295 707.498 15.7832Z" fill="#EDEDED" stroke="#D2D2D2"/>
<path d="M699.498 15.7832L702 16.5746L698.533 24.813C696.635 29.3161 692.874 28.8611 689 27.765C690.855 23.3727 692.959 13.7295 699.498 15.7832Z" fill="#EDEDED" stroke="#D2D2D2"/>
<path d="M691.498 15.7832L694 16.5746L690.533 24.813C688.635 29.3161 684.874 28.8611 681 27.765C682.855 23.3727 684.959 13.7295 691.498 15.7832Z" fill="#EDEDED" stroke="#D2D2D2"/>
<path d="M683.498 15.7832L686 16.5746L682.533 24.813C680.635 29.3161 676.874 28.8611 673 27.765C674.855 23.3727 676.959 13.7295 683.498 15.7832Z" fill="#EDEDED" stroke="#D2D2D2"/>
<path d="M675.498 15.7832L678 16.5746L674.533 24.813C672.635 29.3161 668.874 28.8611 665 27.765C666.855 23.3727 668.959 13.7295 675.498 15.7832Z" fill="#EDEDED" stroke="#D2D2D2"/>
<path d="M667.498 15.7832L670 16.5746L666.533 24.813C664.635 29.3161 660.874 28.8611 657 27.765C658.855 23.3727 660.959 13.7295 667.498 15.7832Z" fill="#EDEDED" stroke="#D2D2D2"/>
<path d="M659.498 15.7832L662 16.5746L658.533 24.813C656.635 29.3161 652.874 28.8611 649 27.765C650.855 23.3727 652.959 13.7295 659.498 15.7832Z" fill="#EDEDED" stroke="#D2D2D2"/>
<path d="M651.498 15.7832L654 16.5746L650.533 24.813C648.635 29.3161 644.874 28.8611 641 27.765C642.855 23.3727 644.959 13.7295 651.498 15.7832Z" fill="#EDEDED" stroke="#D2D2D2"/>
<path d="M643.498 15.7832L646 16.5746L642.533 24.813C640.635 29.3161 636.874 28.8611 633 27.765C634.855 23.3727 636.959 13.7295 643.498 15.7832Z" fill="#EDEDED" stroke="#D2D2D2"/>
<path d="M635.498 15.7832L638 16.5746L634.533 24.813C632.635 29.3161 628.874 28.8611 625 27.765C626.855 23.3727 628.959 13.7295 635.498 15.7832Z" fill="#EDEDED" stroke="#D2D2D2"/>
<path d="M627.498 15.7832L630 16.5746L626.533 24.813C624.635 29.3161 620.874 28.8611 617 27.765C618.855 23.3727 620.959 13.7295 627.498 15.7832Z" fill="#EDEDED" stroke="#D2D2D2"/>
<path d="M619.498 15.7832L622 16.5746L618.533 24.813C616.635 29.3161 612.874 28.8611 609 27.765C610.855 23.3727 612.959 13.7295 619.498 15.7832Z" fill="#EDEDED" stroke="#D2D2D2"/>
<path d="M611.498 15.7832L614 16.5746L610.533 24.813C608.635 29.3161 604.874 28.8611 601 27.765C602.855 23.3727 604.959 13.7295 611.498 15.7832Z" fill="#EDEDED" stroke="#D2D2D2"/>
<path d="M603.498 15.7832L606 16.5746L602.533 24.813C600.635 29.3161 596.874 28.8611 593 27.765C594.855 23.3727 596.959 13.7295 603.498 15.7832Z" fill="#EDEDED" stroke="#D2D2D2"/>
<path d="M595.498 15.7832L598 16.5746L594.533 24.813C592.635 29.3161 588.874 28.8611 585 27.765C586.855 23.3727 588.959 13.7295 595.498 15.7832Z" fill="#EDEDED" stroke="#D2D2D2"/>
<path d="M587.498 15.7832L590 16.5746L586.533 24.813C584.635 29.3161 580.874 28.8611 577 27.765C578.855 23.3727 580.959 13.7295 587.498 15.7832Z" fill="#EDEDED" stroke="#D2D2D2"/>
<path d="M579.498 15.7832L582 16.5746L578.533 24.813C576.635 29.3161 572.874 28.8611 569 27.765C570.855 23.3727 572.959 13.7295 579.498 15.7832Z" fill="#EDEDED" stroke="#D2D2D2"/>
<path d="M571.498 15.7832L574 16.5746L570.533 24.813C568.635 29.3161 564.874 28.8611 561 27.765C562.855 23.3727 564.959 13.7295 571.498 15.7832Z" fill="#EDEDED" stroke="#D2D2D2"/>
<path d="M563.498 15.7832L566 16.5746L562.533 24.813C560.635 29.3161 556.874 28.8611 553 27.765C554.855 23.3727 556.959 13.7295 563.498 15.7832Z" fill="#EDEDED" stroke="#D2D2D2"/>
<path d="M555.498 15.7832L558 16.5746L554.533 24.813C552.635 29.3161 548.874 28.8611 545 27.765C546.855 23.3727 548.959 13.7295 555.498 15.7832Z" fill="#EDEDED" stroke="#D2D2D2"/>
<path d="M547.498 15.7832L550 16.5746L546.533 24.813C544.635 29.3161 540.874 28.8611 537 27.765C538.855 23.3727 540.959 13.7295 547.498 15.7832Z" fill="#EDEDED" stroke="#D2D2D2"/>
<path d="M539.498 15.7832L542 16.5746L538.533 24.813C536.635 29.3161 532.874 28.8611 529 27.765C530.855 23.3727 532.959 13.7295 539.498 15.7832Z" fill="#EDEDED" stroke="#D2D2D2"/>
<path d="M531.498 15.7832L534 16.5746L530.533 24.813C528.635 29.3161 524.874 28.8611 521 27.765C522.855 23.3727 524.959 13.7295 531.498 15.7832Z" fill="#EDEDED" stroke="#D2D2D2"/>
<path d="M523.498 15.7832L526 16.5746L522.533 24.813C520.635 29.3161 516.874 28.8611 513 27.765C514.855 23.3727 516.959 13.7295 523.498 15.7832Z" fill="#EDEDED" stroke="#D2D2D2"/>
<path d="M515.498 15.7832L518 16.5746L514.533 24.813C512.635 29.3161 508.874 28.8611 505 27.765C506.855 23.3727 508.959 13.7295 515.498 15.7832Z" fill="#EDEDED" stroke="#D2D2D2"/>
<path d="M507.498 15.7832L510 16.5746L506.533 24.813C504.635 29.3161 500.874 28.8611 497 27.765C498.855 23.3727 500.959 13.7295 507.498 15.7832Z" fill="#EDEDED" stroke="#D2D2D2"/>
<path d="M499.498 15.7832L502 16.5746L498.533 24.813C496.635 29.3161 492.874 28.8611 489 27.765C490.855 23.3727 492.959 13.7295 499.498 15.7832Z" fill="#EDEDED" stroke="#D2D2D2"/>
<path d="M491.498 15.7832L494 16.5746L490.533 24.813C488.635 29.3161 484.874 28.8611 481 27.765C482.855 23.3727 484.959 13.7295 491.498 15.7832Z" fill="#EDEDED" stroke="#D2D2D2"/>
<path d="M483.498 15.7832L486 16.5746L482.533 24.813C480.635 29.3161 476.874 28.8611 473 27.765C474.855 23.3727 476.959 13.7295 483.498 15.7832Z" fill="#EDEDED" stroke="#D2D2D2"/>
<path d="M475.498 15.7832L478 16.5746L474.533 24.813C472.635 29.3161 468.874 28.8611 465 27.765C466.855 23.3727 468.959 13.7295 475.498 15.7832Z" fill="#EDEDED" stroke="#D2D2D2"/>
<path d="M467.498 15.7832L470 16.5746L466.533 24.813C464.635 29.3161 460.874 28.8611 457 27.765C458.855 23.3727 460.959 13.7295 467.498 15.7832Z" fill="#EDEDED" stroke="#D2D2D2"/>
<path d="M459.498 15.7832L462 16.5746L458.533 24.813C456.635 29.3161 452.874 28.8611 449 27.765C450.855 23.3727 452.959 13.7295 459.498 15.7832Z" fill="#EDEDED" stroke="#D2D2D2"/>
<path d="M451.498 15.7832L454 16.5746L450.533 24.813C448.635 29.3161 444.874 28.8611 441 27.765C442.855 23.3727 444.959 13.7295 451.498 15.7832Z" fill="#EDEDED" stroke="#D2D2D2"/>
<path d="M443.498 15.7832L446 16.5746L442.533 24.813C440.635 29.3161 436.874 28.8611 433 27.765C434.855 23.3727 436.959 13.7295 443.498 15.7832Z" fill="#EDEDED" stroke="#D2D2D2"/>
<path d="M435.498 15.7832L438 16.5746L434.533 24.813C432.635 29.3161 428.874 28.8611 425 27.765C426.855 23.3727 428.959 13.7295 435.498 15.7832Z" fill="#EDEDED" stroke="#D2D2D2"/>
<path d="M427.498 15.7832L430 16.5746L426.533 24.813C424.635 29.3161 420.874 28.8611 417 27.765C418.855 23.3727 420.959 13.7295 427.498 15.7832Z" fill="#EDEDED" stroke="#D2D2D2"/>
<path d="M419.498 15.7832L422 16.5746L418.533 24.813C416.635 29.3161 412.874 28.8611 409 27.765C410.855 23.3727 412.959 13.7295 419.498 15.7832Z" fill="#EDEDED" stroke="#D2D2D2"/>
<path d="M411.498 15.7832L414 16.5746L410.533 24.813C408.635 29.3161 404.874 28.8611 401 27.765C402.855 23.3727 404.959 13.7295 411.498 15.7832Z" fill="#EDEDED" stroke="#D2D2D2"/>
<path d="M403.498 15.7832L406 16.5746L402.533 24.813C400.635 29.3161 396.874 28.8611 393 27.765C394.855 23.3727 396.959 13.7295 403.498 15.7832Z" fill="#EDEDED" stroke="#D2D2D2"/>
<path d="M395.498 15.7832L398 16.5746L394.533 24.813C392.635 29.3161 388.874 28.8611 385 27.765C386.855 23.3727 388.959 13.7295 395.498 15.7832Z" fill="#EDEDED" stroke="#D2D2D2"/>
<path d="M387.498 15.7832L390 16.5746L386.533 24.813C384.635 29.3161 380.874 28.8611 377 27.765C378.855 23.3727 380.959 13.7295 387.498 15.7832Z" fill="#EDEDED" stroke="#D2D2D2"/>
<path d="M379.498 15.7832L382 16.5746L378.533 24.813C376.635 29.3161 372.874 28.8611 369 27.765C370.855 23.3727 372.959 13.7295 379.498 15.7832Z" fill="#EDEDED" stroke="#D2D2D2"/>
<path d="M371.498 15.7832L374 16.5746L370.533 24.813C368.635 29.3161 364.874 28.8611 361 27.765C362.855 23.3727 364.959 13.7295 371.498 15.7832Z" fill="#EDEDED" stroke="#D2D2D2"/>
<path d="M363.498 15.7832L366 16.5746L362.533 24.813C360.635 29.3161 356.874 28.8611 353 27.765C354.855 23.3727 356.959 13.7295 363.498 15.7832Z" fill="#EDEDED" stroke="#D2D2D2"/>
<path d="M355.498 15.7832L358 16.5746L354.533 24.813C352.635 29.3161 348.874 28.8611 345 27.765C346.855 23.3727 348.959 13.7295 355.498 15.7832Z" fill="#EDEDED" stroke="#D2D2D2"/>
<path d="M347.498 15.7832L350 16.5746L346.533 24.813C344.635 29.3161 340.874 28.8611 337 27.765C338.855 23.3727 340.959 13.7295 347.498 15.7832Z" fill="#EDEDED" stroke="#D2D2D2"/>
<path d="M339.498 15.7832L342 16.5746L338.533 24.813C336.635 29.3161 332.874 28.8611 329 27.765C330.855 23.3727 332.959 13.7295 339.498 15.7832Z" fill="#EDEDED" stroke="#D2D2D2"/>
<path d="M331.498 15.7832L334 16.5746L330.533 24.813C328.635 29.3161 324.874 28.8611 321 27.765C322.855 23.3727 324.959 13.7295 331.498 15.7832Z" fill="#EDEDED" stroke="#D2D2D2"/>
<path d="M323.498 15.7832L326 16.5746L322.533 24.813C320.635 29.3161 316.874 28.8611 313 27.765C314.855 23.3727 316.959 13.7295 323.498 15.7832Z" fill="#EDEDED" stroke="#D2D2D2"/>
<path d="M315.498 15.7832L318 16.5746L314.533 24.813C312.635 29.3161 308.874 28.8611 305 27.765C306.855 23.3727 308.959 13.7295 315.498 15.7832Z" fill="#EDEDED" stroke="#D2D2D2"/>
<path d="M307.498 15.7832L310 16.5746L306.533 24.813C304.635 29.3161 300.874 28.8611 297 27.765C298.855 23.3727 300.959 13.7295 307.498 15.7832Z" fill="#EDEDED" stroke="#D2D2D2"/>
<path d="M299.498 15.7832L302 16.5746L298.533 24.813C296.635 29.3161 292.874 28.8611 289 27.765C290.855 23.3727 292.959 13.7295 299.498 15.7832Z" fill="#EDEDED" stroke="#D2D2D2"/>
<path d="M291.498 15.7832L294 16.5746L290.533 24.813C288.635 29.3161 284.874 28.8611 281 27.765C282.855 23.3727 284.959 13.7295 291.498 15.7832Z" fill="#EDEDED" stroke="#D2D2D2"/>
<path d="M283.498 15.7832L286 16.5746L282.533 24.813C280.635 29.3161 276.874 28.8611 273 27.765C274.855 23.3727 276.959 13.7295 283.498 15.7832Z" fill="#EDEDED" stroke="#D2D2D2"/>
<path d="M275.498 15.7832L278 16.5746L274.533 24.813C272.635 29.3161 268.874 28.8611 265 27.765C266.855 23.3727 268.959 13.7295 275.498 15.7832Z" fill="#EDEDED" stroke="#D2D2D2"/>
<path d="M267.498 15.7832L270 16.5746L266.533 24.813C264.635 29.3161 260.874 28.8611 257 27.765C258.855 23.3727 260.959 13.7295 267.498 15.7832Z" fill="#EDEDED" stroke="#D2D2D2"/>
<path d="M259.498 15.7832L262 16.5746L258.533 24.813C256.635 29.3161 252.874 28.8611 249 27.765C250.855 23.3727 252.959 13.7295 259.498 15.7832Z" fill="#EDEDED" stroke="#D2D2D2"/>
<path d="M251.498 15.7832L254 16.5746L250.533 24.813C248.635 29.3161 244.874 28.8611 241 27.765C242.855 23.3727 244.959 13.7295 251.498 15.7832Z" fill="#EDEDED" stroke="#D2D2D2"/>
<path d="M243.498 15.7832L246 16.5746L242.533 24.813C240.635 29.3161 236.874 28.8611 233 27.765C234.855 23.3727 236.959 13.7295 243.498 15.7832Z" fill="#EDEDED" stroke="#D2D2D2"/>
<path d="M235.498 15.7832L238 16.5746L234.533 24.813C232.635 29.3161 228.874 28.8611 225 27.765C226.855 23.3727 228.959 13.7295 235.498 15.7832Z" fill="#EDEDED" stroke="#D2D2D2"/>
<path d="M227.498 15.7832L230 16.5746L226.533 24.813C224.635 29.3161 220.874 28.8611 217 27.765C218.855 23.3727 220.959 13.7295 227.498 15.7832Z" fill="#EDEDED" stroke="#D2D2D2"/>
<path d="M219.498 15.7832L222 16.5746L218.533 24.813C216.635 29.3161 212.874 28.8611 209 27.765C210.855 23.3727 212.959 13.7295 219.498 15.7832Z" fill="#EDEDED" stroke="#D2D2D2"/>
<path d="M211.498 15.7832L214 16.5746L210.533 24.813C208.635 29.3161 204.874 28.8611 201 27.765C202.855 23.3727 204.959 13.7295 211.498 15.7832Z" fill="#EDEDED" stroke="#D2D2D2"/>
<path d="M203.498 15.7832L206 16.5746L202.533 24.813C200.635 29.3161 196.874 28.8611 193 27.765C194.855 23.3727 196.959 13.7295 203.498 15.7832Z" fill="#EDEDED" stroke="#D2D2D2"/>
<path d="M195.498 15.7832L198 16.5746L194.533 24.813C192.635 29.3161 188.874 28.8611 185 27.765C186.855 23.3727 188.959 13.7295 195.498 15.7832Z" fill="#EDEDED" stroke="#D2D2D2"/>
<path d="M187.498 15.7832L190 16.5746L186.533 24.813C184.635 29.3161 180.874 28.8611 177 27.765C178.855 23.3727 180.959 13.7295 187.498 15.7832Z" fill="#EDEDED" stroke="#D2D2D2"/>
<path d="M179.498 15.7832L182 16.5746L178.533 24.813C176.635 29.3161 172.874 28.8611 169 27.765C170.855 23.3727 172.959 13.7295 179.498 15.7832Z" fill="#EDEDED" stroke="#D2D2D2"/>
<path d="M171.498 15.7832L174 16.5746L170.533 24.813C168.635 29.3161 164.874 28.8611 161 27.765C162.855 23.3727 164.959 13.7295 171.498 15.7832Z" fill="#EDEDED" stroke="#D2D2D2"/>
<path d="M163.498 15.7832L166 16.5746L162.533 24.813C160.635 29.3161 156.874 28.8611 153 27.765C154.855 23.3727 156.959 13.7295 163.498 15.7832Z" fill="#EDEDED" stroke="#D2D2D2"/>
<path d="M155.498 15.7832L158 16.5746L154.533 24.813C152.635 29.3161 148.874 28.8611 145 27.765C146.855 23.3727 148.959 13.7295 155.498 15.7832Z" fill="#EDEDED" stroke="#D2D2D2"/>
<path d="M147.498 15.7832L150 16.5746L146.533 24.813C144.635 29.3161 140.874 28.8611 137 27.765C138.855 23.3727 140.959 13.7295 147.498 15.7832Z" fill="#EDEDED" stroke="#D2D2D2"/>
<path d="M139.498 15.7832L142 16.5746L138.533 24.813C136.635 29.3161 132.874 28.8611 129 27.765C130.855 23.3727 132.959 13.7295 139.498 15.7832Z" fill="#EDEDED" stroke="#D2D2D2"/>
<path d="M131.498 15.7832L134 16.5746L130.533 24.813C128.635 29.3161 124.874 28.8611 121 27.765C122.855 23.3727 124.959 13.7295 131.498 15.7832Z" fill="#EDEDED" stroke="#D2D2D2"/>
<path d="M123.498 15.7832L126 16.5746L122.533 24.813C120.635 29.3161 116.874 28.8611 113 27.765C114.855 23.3727 116.959 13.7295 123.498 15.7832Z" fill="#EDEDED" stroke="#D2D2D2"/>
<path d="M115.498 15.7832L118 16.5746L114.533 24.813C112.635 29.3161 108.874 28.8611 105 27.765C106.855 23.3727 108.959 13.7295 115.498 15.7832Z" fill="#EDEDED" stroke="#D2D2D2"/>
<path d="M107.498 15.7832L110 16.5746L106.533 24.813C104.635 29.3161 100.874 28.8611 97 27.765C98.8555 23.3727 100.959 13.7295 107.498 15.7832Z" fill="#EDEDED" stroke="#D2D2D2"/>
<path d="M99.4976 15.7832L102 16.5746L98.5331 24.813C96.635 29.3161 92.8737 28.8611 89 27.765C90.8555 23.3727 92.9589 13.7295 99.4976 15.7832Z" fill="#EDEDED" stroke="#D2D2D2"/>
<path d="M91.4976 15.7832L94 16.5746L90.5331 24.813C88.635 29.3161 84.8737 28.8611 81 27.765C82.8555 23.3727 84.9589 13.7295 91.4976 15.7832Z" fill="#EDEDED" stroke="#D2D2D2"/>
<path d="M83.4976 15.7832L86 16.5746L82.5331 24.813C80.635 29.3161 76.8737 28.8611 73 27.765C74.8555 23.3727 76.9589 13.7295 83.4976 15.7832Z" fill="#EDEDED" stroke="#D2D2D2"/>
<path d="M75.4976 15.7832L78 16.5746L74.5331 24.813C72.635 29.3161 68.8737 28.8611 65 27.765C66.8555 23.3727 68.9589 13.7295 75.4976 15.7832Z" fill="#EDEDED" stroke="#D2D2D2"/>
<path d="M67.4976 15.7832L70 16.5746L66.5331 24.813C64.635 29.3161 60.8737 28.8611 57 27.765C58.8555 23.3727 60.9589 13.7295 67.4976 15.7832Z" fill="#EDEDED" stroke="#D2D2D2"/>
<path d="M59.4976 15.7832L62 16.5746L58.5331 24.813C56.635 29.3161 52.8737 28.8611 49 27.765C50.8555 23.3727 52.9589 13.7295 59.4976 15.7832Z" fill="#EDEDED" stroke="#D2D2D2"/>
<path d="M51.4976 15.7832L54 16.5746L50.5331 24.813C48.635 29.3161 44.8737 28.8611 41 27.765C42.8555 23.3727 44.9589 13.7295 51.4976 15.7832Z" fill="#EDEDED" stroke="#D2D2D2"/>
<path d="M43.4976 15.7832L46 16.5746L42.5331 24.813C40.635 29.3161 36.8737 28.8611 33 27.765C34.8555 23.3727 36.9589 13.7295 43.4976 15.7832Z" fill="#EDEDED" stroke="#D2D2D2"/>
<path d="M35.4976 15.7832L38 16.5746L34.5331 24.813C32.635 29.3161 28.8737 28.8611 25 27.765C26.8555 23.3727 28.9589 13.7295 35.4976 15.7832Z" fill="#EDEDED" stroke="#D2D2D2"/>
<path d="M27.4976 15.7832L30 16.5746L26.5331 24.813C24.635 29.3161 20.8737 28.8611 17 27.765C18.8555 23.3727 20.9589 13.7295 27.4976 15.7832Z" fill="#EDEDED" stroke="#D2D2D2"/>
<path d="M19.4976 15.7832L22 16.5746L18.5331 24.813C16.635 29.3161 12.8737 28.8611 9 27.765C10.8555 23.3727 12.9589 13.7295 19.4976 15.7832Z" fill="#EDEDED" stroke="#D2D2D2"/>
<path d="M11.4976 15.7832L14 16.5746L10.5331 24.813C8.63498 29.3161 4.87366 28.8611 1 27.765C2.85548 23.3727 4.95887 13.7295 11.4976 15.7832Z" fill="#EDEDED" stroke="#D2D2D2"/>
</svg>
