<svg width="60" height="600" viewBox="0 0 60 600" fill="none" xmlns="http://www.w3.org/2000/svg">
<path d="M35.7386 3.3099L35.0081 1L27.4034 4.20024C23.2467 5.95233 23.6667 9.42431 24.6785 13C28.7329 11.2872 37.6343 9.34566 35.7386 3.3099Z" fill="#EDEDED" stroke="#D2D2D2"/>
<path d="M35.7386 10.3099L35.0081 8L27.4034 11.2002C23.2467 12.9523 23.6667 16.4243 24.6785 20C28.7329 18.2872 37.6343 16.3457 35.7386 10.3099Z" fill="#EDEDED" stroke="#D2D2D2"/>
<path d="M35.7386 17.3099L35.0081 15L27.4034 18.2002C23.2467 19.9523 23.6667 23.4243 24.6785 27C28.7329 25.2872 37.6343 23.3457 35.7386 17.3099Z" fill="#EDEDED" stroke="#D2D2D2"/>
<path d="M35.7386 24.3099L35.0081 22L27.4034 25.2002C23.2467 26.9523 23.6667 30.4243 24.6785 34C28.7329 32.2872 37.6343 30.3457 35.7386 24.3099Z" fill="#EDEDED" stroke="#D2D2D2"/>
<path d="M35.7386 31.3099L35.0081 29L27.4034 32.2002C23.2467 33.9523 23.6667 37.4243 24.6785 41C28.7329 39.2872 37.6343 37.3457 35.7386 31.3099Z" fill="#EDEDED" stroke="#D2D2D2"/>
<path d="M35.7386 38.3099L35.0081 36L27.4034 39.2002C23.2467 40.9523 23.6667 44.4243 24.6785 48C28.7329 46.2872 37.6343 44.3457 35.7386 38.3099Z" fill="#EDEDED" stroke="#D2D2D2"/>
<path d="M35.7386 45.3099L35.0081 43L27.4034 46.2002C23.2467 47.9523 23.6667 51.4243 24.6785 55C28.7329 53.2872 37.6343 51.3457 35.7386 45.3099Z" fill="#EDEDED" stroke="#D2D2D2"/>
<path d="M35.7386 52.3099L35.0081 50L27.4034 53.2002C23.2467 54.9523 23.6667 58.4243 24.6785 62C28.7329 60.2872 37.6343 58.3457 35.7386 52.3099Z" fill="#EDEDED" stroke="#D2D2D2"/>
<path d="M35.7386 59.3099L35.0081 57L27.4034 60.2002C23.2467 61.9523 23.6667 65.4243 24.6785 69C28.7329 67.2872 37.6343 65.3457 35.7386 59.3099Z" fill="#EDEDED" stroke="#D2D2D2"/>
<path d="M35.7386 66.3099L35.0081 64L27.4034 67.2002C23.2467 68.9523 23.6667 72.4243 24.6785 76C28.7329 74.2872 37.6343 72.3457 35.7386 66.3099Z" fill="#EDEDED" stroke="#D2D2D2"/>
<path d="M35.7386 73.3099L35.0081 71L27.4034 74.2002C23.2467 75.9523 23.6667 79.4243 24.6785 83C28.7329 81.2872 37.6343 79.3457 35.7386 73.3099Z" fill="#EDEDED" stroke="#D2D2D2"/>
<path d="M35.7386 80.3099L35.0081 78L27.4034 81.2002C23.2467 82.9523 23.6667 86.4243 24.6785 90C28.7329 88.2872 37.6343 86.3457 35.7386 80.3099Z" fill="#EDEDED" stroke="#D2D2D2"/>
<path d="M35.7386 87.3099L35.0081 85L27.4034 88.2002C23.2467 89.9523 23.6667 93.4243 24.6785 97C28.7329 95.2872 37.6343 93.3457 35.7386 87.3099Z" fill="#EDEDED" stroke="#D2D2D2"/>
<path d="M35.7386 94.3099L35.0081 92L27.4034 95.2002C23.2467 96.9523 23.6667 100.424 24.6785 104C28.7329 102.287 37.6343 100.346 35.7386 94.3099Z" fill="#EDEDED" stroke="#D2D2D2"/>
<path d="M35.7386 101.31L35.0081 99L27.4034 102.2C23.2467 103.952 23.6667 107.424 24.6785 111C28.7329 109.287 37.6343 107.346 35.7386 101.31Z" fill="#EDEDED" stroke="#D2D2D2"/>
<path d="M35.7386 108.31L35.0081 106L27.4034 109.2C23.2467 110.952 23.6667 114.424 24.6785 118C28.7329 116.287 37.6343 114.346 35.7386 108.31Z" fill="#EDEDED" stroke="#D2D2D2"/>
<path d="M35.7386 115.31L35.0081 113L27.4034 116.2C23.2467 117.952 23.6667 121.424 24.6785 125C28.7329 123.287 37.6343 121.346 35.7386 115.31Z" fill="#EDEDED" stroke="#D2D2D2"/>
<path d="M35.7386 122.31L35.0081 120L27.4034 123.2C23.2467 124.952 23.6667 128.424 24.6785 132C28.7329 130.287 37.6343 128.346 35.7386 122.31Z" fill="#EDEDED" stroke="#D2D2D2"/>
<path d="M35.7386 129.31L35.0081 127L27.4034 130.2C23.2467 131.952 23.6667 135.424 24.6785 139C28.7329 137.287 37.6343 135.346 35.7386 129.31Z" fill="#EDEDED" stroke="#D2D2D2"/>
<path d="M35.7386 136.31L35.0081 134L27.4034 137.2C23.2467 138.952 23.6667 142.424 24.6785 146C28.7329 144.287 37.6343 142.346 35.7386 136.31Z" fill="#EDEDED" stroke="#D2D2D2"/>
<path d="M35.7386 143.31L35.0081 141L27.4034 144.2C23.2467 145.952 23.6667 149.424 24.6785 153C28.7329 151.287 37.6343 149.346 35.7386 143.31Z" fill="#EDEDED" stroke="#D2D2D2"/>
<path d="M35.7386 150.31L35.0081 148L27.4034 151.2C23.2467 152.952 23.6667 156.424 24.6785 160C28.7329 158.287 37.6343 156.346 35.7386 150.31Z" fill="#EDEDED" stroke="#D2D2D2"/>
<path d="M35.7386 157.31L35.0081 155L27.4034 158.2C23.2467 159.952 23.6667 163.424 24.6785 167C28.7329 165.287 37.6343 163.346 35.7386 157.31Z" fill="#EDEDED" stroke="#D2D2D2"/>
<path d="M35.7386 164.31L35.0081 162L27.4034 165.2C23.2467 166.952 23.6667 170.424 24.6785 174C28.7329 172.287 37.6343 170.346 35.7386 164.31Z" fill="#EDEDED" stroke="#D2D2D2"/>
<path d="M35.7386 171.31L35.0081 169L27.4034 172.2C23.2467 173.952 23.6667 177.424 24.6785 181C28.7329 179.287 37.6343 177.346 35.7386 171.31Z" fill="#EDEDED" stroke="#D2D2D2"/>
<path d="M35.7386 178.31L35.0081 176L27.4034 179.2C23.2467 180.952 23.6667 184.424 24.6785 188C28.7329 186.287 37.6343 184.346 35.7386 178.31Z" fill="#EDEDED" stroke="#D2D2D2"/>
<path d="M35.7386 185.31L35.0081 183L27.4034 186.2C23.2467 187.952 23.6667 191.424 24.6785 195C28.7329 193.287 37.6343 191.346 35.7386 185.31Z" fill="#EDEDED" stroke="#D2D2D2"/>
<path d="M35.7386 192.31L35.0081 190L27.4034 193.2C23.2467 194.952 23.6667 198.424 24.6785 202C28.7329 200.287 37.6343 198.346 35.7386 192.31Z" fill="#EDEDED" stroke="#D2D2D2"/>
<path d="M35.7386 199.31L35.0081 197L27.4034 200.2C23.2467 201.952 23.6667 205.424 24.6785 209C28.7329 207.287 37.6343 205.346 35.7386 199.31Z" fill="#EDEDED" stroke="#D2D2D2"/>
<path d="M35.7386 206.31L35.0081 204L27.4034 207.2C23.2467 208.952 23.6667 212.424 24.6785 216C28.7329 214.287 37.6343 212.346 35.7386 206.31Z" fill="#EDEDED" stroke="#D2D2D2"/>
<path d="M35.7386 213.31L35.0081 211L27.4034 214.2C23.2467 215.952 23.6667 219.424 24.6785 223C28.7329 221.287 37.6343 219.346 35.7386 213.31Z" fill="#EDEDED" stroke="#D2D2D2"/>
<path d="M35.4985 229.277C35.0907 228.239 34.1845 227.201 33.0065 226.569C31.8285 225.892 30.4693 225.576 29.1553 225.576C23.2232 225.678 21.0133 232.432 22.6309 237.266C22.7669 237.672 22.9028 237.988 22.9934 238.214C23.084 238.44 23.1293 238.575 23.1293 238.575C24.6245 238.35 25.6666 238.079 26.3009 237.537C30.0859 234.709 29.4815 229.277 35.4985 229.277Z" fill="#EDEDED" stroke="#D2D2D2"/>
<path d="M40.5674 233.581C40.4976 232.469 39.9532 231.204 39.0254 230.244C38.1114 229.241 36.9141 228.526 35.663 228.126C30.2315 226.492 24.854 231.944 26.8061 237.152C35.423 240.351 35.0175 231.807 40.5674 233.581Z" fill="#EDEDED" stroke="#D2D2D2"/>
<path d="M22.9896 229.909C23.0802 229.728 23.1708 229.548 23.2161 229.367C23.3521 229.096 23.4427 228.916 23.4427 228.916C22.4459 228.735 21.3132 228.871 20.2711 229.322C19.229 229.728 18.2322 230.45 17.5073 231.308C14.2348 235.383 16.4423 240.871 20.3164 243.766C20.4976 243.901 20.7242 244.037 20.9054 244.172C21.2679 244.398 21.5397 244.578 21.7662 244.669C21.9928 244.759 22.1287 244.804 22.1287 244.804C23.1708 243.721 23.7598 242.908 23.941 241.96C24.5598 237.851 21.8263 234.544 22.9896 229.909Z" fill="#EDEDED" stroke="#D2D2D2"/>
<path d="M34.9973 237.131C34.9973 237.131 35.1332 237.086 35.3597 236.995C35.5862 236.905 35.9034 236.815 36.3112 236.77C37.1268 236.589 38.3048 236.589 39.5281 236.815C40.7514 237.04 42.02 237.537 42.9262 237.988C43.3793 238.214 43.7418 238.44 44.0136 238.62C44.2855 238.801 44.4213 238.891 44.4213 238.891C44.7838 237.943 44.8291 236.86 44.6026 235.777C44.376 234.693 43.8323 233.565 43.0621 232.662C42.2918 231.714 41.2951 230.992 40.2077 230.541C39.1203 230.089 37.9423 229.954 36.9002 230.134C36.9002 230.134 36.719 230.18 36.4018 230.225C36.0847 230.315 35.6315 230.405 35.1332 230.631C34.6348 230.812 34.0458 231.082 33.5021 231.443C32.9584 231.805 32.46 232.211 32.0069 232.662C31.1461 233.565 30.7383 234.648 30.6023 235.416C30.557 235.822 30.557 236.093 30.6023 236.318C30.6476 236.544 30.6477 236.634 30.6477 236.634C31.7351 237.402 32.1429 237.988 32.46 237.988C32.5959 237.988 32.9131 237.898 33.2755 237.718C33.9098 237.582 34.4536 237.356 34.9973 237.131Z" fill="#EDEDED" stroke="#D2D2D2"/>
<path d="M35.7347 220.31L35.0042 218L27.3995 221.2C23.2428 222.952 23.6628 226.424 24.6746 230C28.729 228.287 37.6304 226.346 35.7347 220.31Z" fill="#EDEDED" stroke="#D2D2D2"/>
<path d="M35.7347 227.31L35.0042 225L27.3995 228.2C23.2428 229.952 23.6628 233.424 24.6746 237C28.729 235.287 37.6304 233.346 35.7347 227.31Z" fill="#EDEDED" stroke="#D2D2D2"/>
<path d="M35.7347 234.31L35.0042 232L27.3995 235.2C23.2428 236.952 23.6628 240.424 24.6746 244C28.729 242.287 37.6304 240.346 35.7347 234.31Z" fill="#EDEDED" stroke="#D2D2D2"/>
<path d="M35.7347 241.31L35.0042 239L27.3995 242.2C23.2428 243.952 23.6628 247.424 24.6746 251C28.729 249.287 37.6304 247.346 35.7347 241.31Z" fill="#EDEDED" stroke="#D2D2D2"/>
<path d="M35.7347 248.31L35.0042 246L27.3995 249.2C23.2428 250.952 23.6628 254.424 24.6746 258C28.729 256.287 37.6304 254.346 35.7347 248.31Z" fill="#EDEDED" stroke="#D2D2D2"/>
<path d="M35.7347 255.31L35.0042 253L27.3995 256.2C23.2428 257.952 23.6628 261.424 24.6746 265C28.729 263.287 37.6304 261.346 35.7347 255.31Z" fill="#EDEDED" stroke="#D2D2D2"/>
<path d="M16.1474 237.808C16.0568 237.492 16.0114 237.357 16.0114 237.357C14.2897 238.35 13.1117 240.471 13.0664 242.773C13.0664 248.35 19.0829 251.419 24.1669 250.086C24.5747 249.995 24.8918 249.905 25.1184 249.815C25.3449 249.725 25.4809 249.679 25.4809 249.679C25.1738 244.48 17.7347 243.343 16.1474 237.808Z" fill="#EDEDED" stroke="#D2D2D2"/>
<path d="M25.4827 249.635C25.4827 249.635 25.3467 249.68 25.1202 249.77C24.8936 249.86 24.5765 249.951 24.1687 250.041C23.3532 250.221 22.1752 250.357 20.9066 250.267C20.2722 250.221 19.6832 250.086 19.0489 249.905C18.4599 249.725 17.9162 249.499 17.4178 249.319C16.9647 249.093 16.5569 248.867 16.2851 248.732C16.0132 248.551 15.832 248.461 15.832 248.461C15.6961 248.958 15.6508 249.454 15.6055 249.996C15.6055 250.537 15.6961 251.079 15.8773 251.666C16.0132 252.207 16.2851 252.749 16.5569 253.246C16.8288 253.742 17.2366 254.194 17.6443 254.645C18.0521 255.051 18.5052 255.412 19.0036 255.728C19.502 256.044 20.0004 256.27 20.5441 256.45C21.0878 256.631 21.5862 256.721 22.1299 256.766C22.6736 256.811 23.172 256.721 23.625 256.631C23.625 256.631 23.8063 256.586 24.0781 256.496C24.3953 256.405 24.803 256.27 25.3014 256.134C26.2529 255.773 27.4762 255.187 28.473 254.464C28.9714 254.103 29.4245 253.697 29.8322 253.336C30.24 252.93 30.5572 252.569 30.7837 252.207C31.2821 251.485 31.5086 251.034 31.5086 251.034C30.5118 249.905 29.7417 249.274 28.8355 249.093C27.9293 248.912 26.8872 249.093 25.4827 249.635Z" fill="#EDEDED" stroke="#D2D2D2"/>
<path d="M31.5066 251.079C31.5066 251.079 31.2801 251.53 30.7817 252.253C30.5099 252.569 30.1927 252.975 29.8302 253.381C29.4225 253.742 28.9694 254.148 28.471 254.509C27.4742 255.232 26.2509 255.818 25.2994 256.179C24.801 256.36 24.3933 256.495 24.0761 256.541C23.759 256.631 23.623 256.631 23.623 256.631C23.8496 257.082 24.1667 257.488 24.4839 257.85C24.8463 258.256 25.2541 258.572 25.7072 258.843C26.1603 259.159 26.6586 259.384 27.2023 259.565C27.746 259.745 28.2898 259.836 28.8788 259.926C30.0115 260.016 31.2348 259.836 32.2769 259.429C33.319 258.978 34.2251 258.346 34.8141 257.488C34.8141 257.488 34.9047 257.353 35.086 257.082C35.2672 256.857 35.4938 256.405 35.7203 255.954C36.2187 255.051 36.6718 253.742 36.853 252.523C37.0342 251.305 36.9889 250.131 36.8077 249.273C36.7171 248.867 36.6265 248.506 36.5812 248.28C36.4906 248.055 36.4452 247.919 36.4452 247.919C34.9501 247.919 33.908 248.01 33.2284 248.461C33.0471 248.551 32.9112 248.687 32.73 248.867C32.5941 249.003 32.4581 249.183 32.3222 249.409C32.1863 249.589 32.0503 249.86 31.9144 250.131C31.8238 250.447 31.6879 250.718 31.5066 251.079Z" fill="#EDEDED" stroke="#D2D2D2"/>
<path d="M36.5335 248.01C36.5335 248.01 36.5788 248.145 36.6694 248.371C36.7147 248.596 36.8053 248.912 36.8959 249.364C37.0318 250.176 37.1224 251.35 36.9412 252.614C36.76 253.832 36.3069 255.141 35.8085 256.044C35.582 256.495 35.3102 256.902 35.1742 257.172C34.993 257.443 34.9023 257.579 34.9023 257.579C35.1289 257.669 35.4008 257.759 35.6726 257.804C35.9445 257.849 36.2163 257.849 36.4881 257.895C36.76 257.895 37.0318 257.895 37.349 257.895C37.6208 257.849 37.8927 257.804 38.1646 257.759C39.252 257.488 40.3393 256.947 41.2455 256.179C42.1517 255.412 42.8313 254.419 43.2391 253.426C43.6468 252.388 43.7828 251.305 43.6015 250.312C43.6015 250.312 43.5562 250.131 43.5109 249.815C43.4656 249.499 43.3297 249.093 43.1938 248.596C42.8766 247.603 42.3329 246.385 41.608 245.346C40.883 244.308 39.9769 243.541 39.2973 243.044C38.9348 242.819 38.6629 242.638 38.4364 242.503C38.2099 242.367 38.1193 242.322 38.1193 242.322C37.0319 243.36 36.3975 244.128 36.2163 244.895C35.8538 245.572 36.0804 246.565 36.5335 248.01Z" fill="#EDEDED" stroke="#D2D2D2"/>
<path d="M43.3774 249.725C43.4227 250.041 43.468 250.221 43.468 250.221C44.3742 249.815 45.1898 249.048 45.8241 248.1C46.4584 247.152 46.8208 245.978 46.9114 244.805C47.002 243.631 46.8208 242.412 46.3678 241.419C44.4833 237.101 41.8094 235.594 36.1521 236.699C35.0062 238.798 34.9501 239.614 35.3578 240.336C37.8172 244.147 42.4063 243.92 43.3774 249.725Z" fill="#EDEDED" stroke="#D2D2D2"/>
<path d="M35.7386 262.31L35.0081 260L27.4034 263.2C23.2467 264.952 23.6667 268.424 24.6785 272C28.7329 270.287 37.6343 268.346 35.7386 262.31Z" fill="#EDEDED" stroke="#D2D2D2"/>
<path d="M35.7386 269.31L35.0081 267L27.4034 270.2C23.2467 271.952 23.6667 275.424 24.6785 279C28.7329 277.287 37.6343 275.346 35.7386 269.31Z" fill="#EDEDED" stroke="#D2D2D2"/>
<path d="M35.7386 276.31L35.0081 274L27.4034 277.2C23.2467 278.952 23.6667 282.424 24.6785 286C28.7329 284.287 37.6343 282.346 35.7386 276.31Z" fill="#EDEDED" stroke="#D2D2D2"/>
<path d="M35.7386 283.31L35.0081 281L27.4034 284.2C23.2467 285.952 23.6667 289.424 24.6785 293C28.7329 291.287 37.6343 289.346 35.7386 283.31Z" fill="#EDEDED" stroke="#D2D2D2"/>
<path d="M35.7386 290.31L35.0081 288L27.4034 291.2C23.2467 292.952 23.6667 296.424 24.6785 300C28.7329 298.287 37.6343 296.346 35.7386 290.31Z" fill="#EDEDED" stroke="#D2D2D2"/>
<path d="M35.7386 297.31L35.0081 295L27.4034 298.2C23.2467 299.952 23.6667 303.424 24.6785 307C28.7329 305.287 37.6343 303.346 35.7386 297.31Z" fill="#EDEDED" stroke="#D2D2D2"/>
<path d="M35.7386 304.31L35.0081 302L27.4034 305.2C23.2467 306.952 23.6667 310.424 24.6785 314C28.7329 312.287 37.6343 310.346 35.7386 304.31Z" fill="#EDEDED" stroke="#D2D2D2"/>
<path d="M35.7386 311.31L35.0081 309L27.4034 312.2C23.2467 313.952 23.6667 317.424 24.6785 321C28.7329 319.287 37.6343 317.346 35.7386 311.31Z" fill="#EDEDED" stroke="#D2D2D2"/>
<path d="M35.7386 318.31L35.0081 316L27.4034 319.2C23.2467 320.952 23.6667 324.424 24.6785 328C28.7329 326.287 37.6343 324.346 35.7386 318.31Z" fill="#EDEDED" stroke="#D2D2D2"/>
<path d="M35.7386 325.31L35.0081 323L27.4034 326.2C23.2467 327.952 23.6667 331.424 24.6785 335C28.7329 333.287 37.6343 331.346 35.7386 325.31Z" fill="#EDEDED" stroke="#D2D2D2"/>
<path d="M35.7386 332.31L35.0081 330L27.4034 333.2C23.2467 334.952 23.6667 338.424 24.6785 342C28.7329 340.287 37.6343 338.346 35.7386 332.31Z" fill="#EDEDED" stroke="#D2D2D2"/>
<path d="M35.7386 339.31L35.0081 337L27.4034 340.2C23.2467 341.952 23.6667 345.424 24.6785 349C28.7329 347.287 37.6343 345.346 35.7386 339.31Z" fill="#EDEDED" stroke="#D2D2D2"/>
<path d="M35.7386 346.31L35.0081 344L27.4034 347.2C23.2467 348.952 23.6667 352.424 24.6785 356C28.7329 354.287 37.6343 352.346 35.7386 346.31Z" fill="#EDEDED" stroke="#D2D2D2"/>
<path d="M35.7386 353.31L35.0081 351L27.4034 354.2C23.2467 355.952 23.6667 359.424 24.6785 363C28.7329 361.287 37.6343 359.346 35.7386 353.31Z" fill="#EDEDED" stroke="#D2D2D2"/>
<path d="M35.7386 360.31L35.0081 358L27.4034 361.2C23.2467 362.952 23.6667 366.424 24.6785 370C28.7329 368.287 37.6343 366.346 35.7386 360.31Z" fill="#EDEDED" stroke="#D2D2D2"/>
<path d="M35.7386 367.31L35.0081 365L27.4034 368.2C23.2467 369.952 23.6667 373.424 24.6785 377C28.7329 375.287 37.6343 373.346 35.7386 367.31Z" fill="#EDEDED" stroke="#D2D2D2"/>
<path d="M35.7386 374.31L35.0081 372L27.4034 375.2C23.2467 376.952 23.6667 380.424 24.6785 384C28.7329 382.287 37.6343 380.346 35.7386 374.31Z" fill="#EDEDED" stroke="#D2D2D2"/>
<path d="M35.7386 381.31L35.0081 379L27.4034 382.2C23.2467 383.952 23.6667 387.424 24.6785 391C28.7329 389.287 37.6343 387.346 35.7386 381.31Z" fill="#EDEDED" stroke="#D2D2D2"/>
<path d="M35.7386 388.31L35.0081 386L27.4034 389.2C23.2467 390.952 23.6667 394.424 24.6785 398C28.7329 396.287 37.6343 394.346 35.7386 388.31Z" fill="#EDEDED" stroke="#D2D2D2"/>
<path d="M35.7386 395.31L35.0081 393L27.4034 396.2C23.2467 397.952 23.6667 401.424 24.6785 405C28.7329 403.287 37.6343 401.346 35.7386 395.31Z" fill="#EDEDED" stroke="#D2D2D2"/>
<path d="M35.7386 402.31L35.0081 400L27.4034 403.2C23.2467 404.952 23.6667 408.424 24.6785 412C28.7329 410.287 37.6343 408.346 35.7386 402.31Z" fill="#EDEDED" stroke="#D2D2D2"/>
<path d="M35.7386 409.31L35.0081 407L27.4034 410.2C23.2467 411.952 23.6667 415.424 24.6785 419C28.7329 417.287 37.6343 415.346 35.7386 409.31Z" fill="#EDEDED" stroke="#D2D2D2"/>
<path d="M35.7386 416.31L35.0081 414L27.4034 417.2C23.2467 418.952 23.6667 422.424 24.6785 426C28.7329 424.287 37.6343 422.346 35.7386 416.31Z" fill="#EDEDED" stroke="#D2D2D2"/>
<path d="M35.7386 423.31L35.0081 421L27.4034 424.2C23.2467 425.952 23.6667 429.424 24.6785 433C28.7329 431.287 37.6343 429.346 35.7386 423.31Z" fill="#EDEDED" stroke="#D2D2D2"/>
<path d="M35.7386 430.31L35.0081 428L27.4034 431.2C23.2467 432.952 23.6667 436.424 24.6785 440C28.7329 438.287 37.6343 436.346 35.7386 430.31Z" fill="#EDEDED" stroke="#D2D2D2"/>
<path d="M35.7386 437.31L35.0081 435L27.4034 438.2C23.2467 439.952 23.6667 443.424 24.6785 447C28.7329 445.287 37.6343 443.346 35.7386 437.31Z" fill="#EDEDED" stroke="#D2D2D2"/>
<path d="M35.7386 444.31L35.0081 442L27.4034 445.2C23.2467 446.952 23.6667 450.424 24.6785 454C28.7329 452.287 37.6343 450.346 35.7386 444.31Z" fill="#EDEDED" stroke="#D2D2D2"/>
<path d="M35.7386 451.31L35.0081 449L27.4034 452.2C23.2467 453.952 23.6667 457.424 24.6785 461C28.7329 459.287 37.6343 457.346 35.7386 451.31Z" fill="#EDEDED" stroke="#D2D2D2"/>
<path d="M35.7386 458.31L35.0081 456L27.4034 459.2C23.2467 460.952 23.6667 464.424 24.6785 468C28.7329 466.287 37.6343 464.346 35.7386 458.31Z" fill="#EDEDED" stroke="#D2D2D2"/>
<path d="M35.7386 465.31L35.0081 463L27.4034 466.2C23.2467 467.952 23.6667 471.424 24.6785 475C28.7329 473.287 37.6343 471.346 35.7386 465.31Z" fill="#EDEDED" stroke="#D2D2D2"/>
<path d="M35.7386 472.31L35.0081 470L27.4034 473.2C23.2467 474.952 23.6667 478.424 24.6785 482C28.7329 480.287 37.6343 478.346 35.7386 472.31Z" fill="#EDEDED" stroke="#D2D2D2"/>
<path d="M35.7386 479.31L35.0081 477L27.4034 480.2C23.2467 481.952 23.6667 485.424 24.6785 489C28.7329 487.287 37.6343 485.346 35.7386 479.31Z" fill="#EDEDED" stroke="#D2D2D2"/>
<path d="M35.7386 486.31L35.0081 484L27.4034 487.2C23.2467 488.952 23.6667 492.424 24.6785 496C28.7329 494.287 37.6343 492.346 35.7386 486.31Z" fill="#EDEDED" stroke="#D2D2D2"/>
<path d="M35.7386 493.31L35.0081 491L27.4034 494.2C23.2467 495.952 23.6667 499.424 24.6785 503C28.7329 501.287 37.6343 499.346 35.7386 493.31Z" fill="#EDEDED" stroke="#D2D2D2"/>
<path d="M35.7386 500.31L35.0081 498L27.4034 501.2C23.2467 502.952 23.6667 506.424 24.6785 510C28.7329 508.287 37.6343 506.346 35.7386 500.31Z" fill="#EDEDED" stroke="#D2D2D2"/>
<path d="M35.7386 507.31L35.0081 505L27.4034 508.2C23.2467 509.952 23.6667 513.424 24.6785 517C28.7329 515.287 37.6343 513.346 35.7386 507.31Z" fill="#EDEDED" stroke="#D2D2D2"/>
<path d="M35.7386 514.31L35.0081 512L27.4034 515.2C23.2467 516.952 23.6667 520.424 24.6785 524C28.7329 522.287 37.6343 520.346 35.7386 514.31Z" fill="#EDEDED" stroke="#D2D2D2"/>
<path d="M35.7386 521.31L35.0081 519L27.4034 522.2C23.2467 523.952 23.6667 527.424 24.6785 531C28.7329 529.287 37.6343 527.346 35.7386 521.31Z" fill="#EDEDED" stroke="#D2D2D2"/>
<path d="M35.7386 528.31L35.0081 526L27.4034 529.2C23.2467 530.952 23.6667 534.424 24.6785 538C28.7329 536.287 37.6343 534.346 35.7386 528.31Z" fill="#EDEDED" stroke="#D2D2D2"/>
<path d="M35.7386 535.31L35.0081 533L27.4034 536.2C23.2467 537.952 23.6667 541.424 24.6785 545C28.7329 543.287 37.6343 541.346 35.7386 535.31Z" fill="#EDEDED" stroke="#D2D2D2"/>
<path d="M35.7386 542.31L35.0081 540L27.4034 543.2C23.2467 544.952 23.6667 548.424 24.6785 552C28.7329 550.287 37.6343 548.346 35.7386 542.31Z" fill="#EDEDED" stroke="#D2D2D2"/>
<path d="M35.7386 549.31L35.0081 547L27.4034 550.2C23.2467 551.952 23.6667 555.424 24.6785 559C28.7329 557.287 37.6343 555.346 35.7386 549.31Z" fill="#EDEDED" stroke="#D2D2D2"/>
<path d="M23.0071 581.328C22.6967 586.337 22.076 591.336 21.1054 596.28C21.1054 596.317 21.0941 596.335 21.0941 596.353C20.5607 598.959 22.3912 598.752 24.1696 598.752C25.2362 594.387 26.1278 588.322 26.2181 582.992C26.2181 582.992 26.7824 588.009 25.3377 596.942C25.4167 597.511 25.5296 598.191 25.7384 598.752H27.5668C28.2665 592.282 28.7462 584.609 28.8139 577.312C28.8478 578.434 29.0961 586.41 28.0859 598.752H31.1107L31.4888 597.383L31.7766 596.381C31.7709 596.372 31.7709 596.353 31.7709 596.335C31.5395 593.054 31.3985 590.178 31.3025 587.706C31.0373 580.841 31.2292 577.184 31.2292 577.184C31.28 584.379 31.7483 591.942 32.4481 599L35.0044 598.752C33.2438 588.882 33.7799 583.341 33.8194 583.001C33.9435 590.187 35.3035 596.409 35.9356 598.963L37.8824 598.752C38.6443 598.743 39.1804 597.539 38.9434 596.326C37.9671 591.373 37.3407 586.346 37.036 581.328C36.2299 569.515 23.9939 565.729 23.0071 581.328Z" fill="#EDEDED" stroke="#D2D2D2"/>
<path d="M36.2168 556.502L35.4254 554L27.187 557.467C22.6839 559.365 23.1389 563.126 24.235 567C28.6273 565.145 38.2705 563.041 36.2168 556.502Z" fill="#EDEDED" stroke="#D2D2D2"/>
<path d="M32.7314 565.032C33.8986 565.419 35.0383 565.918 35.9533 566.397C36.8684 566.877 37.4181 567.286 37.4181 567.286C37.6668 566.583 37.6479 565.722 37.4189 564.939C35.6612 557.433 26.231 558.714 24.0038 563.041C23.7123 563.608 23.5742 564.016 23.5742 564.016C24.8563 564.87 26.9508 566.661 27.6532 566.759C28.0185 566.829 28.2706 566.736 28.5648 566.628C29.9633 565.603 30.6271 564.335 32.7314 565.032Z" fill="#EDEDED" stroke="#D2D2D2"/>
<path d="M38.2047 573.398C41.0786 571.057 41.0304 567.474 38.2045 563.935C35.3785 560.395 29.4571 562.569 27.5224 568.741C28.879 572.21 36.9374 570.423 38.2047 573.398Z" fill="#EDEDED" stroke="#D2D2D2"/>
<path d="M26.5588 562.076C26.6126 561.58 26.6664 561.134 26.7202 560.837C26.8277 560.539 26.8277 560.341 26.8277 560.341C25.6984 560.44 24.6228 560.985 23.7086 561.68C19.1602 565.38 21.5462 570.56 25.6984 573.381C26.7202 574.075 27.7957 574.471 28.6024 574.67C28.9788 574.769 29.3553 574.819 29.5704 574.868C29.7855 574.918 29.9468 574.918 29.9468 574.918C32.7474 570.151 26.2881 567.068 26.5588 562.076Z" fill="#EDEDED" stroke="#D2D2D2"/>
<path d="M29.0632 570.826C29.0632 570.826 28.9018 570.826 28.6867 570.771C28.4716 570.717 28.1489 570.662 27.7187 570.552C26.912 570.333 25.8365 569.841 24.8147 569.129C23.7929 568.418 22.8787 567.432 22.2334 566.611C21.588 565.79 21.2116 565.188 21.2116 565.188C20.5125 565.9 20.0285 566.83 19.8134 567.87C19.5445 568.91 19.5445 570.114 19.8671 571.319C20.136 572.468 20.7276 573.618 21.5343 574.494C22.3409 575.369 23.3089 575.971 24.2769 576.245C24.2769 576.245 24.4383 576.3 24.7609 576.355C25.0836 576.409 25.5138 576.519 26.0516 576.574C27.1271 576.683 28.4716 576.628 29.7085 576.3C30.9453 575.971 31.8596 575.315 32.4511 574.712C32.72 574.439 32.9351 574.165 33.0427 574.001C33.1502 573.837 33.2578 573.727 33.2578 573.727C32.6125 572.413 32.5587 571.757 32.0209 571.373C31.4294 571.1 30.5152 570.99 29.0632 570.826Z" fill="#EDEDED" stroke="#D2D2D2"/>
<path d="M29.6184 571.9C29.6184 571.9 29.5356 571.989 29.3344 572.098C29.1846 572.223 28.885 572.474 28.5652 572.604C27.8787 573.021 26.7649 573.363 25.4876 573.311C24.2462 573.328 22.9083 572.914 21.9104 572.491C21.4115 572.28 21.0311 572.048 20.738 571.9C20.4449 571.752 20.3062 571.652 20.3062 571.652C20.0607 572.663 20.1083 573.822 20.5473 574.988C20.9349 576.137 21.714 577.293 22.8083 578.147C23.3476 578.599 23.9182 578.947 24.5715 579.207C24.8646 579.354 25.1733 579.45 25.4821 579.545C25.7908 579.641 26.1152 579.684 26.4395 579.727C27.0883 579.813 27.6654 579.763 28.2424 579.712C28.7837 579.594 29.3406 579.422 29.8102 579.167C29.8102 579.167 29.96 579.042 30.2798 578.912C30.5481 578.766 30.9148 578.479 31.3486 578.155C32.1647 577.492 33.0746 576.515 33.7428 575.406C34.411 574.297 34.8421 573.229 35.0922 572.391C35.2173 571.972 35.2752 571.589 35.3377 571.38C35.3488 571.154 35.3957 570.997 35.3957 570.997C34.0174 570.342 32.9212 570.061 32.0914 570.204C31.2101 570.332 30.6468 570.902 29.6184 571.9Z" fill="#EDEDED" stroke="#D2D2D2"/>
<path d="M30.472 570.271C30.4718 571.885 30.6217 573.446 30.1883 575.063C29.8656 576.322 29.2741 577.526 28.6825 578.402C28.3598 578.84 28.0909 579.223 27.8758 579.442C27.6607 579.661 27.4994 579.825 27.4994 579.825C28.4674 580.318 29.5967 580.427 30.726 580.318C31.8554 580.154 32.9847 579.771 33.899 579.114C38.5382 575.876 36.8316 570.877 34.4647 568.403C32.5632 567.314 30.9847 568.162 30.472 570.271Z" fill="#EDEDED" stroke="#D2D2D2"/>
<path d="M35.4512 578.355C39.9189 577.092 40.5418 570.458 36.8751 568.166C33.2085 565.875 30.4585 568.625 30.4598 569.676C35.0443 570.546 36.8745 572.75 35.4512 578.355Z" fill="#EDEDED" stroke="#D2D2D2"/>
</svg>
