<svg width="41" height="36" viewBox="0 0 41 36" fill="none" xmlns="http://www.w3.org/2000/svg">
<g clip-path="url(#clip0_206_19982)">
<path d="M35.2619 26.1957C36.5954 25.5225 37.421 24.3572 37.9074 22.9722C39.6611 17.9777 34.8036 13.8597 30.147 14.6839C28.5548 14.8945 27.3579 16.1403 28.19 17.5399C30.237 20.983 34.1137 22.0477 35.2619 26.1957Z" fill="#EDEDED" stroke="#D2D2D2"/>
<path d="M37.4894 17.0344C38.2138 15.728 38.2415 14.3002 37.865 12.8813C36.5076 7.76484 30.1753 7.09003 26.7876 10.3894C25.5892 11.4587 25.2998 13.1618 26.7748 13.8516C30.4032 15.5483 34.2079 14.2494 37.4894 17.0344Z" fill="#EDEDED" stroke="#D2D2D2"/>
<path d="M34.1828 8.21627C34.0474 6.72864 33.2677 5.53224 32.1587 4.57043C28.1597 1.10219 22.5435 4.10395 21.5966 8.73712C21.2066 10.2951 21.9247 11.8664 23.5323 11.6076C27.487 10.9709 29.9033 7.75786 34.1828 8.21627Z" fill="#EDEDED" stroke="#D2D2D2"/>
<path d="M26.4925 2.77195C25.5442 1.61776 24.2267 1.06668 22.7688 0.894698C17.5119 0.274547 14.5547 5.91437 16.3763 10.2784C16.9296 11.7861 18.4068 12.6819 19.5908 11.5641C22.5035 8.81435 22.6955 4.79867 26.4925 2.77195Z" fill="#EDEDED" stroke="#D2D2D2"/>
<path d="M17.0708 2.60532C15.6377 2.18389 14.2384 2.46878 12.936 3.14613C8.23974 5.58862 8.96468 11.9153 12.9245 14.5004C14.2297 15.4362 15.955 15.3465 16.3058 13.7565C17.1688 9.84498 15.0701 6.41601 17.0708 2.60532Z" fill="#EDEDED" stroke="#D2D2D2"/>
<path d="M32.0724 30.0307C33.5484 29.8008 34.6927 28.9465 35.5819 27.7785C38.7884 23.5667 35.435 18.1531 30.7509 17.5033C29.1712 17.2133 27.6489 18.03 28.0096 19.6179C28.8968 23.524 32.2573 25.7307 32.0724 30.0307Z" fill="#EDEDED" stroke="#D2D2D2"/>
<path d="M39.0751 13.2178L41 13.8266L38.3331 20.1639C36.8731 23.6278 33.9797 23.2777 31 22.4346C32.4273 19.0559 34.0453 11.6381 39.0751 13.2178Z" fill="#EDEDED" stroke="#D2D2D2"/>
<path d="M33.0751 13.2178L35 13.8266L32.3331 20.1639C30.8731 23.6278 27.9797 23.2777 25 22.4346C26.4273 19.0559 28.0453 11.6381 33.0751 13.2178Z" fill="#EDEDED" stroke="#D2D2D2"/>
<path d="M27.0751 13.2178L29 13.8266L26.3331 20.1639C24.8731 23.6278 21.9797 23.2777 19 22.4346C20.4273 19.0559 22.0453 11.6381 27.0751 13.2178Z" fill="#EDEDED" stroke="#D2D2D2"/>
<path d="M26.2168 -3.49761L25.4254 -6L17.187 -2.53307C12.6839 -0.634978 13.1389 3.12634 14.235 7C18.6273 5.14452 28.2705 3.04113 26.2168 -3.49761Z" fill="#EDEDED" stroke="#D2D2D2"/>
<path d="M26.2168 4.50239L25.4254 2L17.187 5.46693C12.6839 7.36502 13.1389 11.1263 14.235 15C18.6273 13.1445 28.2705 11.0411 26.2168 4.50239Z" fill="#EDEDED" stroke="#D2D2D2"/>
<path d="M26.2168 12.5024L25.4254 10L17.187 13.4669C12.6839 15.365 13.1389 19.1263 14.235 23C18.6273 21.1445 28.2705 19.0411 26.2168 12.5024Z" fill="#EDEDED" stroke="#D2D2D2"/>
<path d="M26.2168 20.5024L25.4254 18L17.187 21.4669C12.6839 23.365 13.1389 27.1263 14.235 31C18.6273 29.1445 28.2705 27.0411 26.2168 20.5024Z" fill="#EDEDED" stroke="#D2D2D2"/>
<path d="M9.18358 7.76014C7.76146 8.21727 6.76432 9.23957 6.06804 10.5319C3.55727 15.192 7.71353 20.0168 12.4416 19.9285C14.0472 19.9687 15.4236 18.9246 14.8198 17.4124C13.3346 13.6924 9.67121 12.0364 9.18358 7.76014Z" fill="#EDEDED" stroke="#D2D2D2"/>
<path d="M5.55687 16.456C4.63774 17.6335 4.3878 19.0396 4.53849 20.4998C5.08185 25.7653 11.2315 27.4188 15.0921 24.6878C16.4425 23.8184 16.9939 22.1812 15.6445 21.27C12.3248 19.0284 8.36418 19.7184 5.55687 16.456Z" fill="#EDEDED" stroke="#D2D2D2"/>
<path d="M7.44566 25.6904C7.34751 27.181 7.93125 28.4843 8.87677 29.6072C12.2863 33.6564 18.3018 31.5667 19.9592 27.1378C20.5873 25.6596 20.1229 23.9956 18.4946 24.0007C14.489 24.0131 11.6014 26.8103 7.44566 25.6904Z" fill="#EDEDED" stroke="#D2D2D2"/>
<path d="M14.1981 32.2579C14.9549 33.5458 16.1703 34.2955 17.5836 34.6927C22.6797 36.1246 26.4798 31.0147 25.3607 26.4201C25.0491 24.8445 23.7296 23.7295 22.3858 24.649C19.0801 26.9112 18.2645 30.8478 14.1981 32.2579Z" fill="#EDEDED" stroke="#D2D2D2"/>
<path d="M23.4735 33.8993C24.8234 34.5389 26.25 34.4756 27.6421 34.0096C32.6616 32.3289 32.9317 25.9666 29.4232 22.7959C28.2798 21.668 26.5617 21.4877 25.9673 23.0036C24.5052 26.7328 26.0437 30.447 23.4735 33.8993Z" fill="#EDEDED" stroke="#D2D2D2"/>
</g>
<defs>
<clipPath id="clip0_206_19982">
<rect width="41" height="36" fill="white"/>
</clipPath>
</defs>
</svg>
