<svg width="1704" height="36" viewBox="0 0 1704 36" fill="none" xmlns="http://www.w3.org/2000/svg">
<path d="M1701.08 13.2178L1703 13.8266L1700.33 20.1639C1698.87 23.6278 1695.98 23.2777 1693 22.4346C1694.43 19.0559 1696.05 11.6381 1701.08 13.2178Z" fill="#EDEDED" stroke="#D2D2D2"/>
<path d="M1695.08 13.2178L1697 13.8266L1694.33 20.1639C1692.87 23.6278 1689.98 23.2777 1687 22.4346C1688.43 19.0559 1690.05 11.6381 1695.08 13.2178Z" fill="#EDEDED" stroke="#D2D2D2"/>
<path d="M1689.08 13.2178L1691 13.8266L1688.33 20.1639C1686.87 23.6278 1683.98 23.2777 1681 22.4346C1682.43 19.0559 1684.05 11.6381 1689.08 13.2178Z" fill="#EDEDED" stroke="#D2D2D2"/>
<path d="M1683.08 13.2178L1685 13.8266L1682.33 20.1639C1680.87 23.6278 1677.98 23.2777 1675 22.4346C1676.43 19.0559 1678.05 11.6381 1683.08 13.2178Z" fill="#EDEDED" stroke="#D2D2D2"/>
<path d="M1677.08 13.2178L1679 13.8266L1676.33 20.1639C1674.87 23.6278 1671.98 23.2777 1669 22.4346C1670.43 19.0559 1672.05 11.6381 1677.08 13.2178Z" fill="#EDEDED" stroke="#D2D2D2"/>
<path d="M1671.08 13.2178L1673 13.8266L1670.33 20.1639C1668.87 23.6278 1665.98 23.2777 1663 22.4346C1664.43 19.0559 1666.05 11.6381 1671.08 13.2178Z" fill="#EDEDED" stroke="#D2D2D2"/>
<path d="M1665.08 13.2178L1667 13.8266L1664.33 20.1639C1662.87 23.6278 1659.98 23.2777 1657 22.4346C1658.43 19.0559 1660.05 11.6381 1665.08 13.2178Z" fill="#EDEDED" stroke="#D2D2D2"/>
<path d="M1659.08 13.2178L1661 13.8266L1658.33 20.1639C1656.87 23.6278 1653.98 23.2777 1651 22.4346C1652.43 19.0559 1654.05 11.6381 1659.08 13.2178Z" fill="#EDEDED" stroke="#D2D2D2"/>
<path d="M1653.08 13.2178L1655 13.8266L1652.33 20.1639C1650.87 23.6278 1647.98 23.2777 1645 22.4346C1646.43 19.0559 1648.05 11.6381 1653.08 13.2178Z" fill="#EDEDED" stroke="#D2D2D2"/>
<path d="M1647.08 13.2178L1649 13.8266L1646.33 20.1639C1644.87 23.6278 1641.98 23.2777 1639 22.4346C1640.43 19.0559 1642.05 11.6381 1647.08 13.2178Z" fill="#EDEDED" stroke="#D2D2D2"/>
<path d="M1641.08 13.2178L1643 13.8266L1640.33 20.1639C1638.87 23.6278 1635.98 23.2777 1633 22.4346C1634.43 19.0559 1636.05 11.6381 1641.08 13.2178Z" fill="#EDEDED" stroke="#D2D2D2"/>
<path d="M1635.08 13.2178L1637 13.8266L1634.33 20.1639C1632.87 23.6278 1629.98 23.2777 1627 22.4346C1628.43 19.0559 1630.05 11.6381 1635.08 13.2178Z" fill="#EDEDED" stroke="#D2D2D2"/>
<path d="M1629.08 13.2178L1631 13.8266L1628.33 20.1639C1626.87 23.6278 1623.98 23.2777 1621 22.4346C1622.43 19.0559 1624.05 11.6381 1629.08 13.2178Z" fill="#EDEDED" stroke="#D2D2D2"/>
<path d="M1623.08 13.2178L1625 13.8266L1622.33 20.1639C1620.87 23.6278 1617.98 23.2777 1615 22.4346C1616.43 19.0559 1618.05 11.6381 1623.08 13.2178Z" fill="#EDEDED" stroke="#D2D2D2"/>
<path d="M1617.08 13.2178L1619 13.8266L1616.33 20.1639C1614.87 23.6278 1611.98 23.2777 1609 22.4346C1610.43 19.0559 1612.05 11.6381 1617.08 13.2178Z" fill="#EDEDED" stroke="#D2D2D2"/>
<path d="M1611.08 13.2178L1613 13.8266L1610.33 20.1639C1608.87 23.6278 1605.98 23.2777 1603 22.4346C1604.43 19.0559 1606.05 11.6381 1611.08 13.2178Z" fill="#EDEDED" stroke="#D2D2D2"/>
<path d="M1605.08 13.2178L1607 13.8266L1604.33 20.1639C1602.87 23.6278 1599.98 23.2777 1597 22.4346C1598.43 19.0559 1600.05 11.6381 1605.08 13.2178Z" fill="#EDEDED" stroke="#D2D2D2"/>
<path d="M1599.08 13.2178L1601 13.8266L1598.33 20.1639C1596.87 23.6278 1593.98 23.2777 1591 22.4346C1592.43 19.0559 1594.05 11.6381 1599.08 13.2178Z" fill="#EDEDED" stroke="#D2D2D2"/>
<path d="M1593.08 13.2178L1595 13.8266L1592.33 20.1639C1590.87 23.6278 1587.98 23.2777 1585 22.4346C1586.43 19.0559 1588.05 11.6381 1593.08 13.2178Z" fill="#EDEDED" stroke="#D2D2D2"/>
<path d="M1587.08 13.2178L1589 13.8266L1586.33 20.1639C1584.87 23.6278 1581.98 23.2777 1579 22.4346C1580.43 19.0559 1582.05 11.6381 1587.08 13.2178Z" fill="#EDEDED" stroke="#D2D2D2"/>
<path d="M1581.08 13.2178L1583 13.8266L1580.33 20.1639C1578.87 23.6278 1575.98 23.2777 1573 22.4346C1574.43 19.0559 1576.05 11.6381 1581.08 13.2178Z" fill="#EDEDED" stroke="#D2D2D2"/>
<path d="M1575.08 13.2178L1577 13.8266L1574.33 20.1639C1572.87 23.6278 1569.98 23.2777 1567 22.4346C1568.43 19.0559 1570.05 11.6381 1575.08 13.2178Z" fill="#EDEDED" stroke="#D2D2D2"/>
<path d="M1569.08 13.2178L1571 13.8266L1568.33 20.1639C1566.87 23.6278 1563.98 23.2777 1561 22.4346C1562.43 19.0559 1564.05 11.6381 1569.08 13.2178Z" fill="#EDEDED" stroke="#D2D2D2"/>
<path d="M1563.08 13.2178L1565 13.8266L1562.33 20.1639C1560.87 23.6278 1557.98 23.2777 1555 22.4346C1556.43 19.0559 1558.05 11.6381 1563.08 13.2178Z" fill="#EDEDED" stroke="#D2D2D2"/>
<path d="M1557.08 13.2178L1559 13.8266L1556.33 20.1639C1554.87 23.6278 1551.98 23.2777 1549 22.4346C1550.43 19.0559 1552.05 11.6381 1557.08 13.2178Z" fill="#EDEDED" stroke="#D2D2D2"/>
<path d="M1551.08 13.2178L1553 13.8266L1550.33 20.1639C1548.87 23.6278 1545.98 23.2777 1543 22.4346C1544.43 19.0559 1546.05 11.6381 1551.08 13.2178Z" fill="#EDEDED" stroke="#D2D2D2"/>
<path d="M1545.08 13.2178L1547 13.8266L1544.33 20.1639C1542.87 23.6278 1539.98 23.2777 1537 22.4346C1538.43 19.0559 1540.05 11.6381 1545.08 13.2178Z" fill="#EDEDED" stroke="#D2D2D2"/>
<path d="M1539.08 13.2178L1541 13.8266L1538.33 20.1639C1536.87 23.6278 1533.98 23.2777 1531 22.4346C1532.43 19.0559 1534.05 11.6381 1539.08 13.2178Z" fill="#EDEDED" stroke="#D2D2D2"/>
<path d="M1533.08 13.2178L1535 13.8266L1532.33 20.1639C1530.87 23.6278 1527.98 23.2777 1525 22.4346C1526.43 19.0559 1528.05 11.6381 1533.08 13.2178Z" fill="#EDEDED" stroke="#D2D2D2"/>
<path d="M1527.08 13.2178L1529 13.8266L1526.33 20.1639C1524.87 23.6278 1521.98 23.2777 1519 22.4346C1520.43 19.0559 1522.05 11.6381 1527.08 13.2178Z" fill="#EDEDED" stroke="#D2D2D2"/>
<path d="M1521.08 13.2178L1523 13.8266L1520.33 20.1639C1518.87 23.6278 1515.98 23.2777 1513 22.4346C1514.43 19.0559 1516.05 11.6381 1521.08 13.2178Z" fill="#EDEDED" stroke="#D2D2D2"/>
<path d="M1515.08 13.2178L1517 13.8266L1514.33 20.1639C1512.87 23.6278 1509.98 23.2777 1507 22.4346C1508.43 19.0559 1510.05 11.6381 1515.08 13.2178Z" fill="#EDEDED" stroke="#D2D2D2"/>
<path d="M1509.08 13.2178L1511 13.8266L1508.33 20.1639C1506.87 23.6278 1503.98 23.2777 1501 22.4346C1502.43 19.0559 1504.05 11.6381 1509.08 13.2178Z" fill="#EDEDED" stroke="#D2D2D2"/>
<path d="M1503.08 13.2178L1505 13.8266L1502.33 20.1639C1500.87 23.6278 1497.98 23.2777 1495 22.4346C1496.43 19.0559 1498.05 11.6381 1503.08 13.2178Z" fill="#EDEDED" stroke="#D2D2D2"/>
<path d="M1497.08 13.2178L1499 13.8266L1496.33 20.1639C1494.87 23.6278 1491.98 23.2777 1489 22.4346C1490.43 19.0559 1492.05 11.6381 1497.08 13.2178Z" fill="#EDEDED" stroke="#D2D2D2"/>
<path d="M1491.08 13.2178L1493 13.8266L1490.33 20.1639C1488.87 23.6278 1485.98 23.2777 1483 22.4346C1484.43 19.0559 1486.05 11.6381 1491.08 13.2178Z" fill="#EDEDED" stroke="#D2D2D2"/>
<path d="M1485.08 13.2178L1487 13.8266L1484.33 20.1639C1482.87 23.6278 1479.98 23.2777 1477 22.4346C1478.43 19.0559 1480.05 11.6381 1485.08 13.2178Z" fill="#EDEDED" stroke="#D2D2D2"/>
<path d="M1479.08 13.2178L1481 13.8266L1478.33 20.1639C1476.87 23.6278 1473.98 23.2777 1471 22.4346C1472.43 19.0559 1474.05 11.6381 1479.08 13.2178Z" fill="#EDEDED" stroke="#D2D2D2"/>
<path d="M1473.08 13.2178L1475 13.8266L1472.33 20.1639C1470.87 23.6278 1467.98 23.2777 1465 22.4346C1466.43 19.0559 1468.05 11.6381 1473.08 13.2178Z" fill="#EDEDED" stroke="#D2D2D2"/>
<path d="M1467.08 13.2178L1469 13.8266L1466.33 20.1639C1464.87 23.6278 1461.98 23.2777 1459 22.4346C1460.43 19.0559 1462.05 11.6381 1467.08 13.2178Z" fill="#EDEDED" stroke="#D2D2D2"/>
<path d="M1461.08 13.2178L1463 13.8266L1460.33 20.1639C1458.87 23.6278 1455.98 23.2777 1453 22.4346C1454.43 19.0559 1456.05 11.6381 1461.08 13.2178Z" fill="#EDEDED" stroke="#D2D2D2"/>
<path d="M1455.08 13.2178L1457 13.8266L1454.33 20.1639C1452.87 23.6278 1449.98 23.2777 1447 22.4346C1448.43 19.0559 1450.05 11.6381 1455.08 13.2178Z" fill="#EDEDED" stroke="#D2D2D2"/>
<path d="M1449.08 13.2178L1451 13.8266L1448.33 20.1639C1446.87 23.6278 1443.98 23.2777 1441 22.4346C1442.43 19.0559 1444.05 11.6381 1449.08 13.2178Z" fill="#EDEDED" stroke="#D2D2D2"/>
<path d="M1443.08 13.2178L1445 13.8266L1442.33 20.1639C1440.87 23.6278 1437.98 23.2777 1435 22.4346C1436.43 19.0559 1438.05 11.6381 1443.08 13.2178Z" fill="#EDEDED" stroke="#D2D2D2"/>
<path d="M1437.08 13.2178L1439 13.8266L1436.33 20.1639C1434.87 23.6278 1431.98 23.2777 1429 22.4346C1430.43 19.0559 1432.05 11.6381 1437.08 13.2178Z" fill="#EDEDED" stroke="#D2D2D2"/>
<path d="M1431.08 13.2178L1433 13.8266L1430.33 20.1639C1428.87 23.6278 1425.98 23.2777 1423 22.4346C1424.43 19.0559 1426.05 11.6381 1431.08 13.2178Z" fill="#EDEDED" stroke="#D2D2D2"/>
<path d="M1425.08 13.2178L1427 13.8266L1424.33 20.1639C1422.87 23.6278 1419.98 23.2777 1417 22.4346C1418.43 19.0559 1420.05 11.6381 1425.08 13.2178Z" fill="#EDEDED" stroke="#D2D2D2"/>
<path d="M1419.08 13.2178L1421 13.8266L1418.33 20.1639C1416.87 23.6278 1413.98 23.2777 1411 22.4346C1412.43 19.0559 1414.05 11.6381 1419.08 13.2178Z" fill="#EDEDED" stroke="#D2D2D2"/>
<path d="M1413.08 13.2178L1415 13.8266L1412.33 20.1639C1410.87 23.6278 1407.98 23.2777 1405 22.4346C1406.43 19.0559 1408.05 11.6381 1413.08 13.2178Z" fill="#EDEDED" stroke="#D2D2D2"/>
<path d="M1407.08 13.2178L1409 13.8266L1406.33 20.1639C1404.87 23.6278 1401.98 23.2777 1399 22.4346C1400.43 19.0559 1402.05 11.6381 1407.08 13.2178Z" fill="#EDEDED" stroke="#D2D2D2"/>
<path d="M1401.08 13.2178L1403 13.8266L1400.33 20.1639C1398.87 23.6278 1395.98 23.2777 1393 22.4346C1394.43 19.0559 1396.05 11.6381 1401.08 13.2178Z" fill="#EDEDED" stroke="#D2D2D2"/>
<path d="M1395.08 13.2178L1397 13.8266L1394.33 20.1639C1392.87 23.6278 1389.98 23.2777 1387 22.4346C1388.43 19.0559 1390.05 11.6381 1395.08 13.2178Z" fill="#EDEDED" stroke="#D2D2D2"/>
<path d="M1389.08 13.2178L1391 13.8266L1388.33 20.1639C1386.87 23.6278 1383.98 23.2777 1381 22.4346C1382.43 19.0559 1384.05 11.6381 1389.08 13.2178Z" fill="#EDEDED" stroke="#D2D2D2"/>
<path d="M1383.08 13.2178L1385 13.8266L1382.33 20.1639C1380.87 23.6278 1377.98 23.2777 1375 22.4346C1376.43 19.0559 1378.05 11.6381 1383.08 13.2178Z" fill="#EDEDED" stroke="#D2D2D2"/>
<path d="M1377.08 13.2178L1379 13.8266L1376.33 20.1639C1374.87 23.6278 1371.98 23.2777 1369 22.4346C1370.43 19.0559 1372.05 11.6381 1377.08 13.2178Z" fill="#EDEDED" stroke="#D2D2D2"/>
<path d="M1371.08 13.2178L1373 13.8266L1370.33 20.1639C1368.87 23.6278 1365.98 23.2777 1363 22.4346C1364.43 19.0559 1366.05 11.6381 1371.08 13.2178Z" fill="#EDEDED" stroke="#D2D2D2"/>
<path d="M1365.08 13.2178L1367 13.8266L1364.33 20.1639C1362.87 23.6278 1359.98 23.2777 1357 22.4346C1358.43 19.0559 1360.05 11.6381 1365.08 13.2178Z" fill="#EDEDED" stroke="#D2D2D2"/>
<path d="M1359.08 13.2178L1361 13.8266L1358.33 20.1639C1356.87 23.6278 1353.98 23.2777 1351 22.4346C1352.43 19.0559 1354.05 11.6381 1359.08 13.2178Z" fill="#EDEDED" stroke="#D2D2D2"/>
<path d="M1353.08 13.2178L1355 13.8266L1352.33 20.1639C1350.87 23.6278 1347.98 23.2777 1345 22.4346C1346.43 19.0559 1348.05 11.6381 1353.08 13.2178Z" fill="#EDEDED" stroke="#D2D2D2"/>
<path d="M1347.08 13.2178L1349 13.8266L1346.33 20.1639C1344.87 23.6278 1341.98 23.2777 1339 22.4346C1340.43 19.0559 1342.05 11.6381 1347.08 13.2178Z" fill="#EDEDED" stroke="#D2D2D2"/>
<path d="M1341.08 13.2178L1343 13.8266L1340.33 20.1639C1338.87 23.6278 1335.98 23.2777 1333 22.4346C1334.43 19.0559 1336.05 11.6381 1341.08 13.2178Z" fill="#EDEDED" stroke="#D2D2D2"/>
<path d="M1335.08 13.2178L1337 13.8266L1334.33 20.1639C1332.87 23.6278 1329.98 23.2777 1327 22.4346C1328.43 19.0559 1330.05 11.6381 1335.08 13.2178Z" fill="#EDEDED" stroke="#D2D2D2"/>
<path d="M1329.08 13.2178L1331 13.8266L1328.33 20.1639C1326.87 23.6278 1323.98 23.2777 1321 22.4346C1322.43 19.0559 1324.05 11.6381 1329.08 13.2178Z" fill="#EDEDED" stroke="#D2D2D2"/>
<path d="M1323.08 13.2178L1325 13.8266L1322.33 20.1639C1320.87 23.6278 1317.98 23.2777 1315 22.4346C1316.43 19.0559 1318.05 11.6381 1323.08 13.2178Z" fill="#EDEDED" stroke="#D2D2D2"/>
<path d="M1317.08 13.2178L1319 13.8266L1316.33 20.1639C1314.87 23.6278 1311.98 23.2777 1309 22.4346C1310.43 19.0559 1312.05 11.6381 1317.08 13.2178Z" fill="#EDEDED" stroke="#D2D2D2"/>
<path d="M1311.08 13.2178L1313 13.8266L1310.33 20.1639C1308.87 23.6278 1305.98 23.2777 1303 22.4346C1304.43 19.0559 1306.05 11.6381 1311.08 13.2178Z" fill="#EDEDED" stroke="#D2D2D2"/>
<path d="M1305.08 13.2178L1307 13.8266L1304.33 20.1639C1302.87 23.6278 1299.98 23.2777 1297 22.4346C1298.43 19.0559 1300.05 11.6381 1305.08 13.2178Z" fill="#EDEDED" stroke="#D2D2D2"/>
<path d="M1299.08 13.2178L1301 13.8266L1298.33 20.1639C1296.87 23.6278 1293.98 23.2777 1291 22.4346C1292.43 19.0559 1294.05 11.6381 1299.08 13.2178Z" fill="#EDEDED" stroke="#D2D2D2"/>
<path d="M1293.08 13.2178L1295 13.8266L1292.33 20.1639C1290.87 23.6278 1287.98 23.2777 1285 22.4346C1286.43 19.0559 1288.05 11.6381 1293.08 13.2178Z" fill="#EDEDED" stroke="#D2D2D2"/>
<path d="M1287.08 13.2178L1289 13.8266L1286.33 20.1639C1284.87 23.6278 1281.98 23.2777 1279 22.4346C1280.43 19.0559 1282.05 11.6381 1287.08 13.2178Z" fill="#EDEDED" stroke="#D2D2D2"/>
<path d="M1281.08 13.2178L1283 13.8266L1280.33 20.1639C1278.87 23.6278 1275.98 23.2777 1273 22.4346C1274.43 19.0559 1276.05 11.6381 1281.08 13.2178Z" fill="#EDEDED" stroke="#D2D2D2"/>
<path d="M1275.08 13.2178L1277 13.8266L1274.33 20.1639C1272.87 23.6278 1269.98 23.2777 1267 22.4346C1268.43 19.0559 1270.05 11.6381 1275.08 13.2178Z" fill="#EDEDED" stroke="#D2D2D2"/>
<path d="M1269.08 13.2178L1271 13.8266L1268.33 20.1639C1266.87 23.6278 1263.98 23.2777 1261 22.4346C1262.43 19.0559 1264.05 11.6381 1269.08 13.2178Z" fill="#EDEDED" stroke="#D2D2D2"/>
<path d="M1263.08 13.2178L1265 13.8266L1262.33 20.1639C1260.87 23.6278 1257.98 23.2777 1255 22.4346C1256.43 19.0559 1258.05 11.6381 1263.08 13.2178Z" fill="#EDEDED" stroke="#D2D2D2"/>
<path d="M1257.08 13.2178L1259 13.8266L1256.33 20.1639C1254.87 23.6278 1251.98 23.2777 1249 22.4346C1250.43 19.0559 1252.05 11.6381 1257.08 13.2178Z" fill="#EDEDED" stroke="#D2D2D2"/>
<path d="M1251.08 13.2178L1253 13.8266L1250.33 20.1639C1248.87 23.6278 1245.98 23.2777 1243 22.4346C1244.43 19.0559 1246.05 11.6381 1251.08 13.2178Z" fill="#EDEDED" stroke="#D2D2D2"/>
<path d="M1245.08 13.2178L1247 13.8266L1244.33 20.1639C1242.87 23.6278 1239.98 23.2777 1237 22.4346C1238.43 19.0559 1240.05 11.6381 1245.08 13.2178Z" fill="#EDEDED" stroke="#D2D2D2"/>
<path d="M1239.08 13.2178L1241 13.8266L1238.33 20.1639C1236.87 23.6278 1233.98 23.2777 1231 22.4346C1232.43 19.0559 1234.05 11.6381 1239.08 13.2178Z" fill="#EDEDED" stroke="#D2D2D2"/>
<path d="M1233.08 13.2178L1235 13.8266L1232.33 20.1639C1230.87 23.6278 1227.98 23.2777 1225 22.4346C1226.43 19.0559 1228.05 11.6381 1233.08 13.2178Z" fill="#EDEDED" stroke="#D2D2D2"/>
<path d="M1227.08 13.2178L1229 13.8266L1226.33 20.1639C1224.87 23.6278 1221.98 23.2777 1219 22.4346C1220.43 19.0559 1222.05 11.6381 1227.08 13.2178Z" fill="#EDEDED" stroke="#D2D2D2"/>
<path d="M1221.08 13.2178L1223 13.8266L1220.33 20.1639C1218.87 23.6278 1215.98 23.2777 1213 22.4346C1214.43 19.0559 1216.05 11.6381 1221.08 13.2178Z" fill="#EDEDED" stroke="#D2D2D2"/>
<path d="M1215.08 13.2178L1217 13.8266L1214.33 20.1639C1212.87 23.6278 1209.98 23.2777 1207 22.4346C1208.43 19.0559 1210.05 11.6381 1215.08 13.2178Z" fill="#EDEDED" stroke="#D2D2D2"/>
<path d="M1209.08 13.2178L1211 13.8266L1208.33 20.1639C1206.87 23.6278 1203.98 23.2777 1201 22.4346C1202.43 19.0559 1204.05 11.6381 1209.08 13.2178Z" fill="#EDEDED" stroke="#D2D2D2"/>
<path d="M1203.08 13.2178L1205 13.8266L1202.33 20.1639C1200.87 23.6278 1197.98 23.2777 1195 22.4346C1196.43 19.0559 1198.05 11.6381 1203.08 13.2178Z" fill="#EDEDED" stroke="#D2D2D2"/>
<path d="M1197.08 13.2178L1199 13.8266L1196.33 20.1639C1194.87 23.6278 1191.98 23.2777 1189 22.4346C1190.43 19.0559 1192.05 11.6381 1197.08 13.2178Z" fill="#EDEDED" stroke="#D2D2D2"/>
<path d="M1191.08 13.2178L1193 13.8266L1190.33 20.1639C1188.87 23.6278 1185.98 23.2777 1183 22.4346C1184.43 19.0559 1186.05 11.6381 1191.08 13.2178Z" fill="#EDEDED" stroke="#D2D2D2"/>
<path d="M1185.08 13.2178L1187 13.8266L1184.33 20.1639C1182.87 23.6278 1179.98 23.2777 1177 22.4346C1178.43 19.0559 1180.05 11.6381 1185.08 13.2178Z" fill="#EDEDED" stroke="#D2D2D2"/>
<path d="M1179.08 13.2178L1181 13.8266L1178.33 20.1639C1176.87 23.6278 1173.98 23.2777 1171 22.4346C1172.43 19.0559 1174.05 11.6381 1179.08 13.2178Z" fill="#EDEDED" stroke="#D2D2D2"/>
<path d="M1173.08 13.2178L1175 13.8266L1172.33 20.1639C1170.87 23.6278 1167.98 23.2777 1165 22.4346C1166.43 19.0559 1168.05 11.6381 1173.08 13.2178Z" fill="#EDEDED" stroke="#D2D2D2"/>
<path d="M1167.08 13.2178L1169 13.8266L1166.33 20.1639C1164.87 23.6278 1161.98 23.2777 1159 22.4346C1160.43 19.0559 1162.05 11.6381 1167.08 13.2178Z" fill="#EDEDED" stroke="#D2D2D2"/>
<path d="M1161.08 13.2178L1163 13.8266L1160.33 20.1639C1158.87 23.6278 1155.98 23.2777 1153 22.4346C1154.43 19.0559 1156.05 11.6381 1161.08 13.2178Z" fill="#EDEDED" stroke="#D2D2D2"/>
<path d="M1155.08 13.2178L1157 13.8266L1154.33 20.1639C1152.87 23.6278 1149.98 23.2777 1147 22.4346C1148.43 19.0559 1150.05 11.6381 1155.08 13.2178Z" fill="#EDEDED" stroke="#D2D2D2"/>
<path d="M1149.08 13.2178L1151 13.8266L1148.33 20.1639C1146.87 23.6278 1143.98 23.2777 1141 22.4346C1142.43 19.0559 1144.05 11.6381 1149.08 13.2178Z" fill="#EDEDED" stroke="#D2D2D2"/>
<path d="M1143.08 13.2178L1145 13.8266L1142.33 20.1639C1140.87 23.6278 1137.98 23.2777 1135 22.4346C1136.43 19.0559 1138.05 11.6381 1143.08 13.2178Z" fill="#EDEDED" stroke="#D2D2D2"/>
<path d="M1137.08 13.2178L1139 13.8266L1136.33 20.1639C1134.87 23.6278 1131.98 23.2777 1129 22.4346C1130.43 19.0559 1132.05 11.6381 1137.08 13.2178Z" fill="#EDEDED" stroke="#D2D2D2"/>
<path d="M1131.08 13.2178L1133 13.8266L1130.33 20.1639C1128.87 23.6278 1125.98 23.2777 1123 22.4346C1124.43 19.0559 1126.05 11.6381 1131.08 13.2178Z" fill="#EDEDED" stroke="#D2D2D2"/>
<path d="M1125.08 13.2178L1127 13.8266L1124.33 20.1639C1122.87 23.6278 1119.98 23.2777 1117 22.4346C1118.43 19.0559 1120.05 11.6381 1125.08 13.2178Z" fill="#EDEDED" stroke="#D2D2D2"/>
<path d="M1119.08 13.2178L1121 13.8266L1118.33 20.1639C1116.87 23.6278 1113.98 23.2777 1111 22.4346C1112.43 19.0559 1114.05 11.6381 1119.08 13.2178Z" fill="#EDEDED" stroke="#D2D2D2"/>
<path d="M1113.08 13.2178L1115 13.8266L1112.33 20.1639C1110.87 23.6278 1107.98 23.2777 1105 22.4346C1106.43 19.0559 1108.05 11.6381 1113.08 13.2178Z" fill="#EDEDED" stroke="#D2D2D2"/>
<path d="M1107.08 13.2178L1109 13.8266L1106.33 20.1639C1104.87 23.6278 1101.98 23.2777 1099 22.4346C1100.43 19.0559 1102.05 11.6381 1107.08 13.2178Z" fill="#EDEDED" stroke="#D2D2D2"/>
<path d="M1101.08 13.2178L1103 13.8266L1100.33 20.1639C1098.87 23.6278 1095.98 23.2777 1093 22.4346C1094.43 19.0559 1096.05 11.6381 1101.08 13.2178Z" fill="#EDEDED" stroke="#D2D2D2"/>
<path d="M1095.08 13.2178L1097 13.8266L1094.33 20.1639C1092.87 23.6278 1089.98 23.2777 1087 22.4346C1088.43 19.0559 1090.05 11.6381 1095.08 13.2178Z" fill="#EDEDED" stroke="#D2D2D2"/>
<path d="M1089.08 13.2178L1091 13.8266L1088.33 20.1639C1086.87 23.6278 1083.98 23.2777 1081 22.4346C1082.43 19.0559 1084.05 11.6381 1089.08 13.2178Z" fill="#EDEDED" stroke="#D2D2D2"/>
<path d="M1083.08 13.2178L1085 13.8266L1082.33 20.1639C1080.87 23.6278 1077.98 23.2777 1075 22.4346C1076.43 19.0559 1078.05 11.6381 1083.08 13.2178Z" fill="#EDEDED" stroke="#D2D2D2"/>
<path d="M1077.08 13.2178L1079 13.8266L1076.33 20.1639C1074.87 23.6278 1071.98 23.2777 1069 22.4346C1070.43 19.0559 1072.05 11.6381 1077.08 13.2178Z" fill="#EDEDED" stroke="#D2D2D2"/>
<path d="M1071.08 13.2178L1073 13.8266L1070.33 20.1639C1068.87 23.6278 1065.98 23.2777 1063 22.4346C1064.43 19.0559 1066.05 11.6381 1071.08 13.2178Z" fill="#EDEDED" stroke="#D2D2D2"/>
<path d="M1065.08 13.2178L1067 13.8266L1064.33 20.1639C1062.87 23.6278 1059.98 23.2777 1057 22.4346C1058.43 19.0559 1060.05 11.6381 1065.08 13.2178Z" fill="#EDEDED" stroke="#D2D2D2"/>
<path d="M1059.08 13.2178L1061 13.8266L1058.33 20.1639C1056.87 23.6278 1053.98 23.2777 1051 22.4346C1052.43 19.0559 1054.05 11.6381 1059.08 13.2178Z" fill="#EDEDED" stroke="#D2D2D2"/>
<path d="M1053.08 13.2178L1055 13.8266L1052.33 20.1639C1050.87 23.6278 1047.98 23.2777 1045 22.4346C1046.43 19.0559 1048.05 11.6381 1053.08 13.2178Z" fill="#EDEDED" stroke="#D2D2D2"/>
<path d="M1047.08 13.2178L1049 13.8266L1046.33 20.1639C1044.87 23.6278 1041.98 23.2777 1039 22.4346C1040.43 19.0559 1042.05 11.6381 1047.08 13.2178Z" fill="#EDEDED" stroke="#D2D2D2"/>
<path d="M1041.08 13.2178L1043 13.8266L1040.33 20.1639C1038.87 23.6278 1035.98 23.2777 1033 22.4346C1034.43 19.0559 1036.05 11.6381 1041.08 13.2178Z" fill="#EDEDED" stroke="#D2D2D2"/>
<path d="M1035.08 13.2178L1037 13.8266L1034.33 20.1639C1032.87 23.6278 1029.98 23.2777 1027 22.4346C1028.43 19.0559 1030.05 11.6381 1035.08 13.2178Z" fill="#EDEDED" stroke="#D2D2D2"/>
<path d="M1029.08 13.2178L1031 13.8266L1028.33 20.1639C1026.87 23.6278 1023.98 23.2777 1021 22.4346C1022.43 19.0559 1024.05 11.6381 1029.08 13.2178Z" fill="#EDEDED" stroke="#D2D2D2"/>
<path d="M1023.08 13.2178L1025 13.8266L1022.33 20.1639C1020.87 23.6278 1017.98 23.2777 1015 22.4346C1016.43 19.0559 1018.05 11.6381 1023.08 13.2178Z" fill="#EDEDED" stroke="#D2D2D2"/>
<path d="M1017.08 13.2178L1019 13.8266L1016.33 20.1639C1014.87 23.6278 1011.98 23.2777 1009 22.4346C1010.43 19.0559 1012.05 11.6381 1017.08 13.2178Z" fill="#EDEDED" stroke="#D2D2D2"/>
<path d="M1011.08 13.2178L1013 13.8266L1010.33 20.1639C1008.87 23.6278 1005.98 23.2777 1003 22.4346C1004.43 19.0559 1006.05 11.6381 1011.08 13.2178Z" fill="#EDEDED" stroke="#D2D2D2"/>
<path d="M1005.08 13.2178L1007 13.8266L1004.33 20.1639C1002.87 23.6278 999.98 23.2777 997 22.4346C998.427 19.0559 1000.05 11.6381 1005.08 13.2178Z" fill="#EDEDED" stroke="#D2D2D2"/>
<path d="M999.075 13.2178L1001 13.8266L998.333 20.1639C996.873 23.6278 993.98 23.2777 991 22.4346C992.427 19.0559 994.045 11.6381 999.075 13.2178Z" fill="#EDEDED" stroke="#D2D2D2"/>
<path d="M993.075 13.2178L995 13.8266L992.333 20.1639C990.873 23.6278 987.98 23.2777 985 22.4346C986.427 19.0559 988.045 11.6381 993.075 13.2178Z" fill="#EDEDED" stroke="#D2D2D2"/>
<path d="M987.075 13.2178L989 13.8266L986.333 20.1639C984.873 23.6278 981.98 23.2777 979 22.4346C980.427 19.0559 982.045 11.6381 987.075 13.2178Z" fill="#EDEDED" stroke="#D2D2D2"/>
<path d="M981.075 13.2178L983 13.8266L980.333 20.1639C978.873 23.6278 975.98 23.2777 973 22.4346C974.427 19.0559 976.045 11.6381 981.075 13.2178Z" fill="#EDEDED" stroke="#D2D2D2"/>
<path d="M975.075 13.2178L977 13.8266L974.333 20.1639C972.873 23.6278 969.98 23.2777 967 22.4346C968.427 19.0559 970.045 11.6381 975.075 13.2178Z" fill="#EDEDED" stroke="#D2D2D2"/>
<path d="M969.075 13.2178L971 13.8266L968.333 20.1639C966.873 23.6278 963.98 23.2777 961 22.4346C962.427 19.0559 964.045 11.6381 969.075 13.2178Z" fill="#EDEDED" stroke="#D2D2D2"/>
<path d="M963.075 13.2178L965 13.8266L962.333 20.1639C960.873 23.6278 957.98 23.2777 955 22.4346C956.427 19.0559 958.045 11.6381 963.075 13.2178Z" fill="#EDEDED" stroke="#D2D2D2"/>
<path d="M957.075 13.2178L959 13.8266L956.333 20.1639C954.873 23.6278 951.98 23.2777 949 22.4346C950.427 19.0559 952.045 11.6381 957.075 13.2178Z" fill="#EDEDED" stroke="#D2D2D2"/>
<path d="M951.075 13.2178L953 13.8266L950.333 20.1639C948.873 23.6278 945.98 23.2777 943 22.4346C944.427 19.0559 946.045 11.6381 951.075 13.2178Z" fill="#EDEDED" stroke="#D2D2D2"/>
<path d="M945.075 13.2178L947 13.8266L944.333 20.1639C942.873 23.6278 939.98 23.2777 937 22.4346C938.427 19.0559 940.045 11.6381 945.075 13.2178Z" fill="#EDEDED" stroke="#D2D2D2"/>
<path d="M939.075 13.2178L941 13.8266L938.333 20.1639C936.873 23.6278 933.98 23.2777 931 22.4346C932.427 19.0559 934.045 11.6381 939.075 13.2178Z" fill="#EDEDED" stroke="#D2D2D2"/>
<path d="M933.075 13.2178L935 13.8266L932.333 20.1639C930.873 23.6278 927.98 23.2777 925 22.4346C926.427 19.0559 928.045 11.6381 933.075 13.2178Z" fill="#EDEDED" stroke="#D2D2D2"/>
<path d="M927.075 13.2178L929 13.8266L926.333 20.1639C924.873 23.6278 921.98 23.2777 919 22.4346C920.427 19.0559 922.045 11.6381 927.075 13.2178Z" fill="#EDEDED" stroke="#D2D2D2"/>
<path d="M921.075 13.2178L923 13.8266L920.333 20.1639C918.873 23.6278 915.98 23.2777 913 22.4346C914.427 19.0559 916.045 11.6381 921.075 13.2178Z" fill="#EDEDED" stroke="#D2D2D2"/>
<path d="M915.075 13.2178L917 13.8266L914.333 20.1639C912.873 23.6278 909.98 23.2777 907 22.4346C908.427 19.0559 910.045 11.6381 915.075 13.2178Z" fill="#EDEDED" stroke="#D2D2D2"/>
<path d="M909.075 13.2178L911 13.8266L908.333 20.1639C906.873 23.6278 903.98 23.2777 901 22.4346C902.427 19.0559 904.045 11.6381 909.075 13.2178Z" fill="#EDEDED" stroke="#D2D2D2"/>
<path d="M903.075 13.2178L905 13.8266L902.333 20.1639C900.873 23.6278 897.98 23.2777 895 22.4346C896.427 19.0559 898.045 11.6381 903.075 13.2178Z" fill="#EDEDED" stroke="#D2D2D2"/>
<path d="M897.075 13.2178L899 13.8266L896.333 20.1639C894.873 23.6278 891.98 23.2777 889 22.4346C890.427 19.0559 892.045 11.6381 897.075 13.2178Z" fill="#EDEDED" stroke="#D2D2D2"/>
<path d="M891.075 13.2178L893 13.8266L890.333 20.1639C888.873 23.6278 885.98 23.2777 883 22.4346C884.427 19.0559 886.045 11.6381 891.075 13.2178Z" fill="#EDEDED" stroke="#D2D2D2"/>
<path d="M885.075 13.2178L887 13.8266L884.333 20.1639C882.873 23.6278 879.98 23.2777 877 22.4346C878.427 19.0559 880.045 11.6381 885.075 13.2178Z" fill="#EDEDED" stroke="#D2D2D2"/>
<path d="M879.075 13.2178L881 13.8266L878.333 20.1639C876.873 23.6278 873.98 23.2777 871 22.4346C872.427 19.0559 874.045 11.6381 879.075 13.2178Z" fill="#EDEDED" stroke="#D2D2D2"/>
<path d="M873.075 13.2178L875 13.8266L872.333 20.1639C870.873 23.6278 867.98 23.2777 865 22.4346C866.427 19.0559 868.045 11.6381 873.075 13.2178Z" fill="#EDEDED" stroke="#D2D2D2"/>
<path d="M867.075 13.2178L869 13.8266L866.333 20.1639C864.873 23.6278 861.98 23.2777 859 22.4346C860.427 19.0559 862.045 11.6381 867.075 13.2178Z" fill="#EDEDED" stroke="#D2D2D2"/>
<path d="M861.075 13.2178L863 13.8266L860.333 20.1639C858.873 23.6278 855.98 23.2777 853 22.4346C854.427 19.0559 856.045 11.6381 861.075 13.2178Z" fill="#EDEDED" stroke="#D2D2D2"/>
<path d="M855.075 13.2178L857 13.8266L854.333 20.1639C852.873 23.6278 849.98 23.2777 847 22.4346C848.427 19.0559 850.045 11.6381 855.075 13.2178Z" fill="#EDEDED" stroke="#D2D2D2"/>
<path d="M849.075 13.2178L851 13.8266L848.333 20.1639C846.873 23.6278 843.98 23.2777 841 22.4346C842.427 19.0559 844.045 11.6381 849.075 13.2178Z" fill="#EDEDED" stroke="#D2D2D2"/>
<path d="M843.075 13.2178L845 13.8266L842.333 20.1639C840.873 23.6278 837.98 23.2777 835 22.4346C836.427 19.0559 838.045 11.6381 843.075 13.2178Z" fill="#EDEDED" stroke="#D2D2D2"/>
<path d="M837.075 13.2178L839 13.8266L836.333 20.1639C834.873 23.6278 831.98 23.2777 829 22.4346C830.427 19.0559 832.045 11.6381 837.075 13.2178Z" fill="#EDEDED" stroke="#D2D2D2"/>
<path d="M831.075 13.2178L833 13.8266L830.333 20.1639C828.873 23.6278 825.98 23.2777 823 22.4346C824.427 19.0559 826.045 11.6381 831.075 13.2178Z" fill="#EDEDED" stroke="#D2D2D2"/>
<path d="M825.075 13.2178L827 13.8266L824.333 20.1639C822.873 23.6278 819.98 23.2777 817 22.4346C818.427 19.0559 820.045 11.6381 825.075 13.2178Z" fill="#EDEDED" stroke="#D2D2D2"/>
<path d="M819.075 13.2178L821 13.8266L818.333 20.1639C816.873 23.6278 813.98 23.2777 811 22.4346C812.427 19.0559 814.045 11.6381 819.075 13.2178Z" fill="#EDEDED" stroke="#D2D2D2"/>
<path d="M813.075 13.2178L815 13.8266L812.333 20.1639C810.873 23.6278 807.98 23.2777 805 22.4346C806.427 19.0559 808.045 11.6381 813.075 13.2178Z" fill="#EDEDED" stroke="#D2D2D2"/>
<path d="M807.075 13.2178L809 13.8266L806.333 20.1639C804.873 23.6278 801.98 23.2777 799 22.4346C800.427 19.0559 802.045 11.6381 807.075 13.2178Z" fill="#EDEDED" stroke="#D2D2D2"/>
<path d="M801.075 13.2178L803 13.8266L800.333 20.1639C798.873 23.6278 795.98 23.2777 793 22.4346C794.427 19.0559 796.045 11.6381 801.075 13.2178Z" fill="#EDEDED" stroke="#D2D2D2"/>
<path d="M795.075 13.2178L797 13.8266L794.333 20.1639C792.873 23.6278 789.98 23.2777 787 22.4346C788.427 19.0559 790.045 11.6381 795.075 13.2178Z" fill="#EDEDED" stroke="#D2D2D2"/>
<path d="M789.075 13.2178L791 13.8266L788.333 20.1639C786.873 23.6278 783.98 23.2777 781 22.4346C782.427 19.0559 784.045 11.6381 789.075 13.2178Z" fill="#EDEDED" stroke="#D2D2D2"/>
<path d="M783.075 13.2178L785 13.8266L782.333 20.1639C780.873 23.6278 777.98 23.2777 775 22.4346C776.427 19.0559 778.045 11.6381 783.075 13.2178Z" fill="#EDEDED" stroke="#D2D2D2"/>
<path d="M777.075 13.2178L779 13.8266L776.333 20.1639C774.873 23.6278 771.98 23.2777 769 22.4346C770.427 19.0559 772.045 11.6381 777.075 13.2178Z" fill="#EDEDED" stroke="#D2D2D2"/>
<path d="M771.075 13.2178L773 13.8266L770.333 20.1639C768.873 23.6278 765.98 23.2777 763 22.4346C764.427 19.0559 766.045 11.6381 771.075 13.2178Z" fill="#EDEDED" stroke="#D2D2D2"/>
<path d="M765.075 13.2178L767 13.8266L764.333 20.1639C762.873 23.6278 759.98 23.2777 757 22.4346C758.427 19.0559 760.045 11.6381 765.075 13.2178Z" fill="#EDEDED" stroke="#D2D2D2"/>
<path d="M759.075 13.2178L761 13.8266L758.333 20.1639C756.873 23.6278 753.98 23.2777 751 22.4346C752.427 19.0559 754.045 11.6381 759.075 13.2178Z" fill="#EDEDED" stroke="#D2D2D2"/>
<path d="M753.075 13.2178L755 13.8266L752.333 20.1639C750.873 23.6278 747.98 23.2777 745 22.4346C746.427 19.0559 748.045 11.6381 753.075 13.2178Z" fill="#EDEDED" stroke="#D2D2D2"/>
<path d="M747.075 13.2178L749 13.8266L746.333 20.1639C744.873 23.6278 741.98 23.2777 739 22.4346C740.427 19.0559 742.045 11.6381 747.075 13.2178Z" fill="#EDEDED" stroke="#D2D2D2"/>
<path d="M741.075 13.2178L743 13.8266L740.333 20.1639C738.873 23.6278 735.98 23.2777 733 22.4346C734.427 19.0559 736.045 11.6381 741.075 13.2178Z" fill="#EDEDED" stroke="#D2D2D2"/>
<path d="M735.075 13.2178L737 13.8266L734.333 20.1639C732.873 23.6278 729.98 23.2777 727 22.4346C728.427 19.0559 730.045 11.6381 735.075 13.2178Z" fill="#EDEDED" stroke="#D2D2D2"/>
<path d="M729.075 13.2178L731 13.8266L728.333 20.1639C726.873 23.6278 723.98 23.2777 721 22.4346C722.427 19.0559 724.045 11.6381 729.075 13.2178Z" fill="#EDEDED" stroke="#D2D2D2"/>
<path d="M723.075 13.2178L725 13.8266L722.333 20.1639C720.873 23.6278 717.98 23.2777 715 22.4346C716.427 19.0559 718.045 11.6381 723.075 13.2178Z" fill="#EDEDED" stroke="#D2D2D2"/>
<path d="M717.075 13.2178L719 13.8266L716.333 20.1639C714.873 23.6278 711.98 23.2777 709 22.4346C710.427 19.0559 712.045 11.6381 717.075 13.2178Z" fill="#EDEDED" stroke="#D2D2D2"/>
<path d="M711.075 13.2178L713 13.8266L710.333 20.1639C708.873 23.6278 705.98 23.2777 703 22.4346C704.427 19.0559 706.045 11.6381 711.075 13.2178Z" fill="#EDEDED" stroke="#D2D2D2"/>
<path d="M705.075 13.2178L707 13.8266L704.333 20.1639C702.873 23.6278 699.98 23.2777 697 22.4346C698.427 19.0559 700.045 11.6381 705.075 13.2178Z" fill="#EDEDED" stroke="#D2D2D2"/>
<path d="M699.075 13.2178L701 13.8266L698.333 20.1639C696.873 23.6278 693.98 23.2777 691 22.4346C692.427 19.0559 694.045 11.6381 699.075 13.2178Z" fill="#EDEDED" stroke="#D2D2D2"/>
<path d="M693.075 13.2178L695 13.8266L692.333 20.1639C690.873 23.6278 687.98 23.2777 685 22.4346C686.427 19.0559 688.045 11.6381 693.075 13.2178Z" fill="#EDEDED" stroke="#D2D2D2"/>
<path d="M687.075 13.2178L689 13.8266L686.333 20.1639C684.873 23.6278 681.98 23.2777 679 22.4346C680.427 19.0559 682.045 11.6381 687.075 13.2178Z" fill="#EDEDED" stroke="#D2D2D2"/>
<path d="M681.075 13.2178L683 13.8266L680.333 20.1639C678.873 23.6278 675.98 23.2777 673 22.4346C674.427 19.0559 676.045 11.6381 681.075 13.2178Z" fill="#EDEDED" stroke="#D2D2D2"/>
<path d="M675.075 13.2178L677 13.8266L674.333 20.1639C672.873 23.6278 669.98 23.2777 667 22.4346C668.427 19.0559 670.045 11.6381 675.075 13.2178Z" fill="#EDEDED" stroke="#D2D2D2"/>
<path d="M669.075 13.2178L671 13.8266L668.333 20.1639C666.873 23.6278 663.98 23.2777 661 22.4346C662.427 19.0559 664.045 11.6381 669.075 13.2178Z" fill="#EDEDED" stroke="#D2D2D2"/>
<path d="M663.075 13.2178L665 13.8266L662.333 20.1639C660.873 23.6278 657.98 23.2777 655 22.4346C656.427 19.0559 658.045 11.6381 663.075 13.2178Z" fill="#EDEDED" stroke="#D2D2D2"/>
<path d="M657.075 13.2178L659 13.8266L656.333 20.1639C654.873 23.6278 651.98 23.2777 649 22.4346C650.427 19.0559 652.045 11.6381 657.075 13.2178Z" fill="#EDEDED" stroke="#D2D2D2"/>
<path d="M651.075 13.2178L653 13.8266L650.333 20.1639C648.873 23.6278 645.98 23.2777 643 22.4346C644.427 19.0559 646.045 11.6381 651.075 13.2178Z" fill="#EDEDED" stroke="#D2D2D2"/>
<path d="M645.075 13.2178L647 13.8266L644.333 20.1639C642.873 23.6278 639.98 23.2777 637 22.4346C638.427 19.0559 640.045 11.6381 645.075 13.2178Z" fill="#EDEDED" stroke="#D2D2D2"/>
<path d="M639.075 13.2178L641 13.8266L638.333 20.1639C636.873 23.6278 633.98 23.2777 631 22.4346C632.427 19.0559 634.045 11.6381 639.075 13.2178Z" fill="#EDEDED" stroke="#D2D2D2"/>
<path d="M633.075 13.2178L635 13.8266L632.333 20.1639C630.873 23.6278 627.98 23.2777 625 22.4346C626.427 19.0559 628.045 11.6381 633.075 13.2178Z" fill="#EDEDED" stroke="#D2D2D2"/>
<path d="M627.075 13.2178L629 13.8266L626.333 20.1639C624.873 23.6278 621.98 23.2777 619 22.4346C620.427 19.0559 622.045 11.6381 627.075 13.2178Z" fill="#EDEDED" stroke="#D2D2D2"/>
<path d="M621.075 13.2178L623 13.8266L620.333 20.1639C618.873 23.6278 615.98 23.2777 613 22.4346C614.427 19.0559 616.045 11.6381 621.075 13.2178Z" fill="#EDEDED" stroke="#D2D2D2"/>
<path d="M615.075 13.2178L617 13.8266L614.333 20.1639C612.873 23.6278 609.98 23.2777 607 22.4346C608.427 19.0559 610.045 11.6381 615.075 13.2178Z" fill="#EDEDED" stroke="#D2D2D2"/>
<path d="M609.075 13.2178L611 13.8266L608.333 20.1639C606.873 23.6278 603.98 23.2777 601 22.4346C602.427 19.0559 604.045 11.6381 609.075 13.2178Z" fill="#EDEDED" stroke="#D2D2D2"/>
<path d="M603.075 13.2178L605 13.8266L602.333 20.1639C600.873 23.6278 597.98 23.2777 595 22.4346C596.427 19.0559 598.045 11.6381 603.075 13.2178Z" fill="#EDEDED" stroke="#D2D2D2"/>
<path d="M597.075 13.2178L599 13.8266L596.333 20.1639C594.873 23.6278 591.98 23.2777 589 22.4346C590.427 19.0559 592.045 11.6381 597.075 13.2178Z" fill="#EDEDED" stroke="#D2D2D2"/>
<path d="M591.075 13.2178L593 13.8266L590.333 20.1639C588.873 23.6278 585.98 23.2777 583 22.4346C584.427 19.0559 586.045 11.6381 591.075 13.2178Z" fill="#EDEDED" stroke="#D2D2D2"/>
<path d="M585.075 13.2178L587 13.8266L584.333 20.1639C582.873 23.6278 579.98 23.2777 577 22.4346C578.427 19.0559 580.045 11.6381 585.075 13.2178Z" fill="#EDEDED" stroke="#D2D2D2"/>
<path d="M579.075 13.2178L581 13.8266L578.333 20.1639C576.873 23.6278 573.98 23.2777 571 22.4346C572.427 19.0559 574.045 11.6381 579.075 13.2178Z" fill="#EDEDED" stroke="#D2D2D2"/>
<path d="M573.075 13.2178L575 13.8266L572.333 20.1639C570.873 23.6278 567.98 23.2777 565 22.4346C566.427 19.0559 568.045 11.6381 573.075 13.2178Z" fill="#EDEDED" stroke="#D2D2D2"/>
<path d="M567.075 13.2178L569 13.8266L566.333 20.1639C564.873 23.6278 561.98 23.2777 559 22.4346C560.427 19.0559 562.045 11.6381 567.075 13.2178Z" fill="#EDEDED" stroke="#D2D2D2"/>
<path d="M561.075 13.2178L563 13.8266L560.333 20.1639C558.873 23.6278 555.98 23.2777 553 22.4346C554.427 19.0559 556.045 11.6381 561.075 13.2178Z" fill="#EDEDED" stroke="#D2D2D2"/>
<path d="M555.075 13.2178L557 13.8266L554.333 20.1639C552.873 23.6278 549.98 23.2777 547 22.4346C548.427 19.0559 550.045 11.6381 555.075 13.2178Z" fill="#EDEDED" stroke="#D2D2D2"/>
<path d="M549.075 13.2178L551 13.8266L548.333 20.1639C546.873 23.6278 543.98 23.2777 541 22.4346C542.427 19.0559 544.045 11.6381 549.075 13.2178Z" fill="#EDEDED" stroke="#D2D2D2"/>
<path d="M543.075 13.2178L545 13.8266L542.333 20.1639C540.873 23.6278 537.98 23.2777 535 22.4346C536.427 19.0559 538.045 11.6381 543.075 13.2178Z" fill="#EDEDED" stroke="#D2D2D2"/>
<path d="M537.075 13.2178L539 13.8266L536.333 20.1639C534.873 23.6278 531.98 23.2777 529 22.4346C530.427 19.0559 532.045 11.6381 537.075 13.2178Z" fill="#EDEDED" stroke="#D2D2D2"/>
<path d="M531.075 13.2178L533 13.8266L530.333 20.1639C528.873 23.6278 525.98 23.2777 523 22.4346C524.427 19.0559 526.045 11.6381 531.075 13.2178Z" fill="#EDEDED" stroke="#D2D2D2"/>
<path d="M525.075 13.2178L527 13.8266L524.333 20.1639C522.873 23.6278 519.98 23.2777 517 22.4346C518.427 19.0559 520.045 11.6381 525.075 13.2178Z" fill="#EDEDED" stroke="#D2D2D2"/>
<path d="M519.075 13.2178L521 13.8266L518.333 20.1639C516.873 23.6278 513.98 23.2777 511 22.4346C512.427 19.0559 514.045 11.6381 519.075 13.2178Z" fill="#EDEDED" stroke="#D2D2D2"/>
<path d="M513.075 13.2178L515 13.8266L512.333 20.1639C510.873 23.6278 507.98 23.2777 505 22.4346C506.427 19.0559 508.045 11.6381 513.075 13.2178Z" fill="#EDEDED" stroke="#D2D2D2"/>
<path d="M507.075 13.2178L509 13.8266L506.333 20.1639C504.873 23.6278 501.98 23.2777 499 22.4346C500.427 19.0559 502.045 11.6381 507.075 13.2178Z" fill="#EDEDED" stroke="#D2D2D2"/>
<path d="M501.075 13.2178L503 13.8266L500.333 20.1639C498.873 23.6278 495.98 23.2777 493 22.4346C494.427 19.0559 496.045 11.6381 501.075 13.2178Z" fill="#EDEDED" stroke="#D2D2D2"/>
<path d="M495.075 13.2178L497 13.8266L494.333 20.1639C492.873 23.6278 489.98 23.2777 487 22.4346C488.427 19.0559 490.045 11.6381 495.075 13.2178Z" fill="#EDEDED" stroke="#D2D2D2"/>
<path d="M489.075 13.2178L491 13.8266L488.333 20.1639C486.873 23.6278 483.98 23.2777 481 22.4346C482.427 19.0559 484.045 11.6381 489.075 13.2178Z" fill="#EDEDED" stroke="#D2D2D2"/>
<path d="M483.075 13.2178L485 13.8266L482.333 20.1639C480.873 23.6278 477.98 23.2777 475 22.4346C476.427 19.0559 478.045 11.6381 483.075 13.2178Z" fill="#EDEDED" stroke="#D2D2D2"/>
<path d="M477.075 13.2178L479 13.8266L476.333 20.1639C474.873 23.6278 471.98 23.2777 469 22.4346C470.427 19.0559 472.045 11.6381 477.075 13.2178Z" fill="#EDEDED" stroke="#D2D2D2"/>
<path d="M471.075 13.2178L473 13.8266L470.333 20.1639C468.873 23.6278 465.98 23.2777 463 22.4346C464.427 19.0559 466.045 11.6381 471.075 13.2178Z" fill="#EDEDED" stroke="#D2D2D2"/>
<path d="M465.075 13.2178L467 13.8266L464.333 20.1639C462.873 23.6278 459.98 23.2777 457 22.4346C458.427 19.0559 460.045 11.6381 465.075 13.2178Z" fill="#EDEDED" stroke="#D2D2D2"/>
<path d="M459.075 13.2178L461 13.8266L458.333 20.1639C456.873 23.6278 453.98 23.2777 451 22.4346C452.427 19.0559 454.045 11.6381 459.075 13.2178Z" fill="#EDEDED" stroke="#D2D2D2"/>
<path d="M453.075 13.2178L455 13.8266L452.333 20.1639C450.873 23.6278 447.98 23.2777 445 22.4346C446.427 19.0559 448.045 11.6381 453.075 13.2178Z" fill="#EDEDED" stroke="#D2D2D2"/>
<path d="M447.075 13.2178L449 13.8266L446.333 20.1639C444.873 23.6278 441.98 23.2777 439 22.4346C440.427 19.0559 442.045 11.6381 447.075 13.2178Z" fill="#EDEDED" stroke="#D2D2D2"/>
<path d="M441.075 13.2178L443 13.8266L440.333 20.1639C438.873 23.6278 435.98 23.2777 433 22.4346C434.427 19.0559 436.045 11.6381 441.075 13.2178Z" fill="#EDEDED" stroke="#D2D2D2"/>
<path d="M435.075 13.2178L437 13.8266L434.333 20.1639C432.873 23.6278 429.98 23.2777 427 22.4346C428.427 19.0559 430.045 11.6381 435.075 13.2178Z" fill="#EDEDED" stroke="#D2D2D2"/>
<path d="M429.075 13.2178L431 13.8266L428.333 20.1639C426.873 23.6278 423.98 23.2777 421 22.4346C422.427 19.0559 424.045 11.6381 429.075 13.2178Z" fill="#EDEDED" stroke="#D2D2D2"/>
<path d="M423.075 13.2178L425 13.8266L422.333 20.1639C420.873 23.6278 417.98 23.2777 415 22.4346C416.427 19.0559 418.045 11.6381 423.075 13.2178Z" fill="#EDEDED" stroke="#D2D2D2"/>
<path d="M417.075 13.2178L419 13.8266L416.333 20.1639C414.873 23.6278 411.98 23.2777 409 22.4346C410.427 19.0559 412.045 11.6381 417.075 13.2178Z" fill="#EDEDED" stroke="#D2D2D2"/>
<path d="M411.075 13.2178L413 13.8266L410.333 20.1639C408.873 23.6278 405.98 23.2777 403 22.4346C404.427 19.0559 406.045 11.6381 411.075 13.2178Z" fill="#EDEDED" stroke="#D2D2D2"/>
<path d="M405.075 13.2178L407 13.8266L404.333 20.1639C402.873 23.6278 399.98 23.2777 397 22.4346C398.427 19.0559 400.045 11.6381 405.075 13.2178Z" fill="#EDEDED" stroke="#D2D2D2"/>
<path d="M399.075 13.2178L401 13.8266L398.333 20.1639C396.873 23.6278 393.98 23.2777 391 22.4346C392.427 19.0559 394.045 11.6381 399.075 13.2178Z" fill="#EDEDED" stroke="#D2D2D2"/>
<path d="M393.075 13.2178L395 13.8266L392.333 20.1639C390.873 23.6278 387.98 23.2777 385 22.4346C386.427 19.0559 388.045 11.6381 393.075 13.2178Z" fill="#EDEDED" stroke="#D2D2D2"/>
<path d="M387.075 13.2178L389 13.8266L386.333 20.1639C384.873 23.6278 381.98 23.2777 379 22.4346C380.427 19.0559 382.045 11.6381 387.075 13.2178Z" fill="#EDEDED" stroke="#D2D2D2"/>
<path d="M381.075 13.2178L383 13.8266L380.333 20.1639C378.873 23.6278 375.98 23.2777 373 22.4346C374.427 19.0559 376.045 11.6381 381.075 13.2178Z" fill="#EDEDED" stroke="#D2D2D2"/>
<path d="M375.075 13.2178L377 13.8266L374.333 20.1639C372.873 23.6278 369.98 23.2777 367 22.4346C368.427 19.0559 370.045 11.6381 375.075 13.2178Z" fill="#EDEDED" stroke="#D2D2D2"/>
<path d="M369.075 13.2178L371 13.8266L368.333 20.1639C366.873 23.6278 363.98 23.2777 361 22.4346C362.427 19.0559 364.045 11.6381 369.075 13.2178Z" fill="#EDEDED" stroke="#D2D2D2"/>
<path d="M363.075 13.2178L365 13.8266L362.333 20.1639C360.873 23.6278 357.98 23.2777 355 22.4346C356.427 19.0559 358.045 11.6381 363.075 13.2178Z" fill="#EDEDED" stroke="#D2D2D2"/>
<path d="M357.075 13.2178L359 13.8266L356.333 20.1639C354.873 23.6278 351.98 23.2777 349 22.4346C350.427 19.0559 352.045 11.6381 357.075 13.2178Z" fill="#EDEDED" stroke="#D2D2D2"/>
<path d="M351.075 13.2178L353 13.8266L350.333 20.1639C348.873 23.6278 345.98 23.2777 343 22.4346C344.427 19.0559 346.045 11.6381 351.075 13.2178Z" fill="#EDEDED" stroke="#D2D2D2"/>
<path d="M345.075 13.2178L347 13.8266L344.333 20.1639C342.873 23.6278 339.98 23.2777 337 22.4346C338.427 19.0559 340.045 11.6381 345.075 13.2178Z" fill="#EDEDED" stroke="#D2D2D2"/>
<path d="M339.075 13.2178L341 13.8266L338.333 20.1639C336.873 23.6278 333.98 23.2777 331 22.4346C332.427 19.0559 334.045 11.6381 339.075 13.2178Z" fill="#EDEDED" stroke="#D2D2D2"/>
<path d="M333.075 13.2178L335 13.8266L332.333 20.1639C330.873 23.6278 327.98 23.2777 325 22.4346C326.427 19.0559 328.045 11.6381 333.075 13.2178Z" fill="#EDEDED" stroke="#D2D2D2"/>
<path d="M327.075 13.2178L329 13.8266L326.333 20.1639C324.873 23.6278 321.98 23.2777 319 22.4346C320.427 19.0559 322.045 11.6381 327.075 13.2178Z" fill="#EDEDED" stroke="#D2D2D2"/>
<path d="M321.075 13.2178L323 13.8266L320.333 20.1639C318.873 23.6278 315.98 23.2777 313 22.4346C314.427 19.0559 316.045 11.6381 321.075 13.2178Z" fill="#EDEDED" stroke="#D2D2D2"/>
<path d="M315.075 13.2178L317 13.8266L314.333 20.1639C312.873 23.6278 309.98 23.2777 307 22.4346C308.427 19.0559 310.045 11.6381 315.075 13.2178Z" fill="#EDEDED" stroke="#D2D2D2"/>
<path d="M309.075 13.2178L311 13.8266L308.333 20.1639C306.873 23.6278 303.98 23.2777 301 22.4346C302.427 19.0559 304.045 11.6381 309.075 13.2178Z" fill="#EDEDED" stroke="#D2D2D2"/>
<path d="M303.075 13.2178L305 13.8266L302.333 20.1639C300.873 23.6278 297.98 23.2777 295 22.4346C296.427 19.0559 298.045 11.6381 303.075 13.2178Z" fill="#EDEDED" stroke="#D2D2D2"/>
<path d="M297.075 13.2178L299 13.8266L296.333 20.1639C294.873 23.6278 291.98 23.2777 289 22.4346C290.427 19.0559 292.045 11.6381 297.075 13.2178Z" fill="#EDEDED" stroke="#D2D2D2"/>
<path d="M291.075 13.2178L293 13.8266L290.333 20.1639C288.873 23.6278 285.98 23.2777 283 22.4346C284.427 19.0559 286.045 11.6381 291.075 13.2178Z" fill="#EDEDED" stroke="#D2D2D2"/>
<path d="M285.075 13.2178L287 13.8266L284.333 20.1639C282.873 23.6278 279.98 23.2777 277 22.4346C278.427 19.0559 280.045 11.6381 285.075 13.2178Z" fill="#EDEDED" stroke="#D2D2D2"/>
<path d="M279.075 13.2178L281 13.8266L278.333 20.1639C276.873 23.6278 273.98 23.2777 271 22.4346C272.427 19.0559 274.045 11.6381 279.075 13.2178Z" fill="#EDEDED" stroke="#D2D2D2"/>
<path d="M273.075 13.2178L275 13.8266L272.333 20.1639C270.873 23.6278 267.98 23.2777 265 22.4346C266.427 19.0559 268.045 11.6381 273.075 13.2178Z" fill="#EDEDED" stroke="#D2D2D2"/>
<path d="M267.075 13.2178L269 13.8266L266.333 20.1639C264.873 23.6278 261.98 23.2777 259 22.4346C260.427 19.0559 262.045 11.6381 267.075 13.2178Z" fill="#EDEDED" stroke="#D2D2D2"/>
<path d="M261.075 13.2178L263 13.8266L260.333 20.1639C258.873 23.6278 255.98 23.2777 253 22.4346C254.427 19.0559 256.045 11.6381 261.075 13.2178Z" fill="#EDEDED" stroke="#D2D2D2"/>
<path d="M255.075 13.2178L257 13.8266L254.333 20.1639C252.873 23.6278 249.98 23.2777 247 22.4346C248.427 19.0559 250.045 11.6381 255.075 13.2178Z" fill="#EDEDED" stroke="#D2D2D2"/>
<path d="M249.075 13.2178L251 13.8266L248.333 20.1639C246.873 23.6278 243.98 23.2777 241 22.4346C242.427 19.0559 244.045 11.6381 249.075 13.2178Z" fill="#EDEDED" stroke="#D2D2D2"/>
<path d="M243.075 13.2178L245 13.8266L242.333 20.1639C240.873 23.6278 237.98 23.2777 235 22.4346C236.427 19.0559 238.045 11.6381 243.075 13.2178Z" fill="#EDEDED" stroke="#D2D2D2"/>
<path d="M237.075 13.2178L239 13.8266L236.333 20.1639C234.873 23.6278 231.98 23.2777 229 22.4346C230.427 19.0559 232.045 11.6381 237.075 13.2178Z" fill="#EDEDED" stroke="#D2D2D2"/>
<path d="M231.075 13.2178L233 13.8266L230.333 20.1639C228.873 23.6278 225.98 23.2777 223 22.4346C224.427 19.0559 226.045 11.6381 231.075 13.2178Z" fill="#EDEDED" stroke="#D2D2D2"/>
<path d="M225.075 13.2178L227 13.8266L224.333 20.1639C222.873 23.6278 219.98 23.2777 217 22.4346C218.427 19.0559 220.045 11.6381 225.075 13.2178Z" fill="#EDEDED" stroke="#D2D2D2"/>
<path d="M219.075 13.2178L221 13.8266L218.333 20.1639C216.873 23.6278 213.98 23.2777 211 22.4346C212.427 19.0559 214.045 11.6381 219.075 13.2178Z" fill="#EDEDED" stroke="#D2D2D2"/>
<path d="M213.075 13.2178L215 13.8266L212.333 20.1639C210.873 23.6278 207.98 23.2777 205 22.4346C206.427 19.0559 208.045 11.6381 213.075 13.2178Z" fill="#EDEDED" stroke="#D2D2D2"/>
<path d="M207.075 13.2178L209 13.8266L206.333 20.1639C204.873 23.6278 201.98 23.2777 199 22.4346C200.427 19.0559 202.045 11.6381 207.075 13.2178Z" fill="#EDEDED" stroke="#D2D2D2"/>
<path d="M201.075 13.2178L203 13.8266L200.333 20.1639C198.873 23.6278 195.98 23.2777 193 22.4346C194.427 19.0559 196.045 11.6381 201.075 13.2178Z" fill="#EDEDED" stroke="#D2D2D2"/>
<path d="M195.075 13.2178L197 13.8266L194.333 20.1639C192.873 23.6278 189.98 23.2777 187 22.4346C188.427 19.0559 190.045 11.6381 195.075 13.2178Z" fill="#EDEDED" stroke="#D2D2D2"/>
<path d="M189.075 13.2178L191 13.8266L188.333 20.1639C186.873 23.6278 183.98 23.2777 181 22.4346C182.427 19.0559 184.045 11.6381 189.075 13.2178Z" fill="#EDEDED" stroke="#D2D2D2"/>
<path d="M183.075 13.2178L185 13.8266L182.333 20.1639C180.873 23.6278 177.98 23.2777 175 22.4346C176.427 19.0559 178.045 11.6381 183.075 13.2178Z" fill="#EDEDED" stroke="#D2D2D2"/>
<path d="M177.075 13.2178L179 13.8266L176.333 20.1639C174.873 23.6278 171.98 23.2777 169 22.4346C170.427 19.0559 172.045 11.6381 177.075 13.2178Z" fill="#EDEDED" stroke="#D2D2D2"/>
<path d="M171.075 13.2178L173 13.8266L170.333 20.1639C168.873 23.6278 165.98 23.2777 163 22.4346C164.427 19.0559 166.045 11.6381 171.075 13.2178Z" fill="#EDEDED" stroke="#D2D2D2"/>
<path d="M165.075 13.2178L167 13.8266L164.333 20.1639C162.873 23.6278 159.98 23.2777 157 22.4346C158.427 19.0559 160.045 11.6381 165.075 13.2178Z" fill="#EDEDED" stroke="#D2D2D2"/>
<path d="M159.075 13.2178L161 13.8266L158.333 20.1639C156.873 23.6278 153.98 23.2777 151 22.4346C152.427 19.0559 154.045 11.6381 159.075 13.2178Z" fill="#EDEDED" stroke="#D2D2D2"/>
<path d="M153.075 13.2178L155 13.8266L152.333 20.1639C150.873 23.6278 147.98 23.2777 145 22.4346C146.427 19.0559 148.045 11.6381 153.075 13.2178Z" fill="#EDEDED" stroke="#D2D2D2"/>
<path d="M147.075 13.2178L149 13.8266L146.333 20.1639C144.873 23.6278 141.98 23.2777 139 22.4346C140.427 19.0559 142.045 11.6381 147.075 13.2178Z" fill="#EDEDED" stroke="#D2D2D2"/>
<path d="M141.075 13.2178L143 13.8266L140.333 20.1639C138.873 23.6278 135.98 23.2777 133 22.4346C134.427 19.0559 136.045 11.6381 141.075 13.2178Z" fill="#EDEDED" stroke="#D2D2D2"/>
<path d="M135.075 13.2178L137 13.8266L134.333 20.1639C132.873 23.6278 129.98 23.2777 127 22.4346C128.427 19.0559 130.045 11.6381 135.075 13.2178Z" fill="#EDEDED" stroke="#D2D2D2"/>
<path d="M129.075 13.2178L131 13.8266L128.333 20.1639C126.873 23.6278 123.98 23.2777 121 22.4346C122.427 19.0559 124.045 11.6381 129.075 13.2178Z" fill="#EDEDED" stroke="#D2D2D2"/>
<path d="M123.075 13.2178L125 13.8266L122.333 20.1639C120.873 23.6278 117.98 23.2777 115 22.4346C116.427 19.0559 118.045 11.6381 123.075 13.2178Z" fill="#EDEDED" stroke="#D2D2D2"/>
<path d="M117.075 13.2178L119 13.8266L116.333 20.1639C114.873 23.6278 111.98 23.2777 109 22.4346C110.427 19.0559 112.045 11.6381 117.075 13.2178Z" fill="#EDEDED" stroke="#D2D2D2"/>
<path d="M111.075 13.2178L113 13.8266L110.333 20.1639C108.873 23.6278 105.98 23.2777 103 22.4346C104.427 19.0559 106.045 11.6381 111.075 13.2178Z" fill="#EDEDED" stroke="#D2D2D2"/>
<path d="M105.075 13.2178L107 13.8266L104.333 20.1639C102.873 23.6278 99.9797 23.2777 97 22.4346C98.4273 19.0559 100.045 11.6381 105.075 13.2178Z" fill="#EDEDED" stroke="#D2D2D2"/>
<path d="M99.0751 13.2178L101 13.8266L98.3331 20.1639C96.8731 23.6278 93.9797 23.2777 91 22.4346C92.4273 19.0559 94.0453 11.6381 99.0751 13.2178Z" fill="#EDEDED" stroke="#D2D2D2"/>
<path d="M93.0751 13.2178L95 13.8266L92.3331 20.1639C90.8731 23.6278 87.9797 23.2777 85 22.4346C86.4273 19.0559 88.0453 11.6381 93.0751 13.2178Z" fill="#EDEDED" stroke="#D2D2D2"/>
<path d="M87.0751 13.2178L89 13.8266L86.3331 20.1639C84.8731 23.6278 81.9797 23.2777 79 22.4346C80.4273 19.0559 82.0453 11.6381 87.0751 13.2178Z" fill="#EDEDED" stroke="#D2D2D2"/>
<path d="M81.0751 13.2178L83 13.8266L80.3331 20.1639C78.8731 23.6278 75.9797 23.2777 73 22.4346C74.4273 19.0559 76.0453 11.6381 81.0751 13.2178Z" fill="#EDEDED" stroke="#D2D2D2"/>
<path d="M75.0751 13.2178L77 13.8266L74.3331 20.1639C72.8731 23.6278 69.9797 23.2777 67 22.4346C68.4273 19.0559 70.0453 11.6381 75.0751 13.2178Z" fill="#EDEDED" stroke="#D2D2D2"/>
<path d="M69.0751 13.2178L71 13.8266L68.3331 20.1639C66.8731 23.6278 63.9797 23.2777 61 22.4346C62.4273 19.0559 64.0453 11.6381 69.0751 13.2178Z" fill="#EDEDED" stroke="#D2D2D2"/>
<path d="M63.0751 13.2178L65 13.8266L62.3331 20.1639C60.8731 23.6278 57.9797 23.2777 55 22.4346C56.4273 19.0559 58.0453 11.6381 63.0751 13.2178Z" fill="#EDEDED" stroke="#D2D2D2"/>
<path d="M57.0751 13.2178L59 13.8266L56.3331 20.1639C54.8731 23.6278 51.9797 23.2777 49 22.4346C50.4273 19.0559 52.0453 11.6381 57.0751 13.2178Z" fill="#EDEDED" stroke="#D2D2D2"/>
<path d="M51.0751 13.2178L53 13.8266L50.3331 20.1639C48.8731 23.6278 45.9797 23.2777 43 22.4346C44.4273 19.0559 46.0453 11.6381 51.0751 13.2178Z" fill="#EDEDED" stroke="#D2D2D2"/>
<path d="M45.0751 13.2178L47 13.8266L44.3331 20.1639C42.8731 23.6278 39.9797 23.2777 37 22.4346C38.4273 19.0559 40.0453 11.6381 45.0751 13.2178Z" fill="#EDEDED" stroke="#D2D2D2"/>
<path d="M39.0751 13.2178L41 13.8266L38.3331 20.1639C36.8731 23.6278 33.9797 23.2777 31 22.4346C32.4273 19.0559 34.0453 11.6381 39.0751 13.2178Z" fill="#EDEDED" stroke="#D2D2D2"/>
<path d="M33.0751 13.2178L35 13.8266L32.3331 20.1639C30.8731 23.6278 27.9797 23.2777 25 22.4346C26.4273 19.0559 28.0453 11.6381 33.0751 13.2178Z" fill="#EDEDED" stroke="#D2D2D2"/>
<path d="M27.0751 13.2178L29 13.8266L26.3331 20.1639C24.8731 23.6278 21.9797 23.2777 19 22.4346C20.4273 19.0559 22.0453 11.6381 27.0751 13.2178Z" fill="#EDEDED" stroke="#D2D2D2"/>
<path d="M21.0751 13.2178L23 13.8266L20.3331 20.1639C18.8731 23.6278 15.9797 23.2777 13 22.4346C14.4273 19.0559 16.0453 11.6381 21.0751 13.2178Z" fill="#EDEDED" stroke="#D2D2D2"/>
<path d="M15.0751 13.2178L17 13.8266L14.3331 20.1639C12.8731 23.6278 9.97974 23.2777 7 22.4346C8.42729 19.0559 10.0453 11.6381 15.0751 13.2178Z" fill="#EDEDED" stroke="#D2D2D2"/>
<path d="M9.07508 13.2178L11 13.8266L8.33313 20.1639C6.87306 23.6278 3.97974 23.2777 1 22.4346C2.42729 19.0559 4.04529 11.6381 9.07508 13.2178Z" fill="#EDEDED" stroke="#D2D2D2"/>
</svg>
