<svg width="32" height="27" viewBox="0 0 32 27" fill="none" xmlns="http://www.w3.org/2000/svg">
<path d="M9.45468 24.1369C9.96799 25.1537 10.8565 25.7832 11.9126 26.154C15.7208 27.4912 18.8606 23.7874 18.2322 20.2369C18.0717 19.0228 17.1217 18.1103 16.0546 18.7447C13.4293 20.3055 12.6175 23.2614 9.45468 24.1369Z" fill="#EDEDED" stroke="#D2D2D2"/>
<path d="M16.4413 25.8347C17.4374 26.387 18.5261 26.4081 19.6079 26.1211C23.5091 25.0861 24.0237 20.2578 21.5079 17.6748C20.6927 16.761 19.394 16.5403 18.8681 17.665C17.5744 20.4316 18.5648 23.3326 16.4413 25.8347Z" fill="#EDEDED" stroke="#D2D2D2"/>
<path d="M23.1671 23.3148C24.3014 23.2116 25.2137 22.617 25.947 21.7714C28.5915 18.7223 26.3027 14.44 22.77 13.718C21.582 13.4207 20.384 13.9682 20.5813 15.194C21.0667 18.2093 23.5167 20.0517 23.1671 23.3148Z" fill="#EDEDED" stroke="#D2D2D2"/>
<path d="M27.315 17.4487C28.1951 16.7256 28.6153 15.7211 28.7464 14.6095C29.2193 10.6011 24.919 8.34631 21.5915 9.73524C20.4419 10.1572 19.7589 11.2835 20.6112 12.1863C22.7078 14.4072 25.7697 14.5536 27.315 17.4487Z" fill="#EDEDED" stroke="#D2D2D2"/>
<path d="M27.4413 10.266C27.7627 9.17325 27.5454 8.10626 27.029 7.11323C25.1666 3.53242 20.3426 4.08517 18.3716 7.10448C17.658 8.09969 17.7264 9.41517 18.9387 9.68265C21.9212 10.3407 24.5357 8.74043 27.4413 10.266Z" fill="#EDEDED" stroke="#D2D2D2"/>
<path d="M6.53165 21.7024C6.70692 22.8278 7.35838 23.7003 8.24896 24.3783C11.4604 26.8232 15.5882 24.2662 16.0836 20.6947C16.3047 19.4902 15.682 18.3295 14.4713 18.6045C11.4929 19.281 9.81034 21.8433 6.53165 21.7024Z" fill="#EDEDED" stroke="#D2D2D2"/>
<path d="M19.8258 14.5399L19.3387 13L14.2689 15.1335C11.4978 16.3016 11.7778 18.6162 12.4523 21C15.1553 19.8582 21.0896 18.5638 19.8258 14.5399Z" fill="#EDEDED" stroke="#D2D2D2"/>
<path d="M19.8258 19.5399L19.3387 18L14.2689 20.1335C11.4978 21.3016 11.7778 23.6162 12.4523 26C15.1553 24.8582 21.0896 23.5638 19.8258 19.5399Z" fill="#EDEDED" stroke="#D2D2D2"/>
<path d="M37.0751 9.21781L39 9.82658L36.3331 16.1639C34.8731 19.6278 31.9797 19.2777 29 18.4346C30.4273 15.0559 32.0453 7.63805 37.0751 9.21781Z" fill="#EDEDED" stroke="#D2D2D2"/>
<path d="M31.0751 9.21781L33 9.82658L30.3331 16.1639C28.8731 19.6278 25.9797 19.2777 23 18.4346C24.4273 15.0559 26.0453 7.63805 31.0751 9.21781Z" fill="#EDEDED" stroke="#D2D2D2"/>
<path d="M25.0751 9.21781L27 9.82658L24.3331 16.1639C22.8731 19.6278 19.9797 19.2777 17 18.4346C18.4273 15.0559 20.0453 7.63805 25.0751 9.21781Z" fill="#EDEDED" stroke="#D2D2D2"/>
<path d="M19.0751 9.21781L21 9.82658L18.3331 16.1639C16.8731 19.6278 13.9797 19.2777 11 18.4346C12.4273 15.0559 14.0453 7.63805 19.0751 9.21781Z" fill="#EDEDED" stroke="#D2D2D2"/>
<path d="M13.0751 9.21781L15 9.82658L12.3331 16.1639C10.8731 19.6278 7.97974 19.2777 5 18.4346C6.42729 15.0559 8.04529 7.63805 13.0751 9.21781Z" fill="#EDEDED" stroke="#D2D2D2"/>
<path d="M23.6036 4.32146C23.2503 3.22239 22.4602 2.45177 21.4615 1.91365C17.86 -0.0267656 14.1312 3.18536 14.1994 6.83942C14.1684 8.08026 14.9753 9.144 16.1439 8.67739C19.0189 7.52952 20.2987 4.69833 23.6036 4.32146Z" fill="#EDEDED" stroke="#D2D2D2"/>
<path d="M16.8823 1.51795C15.9723 0.807611 14.8856 0.614453 13.7571 0.730908C9.68776 1.15084 8.40981 5.90353 10.5205 8.88717C11.1923 9.93082 12.4577 10.3569 13.1619 9.31403C14.8942 6.74846 14.361 3.68755 16.8823 1.51795Z" fill="#EDEDED" stroke="#D2D2D2"/>
<path d="M9.74519 2.97871C8.59323 2.90286 7.58597 3.354 6.71814 4.08473C3.58878 6.71973 5.20375 11.3687 8.62662 12.6497C9.769 13.1351 11.055 12.7762 11.0511 11.5178C11.0415 8.4221 8.87971 6.19044 9.74519 2.97871Z" fill="#EDEDED" stroke="#D2D2D2"/>
<path d="M4.66921 8.19623C3.67388 8.78111 3.09448 9.72046 2.78757 10.8127C1.68088 14.7511 5.63005 17.688 9.18094 16.8231C10.3986 16.5823 11.2603 15.5625 10.5497 14.524C8.80141 11.9693 5.75901 11.3389 4.66921 8.19623Z" fill="#EDEDED" stroke="#D2D2D2"/>
<path d="M3.40217 15.367C2.90781 16.4103 2.95673 17.5129 3.31692 18.5887C4.61578 22.468 9.53286 22.6767 11.9833 19.9652C12.8549 19.0815 12.9943 17.7537 11.8228 17.2943C8.94068 16.1643 6.0702 17.3534 3.40217 15.367Z" fill="#EDEDED" stroke="#D2D2D2"/>
</svg>
