<svg width="60" height="535" viewBox="0 0 60 535" fill="none" xmlns="http://www.w3.org/2000/svg">
<path d="M36.2168 3.50239L35.4254 1L27.187 4.46693C22.6839 6.36502 23.1389 10.1263 24.235 14C28.6273 12.1445 38.2705 10.0411 36.2168 3.50239Z" fill="#52A5CE" stroke="#2779A3"/>
<path d="M36.2168 11.5024L35.4254 9L27.187 12.4669C22.6839 14.365 23.1389 18.1263 24.235 22C28.6273 20.1445 38.2705 18.0411 36.2168 11.5024Z" fill="#52A5CE" stroke="#2779A3"/>
<path d="M36.2168 19.5024L35.4254 17L27.187 20.4669C22.6839 22.365 23.1389 26.1263 24.235 30C28.6273 28.1445 38.2705 26.0411 36.2168 19.5024Z" fill="#52A5CE" stroke="#2779A3"/>
<path d="M36.2168 27.5024L35.4254 25L27.187 28.4669C22.6839 30.365 23.1389 34.1263 24.235 38C28.6273 36.1445 38.2705 34.0411 36.2168 27.5024Z" fill="#52A5CE" stroke="#2779A3"/>
<path d="M36.2168 35.5024L35.4254 33L27.187 36.4669C22.6839 38.365 23.1389 42.1263 24.235 46C28.6273 44.1445 38.2705 42.0411 36.2168 35.5024Z" fill="#52A5CE" stroke="#2779A3"/>
<path d="M36.2168 43.5024L35.4254 41L27.187 44.4669C22.6839 46.365 23.1389 50.1263 24.235 54C28.6273 52.1445 38.2705 50.0411 36.2168 43.5024Z" fill="#52A5CE" stroke="#2779A3"/>
<path d="M36.2168 51.5024L35.4254 49L27.187 52.4669C22.6839 54.365 23.1389 58.1263 24.235 62C28.6273 60.1445 38.2705 58.0411 36.2168 51.5024Z" fill="#52A5CE" stroke="#2779A3"/>
<path d="M36.2168 59.5024L35.4254 57L27.187 60.4669C22.6839 62.365 23.1389 66.1263 24.235 70C28.6273 68.1445 38.2705 66.0411 36.2168 59.5024Z" fill="#52A5CE" stroke="#2779A3"/>
<path d="M36.0456 77.452C35.597 76.3057 34.6002 75.1594 33.3044 74.4617C32.0086 73.7141 30.5135 73.3652 29.0681 73.3652C22.5428 73.4777 20.1119 80.9353 21.8913 86.2735C22.0408 86.7221 22.1904 87.071 22.29 87.3202C22.3897 87.5693 22.4395 87.7189 22.4395 87.7189C24.0842 87.4697 25.2305 87.1706 25.9282 86.5726C30.0917 83.45 29.427 77.452 36.0456 77.452Z" fill="#52A5CE" stroke="#2779A3"/>
<path d="M41.6214 82.205C41.5446 80.9765 40.9458 79.5804 39.9252 78.5201C38.9198 77.4123 37.6028 76.6232 36.2266 76.1815C30.2519 74.377 24.3367 80.3974 26.484 86.1473C35.9625 89.6796 35.5165 80.2457 41.6214 82.205Z" fill="#52A5CE" stroke="#2779A3"/>
<path d="M22.2864 78.1499C22.3861 77.9506 22.4858 77.7512 22.5356 77.5518C22.6851 77.2528 22.7848 77.0535 22.7848 77.0535C21.6883 76.8541 20.4424 77.0036 19.2961 77.502C18.1498 77.9506 17.0533 78.748 16.2559 79.6949C12.6562 84.1946 15.0844 90.2544 19.3459 93.4505C19.5452 93.6 19.7945 93.7495 19.9938 93.899C20.3925 94.1482 20.6915 94.3476 20.9407 94.4473C21.1899 94.5469 21.3394 94.5968 21.3394 94.5968C22.4857 93.4006 23.1336 92.5036 23.333 91.4569C24.0136 86.9194 21.0068 83.2683 22.2864 78.1499Z" fill="#52A5CE" stroke="#2779A3"/>
<path d="M35.4948 86.1242C35.4948 86.1242 35.6443 86.0744 35.8935 85.9747C36.1427 85.875 36.4916 85.7753 36.9402 85.7255C37.8373 85.5261 39.1331 85.5261 40.4787 85.7753C41.8244 86.0245 43.2199 86.5727 44.2167 87.0711C44.7151 87.3203 45.1138 87.5695 45.4128 87.7689C45.7118 87.9682 45.8613 88.0679 45.8613 88.0679C46.26 87.0213 46.3099 85.8252 46.0607 84.629C45.8115 83.4329 45.2134 82.1869 44.3661 81.1901C43.5189 80.1435 42.4225 79.3461 41.2263 78.8477C40.0302 78.3493 38.7344 78.1998 37.5881 78.3992C37.5881 78.3992 37.3887 78.449 37.0398 78.4988C36.691 78.5985 36.1926 78.6982 35.6443 78.9474C35.0961 79.1467 34.4482 79.4458 33.8501 79.8445C33.2521 80.2432 32.7039 80.6917 32.2055 81.1901C31.2585 82.1869 30.8099 83.3831 30.6604 84.2303C30.6106 84.6789 30.6106 84.9779 30.6604 85.2271C30.7103 85.4763 30.7103 85.576 30.7103 85.576C31.9064 86.4232 32.355 87.0711 32.7039 87.0711C32.8534 87.0711 33.2022 86.9715 33.6009 86.7721C34.2987 86.6226 34.8968 86.3734 35.4948 86.1242Z" fill="#52A5CE" stroke="#2779A3"/>
<path d="M36.2129 67.5024L35.4215 65L27.1831 68.4669C22.68 70.365 23.135 74.1263 24.2311 78C28.6234 76.1445 38.2666 74.0411 36.2129 67.5024Z" fill="#52A5CE" stroke="#2779A3"/>
<path d="M36.2129 75.5024L35.4215 73L27.1831 76.4669C22.68 78.365 23.135 82.1263 24.2311 86C28.6234 84.1445 38.2666 82.0411 36.2129 75.5024Z" fill="#52A5CE" stroke="#2779A3"/>
<path d="M36.2129 83.5024L35.4215 81L27.1831 84.4669C22.68 86.365 23.135 90.1263 24.2311 94C28.6234 92.1445 38.2666 90.0411 36.2129 83.5024Z" fill="#52A5CE" stroke="#2779A3"/>
<path d="M36.2129 91.5024L35.4215 89L27.1831 92.4669C22.68 94.365 23.135 98.1263 24.2311 102C28.6234 100.145 38.2666 98.0411 36.2129 91.5024Z" fill="#52A5CE" stroke="#2779A3"/>
<path d="M36.2129 99.5024L35.4215 97L27.1831 100.467C22.68 102.365 23.135 106.126 24.2311 110C28.6234 108.145 38.2666 106.041 36.2129 99.5024Z" fill="#52A5CE" stroke="#2779A3"/>
<path d="M36.2129 107.502L35.4215 105L27.1831 108.467C22.68 110.365 23.135 114.126 24.2311 118C28.6234 116.145 38.2666 114.041 36.2129 107.502Z" fill="#52A5CE" stroke="#2779A3"/>
<path d="M14.7621 86.872C14.6624 86.5231 14.6126 86.3736 14.6126 86.3736C12.7187 87.4701 11.4229 89.8125 11.373 92.3543C11.373 98.5111 17.9912 101.9 23.5836 100.428C24.0321 100.329 24.381 100.229 24.6302 100.129C24.8794 100.029 25.0289 99.9796 25.0289 99.9796C24.6912 94.2384 16.5082 92.9832 14.7621 86.872Z" fill="#52A5CE" stroke="#2779A3"/>
<path d="M25.0309 99.9299C25.0309 99.9299 24.8814 99.9798 24.6322 100.079C24.383 100.179 24.0341 100.279 23.5856 100.378C22.6885 100.578 21.3927 100.727 19.9972 100.628C19.2995 100.578 18.6515 100.428 17.9538 100.229C17.3059 100.03 16.7078 99.7804 16.1596 99.581C15.6612 99.3319 15.2126 99.0827 14.9136 98.9331C14.6146 98.7338 14.4152 98.6341 14.4152 98.6341C14.2657 99.1823 14.2159 99.7306 14.166 100.329C14.166 100.927 14.2657 101.525 14.465 102.173C14.6146 102.771 14.9136 103.369 15.2126 103.917C15.5117 104.465 15.9602 104.964 16.4088 105.462C16.8573 105.911 17.3557 106.309 17.9039 106.658C18.4522 107.007 19.0004 107.256 19.5985 107.456C20.1965 107.655 20.7448 107.755 21.3428 107.804C21.9409 107.854 22.4892 107.755 22.9876 107.655C22.9876 107.655 23.1869 107.605 23.4859 107.505C23.8348 107.406 24.2833 107.256 24.8316 107.107C25.8782 106.708 27.2238 106.06 28.3203 105.263C28.8685 104.864 29.3669 104.415 29.8155 104.017C30.264 103.568 30.6129 103.169 30.8621 102.771C31.4103 101.973 31.6595 101.475 31.6595 101.475C30.563 100.229 29.7158 99.5312 28.719 99.3319C27.7223 99.1325 26.5759 99.3319 25.0309 99.9299Z" fill="#52A5CE" stroke="#2779A3"/>
<path d="M31.6583 101.525C31.6583 101.525 31.4091 102.023 30.8609 102.821C30.5618 103.169 30.213 103.618 29.8142 104.066C29.3657 104.465 28.8673 104.914 28.3191 105.312C27.2226 106.11 25.877 106.758 24.8303 107.157C24.2821 107.356 23.8336 107.505 23.4847 107.555C23.1358 107.655 22.9863 107.655 22.9863 107.655C23.2355 108.153 23.5843 108.602 23.9332 109.001C24.3319 109.449 24.7805 109.798 25.2789 110.097C25.7773 110.446 26.3255 110.695 26.9236 110.894C27.5216 111.094 28.1197 111.193 28.7676 111.293C30.0136 111.393 31.3593 111.193 32.5056 110.745C33.6519 110.247 34.6486 109.549 35.2965 108.602C35.2965 108.602 35.3962 108.452 35.5956 108.153C35.7949 107.904 36.0441 107.406 36.2933 106.907C36.8415 105.911 37.3399 104.465 37.5393 103.12C37.7386 101.774 37.6888 100.478 37.4895 99.5311C37.3898 99.0826 37.2901 98.6839 37.2403 98.4347C37.1406 98.1855 37.0907 98.0359 37.0907 98.0359C35.446 98.0359 34.2998 98.1356 33.5522 98.634C33.3528 98.7337 33.2033 98.8832 33.004 99.0826C32.8544 99.2321 32.7049 99.4315 32.5554 99.6807C32.4059 99.88 32.2563 100.179 32.1068 100.478C32.0071 100.827 31.8576 101.126 31.6583 101.525Z" fill="#52A5CE" stroke="#2779A3"/>
<path d="M37.1868 98.1355C37.1868 98.1355 37.2366 98.285 37.3363 98.5342C37.3861 98.7834 37.4858 99.1323 37.5855 99.6306C37.735 100.528 37.8347 101.824 37.6353 103.219C37.436 104.565 36.9376 106.01 36.3894 107.007C36.1402 107.505 35.8412 107.954 35.6917 108.253C35.4923 108.552 35.3926 108.701 35.3926 108.701C35.6418 108.801 35.9408 108.901 36.2399 108.951C36.5389 109 36.8379 109 37.1369 109.05C37.436 109.05 37.735 109.05 38.0839 109.05C38.3829 109 38.682 108.951 38.981 108.901C40.1772 108.602 41.3733 108.004 42.37 107.156C43.3668 106.309 44.1144 105.213 44.563 104.116C45.0115 102.97 45.1611 101.774 44.9617 100.677C44.9617 100.677 44.9118 100.478 44.862 100.129C44.8121 99.7802 44.6627 99.3316 44.5131 98.7834C44.1643 97.6869 43.5662 96.3413 42.7688 95.195C41.9713 94.0487 40.9746 93.2014 40.227 92.6532C39.8283 92.404 39.5292 92.2046 39.28 92.0551C39.0308 91.9056 38.9312 91.8558 38.9312 91.8558C37.7351 93.0021 37.0373 93.8493 36.8379 94.6966C36.4392 95.4442 36.6884 96.5406 37.1868 98.1355Z" fill="#52A5CE" stroke="#2779A3"/>
<path d="M44.7142 100.029C44.764 100.378 44.8138 100.578 44.8138 100.578C45.8106 100.129 46.7078 99.2819 47.4055 98.2353C48.1033 97.1887 48.5019 95.8929 48.6016 94.5971C48.7013 93.3012 48.5019 91.9556 48.0035 90.8591C45.9306 86.0914 42.9894 84.4266 36.7663 85.6467C35.5058 87.9646 35.4441 88.8656 35.8927 89.663C38.5979 93.8712 43.6459 93.6198 44.7142 100.029Z" fill="#52A5CE" stroke="#2779A3"/>
<path d="M36.2168 115.502L35.4254 113L27.187 116.467C22.6839 118.365 23.1389 122.126 24.235 126C28.6273 124.145 38.2705 122.041 36.2168 115.502Z" fill="#52A5CE" stroke="#2779A3"/>
<path d="M36.2168 123.502L35.4254 121L27.187 124.467C22.6839 126.365 23.1389 130.126 24.235 134C28.6273 132.145 38.2705 130.041 36.2168 123.502Z" fill="#52A5CE" stroke="#2779A3"/>
<path d="M36.2168 131.502L35.4254 129L27.187 132.467C22.6839 134.365 23.1389 138.126 24.235 142C28.6273 140.145 38.2705 138.041 36.2168 131.502Z" fill="#52A5CE" stroke="#2779A3"/>
<path d="M36.2168 139.502L35.4254 137L27.187 140.467C22.6839 142.365 23.1389 146.126 24.235 150C28.6273 148.145 38.2705 146.041 36.2168 139.502Z" fill="#52A5CE" stroke="#2779A3"/>
<path d="M36.2168 147.502L35.4254 145L27.187 148.467C22.6839 150.365 23.1389 154.126 24.235 158C28.6273 156.145 38.2705 154.041 36.2168 147.502Z" fill="#52A5CE" stroke="#2779A3"/>
<path d="M36.2168 155.502L35.4254 153L27.187 156.467C22.6839 158.365 23.1389 162.126 24.235 166C28.6273 164.145 38.2705 162.041 36.2168 155.502Z" fill="#52A5CE" stroke="#2779A3"/>
<path d="M36.2168 163.502L35.4254 161L27.187 164.467C22.6839 166.365 23.1389 170.126 24.235 174C28.6273 172.145 38.2705 170.041 36.2168 163.502Z" fill="#52A5CE" stroke="#2779A3"/>
<path d="M36.2168 171.502L35.4254 169L27.187 172.467C22.6839 174.365 23.1389 178.126 24.235 182C28.6273 180.145 38.2705 178.041 36.2168 171.502Z" fill="#52A5CE" stroke="#2779A3"/>
<path d="M36.2168 179.502L35.4254 177L27.187 180.467C22.6839 182.365 23.1389 186.126 24.235 190C28.6273 188.145 38.2705 186.041 36.2168 179.502Z" fill="#52A5CE" stroke="#2779A3"/>
<path d="M36.0456 245.452C35.597 244.306 34.6002 243.159 33.3044 242.462C32.0086 241.714 30.5135 241.365 29.0681 241.365C22.5428 241.478 20.1119 248.935 21.8913 254.274C22.0408 254.722 22.1904 255.071 22.29 255.32C22.3897 255.569 22.4395 255.719 22.4395 255.719C24.0842 255.47 25.2305 255.171 25.9282 254.573C30.0917 251.45 29.427 245.452 36.0456 245.452Z" fill="#52A5CE" stroke="#2779A3"/>
<path d="M41.6214 250.205C41.5446 248.976 40.9458 247.58 39.9252 246.52C38.9198 245.412 37.6028 244.623 36.2266 244.182C30.2519 242.377 24.3367 248.397 26.484 254.147C35.9625 257.68 35.5165 248.246 41.6214 250.205Z" fill="#52A5CE" stroke="#2779A3"/>
<path d="M22.2864 246.15C22.3861 245.951 22.4858 245.751 22.5356 245.552C22.6851 245.253 22.7848 245.053 22.7848 245.053C21.6883 244.854 20.4424 245.004 19.2961 245.502C18.1498 245.951 17.0533 246.748 16.2559 247.695C12.6562 252.195 15.0844 258.254 19.3459 261.45C19.5452 261.6 19.7945 261.75 19.9938 261.899C20.3925 262.148 20.6915 262.348 20.9407 262.447C21.1899 262.547 21.3394 262.597 21.3394 262.597C22.4857 261.401 23.1336 260.504 23.333 259.457C24.0136 254.919 21.0068 251.268 22.2864 246.15Z" fill="#52A5CE" stroke="#2779A3"/>
<path d="M35.4948 254.124C35.4948 254.124 35.6443 254.074 35.8935 253.975C36.1427 253.875 36.4916 253.775 36.9402 253.725C37.8373 253.526 39.1331 253.526 40.4787 253.775C41.8244 254.025 43.2199 254.573 44.2167 255.071C44.7151 255.32 45.1138 255.57 45.4128 255.769C45.7118 255.968 45.8613 256.068 45.8613 256.068C46.26 255.021 46.3099 253.825 46.0607 252.629C45.8115 251.433 45.2134 250.187 44.3661 249.19C43.5189 248.144 42.4225 247.346 41.2263 246.848C40.0302 246.349 38.7344 246.2 37.5881 246.399C37.5881 246.399 37.3887 246.449 37.0398 246.499C36.691 246.599 36.1926 246.698 35.6443 246.947C35.0961 247.147 34.4482 247.446 33.8501 247.844C33.2521 248.243 32.7039 248.692 32.2055 249.19C31.2585 250.187 30.8099 251.383 30.6604 252.23C30.6106 252.679 30.6106 252.978 30.6604 253.227C30.7103 253.476 30.7103 253.576 30.7103 253.576C31.9064 254.423 32.355 255.071 32.7039 255.071C32.8534 255.071 33.2022 254.971 33.6009 254.772C34.2987 254.623 34.8968 254.373 35.4948 254.124Z" fill="#52A5CE" stroke="#2779A3"/>
<path d="M36.2129 235.502L35.4215 233L27.1831 236.467C22.68 238.365 23.135 242.126 24.2311 246C28.6234 244.145 38.2666 242.041 36.2129 235.502Z" fill="#52A5CE" stroke="#2779A3"/>
<path d="M36.2129 243.502L35.4215 241L27.1831 244.467C22.68 246.365 23.135 250.126 24.2311 254C28.6234 252.145 38.2666 250.041 36.2129 243.502Z" fill="#52A5CE" stroke="#2779A3"/>
<path d="M36.2129 251.502L35.4215 249L27.1831 252.467C22.68 254.365 23.135 258.126 24.2311 262C28.6234 260.145 38.2666 258.041 36.2129 251.502Z" fill="#52A5CE" stroke="#2779A3"/>
<path d="M36.2129 259.502L35.4215 257L27.1831 260.467C22.68 262.365 23.135 266.126 24.2311 270C28.6234 268.145 38.2666 266.041 36.2129 259.502Z" fill="#52A5CE" stroke="#2779A3"/>
<path d="M36.2129 267.502L35.4215 265L27.1831 268.467C22.68 270.365 23.135 274.126 24.2311 278C28.6234 276.145 38.2666 274.041 36.2129 267.502Z" fill="#52A5CE" stroke="#2779A3"/>
<path d="M36.2129 275.502L35.4215 273L27.1831 276.467C22.68 278.365 23.135 282.126 24.2311 286C28.6234 284.145 38.2666 282.041 36.2129 275.502Z" fill="#52A5CE" stroke="#2779A3"/>
<path d="M14.7621 254.872C14.6624 254.523 14.6126 254.374 14.6126 254.374C12.7187 255.47 11.4229 257.812 11.373 260.354C11.373 266.511 17.9912 269.9 23.5836 268.428C24.0321 268.329 24.381 268.229 24.6302 268.129C24.8794 268.029 25.0289 267.98 25.0289 267.98C24.6912 262.238 16.5082 260.983 14.7621 254.872Z" fill="#52A5CE" stroke="#2779A3"/>
<path d="M25.0309 267.93C25.0309 267.93 24.8814 267.98 24.6322 268.079C24.383 268.179 24.0341 268.279 23.5856 268.378C22.6885 268.578 21.3927 268.727 19.9972 268.628C19.2995 268.578 18.6515 268.428 17.9538 268.229C17.3059 268.03 16.7078 267.78 16.1596 267.581C15.6612 267.332 15.2126 267.083 14.9136 266.933C14.6146 266.734 14.4152 266.634 14.4152 266.634C14.2657 267.182 14.2159 267.731 14.166 268.329C14.166 268.927 14.2657 269.525 14.465 270.173C14.6146 270.771 14.9136 271.369 15.2126 271.917C15.5117 272.465 15.9602 272.964 16.4088 273.462C16.8573 273.911 17.3557 274.309 17.9039 274.658C18.4522 275.007 19.0004 275.256 19.5985 275.456C20.1965 275.655 20.7448 275.755 21.3428 275.804C21.9409 275.854 22.4892 275.755 22.9876 275.655C22.9876 275.655 23.1869 275.605 23.4859 275.505C23.8348 275.406 24.2833 275.256 24.8316 275.107C25.8782 274.708 27.2238 274.06 28.3203 273.263C28.8685 272.864 29.3669 272.415 29.8155 272.017C30.264 271.568 30.6129 271.169 30.8621 270.771C31.4103 269.973 31.6595 269.475 31.6595 269.475C30.563 268.229 29.7158 267.531 28.719 267.332C27.7223 267.132 26.5759 267.332 25.0309 267.93Z" fill="#52A5CE" stroke="#2779A3"/>
<path d="M31.6583 269.525C31.6583 269.525 31.4091 270.023 30.8609 270.821C30.5618 271.169 30.213 271.618 29.8142 272.066C29.3657 272.465 28.8673 272.914 28.3191 273.312C27.2226 274.11 25.877 274.758 24.8303 275.157C24.2821 275.356 23.8336 275.505 23.4847 275.555C23.1358 275.655 22.9863 275.655 22.9863 275.655C23.2355 276.153 23.5843 276.602 23.9332 277.001C24.3319 277.449 24.7805 277.798 25.2789 278.097C25.7773 278.446 26.3255 278.695 26.9236 278.894C27.5216 279.094 28.1197 279.193 28.7676 279.293C30.0136 279.393 31.3593 279.193 32.5056 278.745C33.6519 278.247 34.6486 277.549 35.2965 276.602C35.2965 276.602 35.3962 276.452 35.5956 276.153C35.7949 275.904 36.0441 275.406 36.2933 274.907C36.8415 273.911 37.3399 272.465 37.5393 271.12C37.7386 269.774 37.6888 268.478 37.4895 267.531C37.3898 267.083 37.2901 266.684 37.2403 266.435C37.1406 266.185 37.0907 266.036 37.0907 266.036C35.446 266.036 34.2998 266.136 33.5522 266.634C33.3528 266.734 33.2033 266.883 33.004 267.083C32.8544 267.232 32.7049 267.431 32.5554 267.681C32.4059 267.88 32.2563 268.179 32.1068 268.478C32.0071 268.827 31.8576 269.126 31.6583 269.525Z" fill="#52A5CE" stroke="#2779A3"/>
<path d="M37.1868 266.135C37.1868 266.135 37.2366 266.285 37.3363 266.534C37.3861 266.783 37.4858 267.132 37.5855 267.631C37.735 268.528 37.8347 269.824 37.6353 271.219C37.436 272.565 36.9376 274.01 36.3894 275.007C36.1402 275.505 35.8412 275.954 35.6917 276.253C35.4923 276.552 35.3926 276.701 35.3926 276.701C35.6418 276.801 35.9408 276.901 36.2399 276.951C36.5389 277 36.8379 277 37.1369 277.05C37.436 277.05 37.735 277.05 38.0839 277.05C38.3829 277 38.682 276.951 38.981 276.901C40.1772 276.602 41.3733 276.004 42.37 275.156C43.3668 274.309 44.1144 273.213 44.563 272.116C45.0115 270.97 45.1611 269.774 44.9617 268.677C44.9617 268.677 44.9118 268.478 44.862 268.129C44.8121 267.78 44.6627 267.332 44.5131 266.783C44.1643 265.687 43.5662 264.341 42.7688 263.195C41.9713 262.049 40.9746 261.201 40.227 260.653C39.8283 260.404 39.5292 260.205 39.28 260.055C39.0308 259.906 38.9312 259.856 38.9312 259.856C37.7351 261.002 37.0373 261.849 36.8379 262.697C36.4392 263.444 36.6884 264.541 37.1868 266.135Z" fill="#52A5CE" stroke="#2779A3"/>
<path d="M44.7142 268.029C44.764 268.378 44.8138 268.578 44.8138 268.578C45.8106 268.129 46.7078 267.282 47.4055 266.235C48.1033 265.189 48.5019 263.893 48.6016 262.597C48.7013 261.301 48.5019 259.956 48.0035 258.859C45.9306 254.091 42.9894 252.427 36.7663 253.647C35.5058 255.965 35.4441 256.866 35.8927 257.663C38.5979 261.871 43.6459 261.62 44.7142 268.029Z" fill="#52A5CE" stroke="#2779A3"/>
<path d="M36.0456 221.452C35.597 220.306 34.6002 219.159 33.3044 218.462C32.0086 217.714 30.5135 217.365 29.0681 217.365C22.5428 217.478 20.1119 224.935 21.8913 230.274C22.0408 230.722 22.1904 231.071 22.29 231.32C22.3897 231.569 22.4395 231.719 22.4395 231.719C24.0842 231.47 25.2305 231.171 25.9282 230.573C30.0917 227.45 29.427 221.452 36.0456 221.452Z" fill="#52A5CE" stroke="#2779A3"/>
<path d="M41.6214 226.205C41.5446 224.976 40.9458 223.58 39.9252 222.52C38.9198 221.412 37.6028 220.623 36.2266 220.182C30.2519 218.377 24.3367 224.397 26.484 230.147C35.9625 233.68 35.5165 224.246 41.6214 226.205Z" fill="#52A5CE" stroke="#2779A3"/>
<path d="M22.2864 222.15C22.3861 221.951 22.4858 221.751 22.5356 221.552C22.6851 221.253 22.7848 221.053 22.7848 221.053C21.6883 220.854 20.4424 221.004 19.2961 221.502C18.1498 221.951 17.0533 222.748 16.2559 223.695C12.6562 228.195 15.0844 234.254 19.3459 237.45C19.5452 237.6 19.7945 237.75 19.9938 237.899C20.3925 238.148 20.6915 238.348 20.9407 238.447C21.1899 238.547 21.3394 238.597 21.3394 238.597C22.4857 237.401 23.1336 236.504 23.333 235.457C24.0136 230.919 21.0068 227.268 22.2864 222.15Z" fill="#52A5CE" stroke="#2779A3"/>
<path d="M35.4948 230.124C35.4948 230.124 35.6443 230.074 35.8935 229.975C36.1427 229.875 36.4916 229.775 36.9402 229.725C37.8373 229.526 39.1331 229.526 40.4787 229.775C41.8244 230.025 43.2199 230.573 44.2167 231.071C44.7151 231.32 45.1138 231.57 45.4128 231.769C45.7118 231.968 45.8613 232.068 45.8613 232.068C46.26 231.021 46.3099 229.825 46.0607 228.629C45.8115 227.433 45.2134 226.187 44.3661 225.19C43.5189 224.144 42.4225 223.346 41.2263 222.848C40.0302 222.349 38.7344 222.2 37.5881 222.399C37.5881 222.399 37.3887 222.449 37.0398 222.499C36.691 222.599 36.1926 222.698 35.6443 222.947C35.0961 223.147 34.4482 223.446 33.8501 223.844C33.2521 224.243 32.7039 224.692 32.2055 225.19C31.2585 226.187 30.8099 227.383 30.6604 228.23C30.6106 228.679 30.6106 228.978 30.6604 229.227C30.7103 229.476 30.7103 229.576 30.7103 229.576C31.9064 230.423 32.355 231.071 32.7039 231.071C32.8534 231.071 33.2022 230.971 33.6009 230.772C34.2987 230.623 34.8968 230.373 35.4948 230.124Z" fill="#52A5CE" stroke="#2779A3"/>
<path d="M36.2129 211.502L35.4215 209L27.1831 212.467C22.68 214.365 23.135 218.126 24.2311 222C28.6234 220.145 38.2666 218.041 36.2129 211.502Z" fill="#52A5CE" stroke="#2779A3"/>
<path d="M36.2129 219.502L35.4215 217L27.1831 220.467C22.68 222.365 23.135 226.126 24.2311 230C28.6234 228.145 38.2666 226.041 36.2129 219.502Z" fill="#52A5CE" stroke="#2779A3"/>
<path d="M36.2129 227.502L35.4215 225L27.1831 228.467C22.68 230.365 23.135 234.126 24.2311 238C28.6234 236.145 38.2666 234.041 36.2129 227.502Z" fill="#52A5CE" stroke="#2779A3"/>
<path d="M36.2129 235.502L35.4215 233L27.1831 236.467C22.68 238.365 23.135 242.126 24.2311 246C28.6234 244.145 38.2666 242.041 36.2129 235.502Z" fill="#52A5CE" stroke="#2779A3"/>
<path d="M36.2129 243.502L35.4215 241L27.1831 244.467C22.68 246.365 23.135 250.126 24.2311 254C28.6234 252.145 38.2666 250.041 36.2129 243.502Z" fill="#52A5CE" stroke="#2779A3"/>
<path d="M36.2129 251.502L35.4215 249L27.1831 252.467C22.68 254.365 23.135 258.126 24.2311 262C28.6234 260.145 38.2666 258.041 36.2129 251.502Z" fill="#52A5CE" stroke="#2779A3"/>
<path d="M14.7621 230.872C14.6624 230.523 14.6126 230.374 14.6126 230.374C12.7187 231.47 11.4229 233.812 11.373 236.354C11.373 242.511 17.9912 245.9 23.5836 244.428C24.0321 244.329 24.381 244.229 24.6302 244.129C24.8794 244.029 25.0289 243.98 25.0289 243.98C24.6912 238.238 16.5082 236.983 14.7621 230.872Z" fill="#52A5CE" stroke="#2779A3"/>
<path d="M25.0309 243.93C25.0309 243.93 24.8814 243.98 24.6322 244.079C24.383 244.179 24.0341 244.279 23.5856 244.378C22.6885 244.578 21.3927 244.727 19.9972 244.628C19.2995 244.578 18.6515 244.428 17.9538 244.229C17.3059 244.03 16.7078 243.78 16.1596 243.581C15.6612 243.332 15.2126 243.083 14.9136 242.933C14.6146 242.734 14.4152 242.634 14.4152 242.634C14.2657 243.182 14.2159 243.731 14.166 244.329C14.166 244.927 14.2657 245.525 14.465 246.173C14.6146 246.771 14.9136 247.369 15.2126 247.917C15.5117 248.465 15.9602 248.964 16.4088 249.462C16.8573 249.911 17.3557 250.309 17.9039 250.658C18.4522 251.007 19.0004 251.256 19.5985 251.456C20.1965 251.655 20.7448 251.755 21.3428 251.804C21.9409 251.854 22.4892 251.755 22.9876 251.655C22.9876 251.655 23.1869 251.605 23.4859 251.505C23.8348 251.406 24.2833 251.256 24.8316 251.107C25.8782 250.708 27.2238 250.06 28.3203 249.263C28.8685 248.864 29.3669 248.415 29.8155 248.017C30.264 247.568 30.6129 247.169 30.8621 246.771C31.4103 245.973 31.6595 245.475 31.6595 245.475C30.563 244.229 29.7158 243.531 28.719 243.332C27.7223 243.132 26.5759 243.332 25.0309 243.93Z" fill="#52A5CE" stroke="#2779A3"/>
<path d="M31.6583 245.525C31.6583 245.525 31.4091 246.023 30.8609 246.821C30.5618 247.169 30.213 247.618 29.8142 248.066C29.3657 248.465 28.8673 248.914 28.3191 249.312C27.2226 250.11 25.877 250.758 24.8303 251.157C24.2821 251.356 23.8336 251.505 23.4847 251.555C23.1358 251.655 22.9863 251.655 22.9863 251.655C23.2355 252.153 23.5843 252.602 23.9332 253.001C24.3319 253.449 24.7805 253.798 25.2789 254.097C25.7773 254.446 26.3255 254.695 26.9236 254.894C27.5216 255.094 28.1197 255.193 28.7676 255.293C30.0136 255.393 31.3593 255.193 32.5056 254.745C33.6519 254.247 34.6486 253.549 35.2965 252.602C35.2965 252.602 35.3962 252.452 35.5956 252.153C35.7949 251.904 36.0441 251.406 36.2933 250.907C36.8415 249.911 37.3399 248.465 37.5393 247.12C37.7386 245.774 37.6888 244.478 37.4895 243.531C37.3898 243.083 37.2901 242.684 37.2403 242.435C37.1406 242.185 37.0907 242.036 37.0907 242.036C35.446 242.036 34.2998 242.136 33.5522 242.634C33.3528 242.734 33.2033 242.883 33.004 243.083C32.8544 243.232 32.7049 243.431 32.5554 243.681C32.4059 243.88 32.2563 244.179 32.1068 244.478C32.0071 244.827 31.8576 245.126 31.6583 245.525Z" fill="#52A5CE" stroke="#2779A3"/>
<path d="M37.1868 242.135C37.1868 242.135 37.2366 242.285 37.3363 242.534C37.3861 242.783 37.4858 243.132 37.5855 243.631C37.735 244.528 37.8347 245.824 37.6353 247.219C37.436 248.565 36.9376 250.01 36.3894 251.007C36.1402 251.505 35.8412 251.954 35.6917 252.253C35.4923 252.552 35.3926 252.701 35.3926 252.701C35.6418 252.801 35.9408 252.901 36.2399 252.951C36.5389 253 36.8379 253 37.1369 253.05C37.436 253.05 37.735 253.05 38.0839 253.05C38.3829 253 38.682 252.951 38.981 252.901C40.1772 252.602 41.3733 252.004 42.37 251.156C43.3668 250.309 44.1144 249.213 44.563 248.116C45.0115 246.97 45.1611 245.774 44.9617 244.677C44.9617 244.677 44.9118 244.478 44.862 244.129C44.8121 243.78 44.6627 243.332 44.5131 242.783C44.1643 241.687 43.5662 240.341 42.7688 239.195C41.9713 238.049 40.9746 237.201 40.227 236.653C39.8283 236.404 39.5292 236.205 39.28 236.055C39.0308 235.906 38.9312 235.856 38.9312 235.856C37.7351 237.002 37.0373 237.849 36.8379 238.697C36.4392 239.444 36.6884 240.541 37.1868 242.135Z" fill="#52A5CE" stroke="#2779A3"/>
<path d="M44.7142 244.029C44.764 244.378 44.8138 244.578 44.8138 244.578C45.8106 244.129 46.7078 243.282 47.4055 242.235C48.1033 241.189 48.5019 239.893 48.6016 238.597C48.7013 237.301 48.5019 235.956 48.0035 234.859C45.9306 230.091 42.9894 228.427 36.7663 229.647C35.5058 231.965 35.4441 232.866 35.8927 233.663C38.5979 237.871 43.6459 237.62 44.7142 244.029Z" fill="#52A5CE" stroke="#2779A3"/>
<path d="M36.0456 197.452C35.597 196.306 34.6002 195.159 33.3044 194.462C32.0086 193.714 30.5135 193.365 29.0681 193.365C22.5428 193.478 20.1119 200.935 21.8913 206.274C22.0408 206.722 22.1904 207.071 22.29 207.32C22.3897 207.569 22.4395 207.719 22.4395 207.719C24.0842 207.47 25.2305 207.171 25.9282 206.573C30.0917 203.45 29.427 197.452 36.0456 197.452Z" fill="#52A5CE" stroke="#2779A3"/>
<path d="M41.6214 202.205C41.5446 200.976 40.9458 199.58 39.9252 198.52C38.9198 197.412 37.6028 196.623 36.2266 196.182C30.2519 194.377 24.3367 200.397 26.484 206.147C35.9625 209.68 35.5165 200.246 41.6214 202.205Z" fill="#52A5CE" stroke="#2779A3"/>
<path d="M22.2864 198.15C22.3861 197.951 22.4858 197.751 22.5356 197.552C22.6851 197.253 22.7848 197.053 22.7848 197.053C21.6883 196.854 20.4424 197.004 19.2961 197.502C18.1498 197.951 17.0533 198.748 16.2559 199.695C12.6562 204.195 15.0844 210.254 19.3459 213.45C19.5452 213.6 19.7945 213.75 19.9938 213.899C20.3925 214.148 20.6915 214.348 20.9407 214.447C21.1899 214.547 21.3394 214.597 21.3394 214.597C22.4857 213.401 23.1336 212.504 23.333 211.457C24.0136 206.919 21.0068 203.268 22.2864 198.15Z" fill="#52A5CE" stroke="#2779A3"/>
<path d="M35.4948 206.124C35.4948 206.124 35.6443 206.074 35.8935 205.975C36.1427 205.875 36.4916 205.775 36.9402 205.725C37.8373 205.526 39.1331 205.526 40.4787 205.775C41.8244 206.025 43.2199 206.573 44.2167 207.071C44.7151 207.32 45.1138 207.57 45.4128 207.769C45.7118 207.968 45.8613 208.068 45.8613 208.068C46.26 207.021 46.3099 205.825 46.0607 204.629C45.8115 203.433 45.2134 202.187 44.3661 201.19C43.5189 200.144 42.4225 199.346 41.2263 198.848C40.0302 198.349 38.7344 198.2 37.5881 198.399C37.5881 198.399 37.3887 198.449 37.0398 198.499C36.691 198.599 36.1926 198.698 35.6443 198.947C35.0961 199.147 34.4482 199.446 33.8501 199.844C33.2521 200.243 32.7039 200.692 32.2055 201.19C31.2585 202.187 30.8099 203.383 30.6604 204.23C30.6106 204.679 30.6106 204.978 30.6604 205.227C30.7103 205.476 30.7103 205.576 30.7103 205.576C31.9064 206.423 32.355 207.071 32.7039 207.071C32.8534 207.071 33.2022 206.971 33.6009 206.772C34.2987 206.623 34.8968 206.373 35.4948 206.124Z" fill="#52A5CE" stroke="#2779A3"/>
<path d="M36.2129 187.502L35.4215 185L27.1831 188.467C22.68 190.365 23.135 194.126 24.2311 198C28.6234 196.145 38.2666 194.041 36.2129 187.502Z" fill="#52A5CE" stroke="#2779A3"/>
<path d="M36.2129 195.502L35.4215 193L27.1831 196.467C22.68 198.365 23.135 202.126 24.2311 206C28.6234 204.145 38.2666 202.041 36.2129 195.502Z" fill="#52A5CE" stroke="#2779A3"/>
<path d="M36.2129 203.502L35.4215 201L27.1831 204.467C22.68 206.365 23.135 210.126 24.2311 214C28.6234 212.145 38.2666 210.041 36.2129 203.502Z" fill="#52A5CE" stroke="#2779A3"/>
<path d="M36.2129 211.502L35.4215 209L27.1831 212.467C22.68 214.365 23.135 218.126 24.2311 222C28.6234 220.145 38.2666 218.041 36.2129 211.502Z" fill="#52A5CE" stroke="#2779A3"/>
<path d="M36.2129 219.502L35.4215 217L27.1831 220.467C22.68 222.365 23.135 226.126 24.2311 230C28.6234 228.145 38.2666 226.041 36.2129 219.502Z" fill="#52A5CE" stroke="#2779A3"/>
<path d="M36.2129 227.502L35.4215 225L27.1831 228.467C22.68 230.365 23.135 234.126 24.2311 238C28.6234 236.145 38.2666 234.041 36.2129 227.502Z" fill="#52A5CE" stroke="#2779A3"/>
<path d="M14.7621 206.872C14.6624 206.523 14.6126 206.374 14.6126 206.374C12.7187 207.47 11.4229 209.812 11.373 212.354C11.373 218.511 17.9912 221.9 23.5836 220.428C24.0321 220.329 24.381 220.229 24.6302 220.129C24.8794 220.029 25.0289 219.98 25.0289 219.98C24.6912 214.238 16.5082 212.983 14.7621 206.872Z" fill="#52A5CE" stroke="#2779A3"/>
<path d="M25.0309 219.93C25.0309 219.93 24.8814 219.98 24.6322 220.079C24.383 220.179 24.0341 220.279 23.5856 220.378C22.6885 220.578 21.3927 220.727 19.9972 220.628C19.2995 220.578 18.6515 220.428 17.9538 220.229C17.3059 220.03 16.7078 219.78 16.1596 219.581C15.6612 219.332 15.2126 219.083 14.9136 218.933C14.6146 218.734 14.4152 218.634 14.4152 218.634C14.2657 219.182 14.2159 219.731 14.166 220.329C14.166 220.927 14.2657 221.525 14.465 222.173C14.6146 222.771 14.9136 223.369 15.2126 223.917C15.5117 224.465 15.9602 224.964 16.4088 225.462C16.8573 225.911 17.3557 226.309 17.9039 226.658C18.4522 227.007 19.0004 227.256 19.5985 227.456C20.1965 227.655 20.7448 227.755 21.3428 227.804C21.9409 227.854 22.4892 227.755 22.9876 227.655C22.9876 227.655 23.1869 227.605 23.4859 227.505C23.8348 227.406 24.2833 227.256 24.8316 227.107C25.8782 226.708 27.2238 226.06 28.3203 225.263C28.8685 224.864 29.3669 224.415 29.8155 224.017C30.264 223.568 30.6129 223.169 30.8621 222.771C31.4103 221.973 31.6595 221.475 31.6595 221.475C30.563 220.229 29.7158 219.531 28.719 219.332C27.7223 219.132 26.5759 219.332 25.0309 219.93Z" fill="#52A5CE" stroke="#2779A3"/>
<path d="M31.6583 221.525C31.6583 221.525 31.4091 222.023 30.8609 222.821C30.5618 223.169 30.213 223.618 29.8142 224.066C29.3657 224.465 28.8673 224.914 28.3191 225.312C27.2226 226.11 25.877 226.758 24.8303 227.157C24.2821 227.356 23.8336 227.505 23.4847 227.555C23.1358 227.655 22.9863 227.655 22.9863 227.655C23.2355 228.153 23.5843 228.602 23.9332 229.001C24.3319 229.449 24.7805 229.798 25.2789 230.097C25.7773 230.446 26.3255 230.695 26.9236 230.894C27.5216 231.094 28.1197 231.193 28.7676 231.293C30.0136 231.393 31.3593 231.193 32.5056 230.745C33.6519 230.247 34.6486 229.549 35.2965 228.602C35.2965 228.602 35.3962 228.452 35.5956 228.153C35.7949 227.904 36.0441 227.406 36.2933 226.907C36.8415 225.911 37.3399 224.465 37.5393 223.12C37.7386 221.774 37.6888 220.478 37.4895 219.531C37.3898 219.083 37.2901 218.684 37.2403 218.435C37.1406 218.185 37.0907 218.036 37.0907 218.036C35.446 218.036 34.2998 218.136 33.5522 218.634C33.3528 218.734 33.2033 218.883 33.004 219.083C32.8544 219.232 32.7049 219.431 32.5554 219.681C32.4059 219.88 32.2563 220.179 32.1068 220.478C32.0071 220.827 31.8576 221.126 31.6583 221.525Z" fill="#52A5CE" stroke="#2779A3"/>
<path d="M37.1868 218.135C37.1868 218.135 37.2366 218.285 37.3363 218.534C37.3861 218.783 37.4858 219.132 37.5855 219.631C37.735 220.528 37.8347 221.824 37.6353 223.219C37.436 224.565 36.9376 226.01 36.3894 227.007C36.1402 227.505 35.8412 227.954 35.6917 228.253C35.4923 228.552 35.3926 228.701 35.3926 228.701C35.6418 228.801 35.9408 228.901 36.2399 228.951C36.5389 229 36.8379 229 37.1369 229.05C37.436 229.05 37.735 229.05 38.0839 229.05C38.3829 229 38.682 228.951 38.981 228.901C40.1772 228.602 41.3733 228.004 42.37 227.156C43.3668 226.309 44.1144 225.213 44.563 224.116C45.0115 222.97 45.1611 221.774 44.9617 220.677C44.9617 220.677 44.9118 220.478 44.862 220.129C44.8121 219.78 44.6627 219.332 44.5131 218.783C44.1643 217.687 43.5662 216.341 42.7688 215.195C41.9713 214.049 40.9746 213.201 40.227 212.653C39.8283 212.404 39.5292 212.205 39.28 212.055C39.0308 211.906 38.9312 211.856 38.9312 211.856C37.7351 213.002 37.0373 213.849 36.8379 214.697C36.4392 215.444 36.6884 216.541 37.1868 218.135Z" fill="#52A5CE" stroke="#2779A3"/>
<path d="M44.7142 220.029C44.764 220.378 44.8138 220.578 44.8138 220.578C45.8106 220.129 46.7078 219.282 47.4055 218.235C48.1033 217.189 48.5019 215.893 48.6016 214.597C48.7013 213.301 48.5019 211.956 48.0035 210.859C45.9306 206.091 42.9894 204.427 36.7663 205.647C35.5058 207.965 35.4441 208.866 35.8927 209.663C38.5979 213.871 43.6459 213.62 44.7142 220.029Z" fill="#52A5CE" stroke="#2779A3"/>
<path d="M36.2168 283.502L35.4254 281L27.187 284.467C22.6839 286.365 23.1389 290.126 24.235 294C28.6273 292.145 38.2705 290.041 36.2168 283.502Z" fill="#52A5CE" stroke="#2779A3"/>
<path d="M36.2168 291.502L35.4254 289L27.187 292.467C22.6839 294.365 23.1389 298.126 24.235 302C28.6273 300.145 38.2705 298.041 36.2168 291.502Z" fill="#52A5CE" stroke="#2779A3"/>
<path d="M36.2168 299.502L35.4254 297L27.187 300.467C22.6839 302.365 23.1389 306.126 24.235 310C28.6273 308.145 38.2705 306.041 36.2168 299.502Z" fill="#52A5CE" stroke="#2779A3"/>
<path d="M36.2168 307.502L35.4254 305L27.187 308.467C22.6839 310.365 23.1389 314.126 24.235 318C28.6273 316.145 38.2705 314.041 36.2168 307.502Z" fill="#52A5CE" stroke="#2779A3"/>
<path d="M36.2168 315.502L35.4254 313L27.187 316.467C22.6839 318.365 23.1389 322.126 24.235 326C28.6273 324.145 38.2705 322.041 36.2168 315.502Z" fill="#52A5CE" stroke="#2779A3"/>
<path d="M36.2168 323.502L35.4254 321L27.187 324.467C22.6839 326.365 23.1389 330.126 24.235 334C28.6273 332.145 38.2705 330.041 36.2168 323.502Z" fill="#52A5CE" stroke="#2779A3"/>
<path d="M36.2168 331.502L35.4254 329L27.187 332.467C22.6839 334.365 23.1389 338.126 24.235 342C28.6273 340.145 38.2705 338.041 36.2168 331.502Z" fill="#52A5CE" stroke="#2779A3"/>
<path d="M36.2168 339.502L35.4254 337L27.187 340.467C22.6839 342.365 23.1389 346.126 24.235 350C28.6273 348.145 38.2705 346.041 36.2168 339.502Z" fill="#52A5CE" stroke="#2779A3"/>
<path d="M36.2168 347.502L35.4254 345L27.187 348.467C22.6839 350.365 23.1389 354.126 24.235 358C28.6273 356.145 38.2705 354.041 36.2168 347.502Z" fill="#52A5CE" stroke="#2779A3"/>
<path d="M36.2168 355.502L35.4254 353L27.187 356.467C22.6839 358.365 23.1389 362.126 24.235 366C28.6273 364.145 38.2705 362.041 36.2168 355.502Z" fill="#52A5CE" stroke="#2779A3"/>
<path d="M36.2168 363.502L35.4254 361L27.187 364.467C22.6839 366.365 23.1389 370.126 24.235 374C28.6273 372.145 38.2705 370.041 36.2168 363.502Z" fill="#52A5CE" stroke="#2779A3"/>
<path d="M36.2168 371.502L35.4254 369L27.187 372.467C22.6839 374.365 23.1389 378.126 24.235 382C28.6273 380.145 38.2705 378.041 36.2168 371.502Z" fill="#52A5CE" stroke="#2779A3"/>
<path d="M36.2168 379.502L35.4254 377L27.187 380.467C22.6839 382.365 23.1389 386.126 24.235 390C28.6273 388.145 38.2705 386.041 36.2168 379.502Z" fill="#52A5CE" stroke="#2779A3"/>
<path d="M36.2168 387.502L35.4254 385L27.187 388.467C22.6839 390.365 23.1389 394.126 24.235 398C28.6273 396.145 38.2705 394.041 36.2168 387.502Z" fill="#52A5CE" stroke="#2779A3"/>
<path d="M36.2168 395.502L35.4254 393L27.187 396.467C22.6839 398.365 23.1389 402.126 24.235 406C28.6273 404.145 38.2705 402.041 36.2168 395.502Z" fill="#52A5CE" stroke="#2779A3"/>
<path d="M36.2168 403.502L35.4254 401L27.187 404.467C22.6839 406.365 23.1389 410.126 24.235 414C28.6273 412.145 38.2705 410.041 36.2168 403.502Z" fill="#52A5CE" stroke="#2779A3"/>
<path d="M36.2168 411.502L35.4254 409L27.187 412.467C22.6839 414.365 23.1389 418.126 24.235 422C28.6273 420.145 38.2705 418.041 36.2168 411.502Z" fill="#52A5CE" stroke="#2779A3"/>
<path d="M36.2168 419.502L35.4254 417L27.187 420.467C22.6839 422.365 23.1389 426.126 24.235 430C28.6273 428.145 38.2705 426.041 36.2168 419.502Z" fill="#52A5CE" stroke="#2779A3"/>
<path d="M36.2168 427.502L35.4254 425L27.187 428.467C22.6839 430.365 23.1389 434.126 24.235 438C28.6273 436.145 38.2705 434.041 36.2168 427.502Z" fill="#52A5CE" stroke="#2779A3"/>
<path d="M27.1722 392.486L24.584 392.05L26.8706 383.409C28.1235 378.686 31.9116 378.613 35.9001 379.159C34.6739 383.767 33.9331 393.609 27.1722 392.486Z" fill="#52A5CE" stroke="#2779A3"/>
<path d="M35.096 391.373L32.5078 390.937L34.7944 382.297C36.0473 377.573 40.813 377.292 42.4044 379.19C43.9958 381.088 41.8569 392.496 35.096 391.373Z" fill="#52A5CE" stroke="#2779A3"/>
<path d="M25.1413 380.186L27.7295 380.622L25.4428 389.263C24.1899 393.986 19.4243 394.267 17.8329 392.369C16.2415 390.471 18.3803 379.063 25.1413 380.186Z" fill="#52A5CE" stroke="#2779A3"/>
<path d="M27.1722 404.486L24.584 404.05L26.8706 395.409C28.1235 390.686 31.9116 390.613 35.9001 391.159C34.6739 395.767 33.9331 405.609 27.1722 404.486Z" fill="#52A5CE" stroke="#2779A3"/>
<path d="M35.096 403.373L32.5078 402.937L34.7944 394.297C36.0473 389.573 40.813 389.292 42.4044 391.19C43.9958 393.088 41.8569 404.496 35.096 403.373Z" fill="#52A5CE" stroke="#2779A3"/>
<path d="M25.1413 392.187L27.7295 392.622L25.4428 401.263C24.1899 405.986 19.4243 406.267 17.8329 404.369C16.2415 402.471 18.3803 391.063 25.1413 392.187Z" fill="#52A5CE" stroke="#2779A3"/>
<path d="M27.1722 416.486L24.584 416.051L26.8706 407.41C28.1235 402.686 31.9116 402.613 35.9001 403.16C34.6739 407.768 33.9331 417.61 27.1722 416.486Z" fill="#52A5CE" stroke="#2779A3"/>
<path d="M35.096 415.373L32.5078 414.938L34.7944 406.297C36.0473 401.573 40.813 401.292 42.4044 403.19C43.9958 405.089 41.8569 416.497 35.096 415.373Z" fill="#52A5CE" stroke="#2779A3"/>
<path d="M25.1413 404.186L27.7295 404.622L25.4428 413.263C24.1899 417.986 19.4243 418.267 17.8329 416.369C16.2415 414.471 18.3803 403.063 25.1413 404.186Z" fill="#52A5CE" stroke="#2779A3"/>
<path d="M27.1722 428.486L24.584 428.051L26.8706 419.41C28.1235 414.686 31.9116 414.613 35.9001 415.16C34.6739 419.768 33.9331 429.61 27.1722 428.486Z" fill="#52A5CE" stroke="#2779A3"/>
<path d="M35.096 427.373L32.5078 426.938L34.7944 418.297C36.0473 413.573 40.813 413.292 42.4044 415.19C43.9958 417.089 41.8569 428.497 35.096 427.373Z" fill="#52A5CE" stroke="#2779A3"/>
<path d="M25.1413 416.186L27.7295 416.622L25.4428 425.263C24.1899 429.986 19.4243 430.267 17.8329 428.369C16.2415 426.471 18.3803 415.063 25.1413 416.186Z" fill="#52A5CE" stroke="#2779A3"/>
<path d="M36.2168 435.502L35.4254 433L27.187 436.467C22.6839 438.365 23.1389 442.126 24.235 446C28.6273 444.145 38.2705 442.041 36.2168 435.502Z" fill="#52A5CE" stroke="#2779A3"/>
<path d="M36.2168 443.502L35.4254 441L27.187 444.467C22.6839 446.365 23.1389 450.126 24.235 454C28.6273 452.145 38.2705 450.041 36.2168 443.502Z" fill="#52A5CE" stroke="#2779A3"/>
<path d="M36.2168 451.502L35.4254 449L27.187 452.467C22.6839 454.365 23.1389 458.126 24.235 462C28.6273 460.145 38.2705 458.041 36.2168 451.502Z" fill="#52A5CE" stroke="#2779A3"/>
<path d="M36.2168 459.502L35.4254 457L27.187 460.467C22.6839 462.365 23.1389 466.126 24.235 470C28.6273 468.145 38.2705 466.041 36.2168 459.502Z" fill="#52A5CE" stroke="#2779A3"/>
<path d="M36.2168 467.502L35.4254 465L27.187 468.467C22.6839 470.365 23.1389 474.126 24.235 478C28.6273 476.145 38.2705 474.041 36.2168 467.502Z" fill="#52A5CE" stroke="#2779A3"/>
<path d="M36.2168 475.502L35.4254 473L27.187 476.467C22.6839 478.365 23.1389 482.126 24.235 486C28.6273 484.145 38.2705 482.041 36.2168 475.502Z" fill="#52A5CE" stroke="#2779A3"/>
<path d="M36.2168 483.502L35.4254 481L27.187 484.467C22.6839 486.365 23.1389 490.126 24.235 494C28.6273 492.145 38.2705 490.041 36.2168 483.502Z" fill="#52A5CE" stroke="#2779A3"/>
<path d="M23.0071 516.328C22.6967 521.337 22.076 526.336 21.1054 531.28C21.1054 531.317 21.0941 531.335 21.0941 531.353C20.5607 533.959 22.3912 533.752 24.1696 533.752C25.2362 529.387 26.1278 523.322 26.2181 517.992C26.2181 517.992 26.7824 523.009 25.3377 531.942C25.4167 532.511 25.5296 533.191 25.7384 533.752H27.5668C28.2665 527.282 28.7462 519.609 28.8139 512.312C28.8478 513.434 29.0961 521.41 28.0859 533.752H31.1107L31.4888 532.383L31.7766 531.381C31.7709 531.372 31.7709 531.353 31.7709 531.335C31.5395 528.054 31.3985 525.178 31.3025 522.706C31.0373 515.841 31.2292 512.184 31.2292 512.184C31.28 519.379 31.7483 526.942 32.4481 534L35.0044 533.752C33.2438 523.882 33.7799 518.341 33.8194 518.001C33.9435 525.187 35.3035 531.409 35.9356 533.963L37.8824 533.752C38.6443 533.743 39.1804 532.539 38.9434 531.326C37.9671 526.373 37.3407 521.346 37.036 516.328C36.2299 504.515 23.9939 500.729 23.0071 516.328Z" fill="#52A5CE" stroke="#2779A3"/>
<path d="M36.2168 491.502L35.4254 489L27.187 492.467C22.6839 494.365 23.1389 498.126 24.235 502C28.6273 500.145 38.2705 498.041 36.2168 491.502Z" fill="#52A5CE" stroke="#2779A3"/>
<path d="M32.7314 500.032C33.8986 500.419 35.0383 500.918 35.9533 501.397C36.8684 501.877 37.4181 502.286 37.4181 502.286C37.6668 501.583 37.6479 500.722 37.4189 499.939C35.6612 492.433 26.231 493.714 24.0038 498.041C23.7123 498.608 23.5742 499.016 23.5742 499.016C24.8563 499.87 26.9508 501.661 27.6532 501.759C28.0185 501.829 28.2706 501.736 28.5648 501.628C29.9633 500.603 30.6271 499.335 32.7314 500.032Z" fill="#52A5CE" stroke="#2779A3"/>
<path d="M38.2047 508.398C41.0786 506.057 41.0304 502.474 38.2045 498.935C35.3785 495.395 29.4571 497.569 27.5224 503.741C28.879 507.21 36.9374 505.423 38.2047 508.398Z" fill="#52A5CE" stroke="#2779A3"/>
<path d="M26.5588 497.076C26.6126 496.58 26.6664 496.134 26.7202 495.837C26.8277 495.539 26.8277 495.341 26.8277 495.341C25.6984 495.44 24.6228 495.985 23.7086 496.68C19.1602 500.38 21.5462 505.56 25.6984 508.381C26.7202 509.075 27.7957 509.471 28.6024 509.67C28.9788 509.769 29.3553 509.819 29.5704 509.868C29.7855 509.918 29.9468 509.918 29.9468 509.918C32.7474 505.151 26.2881 502.068 26.5588 497.076Z" fill="#52A5CE" stroke="#2779A3"/>
<path d="M29.0632 505.826C29.0632 505.826 28.9018 505.826 28.6867 505.771C28.4716 505.717 28.1489 505.662 27.7187 505.552C26.912 505.333 25.8365 504.841 24.8147 504.129C23.7929 503.418 22.8787 502.432 22.2334 501.611C21.588 500.79 21.2116 500.188 21.2116 500.188C20.5125 500.9 20.0285 501.83 19.8134 502.87C19.5445 503.91 19.5445 505.114 19.8671 506.319C20.136 507.468 20.7276 508.618 21.5343 509.494C22.3409 510.369 23.3089 510.971 24.2769 511.245C24.2769 511.245 24.4383 511.3 24.7609 511.355C25.0836 511.409 25.5138 511.519 26.0516 511.574C27.1271 511.683 28.4716 511.628 29.7085 511.3C30.9453 510.971 31.8596 510.315 32.4511 509.712C32.72 509.439 32.9351 509.165 33.0427 509.001C33.1502 508.837 33.2578 508.727 33.2578 508.727C32.6125 507.413 32.5587 506.757 32.0209 506.373C31.4294 506.1 30.5152 505.99 29.0632 505.826Z" fill="#52A5CE" stroke="#2779A3"/>
<path d="M29.6184 506.9C29.6184 506.9 29.5356 506.989 29.3344 507.098C29.1846 507.223 28.885 507.474 28.5652 507.604C27.8787 508.021 26.7649 508.363 25.4876 508.311C24.2462 508.328 22.9083 507.914 21.9104 507.491C21.4115 507.28 21.0311 507.048 20.738 506.9C20.4449 506.752 20.3062 506.652 20.3062 506.652C20.0607 507.663 20.1083 508.822 20.5473 509.988C20.9349 511.137 21.714 512.293 22.8083 513.147C23.3476 513.599 23.9182 513.947 24.5715 514.207C24.8646 514.354 25.1733 514.45 25.4821 514.545C25.7908 514.641 26.1152 514.684 26.4395 514.727C27.0883 514.813 27.6654 514.763 28.2424 514.712C28.7837 514.594 29.3406 514.422 29.8102 514.167C29.8102 514.167 29.96 514.042 30.2798 513.912C30.5481 513.766 30.9148 513.479 31.3486 513.155C32.1647 512.492 33.0746 511.515 33.7428 510.406C34.411 509.297 34.8421 508.229 35.0922 507.391C35.2173 506.972 35.2752 506.589 35.3377 506.38C35.3488 506.154 35.3957 505.997 35.3957 505.997C34.0174 505.342 32.9212 505.061 32.0914 505.204C31.2101 505.332 30.6468 505.902 29.6184 506.9Z" fill="#52A5CE" stroke="#2779A3"/>
<path d="M30.472 505.271C30.4718 506.885 30.6217 508.446 30.1883 510.063C29.8656 511.322 29.2741 512.526 28.6825 513.402C28.3598 513.84 28.0909 514.223 27.8758 514.442C27.6607 514.661 27.4994 514.825 27.4994 514.825C28.4674 515.318 29.5967 515.427 30.726 515.318C31.8554 515.154 32.9847 514.771 33.899 514.114C38.5382 510.876 36.8316 505.877 34.4647 503.403C32.5632 502.314 30.9847 503.162 30.472 505.271Z" fill="#52A5CE" stroke="#2779A3"/>
<path d="M35.4512 513.355C39.9189 512.092 40.5418 505.458 36.8751 503.166C33.2085 500.875 30.4585 503.625 30.4598 504.676C35.0443 505.546 36.8745 507.75 35.4512 513.355Z" fill="#52A5CE" stroke="#2779A3"/>
</svg>
