<svg width="60" height="375" viewBox="0 0 60 375" fill="none" xmlns="http://www.w3.org/2000/svg">
<path d="M36.2168 3.50239L35.4254 1L27.187 4.46693C22.6839 6.36502 23.1389 10.1263 24.235 14C28.6273 12.1445 38.2705 10.0411 36.2168 3.50239Z" fill="#DE8342" stroke="#A45A25"/>
<path d="M36.2168 11.5024L35.4254 9L27.187 12.4669C22.6839 14.365 23.1389 18.1263 24.235 22C28.6273 20.1445 38.2705 18.0411 36.2168 11.5024Z" fill="#DE8342" stroke="#A45A25"/>
<path d="M36.2168 19.5024L35.4254 17L27.187 20.4669C22.6839 22.365 23.1389 26.1263 24.235 30C28.6273 28.1445 38.2705 26.0411 36.2168 19.5024Z" fill="#DE8342" stroke="#A45A25"/>
<path d="M36.2168 27.5024L35.4254 25L27.187 28.4669C22.6839 30.365 23.1389 34.1263 24.235 38C28.6273 36.1445 38.2705 34.0411 36.2168 27.5024Z" fill="#DE8342" stroke="#A45A25"/>
<path d="M36.2168 35.5024L35.4254 33L27.187 36.4669C22.6839 38.365 23.1389 42.1263 24.235 46C28.6273 44.1445 38.2705 42.0411 36.2168 35.5024Z" fill="#DE8342" stroke="#A45A25"/>
<path d="M36.2168 43.5024L35.4254 41L27.187 44.4669C22.6839 46.365 23.1389 50.1263 24.235 54C28.6273 52.1445 38.2705 50.0411 36.2168 43.5024Z" fill="#DE8342" stroke="#A45A25"/>
<path d="M36.0456 109.452C35.597 108.306 34.6002 107.159 33.3044 106.462C32.0086 105.714 30.5135 105.365 29.0681 105.365C22.5428 105.478 20.1119 112.935 21.8913 118.274C22.0408 118.722 22.1904 119.071 22.29 119.32C22.3897 119.569 22.4395 119.719 22.4395 119.719C24.0842 119.47 25.2305 119.171 25.9282 118.573C30.0917 115.45 29.427 109.452 36.0456 109.452Z" fill="#DE8342" stroke="#A45A25"/>
<path d="M41.6214 114.205C41.5446 112.976 40.9458 111.58 39.9252 110.52C38.9198 109.412 37.6028 108.623 36.2266 108.182C30.2519 106.377 24.3367 112.397 26.484 118.147C35.9625 121.68 35.5165 112.246 41.6214 114.205Z" fill="#DE8342" stroke="#A45A25"/>
<path d="M22.2864 110.15C22.3861 109.951 22.4858 109.751 22.5356 109.552C22.6851 109.253 22.7848 109.053 22.7848 109.053C21.6883 108.854 20.4424 109.004 19.2961 109.502C18.1498 109.951 17.0533 110.748 16.2559 111.695C12.6562 116.195 15.0844 122.254 19.3459 125.45C19.5452 125.6 19.7945 125.75 19.9938 125.899C20.3925 126.148 20.6915 126.348 20.9407 126.447C21.1899 126.547 21.3394 126.597 21.3394 126.597C22.4857 125.401 23.1336 124.504 23.333 123.457C24.0136 118.919 21.0068 115.268 22.2864 110.15Z" fill="#DE8342" stroke="#A45A25"/>
<path d="M35.4948 118.124C35.4948 118.124 35.6443 118.074 35.8935 117.975C36.1427 117.875 36.4916 117.775 36.9402 117.725C37.8373 117.526 39.1331 117.526 40.4787 117.775C41.8244 118.025 43.2199 118.573 44.2167 119.071C44.7151 119.32 45.1138 119.57 45.4128 119.769C45.7118 119.968 45.8613 120.068 45.8613 120.068C46.26 119.021 46.3099 117.825 46.0607 116.629C45.8115 115.433 45.2134 114.187 44.3661 113.19C43.5189 112.144 42.4225 111.346 41.2263 110.848C40.0302 110.349 38.7344 110.2 37.5881 110.399C37.5881 110.399 37.3887 110.449 37.0398 110.499C36.691 110.599 36.1926 110.698 35.6443 110.947C35.0961 111.147 34.4482 111.446 33.8501 111.844C33.2521 112.243 32.7039 112.692 32.2055 113.19C31.2585 114.187 30.8099 115.383 30.6604 116.23C30.6106 116.679 30.6106 116.978 30.6604 117.227C30.7103 117.476 30.7103 117.576 30.7103 117.576C31.9064 118.423 32.355 119.071 32.7039 119.071C32.8534 119.071 33.2022 118.971 33.6009 118.772C34.2987 118.623 34.8968 118.373 35.4948 118.124Z" fill="#DE8342" stroke="#A45A25"/>
<path d="M36.2129 99.5024L35.4215 97L27.1831 100.467C22.68 102.365 23.135 106.126 24.2311 110C28.6234 108.145 38.2666 106.041 36.2129 99.5024Z" fill="#DE8342" stroke="#A45A25"/>
<path d="M36.2129 107.502L35.4215 105L27.1831 108.467C22.68 110.365 23.135 114.126 24.2311 118C28.6234 116.145 38.2666 114.041 36.2129 107.502Z" fill="#DE8342" stroke="#A45A25"/>
<path d="M36.2129 115.502L35.4215 113L27.1831 116.467C22.68 118.365 23.135 122.126 24.2311 126C28.6234 124.145 38.2666 122.041 36.2129 115.502Z" fill="#DE8342" stroke="#A45A25"/>
<path d="M36.2129 123.502L35.4215 121L27.1831 124.467C22.68 126.365 23.135 130.126 24.2311 134C28.6234 132.145 38.2666 130.041 36.2129 123.502Z" fill="#DE8342" stroke="#A45A25"/>
<path d="M36.2129 131.502L35.4215 129L27.1831 132.467C22.68 134.365 23.135 138.126 24.2311 142C28.6234 140.145 38.2666 138.041 36.2129 131.502Z" fill="#DE8342" stroke="#A45A25"/>
<path d="M36.2129 139.502L35.4215 137L27.1831 140.467C22.68 142.365 23.135 146.126 24.2311 150C28.6234 148.145 38.2666 146.041 36.2129 139.502Z" fill="#DE8342" stroke="#A45A25"/>
<path d="M14.7621 118.872C14.6624 118.523 14.6126 118.374 14.6126 118.374C12.7187 119.47 11.4229 121.812 11.373 124.354C11.373 130.511 17.9912 133.9 23.5836 132.428C24.0321 132.329 24.381 132.229 24.6302 132.129C24.8794 132.029 25.0289 131.98 25.0289 131.98C24.6912 126.238 16.5082 124.983 14.7621 118.872Z" fill="#DE8342" stroke="#A45A25"/>
<path d="M25.0309 131.93C25.0309 131.93 24.8814 131.98 24.6322 132.079C24.383 132.179 24.0341 132.279 23.5856 132.378C22.6885 132.578 21.3927 132.727 19.9972 132.628C19.2995 132.578 18.6515 132.428 17.9538 132.229C17.3059 132.03 16.7078 131.78 16.1596 131.581C15.6612 131.332 15.2126 131.083 14.9136 130.933C14.6146 130.734 14.4152 130.634 14.4152 130.634C14.2657 131.182 14.2159 131.731 14.166 132.329C14.166 132.927 14.2657 133.525 14.465 134.173C14.6146 134.771 14.9136 135.369 15.2126 135.917C15.5117 136.465 15.9602 136.964 16.4088 137.462C16.8573 137.911 17.3557 138.309 17.9039 138.658C18.4522 139.007 19.0004 139.256 19.5985 139.456C20.1965 139.655 20.7448 139.755 21.3428 139.804C21.9409 139.854 22.4892 139.755 22.9876 139.655C22.9876 139.655 23.1869 139.605 23.4859 139.505C23.8348 139.406 24.2833 139.256 24.8316 139.107C25.8782 138.708 27.2238 138.06 28.3203 137.263C28.8685 136.864 29.3669 136.415 29.8155 136.017C30.264 135.568 30.6129 135.169 30.8621 134.771C31.4103 133.973 31.6595 133.475 31.6595 133.475C30.563 132.229 29.7158 131.531 28.719 131.332C27.7223 131.132 26.5759 131.332 25.0309 131.93Z" fill="#DE8342" stroke="#A45A25"/>
<path d="M31.6583 133.525C31.6583 133.525 31.4091 134.023 30.8609 134.821C30.5618 135.169 30.213 135.618 29.8142 136.066C29.3657 136.465 28.8673 136.914 28.3191 137.312C27.2226 138.11 25.877 138.758 24.8303 139.157C24.2821 139.356 23.8336 139.505 23.4847 139.555C23.1358 139.655 22.9863 139.655 22.9863 139.655C23.2355 140.153 23.5843 140.602 23.9332 141.001C24.3319 141.449 24.7805 141.798 25.2789 142.097C25.7773 142.446 26.3255 142.695 26.9236 142.894C27.5216 143.094 28.1197 143.193 28.7676 143.293C30.0136 143.393 31.3593 143.193 32.5056 142.745C33.6519 142.247 34.6486 141.549 35.2965 140.602C35.2965 140.602 35.3962 140.452 35.5956 140.153C35.7949 139.904 36.0441 139.406 36.2933 138.907C36.8415 137.911 37.3399 136.465 37.5393 135.12C37.7386 133.774 37.6888 132.478 37.4895 131.531C37.3898 131.083 37.2901 130.684 37.2403 130.435C37.1406 130.185 37.0907 130.036 37.0907 130.036C35.446 130.036 34.2998 130.136 33.5522 130.634C33.3528 130.734 33.2033 130.883 33.004 131.083C32.8544 131.232 32.7049 131.431 32.5554 131.681C32.4059 131.88 32.2563 132.179 32.1068 132.478C32.0071 132.827 31.8576 133.126 31.6583 133.525Z" fill="#DE8342" stroke="#A45A25"/>
<path d="M37.1868 130.135C37.1868 130.135 37.2366 130.285 37.3363 130.534C37.3861 130.783 37.4858 131.132 37.5855 131.631C37.735 132.528 37.8347 133.824 37.6353 135.219C37.436 136.565 36.9376 138.01 36.3894 139.007C36.1402 139.505 35.8412 139.954 35.6917 140.253C35.4923 140.552 35.3926 140.701 35.3926 140.701C35.6418 140.801 35.9408 140.901 36.2399 140.951C36.5389 141 36.8379 141 37.1369 141.05C37.436 141.05 37.735 141.05 38.0839 141.05C38.3829 141 38.682 140.951 38.981 140.901C40.1772 140.602 41.3733 140.004 42.37 139.156C43.3668 138.309 44.1144 137.213 44.563 136.116C45.0115 134.97 45.1611 133.774 44.9617 132.677C44.9617 132.677 44.9118 132.478 44.862 132.129C44.8121 131.78 44.6627 131.332 44.5131 130.783C44.1643 129.687 43.5662 128.341 42.7688 127.195C41.9713 126.049 40.9746 125.201 40.227 124.653C39.8283 124.404 39.5292 124.205 39.28 124.055C39.0308 123.906 38.9312 123.856 38.9312 123.856C37.7351 125.002 37.0373 125.849 36.8379 126.697C36.4392 127.444 36.6884 128.541 37.1868 130.135Z" fill="#DE8342" stroke="#A45A25"/>
<path d="M44.7142 132.029C44.764 132.378 44.8138 132.578 44.8138 132.578C45.8106 132.129 46.7078 131.282 47.4055 130.235C48.1033 129.189 48.5019 127.893 48.6016 126.597C48.7013 125.301 48.5019 123.956 48.0035 122.859C45.9306 118.091 42.9894 116.427 36.7663 117.647C35.5058 119.965 35.4441 120.866 35.8927 121.663C38.5979 125.871 43.6459 125.62 44.7142 132.029Z" fill="#DE8342" stroke="#A45A25"/>
<path d="M36.0456 85.452C35.597 84.3057 34.6002 83.1594 33.3044 82.4617C32.0086 81.7141 30.5135 81.3652 29.0681 81.3652C22.5428 81.4777 20.1119 88.9353 21.8913 94.2735C22.0408 94.7221 22.1904 95.071 22.29 95.3202C22.3897 95.5693 22.4395 95.7189 22.4395 95.7189C24.0842 95.4697 25.2305 95.1706 25.9282 94.5726C30.0917 91.45 29.427 85.452 36.0456 85.452Z" fill="#DE8342" stroke="#A45A25"/>
<path d="M41.6214 90.205C41.5446 88.9765 40.9458 87.5804 39.9252 86.5201C38.9198 85.4123 37.6028 84.6232 36.2266 84.1815C30.2519 82.377 24.3367 88.3974 26.484 94.1473C35.9625 97.6796 35.5165 88.2457 41.6214 90.205Z" fill="#DE8342" stroke="#A45A25"/>
<path d="M22.2864 86.1499C22.3861 85.9506 22.4858 85.7512 22.5356 85.5518C22.6851 85.2528 22.7848 85.0535 22.7848 85.0535C21.6883 84.8541 20.4424 85.0036 19.2961 85.502C18.1498 85.9506 17.0533 86.748 16.2559 87.6949C12.6562 92.1946 15.0844 98.2544 19.3459 101.45C19.5452 101.6 19.7945 101.75 19.9938 101.899C20.3925 102.148 20.6915 102.348 20.9407 102.447C21.1899 102.547 21.3394 102.597 21.3394 102.597C22.4857 101.401 23.1336 100.504 23.333 99.4569C24.0136 94.9194 21.0068 91.2683 22.2864 86.1499Z" fill="#DE8342" stroke="#A45A25"/>
<path d="M35.4948 94.1242C35.4948 94.1242 35.6443 94.0744 35.8935 93.9747C36.1427 93.875 36.4916 93.7753 36.9402 93.7255C37.8373 93.5261 39.1331 93.5261 40.4787 93.7753C41.8244 94.0245 43.2199 94.5727 44.2167 95.0711C44.7151 95.3203 45.1138 95.5695 45.4128 95.7689C45.7118 95.9682 45.8613 96.0679 45.8613 96.0679C46.26 95.0213 46.3099 93.8252 46.0607 92.629C45.8115 91.4329 45.2134 90.1869 44.3661 89.1901C43.5189 88.1435 42.4225 87.3461 41.2263 86.8477C40.0302 86.3493 38.7344 86.1998 37.5881 86.3992C37.5881 86.3992 37.3887 86.449 37.0398 86.4988C36.691 86.5985 36.1926 86.6982 35.6443 86.9474C35.0961 87.1467 34.4482 87.4458 33.8501 87.8445C33.2521 88.2432 32.7039 88.6917 32.2055 89.1901C31.2585 90.1869 30.8099 91.3831 30.6604 92.2303C30.6106 92.6789 30.6106 92.9779 30.6604 93.2271C30.7103 93.4763 30.7103 93.576 30.7103 93.576C31.9064 94.4232 32.355 95.0711 32.7039 95.0711C32.8534 95.0711 33.2022 94.9715 33.6009 94.7721C34.2987 94.6226 34.8968 94.3734 35.4948 94.1242Z" fill="#DE8342" stroke="#A45A25"/>
<path d="M36.2129 75.5024L35.4215 73L27.1831 76.4669C22.68 78.365 23.135 82.1263 24.2311 86C28.6234 84.1445 38.2666 82.0411 36.2129 75.5024Z" fill="#DE8342" stroke="#A45A25"/>
<path d="M36.2129 83.5024L35.4215 81L27.1831 84.4669C22.68 86.365 23.135 90.1263 24.2311 94C28.6234 92.1445 38.2666 90.0411 36.2129 83.5024Z" fill="#DE8342" stroke="#A45A25"/>
<path d="M36.2129 91.5024L35.4215 89L27.1831 92.4669C22.68 94.365 23.135 98.1263 24.2311 102C28.6234 100.145 38.2666 98.0411 36.2129 91.5024Z" fill="#DE8342" stroke="#A45A25"/>
<path d="M36.2129 99.5024L35.4215 97L27.1831 100.467C22.68 102.365 23.135 106.126 24.2311 110C28.6234 108.145 38.2666 106.041 36.2129 99.5024Z" fill="#DE8342" stroke="#A45A25"/>
<path d="M36.2129 107.502L35.4215 105L27.1831 108.467C22.68 110.365 23.135 114.126 24.2311 118C28.6234 116.145 38.2666 114.041 36.2129 107.502Z" fill="#DE8342" stroke="#A45A25"/>
<path d="M36.2129 115.502L35.4215 113L27.1831 116.467C22.68 118.365 23.135 122.126 24.2311 126C28.6234 124.145 38.2666 122.041 36.2129 115.502Z" fill="#DE8342" stroke="#A45A25"/>
<path d="M14.7621 94.872C14.6624 94.5231 14.6126 94.3736 14.6126 94.3736C12.7187 95.4701 11.4229 97.8125 11.373 100.354C11.373 106.511 17.9912 109.9 23.5836 108.428C24.0321 108.329 24.381 108.229 24.6302 108.129C24.8794 108.029 25.0289 107.98 25.0289 107.98C24.6912 102.238 16.5082 100.983 14.7621 94.872Z" fill="#DE8342" stroke="#A45A25"/>
<path d="M25.0309 107.93C25.0309 107.93 24.8814 107.98 24.6322 108.079C24.383 108.179 24.0341 108.279 23.5856 108.378C22.6885 108.578 21.3927 108.727 19.9972 108.628C19.2995 108.578 18.6515 108.428 17.9538 108.229C17.3059 108.03 16.7078 107.78 16.1596 107.581C15.6612 107.332 15.2126 107.083 14.9136 106.933C14.6146 106.734 14.4152 106.634 14.4152 106.634C14.2657 107.182 14.2159 107.731 14.166 108.329C14.166 108.927 14.2657 109.525 14.465 110.173C14.6146 110.771 14.9136 111.369 15.2126 111.917C15.5117 112.465 15.9602 112.964 16.4088 113.462C16.8573 113.911 17.3557 114.309 17.9039 114.658C18.4522 115.007 19.0004 115.256 19.5985 115.456C20.1965 115.655 20.7448 115.755 21.3428 115.804C21.9409 115.854 22.4892 115.755 22.9876 115.655C22.9876 115.655 23.1869 115.605 23.4859 115.505C23.8348 115.406 24.2833 115.256 24.8316 115.107C25.8782 114.708 27.2238 114.06 28.3203 113.263C28.8685 112.864 29.3669 112.415 29.8155 112.017C30.264 111.568 30.6129 111.169 30.8621 110.771C31.4103 109.973 31.6595 109.475 31.6595 109.475C30.563 108.229 29.7158 107.531 28.719 107.332C27.7223 107.132 26.5759 107.332 25.0309 107.93Z" fill="#DE8342" stroke="#A45A25"/>
<path d="M31.6583 109.525C31.6583 109.525 31.4091 110.023 30.8609 110.821C30.5618 111.169 30.213 111.618 29.8142 112.066C29.3657 112.465 28.8673 112.914 28.3191 113.312C27.2226 114.11 25.877 114.758 24.8303 115.157C24.2821 115.356 23.8336 115.505 23.4847 115.555C23.1358 115.655 22.9863 115.655 22.9863 115.655C23.2355 116.153 23.5843 116.602 23.9332 117.001C24.3319 117.449 24.7805 117.798 25.2789 118.097C25.7773 118.446 26.3255 118.695 26.9236 118.894C27.5216 119.094 28.1197 119.193 28.7676 119.293C30.0136 119.393 31.3593 119.193 32.5056 118.745C33.6519 118.247 34.6486 117.549 35.2965 116.602C35.2965 116.602 35.3962 116.452 35.5956 116.153C35.7949 115.904 36.0441 115.406 36.2933 114.907C36.8415 113.911 37.3399 112.465 37.5393 111.12C37.7386 109.774 37.6888 108.478 37.4895 107.531C37.3898 107.083 37.2901 106.684 37.2403 106.435C37.1406 106.185 37.0907 106.036 37.0907 106.036C35.446 106.036 34.2998 106.136 33.5522 106.634C33.3528 106.734 33.2033 106.883 33.004 107.083C32.8544 107.232 32.7049 107.431 32.5554 107.681C32.4059 107.88 32.2563 108.179 32.1068 108.478C32.0071 108.827 31.8576 109.126 31.6583 109.525Z" fill="#DE8342" stroke="#A45A25"/>
<path d="M37.1868 106.135C37.1868 106.135 37.2366 106.285 37.3363 106.534C37.3861 106.783 37.4858 107.132 37.5855 107.631C37.735 108.528 37.8347 109.824 37.6353 111.219C37.436 112.565 36.9376 114.01 36.3894 115.007C36.1402 115.505 35.8412 115.954 35.6917 116.253C35.4923 116.552 35.3926 116.701 35.3926 116.701C35.6418 116.801 35.9408 116.901 36.2399 116.951C36.5389 117 36.8379 117 37.1369 117.05C37.436 117.05 37.735 117.05 38.0839 117.05C38.3829 117 38.682 116.951 38.981 116.901C40.1772 116.602 41.3733 116.004 42.37 115.156C43.3668 114.309 44.1144 113.213 44.563 112.116C45.0115 110.97 45.1611 109.774 44.9617 108.677C44.9617 108.677 44.9118 108.478 44.862 108.129C44.8121 107.78 44.6627 107.332 44.5131 106.783C44.1643 105.687 43.5662 104.341 42.7688 103.195C41.9713 102.049 40.9746 101.201 40.227 100.653C39.8283 100.404 39.5292 100.205 39.28 100.055C39.0308 99.9056 38.9312 99.8558 38.9312 99.8558C37.7351 101.002 37.0373 101.849 36.8379 102.697C36.4392 103.444 36.6884 104.541 37.1868 106.135Z" fill="#DE8342" stroke="#A45A25"/>
<path d="M44.7142 108.029C44.764 108.378 44.8138 108.578 44.8138 108.578C45.8106 108.129 46.7078 107.282 47.4055 106.235C48.1033 105.189 48.5019 103.893 48.6016 102.597C48.7013 101.301 48.5019 99.9556 48.0035 98.8591C45.9306 94.0914 42.9894 92.4266 36.7663 93.6467C35.5058 95.9646 35.4441 96.8656 35.8927 97.663C38.5979 101.871 43.6459 101.62 44.7142 108.029Z" fill="#DE8342" stroke="#A45A25"/>
<path d="M36.0456 61.452C35.597 60.3057 34.6002 59.1594 33.3044 58.4617C32.0086 57.7141 30.5135 57.3652 29.0681 57.3652C22.5428 57.4777 20.1119 64.9353 21.8913 70.2735C22.0408 70.7221 22.1904 71.071 22.29 71.3202C22.3897 71.5693 22.4395 71.7189 22.4395 71.7189C24.0842 71.4697 25.2305 71.1706 25.9282 70.5726C30.0917 67.45 29.427 61.452 36.0456 61.452Z" fill="#DE8342" stroke="#A45A25"/>
<path d="M41.6214 66.205C41.5446 64.9765 40.9458 63.5804 39.9252 62.5201C38.9198 61.4123 37.6028 60.6232 36.2266 60.1815C30.2519 58.377 24.3367 64.3974 26.484 70.1473C35.9625 73.6796 35.5165 64.2457 41.6214 66.205Z" fill="#DE8342" stroke="#A45A25"/>
<path d="M22.2864 62.1499C22.3861 61.9506 22.4858 61.7512 22.5356 61.5518C22.6851 61.2528 22.7848 61.0535 22.7848 61.0535C21.6883 60.8541 20.4424 61.0036 19.2961 61.502C18.1498 61.9506 17.0533 62.748 16.2559 63.6949C12.6562 68.1946 15.0844 74.2544 19.3459 77.4505C19.5452 77.6 19.7945 77.7495 19.9938 77.899C20.3925 78.1482 20.6915 78.3476 20.9407 78.4473C21.1899 78.5469 21.3394 78.5968 21.3394 78.5968C22.4857 77.4006 23.1336 76.5036 23.333 75.4569C24.0136 70.9194 21.0068 67.2683 22.2864 62.1499Z" fill="#DE8342" stroke="#A45A25"/>
<path d="M35.4948 70.1242C35.4948 70.1242 35.6443 70.0744 35.8935 69.9747C36.1427 69.875 36.4916 69.7753 36.9402 69.7255C37.8373 69.5261 39.1331 69.5261 40.4787 69.7753C41.8244 70.0245 43.2199 70.5727 44.2167 71.0711C44.7151 71.3203 45.1138 71.5695 45.4128 71.7689C45.7118 71.9682 45.8613 72.0679 45.8613 72.0679C46.26 71.0213 46.3099 69.8252 46.0607 68.629C45.8115 67.4329 45.2134 66.1869 44.3661 65.1901C43.5189 64.1435 42.4225 63.3461 41.2263 62.8477C40.0302 62.3493 38.7344 62.1998 37.5881 62.3992C37.5881 62.3992 37.3887 62.449 37.0398 62.4988C36.691 62.5985 36.1926 62.6982 35.6443 62.9474C35.0961 63.1467 34.4482 63.4458 33.8501 63.8445C33.2521 64.2432 32.7039 64.6917 32.2055 65.1901C31.2585 66.1869 30.8099 67.3831 30.6604 68.2303C30.6106 68.6789 30.6106 68.9779 30.6604 69.2271C30.7103 69.4763 30.7103 69.576 30.7103 69.576C31.9064 70.4232 32.355 71.0711 32.7039 71.0711C32.8534 71.0711 33.2022 70.9715 33.6009 70.7721C34.2987 70.6226 34.8968 70.3734 35.4948 70.1242Z" fill="#DE8342" stroke="#A45A25"/>
<path d="M36.2129 51.5024L35.4215 49L27.1831 52.4669C22.68 54.365 23.135 58.1263 24.2311 62C28.6234 60.1445 38.2666 58.0411 36.2129 51.5024Z" fill="#DE8342" stroke="#A45A25"/>
<path d="M36.2129 59.5024L35.4215 57L27.1831 60.4669C22.68 62.365 23.135 66.1263 24.2311 70C28.6234 68.1445 38.2666 66.0411 36.2129 59.5024Z" fill="#DE8342" stroke="#A45A25"/>
<path d="M36.2129 67.5024L35.4215 65L27.1831 68.4669C22.68 70.365 23.135 74.1263 24.2311 78C28.6234 76.1445 38.2666 74.0411 36.2129 67.5024Z" fill="#DE8342" stroke="#A45A25"/>
<path d="M36.2129 75.5024L35.4215 73L27.1831 76.4669C22.68 78.365 23.135 82.1263 24.2311 86C28.6234 84.1445 38.2666 82.0411 36.2129 75.5024Z" fill="#DE8342" stroke="#A45A25"/>
<path d="M36.2129 83.5024L35.4215 81L27.1831 84.4669C22.68 86.365 23.135 90.1263 24.2311 94C28.6234 92.1445 38.2666 90.0411 36.2129 83.5024Z" fill="#DE8342" stroke="#A45A25"/>
<path d="M36.2129 91.5024L35.4215 89L27.1831 92.4669C22.68 94.365 23.135 98.1263 24.2311 102C28.6234 100.145 38.2666 98.0411 36.2129 91.5024Z" fill="#DE8342" stroke="#A45A25"/>
<path d="M14.7621 70.872C14.6624 70.5231 14.6126 70.3736 14.6126 70.3736C12.7187 71.4701 11.4229 73.8125 11.373 76.3543C11.373 82.5111 17.9912 85.8999 23.5836 84.4282C24.0321 84.3285 24.381 84.2288 24.6302 84.1291C24.8794 84.0295 25.0289 83.9796 25.0289 83.9796C24.6912 78.2384 16.5082 76.9832 14.7621 70.872Z" fill="#DE8342" stroke="#A45A25"/>
<path d="M25.0309 83.9299C25.0309 83.9299 24.8814 83.9798 24.6322 84.0794C24.383 84.1791 24.0341 84.2788 23.5856 84.3785C22.6885 84.5778 21.3927 84.7273 19.9972 84.6277C19.2995 84.5778 18.6515 84.4283 17.9538 84.2289C17.3059 84.0296 16.7078 83.7804 16.1596 83.581C15.6612 83.3319 15.2126 83.0827 14.9136 82.9331C14.6146 82.7338 14.4152 82.6341 14.4152 82.6341C14.2657 83.1823 14.2159 83.7306 14.166 84.3286C14.166 84.9267 14.2657 85.5248 14.465 86.1727C14.6146 86.7707 14.9136 87.3688 15.2126 87.917C15.5117 88.4653 15.9602 88.9637 16.4088 89.462C16.8573 89.9106 17.3557 90.3093 17.9039 90.6582C18.4522 91.0071 19.0004 91.2562 19.5985 91.4556C20.1965 91.655 20.7448 91.7546 21.3428 91.8045C21.9409 91.8543 22.4892 91.7546 22.9876 91.655C22.9876 91.655 23.1869 91.6051 23.4859 91.5054C23.8348 91.4057 24.2833 91.2562 24.8316 91.1067C25.8782 90.708 27.2238 90.0601 28.3203 89.2627C28.8685 88.864 29.3669 88.4154 29.8155 88.0167C30.264 87.5681 30.6129 87.1694 30.8621 86.7707C31.4103 85.9733 31.6595 85.4749 31.6595 85.4749C30.563 84.2289 29.7158 83.5312 28.719 83.3319C27.7223 83.1325 26.5759 83.3319 25.0309 83.9299Z" fill="#DE8342" stroke="#A45A25"/>
<path d="M31.6583 85.5247C31.6583 85.5247 31.4091 86.0231 30.8609 86.8205C30.5618 87.1694 30.213 87.6179 29.8142 88.0665C29.3657 88.4652 28.8673 88.9137 28.3191 89.3125C27.2226 90.1099 25.877 90.7578 24.8303 91.1565C24.2821 91.3559 23.8336 91.5054 23.4847 91.5552C23.1358 91.6549 22.9863 91.6549 22.9863 91.6549C23.2355 92.1533 23.5843 92.6018 23.9332 93.0005C24.3319 93.4491 24.7805 93.798 25.2789 94.097C25.7773 94.4459 26.3255 94.6951 26.9236 94.8944C27.5216 95.0938 28.1197 95.1935 28.7676 95.2931C30.0136 95.3928 31.3593 95.1934 32.5056 94.7449C33.6519 94.2465 34.6486 93.5488 35.2965 92.6018C35.2965 92.6018 35.3962 92.4523 35.5956 92.1533C35.7949 91.9041 36.0441 91.4057 36.2933 90.9073C36.8415 89.9105 37.3399 88.4652 37.5393 87.1195C37.7386 85.7739 37.6888 84.4781 37.4895 83.5311C37.3898 83.0826 37.2901 82.6839 37.2403 82.4347C37.1406 82.1855 37.0907 82.0359 37.0907 82.0359C35.446 82.0359 34.2998 82.1356 33.5522 82.634C33.3528 82.7337 33.2033 82.8832 33.004 83.0826C32.8544 83.2321 32.7049 83.4315 32.5554 83.6807C32.4059 83.88 32.2563 84.179 32.1068 84.4781C32.0071 84.8269 31.8576 85.126 31.6583 85.5247Z" fill="#DE8342" stroke="#A45A25"/>
<path d="M37.1868 82.1355C37.1868 82.1355 37.2366 82.285 37.3363 82.5342C37.3861 82.7834 37.4858 83.1323 37.5855 83.6306C37.735 84.5277 37.8347 85.8236 37.6353 87.2191C37.436 88.5647 36.9376 90.01 36.3894 91.0068C36.1402 91.5052 35.8412 91.9537 35.6917 92.2528C35.4923 92.5518 35.3926 92.7013 35.3926 92.7013C35.6418 92.801 35.9408 92.9007 36.2399 92.9505C36.5389 93.0004 36.8379 93.0004 37.1369 93.0502C37.436 93.0502 37.735 93.0502 38.0839 93.0502C38.3829 93.0004 38.682 92.9506 38.981 92.9007C40.1772 92.6017 41.3733 92.0036 42.37 91.1563C43.3668 90.3091 44.1144 89.2126 44.563 88.1162C45.0115 86.9699 45.1611 85.7737 44.9617 84.6773C44.9617 84.6773 44.9118 84.4779 44.862 84.129C44.8121 83.7802 44.6627 83.3316 44.5131 82.7834C44.1643 81.6869 43.5662 80.3413 42.7688 79.195C41.9713 78.0487 40.9746 77.2014 40.227 76.6532C39.8283 76.404 39.5292 76.2046 39.28 76.0551C39.0308 75.9056 38.9312 75.8558 38.9312 75.8558C37.7351 77.0021 37.0373 77.8493 36.8379 78.6966C36.4392 79.4442 36.6884 80.5406 37.1868 82.1355Z" fill="#DE8342" stroke="#A45A25"/>
<path d="M44.7142 84.0295C44.764 84.3784 44.8138 84.5777 44.8138 84.5777C45.8106 84.1292 46.7078 83.2819 47.4055 82.2353C48.1033 81.1887 48.5019 79.8929 48.6016 78.5971C48.7013 77.3012 48.5019 75.9556 48.0035 74.8591C45.9306 70.0914 42.9894 68.4266 36.7663 69.6467C35.5058 71.9646 35.4441 72.8656 35.8927 73.663C38.5979 77.8712 43.6459 77.6198 44.7142 84.0295Z" fill="#DE8342" stroke="#A45A25"/>
<path d="M36.2168 147.502L35.4254 145L27.187 148.467C22.6839 150.365 23.1389 154.126 24.235 158C28.6273 156.145 38.2705 154.041 36.2168 147.502Z" fill="#DE8342" stroke="#A45A25"/>
<path d="M36.2168 155.502L35.4254 153L27.187 156.467C22.6839 158.365 23.1389 162.126 24.235 166C28.6273 164.145 38.2705 162.041 36.2168 155.502Z" fill="#DE8342" stroke="#A45A25"/>
<path d="M36.2168 163.502L35.4254 161L27.187 164.467C22.6839 166.365 23.1389 170.126 24.235 174C28.6273 172.145 38.2705 170.041 36.2168 163.502Z" fill="#DE8342" stroke="#A45A25"/>
<path d="M36.2168 171.502L35.4254 169L27.187 172.467C22.6839 174.365 23.1389 178.126 24.235 182C28.6273 180.145 38.2705 178.041 36.2168 171.502Z" fill="#DE8342" stroke="#A45A25"/>
<path d="M36.2168 179.502L35.4254 177L27.187 180.467C22.6839 182.365 23.1389 186.126 24.235 190C28.6273 188.145 38.2705 186.041 36.2168 179.502Z" fill="#DE8342" stroke="#A45A25"/>
<path d="M36.2168 187.502L35.4254 185L27.187 188.467C22.6839 190.365 23.1389 194.126 24.235 198C28.6273 196.145 38.2705 194.041 36.2168 187.502Z" fill="#DE8342" stroke="#A45A25"/>
<path d="M36.2168 195.502L35.4254 193L27.187 196.467C22.6839 198.365 23.1389 202.126 24.235 206C28.6273 204.145 38.2705 202.041 36.2168 195.502Z" fill="#DE8342" stroke="#A45A25"/>
<path d="M36.2168 203.502L35.4254 201L27.187 204.467C22.6839 206.365 23.1389 210.126 24.235 214C28.6273 212.145 38.2705 210.041 36.2168 203.502Z" fill="#DE8342" stroke="#A45A25"/>
<path d="M36.2168 211.502L35.4254 209L27.187 212.467C22.6839 214.365 23.1389 218.126 24.235 222C28.6273 220.145 38.2705 218.041 36.2168 211.502Z" fill="#DE8342" stroke="#A45A25"/>
<path d="M36.2168 219.502L35.4254 217L27.187 220.467C22.6839 222.365 23.1389 226.126 24.235 230C28.6273 228.145 38.2705 226.041 36.2168 219.502Z" fill="#DE8342" stroke="#A45A25"/>
<path d="M36.2168 227.502L35.4254 225L27.187 228.467C22.6839 230.365 23.1389 234.126 24.235 238C28.6273 236.145 38.2705 234.041 36.2168 227.502Z" fill="#DE8342" stroke="#A45A25"/>
<path d="M36.0456 269.452C35.597 268.306 34.6002 267.159 33.3044 266.462C32.0086 265.714 30.5135 265.365 29.0681 265.365C22.5428 265.478 20.1119 272.935 21.8913 278.274C22.0408 278.722 22.1904 279.071 22.29 279.32C22.3897 279.569 22.4395 279.719 22.4395 279.719C24.0842 279.47 25.2305 279.171 25.9282 278.573C30.0917 275.45 29.427 269.452 36.0456 269.452Z" fill="#DE8342" stroke="#A45A25"/>
<path d="M41.6214 274.205C41.5446 272.976 40.9458 271.58 39.9252 270.52C38.9198 269.412 37.6028 268.623 36.2266 268.182C30.2519 266.377 24.3367 272.397 26.484 278.147C35.9625 281.68 35.5165 272.246 41.6214 274.205Z" fill="#DE8342" stroke="#A45A25"/>
<path d="M22.2864 270.15C22.3861 269.951 22.4858 269.751 22.5356 269.552C22.6851 269.253 22.7848 269.053 22.7848 269.053C21.6883 268.854 20.4424 269.004 19.2961 269.502C18.1498 269.951 17.0533 270.748 16.2559 271.695C12.6562 276.195 15.0844 282.254 19.3459 285.45C19.5452 285.6 19.7945 285.75 19.9938 285.899C20.3925 286.148 20.6915 286.348 20.9407 286.447C21.1899 286.547 21.3394 286.597 21.3394 286.597C22.4857 285.401 23.1336 284.504 23.333 283.457C24.0136 278.919 21.0068 275.268 22.2864 270.15Z" fill="#DE8342" stroke="#A45A25"/>
<path d="M35.4948 278.124C35.4948 278.124 35.6443 278.074 35.8935 277.975C36.1427 277.875 36.4916 277.775 36.9402 277.725C37.8373 277.526 39.1331 277.526 40.4787 277.775C41.8244 278.025 43.2199 278.573 44.2167 279.071C44.7151 279.32 45.1138 279.57 45.4128 279.769C45.7118 279.968 45.8613 280.068 45.8613 280.068C46.26 279.021 46.3099 277.825 46.0607 276.629C45.8115 275.433 45.2134 274.187 44.3661 273.19C43.5189 272.144 42.4225 271.346 41.2263 270.848C40.0302 270.349 38.7344 270.2 37.5881 270.399C37.5881 270.399 37.3887 270.449 37.0398 270.499C36.691 270.599 36.1926 270.698 35.6443 270.947C35.0961 271.147 34.4482 271.446 33.8501 271.844C33.2521 272.243 32.7039 272.692 32.2055 273.19C31.2585 274.187 30.8099 275.383 30.6604 276.23C30.6106 276.679 30.6106 276.978 30.6604 277.227C30.7103 277.476 30.7103 277.576 30.7103 277.576C31.9064 278.423 32.355 279.071 32.7039 279.071C32.8534 279.071 33.2022 278.971 33.6009 278.772C34.2987 278.623 34.8968 278.373 35.4948 278.124Z" fill="#DE8342" stroke="#A45A25"/>
<path d="M36.2129 259.502L35.4215 257L27.1831 260.467C22.68 262.365 23.135 266.126 24.2311 270C28.6234 268.145 38.2666 266.041 36.2129 259.502Z" fill="#DE8342" stroke="#A45A25"/>
<path d="M36.2129 267.502L35.4215 265L27.1831 268.467C22.68 270.365 23.135 274.126 24.2311 278C28.6234 276.145 38.2666 274.041 36.2129 267.502Z" fill="#DE8342" stroke="#A45A25"/>
<path d="M36.2129 275.502L35.4215 273L27.1831 276.467C22.68 278.365 23.135 282.126 24.2311 286C28.6234 284.145 38.2666 282.041 36.2129 275.502Z" fill="#DE8342" stroke="#A45A25"/>
<path d="M36.2129 283.502L35.4215 281L27.1831 284.467C22.68 286.365 23.135 290.126 24.2311 294C28.6234 292.145 38.2666 290.041 36.2129 283.502Z" fill="#DE8342" stroke="#A45A25"/>
<path d="M36.2129 291.502L35.4215 289L27.1831 292.467C22.68 294.365 23.135 298.126 24.2311 302C28.6234 300.145 38.2666 298.041 36.2129 291.502Z" fill="#DE8342" stroke="#A45A25"/>
<path d="M36.2129 299.502L35.4215 297L27.1831 300.467C22.68 302.365 23.135 306.126 24.2311 310C28.6234 308.145 38.2666 306.041 36.2129 299.502Z" fill="#DE8342" stroke="#A45A25"/>
<path d="M14.7621 278.872C14.6624 278.523 14.6126 278.374 14.6126 278.374C12.7187 279.47 11.4229 281.812 11.373 284.354C11.373 290.511 17.9912 293.9 23.5836 292.428C24.0321 292.329 24.381 292.229 24.6302 292.129C24.8794 292.029 25.0289 291.98 25.0289 291.98C24.6912 286.238 16.5082 284.983 14.7621 278.872Z" fill="#DE8342" stroke="#A45A25"/>
<path d="M25.0309 291.93C25.0309 291.93 24.8814 291.98 24.6322 292.079C24.383 292.179 24.0341 292.279 23.5856 292.378C22.6885 292.578 21.3927 292.727 19.9972 292.628C19.2995 292.578 18.6515 292.428 17.9538 292.229C17.3059 292.03 16.7078 291.78 16.1596 291.581C15.6612 291.332 15.2126 291.083 14.9136 290.933C14.6146 290.734 14.4152 290.634 14.4152 290.634C14.2657 291.182 14.2159 291.731 14.166 292.329C14.166 292.927 14.2657 293.525 14.465 294.173C14.6146 294.771 14.9136 295.369 15.2126 295.917C15.5117 296.465 15.9602 296.964 16.4088 297.462C16.8573 297.911 17.3557 298.309 17.9039 298.658C18.4522 299.007 19.0004 299.256 19.5985 299.456C20.1965 299.655 20.7448 299.755 21.3428 299.804C21.9409 299.854 22.4892 299.755 22.9876 299.655C22.9876 299.655 23.1869 299.605 23.4859 299.505C23.8348 299.406 24.2833 299.256 24.8316 299.107C25.8782 298.708 27.2238 298.06 28.3203 297.263C28.8685 296.864 29.3669 296.415 29.8155 296.017C30.264 295.568 30.6129 295.169 30.8621 294.771C31.4103 293.973 31.6595 293.475 31.6595 293.475C30.563 292.229 29.7158 291.531 28.719 291.332C27.7223 291.132 26.5759 291.332 25.0309 291.93Z" fill="#DE8342" stroke="#A45A25"/>
<path d="M31.6583 293.525C31.6583 293.525 31.4091 294.023 30.8609 294.821C30.5618 295.169 30.213 295.618 29.8142 296.066C29.3657 296.465 28.8673 296.914 28.3191 297.312C27.2226 298.11 25.877 298.758 24.8303 299.157C24.2821 299.356 23.8336 299.505 23.4847 299.555C23.1358 299.655 22.9863 299.655 22.9863 299.655C23.2355 300.153 23.5843 300.602 23.9332 301.001C24.3319 301.449 24.7805 301.798 25.2789 302.097C25.7773 302.446 26.3255 302.695 26.9236 302.894C27.5216 303.094 28.1197 303.193 28.7676 303.293C30.0136 303.393 31.3593 303.193 32.5056 302.745C33.6519 302.247 34.6486 301.549 35.2965 300.602C35.2965 300.602 35.3962 300.452 35.5956 300.153C35.7949 299.904 36.0441 299.406 36.2933 298.907C36.8415 297.911 37.3399 296.465 37.5393 295.12C37.7386 293.774 37.6888 292.478 37.4895 291.531C37.3898 291.083 37.2901 290.684 37.2403 290.435C37.1406 290.185 37.0907 290.036 37.0907 290.036C35.446 290.036 34.2998 290.136 33.5522 290.634C33.3528 290.734 33.2033 290.883 33.004 291.083C32.8544 291.232 32.7049 291.431 32.5554 291.681C32.4059 291.88 32.2563 292.179 32.1068 292.478C32.0071 292.827 31.8576 293.126 31.6583 293.525Z" fill="#DE8342" stroke="#A45A25"/>
<path d="M37.1868 290.135C37.1868 290.135 37.2366 290.285 37.3363 290.534C37.3861 290.783 37.4858 291.132 37.5855 291.631C37.735 292.528 37.8347 293.824 37.6353 295.219C37.436 296.565 36.9376 298.01 36.3894 299.007C36.1402 299.505 35.8412 299.954 35.6917 300.253C35.4923 300.552 35.3926 300.701 35.3926 300.701C35.6418 300.801 35.9408 300.901 36.2399 300.951C36.5389 301 36.8379 301 37.1369 301.05C37.436 301.05 37.735 301.05 38.0839 301.05C38.3829 301 38.682 300.951 38.981 300.901C40.1772 300.602 41.3733 300.004 42.37 299.156C43.3668 298.309 44.1144 297.213 44.563 296.116C45.0115 294.97 45.1611 293.774 44.9617 292.677C44.9617 292.677 44.9118 292.478 44.862 292.129C44.8121 291.78 44.6627 291.332 44.5131 290.783C44.1643 289.687 43.5662 288.341 42.7688 287.195C41.9713 286.049 40.9746 285.201 40.227 284.653C39.8283 284.404 39.5292 284.205 39.28 284.055C39.0308 283.906 38.9312 283.856 38.9312 283.856C37.7351 285.002 37.0373 285.849 36.8379 286.697C36.4392 287.444 36.6884 288.541 37.1868 290.135Z" fill="#DE8342" stroke="#A45A25"/>
<path d="M44.7142 292.029C44.764 292.378 44.8138 292.578 44.8138 292.578C45.8106 292.129 46.7078 291.282 47.4055 290.235C48.1033 289.189 48.5019 287.893 48.6016 286.597C48.7013 285.301 48.5019 283.956 48.0035 282.859C45.9306 278.091 42.9894 276.427 36.7663 277.647C35.5058 279.965 35.4441 280.866 35.8927 281.663C38.5979 285.871 43.6459 285.62 44.7142 292.029Z" fill="#DE8342" stroke="#A45A25"/>
<path d="M36.0456 245.452C35.597 244.306 34.6002 243.159 33.3044 242.462C32.0086 241.714 30.5135 241.365 29.0681 241.365C22.5428 241.478 20.1119 248.935 21.8913 254.274C22.0408 254.722 22.1904 255.071 22.29 255.32C22.3897 255.569 22.4395 255.719 22.4395 255.719C24.0842 255.47 25.2305 255.171 25.9282 254.573C30.0917 251.45 29.427 245.452 36.0456 245.452Z" fill="#DE8342" stroke="#A45A25"/>
<path d="M41.6214 250.205C41.5446 248.976 40.9458 247.58 39.9252 246.52C38.9198 245.412 37.6028 244.623 36.2266 244.182C30.2519 242.377 24.3367 248.397 26.484 254.147C35.9625 257.68 35.5165 248.246 41.6214 250.205Z" fill="#DE8342" stroke="#A45A25"/>
<path d="M22.2864 246.15C22.3861 245.951 22.4858 245.751 22.5356 245.552C22.6851 245.253 22.7848 245.053 22.7848 245.053C21.6883 244.854 20.4424 245.004 19.2961 245.502C18.1498 245.951 17.0533 246.748 16.2559 247.695C12.6562 252.195 15.0844 258.254 19.3459 261.45C19.5452 261.6 19.7945 261.75 19.9938 261.899C20.3925 262.148 20.6915 262.348 20.9407 262.447C21.1899 262.547 21.3394 262.597 21.3394 262.597C22.4857 261.401 23.1336 260.504 23.333 259.457C24.0136 254.919 21.0068 251.268 22.2864 246.15Z" fill="#DE8342" stroke="#A45A25"/>
<path d="M35.4948 254.124C35.4948 254.124 35.6443 254.074 35.8935 253.975C36.1427 253.875 36.4916 253.775 36.9402 253.725C37.8373 253.526 39.1331 253.526 40.4787 253.775C41.8244 254.025 43.2199 254.573 44.2167 255.071C44.7151 255.32 45.1138 255.57 45.4128 255.769C45.7118 255.968 45.8613 256.068 45.8613 256.068C46.26 255.021 46.3099 253.825 46.0607 252.629C45.8115 251.433 45.2134 250.187 44.3661 249.19C43.5189 248.144 42.4225 247.346 41.2263 246.848C40.0302 246.349 38.7344 246.2 37.5881 246.399C37.5881 246.399 37.3887 246.449 37.0398 246.499C36.691 246.599 36.1926 246.698 35.6443 246.947C35.0961 247.147 34.4482 247.446 33.8501 247.844C33.2521 248.243 32.7039 248.692 32.2055 249.19C31.2585 250.187 30.8099 251.383 30.6604 252.23C30.6106 252.679 30.6106 252.978 30.6604 253.227C30.7103 253.476 30.7103 253.576 30.7103 253.576C31.9064 254.423 32.355 255.071 32.7039 255.071C32.8534 255.071 33.2022 254.971 33.6009 254.772C34.2987 254.623 34.8968 254.373 35.4948 254.124Z" fill="#DE8342" stroke="#A45A25"/>
<path d="M36.2129 235.502L35.4215 233L27.1831 236.467C22.68 238.365 23.135 242.126 24.2311 246C28.6234 244.145 38.2666 242.041 36.2129 235.502Z" fill="#DE8342" stroke="#A45A25"/>
<path d="M36.2129 243.502L35.4215 241L27.1831 244.467C22.68 246.365 23.135 250.126 24.2311 254C28.6234 252.145 38.2666 250.041 36.2129 243.502Z" fill="#DE8342" stroke="#A45A25"/>
<path d="M36.2129 251.502L35.4215 249L27.1831 252.467C22.68 254.365 23.135 258.126 24.2311 262C28.6234 260.145 38.2666 258.041 36.2129 251.502Z" fill="#DE8342" stroke="#A45A25"/>
<path d="M36.2129 259.502L35.4215 257L27.1831 260.467C22.68 262.365 23.135 266.126 24.2311 270C28.6234 268.145 38.2666 266.041 36.2129 259.502Z" fill="#DE8342" stroke="#A45A25"/>
<path d="M36.2129 267.502L35.4215 265L27.1831 268.467C22.68 270.365 23.135 274.126 24.2311 278C28.6234 276.145 38.2666 274.041 36.2129 267.502Z" fill="#DE8342" stroke="#A45A25"/>
<path d="M36.2129 275.502L35.4215 273L27.1831 276.467C22.68 278.365 23.135 282.126 24.2311 286C28.6234 284.145 38.2666 282.041 36.2129 275.502Z" fill="#DE8342" stroke="#A45A25"/>
<path d="M14.7621 254.872C14.6624 254.523 14.6126 254.374 14.6126 254.374C12.7187 255.47 11.4229 257.812 11.373 260.354C11.373 266.511 17.9912 269.9 23.5836 268.428C24.0321 268.329 24.381 268.229 24.6302 268.129C24.8794 268.029 25.0289 267.98 25.0289 267.98C24.6912 262.238 16.5082 260.983 14.7621 254.872Z" fill="#DE8342" stroke="#A45A25"/>
<path d="M25.0309 267.93C25.0309 267.93 24.8814 267.98 24.6322 268.079C24.383 268.179 24.0341 268.279 23.5856 268.378C22.6885 268.578 21.3927 268.727 19.9972 268.628C19.2995 268.578 18.6515 268.428 17.9538 268.229C17.3059 268.03 16.7078 267.78 16.1596 267.581C15.6612 267.332 15.2126 267.083 14.9136 266.933C14.6146 266.734 14.4152 266.634 14.4152 266.634C14.2657 267.182 14.2159 267.731 14.166 268.329C14.166 268.927 14.2657 269.525 14.465 270.173C14.6146 270.771 14.9136 271.369 15.2126 271.917C15.5117 272.465 15.9602 272.964 16.4088 273.462C16.8573 273.911 17.3557 274.309 17.9039 274.658C18.4522 275.007 19.0004 275.256 19.5985 275.456C20.1965 275.655 20.7448 275.755 21.3428 275.804C21.9409 275.854 22.4892 275.755 22.9876 275.655C22.9876 275.655 23.1869 275.605 23.4859 275.505C23.8348 275.406 24.2833 275.256 24.8316 275.107C25.8782 274.708 27.2238 274.06 28.3203 273.263C28.8685 272.864 29.3669 272.415 29.8155 272.017C30.264 271.568 30.6129 271.169 30.8621 270.771C31.4103 269.973 31.6595 269.475 31.6595 269.475C30.563 268.229 29.7158 267.531 28.719 267.332C27.7223 267.132 26.5759 267.332 25.0309 267.93Z" fill="#DE8342" stroke="#A45A25"/>
<path d="M31.6583 269.525C31.6583 269.525 31.4091 270.023 30.8609 270.821C30.5618 271.169 30.213 271.618 29.8142 272.066C29.3657 272.465 28.8673 272.914 28.3191 273.312C27.2226 274.11 25.877 274.758 24.8303 275.157C24.2821 275.356 23.8336 275.505 23.4847 275.555C23.1358 275.655 22.9863 275.655 22.9863 275.655C23.2355 276.153 23.5843 276.602 23.9332 277.001C24.3319 277.449 24.7805 277.798 25.2789 278.097C25.7773 278.446 26.3255 278.695 26.9236 278.894C27.5216 279.094 28.1197 279.193 28.7676 279.293C30.0136 279.393 31.3593 279.193 32.5056 278.745C33.6519 278.247 34.6486 277.549 35.2965 276.602C35.2965 276.602 35.3962 276.452 35.5956 276.153C35.7949 275.904 36.0441 275.406 36.2933 274.907C36.8415 273.911 37.3399 272.465 37.5393 271.12C37.7386 269.774 37.6888 268.478 37.4895 267.531C37.3898 267.083 37.2901 266.684 37.2403 266.435C37.1406 266.185 37.0907 266.036 37.0907 266.036C35.446 266.036 34.2998 266.136 33.5522 266.634C33.3528 266.734 33.2033 266.883 33.004 267.083C32.8544 267.232 32.7049 267.431 32.5554 267.681C32.4059 267.88 32.2563 268.179 32.1068 268.478C32.0071 268.827 31.8576 269.126 31.6583 269.525Z" fill="#DE8342" stroke="#A45A25"/>
<path d="M37.1868 266.135C37.1868 266.135 37.2366 266.285 37.3363 266.534C37.3861 266.783 37.4858 267.132 37.5855 267.631C37.735 268.528 37.8347 269.824 37.6353 271.219C37.436 272.565 36.9376 274.01 36.3894 275.007C36.1402 275.505 35.8412 275.954 35.6917 276.253C35.4923 276.552 35.3926 276.701 35.3926 276.701C35.6418 276.801 35.9408 276.901 36.2399 276.951C36.5389 277 36.8379 277 37.1369 277.05C37.436 277.05 37.735 277.05 38.0839 277.05C38.3829 277 38.682 276.951 38.981 276.901C40.1772 276.602 41.3733 276.004 42.37 275.156C43.3668 274.309 44.1144 273.213 44.563 272.116C45.0115 270.97 45.1611 269.774 44.9617 268.677C44.9617 268.677 44.9118 268.478 44.862 268.129C44.8121 267.78 44.6627 267.332 44.5131 266.783C44.1643 265.687 43.5662 264.341 42.7688 263.195C41.9713 262.049 40.9746 261.201 40.227 260.653C39.8283 260.404 39.5292 260.205 39.28 260.055C39.0308 259.906 38.9312 259.856 38.9312 259.856C37.7351 261.002 37.0373 261.849 36.8379 262.697C36.4392 263.444 36.6884 264.541 37.1868 266.135Z" fill="#DE8342" stroke="#A45A25"/>
<path d="M44.7142 268.029C44.764 268.378 44.8138 268.578 44.8138 268.578C45.8106 268.129 46.7078 267.282 47.4055 266.235C48.1033 265.189 48.5019 263.893 48.6016 262.597C48.7013 261.301 48.5019 259.956 48.0035 258.859C45.9306 254.091 42.9894 252.427 36.7663 253.647C35.5058 255.965 35.4441 256.866 35.8927 257.663C38.5979 261.871 43.6459 261.62 44.7142 268.029Z" fill="#DE8342" stroke="#A45A25"/>
<path d="M36.2168 307.502L35.4254 305L27.187 308.467C22.6839 310.365 23.1389 314.126 24.235 318C28.6273 316.145 38.2705 314.041 36.2168 307.502Z" fill="#DE8342" stroke="#A45A25"/>
<path d="M36.2168 315.502L35.4254 313L27.187 316.467C22.6839 318.365 23.1389 322.126 24.235 326C28.6273 324.145 38.2705 322.041 36.2168 315.502Z" fill="#DE8342" stroke="#A45A25"/>
<path d="M36.2168 323.502L35.4254 321L27.187 324.467C22.6839 326.365 23.1389 330.126 24.235 334C28.6273 332.145 38.2705 330.041 36.2168 323.502Z" fill="#DE8342" stroke="#A45A25"/>
<path d="M23.0071 356.328C22.6967 361.337 22.076 366.336 21.1054 371.28C21.1054 371.317 21.0941 371.335 21.0941 371.353C20.5607 373.959 22.3912 373.752 24.1696 373.752C25.2362 369.387 26.1278 363.322 26.2181 357.992C26.2181 357.992 26.7824 363.009 25.3377 371.942C25.4167 372.511 25.5296 373.191 25.7384 373.752H27.5668C28.2665 367.282 28.7462 359.609 28.8139 352.312C28.8478 353.434 29.0961 361.41 28.0859 373.752H31.1107L31.4888 372.383L31.7766 371.381C31.7709 371.372 31.7709 371.353 31.7709 371.335C31.5395 368.054 31.3985 365.178 31.3025 362.706C31.0373 355.841 31.2292 352.184 31.2292 352.184C31.28 359.379 31.7483 366.942 32.4481 374L35.0044 373.752C33.2438 363.882 33.7799 358.341 33.8194 358.001C33.9435 365.187 35.3035 371.409 35.9356 373.963L37.8824 373.752C38.6443 373.743 39.1804 372.539 38.9434 371.326C37.9671 366.373 37.3407 361.346 37.036 356.328C36.2299 344.515 23.9939 340.729 23.0071 356.328Z" fill="#DE8342" stroke="#A45A25"/>
<path d="M36.2168 331.502L35.4254 329L27.187 332.467C22.6839 334.365 23.1389 338.126 24.235 342C28.6273 340.145 38.2705 338.041 36.2168 331.502Z" fill="#DE8342" stroke="#A45A25"/>
<path d="M32.7314 340.032C33.8986 340.419 35.0383 340.918 35.9533 341.397C36.8684 341.877 37.4181 342.286 37.4181 342.286C37.6668 341.583 37.6479 340.722 37.4189 339.939C35.6612 332.433 26.231 333.714 24.0038 338.041C23.7123 338.608 23.5742 339.016 23.5742 339.016C24.8563 339.87 26.9508 341.661 27.6532 341.759C28.0185 341.829 28.2706 341.736 28.5648 341.628C29.9633 340.603 30.6271 339.335 32.7314 340.032Z" fill="#DE8342" stroke="#A45A25"/>
<path d="M38.2047 348.398C41.0786 346.057 41.0304 342.474 38.2045 338.935C35.3785 335.395 29.4571 337.569 27.5224 343.741C28.879 347.21 36.9374 345.423 38.2047 348.398Z" fill="#DE8342" stroke="#A45A25"/>
<path d="M26.5588 337.076C26.6126 336.58 26.6664 336.134 26.7202 335.837C26.8277 335.539 26.8277 335.341 26.8277 335.341C25.6984 335.44 24.6228 335.985 23.7086 336.68C19.1602 340.38 21.5462 345.56 25.6984 348.381C26.7202 349.075 27.7957 349.471 28.6024 349.67C28.9788 349.769 29.3553 349.819 29.5704 349.868C29.7855 349.918 29.9468 349.918 29.9468 349.918C32.7474 345.151 26.2881 342.068 26.5588 337.076Z" fill="#DE8342" stroke="#A45A25"/>
<path d="M29.0632 345.826C29.0632 345.826 28.9018 345.826 28.6867 345.771C28.4716 345.717 28.1489 345.662 27.7187 345.552C26.912 345.333 25.8365 344.841 24.8147 344.129C23.7929 343.418 22.8787 342.432 22.2334 341.611C21.588 340.79 21.2116 340.188 21.2116 340.188C20.5125 340.9 20.0285 341.83 19.8134 342.87C19.5445 343.91 19.5445 345.114 19.8671 346.319C20.136 347.468 20.7276 348.618 21.5343 349.494C22.3409 350.369 23.3089 350.971 24.2769 351.245C24.2769 351.245 24.4383 351.3 24.7609 351.355C25.0836 351.409 25.5138 351.519 26.0516 351.574C27.1271 351.683 28.4716 351.628 29.7085 351.3C30.9453 350.971 31.8596 350.315 32.4511 349.712C32.72 349.439 32.9351 349.165 33.0427 349.001C33.1502 348.837 33.2578 348.727 33.2578 348.727C32.6125 347.413 32.5587 346.757 32.0209 346.373C31.4294 346.1 30.5152 345.99 29.0632 345.826Z" fill="#DE8342" stroke="#A45A25"/>
<path d="M29.6184 346.9C29.6184 346.9 29.5356 346.989 29.3344 347.098C29.1846 347.223 28.885 347.474 28.5652 347.604C27.8787 348.021 26.7649 348.363 25.4876 348.311C24.2462 348.328 22.9083 347.914 21.9104 347.491C21.4115 347.28 21.0311 347.048 20.738 346.9C20.4449 346.752 20.3062 346.652 20.3062 346.652C20.0607 347.663 20.1083 348.822 20.5473 349.988C20.9349 351.137 21.714 352.293 22.8083 353.147C23.3476 353.599 23.9182 353.947 24.5715 354.207C24.8646 354.354 25.1733 354.45 25.4821 354.545C25.7908 354.641 26.1152 354.684 26.4395 354.727C27.0883 354.813 27.6654 354.763 28.2424 354.712C28.7837 354.594 29.3406 354.422 29.8102 354.167C29.8102 354.167 29.96 354.042 30.2798 353.912C30.5481 353.766 30.9148 353.479 31.3486 353.155C32.1647 352.492 33.0746 351.515 33.7428 350.406C34.411 349.297 34.8421 348.229 35.0922 347.391C35.2173 346.972 35.2752 346.589 35.3377 346.38C35.3488 346.154 35.3957 345.997 35.3957 345.997C34.0174 345.342 32.9212 345.061 32.0914 345.204C31.2101 345.332 30.6468 345.902 29.6184 346.9Z" fill="#DE8342" stroke="#A45A25"/>
<path d="M30.472 345.271C30.4718 346.885 30.6217 348.446 30.1883 350.063C29.8656 351.322 29.2741 352.526 28.6825 353.402C28.3598 353.84 28.0909 354.223 27.8758 354.442C27.6607 354.661 27.4994 354.825 27.4994 354.825C28.4674 355.318 29.5967 355.427 30.726 355.318C31.8554 355.154 32.9847 354.771 33.899 354.114C38.5382 350.876 36.8316 345.877 34.4647 343.403C32.5632 342.314 30.9847 343.162 30.472 345.271Z" fill="#DE8342" stroke="#A45A25"/>
<path d="M35.4512 353.355C39.9189 352.092 40.5418 345.458 36.8751 343.166C33.2085 340.875 30.4585 343.625 30.4598 344.676C35.0443 345.546 36.8745 347.75 35.4512 353.355Z" fill="#DE8342" stroke="#A45A25"/>
</svg>
