<svg width="60" height="51" viewBox="0 0 60 51" fill="none" xmlns="http://www.w3.org/2000/svg">
<path d="M28.5888 42.8393C29.9353 43.4261 31.3355 43.3196 32.6892 42.8184C37.5704 41.0109 37.6385 34.7495 34.0919 31.7422C32.9332 30.6692 31.239 30.5452 30.7018 32.0535C29.3805 35.764 31.0078 39.3666 28.5888 42.8393Z" fill="#CEC927" stroke="#ACA824"/>
<path d="M35.713 41.5022C37.1803 41.5686 38.4498 40.9684 39.5346 40.0161C43.4464 36.5824 41.2705 30.7109 36.8829 29.171C35.417 28.5834 33.7905 29.0736 33.8284 30.6742C33.9216 34.6119 36.7299 37.3941 35.713 41.5022Z" fill="#CEC927" stroke="#ACA824"/>
<path d="M41.8791 37.7066C43.2731 37.2437 44.244 36.2291 44.9164 34.9519C47.3413 30.3461 43.2092 25.6413 38.5611 25.7726C36.982 25.7482 35.6385 26.7877 36.2464 28.2689C37.7418 31.9127 41.3594 33.5065 41.8791 37.7066Z" fill="#CEC927" stroke="#ACA824"/>
<path d="M46.2862 31.9554C47.4224 31.0245 47.9661 29.7298 48.1373 28.2966C48.7544 23.1282 43.2128 20.2125 38.9191 21.9977C37.4358 22.5397 36.553 23.991 37.6504 25.1568C40.3502 28.0246 44.2986 28.219 46.2862 31.9554Z" fill="#CEC927" stroke="#ACA824"/>
<path d="M48.3423 25.0086C49.0705 23.733 49.1151 22.3294 48.7623 20.9298C47.49 15.8826 41.2722 15.1419 37.901 18.3447C36.7097 19.3814 36.4043 21.0524 37.8462 21.7486C41.3931 23.4611 45.1498 22.2304 48.3423 25.0086Z" fill="#CEC927" stroke="#ACA824"/>
<path d="M47.7814 17.7857C48.0051 16.334 47.5448 15.0074 46.7147 13.8265C43.7213 9.56829 37.6499 11.1006 35.6473 15.2972C34.9056 16.6914 35.2181 18.3612 36.8136 18.4955C40.7384 18.8261 43.8064 16.3332 47.7814 17.7857Z" fill="#CEC927" stroke="#ACA824"/>
<path d="M44.6646 11.2429C44.3542 9.80725 43.4499 8.733 42.2523 7.92716C37.9339 5.0213 32.8122 8.62378 32.4431 13.2591C32.2491 14.8264 33.1382 16.2739 34.6762 15.8287C38.4596 14.7336 40.433 11.3082 44.6646 11.2429Z" fill="#CEC927" stroke="#ACA824"/>
<path d="M14.3338 36.885C14.8557 38.2579 15.9108 39.1846 17.2156 39.8019C21.9207 42.0279 26.4448 37.6987 26.1152 33.0604C26.0722 31.4818 24.9762 30.1838 23.5223 30.8544C19.9457 32.504 18.5079 36.1864 14.3338 36.885Z" fill="#CEC927" stroke="#ACA824"/>
<path d="M20.2736 41.0414C21.2521 42.1369 22.5688 42.6248 24.0081 42.7346C29.1981 43.1305 31.8745 37.4696 29.9077 33.256C29.3028 31.7972 27.8152 30.9771 26.6973 32.1233C23.9473 34.9431 23.9216 38.8961 20.2736 41.0414Z" fill="#CEC927" stroke="#ACA824"/>
<path d="M35.7386 26.3099L35.0081 24L27.4034 27.2002C23.2467 28.9523 23.6667 32.4243 24.6785 36C28.7329 34.2872 37.6343 32.3457 35.7386 26.3099Z" fill="#CEC927" stroke="#ACA824"/>
<path d="M35.7386 33.3099L35.0081 31L27.4034 34.2002C23.2467 35.9523 23.6667 39.4243 24.6785 43C28.7329 41.2872 37.6343 39.3457 35.7386 33.3099Z" fill="#CEC927" stroke="#ACA824"/>
<path d="M35.7386 40.3099L35.0081 38L27.4034 41.2002C23.2467 42.9523 23.6667 46.4243 24.6785 50C28.7329 48.2872 37.6343 46.3457 35.7386 40.3099Z" fill="#CEC927" stroke="#ACA824"/>
<path d="M56.4976 15.7832L59 16.5746L55.5331 24.813C53.635 29.3161 49.8737 28.8611 46 27.765C47.8555 23.3727 49.9589 13.7295 56.4976 15.7832Z" fill="#EDEDED" stroke="#D2D2D2"/>
<path d="M48.4976 15.7832L51 16.5746L47.5331 24.813C45.635 29.3161 41.8737 28.8611 38 27.765C39.8555 23.3727 41.9589 13.7295 48.4976 15.7832Z" fill="#EDEDED" stroke="#D2D2D2"/>
<path d="M40.4976 15.7832L43 16.5746L39.5331 24.813C37.635 29.3161 33.8737 28.8611 30 27.765C31.8555 23.3727 33.9589 13.7295 40.4976 15.7832Z" fill="#EDEDED" stroke="#D2D2D2"/>
<path d="M32.4976 15.7832L35 16.5746L31.5331 24.813C29.635 29.3161 25.8737 28.8611 22 27.765C23.8555 23.3727 25.9589 13.7295 32.4976 15.7832Z" fill="#EDEDED" stroke="#D2D2D2"/>
<path d="M24.4976 15.7832L27 16.5746L23.5331 24.813C21.635 29.3161 17.8737 28.8611 14 27.765C15.8555 23.3727 17.9589 13.7295 24.4976 15.7832Z" fill="#EDEDED" stroke="#D2D2D2"/>
<path d="M39.4152 6.24564C38.6119 5.01594 37.3832 4.33622 35.9766 4.01203C30.9045 2.843 27.4101 8.03906 28.7234 12.4997C29.1028 14.0327 30.4508 15.0664 31.7278 14.1006C34.8693 11.7247 35.4869 7.82014 39.4152 6.24564Z" fill="#CEC927" stroke="#ACA824"/>
<path d="M32.7335 3.45542C31.5434 2.5944 30.1529 2.39914 28.7234 2.59949C23.5687 3.32195 22.164 9.42413 24.9858 13.12C25.8885 14.4158 27.5171 14.899 28.3641 13.5404C30.4479 10.198 29.6282 6.33083 32.7335 3.45542Z" fill="#CEC927" stroke="#ACA824"/>
<path d="M25.4931 3.23969C24.0739 2.86126 22.7055 3.1763 21.4422 3.87469C16.8869 6.39306 17.7577 12.594 21.7148 15.036C23.0213 15.9233 24.7149 15.792 25.02 14.2203C25.7705 10.3537 23.6217 7.03557 25.4931 3.23969Z" fill="#CEC927" stroke="#ACA824"/>
<path d="M18.6551 5.62856C17.1943 5.78281 16.0291 6.56646 15.0992 7.67048C11.746 11.6516 14.7771 17.1308 19.3459 17.9959C20.8833 18.3573 22.418 17.6289 22.1407 16.052C21.4586 12.1728 18.2651 9.84269 18.6551 5.62856Z" fill="#CEC927" stroke="#ACA824"/>
<path d="M13.1233 10.3042C11.8144 10.9707 11.0065 12.1193 10.533 13.4829C8.82561 18.4 13.616 22.4326 18.192 21.6064C19.7569 21.3939 20.9295 20.1648 20.1065 18.7914C18.082 15.4128 14.2665 14.379 13.1233 10.3042Z" fill="#CEC927" stroke="#ACA824"/>
<path d="M9.62926 16.6495C8.64532 17.7401 8.30173 19.1017 8.34728 20.5444C8.51151 25.7469 14.4274 27.7993 18.4051 25.3911C19.7905 24.6329 20.4459 23.0657 19.1862 22.0775C16.0872 19.6465 12.1542 20.0459 9.62926 16.6495Z" fill="#CEC927" stroke="#ACA824"/>
<path d="M8.63676 23.8248C8.10798 25.1952 8.27411 26.5895 8.83268 27.9206C10.8468 32.7201 17.1054 32.5208 19.9587 28.8491C20.9812 27.6457 21.0327 25.9477 19.5029 25.4755C15.7394 24.3137 12.2095 26.0934 8.63676 23.8248Z" fill="#CEC927" stroke="#ACA824"/>
<path d="M10.2744 30.8813C10.2707 32.3501 10.9246 33.5928 11.9223 34.636C15.5199 38.3976 21.2932 35.973 22.6444 31.5237C23.1688 30.034 22.6096 28.43 21.0121 28.5362C17.082 28.7974 14.4222 31.7219 10.2744 30.8813Z" fill="#CEC927" stroke="#ACA824"/>
</svg>
