<svg width="60" height="343" viewBox="0 0 60 343" fill="none" xmlns="http://www.w3.org/2000/svg">
<path d="M36.2168 3.50239L35.4254 1L27.187 4.46693C22.6839 6.36502 23.1389 10.1263 24.235 14C28.6273 12.1445 38.2705 10.0411 36.2168 3.50239Z" fill="#DD3434" stroke="#AF1E1E"/>
<path d="M36.2168 11.5024L35.4254 9L27.187 12.4669C22.6839 14.365 23.1389 18.1263 24.235 22C28.6273 20.1445 38.2705 18.0411 36.2168 11.5024Z" fill="#DD3434" stroke="#AF1E1E"/>
<path d="M36.2168 19.5024L35.4254 17L27.187 20.4669C22.6839 22.365 23.1389 26.1263 24.235 30C28.6273 28.1445 38.2705 26.0411 36.2168 19.5024Z" fill="#DD3434" stroke="#AF1E1E"/>
<path d="M36.2168 27.5024L35.4254 25L27.187 28.4669C22.6839 30.365 23.1389 34.1263 24.235 38C28.6273 36.1445 38.2705 34.0411 36.2168 27.5024Z" fill="#DD3434" stroke="#AF1E1E"/>
<path d="M36.2168 35.5024L35.4254 33L27.187 36.4669C22.6839 38.365 23.1389 42.1263 24.235 46C28.6273 44.1445 38.2705 42.0411 36.2168 35.5024Z" fill="#DD3434" stroke="#AF1E1E"/>
<path d="M36.0456 77.452C35.597 76.3057 34.6002 75.1594 33.3044 74.4617C32.0086 73.7141 30.5135 73.3652 29.0681 73.3652C22.5428 73.4777 20.1119 80.9353 21.8913 86.2735C22.0408 86.7221 22.1904 87.071 22.29 87.3202C22.3897 87.5693 22.4395 87.7189 22.4395 87.7189C24.0842 87.4697 25.2305 87.1706 25.9282 86.5726C30.0917 83.45 29.427 77.452 36.0456 77.452Z" fill="#DD3434" stroke="#AF1E1E"/>
<path d="M41.6214 82.205C41.5446 80.9765 40.9458 79.5804 39.9252 78.5201C38.9198 77.4123 37.6028 76.6232 36.2266 76.1815C30.2519 74.377 24.3367 80.3974 26.484 86.1473C35.9625 89.6796 35.5165 80.2457 41.6214 82.205Z" fill="#DD3434" stroke="#AF1E1E"/>
<path d="M22.2864 78.1499C22.3861 77.9506 22.4858 77.7512 22.5356 77.5518C22.6851 77.2528 22.7848 77.0535 22.7848 77.0535C21.6883 76.8541 20.4424 77.0036 19.2961 77.502C18.1498 77.9506 17.0533 78.748 16.2559 79.6949C12.6562 84.1946 15.0844 90.2544 19.3459 93.4505C19.5452 93.6 19.7945 93.7495 19.9938 93.899C20.3925 94.1482 20.6915 94.3476 20.9407 94.4473C21.1899 94.5469 21.3394 94.5968 21.3394 94.5968C22.4857 93.4006 23.1336 92.5036 23.333 91.4569C24.0136 86.9194 21.0068 83.2683 22.2864 78.1499Z" fill="#DD3434" stroke="#AF1E1E"/>
<path d="M35.4948 86.1242C35.4948 86.1242 35.6443 86.0744 35.8935 85.9747C36.1427 85.875 36.4916 85.7753 36.9402 85.7255C37.8373 85.5261 39.1331 85.5261 40.4787 85.7753C41.8244 86.0245 43.2199 86.5727 44.2167 87.0711C44.7151 87.3203 45.1138 87.5695 45.4128 87.7689C45.7118 87.9682 45.8613 88.0679 45.8613 88.0679C46.26 87.0213 46.3099 85.8252 46.0607 84.629C45.8115 83.4329 45.2134 82.1869 44.3661 81.1901C43.5189 80.1435 42.4225 79.3461 41.2263 78.8477C40.0302 78.3493 38.7344 78.1998 37.5881 78.3992C37.5881 78.3992 37.3887 78.449 37.0398 78.4988C36.691 78.5985 36.1926 78.6982 35.6443 78.9474C35.0961 79.1467 34.4482 79.4458 33.8501 79.8445C33.2521 80.2432 32.7039 80.6917 32.2055 81.1901C31.2585 82.1869 30.8099 83.3831 30.6604 84.2303C30.6106 84.6789 30.6106 84.9779 30.6604 85.2271C30.7103 85.4763 30.7103 85.576 30.7103 85.576C31.9064 86.4232 32.355 87.0711 32.7039 87.0711C32.8534 87.0711 33.2022 86.9715 33.6009 86.7721C34.2987 86.6226 34.8968 86.3734 35.4948 86.1242Z" fill="#DD3434" stroke="#AF1E1E"/>
<path d="M36.2129 67.5024L35.4215 65L27.1831 68.4669C22.68 70.365 23.135 74.1263 24.2311 78C28.6234 76.1445 38.2666 74.0411 36.2129 67.5024Z" fill="#DD3434" stroke="#AF1E1E"/>
<path d="M36.2129 75.5024L35.4215 73L27.1831 76.4669C22.68 78.365 23.135 82.1263 24.2311 86C28.6234 84.1445 38.2666 82.0411 36.2129 75.5024Z" fill="#DD3434" stroke="#AF1E1E"/>
<path d="M36.2129 83.5024L35.4215 81L27.1831 84.4669C22.68 86.365 23.135 90.1263 24.2311 94C28.6234 92.1445 38.2666 90.0411 36.2129 83.5024Z" fill="#DD3434" stroke="#AF1E1E"/>
<path d="M36.2129 91.5024L35.4215 89L27.1831 92.4669C22.68 94.365 23.135 98.1263 24.2311 102C28.6234 100.145 38.2666 98.0411 36.2129 91.5024Z" fill="#DD3434" stroke="#AF1E1E"/>
<path d="M36.2129 99.5024L35.4215 97L27.1831 100.467C22.68 102.365 23.135 106.126 24.2311 110C28.6234 108.145 38.2666 106.041 36.2129 99.5024Z" fill="#DD3434" stroke="#AF1E1E"/>
<path d="M36.2129 107.502L35.4215 105L27.1831 108.467C22.68 110.365 23.135 114.126 24.2311 118C28.6234 116.145 38.2666 114.041 36.2129 107.502Z" fill="#DD3434" stroke="#AF1E1E"/>
<path d="M14.7621 86.872C14.6624 86.5231 14.6126 86.3736 14.6126 86.3736C12.7187 87.4701 11.4229 89.8125 11.373 92.3543C11.373 98.5111 17.9912 101.9 23.5836 100.428C24.0321 100.329 24.381 100.229 24.6302 100.129C24.8794 100.029 25.0289 99.9796 25.0289 99.9796C24.6912 94.2384 16.5082 92.9832 14.7621 86.872Z" fill="#DD3434" stroke="#AF1E1E"/>
<path d="M25.0309 99.9299C25.0309 99.9299 24.8814 99.9798 24.6322 100.079C24.383 100.179 24.0341 100.279 23.5856 100.378C22.6885 100.578 21.3927 100.727 19.9972 100.628C19.2995 100.578 18.6515 100.428 17.9538 100.229C17.3059 100.03 16.7078 99.7804 16.1596 99.581C15.6612 99.3319 15.2126 99.0827 14.9136 98.9331C14.6146 98.7338 14.4152 98.6341 14.4152 98.6341C14.2657 99.1823 14.2159 99.7306 14.166 100.329C14.166 100.927 14.2657 101.525 14.465 102.173C14.6146 102.771 14.9136 103.369 15.2126 103.917C15.5117 104.465 15.9602 104.964 16.4088 105.462C16.8573 105.911 17.3557 106.309 17.9039 106.658C18.4522 107.007 19.0004 107.256 19.5985 107.456C20.1965 107.655 20.7448 107.755 21.3428 107.804C21.9409 107.854 22.4892 107.755 22.9876 107.655C22.9876 107.655 23.1869 107.605 23.4859 107.505C23.8348 107.406 24.2833 107.256 24.8316 107.107C25.8782 106.708 27.2238 106.06 28.3203 105.263C28.8685 104.864 29.3669 104.415 29.8155 104.017C30.264 103.568 30.6129 103.169 30.8621 102.771C31.4103 101.973 31.6595 101.475 31.6595 101.475C30.563 100.229 29.7158 99.5312 28.719 99.3319C27.7223 99.1325 26.5759 99.3319 25.0309 99.9299Z" fill="#DD3434" stroke="#AF1E1E"/>
<path d="M31.6583 101.525C31.6583 101.525 31.4091 102.023 30.8609 102.821C30.5618 103.169 30.213 103.618 29.8142 104.066C29.3657 104.465 28.8673 104.914 28.3191 105.312C27.2226 106.11 25.877 106.758 24.8303 107.157C24.2821 107.356 23.8336 107.505 23.4847 107.555C23.1358 107.655 22.9863 107.655 22.9863 107.655C23.2355 108.153 23.5843 108.602 23.9332 109.001C24.3319 109.449 24.7805 109.798 25.2789 110.097C25.7773 110.446 26.3255 110.695 26.9236 110.894C27.5216 111.094 28.1197 111.193 28.7676 111.293C30.0136 111.393 31.3593 111.193 32.5056 110.745C33.6519 110.247 34.6486 109.549 35.2965 108.602C35.2965 108.602 35.3962 108.452 35.5956 108.153C35.7949 107.904 36.0441 107.406 36.2933 106.907C36.8415 105.911 37.3399 104.465 37.5393 103.12C37.7386 101.774 37.6888 100.478 37.4895 99.5311C37.3898 99.0826 37.2901 98.6839 37.2403 98.4347C37.1406 98.1855 37.0907 98.0359 37.0907 98.0359C35.446 98.0359 34.2998 98.1356 33.5522 98.634C33.3528 98.7337 33.2033 98.8832 33.004 99.0826C32.8544 99.2321 32.7049 99.4315 32.5554 99.6807C32.4059 99.88 32.2563 100.179 32.1068 100.478C32.0071 100.827 31.8576 101.126 31.6583 101.525Z" fill="#DD3434" stroke="#AF1E1E"/>
<path d="M37.1868 98.1355C37.1868 98.1355 37.2366 98.285 37.3363 98.5342C37.3861 98.7834 37.4858 99.1323 37.5855 99.6306C37.735 100.528 37.8347 101.824 37.6353 103.219C37.436 104.565 36.9376 106.01 36.3894 107.007C36.1402 107.505 35.8412 107.954 35.6917 108.253C35.4923 108.552 35.3926 108.701 35.3926 108.701C35.6418 108.801 35.9408 108.901 36.2399 108.951C36.5389 109 36.8379 109 37.1369 109.05C37.436 109.05 37.735 109.05 38.0839 109.05C38.3829 109 38.682 108.951 38.981 108.901C40.1772 108.602 41.3733 108.004 42.37 107.156C43.3668 106.309 44.1144 105.213 44.563 104.116C45.0115 102.97 45.1611 101.774 44.9617 100.677C44.9617 100.677 44.9118 100.478 44.862 100.129C44.8121 99.7802 44.6627 99.3316 44.5131 98.7834C44.1643 97.6869 43.5662 96.3413 42.7688 95.195C41.9713 94.0487 40.9746 93.2014 40.227 92.6532C39.8283 92.404 39.5292 92.2046 39.28 92.0551C39.0308 91.9056 38.9312 91.8558 38.9312 91.8558C37.7351 93.0021 37.0373 93.8493 36.8379 94.6966C36.4392 95.4442 36.6884 96.5406 37.1868 98.1355Z" fill="#DD3434" stroke="#AF1E1E"/>
<path d="M44.7142 100.029C44.764 100.378 44.8138 100.578 44.8138 100.578C45.8106 100.129 46.7078 99.2819 47.4055 98.2353C48.1033 97.1887 48.5019 95.8929 48.6016 94.5971C48.7013 93.3012 48.5019 91.9556 48.0035 90.8591C45.9306 86.0914 42.9894 84.4266 36.7663 85.6467C35.5058 87.9646 35.4441 88.8656 35.8927 89.663C38.5979 93.8712 43.6459 93.6198 44.7142 100.029Z" fill="#DD3434" stroke="#AF1E1E"/>
<path d="M36.0456 53.452C35.597 52.3057 34.6002 51.1594 33.3044 50.4617C32.0086 49.7141 30.5135 49.3652 29.0681 49.3652C22.5428 49.4777 20.1119 56.9353 21.8913 62.2735C22.0408 62.7221 22.1904 63.071 22.29 63.3202C22.3897 63.5693 22.4395 63.7189 22.4395 63.7189C24.0842 63.4697 25.2305 63.1706 25.9282 62.5726C30.0917 59.45 29.427 53.452 36.0456 53.452Z" fill="#DD3434" stroke="#AF1E1E"/>
<path d="M41.6214 58.205C41.5446 56.9765 40.9458 55.5804 39.9252 54.5201C38.9198 53.4123 37.6028 52.6232 36.2266 52.1815C30.2519 50.377 24.3367 56.3974 26.484 62.1473C35.9625 65.6796 35.5165 56.2457 41.6214 58.205Z" fill="#DD3434" stroke="#AF1E1E"/>
<path d="M22.2864 54.1499C22.3861 53.9506 22.4858 53.7512 22.5356 53.5518C22.6851 53.2528 22.7848 53.0535 22.7848 53.0535C21.6883 52.8541 20.4424 53.0036 19.2961 53.502C18.1498 53.9506 17.0533 54.748 16.2559 55.6949C12.6562 60.1946 15.0844 66.2544 19.3459 69.4505C19.5452 69.6 19.7945 69.7495 19.9938 69.899C20.3925 70.1482 20.6915 70.3476 20.9407 70.4473C21.1899 70.5469 21.3394 70.5968 21.3394 70.5968C22.4857 69.4006 23.1336 68.5036 23.333 67.4569C24.0136 62.9194 21.0068 59.2683 22.2864 54.1499Z" fill="#DD3434" stroke="#AF1E1E"/>
<path d="M35.4948 62.1242C35.4948 62.1242 35.6443 62.0744 35.8935 61.9747C36.1427 61.875 36.4916 61.7753 36.9402 61.7255C37.8373 61.5261 39.1331 61.5261 40.4787 61.7753C41.8244 62.0245 43.2199 62.5727 44.2167 63.0711C44.7151 63.3203 45.1138 63.5695 45.4128 63.7689C45.7118 63.9682 45.8613 64.0679 45.8613 64.0679C46.26 63.0213 46.3099 61.8252 46.0607 60.629C45.8115 59.4329 45.2134 58.1869 44.3661 57.1901C43.5189 56.1435 42.4225 55.3461 41.2263 54.8477C40.0302 54.3493 38.7344 54.1998 37.5881 54.3992C37.5881 54.3992 37.3887 54.449 37.0398 54.4988C36.691 54.5985 36.1926 54.6982 35.6443 54.9474C35.0961 55.1467 34.4482 55.4458 33.8501 55.8445C33.2521 56.2432 32.7039 56.6917 32.2055 57.1901C31.2585 58.1869 30.8099 59.3831 30.6604 60.2303C30.6106 60.6789 30.6106 60.9779 30.6604 61.2271C30.7103 61.4763 30.7103 61.576 30.7103 61.576C31.9064 62.4232 32.355 63.0711 32.7039 63.0711C32.8534 63.0711 33.2022 62.9715 33.6009 62.7721C34.2987 62.6226 34.8968 62.3734 35.4948 62.1242Z" fill="#DD3434" stroke="#AF1E1E"/>
<path d="M36.2129 43.5024L35.4215 41L27.1831 44.4669C22.68 46.365 23.135 50.1263 24.2311 54C28.6234 52.1445 38.2666 50.0411 36.2129 43.5024Z" fill="#DD3434" stroke="#AF1E1E"/>
<path d="M36.2129 51.5024L35.4215 49L27.1831 52.4669C22.68 54.365 23.135 58.1263 24.2311 62C28.6234 60.1445 38.2666 58.0411 36.2129 51.5024Z" fill="#DD3434" stroke="#AF1E1E"/>
<path d="M36.2129 59.5024L35.4215 57L27.1831 60.4669C22.68 62.365 23.135 66.1263 24.2311 70C28.6234 68.1445 38.2666 66.0411 36.2129 59.5024Z" fill="#DD3434" stroke="#AF1E1E"/>
<path d="M36.2129 67.5024L35.4215 65L27.1831 68.4669C22.68 70.365 23.135 74.1263 24.2311 78C28.6234 76.1445 38.2666 74.0411 36.2129 67.5024Z" fill="#DD3434" stroke="#AF1E1E"/>
<path d="M36.2129 75.5024L35.4215 73L27.1831 76.4669C22.68 78.365 23.135 82.1263 24.2311 86C28.6234 84.1445 38.2666 82.0411 36.2129 75.5024Z" fill="#DD3434" stroke="#AF1E1E"/>
<path d="M36.2129 83.5024L35.4215 81L27.1831 84.4669C22.68 86.365 23.135 90.1263 24.2311 94C28.6234 92.1445 38.2666 90.0411 36.2129 83.5024Z" fill="#DD3434" stroke="#AF1E1E"/>
<path d="M14.7621 62.872C14.6624 62.5231 14.6126 62.3736 14.6126 62.3736C12.7187 63.4701 11.4229 65.8125 11.373 68.3543C11.373 74.5111 17.9912 77.8999 23.5836 76.4282C24.0321 76.3285 24.381 76.2288 24.6302 76.1291C24.8794 76.0295 25.0289 75.9796 25.0289 75.9796C24.6912 70.2384 16.5082 68.9832 14.7621 62.872Z" fill="#DD3434" stroke="#AF1E1E"/>
<path d="M25.0309 75.9299C25.0309 75.9299 24.8814 75.9798 24.6322 76.0794C24.383 76.1791 24.0341 76.2788 23.5856 76.3785C22.6885 76.5778 21.3927 76.7273 19.9972 76.6277C19.2995 76.5778 18.6515 76.4283 17.9538 76.2289C17.3059 76.0296 16.7078 75.7804 16.1596 75.581C15.6612 75.3319 15.2126 75.0827 14.9136 74.9331C14.6146 74.7338 14.4152 74.6341 14.4152 74.6341C14.2657 75.1823 14.2159 75.7306 14.166 76.3286C14.166 76.9267 14.2657 77.5248 14.465 78.1727C14.6146 78.7707 14.9136 79.3688 15.2126 79.917C15.5117 80.4653 15.9602 80.9637 16.4088 81.462C16.8573 81.9106 17.3557 82.3093 17.9039 82.6582C18.4522 83.0071 19.0004 83.2562 19.5985 83.4556C20.1965 83.655 20.7448 83.7546 21.3428 83.8045C21.9409 83.8543 22.4892 83.7546 22.9876 83.655C22.9876 83.655 23.1869 83.6051 23.4859 83.5054C23.8348 83.4057 24.2833 83.2562 24.8316 83.1067C25.8782 82.708 27.2238 82.0601 28.3203 81.2627C28.8685 80.864 29.3669 80.4154 29.8155 80.0167C30.264 79.5681 30.6129 79.1694 30.8621 78.7707C31.4103 77.9733 31.6595 77.4749 31.6595 77.4749C30.563 76.2289 29.7158 75.5312 28.719 75.3319C27.7223 75.1325 26.5759 75.3319 25.0309 75.9299Z" fill="#DD3434" stroke="#AF1E1E"/>
<path d="M31.6583 77.5247C31.6583 77.5247 31.4091 78.0231 30.8609 78.8205C30.5618 79.1694 30.213 79.6179 29.8142 80.0665C29.3657 80.4652 28.8673 80.9137 28.3191 81.3125C27.2226 82.1099 25.877 82.7578 24.8303 83.1565C24.2821 83.3559 23.8336 83.5054 23.4847 83.5552C23.1358 83.6549 22.9863 83.6549 22.9863 83.6549C23.2355 84.1533 23.5843 84.6018 23.9332 85.0005C24.3319 85.4491 24.7805 85.798 25.2789 86.097C25.7773 86.4459 26.3255 86.6951 26.9236 86.8944C27.5216 87.0938 28.1197 87.1935 28.7676 87.2931C30.0136 87.3928 31.3593 87.1934 32.5056 86.7449C33.6519 86.2465 34.6486 85.5488 35.2965 84.6018C35.2965 84.6018 35.3962 84.4523 35.5956 84.1533C35.7949 83.9041 36.0441 83.4057 36.2933 82.9073C36.8415 81.9105 37.3399 80.4652 37.5393 79.1195C37.7386 77.7739 37.6888 76.4781 37.4895 75.5311C37.3898 75.0826 37.2901 74.6839 37.2403 74.4347C37.1406 74.1855 37.0907 74.0359 37.0907 74.0359C35.446 74.0359 34.2998 74.1356 33.5522 74.634C33.3528 74.7337 33.2033 74.8832 33.004 75.0826C32.8544 75.2321 32.7049 75.4315 32.5554 75.6807C32.4059 75.88 32.2563 76.179 32.1068 76.4781C32.0071 76.8269 31.8576 77.126 31.6583 77.5247Z" fill="#DD3434" stroke="#AF1E1E"/>
<path d="M37.1868 74.1355C37.1868 74.1355 37.2366 74.285 37.3363 74.5342C37.3861 74.7834 37.4858 75.1323 37.5855 75.6306C37.735 76.5277 37.8347 77.8236 37.6353 79.2191C37.436 80.5647 36.9376 82.01 36.3894 83.0068C36.1402 83.5052 35.8412 83.9537 35.6917 84.2528C35.4923 84.5518 35.3926 84.7013 35.3926 84.7013C35.6418 84.801 35.9408 84.9007 36.2399 84.9505C36.5389 85.0004 36.8379 85.0004 37.1369 85.0502C37.436 85.0502 37.735 85.0502 38.0839 85.0502C38.3829 85.0004 38.682 84.9506 38.981 84.9007C40.1772 84.6017 41.3733 84.0036 42.37 83.1563C43.3668 82.3091 44.1144 81.2126 44.563 80.1162C45.0115 78.9699 45.1611 77.7737 44.9617 76.6773C44.9617 76.6773 44.9118 76.4779 44.862 76.129C44.8121 75.7802 44.6627 75.3316 44.5131 74.7834C44.1643 73.6869 43.5662 72.3413 42.7688 71.195C41.9713 70.0487 40.9746 69.2014 40.227 68.6532C39.8283 68.404 39.5292 68.2046 39.28 68.0551C39.0308 67.9056 38.9312 67.8558 38.9312 67.8558C37.7351 69.0021 37.0373 69.8493 36.8379 70.6966C36.4392 71.4442 36.6884 72.5406 37.1868 74.1355Z" fill="#DD3434" stroke="#AF1E1E"/>
<path d="M44.7142 76.0295C44.764 76.3784 44.8138 76.5777 44.8138 76.5777C45.8106 76.1292 46.7078 75.2819 47.4055 74.2353C48.1033 73.1887 48.5019 71.8929 48.6016 70.5971C48.7013 69.3012 48.5019 67.9556 48.0035 66.8591C45.9306 62.0914 42.9894 60.4266 36.7663 61.6467C35.5058 63.9646 35.4441 64.8656 35.8927 65.663C38.5979 69.8712 43.6459 69.6198 44.7142 76.0295Z" fill="#DD3434" stroke="#AF1E1E"/>
<path d="M36.2168 115.502L35.4254 113L27.187 116.467C22.6839 118.365 23.1389 122.126 24.235 126C28.6273 124.145 38.2705 122.041 36.2168 115.502Z" fill="#DD3434" stroke="#AF1E1E"/>
<path d="M36.2168 123.502L35.4254 121L27.187 124.467C22.6839 126.365 23.1389 130.126 24.235 134C28.6273 132.145 38.2705 130.041 36.2168 123.502Z" fill="#DD3434" stroke="#AF1E1E"/>
<path d="M36.2168 131.502L35.4254 129L27.187 132.467C22.6839 134.365 23.1389 138.126 24.235 142C28.6273 140.145 38.2705 138.041 36.2168 131.502Z" fill="#DD3434" stroke="#AF1E1E"/>
<path d="M36.2168 139.502L35.4254 137L27.187 140.467C22.6839 142.365 23.1389 146.126 24.235 150C28.6273 148.145 38.2705 146.041 36.2168 139.502Z" fill="#DD3434" stroke="#AF1E1E"/>
<path d="M36.2168 147.502L35.4254 145L27.187 148.467C22.6839 150.365 23.1389 154.126 24.235 158C28.6273 156.145 38.2705 154.041 36.2168 147.502Z" fill="#DD3434" stroke="#AF1E1E"/>
<path d="M36.2168 155.502L35.4254 153L27.187 156.467C22.6839 158.365 23.1389 162.126 24.235 166C28.6273 164.145 38.2705 162.041 36.2168 155.502Z" fill="#DD3434" stroke="#AF1E1E"/>
<path d="M36.2168 163.502L35.4254 161L27.187 164.467C22.6839 166.365 23.1389 170.126 24.235 174C28.6273 172.145 38.2705 170.041 36.2168 163.502Z" fill="#DD3434" stroke="#AF1E1E"/>
<path d="M36.2168 171.502L35.4254 169L27.187 172.467C22.6839 174.365 23.1389 178.126 24.235 182C28.6273 180.145 38.2705 178.041 36.2168 171.502Z" fill="#DD3434" stroke="#AF1E1E"/>
<path d="M36.2168 179.502L35.4254 177L27.187 180.467C22.6839 182.365 23.1389 186.126 24.235 190C28.6273 188.145 38.2705 186.041 36.2168 179.502Z" fill="#DD3434" stroke="#AF1E1E"/>
<path d="M36.0456 221.452C35.597 220.306 34.6002 219.159 33.3044 218.462C32.0086 217.714 30.5135 217.365 29.0681 217.365C22.5428 217.478 20.1119 224.935 21.8913 230.274C22.0408 230.722 22.1904 231.071 22.29 231.32C22.3897 231.569 22.4395 231.719 22.4395 231.719C24.0842 231.47 25.2305 231.171 25.9282 230.573C30.0917 227.45 29.427 221.452 36.0456 221.452Z" fill="#DD3434" stroke="#AF1E1E"/>
<path d="M41.6214 226.205C41.5446 224.976 40.9458 223.58 39.9252 222.52C38.9198 221.412 37.6028 220.623 36.2266 220.182C30.2519 218.377 24.3367 224.397 26.484 230.147C35.9625 233.68 35.5165 224.246 41.6214 226.205Z" fill="#DD3434" stroke="#AF1E1E"/>
<path d="M22.2864 222.15C22.3861 221.951 22.4858 221.751 22.5356 221.552C22.6851 221.253 22.7848 221.053 22.7848 221.053C21.6883 220.854 20.4424 221.004 19.2961 221.502C18.1498 221.951 17.0533 222.748 16.2559 223.695C12.6562 228.195 15.0844 234.254 19.3459 237.45C19.5452 237.6 19.7945 237.75 19.9938 237.899C20.3925 238.148 20.6915 238.348 20.9407 238.447C21.1899 238.547 21.3394 238.597 21.3394 238.597C22.4857 237.401 23.1336 236.504 23.333 235.457C24.0136 230.919 21.0068 227.268 22.2864 222.15Z" fill="#DD3434" stroke="#AF1E1E"/>
<path d="M35.4948 230.124C35.4948 230.124 35.6443 230.074 35.8935 229.975C36.1427 229.875 36.4916 229.775 36.9402 229.725C37.8373 229.526 39.1331 229.526 40.4787 229.775C41.8244 230.025 43.2199 230.573 44.2167 231.071C44.7151 231.32 45.1138 231.57 45.4128 231.769C45.7118 231.968 45.8613 232.068 45.8613 232.068C46.26 231.021 46.3099 229.825 46.0607 228.629C45.8115 227.433 45.2134 226.187 44.3661 225.19C43.5189 224.144 42.4225 223.346 41.2263 222.848C40.0302 222.349 38.7344 222.2 37.5881 222.399C37.5881 222.399 37.3887 222.449 37.0398 222.499C36.691 222.599 36.1926 222.698 35.6443 222.947C35.0961 223.147 34.4482 223.446 33.8501 223.844C33.2521 224.243 32.7039 224.692 32.2055 225.19C31.2585 226.187 30.8099 227.383 30.6604 228.23C30.6106 228.679 30.6106 228.978 30.6604 229.227C30.7103 229.476 30.7103 229.576 30.7103 229.576C31.9064 230.423 32.355 231.071 32.7039 231.071C32.8534 231.071 33.2022 230.971 33.6009 230.772C34.2987 230.623 34.8968 230.373 35.4948 230.124Z" fill="#DD3434" stroke="#AF1E1E"/>
<path d="M36.2129 211.502L35.4215 209L27.1831 212.467C22.68 214.365 23.135 218.126 24.2311 222C28.6234 220.145 38.2666 218.041 36.2129 211.502Z" fill="#DD3434" stroke="#AF1E1E"/>
<path d="M36.2129 219.502L35.4215 217L27.1831 220.467C22.68 222.365 23.135 226.126 24.2311 230C28.6234 228.145 38.2666 226.041 36.2129 219.502Z" fill="#DD3434" stroke="#AF1E1E"/>
<path d="M36.2129 227.502L35.4215 225L27.1831 228.467C22.68 230.365 23.135 234.126 24.2311 238C28.6234 236.145 38.2666 234.041 36.2129 227.502Z" fill="#DD3434" stroke="#AF1E1E"/>
<path d="M36.2129 235.502L35.4215 233L27.1831 236.467C22.68 238.365 23.135 242.126 24.2311 246C28.6234 244.145 38.2666 242.041 36.2129 235.502Z" fill="#DD3434" stroke="#AF1E1E"/>
<path d="M36.2129 243.502L35.4215 241L27.1831 244.467C22.68 246.365 23.135 250.126 24.2311 254C28.6234 252.145 38.2666 250.041 36.2129 243.502Z" fill="#DD3434" stroke="#AF1E1E"/>
<path d="M36.2129 251.502L35.4215 249L27.1831 252.467C22.68 254.365 23.135 258.126 24.2311 262C28.6234 260.145 38.2666 258.041 36.2129 251.502Z" fill="#DD3434" stroke="#AF1E1E"/>
<path d="M14.7621 230.872C14.6624 230.523 14.6126 230.374 14.6126 230.374C12.7187 231.47 11.4229 233.812 11.373 236.354C11.373 242.511 17.9912 245.9 23.5836 244.428C24.0321 244.329 24.381 244.229 24.6302 244.129C24.8794 244.029 25.0289 243.98 25.0289 243.98C24.6912 238.238 16.5082 236.983 14.7621 230.872Z" fill="#DD3434" stroke="#AF1E1E"/>
<path d="M25.0309 243.93C25.0309 243.93 24.8814 243.98 24.6322 244.079C24.383 244.179 24.0341 244.279 23.5856 244.378C22.6885 244.578 21.3927 244.727 19.9972 244.628C19.2995 244.578 18.6515 244.428 17.9538 244.229C17.3059 244.03 16.7078 243.78 16.1596 243.581C15.6612 243.332 15.2126 243.083 14.9136 242.933C14.6146 242.734 14.4152 242.634 14.4152 242.634C14.2657 243.182 14.2159 243.731 14.166 244.329C14.166 244.927 14.2657 245.525 14.465 246.173C14.6146 246.771 14.9136 247.369 15.2126 247.917C15.5117 248.465 15.9602 248.964 16.4088 249.462C16.8573 249.911 17.3557 250.309 17.9039 250.658C18.4522 251.007 19.0004 251.256 19.5985 251.456C20.1965 251.655 20.7448 251.755 21.3428 251.804C21.9409 251.854 22.4892 251.755 22.9876 251.655C22.9876 251.655 23.1869 251.605 23.4859 251.505C23.8348 251.406 24.2833 251.256 24.8316 251.107C25.8782 250.708 27.2238 250.06 28.3203 249.263C28.8685 248.864 29.3669 248.415 29.8155 248.017C30.264 247.568 30.6129 247.169 30.8621 246.771C31.4103 245.973 31.6595 245.475 31.6595 245.475C30.563 244.229 29.7158 243.531 28.719 243.332C27.7223 243.132 26.5759 243.332 25.0309 243.93Z" fill="#DD3434" stroke="#AF1E1E"/>
<path d="M31.6583 245.525C31.6583 245.525 31.4091 246.023 30.8609 246.821C30.5618 247.169 30.213 247.618 29.8142 248.066C29.3657 248.465 28.8673 248.914 28.3191 249.312C27.2226 250.11 25.877 250.758 24.8303 251.157C24.2821 251.356 23.8336 251.505 23.4847 251.555C23.1358 251.655 22.9863 251.655 22.9863 251.655C23.2355 252.153 23.5843 252.602 23.9332 253.001C24.3319 253.449 24.7805 253.798 25.2789 254.097C25.7773 254.446 26.3255 254.695 26.9236 254.894C27.5216 255.094 28.1197 255.193 28.7676 255.293C30.0136 255.393 31.3593 255.193 32.5056 254.745C33.6519 254.247 34.6486 253.549 35.2965 252.602C35.2965 252.602 35.3962 252.452 35.5956 252.153C35.7949 251.904 36.0441 251.406 36.2933 250.907C36.8415 249.911 37.3399 248.465 37.5393 247.12C37.7386 245.774 37.6888 244.478 37.4895 243.531C37.3898 243.083 37.2901 242.684 37.2403 242.435C37.1406 242.185 37.0907 242.036 37.0907 242.036C35.446 242.036 34.2998 242.136 33.5522 242.634C33.3528 242.734 33.2033 242.883 33.004 243.083C32.8544 243.232 32.7049 243.431 32.5554 243.681C32.4059 243.88 32.2563 244.179 32.1068 244.478C32.0071 244.827 31.8576 245.126 31.6583 245.525Z" fill="#DD3434" stroke="#AF1E1E"/>
<path d="M37.1868 242.135C37.1868 242.135 37.2366 242.285 37.3363 242.534C37.3861 242.783 37.4858 243.132 37.5855 243.631C37.735 244.528 37.8347 245.824 37.6353 247.219C37.436 248.565 36.9376 250.01 36.3894 251.007C36.1402 251.505 35.8412 251.954 35.6917 252.253C35.4923 252.552 35.3926 252.701 35.3926 252.701C35.6418 252.801 35.9408 252.901 36.2399 252.951C36.5389 253 36.8379 253 37.1369 253.05C37.436 253.05 37.735 253.05 38.0839 253.05C38.3829 253 38.682 252.951 38.981 252.901C40.1772 252.602 41.3733 252.004 42.37 251.156C43.3668 250.309 44.1144 249.213 44.563 248.116C45.0115 246.97 45.1611 245.774 44.9617 244.677C44.9617 244.677 44.9118 244.478 44.862 244.129C44.8121 243.78 44.6627 243.332 44.5131 242.783C44.1643 241.687 43.5662 240.341 42.7688 239.195C41.9713 238.049 40.9746 237.201 40.227 236.653C39.8283 236.404 39.5292 236.205 39.28 236.055C39.0308 235.906 38.9312 235.856 38.9312 235.856C37.7351 237.002 37.0373 237.849 36.8379 238.697C36.4392 239.444 36.6884 240.541 37.1868 242.135Z" fill="#DD3434" stroke="#AF1E1E"/>
<path d="M44.7142 244.029C44.764 244.378 44.8138 244.578 44.8138 244.578C45.8106 244.129 46.7078 243.282 47.4055 242.235C48.1033 241.189 48.5019 239.893 48.6016 238.597C48.7013 237.301 48.5019 235.956 48.0035 234.859C45.9306 230.091 42.9894 228.427 36.7663 229.647C35.5058 231.965 35.4441 232.866 35.8927 233.663C38.5979 237.871 43.6459 237.62 44.7142 244.029Z" fill="#DD3434" stroke="#AF1E1E"/>
<path d="M36.0456 197.452C35.597 196.306 34.6002 195.159 33.3044 194.462C32.0086 193.714 30.5135 193.365 29.0681 193.365C22.5428 193.478 20.1119 200.935 21.8913 206.274C22.0408 206.722 22.1904 207.071 22.29 207.32C22.3897 207.569 22.4395 207.719 22.4395 207.719C24.0842 207.47 25.2305 207.171 25.9282 206.573C30.0917 203.45 29.427 197.452 36.0456 197.452Z" fill="#DD3434" stroke="#AF1E1E"/>
<path d="M41.6214 202.205C41.5446 200.976 40.9458 199.58 39.9252 198.52C38.9198 197.412 37.6028 196.623 36.2266 196.182C30.2519 194.377 24.3367 200.397 26.484 206.147C35.9625 209.68 35.5165 200.246 41.6214 202.205Z" fill="#DD3434" stroke="#AF1E1E"/>
<path d="M22.2864 198.15C22.3861 197.951 22.4858 197.751 22.5356 197.552C22.6851 197.253 22.7848 197.053 22.7848 197.053C21.6883 196.854 20.4424 197.004 19.2961 197.502C18.1498 197.951 17.0533 198.748 16.2559 199.695C12.6562 204.195 15.0844 210.254 19.3459 213.45C19.5452 213.6 19.7945 213.75 19.9938 213.899C20.3925 214.148 20.6915 214.348 20.9407 214.447C21.1899 214.547 21.3394 214.597 21.3394 214.597C22.4857 213.401 23.1336 212.504 23.333 211.457C24.0136 206.919 21.0068 203.268 22.2864 198.15Z" fill="#DD3434" stroke="#AF1E1E"/>
<path d="M35.4948 206.124C35.4948 206.124 35.6443 206.074 35.8935 205.975C36.1427 205.875 36.4916 205.775 36.9402 205.725C37.8373 205.526 39.1331 205.526 40.4787 205.775C41.8244 206.025 43.2199 206.573 44.2167 207.071C44.7151 207.32 45.1138 207.57 45.4128 207.769C45.7118 207.968 45.8613 208.068 45.8613 208.068C46.26 207.021 46.3099 205.825 46.0607 204.629C45.8115 203.433 45.2134 202.187 44.3661 201.19C43.5189 200.144 42.4225 199.346 41.2263 198.848C40.0302 198.349 38.7344 198.2 37.5881 198.399C37.5881 198.399 37.3887 198.449 37.0398 198.499C36.691 198.599 36.1926 198.698 35.6443 198.947C35.0961 199.147 34.4482 199.446 33.8501 199.844C33.2521 200.243 32.7039 200.692 32.2055 201.19C31.2585 202.187 30.8099 203.383 30.6604 204.23C30.6106 204.679 30.6106 204.978 30.6604 205.227C30.7103 205.476 30.7103 205.576 30.7103 205.576C31.9064 206.423 32.355 207.071 32.7039 207.071C32.8534 207.071 33.2022 206.971 33.6009 206.772C34.2987 206.623 34.8968 206.373 35.4948 206.124Z" fill="#DD3434" stroke="#AF1E1E"/>
<path d="M36.2129 187.502L35.4215 185L27.1831 188.467C22.68 190.365 23.135 194.126 24.2311 198C28.6234 196.145 38.2666 194.041 36.2129 187.502Z" fill="#DD3434" stroke="#AF1E1E"/>
<path d="M36.2129 195.502L35.4215 193L27.1831 196.467C22.68 198.365 23.135 202.126 24.2311 206C28.6234 204.145 38.2666 202.041 36.2129 195.502Z" fill="#DD3434" stroke="#AF1E1E"/>
<path d="M36.2129 203.502L35.4215 201L27.1831 204.467C22.68 206.365 23.135 210.126 24.2311 214C28.6234 212.145 38.2666 210.041 36.2129 203.502Z" fill="#DD3434" stroke="#AF1E1E"/>
<path d="M36.2129 211.502L35.4215 209L27.1831 212.467C22.68 214.365 23.135 218.126 24.2311 222C28.6234 220.145 38.2666 218.041 36.2129 211.502Z" fill="#DD3434" stroke="#AF1E1E"/>
<path d="M36.2129 219.502L35.4215 217L27.1831 220.467C22.68 222.365 23.135 226.126 24.2311 230C28.6234 228.145 38.2666 226.041 36.2129 219.502Z" fill="#DD3434" stroke="#AF1E1E"/>
<path d="M36.2129 227.502L35.4215 225L27.1831 228.467C22.68 230.365 23.135 234.126 24.2311 238C28.6234 236.145 38.2666 234.041 36.2129 227.502Z" fill="#DD3434" stroke="#AF1E1E"/>
<path d="M14.7621 206.872C14.6624 206.523 14.6126 206.374 14.6126 206.374C12.7187 207.47 11.4229 209.812 11.373 212.354C11.373 218.511 17.9912 221.9 23.5836 220.428C24.0321 220.329 24.381 220.229 24.6302 220.129C24.8794 220.029 25.0289 219.98 25.0289 219.98C24.6912 214.238 16.5082 212.983 14.7621 206.872Z" fill="#DD3434" stroke="#AF1E1E"/>
<path d="M25.0309 219.93C25.0309 219.93 24.8814 219.98 24.6322 220.079C24.383 220.179 24.0341 220.279 23.5856 220.378C22.6885 220.578 21.3927 220.727 19.9972 220.628C19.2995 220.578 18.6515 220.428 17.9538 220.229C17.3059 220.03 16.7078 219.78 16.1596 219.581C15.6612 219.332 15.2126 219.083 14.9136 218.933C14.6146 218.734 14.4152 218.634 14.4152 218.634C14.2657 219.182 14.2159 219.731 14.166 220.329C14.166 220.927 14.2657 221.525 14.465 222.173C14.6146 222.771 14.9136 223.369 15.2126 223.917C15.5117 224.465 15.9602 224.964 16.4088 225.462C16.8573 225.911 17.3557 226.309 17.9039 226.658C18.4522 227.007 19.0004 227.256 19.5985 227.456C20.1965 227.655 20.7448 227.755 21.3428 227.804C21.9409 227.854 22.4892 227.755 22.9876 227.655C22.9876 227.655 23.1869 227.605 23.4859 227.505C23.8348 227.406 24.2833 227.256 24.8316 227.107C25.8782 226.708 27.2238 226.06 28.3203 225.263C28.8685 224.864 29.3669 224.415 29.8155 224.017C30.264 223.568 30.6129 223.169 30.8621 222.771C31.4103 221.973 31.6595 221.475 31.6595 221.475C30.563 220.229 29.7158 219.531 28.719 219.332C27.7223 219.132 26.5759 219.332 25.0309 219.93Z" fill="#DD3434" stroke="#AF1E1E"/>
<path d="M31.6583 221.525C31.6583 221.525 31.4091 222.023 30.8609 222.821C30.5618 223.169 30.213 223.618 29.8142 224.066C29.3657 224.465 28.8673 224.914 28.3191 225.312C27.2226 226.11 25.877 226.758 24.8303 227.157C24.2821 227.356 23.8336 227.505 23.4847 227.555C23.1358 227.655 22.9863 227.655 22.9863 227.655C23.2355 228.153 23.5843 228.602 23.9332 229.001C24.3319 229.449 24.7805 229.798 25.2789 230.097C25.7773 230.446 26.3255 230.695 26.9236 230.894C27.5216 231.094 28.1197 231.193 28.7676 231.293C30.0136 231.393 31.3593 231.193 32.5056 230.745C33.6519 230.247 34.6486 229.549 35.2965 228.602C35.2965 228.602 35.3962 228.452 35.5956 228.153C35.7949 227.904 36.0441 227.406 36.2933 226.907C36.8415 225.911 37.3399 224.465 37.5393 223.12C37.7386 221.774 37.6888 220.478 37.4895 219.531C37.3898 219.083 37.2901 218.684 37.2403 218.435C37.1406 218.185 37.0907 218.036 37.0907 218.036C35.446 218.036 34.2998 218.136 33.5522 218.634C33.3528 218.734 33.2033 218.883 33.004 219.083C32.8544 219.232 32.7049 219.431 32.5554 219.681C32.4059 219.88 32.2563 220.179 32.1068 220.478C32.0071 220.827 31.8576 221.126 31.6583 221.525Z" fill="#DD3434" stroke="#AF1E1E"/>
<path d="M37.1868 218.135C37.1868 218.135 37.2366 218.285 37.3363 218.534C37.3861 218.783 37.4858 219.132 37.5855 219.631C37.735 220.528 37.8347 221.824 37.6353 223.219C37.436 224.565 36.9376 226.01 36.3894 227.007C36.1402 227.505 35.8412 227.954 35.6917 228.253C35.4923 228.552 35.3926 228.701 35.3926 228.701C35.6418 228.801 35.9408 228.901 36.2399 228.951C36.5389 229 36.8379 229 37.1369 229.05C37.436 229.05 37.735 229.05 38.0839 229.05C38.3829 229 38.682 228.951 38.981 228.901C40.1772 228.602 41.3733 228.004 42.37 227.156C43.3668 226.309 44.1144 225.213 44.563 224.116C45.0115 222.97 45.1611 221.774 44.9617 220.677C44.9617 220.677 44.9118 220.478 44.862 220.129C44.8121 219.78 44.6627 219.332 44.5131 218.783C44.1643 217.687 43.5662 216.341 42.7688 215.195C41.9713 214.049 40.9746 213.201 40.227 212.653C39.8283 212.404 39.5292 212.205 39.28 212.055C39.0308 211.906 38.9312 211.856 38.9312 211.856C37.7351 213.002 37.0373 213.849 36.8379 214.697C36.4392 215.444 36.6884 216.541 37.1868 218.135Z" fill="#DD3434" stroke="#AF1E1E"/>
<path d="M44.7142 220.029C44.764 220.378 44.8138 220.578 44.8138 220.578C45.8106 220.129 46.7078 219.282 47.4055 218.235C48.1033 217.189 48.5019 215.893 48.6016 214.597C48.7013 213.301 48.5019 211.956 48.0035 210.859C45.9306 206.091 42.9894 204.427 36.7663 205.647C35.5058 207.965 35.4441 208.866 35.8927 209.663C38.5979 213.871 43.6459 213.62 44.7142 220.029Z" fill="#DD3434" stroke="#AF1E1E"/>
<path d="M36.2168 259.502L35.4254 257L27.187 260.467C22.6839 262.365 23.1389 266.126 24.235 270C28.6273 268.145 38.2705 266.041 36.2168 259.502Z" fill="#DD3434" stroke="#AF1E1E"/>
<path d="M36.2168 267.502L35.4254 265L27.187 268.467C22.6839 270.365 23.1389 274.126 24.235 278C28.6273 276.145 38.2705 274.041 36.2168 267.502Z" fill="#DD3434" stroke="#AF1E1E"/>
<path d="M36.2168 275.502L35.4254 273L27.187 276.467C22.6839 278.365 23.1389 282.126 24.235 286C28.6273 284.145 38.2705 282.041 36.2168 275.502Z" fill="#DD3434" stroke="#AF1E1E"/>
<path d="M36.2168 283.502L35.4254 281L27.187 284.467C22.6839 286.365 23.1389 290.126 24.235 294C28.6273 292.145 38.2705 290.041 36.2168 283.502Z" fill="#DD3434" stroke="#AF1E1E"/>
<path d="M36.2168 291.502L35.4254 289L27.187 292.467C22.6839 294.365 23.1389 298.126 24.235 302C28.6273 300.145 38.2705 298.041 36.2168 291.502Z" fill="#DD3434" stroke="#AF1E1E"/>
<path d="M23.0071 324.328C22.6967 329.337 22.076 334.336 21.1054 339.28C21.1054 339.317 21.0941 339.335 21.0941 339.353C20.5607 341.959 22.3912 341.752 24.1696 341.752C25.2362 337.387 26.1278 331.322 26.2181 325.992C26.2181 325.992 26.7824 331.009 25.3377 339.942C25.4167 340.511 25.5296 341.191 25.7384 341.752H27.5668C28.2665 335.282 28.7462 327.609 28.8139 320.312C28.8478 321.434 29.0961 329.41 28.0859 341.752H31.1107L31.4888 340.383L31.7766 339.381C31.7709 339.372 31.7709 339.353 31.7709 339.335C31.5395 336.054 31.3985 333.178 31.3025 330.706C31.0373 323.841 31.2292 320.184 31.2292 320.184C31.28 327.379 31.7483 334.942 32.4481 342L35.0044 341.752C33.2438 331.882 33.7799 326.341 33.8194 326.001C33.9435 333.187 35.3035 339.409 35.9356 341.963L37.8824 341.752C38.6443 341.743 39.1804 340.539 38.9434 339.326C37.9671 334.373 37.3407 329.346 37.036 324.328C36.2299 312.515 23.9939 308.729 23.0071 324.328Z" fill="#DD3434" stroke="#AF1E1E"/>
<path d="M36.2168 299.502L35.4254 297L27.187 300.467C22.6839 302.365 23.1389 306.126 24.235 310C28.6273 308.145 38.2705 306.041 36.2168 299.502Z" fill="#DD3434" stroke="#AF1E1E"/>
<path d="M32.7314 308.032C33.8986 308.419 35.0383 308.918 35.9533 309.397C36.8684 309.877 37.4181 310.286 37.4181 310.286C37.6668 309.583 37.6479 308.722 37.4189 307.939C35.6612 300.433 26.231 301.714 24.0038 306.041C23.7123 306.608 23.5742 307.016 23.5742 307.016C24.8563 307.87 26.9508 309.661 27.6532 309.759C28.0185 309.829 28.2706 309.736 28.5648 309.628C29.9633 308.603 30.6271 307.335 32.7314 308.032Z" fill="#DD3434" stroke="#AF1E1E"/>
<path d="M38.2047 316.398C41.0786 314.057 41.0304 310.474 38.2045 306.935C35.3785 303.395 29.4571 305.569 27.5224 311.741C28.879 315.21 36.9374 313.423 38.2047 316.398Z" fill="#DD3434" stroke="#AF1E1E"/>
<path d="M26.5588 305.076C26.6126 304.58 26.6664 304.134 26.7202 303.837C26.8277 303.539 26.8277 303.341 26.8277 303.341C25.6984 303.44 24.6228 303.985 23.7086 304.68C19.1602 308.38 21.5462 313.56 25.6984 316.381C26.7202 317.075 27.7957 317.471 28.6024 317.67C28.9788 317.769 29.3553 317.819 29.5704 317.868C29.7855 317.918 29.9468 317.918 29.9468 317.918C32.7474 313.151 26.2881 310.068 26.5588 305.076Z" fill="#DD3434" stroke="#AF1E1E"/>
<path d="M29.0632 313.826C29.0632 313.826 28.9018 313.826 28.6867 313.771C28.4716 313.717 28.1489 313.662 27.7187 313.552C26.912 313.333 25.8365 312.841 24.8147 312.129C23.7929 311.418 22.8787 310.432 22.2334 309.611C21.588 308.79 21.2116 308.188 21.2116 308.188C20.5125 308.9 20.0285 309.83 19.8134 310.87C19.5445 311.91 19.5445 313.114 19.8671 314.319C20.136 315.468 20.7276 316.618 21.5343 317.494C22.3409 318.369 23.3089 318.971 24.2769 319.245C24.2769 319.245 24.4383 319.3 24.7609 319.355C25.0836 319.409 25.5138 319.519 26.0516 319.574C27.1271 319.683 28.4716 319.628 29.7085 319.3C30.9453 318.971 31.8596 318.315 32.4511 317.712C32.72 317.439 32.9351 317.165 33.0427 317.001C33.1502 316.837 33.2578 316.727 33.2578 316.727C32.6125 315.413 32.5587 314.757 32.0209 314.373C31.4294 314.1 30.5152 313.99 29.0632 313.826Z" fill="#DD3434" stroke="#AF1E1E"/>
<path d="M29.6184 314.9C29.6184 314.9 29.5356 314.989 29.3344 315.098C29.1846 315.223 28.885 315.474 28.5652 315.604C27.8787 316.021 26.7649 316.363 25.4876 316.311C24.2462 316.328 22.9083 315.914 21.9104 315.491C21.4115 315.28 21.0311 315.048 20.738 314.9C20.4449 314.752 20.3062 314.652 20.3062 314.652C20.0607 315.663 20.1083 316.822 20.5473 317.988C20.9349 319.137 21.714 320.293 22.8083 321.147C23.3476 321.599 23.9182 321.947 24.5715 322.207C24.8646 322.354 25.1733 322.45 25.4821 322.545C25.7908 322.641 26.1152 322.684 26.4395 322.727C27.0883 322.813 27.6654 322.763 28.2424 322.712C28.7837 322.594 29.3406 322.422 29.8102 322.167C29.8102 322.167 29.96 322.042 30.2798 321.912C30.5481 321.766 30.9148 321.479 31.3486 321.155C32.1647 320.492 33.0746 319.515 33.7428 318.406C34.411 317.297 34.8421 316.229 35.0922 315.391C35.2173 314.972 35.2752 314.589 35.3377 314.38C35.3488 314.154 35.3957 313.997 35.3957 313.997C34.0174 313.342 32.9212 313.061 32.0914 313.204C31.2101 313.332 30.6468 313.902 29.6184 314.9Z" fill="#DD3434" stroke="#AF1E1E"/>
<path d="M30.472 313.271C30.4718 314.885 30.6217 316.446 30.1883 318.063C29.8656 319.322 29.2741 320.526 28.6825 321.402C28.3598 321.84 28.0909 322.223 27.8758 322.442C27.6607 322.661 27.4994 322.825 27.4994 322.825C28.4674 323.318 29.5967 323.427 30.726 323.318C31.8554 323.154 32.9847 322.771 33.899 322.114C38.5382 318.876 36.8316 313.877 34.4647 311.403C32.5632 310.314 30.9847 311.162 30.472 313.271Z" fill="#DD3434" stroke="#AF1E1E"/>
<path d="M35.4512 321.355C39.9189 320.092 40.5418 313.458 36.8751 311.166C33.2085 308.875 30.4585 311.625 30.4598 312.676C35.0443 313.546 36.8745 315.75 35.4512 321.355Z" fill="#DD3434" stroke="#AF1E1E"/>
</svg>
