<svg width="47" height="24" viewBox="0 0 47 24" fill="none" xmlns="http://www.w3.org/2000/svg">
<path d="M28.3283 5.00712C33.3367 4.69675 38.3358 4.076 43.2799 3.10538C43.3166 3.10538 43.335 3.09409 43.3534 3.09409C45.9594 2.56066 45.7519 4.39115 45.7519 6.16961C41.3868 7.23616 35.3216 8.12778 29.9917 8.21807C29.9917 8.21807 35.0092 8.78238 43.9415 7.33774C44.5113 7.41674 45.1913 7.5296 45.7519 7.7384L45.7519 9.56678C39.2824 10.2665 31.609 10.7462 24.3125 10.8139C25.4336 10.8478 33.4102 11.0961 45.7519 10.0859L45.7519 13.1107L44.3826 13.4888L43.381 13.7766C43.3718 13.7709 43.3534 13.7709 43.335 13.7709C40.0543 13.5395 37.1779 13.3985 34.7059 13.3025C27.8413 13.0373 24.1838 13.2292 24.1838 13.2292C31.3793 13.28 38.9424 13.7483 46 14.4481L45.7519 17.0044C35.8822 15.2438 30.3409 15.7799 30.0008 15.8194C37.1871 15.9435 43.4085 17.3035 45.9632 17.9356L45.7519 19.8824C45.7427 20.6443 44.5389 21.1804 43.3258 20.9434C38.3726 19.9671 33.3459 19.3407 28.3283 19.036C16.5152 18.2299 12.7288 5.99389 28.3283 5.00712Z" fill="#EDEDED" stroke="#D2D2D2"/>
<path d="M3.50239 18.2168L1 17.4254L4.46693 9.18698C6.36502 4.6839 10.1263 5.13893 14 6.23502C12.1445 10.6273 10.0411 20.2705 3.50239 18.2168Z" fill="#EDEDED" stroke="#D2D2D2"/>
<path d="M12.0309 14.7309C12.4175 15.8981 12.9162 17.0378 13.3957 17.9528C13.8751 18.8679 14.2849 19.4176 14.2849 19.4176C13.5812 19.6663 12.7209 19.6474 11.9379 19.4184C4.43146 17.6607 5.71292 8.23048 10.0398 6.00334C10.6062 5.71177 11.0142 5.57368 11.0142 5.57368C11.8686 6.85576 13.6594 8.95032 13.758 9.65268C13.8276 10.018 13.7348 10.2701 13.6266 10.5643C12.6014 11.9628 11.3338 12.6266 12.0309 14.7309Z" fill="#EDEDED" stroke="#D2D2D2"/>
<path d="M20.3984 20.2048C18.0571 23.0788 14.4744 23.0306 10.935 20.2046C7.39569 17.3786 9.56892 11.4572 15.7408 9.52255C19.21 10.8791 17.4237 18.9375 20.3984 20.2048Z" fill="#EDEDED" stroke="#D2D2D2"/>
<path d="M9.07517 8.55862C8.57936 8.6124 8.13314 8.66617 7.83565 8.71995C7.53817 8.8275 7.33984 8.82751 7.33984 8.82751C7.43901 7.69818 7.98437 6.62263 8.6785 5.70841C12.3786 1.16003 17.5588 3.54594 20.3796 7.69819C21.0737 8.71997 21.4703 9.7955 21.6687 10.6022C21.7678 10.9786 21.8174 11.3551 21.867 11.5702C21.9166 11.7853 21.9166 11.9466 21.9166 11.9466C17.1499 14.7472 14.0672 8.28789 9.07517 8.55862Z" fill="#EDEDED" stroke="#D2D2D2"/>
<path d="M17.8255 11.062C17.8255 11.062 17.8255 10.9007 17.7708 10.6855C17.7161 10.4704 17.6613 10.1478 17.5518 9.71755C17.3329 8.91088 16.8402 7.83531 16.1286 6.81354C15.4171 5.79176 14.4318 4.87754 13.6107 4.23221C12.7896 3.58688 12.1875 3.21042 12.1875 3.21042C12.8991 2.51131 13.8297 2.02732 14.8697 1.81221C15.9097 1.54332 17.1139 1.54331 18.3182 1.86597C19.4677 2.13486 20.6172 2.72644 21.493 3.5331C22.3688 4.33977 22.9709 5.30776 23.2446 6.27576C23.2446 6.27576 23.2993 6.43711 23.3541 6.75977C23.4088 7.08244 23.5183 7.51264 23.573 8.05042C23.6825 9.12597 23.6278 10.4704 23.2993 11.7073C22.9709 12.9442 22.3141 13.8584 21.7119 14.45C21.4383 14.7189 21.1646 14.934 21.0004 15.0415C20.8361 15.1491 20.7267 15.2567 20.7267 15.2567C19.4129 14.6113 18.7561 14.5575 18.3729 14.0198C18.0992 13.4282 17.9897 12.514 17.8255 11.062Z" fill="#EDEDED" stroke="#D2D2D2"/>
<path d="M18.8996 11.6172C18.8996 11.6172 18.9884 11.5345 19.0978 11.3332C19.2231 11.1834 19.4737 10.8838 19.6037 10.564C20.0207 9.87753 20.3629 8.76376 20.3112 7.48649C20.3279 6.24504 19.9142 4.90715 19.4913 3.90928C19.2798 3.41035 19.0478 3.02998 18.9 2.73687C18.7522 2.44376 18.652 2.30501 18.652 2.30501C19.6631 2.0595 20.822 2.1071 21.9875 2.54615C23.137 2.93375 24.2932 3.71283 25.1464 4.80711C25.5991 5.34644 25.9472 5.91703 26.2064 6.57034C26.3542 6.86345 26.4496 7.17218 26.5451 7.48092C26.6406 7.78966 26.6837 8.11401 26.7267 8.43838C26.8129 9.08712 26.7625 9.66421 26.7121 10.2413C26.5934 10.7825 26.4223 11.3394 26.167 11.809C26.167 11.809 26.0417 11.9588 25.9118 12.2786C25.7659 12.547 25.4788 12.9137 25.1552 13.3475C24.4922 14.1635 23.515 15.0734 22.4058 15.7416C21.2966 16.4099 20.2286 16.841 19.3906 17.0911C18.9716 17.2161 18.589 17.2741 18.3795 17.3366C18.1541 17.3476 17.997 17.3945 17.997 17.3945C17.342 16.0163 17.0603 14.92 17.2042 14.0902C17.3322 13.209 17.9017 12.6456 18.8996 11.6172Z" fill="#EDEDED" stroke="#D2D2D2"/>
<path d="M17.2716 12.4716C18.8854 12.4715 20.4459 12.6213 22.0634 12.1879C23.3223 11.8653 24.5266 11.2737 25.4024 10.6822C25.8403 10.3595 26.2235 10.0906 26.4424 9.8755C26.6614 9.66039 26.8256 9.49905 26.8256 9.49905C27.3182 10.467 27.4277 11.5964 27.3182 12.7257C27.154 13.855 26.7709 14.9844 26.114 15.8986C22.876 20.5379 17.8774 18.8312 15.4031 16.4643C14.3141 14.5629 15.1622 12.9843 17.2716 12.4716Z" fill="#EDEDED" stroke="#D2D2D2"/>
<path d="M25.3555 17.4509C24.0923 21.9186 17.4585 22.5415 15.1666 18.8749C12.8747 15.2083 15.6248 12.4582 16.6762 12.4595C17.546 17.044 19.7501 18.8742 25.3555 17.4509Z" fill="#EDEDED" stroke="#D2D2D2"/>
</svg>
