<svg width="60" height="407" viewBox="0 0 60 407" fill="none" xmlns="http://www.w3.org/2000/svg">
<path d="M36.2168 3.50239L35.4254 1L27.187 4.46693C22.6839 6.36502 23.1389 10.1263 24.235 14C28.6273 12.1445 38.2705 10.0411 36.2168 3.50239Z" fill="#58BF90" stroke="#329467"/>
<path d="M36.0456 21.452C35.597 20.3057 34.6002 19.1594 33.3044 18.4617C32.0086 17.7141 30.5135 17.3652 29.0681 17.3652C22.5428 17.4777 20.1119 24.9353 21.8913 30.2735C22.0408 30.7221 22.1904 31.071 22.29 31.3202C22.3897 31.5693 22.4395 31.7189 22.4395 31.7189C24.0842 31.4697 25.2305 31.1706 25.9282 30.5726C30.0917 27.45 29.427 21.452 36.0456 21.452Z" fill="#58BF90" stroke="#329467"/>
<path d="M41.6214 26.205C41.5446 24.9765 40.9458 23.5804 39.9252 22.5201C38.9198 21.4123 37.6028 20.6232 36.2266 20.1815C30.2519 18.377 24.3367 24.3974 26.484 30.1473C35.9625 33.6796 35.5165 24.2457 41.6214 26.205Z" fill="#58BF90" stroke="#329467"/>
<path d="M22.2864 22.1499C22.3861 21.9506 22.4858 21.7512 22.5356 21.5518C22.6851 21.2528 22.7848 21.0535 22.7848 21.0535C21.6883 20.8541 20.4424 21.0036 19.2961 21.502C18.1498 21.9506 17.0533 22.748 16.2559 23.6949C12.6562 28.1946 15.0844 34.2544 19.3459 37.4505C19.5452 37.6 19.7945 37.7495 19.9938 37.899C20.3925 38.1482 20.6915 38.3476 20.9407 38.4473C21.1899 38.5469 21.3394 38.5968 21.3394 38.5968C22.4857 37.4006 23.1336 36.5036 23.333 35.4569C24.0136 30.9194 21.0068 27.2683 22.2864 22.1499Z" fill="#58BF90" stroke="#329467"/>
<path d="M35.4948 30.1242C35.4948 30.1242 35.6443 30.0744 35.8935 29.9747C36.1427 29.875 36.4916 29.7753 36.9402 29.7255C37.8373 29.5261 39.1331 29.5261 40.4787 29.7753C41.8244 30.0245 43.2199 30.5727 44.2167 31.0711C44.7151 31.3203 45.1138 31.5695 45.4128 31.7689C45.7118 31.9682 45.8613 32.0679 45.8613 32.0679C46.26 31.0213 46.3099 29.8252 46.0607 28.629C45.8115 27.4329 45.2134 26.1869 44.3661 25.1901C43.5189 24.1435 42.4225 23.3461 41.2263 22.8477C40.0302 22.3493 38.7344 22.1998 37.5881 22.3992C37.5881 22.3992 37.3887 22.449 37.0398 22.4988C36.691 22.5985 36.1926 22.6982 35.6443 22.9474C35.0961 23.1467 34.4482 23.4458 33.8501 23.8445C33.2521 24.2432 32.7039 24.6917 32.2055 25.1901C31.2585 26.1869 30.8099 27.3831 30.6604 28.2303C30.6106 28.6789 30.6106 28.9779 30.6604 29.2271C30.7103 29.4763 30.7103 29.576 30.7103 29.576C31.9064 30.4232 32.355 31.0711 32.7039 31.0711C32.8534 31.0711 33.2022 30.9715 33.6009 30.7721C34.2987 30.6226 34.8968 30.3734 35.4948 30.1242Z" fill="#58BF90" stroke="#329467"/>
<path d="M36.2129 11.5024L35.4215 9L27.1831 12.4669C22.68 14.365 23.135 18.1263 24.2311 22C28.6234 20.1445 38.2666 18.0411 36.2129 11.5024Z" fill="#58BF90" stroke="#329467"/>
<path d="M36.2129 19.5024L35.4215 17L27.1831 20.4669C22.68 22.365 23.135 26.1263 24.2311 30C28.6234 28.1445 38.2666 26.0411 36.2129 19.5024Z" fill="#58BF90" stroke="#329467"/>
<path d="M36.2129 27.5024L35.4215 25L27.1831 28.4669C22.68 30.365 23.135 34.1263 24.2311 38C28.6234 36.1445 38.2666 34.0411 36.2129 27.5024Z" fill="#58BF90" stroke="#329467"/>
<path d="M36.2129 35.5024L35.4215 33L27.1831 36.4669C22.68 38.365 23.135 42.1263 24.2311 46C28.6234 44.1445 38.2666 42.0411 36.2129 35.5024Z" fill="#58BF90" stroke="#329467"/>
<path d="M36.2129 43.5024L35.4215 41L27.1831 44.4669C22.68 46.365 23.135 50.1263 24.2311 54C28.6234 52.1445 38.2666 50.0411 36.2129 43.5024Z" fill="#58BF90" stroke="#329467"/>
<path d="M36.2129 51.5024L35.4215 49L27.1831 52.4669C22.68 54.365 23.135 58.1263 24.2311 62C28.6234 60.1445 38.2666 58.0411 36.2129 51.5024Z" fill="#58BF90" stroke="#329467"/>
<path d="M14.7621 30.872C14.6624 30.5231 14.6126 30.3736 14.6126 30.3736C12.7187 31.4701 11.4229 33.8125 11.373 36.3543C11.373 42.5111 17.9912 45.8999 23.5836 44.4282C24.0321 44.3285 24.381 44.2288 24.6302 44.1291C24.8794 44.0295 25.0289 43.9796 25.0289 43.9796C24.6912 38.2384 16.5082 36.9832 14.7621 30.872Z" fill="#58BF90" stroke="#329467"/>
<path d="M25.0309 43.9299C25.0309 43.9299 24.8814 43.9798 24.6322 44.0794C24.383 44.1791 24.0341 44.2788 23.5856 44.3785C22.6885 44.5778 21.3927 44.7273 19.9972 44.6277C19.2995 44.5778 18.6515 44.4283 17.9538 44.2289C17.3059 44.0296 16.7078 43.7804 16.1596 43.581C15.6612 43.3319 15.2126 43.0827 14.9136 42.9331C14.6146 42.7338 14.4152 42.6341 14.4152 42.6341C14.2657 43.1823 14.2159 43.7306 14.166 44.3286C14.166 44.9267 14.2657 45.5248 14.465 46.1727C14.6146 46.7707 14.9136 47.3688 15.2126 47.917C15.5117 48.4653 15.9602 48.9637 16.4088 49.462C16.8573 49.9106 17.3557 50.3093 17.9039 50.6582C18.4522 51.0071 19.0004 51.2562 19.5985 51.4556C20.1965 51.655 20.7448 51.7546 21.3428 51.8045C21.9409 51.8543 22.4892 51.7546 22.9876 51.655C22.9876 51.655 23.1869 51.6051 23.4859 51.5054C23.8348 51.4057 24.2833 51.2562 24.8316 51.1067C25.8782 50.708 27.2238 50.0601 28.3203 49.2627C28.8685 48.864 29.3669 48.4154 29.8155 48.0167C30.264 47.5681 30.6129 47.1694 30.8621 46.7707C31.4103 45.9733 31.6595 45.4749 31.6595 45.4749C30.563 44.2289 29.7158 43.5312 28.719 43.3319C27.7223 43.1325 26.5759 43.3319 25.0309 43.9299Z" fill="#58BF90" stroke="#329467"/>
<path d="M31.6583 45.5247C31.6583 45.5247 31.4091 46.0231 30.8609 46.8205C30.5618 47.1694 30.213 47.6179 29.8142 48.0665C29.3657 48.4652 28.8673 48.9137 28.3191 49.3125C27.2226 50.1099 25.877 50.7578 24.8303 51.1565C24.2821 51.3559 23.8336 51.5054 23.4847 51.5552C23.1358 51.6549 22.9863 51.6549 22.9863 51.6549C23.2355 52.1533 23.5843 52.6018 23.9332 53.0005C24.3319 53.4491 24.7805 53.798 25.2789 54.097C25.7773 54.4459 26.3255 54.6951 26.9236 54.8944C27.5216 55.0938 28.1197 55.1935 28.7676 55.2931C30.0136 55.3928 31.3593 55.1934 32.5056 54.7449C33.6519 54.2465 34.6486 53.5488 35.2965 52.6018C35.2965 52.6018 35.3962 52.4523 35.5956 52.1533C35.7949 51.9041 36.0441 51.4057 36.2933 50.9073C36.8415 49.9105 37.3399 48.4652 37.5393 47.1195C37.7386 45.7739 37.6888 44.4781 37.4895 43.5311C37.3898 43.0826 37.2901 42.6839 37.2403 42.4347C37.1406 42.1855 37.0907 42.0359 37.0907 42.0359C35.446 42.0359 34.2998 42.1356 33.5522 42.634C33.3528 42.7337 33.2033 42.8832 33.004 43.0826C32.8544 43.2321 32.7049 43.4315 32.5554 43.6807C32.4059 43.88 32.2563 44.179 32.1068 44.4781C32.0071 44.8269 31.8576 45.126 31.6583 45.5247Z" fill="#58BF90" stroke="#329467"/>
<path d="M37.1868 42.1355C37.1868 42.1355 37.2366 42.285 37.3363 42.5342C37.3861 42.7834 37.4858 43.1323 37.5855 43.6306C37.735 44.5277 37.8347 45.8236 37.6353 47.2191C37.436 48.5647 36.9376 50.01 36.3894 51.0068C36.1402 51.5052 35.8412 51.9537 35.6917 52.2528C35.4923 52.5518 35.3926 52.7013 35.3926 52.7013C35.6418 52.801 35.9408 52.9007 36.2399 52.9505C36.5389 53.0004 36.8379 53.0004 37.1369 53.0502C37.436 53.0502 37.735 53.0502 38.0839 53.0502C38.3829 53.0004 38.682 52.9506 38.981 52.9007C40.1772 52.6017 41.3733 52.0036 42.37 51.1563C43.3668 50.3091 44.1144 49.2126 44.563 48.1162C45.0115 46.9699 45.1611 45.7737 44.9617 44.6773C44.9617 44.6773 44.9118 44.4779 44.862 44.129C44.8121 43.7802 44.6627 43.3316 44.5131 42.7834C44.1643 41.6869 43.5662 40.3413 42.7688 39.195C41.9713 38.0487 40.9746 37.2014 40.227 36.6532C39.8283 36.404 39.5292 36.2046 39.28 36.0551C39.0308 35.9056 38.9312 35.8558 38.9312 35.8558C37.7351 37.0021 37.0373 37.8493 36.8379 38.6966C36.4392 39.4442 36.6884 40.5406 37.1868 42.1355Z" fill="#58BF90" stroke="#329467"/>
<path d="M44.7142 44.0295C44.764 44.3784 44.8138 44.5777 44.8138 44.5777C45.8106 44.1292 46.7078 43.2819 47.4055 42.2353C48.1033 41.1887 48.5019 39.8929 48.6016 38.5971C48.7013 37.3012 48.5019 35.9556 48.0035 34.8591C45.9306 30.0914 42.9894 28.4266 36.7663 29.6467C35.5058 31.9646 35.4441 32.8656 35.8927 33.663C38.5979 37.8712 43.6459 37.6198 44.7142 44.0295Z" fill="#58BF90" stroke="#329467"/>
<path d="M36.2168 59.5024L35.4254 57L27.187 60.4669C22.6839 62.365 23.1389 66.1263 24.235 70C28.6273 68.1445 38.2705 66.0411 36.2168 59.5024Z" fill="#58BF90" stroke="#329467"/>
<path d="M36.2168 67.5024L35.4254 65L27.187 68.4669C22.6839 70.365 23.1389 74.1263 24.235 78C28.6273 76.1445 38.2705 74.0411 36.2168 67.5024Z" fill="#58BF90" stroke="#329467"/>
<path d="M36.2168 75.5024L35.4254 73L27.187 76.4669C22.6839 78.365 23.1389 82.1263 24.235 86C28.6273 84.1445 38.2705 82.0411 36.2168 75.5024Z" fill="#58BF90" stroke="#329467"/>
<path d="M36.2168 83.5024L35.4254 81L27.187 84.4669C22.6839 86.365 23.1389 90.1263 24.235 94C28.6273 92.1445 38.2705 90.0411 36.2168 83.5024Z" fill="#58BF90" stroke="#329467"/>
<path d="M36.2168 91.5024L35.4254 89L27.187 92.4669C22.6839 94.365 23.1389 98.1263 24.235 102C28.6273 100.145 38.2705 98.0411 36.2168 91.5024Z" fill="#58BF90" stroke="#329467"/>
<path d="M36.2168 99.5024L35.4254 97L27.187 100.467C22.6839 102.365 23.1389 106.126 24.235 110C28.6273 108.145 38.2705 106.041 36.2168 99.5024Z" fill="#58BF90" stroke="#329467"/>
<path d="M36.0456 165.452C35.597 164.306 34.6002 163.159 33.3044 162.462C32.0086 161.714 30.5135 161.365 29.0681 161.365C22.5428 161.478 20.1119 168.935 21.8913 174.274C22.0408 174.722 22.1904 175.071 22.29 175.32C22.3897 175.569 22.4395 175.719 22.4395 175.719C24.0842 175.47 25.2305 175.171 25.9282 174.573C30.0917 171.45 29.427 165.452 36.0456 165.452Z" fill="#58BF90" stroke="#329467"/>
<path d="M41.6214 170.205C41.5446 168.976 40.9458 167.58 39.9252 166.52C38.9198 165.412 37.6028 164.623 36.2266 164.182C30.2519 162.377 24.3367 168.397 26.484 174.147C35.9625 177.68 35.5165 168.246 41.6214 170.205Z" fill="#58BF90" stroke="#329467"/>
<path d="M22.2864 166.15C22.3861 165.951 22.4858 165.751 22.5356 165.552C22.6851 165.253 22.7848 165.053 22.7848 165.053C21.6883 164.854 20.4424 165.004 19.2961 165.502C18.1498 165.951 17.0533 166.748 16.2559 167.695C12.6562 172.195 15.0844 178.254 19.3459 181.45C19.5452 181.6 19.7945 181.75 19.9938 181.899C20.3925 182.148 20.6915 182.348 20.9407 182.447C21.1899 182.547 21.3394 182.597 21.3394 182.597C22.4857 181.401 23.1336 180.504 23.333 179.457C24.0136 174.919 21.0068 171.268 22.2864 166.15Z" fill="#58BF90" stroke="#329467"/>
<path d="M35.4948 174.124C35.4948 174.124 35.6443 174.074 35.8935 173.975C36.1427 173.875 36.4916 173.775 36.9402 173.725C37.8373 173.526 39.1331 173.526 40.4787 173.775C41.8244 174.025 43.2199 174.573 44.2167 175.071C44.7151 175.32 45.1138 175.57 45.4128 175.769C45.7118 175.968 45.8613 176.068 45.8613 176.068C46.26 175.021 46.3099 173.825 46.0607 172.629C45.8115 171.433 45.2134 170.187 44.3661 169.19C43.5189 168.144 42.4225 167.346 41.2263 166.848C40.0302 166.349 38.7344 166.2 37.5881 166.399C37.5881 166.399 37.3887 166.449 37.0398 166.499C36.691 166.599 36.1926 166.698 35.6443 166.947C35.0961 167.147 34.4482 167.446 33.8501 167.844C33.2521 168.243 32.7039 168.692 32.2055 169.19C31.2585 170.187 30.8099 171.383 30.6604 172.23C30.6106 172.679 30.6106 172.978 30.6604 173.227C30.7103 173.476 30.7103 173.576 30.7103 173.576C31.9064 174.423 32.355 175.071 32.7039 175.071C32.8534 175.071 33.2022 174.971 33.6009 174.772C34.2987 174.623 34.8968 174.373 35.4948 174.124Z" fill="#58BF90" stroke="#329467"/>
<path d="M36.2129 155.502L35.4215 153L27.1831 156.467C22.68 158.365 23.135 162.126 24.2311 166C28.6234 164.145 38.2666 162.041 36.2129 155.502Z" fill="#58BF90" stroke="#329467"/>
<path d="M36.2129 163.502L35.4215 161L27.1831 164.467C22.68 166.365 23.135 170.126 24.2311 174C28.6234 172.145 38.2666 170.041 36.2129 163.502Z" fill="#58BF90" stroke="#329467"/>
<path d="M36.2129 171.502L35.4215 169L27.1831 172.467C22.68 174.365 23.135 178.126 24.2311 182C28.6234 180.145 38.2666 178.041 36.2129 171.502Z" fill="#58BF90" stroke="#329467"/>
<path d="M36.2129 179.502L35.4215 177L27.1831 180.467C22.68 182.365 23.135 186.126 24.2311 190C28.6234 188.145 38.2666 186.041 36.2129 179.502Z" fill="#58BF90" stroke="#329467"/>
<path d="M36.2129 187.502L35.4215 185L27.1831 188.467C22.68 190.365 23.135 194.126 24.2311 198C28.6234 196.145 38.2666 194.041 36.2129 187.502Z" fill="#58BF90" stroke="#329467"/>
<path d="M36.2129 195.502L35.4215 193L27.1831 196.467C22.68 198.365 23.135 202.126 24.2311 206C28.6234 204.145 38.2666 202.041 36.2129 195.502Z" fill="#58BF90" stroke="#329467"/>
<path d="M14.7621 174.872C14.6624 174.523 14.6126 174.374 14.6126 174.374C12.7187 175.47 11.4229 177.812 11.373 180.354C11.373 186.511 17.9912 189.9 23.5836 188.428C24.0321 188.329 24.381 188.229 24.6302 188.129C24.8794 188.029 25.0289 187.98 25.0289 187.98C24.6912 182.238 16.5082 180.983 14.7621 174.872Z" fill="#58BF90" stroke="#329467"/>
<path d="M25.0309 187.93C25.0309 187.93 24.8814 187.98 24.6322 188.079C24.383 188.179 24.0341 188.279 23.5856 188.378C22.6885 188.578 21.3927 188.727 19.9972 188.628C19.2995 188.578 18.6515 188.428 17.9538 188.229C17.3059 188.03 16.7078 187.78 16.1596 187.581C15.6612 187.332 15.2126 187.083 14.9136 186.933C14.6146 186.734 14.4152 186.634 14.4152 186.634C14.2657 187.182 14.2159 187.731 14.166 188.329C14.166 188.927 14.2657 189.525 14.465 190.173C14.6146 190.771 14.9136 191.369 15.2126 191.917C15.5117 192.465 15.9602 192.964 16.4088 193.462C16.8573 193.911 17.3557 194.309 17.9039 194.658C18.4522 195.007 19.0004 195.256 19.5985 195.456C20.1965 195.655 20.7448 195.755 21.3428 195.804C21.9409 195.854 22.4892 195.755 22.9876 195.655C22.9876 195.655 23.1869 195.605 23.4859 195.505C23.8348 195.406 24.2833 195.256 24.8316 195.107C25.8782 194.708 27.2238 194.06 28.3203 193.263C28.8685 192.864 29.3669 192.415 29.8155 192.017C30.264 191.568 30.6129 191.169 30.8621 190.771C31.4103 189.973 31.6595 189.475 31.6595 189.475C30.563 188.229 29.7158 187.531 28.719 187.332C27.7223 187.132 26.5759 187.332 25.0309 187.93Z" fill="#58BF90" stroke="#329467"/>
<path d="M31.6583 189.525C31.6583 189.525 31.4091 190.023 30.8609 190.821C30.5618 191.169 30.213 191.618 29.8142 192.066C29.3657 192.465 28.8673 192.914 28.3191 193.312C27.2226 194.11 25.877 194.758 24.8303 195.157C24.2821 195.356 23.8336 195.505 23.4847 195.555C23.1358 195.655 22.9863 195.655 22.9863 195.655C23.2355 196.153 23.5843 196.602 23.9332 197.001C24.3319 197.449 24.7805 197.798 25.2789 198.097C25.7773 198.446 26.3255 198.695 26.9236 198.894C27.5216 199.094 28.1197 199.193 28.7676 199.293C30.0136 199.393 31.3593 199.193 32.5056 198.745C33.6519 198.247 34.6486 197.549 35.2965 196.602C35.2965 196.602 35.3962 196.452 35.5956 196.153C35.7949 195.904 36.0441 195.406 36.2933 194.907C36.8415 193.911 37.3399 192.465 37.5393 191.12C37.7386 189.774 37.6888 188.478 37.4895 187.531C37.3898 187.083 37.2901 186.684 37.2403 186.435C37.1406 186.185 37.0907 186.036 37.0907 186.036C35.446 186.036 34.2998 186.136 33.5522 186.634C33.3528 186.734 33.2033 186.883 33.004 187.083C32.8544 187.232 32.7049 187.431 32.5554 187.681C32.4059 187.88 32.2563 188.179 32.1068 188.478C32.0071 188.827 31.8576 189.126 31.6583 189.525Z" fill="#58BF90" stroke="#329467"/>
<path d="M37.1868 186.135C37.1868 186.135 37.2366 186.285 37.3363 186.534C37.3861 186.783 37.4858 187.132 37.5855 187.631C37.735 188.528 37.8347 189.824 37.6353 191.219C37.436 192.565 36.9376 194.01 36.3894 195.007C36.1402 195.505 35.8412 195.954 35.6917 196.253C35.4923 196.552 35.3926 196.701 35.3926 196.701C35.6418 196.801 35.9408 196.901 36.2399 196.951C36.5389 197 36.8379 197 37.1369 197.05C37.436 197.05 37.735 197.05 38.0839 197.05C38.3829 197 38.682 196.951 38.981 196.901C40.1772 196.602 41.3733 196.004 42.37 195.156C43.3668 194.309 44.1144 193.213 44.563 192.116C45.0115 190.97 45.1611 189.774 44.9617 188.677C44.9617 188.677 44.9118 188.478 44.862 188.129C44.8121 187.78 44.6627 187.332 44.5131 186.783C44.1643 185.687 43.5662 184.341 42.7688 183.195C41.9713 182.049 40.9746 181.201 40.227 180.653C39.8283 180.404 39.5292 180.205 39.28 180.055C39.0308 179.906 38.9312 179.856 38.9312 179.856C37.7351 181.002 37.0373 181.849 36.8379 182.697C36.4392 183.444 36.6884 184.541 37.1868 186.135Z" fill="#58BF90" stroke="#329467"/>
<path d="M44.7142 188.029C44.764 188.378 44.8138 188.578 44.8138 188.578C45.8106 188.129 46.7078 187.282 47.4055 186.235C48.1033 185.189 48.5019 183.893 48.6016 182.597C48.7013 181.301 48.5019 179.956 48.0035 178.859C45.9306 174.091 42.9894 172.427 36.7663 173.647C35.5058 175.965 35.4441 176.866 35.8927 177.663C38.5979 181.871 43.6459 181.62 44.7142 188.029Z" fill="#58BF90" stroke="#329467"/>
<path d="M36.0456 141.452C35.597 140.306 34.6002 139.159 33.3044 138.462C32.0086 137.714 30.5135 137.365 29.0681 137.365C22.5428 137.478 20.1119 144.935 21.8913 150.274C22.0408 150.722 22.1904 151.071 22.29 151.32C22.3897 151.569 22.4395 151.719 22.4395 151.719C24.0842 151.47 25.2305 151.171 25.9282 150.573C30.0917 147.45 29.427 141.452 36.0456 141.452Z" fill="#58BF90" stroke="#329467"/>
<path d="M41.6214 146.205C41.5446 144.976 40.9458 143.58 39.9252 142.52C38.9198 141.412 37.6028 140.623 36.2266 140.182C30.2519 138.377 24.3367 144.397 26.484 150.147C35.9625 153.68 35.5165 144.246 41.6214 146.205Z" fill="#58BF90" stroke="#329467"/>
<path d="M22.2864 142.15C22.3861 141.951 22.4858 141.751 22.5356 141.552C22.6851 141.253 22.7848 141.053 22.7848 141.053C21.6883 140.854 20.4424 141.004 19.2961 141.502C18.1498 141.951 17.0533 142.748 16.2559 143.695C12.6562 148.195 15.0844 154.254 19.3459 157.45C19.5452 157.6 19.7945 157.75 19.9938 157.899C20.3925 158.148 20.6915 158.348 20.9407 158.447C21.1899 158.547 21.3394 158.597 21.3394 158.597C22.4857 157.401 23.1336 156.504 23.333 155.457C24.0136 150.919 21.0068 147.268 22.2864 142.15Z" fill="#58BF90" stroke="#329467"/>
<path d="M35.4948 150.124C35.4948 150.124 35.6443 150.074 35.8935 149.975C36.1427 149.875 36.4916 149.775 36.9402 149.725C37.8373 149.526 39.1331 149.526 40.4787 149.775C41.8244 150.025 43.2199 150.573 44.2167 151.071C44.7151 151.32 45.1138 151.57 45.4128 151.769C45.7118 151.968 45.8613 152.068 45.8613 152.068C46.26 151.021 46.3099 149.825 46.0607 148.629C45.8115 147.433 45.2134 146.187 44.3661 145.19C43.5189 144.144 42.4225 143.346 41.2263 142.848C40.0302 142.349 38.7344 142.2 37.5881 142.399C37.5881 142.399 37.3887 142.449 37.0398 142.499C36.691 142.599 36.1926 142.698 35.6443 142.947C35.0961 143.147 34.4482 143.446 33.8501 143.844C33.2521 144.243 32.7039 144.692 32.2055 145.19C31.2585 146.187 30.8099 147.383 30.6604 148.23C30.6106 148.679 30.6106 148.978 30.6604 149.227C30.7103 149.476 30.7103 149.576 30.7103 149.576C31.9064 150.423 32.355 151.071 32.7039 151.071C32.8534 151.071 33.2022 150.971 33.6009 150.772C34.2987 150.623 34.8968 150.373 35.4948 150.124Z" fill="#58BF90" stroke="#329467"/>
<path d="M36.2129 131.502L35.4215 129L27.1831 132.467C22.68 134.365 23.135 138.126 24.2311 142C28.6234 140.145 38.2666 138.041 36.2129 131.502Z" fill="#58BF90" stroke="#329467"/>
<path d="M36.2129 139.502L35.4215 137L27.1831 140.467C22.68 142.365 23.135 146.126 24.2311 150C28.6234 148.145 38.2666 146.041 36.2129 139.502Z" fill="#58BF90" stroke="#329467"/>
<path d="M36.2129 147.502L35.4215 145L27.1831 148.467C22.68 150.365 23.135 154.126 24.2311 158C28.6234 156.145 38.2666 154.041 36.2129 147.502Z" fill="#58BF90" stroke="#329467"/>
<path d="M36.2129 155.502L35.4215 153L27.1831 156.467C22.68 158.365 23.135 162.126 24.2311 166C28.6234 164.145 38.2666 162.041 36.2129 155.502Z" fill="#58BF90" stroke="#329467"/>
<path d="M36.2129 163.502L35.4215 161L27.1831 164.467C22.68 166.365 23.135 170.126 24.2311 174C28.6234 172.145 38.2666 170.041 36.2129 163.502Z" fill="#58BF90" stroke="#329467"/>
<path d="M36.2129 171.502L35.4215 169L27.1831 172.467C22.68 174.365 23.135 178.126 24.2311 182C28.6234 180.145 38.2666 178.041 36.2129 171.502Z" fill="#58BF90" stroke="#329467"/>
<path d="M14.7621 150.872C14.6624 150.523 14.6126 150.374 14.6126 150.374C12.7187 151.47 11.4229 153.812 11.373 156.354C11.373 162.511 17.9912 165.9 23.5836 164.428C24.0321 164.329 24.381 164.229 24.6302 164.129C24.8794 164.029 25.0289 163.98 25.0289 163.98C24.6912 158.238 16.5082 156.983 14.7621 150.872Z" fill="#58BF90" stroke="#329467"/>
<path d="M25.0309 163.93C25.0309 163.93 24.8814 163.98 24.6322 164.079C24.383 164.179 24.0341 164.279 23.5856 164.378C22.6885 164.578 21.3927 164.727 19.9972 164.628C19.2995 164.578 18.6515 164.428 17.9538 164.229C17.3059 164.03 16.7078 163.78 16.1596 163.581C15.6612 163.332 15.2126 163.083 14.9136 162.933C14.6146 162.734 14.4152 162.634 14.4152 162.634C14.2657 163.182 14.2159 163.731 14.166 164.329C14.166 164.927 14.2657 165.525 14.465 166.173C14.6146 166.771 14.9136 167.369 15.2126 167.917C15.5117 168.465 15.9602 168.964 16.4088 169.462C16.8573 169.911 17.3557 170.309 17.9039 170.658C18.4522 171.007 19.0004 171.256 19.5985 171.456C20.1965 171.655 20.7448 171.755 21.3428 171.804C21.9409 171.854 22.4892 171.755 22.9876 171.655C22.9876 171.655 23.1869 171.605 23.4859 171.505C23.8348 171.406 24.2833 171.256 24.8316 171.107C25.8782 170.708 27.2238 170.06 28.3203 169.263C28.8685 168.864 29.3669 168.415 29.8155 168.017C30.264 167.568 30.6129 167.169 30.8621 166.771C31.4103 165.973 31.6595 165.475 31.6595 165.475C30.563 164.229 29.7158 163.531 28.719 163.332C27.7223 163.132 26.5759 163.332 25.0309 163.93Z" fill="#58BF90" stroke="#329467"/>
<path d="M31.6583 165.525C31.6583 165.525 31.4091 166.023 30.8609 166.821C30.5618 167.169 30.213 167.618 29.8142 168.066C29.3657 168.465 28.8673 168.914 28.3191 169.312C27.2226 170.11 25.877 170.758 24.8303 171.157C24.2821 171.356 23.8336 171.505 23.4847 171.555C23.1358 171.655 22.9863 171.655 22.9863 171.655C23.2355 172.153 23.5843 172.602 23.9332 173.001C24.3319 173.449 24.7805 173.798 25.2789 174.097C25.7773 174.446 26.3255 174.695 26.9236 174.894C27.5216 175.094 28.1197 175.193 28.7676 175.293C30.0136 175.393 31.3593 175.193 32.5056 174.745C33.6519 174.247 34.6486 173.549 35.2965 172.602C35.2965 172.602 35.3962 172.452 35.5956 172.153C35.7949 171.904 36.0441 171.406 36.2933 170.907C36.8415 169.911 37.3399 168.465 37.5393 167.12C37.7386 165.774 37.6888 164.478 37.4895 163.531C37.3898 163.083 37.2901 162.684 37.2403 162.435C37.1406 162.185 37.0907 162.036 37.0907 162.036C35.446 162.036 34.2998 162.136 33.5522 162.634C33.3528 162.734 33.2033 162.883 33.004 163.083C32.8544 163.232 32.7049 163.431 32.5554 163.681C32.4059 163.88 32.2563 164.179 32.1068 164.478C32.0071 164.827 31.8576 165.126 31.6583 165.525Z" fill="#58BF90" stroke="#329467"/>
<path d="M37.1868 162.135C37.1868 162.135 37.2366 162.285 37.3363 162.534C37.3861 162.783 37.4858 163.132 37.5855 163.631C37.735 164.528 37.8347 165.824 37.6353 167.219C37.436 168.565 36.9376 170.01 36.3894 171.007C36.1402 171.505 35.8412 171.954 35.6917 172.253C35.4923 172.552 35.3926 172.701 35.3926 172.701C35.6418 172.801 35.9408 172.901 36.2399 172.951C36.5389 173 36.8379 173 37.1369 173.05C37.436 173.05 37.735 173.05 38.0839 173.05C38.3829 173 38.682 172.951 38.981 172.901C40.1772 172.602 41.3733 172.004 42.37 171.156C43.3668 170.309 44.1144 169.213 44.563 168.116C45.0115 166.97 45.1611 165.774 44.9617 164.677C44.9617 164.677 44.9118 164.478 44.862 164.129C44.8121 163.78 44.6627 163.332 44.5131 162.783C44.1643 161.687 43.5662 160.341 42.7688 159.195C41.9713 158.049 40.9746 157.201 40.227 156.653C39.8283 156.404 39.5292 156.205 39.28 156.055C39.0308 155.906 38.9312 155.856 38.9312 155.856C37.7351 157.002 37.0373 157.849 36.8379 158.697C36.4392 159.444 36.6884 160.541 37.1868 162.135Z" fill="#58BF90" stroke="#329467"/>
<path d="M44.7142 164.029C44.764 164.378 44.8138 164.578 44.8138 164.578C45.8106 164.129 46.7078 163.282 47.4055 162.235C48.1033 161.189 48.5019 159.893 48.6016 158.597C48.7013 157.301 48.5019 155.956 48.0035 154.859C45.9306 150.091 42.9894 148.427 36.7663 149.647C35.5058 151.965 35.4441 152.866 35.8927 153.663C38.5979 157.871 43.6459 157.62 44.7142 164.029Z" fill="#58BF90" stroke="#329467"/>
<path d="M36.0456 117.452C35.597 116.306 34.6002 115.159 33.3044 114.462C32.0086 113.714 30.5135 113.365 29.0681 113.365C22.5428 113.478 20.1119 120.935 21.8913 126.274C22.0408 126.722 22.1904 127.071 22.29 127.32C22.3897 127.569 22.4395 127.719 22.4395 127.719C24.0842 127.47 25.2305 127.171 25.9282 126.573C30.0917 123.45 29.427 117.452 36.0456 117.452Z" fill="#58BF90" stroke="#329467"/>
<path d="M41.6214 122.205C41.5446 120.976 40.9458 119.58 39.9252 118.52C38.9198 117.412 37.6028 116.623 36.2266 116.182C30.2519 114.377 24.3367 120.397 26.484 126.147C35.9625 129.68 35.5165 120.246 41.6214 122.205Z" fill="#58BF90" stroke="#329467"/>
<path d="M22.2864 118.15C22.3861 117.951 22.4858 117.751 22.5356 117.552C22.6851 117.253 22.7848 117.053 22.7848 117.053C21.6883 116.854 20.4424 117.004 19.2961 117.502C18.1498 117.951 17.0533 118.748 16.2559 119.695C12.6562 124.195 15.0844 130.254 19.3459 133.45C19.5452 133.6 19.7945 133.75 19.9938 133.899C20.3925 134.148 20.6915 134.348 20.9407 134.447C21.1899 134.547 21.3394 134.597 21.3394 134.597C22.4857 133.401 23.1336 132.504 23.333 131.457C24.0136 126.919 21.0068 123.268 22.2864 118.15Z" fill="#58BF90" stroke="#329467"/>
<path d="M35.4948 126.124C35.4948 126.124 35.6443 126.074 35.8935 125.975C36.1427 125.875 36.4916 125.775 36.9402 125.725C37.8373 125.526 39.1331 125.526 40.4787 125.775C41.8244 126.025 43.2199 126.573 44.2167 127.071C44.7151 127.32 45.1138 127.57 45.4128 127.769C45.7118 127.968 45.8613 128.068 45.8613 128.068C46.26 127.021 46.3099 125.825 46.0607 124.629C45.8115 123.433 45.2134 122.187 44.3661 121.19C43.5189 120.144 42.4225 119.346 41.2263 118.848C40.0302 118.349 38.7344 118.2 37.5881 118.399C37.5881 118.399 37.3887 118.449 37.0398 118.499C36.691 118.599 36.1926 118.698 35.6443 118.947C35.0961 119.147 34.4482 119.446 33.8501 119.844C33.2521 120.243 32.7039 120.692 32.2055 121.19C31.2585 122.187 30.8099 123.383 30.6604 124.23C30.6106 124.679 30.6106 124.978 30.6604 125.227C30.7103 125.476 30.7103 125.576 30.7103 125.576C31.9064 126.423 32.355 127.071 32.7039 127.071C32.8534 127.071 33.2022 126.971 33.6009 126.772C34.2987 126.623 34.8968 126.373 35.4948 126.124Z" fill="#58BF90" stroke="#329467"/>
<path d="M36.2129 107.502L35.4215 105L27.1831 108.467C22.68 110.365 23.135 114.126 24.2311 118C28.6234 116.145 38.2666 114.041 36.2129 107.502Z" fill="#58BF90" stroke="#329467"/>
<path d="M36.2129 115.502L35.4215 113L27.1831 116.467C22.68 118.365 23.135 122.126 24.2311 126C28.6234 124.145 38.2666 122.041 36.2129 115.502Z" fill="#58BF90" stroke="#329467"/>
<path d="M36.2129 123.502L35.4215 121L27.1831 124.467C22.68 126.365 23.135 130.126 24.2311 134C28.6234 132.145 38.2666 130.041 36.2129 123.502Z" fill="#58BF90" stroke="#329467"/>
<path d="M36.2129 131.502L35.4215 129L27.1831 132.467C22.68 134.365 23.135 138.126 24.2311 142C28.6234 140.145 38.2666 138.041 36.2129 131.502Z" fill="#58BF90" stroke="#329467"/>
<path d="M36.2129 139.502L35.4215 137L27.1831 140.467C22.68 142.365 23.135 146.126 24.2311 150C28.6234 148.145 38.2666 146.041 36.2129 139.502Z" fill="#58BF90" stroke="#329467"/>
<path d="M36.2129 147.502L35.4215 145L27.1831 148.467C22.68 150.365 23.135 154.126 24.2311 158C28.6234 156.145 38.2666 154.041 36.2129 147.502Z" fill="#58BF90" stroke="#329467"/>
<path d="M14.7621 126.872C14.6624 126.523 14.6126 126.374 14.6126 126.374C12.7187 127.47 11.4229 129.812 11.373 132.354C11.373 138.511 17.9912 141.9 23.5836 140.428C24.0321 140.329 24.381 140.229 24.6302 140.129C24.8794 140.029 25.0289 139.98 25.0289 139.98C24.6912 134.238 16.5082 132.983 14.7621 126.872Z" fill="#58BF90" stroke="#329467"/>
<path d="M25.0309 139.93C25.0309 139.93 24.8814 139.98 24.6322 140.079C24.383 140.179 24.0341 140.279 23.5856 140.378C22.6885 140.578 21.3927 140.727 19.9972 140.628C19.2995 140.578 18.6515 140.428 17.9538 140.229C17.3059 140.03 16.7078 139.78 16.1596 139.581C15.6612 139.332 15.2126 139.083 14.9136 138.933C14.6146 138.734 14.4152 138.634 14.4152 138.634C14.2657 139.182 14.2159 139.731 14.166 140.329C14.166 140.927 14.2657 141.525 14.465 142.173C14.6146 142.771 14.9136 143.369 15.2126 143.917C15.5117 144.465 15.9602 144.964 16.4088 145.462C16.8573 145.911 17.3557 146.309 17.9039 146.658C18.4522 147.007 19.0004 147.256 19.5985 147.456C20.1965 147.655 20.7448 147.755 21.3428 147.804C21.9409 147.854 22.4892 147.755 22.9876 147.655C22.9876 147.655 23.1869 147.605 23.4859 147.505C23.8348 147.406 24.2833 147.256 24.8316 147.107C25.8782 146.708 27.2238 146.06 28.3203 145.263C28.8685 144.864 29.3669 144.415 29.8155 144.017C30.264 143.568 30.6129 143.169 30.8621 142.771C31.4103 141.973 31.6595 141.475 31.6595 141.475C30.563 140.229 29.7158 139.531 28.719 139.332C27.7223 139.132 26.5759 139.332 25.0309 139.93Z" fill="#58BF90" stroke="#329467"/>
<path d="M31.6583 141.525C31.6583 141.525 31.4091 142.023 30.8609 142.821C30.5618 143.169 30.213 143.618 29.8142 144.066C29.3657 144.465 28.8673 144.914 28.3191 145.312C27.2226 146.11 25.877 146.758 24.8303 147.157C24.2821 147.356 23.8336 147.505 23.4847 147.555C23.1358 147.655 22.9863 147.655 22.9863 147.655C23.2355 148.153 23.5843 148.602 23.9332 149.001C24.3319 149.449 24.7805 149.798 25.2789 150.097C25.7773 150.446 26.3255 150.695 26.9236 150.894C27.5216 151.094 28.1197 151.193 28.7676 151.293C30.0136 151.393 31.3593 151.193 32.5056 150.745C33.6519 150.247 34.6486 149.549 35.2965 148.602C35.2965 148.602 35.3962 148.452 35.5956 148.153C35.7949 147.904 36.0441 147.406 36.2933 146.907C36.8415 145.911 37.3399 144.465 37.5393 143.12C37.7386 141.774 37.6888 140.478 37.4895 139.531C37.3898 139.083 37.2901 138.684 37.2403 138.435C37.1406 138.185 37.0907 138.036 37.0907 138.036C35.446 138.036 34.2998 138.136 33.5522 138.634C33.3528 138.734 33.2033 138.883 33.004 139.083C32.8544 139.232 32.7049 139.431 32.5554 139.681C32.4059 139.88 32.2563 140.179 32.1068 140.478C32.0071 140.827 31.8576 141.126 31.6583 141.525Z" fill="#58BF90" stroke="#329467"/>
<path d="M37.1868 138.135C37.1868 138.135 37.2366 138.285 37.3363 138.534C37.3861 138.783 37.4858 139.132 37.5855 139.631C37.735 140.528 37.8347 141.824 37.6353 143.219C37.436 144.565 36.9376 146.01 36.3894 147.007C36.1402 147.505 35.8412 147.954 35.6917 148.253C35.4923 148.552 35.3926 148.701 35.3926 148.701C35.6418 148.801 35.9408 148.901 36.2399 148.951C36.5389 149 36.8379 149 37.1369 149.05C37.436 149.05 37.735 149.05 38.0839 149.05C38.3829 149 38.682 148.951 38.981 148.901C40.1772 148.602 41.3733 148.004 42.37 147.156C43.3668 146.309 44.1144 145.213 44.563 144.116C45.0115 142.97 45.1611 141.774 44.9617 140.677C44.9617 140.677 44.9118 140.478 44.862 140.129C44.8121 139.78 44.6627 139.332 44.5131 138.783C44.1643 137.687 43.5662 136.341 42.7688 135.195C41.9713 134.049 40.9746 133.201 40.227 132.653C39.8283 132.404 39.5292 132.205 39.28 132.055C39.0308 131.906 38.9312 131.856 38.9312 131.856C37.7351 133.002 37.0373 133.849 36.8379 134.697C36.4392 135.444 36.6884 136.541 37.1868 138.135Z" fill="#58BF90" stroke="#329467"/>
<path d="M44.7142 140.029C44.764 140.378 44.8138 140.578 44.8138 140.578C45.8106 140.129 46.7078 139.282 47.4055 138.235C48.1033 137.189 48.5019 135.893 48.6016 134.597C48.7013 133.301 48.5019 131.956 48.0035 130.859C45.9306 126.091 42.9894 124.427 36.7663 125.647C35.5058 127.965 35.4441 128.866 35.8927 129.663C38.5979 133.871 43.6459 133.62 44.7142 140.029Z" fill="#58BF90" stroke="#329467"/>
<path d="M36.2168 203.502L35.4254 201L27.187 204.467C22.6839 206.365 23.1389 210.126 24.235 214C28.6273 212.145 38.2705 210.041 36.2168 203.502Z" fill="#58BF90" stroke="#329467"/>
<path d="M36.2168 211.502L35.4254 209L27.187 212.467C22.6839 214.365 23.1389 218.126 24.235 222C28.6273 220.145 38.2705 218.041 36.2168 211.502Z" fill="#58BF90" stroke="#329467"/>
<path d="M36.2168 219.502L35.4254 217L27.187 220.467C22.6839 222.365 23.1389 226.126 24.235 230C28.6273 228.145 38.2705 226.041 36.2168 219.502Z" fill="#58BF90" stroke="#329467"/>
<path d="M36.2168 227.502L35.4254 225L27.187 228.467C22.6839 230.365 23.1389 234.126 24.235 238C28.6273 236.145 38.2705 234.041 36.2168 227.502Z" fill="#58BF90" stroke="#329467"/>
<path d="M36.2168 235.502L35.4254 233L27.187 236.467C22.6839 238.365 23.1389 242.126 24.235 246C28.6273 244.145 38.2705 242.041 36.2168 235.502Z" fill="#58BF90" stroke="#329467"/>
<path d="M36.2168 243.502L35.4254 241L27.187 244.467C22.6839 246.365 23.1389 250.126 24.235 254C28.6273 252.145 38.2705 250.041 36.2168 243.502Z" fill="#58BF90" stroke="#329467"/>
<path d="M36.2168 251.502L35.4254 249L27.187 252.467C22.6839 254.365 23.1389 258.126 24.235 262C28.6273 260.145 38.2705 258.041 36.2168 251.502Z" fill="#58BF90" stroke="#329467"/>
<path d="M36.2168 259.502L35.4254 257L27.187 260.467C22.6839 262.365 23.1389 266.126 24.235 270C28.6273 268.145 38.2705 266.041 36.2168 259.502Z" fill="#58BF90" stroke="#329467"/>
<path d="M36.2168 267.502L35.4254 265L27.187 268.467C22.6839 270.365 23.1389 274.126 24.235 278C28.6273 276.145 38.2705 274.041 36.2168 267.502Z" fill="#58BF90" stroke="#329467"/>
<path d="M36.2168 275.502L35.4254 273L27.187 276.467C22.6839 278.365 23.1389 282.126 24.235 286C28.6273 284.145 38.2705 282.041 36.2168 275.502Z" fill="#58BF90" stroke="#329467"/>
<path d="M36.2168 283.502L35.4254 281L27.187 284.467C22.6839 286.365 23.1389 290.126 24.235 294C28.6273 292.145 38.2705 290.041 36.2168 283.502Z" fill="#58BF90" stroke="#329467"/>
<path d="M36.2168 291.502L35.4254 289L27.187 292.467C22.6839 294.365 23.1389 298.126 24.235 302C28.6273 300.145 38.2705 298.041 36.2168 291.502Z" fill="#58BF90" stroke="#329467"/>
<path d="M36.2168 299.502L35.4254 297L27.187 300.467C22.6839 302.365 23.1389 306.126 24.235 310C28.6273 308.145 38.2705 306.041 36.2168 299.502Z" fill="#58BF90" stroke="#329467"/>
<path d="M36.2168 307.502L35.4254 305L27.187 308.467C22.6839 310.365 23.1389 314.126 24.235 318C28.6273 316.145 38.2705 314.041 36.2168 307.502Z" fill="#58BF90" stroke="#329467"/>
<path d="M36.2168 315.502L35.4254 313L27.187 316.467C22.6839 318.365 23.1389 322.126 24.235 326C28.6273 324.145 38.2705 322.041 36.2168 315.502Z" fill="#58BF90" stroke="#329467"/>
<path d="M36.2168 323.502L35.4254 321L27.187 324.467C22.6839 326.365 23.1389 330.126 24.235 334C28.6273 332.145 38.2705 330.041 36.2168 323.502Z" fill="#58BF90" stroke="#329467"/>
<path d="M27.1722 294.486L24.584 294.05L26.8706 285.409C28.1235 280.686 31.9116 280.613 35.9001 281.159C34.6739 285.767 33.9331 295.609 27.1722 294.486Z" fill="#58BF90" stroke="#329467"/>
<path d="M35.096 293.373L32.5078 292.937L34.7944 284.297C36.0473 279.573 40.813 279.292 42.4044 281.19C43.9958 283.088 41.8569 294.496 35.096 293.373Z" fill="#58BF90" stroke="#329467"/>
<path d="M25.1413 282.186L27.7295 282.622L25.4428 291.263C24.1899 295.986 19.4243 296.267 17.8329 294.369C16.2415 292.471 18.3803 281.063 25.1413 282.186Z" fill="#58BF90" stroke="#329467"/>
<path d="M27.1722 306.486L24.584 306.051L26.8706 297.41C28.1235 292.686 31.9116 292.613 35.9001 293.16C34.6739 297.768 33.9331 307.61 27.1722 306.486Z" fill="#58BF90" stroke="#329467"/>
<path d="M35.096 305.373L32.5078 304.938L34.7944 296.297C36.0473 291.573 40.813 291.292 42.4044 293.19C43.9958 295.089 41.8569 306.497 35.096 305.373Z" fill="#58BF90" stroke="#329467"/>
<path d="M25.1413 294.186L27.7295 294.622L25.4428 303.263C24.1899 307.986 19.4243 308.267 17.8329 306.369C16.2415 304.471 18.3803 293.063 25.1413 294.186Z" fill="#58BF90" stroke="#329467"/>
<path d="M27.1722 318.486L24.584 318.051L26.8706 309.41C28.1235 304.686 31.9116 304.613 35.9001 305.16C34.6739 309.768 33.9331 319.61 27.1722 318.486Z" fill="#58BF90" stroke="#329467"/>
<path d="M35.096 317.373L32.5078 316.938L34.7944 308.297C36.0473 303.573 40.813 303.292 42.4044 305.19C43.9958 307.089 41.8569 318.497 35.096 317.373Z" fill="#58BF90" stroke="#329467"/>
<path d="M25.1413 306.186L27.7295 306.622L25.4428 315.263C24.1899 319.986 19.4243 320.267 17.8329 318.369C16.2415 316.471 18.3803 305.063 25.1413 306.186Z" fill="#58BF90" stroke="#329467"/>
<path d="M36.2168 331.502L35.4254 329L27.187 332.467C22.6839 334.365 23.1389 338.126 24.235 342C28.6273 340.145 38.2705 338.041 36.2168 331.502Z" fill="#58BF90" stroke="#329467"/>
<path d="M36.2168 339.502L35.4254 337L27.187 340.467C22.6839 342.365 23.1389 346.126 24.235 350C28.6273 348.145 38.2705 346.041 36.2168 339.502Z" fill="#58BF90" stroke="#329467"/>
<path d="M36.2168 347.502L35.4254 345L27.187 348.467C22.6839 350.365 23.1389 354.126 24.235 358C28.6273 356.145 38.2705 354.041 36.2168 347.502Z" fill="#58BF90" stroke="#329467"/>
<path d="M36.2168 355.502L35.4254 353L27.187 356.467C22.6839 358.365 23.1389 362.126 24.235 366C28.6273 364.145 38.2705 362.041 36.2168 355.502Z" fill="#58BF90" stroke="#329467"/>
<path d="M23.0071 388.328C22.6967 393.337 22.076 398.336 21.1054 403.28C21.1054 403.317 21.0941 403.335 21.0941 403.353C20.5607 405.959 22.3912 405.752 24.1696 405.752C25.2362 401.387 26.1278 395.322 26.2181 389.992C26.2181 389.992 26.7824 395.009 25.3377 403.942C25.4167 404.511 25.5296 405.191 25.7384 405.752H27.5668C28.2665 399.282 28.7462 391.609 28.8139 384.312C28.8478 385.434 29.0961 393.41 28.0859 405.752H31.1107L31.4888 404.383L31.7766 403.381C31.7709 403.372 31.7709 403.353 31.7709 403.335C31.5395 400.054 31.3985 397.178 31.3025 394.706C31.0373 387.841 31.2292 384.184 31.2292 384.184C31.28 391.379 31.7483 398.942 32.4481 406L35.0044 405.752C33.2438 395.882 33.7799 390.341 33.8194 390.001C33.9435 397.187 35.3035 403.409 35.9356 405.963L37.8824 405.752C38.6443 405.743 39.1804 404.539 38.9434 403.326C37.9671 398.373 37.3407 393.346 37.036 388.328C36.2299 376.515 23.9939 372.729 23.0071 388.328Z" fill="#58BF90" stroke="#329467"/>
<path d="M36.2168 363.502L35.4254 361L27.187 364.467C22.6839 366.365 23.1389 370.126 24.235 374C28.6273 372.145 38.2705 370.041 36.2168 363.502Z" fill="#58BF90" stroke="#329467"/>
<path d="M32.7314 372.032C33.8986 372.419 35.0383 372.918 35.9533 373.397C36.8684 373.877 37.4181 374.286 37.4181 374.286C37.6668 373.583 37.6479 372.722 37.4189 371.939C35.6612 364.433 26.231 365.714 24.0038 370.041C23.7123 370.608 23.5742 371.016 23.5742 371.016C24.8563 371.87 26.9508 373.661 27.6532 373.759C28.0185 373.829 28.2706 373.736 28.5648 373.628C29.9633 372.603 30.6271 371.335 32.7314 372.032Z" fill="#58BF90" stroke="#329467"/>
<path d="M38.2047 380.398C41.0786 378.057 41.0304 374.474 38.2045 370.935C35.3785 367.395 29.4571 369.569 27.5224 375.741C28.879 379.21 36.9374 377.423 38.2047 380.398Z" fill="#58BF90" stroke="#329467"/>
<path d="M26.5588 369.076C26.6126 368.58 26.6664 368.134 26.7202 367.837C26.8277 367.539 26.8277 367.341 26.8277 367.341C25.6984 367.44 24.6228 367.985 23.7086 368.68C19.1602 372.38 21.5462 377.56 25.6984 380.381C26.7202 381.075 27.7957 381.471 28.6024 381.67C28.9788 381.769 29.3553 381.819 29.5704 381.868C29.7855 381.918 29.9468 381.918 29.9468 381.918C32.7474 377.151 26.2881 374.068 26.5588 369.076Z" fill="#58BF90" stroke="#329467"/>
<path d="M29.0632 377.826C29.0632 377.826 28.9018 377.826 28.6867 377.771C28.4716 377.717 28.1489 377.662 27.7187 377.552C26.912 377.333 25.8365 376.841 24.8147 376.129C23.7929 375.418 22.8787 374.432 22.2334 373.611C21.588 372.79 21.2116 372.188 21.2116 372.188C20.5125 372.9 20.0285 373.83 19.8134 374.87C19.5445 375.91 19.5445 377.114 19.8671 378.319C20.136 379.468 20.7276 380.618 21.5343 381.494C22.3409 382.369 23.3089 382.971 24.2769 383.245C24.2769 383.245 24.4383 383.3 24.7609 383.355C25.0836 383.409 25.5138 383.519 26.0516 383.574C27.1271 383.683 28.4716 383.628 29.7085 383.3C30.9453 382.971 31.8596 382.315 32.4511 381.712C32.72 381.439 32.9351 381.165 33.0427 381.001C33.1502 380.837 33.2578 380.727 33.2578 380.727C32.6125 379.413 32.5587 378.757 32.0209 378.373C31.4294 378.1 30.5152 377.99 29.0632 377.826Z" fill="#58BF90" stroke="#329467"/>
<path d="M29.6184 378.9C29.6184 378.9 29.5356 378.989 29.3344 379.098C29.1846 379.223 28.885 379.474 28.5652 379.604C27.8787 380.021 26.7649 380.363 25.4876 380.311C24.2462 380.328 22.9083 379.914 21.9104 379.491C21.4115 379.28 21.0311 379.048 20.738 378.9C20.4449 378.752 20.3062 378.652 20.3062 378.652C20.0607 379.663 20.1083 380.822 20.5473 381.988C20.9349 383.137 21.714 384.293 22.8083 385.147C23.3476 385.599 23.9182 385.947 24.5715 386.207C24.8646 386.354 25.1733 386.45 25.4821 386.545C25.7908 386.641 26.1152 386.684 26.4395 386.727C27.0883 386.813 27.6654 386.763 28.2424 386.712C28.7837 386.594 29.3406 386.422 29.8102 386.167C29.8102 386.167 29.96 386.042 30.2798 385.912C30.5481 385.766 30.9148 385.479 31.3486 385.155C32.1647 384.492 33.0746 383.515 33.7428 382.406C34.411 381.297 34.8421 380.229 35.0922 379.391C35.2173 378.972 35.2752 378.589 35.3377 378.38C35.3488 378.154 35.3957 377.997 35.3957 377.997C34.0174 377.342 32.9212 377.061 32.0914 377.204C31.2101 377.332 30.6468 377.902 29.6184 378.9Z" fill="#58BF90" stroke="#329467"/>
<path d="M30.472 377.271C30.4718 378.885 30.6217 380.446 30.1883 382.063C29.8656 383.322 29.2741 384.526 28.6825 385.402C28.3598 385.84 28.0909 386.223 27.8758 386.442C27.6607 386.661 27.4994 386.825 27.4994 386.825C28.4674 387.318 29.5967 387.427 30.726 387.318C31.8554 387.154 32.9847 386.771 33.899 386.114C38.5382 382.876 36.8316 377.877 34.4647 375.403C32.5632 374.314 30.9847 375.162 30.472 377.271Z" fill="#58BF90" stroke="#329467"/>
<path d="M35.4512 385.355C39.9189 384.092 40.5418 377.458 36.8751 375.166C33.2085 372.875 30.4585 375.625 30.4598 376.676C35.0443 377.546 36.8745 379.75 35.4512 385.355Z" fill="#58BF90" stroke="#329467"/>
</svg>
