<svg width="60" height="561" viewBox="0 0 60 561" fill="none" xmlns="http://www.w3.org/2000/svg">
<path d="M35.7386 3.3099L35.0081 1L27.4034 4.20024C23.2467 5.95233 23.6667 9.42431 24.6785 13C28.7329 11.2872 37.6343 9.34566 35.7386 3.3099Z" fill="#CEC927" stroke="#ACA824"/>
<path d="M35.7386 10.3099L35.0081 8L27.4034 11.2002C23.2467 12.9523 23.6667 16.4243 24.6785 20C28.7329 18.2872 37.6343 16.3457 35.7386 10.3099Z" fill="#CEC927" stroke="#ACA824"/>
<path d="M35.7386 17.3099L35.0081 15L27.4034 18.2002C23.2467 19.9523 23.6667 23.4243 24.6785 27C28.7329 25.2872 37.6343 23.3457 35.7386 17.3099Z" fill="#CEC927" stroke="#ACA824"/>
<path d="M35.7386 24.3099L35.0081 22L27.4034 25.2002C23.2467 26.9523 23.6667 30.4243 24.6785 34C28.7329 32.2872 37.6343 30.3457 35.7386 24.3099Z" fill="#CEC927" stroke="#ACA824"/>
<path d="M35.7386 31.3099L35.0081 29L27.4034 32.2002C23.2467 33.9523 23.6667 37.4243 24.6785 41C28.7329 39.2872 37.6343 37.3457 35.7386 31.3099Z" fill="#CEC927" stroke="#ACA824"/>
<path d="M35.7386 38.3099L35.0081 36L27.4034 39.2002C23.2467 40.9523 23.6667 44.4243 24.6785 48C28.7329 46.2872 37.6343 44.3457 35.7386 38.3099Z" fill="#CEC927" stroke="#ACA824"/>
<path d="M35.7386 45.3099L35.0081 43L27.4034 46.2002C23.2467 47.9523 23.6667 51.4243 24.6785 55C28.7329 53.2872 37.6343 51.3457 35.7386 45.3099Z" fill="#CEC927" stroke="#ACA824"/>
<path d="M35.7386 52.3099L35.0081 50L27.4034 53.2003C23.2467 54.9524 23.6667 58.4243 24.6785 62C28.7329 60.2873 37.6343 58.3457 35.7386 52.3099Z" fill="#CEC927" stroke="#ACA824"/>
<path d="M35.7386 59.3099L35.0081 57L27.4034 60.2002C23.2467 61.9523 23.6667 65.4243 24.6785 69C28.7329 67.2872 37.6343 65.3457 35.7386 59.3099Z" fill="#CEC927" stroke="#ACA824"/>
<path d="M35.7386 66.3099L35.0081 64L27.4034 67.2002C23.2467 68.9523 23.6667 72.4243 24.6785 76C28.7329 74.2872 37.6343 72.3457 35.7386 66.3099Z" fill="#CEC927" stroke="#ACA824"/>
<path d="M35.7386 73.3099L35.0081 71L27.4034 74.2002C23.2467 75.9523 23.6667 79.4243 24.6785 83C28.7329 81.2872 37.6343 79.3457 35.7386 73.3099Z" fill="#CEC927" stroke="#ACA824"/>
<path d="M35.7386 80.3099L35.0081 78L27.4034 81.2002C23.2467 82.9523 23.6667 86.4243 24.6785 90C28.7329 88.2872 37.6343 86.3457 35.7386 80.3099Z" fill="#CEC927" stroke="#ACA824"/>
<path d="M35.7386 87.3099L35.0081 85L27.4034 88.2002C23.2467 89.9523 23.6667 93.4243 24.6785 97C28.7329 95.2872 37.6343 93.3457 35.7386 87.3099Z" fill="#CEC927" stroke="#ACA824"/>
<path d="M35.7386 94.3099L35.0081 92L27.4034 95.2002C23.2467 96.9523 23.6667 100.424 24.6785 104C28.7329 102.287 37.6343 100.346 35.7386 94.3099Z" fill="#CEC927" stroke="#ACA824"/>
<path d="M35.7386 101.31L35.0081 99L27.4034 102.2C23.2467 103.952 23.6667 107.424 24.6785 111C28.7329 109.287 37.6343 107.346 35.7386 101.31Z" fill="#CEC927" stroke="#ACA824"/>
<path d="M27.3989 71.0334L25.0098 70.6314L27.1205 62.6553C28.277 58.2952 31.7737 58.228 35.4554 58.7323C34.3236 62.9856 33.6397 72.0706 27.3989 71.0334Z" fill="#CEC927" stroke="#ACA824"/>
<path d="M34.7133 70.0058L32.3242 69.6039L34.4349 61.6278C35.5915 57.2677 39.9905 57.0084 41.4595 58.7604C42.9285 60.5125 40.9542 71.0431 34.7133 70.0058Z" fill="#CEC927" stroke="#ACA824"/>
<path d="M25.5249 59.6803L27.914 60.0823L25.8033 68.0584C24.6468 72.4185 20.2477 72.6778 18.7787 70.9258C17.3098 69.1737 19.2841 58.6431 25.5249 59.6803Z" fill="#CEC927" stroke="#ACA824"/>
<path d="M27.3969 82.2335L25.0078 81.8315L27.1185 73.8554C28.2751 69.4953 31.7717 69.4281 35.4534 69.9324C34.3216 74.1857 33.6378 83.2707 27.3969 82.2335Z" fill="#CEC927" stroke="#ACA824"/>
<path d="M34.7114 81.2056L32.3223 80.8037L34.433 72.8276C35.5895 68.4675 39.9886 68.2082 41.4576 69.9602C42.9265 71.7123 40.9522 82.2429 34.7114 81.2056Z" fill="#CEC927" stroke="#ACA824"/>
<path d="M25.523 70.8797L27.9121 71.2816L25.8013 79.2578C24.6448 83.6178 20.2457 83.8772 18.7768 82.1251C17.3078 80.3731 19.2821 69.8424 25.523 70.8797Z" fill="#CEC927" stroke="#ACA824"/>
<path d="M27.4008 93.4336L25.0117 93.0316L27.1224 85.0555C28.279 80.6954 31.7756 80.6281 35.4573 81.1324C34.3255 85.3858 33.6417 94.4708 27.4008 93.4336Z" fill="#CEC927" stroke="#ACA824"/>
<path d="M34.7133 92.4059L32.3242 92.004L34.4349 84.0278C35.5915 79.6678 39.9905 79.4084 41.4595 81.1605C42.9285 82.9125 40.9542 93.4431 34.7133 92.4059Z" fill="#CEC927" stroke="#ACA824"/>
<path d="M25.5249 82.0805L27.914 82.4824L25.8033 90.4586C24.6468 94.8186 20.2477 95.078 18.7787 93.3259C17.3098 91.5739 19.2841 81.0432 25.5249 82.0805Z" fill="#CEC927" stroke="#ACA824"/>
<path d="M27.4008 104.633L25.0117 104.231L27.1224 96.255C28.279 91.8949 31.7756 91.8277 35.4573 92.332C34.3255 96.5853 33.6417 105.67 27.4008 104.633Z" fill="#CEC927" stroke="#ACA824"/>
<path d="M34.7133 103.606L32.3242 103.204L34.4349 95.2278C35.5915 90.8678 39.9905 90.6084 41.4595 92.3605C42.9285 94.1125 40.9542 104.643 34.7133 103.606Z" fill="#CEC927" stroke="#ACA824"/>
<path d="M25.5249 93.28L27.914 93.682L25.8033 101.658C24.6468 106.018 20.2477 106.277 18.7787 104.525C17.3098 102.773 19.2841 92.2428 25.5249 93.28Z" fill="#CEC927" stroke="#ACA824"/>
<path d="M35.7386 108.31L35.0081 106L27.4034 109.2C23.2467 110.952 23.6667 114.424 24.6785 118C28.7329 116.287 37.6343 114.346 35.7386 108.31Z" fill="#CEC927" stroke="#ACA824"/>
<path d="M35.7386 115.31L35.0081 113L27.4034 116.2C23.2467 117.952 23.6667 121.424 24.6785 125C28.7329 123.287 37.6343 121.346 35.7386 115.31Z" fill="#CEC927" stroke="#ACA824"/>
<path d="M35.7386 122.31L35.0081 120L27.4034 123.2C23.2467 124.952 23.6667 128.424 24.6785 132C28.7329 130.287 37.6343 128.346 35.7386 122.31Z" fill="#CEC927" stroke="#ACA824"/>
<path d="M35.7386 129.31L35.0081 127L27.4034 130.2C23.2467 131.952 23.6667 135.424 24.6785 139C28.7329 137.287 37.6343 135.346 35.7386 129.31Z" fill="#CEC927" stroke="#ACA824"/>
<path d="M35.7386 136.31L35.0081 134L27.4034 137.2C23.2467 138.952 23.6667 142.424 24.6785 146C28.7329 144.287 37.6343 142.346 35.7386 136.31Z" fill="#CEC927" stroke="#ACA824"/>
<path d="M35.7386 143.31L35.0081 141L27.4034 144.2C23.2467 145.952 23.6667 149.424 24.6785 153C28.7329 151.287 37.6343 149.346 35.7386 143.31Z" fill="#CEC927" stroke="#ACA824"/>
<path d="M35.7386 150.31L35.0081 148L27.4034 151.2C23.2467 152.952 23.6667 156.424 24.6785 160C28.7329 158.287 37.6343 156.346 35.7386 150.31Z" fill="#CEC927" stroke="#ACA824"/>
<path d="M35.7386 157.31L35.0081 155L27.4034 158.2C23.2467 159.952 23.6667 163.424 24.6785 167C28.7329 165.287 37.6343 163.346 35.7386 157.31Z" fill="#CEC927" stroke="#ACA824"/>
<path d="M35.7386 164.31L35.0081 162L27.4034 165.2C23.2467 166.952 23.6667 170.424 24.6785 174C28.7329 172.287 37.6343 170.346 35.7386 164.31Z" fill="#CEC927" stroke="#ACA824"/>
<path d="M35.7386 171.31L35.0081 169L27.4034 172.2C23.2467 173.952 23.6667 177.424 24.6785 181C28.7329 179.287 37.6343 177.346 35.7386 171.31Z" fill="#CEC927" stroke="#ACA824"/>
<path d="M35.7386 178.31L35.0081 176L27.4034 179.2C23.2467 180.952 23.6667 184.424 24.6785 188C28.7329 186.287 37.6343 184.346 35.7386 178.31Z" fill="#CEC927" stroke="#ACA824"/>
<path d="M35.7386 185.31L35.0081 183L27.4034 186.2C23.2467 187.952 23.6667 191.424 24.6785 195C28.7329 193.287 37.6343 191.346 35.7386 185.31Z" fill="#CEC927" stroke="#ACA824"/>
<path d="M35.4985 243.277C35.0907 242.239 34.1845 241.201 33.0065 240.569C31.8285 239.892 30.4693 239.576 29.1553 239.576C23.2232 239.678 21.0133 246.432 22.6309 251.266C22.7669 251.672 22.9028 251.988 22.9934 252.214C23.084 252.44 23.1293 252.575 23.1293 252.575C24.6245 252.35 25.6666 252.079 26.3009 251.537C30.0859 248.709 29.4815 243.277 35.4985 243.277Z" fill="#CEC927" stroke="#ACA824"/>
<path d="M40.5674 247.581C40.4976 246.469 39.9532 245.204 39.0254 244.244C38.1114 243.241 36.9141 242.526 35.663 242.126C30.2315 240.492 24.854 245.944 26.8061 251.152C35.423 254.351 35.0175 245.807 40.5674 247.581Z" fill="#CEC927" stroke="#ACA824"/>
<path d="M22.9896 243.909C23.0802 243.728 23.1708 243.548 23.2161 243.367C23.3521 243.096 23.4427 242.916 23.4427 242.916C22.4459 242.735 21.3132 242.871 20.2711 243.322C19.229 243.728 18.2322 244.45 17.5073 245.308C14.2348 249.383 16.4423 254.871 20.3164 257.766C20.4976 257.901 20.7242 258.037 20.9054 258.172C21.2679 258.398 21.5397 258.578 21.7662 258.669C21.9928 258.759 22.1287 258.804 22.1287 258.804C23.1708 257.721 23.7598 256.908 23.941 255.96C24.5598 251.851 21.8263 248.544 22.9896 243.909Z" fill="#CEC927" stroke="#ACA824"/>
<path d="M34.9973 251.131C34.9973 251.131 35.1332 251.086 35.3597 250.995C35.5862 250.905 35.9034 250.815 36.3112 250.77C37.1268 250.589 38.3048 250.589 39.5281 250.815C40.7514 251.04 42.02 251.537 42.9262 251.988C43.3793 252.214 43.7418 252.44 44.0136 252.62C44.2855 252.801 44.4213 252.891 44.4213 252.891C44.7838 251.943 44.8291 250.86 44.6026 249.777C44.376 248.693 43.8323 247.565 43.0621 246.662C42.2918 245.714 41.2951 244.992 40.2077 244.541C39.1203 244.089 37.9423 243.954 36.9002 244.135C36.9002 244.135 36.719 244.18 36.4018 244.225C36.0847 244.315 35.6315 244.405 35.1332 244.631C34.6348 244.812 34.0458 245.082 33.5021 245.443C32.9584 245.805 32.46 246.211 32.0069 246.662C31.1461 247.565 30.7383 248.648 30.6023 249.416C30.557 249.822 30.557 250.093 30.6023 250.318C30.6476 250.544 30.6477 250.634 30.6477 250.634C31.7351 251.402 32.1429 251.988 32.46 251.988C32.5959 251.988 32.9131 251.898 33.2755 251.718C33.9098 251.582 34.4536 251.356 34.9973 251.131Z" fill="#CEC927" stroke="#ACA824"/>
<path d="M35.7347 234.31L35.0042 232L27.3995 235.2C23.2428 236.952 23.6628 240.424 24.6746 244C28.729 242.287 37.6304 240.346 35.7347 234.31Z" fill="#CEC927" stroke="#ACA824"/>
<path d="M35.7347 241.31L35.0042 239L27.3995 242.2C23.2428 243.952 23.6628 247.424 24.6746 251C28.729 249.287 37.6304 247.346 35.7347 241.31Z" fill="#CEC927" stroke="#ACA824"/>
<path d="M35.7347 248.31L35.0042 246L27.3995 249.2C23.2428 250.952 23.6628 254.424 24.6746 258C28.729 256.287 37.6304 254.346 35.7347 248.31Z" fill="#CEC927" stroke="#ACA824"/>
<path d="M35.7347 255.31L35.0042 253L27.3995 256.2C23.2428 257.952 23.6628 261.424 24.6746 265C28.729 263.287 37.6304 261.346 35.7347 255.31Z" fill="#CEC927" stroke="#ACA824"/>
<path d="M35.7347 262.31L35.0042 260L27.3995 263.2C23.2428 264.952 23.6628 268.424 24.6746 272C28.729 270.287 37.6304 268.346 35.7347 262.31Z" fill="#CEC927" stroke="#ACA824"/>
<path d="M35.7347 269.31L35.0042 267L27.3995 270.2C23.2428 271.952 23.6628 275.424 24.6746 279C28.729 277.287 37.6304 275.346 35.7347 269.31Z" fill="#CEC927" stroke="#ACA824"/>
<path d="M16.1474 251.808C16.0568 251.492 16.0114 251.357 16.0114 251.357C14.2897 252.35 13.1117 254.472 13.0664 256.774C13.0664 262.35 19.0829 265.419 24.1669 264.086C24.5747 263.995 24.8918 263.905 25.1184 263.815C25.3449 263.725 25.4809 263.68 25.4809 263.68C25.1738 258.48 17.7347 257.343 16.1474 251.808Z" fill="#CEC927" stroke="#ACA824"/>
<path d="M25.4827 263.635C25.4827 263.635 25.3467 263.68 25.1202 263.77C24.8936 263.86 24.5765 263.951 24.1687 264.041C23.3532 264.221 22.1752 264.357 20.9066 264.267C20.2722 264.221 19.6832 264.086 19.0489 263.906C18.4599 263.725 17.9162 263.499 17.4178 263.319C16.9647 263.093 16.5569 262.867 16.2851 262.732C16.0132 262.551 15.832 262.461 15.832 262.461C15.6961 262.958 15.6508 263.454 15.6055 263.996C15.6055 264.537 15.6961 265.079 15.8773 265.666C16.0132 266.208 16.2851 266.749 16.5569 267.246C16.8288 267.742 17.2366 268.194 17.6443 268.645C18.0521 269.051 18.5052 269.412 19.0036 269.728C19.502 270.044 20.0004 270.27 20.5441 270.45C21.0878 270.631 21.5862 270.721 22.1299 270.766C22.6736 270.812 23.172 270.721 23.625 270.631C23.625 270.631 23.8063 270.586 24.0781 270.496C24.3953 270.405 24.803 270.27 25.3014 270.134C26.2529 269.773 27.4762 269.187 28.473 268.464C28.9714 268.103 29.4245 267.697 29.8322 267.336C30.24 266.93 30.5572 266.569 30.7837 266.208C31.2821 265.485 31.5086 265.034 31.5086 265.034C30.5118 263.906 29.7417 263.274 28.8355 263.093C27.9293 262.913 26.8872 263.093 25.4827 263.635Z" fill="#CEC927" stroke="#ACA824"/>
<path d="M31.5066 265.079C31.5066 265.079 31.2801 265.53 30.7817 266.253C30.5099 266.569 30.1927 266.975 29.8302 267.381C29.4225 267.742 28.9694 268.148 28.471 268.509C27.4742 269.232 26.2509 269.818 25.2994 270.179C24.801 270.36 24.3933 270.495 24.0761 270.541C23.759 270.631 23.623 270.631 23.623 270.631C23.8496 271.082 24.1667 271.488 24.4839 271.85C24.8463 272.256 25.2541 272.572 25.7072 272.843C26.1603 273.159 26.6586 273.384 27.2023 273.565C27.746 273.745 28.2898 273.836 28.8788 273.926C30.0115 274.016 31.2348 273.836 32.2769 273.429C33.319 272.978 34.2251 272.346 34.8141 271.488C34.8141 271.488 34.9047 271.353 35.086 271.082C35.2672 270.857 35.4938 270.405 35.7203 269.954C36.2187 269.051 36.6718 267.742 36.853 266.523C37.0342 265.305 36.9889 264.131 36.8077 263.273C36.7171 262.867 36.6265 262.506 36.5812 262.28C36.4906 262.055 36.4452 261.919 36.4452 261.919C34.9501 261.919 33.908 262.01 33.2284 262.461C33.0471 262.551 32.9112 262.687 32.73 262.867C32.5941 263.003 32.4581 263.183 32.3222 263.409C32.1863 263.589 32.0503 263.86 31.9144 264.131C31.8238 264.447 31.6879 264.718 31.5066 265.079Z" fill="#CEC927" stroke="#ACA824"/>
<path d="M36.5335 262.01C36.5335 262.01 36.5788 262.145 36.6694 262.371C36.7147 262.596 36.8053 262.912 36.8959 263.364C37.0318 264.176 37.1224 265.35 36.9412 266.614C36.76 267.832 36.3069 269.141 35.8085 270.044C35.582 270.495 35.3102 270.902 35.1742 271.172C34.993 271.443 34.9023 271.579 34.9023 271.579C35.1289 271.669 35.4008 271.759 35.6726 271.804C35.9445 271.849 36.2163 271.849 36.4881 271.895C36.76 271.895 37.0318 271.895 37.349 271.895C37.6208 271.849 37.8927 271.804 38.1646 271.759C39.252 271.488 40.3393 270.947 41.2455 270.179C42.1517 269.412 42.8313 268.419 43.2391 267.426C43.6468 266.388 43.7828 265.305 43.6015 264.312C43.6015 264.312 43.5562 264.131 43.5109 263.815C43.4656 263.499 43.3297 263.093 43.1938 262.596C42.8766 261.603 42.3329 260.385 41.608 259.346C40.883 258.308 39.9769 257.541 39.2973 257.044C38.9348 256.819 38.6629 256.638 38.4364 256.503C38.2099 256.367 38.1193 256.322 38.1193 256.322C37.0319 257.36 36.3975 258.128 36.2163 258.895C35.8538 259.572 36.0804 260.565 36.5335 262.01Z" fill="#CEC927" stroke="#ACA824"/>
<path d="M43.3774 263.725C43.4227 264.041 43.468 264.221 43.468 264.221C44.3742 263.815 45.1898 263.048 45.8241 262.1C46.4584 261.152 46.8208 259.978 46.9114 258.805C47.002 257.631 46.8208 256.412 46.3678 255.419C44.4833 251.101 41.8094 249.594 36.1521 250.699C35.0062 252.798 34.9501 253.614 35.3578 254.336C37.8172 258.147 42.4063 257.92 43.3774 263.725Z" fill="#CEC927" stroke="#ACA824"/>
<path d="M35.4985 222.277C35.0907 221.239 34.1845 220.201 33.0065 219.569C31.8285 218.892 30.4693 218.576 29.1553 218.576C23.2232 218.678 21.0133 225.432 22.6309 230.266C22.7669 230.672 22.9028 230.988 22.9934 231.214C23.084 231.44 23.1293 231.575 23.1293 231.575C24.6245 231.35 25.6666 231.079 26.3009 230.537C30.0859 227.709 29.4815 222.277 35.4985 222.277Z" fill="#CEC927" stroke="#ACA824"/>
<path d="M40.5674 226.581C40.4976 225.469 39.9532 224.204 39.0254 223.244C38.1114 222.241 36.9141 221.526 35.663 221.126C30.2315 219.492 24.854 224.944 26.8061 230.152C35.423 233.351 35.0175 224.807 40.5674 226.581Z" fill="#CEC927" stroke="#ACA824"/>
<path d="M22.9896 222.909C23.0802 222.728 23.1708 222.548 23.2161 222.367C23.3521 222.096 23.4427 221.916 23.4427 221.916C22.4459 221.735 21.3132 221.871 20.2711 222.322C19.229 222.728 18.2322 223.45 17.5073 224.308C14.2348 228.383 16.4423 233.871 20.3164 236.766C20.4976 236.901 20.7242 237.037 20.9054 237.172C21.2679 237.398 21.5397 237.578 21.7662 237.669C21.9928 237.759 22.1287 237.804 22.1287 237.804C23.1708 236.721 23.7598 235.908 23.941 234.96C24.5598 230.851 21.8263 227.544 22.9896 222.909Z" fill="#CEC927" stroke="#ACA824"/>
<path d="M34.9973 230.131C34.9973 230.131 35.1332 230.086 35.3597 229.995C35.5862 229.905 35.9034 229.815 36.3112 229.77C37.1268 229.589 38.3048 229.589 39.5281 229.815C40.7514 230.04 42.02 230.537 42.9262 230.988C43.3793 231.214 43.7418 231.44 44.0136 231.62C44.2855 231.801 44.4213 231.891 44.4213 231.891C44.7838 230.943 44.8291 229.86 44.6026 228.777C44.376 227.693 43.8323 226.565 43.0621 225.662C42.2918 224.714 41.2951 223.992 40.2077 223.541C39.1203 223.089 37.9423 222.954 36.9002 223.135C36.9002 223.135 36.719 223.18 36.4018 223.225C36.0847 223.315 35.6315 223.405 35.1332 223.631C34.6348 223.812 34.0458 224.082 33.5021 224.443C32.9584 224.805 32.46 225.211 32.0069 225.662C31.1461 226.565 30.7383 227.648 30.6023 228.416C30.557 228.822 30.557 229.093 30.6023 229.318C30.6476 229.544 30.6477 229.634 30.6477 229.634C31.7351 230.402 32.1429 230.988 32.46 230.988C32.5959 230.988 32.9131 230.898 33.2755 230.718C33.9098 230.582 34.4536 230.356 34.9973 230.131Z" fill="#CEC927" stroke="#ACA824"/>
<path d="M35.7347 213.31L35.0042 211L27.3995 214.2C23.2428 215.952 23.6628 219.424 24.6746 223C28.729 221.287 37.6304 219.346 35.7347 213.31Z" fill="#CEC927" stroke="#ACA824"/>
<path d="M35.7347 220.31L35.0042 218L27.3995 221.2C23.2428 222.952 23.6628 226.424 24.6746 230C28.729 228.287 37.6304 226.346 35.7347 220.31Z" fill="#CEC927" stroke="#ACA824"/>
<path d="M35.7347 227.31L35.0042 225L27.3995 228.2C23.2428 229.952 23.6628 233.424 24.6746 237C28.729 235.287 37.6304 233.346 35.7347 227.31Z" fill="#CEC927" stroke="#ACA824"/>
<path d="M35.7347 234.31L35.0042 232L27.3995 235.2C23.2428 236.952 23.6628 240.424 24.6746 244C28.729 242.287 37.6304 240.346 35.7347 234.31Z" fill="#CEC927" stroke="#ACA824"/>
<path d="M35.7347 241.31L35.0042 239L27.3995 242.2C23.2428 243.952 23.6628 247.424 24.6746 251C28.729 249.287 37.6304 247.346 35.7347 241.31Z" fill="#CEC927" stroke="#ACA824"/>
<path d="M35.7347 248.31L35.0042 246L27.3995 249.2C23.2428 250.952 23.6628 254.424 24.6746 258C28.729 256.287 37.6304 254.346 35.7347 248.31Z" fill="#CEC927" stroke="#ACA824"/>
<path d="M16.1474 230.808C16.0568 230.492 16.0114 230.357 16.0114 230.357C14.2897 231.35 13.1117 233.472 13.0664 235.774C13.0664 241.35 19.0829 244.419 24.1669 243.086C24.5747 242.995 24.8918 242.905 25.1184 242.815C25.3449 242.725 25.4809 242.68 25.4809 242.68C25.1738 237.48 17.7347 236.343 16.1474 230.808Z" fill="#CEC927" stroke="#ACA824"/>
<path d="M25.4827 242.635C25.4827 242.635 25.3467 242.68 25.1202 242.77C24.8936 242.86 24.5765 242.951 24.1687 243.041C23.3532 243.221 22.1752 243.357 20.9066 243.267C20.2722 243.221 19.6832 243.086 19.0489 242.906C18.4599 242.725 17.9162 242.499 17.4178 242.319C16.9647 242.093 16.5569 241.867 16.2851 241.732C16.0132 241.551 15.832 241.461 15.832 241.461C15.6961 241.958 15.6508 242.454 15.6055 242.996C15.6055 243.537 15.6961 244.079 15.8773 244.666C16.0132 245.208 16.2851 245.749 16.5569 246.246C16.8288 246.742 17.2366 247.194 17.6443 247.645C18.0521 248.051 18.5052 248.412 19.0036 248.728C19.502 249.044 20.0004 249.27 20.5441 249.45C21.0878 249.631 21.5862 249.721 22.1299 249.766C22.6736 249.812 23.172 249.721 23.625 249.631C23.625 249.631 23.8063 249.586 24.0781 249.496C24.3953 249.405 24.803 249.27 25.3014 249.134C26.2529 248.773 27.4762 248.187 28.473 247.464C28.9714 247.103 29.4245 246.697 29.8322 246.336C30.24 245.93 30.5572 245.569 30.7837 245.208C31.2821 244.485 31.5086 244.034 31.5086 244.034C30.5118 242.906 29.7417 242.274 28.8355 242.093C27.9293 241.913 26.8872 242.093 25.4827 242.635Z" fill="#CEC927" stroke="#ACA824"/>
<path d="M31.5066 244.079C31.5066 244.079 31.2801 244.53 30.7817 245.253C30.5099 245.569 30.1927 245.975 29.8302 246.381C29.4225 246.742 28.9694 247.148 28.471 247.509C27.4742 248.232 26.2509 248.818 25.2994 249.179C24.801 249.36 24.3933 249.495 24.0761 249.541C23.759 249.631 23.623 249.631 23.623 249.631C23.8496 250.082 24.1667 250.488 24.4839 250.85C24.8463 251.256 25.2541 251.572 25.7072 251.843C26.1603 252.159 26.6586 252.384 27.2023 252.565C27.746 252.745 28.2898 252.836 28.8788 252.926C30.0115 253.016 31.2348 252.836 32.2769 252.429C33.319 251.978 34.2251 251.346 34.8141 250.488C34.8141 250.488 34.9047 250.353 35.086 250.082C35.2672 249.857 35.4938 249.405 35.7203 248.954C36.2187 248.051 36.6718 246.742 36.853 245.523C37.0342 244.305 36.9889 243.131 36.8077 242.273C36.7171 241.867 36.6265 241.506 36.5812 241.28C36.4906 241.055 36.4452 240.919 36.4452 240.919C34.9501 240.919 33.908 241.01 33.2284 241.461C33.0471 241.551 32.9112 241.687 32.73 241.867C32.5941 242.003 32.4581 242.183 32.3222 242.409C32.1863 242.589 32.0503 242.86 31.9144 243.131C31.8238 243.447 31.6879 243.718 31.5066 244.079Z" fill="#CEC927" stroke="#ACA824"/>
<path d="M36.5335 241.01C36.5335 241.01 36.5788 241.145 36.6694 241.371C36.7147 241.596 36.8053 241.912 36.8959 242.364C37.0318 243.176 37.1224 244.35 36.9412 245.614C36.76 246.832 36.3069 248.141 35.8085 249.044C35.582 249.495 35.3102 249.902 35.1742 250.172C34.993 250.443 34.9023 250.579 34.9023 250.579C35.1289 250.669 35.4008 250.759 35.6726 250.804C35.9445 250.849 36.2163 250.849 36.4881 250.895C36.76 250.895 37.0318 250.895 37.349 250.895C37.6208 250.849 37.8927 250.804 38.1646 250.759C39.252 250.488 40.3393 249.947 41.2455 249.179C42.1517 248.412 42.8313 247.419 43.2391 246.426C43.6468 245.388 43.7828 244.305 43.6015 243.312C43.6015 243.312 43.5562 243.131 43.5109 242.815C43.4656 242.499 43.3297 242.093 43.1938 241.596C42.8766 240.603 42.3329 239.385 41.608 238.346C40.883 237.308 39.9769 236.541 39.2973 236.044C38.9348 235.819 38.6629 235.638 38.4364 235.503C38.2099 235.367 38.1193 235.322 38.1193 235.322C37.0319 236.36 36.3975 237.128 36.2163 237.895C35.8538 238.572 36.0804 239.565 36.5335 241.01Z" fill="#CEC927" stroke="#ACA824"/>
<path d="M43.3774 242.725C43.4227 243.041 43.468 243.221 43.468 243.221C44.3742 242.815 45.1898 242.048 45.8241 241.1C46.4584 240.152 46.8208 238.978 46.9114 237.805C47.002 236.631 46.8208 235.412 46.3678 234.419C44.4833 230.101 41.8094 228.594 36.1521 229.699C35.0062 231.798 34.9501 232.614 35.3578 233.336C37.8172 237.147 42.4063 236.92 43.3774 242.725Z" fill="#CEC927" stroke="#ACA824"/>
<path d="M35.4985 201.277C35.0907 200.239 34.1845 199.201 33.0065 198.569C31.8285 197.892 30.4693 197.576 29.1553 197.576C23.2232 197.678 21.0133 204.432 22.6309 209.266C22.7669 209.672 22.9028 209.988 22.9934 210.214C23.084 210.44 23.1293 210.575 23.1293 210.575C24.6245 210.35 25.6666 210.079 26.3009 209.537C30.0859 206.709 29.4815 201.277 35.4985 201.277Z" fill="#CEC927" stroke="#ACA824"/>
<path d="M40.5674 205.581C40.4976 204.469 39.9532 203.204 39.0254 202.244C38.1114 201.241 36.9141 200.526 35.663 200.126C30.2315 198.492 24.854 203.944 26.8061 209.152C35.423 212.351 35.0175 203.807 40.5674 205.581Z" fill="#CEC927" stroke="#ACA824"/>
<path d="M22.9896 201.909C23.0802 201.728 23.1708 201.548 23.2161 201.367C23.3521 201.096 23.4427 200.916 23.4427 200.916C22.4459 200.735 21.3132 200.871 20.2711 201.322C19.229 201.728 18.2322 202.45 17.5073 203.308C14.2348 207.383 16.4423 212.871 20.3164 215.766C20.4976 215.901 20.7242 216.037 20.9054 216.172C21.2679 216.398 21.5397 216.578 21.7662 216.669C21.9928 216.759 22.1287 216.804 22.1287 216.804C23.1708 215.721 23.7598 214.908 23.941 213.96C24.5598 209.851 21.8263 206.544 22.9896 201.909Z" fill="#CEC927" stroke="#ACA824"/>
<path d="M34.9973 209.131C34.9973 209.131 35.1332 209.086 35.3597 208.995C35.5862 208.905 35.9034 208.815 36.3112 208.77C37.1268 208.589 38.3048 208.589 39.5281 208.815C40.7514 209.04 42.02 209.537 42.9262 209.988C43.3793 210.214 43.7418 210.44 44.0136 210.62C44.2855 210.801 44.4213 210.891 44.4213 210.891C44.7838 209.943 44.8291 208.86 44.6026 207.777C44.376 206.693 43.8323 205.565 43.0621 204.662C42.2918 203.714 41.2951 202.992 40.2077 202.541C39.1203 202.089 37.9423 201.954 36.9002 202.135C36.9002 202.135 36.719 202.18 36.4018 202.225C36.0847 202.315 35.6315 202.405 35.1332 202.631C34.6348 202.812 34.0458 203.082 33.5021 203.443C32.9584 203.805 32.46 204.211 32.0069 204.662C31.1461 205.565 30.7383 206.648 30.6023 207.416C30.557 207.822 30.557 208.093 30.6023 208.318C30.6476 208.544 30.6477 208.634 30.6477 208.634C31.7351 209.402 32.1429 209.988 32.46 209.988C32.5959 209.988 32.9131 209.898 33.2755 209.718C33.9098 209.582 34.4536 209.356 34.9973 209.131Z" fill="#CEC927" stroke="#ACA824"/>
<path d="M35.7347 192.31L35.0042 190L27.3995 193.2C23.2428 194.952 23.6628 198.424 24.6746 202C28.729 200.287 37.6304 198.346 35.7347 192.31Z" fill="#CEC927" stroke="#ACA824"/>
<path d="M35.7347 199.31L35.0042 197L27.3995 200.2C23.2428 201.952 23.6628 205.424 24.6746 209C28.729 207.287 37.6304 205.346 35.7347 199.31Z" fill="#CEC927" stroke="#ACA824"/>
<path d="M35.7347 206.31L35.0042 204L27.3995 207.2C23.2428 208.952 23.6628 212.424 24.6746 216C28.729 214.287 37.6304 212.346 35.7347 206.31Z" fill="#CEC927" stroke="#ACA824"/>
<path d="M35.7347 213.31L35.0042 211L27.3995 214.2C23.2428 215.952 23.6628 219.424 24.6746 223C28.729 221.287 37.6304 219.346 35.7347 213.31Z" fill="#CEC927" stroke="#ACA824"/>
<path d="M35.7347 220.31L35.0042 218L27.3995 221.2C23.2428 222.952 23.6628 226.424 24.6746 230C28.729 228.287 37.6304 226.346 35.7347 220.31Z" fill="#CEC927" stroke="#ACA824"/>
<path d="M35.7347 227.31L35.0042 225L27.3995 228.2C23.2428 229.952 23.6628 233.424 24.6746 237C28.729 235.287 37.6304 233.346 35.7347 227.31Z" fill="#CEC927" stroke="#ACA824"/>
<path d="M16.1474 209.808C16.0568 209.492 16.0114 209.357 16.0114 209.357C14.2897 210.35 13.1117 212.472 13.0664 214.774C13.0664 220.35 19.0829 223.419 24.1669 222.086C24.5747 221.995 24.8918 221.905 25.1184 221.815C25.3449 221.725 25.4809 221.68 25.4809 221.68C25.1738 216.48 17.7347 215.343 16.1474 209.808Z" fill="#CEC927" stroke="#ACA824"/>
<path d="M25.4827 221.635C25.4827 221.635 25.3467 221.68 25.1202 221.77C24.8936 221.86 24.5765 221.951 24.1687 222.041C23.3532 222.221 22.1752 222.357 20.9066 222.267C20.2722 222.221 19.6832 222.086 19.0489 221.906C18.4599 221.725 17.9162 221.499 17.4178 221.319C16.9647 221.093 16.5569 220.867 16.2851 220.732C16.0132 220.551 15.832 220.461 15.832 220.461C15.6961 220.958 15.6508 221.454 15.6055 221.996C15.6055 222.537 15.6961 223.079 15.8773 223.666C16.0132 224.208 16.2851 224.749 16.5569 225.246C16.8288 225.742 17.2366 226.194 17.6443 226.645C18.0521 227.051 18.5052 227.412 19.0036 227.728C19.502 228.044 20.0004 228.27 20.5441 228.45C21.0878 228.631 21.5862 228.721 22.1299 228.766C22.6736 228.812 23.172 228.721 23.625 228.631C23.625 228.631 23.8063 228.586 24.0781 228.496C24.3953 228.405 24.803 228.27 25.3014 228.134C26.2529 227.773 27.4762 227.187 28.473 226.464C28.9714 226.103 29.4245 225.697 29.8322 225.336C30.24 224.93 30.5572 224.569 30.7837 224.208C31.2821 223.485 31.5086 223.034 31.5086 223.034C30.5118 221.906 29.7417 221.274 28.8355 221.093C27.9293 220.913 26.8872 221.093 25.4827 221.635Z" fill="#CEC927" stroke="#ACA824"/>
<path d="M31.5066 223.079C31.5066 223.079 31.2801 223.53 30.7817 224.253C30.5099 224.569 30.1927 224.975 29.8302 225.381C29.4225 225.742 28.9694 226.148 28.471 226.509C27.4742 227.232 26.2509 227.818 25.2994 228.179C24.801 228.36 24.3933 228.495 24.0761 228.541C23.759 228.631 23.623 228.631 23.623 228.631C23.8496 229.082 24.1667 229.488 24.4839 229.85C24.8463 230.256 25.2541 230.572 25.7072 230.843C26.1603 231.159 26.6586 231.384 27.2023 231.565C27.746 231.745 28.2898 231.836 28.8788 231.926C30.0115 232.016 31.2348 231.836 32.2769 231.429C33.319 230.978 34.2251 230.346 34.8141 229.488C34.8141 229.488 34.9047 229.353 35.086 229.082C35.2672 228.857 35.4938 228.405 35.7203 227.954C36.2187 227.051 36.6718 225.742 36.853 224.523C37.0342 223.305 36.9889 222.131 36.8077 221.273C36.7171 220.867 36.6265 220.506 36.5812 220.28C36.4906 220.055 36.4452 219.919 36.4452 219.919C34.9501 219.919 33.908 220.01 33.2284 220.461C33.0471 220.551 32.9112 220.687 32.73 220.867C32.5941 221.003 32.4581 221.183 32.3222 221.409C32.1863 221.589 32.0503 221.86 31.9144 222.131C31.8238 222.447 31.6879 222.718 31.5066 223.079Z" fill="#CEC927" stroke="#ACA824"/>
<path d="M36.5335 220.01C36.5335 220.01 36.5788 220.145 36.6694 220.371C36.7147 220.596 36.8053 220.912 36.8959 221.364C37.0318 222.176 37.1224 223.35 36.9412 224.614C36.76 225.832 36.3069 227.141 35.8085 228.044C35.582 228.495 35.3102 228.902 35.1742 229.172C34.993 229.443 34.9023 229.579 34.9023 229.579C35.1289 229.669 35.4008 229.759 35.6726 229.804C35.9445 229.849 36.2163 229.849 36.4881 229.895C36.76 229.895 37.0318 229.895 37.349 229.895C37.6208 229.849 37.8927 229.804 38.1646 229.759C39.252 229.488 40.3393 228.947 41.2455 228.179C42.1517 227.412 42.8313 226.419 43.2391 225.426C43.6468 224.388 43.7828 223.305 43.6015 222.312C43.6015 222.312 43.5562 222.131 43.5109 221.815C43.4656 221.499 43.3297 221.093 43.1938 220.596C42.8766 219.603 42.3329 218.385 41.608 217.346C40.883 216.308 39.9769 215.541 39.2973 215.044C38.9348 214.819 38.6629 214.638 38.4364 214.503C38.2099 214.367 38.1193 214.322 38.1193 214.322C37.0319 215.36 36.3975 216.128 36.2163 216.895C35.8538 217.572 36.0804 218.565 36.5335 220.01Z" fill="#CEC927" stroke="#ACA824"/>
<path d="M43.3774 221.725C43.4227 222.041 43.468 222.221 43.468 222.221C44.3742 221.815 45.1898 221.048 45.8241 220.1C46.4584 219.152 46.8208 217.978 46.9114 216.805C47.002 215.631 46.8208 214.412 46.3678 213.419C44.4833 209.101 41.8094 207.594 36.1521 208.699C35.0062 210.798 34.9501 211.614 35.3578 212.336C37.8172 216.147 42.4063 215.92 43.3774 221.725Z" fill="#CEC927" stroke="#ACA824"/>
<path d="M35.7386 276.31L35.0081 274L27.4034 277.2C23.2467 278.952 23.6667 282.424 24.6785 286C28.7329 284.287 37.6343 282.346 35.7386 276.31Z" fill="#CEC927" stroke="#ACA824"/>
<path d="M35.7386 283.31L35.0081 281L27.4034 284.2C23.2467 285.952 23.6667 289.424 24.6785 293C28.7329 291.287 37.6343 289.346 35.7386 283.31Z" fill="#CEC927" stroke="#ACA824"/>
<path d="M35.7386 290.31L35.0081 288L27.4034 291.2C23.2467 292.952 23.6667 296.424 24.6785 300C28.7329 298.287 37.6343 296.346 35.7386 290.31Z" fill="#CEC927" stroke="#ACA824"/>
<path d="M35.7386 297.31L35.0081 295L27.4034 298.2C23.2467 299.952 23.6667 303.424 24.6785 307C28.7329 305.287 37.6343 303.346 35.7386 297.31Z" fill="#CEC927" stroke="#ACA824"/>
<path d="M35.7386 304.31L35.0081 302L27.4034 305.2C23.2467 306.952 23.6667 310.424 24.6785 314C28.7329 312.287 37.6343 310.346 35.7386 304.31Z" fill="#CEC927" stroke="#ACA824"/>
<path d="M35.7386 311.31L35.0081 309L27.4034 312.2C23.2467 313.952 23.6667 317.424 24.6785 321C28.7329 319.287 37.6343 317.346 35.7386 311.31Z" fill="#CEC927" stroke="#ACA824"/>
<path d="M35.7386 318.31L35.0081 316L27.4034 319.2C23.2467 320.952 23.6667 324.424 24.6785 328C28.7329 326.287 37.6343 324.346 35.7386 318.31Z" fill="#CEC927" stroke="#ACA824"/>
<path d="M35.7386 325.31L35.0081 323L27.4034 326.2C23.2467 327.952 23.6667 331.424 24.6785 335C28.7329 333.287 37.6343 331.346 35.7386 325.31Z" fill="#CEC927" stroke="#ACA824"/>
<path d="M35.7386 332.31L35.0081 330L27.4034 333.2C23.2467 334.952 23.6667 338.424 24.6785 342C28.7329 340.287 37.6343 338.346 35.7386 332.31Z" fill="#CEC927" stroke="#ACA824"/>
<path d="M35.7386 339.31L35.0081 337L27.4034 340.2C23.2467 341.952 23.6667 345.424 24.6785 349C28.7329 347.287 37.6343 345.346 35.7386 339.31Z" fill="#CEC927" stroke="#ACA824"/>
<path d="M35.7386 346.31L35.0081 344L27.4034 347.2C23.2467 348.952 23.6667 352.424 24.6785 356C28.7329 354.287 37.6343 352.346 35.7386 346.31Z" fill="#CEC927" stroke="#ACA824"/>
<path d="M35.7386 353.31L35.0081 351L27.4034 354.2C23.2467 355.952 23.6667 359.424 24.6785 363C28.7329 361.287 37.6343 359.346 35.7386 353.31Z" fill="#CEC927" stroke="#ACA824"/>
<path d="M35.7386 360.31L35.0081 358L27.4034 361.2C23.2467 362.952 23.6667 366.424 24.6785 370C28.7329 368.287 37.6343 366.346 35.7386 360.31Z" fill="#CEC927" stroke="#ACA824"/>
<path d="M35.7386 367.31L35.0081 365L27.4034 368.2C23.2467 369.952 23.6667 373.424 24.6785 377C28.7329 375.287 37.6343 373.346 35.7386 367.31Z" fill="#CEC927" stroke="#ACA824"/>
<path d="M35.7386 374.31L35.0081 372L27.4034 375.2C23.2467 376.952 23.6667 380.424 24.6785 384C28.7329 382.287 37.6343 380.346 35.7386 374.31Z" fill="#CEC927" stroke="#ACA824"/>
<path d="M35.4985 411.277C35.0907 410.239 34.1845 409.201 33.0065 408.569C31.8285 407.892 30.4693 407.576 29.1553 407.576C23.2232 407.678 21.0133 414.432 22.6309 419.266C22.7669 419.672 22.9028 419.988 22.9934 420.214C23.084 420.44 23.1293 420.575 23.1293 420.575C24.6245 420.35 25.6666 420.079 26.3009 419.537C30.0859 416.709 29.4815 411.277 35.4985 411.277Z" fill="#CEC927" stroke="#ACA824"/>
<path d="M40.5674 415.581C40.4976 414.469 39.9532 413.204 39.0254 412.244C38.1114 411.241 36.9141 410.526 35.663 410.126C30.2315 408.492 24.854 413.944 26.8061 419.152C35.423 422.351 35.0175 413.807 40.5674 415.581Z" fill="#CEC927" stroke="#ACA824"/>
<path d="M22.9896 411.909C23.0802 411.728 23.1708 411.548 23.2161 411.367C23.3521 411.096 23.4427 410.916 23.4427 410.916C22.4459 410.735 21.3132 410.871 20.2711 411.322C19.229 411.728 18.2322 412.45 17.5073 413.308C14.2348 417.383 16.4423 422.871 20.3164 425.766C20.4976 425.901 20.7242 426.037 20.9054 426.172C21.2679 426.398 21.5397 426.578 21.7662 426.669C21.9928 426.759 22.1287 426.804 22.1287 426.804C23.1708 425.721 23.7598 424.908 23.941 423.96C24.5598 419.851 21.8263 416.544 22.9896 411.909Z" fill="#CEC927" stroke="#ACA824"/>
<path d="M34.9973 419.131C34.9973 419.131 35.1332 419.086 35.3597 418.995C35.5862 418.905 35.9034 418.815 36.3112 418.77C37.1268 418.589 38.3048 418.589 39.5281 418.815C40.7514 419.04 42.02 419.537 42.9262 419.988C43.3793 420.214 43.7418 420.44 44.0136 420.62C44.2855 420.801 44.4213 420.891 44.4213 420.891C44.7838 419.943 44.8291 418.86 44.6026 417.777C44.376 416.693 43.8323 415.565 43.0621 414.662C42.2918 413.714 41.2951 412.992 40.2077 412.541C39.1203 412.089 37.9423 411.954 36.9002 412.135C36.9002 412.135 36.719 412.18 36.4018 412.225C36.0847 412.315 35.6315 412.405 35.1332 412.631C34.6348 412.812 34.0458 413.082 33.5021 413.443C32.9584 413.805 32.46 414.211 32.0069 414.662C31.1461 415.565 30.7383 416.648 30.6023 417.416C30.557 417.822 30.557 418.093 30.6023 418.318C30.6476 418.544 30.6477 418.634 30.6477 418.634C31.7351 419.402 32.1429 419.988 32.46 419.988C32.5959 419.988 32.9131 419.898 33.2755 419.718C33.9098 419.582 34.4536 419.356 34.9973 419.131Z" fill="#CEC927" stroke="#ACA824"/>
<path d="M35.7347 402.31L35.0042 400L27.3995 403.2C23.2428 404.952 23.6628 408.424 24.6746 412C28.729 410.287 37.6304 408.346 35.7347 402.31Z" fill="#CEC927" stroke="#ACA824"/>
<path d="M35.7347 409.31L35.0042 407L27.3995 410.2C23.2428 411.952 23.6628 415.424 24.6746 419C28.729 417.287 37.6304 415.346 35.7347 409.31Z" fill="#CEC927" stroke="#ACA824"/>
<path d="M35.7347 416.31L35.0042 414L27.3995 417.2C23.2428 418.952 23.6628 422.424 24.6746 426C28.729 424.287 37.6304 422.346 35.7347 416.31Z" fill="#CEC927" stroke="#ACA824"/>
<path d="M35.7347 423.31L35.0042 421L27.3995 424.2C23.2428 425.952 23.6628 429.424 24.6746 433C28.729 431.287 37.6304 429.346 35.7347 423.31Z" fill="#CEC927" stroke="#ACA824"/>
<path d="M35.7347 430.31L35.0042 428L27.3995 431.2C23.2428 432.952 23.6628 436.424 24.6746 440C28.729 438.287 37.6304 436.346 35.7347 430.31Z" fill="#CEC927" stroke="#ACA824"/>
<path d="M35.7347 437.31L35.0042 435L27.3995 438.2C23.2428 439.952 23.6628 443.424 24.6746 447C28.729 445.287 37.6304 443.346 35.7347 437.31Z" fill="#CEC927" stroke="#ACA824"/>
<path d="M16.1474 419.808C16.0568 419.492 16.0114 419.357 16.0114 419.357C14.2897 420.35 13.1117 422.472 13.0664 424.774C13.0664 430.35 19.0829 433.419 24.1669 432.086C24.5747 431.995 24.8918 431.905 25.1184 431.815C25.3449 431.725 25.4809 431.68 25.4809 431.68C25.1738 426.48 17.7347 425.343 16.1474 419.808Z" fill="#CEC927" stroke="#ACA824"/>
<path d="M25.4827 431.635C25.4827 431.635 25.3467 431.68 25.1202 431.77C24.8936 431.86 24.5765 431.951 24.1687 432.041C23.3532 432.221 22.1752 432.357 20.9066 432.267C20.2722 432.221 19.6832 432.086 19.0489 431.906C18.4599 431.725 17.9162 431.499 17.4178 431.319C16.9647 431.093 16.5569 430.867 16.2851 430.732C16.0132 430.551 15.832 430.461 15.832 430.461C15.6961 430.958 15.6508 431.454 15.6055 431.996C15.6055 432.537 15.6961 433.079 15.8773 433.666C16.0132 434.208 16.2851 434.749 16.5569 435.246C16.8288 435.742 17.2366 436.194 17.6443 436.645C18.0521 437.051 18.5052 437.412 19.0036 437.728C19.502 438.044 20.0004 438.27 20.5441 438.45C21.0878 438.631 21.5862 438.721 22.1299 438.766C22.6736 438.812 23.172 438.721 23.625 438.631C23.625 438.631 23.8063 438.586 24.0781 438.496C24.3953 438.405 24.803 438.27 25.3014 438.134C26.2529 437.773 27.4762 437.187 28.473 436.464C28.9714 436.103 29.4245 435.697 29.8322 435.336C30.24 434.93 30.5572 434.569 30.7837 434.208C31.2821 433.485 31.5086 433.034 31.5086 433.034C30.5118 431.906 29.7417 431.274 28.8355 431.093C27.9293 430.913 26.8872 431.093 25.4827 431.635Z" fill="#CEC927" stroke="#ACA824"/>
<path d="M31.5066 433.079C31.5066 433.079 31.2801 433.53 30.7817 434.253C30.5099 434.569 30.1927 434.975 29.8302 435.381C29.4225 435.742 28.9694 436.148 28.471 436.509C27.4742 437.232 26.2509 437.818 25.2994 438.179C24.801 438.36 24.3933 438.495 24.0761 438.541C23.759 438.631 23.623 438.631 23.623 438.631C23.8496 439.082 24.1667 439.488 24.4839 439.85C24.8463 440.256 25.2541 440.572 25.7072 440.843C26.1603 441.159 26.6586 441.384 27.2023 441.565C27.746 441.745 28.2898 441.836 28.8788 441.926C30.0115 442.016 31.2348 441.836 32.2769 441.429C33.319 440.978 34.2251 440.346 34.8141 439.488C34.8141 439.488 34.9047 439.353 35.086 439.082C35.2672 438.857 35.4938 438.405 35.7203 437.954C36.2187 437.051 36.6718 435.742 36.853 434.523C37.0342 433.305 36.9889 432.131 36.8077 431.273C36.7171 430.867 36.6265 430.506 36.5812 430.28C36.4906 430.055 36.4452 429.919 36.4452 429.919C34.9501 429.919 33.908 430.01 33.2284 430.461C33.0471 430.551 32.9112 430.687 32.73 430.867C32.5941 431.003 32.4581 431.183 32.3222 431.409C32.1863 431.589 32.0503 431.86 31.9144 432.131C31.8238 432.447 31.6879 432.718 31.5066 433.079Z" fill="#CEC927" stroke="#ACA824"/>
<path d="M36.5335 430.01C36.5335 430.01 36.5788 430.145 36.6694 430.371C36.7147 430.596 36.8053 430.912 36.8959 431.364C37.0318 432.176 37.1224 433.35 36.9412 434.614C36.76 435.832 36.3069 437.141 35.8085 438.044C35.582 438.495 35.3102 438.902 35.1742 439.172C34.993 439.443 34.9023 439.579 34.9023 439.579C35.1289 439.669 35.4008 439.759 35.6726 439.804C35.9445 439.849 36.2163 439.849 36.4881 439.895C36.76 439.895 37.0318 439.895 37.349 439.895C37.6208 439.849 37.8927 439.804 38.1646 439.759C39.252 439.488 40.3393 438.947 41.2455 438.179C42.1517 437.412 42.8313 436.419 43.2391 435.426C43.6468 434.388 43.7828 433.305 43.6015 432.312C43.6015 432.312 43.5562 432.131 43.5109 431.815C43.4656 431.499 43.3297 431.093 43.1938 430.596C42.8766 429.603 42.3329 428.385 41.608 427.346C40.883 426.308 39.9769 425.541 39.2973 425.044C38.9348 424.819 38.6629 424.638 38.4364 424.503C38.2099 424.367 38.1193 424.322 38.1193 424.322C37.0319 425.36 36.3975 426.128 36.2163 426.895C35.8538 427.572 36.0804 428.565 36.5335 430.01Z" fill="#CEC927" stroke="#ACA824"/>
<path d="M43.3774 431.725C43.4227 432.041 43.468 432.221 43.468 432.221C44.3742 431.815 45.1898 431.048 45.8241 430.1C46.4584 429.152 46.8208 427.978 46.9114 426.805C47.002 425.631 46.8208 424.412 46.3678 423.419C44.4833 419.101 41.8094 417.594 36.1521 418.699C35.0062 420.798 34.9501 421.614 35.3578 422.336C37.8172 426.147 42.4063 425.92 43.3774 431.725Z" fill="#CEC927" stroke="#ACA824"/>
<path d="M35.4985 390.277C35.0907 389.239 34.1845 388.201 33.0065 387.569C31.8285 386.892 30.4693 386.576 29.1553 386.576C23.2232 386.678 21.0133 393.432 22.6309 398.266C22.7669 398.672 22.9028 398.988 22.9934 399.214C23.084 399.44 23.1293 399.575 23.1293 399.575C24.6245 399.35 25.6666 399.079 26.3009 398.537C30.0859 395.709 29.4815 390.277 35.4985 390.277Z" fill="#CEC927" stroke="#ACA824"/>
<path d="M40.5674 394.581C40.4976 393.469 39.9532 392.204 39.0254 391.244C38.1114 390.241 36.9141 389.526 35.663 389.126C30.2315 387.492 24.854 392.944 26.8061 398.152C35.423 401.351 35.0175 392.807 40.5674 394.581Z" fill="#CEC927" stroke="#ACA824"/>
<path d="M22.9896 390.909C23.0802 390.728 23.1708 390.548 23.2161 390.367C23.3521 390.096 23.4427 389.916 23.4427 389.916C22.4459 389.735 21.3132 389.871 20.2711 390.322C19.229 390.728 18.2322 391.45 17.5073 392.308C14.2348 396.383 16.4423 401.871 20.3164 404.766C20.4976 404.901 20.7242 405.037 20.9054 405.172C21.2679 405.398 21.5397 405.578 21.7662 405.669C21.9928 405.759 22.1287 405.804 22.1287 405.804C23.1708 404.721 23.7598 403.908 23.941 402.96C24.5598 398.851 21.8263 395.544 22.9896 390.909Z" fill="#CEC927" stroke="#ACA824"/>
<path d="M34.9973 398.131C34.9973 398.131 35.1332 398.086 35.3597 397.995C35.5862 397.905 35.9034 397.815 36.3112 397.77C37.1268 397.589 38.3048 397.589 39.5281 397.815C40.7514 398.04 42.02 398.537 42.9262 398.988C43.3793 399.214 43.7418 399.44 44.0136 399.62C44.2855 399.801 44.4213 399.891 44.4213 399.891C44.7838 398.943 44.8291 397.86 44.6026 396.777C44.376 395.693 43.8323 394.565 43.0621 393.662C42.2918 392.714 41.2951 391.992 40.2077 391.541C39.1203 391.089 37.9423 390.954 36.9002 391.135C36.9002 391.135 36.719 391.18 36.4018 391.225C36.0847 391.315 35.6315 391.405 35.1332 391.631C34.6348 391.812 34.0458 392.082 33.5021 392.443C32.9584 392.805 32.46 393.211 32.0069 393.662C31.1461 394.565 30.7383 395.648 30.6023 396.416C30.557 396.822 30.557 397.093 30.6023 397.318C30.6476 397.544 30.6477 397.634 30.6477 397.634C31.7351 398.402 32.1429 398.988 32.46 398.988C32.5959 398.988 32.9131 398.898 33.2755 398.718C33.9098 398.582 34.4536 398.356 34.9973 398.131Z" fill="#CEC927" stroke="#ACA824"/>
<path d="M35.7347 381.31L35.0042 379L27.3995 382.2C23.2428 383.952 23.6628 387.424 24.6746 391C28.729 389.287 37.6304 387.346 35.7347 381.31Z" fill="#CEC927" stroke="#ACA824"/>
<path d="M35.7347 388.31L35.0042 386L27.3995 389.2C23.2428 390.952 23.6628 394.424 24.6746 398C28.729 396.287 37.6304 394.346 35.7347 388.31Z" fill="#CEC927" stroke="#ACA824"/>
<path d="M35.7347 395.31L35.0042 393L27.3995 396.2C23.2428 397.952 23.6628 401.424 24.6746 405C28.729 403.287 37.6304 401.346 35.7347 395.31Z" fill="#CEC927" stroke="#ACA824"/>
<path d="M35.7347 402.31L35.0042 400L27.3995 403.2C23.2428 404.952 23.6628 408.424 24.6746 412C28.729 410.287 37.6304 408.346 35.7347 402.31Z" fill="#CEC927" stroke="#ACA824"/>
<path d="M35.7347 409.31L35.0042 407L27.3995 410.2C23.2428 411.952 23.6628 415.424 24.6746 419C28.729 417.287 37.6304 415.346 35.7347 409.31Z" fill="#CEC927" stroke="#ACA824"/>
<path d="M35.7347 416.31L35.0042 414L27.3995 417.2C23.2428 418.952 23.6628 422.424 24.6746 426C28.729 424.287 37.6304 422.346 35.7347 416.31Z" fill="#CEC927" stroke="#ACA824"/>
<path d="M16.1474 398.808C16.0568 398.492 16.0114 398.357 16.0114 398.357C14.2897 399.35 13.1117 401.472 13.0664 403.774C13.0664 409.35 19.0829 412.419 24.1669 411.086C24.5747 410.995 24.8918 410.905 25.1184 410.815C25.3449 410.725 25.4809 410.68 25.4809 410.68C25.1738 405.48 17.7347 404.343 16.1474 398.808Z" fill="#CEC927" stroke="#ACA824"/>
<path d="M25.4827 410.635C25.4827 410.635 25.3467 410.68 25.1202 410.77C24.8936 410.86 24.5765 410.951 24.1687 411.041C23.3532 411.221 22.1752 411.357 20.9066 411.267C20.2722 411.221 19.6832 411.086 19.0489 410.906C18.4599 410.725 17.9162 410.499 17.4178 410.319C16.9647 410.093 16.5569 409.867 16.2851 409.732C16.0132 409.551 15.832 409.461 15.832 409.461C15.6961 409.958 15.6508 410.454 15.6055 410.996C15.6055 411.537 15.6961 412.079 15.8773 412.666C16.0132 413.208 16.2851 413.749 16.5569 414.246C16.8288 414.742 17.2366 415.194 17.6443 415.645C18.0521 416.051 18.5052 416.412 19.0036 416.728C19.502 417.044 20.0004 417.27 20.5441 417.45C21.0878 417.631 21.5862 417.721 22.1299 417.766C22.6736 417.812 23.172 417.721 23.625 417.631C23.625 417.631 23.8063 417.586 24.0781 417.496C24.3953 417.405 24.803 417.27 25.3014 417.134C26.2529 416.773 27.4762 416.187 28.473 415.464C28.9714 415.103 29.4245 414.697 29.8322 414.336C30.24 413.93 30.5572 413.569 30.7837 413.208C31.2821 412.485 31.5086 412.034 31.5086 412.034C30.5118 410.906 29.7417 410.274 28.8355 410.093C27.9293 409.913 26.8872 410.093 25.4827 410.635Z" fill="#CEC927" stroke="#ACA824"/>
<path d="M31.5066 412.079C31.5066 412.079 31.2801 412.53 30.7817 413.253C30.5099 413.569 30.1927 413.975 29.8302 414.381C29.4225 414.742 28.9694 415.148 28.471 415.509C27.4742 416.232 26.2509 416.818 25.2994 417.179C24.801 417.36 24.3933 417.495 24.0761 417.541C23.759 417.631 23.623 417.631 23.623 417.631C23.8496 418.082 24.1667 418.488 24.4839 418.85C24.8463 419.256 25.2541 419.572 25.7072 419.843C26.1603 420.159 26.6586 420.384 27.2023 420.565C27.746 420.745 28.2898 420.836 28.8788 420.926C30.0115 421.016 31.2348 420.836 32.2769 420.429C33.319 419.978 34.2251 419.346 34.8141 418.488C34.8141 418.488 34.9047 418.353 35.086 418.082C35.2672 417.857 35.4938 417.405 35.7203 416.954C36.2187 416.051 36.6718 414.742 36.853 413.523C37.0342 412.305 36.9889 411.131 36.8077 410.273C36.7171 409.867 36.6265 409.506 36.5812 409.28C36.4906 409.055 36.4452 408.919 36.4452 408.919C34.9501 408.919 33.908 409.01 33.2284 409.461C33.0471 409.551 32.9112 409.687 32.73 409.867C32.5941 410.003 32.4581 410.183 32.3222 410.409C32.1863 410.589 32.0503 410.86 31.9144 411.131C31.8238 411.447 31.6879 411.718 31.5066 412.079Z" fill="#CEC927" stroke="#ACA824"/>
<path d="M36.5335 409.01C36.5335 409.01 36.5788 409.145 36.6694 409.371C36.7147 409.596 36.8053 409.912 36.8959 410.364C37.0318 411.176 37.1224 412.35 36.9412 413.614C36.76 414.832 36.3069 416.141 35.8085 417.044C35.582 417.495 35.3102 417.902 35.1742 418.172C34.993 418.443 34.9023 418.579 34.9023 418.579C35.1289 418.669 35.4008 418.759 35.6726 418.804C35.9445 418.849 36.2163 418.849 36.4881 418.895C36.76 418.895 37.0318 418.895 37.349 418.895C37.6208 418.849 37.8927 418.804 38.1646 418.759C39.252 418.488 40.3393 417.947 41.2455 417.179C42.1517 416.412 42.8313 415.419 43.2391 414.426C43.6468 413.388 43.7828 412.305 43.6015 411.312C43.6015 411.312 43.5562 411.131 43.5109 410.815C43.4656 410.499 43.3297 410.093 43.1938 409.596C42.8766 408.603 42.3329 407.385 41.608 406.346C40.883 405.308 39.9769 404.541 39.2973 404.044C38.9348 403.819 38.6629 403.638 38.4364 403.503C38.2099 403.367 38.1193 403.322 38.1193 403.322C37.0319 404.36 36.3975 405.128 36.2163 405.895C35.8538 406.572 36.0804 407.565 36.5335 409.01Z" fill="#CEC927" stroke="#ACA824"/>
<path d="M43.3774 410.725C43.4227 411.041 43.468 411.221 43.468 411.221C44.3742 410.815 45.1898 410.048 45.8241 409.1C46.4584 408.152 46.8208 406.978 46.9114 405.805C47.002 404.631 46.8208 403.412 46.3678 402.419C44.4833 398.101 41.8094 396.594 36.1521 397.699C35.0062 399.798 34.9501 400.614 35.3578 401.336C37.8172 405.147 42.4063 404.92 43.3774 410.725Z" fill="#CEC927" stroke="#ACA824"/>
<path d="M35.7386 444.31L35.0081 442L27.4034 445.2C23.2467 446.952 23.6667 450.424 24.6785 454C28.7329 452.287 37.6343 450.346 35.7386 444.31Z" fill="#CEC927" stroke="#ACA824"/>
<path d="M35.7386 451.31L35.0081 449L27.4034 452.2C23.2467 453.952 23.6667 457.424 24.6785 461C28.7329 459.287 37.6343 457.346 35.7386 451.31Z" fill="#CEC927" stroke="#ACA824"/>
<path d="M35.7386 458.31L35.0081 456L27.4034 459.2C23.2467 460.952 23.6667 464.424 24.6785 468C28.7329 466.287 37.6343 464.346 35.7386 458.31Z" fill="#CEC927" stroke="#ACA824"/>
<path d="M35.7386 465.31L35.0081 463L27.4034 466.2C23.2467 467.952 23.6667 471.424 24.6785 475C28.7329 473.287 37.6343 471.346 35.7386 465.31Z" fill="#CEC927" stroke="#ACA824"/>
<path d="M35.7386 472.31L35.0081 470L27.4034 473.2C23.2467 474.952 23.6667 478.424 24.6785 482C28.7329 480.287 37.6343 478.346 35.7386 472.31Z" fill="#CEC927" stroke="#ACA824"/>
<path d="M35.7386 479.31L35.0081 477L27.4034 480.2C23.2467 481.952 23.6667 485.424 24.6785 489C28.7329 487.287 37.6343 485.346 35.7386 479.31Z" fill="#CEC927" stroke="#ACA824"/>
<path d="M35.7386 486.31L35.0081 484L27.4034 487.2C23.2467 488.952 23.6667 492.424 24.6785 496C28.7329 494.287 37.6343 492.346 35.7386 486.31Z" fill="#CEC927" stroke="#ACA824"/>
<path d="M35.7386 493.31L35.0081 491L27.4034 494.2C23.2467 495.952 23.6667 499.424 24.6785 503C28.7329 501.287 37.6343 499.346 35.7386 493.31Z" fill="#CEC927" stroke="#ACA824"/>
<path d="M35.7386 500.31L35.0081 498L27.4034 501.2C23.2467 502.952 23.6667 506.424 24.6785 510C28.7329 508.287 37.6343 506.346 35.7386 500.31Z" fill="#CEC927" stroke="#ACA824"/>
<path d="M35.7386 507.31L35.0081 505L27.4034 508.2C23.2467 509.952 23.6667 513.424 24.6785 517C28.7329 515.287 37.6343 513.346 35.7386 507.31Z" fill="#CEC927" stroke="#ACA824"/>
<path d="M35.7386 514.31L35.0081 512L27.4034 515.2C23.2467 516.952 23.6667 520.424 24.6785 524C28.7329 522.287 37.6343 520.346 35.7386 514.31Z" fill="#CEC927" stroke="#ACA824"/>
<path d="M23.5441 544.226C23.2576 548.849 22.6846 553.464 21.7887 558.028C21.7887 558.062 21.7783 558.079 21.7783 558.096C21.2859 560.501 22.9755 560.31 24.6172 560.31C25.6017 556.28 26.4247 550.682 26.5081 545.762C26.5081 545.762 27.029 550.393 25.6955 558.639C25.7684 559.164 25.8726 559.792 26.0653 560.31H27.753C28.399 554.338 28.8417 547.255 28.9042 540.519C28.9355 541.554 29.1647 548.917 28.2323 560.31H31.0243L31.3733 559.046L31.639 558.121C31.6338 558.113 31.6338 558.096 31.6338 558.079C31.4202 555.05 31.29 552.395 31.2014 550.113C30.9566 543.777 31.1337 540.401 31.1337 540.401C31.1806 547.043 31.613 554.024 32.2589 560.539L34.6186 560.31C32.9934 551.199 33.4882 546.084 33.5247 545.77C33.6393 552.404 34.8947 558.147 35.4781 560.505L37.2752 560.31C37.9784 560.301 38.4733 559.19 38.2545 558.07C37.3533 553.498 36.7751 548.858 36.4938 544.226C35.7498 533.322 24.455 529.827 23.5441 544.226Z" fill="#CEC927" stroke="#ACA824"/>
<path d="M35.7386 521.31L35.0081 519L27.4034 522.2C23.2467 523.953 23.6667 527.424 24.6785 531C28.7329 529.287 37.6343 527.346 35.7386 521.31Z" fill="#CEC927" stroke="#ACA824"/>
<path d="M32.5184 529.184C33.5958 529.541 34.6479 530.001 35.4925 530.444C36.3372 530.887 36.8446 531.265 36.8446 531.265C37.0742 530.615 37.0567 529.821 36.8454 529.098C35.2229 522.169 26.518 523.352 24.4622 527.346C24.1931 527.869 24.0656 528.246 24.0656 528.246C25.2491 529.034 27.1825 530.687 27.8308 530.778C28.1681 530.843 28.4008 530.757 28.6723 530.657C29.9633 529.711 30.576 528.541 32.5184 529.184Z" fill="#CEC927" stroke="#ACA824"/>
<path d="M37.5725 536.907C40.2254 534.745 40.1809 531.438 37.5723 528.171C34.9637 524.904 29.4978 526.91 27.712 532.607C28.9642 535.81 36.4027 534.161 37.5725 536.907Z" fill="#CEC927" stroke="#ACA824"/>
<path d="M26.8229 526.456C26.8726 525.998 26.9222 525.586 26.9719 525.312C27.0711 525.037 27.0711 524.854 27.0711 524.854C26.0287 524.945 25.0359 525.449 24.192 526.09C19.9935 529.505 22.1959 534.287 26.0287 536.891C26.9719 537.531 27.9647 537.897 28.7093 538.081C29.0568 538.172 29.4043 538.218 29.6029 538.264C29.8014 538.309 29.9503 538.309 29.9503 538.309C32.5354 533.909 26.573 531.064 26.8229 526.456Z" fill="#CEC927" stroke="#ACA824"/>
<path d="M29.1339 534.533C29.1339 534.533 28.9849 534.533 28.7864 534.482C28.5878 534.432 28.29 534.381 27.8928 534.28C27.1482 534.078 26.1554 533.623 25.2122 532.966C24.269 532.309 23.4251 531.4 22.8294 530.642C22.2338 529.884 21.8863 529.328 21.8863 529.328C21.2409 529.985 20.7942 530.844 20.5956 531.804C20.3474 532.764 20.3474 533.876 20.6452 534.987C20.8934 536.048 21.4395 537.109 22.1841 537.918C22.9287 538.726 23.8223 539.282 24.7158 539.535C24.7158 539.535 24.8647 539.585 25.1626 539.636C25.4604 539.686 25.8575 539.787 26.3539 539.838C27.3468 539.939 28.5878 539.888 29.7295 539.585C30.8713 539.282 31.7152 538.676 32.2612 538.12C32.5094 537.867 32.708 537.615 32.8073 537.463C32.9066 537.312 33.0059 537.211 33.0059 537.211C32.4102 535.998 32.3605 535.392 31.8641 535.038C31.3181 534.785 30.4742 534.684 29.1339 534.533Z" fill="#CEC927" stroke="#ACA824"/>
<path d="M29.6458 535.524C29.6458 535.524 29.5694 535.606 29.3836 535.707C29.2453 535.822 28.9688 536.054 28.6736 536.174C28.0399 536.558 27.0118 536.874 25.8328 536.827C24.6868 536.842 23.4519 536.46 22.5308 536.07C22.0702 535.875 21.7191 535.66 21.4485 535.524C21.178 535.388 21.0499 535.295 21.0499 535.295C20.8233 536.228 20.8672 537.298 21.2725 538.374C21.6303 539.435 22.3494 540.502 23.3595 541.29C23.8574 541.708 24.3841 542.029 24.9871 542.268C25.2577 542.405 25.5427 542.493 25.8277 542.581C26.1126 542.669 26.4121 542.709 26.7115 542.749C27.3103 542.828 27.843 542.782 28.3757 542.735C28.8753 542.626 29.3894 542.468 29.8228 542.232C29.8228 542.232 29.9611 542.116 30.2563 541.996C30.504 541.862 30.8425 541.597 31.2429 541.298C31.9962 540.686 32.8361 539.784 33.4529 538.76C34.0697 537.736 34.4677 536.75 34.6986 535.977C34.814 535.59 34.8675 535.237 34.9252 535.044C34.9354 534.835 34.9787 534.69 34.9787 534.69C33.7064 534.086 32.6945 533.826 31.9286 533.959C31.1151 534.077 30.5951 534.603 29.6458 535.524Z" fill="#CEC927" stroke="#ACA824"/>
<path d="M30.4334 534.02C30.4333 535.51 30.5716 536.95 30.1715 538.444C29.8737 539.606 29.3276 540.717 28.7816 541.526C28.4837 541.93 28.2355 542.284 28.037 542.486C27.8384 542.688 27.6895 542.839 27.6895 542.839C28.583 543.294 29.6255 543.395 30.6679 543.294C31.7104 543.143 32.7529 542.789 33.5968 542.183C37.8792 539.194 36.3038 534.58 34.119 532.296C32.3638 531.29 30.9067 532.073 30.4334 534.02Z" fill="#CEC927" stroke="#ACA824"/>
<path d="M35.0295 541.482C39.1535 540.316 39.7284 534.193 36.3439 532.077C32.9593 529.962 30.4208 532.5 30.422 533.471C34.6539 534.274 36.3433 536.308 35.0295 541.482Z" fill="#CEC927" stroke="#ACA824"/>
</svg>
