<svg width="27" height="26" viewBox="0 0 27 26" fill="none" xmlns="http://www.w3.org/2000/svg">
<path d="M3.63891 18.8092C3.77643 19.9303 4.41331 21.1851 5.42864 22.1172C6.43219 23.0932 7.71161 23.766 9.02813 24.1187C14.9985 25.6121 18.9762 19.6241 18.6177 14.4789C18.5875 14.0466 18.5338 13.7022 18.5019 13.4579C18.4701 13.2137 18.4601 13.0696 18.4601 13.0696C16.903 12.8881 15.7882 12.8722 15.0112 13.2297C10.4804 14.9692 9.66765 20.4246 3.63891 18.8092Z" fill="#DE8342" stroke="#A45A25"/>
<path d="M12.3115 24.3425C13.2963 24.8956 14.6846 25.1257 16.0369 24.8595C17.4177 24.6289 18.7175 23.9965 19.7815 23.1446C24.5206 19.2184 22.0516 12.467 17.6934 9.70863C17.3272 9.47686 17.0179 9.3162 16.8023 9.19723C16.5866 9.07825 16.4645 9.00096 16.4645 9.00096C15.3961 10.1481 14.7231 11.037 14.551 11.8747C13.2693 16.5557 17.1836 20.4415 12.3115 24.3425Z" fill="#DE8342" stroke="#A45A25"/>
<path d="M21.9032 20.6347C22.9322 20.1688 23.9397 19.1864 24.5262 17.9391C25.1581 16.69 25.4184 15.2681 25.3621 13.9063C25.0052 7.76237 18.1029 5.75337 13.2993 7.63137C12.8957 7.78917 12.583 7.94323 12.3594 8.04656C12.1358 8.14988 12.0013 8.20244 12.0013 8.20244C12.2928 9.74267 12.6104 10.8114 13.1836 11.4463C16.1962 15.2513 21.6454 14.3986 21.9032 20.6347Z" fill="#DE8342" stroke="#A45A25"/>
<path d="M24.5971 10.705C24.8311 9.59999 24.6362 8.2063 23.9786 6.99507C23.3464 5.74608 22.3548 4.69427 21.2241 3.93311C16.0623 0.581934 10.3557 4.95369 9.02394 9.93652C8.91204 10.3552 8.85103 10.6984 8.80186 10.9397C8.75268 11.1811 8.71534 11.3206 8.71534 11.3206C10.1291 11.9979 11.1783 12.3749 12.0293 12.2891C16.8794 12.1152 19.4197 7.21939 24.5971 10.705Z" fill="#DE8342" stroke="#A45A25"/>
<path d="M18.1913 2.65723C17.4395 1.81428 16.2011 1.14589 14.8357 0.95846C13.4549 0.728168 12.0201 0.904228 10.7372 1.36444C4.97984 3.53895 5.12272 10.7262 8.34897 14.7503C8.62006 15.0885 8.86041 15.3409 9.02577 15.5234C9.19112 15.706 9.28146 15.8187 9.28146 15.8187C10.6644 15.0807 11.5897 14.4586 12.0245 13.7221C14.7568 9.71103 12.3164 4.76469 18.1913 2.65723Z" fill="#DE8342" stroke="#A45A25"/>
<path d="M7.91329 3.04973C6.78885 3.15624 5.51686 3.75824 4.55716 4.74745C3.55382 5.72367 2.84594 6.98403 2.45696 8.2903C0.799348 14.2172 5.5536 17.0482 10.7068 16.8318C11.1398 16.8137 11.4855 16.7695 11.7305 16.7444C11.9756 16.7192 12.1199 16.7132 12.1199 16.7132C12.3443 15.1618 13.5125 15.3583 13.1766 14.5718C11.5629 9.99467 6.13205 9.03158 7.91329 3.04973Z" fill="#DE8342" stroke="#A45A25"/>
<path d="M2.14294 11.5669C1.56282 12.536 1.29455 13.9175 1.52324 15.2766C1.71562 16.6632 2.41365 17.7649 3.23582 18.852C5.91367 21.5061 12.6248 20.1139 14.0139 14.9107C13.8089 13.1905 13.786 13.1968 13.0643 12.1041C9.67292 16.8548 5.90793 16.5449 2.14294 11.5669Z" fill="#DE8342" stroke="#A45A25"/>
</svg>
