<svg width="60" height="503" viewBox="0 0 60 503" fill="none" xmlns="http://www.w3.org/2000/svg">
<path d="M36.2168 3.50239L35.4254 1L27.187 4.46693C22.6839 6.36502 23.1389 10.1263 24.235 14C28.6273 12.1445 38.2705 10.0411 36.2168 3.50239Z" fill="#DD3434" stroke="#AF1E1E"/>
<path d="M36.2168 11.5024L35.4254 9L27.187 12.4669C22.6839 14.365 23.1389 18.1263 24.235 22C28.6273 20.1445 38.2705 18.0411 36.2168 11.5024Z" fill="#DD3434" stroke="#AF1E1E"/>
<path d="M36.2168 19.5024L35.4254 17L27.187 20.4669C22.6839 22.365 23.1389 26.1263 24.235 30C28.6273 28.1445 38.2705 26.0411 36.2168 19.5024Z" fill="#DD3434" stroke="#AF1E1E"/>
<path d="M36.2168 27.5024L35.4254 25L27.187 28.4669C22.6839 30.365 23.1389 34.1263 24.235 38C28.6273 36.1445 38.2705 34.0411 36.2168 27.5024Z" fill="#DD3434" stroke="#AF1E1E"/>
<path d="M36.2168 35.5024L35.4254 33L27.187 36.4669C22.6839 38.365 23.1389 42.1263 24.235 46C28.6273 44.1445 38.2705 42.0411 36.2168 35.5024Z" fill="#DD3434" stroke="#AF1E1E"/>
<path d="M36.2168 43.5024L35.4254 41L27.187 44.4669C22.6839 46.365 23.1389 50.1263 24.235 54C28.6273 52.1445 38.2705 50.0411 36.2168 43.5024Z" fill="#DD3434" stroke="#AF1E1E"/>
<path d="M36.2168 51.5024L35.4254 49L27.187 52.4669C22.6839 54.365 23.1389 58.1263 24.235 62C28.6273 60.1445 38.2705 58.0411 36.2168 51.5024Z" fill="#DD3434" stroke="#AF1E1E"/>
<path d="M36.2168 59.5024L35.4254 57L27.187 60.4669C22.6839 62.365 23.1389 66.1263 24.235 70C28.6273 68.1445 38.2705 66.0411 36.2168 59.5024Z" fill="#DD3434" stroke="#AF1E1E"/>
<path d="M36.2168 67.5024L35.4254 65L27.187 68.4669C22.6839 70.365 23.1389 74.1263 24.235 78C28.6273 76.1445 38.2705 74.0411 36.2168 67.5024Z" fill="#DD3434" stroke="#AF1E1E"/>
<path d="M36.0456 109.452C35.597 108.306 34.6002 107.159 33.3044 106.462C32.0086 105.714 30.5135 105.365 29.0681 105.365C22.5428 105.478 20.1119 112.935 21.8913 118.274C22.0408 118.722 22.1904 119.071 22.29 119.32C22.3897 119.569 22.4395 119.719 22.4395 119.719C24.0842 119.47 25.2305 119.171 25.9282 118.573C30.0917 115.45 29.427 109.452 36.0456 109.452Z" fill="#DD3434" stroke="#AF1E1E"/>
<path d="M41.6214 114.205C41.5446 112.976 40.9458 111.58 39.9252 110.52C38.9198 109.412 37.6028 108.623 36.2266 108.182C30.2519 106.377 24.3367 112.397 26.484 118.147C35.9625 121.68 35.5165 112.246 41.6214 114.205Z" fill="#DD3434" stroke="#AF1E1E"/>
<path d="M22.2864 110.15C22.3861 109.951 22.4858 109.751 22.5356 109.552C22.6851 109.253 22.7848 109.053 22.7848 109.053C21.6883 108.854 20.4424 109.004 19.2961 109.502C18.1498 109.951 17.0533 110.748 16.2559 111.695C12.6562 116.195 15.0844 122.254 19.3459 125.45C19.5452 125.6 19.7945 125.75 19.9938 125.899C20.3925 126.148 20.6915 126.348 20.9407 126.447C21.1899 126.547 21.3394 126.597 21.3394 126.597C22.4857 125.401 23.1336 124.504 23.333 123.457C24.0136 118.919 21.0068 115.268 22.2864 110.15Z" fill="#DD3434" stroke="#AF1E1E"/>
<path d="M35.4948 118.124C35.4948 118.124 35.6443 118.074 35.8935 117.975C36.1427 117.875 36.4916 117.775 36.9402 117.725C37.8373 117.526 39.1331 117.526 40.4787 117.775C41.8244 118.025 43.2199 118.573 44.2167 119.071C44.7151 119.32 45.1138 119.57 45.4128 119.769C45.7118 119.968 45.8613 120.068 45.8613 120.068C46.26 119.021 46.3099 117.825 46.0607 116.629C45.8115 115.433 45.2134 114.187 44.3661 113.19C43.5189 112.144 42.4225 111.346 41.2263 110.848C40.0302 110.349 38.7344 110.2 37.5881 110.399C37.5881 110.399 37.3887 110.449 37.0398 110.499C36.691 110.599 36.1926 110.698 35.6443 110.947C35.0961 111.147 34.4482 111.446 33.8501 111.844C33.2521 112.243 32.7039 112.692 32.2055 113.19C31.2585 114.187 30.8099 115.383 30.6604 116.23C30.6106 116.679 30.6106 116.978 30.6604 117.227C30.7103 117.476 30.7103 117.576 30.7103 117.576C31.9064 118.423 32.355 119.071 32.7039 119.071C32.8534 119.071 33.2022 118.971 33.6009 118.772C34.2987 118.623 34.8968 118.373 35.4948 118.124Z" fill="#DD3434" stroke="#AF1E1E"/>
<path d="M36.2129 99.5024L35.4215 97L27.1831 100.467C22.68 102.365 23.135 106.126 24.2311 110C28.6234 108.145 38.2666 106.041 36.2129 99.5024Z" fill="#DD3434" stroke="#AF1E1E"/>
<path d="M36.2129 107.502L35.4215 105L27.1831 108.467C22.68 110.365 23.135 114.126 24.2311 118C28.6234 116.145 38.2666 114.041 36.2129 107.502Z" fill="#DD3434" stroke="#AF1E1E"/>
<path d="M36.2129 115.502L35.4215 113L27.1831 116.467C22.68 118.365 23.135 122.126 24.2311 126C28.6234 124.145 38.2666 122.041 36.2129 115.502Z" fill="#DD3434" stroke="#AF1E1E"/>
<path d="M36.2129 123.502L35.4215 121L27.1831 124.467C22.68 126.365 23.135 130.126 24.2311 134C28.6234 132.145 38.2666 130.041 36.2129 123.502Z" fill="#DD3434" stroke="#AF1E1E"/>
<path d="M36.2129 131.502L35.4215 129L27.1831 132.467C22.68 134.365 23.135 138.126 24.2311 142C28.6234 140.145 38.2666 138.041 36.2129 131.502Z" fill="#DD3434" stroke="#AF1E1E"/>
<path d="M36.2129 139.502L35.4215 137L27.1831 140.467C22.68 142.365 23.135 146.126 24.2311 150C28.6234 148.145 38.2666 146.041 36.2129 139.502Z" fill="#DD3434" stroke="#AF1E1E"/>
<path d="M14.7621 118.872C14.6624 118.523 14.6126 118.374 14.6126 118.374C12.7187 119.47 11.4229 121.812 11.373 124.354C11.373 130.511 17.9912 133.9 23.5836 132.428C24.0321 132.329 24.381 132.229 24.6302 132.129C24.8794 132.029 25.0289 131.98 25.0289 131.98C24.6912 126.238 16.5082 124.983 14.7621 118.872Z" fill="#DD3434" stroke="#AF1E1E"/>
<path d="M25.0309 131.93C25.0309 131.93 24.8814 131.98 24.6322 132.079C24.383 132.179 24.0341 132.279 23.5856 132.378C22.6885 132.578 21.3927 132.727 19.9972 132.628C19.2995 132.578 18.6515 132.428 17.9538 132.229C17.3059 132.03 16.7078 131.78 16.1596 131.581C15.6612 131.332 15.2126 131.083 14.9136 130.933C14.6146 130.734 14.4152 130.634 14.4152 130.634C14.2657 131.182 14.2159 131.731 14.166 132.329C14.166 132.927 14.2657 133.525 14.465 134.173C14.6146 134.771 14.9136 135.369 15.2126 135.917C15.5117 136.465 15.9602 136.964 16.4088 137.462C16.8573 137.911 17.3557 138.309 17.9039 138.658C18.4522 139.007 19.0004 139.256 19.5985 139.456C20.1965 139.655 20.7448 139.755 21.3428 139.804C21.9409 139.854 22.4892 139.755 22.9876 139.655C22.9876 139.655 23.1869 139.605 23.4859 139.505C23.8348 139.406 24.2833 139.256 24.8316 139.107C25.8782 138.708 27.2238 138.06 28.3203 137.263C28.8685 136.864 29.3669 136.415 29.8155 136.017C30.264 135.568 30.6129 135.169 30.8621 134.771C31.4103 133.973 31.6595 133.475 31.6595 133.475C30.563 132.229 29.7158 131.531 28.719 131.332C27.7223 131.132 26.5759 131.332 25.0309 131.93Z" fill="#DD3434" stroke="#AF1E1E"/>
<path d="M31.6583 133.525C31.6583 133.525 31.4091 134.023 30.8609 134.821C30.5618 135.169 30.213 135.618 29.8142 136.066C29.3657 136.465 28.8673 136.914 28.3191 137.312C27.2226 138.11 25.877 138.758 24.8303 139.157C24.2821 139.356 23.8336 139.505 23.4847 139.555C23.1358 139.655 22.9863 139.655 22.9863 139.655C23.2355 140.153 23.5843 140.602 23.9332 141.001C24.3319 141.449 24.7805 141.798 25.2789 142.097C25.7773 142.446 26.3255 142.695 26.9236 142.894C27.5216 143.094 28.1197 143.193 28.7676 143.293C30.0136 143.393 31.3593 143.193 32.5056 142.745C33.6519 142.247 34.6486 141.549 35.2965 140.602C35.2965 140.602 35.3962 140.452 35.5956 140.153C35.7949 139.904 36.0441 139.406 36.2933 138.907C36.8415 137.911 37.3399 136.465 37.5393 135.12C37.7386 133.774 37.6888 132.478 37.4895 131.531C37.3898 131.083 37.2901 130.684 37.2403 130.435C37.1406 130.185 37.0907 130.036 37.0907 130.036C35.446 130.036 34.2998 130.136 33.5522 130.634C33.3528 130.734 33.2033 130.883 33.004 131.083C32.8544 131.232 32.7049 131.431 32.5554 131.681C32.4059 131.88 32.2563 132.179 32.1068 132.478C32.0071 132.827 31.8576 133.126 31.6583 133.525Z" fill="#DD3434" stroke="#AF1E1E"/>
<path d="M37.1868 130.135C37.1868 130.135 37.2366 130.285 37.3363 130.534C37.3861 130.783 37.4858 131.132 37.5855 131.631C37.735 132.528 37.8347 133.824 37.6353 135.219C37.436 136.565 36.9376 138.01 36.3894 139.007C36.1402 139.505 35.8412 139.954 35.6917 140.253C35.4923 140.552 35.3926 140.701 35.3926 140.701C35.6418 140.801 35.9408 140.901 36.2399 140.951C36.5389 141 36.8379 141 37.1369 141.05C37.436 141.05 37.735 141.05 38.0839 141.05C38.3829 141 38.682 140.951 38.981 140.901C40.1772 140.602 41.3733 140.004 42.37 139.156C43.3668 138.309 44.1144 137.213 44.563 136.116C45.0115 134.97 45.1611 133.774 44.9617 132.677C44.9617 132.677 44.9118 132.478 44.862 132.129C44.8121 131.78 44.6627 131.332 44.5131 130.783C44.1643 129.687 43.5662 128.341 42.7688 127.195C41.9713 126.049 40.9746 125.201 40.227 124.653C39.8283 124.404 39.5292 124.205 39.28 124.055C39.0308 123.906 38.9312 123.856 38.9312 123.856C37.7351 125.002 37.0373 125.849 36.8379 126.697C36.4392 127.444 36.6884 128.541 37.1868 130.135Z" fill="#DD3434" stroke="#AF1E1E"/>
<path d="M44.7142 132.029C44.764 132.378 44.8138 132.578 44.8138 132.578C45.8106 132.129 46.7078 131.282 47.4055 130.235C48.1033 129.189 48.5019 127.893 48.6016 126.597C48.7013 125.301 48.5019 123.956 48.0035 122.859C45.9306 118.091 42.9894 116.427 36.7663 117.647C35.5058 119.965 35.4441 120.866 35.8927 121.663C38.5979 125.871 43.6459 125.62 44.7142 132.029Z" fill="#DD3434" stroke="#AF1E1E"/>
<path d="M36.0456 85.452C35.597 84.3057 34.6002 83.1594 33.3044 82.4617C32.0086 81.7141 30.5135 81.3652 29.0681 81.3652C22.5428 81.4777 20.1119 88.9353 21.8913 94.2735C22.0408 94.7221 22.1904 95.071 22.29 95.3202C22.3897 95.5693 22.4395 95.7189 22.4395 95.7189C24.0842 95.4697 25.2305 95.1706 25.9282 94.5726C30.0917 91.45 29.427 85.452 36.0456 85.452Z" fill="#DD3434" stroke="#AF1E1E"/>
<path d="M41.6214 90.205C41.5446 88.9765 40.9458 87.5804 39.9252 86.5201C38.9198 85.4123 37.6028 84.6232 36.2266 84.1815C30.2519 82.377 24.3367 88.3974 26.484 94.1473C35.9625 97.6796 35.5165 88.2457 41.6214 90.205Z" fill="#DD3434" stroke="#AF1E1E"/>
<path d="M22.2864 86.1499C22.3861 85.9506 22.4858 85.7512 22.5356 85.5518C22.6851 85.2528 22.7848 85.0535 22.7848 85.0535C21.6883 84.8541 20.4424 85.0036 19.2961 85.502C18.1498 85.9506 17.0533 86.748 16.2559 87.6949C12.6562 92.1946 15.0844 98.2544 19.3459 101.45C19.5452 101.6 19.7945 101.75 19.9938 101.899C20.3925 102.148 20.6915 102.348 20.9407 102.447C21.1899 102.547 21.3394 102.597 21.3394 102.597C22.4857 101.401 23.1336 100.504 23.333 99.4569C24.0136 94.9194 21.0068 91.2683 22.2864 86.1499Z" fill="#DD3434" stroke="#AF1E1E"/>
<path d="M35.4948 94.1242C35.4948 94.1242 35.6443 94.0744 35.8935 93.9747C36.1427 93.875 36.4916 93.7753 36.9402 93.7255C37.8373 93.5261 39.1331 93.5261 40.4787 93.7753C41.8244 94.0245 43.2199 94.5727 44.2167 95.0711C44.7151 95.3203 45.1138 95.5695 45.4128 95.7689C45.7118 95.9682 45.8613 96.0679 45.8613 96.0679C46.26 95.0213 46.3099 93.8252 46.0607 92.629C45.8115 91.4329 45.2134 90.1869 44.3661 89.1901C43.5189 88.1435 42.4225 87.3461 41.2263 86.8477C40.0302 86.3493 38.7344 86.1998 37.5881 86.3992C37.5881 86.3992 37.3887 86.449 37.0398 86.4988C36.691 86.5985 36.1926 86.6982 35.6443 86.9474C35.0961 87.1467 34.4482 87.4458 33.8501 87.8445C33.2521 88.2432 32.7039 88.6917 32.2055 89.1901C31.2585 90.1869 30.8099 91.3831 30.6604 92.2303C30.6106 92.6789 30.6106 92.9779 30.6604 93.2271C30.7103 93.4763 30.7103 93.576 30.7103 93.576C31.9064 94.4232 32.355 95.0711 32.7039 95.0711C32.8534 95.0711 33.2022 94.9715 33.6009 94.7721C34.2987 94.6226 34.8968 94.3734 35.4948 94.1242Z" fill="#DD3434" stroke="#AF1E1E"/>
<path d="M36.2129 75.5024L35.4215 73L27.1831 76.4669C22.68 78.365 23.135 82.1263 24.2311 86C28.6234 84.1445 38.2666 82.0411 36.2129 75.5024Z" fill="#DD3434" stroke="#AF1E1E"/>
<path d="M36.2129 83.5024L35.4215 81L27.1831 84.4669C22.68 86.365 23.135 90.1263 24.2311 94C28.6234 92.1445 38.2666 90.0411 36.2129 83.5024Z" fill="#DD3434" stroke="#AF1E1E"/>
<path d="M36.2129 91.5024L35.4215 89L27.1831 92.4669C22.68 94.365 23.135 98.1263 24.2311 102C28.6234 100.145 38.2666 98.0411 36.2129 91.5024Z" fill="#DD3434" stroke="#AF1E1E"/>
<path d="M36.2129 99.5024L35.4215 97L27.1831 100.467C22.68 102.365 23.135 106.126 24.2311 110C28.6234 108.145 38.2666 106.041 36.2129 99.5024Z" fill="#DD3434" stroke="#AF1E1E"/>
<path d="M36.2129 107.502L35.4215 105L27.1831 108.467C22.68 110.365 23.135 114.126 24.2311 118C28.6234 116.145 38.2666 114.041 36.2129 107.502Z" fill="#DD3434" stroke="#AF1E1E"/>
<path d="M36.2129 115.502L35.4215 113L27.1831 116.467C22.68 118.365 23.135 122.126 24.2311 126C28.6234 124.145 38.2666 122.041 36.2129 115.502Z" fill="#DD3434" stroke="#AF1E1E"/>
<path d="M14.7621 94.872C14.6624 94.5231 14.6126 94.3736 14.6126 94.3736C12.7187 95.4701 11.4229 97.8125 11.373 100.354C11.373 106.511 17.9912 109.9 23.5836 108.428C24.0321 108.329 24.381 108.229 24.6302 108.129C24.8794 108.029 25.0289 107.98 25.0289 107.98C24.6912 102.238 16.5082 100.983 14.7621 94.872Z" fill="#DD3434" stroke="#AF1E1E"/>
<path d="M25.0309 107.93C25.0309 107.93 24.8814 107.98 24.6322 108.079C24.383 108.179 24.0341 108.279 23.5856 108.378C22.6885 108.578 21.3927 108.727 19.9972 108.628C19.2995 108.578 18.6515 108.428 17.9538 108.229C17.3059 108.03 16.7078 107.78 16.1596 107.581C15.6612 107.332 15.2126 107.083 14.9136 106.933C14.6146 106.734 14.4152 106.634 14.4152 106.634C14.2657 107.182 14.2159 107.731 14.166 108.329C14.166 108.927 14.2657 109.525 14.465 110.173C14.6146 110.771 14.9136 111.369 15.2126 111.917C15.5117 112.465 15.9602 112.964 16.4088 113.462C16.8573 113.911 17.3557 114.309 17.9039 114.658C18.4522 115.007 19.0004 115.256 19.5985 115.456C20.1965 115.655 20.7448 115.755 21.3428 115.804C21.9409 115.854 22.4892 115.755 22.9876 115.655C22.9876 115.655 23.1869 115.605 23.4859 115.505C23.8348 115.406 24.2833 115.256 24.8316 115.107C25.8782 114.708 27.2238 114.06 28.3203 113.263C28.8685 112.864 29.3669 112.415 29.8155 112.017C30.264 111.568 30.6129 111.169 30.8621 110.771C31.4103 109.973 31.6595 109.475 31.6595 109.475C30.563 108.229 29.7158 107.531 28.719 107.332C27.7223 107.132 26.5759 107.332 25.0309 107.93Z" fill="#DD3434" stroke="#AF1E1E"/>
<path d="M31.6583 109.525C31.6583 109.525 31.4091 110.023 30.8609 110.821C30.5618 111.169 30.213 111.618 29.8142 112.066C29.3657 112.465 28.8673 112.914 28.3191 113.312C27.2226 114.11 25.877 114.758 24.8303 115.157C24.2821 115.356 23.8336 115.505 23.4847 115.555C23.1358 115.655 22.9863 115.655 22.9863 115.655C23.2355 116.153 23.5843 116.602 23.9332 117.001C24.3319 117.449 24.7805 117.798 25.2789 118.097C25.7773 118.446 26.3255 118.695 26.9236 118.894C27.5216 119.094 28.1197 119.193 28.7676 119.293C30.0136 119.393 31.3593 119.193 32.5056 118.745C33.6519 118.247 34.6486 117.549 35.2965 116.602C35.2965 116.602 35.3962 116.452 35.5956 116.153C35.7949 115.904 36.0441 115.406 36.2933 114.907C36.8415 113.911 37.3399 112.465 37.5393 111.12C37.7386 109.774 37.6888 108.478 37.4895 107.531C37.3898 107.083 37.2901 106.684 37.2403 106.435C37.1406 106.185 37.0907 106.036 37.0907 106.036C35.446 106.036 34.2998 106.136 33.5522 106.634C33.3528 106.734 33.2033 106.883 33.004 107.083C32.8544 107.232 32.7049 107.431 32.5554 107.681C32.4059 107.88 32.2563 108.179 32.1068 108.478C32.0071 108.827 31.8576 109.126 31.6583 109.525Z" fill="#DD3434" stroke="#AF1E1E"/>
<path d="M37.1868 106.135C37.1868 106.135 37.2366 106.285 37.3363 106.534C37.3861 106.783 37.4858 107.132 37.5855 107.631C37.735 108.528 37.8347 109.824 37.6353 111.219C37.436 112.565 36.9376 114.01 36.3894 115.007C36.1402 115.505 35.8412 115.954 35.6917 116.253C35.4923 116.552 35.3926 116.701 35.3926 116.701C35.6418 116.801 35.9408 116.901 36.2399 116.951C36.5389 117 36.8379 117 37.1369 117.05C37.436 117.05 37.735 117.05 38.0839 117.05C38.3829 117 38.682 116.951 38.981 116.901C40.1772 116.602 41.3733 116.004 42.37 115.156C43.3668 114.309 44.1144 113.213 44.563 112.116C45.0115 110.97 45.1611 109.774 44.9617 108.677C44.9617 108.677 44.9118 108.478 44.862 108.129C44.8121 107.78 44.6627 107.332 44.5131 106.783C44.1643 105.687 43.5662 104.341 42.7688 103.195C41.9713 102.049 40.9746 101.201 40.227 100.653C39.8283 100.404 39.5292 100.205 39.28 100.055C39.0308 99.9056 38.9312 99.8558 38.9312 99.8558C37.7351 101.002 37.0373 101.849 36.8379 102.697C36.4392 103.444 36.6884 104.541 37.1868 106.135Z" fill="#DD3434" stroke="#AF1E1E"/>
<path d="M44.7142 108.029C44.764 108.378 44.8138 108.578 44.8138 108.578C45.8106 108.129 46.7078 107.282 47.4055 106.235C48.1033 105.189 48.5019 103.893 48.6016 102.597C48.7013 101.301 48.5019 99.9556 48.0035 98.8591C45.9306 94.0914 42.9894 92.4266 36.7663 93.6467C35.5058 95.9646 35.4441 96.8656 35.8927 97.663C38.5979 101.871 43.6459 101.62 44.7142 108.029Z" fill="#DD3434" stroke="#AF1E1E"/>
<path d="M36.2168 147.502L35.4254 145L27.187 148.467C22.6839 150.365 23.1389 154.126 24.235 158C28.6273 156.145 38.2705 154.041 36.2168 147.502Z" fill="#DD3434" stroke="#AF1E1E"/>
<path d="M36.2168 155.502L35.4254 153L27.187 156.467C22.6839 158.365 23.1389 162.126 24.235 166C28.6273 164.145 38.2705 162.041 36.2168 155.502Z" fill="#DD3434" stroke="#AF1E1E"/>
<path d="M36.2168 163.502L35.4254 161L27.187 164.467C22.6839 166.365 23.1389 170.126 24.235 174C28.6273 172.145 38.2705 170.041 36.2168 163.502Z" fill="#DD3434" stroke="#AF1E1E"/>
<path d="M36.2168 171.502L35.4254 169L27.187 172.467C22.6839 174.365 23.1389 178.126 24.235 182C28.6273 180.145 38.2705 178.041 36.2168 171.502Z" fill="#DD3434" stroke="#AF1E1E"/>
<path d="M36.2168 179.502L35.4254 177L27.187 180.467C22.6839 182.365 23.1389 186.126 24.235 190C28.6273 188.145 38.2705 186.041 36.2168 179.502Z" fill="#DD3434" stroke="#AF1E1E"/>
<path d="M36.2168 187.502L35.4254 185L27.187 188.467C22.6839 190.365 23.1389 194.126 24.235 198C28.6273 196.145 38.2705 194.041 36.2168 187.502Z" fill="#DD3434" stroke="#AF1E1E"/>
<path d="M36.2168 195.502L35.4254 193L27.187 196.467C22.6839 198.365 23.1389 202.126 24.235 206C28.6273 204.145 38.2705 202.041 36.2168 195.502Z" fill="#DD3434" stroke="#AF1E1E"/>
<path d="M36.2168 203.502L35.4254 201L27.187 204.467C22.6839 206.365 23.1389 210.126 24.235 214C28.6273 212.145 38.2705 210.041 36.2168 203.502Z" fill="#DD3434" stroke="#AF1E1E"/>
<path d="M36.2168 211.502L35.4254 209L27.187 212.467C22.6839 214.365 23.1389 218.126 24.235 222C28.6273 220.145 38.2705 218.041 36.2168 211.502Z" fill="#DD3434" stroke="#AF1E1E"/>
<path d="M36.2168 219.502L35.4254 217L27.187 220.467C22.6839 222.365 23.1389 226.126 24.235 230C28.6273 228.145 38.2705 226.041 36.2168 219.502Z" fill="#DD3434" stroke="#AF1E1E"/>
<path d="M36.2168 227.502L35.4254 225L27.187 228.467C22.6839 230.365 23.1389 234.126 24.235 238C28.6273 236.145 38.2705 234.041 36.2168 227.502Z" fill="#DD3434" stroke="#AF1E1E"/>
<path d="M36.2168 235.502L35.4254 233L27.187 236.467C22.6839 238.365 23.1389 242.126 24.235 246C28.6273 244.145 38.2705 242.041 36.2168 235.502Z" fill="#DD3434" stroke="#AF1E1E"/>
<path d="M36.2168 243.502L35.4254 241L27.187 244.467C22.6839 246.365 23.1389 250.126 24.235 254C28.6273 252.145 38.2705 250.041 36.2168 243.502Z" fill="#DD3434" stroke="#AF1E1E"/>
<path d="M36.2168 251.502L35.4254 249L27.187 252.467C22.6839 254.365 23.1389 258.126 24.235 262C28.6273 260.145 38.2705 258.041 36.2168 251.502Z" fill="#DD3434" stroke="#AF1E1E"/>
<path d="M36.2168 259.502L35.4254 257L27.187 260.467C22.6839 262.365 23.1389 266.126 24.235 270C28.6273 268.145 38.2705 266.041 36.2168 259.502Z" fill="#DD3434" stroke="#AF1E1E"/>
<path d="M36.2168 267.502L35.4254 265L27.187 268.467C22.6839 270.365 23.1389 274.126 24.235 278C28.6273 276.145 38.2705 274.041 36.2168 267.502Z" fill="#DD3434" stroke="#AF1E1E"/>
<path d="M36.2168 275.502L35.4254 273L27.187 276.467C22.6839 278.365 23.1389 282.126 24.235 286C28.6273 284.145 38.2705 282.041 36.2168 275.502Z" fill="#DD3434" stroke="#AF1E1E"/>
<path d="M36.2168 283.502L35.4254 281L27.187 284.467C22.6839 286.365 23.1389 290.126 24.235 294C28.6273 292.145 38.2705 290.041 36.2168 283.502Z" fill="#DD3434" stroke="#AF1E1E"/>
<path d="M36.2168 291.502L35.4254 289L27.187 292.467C22.6839 294.365 23.1389 298.126 24.235 302C28.6273 300.145 38.2705 298.041 36.2168 291.502Z" fill="#DD3434" stroke="#AF1E1E"/>
<path d="M36.2168 299.502L35.4254 297L27.187 300.467C22.6839 302.365 23.1389 306.126 24.235 310C28.6273 308.145 38.2705 306.041 36.2168 299.502Z" fill="#DD3434" stroke="#AF1E1E"/>
<path d="M36.0456 341.452C35.597 340.306 34.6002 339.159 33.3044 338.462C32.0086 337.714 30.5135 337.365 29.0681 337.365C22.5428 337.478 20.1119 344.935 21.8913 350.274C22.0408 350.722 22.1904 351.071 22.29 351.32C22.3897 351.569 22.4395 351.719 22.4395 351.719C24.0842 351.47 25.2305 351.171 25.9282 350.573C30.0917 347.45 29.427 341.452 36.0456 341.452Z" fill="#DD3434" stroke="#AF1E1E"/>
<path d="M41.6214 346.205C41.5446 344.976 40.9458 343.58 39.9252 342.52C38.9198 341.412 37.6028 340.623 36.2266 340.182C30.2519 338.377 24.3367 344.397 26.484 350.147C35.9625 353.68 35.5165 344.246 41.6214 346.205Z" fill="#DD3434" stroke="#AF1E1E"/>
<path d="M22.2864 342.15C22.3861 341.951 22.4858 341.751 22.5356 341.552C22.6851 341.253 22.7848 341.053 22.7848 341.053C21.6883 340.854 20.4424 341.004 19.2961 341.502C18.1498 341.951 17.0533 342.748 16.2559 343.695C12.6562 348.195 15.0844 354.254 19.3459 357.45C19.5452 357.6 19.7945 357.75 19.9938 357.899C20.3925 358.148 20.6915 358.348 20.9407 358.447C21.1899 358.547 21.3394 358.597 21.3394 358.597C22.4857 357.401 23.1336 356.504 23.333 355.457C24.0136 350.919 21.0068 347.268 22.2864 342.15Z" fill="#DD3434" stroke="#AF1E1E"/>
<path d="M35.4948 350.124C35.4948 350.124 35.6443 350.074 35.8935 349.975C36.1427 349.875 36.4916 349.775 36.9402 349.725C37.8373 349.526 39.1331 349.526 40.4787 349.775C41.8244 350.025 43.2199 350.573 44.2167 351.071C44.7151 351.32 45.1138 351.57 45.4128 351.769C45.7118 351.968 45.8613 352.068 45.8613 352.068C46.26 351.021 46.3099 349.825 46.0607 348.629C45.8115 347.433 45.2134 346.187 44.3661 345.19C43.5189 344.144 42.4225 343.346 41.2263 342.848C40.0302 342.349 38.7344 342.2 37.5881 342.399C37.5881 342.399 37.3887 342.449 37.0398 342.499C36.691 342.599 36.1926 342.698 35.6443 342.947C35.0961 343.147 34.4482 343.446 33.8501 343.844C33.2521 344.243 32.7039 344.692 32.2055 345.19C31.2585 346.187 30.8099 347.383 30.6604 348.23C30.6106 348.679 30.6106 348.978 30.6604 349.227C30.7103 349.476 30.7103 349.576 30.7103 349.576C31.9064 350.423 32.355 351.071 32.7039 351.071C32.8534 351.071 33.2022 350.971 33.6009 350.772C34.2987 350.623 34.8968 350.373 35.4948 350.124Z" fill="#DD3434" stroke="#AF1E1E"/>
<path d="M36.2129 331.502L35.4215 329L27.1831 332.467C22.68 334.365 23.135 338.126 24.2311 342C28.6234 340.145 38.2666 338.041 36.2129 331.502Z" fill="#DD3434" stroke="#AF1E1E"/>
<path d="M36.2129 339.502L35.4215 337L27.1831 340.467C22.68 342.365 23.135 346.126 24.2311 350C28.6234 348.145 38.2666 346.041 36.2129 339.502Z" fill="#DD3434" stroke="#AF1E1E"/>
<path d="M36.2129 347.502L35.4215 345L27.1831 348.467C22.68 350.365 23.135 354.126 24.2311 358C28.6234 356.145 38.2666 354.041 36.2129 347.502Z" fill="#DD3434" stroke="#AF1E1E"/>
<path d="M36.2129 355.502L35.4215 353L27.1831 356.467C22.68 358.365 23.135 362.126 24.2311 366C28.6234 364.145 38.2666 362.041 36.2129 355.502Z" fill="#DD3434" stroke="#AF1E1E"/>
<path d="M36.2129 363.502L35.4215 361L27.1831 364.467C22.68 366.365 23.135 370.126 24.2311 374C28.6234 372.145 38.2666 370.041 36.2129 363.502Z" fill="#DD3434" stroke="#AF1E1E"/>
<path d="M36.2129 371.502L35.4215 369L27.1831 372.467C22.68 374.365 23.135 378.126 24.2311 382C28.6234 380.145 38.2666 378.041 36.2129 371.502Z" fill="#DD3434" stroke="#AF1E1E"/>
<path d="M14.7621 350.872C14.6624 350.523 14.6126 350.374 14.6126 350.374C12.7187 351.47 11.4229 353.812 11.373 356.354C11.373 362.511 17.9912 365.9 23.5836 364.428C24.0321 364.329 24.381 364.229 24.6302 364.129C24.8794 364.029 25.0289 363.98 25.0289 363.98C24.6912 358.238 16.5082 356.983 14.7621 350.872Z" fill="#DD3434" stroke="#AF1E1E"/>
<path d="M25.0309 363.93C25.0309 363.93 24.8814 363.98 24.6322 364.079C24.383 364.179 24.0341 364.279 23.5856 364.378C22.6885 364.578 21.3927 364.727 19.9972 364.628C19.2995 364.578 18.6515 364.428 17.9538 364.229C17.3059 364.03 16.7078 363.78 16.1596 363.581C15.6612 363.332 15.2126 363.083 14.9136 362.933C14.6146 362.734 14.4152 362.634 14.4152 362.634C14.2657 363.182 14.2159 363.731 14.166 364.329C14.166 364.927 14.2657 365.525 14.465 366.173C14.6146 366.771 14.9136 367.369 15.2126 367.917C15.5117 368.465 15.9602 368.964 16.4088 369.462C16.8573 369.911 17.3557 370.309 17.9039 370.658C18.4522 371.007 19.0004 371.256 19.5985 371.456C20.1965 371.655 20.7448 371.755 21.3428 371.804C21.9409 371.854 22.4892 371.755 22.9876 371.655C22.9876 371.655 23.1869 371.605 23.4859 371.505C23.8348 371.406 24.2833 371.256 24.8316 371.107C25.8782 370.708 27.2238 370.06 28.3203 369.263C28.8685 368.864 29.3669 368.415 29.8155 368.017C30.264 367.568 30.6129 367.169 30.8621 366.771C31.4103 365.973 31.6595 365.475 31.6595 365.475C30.563 364.229 29.7158 363.531 28.719 363.332C27.7223 363.132 26.5759 363.332 25.0309 363.93Z" fill="#DD3434" stroke="#AF1E1E"/>
<path d="M31.6583 365.525C31.6583 365.525 31.4091 366.023 30.8609 366.821C30.5618 367.169 30.213 367.618 29.8142 368.066C29.3657 368.465 28.8673 368.914 28.3191 369.312C27.2226 370.11 25.877 370.758 24.8303 371.157C24.2821 371.356 23.8336 371.505 23.4847 371.555C23.1358 371.655 22.9863 371.655 22.9863 371.655C23.2355 372.153 23.5843 372.602 23.9332 373.001C24.3319 373.449 24.7805 373.798 25.2789 374.097C25.7773 374.446 26.3255 374.695 26.9236 374.894C27.5216 375.094 28.1197 375.193 28.7676 375.293C30.0136 375.393 31.3593 375.193 32.5056 374.745C33.6519 374.247 34.6486 373.549 35.2965 372.602C35.2965 372.602 35.3962 372.452 35.5956 372.153C35.7949 371.904 36.0441 371.406 36.2933 370.907C36.8415 369.911 37.3399 368.465 37.5393 367.12C37.7386 365.774 37.6888 364.478 37.4895 363.531C37.3898 363.083 37.2901 362.684 37.2403 362.435C37.1406 362.185 37.0907 362.036 37.0907 362.036C35.446 362.036 34.2998 362.136 33.5522 362.634C33.3528 362.734 33.2033 362.883 33.004 363.083C32.8544 363.232 32.7049 363.431 32.5554 363.681C32.4059 363.88 32.2563 364.179 32.1068 364.478C32.0071 364.827 31.8576 365.126 31.6583 365.525Z" fill="#DD3434" stroke="#AF1E1E"/>
<path d="M37.1868 362.135C37.1868 362.135 37.2366 362.285 37.3363 362.534C37.3861 362.783 37.4858 363.132 37.5855 363.631C37.735 364.528 37.8347 365.824 37.6353 367.219C37.436 368.565 36.9376 370.01 36.3894 371.007C36.1402 371.505 35.8412 371.954 35.6917 372.253C35.4923 372.552 35.3926 372.701 35.3926 372.701C35.6418 372.801 35.9408 372.901 36.2399 372.951C36.5389 373 36.8379 373 37.1369 373.05C37.436 373.05 37.735 373.05 38.0839 373.05C38.3829 373 38.682 372.951 38.981 372.901C40.1772 372.602 41.3733 372.004 42.37 371.156C43.3668 370.309 44.1144 369.213 44.563 368.116C45.0115 366.97 45.1611 365.774 44.9617 364.677C44.9617 364.677 44.9118 364.478 44.862 364.129C44.8121 363.78 44.6627 363.332 44.5131 362.783C44.1643 361.687 43.5662 360.341 42.7688 359.195C41.9713 358.049 40.9746 357.201 40.227 356.653C39.8283 356.404 39.5292 356.205 39.28 356.055C39.0308 355.906 38.9312 355.856 38.9312 355.856C37.7351 357.002 37.0373 357.849 36.8379 358.697C36.4392 359.444 36.6884 360.541 37.1868 362.135Z" fill="#DD3434" stroke="#AF1E1E"/>
<path d="M44.7142 364.029C44.764 364.378 44.8138 364.578 44.8138 364.578C45.8106 364.129 46.7078 363.282 47.4055 362.235C48.1033 361.189 48.5019 359.893 48.6016 358.597C48.7013 357.301 48.5019 355.956 48.0035 354.859C45.9306 350.091 42.9894 348.427 36.7663 349.647C35.5058 351.965 35.4441 352.866 35.8927 353.663C38.5979 357.871 43.6459 357.62 44.7142 364.029Z" fill="#DD3434" stroke="#AF1E1E"/>
<path d="M36.0456 317.452C35.597 316.306 34.6002 315.159 33.3044 314.462C32.0086 313.714 30.5135 313.365 29.0681 313.365C22.5428 313.478 20.1119 320.935 21.8913 326.274C22.0408 326.722 22.1904 327.071 22.29 327.32C22.3897 327.569 22.4395 327.719 22.4395 327.719C24.0842 327.47 25.2305 327.171 25.9282 326.573C30.0917 323.45 29.427 317.452 36.0456 317.452Z" fill="#DD3434" stroke="#AF1E1E"/>
<path d="M41.6214 322.205C41.5446 320.976 40.9458 319.58 39.9252 318.52C38.9198 317.412 37.6028 316.623 36.2266 316.182C30.2519 314.377 24.3367 320.397 26.484 326.147C35.9625 329.68 35.5165 320.246 41.6214 322.205Z" fill="#DD3434" stroke="#AF1E1E"/>
<path d="M22.2864 318.15C22.3861 317.951 22.4858 317.751 22.5356 317.552C22.6851 317.253 22.7848 317.053 22.7848 317.053C21.6883 316.854 20.4424 317.004 19.2961 317.502C18.1498 317.951 17.0533 318.748 16.2559 319.695C12.6562 324.195 15.0844 330.254 19.3459 333.45C19.5452 333.6 19.7945 333.75 19.9938 333.899C20.3925 334.148 20.6915 334.348 20.9407 334.447C21.1899 334.547 21.3394 334.597 21.3394 334.597C22.4857 333.401 23.1336 332.504 23.333 331.457C24.0136 326.919 21.0068 323.268 22.2864 318.15Z" fill="#DD3434" stroke="#AF1E1E"/>
<path d="M35.4948 326.124C35.4948 326.124 35.6443 326.074 35.8935 325.975C36.1427 325.875 36.4916 325.775 36.9402 325.725C37.8373 325.526 39.1331 325.526 40.4787 325.775C41.8244 326.025 43.2199 326.573 44.2167 327.071C44.7151 327.32 45.1138 327.57 45.4128 327.769C45.7118 327.968 45.8613 328.068 45.8613 328.068C46.26 327.021 46.3099 325.825 46.0607 324.629C45.8115 323.433 45.2134 322.187 44.3661 321.19C43.5189 320.144 42.4225 319.346 41.2263 318.848C40.0302 318.349 38.7344 318.2 37.5881 318.399C37.5881 318.399 37.3887 318.449 37.0398 318.499C36.691 318.599 36.1926 318.698 35.6443 318.947C35.0961 319.147 34.4482 319.446 33.8501 319.844C33.2521 320.243 32.7039 320.692 32.2055 321.19C31.2585 322.187 30.8099 323.383 30.6604 324.23C30.6106 324.679 30.6106 324.978 30.6604 325.227C30.7103 325.476 30.7103 325.576 30.7103 325.576C31.9064 326.423 32.355 327.071 32.7039 327.071C32.8534 327.071 33.2022 326.971 33.6009 326.772C34.2987 326.623 34.8968 326.373 35.4948 326.124Z" fill="#DD3434" stroke="#AF1E1E"/>
<path d="M36.2129 307.502L35.4215 305L27.1831 308.467C22.68 310.365 23.135 314.126 24.2311 318C28.6234 316.145 38.2666 314.041 36.2129 307.502Z" fill="#DD3434" stroke="#AF1E1E"/>
<path d="M36.2129 315.502L35.4215 313L27.1831 316.467C22.68 318.365 23.135 322.126 24.2311 326C28.6234 324.145 38.2666 322.041 36.2129 315.502Z" fill="#DD3434" stroke="#AF1E1E"/>
<path d="M36.2129 323.502L35.4215 321L27.1831 324.467C22.68 326.365 23.135 330.126 24.2311 334C28.6234 332.145 38.2666 330.041 36.2129 323.502Z" fill="#DD3434" stroke="#AF1E1E"/>
<path d="M36.2129 331.502L35.4215 329L27.1831 332.467C22.68 334.365 23.135 338.126 24.2311 342C28.6234 340.145 38.2666 338.041 36.2129 331.502Z" fill="#DD3434" stroke="#AF1E1E"/>
<path d="M36.2129 339.502L35.4215 337L27.1831 340.467C22.68 342.365 23.135 346.126 24.2311 350C28.6234 348.145 38.2666 346.041 36.2129 339.502Z" fill="#DD3434" stroke="#AF1E1E"/>
<path d="M36.2129 347.502L35.4215 345L27.1831 348.467C22.68 350.365 23.135 354.126 24.2311 358C28.6234 356.145 38.2666 354.041 36.2129 347.502Z" fill="#DD3434" stroke="#AF1E1E"/>
<path d="M14.7621 326.872C14.6624 326.523 14.6126 326.374 14.6126 326.374C12.7187 327.47 11.4229 329.812 11.373 332.354C11.373 338.511 17.9912 341.9 23.5836 340.428C24.0321 340.329 24.381 340.229 24.6302 340.129C24.8794 340.029 25.0289 339.98 25.0289 339.98C24.6912 334.238 16.5082 332.983 14.7621 326.872Z" fill="#DD3434" stroke="#AF1E1E"/>
<path d="M25.0309 339.93C25.0309 339.93 24.8814 339.98 24.6322 340.079C24.383 340.179 24.0341 340.279 23.5856 340.378C22.6885 340.578 21.3927 340.727 19.9972 340.628C19.2995 340.578 18.6515 340.428 17.9538 340.229C17.3059 340.03 16.7078 339.78 16.1596 339.581C15.6612 339.332 15.2126 339.083 14.9136 338.933C14.6146 338.734 14.4152 338.634 14.4152 338.634C14.2657 339.182 14.2159 339.731 14.166 340.329C14.166 340.927 14.2657 341.525 14.465 342.173C14.6146 342.771 14.9136 343.369 15.2126 343.917C15.5117 344.465 15.9602 344.964 16.4088 345.462C16.8573 345.911 17.3557 346.309 17.9039 346.658C18.4522 347.007 19.0004 347.256 19.5985 347.456C20.1965 347.655 20.7448 347.755 21.3428 347.804C21.9409 347.854 22.4892 347.755 22.9876 347.655C22.9876 347.655 23.1869 347.605 23.4859 347.505C23.8348 347.406 24.2833 347.256 24.8316 347.107C25.8782 346.708 27.2238 346.06 28.3203 345.263C28.8685 344.864 29.3669 344.415 29.8155 344.017C30.264 343.568 30.6129 343.169 30.8621 342.771C31.4103 341.973 31.6595 341.475 31.6595 341.475C30.563 340.229 29.7158 339.531 28.719 339.332C27.7223 339.132 26.5759 339.332 25.0309 339.93Z" fill="#DD3434" stroke="#AF1E1E"/>
<path d="M31.6583 341.525C31.6583 341.525 31.4091 342.023 30.8609 342.821C30.5618 343.169 30.213 343.618 29.8142 344.066C29.3657 344.465 28.8673 344.914 28.3191 345.312C27.2226 346.11 25.877 346.758 24.8303 347.157C24.2821 347.356 23.8336 347.505 23.4847 347.555C23.1358 347.655 22.9863 347.655 22.9863 347.655C23.2355 348.153 23.5843 348.602 23.9332 349.001C24.3319 349.449 24.7805 349.798 25.2789 350.097C25.7773 350.446 26.3255 350.695 26.9236 350.894C27.5216 351.094 28.1197 351.193 28.7676 351.293C30.0136 351.393 31.3593 351.193 32.5056 350.745C33.6519 350.247 34.6486 349.549 35.2965 348.602C35.2965 348.602 35.3962 348.452 35.5956 348.153C35.7949 347.904 36.0441 347.406 36.2933 346.907C36.8415 345.911 37.3399 344.465 37.5393 343.12C37.7386 341.774 37.6888 340.478 37.4895 339.531C37.3898 339.083 37.2901 338.684 37.2403 338.435C37.1406 338.185 37.0907 338.036 37.0907 338.036C35.446 338.036 34.2998 338.136 33.5522 338.634C33.3528 338.734 33.2033 338.883 33.004 339.083C32.8544 339.232 32.7049 339.431 32.5554 339.681C32.4059 339.88 32.2563 340.179 32.1068 340.478C32.0071 340.827 31.8576 341.126 31.6583 341.525Z" fill="#DD3434" stroke="#AF1E1E"/>
<path d="M37.1868 338.135C37.1868 338.135 37.2366 338.285 37.3363 338.534C37.3861 338.783 37.4858 339.132 37.5855 339.631C37.735 340.528 37.8347 341.824 37.6353 343.219C37.436 344.565 36.9376 346.01 36.3894 347.007C36.1402 347.505 35.8412 347.954 35.6917 348.253C35.4923 348.552 35.3926 348.701 35.3926 348.701C35.6418 348.801 35.9408 348.901 36.2399 348.951C36.5389 349 36.8379 349 37.1369 349.05C37.436 349.05 37.735 349.05 38.0839 349.05C38.3829 349 38.682 348.951 38.981 348.901C40.1772 348.602 41.3733 348.004 42.37 347.156C43.3668 346.309 44.1144 345.213 44.563 344.116C45.0115 342.97 45.1611 341.774 44.9617 340.677C44.9617 340.677 44.9118 340.478 44.862 340.129C44.8121 339.78 44.6627 339.332 44.5131 338.783C44.1643 337.687 43.5662 336.341 42.7688 335.195C41.9713 334.049 40.9746 333.201 40.227 332.653C39.8283 332.404 39.5292 332.205 39.28 332.055C39.0308 331.906 38.9312 331.856 38.9312 331.856C37.7351 333.002 37.0373 333.849 36.8379 334.697C36.4392 335.444 36.6884 336.541 37.1868 338.135Z" fill="#DD3434" stroke="#AF1E1E"/>
<path d="M44.7142 340.029C44.764 340.378 44.8138 340.578 44.8138 340.578C45.8106 340.129 46.7078 339.282 47.4055 338.235C48.1033 337.189 48.5019 335.893 48.6016 334.597C48.7013 333.301 48.5019 331.956 48.0035 330.859C45.9306 326.091 42.9894 324.427 36.7663 325.647C35.5058 327.965 35.4441 328.866 35.8927 329.663C38.5979 333.871 43.6459 333.62 44.7142 340.029Z" fill="#DD3434" stroke="#AF1E1E"/>
<path d="M36.2168 379.502L35.4254 377L27.187 380.467C22.6839 382.365 23.1389 386.126 24.235 390C28.6273 388.145 38.2705 386.041 36.2168 379.502Z" fill="#DD3434" stroke="#AF1E1E"/>
<path d="M36.2168 387.502L35.4254 385L27.187 388.467C22.6839 390.365 23.1389 394.126 24.235 398C28.6273 396.145 38.2705 394.041 36.2168 387.502Z" fill="#DD3434" stroke="#AF1E1E"/>
<path d="M36.2168 395.502L35.4254 393L27.187 396.467C22.6839 398.365 23.1389 402.126 24.235 406C28.6273 404.145 38.2705 402.041 36.2168 395.502Z" fill="#DD3434" stroke="#AF1E1E"/>
<path d="M36.2168 403.502L35.4254 401L27.187 404.467C22.6839 406.365 23.1389 410.126 24.235 414C28.6273 412.145 38.2705 410.041 36.2168 403.502Z" fill="#DD3434" stroke="#AF1E1E"/>
<path d="M36.2168 411.502L35.4254 409L27.187 412.467C22.6839 414.365 23.1389 418.126 24.235 422C28.6273 420.145 38.2705 418.041 36.2168 411.502Z" fill="#DD3434" stroke="#AF1E1E"/>
<path d="M36.2168 419.502L35.4254 417L27.187 420.467C22.6839 422.365 23.1389 426.126 24.235 430C28.6273 428.145 38.2705 426.041 36.2168 419.502Z" fill="#DD3434" stroke="#AF1E1E"/>
<path d="M36.2168 427.502L35.4254 425L27.187 428.467C22.6839 430.365 23.1389 434.126 24.235 438C28.6273 436.145 38.2705 434.041 36.2168 427.502Z" fill="#DD3434" stroke="#AF1E1E"/>
<path d="M36.2168 435.502L35.4254 433L27.187 436.467C22.6839 438.365 23.1389 442.126 24.235 446C28.6273 444.145 38.2705 442.041 36.2168 435.502Z" fill="#DD3434" stroke="#AF1E1E"/>
<path d="M36.2168 443.502L35.4254 441L27.187 444.467C22.6839 446.365 23.1389 450.126 24.235 454C28.6273 452.145 38.2705 450.041 36.2168 443.502Z" fill="#DD3434" stroke="#AF1E1E"/>
<path d="M36.2168 451.502L35.4254 449L27.187 452.467C22.6839 454.365 23.1389 458.126 24.235 462C28.6273 460.145 38.2705 458.041 36.2168 451.502Z" fill="#DD3434" stroke="#AF1E1E"/>
<path d="M23.0071 484.328C22.6967 489.337 22.076 494.336 21.1054 499.28C21.1054 499.317 21.0941 499.335 21.0941 499.353C20.5607 501.959 22.3912 501.752 24.1696 501.752C25.2362 497.387 26.1278 491.322 26.2181 485.992C26.2181 485.992 26.7824 491.009 25.3377 499.942C25.4167 500.511 25.5296 501.191 25.7384 501.752H27.5668C28.2665 495.282 28.7462 487.609 28.8139 480.312C28.8478 481.434 29.0961 489.41 28.0859 501.752H31.1107L31.4888 500.383L31.7766 499.381C31.7709 499.372 31.7709 499.353 31.7709 499.335C31.5395 496.054 31.3985 493.178 31.3025 490.706C31.0373 483.841 31.2292 480.184 31.2292 480.184C31.28 487.379 31.7483 494.942 32.4481 502L35.0044 501.752C33.2438 491.882 33.7799 486.341 33.8194 486.001C33.9435 493.187 35.3035 499.409 35.9356 501.963L37.8824 501.752C38.6443 501.743 39.1804 500.539 38.9434 499.326C37.9671 494.373 37.3407 489.346 37.036 484.328C36.2299 472.515 23.9939 468.729 23.0071 484.328Z" fill="#DD3434" stroke="#AF1E1E"/>
<path d="M36.2168 459.502L35.4254 457L27.187 460.467C22.6839 462.365 23.1389 466.126 24.235 470C28.6273 468.145 38.2705 466.041 36.2168 459.502Z" fill="#DD3434" stroke="#AF1E1E"/>
<path d="M32.7314 468.032C33.8986 468.419 35.0383 468.918 35.9533 469.397C36.8684 469.877 37.4181 470.286 37.4181 470.286C37.6668 469.583 37.6479 468.722 37.4189 467.939C35.6612 460.433 26.231 461.714 24.0038 466.041C23.7123 466.608 23.5742 467.016 23.5742 467.016C24.8563 467.87 26.9508 469.661 27.6532 469.759C28.0185 469.829 28.2706 469.736 28.5648 469.628C29.9633 468.603 30.6271 467.335 32.7314 468.032Z" fill="#DD3434" stroke="#AF1E1E"/>
<path d="M38.2047 476.398C41.0786 474.057 41.0304 470.474 38.2045 466.935C35.3785 463.395 29.4571 465.569 27.5224 471.741C28.879 475.21 36.9374 473.423 38.2047 476.398Z" fill="#DD3434" stroke="#AF1E1E"/>
<path d="M26.5588 465.076C26.6126 464.58 26.6664 464.134 26.7202 463.837C26.8277 463.539 26.8277 463.341 26.8277 463.341C25.6984 463.44 24.6228 463.985 23.7086 464.68C19.1602 468.38 21.5462 473.56 25.6984 476.381C26.7202 477.075 27.7957 477.471 28.6024 477.67C28.9788 477.769 29.3553 477.819 29.5704 477.868C29.7855 477.918 29.9468 477.918 29.9468 477.918C32.7474 473.151 26.2881 470.068 26.5588 465.076Z" fill="#DD3434" stroke="#AF1E1E"/>
<path d="M29.0632 473.826C29.0632 473.826 28.9018 473.826 28.6867 473.771C28.4716 473.717 28.1489 473.662 27.7187 473.552C26.912 473.333 25.8365 472.841 24.8147 472.129C23.7929 471.418 22.8787 470.432 22.2334 469.611C21.588 468.79 21.2116 468.188 21.2116 468.188C20.5125 468.9 20.0285 469.83 19.8134 470.87C19.5445 471.91 19.5445 473.114 19.8671 474.319C20.136 475.468 20.7276 476.618 21.5343 477.494C22.3409 478.369 23.3089 478.971 24.2769 479.245C24.2769 479.245 24.4383 479.3 24.7609 479.355C25.0836 479.409 25.5138 479.519 26.0516 479.574C27.1271 479.683 28.4716 479.628 29.7085 479.3C30.9453 478.971 31.8596 478.315 32.4511 477.712C32.72 477.439 32.9351 477.165 33.0427 477.001C33.1502 476.837 33.2578 476.727 33.2578 476.727C32.6125 475.413 32.5587 474.757 32.0209 474.373C31.4294 474.1 30.5152 473.99 29.0632 473.826Z" fill="#DD3434" stroke="#AF1E1E"/>
<path d="M29.6184 474.9C29.6184 474.9 29.5356 474.989 29.3344 475.098C29.1846 475.223 28.885 475.474 28.5652 475.604C27.8787 476.021 26.7649 476.363 25.4876 476.311C24.2462 476.328 22.9083 475.914 21.9104 475.491C21.4115 475.28 21.0311 475.048 20.738 474.9C20.4449 474.752 20.3062 474.652 20.3062 474.652C20.0607 475.663 20.1083 476.822 20.5473 477.988C20.9349 479.137 21.714 480.293 22.8083 481.147C23.3476 481.599 23.9182 481.947 24.5715 482.207C24.8646 482.354 25.1733 482.45 25.4821 482.545C25.7908 482.641 26.1152 482.684 26.4395 482.727C27.0883 482.813 27.6654 482.763 28.2424 482.712C28.7837 482.594 29.3406 482.422 29.8102 482.167C29.8102 482.167 29.96 482.042 30.2798 481.912C30.5481 481.766 30.9148 481.479 31.3486 481.155C32.1647 480.492 33.0746 479.515 33.7428 478.406C34.411 477.297 34.8421 476.229 35.0922 475.391C35.2173 474.972 35.2752 474.589 35.3377 474.38C35.3488 474.154 35.3957 473.997 35.3957 473.997C34.0174 473.342 32.9212 473.061 32.0914 473.204C31.2101 473.332 30.6468 473.902 29.6184 474.9Z" fill="#DD3434" stroke="#AF1E1E"/>
<path d="M30.472 473.271C30.4718 474.885 30.6217 476.446 30.1883 478.063C29.8656 479.322 29.2741 480.526 28.6825 481.402C28.3598 481.84 28.0909 482.223 27.8758 482.442C27.6607 482.661 27.4994 482.825 27.4994 482.825C28.4674 483.318 29.5967 483.427 30.726 483.318C31.8554 483.154 32.9847 482.771 33.899 482.114C38.5382 478.876 36.8316 473.877 34.4647 471.403C32.5632 470.314 30.9847 471.162 30.472 473.271Z" fill="#DD3434" stroke="#AF1E1E"/>
<path d="M35.4512 481.355C39.9189 480.092 40.5418 473.458 36.8751 471.166C33.2085 468.875 30.4585 471.625 30.4598 472.676C35.0443 473.546 36.8745 475.75 35.4512 481.355Z" fill="#DD3434" stroke="#AF1E1E"/>
</svg>
