<svg width="60" height="572" viewBox="0 0 60 572" fill="none" xmlns="http://www.w3.org/2000/svg">
<path d="M35.2604 3.11741L34.5908 1L27.6198 3.93356C23.8095 5.53963 24.1945 8.72229 25.1219 12C28.8385 10.43 36.9981 8.65019 35.2604 3.11741Z" fill="#994DC5" stroke="#762CA2"/>
<path d="M35.2604 10.1174L34.5908 8L27.6198 10.9336C23.8095 12.5396 24.1945 15.7223 25.1219 19C28.8385 17.43 36.9981 15.6502 35.2604 10.1174Z" fill="#994DC5" stroke="#762CA2"/>
<path d="M35.2604 17.1174L34.5908 15L27.6198 17.9336C23.8095 19.5396 24.1945 22.7223 25.1219 26C28.8385 24.43 36.9981 22.6502 35.2604 17.1174Z" fill="#994DC5" stroke="#762CA2"/>
<path d="M35.2604 24.1174L34.5908 22L27.6198 24.9336C23.8095 26.5396 24.1945 29.7223 25.1219 33C28.8385 31.43 36.9981 29.6502 35.2604 24.1174Z" fill="#994DC5" stroke="#762CA2"/>
<path d="M35.2604 31.1174L34.5908 29L27.6198 31.9336C23.8095 33.5396 24.1945 36.7223 25.1219 40C28.8385 38.43 36.9981 36.6502 35.2604 31.1174Z" fill="#994DC5" stroke="#762CA2"/>
<path d="M35.2604 38.1174L34.5908 36L27.6198 38.9336C23.8095 40.5396 24.1945 43.7223 25.1219 47C28.8385 45.43 36.9981 43.6502 35.2604 38.1174Z" fill="#994DC5" stroke="#762CA2"/>
<path d="M35.2604 45.1174L34.5908 43L27.6198 45.9336C23.8095 47.5396 24.1945 50.7223 25.1219 54C28.8385 52.43 36.9981 50.6502 35.2604 45.1174Z" fill="#994DC5" stroke="#762CA2"/>
<path d="M35.2604 52.1174L34.5908 50L27.6198 52.9336C23.8095 54.5396 24.1945 57.7223 25.1219 61C28.8385 59.43 36.9981 57.6502 35.2604 52.1174Z" fill="#994DC5" stroke="#762CA2"/>
<path d="M35.2604 59.1174L34.5908 57L27.6198 59.9336C23.8095 61.5396 24.1945 64.7223 25.1219 68C28.8385 66.43 36.9981 64.6502 35.2604 59.1174Z" fill="#994DC5" stroke="#762CA2"/>
<path d="M35.2604 66.1174L34.5908 64L27.6198 66.9336C23.8095 68.5396 24.1945 71.7223 25.1219 75C28.8385 73.43 36.9981 71.6502 35.2604 66.1174Z" fill="#994DC5" stroke="#762CA2"/>
<path d="M35.2604 73.1174L34.5908 71L27.6198 73.9336C23.8095 75.5396 24.1945 78.7223 25.1219 82C28.8385 80.43 36.9981 78.6502 35.2604 73.1174Z" fill="#994DC5" stroke="#762CA2"/>
<path d="M35.2604 80.1174L34.5908 78L27.6198 80.9336C23.8095 82.5396 24.1945 85.7223 25.1219 89C28.8385 87.43 36.9981 85.6502 35.2604 80.1174Z" fill="#994DC5" stroke="#762CA2"/>
<path d="M35.2604 87.1174L34.5908 85L27.6198 87.9336C23.8095 89.5396 24.1945 92.7223 25.1219 96C28.8385 94.43 36.9981 92.6502 35.2604 87.1174Z" fill="#994DC5" stroke="#762CA2"/>
<path d="M35.2604 94.1174L34.5908 92L27.6198 94.9336C23.8095 96.5396 24.1945 99.7223 25.1219 103C28.8385 101.43 36.9981 99.6502 35.2604 94.1174Z" fill="#994DC5" stroke="#762CA2"/>
<path d="M35.2604 101.117L34.5908 99L27.6198 101.934C23.8095 103.54 24.1945 106.722 25.1219 110C28.8385 108.43 36.9981 106.65 35.2604 101.117Z" fill="#994DC5" stroke="#762CA2"/>
<path d="M35.2604 108.117L34.5908 106L27.6198 108.934C23.8095 110.54 24.1945 113.722 25.1219 117C28.8385 115.43 36.9981 113.65 35.2604 108.117Z" fill="#994DC5" stroke="#762CA2"/>
<path d="M35.2604 115.117L34.5908 113L27.6198 115.934C23.8095 117.54 24.1945 120.722 25.1219 124C28.8385 122.43 36.9981 120.65 35.2604 115.117Z" fill="#994DC5" stroke="#762CA2"/>
<path d="M35.3182 172.458C34.9386 171.488 34.0952 170.518 32.9987 169.928C31.9023 169.295 30.6371 169 29.4142 169C23.8927 169.095 21.8358 175.405 23.3415 179.922C23.468 180.302 23.5945 180.597 23.6789 180.808C23.7632 181.019 23.8053 181.145 23.8053 181.145C25.197 180.935 26.1669 180.681 26.7573 180.175C30.2803 177.533 29.7178 172.458 35.3182 172.458Z" fill="#994DC5" stroke="#762CA2"/>
<path d="M40.0368 176.48C39.9718 175.44 39.4651 174.259 38.6015 173.362C37.7508 172.424 36.6364 171.757 35.4719 171.383C30.4164 169.856 25.4113 174.95 27.2282 179.815C35.2485 182.804 34.8711 174.822 40.0368 176.48Z" fill="#994DC5" stroke="#762CA2"/>
<path d="M23.6759 173.048C23.7603 172.88 23.8446 172.711 23.8868 172.542C24.0133 172.289 24.0976 172.121 24.0976 172.121C23.1699 171.952 22.1156 172.078 21.1456 172.5C20.1757 172.88 19.2479 173.554 18.5732 174.356C15.5273 178.163 17.5819 183.291 21.1878 185.995C21.3565 186.122 21.5674 186.248 21.7361 186.375C22.0734 186.585 22.3264 186.754 22.5373 186.838C22.7481 186.923 22.8747 186.965 22.8747 186.965C23.8446 185.953 24.3928 185.194 24.5615 184.308C25.1374 180.469 22.5932 177.379 23.6759 173.048Z" fill="#994DC5" stroke="#762CA2"/>
<path d="M34.8528 179.796C34.8528 179.796 34.9792 179.754 35.1901 179.669C35.401 179.585 35.6962 179.501 36.0757 179.458C36.8348 179.29 37.9313 179.29 39.0699 179.501C40.2085 179.711 41.3893 180.175 42.2328 180.597C42.6545 180.808 42.9919 181.019 43.2449 181.187C43.4979 181.356 43.6244 181.44 43.6244 181.44C43.9618 180.555 44.0039 179.543 43.7931 178.531C43.5822 177.519 43.0762 176.464 42.3592 175.621C41.6423 174.735 40.7146 174.06 39.7025 173.639C38.6904 173.217 37.5939 173.091 36.6239 173.259C36.6239 173.259 36.4553 173.301 36.1601 173.344C35.8649 173.428 35.4431 173.512 34.9792 173.723C34.5154 173.892 33.9671 174.145 33.4611 174.482C32.955 174.82 32.4912 175.199 32.0695 175.621C31.2682 176.464 30.8886 177.476 30.7621 178.193C30.7199 178.573 30.7199 178.826 30.7621 179.037C30.8043 179.248 30.8043 179.332 30.8043 179.332C31.8164 180.049 32.196 180.597 32.4912 180.597C32.6177 180.597 32.9129 180.513 33.2502 180.344C33.8406 180.218 34.3467 180.007 34.8528 179.796Z" fill="#994DC5" stroke="#762CA2"/>
<path d="M35.4596 164.117L34.79 162L27.819 164.934C24.0087 166.54 24.3937 169.722 25.3212 173C29.0377 171.43 37.1974 169.65 35.4596 164.117Z" fill="#994DC5" stroke="#762CA2"/>
<path d="M35.4596 171.117L34.79 169L27.819 171.934C24.0087 173.54 24.3937 176.722 25.3212 180C29.0377 178.43 37.1974 176.65 35.4596 171.117Z" fill="#994DC5" stroke="#762CA2"/>
<path d="M35.4596 178.117L34.79 176L27.819 178.934C24.0087 180.54 24.3937 183.722 25.3212 187C29.0377 185.43 37.1974 183.65 35.4596 178.117Z" fill="#994DC5" stroke="#762CA2"/>
<path d="M35.4596 185.117L34.79 183L27.819 185.934C24.0087 187.54 24.3937 190.722 25.3212 194C29.0377 192.43 37.1974 190.65 35.4596 185.117Z" fill="#994DC5" stroke="#762CA2"/>
<path d="M35.4596 192.117L34.79 190L27.819 192.934C24.0087 194.54 24.3937 197.722 25.3212 201C29.0377 199.43 37.1974 197.65 35.4596 192.117Z" fill="#994DC5" stroke="#762CA2"/>
<path d="M35.4596 199.117L34.79 197L27.819 199.934C24.0087 201.54 24.3937 204.722 25.3212 208C29.0377 206.43 37.1974 204.65 35.4596 199.117Z" fill="#994DC5" stroke="#762CA2"/>
<path d="M17.3091 180.428C17.2247 180.133 17.1826 180.007 17.1826 180.007C15.58 180.934 14.4836 182.917 14.4414 185.067C14.4414 190.277 20.0414 193.144 24.7734 191.899C25.153 191.815 25.4481 191.73 25.659 191.646C25.8699 191.562 25.9964 191.52 25.9964 191.52C25.7106 186.662 18.7865 185.599 17.3091 180.428Z" fill="#994DC5" stroke="#762CA2"/>
<path d="M25.9981 191.478C25.9981 191.478 25.8715 191.52 25.6607 191.604C25.4498 191.688 25.1546 191.773 24.7751 191.857C24.016 192.026 22.9196 192.152 21.7388 192.068C21.1484 192.026 20.6001 191.899 20.0097 191.731C19.4615 191.562 18.9554 191.351 18.4915 191.182C18.0698 190.972 17.6903 190.761 17.4373 190.634C17.1842 190.466 17.0155 190.381 17.0155 190.381C16.889 190.845 16.8469 191.309 16.8047 191.815C16.8047 192.321 16.889 192.827 17.0577 193.375C17.1842 193.881 17.4372 194.387 17.6903 194.851C17.9433 195.315 18.3229 195.737 18.7024 196.159C19.0819 196.538 19.5037 196.876 19.9675 197.171C20.4314 197.466 20.8953 197.677 21.4014 197.846C21.9074 198.014 22.3713 198.099 22.8774 198.141C23.3834 198.183 23.8474 198.099 24.2691 198.014C24.2691 198.014 24.4378 197.972 24.6908 197.888C24.986 197.803 25.3655 197.677 25.8294 197.55C26.715 197.213 27.8536 196.665 28.7814 195.99C29.2453 195.653 29.667 195.273 30.0465 194.936C30.4261 194.556 30.7213 194.219 30.9321 193.881C31.396 193.207 31.6069 192.785 31.6069 192.785C30.6791 191.731 29.9622 191.14 29.1188 190.972C28.2754 190.803 27.3054 190.972 25.9981 191.478Z" fill="#994DC5" stroke="#762CA2"/>
<path d="M31.6054 192.827C31.6054 192.827 31.3945 193.249 30.9306 193.924C30.6776 194.219 30.3824 194.598 30.045 194.978C29.6655 195.315 29.2438 195.695 28.7799 196.032C27.8521 196.707 26.7135 197.255 25.8279 197.592C25.364 197.761 24.9845 197.888 24.6893 197.93C24.3941 198.014 24.2676 198.014 24.2676 198.014C24.4784 198.436 24.7736 198.815 25.0688 199.153C25.4062 199.532 25.7857 199.828 26.2075 200.081C26.6292 200.376 27.093 200.587 27.5991 200.755C28.1051 200.924 28.6112 201.008 29.1595 201.093C30.2137 201.177 31.3524 201.008 32.3223 200.629C33.2923 200.207 34.1357 199.617 34.6839 198.815C34.6839 198.815 34.7682 198.689 34.9369 198.436C35.1056 198.225 35.3165 197.803 35.5273 197.382C35.9912 196.538 36.4129 195.315 36.5816 194.177C36.7503 193.038 36.7081 191.941 36.5395 191.14C36.4551 190.761 36.3708 190.423 36.3286 190.212C36.2443 190.002 36.2021 189.875 36.2021 189.875C34.8104 189.875 33.8405 189.959 33.2079 190.381C33.0392 190.465 32.9127 190.592 32.744 190.761C32.6175 190.887 32.491 191.056 32.3645 191.267C32.238 191.435 32.1114 191.688 31.9849 191.941C31.9006 192.237 31.7741 192.49 31.6054 192.827Z" fill="#994DC5" stroke="#762CA2"/>
<path d="M36.2838 189.959C36.2838 189.959 36.326 190.086 36.4103 190.297C36.4525 190.507 36.5368 190.803 36.6212 191.224C36.7477 191.983 36.832 193.08 36.6633 194.261C36.4947 195.399 36.0729 196.622 35.6091 197.466C35.3982 197.887 35.1452 198.267 35.0187 198.52C34.85 198.773 34.7656 198.9 34.7656 198.9C34.9765 198.984 35.2295 199.068 35.4826 199.11C35.7356 199.153 35.9886 199.153 36.2416 199.195C36.4947 199.195 36.7477 199.195 37.0429 199.195C37.2959 199.153 37.549 199.11 37.802 199.068C38.8141 198.815 39.8262 198.309 40.6696 197.592C41.5131 196.875 42.1456 195.948 42.5252 195.02C42.9047 194.05 43.0313 193.038 42.8626 192.11C42.8626 192.11 42.8204 191.941 42.7782 191.646C42.736 191.351 42.6095 190.971 42.483 190.507C42.1878 189.58 41.6818 188.441 41.007 187.471C40.3323 186.501 39.4889 185.784 38.8563 185.32C38.5189 185.11 38.2659 184.941 38.055 184.814C37.8442 184.688 37.7598 184.646 37.7598 184.646C36.7477 185.616 36.1573 186.332 35.9886 187.049C35.6512 187.682 35.8621 188.61 36.2838 189.959Z" fill="#994DC5" stroke="#762CA2"/>
<path d="M42.6539 191.562C42.6961 191.857 42.7382 192.026 42.7382 192.026C43.5816 191.646 44.3408 190.929 44.9312 190.044C45.5216 189.158 45.8589 188.062 45.9432 186.965C46.0276 185.869 45.8589 184.73 45.4372 183.802C43.6832 179.768 41.1944 178.359 35.9288 179.392C34.8622 181.353 34.81 182.115 35.1895 182.79C37.4786 186.351 41.75 186.138 42.6539 191.562Z" fill="#994DC5" stroke="#762CA2"/>
<path d="M35.3182 151.458C34.9386 150.488 34.0952 149.518 32.9987 148.928C31.9023 148.295 30.6371 148 29.4142 148C23.8927 148.095 21.8358 154.405 23.3415 158.922C23.468 159.302 23.5945 159.597 23.6789 159.808C23.7632 160.019 23.8053 160.145 23.8053 160.145C25.197 159.935 26.1669 159.681 26.7573 159.175C30.2803 156.533 29.7178 151.458 35.3182 151.458Z" fill="#994DC5" stroke="#762CA2"/>
<path d="M40.0368 155.48C39.9718 154.44 39.4651 153.259 38.6015 152.362C37.7508 151.424 36.6364 150.757 35.4719 150.383C30.4164 148.856 25.4113 153.95 27.2282 158.815C35.2485 161.804 34.8711 153.822 40.0368 155.48Z" fill="#994DC5" stroke="#762CA2"/>
<path d="M23.6759 152.048C23.7603 151.88 23.8446 151.711 23.8868 151.542C24.0133 151.289 24.0976 151.121 24.0976 151.121C23.1699 150.952 22.1156 151.078 21.1456 151.5C20.1757 151.88 19.2479 152.554 18.5732 153.356C15.5273 157.163 17.5819 162.291 21.1878 164.995C21.3565 165.122 21.5674 165.248 21.7361 165.375C22.0734 165.585 22.3264 165.754 22.5373 165.838C22.7481 165.923 22.8747 165.965 22.8747 165.965C23.8446 164.953 24.3928 164.194 24.5615 163.308C25.1374 159.469 22.5932 156.379 23.6759 152.048Z" fill="#994DC5" stroke="#762CA2"/>
<path d="M34.8528 158.796C34.8528 158.796 34.9792 158.754 35.1901 158.669C35.401 158.585 35.6962 158.501 36.0757 158.458C36.8348 158.29 37.9313 158.29 39.0699 158.501C40.2085 158.711 41.3893 159.175 42.2328 159.597C42.6545 159.808 42.9919 160.019 43.2449 160.187C43.4979 160.356 43.6244 160.44 43.6244 160.44C43.9618 159.555 44.0039 158.543 43.7931 157.531C43.5822 156.519 43.0762 155.464 42.3592 154.621C41.6423 153.735 40.7146 153.06 39.7025 152.639C38.6904 152.217 37.5939 152.091 36.6239 152.259C36.6239 152.259 36.4553 152.301 36.1601 152.344C35.8649 152.428 35.4431 152.512 34.9792 152.723C34.5154 152.892 33.9671 153.145 33.4611 153.482C32.955 153.82 32.4912 154.199 32.0695 154.621C31.2682 155.464 30.8886 156.476 30.7621 157.193C30.7199 157.573 30.7199 157.826 30.7621 158.037C30.8043 158.248 30.8043 158.332 30.8043 158.332C31.8164 159.049 32.196 159.597 32.4912 159.597C32.6177 159.597 32.9129 159.513 33.2502 159.344C33.8406 159.218 34.3467 159.007 34.8528 158.796Z" fill="#994DC5" stroke="#762CA2"/>
<path d="M35.4596 143.117L34.79 141L27.819 143.934C24.0087 145.54 24.3937 148.722 25.3212 152C29.0377 150.43 37.1974 148.65 35.4596 143.117Z" fill="#994DC5" stroke="#762CA2"/>
<path d="M35.4596 150.117L34.79 148L27.819 150.934C24.0087 152.54 24.3937 155.722 25.3212 159C29.0377 157.43 37.1974 155.65 35.4596 150.117Z" fill="#994DC5" stroke="#762CA2"/>
<path d="M35.4596 157.117L34.79 155L27.819 157.934C24.0087 159.54 24.3937 162.722 25.3212 166C29.0377 164.43 37.1974 162.65 35.4596 157.117Z" fill="#994DC5" stroke="#762CA2"/>
<path d="M35.4596 164.117L34.79 162L27.819 164.934C24.0087 166.54 24.3937 169.722 25.3212 173C29.0377 171.43 37.1974 169.65 35.4596 164.117Z" fill="#994DC5" stroke="#762CA2"/>
<path d="M35.4596 171.117L34.79 169L27.819 171.934C24.0087 173.54 24.3937 176.722 25.3212 180C29.0377 178.43 37.1974 176.65 35.4596 171.117Z" fill="#994DC5" stroke="#762CA2"/>
<path d="M35.4596 178.117L34.79 176L27.819 178.934C24.0087 180.54 24.3937 183.722 25.3212 187C29.0377 185.43 37.1974 183.65 35.4596 178.117Z" fill="#994DC5" stroke="#762CA2"/>
<path d="M17.3091 159.428C17.2247 159.133 17.1826 159.007 17.1826 159.007C15.58 159.934 14.4836 161.917 14.4414 164.067C14.4414 169.277 20.0414 172.144 24.7734 170.899C25.153 170.815 25.4481 170.73 25.659 170.646C25.8699 170.562 25.9964 170.52 25.9964 170.52C25.7106 165.662 18.7865 164.599 17.3091 159.428Z" fill="#994DC5" stroke="#762CA2"/>
<path d="M25.9981 170.478C25.9981 170.478 25.8715 170.52 25.6607 170.604C25.4498 170.688 25.1546 170.773 24.7751 170.857C24.016 171.026 22.9196 171.152 21.7388 171.068C21.1484 171.026 20.6001 170.899 20.0097 170.731C19.4615 170.562 18.9554 170.351 18.4915 170.182C18.0698 169.972 17.6903 169.761 17.4373 169.634C17.1842 169.466 17.0155 169.381 17.0155 169.381C16.889 169.845 16.8469 170.309 16.8047 170.815C16.8047 171.321 16.889 171.827 17.0577 172.375C17.1842 172.881 17.4372 173.387 17.6903 173.851C17.9433 174.315 18.3229 174.737 18.7024 175.159C19.0819 175.538 19.5037 175.876 19.9675 176.171C20.4314 176.466 20.8953 176.677 21.4014 176.846C21.9074 177.014 22.3713 177.099 22.8774 177.141C23.3834 177.183 23.8474 177.099 24.2691 177.014C24.2691 177.014 24.4378 176.972 24.6908 176.888C24.986 176.803 25.3655 176.677 25.8294 176.55C26.715 176.213 27.8536 175.665 28.7814 174.99C29.2453 174.653 29.667 174.273 30.0465 173.936C30.4261 173.556 30.7213 173.219 30.9321 172.881C31.396 172.207 31.6069 171.785 31.6069 171.785C30.6791 170.731 29.9622 170.14 29.1188 169.972C28.2754 169.803 27.3054 169.972 25.9981 170.478Z" fill="#994DC5" stroke="#762CA2"/>
<path d="M31.6054 171.827C31.6054 171.827 31.3945 172.249 30.9306 172.924C30.6776 173.219 30.3824 173.598 30.045 173.978C29.6655 174.315 29.2438 174.695 28.7799 175.032C27.8521 175.707 26.7135 176.255 25.8279 176.592C25.364 176.761 24.9845 176.888 24.6893 176.93C24.3941 177.014 24.2676 177.014 24.2676 177.014C24.4784 177.436 24.7736 177.815 25.0688 178.153C25.4062 178.532 25.7857 178.828 26.2075 179.081C26.6292 179.376 27.093 179.587 27.5991 179.755C28.1051 179.924 28.6112 180.008 29.1595 180.093C30.2137 180.177 31.3524 180.008 32.3223 179.629C33.2923 179.207 34.1357 178.617 34.6839 177.815C34.6839 177.815 34.7682 177.689 34.9369 177.436C35.1056 177.225 35.3165 176.803 35.5273 176.382C35.9912 175.538 36.4129 174.315 36.5816 173.177C36.7503 172.038 36.7081 170.941 36.5395 170.14C36.4551 169.761 36.3708 169.423 36.3286 169.212C36.2443 169.002 36.2021 168.875 36.2021 168.875C34.8104 168.875 33.8405 168.959 33.2079 169.381C33.0392 169.465 32.9127 169.592 32.744 169.761C32.6175 169.887 32.491 170.056 32.3645 170.267C32.238 170.435 32.1114 170.688 31.9849 170.941C31.9006 171.237 31.7741 171.49 31.6054 171.827Z" fill="#994DC5" stroke="#762CA2"/>
<path d="M36.2838 168.959C36.2838 168.959 36.326 169.086 36.4103 169.297C36.4525 169.507 36.5368 169.803 36.6212 170.224C36.7477 170.983 36.832 172.08 36.6633 173.261C36.4947 174.399 36.0729 175.622 35.6091 176.466C35.3982 176.887 35.1452 177.267 35.0187 177.52C34.85 177.773 34.7656 177.9 34.7656 177.9C34.9765 177.984 35.2295 178.068 35.4826 178.11C35.7356 178.153 35.9886 178.153 36.2416 178.195C36.4947 178.195 36.7477 178.195 37.0429 178.195C37.2959 178.153 37.549 178.11 37.802 178.068C38.8141 177.815 39.8262 177.309 40.6696 176.592C41.5131 175.875 42.1456 174.948 42.5252 174.02C42.9047 173.05 43.0313 172.038 42.8626 171.11C42.8626 171.11 42.8204 170.941 42.7782 170.646C42.736 170.351 42.6095 169.971 42.483 169.507C42.1878 168.58 41.6818 167.441 41.007 166.471C40.3323 165.501 39.4889 164.784 38.8563 164.32C38.5189 164.11 38.2659 163.941 38.055 163.814C37.8442 163.688 37.7598 163.646 37.7598 163.646C36.7477 164.616 36.1573 165.332 35.9886 166.049C35.6512 166.682 35.8621 167.61 36.2838 168.959Z" fill="#994DC5" stroke="#762CA2"/>
<path d="M42.6539 170.562C42.6961 170.857 42.7382 171.026 42.7382 171.026C43.5816 170.646 44.3408 169.929 44.9312 169.044C45.5216 168.158 45.8589 167.062 45.9432 165.965C46.0276 164.869 45.8589 163.73 45.4372 162.802C43.6832 158.768 41.1944 157.359 35.9288 158.392C34.8622 160.353 34.81 161.115 35.1895 161.79C37.4786 165.351 41.75 165.138 42.6539 170.562Z" fill="#994DC5" stroke="#762CA2"/>
<path d="M35.3182 130.458C34.9386 129.488 34.0952 128.518 32.9987 127.928C31.9023 127.295 30.6371 127 29.4142 127C23.8927 127.095 21.8358 133.405 23.3415 137.922C23.468 138.302 23.5945 138.597 23.6789 138.808C23.7632 139.019 23.8053 139.145 23.8053 139.145C25.197 138.935 26.1669 138.681 26.7573 138.175C30.2803 135.533 29.7178 130.458 35.3182 130.458Z" fill="#994DC5" stroke="#762CA2"/>
<path d="M40.0368 134.48C39.9718 133.44 39.4651 132.259 38.6015 131.362C37.7508 130.424 36.6364 129.757 35.4719 129.383C30.4164 127.856 25.4113 132.95 27.2282 137.815C35.2485 140.804 34.8711 132.822 40.0368 134.48Z" fill="#994DC5" stroke="#762CA2"/>
<path d="M23.6759 131.048C23.7603 130.88 23.8446 130.711 23.8868 130.542C24.0133 130.289 24.0976 130.121 24.0976 130.121C23.1699 129.952 22.1156 130.078 21.1456 130.5C20.1757 130.88 19.2479 131.554 18.5732 132.356C15.5273 136.163 17.5819 141.291 21.1878 143.995C21.3565 144.122 21.5674 144.248 21.7361 144.375C22.0734 144.585 22.3264 144.754 22.5373 144.838C22.7481 144.923 22.8747 144.965 22.8747 144.965C23.8446 143.953 24.3928 143.194 24.5615 142.308C25.1374 138.469 22.5932 135.379 23.6759 131.048Z" fill="#994DC5" stroke="#762CA2"/>
<path d="M34.8528 137.796C34.8528 137.796 34.9792 137.754 35.1901 137.669C35.401 137.585 35.6962 137.501 36.0757 137.458C36.8348 137.29 37.9313 137.29 39.0699 137.501C40.2085 137.711 41.3893 138.175 42.2328 138.597C42.6545 138.808 42.9919 139.019 43.2449 139.187C43.4979 139.356 43.6244 139.44 43.6244 139.44C43.9618 138.555 44.0039 137.543 43.7931 136.531C43.5822 135.519 43.0762 134.464 42.3592 133.621C41.6423 132.735 40.7146 132.06 39.7025 131.639C38.6904 131.217 37.5939 131.091 36.6239 131.259C36.6239 131.259 36.4553 131.301 36.1601 131.344C35.8649 131.428 35.4431 131.512 34.9792 131.723C34.5154 131.892 33.9671 132.145 33.4611 132.482C32.955 132.82 32.4912 133.199 32.0695 133.621C31.2682 134.464 30.8886 135.476 30.7621 136.193C30.7199 136.573 30.7199 136.826 30.7621 137.037C30.8043 137.248 30.8043 137.332 30.8043 137.332C31.8164 138.049 32.196 138.597 32.4912 138.597C32.6177 138.597 32.9129 138.513 33.2502 138.344C33.8406 138.218 34.3467 138.007 34.8528 137.796Z" fill="#994DC5" stroke="#762CA2"/>
<path d="M35.4596 122.117L34.79 120L27.819 122.934C24.0087 124.54 24.3937 127.722 25.3212 131C29.0377 129.43 37.1974 127.65 35.4596 122.117Z" fill="#994DC5" stroke="#762CA2"/>
<path d="M35.4596 129.117L34.79 127L27.819 129.934C24.0087 131.54 24.3937 134.722 25.3212 138C29.0377 136.43 37.1974 134.65 35.4596 129.117Z" fill="#994DC5" stroke="#762CA2"/>
<path d="M35.4596 136.117L34.79 134L27.819 136.934C24.0087 138.54 24.3937 141.722 25.3212 145C29.0377 143.43 37.1974 141.65 35.4596 136.117Z" fill="#994DC5" stroke="#762CA2"/>
<path d="M35.4596 143.117L34.79 141L27.819 143.934C24.0087 145.54 24.3937 148.722 25.3212 152C29.0377 150.43 37.1974 148.65 35.4596 143.117Z" fill="#994DC5" stroke="#762CA2"/>
<path d="M35.4596 150.117L34.79 148L27.819 150.934C24.0087 152.54 24.3937 155.722 25.3212 159C29.0377 157.43 37.1974 155.65 35.4596 150.117Z" fill="#994DC5" stroke="#762CA2"/>
<path d="M35.4596 157.117L34.79 155L27.819 157.934C24.0087 159.54 24.3937 162.722 25.3212 166C29.0377 164.43 37.1974 162.65 35.4596 157.117Z" fill="#994DC5" stroke="#762CA2"/>
<path d="M17.3091 138.428C17.2247 138.133 17.1826 138.007 17.1826 138.007C15.58 138.934 14.4836 140.917 14.4414 143.067C14.4414 148.277 20.0414 151.144 24.7734 149.899C25.153 149.815 25.4481 149.73 25.659 149.646C25.8699 149.562 25.9964 149.52 25.9964 149.52C25.7106 144.662 18.7865 143.599 17.3091 138.428Z" fill="#994DC5" stroke="#762CA2"/>
<path d="M25.9981 149.478C25.9981 149.478 25.8715 149.52 25.6607 149.604C25.4498 149.688 25.1546 149.773 24.7751 149.857C24.016 150.026 22.9196 150.152 21.7388 150.068C21.1484 150.026 20.6001 149.899 20.0097 149.731C19.4615 149.562 18.9554 149.351 18.4915 149.182C18.0698 148.972 17.6903 148.761 17.4373 148.634C17.1842 148.466 17.0155 148.381 17.0155 148.381C16.889 148.845 16.8469 149.309 16.8047 149.815C16.8047 150.321 16.889 150.827 17.0577 151.375C17.1842 151.881 17.4372 152.387 17.6903 152.851C17.9433 153.315 18.3229 153.737 18.7024 154.159C19.0819 154.538 19.5037 154.876 19.9675 155.171C20.4314 155.466 20.8953 155.677 21.4014 155.846C21.9074 156.014 22.3713 156.099 22.8774 156.141C23.3834 156.183 23.8474 156.099 24.2691 156.014C24.2691 156.014 24.4378 155.972 24.6908 155.888C24.986 155.803 25.3655 155.677 25.8294 155.55C26.715 155.213 27.8536 154.665 28.7814 153.99C29.2453 153.653 29.667 153.273 30.0465 152.936C30.4261 152.556 30.7213 152.219 30.9321 151.881C31.396 151.207 31.6069 150.785 31.6069 150.785C30.6791 149.731 29.9622 149.14 29.1188 148.972C28.2754 148.803 27.3054 148.972 25.9981 149.478Z" fill="#994DC5" stroke="#762CA2"/>
<path d="M31.6054 150.827C31.6054 150.827 31.3945 151.249 30.9306 151.924C30.6776 152.219 30.3824 152.598 30.045 152.978C29.6655 153.315 29.2438 153.695 28.7799 154.032C27.8521 154.707 26.7135 155.255 25.8279 155.592C25.364 155.761 24.9845 155.888 24.6893 155.93C24.3941 156.014 24.2676 156.014 24.2676 156.014C24.4784 156.436 24.7736 156.815 25.0688 157.153C25.4062 157.532 25.7857 157.828 26.2075 158.081C26.6292 158.376 27.093 158.587 27.5991 158.755C28.1051 158.924 28.6112 159.008 29.1595 159.093C30.2137 159.177 31.3524 159.008 32.3223 158.629C33.2923 158.207 34.1357 157.617 34.6839 156.815C34.6839 156.815 34.7682 156.689 34.9369 156.436C35.1056 156.225 35.3165 155.803 35.5273 155.382C35.9912 154.538 36.4129 153.315 36.5816 152.177C36.7503 151.038 36.7081 149.941 36.5395 149.14C36.4551 148.761 36.3708 148.423 36.3286 148.212C36.2443 148.002 36.2021 147.875 36.2021 147.875C34.8104 147.875 33.8405 147.959 33.2079 148.381C33.0392 148.465 32.9127 148.592 32.744 148.761C32.6175 148.887 32.491 149.056 32.3645 149.267C32.238 149.435 32.1114 149.688 31.9849 149.941C31.9006 150.237 31.7741 150.49 31.6054 150.827Z" fill="#994DC5" stroke="#762CA2"/>
<path d="M36.2838 147.959C36.2838 147.959 36.326 148.086 36.4103 148.297C36.4525 148.507 36.5368 148.803 36.6212 149.224C36.7477 149.983 36.832 151.08 36.6633 152.261C36.4947 153.399 36.0729 154.622 35.6091 155.466C35.3982 155.887 35.1452 156.267 35.0187 156.52C34.85 156.773 34.7656 156.9 34.7656 156.9C34.9765 156.984 35.2295 157.068 35.4826 157.11C35.7356 157.153 35.9886 157.153 36.2416 157.195C36.4947 157.195 36.7477 157.195 37.0429 157.195C37.2959 157.153 37.549 157.11 37.802 157.068C38.8141 156.815 39.8262 156.309 40.6696 155.592C41.5131 154.875 42.1456 153.948 42.5252 153.02C42.9047 152.05 43.0313 151.038 42.8626 150.11C42.8626 150.11 42.8204 149.941 42.7782 149.646C42.736 149.351 42.6095 148.971 42.483 148.507C42.1878 147.58 41.6818 146.441 41.007 145.471C40.3323 144.501 39.4889 143.784 38.8563 143.32C38.5189 143.11 38.2659 142.941 38.055 142.814C37.8442 142.688 37.7598 142.646 37.7598 142.646C36.7477 143.616 36.1573 144.332 35.9886 145.049C35.6512 145.682 35.8621 146.61 36.2838 147.959Z" fill="#994DC5" stroke="#762CA2"/>
<path d="M42.6539 149.562C42.6961 149.857 42.7382 150.026 42.7382 150.026C43.5816 149.646 44.3408 148.929 44.9312 148.044C45.5216 147.158 45.8589 146.062 45.9432 144.965C46.0276 143.869 45.8589 142.73 45.4372 141.802C43.6832 137.768 41.1944 136.359 35.9288 137.392C34.8622 139.353 34.81 140.115 35.1895 140.79C37.4786 144.351 41.75 144.138 42.6539 149.562Z" fill="#994DC5" stroke="#762CA2"/>
<path d="M35.2604 206.117L34.5908 204L27.6198 206.934C23.8095 208.54 24.1945 211.722 25.1219 215C28.8385 213.43 36.9981 211.65 35.2604 206.117Z" fill="#994DC5" stroke="#762CA2"/>
<path d="M35.2604 213.117L34.5908 211L27.6198 213.934C23.8095 215.54 24.1945 218.722 25.1219 222C28.8385 220.43 36.9981 218.65 35.2604 213.117Z" fill="#994DC5" stroke="#762CA2"/>
<path d="M35.2604 220.117L34.5908 218L27.6198 220.934C23.8095 222.54 24.1945 225.722 25.1219 229C28.8385 227.43 36.9981 225.65 35.2604 220.117Z" fill="#994DC5" stroke="#762CA2"/>
<path d="M35.2604 227.117L34.5908 225L27.6198 227.934C23.8095 229.54 24.1945 232.722 25.1219 236C28.8385 234.43 36.9981 232.65 35.2604 227.117Z" fill="#994DC5" stroke="#762CA2"/>
<path d="M35.2604 234.117L34.5908 232L27.6198 234.934C23.8095 236.54 24.1945 239.722 25.1219 243C28.8385 241.43 36.9981 239.65 35.2604 234.117Z" fill="#994DC5" stroke="#762CA2"/>
<path d="M35.2604 241.117L34.5908 239L27.6198 241.934C23.8095 243.54 24.1945 246.722 25.1219 250C28.8385 248.43 36.9981 246.65 35.2604 241.117Z" fill="#994DC5" stroke="#762CA2"/>
<path d="M35.2604 248.117L34.5908 246L27.6198 248.934C23.8095 250.54 24.1945 253.722 25.1219 257C28.8385 255.43 36.9981 253.65 35.2604 248.117Z" fill="#994DC5" stroke="#762CA2"/>
<path d="M35.2604 255.117L34.5908 253L27.6198 255.934C23.8095 257.54 24.1945 260.722 25.1219 264C28.8385 262.43 36.9981 260.65 35.2604 255.117Z" fill="#994DC5" stroke="#762CA2"/>
<path d="M35.2604 262.117L34.5908 260L27.6198 262.934C23.8095 264.54 24.1945 267.722 25.1219 271C28.8385 269.43 36.9981 267.65 35.2604 262.117Z" fill="#994DC5" stroke="#762CA2"/>
<path d="M35.2604 269.117L34.5908 267L27.6198 269.934C23.8095 271.54 24.1945 274.722 25.1219 278C28.8385 276.43 36.9981 274.65 35.2604 269.117Z" fill="#994DC5" stroke="#762CA2"/>
<path d="M35.2604 276.117L34.5908 274L27.6198 276.934C23.8095 278.54 24.1945 281.722 25.1219 285C28.8385 283.43 36.9981 281.65 35.2604 276.117Z" fill="#994DC5" stroke="#762CA2"/>
<path d="M35.2604 283.117L34.5908 281L27.6198 283.934C23.8095 285.54 24.1945 288.722 25.1219 292C28.8385 290.43 36.9981 288.65 35.2604 283.117Z" fill="#994DC5" stroke="#762CA2"/>
<path d="M35.2604 290.117L34.5908 288L27.6198 290.934C23.8095 292.54 24.1945 295.722 25.1219 299C28.8385 297.43 36.9981 295.65 35.2604 290.117Z" fill="#994DC5" stroke="#762CA2"/>
<path d="M35.2604 297.117L34.5908 295L27.6198 297.934C23.8095 299.54 24.1945 302.722 25.1219 306C28.8385 304.43 36.9981 302.65 35.2604 297.117Z" fill="#994DC5" stroke="#762CA2"/>
<path d="M35.2604 304.117L34.5908 302L27.6198 304.934C23.8095 306.54 24.1945 309.722 25.1219 313C28.8385 311.43 36.9981 309.65 35.2604 304.117Z" fill="#994DC5" stroke="#762CA2"/>
<path d="M35.2604 311.117L34.5908 309L27.6198 311.934C23.8095 313.54 24.1945 316.722 25.1219 320C28.8385 318.43 36.9981 316.65 35.2604 311.117Z" fill="#994DC5" stroke="#762CA2"/>
<path d="M35.2604 318.117L34.5908 316L27.6198 318.934C23.8095 320.54 24.1945 323.722 25.1219 327C28.8385 325.43 36.9981 323.65 35.2604 318.117Z" fill="#994DC5" stroke="#762CA2"/>
<path d="M35.2604 325.117L34.5908 323L27.6198 325.934C23.8095 327.54 24.1945 330.722 25.1219 334C28.8385 332.43 36.9981 330.65 35.2604 325.117Z" fill="#994DC5" stroke="#762CA2"/>
<path d="M35.2604 332.117L34.5908 330L27.6198 332.934C23.8095 334.54 24.1945 337.722 25.1219 341C28.8385 339.43 36.9981 337.65 35.2604 332.117Z" fill="#994DC5" stroke="#762CA2"/>
<path d="M35.2604 339.117L34.5908 337L27.6198 339.934C23.8095 341.54 24.1945 344.722 25.1219 348C28.8385 346.43 36.9981 344.65 35.2604 339.117Z" fill="#994DC5" stroke="#762CA2"/>
<path d="M35.2604 346.117L34.5908 344L27.6198 346.934C23.8095 348.54 24.1945 351.722 25.1219 355C28.8385 353.43 36.9981 351.65 35.2604 346.117Z" fill="#994DC5" stroke="#762CA2"/>
<path d="M35.2604 353.117L34.5908 351L27.6198 353.934C23.8095 355.54 24.1945 358.722 25.1219 362C28.8385 360.43 36.9981 358.65 35.2604 353.117Z" fill="#994DC5" stroke="#762CA2"/>
<path d="M35.3182 410.458C34.9386 409.488 34.0952 408.518 32.9987 407.928C31.9023 407.295 30.6371 407 29.4142 407C23.8927 407.095 21.8358 413.405 23.3415 417.922C23.468 418.302 23.5945 418.597 23.6789 418.808C23.7632 419.019 23.8053 419.145 23.8053 419.145C25.197 418.935 26.1669 418.681 26.7573 418.175C30.2803 415.533 29.7178 410.458 35.3182 410.458Z" fill="#994DC5" stroke="#762CA2"/>
<path d="M40.0368 414.48C39.9718 413.44 39.4651 412.259 38.6015 411.362C37.7508 410.424 36.6364 409.757 35.4719 409.383C30.4164 407.856 25.4113 412.95 27.2282 417.815C35.2485 420.804 34.8711 412.822 40.0368 414.48Z" fill="#994DC5" stroke="#762CA2"/>
<path d="M23.6759 411.048C23.7603 410.88 23.8446 410.711 23.8868 410.542C24.0133 410.289 24.0976 410.121 24.0976 410.121C23.1699 409.952 22.1156 410.078 21.1456 410.5C20.1757 410.88 19.2479 411.554 18.5732 412.356C15.5273 416.163 17.5819 421.291 21.1878 423.995C21.3565 424.122 21.5674 424.248 21.7361 424.375C22.0734 424.585 22.3264 424.754 22.5373 424.838C22.7481 424.923 22.8747 424.965 22.8747 424.965C23.8446 423.953 24.3928 423.194 24.5615 422.308C25.1374 418.469 22.5932 415.379 23.6759 411.048Z" fill="#994DC5" stroke="#762CA2"/>
<path d="M34.8528 417.796C34.8528 417.796 34.9792 417.754 35.1901 417.669C35.401 417.585 35.6962 417.501 36.0757 417.458C36.8348 417.29 37.9313 417.29 39.0699 417.501C40.2085 417.711 41.3893 418.175 42.2328 418.597C42.6545 418.808 42.9919 419.019 43.2449 419.187C43.4979 419.356 43.6244 419.44 43.6244 419.44C43.9618 418.555 44.0039 417.543 43.7931 416.531C43.5822 415.519 43.0762 414.464 42.3592 413.621C41.6423 412.735 40.7146 412.06 39.7025 411.639C38.6904 411.217 37.5939 411.091 36.6239 411.259C36.6239 411.259 36.4553 411.301 36.1601 411.344C35.8649 411.428 35.4431 411.512 34.9792 411.723C34.5154 411.892 33.9671 412.145 33.4611 412.482C32.955 412.82 32.4912 413.199 32.0695 413.621C31.2682 414.464 30.8886 415.476 30.7621 416.193C30.7199 416.573 30.7199 416.826 30.7621 417.037C30.8043 417.248 30.8043 417.332 30.8043 417.332C31.8164 418.049 32.196 418.597 32.4912 418.597C32.6177 418.597 32.9129 418.513 33.2502 418.344C33.8406 418.218 34.3467 418.007 34.8528 417.796Z" fill="#994DC5" stroke="#762CA2"/>
<path d="M35.4596 402.117L34.79 400L27.819 402.934C24.0087 404.54 24.3937 407.722 25.3212 411C29.0377 409.43 37.1974 407.65 35.4596 402.117Z" fill="#994DC5" stroke="#762CA2"/>
<path d="M35.4596 409.117L34.79 407L27.819 409.934C24.0087 411.54 24.3937 414.722 25.3212 418C29.0377 416.43 37.1974 414.65 35.4596 409.117Z" fill="#994DC5" stroke="#762CA2"/>
<path d="M35.4596 416.117L34.79 414L27.819 416.934C24.0087 418.54 24.3937 421.722 25.3212 425C29.0377 423.43 37.1974 421.65 35.4596 416.117Z" fill="#994DC5" stroke="#762CA2"/>
<path d="M35.4596 423.117L34.79 421L27.819 423.934C24.0087 425.54 24.3937 428.722 25.3212 432C29.0377 430.43 37.1974 428.65 35.4596 423.117Z" fill="#994DC5" stroke="#762CA2"/>
<path d="M35.4596 430.117L34.79 428L27.819 430.934C24.0087 432.54 24.3937 435.722 25.3212 439C29.0377 437.43 37.1974 435.65 35.4596 430.117Z" fill="#994DC5" stroke="#762CA2"/>
<path d="M35.4596 437.117L34.79 435L27.819 437.934C24.0087 439.54 24.3937 442.722 25.3212 446C29.0377 444.43 37.1974 442.65 35.4596 437.117Z" fill="#994DC5" stroke="#762CA2"/>
<path d="M17.3091 418.428C17.2247 418.133 17.1826 418.007 17.1826 418.007C15.58 418.934 14.4836 420.917 14.4414 423.067C14.4414 428.277 20.0414 431.144 24.7734 429.899C25.153 429.815 25.4481 429.73 25.659 429.646C25.8699 429.562 25.9964 429.52 25.9964 429.52C25.7106 424.662 18.7865 423.599 17.3091 418.428Z" fill="#994DC5" stroke="#762CA2"/>
<path d="M25.9981 429.478C25.9981 429.478 25.8715 429.52 25.6607 429.604C25.4498 429.688 25.1546 429.773 24.7751 429.857C24.016 430.026 22.9196 430.152 21.7388 430.068C21.1484 430.026 20.6001 429.899 20.0097 429.731C19.4615 429.562 18.9554 429.351 18.4915 429.182C18.0698 428.972 17.6903 428.761 17.4373 428.634C17.1842 428.466 17.0155 428.381 17.0155 428.381C16.889 428.845 16.8469 429.309 16.8047 429.815C16.8047 430.321 16.889 430.827 17.0577 431.375C17.1842 431.881 17.4372 432.387 17.6903 432.851C17.9433 433.315 18.3229 433.737 18.7024 434.159C19.0819 434.538 19.5037 434.876 19.9675 435.171C20.4314 435.466 20.8953 435.677 21.4014 435.846C21.9074 436.014 22.3713 436.099 22.8774 436.141C23.3834 436.183 23.8474 436.099 24.2691 436.014C24.2691 436.014 24.4378 435.972 24.6908 435.888C24.986 435.803 25.3655 435.677 25.8294 435.55C26.715 435.213 27.8536 434.665 28.7814 433.99C29.2453 433.653 29.667 433.273 30.0465 432.936C30.4261 432.556 30.7213 432.219 30.9321 431.881C31.396 431.207 31.6069 430.785 31.6069 430.785C30.6791 429.731 29.9622 429.14 29.1188 428.972C28.2754 428.803 27.3054 428.972 25.9981 429.478Z" fill="#994DC5" stroke="#762CA2"/>
<path d="M31.6054 430.827C31.6054 430.827 31.3945 431.249 30.9306 431.924C30.6776 432.219 30.3824 432.598 30.045 432.978C29.6655 433.315 29.2438 433.695 28.7799 434.032C27.8521 434.707 26.7135 435.255 25.8279 435.592C25.364 435.761 24.9845 435.888 24.6893 435.93C24.3941 436.014 24.2676 436.014 24.2676 436.014C24.4784 436.436 24.7736 436.815 25.0688 437.153C25.4062 437.532 25.7857 437.828 26.2075 438.081C26.6292 438.376 27.093 438.587 27.5991 438.755C28.1051 438.924 28.6112 439.008 29.1595 439.093C30.2137 439.177 31.3524 439.008 32.3223 438.629C33.2923 438.207 34.1357 437.617 34.6839 436.815C34.6839 436.815 34.7682 436.689 34.9369 436.436C35.1056 436.225 35.3165 435.803 35.5273 435.382C35.9912 434.538 36.4129 433.315 36.5816 432.177C36.7503 431.038 36.7081 429.941 36.5395 429.14C36.4551 428.761 36.3708 428.423 36.3286 428.212C36.2443 428.002 36.2021 427.875 36.2021 427.875C34.8104 427.875 33.8405 427.959 33.2079 428.381C33.0392 428.465 32.9127 428.592 32.744 428.761C32.6175 428.887 32.491 429.056 32.3645 429.267C32.238 429.435 32.1114 429.688 31.9849 429.941C31.9006 430.237 31.7741 430.49 31.6054 430.827Z" fill="#994DC5" stroke="#762CA2"/>
<path d="M36.2838 427.959C36.2838 427.959 36.326 428.086 36.4103 428.297C36.4525 428.507 36.5368 428.803 36.6212 429.224C36.7477 429.983 36.832 431.08 36.6633 432.261C36.4947 433.399 36.0729 434.622 35.6091 435.466C35.3982 435.887 35.1452 436.267 35.0187 436.52C34.85 436.773 34.7656 436.9 34.7656 436.9C34.9765 436.984 35.2295 437.068 35.4826 437.11C35.7356 437.153 35.9886 437.153 36.2416 437.195C36.4947 437.195 36.7477 437.195 37.0429 437.195C37.2959 437.153 37.549 437.11 37.802 437.068C38.8141 436.815 39.8262 436.309 40.6696 435.592C41.5131 434.875 42.1456 433.948 42.5252 433.02C42.9047 432.05 43.0313 431.038 42.8626 430.11C42.8626 430.11 42.8204 429.941 42.7782 429.646C42.736 429.351 42.6095 428.971 42.483 428.507C42.1878 427.58 41.6818 426.441 41.007 425.471C40.3323 424.501 39.4889 423.784 38.8563 423.32C38.5189 423.11 38.2659 422.941 38.055 422.814C37.8442 422.688 37.7598 422.646 37.7598 422.646C36.7477 423.616 36.1573 424.332 35.9886 425.049C35.6512 425.682 35.8621 426.61 36.2838 427.959Z" fill="#994DC5" stroke="#762CA2"/>
<path d="M42.6539 429.562C42.6961 429.857 42.7382 430.026 42.7382 430.026C43.5816 429.646 44.3408 428.929 44.9312 428.044C45.5216 427.158 45.8589 426.062 45.9432 424.965C46.0276 423.869 45.8589 422.73 45.4372 421.802C43.6832 417.768 41.1944 416.359 35.9288 417.392C34.8622 419.353 34.81 420.115 35.1895 420.79C37.4786 424.351 41.75 424.138 42.6539 429.562Z" fill="#994DC5" stroke="#762CA2"/>
<path d="M35.3182 389.458C34.9386 388.488 34.0952 387.518 32.9987 386.928C31.9023 386.295 30.6371 386 29.4142 386C23.8927 386.095 21.8358 392.405 23.3415 396.922C23.468 397.302 23.5945 397.597 23.6789 397.808C23.7632 398.019 23.8053 398.145 23.8053 398.145C25.197 397.935 26.1669 397.681 26.7573 397.175C30.2803 394.533 29.7178 389.458 35.3182 389.458Z" fill="#994DC5" stroke="#762CA2"/>
<path d="M40.0368 393.48C39.9718 392.44 39.4651 391.259 38.6015 390.362C37.7508 389.424 36.6364 388.757 35.4719 388.383C30.4164 386.856 25.4113 391.95 27.2282 396.815C35.2485 399.804 34.8711 391.822 40.0368 393.48Z" fill="#994DC5" stroke="#762CA2"/>
<path d="M23.6759 390.048C23.7603 389.88 23.8446 389.711 23.8868 389.542C24.0133 389.289 24.0976 389.121 24.0976 389.121C23.1699 388.952 22.1156 389.078 21.1456 389.5C20.1757 389.88 19.2479 390.554 18.5732 391.356C15.5273 395.163 17.5819 400.291 21.1878 402.995C21.3565 403.122 21.5674 403.248 21.7361 403.375C22.0734 403.585 22.3264 403.754 22.5373 403.838C22.7481 403.923 22.8747 403.965 22.8747 403.965C23.8446 402.953 24.3928 402.194 24.5615 401.308C25.1374 397.469 22.5932 394.379 23.6759 390.048Z" fill="#994DC5" stroke="#762CA2"/>
<path d="M34.8528 396.796C34.8528 396.796 34.9792 396.754 35.1901 396.669C35.401 396.585 35.6962 396.501 36.0757 396.458C36.8348 396.29 37.9313 396.29 39.0699 396.501C40.2085 396.711 41.3893 397.175 42.2328 397.597C42.6545 397.808 42.9919 398.019 43.2449 398.187C43.4979 398.356 43.6244 398.44 43.6244 398.44C43.9618 397.555 44.0039 396.543 43.7931 395.531C43.5822 394.519 43.0762 393.464 42.3592 392.621C41.6423 391.735 40.7146 391.06 39.7025 390.639C38.6904 390.217 37.5939 390.091 36.6239 390.259C36.6239 390.259 36.4553 390.301 36.1601 390.344C35.8649 390.428 35.4431 390.512 34.9792 390.723C34.5154 390.892 33.9671 391.145 33.4611 391.482C32.955 391.82 32.4912 392.199 32.0695 392.621C31.2682 393.464 30.8886 394.476 30.7621 395.193C30.7199 395.573 30.7199 395.826 30.7621 396.037C30.8043 396.248 30.8043 396.332 30.8043 396.332C31.8164 397.049 32.196 397.597 32.4912 397.597C32.6177 397.597 32.9129 397.513 33.2502 397.344C33.8406 397.218 34.3467 397.007 34.8528 396.796Z" fill="#994DC5" stroke="#762CA2"/>
<path d="M35.4596 381.117L34.79 379L27.819 381.934C24.0087 383.54 24.3937 386.722 25.3212 390C29.0377 388.43 37.1974 386.65 35.4596 381.117Z" fill="#994DC5" stroke="#762CA2"/>
<path d="M35.4596 388.117L34.79 386L27.819 388.934C24.0087 390.54 24.3937 393.722 25.3212 397C29.0377 395.43 37.1974 393.65 35.4596 388.117Z" fill="#994DC5" stroke="#762CA2"/>
<path d="M35.4596 395.117L34.79 393L27.819 395.934C24.0087 397.54 24.3937 400.722 25.3212 404C29.0377 402.43 37.1974 400.65 35.4596 395.117Z" fill="#994DC5" stroke="#762CA2"/>
<path d="M35.4596 402.117L34.79 400L27.819 402.934C24.0087 404.54 24.3937 407.722 25.3212 411C29.0377 409.43 37.1974 407.65 35.4596 402.117Z" fill="#994DC5" stroke="#762CA2"/>
<path d="M35.4596 409.117L34.79 407L27.819 409.934C24.0087 411.54 24.3937 414.722 25.3212 418C29.0377 416.43 37.1974 414.65 35.4596 409.117Z" fill="#994DC5" stroke="#762CA2"/>
<path d="M35.4596 416.117L34.79 414L27.819 416.934C24.0087 418.54 24.3937 421.722 25.3212 425C29.0377 423.43 37.1974 421.65 35.4596 416.117Z" fill="#994DC5" stroke="#762CA2"/>
<path d="M17.3091 397.428C17.2247 397.133 17.1826 397.007 17.1826 397.007C15.58 397.934 14.4836 399.917 14.4414 402.067C14.4414 407.277 20.0414 410.144 24.7734 408.899C25.153 408.815 25.4481 408.73 25.659 408.646C25.8699 408.562 25.9964 408.52 25.9964 408.52C25.7106 403.662 18.7865 402.599 17.3091 397.428Z" fill="#994DC5" stroke="#762CA2"/>
<path d="M25.9981 408.478C25.9981 408.478 25.8715 408.52 25.6607 408.604C25.4498 408.688 25.1546 408.773 24.7751 408.857C24.016 409.026 22.9196 409.152 21.7388 409.068C21.1484 409.026 20.6001 408.899 20.0097 408.731C19.4615 408.562 18.9554 408.351 18.4915 408.182C18.0698 407.972 17.6903 407.761 17.4373 407.634C17.1842 407.466 17.0155 407.381 17.0155 407.381C16.889 407.845 16.8469 408.309 16.8047 408.815C16.8047 409.321 16.889 409.827 17.0577 410.375C17.1842 410.881 17.4372 411.387 17.6903 411.851C17.9433 412.315 18.3229 412.737 18.7024 413.159C19.0819 413.538 19.5037 413.876 19.9675 414.171C20.4314 414.466 20.8953 414.677 21.4014 414.846C21.9074 415.014 22.3713 415.099 22.8774 415.141C23.3834 415.183 23.8474 415.099 24.2691 415.014C24.2691 415.014 24.4378 414.972 24.6908 414.888C24.986 414.803 25.3655 414.677 25.8294 414.55C26.715 414.213 27.8536 413.665 28.7814 412.99C29.2453 412.653 29.667 412.273 30.0465 411.936C30.4261 411.556 30.7213 411.219 30.9321 410.881C31.396 410.207 31.6069 409.785 31.6069 409.785C30.6791 408.731 29.9622 408.14 29.1188 407.972C28.2754 407.803 27.3054 407.972 25.9981 408.478Z" fill="#994DC5" stroke="#762CA2"/>
<path d="M31.6054 409.827C31.6054 409.827 31.3945 410.249 30.9306 410.924C30.6776 411.219 30.3824 411.598 30.045 411.978C29.6655 412.315 29.2438 412.695 28.7799 413.032C27.8521 413.707 26.7135 414.255 25.8279 414.592C25.364 414.761 24.9845 414.888 24.6893 414.93C24.3941 415.014 24.2676 415.014 24.2676 415.014C24.4784 415.436 24.7736 415.815 25.0688 416.153C25.4062 416.532 25.7857 416.828 26.2075 417.081C26.6292 417.376 27.093 417.587 27.5991 417.755C28.1051 417.924 28.6112 418.008 29.1595 418.093C30.2137 418.177 31.3524 418.008 32.3223 417.629C33.2923 417.207 34.1357 416.617 34.6839 415.815C34.6839 415.815 34.7682 415.689 34.9369 415.436C35.1056 415.225 35.3165 414.803 35.5273 414.382C35.9912 413.538 36.4129 412.315 36.5816 411.177C36.7503 410.038 36.7081 408.941 36.5395 408.14C36.4551 407.761 36.3708 407.423 36.3286 407.212C36.2443 407.002 36.2021 406.875 36.2021 406.875C34.8104 406.875 33.8405 406.959 33.2079 407.381C33.0392 407.465 32.9127 407.592 32.744 407.761C32.6175 407.887 32.491 408.056 32.3645 408.267C32.238 408.435 32.1114 408.688 31.9849 408.941C31.9006 409.237 31.7741 409.49 31.6054 409.827Z" fill="#994DC5" stroke="#762CA2"/>
<path d="M36.2838 406.959C36.2838 406.959 36.326 407.086 36.4103 407.297C36.4525 407.507 36.5368 407.803 36.6212 408.224C36.7477 408.983 36.832 410.08 36.6633 411.261C36.4947 412.399 36.0729 413.622 35.6091 414.466C35.3982 414.887 35.1452 415.267 35.0187 415.52C34.85 415.773 34.7656 415.9 34.7656 415.9C34.9765 415.984 35.2295 416.068 35.4826 416.11C35.7356 416.153 35.9886 416.153 36.2416 416.195C36.4947 416.195 36.7477 416.195 37.0429 416.195C37.2959 416.153 37.549 416.11 37.802 416.068C38.8141 415.815 39.8262 415.309 40.6696 414.592C41.5131 413.875 42.1456 412.948 42.5252 412.02C42.9047 411.05 43.0313 410.038 42.8626 409.11C42.8626 409.11 42.8204 408.941 42.7782 408.646C42.736 408.351 42.6095 407.971 42.483 407.507C42.1878 406.58 41.6818 405.441 41.007 404.471C40.3323 403.501 39.4889 402.784 38.8563 402.32C38.5189 402.11 38.2659 401.941 38.055 401.814C37.8442 401.688 37.7598 401.646 37.7598 401.646C36.7477 402.616 36.1573 403.332 35.9886 404.049C35.6512 404.682 35.8621 405.61 36.2838 406.959Z" fill="#994DC5" stroke="#762CA2"/>
<path d="M42.6539 408.562C42.6961 408.857 42.7382 409.026 42.7382 409.026C43.5816 408.646 44.3408 407.929 44.9312 407.044C45.5216 406.158 45.8589 405.062 45.9432 403.965C46.0276 402.869 45.8589 401.73 45.4372 400.802C43.6832 396.768 41.1944 395.359 35.9288 396.392C34.8622 398.353 34.81 399.115 35.1895 399.79C37.4786 403.351 41.75 403.138 42.6539 408.562Z" fill="#994DC5" stroke="#762CA2"/>
<path d="M35.3182 368.458C34.9386 367.488 34.0952 366.518 32.9987 365.928C31.9023 365.295 30.6371 365 29.4142 365C23.8927 365.095 21.8358 371.405 23.3415 375.922C23.468 376.302 23.5945 376.597 23.6789 376.808C23.7632 377.019 23.8053 377.145 23.8053 377.145C25.197 376.935 26.1669 376.681 26.7573 376.175C30.2803 373.533 29.7178 368.458 35.3182 368.458Z" fill="#994DC5" stroke="#762CA2"/>
<path d="M40.0368 372.48C39.9718 371.44 39.4651 370.259 38.6015 369.362C37.7508 368.424 36.6364 367.757 35.4719 367.383C30.4164 365.856 25.4113 370.95 27.2282 375.815C35.2485 378.804 34.8711 370.822 40.0368 372.48Z" fill="#994DC5" stroke="#762CA2"/>
<path d="M23.6759 369.048C23.7603 368.88 23.8446 368.711 23.8868 368.542C24.0133 368.289 24.0976 368.121 24.0976 368.121C23.1699 367.952 22.1156 368.078 21.1456 368.5C20.1757 368.88 19.2479 369.554 18.5732 370.356C15.5273 374.163 17.5819 379.291 21.1878 381.995C21.3565 382.122 21.5674 382.248 21.7361 382.375C22.0734 382.585 22.3264 382.754 22.5373 382.838C22.7481 382.923 22.8747 382.965 22.8747 382.965C23.8446 381.953 24.3928 381.194 24.5615 380.308C25.1374 376.469 22.5932 373.379 23.6759 369.048Z" fill="#994DC5" stroke="#762CA2"/>
<path d="M34.8528 375.796C34.8528 375.796 34.9792 375.754 35.1901 375.669C35.401 375.585 35.6962 375.501 36.0757 375.458C36.8348 375.29 37.9313 375.29 39.0699 375.501C40.2085 375.711 41.3893 376.175 42.2328 376.597C42.6545 376.808 42.9919 377.019 43.2449 377.187C43.4979 377.356 43.6244 377.44 43.6244 377.44C43.9618 376.555 44.0039 375.543 43.7931 374.531C43.5822 373.519 43.0762 372.464 42.3592 371.621C41.6423 370.735 40.7146 370.06 39.7025 369.639C38.6904 369.217 37.5939 369.091 36.6239 369.259C36.6239 369.259 36.4553 369.301 36.1601 369.344C35.8649 369.428 35.4431 369.512 34.9792 369.723C34.5154 369.892 33.9671 370.145 33.4611 370.482C32.955 370.82 32.4912 371.199 32.0695 371.621C31.2682 372.464 30.8886 373.476 30.7621 374.193C30.7199 374.573 30.7199 374.826 30.7621 375.037C30.8043 375.248 30.8043 375.332 30.8043 375.332C31.8164 376.049 32.196 376.597 32.4912 376.597C32.6177 376.597 32.9129 376.513 33.2502 376.344C33.8406 376.218 34.3467 376.007 34.8528 375.796Z" fill="#994DC5" stroke="#762CA2"/>
<path d="M35.4596 360.117L34.79 358L27.819 360.934C24.0087 362.54 24.3937 365.722 25.3212 369C29.0377 367.43 37.1974 365.65 35.4596 360.117Z" fill="#994DC5" stroke="#762CA2"/>
<path d="M35.4596 367.117L34.79 365L27.819 367.934C24.0087 369.54 24.3937 372.722 25.3212 376C29.0377 374.43 37.1974 372.65 35.4596 367.117Z" fill="#994DC5" stroke="#762CA2"/>
<path d="M35.4596 374.117L34.79 372L27.819 374.934C24.0087 376.54 24.3937 379.722 25.3212 383C29.0377 381.43 37.1974 379.65 35.4596 374.117Z" fill="#994DC5" stroke="#762CA2"/>
<path d="M35.4596 381.117L34.79 379L27.819 381.934C24.0087 383.54 24.3937 386.722 25.3212 390C29.0377 388.43 37.1974 386.65 35.4596 381.117Z" fill="#994DC5" stroke="#762CA2"/>
<path d="M35.4596 388.117L34.79 386L27.819 388.934C24.0087 390.54 24.3937 393.722 25.3212 397C29.0377 395.43 37.1974 393.65 35.4596 388.117Z" fill="#994DC5" stroke="#762CA2"/>
<path d="M35.4596 395.117L34.79 393L27.819 395.934C24.0087 397.54 24.3937 400.722 25.3212 404C29.0377 402.43 37.1974 400.65 35.4596 395.117Z" fill="#994DC5" stroke="#762CA2"/>
<path d="M17.3091 376.428C17.2247 376.133 17.1826 376.007 17.1826 376.007C15.58 376.934 14.4836 378.917 14.4414 381.067C14.4414 386.277 20.0414 389.144 24.7734 387.899C25.153 387.815 25.4481 387.73 25.659 387.646C25.8699 387.562 25.9964 387.52 25.9964 387.52C25.7106 382.662 18.7865 381.599 17.3091 376.428Z" fill="#994DC5" stroke="#762CA2"/>
<path d="M25.9981 387.478C25.9981 387.478 25.8715 387.52 25.6607 387.604C25.4498 387.688 25.1546 387.773 24.7751 387.857C24.016 388.026 22.9196 388.152 21.7388 388.068C21.1484 388.026 20.6001 387.899 20.0097 387.731C19.4615 387.562 18.9554 387.351 18.4915 387.182C18.0698 386.972 17.6903 386.761 17.4373 386.634C17.1842 386.466 17.0155 386.381 17.0155 386.381C16.889 386.845 16.8469 387.309 16.8047 387.815C16.8047 388.321 16.889 388.827 17.0577 389.375C17.1842 389.881 17.4372 390.387 17.6903 390.851C17.9433 391.315 18.3229 391.737 18.7024 392.159C19.0819 392.538 19.5037 392.876 19.9675 393.171C20.4314 393.466 20.8953 393.677 21.4014 393.846C21.9074 394.014 22.3713 394.099 22.8774 394.141C23.3834 394.183 23.8474 394.099 24.2691 394.014C24.2691 394.014 24.4378 393.972 24.6908 393.888C24.986 393.803 25.3655 393.677 25.8294 393.55C26.715 393.213 27.8536 392.665 28.7814 391.99C29.2453 391.653 29.667 391.273 30.0465 390.936C30.4261 390.556 30.7213 390.219 30.9321 389.881C31.396 389.207 31.6069 388.785 31.6069 388.785C30.6791 387.731 29.9622 387.14 29.1188 386.972C28.2754 386.803 27.3054 386.972 25.9981 387.478Z" fill="#994DC5" stroke="#762CA2"/>
<path d="M31.6054 388.827C31.6054 388.827 31.3945 389.249 30.9306 389.924C30.6776 390.219 30.3824 390.598 30.045 390.978C29.6655 391.315 29.2438 391.695 28.7799 392.032C27.8521 392.707 26.7135 393.255 25.8279 393.592C25.364 393.761 24.9845 393.888 24.6893 393.93C24.3941 394.014 24.2676 394.014 24.2676 394.014C24.4784 394.436 24.7736 394.815 25.0688 395.153C25.4062 395.532 25.7857 395.828 26.2075 396.081C26.6292 396.376 27.093 396.587 27.5991 396.755C28.1051 396.924 28.6112 397.008 29.1595 397.093C30.2137 397.177 31.3524 397.008 32.3223 396.629C33.2923 396.207 34.1357 395.617 34.6839 394.815C34.6839 394.815 34.7682 394.689 34.9369 394.436C35.1056 394.225 35.3165 393.803 35.5273 393.382C35.9912 392.538 36.4129 391.315 36.5816 390.177C36.7503 389.038 36.7081 387.941 36.5395 387.14C36.4551 386.761 36.3708 386.423 36.3286 386.212C36.2443 386.002 36.2021 385.875 36.2021 385.875C34.8104 385.875 33.8405 385.959 33.2079 386.381C33.0392 386.465 32.9127 386.592 32.744 386.761C32.6175 386.887 32.491 387.056 32.3645 387.267C32.238 387.435 32.1114 387.688 31.9849 387.941C31.9006 388.237 31.7741 388.49 31.6054 388.827Z" fill="#994DC5" stroke="#762CA2"/>
<path d="M36.2838 385.959C36.2838 385.959 36.326 386.086 36.4103 386.297C36.4525 386.507 36.5368 386.803 36.6212 387.224C36.7477 387.983 36.832 389.08 36.6633 390.261C36.4947 391.399 36.0729 392.622 35.6091 393.466C35.3982 393.887 35.1452 394.267 35.0187 394.52C34.85 394.773 34.7656 394.9 34.7656 394.9C34.9765 394.984 35.2295 395.068 35.4826 395.11C35.7356 395.153 35.9886 395.153 36.2416 395.195C36.4947 395.195 36.7477 395.195 37.0429 395.195C37.2959 395.153 37.549 395.11 37.802 395.068C38.8141 394.815 39.8262 394.309 40.6696 393.592C41.5131 392.875 42.1456 391.948 42.5252 391.02C42.9047 390.05 43.0313 389.038 42.8626 388.11C42.8626 388.11 42.8204 387.941 42.7782 387.646C42.736 387.351 42.6095 386.971 42.483 386.507C42.1878 385.58 41.6818 384.441 41.007 383.471C40.3323 382.501 39.4889 381.784 38.8563 381.32C38.5189 381.11 38.2659 380.941 38.055 380.814C37.8442 380.688 37.7598 380.646 37.7598 380.646C36.7477 381.616 36.1573 382.332 35.9886 383.049C35.6512 383.682 35.8621 384.61 36.2838 385.959Z" fill="#994DC5" stroke="#762CA2"/>
<path d="M42.6539 387.562C42.6961 387.857 42.7382 388.026 42.7382 388.026C43.5816 387.646 44.3408 386.929 44.9312 386.044C45.5216 385.158 45.8589 384.062 45.9432 382.965C46.0276 381.869 45.8589 380.73 45.4372 379.802C43.6832 375.768 41.1944 374.359 35.9288 375.392C34.8622 377.353 34.81 378.115 35.1895 378.79C37.4786 382.351 41.75 382.138 42.6539 387.562Z" fill="#994DC5" stroke="#762CA2"/>
<path d="M35.2604 444.117L34.5908 442L27.6198 444.934C23.8095 446.54 24.1945 449.722 25.1219 453C28.8385 451.43 36.9981 449.65 35.2604 444.117Z" fill="#994DC5" stroke="#762CA2"/>
<path d="M35.2604 451.117L34.5908 449L27.6198 451.934C23.8095 453.54 24.1945 456.722 25.1219 460C28.8385 458.43 36.9981 456.65 35.2604 451.117Z" fill="#994DC5" stroke="#762CA2"/>
<path d="M35.2604 458.117L34.5908 456L27.6198 458.934C23.8095 460.54 24.1945 463.722 25.1219 467C28.8385 465.43 36.9981 463.65 35.2604 458.117Z" fill="#994DC5" stroke="#762CA2"/>
<path d="M35.2604 465.117L34.5908 463L27.6198 465.934C23.8095 467.54 24.1945 470.722 25.1219 474C28.8385 472.43 36.9981 470.65 35.2604 465.117Z" fill="#994DC5" stroke="#762CA2"/>
<path d="M35.2604 472.117L34.5908 470L27.6198 472.934C23.8095 474.54 24.1945 477.722 25.1219 481C28.8385 479.43 36.9981 477.65 35.2604 472.117Z" fill="#994DC5" stroke="#762CA2"/>
<path d="M35.2604 479.117L34.5908 477L27.6198 479.934C23.8095 481.54 24.1945 484.722 25.1219 488C28.8385 486.43 36.9981 484.65 35.2604 479.117Z" fill="#994DC5" stroke="#762CA2"/>
<path d="M35.2604 486.117L34.5908 484L27.6198 486.934C23.8095 488.54 24.1945 491.722 25.1219 495C28.8385 493.43 36.9981 491.65 35.2604 486.117Z" fill="#994DC5" stroke="#762CA2"/>
<path d="M35.2604 493.117L34.5908 491L27.6198 493.934C23.8095 495.54 24.1945 498.722 25.1219 502C28.8385 500.43 36.9981 498.65 35.2604 493.117Z" fill="#994DC5" stroke="#762CA2"/>
<path d="M35.2604 500.117L34.5908 498L27.6198 500.934C23.8095 502.54 24.1945 505.722 25.1219 509C28.8385 507.43 36.9981 505.65 35.2604 500.117Z" fill="#994DC5" stroke="#762CA2"/>
<path d="M35.2604 507.117L34.5908 505L27.6198 507.934C23.8095 509.54 24.1945 512.722 25.1219 516C28.8385 514.43 36.9981 512.65 35.2604 507.117Z" fill="#994DC5" stroke="#762CA2"/>
<path d="M35.2604 514.117L34.5908 512L27.6198 514.934C23.8095 516.54 24.1945 519.722 25.1219 523C28.8385 521.43 36.9981 519.65 35.2604 514.117Z" fill="#994DC5" stroke="#762CA2"/>
<path d="M35.2604 521.117L34.5908 519L27.6198 521.934C23.8095 523.54 24.1945 526.722 25.1219 530C28.8385 528.43 36.9981 526.65 35.2604 521.117Z" fill="#994DC5" stroke="#762CA2"/>
<path d="M35.2604 528.117L34.5908 526L27.6198 528.934C23.8095 530.54 24.1945 533.722 25.1219 537C28.8385 535.43 36.9981 533.65 35.2604 528.117Z" fill="#994DC5" stroke="#762CA2"/>
<path d="M24.0831 556.124C23.8205 560.362 23.2952 564.592 22.4739 568.775C22.4739 568.806 22.4644 568.822 22.4644 568.837C22.013 571.042 23.5619 570.867 25.0667 570.867C25.9692 567.173 26.7237 562.041 26.8001 557.531C26.8001 557.531 27.2775 561.777 26.0552 569.335C26.122 569.817 26.2175 570.393 26.3942 570.867H27.9413C28.5334 565.393 28.9392 558.9 28.9965 552.726C29.0252 553.674 29.2353 560.424 28.3806 570.867H30.9399L31.2599 569.708L31.5034 568.861C31.4986 568.853 31.4986 568.837 31.4986 568.822C31.3028 566.046 31.1835 563.612 31.1023 561.52C30.8779 555.712 31.0402 552.617 31.0402 552.617C31.0832 558.705 31.4795 565.105 32.0716 571.077L34.2347 570.867C32.7449 562.516 33.1985 557.827 33.2319 557.539C33.337 563.62 34.4877 568.884 35.0225 571.046L36.6699 570.867C37.3145 570.859 37.7682 569.84 37.5676 568.814C36.7415 564.623 36.2115 560.369 35.9537 556.124C35.2716 546.128 24.9181 542.924 24.0831 556.124Z" fill="#994DC5" stroke="#762CA2"/>
<path d="M35.2604 535.117L34.5908 533L27.6198 535.933C23.8095 537.54 24.1945 540.722 25.1219 544C28.8385 542.43 36.9981 540.65 35.2604 535.117Z" fill="#994DC5" stroke="#762CA2"/>
<path d="M32.3113 542.335C33.2989 542.662 34.2633 543.084 35.0376 543.49C35.8118 543.895 36.277 544.242 36.277 544.242C36.4874 543.647 36.4714 542.919 36.2777 542.256C34.7904 535.905 26.811 536.989 24.9265 540.65C24.6798 541.13 24.5629 541.475 24.5629 541.475C25.6477 542.198 27.4201 543.713 28.0144 543.796C28.3235 543.855 28.5368 543.777 28.7857 543.685C29.9691 542.818 30.5308 541.745 32.3113 542.335Z" fill="#994DC5" stroke="#762CA2"/>
<path d="M36.9442 549.414C39.376 547.433 39.3353 544.401 36.944 541.406C34.5528 538.412 29.5424 540.251 27.9054 545.473C29.0533 548.408 35.8719 546.897 36.9442 549.414Z" fill="#994DC5" stroke="#762CA2"/>
<path d="M27.0909 539.834C27.1365 539.414 27.182 539.037 27.2275 538.785C27.3185 538.533 27.3185 538.366 27.3185 538.366C26.3629 538.45 25.4528 538.911 24.6792 539.498C20.8306 542.629 22.8495 547.012 26.3629 549.399C27.2275 549.987 28.1375 550.322 28.8201 550.49C29.1386 550.574 29.4572 550.616 29.6392 550.658C29.8212 550.7 29.9577 550.7 29.9577 550.7C32.3274 546.666 26.8619 544.058 27.0909 539.834Z" fill="#994DC5" stroke="#762CA2"/>
<path d="M29.2085 547.238C29.2085 547.238 29.072 547.238 28.8899 547.191C28.7079 547.145 28.4349 547.099 28.0709 547.006C27.3883 546.821 26.4782 546.404 25.6136 545.802C24.7491 545.2 23.9755 544.366 23.4294 543.671C22.8834 542.977 22.5648 542.467 22.5648 542.467C21.9733 543.069 21.5638 543.857 21.3817 544.737C21.1542 545.617 21.1542 546.636 21.4272 547.655C21.6548 548.627 22.1553 549.6 22.8379 550.341C23.5205 551.082 24.3395 551.592 25.1586 551.823C25.1586 551.823 25.2951 551.869 25.5681 551.916C25.8412 551.962 26.2052 552.055 26.6602 552.101C27.5703 552.194 28.7079 552.147 29.7545 551.869C30.8011 551.592 31.5747 551.036 32.0752 550.526C32.3028 550.295 32.4848 550.063 32.5758 549.924C32.6668 549.785 32.7578 549.693 32.7578 549.693C32.2118 548.581 32.1663 548.025 31.7112 547.701C31.2107 547.469 30.4371 547.377 29.2085 547.238Z" fill="#994DC5" stroke="#762CA2"/>
<path d="M29.679 548.146C29.679 548.146 29.609 548.221 29.4387 548.314C29.312 548.42 29.0585 548.632 28.7879 548.742C28.207 549.095 27.2646 549.384 26.1838 549.341C25.1334 549.355 24.0013 549.005 23.1569 548.647C22.7348 548.468 22.4129 548.272 22.1649 548.146C21.9169 548.021 21.7995 547.937 21.7995 547.937C21.5917 548.792 21.632 549.773 22.0035 550.759C22.3315 551.732 22.9907 552.71 23.9166 553.432C24.373 553.815 24.8558 554.109 25.4086 554.329C25.6566 554.454 25.9179 554.535 26.1791 554.615C26.4403 554.696 26.7148 554.733 26.9893 554.769C27.5382 554.842 28.0265 554.799 28.5148 554.757C28.9728 554.656 29.444 554.511 29.8414 554.295C29.8414 554.295 29.9681 554.189 30.2387 554.079C30.4658 553.956 30.776 553.713 31.1431 553.439C31.8336 552.878 32.6035 552.051 33.1689 551.113C33.7343 550.174 34.0991 549.271 34.3108 548.562C34.4166 548.207 34.4656 547.883 34.5185 547.706C34.5279 547.515 34.5675 547.382 34.5675 547.382C33.4013 546.828 32.4737 546.59 31.7716 546.712C31.0259 546.82 30.5492 547.302 29.679 548.146Z" fill="#994DC5" stroke="#762CA2"/>
<path d="M30.4007 546.768C30.4006 548.134 30.5274 549.454 30.1607 550.823C29.8876 551.888 29.3871 552.907 28.8865 553.648C28.6135 554.019 28.386 554.343 28.204 554.528C28.022 554.713 27.8854 554.852 27.8854 554.852C28.7045 555.269 29.6601 555.362 30.6157 555.269C31.5713 555.13 32.5269 554.806 33.3005 554.25C37.226 551.51 35.7819 547.281 33.7792 545.187C32.1702 544.266 30.8345 544.983 30.4007 546.768Z" fill="#994DC5" stroke="#762CA2"/>
<path d="M34.6136 553.608C38.394 552.54 38.921 546.926 35.8185 544.987C32.716 543.048 30.389 545.375 30.3901 546.264C34.2693 547 35.8179 548.865 34.6136 553.608Z" fill="#994DC5" stroke="#762CA2"/>
</svg>
