<svg width="60" height="375" viewBox="0 0 60 375" fill="none" xmlns="http://www.w3.org/2000/svg">
<path d="M36.2168 3.50239L35.4254 1L27.187 4.46693C22.6839 6.36502 23.1389 10.1263 24.235 14C28.6273 12.1445 38.2705 10.0411 36.2168 3.50239Z" fill="#52A5CE" stroke="#2779A3"/>
<path d="M36.2168 11.5024L35.4254 9L27.187 12.4669C22.6839 14.365 23.1389 18.1263 24.235 22C28.6273 20.1445 38.2705 18.0411 36.2168 11.5024Z" fill="#52A5CE" stroke="#2779A3"/>
<path d="M36.2168 19.5024L35.4254 17L27.187 20.4669C22.6839 22.365 23.1389 26.1263 24.235 30C28.6273 28.1445 38.2705 26.0411 36.2168 19.5024Z" fill="#52A5CE" stroke="#2779A3"/>
<path d="M36.2168 27.5024L35.4254 25L27.187 28.4669C22.6839 30.365 23.1389 34.1263 24.235 38C28.6273 36.1445 38.2705 34.0411 36.2168 27.5024Z" fill="#52A5CE" stroke="#2779A3"/>
<path d="M36.0456 45.452C35.597 44.3057 34.6002 43.1594 33.3044 42.4617C32.0086 41.7141 30.5135 41.3652 29.0681 41.3652C22.5428 41.4777 20.1119 48.9353 21.8913 54.2735C22.0408 54.7221 22.1904 55.071 22.29 55.3202C22.3897 55.5693 22.4395 55.7189 22.4395 55.7189C24.0842 55.4697 25.2305 55.1706 25.9282 54.5726C30.0917 51.45 29.427 45.452 36.0456 45.452Z" fill="#52A5CE" stroke="#2779A3"/>
<path d="M41.6214 50.205C41.5446 48.9765 40.9458 47.5804 39.9252 46.5201C38.9198 45.4123 37.6028 44.6232 36.2266 44.1815C30.2519 42.377 24.3367 48.3974 26.484 54.1473C35.9625 57.6796 35.5165 48.2457 41.6214 50.205Z" fill="#52A5CE" stroke="#2779A3"/>
<path d="M22.2864 46.1499C22.3861 45.9506 22.4858 45.7512 22.5356 45.5518C22.6851 45.2528 22.7848 45.0535 22.7848 45.0535C21.6883 44.8541 20.4424 45.0036 19.2961 45.502C18.1498 45.9506 17.0533 46.748 16.2559 47.6949C12.6562 52.1946 15.0844 58.2544 19.3459 61.4505C19.5452 61.6 19.7945 61.7495 19.9938 61.899C20.3925 62.1482 20.6915 62.3476 20.9407 62.4473C21.1899 62.5469 21.3394 62.5968 21.3394 62.5968C22.4857 61.4006 23.1336 60.5036 23.333 59.4569C24.0136 54.9194 21.0068 51.2683 22.2864 46.1499Z" fill="#52A5CE" stroke="#2779A3"/>
<path d="M35.4948 54.1242C35.4948 54.1242 35.6443 54.0744 35.8935 53.9747C36.1427 53.875 36.4916 53.7753 36.9402 53.7255C37.8373 53.5261 39.1331 53.5261 40.4787 53.7753C41.8244 54.0245 43.2199 54.5727 44.2167 55.0711C44.7151 55.3203 45.1138 55.5695 45.4128 55.7689C45.7118 55.9682 45.8613 56.0679 45.8613 56.0679C46.26 55.0213 46.3099 53.8252 46.0607 52.629C45.8115 51.4329 45.2134 50.1869 44.3661 49.1901C43.5189 48.1435 42.4225 47.3461 41.2263 46.8477C40.0302 46.3493 38.7344 46.1998 37.5881 46.3992C37.5881 46.3992 37.3887 46.449 37.0398 46.4988C36.691 46.5985 36.1926 46.6982 35.6443 46.9474C35.0961 47.1467 34.4482 47.4458 33.8501 47.8445C33.2521 48.2432 32.7039 48.6917 32.2055 49.1901C31.2585 50.1869 30.8099 51.3831 30.6604 52.2303C30.6106 52.6789 30.6106 52.9779 30.6604 53.2271C30.7103 53.4763 30.7103 53.576 30.7103 53.576C31.9064 54.4232 32.355 55.0711 32.7039 55.0711C32.8534 55.0711 33.2022 54.9715 33.6009 54.7721C34.2987 54.6226 34.8968 54.3734 35.4948 54.1242Z" fill="#52A5CE" stroke="#2779A3"/>
<path d="M36.2129 35.5024L35.4215 33L27.1831 36.4669C22.68 38.365 23.135 42.1263 24.2311 46C28.6234 44.1445 38.2666 42.0411 36.2129 35.5024Z" fill="#52A5CE" stroke="#2779A3"/>
<path d="M36.2129 43.5024L35.4215 41L27.1831 44.4669C22.68 46.365 23.135 50.1263 24.2311 54C28.6234 52.1445 38.2666 50.0411 36.2129 43.5024Z" fill="#52A5CE" stroke="#2779A3"/>
<path d="M36.2129 51.5024L35.4215 49L27.1831 52.4669C22.68 54.365 23.135 58.1263 24.2311 62C28.6234 60.1445 38.2666 58.0411 36.2129 51.5024Z" fill="#52A5CE" stroke="#2779A3"/>
<path d="M36.2129 59.5024L35.4215 57L27.1831 60.4669C22.68 62.365 23.135 66.1263 24.2311 70C28.6234 68.1445 38.2666 66.0411 36.2129 59.5024Z" fill="#52A5CE" stroke="#2779A3"/>
<path d="M36.2129 67.5024L35.4215 65L27.1831 68.4669C22.68 70.365 23.135 74.1263 24.2311 78C28.6234 76.1445 38.2666 74.0411 36.2129 67.5024Z" fill="#52A5CE" stroke="#2779A3"/>
<path d="M36.2129 75.5024L35.4215 73L27.1831 76.4669C22.68 78.365 23.135 82.1263 24.2311 86C28.6234 84.1445 38.2666 82.0411 36.2129 75.5024Z" fill="#52A5CE" stroke="#2779A3"/>
<path d="M14.7621 54.872C14.6624 54.5231 14.6126 54.3736 14.6126 54.3736C12.7187 55.4701 11.4229 57.8125 11.373 60.3543C11.373 66.5111 17.9912 69.8999 23.5836 68.4282C24.0321 68.3285 24.381 68.2288 24.6302 68.1291C24.8794 68.0295 25.0289 67.9796 25.0289 67.9796C24.6912 62.2384 16.5082 60.9832 14.7621 54.872Z" fill="#52A5CE" stroke="#2779A3"/>
<path d="M25.0309 67.9299C25.0309 67.9299 24.8814 67.9798 24.6322 68.0794C24.383 68.1791 24.0341 68.2788 23.5856 68.3785C22.6885 68.5778 21.3927 68.7273 19.9972 68.6277C19.2995 68.5778 18.6515 68.4283 17.9538 68.2289C17.3059 68.0296 16.7078 67.7804 16.1596 67.581C15.6612 67.3319 15.2126 67.0827 14.9136 66.9331C14.6146 66.7338 14.4152 66.6341 14.4152 66.6341C14.2657 67.1823 14.2159 67.7306 14.166 68.3286C14.166 68.9267 14.2657 69.5248 14.465 70.1727C14.6146 70.7707 14.9136 71.3688 15.2126 71.917C15.5117 72.4653 15.9602 72.9637 16.4088 73.462C16.8573 73.9106 17.3557 74.3093 17.9039 74.6582C18.4522 75.0071 19.0004 75.2562 19.5985 75.4556C20.1965 75.655 20.7448 75.7546 21.3428 75.8045C21.9409 75.8543 22.4892 75.7546 22.9876 75.655C22.9876 75.655 23.1869 75.6051 23.4859 75.5054C23.8348 75.4057 24.2833 75.2562 24.8316 75.1067C25.8782 74.708 27.2238 74.0601 28.3203 73.2627C28.8685 72.864 29.3669 72.4154 29.8155 72.0167C30.264 71.5681 30.6129 71.1694 30.8621 70.7707C31.4103 69.9733 31.6595 69.4749 31.6595 69.4749C30.563 68.2289 29.7158 67.5312 28.719 67.3319C27.7223 67.1325 26.5759 67.3319 25.0309 67.9299Z" fill="#52A5CE" stroke="#2779A3"/>
<path d="M31.6583 69.5247C31.6583 69.5247 31.4091 70.0231 30.8609 70.8205C30.5618 71.1694 30.213 71.6179 29.8142 72.0665C29.3657 72.4652 28.8673 72.9137 28.3191 73.3125C27.2226 74.1099 25.877 74.7578 24.8303 75.1565C24.2821 75.3559 23.8336 75.5054 23.4847 75.5552C23.1358 75.6549 22.9863 75.6549 22.9863 75.6549C23.2355 76.1533 23.5843 76.6018 23.9332 77.0005C24.3319 77.4491 24.7805 77.798 25.2789 78.097C25.7773 78.4459 26.3255 78.6951 26.9236 78.8944C27.5216 79.0938 28.1197 79.1935 28.7676 79.2931C30.0136 79.3928 31.3593 79.1934 32.5056 78.7449C33.6519 78.2465 34.6486 77.5488 35.2965 76.6018C35.2965 76.6018 35.3962 76.4523 35.5956 76.1533C35.7949 75.9041 36.0441 75.4057 36.2933 74.9073C36.8415 73.9105 37.3399 72.4652 37.5393 71.1195C37.7386 69.7739 37.6888 68.4781 37.4895 67.5311C37.3898 67.0826 37.2901 66.6839 37.2403 66.4347C37.1406 66.1855 37.0907 66.0359 37.0907 66.0359C35.446 66.0359 34.2998 66.1356 33.5522 66.634C33.3528 66.7337 33.2033 66.8832 33.004 67.0826C32.8544 67.2321 32.7049 67.4315 32.5554 67.6807C32.4059 67.88 32.2563 68.179 32.1068 68.4781C32.0071 68.8269 31.8576 69.126 31.6583 69.5247Z" fill="#52A5CE" stroke="#2779A3"/>
<path d="M37.1868 66.1355C37.1868 66.1355 37.2366 66.285 37.3363 66.5342C37.3861 66.7834 37.4858 67.1323 37.5855 67.6306C37.735 68.5277 37.8347 69.8236 37.6353 71.2191C37.436 72.5647 36.9376 74.01 36.3894 75.0068C36.1402 75.5052 35.8412 75.9537 35.6917 76.2528C35.4923 76.5518 35.3926 76.7013 35.3926 76.7013C35.6418 76.801 35.9408 76.9007 36.2399 76.9505C36.5389 77.0004 36.8379 77.0004 37.1369 77.0502C37.436 77.0502 37.735 77.0502 38.0839 77.0502C38.3829 77.0004 38.682 76.9506 38.981 76.9007C40.1772 76.6017 41.3733 76.0036 42.37 75.1563C43.3668 74.3091 44.1144 73.2126 44.563 72.1162C45.0115 70.9699 45.1611 69.7737 44.9617 68.6773C44.9617 68.6773 44.9118 68.4779 44.862 68.129C44.8121 67.7802 44.6627 67.3316 44.5131 66.7834C44.1643 65.6869 43.5662 64.3413 42.7688 63.195C41.9713 62.0487 40.9746 61.2014 40.227 60.6532C39.8283 60.404 39.5292 60.2046 39.28 60.0551C39.0308 59.9056 38.9312 59.8558 38.9312 59.8558C37.7351 61.0021 37.0373 61.8493 36.8379 62.6966C36.4392 63.4442 36.6884 64.5406 37.1868 66.1355Z" fill="#52A5CE" stroke="#2779A3"/>
<path d="M44.7142 68.0295C44.764 68.3784 44.8138 68.5777 44.8138 68.5777C45.8106 68.1292 46.7078 67.2819 47.4055 66.2353C48.1033 65.1887 48.5019 63.8929 48.6016 62.5971C48.7013 61.3012 48.5019 59.9556 48.0035 58.8591C45.9306 54.0914 42.9894 52.4266 36.7663 53.6467C35.5058 55.9646 35.4441 56.8656 35.8927 57.663C38.5979 61.8712 43.6459 61.6198 44.7142 68.0295Z" fill="#52A5CE" stroke="#2779A3"/>
<path d="M36.2168 83.5024L35.4254 81L27.187 84.4669C22.6839 86.365 23.1389 90.1263 24.235 94C28.6273 92.1445 38.2705 90.0411 36.2168 83.5024Z" fill="#52A5CE" stroke="#2779A3"/>
<path d="M36.2168 91.5024L35.4254 89L27.187 92.4669C22.6839 94.365 23.1389 98.1263 24.235 102C28.6273 100.145 38.2705 98.0411 36.2168 91.5024Z" fill="#52A5CE" stroke="#2779A3"/>
<path d="M36.2168 99.5024L35.4254 97L27.187 100.467C22.6839 102.365 23.1389 106.126 24.235 110C28.6273 108.145 38.2705 106.041 36.2168 99.5024Z" fill="#52A5CE" stroke="#2779A3"/>
<path d="M36.2168 107.502L35.4254 105L27.187 108.467C22.6839 110.365 23.1389 114.126 24.235 118C28.6273 116.145 38.2705 114.041 36.2168 107.502Z" fill="#52A5CE" stroke="#2779A3"/>
<path d="M36.0456 173.452C35.597 172.306 34.6002 171.159 33.3044 170.462C32.0086 169.714 30.5135 169.365 29.0681 169.365C22.5428 169.478 20.1119 176.935 21.8913 182.274C22.0408 182.722 22.1904 183.071 22.29 183.32C22.3897 183.569 22.4395 183.719 22.4395 183.719C24.0842 183.47 25.2305 183.171 25.9282 182.573C30.0917 179.45 29.427 173.452 36.0456 173.452Z" fill="#52A5CE" stroke="#2779A3"/>
<path d="M41.6214 178.205C41.5446 176.976 40.9458 175.58 39.9252 174.52C38.9198 173.412 37.6028 172.623 36.2266 172.182C30.2519 170.377 24.3367 176.397 26.484 182.147C35.9625 185.68 35.5165 176.246 41.6214 178.205Z" fill="#52A5CE" stroke="#2779A3"/>
<path d="M22.2864 174.15C22.3861 173.951 22.4858 173.751 22.5356 173.552C22.6851 173.253 22.7848 173.053 22.7848 173.053C21.6883 172.854 20.4424 173.004 19.2961 173.502C18.1498 173.951 17.0533 174.748 16.2559 175.695C12.6562 180.195 15.0844 186.254 19.3459 189.45C19.5452 189.6 19.7945 189.75 19.9938 189.899C20.3925 190.148 20.6915 190.348 20.9407 190.447C21.1899 190.547 21.3394 190.597 21.3394 190.597C22.4857 189.401 23.1336 188.504 23.333 187.457C24.0136 182.919 21.0068 179.268 22.2864 174.15Z" fill="#52A5CE" stroke="#2779A3"/>
<path d="M35.4948 182.124C35.4948 182.124 35.6443 182.074 35.8935 181.975C36.1427 181.875 36.4916 181.775 36.9402 181.725C37.8373 181.526 39.1331 181.526 40.4787 181.775C41.8244 182.025 43.2199 182.573 44.2167 183.071C44.7151 183.32 45.1138 183.57 45.4128 183.769C45.7118 183.968 45.8613 184.068 45.8613 184.068C46.26 183.021 46.3099 181.825 46.0607 180.629C45.8115 179.433 45.2134 178.187 44.3661 177.19C43.5189 176.144 42.4225 175.346 41.2263 174.848C40.0302 174.349 38.7344 174.2 37.5881 174.399C37.5881 174.399 37.3887 174.449 37.0398 174.499C36.691 174.599 36.1926 174.698 35.6443 174.947C35.0961 175.147 34.4482 175.446 33.8501 175.844C33.2521 176.243 32.7039 176.692 32.2055 177.19C31.2585 178.187 30.8099 179.383 30.6604 180.23C30.6106 180.679 30.6106 180.978 30.6604 181.227C30.7103 181.476 30.7103 181.576 30.7103 181.576C31.9064 182.423 32.355 183.071 32.7039 183.071C32.8534 183.071 33.2022 182.971 33.6009 182.772C34.2987 182.623 34.8968 182.373 35.4948 182.124Z" fill="#52A5CE" stroke="#2779A3"/>
<path d="M36.2129 163.502L35.4215 161L27.1831 164.467C22.68 166.365 23.135 170.126 24.2311 174C28.6234 172.145 38.2666 170.041 36.2129 163.502Z" fill="#52A5CE" stroke="#2779A3"/>
<path d="M36.2129 171.502L35.4215 169L27.1831 172.467C22.68 174.365 23.135 178.126 24.2311 182C28.6234 180.145 38.2666 178.041 36.2129 171.502Z" fill="#52A5CE" stroke="#2779A3"/>
<path d="M36.2129 179.502L35.4215 177L27.1831 180.467C22.68 182.365 23.135 186.126 24.2311 190C28.6234 188.145 38.2666 186.041 36.2129 179.502Z" fill="#52A5CE" stroke="#2779A3"/>
<path d="M36.2129 187.502L35.4215 185L27.1831 188.467C22.68 190.365 23.135 194.126 24.2311 198C28.6234 196.145 38.2666 194.041 36.2129 187.502Z" fill="#52A5CE" stroke="#2779A3"/>
<path d="M36.2129 195.502L35.4215 193L27.1831 196.467C22.68 198.365 23.135 202.126 24.2311 206C28.6234 204.145 38.2666 202.041 36.2129 195.502Z" fill="#52A5CE" stroke="#2779A3"/>
<path d="M36.2129 203.502L35.4215 201L27.1831 204.467C22.68 206.365 23.135 210.126 24.2311 214C28.6234 212.145 38.2666 210.041 36.2129 203.502Z" fill="#52A5CE" stroke="#2779A3"/>
<path d="M14.7621 182.872C14.6624 182.523 14.6126 182.374 14.6126 182.374C12.7187 183.47 11.4229 185.812 11.373 188.354C11.373 194.511 17.9912 197.9 23.5836 196.428C24.0321 196.329 24.381 196.229 24.6302 196.129C24.8794 196.029 25.0289 195.98 25.0289 195.98C24.6912 190.238 16.5082 188.983 14.7621 182.872Z" fill="#52A5CE" stroke="#2779A3"/>
<path d="M25.0309 195.93C25.0309 195.93 24.8814 195.98 24.6322 196.079C24.383 196.179 24.0341 196.279 23.5856 196.378C22.6885 196.578 21.3927 196.727 19.9972 196.628C19.2995 196.578 18.6515 196.428 17.9538 196.229C17.3059 196.03 16.7078 195.78 16.1596 195.581C15.6612 195.332 15.2126 195.083 14.9136 194.933C14.6146 194.734 14.4152 194.634 14.4152 194.634C14.2657 195.182 14.2159 195.731 14.166 196.329C14.166 196.927 14.2657 197.525 14.465 198.173C14.6146 198.771 14.9136 199.369 15.2126 199.917C15.5117 200.465 15.9602 200.964 16.4088 201.462C16.8573 201.911 17.3557 202.309 17.9039 202.658C18.4522 203.007 19.0004 203.256 19.5985 203.456C20.1965 203.655 20.7448 203.755 21.3428 203.804C21.9409 203.854 22.4892 203.755 22.9876 203.655C22.9876 203.655 23.1869 203.605 23.4859 203.505C23.8348 203.406 24.2833 203.256 24.8316 203.107C25.8782 202.708 27.2238 202.06 28.3203 201.263C28.8685 200.864 29.3669 200.415 29.8155 200.017C30.264 199.568 30.6129 199.169 30.8621 198.771C31.4103 197.973 31.6595 197.475 31.6595 197.475C30.563 196.229 29.7158 195.531 28.719 195.332C27.7223 195.132 26.5759 195.332 25.0309 195.93Z" fill="#52A5CE" stroke="#2779A3"/>
<path d="M31.6583 197.525C31.6583 197.525 31.4091 198.023 30.8609 198.821C30.5618 199.169 30.213 199.618 29.8142 200.066C29.3657 200.465 28.8673 200.914 28.3191 201.312C27.2226 202.11 25.877 202.758 24.8303 203.157C24.2821 203.356 23.8336 203.505 23.4847 203.555C23.1358 203.655 22.9863 203.655 22.9863 203.655C23.2355 204.153 23.5843 204.602 23.9332 205.001C24.3319 205.449 24.7805 205.798 25.2789 206.097C25.7773 206.446 26.3255 206.695 26.9236 206.894C27.5216 207.094 28.1197 207.193 28.7676 207.293C30.0136 207.393 31.3593 207.193 32.5056 206.745C33.6519 206.247 34.6486 205.549 35.2965 204.602C35.2965 204.602 35.3962 204.452 35.5956 204.153C35.7949 203.904 36.0441 203.406 36.2933 202.907C36.8415 201.911 37.3399 200.465 37.5393 199.12C37.7386 197.774 37.6888 196.478 37.4895 195.531C37.3898 195.083 37.2901 194.684 37.2403 194.435C37.1406 194.185 37.0907 194.036 37.0907 194.036C35.446 194.036 34.2998 194.136 33.5522 194.634C33.3528 194.734 33.2033 194.883 33.004 195.083C32.8544 195.232 32.7049 195.431 32.5554 195.681C32.4059 195.88 32.2563 196.179 32.1068 196.478C32.0071 196.827 31.8576 197.126 31.6583 197.525Z" fill="#52A5CE" stroke="#2779A3"/>
<path d="M37.1868 194.135C37.1868 194.135 37.2366 194.285 37.3363 194.534C37.3861 194.783 37.4858 195.132 37.5855 195.631C37.735 196.528 37.8347 197.824 37.6353 199.219C37.436 200.565 36.9376 202.01 36.3894 203.007C36.1402 203.505 35.8412 203.954 35.6917 204.253C35.4923 204.552 35.3926 204.701 35.3926 204.701C35.6418 204.801 35.9408 204.901 36.2399 204.951C36.5389 205 36.8379 205 37.1369 205.05C37.436 205.05 37.735 205.05 38.0839 205.05C38.3829 205 38.682 204.951 38.981 204.901C40.1772 204.602 41.3733 204.004 42.37 203.156C43.3668 202.309 44.1144 201.213 44.563 200.116C45.0115 198.97 45.1611 197.774 44.9617 196.677C44.9617 196.677 44.9118 196.478 44.862 196.129C44.8121 195.78 44.6627 195.332 44.5131 194.783C44.1643 193.687 43.5662 192.341 42.7688 191.195C41.9713 190.049 40.9746 189.201 40.227 188.653C39.8283 188.404 39.5292 188.205 39.28 188.055C39.0308 187.906 38.9312 187.856 38.9312 187.856C37.7351 189.002 37.0373 189.849 36.8379 190.697C36.4392 191.444 36.6884 192.541 37.1868 194.135Z" fill="#52A5CE" stroke="#2779A3"/>
<path d="M44.7142 196.029C44.764 196.378 44.8138 196.578 44.8138 196.578C45.8106 196.129 46.7078 195.282 47.4055 194.235C48.1033 193.189 48.5019 191.893 48.6016 190.597C48.7013 189.301 48.5019 187.956 48.0035 186.859C45.9306 182.091 42.9894 180.427 36.7663 181.647C35.5058 183.965 35.4441 184.866 35.8927 185.663C38.5979 189.871 43.6459 189.62 44.7142 196.029Z" fill="#52A5CE" stroke="#2779A3"/>
<path d="M36.0456 149.452C35.597 148.306 34.6002 147.159 33.3044 146.462C32.0086 145.714 30.5135 145.365 29.0681 145.365C22.5428 145.478 20.1119 152.935 21.8913 158.274C22.0408 158.722 22.1904 159.071 22.29 159.32C22.3897 159.569 22.4395 159.719 22.4395 159.719C24.0842 159.47 25.2305 159.171 25.9282 158.573C30.0917 155.45 29.427 149.452 36.0456 149.452Z" fill="#52A5CE" stroke="#2779A3"/>
<path d="M41.6214 154.205C41.5446 152.976 40.9458 151.58 39.9252 150.52C38.9198 149.412 37.6028 148.623 36.2266 148.182C30.2519 146.377 24.3367 152.397 26.484 158.147C35.9625 161.68 35.5165 152.246 41.6214 154.205Z" fill="#52A5CE" stroke="#2779A3"/>
<path d="M22.2864 150.15C22.3861 149.951 22.4858 149.751 22.5356 149.552C22.6851 149.253 22.7848 149.053 22.7848 149.053C21.6883 148.854 20.4424 149.004 19.2961 149.502C18.1498 149.951 17.0533 150.748 16.2559 151.695C12.6562 156.195 15.0844 162.254 19.3459 165.45C19.5452 165.6 19.7945 165.75 19.9938 165.899C20.3925 166.148 20.6915 166.348 20.9407 166.447C21.1899 166.547 21.3394 166.597 21.3394 166.597C22.4857 165.401 23.1336 164.504 23.333 163.457C24.0136 158.919 21.0068 155.268 22.2864 150.15Z" fill="#52A5CE" stroke="#2779A3"/>
<path d="M35.4948 158.124C35.4948 158.124 35.6443 158.074 35.8935 157.975C36.1427 157.875 36.4916 157.775 36.9402 157.725C37.8373 157.526 39.1331 157.526 40.4787 157.775C41.8244 158.025 43.2199 158.573 44.2167 159.071C44.7151 159.32 45.1138 159.57 45.4128 159.769C45.7118 159.968 45.8613 160.068 45.8613 160.068C46.26 159.021 46.3099 157.825 46.0607 156.629C45.8115 155.433 45.2134 154.187 44.3661 153.19C43.5189 152.144 42.4225 151.346 41.2263 150.848C40.0302 150.349 38.7344 150.2 37.5881 150.399C37.5881 150.399 37.3887 150.449 37.0398 150.499C36.691 150.599 36.1926 150.698 35.6443 150.947C35.0961 151.147 34.4482 151.446 33.8501 151.844C33.2521 152.243 32.7039 152.692 32.2055 153.19C31.2585 154.187 30.8099 155.383 30.6604 156.23C30.6106 156.679 30.6106 156.978 30.6604 157.227C30.7103 157.476 30.7103 157.576 30.7103 157.576C31.9064 158.423 32.355 159.071 32.7039 159.071C32.8534 159.071 33.2022 158.971 33.6009 158.772C34.2987 158.623 34.8968 158.373 35.4948 158.124Z" fill="#52A5CE" stroke="#2779A3"/>
<path d="M36.2129 139.502L35.4215 137L27.1831 140.467C22.68 142.365 23.135 146.126 24.2311 150C28.6234 148.145 38.2666 146.041 36.2129 139.502Z" fill="#52A5CE" stroke="#2779A3"/>
<path d="M36.2129 147.502L35.4215 145L27.1831 148.467C22.68 150.365 23.135 154.126 24.2311 158C28.6234 156.145 38.2666 154.041 36.2129 147.502Z" fill="#52A5CE" stroke="#2779A3"/>
<path d="M36.2129 155.502L35.4215 153L27.1831 156.467C22.68 158.365 23.135 162.126 24.2311 166C28.6234 164.145 38.2666 162.041 36.2129 155.502Z" fill="#52A5CE" stroke="#2779A3"/>
<path d="M36.2129 163.502L35.4215 161L27.1831 164.467C22.68 166.365 23.135 170.126 24.2311 174C28.6234 172.145 38.2666 170.041 36.2129 163.502Z" fill="#52A5CE" stroke="#2779A3"/>
<path d="M36.2129 171.502L35.4215 169L27.1831 172.467C22.68 174.365 23.135 178.126 24.2311 182C28.6234 180.145 38.2666 178.041 36.2129 171.502Z" fill="#52A5CE" stroke="#2779A3"/>
<path d="M36.2129 179.502L35.4215 177L27.1831 180.467C22.68 182.365 23.135 186.126 24.2311 190C28.6234 188.145 38.2666 186.041 36.2129 179.502Z" fill="#52A5CE" stroke="#2779A3"/>
<path d="M14.7621 158.872C14.6624 158.523 14.6126 158.374 14.6126 158.374C12.7187 159.47 11.4229 161.812 11.373 164.354C11.373 170.511 17.9912 173.9 23.5836 172.428C24.0321 172.329 24.381 172.229 24.6302 172.129C24.8794 172.029 25.0289 171.98 25.0289 171.98C24.6912 166.238 16.5082 164.983 14.7621 158.872Z" fill="#52A5CE" stroke="#2779A3"/>
<path d="M25.0309 171.93C25.0309 171.93 24.8814 171.98 24.6322 172.079C24.383 172.179 24.0341 172.279 23.5856 172.378C22.6885 172.578 21.3927 172.727 19.9972 172.628C19.2995 172.578 18.6515 172.428 17.9538 172.229C17.3059 172.03 16.7078 171.78 16.1596 171.581C15.6612 171.332 15.2126 171.083 14.9136 170.933C14.6146 170.734 14.4152 170.634 14.4152 170.634C14.2657 171.182 14.2159 171.731 14.166 172.329C14.166 172.927 14.2657 173.525 14.465 174.173C14.6146 174.771 14.9136 175.369 15.2126 175.917C15.5117 176.465 15.9602 176.964 16.4088 177.462C16.8573 177.911 17.3557 178.309 17.9039 178.658C18.4522 179.007 19.0004 179.256 19.5985 179.456C20.1965 179.655 20.7448 179.755 21.3428 179.804C21.9409 179.854 22.4892 179.755 22.9876 179.655C22.9876 179.655 23.1869 179.605 23.4859 179.505C23.8348 179.406 24.2833 179.256 24.8316 179.107C25.8782 178.708 27.2238 178.06 28.3203 177.263C28.8685 176.864 29.3669 176.415 29.8155 176.017C30.264 175.568 30.6129 175.169 30.8621 174.771C31.4103 173.973 31.6595 173.475 31.6595 173.475C30.563 172.229 29.7158 171.531 28.719 171.332C27.7223 171.132 26.5759 171.332 25.0309 171.93Z" fill="#52A5CE" stroke="#2779A3"/>
<path d="M31.6583 173.525C31.6583 173.525 31.4091 174.023 30.8609 174.821C30.5618 175.169 30.213 175.618 29.8142 176.066C29.3657 176.465 28.8673 176.914 28.3191 177.312C27.2226 178.11 25.877 178.758 24.8303 179.157C24.2821 179.356 23.8336 179.505 23.4847 179.555C23.1358 179.655 22.9863 179.655 22.9863 179.655C23.2355 180.153 23.5843 180.602 23.9332 181.001C24.3319 181.449 24.7805 181.798 25.2789 182.097C25.7773 182.446 26.3255 182.695 26.9236 182.894C27.5216 183.094 28.1197 183.193 28.7676 183.293C30.0136 183.393 31.3593 183.193 32.5056 182.745C33.6519 182.247 34.6486 181.549 35.2965 180.602C35.2965 180.602 35.3962 180.452 35.5956 180.153C35.7949 179.904 36.0441 179.406 36.2933 178.907C36.8415 177.911 37.3399 176.465 37.5393 175.12C37.7386 173.774 37.6888 172.478 37.4895 171.531C37.3898 171.083 37.2901 170.684 37.2403 170.435C37.1406 170.185 37.0907 170.036 37.0907 170.036C35.446 170.036 34.2998 170.136 33.5522 170.634C33.3528 170.734 33.2033 170.883 33.004 171.083C32.8544 171.232 32.7049 171.431 32.5554 171.681C32.4059 171.88 32.2563 172.179 32.1068 172.478C32.0071 172.827 31.8576 173.126 31.6583 173.525Z" fill="#52A5CE" stroke="#2779A3"/>
<path d="M37.1868 170.135C37.1868 170.135 37.2366 170.285 37.3363 170.534C37.3861 170.783 37.4858 171.132 37.5855 171.631C37.735 172.528 37.8347 173.824 37.6353 175.219C37.436 176.565 36.9376 178.01 36.3894 179.007C36.1402 179.505 35.8412 179.954 35.6917 180.253C35.4923 180.552 35.3926 180.701 35.3926 180.701C35.6418 180.801 35.9408 180.901 36.2399 180.951C36.5389 181 36.8379 181 37.1369 181.05C37.436 181.05 37.735 181.05 38.0839 181.05C38.3829 181 38.682 180.951 38.981 180.901C40.1772 180.602 41.3733 180.004 42.37 179.156C43.3668 178.309 44.1144 177.213 44.563 176.116C45.0115 174.97 45.1611 173.774 44.9617 172.677C44.9617 172.677 44.9118 172.478 44.862 172.129C44.8121 171.78 44.6627 171.332 44.5131 170.783C44.1643 169.687 43.5662 168.341 42.7688 167.195C41.9713 166.049 40.9746 165.201 40.227 164.653C39.8283 164.404 39.5292 164.205 39.28 164.055C39.0308 163.906 38.9312 163.856 38.9312 163.856C37.7351 165.002 37.0373 165.849 36.8379 166.697C36.4392 167.444 36.6884 168.541 37.1868 170.135Z" fill="#52A5CE" stroke="#2779A3"/>
<path d="M44.7142 172.029C44.764 172.378 44.8138 172.578 44.8138 172.578C45.8106 172.129 46.7078 171.282 47.4055 170.235C48.1033 169.189 48.5019 167.893 48.6016 166.597C48.7013 165.301 48.5019 163.956 48.0035 162.859C45.9306 158.091 42.9894 156.427 36.7663 157.647C35.5058 159.965 35.4441 160.866 35.8927 161.663C38.5979 165.871 43.6459 165.62 44.7142 172.029Z" fill="#52A5CE" stroke="#2779A3"/>
<path d="M36.0456 125.452C35.597 124.306 34.6002 123.159 33.3044 122.462C32.0086 121.714 30.5135 121.365 29.0681 121.365C22.5428 121.478 20.1119 128.935 21.8913 134.274C22.0408 134.722 22.1904 135.071 22.29 135.32C22.3897 135.569 22.4395 135.719 22.4395 135.719C24.0842 135.47 25.2305 135.171 25.9282 134.573C30.0917 131.45 29.427 125.452 36.0456 125.452Z" fill="#52A5CE" stroke="#2779A3"/>
<path d="M41.6214 130.205C41.5446 128.976 40.9458 127.58 39.9252 126.52C38.9198 125.412 37.6028 124.623 36.2266 124.182C30.2519 122.377 24.3367 128.397 26.484 134.147C35.9625 137.68 35.5165 128.246 41.6214 130.205Z" fill="#52A5CE" stroke="#2779A3"/>
<path d="M22.2864 126.15C22.3861 125.951 22.4858 125.751 22.5356 125.552C22.6851 125.253 22.7848 125.053 22.7848 125.053C21.6883 124.854 20.4424 125.004 19.2961 125.502C18.1498 125.951 17.0533 126.748 16.2559 127.695C12.6562 132.195 15.0844 138.254 19.3459 141.45C19.5452 141.6 19.7945 141.75 19.9938 141.899C20.3925 142.148 20.6915 142.348 20.9407 142.447C21.1899 142.547 21.3394 142.597 21.3394 142.597C22.4857 141.401 23.1336 140.504 23.333 139.457C24.0136 134.919 21.0068 131.268 22.2864 126.15Z" fill="#52A5CE" stroke="#2779A3"/>
<path d="M35.4948 134.124C35.4948 134.124 35.6443 134.074 35.8935 133.975C36.1427 133.875 36.4916 133.775 36.9402 133.725C37.8373 133.526 39.1331 133.526 40.4787 133.775C41.8244 134.025 43.2199 134.573 44.2167 135.071C44.7151 135.32 45.1138 135.57 45.4128 135.769C45.7118 135.968 45.8613 136.068 45.8613 136.068C46.26 135.021 46.3099 133.825 46.0607 132.629C45.8115 131.433 45.2134 130.187 44.3661 129.19C43.5189 128.144 42.4225 127.346 41.2263 126.848C40.0302 126.349 38.7344 126.2 37.5881 126.399C37.5881 126.399 37.3887 126.449 37.0398 126.499C36.691 126.599 36.1926 126.698 35.6443 126.947C35.0961 127.147 34.4482 127.446 33.8501 127.844C33.2521 128.243 32.7039 128.692 32.2055 129.19C31.2585 130.187 30.8099 131.383 30.6604 132.23C30.6106 132.679 30.6106 132.978 30.6604 133.227C30.7103 133.476 30.7103 133.576 30.7103 133.576C31.9064 134.423 32.355 135.071 32.7039 135.071C32.8534 135.071 33.2022 134.971 33.6009 134.772C34.2987 134.623 34.8968 134.373 35.4948 134.124Z" fill="#52A5CE" stroke="#2779A3"/>
<path d="M36.2129 115.502L35.4215 113L27.1831 116.467C22.68 118.365 23.135 122.126 24.2311 126C28.6234 124.145 38.2666 122.041 36.2129 115.502Z" fill="#52A5CE" stroke="#2779A3"/>
<path d="M36.2129 123.502L35.4215 121L27.1831 124.467C22.68 126.365 23.135 130.126 24.2311 134C28.6234 132.145 38.2666 130.041 36.2129 123.502Z" fill="#52A5CE" stroke="#2779A3"/>
<path d="M36.2129 131.502L35.4215 129L27.1831 132.467C22.68 134.365 23.135 138.126 24.2311 142C28.6234 140.145 38.2666 138.041 36.2129 131.502Z" fill="#52A5CE" stroke="#2779A3"/>
<path d="M36.2129 139.502L35.4215 137L27.1831 140.467C22.68 142.365 23.135 146.126 24.2311 150C28.6234 148.145 38.2666 146.041 36.2129 139.502Z" fill="#52A5CE" stroke="#2779A3"/>
<path d="M36.2129 147.502L35.4215 145L27.1831 148.467C22.68 150.365 23.135 154.126 24.2311 158C28.6234 156.145 38.2666 154.041 36.2129 147.502Z" fill="#52A5CE" stroke="#2779A3"/>
<path d="M36.2129 155.502L35.4215 153L27.1831 156.467C22.68 158.365 23.135 162.126 24.2311 166C28.6234 164.145 38.2666 162.041 36.2129 155.502Z" fill="#52A5CE" stroke="#2779A3"/>
<path d="M14.7621 134.872C14.6624 134.523 14.6126 134.374 14.6126 134.374C12.7187 135.47 11.4229 137.812 11.373 140.354C11.373 146.511 17.9912 149.9 23.5836 148.428C24.0321 148.329 24.381 148.229 24.6302 148.129C24.8794 148.029 25.0289 147.98 25.0289 147.98C24.6912 142.238 16.5082 140.983 14.7621 134.872Z" fill="#52A5CE" stroke="#2779A3"/>
<path d="M25.0309 147.93C25.0309 147.93 24.8814 147.98 24.6322 148.079C24.383 148.179 24.0341 148.279 23.5856 148.378C22.6885 148.578 21.3927 148.727 19.9972 148.628C19.2995 148.578 18.6515 148.428 17.9538 148.229C17.3059 148.03 16.7078 147.78 16.1596 147.581C15.6612 147.332 15.2126 147.083 14.9136 146.933C14.6146 146.734 14.4152 146.634 14.4152 146.634C14.2657 147.182 14.2159 147.731 14.166 148.329C14.166 148.927 14.2657 149.525 14.465 150.173C14.6146 150.771 14.9136 151.369 15.2126 151.917C15.5117 152.465 15.9602 152.964 16.4088 153.462C16.8573 153.911 17.3557 154.309 17.9039 154.658C18.4522 155.007 19.0004 155.256 19.5985 155.456C20.1965 155.655 20.7448 155.755 21.3428 155.804C21.9409 155.854 22.4892 155.755 22.9876 155.655C22.9876 155.655 23.1869 155.605 23.4859 155.505C23.8348 155.406 24.2833 155.256 24.8316 155.107C25.8782 154.708 27.2238 154.06 28.3203 153.263C28.8685 152.864 29.3669 152.415 29.8155 152.017C30.264 151.568 30.6129 151.169 30.8621 150.771C31.4103 149.973 31.6595 149.475 31.6595 149.475C30.563 148.229 29.7158 147.531 28.719 147.332C27.7223 147.132 26.5759 147.332 25.0309 147.93Z" fill="#52A5CE" stroke="#2779A3"/>
<path d="M31.6583 149.525C31.6583 149.525 31.4091 150.023 30.8609 150.821C30.5618 151.169 30.213 151.618 29.8142 152.066C29.3657 152.465 28.8673 152.914 28.3191 153.312C27.2226 154.11 25.877 154.758 24.8303 155.157C24.2821 155.356 23.8336 155.505 23.4847 155.555C23.1358 155.655 22.9863 155.655 22.9863 155.655C23.2355 156.153 23.5843 156.602 23.9332 157.001C24.3319 157.449 24.7805 157.798 25.2789 158.097C25.7773 158.446 26.3255 158.695 26.9236 158.894C27.5216 159.094 28.1197 159.193 28.7676 159.293C30.0136 159.393 31.3593 159.193 32.5056 158.745C33.6519 158.247 34.6486 157.549 35.2965 156.602C35.2965 156.602 35.3962 156.452 35.5956 156.153C35.7949 155.904 36.0441 155.406 36.2933 154.907C36.8415 153.911 37.3399 152.465 37.5393 151.12C37.7386 149.774 37.6888 148.478 37.4895 147.531C37.3898 147.083 37.2901 146.684 37.2403 146.435C37.1406 146.185 37.0907 146.036 37.0907 146.036C35.446 146.036 34.2998 146.136 33.5522 146.634C33.3528 146.734 33.2033 146.883 33.004 147.083C32.8544 147.232 32.7049 147.431 32.5554 147.681C32.4059 147.88 32.2563 148.179 32.1068 148.478C32.0071 148.827 31.8576 149.126 31.6583 149.525Z" fill="#52A5CE" stroke="#2779A3"/>
<path d="M37.1868 146.135C37.1868 146.135 37.2366 146.285 37.3363 146.534C37.3861 146.783 37.4858 147.132 37.5855 147.631C37.735 148.528 37.8347 149.824 37.6353 151.219C37.436 152.565 36.9376 154.01 36.3894 155.007C36.1402 155.505 35.8412 155.954 35.6917 156.253C35.4923 156.552 35.3926 156.701 35.3926 156.701C35.6418 156.801 35.9408 156.901 36.2399 156.951C36.5389 157 36.8379 157 37.1369 157.05C37.436 157.05 37.735 157.05 38.0839 157.05C38.3829 157 38.682 156.951 38.981 156.901C40.1772 156.602 41.3733 156.004 42.37 155.156C43.3668 154.309 44.1144 153.213 44.563 152.116C45.0115 150.97 45.1611 149.774 44.9617 148.677C44.9617 148.677 44.9118 148.478 44.862 148.129C44.8121 147.78 44.6627 147.332 44.5131 146.783C44.1643 145.687 43.5662 144.341 42.7688 143.195C41.9713 142.049 40.9746 141.201 40.227 140.653C39.8283 140.404 39.5292 140.205 39.28 140.055C39.0308 139.906 38.9312 139.856 38.9312 139.856C37.7351 141.002 37.0373 141.849 36.8379 142.697C36.4392 143.444 36.6884 144.541 37.1868 146.135Z" fill="#52A5CE" stroke="#2779A3"/>
<path d="M44.7142 148.029C44.764 148.378 44.8138 148.578 44.8138 148.578C45.8106 148.129 46.7078 147.282 47.4055 146.235C48.1033 145.189 48.5019 143.893 48.6016 142.597C48.7013 141.301 48.5019 139.956 48.0035 138.859C45.9306 134.091 42.9894 132.427 36.7663 133.647C35.5058 135.965 35.4441 136.866 35.8927 137.663C38.5979 141.871 43.6459 141.62 44.7142 148.029Z" fill="#52A5CE" stroke="#2779A3"/>
<path d="M36.2168 211.502L35.4254 209L27.187 212.467C22.6839 214.365 23.1389 218.126 24.235 222C28.6273 220.145 38.2705 218.041 36.2168 211.502Z" fill="#52A5CE" stroke="#2779A3"/>
<path d="M36.2168 219.502L35.4254 217L27.187 220.467C22.6839 222.365 23.1389 226.126 24.235 230C28.6273 228.145 38.2705 226.041 36.2168 219.502Z" fill="#52A5CE" stroke="#2779A3"/>
<path d="M36.2168 227.502L35.4254 225L27.187 228.467C22.6839 230.365 23.1389 234.126 24.235 238C28.6273 236.145 38.2705 234.041 36.2168 227.502Z" fill="#52A5CE" stroke="#2779A3"/>
<path d="M36.2168 235.502L35.4254 233L27.187 236.467C22.6839 238.365 23.1389 242.126 24.235 246C28.6273 244.145 38.2705 242.041 36.2168 235.502Z" fill="#52A5CE" stroke="#2779A3"/>
<path d="M36.2168 243.502L35.4254 241L27.187 244.467C22.6839 246.365 23.1389 250.126 24.235 254C28.6273 252.145 38.2705 250.041 36.2168 243.502Z" fill="#52A5CE" stroke="#2779A3"/>
<path d="M36.2168 251.502L35.4254 249L27.187 252.467C22.6839 254.365 23.1389 258.126 24.235 262C28.6273 260.145 38.2705 258.041 36.2168 251.502Z" fill="#52A5CE" stroke="#2779A3"/>
<path d="M36.2168 259.502L35.4254 257L27.187 260.467C22.6839 262.365 23.1389 266.126 24.235 270C28.6273 268.145 38.2705 266.041 36.2168 259.502Z" fill="#52A5CE" stroke="#2779A3"/>
<path d="M36.2168 267.502L35.4254 265L27.187 268.467C22.6839 270.365 23.1389 274.126 24.235 278C28.6273 276.145 38.2705 274.041 36.2168 267.502Z" fill="#52A5CE" stroke="#2779A3"/>
<path d="M36.2168 275.502L35.4254 273L27.187 276.467C22.6839 278.365 23.1389 282.126 24.235 286C28.6273 284.145 38.2705 282.041 36.2168 275.502Z" fill="#52A5CE" stroke="#2779A3"/>
<path d="M36.2168 283.502L35.4254 281L27.187 284.467C22.6839 286.365 23.1389 290.126 24.235 294C28.6273 292.145 38.2705 290.041 36.2168 283.502Z" fill="#52A5CE" stroke="#2779A3"/>
<path d="M36.2168 291.502L35.4254 289L27.187 292.467C22.6839 294.365 23.1389 298.126 24.235 302C28.6273 300.145 38.2705 298.041 36.2168 291.502Z" fill="#52A5CE" stroke="#2779A3"/>
<path d="M36.2168 299.502L35.4254 297L27.187 300.467C22.6839 302.365 23.1389 306.126 24.235 310C28.6273 308.145 38.2705 306.041 36.2168 299.502Z" fill="#52A5CE" stroke="#2779A3"/>
<path d="M27.1722 264.486L24.584 264.05L26.8706 255.409C28.1235 250.686 31.9116 250.613 35.9001 251.159C34.6739 255.767 33.9331 265.609 27.1722 264.486Z" fill="#52A5CE" stroke="#2779A3"/>
<path d="M35.096 263.373L32.5078 262.937L34.7944 254.297C36.0473 249.573 40.813 249.292 42.4044 251.19C43.9958 253.088 41.8569 264.496 35.096 263.373Z" fill="#52A5CE" stroke="#2779A3"/>
<path d="M25.1413 252.186L27.7295 252.622L25.4428 261.263C24.1899 265.986 19.4243 266.267 17.8329 264.369C16.2415 262.471 18.3803 251.063 25.1413 252.186Z" fill="#52A5CE" stroke="#2779A3"/>
<path d="M27.1722 276.486L24.584 276.05L26.8706 267.409C28.1235 262.686 31.9116 262.613 35.9001 263.159C34.6739 267.767 33.9331 277.609 27.1722 276.486Z" fill="#52A5CE" stroke="#2779A3"/>
<path d="M35.096 275.373L32.5078 274.937L34.7944 266.297C36.0473 261.573 40.813 261.292 42.4044 263.19C43.9958 265.088 41.8569 276.496 35.096 275.373Z" fill="#52A5CE" stroke="#2779A3"/>
<path d="M25.1413 264.187L27.7295 264.622L25.4428 273.263C24.1899 277.986 19.4243 278.267 17.8329 276.369C16.2415 274.471 18.3803 263.063 25.1413 264.187Z" fill="#52A5CE" stroke="#2779A3"/>
<path d="M27.1722 288.486L24.584 288.051L26.8706 279.41C28.1235 274.686 31.9116 274.613 35.9001 275.16C34.6739 279.768 33.9331 289.61 27.1722 288.486Z" fill="#52A5CE" stroke="#2779A3"/>
<path d="M35.096 287.373L32.5078 286.938L34.7944 278.297C36.0473 273.573 40.813 273.292 42.4044 275.19C43.9958 277.089 41.8569 288.497 35.096 287.373Z" fill="#52A5CE" stroke="#2779A3"/>
<path d="M25.1413 276.186L27.7295 276.622L25.4428 285.263C24.1899 289.986 19.4243 290.267 17.8329 288.369C16.2415 286.471 18.3803 275.063 25.1413 276.186Z" fill="#52A5CE" stroke="#2779A3"/>
<path d="M27.1722 300.486L24.584 300.051L26.8706 291.41C28.1235 286.686 31.9116 286.613 35.9001 287.16C34.6739 291.768 33.9331 301.61 27.1722 300.486Z" fill="#52A5CE" stroke="#2779A3"/>
<path d="M35.096 299.373L32.5078 298.938L34.7944 290.297C36.0473 285.573 40.813 285.292 42.4044 287.19C43.9958 289.089 41.8569 300.497 35.096 299.373Z" fill="#52A5CE" stroke="#2779A3"/>
<path d="M25.1413 288.186L27.7295 288.622L25.4428 297.263C24.1899 301.986 19.4243 302.267 17.8329 300.369C16.2415 298.471 18.3803 287.063 25.1413 288.186Z" fill="#52A5CE" stroke="#2779A3"/>
<path d="M36.2168 307.502L35.4254 305L27.187 308.467C22.6839 310.365 23.1389 314.126 24.235 318C28.6273 316.145 38.2705 314.041 36.2168 307.502Z" fill="#52A5CE" stroke="#2779A3"/>
<path d="M36.2168 315.502L35.4254 313L27.187 316.467C22.6839 318.365 23.1389 322.126 24.235 326C28.6273 324.145 38.2705 322.041 36.2168 315.502Z" fill="#52A5CE" stroke="#2779A3"/>
<path d="M36.2168 323.502L35.4254 321L27.187 324.467C22.6839 326.365 23.1389 330.126 24.235 334C28.6273 332.145 38.2705 330.041 36.2168 323.502Z" fill="#52A5CE" stroke="#2779A3"/>
<path d="M23.0071 356.328C22.6967 361.337 22.076 366.336 21.1054 371.28C21.1054 371.317 21.0941 371.335 21.0941 371.353C20.5607 373.959 22.3912 373.752 24.1696 373.752C25.2362 369.387 26.1278 363.322 26.2181 357.992C26.2181 357.992 26.7824 363.009 25.3377 371.942C25.4167 372.511 25.5296 373.191 25.7384 373.752H27.5668C28.2665 367.282 28.7462 359.609 28.8139 352.312C28.8478 353.434 29.0961 361.41 28.0859 373.752H31.1107L31.4888 372.383L31.7766 371.381C31.7709 371.372 31.7709 371.353 31.7709 371.335C31.5395 368.054 31.3985 365.178 31.3025 362.706C31.0373 355.841 31.2292 352.184 31.2292 352.184C31.28 359.379 31.7483 366.942 32.4481 374L35.0044 373.752C33.2438 363.882 33.7799 358.341 33.8194 358.001C33.9435 365.187 35.3035 371.409 35.9356 373.963L37.8824 373.752C38.6443 373.743 39.1804 372.539 38.9434 371.326C37.9671 366.373 37.3407 361.346 37.036 356.328C36.2299 344.515 23.9939 340.729 23.0071 356.328Z" fill="#52A5CE" stroke="#2779A3"/>
<path d="M36.2168 331.502L35.4254 329L27.187 332.467C22.6839 334.365 23.1389 338.126 24.235 342C28.6273 340.145 38.2705 338.041 36.2168 331.502Z" fill="#52A5CE" stroke="#2779A3"/>
<path d="M32.7314 340.032C33.8986 340.419 35.0383 340.918 35.9533 341.397C36.8684 341.877 37.4181 342.286 37.4181 342.286C37.6668 341.583 37.6479 340.722 37.4189 339.939C35.6612 332.433 26.231 333.714 24.0038 338.041C23.7123 338.608 23.5742 339.016 23.5742 339.016C24.8563 339.87 26.9508 341.661 27.6532 341.759C28.0185 341.829 28.2706 341.736 28.5648 341.628C29.9633 340.603 30.6271 339.335 32.7314 340.032Z" fill="#52A5CE" stroke="#2779A3"/>
<path d="M38.2047 348.398C41.0786 346.057 41.0304 342.474 38.2045 338.935C35.3785 335.395 29.4571 337.569 27.5224 343.741C28.879 347.21 36.9374 345.423 38.2047 348.398Z" fill="#52A5CE" stroke="#2779A3"/>
<path d="M26.5588 337.076C26.6126 336.58 26.6664 336.134 26.7202 335.837C26.8277 335.539 26.8277 335.341 26.8277 335.341C25.6984 335.44 24.6228 335.985 23.7086 336.68C19.1602 340.38 21.5462 345.56 25.6984 348.381C26.7202 349.075 27.7957 349.471 28.6024 349.67C28.9788 349.769 29.3553 349.819 29.5704 349.868C29.7855 349.918 29.9468 349.918 29.9468 349.918C32.7474 345.151 26.2881 342.068 26.5588 337.076Z" fill="#52A5CE" stroke="#2779A3"/>
<path d="M29.0632 345.826C29.0632 345.826 28.9018 345.826 28.6867 345.771C28.4716 345.717 28.1489 345.662 27.7187 345.552C26.912 345.333 25.8365 344.841 24.8147 344.129C23.7929 343.418 22.8787 342.432 22.2334 341.611C21.588 340.79 21.2116 340.188 21.2116 340.188C20.5125 340.9 20.0285 341.83 19.8134 342.87C19.5445 343.91 19.5445 345.114 19.8671 346.319C20.136 347.468 20.7276 348.618 21.5343 349.494C22.3409 350.369 23.3089 350.971 24.2769 351.245C24.2769 351.245 24.4383 351.3 24.7609 351.355C25.0836 351.409 25.5138 351.519 26.0516 351.574C27.1271 351.683 28.4716 351.628 29.7085 351.3C30.9453 350.971 31.8596 350.315 32.4511 349.712C32.72 349.439 32.9351 349.165 33.0427 349.001C33.1502 348.837 33.2578 348.727 33.2578 348.727C32.6125 347.413 32.5587 346.757 32.0209 346.373C31.4294 346.1 30.5152 345.99 29.0632 345.826Z" fill="#52A5CE" stroke="#2779A3"/>
<path d="M29.6184 346.9C29.6184 346.9 29.5356 346.989 29.3344 347.098C29.1846 347.223 28.885 347.474 28.5652 347.604C27.8787 348.021 26.7649 348.363 25.4876 348.311C24.2462 348.328 22.9083 347.914 21.9104 347.491C21.4115 347.28 21.0311 347.048 20.738 346.9C20.4449 346.752 20.3062 346.652 20.3062 346.652C20.0607 347.663 20.1083 348.822 20.5473 349.988C20.9349 351.137 21.714 352.293 22.8083 353.147C23.3476 353.599 23.9182 353.947 24.5715 354.207C24.8646 354.354 25.1733 354.45 25.4821 354.545C25.7908 354.641 26.1152 354.684 26.4395 354.727C27.0883 354.813 27.6654 354.763 28.2424 354.712C28.7837 354.594 29.3406 354.422 29.8102 354.167C29.8102 354.167 29.96 354.042 30.2798 353.912C30.5481 353.766 30.9148 353.479 31.3486 353.155C32.1647 352.492 33.0746 351.515 33.7428 350.406C34.411 349.297 34.8421 348.229 35.0922 347.391C35.2173 346.972 35.2752 346.589 35.3377 346.38C35.3488 346.154 35.3957 345.997 35.3957 345.997C34.0174 345.342 32.9212 345.061 32.0914 345.204C31.2101 345.332 30.6468 345.902 29.6184 346.9Z" fill="#52A5CE" stroke="#2779A3"/>
<path d="M30.472 345.271C30.4718 346.885 30.6217 348.446 30.1883 350.063C29.8656 351.322 29.2741 352.526 28.6825 353.402C28.3598 353.84 28.0909 354.223 27.8758 354.442C27.6607 354.661 27.4994 354.825 27.4994 354.825C28.4674 355.318 29.5967 355.427 30.726 355.318C31.8554 355.154 32.9847 354.771 33.899 354.114C38.5382 350.876 36.8316 345.877 34.4647 343.403C32.5632 342.314 30.9847 343.162 30.472 345.271Z" fill="#52A5CE" stroke="#2779A3"/>
<path d="M35.4512 353.355C39.9189 352.092 40.5418 345.458 36.8751 343.166C33.2085 340.875 30.4585 343.625 30.4598 344.676C35.0443 345.546 36.8745 347.75 35.4512 353.355Z" fill="#52A5CE" stroke="#2779A3"/>
</svg>
