<svg width="37" height="18" viewBox="0 0 37 18" fill="none" xmlns="http://www.w3.org/2000/svg">
<path d="M22.022 3.62041C25.8746 3.38167 29.7201 2.90417 33.5232 2.15754C33.5515 2.15754 33.5656 2.14885 33.5798 2.14885C35.5844 1.73852 35.4247 3.1466 35.4247 4.51463C32.067 5.33506 27.4015 6.02092 23.3015 6.09037C23.3015 6.09037 27.1611 6.52446 34.0322 5.4132C34.4704 5.47397 34.9935 5.56079 35.4247 5.7214L35.4247 7.12784C30.4482 7.66611 24.5456 8.03509 18.9329 8.08718C19.7953 8.11322 25.9311 8.30422 35.4247 7.5272L35.4247 9.85392L34.3715 10.1448L33.601 10.3661C33.5939 10.3618 33.5798 10.3618 33.5656 10.3618C31.042 10.1838 28.8294 10.0753 26.9279 10.0015C21.6474 9.79748 18.8339 9.94507 18.8339 9.94507C24.3689 9.98414 30.1867 10.3444 35.6156 10.8827L35.4247 12.8491C27.8327 11.4948 23.5701 11.9072 23.3086 11.9375C28.8365 12.033 33.6222 13.0792 35.5873 13.5654L35.4247 15.063C35.4177 15.649 34.4916 16.0614 33.5585 15.8791C29.7484 15.1281 25.8817 14.6462 22.022 14.4118C12.935 13.7918 10.0224 4.37947 22.022 3.62041Z" fill="#EDEDED" stroke="#D2D2D2"/>
<path d="M2.92492 13.7822L1 13.1734L3.66687 6.83614C5.12694 3.37223 8.02026 3.72225 11 4.5654C9.57271 7.94407 7.95471 15.3619 2.92492 13.7822Z" fill="#EDEDED" stroke="#D2D2D2"/>
<path d="M9.48572 11.0988C9.78313 11.9966 10.1668 12.8734 10.5356 13.5772C10.9044 14.2811 11.2196 14.704 11.2196 14.704C10.6783 14.8953 10.0165 14.8807 9.41424 14.7046C3.64004 13.3525 4.62578 6.0985 7.95412 4.38531C8.38986 4.16103 8.70365 4.05481 8.70365 4.05481C9.36094 5.04102 10.7385 6.65222 10.8143 7.1925C10.8678 7.47352 10.7965 7.66746 10.7132 7.89372C9.92458 8.96952 8.94953 9.48015 9.48572 11.0988Z" fill="#EDEDED" stroke="#D2D2D2"/>
<path d="M15.9208 15.3098C14.1198 17.5205 11.3638 17.4835 8.64128 15.3096C5.91871 13.1358 7.59042 8.58088 12.338 7.09267C15.0067 8.1362 13.6326 14.3349 15.9208 15.3098Z" fill="#EDEDED" stroke="#D2D2D2"/>
<path d="M7.21182 6.35145C6.83043 6.39282 6.48718 6.43418 6.25834 6.47555C6.02951 6.55828 5.87695 6.55829 5.87695 6.55829C5.95323 5.68957 6.37274 4.86223 6.90669 4.15898C9.75289 0.660226 13.7377 2.49555 15.9075 5.68958C16.4415 6.47556 16.7466 7.3029 16.8991 7.92341C16.9754 8.21299 17.0136 8.50258 17.0517 8.66805C17.0898 8.83352 17.0898 8.9576 17.0898 8.9576C13.4231 11.1119 11.0518 6.1432 7.21182 6.35145Z" fill="#EDEDED" stroke="#D2D2D2"/>
<path d="M13.9424 8.27709C13.9424 8.27709 13.9424 8.15298 13.9003 7.98751C13.8582 7.82204 13.8161 7.57384 13.7319 7.2429C13.5634 6.62239 13.1845 5.79503 12.6371 5.00905C12.0897 4.22307 11.3318 3.51982 10.7002 3.02341C10.0687 2.527 9.60547 2.23742 9.60547 2.23742C10.1528 1.69964 10.8687 1.32734 11.6687 1.16187C12.4687 0.955036 13.395 0.955027 14.3214 1.20323C15.2056 1.41007 16.0898 1.86513 16.7635 2.48564C17.4372 3.10615 17.9004 3.85076 18.1109 4.59537C18.1109 4.59537 18.153 4.71949 18.1951 4.96769C18.2373 5.2159 18.3215 5.54682 18.3636 5.9605C18.4478 6.78785 18.4057 7.82203 18.153 8.77348C17.9004 9.72494 17.3951 10.4282 16.932 10.8832C16.7214 11.0901 16.5109 11.2555 16.3846 11.3383C16.2583 11.421 16.1741 11.5038 16.1741 11.5038C15.1635 11.0073 14.6582 10.966 14.3635 10.5523C14.1529 10.0973 14.0687 9.39402 13.9424 8.27709Z" fill="#EDEDED" stroke="#D2D2D2"/>
<path d="M14.768 8.70417C14.768 8.70417 14.8363 8.64053 14.9205 8.48572C15.0169 8.37048 15.2096 8.14003 15.3096 7.89403C15.6304 7.36596 15.8936 6.50922 15.8539 5.5267C15.8667 4.57174 15.5485 3.54259 15.2232 2.775C15.0605 2.39121 14.882 2.09861 14.7683 1.87315C14.6546 1.64768 14.5776 1.54095 14.5776 1.54095C15.3553 1.3521 16.2468 1.38871 17.1433 1.72644C18.0276 2.0246 18.9169 2.62388 19.5732 3.46564C19.9215 3.88051 20.1892 4.31943 20.3886 4.82197C20.5023 5.04744 20.5758 5.28493 20.6492 5.52242C20.7226 5.75991 20.7558 6.00941 20.7889 6.25893C20.8552 6.75795 20.8164 7.20187 20.7776 7.64578C20.6863 8.06213 20.5547 8.49051 20.3583 8.85174C20.3583 8.85174 20.262 8.96697 20.162 9.21297C20.0498 9.41939 19.8289 9.70146 19.5801 10.0351C19.07 10.6629 18.3183 11.3628 17.4651 11.8768C16.6119 12.3908 15.7903 12.7225 15.1457 12.9148C14.8234 13.011 14.5291 13.0556 14.368 13.1037C14.1946 13.1122 14.0737 13.1483 14.0737 13.1483C13.5699 12.0881 13.3532 11.2448 13.4639 10.6065C13.5623 9.92862 14.0004 9.49526 14.768 8.70417Z" fill="#EDEDED" stroke="#D2D2D2"/>
<path d="M13.5158 9.3608C14.7572 9.3607 15.9576 9.47596 17.2018 9.14258C18.1703 8.89437 19.0966 8.43934 19.7703 7.98429C20.1072 7.73609 20.4019 7.52925 20.5703 7.36378C20.7388 7.19831 20.8651 7.0742 20.8651 7.0742C21.244 7.81882 21.3282 8.68754 21.244 9.55625C21.1177 10.425 20.823 11.2937 20.3177 11.9969C17.8269 15.5656 13.9818 14.2528 12.0786 12.4321C11.2409 10.9695 11.8933 9.75519 13.5158 9.3608Z" fill="#EDEDED" stroke="#D2D2D2"/>
<path d="M19.734 13.191C18.7624 16.6277 13.6594 17.1068 11.8964 14.2863C10.1334 11.4659 12.2488 9.35045 13.0576 9.35145C13.7267 12.878 15.4222 14.2858 19.734 13.191Z" fill="#EDEDED" stroke="#D2D2D2"/>
</svg>
