<svg width="516" height="36" viewBox="0 0 516 36" fill="none" xmlns="http://www.w3.org/2000/svg">
<path d="M9.07508 13.2178L11 13.8266L8.33313 20.1639C6.87306 23.6278 3.97974 23.2777 1 22.4346C2.42729 19.0559 4.04529 11.6381 9.07508 13.2178Z" fill="#EDEDED" stroke="#D2D2D2"/>
<path d="M15.0751 13.2178L17 13.8266L14.3331 20.1639C12.8731 23.6278 9.97974 23.2777 7 22.4346C8.42729 19.0559 10.0453 11.6381 15.0751 13.2178Z" fill="#EDEDED" stroke="#D2D2D2"/>
<path d="M21.0751 13.2178L23 13.8266L20.3331 20.1639C18.8731 23.6278 15.9797 23.2777 13 22.4346C14.4273 19.0559 16.0453 11.6381 21.0751 13.2178Z" fill="#EDEDED" stroke="#D2D2D2"/>
<path d="M27.0751 13.2178L29 13.8266L26.3331 20.1639C24.8731 23.6278 21.9797 23.2777 19 22.4346C20.4273 19.0559 22.0453 11.6381 27.0751 13.2178Z" fill="#EDEDED" stroke="#D2D2D2"/>
<path d="M33.0751 13.2178L35 13.8266L32.3331 20.1639C30.8731 23.6278 27.9797 23.2777 25 22.4346C26.4273 19.0559 28.0453 11.6381 33.0751 13.2178Z" fill="#EDEDED" stroke="#D2D2D2"/>
<path d="M39.0751 13.2178L41 13.8266L38.3331 20.1639C36.8731 23.6278 33.9797 23.2777 31 22.4346C32.4273 19.0559 34.0453 11.6381 39.0751 13.2178Z" fill="#EDEDED" stroke="#D2D2D2"/>
<path d="M45.0751 13.2178L47 13.8266L44.3331 20.1639C42.8731 23.6278 39.9797 23.2777 37 22.4346C38.4273 19.0559 40.0453 11.6381 45.0751 13.2178Z" fill="#EDEDED" stroke="#D2D2D2"/>
<path d="M44.9249 22.7822L43 22.1734L45.6669 15.8361C47.1269 12.3722 50.0203 12.7223 53 13.5654C51.5727 16.9441 49.9547 24.3619 44.9249 22.7822Z" fill="#EDEDED" stroke="#D2D2D2"/>
<path d="M50.9249 22.7822L49 22.1734L51.6669 15.8361C53.1269 12.3722 56.0203 12.7223 59 13.5654C57.5727 16.9441 55.9547 24.3619 50.9249 22.7822Z" fill="#EDEDED" stroke="#D2D2D2"/>
<path d="M56.9249 22.7822L55 22.1734L57.6669 15.8361C59.1269 12.3722 62.0203 12.7223 65 13.5654C63.5727 16.9441 61.9547 24.3619 56.9249 22.7822Z" fill="#EDEDED" stroke="#D2D2D2"/>
<path d="M62.9249 22.7822L61 22.1734L63.6669 15.8361C65.1269 12.3722 68.0203 12.7223 71 13.5654C69.5727 16.9441 67.9547 24.3619 62.9249 22.7822Z" fill="#EDEDED" stroke="#D2D2D2"/>
<path d="M68.9249 22.7822L67 22.1734L69.6669 15.8361C71.1269 12.3722 74.0203 12.7223 77 13.5654C75.5727 16.9441 73.9547 24.3619 68.9249 22.7822Z" fill="#EDEDED" stroke="#D2D2D2"/>
<path d="M74.9249 22.7822L73 22.1734L75.6669 15.8361C77.1269 12.3722 80.0203 12.7223 83 13.5654C81.5727 16.9441 79.9547 24.3619 74.9249 22.7822Z" fill="#EDEDED" stroke="#D2D2D2"/>
<path d="M80.9249 22.7822L79 22.1734L81.6669 15.8361C83.1269 12.3722 86.0203 12.7223 89 13.5654C87.5727 16.9441 85.9547 24.3619 80.9249 22.7822Z" fill="#EDEDED" stroke="#D2D2D2"/>
<path d="M86.9249 22.7822L85 22.1734L87.6669 15.8361C89.1269 12.3722 92.0203 12.7223 95 13.5654C93.5727 16.9441 91.9547 24.3619 86.9249 22.7822Z" fill="#EDEDED" stroke="#D2D2D2"/>
<path d="M60.1433 15.8517L59.8083 13.8608L53.1616 15.6198C49.5282 16.5836 49.4721 19.4974 49.8923 22.5655C53.4368 21.6223 61.0076 21.0525 60.1433 15.8517Z" fill="#EDEDED" stroke="#D2D2D2"/>
<path d="M59.2866 21.9467L58.9517 19.9557L52.3049 21.7147C48.6715 22.6785 48.4554 26.3444 49.9155 27.5685C51.3755 28.7926 60.151 27.1474 59.2866 21.9467Z" fill="#EDEDED" stroke="#D2D2D2"/>
<path d="M50.6818 14.2899L51.0168 16.2809L57.6635 14.5219C61.2969 13.5581 61.5131 9.89224 60.053 8.6681C58.593 7.44396 49.8175 9.08923 50.6818 14.2899Z" fill="#EDEDED" stroke="#D2D2D2"/>
<path d="M69.5652 15.8537L69.2302 13.8628L62.5834 15.6217C58.95 16.5855 58.894 19.4994 59.3142 22.5675C62.8587 21.6243 70.4295 21.0544 69.5652 15.8537Z" fill="#EDEDED" stroke="#D2D2D2"/>
<path d="M68.7095 21.9486L68.3746 19.9577L61.7278 21.7166C58.0944 22.6804 57.8783 26.3463 59.3383 27.5705C60.7983 28.7946 69.5739 27.1493 68.7095 21.9486Z" fill="#EDEDED" stroke="#D2D2D2"/>
<path d="M60.1047 14.2899L60.4396 16.2809L67.0864 14.5219C70.7198 13.5581 70.9359 9.89224 69.4759 8.6681C68.0158 7.44396 59.2403 9.08923 60.1047 14.2899Z" fill="#EDEDED" stroke="#D2D2D2"/>
<path d="M78.989 15.8527L78.654 13.8618L72.0073 15.6208C68.3739 16.5845 68.3178 19.4984 68.7381 22.5665C72.2825 21.6233 79.8534 21.0534 78.989 15.8527Z" fill="#EDEDED" stroke="#D2D2D2"/>
<path d="M78.1324 21.9465L77.7974 19.9556L71.1506 21.7145C67.5172 22.6783 67.3011 26.3442 68.7612 27.5683C70.2212 28.7925 78.9967 27.1472 78.1324 21.9465Z" fill="#EDEDED" stroke="#D2D2D2"/>
<path d="M69.5275 14.2908L69.8625 16.2817L76.5092 14.5228C80.1426 13.559 80.3588 9.8931 78.8987 8.66896C77.4387 7.44481 68.6632 9.09009 69.5275 14.2908Z" fill="#EDEDED" stroke="#D2D2D2"/>
<path d="M88.4128 15.8527L88.0779 13.8618L81.4311 15.6208C77.7977 16.5845 77.7416 19.4984 78.1619 22.5665C81.7063 21.6233 89.2772 21.0534 88.4128 15.8527Z" fill="#EDEDED" stroke="#D2D2D2"/>
<path d="M87.5562 21.9465L87.2212 19.9556L80.5745 21.7145C76.9411 22.6783 76.7249 26.3442 78.185 27.5683C79.645 28.7925 88.4206 27.1472 87.5562 21.9465Z" fill="#EDEDED" stroke="#D2D2D2"/>
<path d="M78.9514 14.2908L79.2863 16.2817L85.9331 14.5228C89.5665 13.559 89.7826 9.8931 88.3225 8.66896C86.8625 7.44481 78.087 9.09009 78.9514 14.2908Z" fill="#EDEDED" stroke="#D2D2D2"/>
<path d="M99.0751 13.2178L101 13.8266L98.3331 20.1639C96.8731 23.6278 93.9797 23.2777 91 22.4346C92.4273 19.0559 94.0453 11.6381 99.0751 13.2178Z" fill="#EDEDED" stroke="#D2D2D2"/>
<path d="M105.075 13.2178L107 13.8266L104.333 20.1639C102.873 23.6278 99.9797 23.2777 97 22.4346C98.4273 19.0559 100.045 11.6381 105.075 13.2178Z" fill="#EDEDED" stroke="#D2D2D2"/>
<path d="M111.075 13.2178L113 13.8266L110.333 20.1639C108.873 23.6278 105.98 23.2777 103 22.4346C104.427 19.0559 106.045 11.6381 111.075 13.2178Z" fill="#EDEDED" stroke="#D2D2D2"/>
<path d="M117.075 13.2178L119 13.8266L116.333 20.1639C114.873 23.6278 111.98 23.2777 109 22.4346C110.427 19.0559 112.045 11.6381 117.075 13.2178Z" fill="#EDEDED" stroke="#D2D2D2"/>
<path d="M123.075 13.2178L125 13.8266L122.333 20.1639C120.873 23.6278 117.98 23.2777 115 22.4346C116.427 19.0559 118.045 11.6381 123.075 13.2178Z" fill="#EDEDED" stroke="#D2D2D2"/>
<path d="M129.075 13.2178L131 13.8266L128.333 20.1639C126.873 23.6278 123.98 23.2777 121 22.4346C122.427 19.0559 124.045 11.6381 129.075 13.2178Z" fill="#EDEDED" stroke="#D2D2D2"/>
<path d="M135.075 13.2178L137 13.8266L134.333 20.1639C132.873 23.6278 129.98 23.2777 127 22.4346C128.427 19.0559 130.045 11.6381 135.075 13.2178Z" fill="#EDEDED" stroke="#D2D2D2"/>
<path d="M141.075 13.2178L143 13.8266L140.333 20.1639C138.873 23.6278 135.98 23.2777 133 22.4346C134.427 19.0559 136.045 11.6381 141.075 13.2178Z" fill="#EDEDED" stroke="#D2D2D2"/>
<path d="M147.075 13.2178L149 13.8266L146.333 20.1639C144.873 23.6278 141.98 23.2777 139 22.4346C140.427 19.0559 142.045 11.6381 147.075 13.2178Z" fill="#EDEDED" stroke="#D2D2D2"/>
<path d="M153.075 13.2178L155 13.8266L152.333 20.1639C150.873 23.6278 147.98 23.2777 145 22.4346C146.427 19.0559 148.045 11.6381 153.075 13.2178Z" fill="#EDEDED" stroke="#D2D2D2"/>
<path d="M159.075 13.2178L161 13.8266L158.333 20.1639C156.873 23.6278 153.98 23.2777 151 22.4346C152.427 19.0559 154.045 11.6381 159.075 13.2178Z" fill="#EDEDED" stroke="#D2D2D2"/>
<path d="M165.075 13.2178L167 13.8266L164.333 20.1639C162.873 23.6278 159.98 23.2777 157 22.4346C158.427 19.0559 160.045 11.6381 165.075 13.2178Z" fill="#EDEDED" stroke="#D2D2D2"/>
<path d="M171.075 13.2178L173 13.8266L170.333 20.1639C168.873 23.6278 165.98 23.2777 163 22.4346C164.427 19.0559 166.045 11.6381 171.075 13.2178Z" fill="#EDEDED" stroke="#D2D2D2"/>
<path d="M177.075 13.2178L179 13.8266L176.333 20.1639C174.873 23.6278 171.98 23.2777 169 22.4346C170.427 19.0559 172.045 11.6381 177.075 13.2178Z" fill="#EDEDED" stroke="#D2D2D2"/>
<path d="M183.075 13.2178L185 13.8266L182.333 20.1639C180.873 23.6278 177.98 23.2777 175 22.4346C176.427 19.0559 178.045 11.6381 183.075 13.2178Z" fill="#EDEDED" stroke="#D2D2D2"/>
<path d="M189.075 13.2178L191 13.8266L188.333 20.1639C186.873 23.6278 183.98 23.2777 181 22.4346C182.427 19.0559 184.045 11.6381 189.075 13.2178Z" fill="#EDEDED" stroke="#D2D2D2"/>
<path d="M195.075 13.2178L197 13.8266L194.333 20.1639C192.873 23.6278 189.98 23.2777 187 22.4346C188.427 19.0559 190.045 11.6381 195.075 13.2178Z" fill="#EDEDED" stroke="#D2D2D2"/>
<path d="M201.075 13.2178L203 13.8266L200.333 20.1639C198.873 23.6278 195.98 23.2777 193 22.4346C194.427 19.0559 196.045 11.6381 201.075 13.2178Z" fill="#EDEDED" stroke="#D2D2D2"/>
<path d="M207.075 13.2178L209 13.8266L206.333 20.1639C204.873 23.6278 201.98 23.2777 199 22.4346C200.427 19.0559 202.045 11.6381 207.075 13.2178Z" fill="#EDEDED" stroke="#D2D2D2"/>
<path d="M213.075 13.2178L215 13.8266L212.333 20.1639C210.873 23.6278 207.98 23.2777 205 22.4346C206.427 19.0559 208.045 11.6381 213.075 13.2178Z" fill="#EDEDED" stroke="#D2D2D2"/>
<path d="M219.075 13.2178L221 13.8266L218.333 20.1639C216.873 23.6278 213.98 23.2777 211 22.4346C212.427 19.0559 214.045 11.6381 219.075 13.2178Z" fill="#EDEDED" stroke="#D2D2D2"/>
<path d="M225.075 13.2178L227 13.8266L224.333 20.1639C222.873 23.6278 219.98 23.2777 217 22.4346C218.427 19.0559 220.045 11.6381 225.075 13.2178Z" fill="#EDEDED" stroke="#D2D2D2"/>
<path d="M231.075 13.2178L233 13.8266L230.333 20.1639C228.873 23.6278 225.98 23.2777 223 22.4346C224.427 19.0559 226.045 11.6381 231.075 13.2178Z" fill="#EDEDED" stroke="#D2D2D2"/>
<path d="M237.075 13.2178L239 13.8266L236.333 20.1639C234.873 23.6278 231.98 23.2777 229 22.4346C230.427 19.0559 232.045 11.6381 237.075 13.2178Z" fill="#EDEDED" stroke="#D2D2D2"/>
<path d="M243.075 13.2178L245 13.8266L242.333 20.1639C240.873 23.6278 237.98 23.2777 235 22.4346C236.427 19.0559 238.045 11.6381 243.075 13.2178Z" fill="#EDEDED" stroke="#D2D2D2"/>
<path d="M249.075 13.2178L251 13.8266L248.333 20.1639C246.873 23.6278 243.98 23.2777 241 22.4346C242.427 19.0559 244.045 11.6381 249.075 13.2178Z" fill="#EDEDED" stroke="#D2D2D2"/>
<path d="M248.925 22.7822L247 22.1734L249.667 15.8361C251.127 12.3722 254.02 12.7223 257 13.5654C255.573 16.9441 253.955 24.3619 248.925 22.7822Z" fill="#EDEDED" stroke="#D2D2D2"/>
<path d="M254.925 22.7822L253 22.1734L255.667 15.8361C257.127 12.3722 260.02 12.7223 263 13.5654C261.573 16.9441 259.955 24.3619 254.925 22.7822Z" fill="#EDEDED" stroke="#D2D2D2"/>
<path d="M260.925 22.7822L259 22.1734L261.667 15.8361C263.127 12.3722 266.02 12.7223 269 13.5654C267.573 16.9441 265.955 24.3619 260.925 22.7822Z" fill="#EDEDED" stroke="#D2D2D2"/>
<path d="M266.925 22.7822L265 22.1734L267.667 15.8361C269.127 12.3722 272.02 12.7223 275 13.5654C273.573 16.9441 271.955 24.3619 266.925 22.7822Z" fill="#EDEDED" stroke="#D2D2D2"/>
<path d="M272.925 22.7822L271 22.1734L273.667 15.8361C275.127 12.3722 278.02 12.7223 281 13.5654C279.573 16.9441 277.955 24.3619 272.925 22.7822Z" fill="#EDEDED" stroke="#D2D2D2"/>
<path d="M278.925 22.7822L277 22.1734L279.667 15.8361C281.127 12.3722 284.02 12.7223 287 13.5654C285.573 16.9441 283.955 24.3619 278.925 22.7822Z" fill="#EDEDED" stroke="#D2D2D2"/>
<path d="M284.925 22.7822L283 22.1734L285.667 15.8361C287.127 12.3722 290.02 12.7223 293 13.5654C291.573 16.9441 289.955 24.3619 284.925 22.7822Z" fill="#EDEDED" stroke="#D2D2D2"/>
<path d="M290.925 22.7822L289 22.1734L291.667 15.8361C293.127 12.3722 296.02 12.7223 299 13.5654C297.573 16.9441 295.955 24.3619 290.925 22.7822Z" fill="#EDEDED" stroke="#D2D2D2"/>
<path d="M273.566 15.8517L273.231 13.8608L266.584 15.6198C262.951 16.5836 262.895 19.4974 263.315 22.5655C266.86 21.6223 274.43 21.0525 273.566 15.8517Z" fill="#EDEDED" stroke="#D2D2D2"/>
<path d="M272.71 21.9467L272.375 19.9557L265.728 21.7147C262.094 22.6785 261.878 26.3444 263.338 27.5685C264.798 28.7926 273.574 27.1474 272.71 21.9467Z" fill="#EDEDED" stroke="#D2D2D2"/>
<path d="M264.105 14.2899L264.44 16.2809L271.086 14.5219C274.72 13.5581 274.936 9.89224 273.476 8.6681C272.016 7.44396 263.24 9.08923 264.105 14.2899Z" fill="#EDEDED" stroke="#D2D2D2"/>
<path d="M282.989 15.8527L282.654 13.8618L276.007 15.6208C272.374 16.5845 272.318 19.4984 272.738 22.5665C276.282 21.6233 283.853 21.0534 282.989 15.8527Z" fill="#EDEDED" stroke="#D2D2D2"/>
<path d="M282.132 21.9465L281.797 19.9556L275.151 21.7145C271.517 22.6783 271.301 26.3442 272.761 27.5683C274.221 28.7925 282.997 27.1472 282.132 21.9465Z" fill="#EDEDED" stroke="#D2D2D2"/>
<path d="M273.528 14.2908L273.862 16.2817L280.509 14.5228C284.143 13.559 284.359 9.8931 282.899 8.66896C281.439 7.44481 272.663 9.09009 273.528 14.2908Z" fill="#EDEDED" stroke="#D2D2D2"/>
<path d="M303.075 13.2178L305 13.8266L302.333 20.1639C300.873 23.6278 297.98 23.2777 295 22.4346C296.427 19.0559 298.045 11.6381 303.075 13.2178Z" fill="#EDEDED" stroke="#D2D2D2"/>
<path d="M309.075 13.2178L311 13.8266L308.333 20.1639C306.873 23.6278 303.98 23.2777 301 22.4346C302.427 19.0559 304.045 11.6381 309.075 13.2178Z" fill="#EDEDED" stroke="#D2D2D2"/>
<path d="M315.075 13.2178L317 13.8266L314.333 20.1639C312.873 23.6278 309.98 23.2777 307 22.4346C308.427 19.0559 310.045 11.6381 315.075 13.2178Z" fill="#EDEDED" stroke="#D2D2D2"/>
<path d="M321.075 13.2178L323 13.8266L320.333 20.1639C318.873 23.6278 315.98 23.2777 313 22.4346C314.427 19.0559 316.045 11.6381 321.075 13.2178Z" fill="#EDEDED" stroke="#D2D2D2"/>
<path d="M327.075 13.2178L329 13.8266L326.333 20.1639C324.873 23.6278 321.98 23.2777 319 22.4346C320.427 19.0559 322.045 11.6381 327.075 13.2178Z" fill="#EDEDED" stroke="#D2D2D2"/>
<path d="M333.075 13.2178L335 13.8266L332.333 20.1639C330.873 23.6278 327.98 23.2777 325 22.4346C326.427 19.0559 328.045 11.6381 333.075 13.2178Z" fill="#EDEDED" stroke="#D2D2D2"/>
<path d="M339.075 13.2178L341 13.8266L338.333 20.1639C336.873 23.6278 333.98 23.2777 331 22.4346C332.427 19.0559 334.045 11.6381 339.075 13.2178Z" fill="#EDEDED" stroke="#D2D2D2"/>
<path d="M345.075 13.2178L347 13.8266L344.333 20.1639C342.873 23.6278 339.98 23.2777 337 22.4346C338.427 19.0559 340.045 11.6381 345.075 13.2178Z" fill="#EDEDED" stroke="#D2D2D2"/>
<path d="M351.075 13.2178L353 13.8266L350.333 20.1639C348.873 23.6278 345.98 23.2777 343 22.4346C344.427 19.0559 346.045 11.6381 351.075 13.2178Z" fill="#EDEDED" stroke="#D2D2D2"/>
<path d="M357.075 13.2178L359 13.8266L356.333 20.1639C354.873 23.6278 351.98 23.2777 349 22.4346C350.427 19.0559 352.045 11.6381 357.075 13.2178Z" fill="#EDEDED" stroke="#D2D2D2"/>
<path d="M363.075 13.2178L365 13.8266L362.333 20.1639C360.873 23.6278 357.98 23.2777 355 22.4346C356.427 19.0559 358.045 11.6381 363.075 13.2178Z" fill="#EDEDED" stroke="#D2D2D2"/>
<path d="M362.925 22.7822L361 22.1734L363.667 15.8361C365.127 12.3722 368.02 12.7223 371 13.5654C369.573 16.9441 367.955 24.3619 362.925 22.7822Z" fill="#EDEDED" stroke="#D2D2D2"/>
<path d="M368.925 22.7822L367 22.1734L369.667 15.8361C371.127 12.3722 374.02 12.7223 377 13.5654C375.573 16.9441 373.955 24.3619 368.925 22.7822Z" fill="#EDEDED" stroke="#D2D2D2"/>
<path d="M374.925 22.7822L373 22.1734L375.667 15.8361C377.127 12.3722 380.02 12.7223 383 13.5654C381.573 16.9441 379.955 24.3619 374.925 22.7822Z" fill="#EDEDED" stroke="#D2D2D2"/>
<path d="M380.925 22.7822L379 22.1734L381.667 15.8361C383.127 12.3722 386.02 12.7223 389 13.5654C387.573 16.9441 385.955 24.3619 380.925 22.7822Z" fill="#EDEDED" stroke="#D2D2D2"/>
<path d="M386.925 22.7822L385 22.1734L387.667 15.8361C389.127 12.3722 392.02 12.7223 395 13.5654C393.573 16.9441 391.955 24.3619 386.925 22.7822Z" fill="#EDEDED" stroke="#D2D2D2"/>
<path d="M392.925 22.7822L391 22.1734L393.667 15.8361C395.127 12.3722 398.02 12.7223 401 13.5654C399.573 16.9441 397.955 24.3619 392.925 22.7822Z" fill="#EDEDED" stroke="#D2D2D2"/>
<path d="M398.925 22.7822L397 22.1734L399.667 15.8361C401.127 12.3722 404.02 12.7223 407 13.5654C405.573 16.9441 403.955 24.3619 398.925 22.7822Z" fill="#EDEDED" stroke="#D2D2D2"/>
<path d="M404.925 22.7822L403 22.1734L405.667 15.8361C407.127 12.3722 410.02 12.7223 413 13.5654C411.573 16.9441 409.955 24.3619 404.925 22.7822Z" fill="#EDEDED" stroke="#D2D2D2"/>
<path d="M382.855 15.8517L382.52 13.8608L375.873 15.6198C372.24 16.5836 372.184 19.4974 372.604 22.5655C376.149 21.6223 383.72 21.0525 382.855 15.8517Z" fill="#EDEDED" stroke="#D2D2D2"/>
<path d="M381.999 21.9467L381.664 19.9557L375.017 21.7147C371.383 22.6785 371.167 26.3444 372.627 27.5685C374.087 28.7926 382.863 27.1474 381.999 21.9467Z" fill="#EDEDED" stroke="#D2D2D2"/>
<path d="M373.394 14.2899L373.729 16.2809L380.375 14.5219C384.009 13.5581 384.225 9.89224 382.765 8.6681C381.305 7.44396 372.529 9.08923 373.394 14.2899Z" fill="#EDEDED" stroke="#D2D2D2"/>
<path d="M392.278 15.8527L391.943 13.8618L385.296 15.6208C381.663 16.5845 381.607 19.4984 382.027 22.5665C385.572 21.6233 393.142 21.0534 392.278 15.8527Z" fill="#EDEDED" stroke="#D2D2D2"/>
<path d="M391.421 21.9465L391.086 19.9556L384.44 21.7145C380.806 22.6783 380.59 26.3442 382.05 27.5683C383.51 28.7925 392.286 27.1472 391.421 21.9465Z" fill="#EDEDED" stroke="#D2D2D2"/>
<path d="M382.817 14.2908L383.152 16.2817L389.798 14.5228C393.432 13.559 393.648 9.8931 392.188 8.66896C390.728 7.44481 381.952 9.09009 382.817 14.2908Z" fill="#EDEDED" stroke="#D2D2D2"/>
<path d="M401.701 15.8527L401.366 13.8618L394.719 15.6208C391.086 16.5845 391.03 19.4984 391.45 22.5665C394.994 21.6233 402.565 21.0534 401.701 15.8527Z" fill="#EDEDED" stroke="#D2D2D2"/>
<path d="M400.844 21.9465L400.509 19.9556L393.863 21.7145C390.229 22.6783 390.013 26.3442 391.473 27.5683C392.933 28.7925 401.709 27.1472 400.844 21.9465Z" fill="#EDEDED" stroke="#D2D2D2"/>
<path d="M392.239 14.2908L392.574 16.2817L399.221 14.5228C402.855 13.559 403.071 9.8931 401.611 8.66896C400.151 7.44481 391.375 9.09009 392.239 14.2908Z" fill="#EDEDED" stroke="#D2D2D2"/>
<path d="M417.075 13.2178L419 13.8266L416.333 20.1639C414.873 23.6278 411.98 23.2777 409 22.4346C410.427 19.0559 412.045 11.6381 417.075 13.2178Z" fill="#EDEDED" stroke="#D2D2D2"/>
<path d="M423.075 13.2178L425 13.8266L422.333 20.1639C420.873 23.6278 417.98 23.2777 415 22.4346C416.427 19.0559 418.045 11.6381 423.075 13.2178Z" fill="#EDEDED" stroke="#D2D2D2"/>
<path d="M429.075 13.2178L431 13.8266L428.333 20.1639C426.873 23.6278 423.98 23.2777 421 22.4346C422.427 19.0559 424.045 11.6381 429.075 13.2178Z" fill="#EDEDED" stroke="#D2D2D2"/>
<path d="M435.075 13.2178L437 13.8266L434.333 20.1639C432.873 23.6278 429.98 23.2777 427 22.4346C428.427 19.0559 430.045 11.6381 435.075 13.2178Z" fill="#EDEDED" stroke="#D2D2D2"/>
<path d="M441.075 13.2178L443 13.8266L440.333 20.1639C438.873 23.6278 435.98 23.2777 433 22.4346C434.427 19.0559 436.045 11.6381 441.075 13.2178Z" fill="#EDEDED" stroke="#D2D2D2"/>
<path d="M447.075 13.2178L449 13.8266L446.333 20.1639C444.873 23.6278 441.98 23.2777 439 22.4346C440.427 19.0559 442.045 11.6381 447.075 13.2178Z" fill="#EDEDED" stroke="#D2D2D2"/>
<path d="M453.075 13.2178L455 13.8266L452.333 20.1639C450.873 23.6278 447.98 23.2777 445 22.4346C446.427 19.0559 448.045 11.6381 453.075 13.2178Z" fill="#EDEDED" stroke="#D2D2D2"/>
<path d="M459.075 13.2178L461 13.8266L458.333 20.1639C456.873 23.6278 453.98 23.2777 451 22.4346C452.427 19.0559 454.045 11.6381 459.075 13.2178Z" fill="#EDEDED" stroke="#D2D2D2"/>
<path d="M465.075 13.2178L467 13.8266L464.333 20.1639C462.873 23.6278 459.98 23.2777 457 22.4346C458.427 19.0559 460.045 11.6381 465.075 13.2178Z" fill="#EDEDED" stroke="#D2D2D2"/>
<path d="M471.075 13.2178L473 13.8266L470.333 20.1639C468.873 23.6278 465.98 23.2777 463 22.4346C464.427 19.0559 466.045 11.6381 471.075 13.2178Z" fill="#EDEDED" stroke="#D2D2D2"/>
<path d="M477.075 13.2178L479 13.8266L476.333 20.1639C474.873 23.6278 471.98 23.2777 469 22.4346C470.427 19.0559 472.045 11.6381 477.075 13.2178Z" fill="#EDEDED" stroke="#D2D2D2"/>
<path d="M483.075 13.2178L485 13.8266L482.333 20.1639C480.873 23.6278 477.98 23.2777 475 22.4346C476.427 19.0559 478.045 11.6381 483.075 13.2178Z" fill="#EDEDED" stroke="#D2D2D2"/>
<path d="M489.075 13.2178L491 13.8266L488.333 20.1639C486.873 23.6278 483.98 23.2777 481 22.4346C482.427 19.0559 484.045 11.6381 489.075 13.2178Z" fill="#EDEDED" stroke="#D2D2D2"/>
<path d="M495.075 13.2178L497 13.8266L494.333 20.1639C492.873 23.6278 489.98 23.2777 487 22.4346C488.427 19.0559 490.045 11.6381 495.075 13.2178Z" fill="#EDEDED" stroke="#D2D2D2"/>
<path d="M501.075 13.2178L503 13.8266L500.333 20.1639C498.873 23.6278 495.98 23.2777 493 22.4346C494.427 19.0559 496.045 11.6381 501.075 13.2178Z" fill="#EDEDED" stroke="#D2D2D2"/>
<path d="M507.075 13.2178L509 13.8266L506.333 20.1639C504.873 23.6278 501.98 23.2777 499 22.4346C500.427 19.0559 502.045 11.6381 507.075 13.2178Z" fill="#EDEDED" stroke="#D2D2D2"/>
<path d="M513.075 13.2178L515 13.8266L512.333 20.1639C510.873 23.6278 507.98 23.2777 505 22.4346C506.427 19.0559 508.045 11.6381 513.075 13.2178Z" fill="#EDEDED" stroke="#D2D2D2"/>
</svg>
