<svg width="60" height="855" viewBox="0 0 60 855" fill="none" xmlns="http://www.w3.org/2000/svg">
<path d="M36.2168 3.50239L35.4254 1L27.187 4.46693C22.6839 6.36502 23.1389 10.1263 24.235 14C28.6273 12.1445 38.2705 10.0411 36.2168 3.50239Z" fill="#EDEDED" stroke="#D2D2D2"/>
<path d="M36.2168 11.5024L35.4254 9L27.187 12.4669C22.6839 14.365 23.1389 18.1263 24.235 22C28.6273 20.1445 38.2705 18.0411 36.2168 11.5024Z" fill="#EDEDED" stroke="#D2D2D2"/>
<path d="M36.2168 19.5024L35.4254 17L27.187 20.4669C22.6839 22.365 23.1389 26.1263 24.235 30C28.6273 28.1445 38.2705 26.0411 36.2168 19.5024Z" fill="#EDEDED" stroke="#D2D2D2"/>
<path d="M36.2168 27.5024L35.4254 25L27.187 28.4669C22.6839 30.365 23.1389 34.1263 24.235 38C28.6273 36.1445 38.2705 34.0411 36.2168 27.5024Z" fill="#EDEDED" stroke="#D2D2D2"/>
<path d="M36.2168 35.5024L35.4254 33L27.187 36.4669C22.6839 38.365 23.1389 42.1263 24.235 46C28.6273 44.1445 38.2705 42.0411 36.2168 35.5024Z" fill="#EDEDED" stroke="#D2D2D2"/>
<path d="M36.2168 43.5024L35.4254 41L27.187 44.4669C22.6839 46.365 23.1389 50.1263 24.235 54C28.6273 52.1445 38.2705 50.0411 36.2168 43.5024Z" fill="#EDEDED" stroke="#D2D2D2"/>
<path d="M36.2168 51.5024L35.4254 49L27.187 52.4669C22.6839 54.365 23.1389 58.1263 24.235 62C28.6273 60.1445 38.2705 58.0411 36.2168 51.5024Z" fill="#EDEDED" stroke="#D2D2D2"/>
<path d="M36.2168 59.5024L35.4254 57L27.187 60.4669C22.6839 62.365 23.1389 66.1263 24.235 70C28.6273 68.1445 38.2705 66.0411 36.2168 59.5024Z" fill="#EDEDED" stroke="#D2D2D2"/>
<path d="M36.2168 67.5024L35.4254 65L27.187 68.4669C22.6839 70.365 23.1389 74.1263 24.235 78C28.6273 76.1445 38.2705 74.0411 36.2168 67.5024Z" fill="#EDEDED" stroke="#D2D2D2"/>
<path d="M36.2168 75.5024L35.4254 73L27.187 76.4669C22.6839 78.365 23.1389 82.1263 24.235 86C28.6273 84.1445 38.2705 82.0411 36.2168 75.5024Z" fill="#EDEDED" stroke="#D2D2D2"/>
<path d="M36.2168 83.5024L35.4254 81L27.187 84.4669C22.6839 86.365 23.1389 90.1263 24.235 94C28.6273 92.1445 38.2705 90.0411 36.2168 83.5024Z" fill="#EDEDED" stroke="#D2D2D2"/>
<path d="M36.2168 91.5024L35.4254 89L27.187 92.4669C22.6839 94.365 23.1389 98.1263 24.235 102C28.6273 100.145 38.2705 98.0411 36.2168 91.5024Z" fill="#EDEDED" stroke="#D2D2D2"/>
<path d="M36.2168 99.5024L35.4254 97L27.187 100.467C22.6839 102.365 23.1389 106.126 24.235 110C28.6273 108.145 38.2705 106.041 36.2168 99.5024Z" fill="#EDEDED" stroke="#D2D2D2"/>
<path d="M36.2168 107.502L35.4254 105L27.187 108.467C22.6839 110.365 23.1389 114.126 24.235 118C28.6273 116.145 38.2705 114.041 36.2168 107.502Z" fill="#EDEDED" stroke="#D2D2D2"/>
<path d="M36.2168 115.502L35.4254 113L27.187 116.467C22.6839 118.365 23.1389 122.126 24.235 126C28.6273 124.145 38.2705 122.041 36.2168 115.502Z" fill="#EDEDED" stroke="#D2D2D2"/>
<path d="M36.2168 123.502L35.4254 121L27.187 124.467C22.6839 126.365 23.1389 130.126 24.235 134C28.6273 132.145 38.2705 130.041 36.2168 123.502Z" fill="#EDEDED" stroke="#D2D2D2"/>
<path d="M36.2168 131.502L35.4254 129L27.187 132.467C22.6839 134.365 23.1389 138.126 24.235 142C28.6273 140.145 38.2705 138.041 36.2168 131.502Z" fill="#EDEDED" stroke="#D2D2D2"/>
<path d="M36.2168 139.502L35.4254 137L27.187 140.467C22.6839 142.365 23.1389 146.126 24.235 150C28.6273 148.145 38.2705 146.041 36.2168 139.502Z" fill="#EDEDED" stroke="#D2D2D2"/>
<path d="M36.2168 147.502L35.4254 145L27.187 148.467C22.6839 150.365 23.1389 154.126 24.235 158C28.6273 156.145 38.2705 154.041 36.2168 147.502Z" fill="#EDEDED" stroke="#D2D2D2"/>
<path d="M36.2168 155.502L35.4254 153L27.187 156.467C22.6839 158.365 23.1389 162.126 24.235 166C28.6273 164.145 38.2705 162.041 36.2168 155.502Z" fill="#EDEDED" stroke="#D2D2D2"/>
<path d="M36.2168 163.502L35.4254 161L27.187 164.467C22.6839 166.365 23.1389 170.126 24.235 174C28.6273 172.145 38.2705 170.041 36.2168 163.502Z" fill="#EDEDED" stroke="#D2D2D2"/>
<path d="M36.2168 171.502L35.4254 169L27.187 172.467C22.6839 174.365 23.1389 178.126 24.235 182C28.6273 180.145 38.2705 178.041 36.2168 171.502Z" fill="#EDEDED" stroke="#D2D2D2"/>
<path d="M36.2168 179.502L35.4254 177L27.187 180.467C22.6839 182.365 23.1389 186.126 24.235 190C28.6273 188.145 38.2705 186.041 36.2168 179.502Z" fill="#EDEDED" stroke="#D2D2D2"/>
<path d="M36.2168 187.502L35.4254 185L27.187 188.467C22.6839 190.365 23.1389 194.126 24.235 198C28.6273 196.145 38.2705 194.041 36.2168 187.502Z" fill="#EDEDED" stroke="#D2D2D2"/>
<path d="M36.2168 195.502L35.4254 193L27.187 196.467C22.6839 198.365 23.1389 202.126 24.235 206C28.6273 204.145 38.2705 202.041 36.2168 195.502Z" fill="#EDEDED" stroke="#D2D2D2"/>
<path d="M36.2168 203.502L35.4254 201L27.187 204.467C22.6839 206.365 23.1389 210.126 24.235 214C28.6273 212.145 38.2705 210.041 36.2168 203.502Z" fill="#EDEDED" stroke="#D2D2D2"/>
<path d="M36.2168 211.502L35.4254 209L27.187 212.467C22.6839 214.365 23.1389 218.126 24.235 222C28.6273 220.145 38.2705 218.041 36.2168 211.502Z" fill="#EDEDED" stroke="#D2D2D2"/>
<path d="M36.2168 219.502L35.4254 217L27.187 220.467C22.6839 222.365 23.1389 226.126 24.235 230C28.6273 228.145 38.2705 226.041 36.2168 219.502Z" fill="#EDEDED" stroke="#D2D2D2"/>
<path d="M36.2168 227.502L35.4254 225L27.187 228.467C22.6839 230.365 23.1389 234.126 24.235 238C28.6273 236.145 38.2705 234.041 36.2168 227.502Z" fill="#EDEDED" stroke="#D2D2D2"/>
<path d="M36.2168 235.502L35.4254 233L27.187 236.467C22.6839 238.365 23.1389 242.126 24.235 246C28.6273 244.145 38.2705 242.041 36.2168 235.502Z" fill="#EDEDED" stroke="#D2D2D2"/>
<path d="M36.2168 243.502L35.4254 241L27.187 244.467C22.6839 246.365 23.1389 250.126 24.235 254C28.6273 252.145 38.2705 250.041 36.2168 243.502Z" fill="#EDEDED" stroke="#D2D2D2"/>
<path d="M36.2168 251.502L35.4254 249L27.187 252.467C22.6839 254.365 23.1389 258.126 24.235 262C28.6273 260.145 38.2705 258.041 36.2168 251.502Z" fill="#EDEDED" stroke="#D2D2D2"/>
<path d="M36.2168 259.502L35.4254 257L27.187 260.467C22.6839 262.365 23.1389 266.126 24.235 270C28.6273 268.145 38.2705 266.041 36.2168 259.502Z" fill="#EDEDED" stroke="#D2D2D2"/>
<path d="M36.2168 267.502L35.4254 265L27.187 268.467C22.6839 270.365 23.1389 274.126 24.235 278C28.6273 276.145 38.2705 274.041 36.2168 267.502Z" fill="#EDEDED" stroke="#D2D2D2"/>
<path d="M36.2168 275.502L35.4254 273L27.187 276.467C22.6839 278.365 23.1389 282.126 24.235 286C28.6273 284.145 38.2705 282.041 36.2168 275.502Z" fill="#EDEDED" stroke="#D2D2D2"/>
<path d="M36.2168 283.502L35.4254 281L27.187 284.467C22.6839 286.365 23.1389 290.126 24.235 294C28.6273 292.145 38.2705 290.041 36.2168 283.502Z" fill="#EDEDED" stroke="#D2D2D2"/>
<path d="M36.2168 291.502L35.4254 289L27.187 292.467C22.6839 294.365 23.1389 298.126 24.235 302C28.6273 300.145 38.2705 298.041 36.2168 291.502Z" fill="#EDEDED" stroke="#D2D2D2"/>
<path d="M36.2168 299.502L35.4254 297L27.187 300.467C22.6839 302.365 23.1389 306.126 24.235 310C28.6273 308.145 38.2705 306.041 36.2168 299.502Z" fill="#EDEDED" stroke="#D2D2D2"/>
<path d="M36.2168 307.502L35.4254 305L27.187 308.467C22.6839 310.365 23.1389 314.126 24.235 318C28.6273 316.145 38.2705 314.041 36.2168 307.502Z" fill="#EDEDED" stroke="#D2D2D2"/>
<path d="M36.2168 315.502L35.4254 313L27.187 316.467C22.6839 318.365 23.1389 322.126 24.235 326C28.6273 324.145 38.2705 322.041 36.2168 315.502Z" fill="#EDEDED" stroke="#D2D2D2"/>
<path d="M36.2168 323.502L35.4254 321L27.187 324.467C22.6839 326.365 23.1389 330.126 24.235 334C28.6273 332.145 38.2705 330.041 36.2168 323.502Z" fill="#EDEDED" stroke="#D2D2D2"/>
<path d="M36.2168 331.502L35.4254 329L27.187 332.467C22.6839 334.365 23.1389 338.126 24.235 342C28.6273 340.145 38.2705 338.041 36.2168 331.502Z" fill="#EDEDED" stroke="#D2D2D2"/>
<path d="M36.2168 339.502L35.4254 337L27.187 340.467C22.6839 342.365 23.1389 346.126 24.235 350C28.6273 348.145 38.2705 346.041 36.2168 339.502Z" fill="#EDEDED" stroke="#D2D2D2"/>
<path d="M36.2168 347.502L35.4254 345L27.187 348.467C22.6839 350.365 23.1389 354.126 24.235 358C28.6273 356.145 38.2705 354.041 36.2168 347.502Z" fill="#EDEDED" stroke="#D2D2D2"/>
<path d="M36.2168 355.502L35.4254 353L27.187 356.467C22.6839 358.365 23.1389 362.126 24.235 366C28.6273 364.145 38.2705 362.041 36.2168 355.502Z" fill="#EDEDED" stroke="#D2D2D2"/>
<path d="M36.2168 363.502L35.4254 361L27.187 364.467C22.6839 366.365 23.1389 370.126 24.235 374C28.6273 372.145 38.2705 370.041 36.2168 363.502Z" fill="#EDEDED" stroke="#D2D2D2"/>
<path d="M36.2168 371.502L35.4254 369L27.187 372.467C22.6839 374.365 23.1389 378.126 24.235 382C28.6273 380.145 38.2705 378.041 36.2168 371.502Z" fill="#EDEDED" stroke="#D2D2D2"/>
<path d="M36.2168 379.502L35.4254 377L27.187 380.467C22.6839 382.365 23.1389 386.126 24.235 390C28.6273 388.145 38.2705 386.041 36.2168 379.502Z" fill="#EDEDED" stroke="#D2D2D2"/>
<path d="M36.2168 387.502L35.4254 385L27.187 388.467C22.6839 390.365 23.1389 394.126 24.235 398C28.6273 396.145 38.2705 394.041 36.2168 387.502Z" fill="#EDEDED" stroke="#D2D2D2"/>
<path d="M36.2168 395.502L35.4254 393L27.187 396.467C22.6839 398.365 23.1389 402.126 24.235 406C28.6273 404.145 38.2705 402.041 36.2168 395.502Z" fill="#EDEDED" stroke="#D2D2D2"/>
<path d="M36.2168 403.502L35.4254 401L27.187 404.467C22.6839 406.365 23.1389 410.126 24.235 414C28.6273 412.145 38.2705 410.041 36.2168 403.502Z" fill="#EDEDED" stroke="#D2D2D2"/>
<path d="M36.2168 411.502L35.4254 409L27.187 412.467C22.6839 414.365 23.1389 418.126 24.235 422C28.6273 420.145 38.2705 418.041 36.2168 411.502Z" fill="#EDEDED" stroke="#D2D2D2"/>
<path d="M36.2168 419.502L35.4254 417L27.187 420.467C22.6839 422.365 23.1389 426.126 24.235 430C28.6273 428.145 38.2705 426.041 36.2168 419.502Z" fill="#EDEDED" stroke="#D2D2D2"/>
<path d="M36.2168 427.502L35.4254 425L27.187 428.467C22.6839 430.365 23.1389 434.126 24.235 438C28.6273 436.145 38.2705 434.041 36.2168 427.502Z" fill="#EDEDED" stroke="#D2D2D2"/>
<path d="M36.2168 435.502L35.4254 433L27.187 436.467C22.6839 438.365 23.1389 442.126 24.235 446C28.6273 444.145 38.2705 442.041 36.2168 435.502Z" fill="#EDEDED" stroke="#D2D2D2"/>
<path d="M36.2168 443.502L35.4254 441L27.187 444.467C22.6839 446.365 23.1389 450.126 24.235 454C28.6273 452.145 38.2705 450.041 36.2168 443.502Z" fill="#EDEDED" stroke="#D2D2D2"/>
<path d="M36.2168 451.502L35.4254 449L27.187 452.467C22.6839 454.365 23.1389 458.126 24.235 462C28.6273 460.145 38.2705 458.041 36.2168 451.502Z" fill="#EDEDED" stroke="#D2D2D2"/>
<path d="M36.2168 459.502L35.4254 457L27.187 460.467C22.6839 462.365 23.1389 466.126 24.235 470C28.6273 468.145 38.2705 466.041 36.2168 459.502Z" fill="#EDEDED" stroke="#D2D2D2"/>
<path d="M36.2168 467.502L35.4254 465L27.187 468.467C22.6839 470.365 23.1389 474.126 24.235 478C28.6273 476.145 38.2705 474.041 36.2168 467.502Z" fill="#EDEDED" stroke="#D2D2D2"/>
<path d="M36.2168 475.502L35.4254 473L27.187 476.467C22.6839 478.365 23.1389 482.126 24.235 486C28.6273 484.145 38.2705 482.041 36.2168 475.502Z" fill="#EDEDED" stroke="#D2D2D2"/>
<path d="M36.2168 483.502L35.4254 481L27.187 484.467C22.6839 486.365 23.1389 490.126 24.235 494C28.6273 492.145 38.2705 490.041 36.2168 483.502Z" fill="#EDEDED" stroke="#D2D2D2"/>
<path d="M36.2168 491.502L35.4254 489L27.187 492.467C22.6839 494.365 23.1389 498.126 24.235 502C28.6273 500.145 38.2705 498.041 36.2168 491.502Z" fill="#EDEDED" stroke="#D2D2D2"/>
<path d="M36.2168 499.502L35.4254 497L27.187 500.467C22.6839 502.365 23.1389 506.126 24.235 510C28.6273 508.145 38.2705 506.041 36.2168 499.502Z" fill="#EDEDED" stroke="#D2D2D2"/>
<path d="M36.2168 507.502L35.4254 505L27.187 508.467C22.6839 510.365 23.1389 514.126 24.235 518C28.6273 516.145 38.2705 514.041 36.2168 507.502Z" fill="#EDEDED" stroke="#D2D2D2"/>
<path d="M36.2168 515.502L35.4254 513L27.187 516.467C22.6839 518.365 23.1389 522.126 24.235 526C28.6273 524.145 38.2705 522.041 36.2168 515.502Z" fill="#EDEDED" stroke="#D2D2D2"/>
<path d="M36.2168 523.502L35.4254 521L27.187 524.467C22.6839 526.365 23.1389 530.126 24.235 534C28.6273 532.145 38.2705 530.041 36.2168 523.502Z" fill="#EDEDED" stroke="#D2D2D2"/>
<path d="M36.2168 531.502L35.4254 529L27.187 532.467C22.6839 534.365 23.1389 538.126 24.235 542C28.6273 540.145 38.2705 538.041 36.2168 531.502Z" fill="#EDEDED" stroke="#D2D2D2"/>
<path d="M36.2168 539.502L35.4254 537L27.187 540.467C22.6839 542.365 23.1389 546.126 24.235 550C28.6273 548.145 38.2705 546.041 36.2168 539.502Z" fill="#EDEDED" stroke="#D2D2D2"/>
<path d="M36.2168 547.502L35.4254 545L27.187 548.467C22.6839 550.365 23.1389 554.126 24.235 558C28.6273 556.145 38.2705 554.041 36.2168 547.502Z" fill="#EDEDED" stroke="#D2D2D2"/>
<path d="M36.2168 555.502L35.4254 553L27.187 556.467C22.6839 558.365 23.1389 562.126 24.235 566C28.6273 564.145 38.2705 562.041 36.2168 555.502Z" fill="#EDEDED" stroke="#D2D2D2"/>
<path d="M36.2168 563.502L35.4254 561L27.187 564.467C22.6839 566.365 23.1389 570.126 24.235 574C28.6273 572.145 38.2705 570.041 36.2168 563.502Z" fill="#EDEDED" stroke="#D2D2D2"/>
<path d="M36.2168 571.502L35.4254 569L27.187 572.467C22.6839 574.365 23.1389 578.126 24.235 582C28.6273 580.145 38.2705 578.041 36.2168 571.502Z" fill="#EDEDED" stroke="#D2D2D2"/>
<path d="M36.2168 579.502L35.4254 577L27.187 580.467C22.6839 582.365 23.1389 586.126 24.235 590C28.6273 588.145 38.2705 586.041 36.2168 579.502Z" fill="#EDEDED" stroke="#D2D2D2"/>
<path d="M36.2168 587.502L35.4254 585L27.187 588.467C22.6839 590.365 23.1389 594.126 24.235 598C28.6273 596.145 38.2705 594.041 36.2168 587.502Z" fill="#EDEDED" stroke="#D2D2D2"/>
<path d="M36.2168 595.502L35.4254 593L27.187 596.467C22.6839 598.365 23.1389 602.126 24.235 606C28.6273 604.145 38.2705 602.041 36.2168 595.502Z" fill="#EDEDED" stroke="#D2D2D2"/>
<path d="M36.2168 603.502L35.4254 601L27.187 604.467C22.6839 606.365 23.1389 610.126 24.235 614C28.6273 612.145 38.2705 610.041 36.2168 603.502Z" fill="#EDEDED" stroke="#D2D2D2"/>
<path d="M36.2168 611.502L35.4254 609L27.187 612.467C22.6839 614.365 23.1389 618.126 24.235 622C28.6273 620.145 38.2705 618.041 36.2168 611.502Z" fill="#EDEDED" stroke="#D2D2D2"/>
<path d="M36.2168 619.502L35.4254 617L27.187 620.467C22.6839 622.365 23.1389 626.126 24.235 630C28.6273 628.145 38.2705 626.041 36.2168 619.502Z" fill="#EDEDED" stroke="#D2D2D2"/>
<path d="M36.2168 627.502L35.4254 625L27.187 628.467C22.6839 630.365 23.1389 634.126 24.235 638C28.6273 636.145 38.2705 634.041 36.2168 627.502Z" fill="#EDEDED" stroke="#D2D2D2"/>
<path d="M36.2168 635.502L35.4254 633L27.187 636.467C22.6839 638.365 23.1389 642.126 24.235 646C28.6273 644.145 38.2705 642.041 36.2168 635.502Z" fill="#EDEDED" stroke="#D2D2D2"/>
<path d="M36.2168 643.502L35.4254 641L27.187 644.467C22.6839 646.365 23.1389 650.126 24.235 654C28.6273 652.145 38.2705 650.041 36.2168 643.502Z" fill="#EDEDED" stroke="#D2D2D2"/>
<path d="M36.2168 651.502L35.4254 649L27.187 652.467C22.6839 654.365 23.1389 658.126 24.235 662C28.6273 660.145 38.2705 658.041 36.2168 651.502Z" fill="#EDEDED" stroke="#D2D2D2"/>
<path d="M36.2168 659.502L35.4254 657L27.187 660.467C22.6839 662.365 23.1389 666.126 24.235 670C28.6273 668.145 38.2705 666.041 36.2168 659.502Z" fill="#EDEDED" stroke="#D2D2D2"/>
<path d="M36.2168 667.502L35.4254 665L27.187 668.467C22.6839 670.365 23.1389 674.126 24.235 678C28.6273 676.145 38.2705 674.041 36.2168 667.502Z" fill="#EDEDED" stroke="#D2D2D2"/>
<path d="M36.2168 675.502L35.4254 673L27.187 676.467C22.6839 678.365 23.1389 682.126 24.235 686C28.6273 684.145 38.2705 682.041 36.2168 675.502Z" fill="#EDEDED" stroke="#D2D2D2"/>
<path d="M36.2168 683.502L35.4254 681L27.187 684.467C22.6839 686.365 23.1389 690.126 24.235 694C28.6273 692.145 38.2705 690.041 36.2168 683.502Z" fill="#EDEDED" stroke="#D2D2D2"/>
<path d="M36.2168 691.502L35.4254 689L27.187 692.467C22.6839 694.365 23.1389 698.126 24.235 702C28.6273 700.145 38.2705 698.041 36.2168 691.502Z" fill="#EDEDED" stroke="#D2D2D2"/>
<path d="M36.2168 699.502L35.4254 697L27.187 700.467C22.6839 702.365 23.1389 706.126 24.235 710C28.6273 708.145 38.2705 706.041 36.2168 699.502Z" fill="#EDEDED" stroke="#D2D2D2"/>
<path d="M36.2168 707.502L35.4254 705L27.187 708.467C22.6839 710.365 23.1389 714.126 24.235 718C28.6273 716.145 38.2705 714.041 36.2168 707.502Z" fill="#EDEDED" stroke="#D2D2D2"/>
<path d="M36.2168 715.502L35.4254 713L27.187 716.467C22.6839 718.365 23.1389 722.126 24.235 726C28.6273 724.145 38.2705 722.041 36.2168 715.502Z" fill="#EDEDED" stroke="#D2D2D2"/>
<path d="M36.2168 723.502L35.4254 721L27.187 724.467C22.6839 726.365 23.1389 730.126 24.235 734C28.6273 732.145 38.2705 730.041 36.2168 723.502Z" fill="#EDEDED" stroke="#D2D2D2"/>
<path d="M36.2168 731.502L35.4254 729L27.187 732.467C22.6839 734.365 23.1389 738.126 24.235 742C28.6273 740.145 38.2705 738.041 36.2168 731.502Z" fill="#EDEDED" stroke="#D2D2D2"/>
<path d="M36.2168 739.502L35.4254 737L27.187 740.467C22.6839 742.365 23.1389 746.126 24.235 750C28.6273 748.145 38.2705 746.041 36.2168 739.502Z" fill="#EDEDED" stroke="#D2D2D2"/>
<path d="M36.2168 747.502L35.4254 745L27.187 748.467C22.6839 750.365 23.1389 754.126 24.235 758C28.6273 756.145 38.2705 754.041 36.2168 747.502Z" fill="#EDEDED" stroke="#D2D2D2"/>
<path d="M36.2168 755.502L35.4254 753L27.187 756.467C22.6839 758.365 23.1389 762.126 24.235 766C28.6273 764.145 38.2705 762.041 36.2168 755.502Z" fill="#EDEDED" stroke="#D2D2D2"/>
<path d="M36.2168 763.502L35.4254 761L27.187 764.467C22.6839 766.365 23.1389 770.126 24.235 774C28.6273 772.145 38.2705 770.041 36.2168 763.502Z" fill="#EDEDED" stroke="#D2D2D2"/>
<path d="M36.2168 771.502L35.4254 769L27.187 772.467C22.6839 774.365 23.1389 778.126 24.235 782C28.6273 780.145 38.2705 778.041 36.2168 771.502Z" fill="#EDEDED" stroke="#D2D2D2"/>
<path d="M36.2168 779.502L35.4254 777L27.187 780.467C22.6839 782.365 23.1389 786.126 24.235 790C28.6273 788.145 38.2705 786.041 36.2168 779.502Z" fill="#EDEDED" stroke="#D2D2D2"/>
<path d="M36.2168 787.502L35.4254 785L27.187 788.467C22.6839 790.365 23.1389 794.126 24.235 798C28.6273 796.145 38.2705 794.041 36.2168 787.502Z" fill="#EDEDED" stroke="#D2D2D2"/>
<path d="M36.2168 795.502L35.4254 793L27.187 796.467C22.6839 798.365 23.1389 802.126 24.235 806C28.6273 804.145 38.2705 802.041 36.2168 795.502Z" fill="#EDEDED" stroke="#D2D2D2"/>
<path d="M36.2168 803.502L35.4254 801L27.187 804.467C22.6839 806.365 23.1389 810.126 24.235 814C28.6273 812.145 38.2705 810.041 36.2168 803.502Z" fill="#EDEDED" stroke="#D2D2D2"/>
<path d="M23.0071 836.328C22.6967 841.337 22.076 846.336 21.1054 851.28C21.1054 851.317 21.0941 851.335 21.0941 851.353C20.5607 853.959 22.3912 853.752 24.1696 853.752C25.2362 849.387 26.1278 843.322 26.2181 837.992C26.2181 837.992 26.7824 843.009 25.3377 851.942C25.4167 852.511 25.5296 853.191 25.7384 853.752H27.5668C28.2665 847.282 28.7462 839.609 28.8139 832.313C28.8478 833.434 29.0961 841.41 28.0859 853.752H31.1107L31.4888 852.383L31.7766 851.381C31.7709 851.372 31.7709 851.353 31.7709 851.335C31.5395 848.054 31.3985 845.178 31.3025 842.706C31.0373 835.841 31.2292 832.184 31.2292 832.184C31.28 839.379 31.7483 846.942 32.4481 854L35.0044 853.752C33.2438 843.882 33.7799 838.341 33.8194 838.001C33.9435 845.187 35.3035 851.409 35.9356 853.963L37.8824 853.752C38.6443 853.743 39.1804 852.539 38.9434 851.326C37.9671 846.373 37.3407 841.346 37.036 836.328C36.2299 824.515 23.9939 820.729 23.0071 836.328Z" fill="#EDEDED" stroke="#D2D2D2"/>
<path d="M36.2168 811.502L35.4254 809L27.187 812.467C22.6839 814.365 23.1389 818.126 24.235 822C28.6273 820.145 38.2705 818.041 36.2168 811.502Z" fill="#EDEDED" stroke="#D2D2D2"/>
<path d="M32.7314 820.032C33.8986 820.419 35.0383 820.918 35.9533 821.397C36.8684 821.877 37.4181 822.286 37.4181 822.286C37.6668 821.583 37.6479 820.722 37.4189 819.939C35.6612 812.433 26.231 813.714 24.0038 818.041C23.7123 818.608 23.5742 819.016 23.5742 819.016C24.8563 819.87 26.9508 821.661 27.6532 821.759C28.0185 821.829 28.2706 821.736 28.5648 821.628C29.9633 820.603 30.6271 819.335 32.7314 820.032Z" fill="#EDEDED" stroke="#D2D2D2"/>
<path d="M38.2047 828.398C41.0786 826.057 41.0304 822.474 38.2045 818.935C35.3785 815.396 29.4571 817.569 27.5224 823.741C28.879 827.21 36.9374 825.424 38.2047 828.398Z" fill="#EDEDED" stroke="#D2D2D2"/>
<path d="M26.5588 817.076C26.6126 816.581 26.6664 816.134 26.7202 815.837C26.8277 815.539 26.8277 815.341 26.8277 815.341C25.6984 815.44 24.6228 815.986 23.7086 816.68C19.1602 820.38 21.5462 825.56 25.6984 828.381C26.7202 829.075 27.7957 829.472 28.6024 829.67C28.9788 829.769 29.3553 829.819 29.5704 829.868C29.7855 829.918 29.9468 829.918 29.9468 829.918C32.7474 825.151 26.2881 822.068 26.5588 817.076Z" fill="#EDEDED" stroke="#D2D2D2"/>
<path d="M29.0622 825.826C29.0622 825.826 28.9008 825.826 28.6857 825.771C28.4706 825.717 28.148 825.662 27.7177 825.552C26.9111 825.333 25.8355 824.841 24.8137 824.129C23.7919 823.418 22.8777 822.432 22.2324 821.611C21.5871 820.79 21.2106 820.188 21.2106 820.188C20.5115 820.9 20.0275 821.83 19.8124 822.87C19.5435 823.91 19.5435 825.115 19.8662 826.319C20.135 827.468 20.7266 828.618 21.5333 829.494C22.34 830.369 23.3079 830.972 24.2759 831.245C24.2759 831.245 24.4373 831.3 24.76 831.355C25.0826 831.409 25.5128 831.519 26.0506 831.574C27.1262 831.683 28.4706 831.628 29.7075 831.3C30.9444 830.972 31.8586 830.315 32.4502 829.713C32.7191 829.439 32.9342 829.165 33.0417 829.001C33.1493 828.837 33.2568 828.727 33.2568 828.727C32.6115 827.414 32.5577 826.757 32.02 826.374C31.4284 826.1 30.5142 825.99 29.0622 825.826Z" fill="#EDEDED" stroke="#D2D2D2"/>
<path d="M29.6174 826.9C29.6174 826.9 29.5346 826.989 29.3334 827.098C29.1836 827.223 28.884 827.474 28.5642 827.604C27.8777 828.021 26.7639 828.363 25.4867 828.311C24.2452 828.328 22.9073 827.914 21.9095 827.492C21.4105 827.28 21.0302 827.048 20.737 826.9C20.4439 826.752 20.3052 826.652 20.3052 826.652C20.0597 827.663 20.1073 828.822 20.5463 829.988C20.9339 831.137 21.713 832.293 22.8073 833.147C23.3466 833.599 23.9172 833.947 24.5705 834.207C24.8636 834.354 25.1724 834.45 25.4811 834.545C25.7898 834.641 26.1142 834.684 26.4386 834.727C27.0873 834.813 27.6644 834.763 28.2415 834.712C28.7827 834.594 29.3396 834.423 29.8092 834.167C29.8092 834.167 29.959 834.042 30.2788 833.912C30.5472 833.766 30.9139 833.479 31.3476 833.155C32.1637 832.492 33.0736 831.515 33.7418 830.406C34.41 829.297 34.8412 828.229 35.0912 827.391C35.2163 826.972 35.2742 826.589 35.3368 826.38C35.3478 826.154 35.3947 825.997 35.3947 825.997C34.0164 825.342 32.9202 825.061 32.0904 825.204C31.2092 825.332 30.6458 825.902 29.6174 826.9Z" fill="#EDEDED" stroke="#D2D2D2"/>
<path d="M30.472 825.271C30.4718 826.885 30.6217 828.446 30.1883 830.063C29.8656 831.322 29.2741 832.526 28.6825 833.402C28.3598 833.84 28.0909 834.223 27.8758 834.442C27.6607 834.661 27.4994 834.825 27.4994 834.825C28.4674 835.318 29.5967 835.428 30.726 835.318C31.8554 835.154 32.9847 834.771 33.899 834.114C38.5382 830.876 36.8316 825.877 34.4647 823.403C32.5632 822.314 30.9847 823.162 30.472 825.271Z" fill="#EDEDED" stroke="#D2D2D2"/>
<path d="M35.4512 833.355C39.9189 832.092 40.5418 825.458 36.8751 823.167C33.2085 820.875 30.4585 823.625 30.4598 824.676C35.0443 825.546 36.8745 827.75 35.4512 833.355Z" fill="#EDEDED" stroke="#D2D2D2"/>
</svg>
