<svg width="468" height="36" viewBox="0 0 468 36" fill="none" xmlns="http://www.w3.org/2000/svg">
<path d="M9.07508 13.2178L11 13.8266L8.33313 20.1639C6.87306 23.6278 3.97974 23.2777 1 22.4346C2.42729 19.0559 4.04529 11.6381 9.07508 13.2178Z" fill="#EDEDED" stroke="#D2D2D2"/>
<path d="M15.0751 13.2178L17 13.8266L14.3331 20.1639C12.8731 23.6278 9.97974 23.2777 7 22.4346C8.42729 19.0559 10.0453 11.6381 15.0751 13.2178Z" fill="#EDEDED" stroke="#D2D2D2"/>
<path d="M21.0751 13.2178L23 13.8266L20.3331 20.1639C18.8731 23.6278 15.9797 23.2777 13 22.4346C14.4273 19.0559 16.0453 11.6381 21.0751 13.2178Z" fill="#EDEDED" stroke="#D2D2D2"/>
<path d="M27.0751 13.2178L29 13.8266L26.3331 20.1639C24.8731 23.6278 21.9797 23.2777 19 22.4346C20.4273 19.0559 22.0453 11.6381 27.0751 13.2178Z" fill="#EDEDED" stroke="#D2D2D2"/>
<path d="M33.0751 13.2178L35 13.8266L32.3331 20.1639C30.8731 23.6278 27.9797 23.2777 25 22.4346C26.4273 19.0559 28.0453 11.6381 33.0751 13.2178Z" fill="#EDEDED" stroke="#D2D2D2"/>
<path d="M39.0751 13.2178L41 13.8266L38.3331 20.1639C36.8731 23.6278 33.9797 23.2777 31 22.4346C32.4273 19.0559 34.0453 11.6381 39.0751 13.2178Z" fill="#EDEDED" stroke="#D2D2D2"/>
<path d="M45.0751 13.2178L47 13.8266L44.3331 20.1639C42.8731 23.6278 39.9797 23.2777 37 22.4346C38.4273 19.0559 40.0453 11.6381 45.0751 13.2178Z" fill="#EDEDED" stroke="#D2D2D2"/>
<path d="M44.9249 22.7822L43 22.1734L45.6669 15.8361C47.1269 12.3722 50.0203 12.7223 53 13.5654C51.5727 16.9441 49.9547 24.3619 44.9249 22.7822Z" fill="#EDEDED" stroke="#D2D2D2"/>
<path d="M50.9249 22.7822L49 22.1734L51.6669 15.8361C53.1269 12.3722 56.0203 12.7223 59 13.5654C57.5727 16.9441 55.9547 24.3619 50.9249 22.7822Z" fill="#EDEDED" stroke="#D2D2D2"/>
<path d="M56.9249 22.7822L55 22.1734L57.6669 15.8361C59.1269 12.3722 62.0203 12.7223 65 13.5654C63.5727 16.9441 61.9547 24.3619 56.9249 22.7822Z" fill="#EDEDED" stroke="#D2D2D2"/>
<path d="M62.9249 22.7822L61 22.1734L63.6669 15.8361C65.1269 12.3722 68.0203 12.7223 71 13.5654C69.5727 16.9441 67.9547 24.3619 62.9249 22.7822Z" fill="#EDEDED" stroke="#D2D2D2"/>
<path d="M68.9249 22.7822L67 22.1734L69.6669 15.8361C71.1269 12.3722 74.0203 12.7223 77 13.5654C75.5727 16.9441 73.9547 24.3619 68.9249 22.7822Z" fill="#EDEDED" stroke="#D2D2D2"/>
<path d="M74.9249 22.7822L73 22.1734L75.6669 15.8361C77.1269 12.3722 80.0203 12.7223 83 13.5654C81.5727 16.9441 79.9547 24.3619 74.9249 22.7822Z" fill="#EDEDED" stroke="#D2D2D2"/>
<path d="M80.9249 22.7822L79 22.1734L81.6669 15.8361C83.1269 12.3722 86.0203 12.7223 89 13.5654C87.5727 16.9441 85.9547 24.3619 80.9249 22.7822Z" fill="#EDEDED" stroke="#D2D2D2"/>
<path d="M86.9249 22.7822L85 22.1734L87.6669 15.8361C89.1269 12.3722 92.0203 12.7223 95 13.5654C93.5727 16.9441 91.9547 24.3619 86.9249 22.7822Z" fill="#EDEDED" stroke="#D2D2D2"/>
<path d="M64.8552 15.8517L64.5202 13.8608L57.8735 15.6198C54.2401 16.5836 54.184 19.4974 54.6043 22.5655C58.1487 21.6223 65.7196 21.0525 64.8552 15.8517Z" fill="#EDEDED" stroke="#D2D2D2"/>
<path d="M63.9986 21.9467L63.6636 19.9557L57.0168 21.7147C53.3834 22.6785 53.1673 26.3444 54.6274 27.5685C56.0874 28.7926 64.8629 27.1474 63.9986 21.9467Z" fill="#EDEDED" stroke="#D2D2D2"/>
<path d="M55.3937 14.2899L55.7287 16.2809L62.3755 14.5219C66.0089 13.5581 66.225 9.89224 64.7649 8.6681C63.3049 7.44396 54.5294 9.08923 55.3937 14.2899Z" fill="#EDEDED" stroke="#D2D2D2"/>
<path d="M74.278 15.8527L73.9431 13.8618L67.2963 15.6208C63.6629 16.5845 63.6069 19.4984 64.0271 22.5665C67.5715 21.6233 75.1424 21.0534 74.278 15.8527Z" fill="#EDEDED" stroke="#D2D2D2"/>
<path d="M73.4214 21.9465L73.0865 19.9556L66.4397 21.7145C62.8063 22.6783 62.5902 26.3442 64.0502 27.5683C65.5103 28.7925 74.2858 27.1472 73.4214 21.9465Z" fill="#EDEDED" stroke="#D2D2D2"/>
<path d="M64.8166 14.2908L65.1515 16.2817L71.7983 14.5228C75.4317 13.559 75.6478 9.8931 74.1878 8.66896C72.7277 7.44481 63.9522 9.09009 64.8166 14.2908Z" fill="#EDEDED" stroke="#D2D2D2"/>
<path d="M83.7009 15.8527L83.3659 13.8618L76.7192 15.6208C73.0858 16.5845 73.0297 19.4984 73.45 22.5665C76.9944 21.6233 84.5653 21.0534 83.7009 15.8527Z" fill="#EDEDED" stroke="#D2D2D2"/>
<path d="M82.8443 21.9465L82.5093 19.9556L75.8625 21.7145C72.2292 22.6783 72.013 26.3442 73.4731 27.5683C74.9331 28.7925 83.7086 27.1472 82.8443 21.9465Z" fill="#EDEDED" stroke="#D2D2D2"/>
<path d="M74.2394 14.2908L74.5744 16.2817L81.2212 14.5228C84.8546 13.559 85.0707 9.8931 83.6106 8.66896C82.1506 7.44481 73.3751 9.09009 74.2394 14.2908Z" fill="#EDEDED" stroke="#D2D2D2"/>
<path d="M99.0751 13.2178L101 13.8266L98.3331 20.1639C96.8731 23.6278 93.9797 23.2777 91 22.4346C92.4273 19.0559 94.0453 11.6381 99.0751 13.2178Z" fill="#EDEDED" stroke="#D2D2D2"/>
<path d="M105.075 13.2178L107 13.8266L104.333 20.1639C102.873 23.6278 99.9797 23.2777 97 22.4346C98.4273 19.0559 100.045 11.6381 105.075 13.2178Z" fill="#EDEDED" stroke="#D2D2D2"/>
<path d="M111.075 13.2178L113 13.8266L110.333 20.1639C108.873 23.6278 105.98 23.2777 103 22.4346C104.427 19.0559 106.045 11.6381 111.075 13.2178Z" fill="#EDEDED" stroke="#D2D2D2"/>
<path d="M117.075 13.2178L119 13.8266L116.333 20.1639C114.873 23.6278 111.98 23.2777 109 22.4346C110.427 19.0559 112.045 11.6381 117.075 13.2178Z" fill="#EDEDED" stroke="#D2D2D2"/>
<path d="M123.075 13.2178L125 13.8266L122.333 20.1639C120.873 23.6278 117.98 23.2777 115 22.4346C116.427 19.0559 118.045 11.6381 123.075 13.2178Z" fill="#EDEDED" stroke="#D2D2D2"/>
<path d="M129.075 13.2178L131 13.8266L128.333 20.1639C126.873 23.6278 123.98 23.2777 121 22.4346C122.427 19.0559 124.045 11.6381 129.075 13.2178Z" fill="#EDEDED" stroke="#D2D2D2"/>
<path d="M135.075 13.2178L137 13.8266L134.333 20.1639C132.873 23.6278 129.98 23.2777 127 22.4346C128.427 19.0559 130.045 11.6381 135.075 13.2178Z" fill="#EDEDED" stroke="#D2D2D2"/>
<path d="M141.075 13.2178L143 13.8266L140.333 20.1639C138.873 23.6278 135.98 23.2777 133 22.4346C134.427 19.0559 136.045 11.6381 141.075 13.2178Z" fill="#EDEDED" stroke="#D2D2D2"/>
<path d="M147.075 13.2178L149 13.8266L146.333 20.1639C144.873 23.6278 141.98 23.2777 139 22.4346C140.427 19.0559 142.045 11.6381 147.075 13.2178Z" fill="#EDEDED" stroke="#D2D2D2"/>
<path d="M153.075 13.2178L155 13.8266L152.333 20.1639C150.873 23.6278 147.98 23.2777 145 22.4346C146.427 19.0559 148.045 11.6381 153.075 13.2178Z" fill="#EDEDED" stroke="#D2D2D2"/>
<path d="M159.075 13.2178L161 13.8266L158.333 20.1639C156.873 23.6278 153.98 23.2777 151 22.4346C152.427 19.0559 154.045 11.6381 159.075 13.2178Z" fill="#EDEDED" stroke="#D2D2D2"/>
<path d="M165.075 13.2178L167 13.8266L164.333 20.1639C162.873 23.6278 159.98 23.2777 157 22.4346C158.427 19.0559 160.045 11.6381 165.075 13.2178Z" fill="#EDEDED" stroke="#D2D2D2"/>
<path d="M171.075 13.2178L173 13.8266L170.333 20.1639C168.873 23.6278 165.98 23.2777 163 22.4346C164.427 19.0559 166.045 11.6381 171.075 13.2178Z" fill="#EDEDED" stroke="#D2D2D2"/>
<path d="M177.075 13.2178L179 13.8266L176.333 20.1639C174.873 23.6278 171.98 23.2777 169 22.4346C170.427 19.0559 172.045 11.6381 177.075 13.2178Z" fill="#EDEDED" stroke="#D2D2D2"/>
<path d="M183.075 13.2178L185 13.8266L182.333 20.1639C180.873 23.6278 177.98 23.2777 175 22.4346C176.427 19.0559 178.045 11.6381 183.075 13.2178Z" fill="#EDEDED" stroke="#D2D2D2"/>
<path d="M189.075 13.2178L191 13.8266L188.333 20.1639C186.873 23.6278 183.98 23.2777 181 22.4346C182.427 19.0559 184.045 11.6381 189.075 13.2178Z" fill="#EDEDED" stroke="#D2D2D2"/>
<path d="M195.075 13.2178L197 13.8266L194.333 20.1639C192.873 23.6278 189.98 23.2777 187 22.4346C188.427 19.0559 190.045 11.6381 195.075 13.2178Z" fill="#EDEDED" stroke="#D2D2D2"/>
<path d="M201.075 13.2178L203 13.8266L200.333 20.1639C198.873 23.6278 195.98 23.2777 193 22.4346C194.427 19.0559 196.045 11.6381 201.075 13.2178Z" fill="#EDEDED" stroke="#D2D2D2"/>
<path d="M207.075 13.2178L209 13.8266L206.333 20.1639C204.873 23.6278 201.98 23.2777 199 22.4346C200.427 19.0559 202.045 11.6381 207.075 13.2178Z" fill="#EDEDED" stroke="#D2D2D2"/>
<path d="M213.075 13.2178L215 13.8266L212.333 20.1639C210.873 23.6278 207.98 23.2777 205 22.4346C206.427 19.0559 208.045 11.6381 213.075 13.2178Z" fill="#EDEDED" stroke="#D2D2D2"/>
<path d="M219.075 13.2178L221 13.8266L218.333 20.1639C216.873 23.6278 213.98 23.2777 211 22.4346C212.427 19.0559 214.045 11.6381 219.075 13.2178Z" fill="#EDEDED" stroke="#D2D2D2"/>
<path d="M225.075 13.2178L227 13.8266L224.333 20.1639C222.873 23.6278 219.98 23.2777 217 22.4346C218.427 19.0559 220.045 11.6381 225.075 13.2178Z" fill="#EDEDED" stroke="#D2D2D2"/>
<path d="M231.075 13.2178L233 13.8266L230.333 20.1639C228.873 23.6278 225.98 23.2777 223 22.4346C224.427 19.0559 226.045 11.6381 231.075 13.2178Z" fill="#EDEDED" stroke="#D2D2D2"/>
<path d="M237.075 13.2178L239 13.8266L236.333 20.1639C234.873 23.6278 231.98 23.2777 229 22.4346C230.427 19.0559 232.045 11.6381 237.075 13.2178Z" fill="#EDEDED" stroke="#D2D2D2"/>
<path d="M243.075 13.2178L245 13.8266L242.333 20.1639C240.873 23.6278 237.98 23.2777 235 22.4346C236.427 19.0559 238.045 11.6381 243.075 13.2178Z" fill="#EDEDED" stroke="#D2D2D2"/>
<path d="M249.075 13.2178L251 13.8266L248.333 20.1639C246.873 23.6278 243.98 23.2777 241 22.4346C242.427 19.0559 244.045 11.6381 249.075 13.2178Z" fill="#EDEDED" stroke="#D2D2D2"/>
<path d="M248.925 22.7822L247 22.1734L249.667 15.8361C251.127 12.3722 254.02 12.7223 257 13.5654C255.573 16.9441 253.955 24.3619 248.925 22.7822Z" fill="#EDEDED" stroke="#D2D2D2"/>
<path d="M254.925 22.7822L253 22.1734L255.667 15.8361C257.127 12.3722 260.02 12.7223 263 13.5654C261.573 16.9441 259.955 24.3619 254.925 22.7822Z" fill="#EDEDED" stroke="#D2D2D2"/>
<path d="M260.925 22.7822L259 22.1734L261.667 15.8361C263.127 12.3722 266.02 12.7223 269 13.5654C267.573 16.9441 265.955 24.3619 260.925 22.7822Z" fill="#EDEDED" stroke="#D2D2D2"/>
<path d="M266.925 22.7822L265 22.1734L267.667 15.8361C269.127 12.3722 272.02 12.7223 275 13.5654C273.573 16.9441 271.955 24.3619 266.925 22.7822Z" fill="#EDEDED" stroke="#D2D2D2"/>
<path d="M272.925 22.7822L271 22.1734L273.667 15.8361C275.127 12.3722 278.02 12.7223 281 13.5654C279.573 16.9441 277.955 24.3619 272.925 22.7822Z" fill="#EDEDED" stroke="#D2D2D2"/>
<path d="M278.925 22.7822L277 22.1734L279.667 15.8361C281.127 12.3722 284.02 12.7223 287 13.5654C285.573 16.9441 283.955 24.3619 278.925 22.7822Z" fill="#EDEDED" stroke="#D2D2D2"/>
<path d="M284.925 22.7822L283 22.1734L285.667 15.8361C287.127 12.3722 290.02 12.7223 293 13.5654C291.573 16.9441 289.955 24.3619 284.925 22.7822Z" fill="#EDEDED" stroke="#D2D2D2"/>
<path d="M290.925 22.7822L289 22.1734L291.667 15.8361C293.127 12.3722 296.02 12.7223 299 13.5654C297.573 16.9441 295.955 24.3619 290.925 22.7822Z" fill="#EDEDED" stroke="#D2D2D2"/>
<path d="M264.143 15.8517L263.808 13.8608L257.162 15.6198C253.528 16.5836 253.472 19.4974 253.892 22.5655C257.437 21.6223 265.008 21.0525 264.143 15.8517Z" fill="#EDEDED" stroke="#D2D2D2"/>
<path d="M263.287 21.9467L262.952 19.9557L256.305 21.7147C252.672 22.6785 252.455 26.3444 253.915 27.5685C255.375 28.7926 264.151 27.1474 263.287 21.9467Z" fill="#EDEDED" stroke="#D2D2D2"/>
<path d="M254.682 14.2899L255.017 16.2809L261.664 14.5219C265.297 13.5581 265.513 9.89224 264.053 8.6681C262.593 7.44396 253.817 9.08923 254.682 14.2899Z" fill="#EDEDED" stroke="#D2D2D2"/>
<path d="M273.565 15.8537L273.23 13.8628L266.583 15.6217C262.95 16.5855 262.894 19.4994 263.314 22.5675C266.859 21.6243 274.43 21.0544 273.565 15.8537Z" fill="#EDEDED" stroke="#D2D2D2"/>
<path d="M272.71 21.9486L272.375 19.9577L265.728 21.7166C262.094 22.6804 261.878 26.3463 263.338 27.5705C264.798 28.7946 273.574 27.1493 272.71 21.9486Z" fill="#EDEDED" stroke="#D2D2D2"/>
<path d="M264.105 14.2899L264.44 16.2809L271.086 14.5219C274.72 13.5581 274.936 9.89224 273.476 8.6681C272.016 7.44396 263.24 9.08923 264.105 14.2899Z" fill="#EDEDED" stroke="#D2D2D2"/>
<path d="M282.989 15.8527L282.654 13.8618L276.007 15.6208C272.374 16.5845 272.318 19.4984 272.738 22.5665C276.282 21.6233 283.853 21.0534 282.989 15.8527Z" fill="#EDEDED" stroke="#D2D2D2"/>
<path d="M282.132 21.9465L281.797 19.9556L275.151 21.7145C271.517 22.6783 271.301 26.3442 272.761 27.5683C274.221 28.7925 282.997 27.1472 282.132 21.9465Z" fill="#EDEDED" stroke="#D2D2D2"/>
<path d="M273.528 14.2908L273.862 16.2817L280.509 14.5228C284.143 13.559 284.359 9.8931 282.899 8.66896C281.439 7.44481 272.663 9.09009 273.528 14.2908Z" fill="#EDEDED" stroke="#D2D2D2"/>
<path d="M292.413 15.8527L292.078 13.8618L285.431 15.6208C281.798 16.5845 281.742 19.4984 282.162 22.5665C285.706 21.6233 293.277 21.0534 292.413 15.8527Z" fill="#EDEDED" stroke="#D2D2D2"/>
<path d="M291.556 21.9465L291.221 19.9556L284.574 21.7145C280.941 22.6783 280.725 26.3442 282.185 27.5683C283.645 28.7925 292.421 27.1472 291.556 21.9465Z" fill="#EDEDED" stroke="#D2D2D2"/>
<path d="M282.951 14.2908L283.286 16.2817L289.933 14.5228C293.566 13.559 293.783 9.8931 292.323 8.66896C290.863 7.44481 282.087 9.09009 282.951 14.2908Z" fill="#EDEDED" stroke="#D2D2D2"/>
<path d="M303.075 13.2178L305 13.8266L302.333 20.1639C300.873 23.6278 297.98 23.2777 295 22.4346C296.427 19.0559 298.045 11.6381 303.075 13.2178Z" fill="#EDEDED" stroke="#D2D2D2"/>
<path d="M309.075 13.2178L311 13.8266L308.333 20.1639C306.873 23.6278 303.98 23.2777 301 22.4346C302.427 19.0559 304.045 11.6381 309.075 13.2178Z" fill="#EDEDED" stroke="#D2D2D2"/>
<path d="M315.075 13.2178L317 13.8266L314.333 20.1639C312.873 23.6278 309.98 23.2777 307 22.4346C308.427 19.0559 310.045 11.6381 315.075 13.2178Z" fill="#EDEDED" stroke="#D2D2D2"/>
<path d="M321.075 13.2178L323 13.8266L320.333 20.1639C318.873 23.6278 315.98 23.2777 313 22.4346C314.427 19.0559 316.045 11.6381 321.075 13.2178Z" fill="#EDEDED" stroke="#D2D2D2"/>
<path d="M327.075 13.2178L329 13.8266L326.333 20.1639C324.873 23.6278 321.98 23.2777 319 22.4346C320.427 19.0559 322.045 11.6381 327.075 13.2178Z" fill="#EDEDED" stroke="#D2D2D2"/>
<path d="M333.075 13.2178L335 13.8266L332.333 20.1639C330.873 23.6278 327.98 23.2777 325 22.4346C326.427 19.0559 328.045 11.6381 333.075 13.2178Z" fill="#EDEDED" stroke="#D2D2D2"/>
<path d="M339.075 13.2178L341 13.8266L338.333 20.1639C336.873 23.6278 333.98 23.2777 331 22.4346C332.427 19.0559 334.045 11.6381 339.075 13.2178Z" fill="#EDEDED" stroke="#D2D2D2"/>
<path d="M345.075 13.2178L347 13.8266L344.333 20.1639C342.873 23.6278 339.98 23.2777 337 22.4346C338.427 19.0559 340.045 11.6381 345.075 13.2178Z" fill="#EDEDED" stroke="#D2D2D2"/>
<path d="M351.075 13.2178L353 13.8266L350.333 20.1639C348.873 23.6278 345.98 23.2777 343 22.4346C344.427 19.0559 346.045 11.6381 351.075 13.2178Z" fill="#EDEDED" stroke="#D2D2D2"/>
<path d="M357.075 13.2178L359 13.8266L356.333 20.1639C354.873 23.6278 351.98 23.2777 349 22.4346C350.427 19.0559 352.045 11.6381 357.075 13.2178Z" fill="#EDEDED" stroke="#D2D2D2"/>
<path d="M363.075 13.2178L365 13.8266L362.333 20.1639C360.873 23.6278 357.98 23.2777 355 22.4346C356.427 19.0559 358.045 11.6381 363.075 13.2178Z" fill="#EDEDED" stroke="#D2D2D2"/>
<path d="M369.075 13.2178L371 13.8266L368.333 20.1639C366.873 23.6278 363.98 23.2777 361 22.4346C362.427 19.0559 364.045 11.6381 369.075 13.2178Z" fill="#EDEDED" stroke="#D2D2D2"/>
<path d="M375.075 13.2178L377 13.8266L374.333 20.1639C372.873 23.6278 369.98 23.2777 367 22.4346C368.427 19.0559 370.045 11.6381 375.075 13.2178Z" fill="#EDEDED" stroke="#D2D2D2"/>
<path d="M381.075 13.2178L383 13.8266L380.333 20.1639C378.873 23.6278 375.98 23.2777 373 22.4346C374.427 19.0559 376.045 11.6381 381.075 13.2178Z" fill="#EDEDED" stroke="#D2D2D2"/>
<path d="M387.075 13.2178L389 13.8266L386.333 20.1639C384.873 23.6278 381.98 23.2777 379 22.4346C380.427 19.0559 382.045 11.6381 387.075 13.2178Z" fill="#EDEDED" stroke="#D2D2D2"/>
<path d="M393.075 13.2178L395 13.8266L392.333 20.1639C390.873 23.6278 387.98 23.2777 385 22.4346C386.427 19.0559 388.045 11.6381 393.075 13.2178Z" fill="#EDEDED" stroke="#D2D2D2"/>
<path d="M399.075 13.2178L401 13.8266L398.333 20.1639C396.873 23.6278 393.98 23.2777 391 22.4346C392.427 19.0559 394.045 11.6381 399.075 13.2178Z" fill="#EDEDED" stroke="#D2D2D2"/>
<path d="M405.075 13.2178L407 13.8266L404.333 20.1639C402.873 23.6278 399.98 23.2777 397 22.4346C398.427 19.0559 400.045 11.6381 405.075 13.2178Z" fill="#EDEDED" stroke="#D2D2D2"/>
<path d="M411.075 13.2178L413 13.8266L410.333 20.1639C408.873 23.6278 405.98 23.2777 403 22.4346C404.427 19.0559 406.045 11.6381 411.075 13.2178Z" fill="#EDEDED" stroke="#D2D2D2"/>
<path d="M417.075 13.2178L419 13.8266L416.333 20.1639C414.873 23.6278 411.98 23.2777 409 22.4346C410.427 19.0559 412.045 11.6381 417.075 13.2178Z" fill="#EDEDED" stroke="#D2D2D2"/>
<path d="M423.075 13.2178L425 13.8266L422.333 20.1639C420.873 23.6278 417.98 23.2777 415 22.4346C416.427 19.0559 418.045 11.6381 423.075 13.2178Z" fill="#EDEDED" stroke="#D2D2D2"/>
<path d="M429.075 13.2178L431 13.8266L428.333 20.1639C426.873 23.6278 423.98 23.2777 421 22.4346C422.427 19.0559 424.045 11.6381 429.075 13.2178Z" fill="#EDEDED" stroke="#D2D2D2"/>
<path d="M435.075 13.2178L437 13.8266L434.333 20.1639C432.873 23.6278 429.98 23.2777 427 22.4346C428.427 19.0559 430.045 11.6381 435.075 13.2178Z" fill="#EDEDED" stroke="#D2D2D2"/>
<path d="M441.075 13.2178L443 13.8266L440.333 20.1639C438.873 23.6278 435.98 23.2777 433 22.4346C434.427 19.0559 436.045 11.6381 441.075 13.2178Z" fill="#EDEDED" stroke="#D2D2D2"/>
<path d="M447.075 13.2178L449 13.8266L446.333 20.1639C444.873 23.6278 441.98 23.2777 439 22.4346C440.427 19.0559 442.045 11.6381 447.075 13.2178Z" fill="#EDEDED" stroke="#D2D2D2"/>
<path d="M453.075 13.2178L455 13.8266L452.333 20.1639C450.873 23.6278 447.98 23.2777 445 22.4346C446.427 19.0559 448.045 11.6381 453.075 13.2178Z" fill="#EDEDED" stroke="#D2D2D2"/>
<path d="M459.075 13.2178L461 13.8266L458.333 20.1639C456.873 23.6278 453.98 23.2777 451 22.4346C452.427 19.0559 454.045 11.6381 459.075 13.2178Z" fill="#EDEDED" stroke="#D2D2D2"/>
<path d="M465.075 13.2178L467 13.8266L464.333 20.1639C462.873 23.6278 459.98 23.2777 457 22.4346C458.427 19.0559 460.045 11.6381 465.075 13.2178Z" fill="#EDEDED" stroke="#D2D2D2"/>
</svg>
