<svg width="326" height="24" viewBox="0 0 326 24" fill="none" xmlns="http://www.w3.org/2000/svg">
<path d="M306.925 16.7822L305 16.1734L307.667 9.83614C309.127 6.37224 312.02 6.72225 315 7.5654C313.573 10.9441 311.955 18.3619 306.925 16.7822Z" fill="#EDEDED" stroke="#D2D2D2" stroke-width="1.02564"/>
<path d="M313.486 14.1008C313.783 14.9986 314.167 15.8753 314.536 16.5792C314.904 17.2831 315.22 17.706 315.22 17.706C314.678 17.8973 314.017 17.8827 313.414 17.7066C307.64 16.3545 308.626 9.10048 311.954 7.3873C312.39 7.16301 312.704 7.05679 312.704 7.05679C313.361 8.04301 314.738 9.65421 314.814 10.1945C314.868 10.4755 314.796 10.6694 314.713 10.8957C313.925 11.9715 312.95 12.4821 313.486 14.1008Z" fill="#EDEDED" stroke="#D2D2D2" stroke-width="1.02564"/>
<path d="M319.921 18.3121C318.12 20.5228 315.364 20.4857 312.641 18.3119C309.919 16.138 311.59 11.5831 316.338 10.0949C319.007 11.1385 317.633 17.3372 319.921 18.3121Z" fill="#EDEDED" stroke="#D2D2D2" stroke-width="1.02564"/>
<path d="M311.212 9.3531C310.83 9.39447 310.487 9.43583 310.258 9.4772C310.03 9.55993 309.877 9.55994 309.877 9.55994C309.953 8.69122 310.373 7.86387 310.907 7.16063C313.753 3.66187 317.738 5.49719 319.908 8.69123C320.441 9.47721 320.747 10.3045 320.899 10.9251C320.975 11.2146 321.014 11.5042 321.052 11.6697C321.09 11.8352 321.09 11.9592 321.09 11.9592C317.423 14.1135 315.052 9.14485 311.212 9.3531Z" fill="#EDEDED" stroke="#D2D2D2" stroke-width="1.02564"/>
<path d="M317.942 11.2787C317.942 11.2787 317.942 11.1546 317.9 10.9891C317.858 10.8237 317.816 10.5755 317.732 10.2445C317.563 9.62401 317.185 8.79665 316.637 8.01067C316.09 7.22468 315.332 6.52144 314.7 6.02503C314.069 5.52862 313.605 5.23904 313.605 5.23904C314.153 4.70126 314.869 4.32896 315.669 4.16349C316.469 3.95665 317.395 3.95664 318.321 4.20485C319.206 4.41169 320.09 4.86674 320.764 5.48726C321.437 6.10777 321.9 6.85238 322.111 7.59699C322.111 7.59699 322.153 7.7211 322.195 7.96931C322.237 8.21751 322.321 8.54844 322.364 8.96211C322.448 9.78946 322.406 10.8236 322.153 11.7751C321.9 12.7266 321.395 13.4298 320.932 13.8849C320.721 14.0917 320.511 14.2572 320.385 14.3399C320.258 14.4226 320.174 14.5054 320.174 14.5054C319.164 14.009 318.658 13.9676 318.363 13.5539C318.153 13.0989 318.069 12.3956 317.942 11.2787Z" fill="#EDEDED" stroke="#D2D2D2" stroke-width="1.02564"/>
<path d="M318.77 11.7059C318.77 11.7059 318.838 11.6423 318.922 11.4875C319.019 11.3723 319.212 11.1418 319.312 10.8958C319.632 10.3677 319.896 9.51099 319.856 8.52847C319.869 7.57351 319.55 6.54436 319.225 5.77677C319.062 5.39298 318.884 5.10038 318.77 4.87492C318.657 4.64945 318.58 4.54272 318.58 4.54272C319.357 4.35387 320.249 4.39048 321.145 4.72821C322.03 5.02637 322.919 5.62565 323.575 6.46741C323.923 6.88228 324.191 7.3212 324.391 7.82374C324.504 8.04921 324.578 8.2867 324.651 8.52419C324.725 8.76168 324.758 9.01118 324.791 9.2607C324.857 9.75972 324.818 10.2036 324.78 10.6475C324.688 11.0639 324.557 11.4923 324.36 11.8535C324.36 11.8535 324.264 11.9687 324.164 12.2147C324.052 12.4212 323.831 12.7032 323.582 13.0369C323.072 13.6647 322.32 14.3646 321.467 14.8786C320.614 15.3926 319.792 15.7242 319.148 15.9166C318.825 16.0128 318.531 16.0574 318.37 16.1055C318.197 16.114 318.076 16.15 318.076 16.15C317.572 15.0898 317.355 14.2466 317.466 13.6083C317.564 12.9304 318.002 12.497 318.77 11.7059Z" fill="#EDEDED" stroke="#D2D2D2" stroke-width="1.02564"/>
<path d="M317.516 12.3631C318.757 12.363 319.958 12.4783 321.202 12.1449C322.17 11.8967 323.097 11.4417 323.77 10.9866C324.107 10.7384 324.402 10.5316 324.57 10.3661C324.739 10.2006 324.865 10.0765 324.865 10.0765C325.244 10.8211 325.328 11.6899 325.244 12.5586C325.118 13.4273 324.823 14.296 324.318 14.9993C321.827 18.5679 317.982 17.2551 316.079 15.4344C315.241 13.9718 315.893 12.7575 317.516 12.3631Z" fill="#EDEDED" stroke="#D2D2D2" stroke-width="1.02564"/>
<path d="M323.735 16.1933C322.763 19.63 317.66 20.1092 315.897 17.2887C314.134 14.4682 316.25 12.3528 317.059 12.3538C317.728 15.8803 319.423 17.2882 323.735 16.1933Z" fill="#EDEDED" stroke="#D2D2D2" stroke-width="1.02564"/>
<path d="M307.075 7.21781L309 7.82658L306.333 14.1639C304.873 17.6278 301.98 17.2777 299 16.4346C300.427 13.0559 302.045 5.63805 307.075 7.21781Z" fill="#EDEDED" stroke="#D2D2D2"/>
<path d="M301.075 7.21781L303 7.82658L300.333 14.1639C298.873 17.6278 295.98 17.2777 293 16.4346C294.427 13.0559 296.045 5.63805 301.075 7.21781Z" fill="#EDEDED" stroke="#D2D2D2"/>
<path d="M295.075 7.21781L297 7.82658L294.333 14.1639C292.873 17.6278 289.98 17.2777 287 16.4346C288.427 13.0559 290.045 5.63805 295.075 7.21781Z" fill="#EDEDED" stroke="#D2D2D2"/>
<path d="M289.075 7.21781L291 7.82658L288.333 14.1639C286.873 17.6278 283.98 17.2777 281 16.4346C282.427 13.0559 284.045 5.63805 289.075 7.21781Z" fill="#EDEDED" stroke="#D2D2D2"/>
<path d="M283.075 7.21781L285 7.82658L282.333 14.1639C280.873 17.6278 277.98 17.2777 275 16.4346C276.427 13.0559 278.045 5.63805 283.075 7.21781Z" fill="#EDEDED" stroke="#D2D2D2"/>
<path d="M277.075 7.21781L279 7.82658L276.333 14.1639C274.873 17.6278 271.98 17.2777 269 16.4346C270.427 13.0559 272.045 5.63805 277.075 7.21781Z" fill="#EDEDED" stroke="#D2D2D2"/>
<path d="M222.925 16.7822L221 16.1734L223.667 9.83614C225.127 6.37223 228.02 6.72225 231 7.5654C229.573 10.9441 227.955 18.3619 222.925 16.7822Z" fill="#EDEDED" stroke="#D2D2D2"/>
<path d="M228.925 16.7822L227 16.1734L229.667 9.83614C231.127 6.37223 234.02 6.72225 237 7.5654C235.573 10.9441 233.955 18.3619 228.925 16.7822Z" fill="#EDEDED" stroke="#D2D2D2"/>
<path d="M234.925 16.7822L233 16.1734L235.667 9.83614C237.127 6.37223 240.02 6.72225 243 7.5654C241.573 10.9441 239.955 18.3619 234.925 16.7822Z" fill="#EDEDED" stroke="#D2D2D2"/>
<path d="M240.925 16.7822L239 16.1734L241.667 9.83614C243.127 6.37223 246.02 6.72225 249 7.5654C247.573 10.9441 245.955 18.3619 240.925 16.7822Z" fill="#EDEDED" stroke="#D2D2D2"/>
<path d="M246.925 16.7822L245 16.1734L247.667 9.83614C249.127 6.37223 252.02 6.72225 255 7.5654C253.573 10.9441 251.955 18.3619 246.925 16.7822Z" fill="#EDEDED" stroke="#D2D2D2"/>
<path d="M252.925 16.7822L251 16.1734L253.667 9.83614C255.127 6.37223 258.02 6.72225 261 7.5654C259.573 10.9441 257.955 18.3619 252.925 16.7822Z" fill="#EDEDED" stroke="#D2D2D2"/>
<path d="M258.925 16.7822L257 16.1734L259.667 9.83614C261.127 6.37223 264.02 6.72225 267 7.5654C265.573 10.9441 263.955 18.3619 258.925 16.7822Z" fill="#EDEDED" stroke="#D2D2D2"/>
<path d="M264.925 16.7822L263 16.1734L265.667 9.83614C267.127 6.37223 270.02 6.72225 273 7.5654C271.573 10.9441 269.955 18.3619 264.925 16.7822Z" fill="#EDEDED" stroke="#D2D2D2"/>
<path d="M238.143 9.85175L237.808 7.86084L231.162 9.61978C227.528 10.5836 227.472 13.4974 227.892 16.5655C231.437 15.6223 239.008 15.0525 238.143 9.85175Z" fill="#EDEDED" stroke="#D2D2D2"/>
<path d="M237.288 15.9465L236.953 13.9556L230.306 15.7145C226.673 16.6783 226.456 20.3442 227.916 21.5683C229.376 22.7925 238.152 21.1472 237.288 15.9465Z" fill="#EDEDED" stroke="#D2D2D2"/>
<path d="M228.683 8.28982L229.018 10.2807L235.665 8.52179C239.298 7.55801 239.514 3.89212 238.054 2.66798C236.594 1.44384 227.818 3.08911 228.683 8.28982Z" fill="#EDEDED" stroke="#D2D2D2"/>
<path d="M247.567 9.8537L247.232 7.86279L240.585 9.62173C236.952 10.5855 236.896 13.4994 237.316 16.5675C240.861 15.6243 248.431 15.0544 247.567 9.8537Z" fill="#EDEDED" stroke="#D2D2D2"/>
<path d="M246.711 15.9484L246.377 13.9575L239.73 15.7165C236.096 16.6802 235.88 20.3461 237.34 21.5703C238.8 22.7944 247.576 21.1491 246.711 15.9484Z" fill="#EDEDED" stroke="#D2D2D2"/>
<path d="M238.107 8.28982L238.442 10.2807L245.088 8.52179C248.722 7.55801 248.938 3.89212 247.478 2.66798C246.018 1.44384 237.242 3.08911 238.107 8.28982Z" fill="#EDEDED" stroke="#D2D2D2"/>
<path d="M256.989 9.85272L256.654 7.86182L250.007 9.62075C246.374 10.5845 246.318 13.4984 246.738 16.5665C250.282 15.6233 257.853 15.0534 256.989 9.85272Z" fill="#EDEDED" stroke="#D2D2D2"/>
<path d="M256.133 15.9465L255.798 13.9556L249.152 15.7145C245.518 16.6783 245.302 20.3442 246.762 21.5683C248.222 22.7925 256.998 21.1472 256.133 15.9465Z" fill="#EDEDED" stroke="#D2D2D2"/>
<path d="M247.529 8.2908L247.863 10.2817L254.51 8.52277C258.144 7.55899 258.36 3.8931 256.9 2.66896C255.44 1.44481 246.664 3.09009 247.529 8.2908Z" fill="#EDEDED" stroke="#D2D2D2"/>
<path d="M266.415 9.85272L266.08 7.86182L259.433 9.62075C255.8 10.5845 255.744 13.4984 256.164 16.5665C259.708 15.6233 267.279 15.0534 266.415 9.85272Z" fill="#EDEDED" stroke="#D2D2D2"/>
<path d="M265.557 15.9465L265.222 13.9556L258.575 15.7145C254.942 16.6783 254.726 20.3442 256.186 21.5683C257.646 22.7925 266.422 21.1472 265.557 15.9465Z" fill="#EDEDED" stroke="#D2D2D2"/>
<path d="M256.952 8.2908L257.287 10.2817L263.934 8.52277C267.567 7.55899 267.784 3.8931 266.324 2.66896C264.863 1.44481 256.088 3.09009 256.952 8.2908Z" fill="#EDEDED" stroke="#D2D2D2"/>
<path d="M223.075 7.21781L225 7.82658L222.333 14.1639C220.873 17.6278 217.98 17.2777 215 16.4346C216.427 13.0559 218.045 5.63805 223.075 7.21781Z" fill="#EDEDED" stroke="#D2D2D2"/>
<path d="M217.075 7.21781L219 7.82658L216.333 14.1639C214.873 17.6278 211.98 17.2777 209 16.4346C210.427 13.0559 212.045 5.63805 217.075 7.21781Z" fill="#EDEDED" stroke="#D2D2D2"/>
<path d="M211.075 7.21781L213 7.82658L210.333 14.1639C208.873 17.6278 205.98 17.2777 203 16.4346C204.427 13.0559 206.045 5.63805 211.075 7.21781Z" fill="#EDEDED" stroke="#D2D2D2"/>
<path d="M205.075 7.21781L207 7.82658L204.333 14.1639C202.873 17.6278 199.98 17.2777 197 16.4346C198.427 13.0559 200.045 5.63805 205.075 7.21781Z" fill="#EDEDED" stroke="#D2D2D2"/>
<path d="M199.075 7.21781L201 7.82658L198.333 14.1639C196.873 17.6278 193.98 17.2777 191 16.4346C192.427 13.0559 194.045 5.63805 199.075 7.21781Z" fill="#EDEDED" stroke="#D2D2D2"/>
<path d="M193.075 7.21781L195 7.82658L192.333 14.1639C190.873 17.6278 187.98 17.2777 185 16.4346C186.427 13.0559 188.045 5.63805 193.075 7.21781Z" fill="#EDEDED" stroke="#D2D2D2"/>
<path d="M187.075 7.21781L189 7.82658L186.333 14.1639C184.873 17.6278 181.98 17.2777 179 16.4346C180.427 13.0559 182.045 5.63805 187.075 7.21781Z" fill="#EDEDED" stroke="#D2D2D2"/>
<path d="M181.075 7.21781L183 7.82658L180.333 14.1639C178.873 17.6278 175.98 17.2777 173 16.4346C174.427 13.0559 176.045 5.63805 181.075 7.21781Z" fill="#EDEDED" stroke="#D2D2D2"/>
<path d="M175.075 7.21781L177 7.82658L174.333 14.1639C172.873 17.6278 169.98 17.2777 167 16.4346C168.427 13.0559 170.045 5.63805 175.075 7.21781Z" fill="#EDEDED" stroke="#D2D2D2"/>
<path d="M169.075 7.21781L171 7.82658L168.333 14.1639C166.873 17.6278 163.98 17.2777 161 16.4346C162.427 13.0559 164.045 5.63805 169.075 7.21781Z" fill="#EDEDED" stroke="#D2D2D2"/>
<path d="M163.075 7.21781L165 7.82658L162.333 14.1639C160.873 17.6278 157.98 17.2777 155 16.4346C156.427 13.0559 158.045 5.63805 163.075 7.21781Z" fill="#EDEDED" stroke="#D2D2D2"/>
<path d="M157.075 7.21781L159 7.82658L156.333 14.1639C154.873 17.6278 151.98 17.2777 149 16.4346C150.427 13.0559 152.045 5.63805 157.075 7.21781Z" fill="#EDEDED" stroke="#D2D2D2"/>
<path d="M151.075 7.21781L153 7.82658L150.333 14.1639C148.873 17.6278 145.98 17.2777 143 16.4346C144.427 13.0559 146.045 5.63805 151.075 7.21781Z" fill="#EDEDED" stroke="#D2D2D2"/>
<path d="M145.075 7.21781L147 7.82658L144.333 14.1639C142.873 17.6278 139.98 17.2777 137 16.4346C138.427 13.0559 140.045 5.63805 145.075 7.21781Z" fill="#EDEDED" stroke="#D2D2D2"/>
<path d="M139.075 7.21781L141 7.82658L138.333 14.1639C136.873 17.6278 133.98 17.2777 131 16.4346C132.427 13.0559 134.045 5.63805 139.075 7.21781Z" fill="#EDEDED" stroke="#D2D2D2"/>
<path d="M133.075 7.21781L135 7.82658L132.333 14.1639C130.873 17.6278 127.98 17.2777 125 16.4346C126.427 13.0559 128.045 5.63805 133.075 7.21781Z" fill="#EDEDED" stroke="#D2D2D2"/>
<path d="M127.075 7.21781L129 7.82658L126.333 14.1639C124.873 17.6278 121.98 17.2777 119 16.4346C120.427 13.0559 122.045 5.63805 127.075 7.21781Z" fill="#EDEDED" stroke="#D2D2D2"/>
<path d="M121.075 7.21781L123 7.82658L120.333 14.1639C118.873 17.6278 115.98 17.2777 113 16.4346C114.427 13.0559 116.045 5.63805 121.075 7.21781Z" fill="#EDEDED" stroke="#D2D2D2"/>
<path d="M115.075 7.21781L117 7.82658L114.333 14.1639C112.873 17.6278 109.98 17.2777 107 16.4346C108.427 13.0559 110.045 5.63805 115.075 7.21781Z" fill="#EDEDED" stroke="#D2D2D2"/>
<path d="M109.075 7.21781L111 7.82658L108.333 14.1639C106.873 17.6278 103.98 17.2777 101 16.4346C102.427 13.0559 104.045 5.63805 109.075 7.21781Z" fill="#EDEDED" stroke="#D2D2D2"/>
<path d="M103.075 7.21781L105 7.82658L102.333 14.1639C100.873 17.6278 97.9797 17.2777 95 16.4346C96.4273 13.0559 98.0453 5.63805 103.075 7.21781Z" fill="#EDEDED" stroke="#D2D2D2"/>
<path d="M97.0751 7.21781L99 7.82658L96.3331 14.1639C94.8731 17.6278 91.9797 17.2777 89 16.4346C90.4273 13.0559 92.0453 5.63805 97.0751 7.21781Z" fill="#EDEDED" stroke="#D2D2D2"/>
<path d="M91.0751 7.21781L93 7.82658L90.3331 14.1639C88.8731 17.6278 85.9797 17.2777 83 16.4346C84.4273 13.0559 86.0453 5.63805 91.0751 7.21781Z" fill="#EDEDED" stroke="#D2D2D2"/>
<path d="M85.0751 7.21781L87 7.82658L84.3331 14.1639C82.8731 17.6278 79.9797 17.2777 77 16.4346C78.4273 13.0559 80.0453 5.63805 85.0751 7.21781Z" fill="#EDEDED" stroke="#D2D2D2"/>
<path d="M79.0751 7.21781L81 7.82658L78.3331 14.1639C76.8731 17.6278 73.9797 17.2777 71 16.4346C72.4273 13.0559 74.0453 5.63805 79.0751 7.21781Z" fill="#EDEDED" stroke="#D2D2D2"/>
<path d="M73.0751 7.21781L75 7.82658L72.3331 14.1639C70.8731 17.6278 67.9797 17.2777 65 16.4346C66.4273 13.0559 68.0453 5.63805 73.0751 7.21781Z" fill="#EDEDED" stroke="#D2D2D2"/>
<path d="M67.0751 7.21781L69 7.82658L66.3331 14.1639C64.8731 17.6278 61.9797 17.2777 59 16.4346C60.4273 13.0559 62.0453 5.63805 67.0751 7.21781Z" fill="#EDEDED" stroke="#D2D2D2"/>
<path d="M89.1458 14.1483L89.4807 16.1392L96.1275 14.3802C99.7609 13.4164 99.817 10.5026 99.3967 7.43448C95.8523 8.37767 88.2814 8.94754 89.1458 14.1483Z" fill="#EDEDED" stroke="#D2D2D2"/>
<path d="M90.0014 8.05352L90.3364 10.0444L96.9832 8.28549C100.617 7.32171 100.833 3.65583 99.3726 2.43168C97.9126 1.20754 89.1371 2.85281 90.0014 8.05352Z" fill="#EDEDED" stroke="#D2D2D2"/>
<path d="M98.6063 15.7102L98.2713 13.7193L91.6245 15.4782C87.9911 16.442 87.775 20.1079 89.2351 21.332C90.6951 22.5562 99.4706 20.9109 98.6063 15.7102Z" fill="#EDEDED" stroke="#D2D2D2"/>
<path d="M79.722 14.1473L80.0569 16.1382L86.7037 14.3792C90.3371 13.4155 90.3931 10.5016 89.9729 7.43351C86.4285 8.37669 78.8576 8.94657 79.722 14.1473Z" fill="#EDEDED" stroke="#D2D2D2"/>
<path d="M80.5776 8.05352L80.9126 10.0444L87.5593 8.28549C91.1927 7.32171 91.4088 3.65583 89.9488 2.43168C88.4888 1.20754 79.7132 2.85281 80.5776 8.05352Z" fill="#EDEDED" stroke="#D2D2D2"/>
<path d="M89.1824 15.7092L88.8475 13.7183L82.2007 15.4772C78.5673 16.441 78.3512 20.1069 79.8112 21.331C81.2713 22.5552 90.0468 20.9099 89.1824 15.7092Z" fill="#EDEDED" stroke="#D2D2D2"/>
<path d="M70.2981 14.1473L70.6331 16.1382L77.2798 14.3792C80.9132 13.4155 80.9693 10.5016 80.5491 7.43351C77.0046 8.37669 69.4338 8.94657 70.2981 14.1473Z" fill="#EDEDED" stroke="#D2D2D2"/>
<path d="M71.1557 8.05352L71.4907 10.0444L78.1375 8.28549C81.7708 7.32171 81.987 3.65583 80.5269 2.43168C79.0669 1.20754 70.2914 2.85281 71.1557 8.05352Z" fill="#EDEDED" stroke="#D2D2D2"/>
<path d="M79.7606 15.7092L79.4256 13.7183L72.7788 15.4772C69.1454 16.441 68.9293 20.1069 70.3894 21.331C71.8494 22.5552 80.6249 20.9099 79.7606 15.7092Z" fill="#EDEDED" stroke="#D2D2D2"/>
<path d="M61.0751 7.21781L63 7.82658L60.3331 14.1639C58.8731 17.6278 55.9797 17.2777 53 16.4346C54.4273 13.0559 56.0453 5.63805 61.0751 7.21781Z" fill="#EDEDED" stroke="#D2D2D2"/>
<path d="M55.0751 7.21781L57 7.82658L54.3331 14.1639C52.8731 17.6278 49.9797 17.2777 47 16.4346C48.4273 13.0559 50.0453 5.63805 55.0751 7.21781Z" fill="#EDEDED" stroke="#D2D2D2"/>
<path d="M49.0751 7.21781L51 7.82658L48.3331 14.1639C46.8731 17.6278 43.9797 17.2777 41 16.4346C42.4273 13.0559 44.0453 5.63805 49.0751 7.21781Z" fill="#EDEDED" stroke="#D2D2D2"/>
<path d="M43.0751 7.21781L45 7.82658L42.3331 14.1639C40.8731 17.6278 37.9797 17.2777 35 16.4346C36.4273 13.0559 38.0453 5.63805 43.0751 7.21781Z" fill="#EDEDED" stroke="#D2D2D2"/>
<path d="M37.0751 7.21781L39 7.82658L36.3331 14.1639C34.8731 17.6278 31.9797 17.2777 29 16.4346C30.4273 13.0559 32.0453 5.63805 37.0751 7.21781Z" fill="#EDEDED" stroke="#D2D2D2"/>
<path d="M31.0751 7.21781L33 7.82658L30.3331 14.1639C28.8731 17.6278 25.9797 17.2777 23 16.4346C24.4273 13.0559 26.0453 5.63805 31.0751 7.21781Z" fill="#EDEDED" stroke="#D2D2D2"/>
<path d="M25.0751 7.21781L27 7.82658L24.3331 14.1639C22.8731 17.6278 19.9797 17.2777 17 16.4346C18.4273 13.0559 20.0453 5.63805 25.0751 7.21781Z" fill="#EDEDED" stroke="#D2D2D2"/>
<path d="M19.0751 7.21781L21 7.82658L18.3331 14.1639C16.8731 17.6278 13.9797 17.2777 11 16.4346C12.4273 13.0559 14.0453 5.63805 19.0751 7.21781Z" fill="#EDEDED" stroke="#D2D2D2" stroke-width="1.02564"/>
<path d="M12.5143 9.89919C12.2169 9.00137 11.8332 8.12466 11.4644 7.42079C11.0956 6.71691 10.7804 6.29405 10.7804 6.29405C11.3217 6.10275 11.9835 6.11728 12.5858 6.29342C18.36 7.64547 17.3742 14.8995 14.0459 16.6127C13.6101 16.837 13.2964 16.9432 13.2964 16.9432C12.6391 15.957 11.2615 14.3458 11.1857 13.8055C11.1322 13.5245 11.2035 13.3306 11.2868 13.1043C12.0754 12.0285 13.0505 11.5179 12.5143 9.89919Z" fill="#EDEDED" stroke="#D2D2D2" stroke-width="1.02564"/>
<path d="M6.07919 5.68793C7.88023 3.47721 10.6362 3.51429 13.3587 5.68813C16.0813 7.86196 14.4096 12.4169 9.66198 13.9051C6.99334 12.8615 8.36743 6.66279 6.07919 5.68793Z" fill="#EDEDED" stroke="#D2D2D2" stroke-width="1.02564"/>
<path d="M14.7882 14.6469C15.1696 14.6055 15.5128 14.5642 15.7417 14.5228C15.9705 14.4401 16.123 14.4401 16.123 14.4401C16.0468 15.3088 15.6273 16.1361 15.0933 16.8394C12.2471 20.3381 8.26231 18.5028 6.09248 15.3088C5.55854 14.5228 5.25343 13.6955 5.10088 13.0749C5.0246 12.7854 4.98645 12.4958 4.94831 12.3303C4.91017 12.1648 4.91018 12.0408 4.91018 12.0408C8.57689 9.88649 10.9482 14.8552 14.7882 14.6469Z" fill="#EDEDED" stroke="#D2D2D2" stroke-width="1.02564"/>
<path d="M8.05759 12.7213C8.05759 12.7213 8.05758 12.8454 8.09969 13.0109C8.1418 13.1763 8.18391 13.4245 8.26813 13.7555C8.43655 14.376 8.8155 15.2034 9.36288 15.9893C9.91026 16.7753 10.6682 17.4786 11.2998 17.975C11.9313 18.4714 12.3945 18.761 12.3945 18.761C11.8472 19.2987 11.1313 19.671 10.3313 19.8365C9.5313 20.0433 8.60497 20.0434 7.67863 19.7952C6.7944 19.5883 5.91017 19.1333 5.23647 18.5127C4.56277 17.8922 4.0996 17.1476 3.88907 16.403C3.88907 16.403 3.84696 16.2789 3.80485 16.0307C3.76274 15.7825 3.67855 15.4516 3.63644 15.0379C3.55223 14.2105 3.59433 13.1764 3.84697 12.2249C4.09961 11.2734 4.60487 10.5702 5.06804 10.1151C5.27857 9.9083 5.48909 9.74284 5.61541 9.66011C5.74173 9.57737 5.82594 9.49463 5.82594 9.49463C6.83649 9.99104 7.34179 10.0324 7.63653 10.4461C7.84706 10.9011 7.93128 11.6044 8.05759 12.7213Z" fill="#EDEDED" stroke="#D2D2D2" stroke-width="1.02564"/>
<path d="M7.23006 12.2941C7.23006 12.2941 7.16172 12.3577 7.07757 12.5125C6.98118 12.6277 6.7884 12.8582 6.68843 13.1042C6.36763 13.6323 6.10443 14.489 6.14416 15.4715C6.13136 16.4265 6.44954 17.4556 6.77487 18.2232C6.93754 18.607 7.11602 18.8996 7.22973 19.1251C7.34344 19.3506 7.42045 19.4573 7.42045 19.4573C6.64273 19.6461 5.75126 19.6095 4.85474 19.2718C3.97046 18.9736 3.08112 18.3743 2.42482 17.5326C2.07653 17.1177 1.8088 16.6788 1.60942 16.1763C1.49571 15.9508 1.4223 15.7133 1.34887 15.4758C1.27545 15.2383 1.24229 14.9888 1.20916 14.7393C1.14288 14.2403 1.18166 13.7964 1.22044 13.3525C1.31175 12.9361 1.44336 12.5077 1.63972 12.1465C1.63972 12.1465 1.73609 12.0313 1.83606 11.7853C1.94826 11.5788 2.16911 11.2968 2.41799 10.9631C2.928 10.3353 3.67973 9.63543 4.53294 9.12142C5.38616 8.6074 6.20775 8.27576 6.85237 8.0834C7.17468 7.98722 7.46894 7.94263 7.63009 7.89454C7.80349 7.88603 7.92436 7.84997 7.92436 7.84997C8.42817 8.91017 8.64485 9.75341 8.53416 10.3917C8.4357 11.0696 7.99761 11.503 7.23006 12.2941Z" fill="#EDEDED" stroke="#D2D2D2" stroke-width="1.02564"/>
<path d="M8.48416 11.6369C7.24277 11.637 6.04237 11.5217 4.79816 11.8551C3.82971 12.1033 2.90339 12.5583 2.22969 13.0134C1.89284 13.2616 1.59809 13.4684 1.42966 13.6339C1.26124 13.7994 1.13494 13.9235 1.13494 13.9235C0.755982 13.1789 0.67176 12.3101 0.755972 11.4414C0.882291 10.5727 1.17701 9.70398 1.68229 9.00073C4.17307 5.43207 8.01816 6.74488 9.92142 8.56556C10.7591 10.0282 10.1067 11.2425 8.48416 11.6369Z" fill="#EDEDED" stroke="#D2D2D2" stroke-width="1.02564"/>
<path d="M2.26497 7.80666C3.23666 4.36995 8.33961 3.89084 10.1026 6.71131C11.8656 9.53178 9.75019 11.6472 8.9414 11.6462C8.27234 8.11967 6.57686 6.71181 2.26497 7.80666Z" fill="#EDEDED" stroke="#D2D2D2" stroke-width="1.02564"/>
</svg>
