<svg width="32" height="346" viewBox="0 0 32 346" fill="none" xmlns="http://www.w3.org/2000/svg">
<g clip-path="url(#clip0_206_20288)">
<path d="M9.45468 28.1369C9.96799 29.1537 10.8565 29.7832 11.9126 30.154C15.7208 31.4912 18.8606 27.7874 18.2322 24.2369C18.0717 23.0228 17.1217 22.1103 16.0546 22.7447C13.4293 24.3055 12.6175 27.2614 9.45468 28.1369Z" fill="#EDEDED" stroke="#D2D2D2"/>
<path d="M16.4413 29.8347C17.4374 30.387 18.5261 30.4081 19.6079 30.1211C23.5091 29.0861 24.0237 24.2578 21.5079 21.6748C20.6927 20.761 19.394 20.5403 18.8681 21.665C17.5744 24.4316 18.5648 27.3326 16.4413 29.8347Z" fill="#EDEDED" stroke="#D2D2D2"/>
<path d="M23.1671 27.3148C24.3014 27.2116 25.2137 26.617 25.947 25.7714C28.5915 22.7223 26.3027 18.44 22.77 17.718C21.582 17.4207 20.384 17.9682 20.5813 19.194C21.0667 22.2093 23.5167 24.0517 23.1671 27.3148Z" fill="#EDEDED" stroke="#D2D2D2"/>
<path d="M27.315 21.4487C28.1951 20.7256 28.6153 19.7211 28.7464 18.6095C29.2193 14.6011 24.919 12.3463 21.5915 13.7352C20.4419 14.1572 19.7589 15.2835 20.6112 16.1863C22.7078 18.4072 25.7697 18.5536 27.315 21.4487Z" fill="#EDEDED" stroke="#D2D2D2"/>
<path d="M27.4413 14.266C27.7627 13.1733 27.5454 12.1063 27.029 11.1132C25.1666 7.53242 20.3426 8.08517 18.3716 11.1045C17.658 12.0997 17.7264 13.4152 18.9387 13.6827C21.9212 14.3407 24.5357 12.7404 27.4413 14.266Z" fill="#EDEDED" stroke="#D2D2D2"/>
<path d="M6.53165 25.7024C6.70692 26.8278 7.35838 27.7003 8.24896 28.3783C11.4604 30.8232 15.5882 28.2662 16.0836 24.6947C16.3047 23.4902 15.682 22.3295 14.4713 22.6045C11.4929 23.281 9.81034 25.8433 6.53165 25.7024Z" fill="#EDEDED" stroke="#D2D2D2"/>
<path d="M19.8258 18.5399L19.3387 17L14.2689 19.1335C11.4978 20.3016 11.7778 22.6162 12.4523 25C15.1553 23.8582 21.0896 22.5638 19.8258 18.5399Z" fill="#EDEDED" stroke="#D2D2D2"/>
<path d="M19.8258 23.5399L19.3387 22L14.2689 24.1335C11.4978 25.3016 11.7778 27.6162 12.4523 30C15.1553 28.8582 21.0896 27.5638 19.8258 23.5399Z" fill="#EDEDED" stroke="#D2D2D2"/>
<path d="M37.0751 13.2178L39 13.8266L36.3331 20.1639C34.8731 23.6278 31.9797 23.2777 29 22.4346C30.4273 19.0559 32.0453 11.6381 37.0751 13.2178Z" fill="#EDEDED" stroke="#D2D2D2"/>
<path d="M31.0751 13.2178L33 13.8266L30.3331 20.1639C28.8731 23.6278 25.9797 23.2777 23 22.4346C24.4273 19.0559 26.0453 11.6381 31.0751 13.2178Z" fill="#EDEDED" stroke="#D2D2D2"/>
<path d="M25.0751 13.2178L27 13.8266L24.3331 20.1639C22.8731 23.6278 19.9797 23.2777 17 22.4346C18.4273 19.0559 20.0453 11.6381 25.0751 13.2178Z" fill="#EDEDED" stroke="#D2D2D2"/>
<path d="M19.0751 13.2178L21 13.8266L18.3331 20.1639C16.8731 23.6278 13.9797 23.2777 11 22.4346C12.4273 19.0559 14.0453 11.6381 19.0751 13.2178Z" fill="#EDEDED" stroke="#D2D2D2"/>
<path d="M13.0751 13.2178L15 13.8266L12.3331 20.1639C10.8731 23.6278 7.97974 23.2777 5 22.4346C6.42729 19.0559 8.04529 11.6381 13.0751 13.2178Z" fill="#EDEDED" stroke="#D2D2D2"/>
<path d="M23.6036 8.32146C23.2503 7.22239 22.4602 6.45177 21.4615 5.91365C17.86 3.97323 14.1312 7.18536 14.1994 10.8394C14.1684 12.0803 14.9753 13.144 16.1439 12.6774C19.0189 11.5295 20.2987 8.69833 23.6036 8.32146Z" fill="#EDEDED" stroke="#D2D2D2"/>
<path d="M16.8823 5.51795C15.9723 4.80761 14.8856 4.61445 13.7571 4.73091C9.68776 5.15084 8.40981 9.90353 10.5205 12.8872C11.1923 13.9308 12.4577 14.3569 13.1619 13.314C14.8942 10.7485 14.361 7.68755 16.8823 5.51795Z" fill="#EDEDED" stroke="#D2D2D2"/>
<path d="M9.74519 6.97871C8.59323 6.90286 7.58597 7.354 6.71814 8.08473C3.58878 10.7197 5.20375 15.3687 8.62662 16.6497C9.769 17.1351 11.055 16.7762 11.0511 15.5178C11.0415 12.4221 8.87971 10.1904 9.74519 6.97871Z" fill="#EDEDED" stroke="#D2D2D2"/>
<path d="M4.66921 12.1962C3.67388 12.7811 3.09448 13.7205 2.78757 14.8127C1.68088 18.7511 5.63005 21.688 9.18094 20.8231C10.3986 20.5823 11.2603 19.5625 10.5497 18.524C8.80141 15.9693 5.75901 15.3389 4.66921 12.1962Z" fill="#EDEDED" stroke="#D2D2D2"/>
<path d="M3.40217 19.367C2.90781 20.4103 2.95673 21.5129 3.31692 22.5887C4.61578 26.468 9.53286 26.6767 11.9833 23.9652C12.8549 23.0815 12.9943 21.7537 11.8228 21.2943C8.94068 20.1643 6.0702 21.3534 3.40217 19.367Z" fill="#EDEDED" stroke="#D2D2D2"/>
<path d="M19.8258 28.5399L19.3387 27L14.2689 29.1335C11.4978 30.3016 11.7778 32.6162 12.4523 35C15.1553 33.8582 21.0896 32.5638 19.8258 28.5399Z" fill="#EDEDED" stroke="#D2D2D2"/>
<path d="M19.8258 33.5399L19.3387 32L14.2689 34.1335C11.4978 35.3016 11.7778 37.6162 12.4523 40C15.1553 38.8582 21.0896 37.5638 19.8258 33.5399Z" fill="#EDEDED" stroke="#D2D2D2"/>
<path d="M19.8258 38.5399L19.3387 37L14.2689 39.1335C11.4978 40.3016 11.7778 42.6162 12.4523 45C15.1553 43.8582 21.0896 42.5638 19.8258 38.5399Z" fill="#EDEDED" stroke="#D2D2D2"/>
<path d="M19.8258 43.5399L19.3387 42L14.2689 44.1335C11.4978 45.3016 11.7778 47.6162 12.4523 50C15.1553 48.8582 21.0896 47.5638 19.8258 43.5399Z" fill="#EDEDED" stroke="#D2D2D2"/>
<path d="M19.8258 48.5399L19.3387 47L14.2689 49.1335C11.4978 50.3016 11.7778 52.6162 12.4523 55C15.1553 53.8582 21.0896 52.5638 19.8258 48.5399Z" fill="#EDEDED" stroke="#D2D2D2"/>
<path d="M19.8258 53.5399L19.3387 52L14.2689 54.1335C11.4978 55.3016 11.7778 57.6162 12.4523 60C15.1553 58.8582 21.0896 57.5638 19.8258 53.5399Z" fill="#EDEDED" stroke="#D2D2D2"/>
<path d="M19.8258 58.5399L19.3387 57L14.2689 59.1335C11.4978 60.3016 11.7778 62.6162 12.4523 65C15.1553 63.8582 21.0896 62.5638 19.8258 58.5399Z" fill="#EDEDED" stroke="#D2D2D2"/>
<path d="M19.8258 63.5399L19.3387 62L14.2689 64.1335C11.4978 65.3016 11.7778 67.6162 12.4523 70C15.1553 68.8582 21.0896 67.5638 19.8258 63.5399Z" fill="#EDEDED" stroke="#D2D2D2"/>
<path d="M19.8258 68.5399L19.3387 67L14.2689 69.1335C11.4978 70.3016 11.7778 72.6162 12.4523 75C15.1553 73.8582 21.0896 72.5638 19.8258 68.5399Z" fill="#EDEDED" stroke="#D2D2D2"/>
<path d="M19.8258 73.5399L19.3387 72L14.2689 74.1335C11.4978 75.3016 11.7778 77.6162 12.4523 80C15.1553 78.8582 21.0896 77.5638 19.8258 73.5399Z" fill="#EDEDED" stroke="#D2D2D2"/>
<path d="M19.8258 78.5399L19.3387 77L14.2689 79.1335C11.4978 80.3016 11.7778 82.6162 12.4523 85C15.1553 83.8582 21.0896 82.5638 19.8258 78.5399Z" fill="#EDEDED" stroke="#D2D2D2"/>
<path d="M19.8258 83.5399L19.3387 82L14.2689 84.1335C11.4978 85.3016 11.7778 87.6162 12.4523 90C15.1553 88.8582 21.0896 87.5638 19.8258 83.5399Z" fill="#EDEDED" stroke="#D2D2D2"/>
<path d="M19.8258 88.5399L19.3387 87L14.2689 89.1335C11.4978 90.3016 11.7778 92.6162 12.4523 95C15.1553 93.8582 21.0896 92.5638 19.8258 88.5399Z" fill="#EDEDED" stroke="#D2D2D2"/>
<path d="M19.8258 93.5399L19.3387 92L14.2689 94.1335C11.4978 95.3016 11.7778 97.6162 12.4523 100C15.1553 98.8582 21.0896 97.5638 19.8258 93.5399Z" fill="#EDEDED" stroke="#D2D2D2"/>
<path d="M19.8258 98.5399L19.3387 97L14.2689 99.1335C11.4978 100.302 11.7778 102.616 12.4523 105C15.1553 103.858 21.0896 102.564 19.8258 98.5399Z" fill="#EDEDED" stroke="#D2D2D2"/>
<path d="M19.8258 103.54L19.3387 102L14.2689 104.133C11.4978 105.302 11.7778 107.616 12.4523 110C15.1553 108.858 21.0896 107.564 19.8258 103.54Z" fill="#EDEDED" stroke="#D2D2D2"/>
<path d="M19.8258 108.54L19.3387 107L14.2689 109.133C11.4978 110.302 11.7778 112.616 12.4523 115C15.1553 113.858 21.0896 112.564 19.8258 108.54Z" fill="#EDEDED" stroke="#D2D2D2"/>
<path d="M19.8258 113.54L19.3387 112L14.2689 114.133C11.4978 115.302 11.7778 117.616 12.4523 120C15.1553 118.858 21.0896 117.564 19.8258 113.54Z" fill="#EDEDED" stroke="#D2D2D2"/>
<path d="M19.8258 118.54L19.3387 117L14.2689 119.133C11.4978 120.302 11.7778 122.616 12.4523 125C15.1553 123.858 21.0896 122.564 19.8258 118.54Z" fill="#EDEDED" stroke="#D2D2D2"/>
<path d="M19.8258 123.54L19.3387 122L14.2689 124.133C11.4978 125.302 11.7778 127.616 12.4523 130C15.1553 128.858 21.0896 127.564 19.8258 123.54Z" fill="#EDEDED" stroke="#D2D2D2"/>
<path d="M19.8258 128.54L19.3387 127L14.2689 129.133C11.4978 130.302 11.7778 132.616 12.4523 135C15.1553 133.858 21.0896 132.564 19.8258 128.54Z" fill="#EDEDED" stroke="#D2D2D2"/>
<path d="M19.8258 133.54L19.3387 132L14.2689 134.133C11.4978 135.302 11.7778 137.616 12.4523 140C15.1553 138.858 21.0896 137.564 19.8258 133.54Z" fill="#EDEDED" stroke="#D2D2D2"/>
<path d="M19.8258 138.54L19.3387 137L14.2689 139.133C11.4978 140.302 11.7778 142.616 12.4523 145C15.1553 143.858 21.0896 142.564 19.8258 138.54Z" fill="#EDEDED" stroke="#D2D2D2"/>
<path d="M19.8258 143.54L19.3387 142L14.2689 144.133C11.4978 145.302 11.7778 147.616 12.4523 150C15.1553 148.858 21.0896 147.564 19.8258 143.54Z" fill="#EDEDED" stroke="#D2D2D2"/>
<path d="M19.8258 148.54L19.3387 147L14.2689 149.133C11.4978 150.302 11.7778 152.616 12.4523 155C15.1553 153.858 21.0896 152.564 19.8258 148.54Z" fill="#EDEDED" stroke="#D2D2D2"/>
<path d="M19.8258 153.54L19.3387 152L14.2689 154.133C11.4978 155.302 11.7778 157.616 12.4523 160C15.1553 158.858 21.0896 157.564 19.8258 153.54Z" fill="#EDEDED" stroke="#D2D2D2"/>
<path d="M19.8258 158.54L19.3387 157L14.2689 159.133C11.4978 160.302 11.7778 162.616 12.4523 165C15.1553 163.858 21.0896 162.564 19.8258 158.54Z" fill="#EDEDED" stroke="#D2D2D2"/>
<path d="M19.8258 163.54L19.3387 162L14.2689 164.133C11.4978 165.302 11.7778 167.616 12.4523 170C15.1553 168.858 21.0896 167.564 19.8258 163.54Z" fill="#EDEDED" stroke="#D2D2D2"/>
<path d="M19.8258 168.54L19.3387 167L14.2689 169.133C11.4978 170.302 11.7778 172.616 12.4523 175C15.1553 173.858 21.0896 172.564 19.8258 168.54Z" fill="#EDEDED" stroke="#D2D2D2"/>
<path d="M19.8258 173.54L19.3387 172L14.2689 174.133C11.4978 175.302 11.7778 177.616 12.4523 180C15.1553 178.858 21.0896 177.564 19.8258 173.54Z" fill="#EDEDED" stroke="#D2D2D2"/>
<path d="M19.8258 178.54L19.3387 177L14.2689 179.133C11.4978 180.302 11.7778 182.616 12.4523 185C15.1553 183.858 21.0896 182.564 19.8258 178.54Z" fill="#EDEDED" stroke="#D2D2D2"/>
<path d="M19.8258 183.54L19.3387 182L14.2689 184.133C11.4978 185.302 11.7778 187.616 12.4523 190C15.1553 188.858 21.0896 187.564 19.8258 183.54Z" fill="#EDEDED" stroke="#D2D2D2"/>
<path d="M19.8258 188.54L19.3387 187L14.2689 189.133C11.4978 190.302 11.7778 192.616 12.4523 195C15.1553 193.858 21.0896 192.564 19.8258 188.54Z" fill="#EDEDED" stroke="#D2D2D2"/>
<path d="M19.8258 193.54L19.3387 192L14.2689 194.133C11.4978 195.302 11.7778 197.616 12.4523 200C15.1553 198.858 21.0896 197.564 19.8258 193.54Z" fill="#EDEDED" stroke="#D2D2D2"/>
<path d="M19.8258 198.54L19.3387 197L14.2689 199.133C11.4978 200.302 11.7778 202.616 12.4523 205C15.1553 203.858 21.0896 202.564 19.8258 198.54Z" fill="#EDEDED" stroke="#D2D2D2"/>
<path d="M19.8258 203.54L19.3387 202L14.2689 204.133C11.4978 205.302 11.7778 207.616 12.4523 210C15.1553 208.858 21.0896 207.564 19.8258 203.54Z" fill="#EDEDED" stroke="#D2D2D2"/>
<path d="M19.8258 208.54L19.3387 207L14.2689 209.133C11.4978 210.302 11.7778 212.616 12.4523 215C15.1553 213.858 21.0896 212.564 19.8258 208.54Z" fill="#EDEDED" stroke="#D2D2D2"/>
<path d="M19.8258 213.54L19.3387 212L14.2689 214.133C11.4978 215.302 11.7778 217.616 12.4523 220C15.1553 218.858 21.0896 217.564 19.8258 213.54Z" fill="#EDEDED" stroke="#D2D2D2"/>
<path d="M19.8258 218.54L19.3387 217L14.2689 219.133C11.4978 220.302 11.7778 222.616 12.4523 225C15.1553 223.858 21.0896 222.564 19.8258 218.54Z" fill="#EDEDED" stroke="#D2D2D2"/>
<path d="M19.8258 223.54L19.3387 222L14.2689 224.133C11.4978 225.302 11.7778 227.616 12.4523 230C15.1553 228.858 21.0896 227.564 19.8258 223.54Z" fill="#EDEDED" stroke="#D2D2D2"/>
<path d="M19.8258 228.54L19.3387 227L14.2689 229.133C11.4978 230.302 11.7778 232.616 12.4523 235C15.1553 233.858 21.0896 232.564 19.8258 228.54Z" fill="#EDEDED" stroke="#D2D2D2"/>
<path d="M19.8258 233.54L19.3387 232L14.2689 234.133C11.4978 235.302 11.7778 237.616 12.4523 240C15.1553 238.858 21.0896 237.564 19.8258 233.54Z" fill="#EDEDED" stroke="#D2D2D2"/>
<path d="M19.8258 238.54L19.3387 237L14.2689 239.133C11.4978 240.302 11.7778 242.616 12.4523 245C15.1553 243.858 21.0896 242.564 19.8258 238.54Z" fill="#EDEDED" stroke="#D2D2D2"/>
<path d="M19.8258 243.54L19.3387 242L14.2689 244.133C11.4978 245.302 11.7778 247.616 12.4523 250C15.1553 248.858 21.0896 247.564 19.8258 243.54Z" fill="#EDEDED" stroke="#D2D2D2"/>
<path d="M19.8258 248.54L19.3387 247L14.2689 249.133C11.4978 250.302 11.7778 252.616 12.4523 255C15.1553 253.858 21.0896 252.564 19.8258 248.54Z" fill="#EDEDED" stroke="#D2D2D2"/>
<path d="M19.8258 253.54L19.3387 252L14.2689 254.133C11.4978 255.302 11.7778 257.616 12.4523 260C15.1553 258.858 21.0896 257.564 19.8258 253.54Z" fill="#EDEDED" stroke="#D2D2D2"/>
<path d="M19.8258 258.54L19.3387 257L14.2689 259.133C11.4978 260.302 11.7778 262.616 12.4523 265C15.1553 263.858 21.0896 262.564 19.8258 258.54Z" fill="#EDEDED" stroke="#D2D2D2"/>
<path d="M19.8258 263.54L19.3387 262L14.2689 264.133C11.4978 265.302 11.7778 267.616 12.4523 270C15.1553 268.858 21.0896 267.564 19.8258 263.54Z" fill="#EDEDED" stroke="#D2D2D2"/>
<path d="M19.8258 268.54L19.3387 267L14.2689 269.133C11.4978 270.302 11.7778 272.616 12.4523 275C15.1553 273.858 21.0896 272.564 19.8258 268.54Z" fill="#EDEDED" stroke="#D2D2D2"/>
<path d="M19.8258 273.54L19.3387 272L14.2689 274.133C11.4978 275.302 11.7778 277.616 12.4523 280C15.1553 278.858 21.0896 277.564 19.8258 273.54Z" fill="#EDEDED" stroke="#D2D2D2"/>
<path d="M19.8258 278.54L19.3387 277L14.2689 279.133C11.4978 280.302 11.7778 282.616 12.4523 285C15.1553 283.858 21.0896 282.564 19.8258 278.54Z" fill="#EDEDED" stroke="#D2D2D2"/>
<path d="M19.8258 283.54L19.3387 282L14.2689 284.133C11.4978 285.302 11.7778 287.616 12.4523 290C15.1553 288.858 21.0896 287.564 19.8258 283.54Z" fill="#EDEDED" stroke="#D2D2D2"/>
<path d="M19.8258 288.54L19.3387 287L14.2689 289.133C11.4978 290.302 11.7778 292.616 12.4523 295C15.1553 293.858 21.0896 292.564 19.8258 288.54Z" fill="#EDEDED" stroke="#D2D2D2"/>
<path d="M19.8258 293.54L19.3387 292L14.2689 294.133C11.4978 295.302 11.7778 297.616 12.4523 300C15.1553 298.858 21.0896 297.564 19.8258 293.54Z" fill="#EDEDED" stroke="#D2D2D2"/>
<path d="M19.8258 298.54L19.3387 297L14.2689 299.133C11.4978 300.302 11.7778 302.616 12.4523 305C15.1553 303.858 21.0896 302.564 19.8258 298.54Z" fill="#EDEDED" stroke="#D2D2D2"/>
<path d="M19.8258 303.54L19.3387 302L14.2689 304.133C11.4978 305.302 11.7778 307.616 12.4523 310C15.1553 308.858 21.0896 307.564 19.8258 303.54Z" fill="#EDEDED" stroke="#D2D2D2"/>
<path d="M19.8258 308.54L19.3387 307L14.2689 309.133C11.4978 310.302 11.7778 312.616 12.4523 315C15.1553 313.858 21.0896 312.564 19.8258 308.54Z" fill="#EDEDED" stroke="#D2D2D2"/>
<path d="M19.8258 313.54L19.3387 312L14.2689 314.133C11.4978 315.302 11.7778 317.616 12.4523 320C15.1553 318.858 21.0896 317.564 19.8258 313.54Z" fill="#EDEDED" stroke="#D2D2D2"/>
<path d="M19.8258 318.54L19.3387 317L14.2689 319.133C11.4978 320.302 11.7778 322.616 12.4523 325C15.1553 323.858 21.0896 322.564 19.8258 318.54Z" fill="#EDEDED" stroke="#D2D2D2"/>
<path d="M19.8258 323.54L19.3387 322L14.2689 324.133C11.4978 325.302 11.7778 327.616 12.4523 330C15.1553 328.858 21.0896 327.564 19.8258 323.54Z" fill="#EDEDED" stroke="#D2D2D2"/>
<path d="M19.8258 328.54L19.3387 327L14.2689 329.133C11.4978 330.302 11.7778 332.616 12.4523 335C15.1553 333.858 21.0896 332.564 19.8258 328.54Z" fill="#EDEDED" stroke="#D2D2D2"/>
<path d="M17.7383 335.839C18.4811 336.085 19.2064 336.402 19.7887 336.707C20.3709 337.012 20.7208 337.273 20.7208 337.273C20.879 336.825 20.867 336.278 20.7213 335.78C19.6028 331.003 13.6017 331.818 12.1844 334.572C11.9989 334.932 11.911 335.192 11.911 335.192C12.7269 335.735 14.0598 336.875 14.5067 336.938C14.7392 336.982 14.8997 336.923 15.0868 336.854C15.9768 336.202 16.3993 335.395 17.7383 335.839Z" fill="#EDEDED" stroke="#D2D2D2"/>
<path d="M21.2212 341.162C23.05 339.672 23.0194 337.393 21.221 335.14C19.4227 332.888 15.6545 334.271 14.4234 338.198C15.2867 340.406 20.4147 339.269 21.2212 341.162Z" fill="#EDEDED" stroke="#D2D2D2"/>
<path d="M13.8091 333.958C13.8433 333.642 13.8775 333.358 13.9118 333.169C13.9802 332.979 13.9802 332.853 13.9802 332.853C13.2615 332.916 12.5771 333.263 11.9953 333.705C9.10091 336.06 10.6192 339.356 13.2616 341.151C13.9118 341.593 14.5962 341.845 15.1095 341.972C15.3491 342.035 15.5887 342.066 15.7256 342.098C15.8624 342.129 15.9651 342.129 15.9651 342.129C17.7473 339.096 13.6368 337.134 13.8091 333.958Z" fill="#EDEDED" stroke="#D2D2D2"/>
<path d="M15.4029 339.526C15.4029 339.526 15.3003 339.526 15.1634 339.491C15.0265 339.456 14.8212 339.421 14.5474 339.351C14.034 339.212 13.3496 338.899 12.6994 338.446C12.0491 337.993 11.4674 337.366 11.0567 336.843C10.646 336.321 10.4065 335.938 10.4065 335.938C9.96159 336.391 9.6536 336.983 9.51671 337.645C9.3456 338.306 9.34559 339.073 9.55092 339.839C9.72203 340.571 10.0985 341.302 10.6118 341.859C11.1252 342.417 11.7411 342.8 12.3571 342.974C12.3571 342.974 12.4598 343.009 12.6652 343.044C12.8705 343.079 13.1443 343.148 13.4865 343.183C14.1709 343.253 15.0265 343.218 15.8136 343.009C16.6007 342.8 17.1825 342.382 17.5589 341.999C17.73 341.825 17.8669 341.65 17.9354 341.546C18.0038 341.441 18.0723 341.372 18.0723 341.372C17.6616 340.536 17.6274 340.118 17.2852 339.874C16.9087 339.7 16.3269 339.63 15.4029 339.526Z" fill="#EDEDED" stroke="#D2D2D2"/>
<path d="M15.7562 340.209C15.7562 340.209 15.7036 340.265 15.5755 340.335C15.4802 340.415 15.2896 340.574 15.086 340.657C14.6492 340.922 13.9404 341.14 13.1276 341.107C12.3376 341.118 11.4862 340.855 10.8512 340.585C10.5337 340.451 10.2917 340.303 10.1051 340.209C9.9186 340.115 9.83031 340.051 9.83031 340.051C9.67408 340.695 9.70437 341.432 9.98376 342.174C10.2304 342.905 10.7262 343.641 11.4226 344.184C11.7658 344.472 12.1289 344.694 12.5446 344.859C12.7311 344.953 12.9276 345.013 13.1241 345.074C13.3205 345.135 13.5269 345.162 13.7334 345.19C14.1462 345.245 14.5134 345.213 14.8807 345.18C15.2251 345.105 15.5795 344.996 15.8783 344.834C15.8783 344.834 15.9737 344.754 16.1772 344.671C16.3479 344.578 16.5813 344.396 16.8573 344.19C17.3767 343.768 17.9557 343.146 18.3809 342.44C18.8061 341.734 19.0805 341.055 19.2396 340.521C19.3192 340.255 19.3561 340.011 19.3959 339.878C19.4029 339.735 19.4327 339.635 19.4327 339.635C18.5556 339.218 17.8581 339.038 17.33 339.13C16.7692 339.211 16.4107 339.574 15.7562 340.209Z" fill="#EDEDED" stroke="#D2D2D2"/>
<path d="M16.3002 339.173C16.3001 340.2 16.3954 341.193 16.1196 342.222C15.9143 343.023 15.5379 343.789 15.1614 344.347C14.9561 344.625 14.785 344.869 14.6481 345.009C14.5112 345.148 14.4085 345.252 14.4085 345.252C15.0245 345.566 15.7432 345.636 16.4619 345.566C17.1805 345.461 17.8992 345.218 18.481 344.8C21.4332 342.739 20.3472 339.558 18.841 337.984C17.631 337.291 16.6264 337.83 16.3002 339.173Z" fill="#EDEDED" stroke="#D2D2D2"/>
<path d="M19.4697 344.317C22.3127 343.513 22.7091 339.292 20.3758 337.833C18.0425 336.375 16.2925 338.125 16.2933 338.794C19.2107 339.347 20.3754 340.75 19.4697 344.317Z" fill="#EDEDED" stroke="#D2D2D2"/>
</g>
<defs>
<clipPath id="clip0_206_20288">
<rect width="32" height="346" fill="white"/>
</clipPath>
</defs>
</svg>
