<svg width="32" height="121" viewBox="0 0 32 121" fill="none" xmlns="http://www.w3.org/2000/svg">
<g clip-path="url(#clip0_206_20268)">
<path d="M9.45468 28.1369C9.96799 29.1537 10.8565 29.7832 11.9126 30.154C15.7208 31.4912 18.8606 27.7874 18.2322 24.2369C18.0717 23.0228 17.1217 22.1103 16.0546 22.7447C13.4293 24.3055 12.6175 27.2614 9.45468 28.1369Z" fill="#EDEDED" stroke="#D2D2D2"/>
<path d="M16.4413 29.8347C17.4374 30.387 18.5261 30.4081 19.6079 30.1211C23.5091 29.0861 24.0237 24.2578 21.5079 21.6748C20.6927 20.761 19.394 20.5403 18.8681 21.665C17.5744 24.4316 18.5648 27.3326 16.4413 29.8347Z" fill="#EDEDED" stroke="#D2D2D2"/>
<path d="M23.1671 27.3148C24.3014 27.2116 25.2137 26.617 25.947 25.7714C28.5915 22.7223 26.3027 18.44 22.77 17.718C21.582 17.4207 20.384 17.9682 20.5813 19.194C21.0667 22.2093 23.5167 24.0517 23.1671 27.3148Z" fill="#EDEDED" stroke="#D2D2D2"/>
<path d="M27.315 21.4487C28.1951 20.7256 28.6153 19.7211 28.7464 18.6095C29.2193 14.6011 24.919 12.3463 21.5915 13.7352C20.4419 14.1572 19.7589 15.2835 20.6112 16.1863C22.7078 18.4072 25.7697 18.5536 27.315 21.4487Z" fill="#EDEDED" stroke="#D2D2D2"/>
<path d="M27.4413 14.266C27.7627 13.1733 27.5454 12.1063 27.029 11.1132C25.1666 7.53242 20.3426 8.08517 18.3716 11.1045C17.658 12.0997 17.7264 13.4152 18.9387 13.6827C21.9212 14.3407 24.5357 12.7404 27.4413 14.266Z" fill="#EDEDED" stroke="#D2D2D2"/>
<path d="M6.53165 25.7024C6.70692 26.8278 7.35838 27.7003 8.24896 28.3783C11.4604 30.8232 15.5882 28.2662 16.0836 24.6947C16.3047 23.4902 15.682 22.3295 14.4713 22.6045C11.4929 23.281 9.81034 25.8433 6.53165 25.7024Z" fill="#EDEDED" stroke="#D2D2D2"/>
<path d="M19.8258 18.5399L19.3387 17L14.2689 19.1335C11.4978 20.3016 11.7778 22.6162 12.4523 25C15.1553 23.8582 21.0896 22.5638 19.8258 18.5399Z" fill="#EDEDED" stroke="#D2D2D2"/>
<path d="M19.8258 23.5399L19.3387 22L14.2689 24.1335C11.4978 25.3016 11.7778 27.6162 12.4523 30C15.1553 28.8582 21.0896 27.5638 19.8258 23.5399Z" fill="#EDEDED" stroke="#D2D2D2"/>
<path d="M37.0751 13.2178L39 13.8266L36.3331 20.1639C34.8731 23.6278 31.9797 23.2777 29 22.4346C30.4273 19.0559 32.0453 11.6381 37.0751 13.2178Z" fill="#EDEDED" stroke="#D2D2D2"/>
<path d="M31.0751 13.2178L33 13.8266L30.3331 20.1639C28.8731 23.6278 25.9797 23.2777 23 22.4346C24.4273 19.0559 26.0453 11.6381 31.0751 13.2178Z" fill="#EDEDED" stroke="#D2D2D2"/>
<path d="M25.0751 13.2178L27 13.8266L24.3331 20.1639C22.8731 23.6278 19.9797 23.2777 17 22.4346C18.4273 19.0559 20.0453 11.6381 25.0751 13.2178Z" fill="#EDEDED" stroke="#D2D2D2"/>
<path d="M19.0751 13.2178L21 13.8266L18.3331 20.1639C16.8731 23.6278 13.9797 23.2777 11 22.4346C12.4273 19.0559 14.0453 11.6381 19.0751 13.2178Z" fill="#EDEDED" stroke="#D2D2D2"/>
<path d="M13.0751 13.2178L15 13.8266L12.3331 20.1639C10.8731 23.6278 7.97974 23.2777 5 22.4346C6.42729 19.0559 8.04529 11.6381 13.0751 13.2178Z" fill="#EDEDED" stroke="#D2D2D2"/>
<path d="M23.6036 8.32146C23.2503 7.22239 22.4602 6.45177 21.4615 5.91365C17.86 3.97323 14.1312 7.18536 14.1994 10.8394C14.1684 12.0803 14.9753 13.144 16.1439 12.6774C19.0189 11.5295 20.2987 8.69833 23.6036 8.32146Z" fill="#EDEDED" stroke="#D2D2D2"/>
<path d="M16.8823 5.51795C15.9723 4.80761 14.8856 4.61445 13.7571 4.73091C9.68776 5.15084 8.40981 9.90353 10.5205 12.8872C11.1923 13.9308 12.4577 14.3569 13.1619 13.314C14.8942 10.7485 14.361 7.68755 16.8823 5.51795Z" fill="#EDEDED" stroke="#D2D2D2"/>
<path d="M9.74519 6.97871C8.59323 6.90286 7.58597 7.354 6.71814 8.08473C3.58878 10.7197 5.20375 15.3687 8.62662 16.6497C9.769 17.1351 11.055 16.7762 11.0511 15.5178C11.0415 12.4221 8.87971 10.1904 9.74519 6.97871Z" fill="#EDEDED" stroke="#D2D2D2"/>
<path d="M4.66921 12.1962C3.67388 12.7811 3.09448 13.7205 2.78757 14.8127C1.68088 18.7511 5.63005 21.688 9.18094 20.8231C10.3986 20.5823 11.2603 19.5625 10.5497 18.524C8.80141 15.9693 5.75901 15.3389 4.66921 12.1962Z" fill="#EDEDED" stroke="#D2D2D2"/>
<path d="M3.40217 19.367C2.90781 20.4103 2.95673 21.5129 3.31692 22.5887C4.61578 26.468 9.53286 26.6767 11.9833 23.9652C12.8549 23.0815 12.9943 21.7537 11.8228 21.2943C8.94068 20.1643 6.0702 21.3534 3.40217 19.367Z" fill="#EDEDED" stroke="#D2D2D2"/>
<path d="M19.8258 28.5399L19.3387 27L14.2689 29.1335C11.4978 30.3016 11.7778 32.6162 12.4523 35C15.1553 33.8582 21.0896 32.5638 19.8258 28.5399Z" fill="#EDEDED" stroke="#D2D2D2"/>
<path d="M19.8258 33.5399L19.3387 32L14.2689 34.1335C11.4978 35.3016 11.7778 37.6162 12.4523 40C15.1553 38.8582 21.0896 37.5638 19.8258 33.5399Z" fill="#EDEDED" stroke="#D2D2D2"/>
<path d="M19.8258 38.5399L19.3387 37L14.2689 39.1335C11.4978 40.3016 11.7778 42.6162 12.4523 45C15.1553 43.8582 21.0896 42.5638 19.8258 38.5399Z" fill="#EDEDED" stroke="#D2D2D2"/>
<path d="M19.8258 43.5399L19.3387 42L14.2689 44.1335C11.4978 45.3016 11.7778 47.6162 12.4523 50C15.1553 48.8582 21.0896 47.5638 19.8258 43.5399Z" fill="#EDEDED" stroke="#D2D2D2"/>
<path d="M19.8258 48.5399L19.3387 47L14.2689 49.1335C11.4978 50.3016 11.7778 52.6162 12.4523 55C15.1553 53.8582 21.0896 52.5638 19.8258 48.5399Z" fill="#EDEDED" stroke="#D2D2D2"/>
<path d="M19.8258 53.5399L19.3387 52L14.2689 54.1335C11.4978 55.3016 11.7778 57.6162 12.4523 60C15.1553 58.8582 21.0896 57.5638 19.8258 53.5399Z" fill="#EDEDED" stroke="#D2D2D2"/>
<path d="M19.8258 58.5399L19.3387 57L14.2689 59.1335C11.4978 60.3016 11.7778 62.6162 12.4523 65C15.1553 63.8582 21.0896 62.5638 19.8258 58.5399Z" fill="#EDEDED" stroke="#D2D2D2"/>
<path d="M19.8258 63.5399L19.3387 62L14.2689 64.1335C11.4978 65.3016 11.7778 67.6162 12.4523 70C15.1553 68.8582 21.0896 67.5638 19.8258 63.5399Z" fill="#EDEDED" stroke="#D2D2D2"/>
<path d="M19.8258 68.5399L19.3387 67L14.2689 69.1335C11.4978 70.3016 11.7778 72.6162 12.4523 75C15.1553 73.8582 21.0896 72.5638 19.8258 68.5399Z" fill="#EDEDED" stroke="#D2D2D2"/>
<path d="M19.8258 73.5399L19.3387 72L14.2689 74.1335C11.4978 75.3016 11.7778 77.6162 12.4523 80C15.1553 78.8582 21.0896 77.5638 19.8258 73.5399Z" fill="#EDEDED" stroke="#D2D2D2"/>
<path d="M19.8258 78.5399L19.3387 77L14.2689 79.1335C11.4978 80.3016 11.7778 82.6162 12.4523 85C15.1553 83.8582 21.0896 82.5638 19.8258 78.5399Z" fill="#EDEDED" stroke="#D2D2D2"/>
<path d="M19.8258 83.5399L19.3387 82L14.2689 84.1335C11.4978 85.3016 11.7778 87.6162 12.4523 90C15.1553 88.8582 21.0896 87.5638 19.8258 83.5399Z" fill="#EDEDED" stroke="#D2D2D2"/>
<path d="M19.8258 88.5399L19.3387 87L14.2689 89.1335C11.4978 90.3016 11.7778 92.6162 12.4523 95C15.1553 93.8582 21.0896 92.5638 19.8258 88.5399Z" fill="#EDEDED" stroke="#D2D2D2"/>
<path d="M19.8258 93.5399L19.3387 92L14.2689 94.1335C11.4978 95.3016 11.7778 97.6162 12.4523 100C15.1553 98.8582 21.0896 97.5638 19.8258 93.5399Z" fill="#EDEDED" stroke="#D2D2D2"/>
<path d="M19.8258 98.5399L19.3387 97L14.2689 99.1335C11.4978 100.302 11.7778 102.616 12.4523 105C15.1553 103.858 21.0896 102.564 19.8258 98.5399Z" fill="#EDEDED" stroke="#D2D2D2"/>
<path d="M19.8258 103.54L19.3387 102L14.2689 104.133C11.4978 105.302 11.7778 107.616 12.4523 110C15.1553 108.858 21.0896 107.564 19.8258 103.54Z" fill="#EDEDED" stroke="#D2D2D2"/>
<path d="M17.7383 110.839C18.4811 111.085 19.2064 111.402 19.7887 111.707C20.3709 112.012 20.7208 112.273 20.7208 112.273C20.879 111.825 20.867 111.278 20.7213 110.78C19.6028 106.003 13.6017 106.818 12.1844 109.572C11.9989 109.932 11.911 110.192 11.911 110.192C12.7269 110.735 14.0598 111.875 14.5067 111.938C14.7392 111.982 14.8997 111.923 15.0868 111.854C15.9768 111.202 16.3993 110.395 17.7383 110.839Z" fill="#EDEDED" stroke="#D2D2D2"/>
<path d="M21.2212 116.162C23.05 114.672 23.0194 112.393 21.221 110.14C19.4227 107.888 15.6545 109.271 14.4234 113.198C15.2867 115.406 20.4147 114.269 21.2212 116.162Z" fill="#EDEDED" stroke="#D2D2D2"/>
<path d="M13.8091 108.958C13.8433 108.642 13.8775 108.358 13.9118 108.169C13.9802 107.979 13.9802 107.853 13.9802 107.853C13.2615 107.916 12.5771 108.263 11.9953 108.705C9.10091 111.06 10.6192 114.356 13.2616 116.151C13.9118 116.593 14.5962 116.845 15.1095 116.972C15.3491 117.035 15.5887 117.066 15.7256 117.098C15.8624 117.129 15.9651 117.129 15.9651 117.129C17.7473 114.096 13.6368 112.134 13.8091 108.958Z" fill="#EDEDED" stroke="#D2D2D2"/>
<path d="M15.4029 114.526C15.4029 114.526 15.3003 114.526 15.1634 114.491C15.0265 114.456 14.8212 114.421 14.5474 114.351C14.034 114.212 13.3496 113.899 12.6994 113.446C12.0491 112.993 11.4674 112.366 11.0567 111.843C10.646 111.321 10.4065 110.938 10.4065 110.938C9.96159 111.391 9.6536 111.983 9.51671 112.645C9.3456 113.306 9.34559 114.073 9.55092 114.839C9.72203 115.571 10.0985 116.302 10.6118 116.859C11.1252 117.417 11.7411 117.8 12.3571 117.974C12.3571 117.974 12.4598 118.009 12.6652 118.044C12.8705 118.079 13.1443 118.148 13.4865 118.183C14.1709 118.253 15.0265 118.218 15.8136 118.009C16.6007 117.8 17.1825 117.382 17.5589 116.999C17.73 116.825 17.8669 116.65 17.9354 116.546C18.0038 116.441 18.0723 116.372 18.0723 116.372C17.6616 115.536 17.6274 115.118 17.2852 114.874C16.9087 114.7 16.3269 114.63 15.4029 114.526Z" fill="#EDEDED" stroke="#D2D2D2"/>
<path d="M15.7562 115.209C15.7562 115.209 15.7036 115.265 15.5755 115.335C15.4802 115.415 15.2896 115.574 15.086 115.657C14.6492 115.922 13.9404 116.14 13.1276 116.107C12.3376 116.118 11.4862 115.855 10.8512 115.585C10.5337 115.451 10.2917 115.303 10.1051 115.209C9.9186 115.115 9.83031 115.051 9.83031 115.051C9.67408 115.695 9.70437 116.432 9.98376 117.174C10.2304 117.905 10.7262 118.641 11.4226 119.184C11.7658 119.472 12.1289 119.694 12.5446 119.859C12.7311 119.953 12.9276 120.013 13.1241 120.074C13.3205 120.135 13.5269 120.162 13.7334 120.19C14.1462 120.245 14.5134 120.213 14.8807 120.18C15.2251 120.105 15.5795 119.996 15.8783 119.834C15.8783 119.834 15.9737 119.754 16.1772 119.671C16.3479 119.578 16.5813 119.396 16.8573 119.19C17.3767 118.768 17.9557 118.146 18.3809 117.44C18.8061 116.734 19.0805 116.055 19.2396 115.521C19.3192 115.255 19.3561 115.011 19.3959 114.878C19.4029 114.735 19.4327 114.635 19.4327 114.635C18.5556 114.218 17.8581 114.038 17.33 114.13C16.7692 114.211 16.4107 114.574 15.7562 115.209Z" fill="#EDEDED" stroke="#D2D2D2"/>
<path d="M16.3002 114.173C16.3001 115.2 16.3954 116.193 16.1196 117.222C15.9143 118.023 15.5379 118.789 15.1614 119.347C14.9561 119.625 14.785 119.869 14.6481 120.009C14.5112 120.148 14.4085 120.252 14.4085 120.252C15.0245 120.566 15.7432 120.636 16.4619 120.566C17.1805 120.461 17.8992 120.218 18.481 119.8C21.4332 117.739 20.3472 114.558 18.841 112.984C17.631 112.291 16.6264 112.83 16.3002 114.173Z" fill="#EDEDED" stroke="#D2D2D2"/>
<path d="M19.4697 119.317C22.3127 118.513 22.7091 114.292 20.3758 112.833C18.0425 111.375 16.2925 113.125 16.2933 113.794C19.2107 114.347 20.3754 115.75 19.4697 119.317Z" fill="#EDEDED" stroke="#D2D2D2"/>
</g>
<defs>
<clipPath id="clip0_206_20268">
<rect width="32" height="121" fill="white"/>
</clipPath>
</defs>
</svg>
