<svg width="60" height="47" viewBox="0 0 60 47" fill="none" xmlns="http://www.w3.org/2000/svg">
<path d="M30.5256 40.8468C31.7259 41.3522 32.9661 41.2424 34.1606 40.7831C38.4682 39.1268 38.4594 33.5749 35.282 30.9478C34.2428 30.0093 32.7394 29.9181 32.2799 31.2612C31.1494 34.5654 32.6319 37.7414 30.5256 40.8468Z" fill="#994DC5" stroke="#762CA2"/>
<path d="M37.0051 39.3698C38.3065 39.4183 39.4278 38.8773 40.383 38.0254C43.8271 34.9536 41.8568 29.7631 37.956 28.4286C36.6522 27.9179 35.2136 28.3639 35.2584 29.7828C35.3686 33.2733 37.8779 35.7204 37.0051 39.3698Z" fill="#994DC5" stroke="#762CA2"/>
<path d="M42.5456 35.6977C43.7802 35.2832 44.6379 34.3807 45.2303 33.2463C47.3666 29.1555 43.689 24.9963 39.5682 25.1265C38.1681 25.1096 36.98 26.0353 37.5234 27.3467C38.8601 30.573 42.0723 31.9753 42.5456 35.6977Z" fill="#994DC5" stroke="#762CA2"/>
<path d="M46.4308 30.3045C47.4392 29.4804 47.9227 28.333 48.0759 27.0624C48.6286 22.4807 43.7184 19.8896 39.9095 21.4678C38.5938 21.9468 37.8095 23.2326 38.7813 24.2674C41.172 26.813 44.6725 26.9896 46.4308 30.3045Z" fill="#994DC5" stroke="#762CA2"/>
<path d="M48.1609 23.8861C48.813 22.7588 48.8597 21.5146 48.554 20.2718C47.4517 15.7904 41.9427 15.102 38.9374 17.9244C37.8759 18.8375 37.5966 20.3175 38.8714 20.9421C42.0075 22.4785 45.3445 21.4065 48.1609 23.8861Z" fill="#994DC5" stroke="#762CA2"/>
<path d="M47.5063 17.2716C47.7179 15.9866 47.3219 14.8062 46.5967 13.7517C43.9817 9.94904 38.5849 11.252 36.7711 14.9545C36.1008 16.1838 36.3626 17.667 37.7759 17.8007C41.2526 18.1296 43.9954 15.9475 47.5063 17.2716Z" fill="#994DC5" stroke="#762CA2"/>
<path d="M44.5585 11.3142C44.3023 10.0373 43.5147 9.07304 42.4636 8.34286C38.6734 5.70984 34.0854 8.83611 33.6972 12.9406C33.5045 14.3275 34.2737 15.6225 35.643 15.2481C39.0116 14.3271 40.8061 11.3163 44.5585 11.3142Z" fill="#994DC5" stroke="#762CA2"/>
<path d="M39.6963 6.78253C39.0053 5.67862 37.9278 5.05493 36.6865 4.74334C32.2103 3.61977 29.0233 8.16579 30.1107 12.1426C30.4207 13.5081 31.5979 14.4476 32.7465 13.6135C35.5722 11.5614 36.1869 8.11069 39.6963 6.78253Z" fill="#994DC5" stroke="#762CA2"/>
<path d="M21.5079 38.9425C22.3153 39.9644 23.4545 40.4667 24.7224 40.6408C29.2945 41.2688 31.966 36.4019 30.4507 32.5676C29.9934 31.2441 28.7207 30.4388 27.67 31.3934C25.0854 33.7419 24.8513 37.239 21.5079 38.9425Z" fill="#994DC5" stroke="#762CA2"/>
<path d="M16.1795 34.969C16.5736 36.2102 17.4618 37.0827 18.5864 37.6937C22.6414 39.897 26.8606 36.2884 26.7982 32.166C26.8382 30.7664 25.9322 29.5632 24.612 30.0849C21.3641 31.3683 19.9091 34.557 16.1795 34.969Z" fill="#994DC5" stroke="#762CA2"/>
<path d="M35.2604 23.2024L34.5908 21.085L27.6198 24.0185C23.8095 25.6246 24.1945 28.8072 25.1219 32.085C28.8385 30.5149 36.9981 28.7351 35.2604 23.2024Z" fill="#994DC5" stroke="#762CA2"/>
<path d="M35.2604 30.2024L34.5908 28.085L27.6198 31.0185C23.8095 32.6246 24.1945 35.8072 25.1219 39.085C28.8385 37.5149 36.9981 35.7351 35.2604 30.2024Z" fill="#994DC5" stroke="#762CA2"/>
<path d="M35.2604 37.2024L34.5908 35.085L27.6198 38.0185C23.8095 39.6246 24.1945 42.8072 25.1219 46.085C28.8385 44.5149 36.9981 42.7351 35.2604 37.2024Z" fill="#994DC5" stroke="#762CA2"/>
<path d="M54.9201 14.3485L58 15.3225L53.733 25.4622C51.3969 31.0044 46.7676 30.4444 42 29.0954C44.2837 23.6895 46.8725 11.8209 54.9201 14.3485Z" fill="#D5C9BD" stroke="#988E82"/>
<path d="M44.9201 14.3485L48 15.3225L43.733 25.4622C41.3969 31.0044 36.7676 30.4444 32 29.0954C34.2837 23.6895 36.8725 11.8209 44.9201 14.3485Z" fill="#D5C9BD" stroke="#988E82"/>
<path d="M34.9201 14.3485L38 15.3225L33.733 25.4622C31.3969 31.0044 26.7676 30.4444 22 29.0954C24.2837 23.6895 26.8725 11.8209 34.9201 14.3485Z" fill="#D5C9BD" stroke="#988E82"/>
<path d="M24.9201 14.3485L28 15.3225L23.733 25.4622C21.3969 31.0044 16.7676 30.4444 12 29.0954C14.2837 23.6895 16.8725 11.8209 24.9201 14.3485Z" fill="#D5C9BD" stroke="#988E82"/>
<path d="M33.5445 4.2624C32.508 3.47393 31.2795 3.27133 30.0082 3.41855C25.4238 3.94945 24.0491 9.32846 26.4719 12.6643C27.2444 13.8321 28.6777 14.295 29.4574 13.1087C31.3754 10.1904 30.7309 6.74515 33.5445 4.2624Z" fill="#994DC5" stroke="#762CA2"/>
<path d="M26.8999 4.07927C25.6516 3.70801 24.4308 3.95264 23.2936 4.53968C19.1927 6.65652 19.8078 12.1742 23.2532 14.4386C24.3886 15.258 25.8929 15.1844 26.203 13.7991C26.9659 10.3913 25.1454 7.39616 26.8999 4.07927Z" fill="#994DC5" stroke="#762CA2"/>
<path d="M20.622 6.25456C19.323 6.34844 18.2675 7.00872 17.4111 7.9598C14.323 11.3894 16.8485 16.3336 20.8718 17.2342C22.2235 17.5994 23.6048 16.9989 23.4053 15.5934C22.9145 12.1359 20.1529 9.97748 20.622 6.25456Z" fill="#994DC5" stroke="#762CA2"/>
<path d="M15.5144 10.5103C14.3325 11.0572 13.5784 12.0479 13.1134 13.2402C11.4367 17.5399 15.5466 21.2725 19.6285 20.693C21.0221 20.5569 22.102 19.507 21.4186 18.2628C19.7376 15.2018 16.3914 14.1587 15.5144 10.5103Z" fill="#994DC5" stroke="#762CA2"/>
<path d="M12.2401 16.2953C11.3277 17.2246 10.9724 18.4179 10.9589 19.6976C10.9099 24.3124 16.0738 26.3516 19.6874 24.3669C20.943 23.7471 21.5822 22.3832 20.5032 21.4608C17.8488 19.1915 14.3499 19.3983 12.2401 16.2953Z" fill="#994DC5" stroke="#762CA2"/>
<path d="M11.2243 22.8646C10.6992 24.0564 10.7886 25.2982 11.2282 26.5002C12.8134 30.8344 18.3647 30.917 21.0437 27.7832C21.9992 26.7597 22.1151 25.258 20.7797 24.7764C17.4946 23.5917 14.2946 25.0217 11.2243 22.8646Z" fill="#994DC5" stroke="#762CA2"/>
<path d="M12.5936 29.369C12.5237 30.6694 13.0462 31.7995 13.8822 32.7685C16.8969 36.2628 22.1191 34.3781 23.5177 30.4998C24.0498 29.2046 23.6275 27.7588 22.2081 27.7803C18.7163 27.833 16.2282 30.3017 12.5936 29.369Z" fill="#994DC5" stroke="#762CA2"/>
</svg>
