<svg width="60" height="439" viewBox="0 0 60 439" fill="none" xmlns="http://www.w3.org/2000/svg">
<path d="M36.2168 3.50239L35.4254 1L27.187 4.46693C22.6839 6.36502 23.1389 10.1263 24.235 14C28.6273 12.1445 38.2705 10.0411 36.2168 3.50239Z" fill="#DD3434" stroke="#AF1E1E"/>
<path d="M36.2168 11.5024L35.4254 9L27.187 12.4669C22.6839 14.365 23.1389 18.1263 24.235 22C28.6273 20.1445 38.2705 18.0411 36.2168 11.5024Z" fill="#DD3434" stroke="#AF1E1E"/>
<path d="M36.2168 19.5024L35.4254 17L27.187 20.4669C22.6839 22.365 23.1389 26.1263 24.235 30C28.6273 28.1445 38.2705 26.0411 36.2168 19.5024Z" fill="#DD3434" stroke="#AF1E1E"/>
<path d="M36.2168 27.5024L35.4254 25L27.187 28.4669C22.6839 30.365 23.1389 34.1263 24.235 38C28.6273 36.1445 38.2705 34.0411 36.2168 27.5024Z" fill="#DD3434" stroke="#AF1E1E"/>
<path d="M36.2168 35.5024L35.4254 33L27.187 36.4669C22.6839 38.365 23.1389 42.1263 24.235 46C28.6273 44.1445 38.2705 42.0411 36.2168 35.5024Z" fill="#DD3434" stroke="#AF1E1E"/>
<path d="M36.2168 43.5024L35.4254 41L27.187 44.4669C22.6839 46.365 23.1389 50.1263 24.235 54C28.6273 52.1445 38.2705 50.0411 36.2168 43.5024Z" fill="#DD3434" stroke="#AF1E1E"/>
<path d="M36.2168 51.5024L35.4254 49L27.187 52.4669C22.6839 54.365 23.1389 58.1263 24.235 62C28.6273 60.1445 38.2705 58.0411 36.2168 51.5024Z" fill="#DD3434" stroke="#AF1E1E"/>
<path d="M36.0456 93.452C35.597 92.3057 34.6002 91.1594 33.3044 90.4617C32.0086 89.7141 30.5135 89.3652 29.0681 89.3652C22.5428 89.4777 20.1119 96.9353 21.8913 102.274C22.0408 102.722 22.1904 103.071 22.29 103.32C22.3897 103.569 22.4395 103.719 22.4395 103.719C24.0842 103.47 25.2305 103.171 25.9282 102.573C30.0917 99.45 29.427 93.452 36.0456 93.452Z" fill="#DD3434" stroke="#AF1E1E"/>
<path d="M41.6214 98.205C41.5446 96.9765 40.9458 95.5804 39.9252 94.5201C38.9198 93.4123 37.6028 92.6232 36.2266 92.1815C30.2519 90.377 24.3367 96.3974 26.484 102.147C35.9625 105.68 35.5165 96.2457 41.6214 98.205Z" fill="#DD3434" stroke="#AF1E1E"/>
<path d="M22.2864 94.1499C22.3861 93.9506 22.4858 93.7512 22.5356 93.5518C22.6851 93.2528 22.7848 93.0535 22.7848 93.0535C21.6883 92.8541 20.4424 93.0036 19.2961 93.502C18.1498 93.9506 17.0533 94.748 16.2559 95.6949C12.6562 100.195 15.0844 106.254 19.3459 109.45C19.5452 109.6 19.7945 109.75 19.9938 109.899C20.3925 110.148 20.6915 110.348 20.9407 110.447C21.1899 110.547 21.3394 110.597 21.3394 110.597C22.4857 109.401 23.1336 108.504 23.333 107.457C24.0136 102.919 21.0068 99.2683 22.2864 94.1499Z" fill="#DD3434" stroke="#AF1E1E"/>
<path d="M35.4948 102.124C35.4948 102.124 35.6443 102.074 35.8935 101.975C36.1427 101.875 36.4916 101.775 36.9402 101.725C37.8373 101.526 39.1331 101.526 40.4787 101.775C41.8244 102.025 43.2199 102.573 44.2167 103.071C44.7151 103.32 45.1138 103.57 45.4128 103.769C45.7118 103.968 45.8613 104.068 45.8613 104.068C46.26 103.021 46.3099 101.825 46.0607 100.629C45.8115 99.4329 45.2134 98.1869 44.3661 97.1901C43.5189 96.1435 42.4225 95.3461 41.2263 94.8477C40.0302 94.3493 38.7344 94.1998 37.5881 94.3992C37.5881 94.3992 37.3887 94.449 37.0398 94.4988C36.691 94.5985 36.1926 94.6982 35.6443 94.9474C35.0961 95.1467 34.4482 95.4458 33.8501 95.8445C33.2521 96.2432 32.7039 96.6917 32.2055 97.1901C31.2585 98.1869 30.8099 99.3831 30.6604 100.23C30.6106 100.679 30.6106 100.978 30.6604 101.227C30.7103 101.476 30.7103 101.576 30.7103 101.576C31.9064 102.423 32.355 103.071 32.7039 103.071C32.8534 103.071 33.2022 102.971 33.6009 102.772C34.2987 102.623 34.8968 102.373 35.4948 102.124Z" fill="#DD3434" stroke="#AF1E1E"/>
<path d="M36.2129 83.5024L35.4215 81L27.1831 84.4669C22.68 86.365 23.135 90.1263 24.2311 94C28.6234 92.1445 38.2666 90.0411 36.2129 83.5024Z" fill="#DD3434" stroke="#AF1E1E"/>
<path d="M36.2129 91.5024L35.4215 89L27.1831 92.4669C22.68 94.365 23.135 98.1263 24.2311 102C28.6234 100.145 38.2666 98.0411 36.2129 91.5024Z" fill="#DD3434" stroke="#AF1E1E"/>
<path d="M36.2129 99.5024L35.4215 97L27.1831 100.467C22.68 102.365 23.135 106.126 24.2311 110C28.6234 108.145 38.2666 106.041 36.2129 99.5024Z" fill="#DD3434" stroke="#AF1E1E"/>
<path d="M36.2129 107.502L35.4215 105L27.1831 108.467C22.68 110.365 23.135 114.126 24.2311 118C28.6234 116.145 38.2666 114.041 36.2129 107.502Z" fill="#DD3434" stroke="#AF1E1E"/>
<path d="M36.2129 115.502L35.4215 113L27.1831 116.467C22.68 118.365 23.135 122.126 24.2311 126C28.6234 124.145 38.2666 122.041 36.2129 115.502Z" fill="#DD3434" stroke="#AF1E1E"/>
<path d="M36.2129 123.502L35.4215 121L27.1831 124.467C22.68 126.365 23.135 130.126 24.2311 134C28.6234 132.145 38.2666 130.041 36.2129 123.502Z" fill="#DD3434" stroke="#AF1E1E"/>
<path d="M14.7621 102.872C14.6624 102.523 14.6126 102.374 14.6126 102.374C12.7187 103.47 11.4229 105.812 11.373 108.354C11.373 114.511 17.9912 117.9 23.5836 116.428C24.0321 116.329 24.381 116.229 24.6302 116.129C24.8794 116.029 25.0289 115.98 25.0289 115.98C24.6912 110.238 16.5082 108.983 14.7621 102.872Z" fill="#DD3434" stroke="#AF1E1E"/>
<path d="M25.0309 115.93C25.0309 115.93 24.8814 115.98 24.6322 116.079C24.383 116.179 24.0341 116.279 23.5856 116.378C22.6885 116.578 21.3927 116.727 19.9972 116.628C19.2995 116.578 18.6515 116.428 17.9538 116.229C17.3059 116.03 16.7078 115.78 16.1596 115.581C15.6612 115.332 15.2126 115.083 14.9136 114.933C14.6146 114.734 14.4152 114.634 14.4152 114.634C14.2657 115.182 14.2159 115.731 14.166 116.329C14.166 116.927 14.2657 117.525 14.465 118.173C14.6146 118.771 14.9136 119.369 15.2126 119.917C15.5117 120.465 15.9602 120.964 16.4088 121.462C16.8573 121.911 17.3557 122.309 17.9039 122.658C18.4522 123.007 19.0004 123.256 19.5985 123.456C20.1965 123.655 20.7448 123.755 21.3428 123.804C21.9409 123.854 22.4892 123.755 22.9876 123.655C22.9876 123.655 23.1869 123.605 23.4859 123.505C23.8348 123.406 24.2833 123.256 24.8316 123.107C25.8782 122.708 27.2238 122.06 28.3203 121.263C28.8685 120.864 29.3669 120.415 29.8155 120.017C30.264 119.568 30.6129 119.169 30.8621 118.771C31.4103 117.973 31.6595 117.475 31.6595 117.475C30.563 116.229 29.7158 115.531 28.719 115.332C27.7223 115.132 26.5759 115.332 25.0309 115.93Z" fill="#DD3434" stroke="#AF1E1E"/>
<path d="M31.6583 117.525C31.6583 117.525 31.4091 118.023 30.8609 118.821C30.5618 119.169 30.213 119.618 29.8142 120.066C29.3657 120.465 28.8673 120.914 28.3191 121.312C27.2226 122.11 25.877 122.758 24.8303 123.157C24.2821 123.356 23.8336 123.505 23.4847 123.555C23.1358 123.655 22.9863 123.655 22.9863 123.655C23.2355 124.153 23.5843 124.602 23.9332 125.001C24.3319 125.449 24.7805 125.798 25.2789 126.097C25.7773 126.446 26.3255 126.695 26.9236 126.894C27.5216 127.094 28.1197 127.193 28.7676 127.293C30.0136 127.393 31.3593 127.193 32.5056 126.745C33.6519 126.247 34.6486 125.549 35.2965 124.602C35.2965 124.602 35.3962 124.452 35.5956 124.153C35.7949 123.904 36.0441 123.406 36.2933 122.907C36.8415 121.911 37.3399 120.465 37.5393 119.12C37.7386 117.774 37.6888 116.478 37.4895 115.531C37.3898 115.083 37.2901 114.684 37.2403 114.435C37.1406 114.185 37.0907 114.036 37.0907 114.036C35.446 114.036 34.2998 114.136 33.5522 114.634C33.3528 114.734 33.2033 114.883 33.004 115.083C32.8544 115.232 32.7049 115.431 32.5554 115.681C32.4059 115.88 32.2563 116.179 32.1068 116.478C32.0071 116.827 31.8576 117.126 31.6583 117.525Z" fill="#DD3434" stroke="#AF1E1E"/>
<path d="M37.1868 114.135C37.1868 114.135 37.2366 114.285 37.3363 114.534C37.3861 114.783 37.4858 115.132 37.5855 115.631C37.735 116.528 37.8347 117.824 37.6353 119.219C37.436 120.565 36.9376 122.01 36.3894 123.007C36.1402 123.505 35.8412 123.954 35.6917 124.253C35.4923 124.552 35.3926 124.701 35.3926 124.701C35.6418 124.801 35.9408 124.901 36.2399 124.951C36.5389 125 36.8379 125 37.1369 125.05C37.436 125.05 37.735 125.05 38.0839 125.05C38.3829 125 38.682 124.951 38.981 124.901C40.1772 124.602 41.3733 124.004 42.37 123.156C43.3668 122.309 44.1144 121.213 44.563 120.116C45.0115 118.97 45.1611 117.774 44.9617 116.677C44.9617 116.677 44.9118 116.478 44.862 116.129C44.8121 115.78 44.6627 115.332 44.5131 114.783C44.1643 113.687 43.5662 112.341 42.7688 111.195C41.9713 110.049 40.9746 109.201 40.227 108.653C39.8283 108.404 39.5292 108.205 39.28 108.055C39.0308 107.906 38.9312 107.856 38.9312 107.856C37.7351 109.002 37.0373 109.849 36.8379 110.697C36.4392 111.444 36.6884 112.541 37.1868 114.135Z" fill="#DD3434" stroke="#AF1E1E"/>
<path d="M44.7142 116.029C44.764 116.378 44.8138 116.578 44.8138 116.578C45.8106 116.129 46.7078 115.282 47.4055 114.235C48.1033 113.189 48.5019 111.893 48.6016 110.597C48.7013 109.301 48.5019 107.956 48.0035 106.859C45.9306 102.091 42.9894 100.427 36.7663 101.647C35.5058 103.965 35.4441 104.866 35.8927 105.663C38.5979 109.871 43.6459 109.62 44.7142 116.029Z" fill="#DD3434" stroke="#AF1E1E"/>
<path d="M36.0456 69.452C35.597 68.3057 34.6002 67.1594 33.3044 66.4617C32.0086 65.7141 30.5135 65.3652 29.0681 65.3652C22.5428 65.4777 20.1119 72.9353 21.8913 78.2735C22.0408 78.7221 22.1904 79.071 22.29 79.3202C22.3897 79.5693 22.4395 79.7189 22.4395 79.7189C24.0842 79.4697 25.2305 79.1706 25.9282 78.5726C30.0917 75.45 29.427 69.452 36.0456 69.452Z" fill="#DD3434" stroke="#AF1E1E"/>
<path d="M41.6214 74.205C41.5446 72.9765 40.9458 71.5804 39.9252 70.5201C38.9198 69.4123 37.6028 68.6232 36.2266 68.1815C30.2519 66.377 24.3367 72.3974 26.484 78.1473C35.9625 81.6796 35.5165 72.2457 41.6214 74.205Z" fill="#DD3434" stroke="#AF1E1E"/>
<path d="M22.2864 70.1499C22.3861 69.9506 22.4858 69.7512 22.5356 69.5518C22.6851 69.2528 22.7848 69.0535 22.7848 69.0535C21.6883 68.8541 20.4424 69.0036 19.2961 69.502C18.1498 69.9506 17.0533 70.748 16.2559 71.6949C12.6562 76.1946 15.0844 82.2544 19.3459 85.4505C19.5452 85.6 19.7945 85.7495 19.9938 85.899C20.3925 86.1482 20.6915 86.3476 20.9407 86.4473C21.1899 86.5469 21.3394 86.5968 21.3394 86.5968C22.4857 85.4006 23.1336 84.5036 23.333 83.4569C24.0136 78.9194 21.0068 75.2683 22.2864 70.1499Z" fill="#DD3434" stroke="#AF1E1E"/>
<path d="M35.4948 78.1242C35.4948 78.1242 35.6443 78.0744 35.8935 77.9747C36.1427 77.875 36.4916 77.7753 36.9402 77.7255C37.8373 77.5261 39.1331 77.5261 40.4787 77.7753C41.8244 78.0245 43.2199 78.5727 44.2167 79.0711C44.7151 79.3203 45.1138 79.5695 45.4128 79.7689C45.7118 79.9682 45.8613 80.0679 45.8613 80.0679C46.26 79.0213 46.3099 77.8252 46.0607 76.629C45.8115 75.4329 45.2134 74.1869 44.3661 73.1901C43.5189 72.1435 42.4225 71.3461 41.2263 70.8477C40.0302 70.3493 38.7344 70.1998 37.5881 70.3992C37.5881 70.3992 37.3887 70.449 37.0398 70.4988C36.691 70.5985 36.1926 70.6982 35.6443 70.9474C35.0961 71.1467 34.4482 71.4458 33.8501 71.8445C33.2521 72.2432 32.7039 72.6917 32.2055 73.1901C31.2585 74.1869 30.8099 75.3831 30.6604 76.2303C30.6106 76.6789 30.6106 76.9779 30.6604 77.2271C30.7103 77.4763 30.7103 77.576 30.7103 77.576C31.9064 78.4232 32.355 79.0711 32.7039 79.0711C32.8534 79.0711 33.2022 78.9715 33.6009 78.7721C34.2987 78.6226 34.8968 78.3734 35.4948 78.1242Z" fill="#DD3434" stroke="#AF1E1E"/>
<path d="M36.2129 59.5024L35.4215 57L27.1831 60.4669C22.68 62.365 23.135 66.1263 24.2311 70C28.6234 68.1445 38.2666 66.0411 36.2129 59.5024Z" fill="#DD3434" stroke="#AF1E1E"/>
<path d="M36.2129 67.5024L35.4215 65L27.1831 68.4669C22.68 70.365 23.135 74.1263 24.2311 78C28.6234 76.1445 38.2666 74.0411 36.2129 67.5024Z" fill="#DD3434" stroke="#AF1E1E"/>
<path d="M36.2129 75.5024L35.4215 73L27.1831 76.4669C22.68 78.365 23.135 82.1263 24.2311 86C28.6234 84.1445 38.2666 82.0411 36.2129 75.5024Z" fill="#DD3434" stroke="#AF1E1E"/>
<path d="M36.2129 83.5024L35.4215 81L27.1831 84.4669C22.68 86.365 23.135 90.1263 24.2311 94C28.6234 92.1445 38.2666 90.0411 36.2129 83.5024Z" fill="#DD3434" stroke="#AF1E1E"/>
<path d="M36.2129 91.5024L35.4215 89L27.1831 92.4669C22.68 94.365 23.135 98.1263 24.2311 102C28.6234 100.145 38.2666 98.0411 36.2129 91.5024Z" fill="#DD3434" stroke="#AF1E1E"/>
<path d="M36.2129 99.5024L35.4215 97L27.1831 100.467C22.68 102.365 23.135 106.126 24.2311 110C28.6234 108.145 38.2666 106.041 36.2129 99.5024Z" fill="#DD3434" stroke="#AF1E1E"/>
<path d="M14.7621 78.872C14.6624 78.5231 14.6126 78.3736 14.6126 78.3736C12.7187 79.4701 11.4229 81.8125 11.373 84.3543C11.373 90.5111 17.9912 93.8999 23.5836 92.4282C24.0321 92.3285 24.381 92.2288 24.6302 92.1291C24.8794 92.0295 25.0289 91.9796 25.0289 91.9796C24.6912 86.2384 16.5082 84.9832 14.7621 78.872Z" fill="#DD3434" stroke="#AF1E1E"/>
<path d="M25.0309 91.9299C25.0309 91.9299 24.8814 91.9798 24.6322 92.0794C24.383 92.1791 24.0341 92.2788 23.5856 92.3785C22.6885 92.5778 21.3927 92.7273 19.9972 92.6277C19.2995 92.5778 18.6515 92.4283 17.9538 92.2289C17.3059 92.0296 16.7078 91.7804 16.1596 91.581C15.6612 91.3319 15.2126 91.0827 14.9136 90.9331C14.6146 90.7338 14.4152 90.6341 14.4152 90.6341C14.2657 91.1823 14.2159 91.7306 14.166 92.3286C14.166 92.9267 14.2657 93.5248 14.465 94.1727C14.6146 94.7707 14.9136 95.3688 15.2126 95.917C15.5117 96.4653 15.9602 96.9637 16.4088 97.462C16.8573 97.9106 17.3557 98.3093 17.9039 98.6582C18.4522 99.0071 19.0004 99.2562 19.5985 99.4556C20.1965 99.655 20.7448 99.7546 21.3428 99.8045C21.9409 99.8543 22.4892 99.7546 22.9876 99.655C22.9876 99.655 23.1869 99.6051 23.4859 99.5054C23.8348 99.4057 24.2833 99.2562 24.8316 99.1067C25.8782 98.708 27.2238 98.0601 28.3203 97.2627C28.8685 96.864 29.3669 96.4154 29.8155 96.0167C30.264 95.5681 30.6129 95.1694 30.8621 94.7707C31.4103 93.9733 31.6595 93.4749 31.6595 93.4749C30.563 92.2289 29.7158 91.5312 28.719 91.3319C27.7223 91.1325 26.5759 91.3319 25.0309 91.9299Z" fill="#DD3434" stroke="#AF1E1E"/>
<path d="M31.6583 93.5247C31.6583 93.5247 31.4091 94.0231 30.8609 94.8205C30.5618 95.1694 30.213 95.6179 29.8142 96.0665C29.3657 96.4652 28.8673 96.9137 28.3191 97.3125C27.2226 98.1099 25.877 98.7578 24.8303 99.1565C24.2821 99.3559 23.8336 99.5054 23.4847 99.5552C23.1358 99.6549 22.9863 99.6549 22.9863 99.6549C23.2355 100.153 23.5843 100.602 23.9332 101.001C24.3319 101.449 24.7805 101.798 25.2789 102.097C25.7773 102.446 26.3255 102.695 26.9236 102.894C27.5216 103.094 28.1197 103.193 28.7676 103.293C30.0136 103.393 31.3593 103.193 32.5056 102.745C33.6519 102.247 34.6486 101.549 35.2965 100.602C35.2965 100.602 35.3962 100.452 35.5956 100.153C35.7949 99.9041 36.0441 99.4057 36.2933 98.9073C36.8415 97.9105 37.3399 96.4652 37.5393 95.1195C37.7386 93.7739 37.6888 92.4781 37.4895 91.5311C37.3898 91.0826 37.2901 90.6839 37.2403 90.4347C37.1406 90.1855 37.0907 90.0359 37.0907 90.0359C35.446 90.0359 34.2998 90.1356 33.5522 90.634C33.3528 90.7337 33.2033 90.8832 33.004 91.0826C32.8544 91.2321 32.7049 91.4315 32.5554 91.6807C32.4059 91.88 32.2563 92.179 32.1068 92.4781C32.0071 92.8269 31.8576 93.126 31.6583 93.5247Z" fill="#DD3434" stroke="#AF1E1E"/>
<path d="M37.1868 90.1355C37.1868 90.1355 37.2366 90.285 37.3363 90.5342C37.3861 90.7834 37.4858 91.1323 37.5855 91.6306C37.735 92.5277 37.8347 93.8236 37.6353 95.2191C37.436 96.5647 36.9376 98.01 36.3894 99.0068C36.1402 99.5052 35.8412 99.9537 35.6917 100.253C35.4923 100.552 35.3926 100.701 35.3926 100.701C35.6418 100.801 35.9408 100.901 36.2399 100.951C36.5389 101 36.8379 101 37.1369 101.05C37.436 101.05 37.735 101.05 38.0839 101.05C38.3829 101 38.682 100.951 38.981 100.901C40.1772 100.602 41.3733 100.004 42.37 99.1563C43.3668 98.3091 44.1144 97.2126 44.563 96.1162C45.0115 94.9699 45.1611 93.7737 44.9617 92.6773C44.9617 92.6773 44.9118 92.4779 44.862 92.129C44.8121 91.7802 44.6627 91.3316 44.5131 90.7834C44.1643 89.6869 43.5662 88.3413 42.7688 87.195C41.9713 86.0487 40.9746 85.2014 40.227 84.6532C39.8283 84.404 39.5292 84.2046 39.28 84.0551C39.0308 83.9056 38.9312 83.8558 38.9312 83.8558C37.7351 85.0021 37.0373 85.8493 36.8379 86.6966C36.4392 87.4442 36.6884 88.5406 37.1868 90.1355Z" fill="#DD3434" stroke="#AF1E1E"/>
<path d="M44.7142 92.0295C44.764 92.3784 44.8138 92.5777 44.8138 92.5777C45.8106 92.1292 46.7078 91.2819 47.4055 90.2353C48.1033 89.1887 48.5019 87.8929 48.6016 86.5971C48.7013 85.3012 48.5019 83.9556 48.0035 82.8591C45.9306 78.0914 42.9894 76.4266 36.7663 77.6467C35.5058 79.9646 35.4441 80.8656 35.8927 81.663C38.5979 85.8712 43.6459 85.6198 44.7142 92.0295Z" fill="#DD3434" stroke="#AF1E1E"/>
<path d="M36.2168 131.502L35.4254 129L27.187 132.467C22.6839 134.365 23.1389 138.126 24.235 142C28.6273 140.145 38.2705 138.041 36.2168 131.502Z" fill="#DD3434" stroke="#AF1E1E"/>
<path d="M36.2168 139.502L35.4254 137L27.187 140.467C22.6839 142.365 23.1389 146.126 24.235 150C28.6273 148.145 38.2705 146.041 36.2168 139.502Z" fill="#DD3434" stroke="#AF1E1E"/>
<path d="M36.2168 147.502L35.4254 145L27.187 148.467C22.6839 150.365 23.1389 154.126 24.235 158C28.6273 156.145 38.2705 154.041 36.2168 147.502Z" fill="#DD3434" stroke="#AF1E1E"/>
<path d="M36.2168 155.502L35.4254 153L27.187 156.467C22.6839 158.365 23.1389 162.126 24.235 166C28.6273 164.145 38.2705 162.041 36.2168 155.502Z" fill="#DD3434" stroke="#AF1E1E"/>
<path d="M36.2168 163.502L35.4254 161L27.187 164.467C22.6839 166.365 23.1389 170.126 24.235 174C28.6273 172.145 38.2705 170.041 36.2168 163.502Z" fill="#DD3434" stroke="#AF1E1E"/>
<path d="M36.2168 171.502L35.4254 169L27.187 172.467C22.6839 174.365 23.1389 178.126 24.235 182C28.6273 180.145 38.2705 178.041 36.2168 171.502Z" fill="#DD3434" stroke="#AF1E1E"/>
<path d="M36.2168 179.502L35.4254 177L27.187 180.467C22.6839 182.365 23.1389 186.126 24.235 190C28.6273 188.145 38.2705 186.041 36.2168 179.502Z" fill="#DD3434" stroke="#AF1E1E"/>
<path d="M36.2168 187.502L35.4254 185L27.187 188.467C22.6839 190.365 23.1389 194.126 24.235 198C28.6273 196.145 38.2705 194.041 36.2168 187.502Z" fill="#DD3434" stroke="#AF1E1E"/>
<path d="M36.2168 195.502L35.4254 193L27.187 196.467C22.6839 198.365 23.1389 202.126 24.235 206C28.6273 204.145 38.2705 202.041 36.2168 195.502Z" fill="#DD3434" stroke="#AF1E1E"/>
<path d="M36.2168 203.502L35.4254 201L27.187 204.467C22.6839 206.365 23.1389 210.126 24.235 214C28.6273 212.145 38.2705 210.041 36.2168 203.502Z" fill="#DD3434" stroke="#AF1E1E"/>
<path d="M36.2168 211.502L35.4254 209L27.187 212.467C22.6839 214.365 23.1389 218.126 24.235 222C28.6273 220.145 38.2705 218.041 36.2168 211.502Z" fill="#DD3434" stroke="#AF1E1E"/>
<path d="M36.2168 219.502L35.4254 217L27.187 220.467C22.6839 222.365 23.1389 226.126 24.235 230C28.6273 228.145 38.2705 226.041 36.2168 219.502Z" fill="#DD3434" stroke="#AF1E1E"/>
<path d="M36.2168 227.502L35.4254 225L27.187 228.467C22.6839 230.365 23.1389 234.126 24.235 238C28.6273 236.145 38.2705 234.041 36.2168 227.502Z" fill="#DD3434" stroke="#AF1E1E"/>
<path d="M36.2168 235.502L35.4254 233L27.187 236.467C22.6839 238.365 23.1389 242.126 24.235 246C28.6273 244.145 38.2705 242.041 36.2168 235.502Z" fill="#DD3434" stroke="#AF1E1E"/>
<path d="M36.2168 243.502L35.4254 241L27.187 244.467C22.6839 246.365 23.1389 250.126 24.235 254C28.6273 252.145 38.2705 250.041 36.2168 243.502Z" fill="#DD3434" stroke="#AF1E1E"/>
<path d="M36.0456 285.452C35.597 284.306 34.6002 283.159 33.3044 282.462C32.0086 281.714 30.5135 281.365 29.0681 281.365C22.5428 281.478 20.1119 288.935 21.8913 294.274C22.0408 294.722 22.1904 295.071 22.29 295.32C22.3897 295.569 22.4395 295.719 22.4395 295.719C24.0842 295.47 25.2305 295.171 25.9282 294.573C30.0917 291.45 29.427 285.452 36.0456 285.452Z" fill="#DD3434" stroke="#AF1E1E"/>
<path d="M41.6214 290.205C41.5446 288.976 40.9458 287.58 39.9252 286.52C38.9198 285.412 37.6028 284.623 36.2266 284.182C30.2519 282.377 24.3367 288.397 26.484 294.147C35.9625 297.68 35.5165 288.246 41.6214 290.205Z" fill="#DD3434" stroke="#AF1E1E"/>
<path d="M22.2864 286.15C22.3861 285.951 22.4858 285.751 22.5356 285.552C22.6851 285.253 22.7848 285.053 22.7848 285.053C21.6883 284.854 20.4424 285.004 19.2961 285.502C18.1498 285.951 17.0533 286.748 16.2559 287.695C12.6562 292.195 15.0844 298.254 19.3459 301.45C19.5452 301.6 19.7945 301.75 19.9938 301.899C20.3925 302.148 20.6915 302.348 20.9407 302.447C21.1899 302.547 21.3394 302.597 21.3394 302.597C22.4857 301.401 23.1336 300.504 23.333 299.457C24.0136 294.919 21.0068 291.268 22.2864 286.15Z" fill="#DD3434" stroke="#AF1E1E"/>
<path d="M35.4948 294.124C35.4948 294.124 35.6443 294.074 35.8935 293.975C36.1427 293.875 36.4916 293.775 36.9402 293.725C37.8373 293.526 39.1331 293.526 40.4787 293.775C41.8244 294.025 43.2199 294.573 44.2167 295.071C44.7151 295.32 45.1138 295.57 45.4128 295.769C45.7118 295.968 45.8613 296.068 45.8613 296.068C46.26 295.021 46.3099 293.825 46.0607 292.629C45.8115 291.433 45.2134 290.187 44.3661 289.19C43.5189 288.144 42.4225 287.346 41.2263 286.848C40.0302 286.349 38.7344 286.2 37.5881 286.399C37.5881 286.399 37.3887 286.449 37.0398 286.499C36.691 286.599 36.1926 286.698 35.6443 286.947C35.0961 287.147 34.4482 287.446 33.8501 287.844C33.2521 288.243 32.7039 288.692 32.2055 289.19C31.2585 290.187 30.8099 291.383 30.6604 292.23C30.6106 292.679 30.6106 292.978 30.6604 293.227C30.7103 293.476 30.7103 293.576 30.7103 293.576C31.9064 294.423 32.355 295.071 32.7039 295.071C32.8534 295.071 33.2022 294.971 33.6009 294.772C34.2987 294.623 34.8968 294.373 35.4948 294.124Z" fill="#DD3434" stroke="#AF1E1E"/>
<path d="M36.2129 275.502L35.4215 273L27.1831 276.467C22.68 278.365 23.135 282.126 24.2311 286C28.6234 284.145 38.2666 282.041 36.2129 275.502Z" fill="#DD3434" stroke="#AF1E1E"/>
<path d="M36.2129 283.502L35.4215 281L27.1831 284.467C22.68 286.365 23.135 290.126 24.2311 294C28.6234 292.145 38.2666 290.041 36.2129 283.502Z" fill="#DD3434" stroke="#AF1E1E"/>
<path d="M36.2129 291.502L35.4215 289L27.1831 292.467C22.68 294.365 23.135 298.126 24.2311 302C28.6234 300.145 38.2666 298.041 36.2129 291.502Z" fill="#DD3434" stroke="#AF1E1E"/>
<path d="M36.2129 299.502L35.4215 297L27.1831 300.467C22.68 302.365 23.135 306.126 24.2311 310C28.6234 308.145 38.2666 306.041 36.2129 299.502Z" fill="#DD3434" stroke="#AF1E1E"/>
<path d="M36.2129 307.502L35.4215 305L27.1831 308.467C22.68 310.365 23.135 314.126 24.2311 318C28.6234 316.145 38.2666 314.041 36.2129 307.502Z" fill="#DD3434" stroke="#AF1E1E"/>
<path d="M36.2129 315.502L35.4215 313L27.1831 316.467C22.68 318.365 23.135 322.126 24.2311 326C28.6234 324.145 38.2666 322.041 36.2129 315.502Z" fill="#DD3434" stroke="#AF1E1E"/>
<path d="M14.7621 294.872C14.6624 294.523 14.6126 294.374 14.6126 294.374C12.7187 295.47 11.4229 297.812 11.373 300.354C11.373 306.511 17.9912 309.9 23.5836 308.428C24.0321 308.329 24.381 308.229 24.6302 308.129C24.8794 308.029 25.0289 307.98 25.0289 307.98C24.6912 302.238 16.5082 300.983 14.7621 294.872Z" fill="#DD3434" stroke="#AF1E1E"/>
<path d="M25.0309 307.93C25.0309 307.93 24.8814 307.98 24.6322 308.079C24.383 308.179 24.0341 308.279 23.5856 308.378C22.6885 308.578 21.3927 308.727 19.9972 308.628C19.2995 308.578 18.6515 308.428 17.9538 308.229C17.3059 308.03 16.7078 307.78 16.1596 307.581C15.6612 307.332 15.2126 307.083 14.9136 306.933C14.6146 306.734 14.4152 306.634 14.4152 306.634C14.2657 307.182 14.2159 307.731 14.166 308.329C14.166 308.927 14.2657 309.525 14.465 310.173C14.6146 310.771 14.9136 311.369 15.2126 311.917C15.5117 312.465 15.9602 312.964 16.4088 313.462C16.8573 313.911 17.3557 314.309 17.9039 314.658C18.4522 315.007 19.0004 315.256 19.5985 315.456C20.1965 315.655 20.7448 315.755 21.3428 315.804C21.9409 315.854 22.4892 315.755 22.9876 315.655C22.9876 315.655 23.1869 315.605 23.4859 315.505C23.8348 315.406 24.2833 315.256 24.8316 315.107C25.8782 314.708 27.2238 314.06 28.3203 313.263C28.8685 312.864 29.3669 312.415 29.8155 312.017C30.264 311.568 30.6129 311.169 30.8621 310.771C31.4103 309.973 31.6595 309.475 31.6595 309.475C30.563 308.229 29.7158 307.531 28.719 307.332C27.7223 307.132 26.5759 307.332 25.0309 307.93Z" fill="#DD3434" stroke="#AF1E1E"/>
<path d="M31.6583 309.525C31.6583 309.525 31.4091 310.023 30.8609 310.821C30.5618 311.169 30.213 311.618 29.8142 312.066C29.3657 312.465 28.8673 312.914 28.3191 313.312C27.2226 314.11 25.877 314.758 24.8303 315.157C24.2821 315.356 23.8336 315.505 23.4847 315.555C23.1358 315.655 22.9863 315.655 22.9863 315.655C23.2355 316.153 23.5843 316.602 23.9332 317.001C24.3319 317.449 24.7805 317.798 25.2789 318.097C25.7773 318.446 26.3255 318.695 26.9236 318.894C27.5216 319.094 28.1197 319.193 28.7676 319.293C30.0136 319.393 31.3593 319.193 32.5056 318.745C33.6519 318.247 34.6486 317.549 35.2965 316.602C35.2965 316.602 35.3962 316.452 35.5956 316.153C35.7949 315.904 36.0441 315.406 36.2933 314.907C36.8415 313.911 37.3399 312.465 37.5393 311.12C37.7386 309.774 37.6888 308.478 37.4895 307.531C37.3898 307.083 37.2901 306.684 37.2403 306.435C37.1406 306.185 37.0907 306.036 37.0907 306.036C35.446 306.036 34.2998 306.136 33.5522 306.634C33.3528 306.734 33.2033 306.883 33.004 307.083C32.8544 307.232 32.7049 307.431 32.5554 307.681C32.4059 307.88 32.2563 308.179 32.1068 308.478C32.0071 308.827 31.8576 309.126 31.6583 309.525Z" fill="#DD3434" stroke="#AF1E1E"/>
<path d="M37.1868 306.135C37.1868 306.135 37.2366 306.285 37.3363 306.534C37.3861 306.783 37.4858 307.132 37.5855 307.631C37.735 308.528 37.8347 309.824 37.6353 311.219C37.436 312.565 36.9376 314.01 36.3894 315.007C36.1402 315.505 35.8412 315.954 35.6917 316.253C35.4923 316.552 35.3926 316.701 35.3926 316.701C35.6418 316.801 35.9408 316.901 36.2399 316.951C36.5389 317 36.8379 317 37.1369 317.05C37.436 317.05 37.735 317.05 38.0839 317.05C38.3829 317 38.682 316.951 38.981 316.901C40.1772 316.602 41.3733 316.004 42.37 315.156C43.3668 314.309 44.1144 313.213 44.563 312.116C45.0115 310.97 45.1611 309.774 44.9617 308.677C44.9617 308.677 44.9118 308.478 44.862 308.129C44.8121 307.78 44.6627 307.332 44.5131 306.783C44.1643 305.687 43.5662 304.341 42.7688 303.195C41.9713 302.049 40.9746 301.201 40.227 300.653C39.8283 300.404 39.5292 300.205 39.28 300.055C39.0308 299.906 38.9312 299.856 38.9312 299.856C37.7351 301.002 37.0373 301.849 36.8379 302.697C36.4392 303.444 36.6884 304.541 37.1868 306.135Z" fill="#DD3434" stroke="#AF1E1E"/>
<path d="M44.7142 308.029C44.764 308.378 44.8138 308.578 44.8138 308.578C45.8106 308.129 46.7078 307.282 47.4055 306.235C48.1033 305.189 48.5019 303.893 48.6016 302.597C48.7013 301.301 48.5019 299.956 48.0035 298.859C45.9306 294.091 42.9894 292.427 36.7663 293.647C35.5058 295.965 35.4441 296.866 35.8927 297.663C38.5979 301.871 43.6459 301.62 44.7142 308.029Z" fill="#DD3434" stroke="#AF1E1E"/>
<path d="M36.0456 261.452C35.597 260.306 34.6002 259.159 33.3044 258.462C32.0086 257.714 30.5135 257.365 29.0681 257.365C22.5428 257.478 20.1119 264.935 21.8913 270.274C22.0408 270.722 22.1904 271.071 22.29 271.32C22.3897 271.569 22.4395 271.719 22.4395 271.719C24.0842 271.47 25.2305 271.171 25.9282 270.573C30.0917 267.45 29.427 261.452 36.0456 261.452Z" fill="#DD3434" stroke="#AF1E1E"/>
<path d="M41.6214 266.205C41.5446 264.976 40.9458 263.58 39.9252 262.52C38.9198 261.412 37.6028 260.623 36.2266 260.182C30.2519 258.377 24.3367 264.397 26.484 270.147C35.9625 273.68 35.5165 264.246 41.6214 266.205Z" fill="#DD3434" stroke="#AF1E1E"/>
<path d="M22.2864 262.15C22.3861 261.951 22.4858 261.751 22.5356 261.552C22.6851 261.253 22.7848 261.053 22.7848 261.053C21.6883 260.854 20.4424 261.004 19.2961 261.502C18.1498 261.951 17.0533 262.748 16.2559 263.695C12.6562 268.195 15.0844 274.254 19.3459 277.45C19.5452 277.6 19.7945 277.75 19.9938 277.899C20.3925 278.148 20.6915 278.348 20.9407 278.447C21.1899 278.547 21.3394 278.597 21.3394 278.597C22.4857 277.401 23.1336 276.504 23.333 275.457C24.0136 270.919 21.0068 267.268 22.2864 262.15Z" fill="#DD3434" stroke="#AF1E1E"/>
<path d="M35.4948 270.124C35.4948 270.124 35.6443 270.074 35.8935 269.975C36.1427 269.875 36.4916 269.775 36.9402 269.725C37.8373 269.526 39.1331 269.526 40.4787 269.775C41.8244 270.025 43.2199 270.573 44.2167 271.071C44.7151 271.32 45.1138 271.57 45.4128 271.769C45.7118 271.968 45.8613 272.068 45.8613 272.068C46.26 271.021 46.3099 269.825 46.0607 268.629C45.8115 267.433 45.2134 266.187 44.3661 265.19C43.5189 264.144 42.4225 263.346 41.2263 262.848C40.0302 262.349 38.7344 262.2 37.5881 262.399C37.5881 262.399 37.3887 262.449 37.0398 262.499C36.691 262.599 36.1926 262.698 35.6443 262.947C35.0961 263.147 34.4482 263.446 33.8501 263.844C33.2521 264.243 32.7039 264.692 32.2055 265.19C31.2585 266.187 30.8099 267.383 30.6604 268.23C30.6106 268.679 30.6106 268.978 30.6604 269.227C30.7103 269.476 30.7103 269.576 30.7103 269.576C31.9064 270.423 32.355 271.071 32.7039 271.071C32.8534 271.071 33.2022 270.971 33.6009 270.772C34.2987 270.623 34.8968 270.373 35.4948 270.124Z" fill="#DD3434" stroke="#AF1E1E"/>
<path d="M36.2129 251.502L35.4215 249L27.1831 252.467C22.68 254.365 23.135 258.126 24.2311 262C28.6234 260.145 38.2666 258.041 36.2129 251.502Z" fill="#DD3434" stroke="#AF1E1E"/>
<path d="M36.2129 259.502L35.4215 257L27.1831 260.467C22.68 262.365 23.135 266.126 24.2311 270C28.6234 268.145 38.2666 266.041 36.2129 259.502Z" fill="#DD3434" stroke="#AF1E1E"/>
<path d="M36.2129 267.502L35.4215 265L27.1831 268.467C22.68 270.365 23.135 274.126 24.2311 278C28.6234 276.145 38.2666 274.041 36.2129 267.502Z" fill="#DD3434" stroke="#AF1E1E"/>
<path d="M36.2129 275.502L35.4215 273L27.1831 276.467C22.68 278.365 23.135 282.126 24.2311 286C28.6234 284.145 38.2666 282.041 36.2129 275.502Z" fill="#DD3434" stroke="#AF1E1E"/>
<path d="M36.2129 283.502L35.4215 281L27.1831 284.467C22.68 286.365 23.135 290.126 24.2311 294C28.6234 292.145 38.2666 290.041 36.2129 283.502Z" fill="#DD3434" stroke="#AF1E1E"/>
<path d="M36.2129 291.502L35.4215 289L27.1831 292.467C22.68 294.365 23.135 298.126 24.2311 302C28.6234 300.145 38.2666 298.041 36.2129 291.502Z" fill="#DD3434" stroke="#AF1E1E"/>
<path d="M14.7621 270.872C14.6624 270.523 14.6126 270.374 14.6126 270.374C12.7187 271.47 11.4229 273.812 11.373 276.354C11.373 282.511 17.9912 285.9 23.5836 284.428C24.0321 284.329 24.381 284.229 24.6302 284.129C24.8794 284.029 25.0289 283.98 25.0289 283.98C24.6912 278.238 16.5082 276.983 14.7621 270.872Z" fill="#DD3434" stroke="#AF1E1E"/>
<path d="M25.0309 283.93C25.0309 283.93 24.8814 283.98 24.6322 284.079C24.383 284.179 24.0341 284.279 23.5856 284.378C22.6885 284.578 21.3927 284.727 19.9972 284.628C19.2995 284.578 18.6515 284.428 17.9538 284.229C17.3059 284.03 16.7078 283.78 16.1596 283.581C15.6612 283.332 15.2126 283.083 14.9136 282.933C14.6146 282.734 14.4152 282.634 14.4152 282.634C14.2657 283.182 14.2159 283.731 14.166 284.329C14.166 284.927 14.2657 285.525 14.465 286.173C14.6146 286.771 14.9136 287.369 15.2126 287.917C15.5117 288.465 15.9602 288.964 16.4088 289.462C16.8573 289.911 17.3557 290.309 17.9039 290.658C18.4522 291.007 19.0004 291.256 19.5985 291.456C20.1965 291.655 20.7448 291.755 21.3428 291.804C21.9409 291.854 22.4892 291.755 22.9876 291.655C22.9876 291.655 23.1869 291.605 23.4859 291.505C23.8348 291.406 24.2833 291.256 24.8316 291.107C25.8782 290.708 27.2238 290.06 28.3203 289.263C28.8685 288.864 29.3669 288.415 29.8155 288.017C30.264 287.568 30.6129 287.169 30.8621 286.771C31.4103 285.973 31.6595 285.475 31.6595 285.475C30.563 284.229 29.7158 283.531 28.719 283.332C27.7223 283.132 26.5759 283.332 25.0309 283.93Z" fill="#DD3434" stroke="#AF1E1E"/>
<path d="M31.6583 285.525C31.6583 285.525 31.4091 286.023 30.8609 286.821C30.5618 287.169 30.213 287.618 29.8142 288.066C29.3657 288.465 28.8673 288.914 28.3191 289.312C27.2226 290.11 25.877 290.758 24.8303 291.157C24.2821 291.356 23.8336 291.505 23.4847 291.555C23.1358 291.655 22.9863 291.655 22.9863 291.655C23.2355 292.153 23.5843 292.602 23.9332 293.001C24.3319 293.449 24.7805 293.798 25.2789 294.097C25.7773 294.446 26.3255 294.695 26.9236 294.894C27.5216 295.094 28.1197 295.193 28.7676 295.293C30.0136 295.393 31.3593 295.193 32.5056 294.745C33.6519 294.247 34.6486 293.549 35.2965 292.602C35.2965 292.602 35.3962 292.452 35.5956 292.153C35.7949 291.904 36.0441 291.406 36.2933 290.907C36.8415 289.911 37.3399 288.465 37.5393 287.12C37.7386 285.774 37.6888 284.478 37.4895 283.531C37.3898 283.083 37.2901 282.684 37.2403 282.435C37.1406 282.185 37.0907 282.036 37.0907 282.036C35.446 282.036 34.2998 282.136 33.5522 282.634C33.3528 282.734 33.2033 282.883 33.004 283.083C32.8544 283.232 32.7049 283.431 32.5554 283.681C32.4059 283.88 32.2563 284.179 32.1068 284.478C32.0071 284.827 31.8576 285.126 31.6583 285.525Z" fill="#DD3434" stroke="#AF1E1E"/>
<path d="M37.1868 282.135C37.1868 282.135 37.2366 282.285 37.3363 282.534C37.3861 282.783 37.4858 283.132 37.5855 283.631C37.735 284.528 37.8347 285.824 37.6353 287.219C37.436 288.565 36.9376 290.01 36.3894 291.007C36.1402 291.505 35.8412 291.954 35.6917 292.253C35.4923 292.552 35.3926 292.701 35.3926 292.701C35.6418 292.801 35.9408 292.901 36.2399 292.951C36.5389 293 36.8379 293 37.1369 293.05C37.436 293.05 37.735 293.05 38.0839 293.05C38.3829 293 38.682 292.951 38.981 292.901C40.1772 292.602 41.3733 292.004 42.37 291.156C43.3668 290.309 44.1144 289.213 44.563 288.116C45.0115 286.97 45.1611 285.774 44.9617 284.677C44.9617 284.677 44.9118 284.478 44.862 284.129C44.8121 283.78 44.6627 283.332 44.5131 282.783C44.1643 281.687 43.5662 280.341 42.7688 279.195C41.9713 278.049 40.9746 277.201 40.227 276.653C39.8283 276.404 39.5292 276.205 39.28 276.055C39.0308 275.906 38.9312 275.856 38.9312 275.856C37.7351 277.002 37.0373 277.849 36.8379 278.697C36.4392 279.444 36.6884 280.541 37.1868 282.135Z" fill="#DD3434" stroke="#AF1E1E"/>
<path d="M44.7142 284.029C44.764 284.378 44.8138 284.578 44.8138 284.578C45.8106 284.129 46.7078 283.282 47.4055 282.235C48.1033 281.189 48.5019 279.893 48.6016 278.597C48.7013 277.301 48.5019 275.956 48.0035 274.859C45.9306 270.091 42.9894 268.427 36.7663 269.647C35.5058 271.965 35.4441 272.866 35.8927 273.663C38.5979 277.871 43.6459 277.62 44.7142 284.029Z" fill="#DD3434" stroke="#AF1E1E"/>
<path d="M36.2168 323.502L35.4254 321L27.187 324.467C22.6839 326.365 23.1389 330.126 24.235 334C28.6273 332.145 38.2705 330.041 36.2168 323.502Z" fill="#DD3434" stroke="#AF1E1E"/>
<path d="M36.2168 331.502L35.4254 329L27.187 332.467C22.6839 334.365 23.1389 338.126 24.235 342C28.6273 340.145 38.2705 338.041 36.2168 331.502Z" fill="#DD3434" stroke="#AF1E1E"/>
<path d="M36.2168 339.502L35.4254 337L27.187 340.467C22.6839 342.365 23.1389 346.126 24.235 350C28.6273 348.145 38.2705 346.041 36.2168 339.502Z" fill="#DD3434" stroke="#AF1E1E"/>
<path d="M36.2168 347.502L35.4254 345L27.187 348.467C22.6839 350.365 23.1389 354.126 24.235 358C28.6273 356.145 38.2705 354.041 36.2168 347.502Z" fill="#DD3434" stroke="#AF1E1E"/>
<path d="M36.2168 355.502L35.4254 353L27.187 356.467C22.6839 358.365 23.1389 362.126 24.235 366C28.6273 364.145 38.2705 362.041 36.2168 355.502Z" fill="#DD3434" stroke="#AF1E1E"/>
<path d="M36.2168 363.502L35.4254 361L27.187 364.467C22.6839 366.365 23.1389 370.126 24.235 374C28.6273 372.145 38.2705 370.041 36.2168 363.502Z" fill="#DD3434" stroke="#AF1E1E"/>
<path d="M36.2168 371.502L35.4254 369L27.187 372.467C22.6839 374.365 23.1389 378.126 24.235 382C28.6273 380.145 38.2705 378.041 36.2168 371.502Z" fill="#DD3434" stroke="#AF1E1E"/>
<path d="M36.2168 379.502L35.4254 377L27.187 380.467C22.6839 382.365 23.1389 386.126 24.235 390C28.6273 388.145 38.2705 386.041 36.2168 379.502Z" fill="#DD3434" stroke="#AF1E1E"/>
<path d="M36.2168 387.502L35.4254 385L27.187 388.467C22.6839 390.365 23.1389 394.126 24.235 398C28.6273 396.145 38.2705 394.041 36.2168 387.502Z" fill="#DD3434" stroke="#AF1E1E"/>
<path d="M23.0071 420.328C22.6967 425.337 22.076 430.336 21.1054 435.28C21.1054 435.317 21.0941 435.335 21.0941 435.353C20.5607 437.959 22.3912 437.752 24.1696 437.752C25.2362 433.387 26.1278 427.322 26.2181 421.992C26.2181 421.992 26.7824 427.009 25.3377 435.942C25.4167 436.511 25.5296 437.191 25.7384 437.752H27.5668C28.2665 431.282 28.7462 423.609 28.8139 416.312C28.8478 417.434 29.0961 425.41 28.0859 437.752H31.1107L31.4888 436.383L31.7766 435.381C31.7709 435.372 31.7709 435.353 31.7709 435.335C31.5395 432.054 31.3985 429.178 31.3025 426.706C31.0373 419.841 31.2292 416.184 31.2292 416.184C31.28 423.379 31.7483 430.942 32.4481 438L35.0044 437.752C33.2438 427.882 33.7799 422.341 33.8194 422.001C33.9435 429.187 35.3035 435.409 35.9356 437.963L37.8824 437.752C38.6443 437.743 39.1804 436.539 38.9434 435.326C37.9671 430.373 37.3407 425.346 37.036 420.328C36.2299 408.515 23.9939 404.729 23.0071 420.328Z" fill="#DD3434" stroke="#AF1E1E"/>
<path d="M36.2168 395.502L35.4254 393L27.187 396.467C22.6839 398.365 23.1389 402.126 24.235 406C28.6273 404.145 38.2705 402.041 36.2168 395.502Z" fill="#DD3434" stroke="#AF1E1E"/>
<path d="M32.7314 404.032C33.8986 404.419 35.0383 404.918 35.9533 405.397C36.8684 405.877 37.4181 406.286 37.4181 406.286C37.6668 405.583 37.6479 404.722 37.4189 403.939C35.6612 396.433 26.231 397.714 24.0038 402.041C23.7123 402.608 23.5742 403.016 23.5742 403.016C24.8563 403.87 26.9508 405.661 27.6532 405.759C28.0185 405.829 28.2706 405.736 28.5648 405.628C29.9633 404.603 30.6271 403.335 32.7314 404.032Z" fill="#DD3434" stroke="#AF1E1E"/>
<path d="M38.2047 412.398C41.0786 410.057 41.0304 406.474 38.2045 402.935C35.3785 399.395 29.4571 401.569 27.5224 407.741C28.879 411.21 36.9374 409.423 38.2047 412.398Z" fill="#DD3434" stroke="#AF1E1E"/>
<path d="M26.5588 401.076C26.6126 400.58 26.6664 400.134 26.7202 399.837C26.8277 399.539 26.8277 399.341 26.8277 399.341C25.6984 399.44 24.6228 399.985 23.7086 400.68C19.1602 404.38 21.5462 409.56 25.6984 412.381C26.7202 413.075 27.7957 413.471 28.6024 413.67C28.9788 413.769 29.3553 413.819 29.5704 413.868C29.7855 413.918 29.9468 413.918 29.9468 413.918C32.7474 409.151 26.2881 406.068 26.5588 401.076Z" fill="#DD3434" stroke="#AF1E1E"/>
<path d="M29.0622 409.826C29.0622 409.826 28.9008 409.826 28.6857 409.771C28.4706 409.717 28.148 409.662 27.7177 409.552C26.9111 409.333 25.8355 408.841 24.8137 408.129C23.7919 407.418 22.8777 406.432 22.2324 405.611C21.5871 404.79 21.2106 404.188 21.2106 404.188C20.5115 404.9 20.0275 405.83 19.8124 406.87C19.5435 407.91 19.5435 409.114 19.8662 410.319C20.135 411.468 20.7266 412.618 21.5333 413.494C22.34 414.369 23.3079 414.971 24.2759 415.245C24.2759 415.245 24.4373 415.3 24.76 415.355C25.0826 415.409 25.5128 415.519 26.0506 415.574C27.1262 415.683 28.4706 415.628 29.7075 415.3C30.9444 414.971 31.8586 414.315 32.4502 413.712C32.7191 413.439 32.9342 413.165 33.0417 413.001C33.1493 412.837 33.2568 412.727 33.2568 412.727C32.6115 411.413 32.5577 410.757 32.02 410.373C31.4284 410.1 30.5142 409.99 29.0622 409.826Z" fill="#DD3434" stroke="#AF1E1E"/>
<path d="M29.6174 410.9C29.6174 410.9 29.5346 410.989 29.3334 411.098C29.1836 411.223 28.884 411.474 28.5642 411.604C27.8777 412.021 26.7639 412.363 25.4867 412.311C24.2452 412.328 22.9073 411.914 21.9095 411.491C21.4105 411.28 21.0302 411.048 20.737 410.9C20.4439 410.752 20.3052 410.652 20.3052 410.652C20.0597 411.663 20.1073 412.822 20.5463 413.988C20.9339 415.137 21.713 416.293 22.8073 417.147C23.3466 417.599 23.9172 417.947 24.5705 418.207C24.8636 418.354 25.1724 418.45 25.4811 418.545C25.7898 418.641 26.1142 418.684 26.4386 418.727C27.0873 418.813 27.6644 418.763 28.2415 418.712C28.7827 418.594 29.3396 418.422 29.8092 418.167C29.8092 418.167 29.959 418.042 30.2788 417.912C30.5472 417.766 30.9139 417.479 31.3476 417.155C32.1637 416.492 33.0736 415.515 33.7418 414.406C34.41 413.297 34.8412 412.229 35.0912 411.391C35.2163 410.972 35.2742 410.589 35.3368 410.38C35.3478 410.154 35.3947 409.997 35.3947 409.997C34.0164 409.342 32.9202 409.061 32.0904 409.204C31.2092 409.332 30.6458 409.902 29.6174 410.9Z" fill="#DD3434" stroke="#AF1E1E"/>
<path d="M30.472 409.271C30.4718 410.885 30.6217 412.446 30.1883 414.063C29.8656 415.322 29.2741 416.526 28.6825 417.402C28.3598 417.84 28.0909 418.223 27.8758 418.442C27.6607 418.661 27.4994 418.825 27.4994 418.825C28.4674 419.318 29.5967 419.427 30.726 419.318C31.8554 419.154 32.9847 418.771 33.899 418.114C38.5382 414.876 36.8316 409.877 34.4647 407.403C32.5632 406.314 30.9847 407.162 30.472 409.271Z" fill="#DD3434" stroke="#AF1E1E"/>
<path d="M35.4512 417.355C39.9189 416.092 40.5418 409.458 36.8751 407.166C33.2085 404.875 30.4585 407.625 30.4598 408.676C35.0443 409.546 36.8745 411.75 35.4512 417.355Z" fill="#DD3434" stroke="#AF1E1E"/>
</svg>
