<svg width="60" height="471" viewBox="0 0 60 471" fill="none" xmlns="http://www.w3.org/2000/svg">
<path d="M36.2168 3.50239L35.4254 1L27.187 4.46693C22.6839 6.36502 23.1389 10.1263 24.235 14C28.6273 12.1445 38.2705 10.0411 36.2168 3.50239Z" fill="#52A5CE" stroke="#2779A3"/>
<path d="M36.2168 11.5024L35.4254 9L27.187 12.4669C22.6839 14.365 23.1389 18.1263 24.235 22C28.6273 20.1445 38.2705 18.0411 36.2168 11.5024Z" fill="#52A5CE" stroke="#2779A3"/>
<path d="M36.2168 19.5024L35.4254 17L27.187 20.4669C22.6839 22.365 23.1389 26.1263 24.235 30C28.6273 28.1445 38.2705 26.0411 36.2168 19.5024Z" fill="#52A5CE" stroke="#2779A3"/>
<path d="M36.2168 27.5024L35.4254 25L27.187 28.4669C22.6839 30.365 23.1389 34.1263 24.235 38C28.6273 36.1445 38.2705 34.0411 36.2168 27.5024Z" fill="#52A5CE" stroke="#2779A3"/>
<path d="M36.2168 35.5024L35.4254 33L27.187 36.4669C22.6839 38.365 23.1389 42.1263 24.235 46C28.6273 44.1445 38.2705 42.0411 36.2168 35.5024Z" fill="#52A5CE" stroke="#2779A3"/>
<path d="M36.2168 43.5024L35.4254 41L27.187 44.4669C22.6839 46.365 23.1389 50.1263 24.235 54C28.6273 52.1445 38.2705 50.0411 36.2168 43.5024Z" fill="#52A5CE" stroke="#2779A3"/>
<path d="M36.0456 61.452C35.597 60.3057 34.6002 59.1594 33.3044 58.4617C32.0086 57.7141 30.5135 57.3652 29.0681 57.3652C22.5428 57.4777 20.1119 64.9353 21.8913 70.2735C22.0408 70.7221 22.1904 71.071 22.29 71.3202C22.3897 71.5693 22.4395 71.7189 22.4395 71.7189C24.0842 71.4697 25.2305 71.1706 25.9282 70.5726C30.0917 67.45 29.427 61.452 36.0456 61.452Z" fill="#52A5CE" stroke="#2779A3"/>
<path d="M41.6214 66.205C41.5446 64.9765 40.9458 63.5804 39.9252 62.5201C38.9198 61.4123 37.6028 60.6232 36.2266 60.1815C30.2519 58.377 24.3367 64.3974 26.484 70.1473C35.9625 73.6796 35.5165 64.2457 41.6214 66.205Z" fill="#52A5CE" stroke="#2779A3"/>
<path d="M22.2864 62.1499C22.3861 61.9506 22.4858 61.7512 22.5356 61.5518C22.6851 61.2528 22.7848 61.0535 22.7848 61.0535C21.6883 60.8541 20.4424 61.0036 19.2961 61.502C18.1498 61.9506 17.0533 62.748 16.2559 63.6949C12.6562 68.1946 15.0844 74.2544 19.3459 77.4505C19.5452 77.6 19.7945 77.7495 19.9938 77.899C20.3925 78.1482 20.6915 78.3476 20.9407 78.4473C21.1899 78.5469 21.3394 78.5968 21.3394 78.5968C22.4857 77.4006 23.1336 76.5036 23.333 75.4569C24.0136 70.9194 21.0068 67.2683 22.2864 62.1499Z" fill="#52A5CE" stroke="#2779A3"/>
<path d="M35.4948 70.1242C35.4948 70.1242 35.6443 70.0744 35.8935 69.9747C36.1427 69.875 36.4916 69.7753 36.9402 69.7255C37.8373 69.5261 39.1331 69.5261 40.4787 69.7753C41.8244 70.0245 43.2199 70.5727 44.2167 71.0711C44.7151 71.3203 45.1138 71.5695 45.4128 71.7689C45.7118 71.9682 45.8613 72.0679 45.8613 72.0679C46.26 71.0213 46.3099 69.8252 46.0607 68.629C45.8115 67.4329 45.2134 66.1869 44.3661 65.1901C43.5189 64.1435 42.4225 63.3461 41.2263 62.8477C40.0302 62.3493 38.7344 62.1998 37.5881 62.3992C37.5881 62.3992 37.3887 62.449 37.0398 62.4988C36.691 62.5985 36.1926 62.6982 35.6443 62.9474C35.0961 63.1467 34.4482 63.4458 33.8501 63.8445C33.2521 64.2432 32.7039 64.6917 32.2055 65.1901C31.2585 66.1869 30.8099 67.3831 30.6604 68.2303C30.6106 68.6789 30.6106 68.9779 30.6604 69.2271C30.7103 69.4763 30.7103 69.576 30.7103 69.576C31.9064 70.4232 32.355 71.0711 32.7039 71.0711C32.8534 71.0711 33.2022 70.9715 33.6009 70.7721C34.2987 70.6226 34.8968 70.3734 35.4948 70.1242Z" fill="#52A5CE" stroke="#2779A3"/>
<path d="M36.2129 51.5024L35.4215 49L27.1831 52.4669C22.68 54.365 23.135 58.1263 24.2311 62C28.6234 60.1445 38.2666 58.0411 36.2129 51.5024Z" fill="#52A5CE" stroke="#2779A3"/>
<path d="M36.2129 59.5024L35.4215 57L27.1831 60.4669C22.68 62.365 23.135 66.1263 24.2311 70C28.6234 68.1445 38.2666 66.0411 36.2129 59.5024Z" fill="#52A5CE" stroke="#2779A3"/>
<path d="M36.2129 67.5024L35.4215 65L27.1831 68.4669C22.68 70.365 23.135 74.1263 24.2311 78C28.6234 76.1445 38.2666 74.0411 36.2129 67.5024Z" fill="#52A5CE" stroke="#2779A3"/>
<path d="M36.2129 75.5024L35.4215 73L27.1831 76.4669C22.68 78.365 23.135 82.1263 24.2311 86C28.6234 84.1445 38.2666 82.0411 36.2129 75.5024Z" fill="#52A5CE" stroke="#2779A3"/>
<path d="M36.2129 83.5024L35.4215 81L27.1831 84.4669C22.68 86.365 23.135 90.1263 24.2311 94C28.6234 92.1445 38.2666 90.0411 36.2129 83.5024Z" fill="#52A5CE" stroke="#2779A3"/>
<path d="M36.2129 91.5024L35.4215 89L27.1831 92.4669C22.68 94.365 23.135 98.1263 24.2311 102C28.6234 100.145 38.2666 98.0411 36.2129 91.5024Z" fill="#52A5CE" stroke="#2779A3"/>
<path d="M14.7621 70.872C14.6624 70.5231 14.6126 70.3736 14.6126 70.3736C12.7187 71.4701 11.4229 73.8125 11.373 76.3543C11.373 82.5111 17.9912 85.8999 23.5836 84.4282C24.0321 84.3285 24.381 84.2288 24.6302 84.1291C24.8794 84.0295 25.0289 83.9796 25.0289 83.9796C24.6912 78.2384 16.5082 76.9832 14.7621 70.872Z" fill="#52A5CE" stroke="#2779A3"/>
<path d="M25.0309 83.9299C25.0309 83.9299 24.8814 83.9798 24.6322 84.0794C24.383 84.1791 24.0341 84.2788 23.5856 84.3785C22.6885 84.5778 21.3927 84.7273 19.9972 84.6277C19.2995 84.5778 18.6515 84.4283 17.9538 84.2289C17.3059 84.0296 16.7078 83.7804 16.1596 83.581C15.6612 83.3319 15.2126 83.0827 14.9136 82.9331C14.6146 82.7338 14.4152 82.6341 14.4152 82.6341C14.2657 83.1823 14.2159 83.7306 14.166 84.3286C14.166 84.9267 14.2657 85.5248 14.465 86.1727C14.6146 86.7707 14.9136 87.3688 15.2126 87.917C15.5117 88.4653 15.9602 88.9637 16.4088 89.462C16.8573 89.9106 17.3557 90.3093 17.9039 90.6582C18.4522 91.0071 19.0004 91.2562 19.5985 91.4556C20.1965 91.655 20.7448 91.7546 21.3428 91.8045C21.9409 91.8543 22.4892 91.7546 22.9876 91.655C22.9876 91.655 23.1869 91.6051 23.4859 91.5054C23.8348 91.4057 24.2833 91.2562 24.8316 91.1067C25.8782 90.708 27.2238 90.0601 28.3203 89.2627C28.8685 88.864 29.3669 88.4154 29.8155 88.0167C30.264 87.5681 30.6129 87.1694 30.8621 86.7707C31.4103 85.9733 31.6595 85.4749 31.6595 85.4749C30.563 84.2289 29.7158 83.5312 28.719 83.3319C27.7223 83.1325 26.5759 83.3319 25.0309 83.9299Z" fill="#52A5CE" stroke="#2779A3"/>
<path d="M31.6583 85.5247C31.6583 85.5247 31.4091 86.0231 30.8609 86.8205C30.5618 87.1694 30.213 87.6179 29.8142 88.0665C29.3657 88.4652 28.8673 88.9137 28.3191 89.3125C27.2226 90.1099 25.877 90.7578 24.8303 91.1565C24.2821 91.3559 23.8336 91.5054 23.4847 91.5552C23.1358 91.6549 22.9863 91.6549 22.9863 91.6549C23.2355 92.1533 23.5843 92.6018 23.9332 93.0005C24.3319 93.4491 24.7805 93.798 25.2789 94.097C25.7773 94.4459 26.3255 94.6951 26.9236 94.8944C27.5216 95.0938 28.1197 95.1935 28.7676 95.2931C30.0136 95.3928 31.3593 95.1934 32.5056 94.7449C33.6519 94.2465 34.6486 93.5488 35.2965 92.6018C35.2965 92.6018 35.3962 92.4523 35.5956 92.1533C35.7949 91.9041 36.0441 91.4057 36.2933 90.9073C36.8415 89.9105 37.3399 88.4652 37.5393 87.1195C37.7386 85.7739 37.6888 84.4781 37.4895 83.5311C37.3898 83.0826 37.2901 82.6839 37.2403 82.4347C37.1406 82.1855 37.0907 82.0359 37.0907 82.0359C35.446 82.0359 34.2998 82.1356 33.5522 82.634C33.3528 82.7337 33.2033 82.8832 33.004 83.0826C32.8544 83.2321 32.7049 83.4315 32.5554 83.6807C32.4059 83.88 32.2563 84.179 32.1068 84.4781C32.0071 84.8269 31.8576 85.126 31.6583 85.5247Z" fill="#52A5CE" stroke="#2779A3"/>
<path d="M37.1868 82.1355C37.1868 82.1355 37.2366 82.285 37.3363 82.5342C37.3861 82.7834 37.4858 83.1323 37.5855 83.6306C37.735 84.5277 37.8347 85.8236 37.6353 87.2191C37.436 88.5647 36.9376 90.01 36.3894 91.0068C36.1402 91.5052 35.8412 91.9537 35.6917 92.2528C35.4923 92.5518 35.3926 92.7013 35.3926 92.7013C35.6418 92.801 35.9408 92.9007 36.2399 92.9505C36.5389 93.0004 36.8379 93.0004 37.1369 93.0502C37.436 93.0502 37.735 93.0502 38.0839 93.0502C38.3829 93.0004 38.682 92.9506 38.981 92.9007C40.1772 92.6017 41.3733 92.0036 42.37 91.1563C43.3668 90.3091 44.1144 89.2126 44.563 88.1162C45.0115 86.9699 45.1611 85.7737 44.9617 84.6773C44.9617 84.6773 44.9118 84.4779 44.862 84.129C44.8121 83.7802 44.6627 83.3316 44.5131 82.7834C44.1643 81.6869 43.5662 80.3413 42.7688 79.195C41.9713 78.0487 40.9746 77.2014 40.227 76.6532C39.8283 76.404 39.5292 76.2046 39.28 76.0551C39.0308 75.9056 38.9312 75.8558 38.9312 75.8558C37.7351 77.0021 37.0373 77.8493 36.8379 78.6966C36.4392 79.4442 36.6884 80.5406 37.1868 82.1355Z" fill="#52A5CE" stroke="#2779A3"/>
<path d="M44.7142 84.0295C44.764 84.3784 44.8138 84.5777 44.8138 84.5777C45.8106 84.1292 46.7078 83.2819 47.4055 82.2353C48.1033 81.1887 48.5019 79.8929 48.6016 78.5971C48.7013 77.3012 48.5019 75.9556 48.0035 74.8591C45.9306 70.0914 42.9894 68.4266 36.7663 69.6467C35.5058 71.9646 35.4441 72.8656 35.8927 73.663C38.5979 77.8712 43.6459 77.6198 44.7142 84.0295Z" fill="#52A5CE" stroke="#2779A3"/>
<path d="M36.2168 99.5024L35.4254 97L27.187 100.467C22.6839 102.365 23.1389 106.126 24.235 110C28.6273 108.145 38.2705 106.041 36.2168 99.5024Z" fill="#52A5CE" stroke="#2779A3"/>
<path d="M36.2168 107.502L35.4254 105L27.187 108.467C22.6839 110.365 23.1389 114.126 24.235 118C28.6273 116.145 38.2705 114.041 36.2168 107.502Z" fill="#52A5CE" stroke="#2779A3"/>
<path d="M36.2168 115.502L35.4254 113L27.187 116.467C22.6839 118.365 23.1389 122.126 24.235 126C28.6273 124.145 38.2705 122.041 36.2168 115.502Z" fill="#52A5CE" stroke="#2779A3"/>
<path d="M36.2168 123.502L35.4254 121L27.187 124.467C22.6839 126.365 23.1389 130.126 24.235 134C28.6273 132.145 38.2705 130.041 36.2168 123.502Z" fill="#52A5CE" stroke="#2779A3"/>
<path d="M36.2168 131.502L35.4254 129L27.187 132.467C22.6839 134.365 23.1389 138.126 24.235 142C28.6273 140.145 38.2705 138.041 36.2168 131.502Z" fill="#52A5CE" stroke="#2779A3"/>
<path d="M36.2168 139.502L35.4254 137L27.187 140.467C22.6839 142.365 23.1389 146.126 24.235 150C28.6273 148.145 38.2705 146.041 36.2168 139.502Z" fill="#52A5CE" stroke="#2779A3"/>
<path d="M36.0456 205.452C35.597 204.306 34.6002 203.159 33.3044 202.462C32.0086 201.714 30.5135 201.365 29.0681 201.365C22.5428 201.478 20.1119 208.935 21.8913 214.274C22.0408 214.722 22.1904 215.071 22.29 215.32C22.3897 215.569 22.4395 215.719 22.4395 215.719C24.0842 215.47 25.2305 215.171 25.9282 214.573C30.0917 211.45 29.427 205.452 36.0456 205.452Z" fill="#52A5CE" stroke="#2779A3"/>
<path d="M41.6214 210.205C41.5446 208.976 40.9458 207.58 39.9252 206.52C38.9198 205.412 37.6028 204.623 36.2266 204.182C30.2519 202.377 24.3367 208.397 26.484 214.147C35.9625 217.68 35.5165 208.246 41.6214 210.205Z" fill="#52A5CE" stroke="#2779A3"/>
<path d="M22.2864 206.15C22.3861 205.951 22.4858 205.751 22.5356 205.552C22.6851 205.253 22.7848 205.053 22.7848 205.053C21.6883 204.854 20.4424 205.004 19.2961 205.502C18.1498 205.951 17.0533 206.748 16.2559 207.695C12.6562 212.195 15.0844 218.254 19.3459 221.45C19.5452 221.6 19.7945 221.75 19.9938 221.899C20.3925 222.148 20.6915 222.348 20.9407 222.447C21.1899 222.547 21.3394 222.597 21.3394 222.597C22.4857 221.401 23.1336 220.504 23.333 219.457C24.0136 214.919 21.0068 211.268 22.2864 206.15Z" fill="#52A5CE" stroke="#2779A3"/>
<path d="M35.4948 214.124C35.4948 214.124 35.6443 214.074 35.8935 213.975C36.1427 213.875 36.4916 213.775 36.9402 213.725C37.8373 213.526 39.1331 213.526 40.4787 213.775C41.8244 214.025 43.2199 214.573 44.2167 215.071C44.7151 215.32 45.1138 215.57 45.4128 215.769C45.7118 215.968 45.8613 216.068 45.8613 216.068C46.26 215.021 46.3099 213.825 46.0607 212.629C45.8115 211.433 45.2134 210.187 44.3661 209.19C43.5189 208.144 42.4225 207.346 41.2263 206.848C40.0302 206.349 38.7344 206.2 37.5881 206.399C37.5881 206.399 37.3887 206.449 37.0398 206.499C36.691 206.599 36.1926 206.698 35.6443 206.947C35.0961 207.147 34.4482 207.446 33.8501 207.844C33.2521 208.243 32.7039 208.692 32.2055 209.19C31.2585 210.187 30.8099 211.383 30.6604 212.23C30.6106 212.679 30.6106 212.978 30.6604 213.227C30.7103 213.476 30.7103 213.576 30.7103 213.576C31.9064 214.423 32.355 215.071 32.7039 215.071C32.8534 215.071 33.2022 214.971 33.6009 214.772C34.2987 214.623 34.8968 214.373 35.4948 214.124Z" fill="#52A5CE" stroke="#2779A3"/>
<path d="M36.2129 195.502L35.4215 193L27.1831 196.467C22.68 198.365 23.135 202.126 24.2311 206C28.6234 204.145 38.2666 202.041 36.2129 195.502Z" fill="#52A5CE" stroke="#2779A3"/>
<path d="M36.2129 203.502L35.4215 201L27.1831 204.467C22.68 206.365 23.135 210.126 24.2311 214C28.6234 212.145 38.2666 210.041 36.2129 203.502Z" fill="#52A5CE" stroke="#2779A3"/>
<path d="M36.2129 211.502L35.4215 209L27.1831 212.467C22.68 214.365 23.135 218.126 24.2311 222C28.6234 220.145 38.2666 218.041 36.2129 211.502Z" fill="#52A5CE" stroke="#2779A3"/>
<path d="M36.2129 219.502L35.4215 217L27.1831 220.467C22.68 222.365 23.135 226.126 24.2311 230C28.6234 228.145 38.2666 226.041 36.2129 219.502Z" fill="#52A5CE" stroke="#2779A3"/>
<path d="M36.2129 227.502L35.4215 225L27.1831 228.467C22.68 230.365 23.135 234.126 24.2311 238C28.6234 236.145 38.2666 234.041 36.2129 227.502Z" fill="#52A5CE" stroke="#2779A3"/>
<path d="M36.2129 235.502L35.4215 233L27.1831 236.467C22.68 238.365 23.135 242.126 24.2311 246C28.6234 244.145 38.2666 242.041 36.2129 235.502Z" fill="#52A5CE" stroke="#2779A3"/>
<path d="M14.7621 214.872C14.6624 214.523 14.6126 214.374 14.6126 214.374C12.7187 215.47 11.4229 217.812 11.373 220.354C11.373 226.511 17.9912 229.9 23.5836 228.428C24.0321 228.329 24.381 228.229 24.6302 228.129C24.8794 228.029 25.0289 227.98 25.0289 227.98C24.6912 222.238 16.5082 220.983 14.7621 214.872Z" fill="#52A5CE" stroke="#2779A3"/>
<path d="M25.0309 227.93C25.0309 227.93 24.8814 227.98 24.6322 228.079C24.383 228.179 24.0341 228.279 23.5856 228.378C22.6885 228.578 21.3927 228.727 19.9972 228.628C19.2995 228.578 18.6515 228.428 17.9538 228.229C17.3059 228.03 16.7078 227.78 16.1596 227.581C15.6612 227.332 15.2126 227.083 14.9136 226.933C14.6146 226.734 14.4152 226.634 14.4152 226.634C14.2657 227.182 14.2159 227.731 14.166 228.329C14.166 228.927 14.2657 229.525 14.465 230.173C14.6146 230.771 14.9136 231.369 15.2126 231.917C15.5117 232.465 15.9602 232.964 16.4088 233.462C16.8573 233.911 17.3557 234.309 17.9039 234.658C18.4522 235.007 19.0004 235.256 19.5985 235.456C20.1965 235.655 20.7448 235.755 21.3428 235.804C21.9409 235.854 22.4892 235.755 22.9876 235.655C22.9876 235.655 23.1869 235.605 23.4859 235.505C23.8348 235.406 24.2833 235.256 24.8316 235.107C25.8782 234.708 27.2238 234.06 28.3203 233.263C28.8685 232.864 29.3669 232.415 29.8155 232.017C30.264 231.568 30.6129 231.169 30.8621 230.771C31.4103 229.973 31.6595 229.475 31.6595 229.475C30.563 228.229 29.7158 227.531 28.719 227.332C27.7223 227.132 26.5759 227.332 25.0309 227.93Z" fill="#52A5CE" stroke="#2779A3"/>
<path d="M31.6583 229.525C31.6583 229.525 31.4091 230.023 30.8609 230.821C30.5618 231.169 30.213 231.618 29.8142 232.066C29.3657 232.465 28.8673 232.914 28.3191 233.312C27.2226 234.11 25.877 234.758 24.8303 235.157C24.2821 235.356 23.8336 235.505 23.4847 235.555C23.1358 235.655 22.9863 235.655 22.9863 235.655C23.2355 236.153 23.5843 236.602 23.9332 237.001C24.3319 237.449 24.7805 237.798 25.2789 238.097C25.7773 238.446 26.3255 238.695 26.9236 238.894C27.5216 239.094 28.1197 239.193 28.7676 239.293C30.0136 239.393 31.3593 239.193 32.5056 238.745C33.6519 238.247 34.6486 237.549 35.2965 236.602C35.2965 236.602 35.3962 236.452 35.5956 236.153C35.7949 235.904 36.0441 235.406 36.2933 234.907C36.8415 233.911 37.3399 232.465 37.5393 231.12C37.7386 229.774 37.6888 228.478 37.4895 227.531C37.3898 227.083 37.2901 226.684 37.2403 226.435C37.1406 226.185 37.0907 226.036 37.0907 226.036C35.446 226.036 34.2998 226.136 33.5522 226.634C33.3528 226.734 33.2033 226.883 33.004 227.083C32.8544 227.232 32.7049 227.431 32.5554 227.681C32.4059 227.88 32.2563 228.179 32.1068 228.478C32.0071 228.827 31.8576 229.126 31.6583 229.525Z" fill="#52A5CE" stroke="#2779A3"/>
<path d="M37.1868 226.135C37.1868 226.135 37.2366 226.285 37.3363 226.534C37.3861 226.783 37.4858 227.132 37.5855 227.631C37.735 228.528 37.8347 229.824 37.6353 231.219C37.436 232.565 36.9376 234.01 36.3894 235.007C36.1402 235.505 35.8412 235.954 35.6917 236.253C35.4923 236.552 35.3926 236.701 35.3926 236.701C35.6418 236.801 35.9408 236.901 36.2399 236.951C36.5389 237 36.8379 237 37.1369 237.05C37.436 237.05 37.735 237.05 38.0839 237.05C38.3829 237 38.682 236.951 38.981 236.901C40.1772 236.602 41.3733 236.004 42.37 235.156C43.3668 234.309 44.1144 233.213 44.563 232.116C45.0115 230.97 45.1611 229.774 44.9617 228.677C44.9617 228.677 44.9118 228.478 44.862 228.129C44.8121 227.78 44.6627 227.332 44.5131 226.783C44.1643 225.687 43.5662 224.341 42.7688 223.195C41.9713 222.049 40.9746 221.201 40.227 220.653C39.8283 220.404 39.5292 220.205 39.28 220.055C39.0308 219.906 38.9312 219.856 38.9312 219.856C37.7351 221.002 37.0373 221.849 36.8379 222.697C36.4392 223.444 36.6884 224.541 37.1868 226.135Z" fill="#52A5CE" stroke="#2779A3"/>
<path d="M44.7142 228.029C44.764 228.378 44.8138 228.578 44.8138 228.578C45.8106 228.129 46.7078 227.282 47.4055 226.235C48.1033 225.189 48.5019 223.893 48.6016 222.597C48.7013 221.301 48.5019 219.956 48.0035 218.859C45.9306 214.091 42.9894 212.427 36.7663 213.647C35.5058 215.965 35.4441 216.866 35.8927 217.663C38.5979 221.871 43.6459 221.62 44.7142 228.029Z" fill="#52A5CE" stroke="#2779A3"/>
<path d="M36.0456 181.452C35.597 180.306 34.6002 179.159 33.3044 178.462C32.0086 177.714 30.5135 177.365 29.0681 177.365C22.5428 177.478 20.1119 184.935 21.8913 190.274C22.0408 190.722 22.1904 191.071 22.29 191.32C22.3897 191.569 22.4395 191.719 22.4395 191.719C24.0842 191.47 25.2305 191.171 25.9282 190.573C30.0917 187.45 29.427 181.452 36.0456 181.452Z" fill="#52A5CE" stroke="#2779A3"/>
<path d="M41.6214 186.205C41.5446 184.976 40.9458 183.58 39.9252 182.52C38.9198 181.412 37.6028 180.623 36.2266 180.182C30.2519 178.377 24.3367 184.397 26.484 190.147C35.9625 193.68 35.5165 184.246 41.6214 186.205Z" fill="#52A5CE" stroke="#2779A3"/>
<path d="M22.2864 182.15C22.3861 181.951 22.4858 181.751 22.5356 181.552C22.6851 181.253 22.7848 181.053 22.7848 181.053C21.6883 180.854 20.4424 181.004 19.2961 181.502C18.1498 181.951 17.0533 182.748 16.2559 183.695C12.6562 188.195 15.0844 194.254 19.3459 197.45C19.5452 197.6 19.7945 197.75 19.9938 197.899C20.3925 198.148 20.6915 198.348 20.9407 198.447C21.1899 198.547 21.3394 198.597 21.3394 198.597C22.4857 197.401 23.1336 196.504 23.333 195.457C24.0136 190.919 21.0068 187.268 22.2864 182.15Z" fill="#52A5CE" stroke="#2779A3"/>
<path d="M35.4948 190.124C35.4948 190.124 35.6443 190.074 35.8935 189.975C36.1427 189.875 36.4916 189.775 36.9402 189.725C37.8373 189.526 39.1331 189.526 40.4787 189.775C41.8244 190.025 43.2199 190.573 44.2167 191.071C44.7151 191.32 45.1138 191.57 45.4128 191.769C45.7118 191.968 45.8613 192.068 45.8613 192.068C46.26 191.021 46.3099 189.825 46.0607 188.629C45.8115 187.433 45.2134 186.187 44.3661 185.19C43.5189 184.144 42.4225 183.346 41.2263 182.848C40.0302 182.349 38.7344 182.2 37.5881 182.399C37.5881 182.399 37.3887 182.449 37.0398 182.499C36.691 182.599 36.1926 182.698 35.6443 182.947C35.0961 183.147 34.4482 183.446 33.8501 183.844C33.2521 184.243 32.7039 184.692 32.2055 185.19C31.2585 186.187 30.8099 187.383 30.6604 188.23C30.6106 188.679 30.6106 188.978 30.6604 189.227C30.7103 189.476 30.7103 189.576 30.7103 189.576C31.9064 190.423 32.355 191.071 32.7039 191.071C32.8534 191.071 33.2022 190.971 33.6009 190.772C34.2987 190.623 34.8968 190.373 35.4948 190.124Z" fill="#52A5CE" stroke="#2779A3"/>
<path d="M36.2129 171.502L35.4215 169L27.1831 172.467C22.68 174.365 23.135 178.126 24.2311 182C28.6234 180.145 38.2666 178.041 36.2129 171.502Z" fill="#52A5CE" stroke="#2779A3"/>
<path d="M36.2129 179.502L35.4215 177L27.1831 180.467C22.68 182.365 23.135 186.126 24.2311 190C28.6234 188.145 38.2666 186.041 36.2129 179.502Z" fill="#52A5CE" stroke="#2779A3"/>
<path d="M36.2129 187.502L35.4215 185L27.1831 188.467C22.68 190.365 23.135 194.126 24.2311 198C28.6234 196.145 38.2666 194.041 36.2129 187.502Z" fill="#52A5CE" stroke="#2779A3"/>
<path d="M36.2129 195.502L35.4215 193L27.1831 196.467C22.68 198.365 23.135 202.126 24.2311 206C28.6234 204.145 38.2666 202.041 36.2129 195.502Z" fill="#52A5CE" stroke="#2779A3"/>
<path d="M36.2129 203.502L35.4215 201L27.1831 204.467C22.68 206.365 23.135 210.126 24.2311 214C28.6234 212.145 38.2666 210.041 36.2129 203.502Z" fill="#52A5CE" stroke="#2779A3"/>
<path d="M36.2129 211.502L35.4215 209L27.1831 212.467C22.68 214.365 23.135 218.126 24.2311 222C28.6234 220.145 38.2666 218.041 36.2129 211.502Z" fill="#52A5CE" stroke="#2779A3"/>
<path d="M14.7621 190.872C14.6624 190.523 14.6126 190.374 14.6126 190.374C12.7187 191.47 11.4229 193.812 11.373 196.354C11.373 202.511 17.9912 205.9 23.5836 204.428C24.0321 204.329 24.381 204.229 24.6302 204.129C24.8794 204.029 25.0289 203.98 25.0289 203.98C24.6912 198.238 16.5082 196.983 14.7621 190.872Z" fill="#52A5CE" stroke="#2779A3"/>
<path d="M25.0309 203.93C25.0309 203.93 24.8814 203.98 24.6322 204.079C24.383 204.179 24.0341 204.279 23.5856 204.378C22.6885 204.578 21.3927 204.727 19.9972 204.628C19.2995 204.578 18.6515 204.428 17.9538 204.229C17.3059 204.03 16.7078 203.78 16.1596 203.581C15.6612 203.332 15.2126 203.083 14.9136 202.933C14.6146 202.734 14.4152 202.634 14.4152 202.634C14.2657 203.182 14.2159 203.731 14.166 204.329C14.166 204.927 14.2657 205.525 14.465 206.173C14.6146 206.771 14.9136 207.369 15.2126 207.917C15.5117 208.465 15.9602 208.964 16.4088 209.462C16.8573 209.911 17.3557 210.309 17.9039 210.658C18.4522 211.007 19.0004 211.256 19.5985 211.456C20.1965 211.655 20.7448 211.755 21.3428 211.804C21.9409 211.854 22.4892 211.755 22.9876 211.655C22.9876 211.655 23.1869 211.605 23.4859 211.505C23.8348 211.406 24.2833 211.256 24.8316 211.107C25.8782 210.708 27.2238 210.06 28.3203 209.263C28.8685 208.864 29.3669 208.415 29.8155 208.017C30.264 207.568 30.6129 207.169 30.8621 206.771C31.4103 205.973 31.6595 205.475 31.6595 205.475C30.563 204.229 29.7158 203.531 28.719 203.332C27.7223 203.132 26.5759 203.332 25.0309 203.93Z" fill="#52A5CE" stroke="#2779A3"/>
<path d="M31.6583 205.525C31.6583 205.525 31.4091 206.023 30.8609 206.821C30.5618 207.169 30.213 207.618 29.8142 208.066C29.3657 208.465 28.8673 208.914 28.3191 209.312C27.2226 210.11 25.877 210.758 24.8303 211.157C24.2821 211.356 23.8336 211.505 23.4847 211.555C23.1358 211.655 22.9863 211.655 22.9863 211.655C23.2355 212.153 23.5843 212.602 23.9332 213.001C24.3319 213.449 24.7805 213.798 25.2789 214.097C25.7773 214.446 26.3255 214.695 26.9236 214.894C27.5216 215.094 28.1197 215.193 28.7676 215.293C30.0136 215.393 31.3593 215.193 32.5056 214.745C33.6519 214.247 34.6486 213.549 35.2965 212.602C35.2965 212.602 35.3962 212.452 35.5956 212.153C35.7949 211.904 36.0441 211.406 36.2933 210.907C36.8415 209.911 37.3399 208.465 37.5393 207.12C37.7386 205.774 37.6888 204.478 37.4895 203.531C37.3898 203.083 37.2901 202.684 37.2403 202.435C37.1406 202.185 37.0907 202.036 37.0907 202.036C35.446 202.036 34.2998 202.136 33.5522 202.634C33.3528 202.734 33.2033 202.883 33.004 203.083C32.8544 203.232 32.7049 203.431 32.5554 203.681C32.4059 203.88 32.2563 204.179 32.1068 204.478C32.0071 204.827 31.8576 205.126 31.6583 205.525Z" fill="#52A5CE" stroke="#2779A3"/>
<path d="M37.1868 202.135C37.1868 202.135 37.2366 202.285 37.3363 202.534C37.3861 202.783 37.4858 203.132 37.5855 203.631C37.735 204.528 37.8347 205.824 37.6353 207.219C37.436 208.565 36.9376 210.01 36.3894 211.007C36.1402 211.505 35.8412 211.954 35.6917 212.253C35.4923 212.552 35.3926 212.701 35.3926 212.701C35.6418 212.801 35.9408 212.901 36.2399 212.951C36.5389 213 36.8379 213 37.1369 213.05C37.436 213.05 37.735 213.05 38.0839 213.05C38.3829 213 38.682 212.951 38.981 212.901C40.1772 212.602 41.3733 212.004 42.37 211.156C43.3668 210.309 44.1144 209.213 44.563 208.116C45.0115 206.97 45.1611 205.774 44.9617 204.677C44.9617 204.677 44.9118 204.478 44.862 204.129C44.8121 203.78 44.6627 203.332 44.5131 202.783C44.1643 201.687 43.5662 200.341 42.7688 199.195C41.9713 198.049 40.9746 197.201 40.227 196.653C39.8283 196.404 39.5292 196.205 39.28 196.055C39.0308 195.906 38.9312 195.856 38.9312 195.856C37.7351 197.002 37.0373 197.849 36.8379 198.697C36.4392 199.444 36.6884 200.541 37.1868 202.135Z" fill="#52A5CE" stroke="#2779A3"/>
<path d="M44.7142 204.029C44.764 204.378 44.8138 204.578 44.8138 204.578C45.8106 204.129 46.7078 203.282 47.4055 202.235C48.1033 201.189 48.5019 199.893 48.6016 198.597C48.7013 197.301 48.5019 195.956 48.0035 194.859C45.9306 190.091 42.9894 188.427 36.7663 189.647C35.5058 191.965 35.4441 192.866 35.8927 193.663C38.5979 197.871 43.6459 197.62 44.7142 204.029Z" fill="#52A5CE" stroke="#2779A3"/>
<path d="M36.0456 157.452C35.597 156.306 34.6002 155.159 33.3044 154.462C32.0086 153.714 30.5135 153.365 29.0681 153.365C22.5428 153.478 20.1119 160.935 21.8913 166.274C22.0408 166.722 22.1904 167.071 22.29 167.32C22.3897 167.569 22.4395 167.719 22.4395 167.719C24.0842 167.47 25.2305 167.171 25.9282 166.573C30.0917 163.45 29.427 157.452 36.0456 157.452Z" fill="#52A5CE" stroke="#2779A3"/>
<path d="M41.6214 162.205C41.5446 160.976 40.9458 159.58 39.9252 158.52C38.9198 157.412 37.6028 156.623 36.2266 156.182C30.2519 154.377 24.3367 160.397 26.484 166.147C35.9625 169.68 35.5165 160.246 41.6214 162.205Z" fill="#52A5CE" stroke="#2779A3"/>
<path d="M22.2864 158.15C22.3861 157.951 22.4858 157.751 22.5356 157.552C22.6851 157.253 22.7848 157.053 22.7848 157.053C21.6883 156.854 20.4424 157.004 19.2961 157.502C18.1498 157.951 17.0533 158.748 16.2559 159.695C12.6562 164.195 15.0844 170.254 19.3459 173.45C19.5452 173.6 19.7945 173.75 19.9938 173.899C20.3925 174.148 20.6915 174.348 20.9407 174.447C21.1899 174.547 21.3394 174.597 21.3394 174.597C22.4857 173.401 23.1336 172.504 23.333 171.457C24.0136 166.919 21.0068 163.268 22.2864 158.15Z" fill="#52A5CE" stroke="#2779A3"/>
<path d="M35.4948 166.124C35.4948 166.124 35.6443 166.074 35.8935 165.975C36.1427 165.875 36.4916 165.775 36.9402 165.725C37.8373 165.526 39.1331 165.526 40.4787 165.775C41.8244 166.025 43.2199 166.573 44.2167 167.071C44.7151 167.32 45.1138 167.57 45.4128 167.769C45.7118 167.968 45.8613 168.068 45.8613 168.068C46.26 167.021 46.3099 165.825 46.0607 164.629C45.8115 163.433 45.2134 162.187 44.3661 161.19C43.5189 160.144 42.4225 159.346 41.2263 158.848C40.0302 158.349 38.7344 158.2 37.5881 158.399C37.5881 158.399 37.3887 158.449 37.0398 158.499C36.691 158.599 36.1926 158.698 35.6443 158.947C35.0961 159.147 34.4482 159.446 33.8501 159.844C33.2521 160.243 32.7039 160.692 32.2055 161.19C31.2585 162.187 30.8099 163.383 30.6604 164.23C30.6106 164.679 30.6106 164.978 30.6604 165.227C30.7103 165.476 30.7103 165.576 30.7103 165.576C31.9064 166.423 32.355 167.071 32.7039 167.071C32.8534 167.071 33.2022 166.971 33.6009 166.772C34.2987 166.623 34.8968 166.373 35.4948 166.124Z" fill="#52A5CE" stroke="#2779A3"/>
<path d="M36.2129 147.502L35.4215 145L27.1831 148.467C22.68 150.365 23.135 154.126 24.2311 158C28.6234 156.145 38.2666 154.041 36.2129 147.502Z" fill="#52A5CE" stroke="#2779A3"/>
<path d="M36.2129 155.502L35.4215 153L27.1831 156.467C22.68 158.365 23.135 162.126 24.2311 166C28.6234 164.145 38.2666 162.041 36.2129 155.502Z" fill="#52A5CE" stroke="#2779A3"/>
<path d="M36.2129 163.502L35.4215 161L27.1831 164.467C22.68 166.365 23.135 170.126 24.2311 174C28.6234 172.145 38.2666 170.041 36.2129 163.502Z" fill="#52A5CE" stroke="#2779A3"/>
<path d="M36.2129 171.502L35.4215 169L27.1831 172.467C22.68 174.365 23.135 178.126 24.2311 182C28.6234 180.145 38.2666 178.041 36.2129 171.502Z" fill="#52A5CE" stroke="#2779A3"/>
<path d="M36.2129 179.502L35.4215 177L27.1831 180.467C22.68 182.365 23.135 186.126 24.2311 190C28.6234 188.145 38.2666 186.041 36.2129 179.502Z" fill="#52A5CE" stroke="#2779A3"/>
<path d="M36.2129 187.502L35.4215 185L27.1831 188.467C22.68 190.365 23.135 194.126 24.2311 198C28.6234 196.145 38.2666 194.041 36.2129 187.502Z" fill="#52A5CE" stroke="#2779A3"/>
<path d="M14.7621 166.872C14.6624 166.523 14.6126 166.374 14.6126 166.374C12.7187 167.47 11.4229 169.812 11.373 172.354C11.373 178.511 17.9912 181.9 23.5836 180.428C24.0321 180.329 24.381 180.229 24.6302 180.129C24.8794 180.029 25.0289 179.98 25.0289 179.98C24.6912 174.238 16.5082 172.983 14.7621 166.872Z" fill="#52A5CE" stroke="#2779A3"/>
<path d="M25.0309 179.93C25.0309 179.93 24.8814 179.98 24.6322 180.079C24.383 180.179 24.0341 180.279 23.5856 180.378C22.6885 180.578 21.3927 180.727 19.9972 180.628C19.2995 180.578 18.6515 180.428 17.9538 180.229C17.3059 180.03 16.7078 179.78 16.1596 179.581C15.6612 179.332 15.2126 179.083 14.9136 178.933C14.6146 178.734 14.4152 178.634 14.4152 178.634C14.2657 179.182 14.2159 179.731 14.166 180.329C14.166 180.927 14.2657 181.525 14.465 182.173C14.6146 182.771 14.9136 183.369 15.2126 183.917C15.5117 184.465 15.9602 184.964 16.4088 185.462C16.8573 185.911 17.3557 186.309 17.9039 186.658C18.4522 187.007 19.0004 187.256 19.5985 187.456C20.1965 187.655 20.7448 187.755 21.3428 187.804C21.9409 187.854 22.4892 187.755 22.9876 187.655C22.9876 187.655 23.1869 187.605 23.4859 187.505C23.8348 187.406 24.2833 187.256 24.8316 187.107C25.8782 186.708 27.2238 186.06 28.3203 185.263C28.8685 184.864 29.3669 184.415 29.8155 184.017C30.264 183.568 30.6129 183.169 30.8621 182.771C31.4103 181.973 31.6595 181.475 31.6595 181.475C30.563 180.229 29.7158 179.531 28.719 179.332C27.7223 179.132 26.5759 179.332 25.0309 179.93Z" fill="#52A5CE" stroke="#2779A3"/>
<path d="M31.6583 181.525C31.6583 181.525 31.4091 182.023 30.8609 182.821C30.5618 183.169 30.213 183.618 29.8142 184.066C29.3657 184.465 28.8673 184.914 28.3191 185.312C27.2226 186.11 25.877 186.758 24.8303 187.157C24.2821 187.356 23.8336 187.505 23.4847 187.555C23.1358 187.655 22.9863 187.655 22.9863 187.655C23.2355 188.153 23.5843 188.602 23.9332 189.001C24.3319 189.449 24.7805 189.798 25.2789 190.097C25.7773 190.446 26.3255 190.695 26.9236 190.894C27.5216 191.094 28.1197 191.193 28.7676 191.293C30.0136 191.393 31.3593 191.193 32.5056 190.745C33.6519 190.247 34.6486 189.549 35.2965 188.602C35.2965 188.602 35.3962 188.452 35.5956 188.153C35.7949 187.904 36.0441 187.406 36.2933 186.907C36.8415 185.911 37.3399 184.465 37.5393 183.12C37.7386 181.774 37.6888 180.478 37.4895 179.531C37.3898 179.083 37.2901 178.684 37.2403 178.435C37.1406 178.185 37.0907 178.036 37.0907 178.036C35.446 178.036 34.2998 178.136 33.5522 178.634C33.3528 178.734 33.2033 178.883 33.004 179.083C32.8544 179.232 32.7049 179.431 32.5554 179.681C32.4059 179.88 32.2563 180.179 32.1068 180.478C32.0071 180.827 31.8576 181.126 31.6583 181.525Z" fill="#52A5CE" stroke="#2779A3"/>
<path d="M37.1868 178.135C37.1868 178.135 37.2366 178.285 37.3363 178.534C37.3861 178.783 37.4858 179.132 37.5855 179.631C37.735 180.528 37.8347 181.824 37.6353 183.219C37.436 184.565 36.9376 186.01 36.3894 187.007C36.1402 187.505 35.8412 187.954 35.6917 188.253C35.4923 188.552 35.3926 188.701 35.3926 188.701C35.6418 188.801 35.9408 188.901 36.2399 188.951C36.5389 189 36.8379 189 37.1369 189.05C37.436 189.05 37.735 189.05 38.0839 189.05C38.3829 189 38.682 188.951 38.981 188.901C40.1772 188.602 41.3733 188.004 42.37 187.156C43.3668 186.309 44.1144 185.213 44.563 184.116C45.0115 182.97 45.1611 181.774 44.9617 180.677C44.9617 180.677 44.9118 180.478 44.862 180.129C44.8121 179.78 44.6627 179.332 44.5131 178.783C44.1643 177.687 43.5662 176.341 42.7688 175.195C41.9713 174.049 40.9746 173.201 40.227 172.653C39.8283 172.404 39.5292 172.205 39.28 172.055C39.0308 171.906 38.9312 171.856 38.9312 171.856C37.7351 173.002 37.0373 173.849 36.8379 174.697C36.4392 175.444 36.6884 176.541 37.1868 178.135Z" fill="#52A5CE" stroke="#2779A3"/>
<path d="M44.7142 180.029C44.764 180.378 44.8138 180.578 44.8138 180.578C45.8106 180.129 46.7078 179.282 47.4055 178.235C48.1033 177.189 48.5019 175.893 48.6016 174.597C48.7013 173.301 48.5019 171.956 48.0035 170.859C45.9306 166.091 42.9894 164.427 36.7663 165.647C35.5058 167.965 35.4441 168.866 35.8927 169.663C38.5979 173.871 43.6459 173.62 44.7142 180.029Z" fill="#52A5CE" stroke="#2779A3"/>
<path d="M36.2168 243.502L35.4254 241L27.187 244.467C22.6839 246.365 23.1389 250.126 24.235 254C28.6273 252.145 38.2705 250.041 36.2168 243.502Z" fill="#52A5CE" stroke="#2779A3"/>
<path d="M36.2168 251.502L35.4254 249L27.187 252.467C22.6839 254.365 23.1389 258.126 24.235 262C28.6273 260.145 38.2705 258.041 36.2168 251.502Z" fill="#52A5CE" stroke="#2779A3"/>
<path d="M36.2168 259.502L35.4254 257L27.187 260.467C22.6839 262.365 23.1389 266.126 24.235 270C28.6273 268.145 38.2705 266.041 36.2168 259.502Z" fill="#52A5CE" stroke="#2779A3"/>
<path d="M36.2168 267.502L35.4254 265L27.187 268.467C22.6839 270.365 23.1389 274.126 24.235 278C28.6273 276.145 38.2705 274.041 36.2168 267.502Z" fill="#52A5CE" stroke="#2779A3"/>
<path d="M36.2168 275.502L35.4254 273L27.187 276.467C22.6839 278.365 23.1389 282.126 24.235 286C28.6273 284.145 38.2705 282.041 36.2168 275.502Z" fill="#52A5CE" stroke="#2779A3"/>
<path d="M36.2168 283.502L35.4254 281L27.187 284.467C22.6839 286.365 23.1389 290.126 24.235 294C28.6273 292.145 38.2705 290.041 36.2168 283.502Z" fill="#52A5CE" stroke="#2779A3"/>
<path d="M36.2168 291.502L35.4254 289L27.187 292.467C22.6839 294.365 23.1389 298.126 24.235 302C28.6273 300.145 38.2705 298.041 36.2168 291.502Z" fill="#52A5CE" stroke="#2779A3"/>
<path d="M36.2168 299.502L35.4254 297L27.187 300.467C22.6839 302.365 23.1389 306.126 24.235 310C28.6273 308.145 38.2705 306.041 36.2168 299.502Z" fill="#52A5CE" stroke="#2779A3"/>
<path d="M36.2168 307.502L35.4254 305L27.187 308.467C22.6839 310.365 23.1389 314.126 24.235 318C28.6273 316.145 38.2705 314.041 36.2168 307.502Z" fill="#52A5CE" stroke="#2779A3"/>
<path d="M36.2168 315.502L35.4254 313L27.187 316.467C22.6839 318.365 23.1389 322.126 24.235 326C28.6273 324.145 38.2705 322.041 36.2168 315.502Z" fill="#52A5CE" stroke="#2779A3"/>
<path d="M36.2168 323.502L35.4254 321L27.187 324.467C22.6839 326.365 23.1389 330.126 24.235 334C28.6273 332.145 38.2705 330.041 36.2168 323.502Z" fill="#52A5CE" stroke="#2779A3"/>
<path d="M36.2168 331.502L35.4254 329L27.187 332.467C22.6839 334.365 23.1389 338.126 24.235 342C28.6273 340.145 38.2705 338.041 36.2168 331.502Z" fill="#52A5CE" stroke="#2779A3"/>
<path d="M36.2168 339.502L35.4254 337L27.187 340.467C22.6839 342.365 23.1389 346.126 24.235 350C28.6273 348.145 38.2705 346.041 36.2168 339.502Z" fill="#52A5CE" stroke="#2779A3"/>
<path d="M36.2168 347.502L35.4254 345L27.187 348.467C22.6839 350.365 23.1389 354.126 24.235 358C28.6273 356.145 38.2705 354.041 36.2168 347.502Z" fill="#52A5CE" stroke="#2779A3"/>
<path d="M36.2168 355.502L35.4254 353L27.187 356.467C22.6839 358.365 23.1389 362.126 24.235 366C28.6273 364.145 38.2705 362.041 36.2168 355.502Z" fill="#52A5CE" stroke="#2779A3"/>
<path d="M36.2168 363.502L35.4254 361L27.187 364.467C22.6839 366.365 23.1389 370.126 24.235 374C28.6273 372.145 38.2705 370.041 36.2168 363.502Z" fill="#52A5CE" stroke="#2779A3"/>
<path d="M27.1712 328.486L24.583 328.05L26.8696 319.409C28.1225 314.686 31.9106 314.613 35.8991 315.159C34.6729 319.767 33.9321 329.609 27.1712 328.486Z" fill="#52A5CE" stroke="#2779A3"/>
<path d="M35.094 327.373L32.5059 326.937L34.7925 318.297C36.0454 313.573 40.811 313.292 42.4024 315.19C43.9938 317.088 41.855 328.497 35.094 327.373Z" fill="#52A5CE" stroke="#2779A3"/>
<path d="M25.1403 316.186L27.7285 316.622L25.4419 325.263C24.1889 329.986 19.4233 330.267 17.8319 328.369C16.2405 326.471 18.3794 315.063 25.1403 316.186Z" fill="#52A5CE" stroke="#2779A3"/>
<path d="M27.1722 340.486L24.584 340.05L26.8706 331.409C28.1235 326.686 31.9116 326.613 35.9001 327.159C34.6739 331.767 33.9331 341.609 27.1722 340.486Z" fill="#52A5CE" stroke="#2779A3"/>
<path d="M35.095 339.373L32.5068 338.937L34.7935 330.297C36.0464 325.573 40.812 325.292 42.4034 327.19C43.9948 329.088 41.8559 340.497 35.095 339.373Z" fill="#52A5CE" stroke="#2779A3"/>
<path d="M25.1413 328.187L27.7295 328.622L25.4428 337.263C24.1899 341.986 19.4243 342.267 17.8329 340.369C16.2415 338.471 18.3803 327.063 25.1413 328.187Z" fill="#52A5CE" stroke="#2779A3"/>
<path d="M27.1722 352.486L24.584 352.051L26.8706 343.41C28.1235 338.686 31.9116 338.613 35.9001 339.16C34.6739 343.768 33.9331 353.61 27.1722 352.486Z" fill="#52A5CE" stroke="#2779A3"/>
<path d="M35.096 351.373L32.5078 350.938L34.7944 342.297C36.0473 337.573 40.813 337.292 42.4044 339.191C43.9958 341.089 41.8569 352.497 35.096 351.373Z" fill="#52A5CE" stroke="#2779A3"/>
<path d="M25.1413 340.186L27.7295 340.622L25.4428 349.263C24.1899 353.986 19.4243 354.267 17.8329 352.369C16.2415 350.471 18.3803 339.063 25.1413 340.186Z" fill="#52A5CE" stroke="#2779A3"/>
<path d="M27.1722 364.486L24.584 364.051L26.8706 355.41C28.1235 350.686 31.9116 350.613 35.9001 351.16C34.6739 355.768 33.9331 365.61 27.1722 364.486Z" fill="#52A5CE" stroke="#2779A3"/>
<path d="M35.096 363.373L32.5078 362.938L34.7944 354.297C36.0473 349.573 40.813 349.292 42.4044 351.191C43.9958 353.089 41.8569 364.497 35.096 363.373Z" fill="#52A5CE" stroke="#2779A3"/>
<path d="M25.1413 352.186L27.7295 352.622L25.4428 361.263C24.1899 365.986 19.4243 366.267 17.8329 364.369C16.2415 362.471 18.3803 351.063 25.1413 352.186Z" fill="#52A5CE" stroke="#2779A3"/>
<path d="M36.2168 371.502L35.4254 369L27.187 372.467C22.6839 374.365 23.1389 378.126 24.235 382C28.6273 380.145 38.2705 378.041 36.2168 371.502Z" fill="#52A5CE" stroke="#2779A3"/>
<path d="M36.2168 379.502L35.4254 377L27.187 380.467C22.6839 382.365 23.1389 386.126 24.235 390C28.6273 388.145 38.2705 386.041 36.2168 379.502Z" fill="#52A5CE" stroke="#2779A3"/>
<path d="M36.2168 387.502L35.4254 385L27.187 388.467C22.6839 390.365 23.1389 394.126 24.235 398C28.6273 396.145 38.2705 394.041 36.2168 387.502Z" fill="#52A5CE" stroke="#2779A3"/>
<path d="M36.2168 395.502L35.4254 393L27.187 396.467C22.6839 398.365 23.1389 402.126 24.235 406C28.6273 404.145 38.2705 402.041 36.2168 395.502Z" fill="#52A5CE" stroke="#2779A3"/>
<path d="M36.2168 403.502L35.4254 401L27.187 404.467C22.6839 406.365 23.1389 410.126 24.235 414C28.6273 412.145 38.2705 410.041 36.2168 403.502Z" fill="#52A5CE" stroke="#2779A3"/>
<path d="M36.2168 411.502L35.4254 409L27.187 412.467C22.6839 414.365 23.1389 418.126 24.235 422C28.6273 420.145 38.2705 418.041 36.2168 411.502Z" fill="#52A5CE" stroke="#2779A3"/>
<path d="M36.2168 419.502L35.4254 417L27.187 420.467C22.6839 422.365 23.1389 426.126 24.235 430C28.6273 428.145 38.2705 426.041 36.2168 419.502Z" fill="#52A5CE" stroke="#2779A3"/>
<path d="M23.0071 452.328C22.6967 457.337 22.076 462.336 21.1054 467.28C21.1054 467.317 21.0941 467.335 21.0941 467.353C20.5607 469.959 22.3912 469.752 24.1696 469.752C25.2362 465.387 26.1278 459.322 26.2181 453.992C26.2181 453.992 26.7824 459.009 25.3377 467.942C25.4167 468.511 25.5296 469.191 25.7384 469.752H27.5668C28.2665 463.282 28.7462 455.609 28.8139 448.312C28.8478 449.434 29.0961 457.41 28.0859 469.752H31.1107L31.4888 468.383L31.7766 467.381C31.7709 467.372 31.7709 467.353 31.7709 467.335C31.5395 464.054 31.3985 461.178 31.3025 458.706C31.0373 451.841 31.2292 448.184 31.2292 448.184C31.28 455.379 31.7483 462.942 32.4481 470L35.0044 469.752C33.2438 459.882 33.7799 454.341 33.8194 454.001C33.9435 461.187 35.3035 467.409 35.9356 469.963L37.8824 469.752C38.6443 469.743 39.1804 468.539 38.9434 467.326C37.9671 462.373 37.3407 457.346 37.036 452.328C36.2299 440.515 23.9939 436.729 23.0071 452.328Z" fill="#52A5CE" stroke="#2779A3"/>
<path d="M36.2168 427.502L35.4254 425L27.187 428.467C22.6839 430.365 23.1389 434.126 24.235 438C28.6273 436.145 38.2705 434.041 36.2168 427.502Z" fill="#52A5CE" stroke="#2779A3"/>
<path d="M32.7314 436.032C33.8986 436.419 35.0383 436.918 35.9533 437.397C36.8684 437.877 37.4181 438.286 37.4181 438.286C37.6668 437.583 37.6479 436.722 37.4189 435.939C35.6612 428.433 26.231 429.714 24.0038 434.041C23.7123 434.608 23.5742 435.016 23.5742 435.016C24.8563 435.87 26.9508 437.661 27.6532 437.759C28.0185 437.829 28.2706 437.736 28.5648 437.628C29.9633 436.603 30.6271 435.335 32.7314 436.032Z" fill="#52A5CE" stroke="#2779A3"/>
<path d="M38.2047 444.398C41.0786 442.057 41.0304 438.474 38.2045 434.935C35.3785 431.395 29.4571 433.569 27.5224 439.741C28.879 443.21 36.9374 441.423 38.2047 444.398Z" fill="#52A5CE" stroke="#2779A3"/>
<path d="M26.5588 433.076C26.6126 432.58 26.6664 432.134 26.7202 431.837C26.8277 431.539 26.8277 431.341 26.8277 431.341C25.6984 431.44 24.6228 431.985 23.7086 432.68C19.1602 436.38 21.5462 441.56 25.6984 444.381C26.7202 445.075 27.7957 445.471 28.6024 445.67C28.9788 445.769 29.3553 445.819 29.5704 445.868C29.7855 445.918 29.9468 445.918 29.9468 445.918C32.7474 441.151 26.2881 438.068 26.5588 433.076Z" fill="#52A5CE" stroke="#2779A3"/>
<path d="M29.0622 441.826C29.0622 441.826 28.9008 441.826 28.6857 441.771C28.4706 441.717 28.148 441.662 27.7177 441.552C26.9111 441.333 25.8355 440.841 24.8137 440.129C23.7919 439.418 22.8777 438.432 22.2324 437.611C21.5871 436.79 21.2106 436.188 21.2106 436.188C20.5115 436.9 20.0275 437.83 19.8124 438.87C19.5435 439.91 19.5435 441.114 19.8662 442.319C20.135 443.468 20.7266 444.618 21.5333 445.494C22.34 446.369 23.3079 446.971 24.2759 447.245C24.2759 447.245 24.4373 447.3 24.76 447.355C25.0826 447.409 25.5128 447.519 26.0506 447.574C27.1262 447.683 28.4706 447.628 29.7075 447.3C30.9444 446.971 31.8586 446.315 32.4502 445.712C32.7191 445.439 32.9342 445.165 33.0417 445.001C33.1493 444.837 33.2568 444.727 33.2568 444.727C32.6115 443.413 32.5577 442.757 32.02 442.373C31.4284 442.1 30.5142 441.99 29.0622 441.826Z" fill="#52A5CE" stroke="#2779A3"/>
<path d="M29.6174 442.9C29.6174 442.9 29.5346 442.989 29.3334 443.098C29.1836 443.223 28.884 443.474 28.5642 443.604C27.8777 444.021 26.7639 444.363 25.4867 444.311C24.2452 444.328 22.9073 443.914 21.9095 443.491C21.4105 443.28 21.0302 443.048 20.737 442.9C20.4439 442.752 20.3052 442.652 20.3052 442.652C20.0597 443.663 20.1073 444.822 20.5463 445.988C20.9339 447.137 21.713 448.293 22.8073 449.147C23.3466 449.599 23.9172 449.947 24.5705 450.207C24.8636 450.354 25.1724 450.45 25.4811 450.545C25.7898 450.641 26.1142 450.684 26.4386 450.727C27.0873 450.813 27.6644 450.763 28.2415 450.712C28.7827 450.594 29.3396 450.422 29.8092 450.167C29.8092 450.167 29.959 450.042 30.2788 449.912C30.5472 449.766 30.9139 449.479 31.3476 449.155C32.1637 448.492 33.0736 447.515 33.7418 446.406C34.41 445.297 34.8412 444.229 35.0912 443.391C35.2163 442.972 35.2742 442.589 35.3368 442.38C35.3478 442.154 35.3947 441.997 35.3947 441.997C34.0164 441.342 32.9202 441.061 32.0904 441.204C31.2092 441.332 30.6458 441.902 29.6174 442.9Z" fill="#52A5CE" stroke="#2779A3"/>
<path d="M30.472 441.271C30.4718 442.885 30.6217 444.446 30.1883 446.063C29.8656 447.322 29.2741 448.526 28.6825 449.402C28.3598 449.84 28.0909 450.223 27.8758 450.442C27.6607 450.661 27.4994 450.825 27.4994 450.825C28.4674 451.318 29.5967 451.427 30.726 451.318C31.8554 451.154 32.9847 450.771 33.899 450.114C38.5382 446.876 36.8316 441.877 34.4647 439.403C32.5632 438.314 30.9847 439.162 30.472 441.271Z" fill="#52A5CE" stroke="#2779A3"/>
<path d="M35.4512 449.355C39.9189 448.092 40.5418 441.458 36.8751 439.166C33.2085 436.875 30.4585 439.625 30.4598 440.676C35.0443 441.546 36.8745 443.75 35.4512 449.355Z" fill="#52A5CE" stroke="#2779A3"/>
</svg>
