<svg width="360" height="16" viewBox="0 0 360 16" fill="none" xmlns="http://www.w3.org/2000/svg">
<g clip-path="url(#clip0_206_25459)">
<path d="M369.19 2.26137L371.5 2.9919L368.3 10.5966C366.548 14.7533 363.076 14.3333 359.5 13.3215C361.213 9.26711 363.154 0.365664 369.19 2.26137Z" fill="#EDEDED" stroke="#D2D2D2"/>
<path d="M362.19 2.26137L364.5 2.9919L361.3 10.5966C359.548 14.7533 356.076 14.3333 352.5 13.3215C354.213 9.26711 356.154 0.365664 362.19 2.26137Z" fill="#EDEDED" stroke="#D2D2D2"/>
<path d="M355.19 2.26137L357.5 2.9919L354.3 10.5966C352.548 14.7533 349.076 14.3333 345.5 13.3215C347.213 9.26711 349.154 0.365664 355.19 2.26137Z" fill="#EDEDED" stroke="#D2D2D2"/>
<path d="M348.19 2.26137L350.5 2.9919L347.3 10.5966C345.548 14.7533 342.076 14.3333 338.5 13.3215C340.213 9.26711 342.154 0.365664 348.19 2.26137Z" fill="#EDEDED" stroke="#D2D2D2"/>
<path d="M341.19 2.26137L343.5 2.9919L340.3 10.5966C338.548 14.7533 335.076 14.3333 331.5 13.3215C333.213 9.26711 335.154 0.365664 341.19 2.26137Z" fill="#EDEDED" stroke="#D2D2D2"/>
<path d="M334.19 2.26137L336.5 2.9919L333.3 10.5966C331.548 14.7533 328.076 14.3333 324.5 13.3215C326.213 9.26711 328.154 0.365664 334.19 2.26137Z" fill="#EDEDED" stroke="#D2D2D2"/>
<path d="M327.19 2.26137L329.5 2.9919L326.3 10.5966C324.548 14.7533 321.076 14.3333 317.5 13.3215C319.213 9.26711 321.154 0.365664 327.19 2.26137Z" fill="#EDEDED" stroke="#D2D2D2"/>
<path d="M320.19 2.26137L322.5 2.9919L319.3 10.5966C317.548 14.7533 314.076 14.3333 310.5 13.3215C312.213 9.26711 314.154 0.365664 320.19 2.26137Z" fill="#EDEDED" stroke="#D2D2D2"/>
<path d="M313.19 2.26137L315.5 2.9919L312.3 10.5966C310.548 14.7533 307.076 14.3333 303.5 13.3215C305.213 9.26711 307.154 0.365664 313.19 2.26137Z" fill="#EDEDED" stroke="#D2D2D2"/>
<path d="M306.19 2.26137L308.5 2.9919L305.3 10.5966C303.548 14.7533 300.076 14.3333 296.5 13.3215C298.213 9.26711 300.154 0.365664 306.19 2.26137Z" fill="#EDEDED" stroke="#D2D2D2"/>
<path d="M299.19 2.26137L301.5 2.9919L298.3 10.5966C296.548 14.7533 293.076 14.3333 289.5 13.3215C291.213 9.26711 293.154 0.365664 299.19 2.26137Z" fill="#EDEDED" stroke="#D2D2D2"/>
<path d="M292.19 2.26137L294.5 2.9919L291.3 10.5966C289.548 14.7533 286.076 14.3333 282.5 13.3215C284.213 9.26711 286.154 0.365664 292.19 2.26137Z" fill="#EDEDED" stroke="#D2D2D2"/>
<path d="M285.19 2.26137L287.5 2.9919L284.3 10.5966C282.548 14.7533 279.076 14.3333 275.5 13.3215C277.213 9.26711 279.154 0.365664 285.19 2.26137Z" fill="#EDEDED" stroke="#D2D2D2"/>
<path d="M278.19 2.26137L280.5 2.9919L277.3 10.5966C275.548 14.7533 272.076 14.3333 268.5 13.3215C270.213 9.26711 272.154 0.365664 278.19 2.26137Z" fill="#EDEDED" stroke="#D2D2D2"/>
<path d="M271.19 2.26137L273.5 2.9919L270.3 10.5966C268.548 14.7533 265.076 14.3333 261.5 13.3215C263.213 9.26711 265.154 0.365664 271.19 2.26137Z" fill="#EDEDED" stroke="#D2D2D2"/>
<path d="M264.19 2.26137L266.5 2.9919L263.3 10.5966C261.548 14.7533 258.076 14.3333 254.5 13.3215C256.213 9.26711 258.154 0.365664 264.19 2.26137Z" fill="#EDEDED" stroke="#D2D2D2"/>
<path d="M257.19 2.26137L259.5 2.9919L256.3 10.5966C254.548 14.7533 251.076 14.3333 247.5 13.3215C249.213 9.26711 251.154 0.365664 257.19 2.26137Z" fill="#EDEDED" stroke="#D2D2D2"/>
<path d="M250.19 2.26137L252.5 2.9919L249.3 10.5966C247.548 14.7533 244.076 14.3333 240.5 13.3215C242.213 9.26711 244.154 0.365664 250.19 2.26137Z" fill="#EDEDED" stroke="#D2D2D2"/>
<path d="M243.19 2.26137L245.5 2.9919L242.3 10.5966C240.548 14.7533 237.076 14.3333 233.5 13.3215C235.213 9.26711 237.154 0.365664 243.19 2.26137Z" fill="#EDEDED" stroke="#D2D2D2"/>
<path d="M236.19 2.26137L238.5 2.9919L235.3 10.5966C233.548 14.7533 230.076 14.3333 226.5 13.3215C228.213 9.26711 230.154 0.365664 236.19 2.26137Z" fill="#EDEDED" stroke="#D2D2D2"/>
<path d="M229.19 2.26137L231.5 2.9919L228.3 10.5966C226.548 14.7533 223.076 14.3333 219.5 13.3215C221.213 9.26711 223.154 0.365664 229.19 2.26137Z" fill="#EDEDED" stroke="#D2D2D2"/>
<path d="M222.19 2.26137L224.5 2.9919L221.3 10.5966C219.548 14.7533 216.076 14.3333 212.5 13.3215C214.213 9.26711 216.154 0.365664 222.19 2.26137Z" fill="#EDEDED" stroke="#D2D2D2"/>
<path d="M215.19 2.26137L217.5 2.9919L214.3 10.5966C212.548 14.7533 209.076 14.3333 205.5 13.3215C207.213 9.26711 209.154 0.365664 215.19 2.26137Z" fill="#EDEDED" stroke="#D2D2D2"/>
<path d="M208.19 2.26137L210.5 2.9919L207.3 10.5966C205.548 14.7533 202.076 14.3333 198.5 13.3215C200.213 9.26711 202.154 0.365664 208.19 2.26137Z" fill="#EDEDED" stroke="#D2D2D2"/>
<path d="M201.19 2.26137L203.5 2.9919L200.3 10.5966C198.548 14.7533 195.076 14.3333 191.5 13.3215C193.213 9.26711 195.154 0.365664 201.19 2.26137Z" fill="#EDEDED" stroke="#D2D2D2"/>
<path d="M194.19 2.26137L196.5 2.9919L193.3 10.5966C191.548 14.7533 188.076 14.3333 184.5 13.3215C186.213 9.26711 188.154 0.365664 194.19 2.26137Z" fill="#EDEDED" stroke="#D2D2D2"/>
<path d="M187.19 2.26137L189.5 2.9919L186.3 10.5966C184.548 14.7533 181.076 14.3333 177.5 13.3215C179.213 9.26711 181.154 0.365664 187.19 2.26137Z" fill="#EDEDED" stroke="#D2D2D2"/>
<path d="M180.19 2.26137L182.5 2.9919L179.3 10.5966C177.548 14.7533 174.076 14.3333 170.5 13.3215C172.213 9.26711 174.154 0.365664 180.19 2.26137Z" fill="#EDEDED" stroke="#D2D2D2"/>
<path d="M173.19 2.26137L175.5 2.9919L172.3 10.5966C170.548 14.7533 167.076 14.3333 163.5 13.3215C165.213 9.26711 167.154 0.365664 173.19 2.26137Z" fill="#EDEDED" stroke="#D2D2D2"/>
<path d="M166.19 2.26137L168.5 2.9919L165.3 10.5966C163.548 14.7533 160.076 14.3333 156.5 13.3215C158.213 9.26711 160.154 0.365664 166.19 2.26137Z" fill="#EDEDED" stroke="#D2D2D2"/>
<path d="M159.19 2.26137L161.5 2.9919L158.3 10.5966C156.548 14.7533 153.076 14.3333 149.5 13.3215C151.213 9.26711 153.154 0.365664 159.19 2.26137Z" fill="#EDEDED" stroke="#D2D2D2"/>
<path d="M152.19 2.26137L154.5 2.9919L151.3 10.5966C149.548 14.7533 146.076 14.3333 142.5 13.3215C144.213 9.26711 146.154 0.365664 152.19 2.26137Z" fill="#EDEDED" stroke="#D2D2D2"/>
<path d="M145.19 2.26137L147.5 2.9919L144.3 10.5966C142.548 14.7533 139.076 14.3333 135.5 13.3215C137.213 9.26711 139.154 0.365664 145.19 2.26137Z" fill="#EDEDED" stroke="#D2D2D2"/>
<path d="M138.19 2.26137L140.5 2.9919L137.3 10.5966C135.548 14.7533 132.076 14.3333 128.5 13.3215C130.213 9.26711 132.154 0.365664 138.19 2.26137Z" fill="#EDEDED" stroke="#D2D2D2"/>
<path d="M131.19 2.26137L133.5 2.9919L130.3 10.5966C128.548 14.7533 125.076 14.3333 121.5 13.3215C123.213 9.26711 125.154 0.365664 131.19 2.26137Z" fill="#EDEDED" stroke="#D2D2D2"/>
<path d="M124.19 2.26137L126.5 2.9919L123.3 10.5966C121.548 14.7533 118.076 14.3333 114.5 13.3215C116.213 9.26711 118.154 0.365664 124.19 2.26137Z" fill="#EDEDED" stroke="#D2D2D2"/>
<path d="M117.19 2.26137L119.5 2.9919L116.3 10.5966C114.548 14.7533 111.076 14.3333 107.5 13.3215C109.213 9.26711 111.154 0.365664 117.19 2.26137Z" fill="#EDEDED" stroke="#D2D2D2"/>
<path d="M110.19 2.26137L112.5 2.9919L109.3 10.5966C107.548 14.7533 104.076 14.3333 100.5 13.3215C102.213 9.26711 104.154 0.365664 110.19 2.26137Z" fill="#EDEDED" stroke="#D2D2D2"/>
<path d="M103.19 2.26137L105.5 2.9919L102.3 10.5966C100.548 14.7533 97.0757 14.3333 93.5 13.3215C95.2128 9.26711 97.1543 0.365664 103.19 2.26137Z" fill="#EDEDED" stroke="#D2D2D2"/>
<path d="M96.1901 2.26137L98.5 2.9919L95.2998 10.5966C93.5477 14.7533 90.0757 14.3333 86.5 13.3215C88.2128 9.26711 90.1543 0.365664 96.1901 2.26137Z" fill="#EDEDED" stroke="#D2D2D2"/>
<path d="M89.1901 2.26137L91.5 2.9919L88.2998 10.5966C86.5477 14.7533 83.0757 14.3333 79.5 13.3215C81.2128 9.26711 83.1543 0.365664 89.1901 2.26137Z" fill="#EDEDED" stroke="#D2D2D2"/>
<path d="M82.1901 2.26137L84.5 2.9919L81.2998 10.5966C79.5477 14.7533 76.0757 14.3333 72.5 13.3215C74.2128 9.26711 76.1543 0.365664 82.1901 2.26137Z" fill="#EDEDED" stroke="#D2D2D2"/>
<path d="M75.1901 2.26137L77.5 2.9919L74.2998 10.5966C72.5477 14.7533 69.0757 14.3333 65.5 13.3215C67.2128 9.26711 69.1543 0.365664 75.1901 2.26137Z" fill="#EDEDED" stroke="#D2D2D2"/>
<path d="M68.1901 2.26137L70.5 2.9919L67.2998 10.5966C65.5477 14.7533 62.0757 14.3333 58.5 13.3215C60.2128 9.26711 62.1543 0.365664 68.1901 2.26137Z" fill="#EDEDED" stroke="#D2D2D2"/>
<path d="M61.1901 2.26137L63.5 2.9919L60.2998 10.5966C58.5477 14.7533 55.0757 14.3333 51.5 13.3215C53.2128 9.26711 55.1543 0.365664 61.1901 2.26137Z" fill="#EDEDED" stroke="#D2D2D2"/>
<path d="M54.1901 2.26137L56.5 2.9919L53.2998 10.5966C51.5477 14.7533 48.0757 14.3333 44.5 13.3215C46.2128 9.26711 48.1543 0.365664 54.1901 2.26137Z" fill="#EDEDED" stroke="#D2D2D2"/>
<path d="M47.1901 2.26137L49.5 2.9919L46.2998 10.5966C44.5477 14.7533 41.0757 14.3333 37.5 13.3215C39.2128 9.26711 41.1543 0.365664 47.1901 2.26137Z" fill="#EDEDED" stroke="#D2D2D2"/>
<path d="M40.1901 2.26137L42.5 2.9919L39.2998 10.5966C37.5477 14.7533 34.0757 14.3333 30.5 13.3215C32.2128 9.26711 34.1543 0.365664 40.1901 2.26137Z" fill="#EDEDED" stroke="#D2D2D2"/>
<path d="M33.1901 2.26137L35.5 2.9919L32.2998 10.5966C30.5477 14.7533 27.0757 14.3333 23.5 13.3215C25.2128 9.26711 27.1543 0.365664 33.1901 2.26137Z" fill="#EDEDED" stroke="#D2D2D2"/>
<path d="M26.1901 2.26137L28.5 2.9919L25.2998 10.5966C23.5477 14.7533 20.0757 14.3333 16.5 13.3215C18.2128 9.26711 20.1543 0.365664 26.1901 2.26137Z" fill="#EDEDED" stroke="#D2D2D2"/>
<path d="M19.1901 2.26137L21.5 2.9919L18.2998 10.5966C16.5477 14.7533 13.0757 14.3333 9.5 13.3215C11.2128 9.26711 13.1543 0.365664 19.1901 2.26137Z" fill="#EDEDED" stroke="#D2D2D2"/>
<path d="M12.1901 2.26137L14.5 2.9919L11.2998 10.5966C9.54767 14.7533 6.07569 14.3333 2.5 13.3215C4.21275 9.26711 6.15434 0.365664 12.1901 2.26137Z" fill="#EDEDED" stroke="#D2D2D2"/>
<path d="M5.1901 2.26137L7.5 2.9919L4.29976 10.5966C2.54767 14.7533 -0.924314 14.3333 -4.5 13.3215C-2.78725 9.26711 -0.845658 0.365664 5.1901 2.26137Z" fill="#EDEDED" stroke="#D2D2D2"/>
<path d="M-1.8099 2.26137L0.5 2.9919L-2.70024 10.5966C-4.45233 14.7533 -7.92431 14.3333 -11.5 13.3215C-9.78725 9.26711 -7.84566 0.365664 -1.8099 2.26137Z" fill="#EDEDED" stroke="#D2D2D2"/>
</g>
<defs>
<clipPath id="clip0_206_25459">
<rect width="360" height="16" fill="white"/>
</clipPath>
</defs>
</svg>
