<svg width="60" height="477" viewBox="0 0 60 477" fill="none" xmlns="http://www.w3.org/2000/svg">
<path d="M35.7386 3.3099L35.0081 1L27.4034 4.20024C23.2467 5.95233 23.6667 9.42431 24.6785 13C28.7329 11.2872 37.6343 9.34566 35.7386 3.3099Z" fill="#CEC927" stroke="#ACA824"/>
<path d="M35.7386 10.3099L35.0081 8L27.4034 11.2002C23.2467 12.9523 23.6667 16.4243 24.6785 20C28.7329 18.2872 37.6343 16.3457 35.7386 10.3099Z" fill="#CEC927" stroke="#ACA824"/>
<path d="M35.7386 17.3099L35.0081 15L27.4034 18.2002C23.2467 19.9523 23.6667 23.4243 24.6785 27C28.7329 25.2872 37.6343 23.3457 35.7386 17.3099Z" fill="#CEC927" stroke="#ACA824"/>
<path d="M35.7386 24.3099L35.0081 22L27.4034 25.2002C23.2467 26.9523 23.6667 30.4243 24.6785 34C28.7329 32.2872 37.6343 30.3457 35.7386 24.3099Z" fill="#CEC927" stroke="#ACA824"/>
<path d="M35.7386 31.3099L35.0081 29L27.4034 32.2002C23.2467 33.9523 23.6667 37.4243 24.6785 41C28.7329 39.2872 37.6343 37.3457 35.7386 31.3099Z" fill="#CEC927" stroke="#ACA824"/>
<path d="M35.7386 38.3099L35.0081 36L27.4034 39.2002C23.2467 40.9523 23.6667 44.4243 24.6785 48C28.7329 46.2872 37.6343 44.3457 35.7386 38.3099Z" fill="#CEC927" stroke="#ACA824"/>
<path d="M35.7386 45.3099L35.0081 43L27.4034 46.2002C23.2467 47.9523 23.6667 51.4243 24.6785 55C28.7329 53.2872 37.6343 51.3457 35.7386 45.3099Z" fill="#CEC927" stroke="#ACA824"/>
<path d="M35.7386 52.3099L35.0081 50L27.4034 53.2002C23.2467 54.9523 23.6667 58.4243 24.6785 62C28.7329 60.2872 37.6343 58.3457 35.7386 52.3099Z" fill="#CEC927" stroke="#ACA824"/>
<path d="M35.7386 59.3099L35.0081 57L27.4034 60.2002C23.2467 61.9523 23.6667 65.4243 24.6785 69C28.7329 67.2872 37.6343 65.3457 35.7386 59.3099Z" fill="#CEC927" stroke="#ACA824"/>
<path d="M35.7386 66.3099L35.0081 64L27.4034 67.2002C23.2467 68.9523 23.6667 72.4243 24.6785 76C28.7329 74.2872 37.6343 72.3457 35.7386 66.3099Z" fill="#CEC927" stroke="#ACA824"/>
<path d="M35.7386 73.3099L35.0081 71L27.4034 74.2002C23.2467 75.9523 23.6667 79.4243 24.6785 83C28.7329 81.2872 37.6343 79.3457 35.7386 73.3099Z" fill="#CEC927" stroke="#ACA824"/>
<path d="M35.7386 80.3099L35.0081 78L27.4034 81.2002C23.2467 82.9523 23.6667 86.4243 24.6785 90C28.7329 88.2872 37.6343 86.3457 35.7386 80.3099Z" fill="#CEC927" stroke="#ACA824"/>
<path d="M35.7386 87.3099L35.0081 85L27.4034 88.2002C23.2467 89.9523 23.6667 93.4243 24.6785 97C28.7329 95.2872 37.6343 93.3457 35.7386 87.3099Z" fill="#CEC927" stroke="#ACA824"/>
<path d="M35.7386 94.3099L35.0081 92L27.4034 95.2002C23.2467 96.9523 23.6667 100.424 24.6785 104C28.7329 102.287 37.6343 100.346 35.7386 94.3099Z" fill="#CEC927" stroke="#ACA824"/>
<path d="M35.7386 101.31L35.0081 99L27.4034 102.2C23.2467 103.952 23.6667 107.424 24.6785 111C28.7329 109.287 37.6343 107.346 35.7386 101.31Z" fill="#CEC927" stroke="#ACA824"/>
<path d="M35.4975 159.277C35.0897 158.239 34.1836 157.201 33.0055 156.569C31.8275 155.892 30.4683 155.576 29.1543 155.576C23.2222 155.678 21.0123 162.432 22.63 167.266C22.7659 167.672 22.9018 167.988 22.9924 168.214C23.0831 168.44 23.1283 168.575 23.1283 168.575C24.6235 168.35 25.6656 168.079 26.2999 167.537C30.0849 164.709 29.4806 159.277 35.4975 159.277Z" fill="#CEC927" stroke="#ACA824"/>
<path d="M40.5664 163.581C40.4966 162.469 39.9522 161.204 39.0244 160.244C38.1104 159.241 36.9131 158.526 35.662 158.126C30.2305 156.492 24.8531 161.944 26.8051 167.152C35.422 170.351 35.0165 161.807 40.5664 163.581Z" fill="#CEC927" stroke="#ACA824"/>
<path d="M22.9896 159.909C23.0802 159.728 23.1708 159.548 23.2161 159.367C23.3521 159.096 23.4427 158.916 23.4427 158.916C22.4459 158.735 21.3132 158.871 20.2711 159.322C19.229 159.728 18.2322 160.45 17.5073 161.308C14.2348 165.383 16.4423 170.871 20.3164 173.766C20.4976 173.901 20.7242 174.037 20.9054 174.172C21.2679 174.398 21.5397 174.578 21.7662 174.669C21.9928 174.759 22.1287 174.804 22.1287 174.804C23.1708 173.721 23.7598 172.908 23.941 171.96C24.5598 167.851 21.8263 164.544 22.9896 159.909Z" fill="#CEC927" stroke="#ACA824"/>
<path d="M34.9973 167.131C34.9973 167.131 35.1332 167.086 35.3597 166.995C35.5862 166.905 35.9034 166.815 36.3112 166.77C37.1268 166.589 38.3048 166.589 39.5281 166.815C40.7514 167.04 42.02 167.537 42.9262 167.988C43.3793 168.214 43.7418 168.44 44.0136 168.62C44.2855 168.801 44.4213 168.891 44.4213 168.891C44.7838 167.943 44.8291 166.86 44.6026 165.777C44.376 164.693 43.8323 163.565 43.0621 162.662C42.2918 161.714 41.2951 160.992 40.2077 160.541C39.1203 160.089 37.9423 159.954 36.9002 160.134C36.9002 160.134 36.719 160.18 36.4018 160.225C36.0847 160.315 35.6315 160.405 35.1332 160.631C34.6348 160.812 34.0458 161.082 33.5021 161.443C32.9584 161.805 32.46 162.211 32.0069 162.662C31.1461 163.565 30.7383 164.648 30.6023 165.416C30.557 165.822 30.557 166.093 30.6023 166.318C30.6476 166.544 30.6477 166.634 30.6477 166.634C31.7351 167.402 32.1429 167.988 32.46 167.988C32.5959 167.988 32.9131 167.898 33.2755 167.718C33.9098 167.582 34.4536 167.356 34.9973 167.131Z" fill="#CEC927" stroke="#ACA824"/>
<path d="M35.7357 150.31L35.0052 148L27.4004 151.2C23.2438 152.952 23.6638 156.424 24.6755 160C28.73 158.287 37.6314 156.346 35.7357 150.31Z" fill="#CEC927" stroke="#ACA824"/>
<path d="M35.7357 157.31L35.0052 155L27.4004 158.2C23.2438 159.952 23.6638 163.424 24.6755 167C28.73 165.287 37.6314 163.346 35.7357 157.31Z" fill="#CEC927" stroke="#ACA824"/>
<path d="M35.7357 164.31L35.0052 162L27.4004 165.2C23.2438 166.952 23.6638 170.424 24.6755 174C28.73 172.287 37.6314 170.346 35.7357 164.31Z" fill="#CEC927" stroke="#ACA824"/>
<path d="M35.7357 171.31L35.0052 169L27.4004 172.2C23.2438 173.952 23.6638 177.424 24.6755 181C28.73 179.287 37.6314 177.346 35.7357 171.31Z" fill="#CEC927" stroke="#ACA824"/>
<path d="M35.7357 178.31L35.0052 176L27.4004 179.2C23.2438 180.952 23.6638 184.424 24.6755 188C28.73 186.287 37.6314 184.346 35.7357 178.31Z" fill="#CEC927" stroke="#ACA824"/>
<path d="M35.7357 185.31L35.0052 183L27.4004 186.2C23.2438 187.952 23.6638 191.424 24.6755 195C28.73 193.287 37.6314 191.346 35.7357 185.31Z" fill="#CEC927" stroke="#ACA824"/>
<path d="M16.1474 167.808C16.0568 167.492 16.0114 167.357 16.0114 167.357C14.2897 168.35 13.1117 170.471 13.0664 172.773C13.0664 178.35 19.0829 181.419 24.1669 180.086C24.5747 179.995 24.8918 179.905 25.1184 179.815C25.3449 179.725 25.4809 179.679 25.4809 179.679C25.1738 174.48 17.7347 173.343 16.1474 167.808Z" fill="#CEC927" stroke="#ACA824"/>
<path d="M25.4827 179.635C25.4827 179.635 25.3467 179.68 25.1202 179.77C24.8936 179.86 24.5765 179.951 24.1687 180.041C23.3532 180.221 22.1752 180.357 20.9066 180.267C20.2722 180.221 19.6832 180.086 19.0489 179.905C18.4599 179.725 17.9162 179.499 17.4178 179.319C16.9647 179.093 16.5569 178.867 16.2851 178.732C16.0132 178.551 15.832 178.461 15.832 178.461C15.6961 178.958 15.6508 179.454 15.6055 179.996C15.6055 180.537 15.6961 181.079 15.8773 181.666C16.0132 182.207 16.2851 182.749 16.5569 183.246C16.8288 183.742 17.2366 184.194 17.6443 184.645C18.0521 185.051 18.5052 185.412 19.0036 185.728C19.502 186.044 20.0004 186.27 20.5441 186.45C21.0878 186.631 21.5862 186.721 22.1299 186.766C22.6736 186.811 23.172 186.721 23.625 186.631C23.625 186.631 23.8063 186.586 24.0781 186.496C24.3953 186.405 24.803 186.27 25.3014 186.134C26.2529 185.773 27.4762 185.187 28.473 184.464C28.9714 184.103 29.4245 183.697 29.8322 183.336C30.24 182.93 30.5572 182.569 30.7837 182.207C31.2821 181.485 31.5086 181.034 31.5086 181.034C30.5118 179.905 29.7417 179.274 28.8355 179.093C27.9293 178.912 26.8872 179.093 25.4827 179.635Z" fill="#CEC927" stroke="#ACA824"/>
<path d="M31.5076 181.079C31.5076 181.079 31.2811 181.53 30.7827 182.253C30.5108 182.569 30.1937 182.975 29.8312 183.381C29.4234 183.742 28.9704 184.148 28.472 184.509C27.4752 185.232 26.2519 185.818 25.3004 186.179C24.802 186.36 24.3943 186.495 24.0771 186.541C23.7599 186.631 23.624 186.631 23.624 186.631C23.8506 187.082 24.1677 187.488 24.4848 187.85C24.8473 188.256 25.2551 188.572 25.7082 188.843C26.1613 189.159 26.6596 189.384 27.2033 189.565C27.747 189.745 28.2908 189.836 28.8798 189.926C30.0125 190.016 31.2358 189.836 32.2779 189.429C33.32 188.978 34.2261 188.346 34.8151 187.488C34.8151 187.488 34.9057 187.353 35.087 187.082C35.2682 186.857 35.4947 186.405 35.7213 185.954C36.2197 185.051 36.6728 183.742 36.854 182.523C37.0352 181.305 36.9899 180.131 36.8087 179.273C36.7181 178.867 36.6275 178.506 36.5821 178.28C36.4915 178.055 36.4462 177.919 36.4462 177.919C34.951 177.919 33.909 178.01 33.2293 178.461C33.0481 178.551 32.9122 178.687 32.731 178.867C32.595 179.003 32.4591 179.183 32.3232 179.409C32.1872 179.589 32.0513 179.86 31.9154 180.131C31.8248 180.447 31.6888 180.718 31.5076 181.079Z" fill="#CEC927" stroke="#ACA824"/>
<path d="M36.5335 178.01C36.5335 178.01 36.5788 178.145 36.6694 178.371C36.7147 178.596 36.8053 178.912 36.8959 179.364C37.0318 180.176 37.1224 181.35 36.9412 182.614C36.76 183.832 36.3069 185.141 35.8085 186.044C35.582 186.495 35.3102 186.902 35.1742 187.172C34.993 187.443 34.9023 187.579 34.9023 187.579C35.1289 187.669 35.4008 187.759 35.6726 187.804C35.9445 187.849 36.2163 187.849 36.4881 187.895C36.76 187.895 37.0318 187.895 37.349 187.895C37.6208 187.849 37.8927 187.804 38.1646 187.759C39.252 187.488 40.3393 186.947 41.2455 186.179C42.1517 185.412 42.8313 184.419 43.2391 183.426C43.6468 182.388 43.7828 181.305 43.6015 180.312C43.6015 180.312 43.5562 180.131 43.5109 179.815C43.4656 179.499 43.3297 179.093 43.1938 178.596C42.8766 177.603 42.3329 176.385 41.608 175.346C40.883 174.308 39.9769 173.541 39.2973 173.044C38.9348 172.819 38.6629 172.638 38.4364 172.503C38.2099 172.367 38.1193 172.322 38.1193 172.322C37.0319 173.36 36.3975 174.128 36.2163 174.895C35.8538 175.572 36.0804 176.565 36.5335 178.01Z" fill="#CEC927" stroke="#ACA824"/>
<path d="M43.3764 179.725C43.4218 180.041 43.467 180.221 43.467 180.221C44.3732 179.815 45.1888 179.048 45.8231 178.1C46.4574 177.152 46.8198 175.978 46.9105 174.805C47.0011 173.631 46.8199 172.412 46.3668 171.419C44.4823 167.101 41.8084 165.594 36.1511 166.699C35.0052 168.798 34.9491 169.614 35.3569 170.336C37.8162 174.147 42.4053 173.92 43.3764 179.725Z" fill="#CEC927" stroke="#ACA824"/>
<path d="M35.4975 138.277C35.0897 137.239 34.1836 136.201 33.0055 135.569C31.8275 134.892 30.4683 134.576 29.1543 134.576C23.2222 134.678 21.0123 141.432 22.63 146.266C22.7659 146.672 22.9018 146.988 22.9924 147.214C23.0831 147.44 23.1283 147.575 23.1283 147.575C24.6235 147.35 25.6656 147.079 26.2999 146.537C30.0849 143.709 29.4806 138.277 35.4975 138.277Z" fill="#CEC927" stroke="#ACA824"/>
<path d="M40.5664 142.581C40.4966 141.469 39.9522 140.204 39.0244 139.244C38.1104 138.241 36.9131 137.526 35.662 137.126C30.2305 135.492 24.8531 140.944 26.8051 146.152C35.422 149.351 35.0165 140.807 40.5664 142.581Z" fill="#CEC927" stroke="#ACA824"/>
<path d="M22.9896 138.909C23.0802 138.728 23.1708 138.548 23.2161 138.367C23.3521 138.096 23.4427 137.916 23.4427 137.916C22.4459 137.735 21.3132 137.871 20.2711 138.322C19.229 138.728 18.2322 139.45 17.5073 140.308C14.2348 144.383 16.4423 149.871 20.3164 152.766C20.4976 152.901 20.7242 153.037 20.9054 153.172C21.2679 153.398 21.5397 153.578 21.7662 153.669C21.9928 153.759 22.1287 153.804 22.1287 153.804C23.1708 152.721 23.7598 151.908 23.941 150.96C24.5598 146.851 21.8263 143.544 22.9896 138.909Z" fill="#CEC927" stroke="#ACA824"/>
<path d="M34.9973 146.131C34.9973 146.131 35.1332 146.086 35.3597 145.995C35.5862 145.905 35.9034 145.815 36.3112 145.77C37.1268 145.589 38.3048 145.589 39.5281 145.815C40.7514 146.04 42.02 146.537 42.9262 146.988C43.3793 147.214 43.7418 147.44 44.0136 147.62C44.2855 147.801 44.4213 147.891 44.4213 147.891C44.7838 146.943 44.8291 145.86 44.6026 144.777C44.376 143.693 43.8323 142.565 43.0621 141.662C42.2918 140.714 41.2951 139.992 40.2077 139.541C39.1203 139.089 37.9423 138.954 36.9002 139.134C36.9002 139.134 36.719 139.18 36.4018 139.225C36.0847 139.315 35.6315 139.405 35.1332 139.631C34.6348 139.812 34.0458 140.082 33.5021 140.443C32.9584 140.805 32.46 141.211 32.0069 141.662C31.1461 142.565 30.7383 143.648 30.6023 144.416C30.557 144.822 30.557 145.093 30.6023 145.318C30.6476 145.544 30.6477 145.634 30.6477 145.634C31.7351 146.402 32.1429 146.988 32.46 146.988C32.5959 146.988 32.9131 146.898 33.2755 146.718C33.9098 146.582 34.4536 146.356 34.9973 146.131Z" fill="#CEC927" stroke="#ACA824"/>
<path d="M35.7357 129.31L35.0052 127L27.4004 130.2C23.2438 131.952 23.6638 135.424 24.6755 139C28.73 137.287 37.6314 135.346 35.7357 129.31Z" fill="#CEC927" stroke="#ACA824"/>
<path d="M35.7357 136.31L35.0052 134L27.4004 137.2C23.2438 138.952 23.6638 142.424 24.6755 146C28.73 144.287 37.6314 142.346 35.7357 136.31Z" fill="#CEC927" stroke="#ACA824"/>
<path d="M35.7357 143.31L35.0052 141L27.4004 144.2C23.2438 145.952 23.6638 149.424 24.6755 153C28.73 151.287 37.6314 149.346 35.7357 143.31Z" fill="#CEC927" stroke="#ACA824"/>
<path d="M35.7357 150.31L35.0052 148L27.4004 151.2C23.2438 152.952 23.6638 156.424 24.6755 160C28.73 158.287 37.6314 156.346 35.7357 150.31Z" fill="#CEC927" stroke="#ACA824"/>
<path d="M35.7357 157.31L35.0052 155L27.4004 158.2C23.2438 159.952 23.6638 163.424 24.6755 167C28.73 165.287 37.6314 163.346 35.7357 157.31Z" fill="#CEC927" stroke="#ACA824"/>
<path d="M35.7357 164.31L35.0052 162L27.4004 165.2C23.2438 166.952 23.6638 170.424 24.6755 174C28.73 172.287 37.6314 170.346 35.7357 164.31Z" fill="#CEC927" stroke="#ACA824"/>
<path d="M16.1474 146.808C16.0568 146.492 16.0114 146.357 16.0114 146.357C14.2897 147.35 13.1117 149.471 13.0664 151.773C13.0664 157.35 19.0829 160.419 24.1669 159.086C24.5747 158.995 24.8918 158.905 25.1184 158.815C25.3449 158.725 25.4809 158.679 25.4809 158.679C25.1738 153.48 17.7347 152.343 16.1474 146.808Z" fill="#CEC927" stroke="#ACA824"/>
<path d="M25.4827 158.635C25.4827 158.635 25.3467 158.68 25.1202 158.77C24.8936 158.86 24.5765 158.951 24.1687 159.041C23.3532 159.221 22.1752 159.357 20.9066 159.267C20.2722 159.221 19.6832 159.086 19.0489 158.905C18.4599 158.725 17.9162 158.499 17.4178 158.319C16.9647 158.093 16.5569 157.867 16.2851 157.732C16.0132 157.551 15.832 157.461 15.832 157.461C15.6961 157.958 15.6508 158.454 15.6055 158.996C15.6055 159.537 15.6961 160.079 15.8773 160.666C16.0132 161.207 16.2851 161.749 16.5569 162.246C16.8288 162.742 17.2366 163.194 17.6443 163.645C18.0521 164.051 18.5052 164.412 19.0036 164.728C19.502 165.044 20.0004 165.27 20.5441 165.45C21.0878 165.631 21.5862 165.721 22.1299 165.766C22.6736 165.811 23.172 165.721 23.625 165.631C23.625 165.631 23.8063 165.586 24.0781 165.496C24.3953 165.405 24.803 165.27 25.3014 165.134C26.2529 164.773 27.4762 164.187 28.473 163.464C28.9714 163.103 29.4245 162.697 29.8322 162.336C30.24 161.93 30.5572 161.569 30.7837 161.207C31.2821 160.485 31.5086 160.034 31.5086 160.034C30.5118 158.905 29.7417 158.274 28.8355 158.093C27.9293 157.912 26.8872 158.093 25.4827 158.635Z" fill="#CEC927" stroke="#ACA824"/>
<path d="M31.5076 160.079C31.5076 160.079 31.2811 160.53 30.7827 161.253C30.5108 161.569 30.1937 161.975 29.8312 162.381C29.4234 162.742 28.9704 163.148 28.472 163.509C27.4752 164.232 26.2519 164.818 25.3004 165.179C24.802 165.36 24.3943 165.495 24.0771 165.541C23.7599 165.631 23.624 165.631 23.624 165.631C23.8506 166.082 24.1677 166.488 24.4848 166.85C24.8473 167.256 25.2551 167.572 25.7082 167.843C26.1613 168.159 26.6596 168.384 27.2033 168.565C27.747 168.745 28.2908 168.836 28.8798 168.926C30.0125 169.016 31.2358 168.836 32.2779 168.429C33.32 167.978 34.2261 167.346 34.8151 166.488C34.8151 166.488 34.9057 166.353 35.087 166.082C35.2682 165.857 35.4947 165.405 35.7213 164.954C36.2197 164.051 36.6728 162.742 36.854 161.523C37.0352 160.305 36.9899 159.131 36.8087 158.273C36.7181 157.867 36.6275 157.506 36.5821 157.28C36.4915 157.055 36.4462 156.919 36.4462 156.919C34.951 156.919 33.909 157.01 33.2293 157.461C33.0481 157.551 32.9122 157.687 32.731 157.867C32.595 158.003 32.4591 158.183 32.3232 158.409C32.1872 158.589 32.0513 158.86 31.9154 159.131C31.8248 159.447 31.6888 159.718 31.5076 160.079Z" fill="#CEC927" stroke="#ACA824"/>
<path d="M36.5335 157.01C36.5335 157.01 36.5788 157.145 36.6694 157.371C36.7147 157.596 36.8053 157.912 36.8959 158.364C37.0318 159.176 37.1224 160.35 36.9412 161.614C36.76 162.832 36.3069 164.141 35.8085 165.044C35.582 165.495 35.3102 165.902 35.1742 166.172C34.993 166.443 34.9023 166.579 34.9023 166.579C35.1289 166.669 35.4008 166.759 35.6726 166.804C35.9445 166.849 36.2163 166.849 36.4881 166.895C36.76 166.895 37.0318 166.895 37.349 166.895C37.6208 166.849 37.8927 166.804 38.1646 166.759C39.252 166.488 40.3393 165.947 41.2455 165.179C42.1517 164.412 42.8313 163.419 43.2391 162.426C43.6468 161.388 43.7828 160.305 43.6015 159.312C43.6015 159.312 43.5562 159.131 43.5109 158.815C43.4656 158.499 43.3297 158.093 43.1938 157.596C42.8766 156.603 42.3329 155.385 41.608 154.346C40.883 153.308 39.9769 152.541 39.2973 152.044C38.9348 151.819 38.6629 151.638 38.4364 151.503C38.2099 151.367 38.1193 151.322 38.1193 151.322C37.0319 152.36 36.3975 153.128 36.2163 153.895C35.8538 154.572 36.0804 155.565 36.5335 157.01Z" fill="#CEC927" stroke="#ACA824"/>
<path d="M43.3764 158.725C43.4218 159.041 43.467 159.221 43.467 159.221C44.3732 158.815 45.1888 158.048 45.8231 157.1C46.4574 156.152 46.8198 154.978 46.9105 153.805C47.0011 152.631 46.8199 151.412 46.3668 150.419C44.4823 146.101 41.8084 144.594 36.1511 145.699C35.0052 147.798 34.9491 148.614 35.3569 149.336C37.8162 153.147 42.4053 152.92 43.3764 158.725Z" fill="#CEC927" stroke="#ACA824"/>
<path d="M35.4975 117.277C35.0897 116.239 34.1836 115.201 33.0055 114.569C31.8275 113.892 30.4683 113.576 29.1543 113.576C23.2222 113.678 21.0123 120.432 22.63 125.266C22.7659 125.672 22.9018 125.988 22.9924 126.214C23.0831 126.44 23.1283 126.575 23.1283 126.575C24.6235 126.35 25.6656 126.079 26.2999 125.537C30.0849 122.709 29.4806 117.277 35.4975 117.277Z" fill="#CEC927" stroke="#ACA824"/>
<path d="M40.5664 121.581C40.4966 120.469 39.9522 119.204 39.0244 118.244C38.1104 117.241 36.9131 116.526 35.662 116.126C30.2305 114.492 24.8531 119.944 26.8051 125.152C35.422 128.351 35.0165 119.807 40.5664 121.581Z" fill="#CEC927" stroke="#ACA824"/>
<path d="M22.9896 117.909C23.0802 117.728 23.1708 117.548 23.2161 117.367C23.3521 117.096 23.4427 116.916 23.4427 116.916C22.4459 116.735 21.3132 116.871 20.2711 117.322C19.229 117.728 18.2322 118.45 17.5073 119.308C14.2348 123.383 16.4423 128.871 20.3164 131.766C20.4976 131.901 20.7242 132.037 20.9054 132.172C21.2679 132.398 21.5397 132.578 21.7662 132.669C21.9928 132.759 22.1287 132.804 22.1287 132.804C23.1708 131.721 23.7598 130.908 23.941 129.96C24.5598 125.851 21.8263 122.544 22.9896 117.909Z" fill="#CEC927" stroke="#ACA824"/>
<path d="M34.9973 125.131C34.9973 125.131 35.1332 125.086 35.3597 124.995C35.5862 124.905 35.9034 124.815 36.3112 124.77C37.1268 124.589 38.3048 124.589 39.5281 124.815C40.7514 125.04 42.02 125.537 42.9262 125.988C43.3793 126.214 43.7418 126.44 44.0136 126.62C44.2855 126.801 44.4213 126.891 44.4213 126.891C44.7838 125.943 44.8291 124.86 44.6026 123.777C44.376 122.693 43.8323 121.565 43.0621 120.662C42.2918 119.714 41.2951 118.992 40.2077 118.541C39.1203 118.089 37.9423 117.954 36.9002 118.134C36.9002 118.134 36.719 118.18 36.4018 118.225C36.0847 118.315 35.6315 118.405 35.1332 118.631C34.6348 118.812 34.0458 119.082 33.5021 119.443C32.9584 119.805 32.46 120.211 32.0069 120.662C31.1461 121.565 30.7383 122.648 30.6023 123.416C30.557 123.822 30.557 124.093 30.6023 124.318C30.6476 124.544 30.6477 124.634 30.6477 124.634C31.7351 125.402 32.1429 125.988 32.46 125.988C32.5959 125.988 32.9131 125.898 33.2755 125.718C33.9098 125.582 34.4536 125.356 34.9973 125.131Z" fill="#CEC927" stroke="#ACA824"/>
<path d="M35.7357 108.31L35.0052 106L27.4004 109.2C23.2438 110.952 23.6638 114.424 24.6755 118C28.73 116.287 37.6314 114.346 35.7357 108.31Z" fill="#CEC927" stroke="#ACA824"/>
<path d="M35.7357 115.31L35.0052 113L27.4004 116.2C23.2438 117.952 23.6638 121.424 24.6755 125C28.73 123.287 37.6314 121.346 35.7357 115.31Z" fill="#CEC927" stroke="#ACA824"/>
<path d="M35.7357 122.31L35.0052 120L27.4004 123.2C23.2438 124.952 23.6638 128.424 24.6755 132C28.73 130.287 37.6314 128.346 35.7357 122.31Z" fill="#CEC927" stroke="#ACA824"/>
<path d="M35.7357 129.31L35.0052 127L27.4004 130.2C23.2438 131.952 23.6638 135.424 24.6755 139C28.73 137.287 37.6314 135.346 35.7357 129.31Z" fill="#CEC927" stroke="#ACA824"/>
<path d="M35.7357 136.31L35.0052 134L27.4004 137.2C23.2438 138.952 23.6638 142.424 24.6755 146C28.73 144.287 37.6314 142.346 35.7357 136.31Z" fill="#CEC927" stroke="#ACA824"/>
<path d="M35.7357 143.31L35.0052 141L27.4004 144.2C23.2438 145.952 23.6638 149.424 24.6755 153C28.73 151.287 37.6314 149.346 35.7357 143.31Z" fill="#CEC927" stroke="#ACA824"/>
<path d="M16.1474 125.808C16.0568 125.492 16.0114 125.357 16.0114 125.357C14.2897 126.35 13.1117 128.471 13.0664 130.773C13.0664 136.35 19.0829 139.419 24.1669 138.086C24.5747 137.995 24.8918 137.905 25.1184 137.815C25.3449 137.725 25.4809 137.679 25.4809 137.679C25.1738 132.48 17.7347 131.343 16.1474 125.808Z" fill="#CEC927" stroke="#ACA824"/>
<path d="M25.4827 137.635C25.4827 137.635 25.3467 137.68 25.1202 137.77C24.8936 137.86 24.5765 137.951 24.1687 138.041C23.3532 138.221 22.1752 138.357 20.9066 138.267C20.2722 138.221 19.6832 138.086 19.0489 137.905C18.4599 137.725 17.9162 137.499 17.4178 137.319C16.9647 137.093 16.5569 136.867 16.2851 136.732C16.0132 136.551 15.832 136.461 15.832 136.461C15.6961 136.958 15.6508 137.454 15.6055 137.996C15.6055 138.537 15.6961 139.079 15.8773 139.666C16.0132 140.207 16.2851 140.749 16.5569 141.246C16.8288 141.742 17.2366 142.194 17.6443 142.645C18.0521 143.051 18.5052 143.412 19.0036 143.728C19.502 144.044 20.0004 144.27 20.5441 144.45C21.0878 144.631 21.5862 144.721 22.1299 144.766C22.6736 144.811 23.172 144.721 23.625 144.631C23.625 144.631 23.8063 144.586 24.0781 144.496C24.3953 144.405 24.803 144.27 25.3014 144.134C26.2529 143.773 27.4762 143.187 28.473 142.464C28.9714 142.103 29.4245 141.697 29.8322 141.336C30.24 140.93 30.5572 140.569 30.7837 140.207C31.2821 139.485 31.5086 139.034 31.5086 139.034C30.5118 137.905 29.7417 137.274 28.8355 137.093C27.9293 136.912 26.8872 137.093 25.4827 137.635Z" fill="#CEC927" stroke="#ACA824"/>
<path d="M31.5076 139.079C31.5076 139.079 31.2811 139.53 30.7827 140.253C30.5108 140.569 30.1937 140.975 29.8312 141.381C29.4234 141.742 28.9704 142.148 28.472 142.509C27.4752 143.232 26.2519 143.818 25.3004 144.179C24.802 144.36 24.3943 144.495 24.0771 144.541C23.7599 144.631 23.624 144.631 23.624 144.631C23.8506 145.082 24.1677 145.488 24.4848 145.85C24.8473 146.256 25.2551 146.572 25.7082 146.843C26.1613 147.159 26.6596 147.384 27.2033 147.565C27.747 147.745 28.2908 147.836 28.8798 147.926C30.0125 148.016 31.2358 147.836 32.2779 147.429C33.32 146.978 34.2261 146.346 34.8151 145.488C34.8151 145.488 34.9057 145.353 35.087 145.082C35.2682 144.857 35.4947 144.405 35.7213 143.954C36.2197 143.051 36.6728 141.742 36.854 140.523C37.0352 139.305 36.9899 138.131 36.8087 137.273C36.7181 136.867 36.6275 136.506 36.5821 136.28C36.4915 136.055 36.4462 135.919 36.4462 135.919C34.951 135.919 33.909 136.01 33.2293 136.461C33.0481 136.551 32.9122 136.687 32.731 136.867C32.595 137.003 32.4591 137.183 32.3232 137.409C32.1872 137.589 32.0513 137.86 31.9154 138.131C31.8248 138.447 31.6888 138.718 31.5076 139.079Z" fill="#CEC927" stroke="#ACA824"/>
<path d="M36.5335 136.01C36.5335 136.01 36.5788 136.145 36.6694 136.371C36.7147 136.596 36.8053 136.912 36.8959 137.364C37.0318 138.176 37.1224 139.35 36.9412 140.614C36.76 141.832 36.3069 143.141 35.8085 144.044C35.582 144.495 35.3102 144.902 35.1742 145.172C34.993 145.443 34.9023 145.579 34.9023 145.579C35.1289 145.669 35.4008 145.759 35.6726 145.804C35.9445 145.849 36.2163 145.849 36.4881 145.895C36.76 145.895 37.0318 145.895 37.349 145.895C37.6208 145.849 37.8927 145.804 38.1646 145.759C39.252 145.488 40.3393 144.947 41.2455 144.179C42.1517 143.412 42.8313 142.419 43.2391 141.426C43.6468 140.388 43.7828 139.305 43.6015 138.312C43.6015 138.312 43.5562 138.131 43.5109 137.815C43.4656 137.499 43.3297 137.093 43.1938 136.596C42.8766 135.603 42.3329 134.385 41.608 133.346C40.883 132.308 39.9769 131.541 39.2973 131.044C38.9348 130.819 38.6629 130.638 38.4364 130.503C38.2099 130.367 38.1193 130.322 38.1193 130.322C37.0319 131.36 36.3975 132.128 36.2163 132.895C35.8538 133.572 36.0804 134.565 36.5335 136.01Z" fill="#CEC927" stroke="#ACA824"/>
<path d="M43.3764 137.725C43.4218 138.041 43.467 138.221 43.467 138.221C44.3732 137.815 45.1888 137.048 45.8231 136.1C46.4574 135.152 46.8198 133.978 46.9105 132.805C47.0011 131.631 46.8199 130.412 46.3668 129.419C44.4823 125.101 41.8084 123.594 36.1511 124.699C35.0052 126.798 34.9491 127.614 35.3569 128.336C37.8162 132.147 42.4053 131.92 43.3764 137.725Z" fill="#CEC927" stroke="#ACA824"/>
<path d="M35.7386 192.31L35.0081 190L27.4034 193.2C23.2467 194.952 23.6667 198.424 24.6785 202C28.7329 200.287 37.6343 198.346 35.7386 192.31Z" fill="#CEC927" stroke="#ACA824"/>
<path d="M35.7386 199.31L35.0081 197L27.4034 200.2C23.2467 201.952 23.6667 205.424 24.6785 209C28.7329 207.287 37.6343 205.346 35.7386 199.31Z" fill="#CEC927" stroke="#ACA824"/>
<path d="M35.7386 206.31L35.0081 204L27.4034 207.2C23.2467 208.952 23.6667 212.424 24.6785 216C28.7329 214.287 37.6343 212.346 35.7386 206.31Z" fill="#CEC927" stroke="#ACA824"/>
<path d="M35.7386 213.31L35.0081 211L27.4034 214.2C23.2467 215.952 23.6667 219.424 24.6785 223C28.7329 221.287 37.6343 219.346 35.7386 213.31Z" fill="#CEC927" stroke="#ACA824"/>
<path d="M35.7386 220.31L35.0081 218L27.4034 221.2C23.2467 222.952 23.6667 226.424 24.6785 230C28.7329 228.287 37.6343 226.346 35.7386 220.31Z" fill="#CEC927" stroke="#ACA824"/>
<path d="M35.7386 227.31L35.0081 225L27.4034 228.2C23.2467 229.952 23.6667 233.424 24.6785 237C28.7329 235.287 37.6343 233.346 35.7386 227.31Z" fill="#CEC927" stroke="#ACA824"/>
<path d="M35.7386 234.31L35.0081 232L27.4034 235.2C23.2467 236.952 23.6667 240.424 24.6785 244C28.7329 242.287 37.6343 240.346 35.7386 234.31Z" fill="#CEC927" stroke="#ACA824"/>
<path d="M35.7386 241.31L35.0081 239L27.4034 242.2C23.2467 243.952 23.6667 247.424 24.6785 251C28.7329 249.287 37.6343 247.346 35.7386 241.31Z" fill="#CEC927" stroke="#ACA824"/>
<path d="M35.7386 248.31L35.0081 246L27.4034 249.2C23.2467 250.952 23.6667 254.424 24.6785 258C28.7329 256.287 37.6343 254.346 35.7386 248.31Z" fill="#CEC927" stroke="#ACA824"/>
<path d="M35.7386 255.31L35.0081 253L27.4034 256.2C23.2467 257.952 23.6667 261.424 24.6785 265C28.7329 263.287 37.6343 261.346 35.7386 255.31Z" fill="#CEC927" stroke="#ACA824"/>
<path d="M35.7386 262.31L35.0081 260L27.4034 263.2C23.2467 264.952 23.6667 268.424 24.6785 272C28.7329 270.287 37.6343 268.346 35.7386 262.31Z" fill="#CEC927" stroke="#ACA824"/>
<path d="M35.7386 269.31L35.0081 267L27.4034 270.2C23.2467 271.952 23.6667 275.424 24.6785 279C28.7329 277.287 37.6343 275.346 35.7386 269.31Z" fill="#CEC927" stroke="#ACA824"/>
<path d="M35.7386 276.31L35.0081 274L27.4034 277.2C23.2467 278.952 23.6667 282.424 24.6785 286C28.7329 284.287 37.6343 282.346 35.7386 276.31Z" fill="#CEC927" stroke="#ACA824"/>
<path d="M35.7386 283.31L35.0081 281L27.4034 284.2C23.2467 285.952 23.6667 289.424 24.6785 293C28.7329 291.287 37.6343 289.346 35.7386 283.31Z" fill="#CEC927" stroke="#ACA824"/>
<path d="M35.7386 290.31L35.0081 288L27.4034 291.2C23.2467 292.952 23.6667 296.424 24.6785 300C28.7329 298.287 37.6343 296.346 35.7386 290.31Z" fill="#CEC927" stroke="#ACA824"/>
<path d="M35.4975 327.277C35.0897 326.239 34.1836 325.201 33.0055 324.569C31.8275 323.892 30.4683 323.576 29.1543 323.576C23.2222 323.678 21.0123 330.432 22.63 335.266C22.7659 335.672 22.9018 335.988 22.9924 336.214C23.0831 336.44 23.1283 336.575 23.1283 336.575C24.6235 336.35 25.6656 336.079 26.2999 335.537C30.0849 332.709 29.4806 327.277 35.4975 327.277Z" fill="#CEC927" stroke="#ACA824"/>
<path d="M40.5664 331.581C40.4966 330.469 39.9522 329.204 39.0244 328.244C38.1104 327.241 36.9131 326.526 35.662 326.126C30.2305 324.492 24.8531 329.944 26.8051 335.152C35.422 338.351 35.0165 329.807 40.5664 331.581Z" fill="#CEC927" stroke="#ACA824"/>
<path d="M22.9896 327.909C23.0802 327.728 23.1708 327.548 23.2161 327.367C23.3521 327.096 23.4427 326.916 23.4427 326.916C22.4459 326.735 21.3132 326.871 20.2711 327.322C19.229 327.728 18.2322 328.45 17.5073 329.308C14.2348 333.383 16.4423 338.871 20.3164 341.766C20.4976 341.901 20.7242 342.037 20.9054 342.172C21.2679 342.398 21.5397 342.578 21.7662 342.669C21.9928 342.759 22.1287 342.804 22.1287 342.804C23.1708 341.721 23.7598 340.908 23.941 339.96C24.5598 335.851 21.8263 332.544 22.9896 327.909Z" fill="#CEC927" stroke="#ACA824"/>
<path d="M34.9973 335.131C34.9973 335.131 35.1332 335.086 35.3597 334.995C35.5862 334.905 35.9034 334.815 36.3112 334.77C37.1268 334.589 38.3048 334.589 39.5281 334.815C40.7514 335.04 42.02 335.537 42.9262 335.988C43.3793 336.214 43.7418 336.44 44.0136 336.62C44.2855 336.801 44.4213 336.891 44.4213 336.891C44.7838 335.943 44.8291 334.86 44.6026 333.777C44.376 332.693 43.8323 331.565 43.0621 330.662C42.2918 329.714 41.2951 328.992 40.2077 328.541C39.1203 328.089 37.9423 327.954 36.9002 328.134C36.9002 328.134 36.719 328.18 36.4018 328.225C36.0847 328.315 35.6315 328.405 35.1332 328.631C34.6348 328.812 34.0458 329.082 33.5021 329.443C32.9584 329.805 32.46 330.211 32.0069 330.662C31.1461 331.565 30.7383 332.648 30.6023 333.416C30.557 333.822 30.557 334.093 30.6023 334.318C30.6476 334.544 30.6477 334.634 30.6477 334.634C31.7351 335.402 32.1429 335.988 32.46 335.988C32.5959 335.988 32.9131 335.898 33.2755 335.718C33.9098 335.582 34.4536 335.356 34.9973 335.131Z" fill="#CEC927" stroke="#ACA824"/>
<path d="M35.7357 318.31L35.0052 316L27.4004 319.2C23.2438 320.952 23.6638 324.424 24.6755 328C28.73 326.287 37.6314 324.346 35.7357 318.31Z" fill="#CEC927" stroke="#ACA824"/>
<path d="M35.7357 325.31L35.0052 323L27.4004 326.2C23.2438 327.952 23.6638 331.424 24.6755 335C28.73 333.287 37.6314 331.346 35.7357 325.31Z" fill="#CEC927" stroke="#ACA824"/>
<path d="M35.7357 332.31L35.0052 330L27.4004 333.2C23.2438 334.952 23.6638 338.424 24.6755 342C28.73 340.287 37.6314 338.346 35.7357 332.31Z" fill="#CEC927" stroke="#ACA824"/>
<path d="M35.7357 339.31L35.0052 337L27.4004 340.2C23.2438 341.952 23.6638 345.424 24.6755 349C28.73 347.287 37.6314 345.346 35.7357 339.31Z" fill="#CEC927" stroke="#ACA824"/>
<path d="M35.7357 346.31L35.0052 344L27.4004 347.2C23.2438 348.952 23.6638 352.424 24.6755 356C28.73 354.287 37.6314 352.346 35.7357 346.31Z" fill="#CEC927" stroke="#ACA824"/>
<path d="M35.7357 353.31L35.0052 351L27.4004 354.2C23.2438 355.952 23.6638 359.424 24.6755 363C28.73 361.287 37.6314 359.346 35.7357 353.31Z" fill="#CEC927" stroke="#ACA824"/>
<path d="M16.1474 335.808C16.0568 335.492 16.0114 335.357 16.0114 335.357C14.2897 336.35 13.1117 338.471 13.0664 340.773C13.0664 346.35 19.0829 349.419 24.1669 348.086C24.5747 347.995 24.8918 347.905 25.1184 347.815C25.3449 347.725 25.4809 347.679 25.4809 347.679C25.1738 342.48 17.7347 341.343 16.1474 335.808Z" fill="#CEC927" stroke="#ACA824"/>
<path d="M25.4827 347.635C25.4827 347.635 25.3467 347.68 25.1202 347.77C24.8936 347.86 24.5765 347.951 24.1687 348.041C23.3532 348.221 22.1752 348.357 20.9066 348.267C20.2722 348.221 19.6832 348.086 19.0489 347.905C18.4599 347.725 17.9162 347.499 17.4178 347.319C16.9647 347.093 16.5569 346.867 16.2851 346.732C16.0132 346.551 15.832 346.461 15.832 346.461C15.6961 346.958 15.6508 347.454 15.6055 347.996C15.6055 348.537 15.6961 349.079 15.8773 349.666C16.0132 350.207 16.2851 350.749 16.5569 351.246C16.8288 351.742 17.2366 352.194 17.6443 352.645C18.0521 353.051 18.5052 353.412 19.0036 353.728C19.502 354.044 20.0004 354.27 20.5441 354.45C21.0878 354.631 21.5862 354.721 22.1299 354.766C22.6736 354.811 23.172 354.721 23.625 354.631C23.625 354.631 23.8063 354.586 24.0781 354.496C24.3953 354.405 24.803 354.27 25.3014 354.134C26.2529 353.773 27.4762 353.187 28.473 352.464C28.9714 352.103 29.4245 351.697 29.8322 351.336C30.24 350.93 30.5572 350.569 30.7837 350.207C31.2821 349.485 31.5086 349.034 31.5086 349.034C30.5118 347.905 29.7417 347.274 28.8355 347.093C27.9293 346.912 26.8872 347.093 25.4827 347.635Z" fill="#CEC927" stroke="#ACA824"/>
<path d="M31.5076 349.079C31.5076 349.079 31.2811 349.53 30.7827 350.253C30.5108 350.569 30.1937 350.975 29.8312 351.381C29.4234 351.742 28.9704 352.148 28.472 352.509C27.4752 353.232 26.2519 353.818 25.3004 354.179C24.802 354.36 24.3943 354.495 24.0771 354.541C23.7599 354.631 23.624 354.631 23.624 354.631C23.8506 355.082 24.1677 355.488 24.4848 355.85C24.8473 356.256 25.2551 356.572 25.7082 356.843C26.1613 357.159 26.6596 357.384 27.2033 357.565C27.747 357.745 28.2908 357.836 28.8798 357.926C30.0125 358.016 31.2358 357.836 32.2779 357.429C33.32 356.978 34.2261 356.346 34.8151 355.488C34.8151 355.488 34.9057 355.353 35.087 355.082C35.2682 354.857 35.4947 354.405 35.7213 353.954C36.2197 353.051 36.6728 351.742 36.854 350.523C37.0352 349.305 36.9899 348.131 36.8087 347.273C36.7181 346.867 36.6275 346.506 36.5821 346.28C36.4915 346.055 36.4462 345.919 36.4462 345.919C34.951 345.919 33.909 346.01 33.2293 346.461C33.0481 346.551 32.9122 346.687 32.731 346.867C32.595 347.003 32.4591 347.183 32.3232 347.409C32.1872 347.589 32.0513 347.86 31.9154 348.131C31.8248 348.447 31.6888 348.718 31.5076 349.079Z" fill="#CEC927" stroke="#ACA824"/>
<path d="M36.5335 346.01C36.5335 346.01 36.5788 346.145 36.6694 346.371C36.7147 346.596 36.8053 346.912 36.8959 347.364C37.0318 348.176 37.1224 349.35 36.9412 350.614C36.76 351.832 36.3069 353.141 35.8085 354.044C35.582 354.495 35.3102 354.902 35.1742 355.172C34.993 355.443 34.9023 355.579 34.9023 355.579C35.1289 355.669 35.4008 355.759 35.6726 355.804C35.9445 355.849 36.2163 355.849 36.4881 355.895C36.76 355.895 37.0318 355.895 37.349 355.895C37.6208 355.849 37.8927 355.804 38.1646 355.759C39.252 355.488 40.3393 354.947 41.2455 354.179C42.1517 353.412 42.8313 352.419 43.2391 351.426C43.6468 350.388 43.7828 349.305 43.6015 348.312C43.6015 348.312 43.5562 348.131 43.5109 347.815C43.4656 347.499 43.3297 347.093 43.1938 346.596C42.8766 345.603 42.3329 344.385 41.608 343.346C40.883 342.308 39.9769 341.541 39.2973 341.044C38.9348 340.819 38.6629 340.638 38.4364 340.503C38.2099 340.367 38.1193 340.322 38.1193 340.322C37.0319 341.36 36.3975 342.128 36.2163 342.895C35.8538 343.572 36.0804 344.565 36.5335 346.01Z" fill="#CEC927" stroke="#ACA824"/>
<path d="M43.3764 347.725C43.4218 348.041 43.467 348.221 43.467 348.221C44.3732 347.815 45.1888 347.048 45.8231 346.1C46.4574 345.152 46.8198 343.978 46.9105 342.805C47.0011 341.631 46.8199 340.412 46.3668 339.419C44.4823 335.101 41.8084 333.594 36.1511 334.699C35.0052 336.798 34.9491 337.614 35.3569 338.336C37.8162 342.147 42.4053 341.92 43.3764 347.725Z" fill="#CEC927" stroke="#ACA824"/>
<path d="M35.4975 306.277C35.0897 305.239 34.1836 304.201 33.0055 303.569C31.8275 302.892 30.4683 302.576 29.1543 302.576C23.2222 302.678 21.0123 309.432 22.63 314.266C22.7659 314.672 22.9018 314.988 22.9924 315.214C23.0831 315.44 23.1283 315.575 23.1283 315.575C24.6235 315.35 25.6656 315.079 26.2999 314.537C30.0849 311.709 29.4806 306.277 35.4975 306.277Z" fill="#CEC927" stroke="#ACA824"/>
<path d="M40.5664 310.581C40.4966 309.469 39.9522 308.204 39.0244 307.244C38.1104 306.241 36.9131 305.526 35.662 305.126C30.2305 303.492 24.8531 308.944 26.8051 314.152C35.422 317.351 35.0165 308.807 40.5664 310.581Z" fill="#CEC927" stroke="#ACA824"/>
<path d="M22.9896 306.909C23.0802 306.728 23.1708 306.548 23.2161 306.367C23.3521 306.096 23.4427 305.916 23.4427 305.916C22.4459 305.735 21.3132 305.871 20.2711 306.322C19.229 306.728 18.2322 307.45 17.5073 308.308C14.2348 312.383 16.4423 317.871 20.3164 320.766C20.4976 320.901 20.7242 321.037 20.9054 321.172C21.2679 321.398 21.5397 321.578 21.7662 321.669C21.9928 321.759 22.1287 321.804 22.1287 321.804C23.1708 320.721 23.7598 319.908 23.941 318.96C24.5598 314.851 21.8263 311.544 22.9896 306.909Z" fill="#CEC927" stroke="#ACA824"/>
<path d="M34.9973 314.131C34.9973 314.131 35.1332 314.086 35.3597 313.995C35.5862 313.905 35.9034 313.815 36.3112 313.77C37.1268 313.589 38.3048 313.589 39.5281 313.815C40.7514 314.04 42.02 314.537 42.9262 314.988C43.3793 315.214 43.7418 315.44 44.0136 315.62C44.2855 315.801 44.4213 315.891 44.4213 315.891C44.7838 314.943 44.8291 313.86 44.6026 312.777C44.376 311.693 43.8323 310.565 43.0621 309.662C42.2918 308.714 41.2951 307.992 40.2077 307.541C39.1203 307.089 37.9423 306.954 36.9002 307.134C36.9002 307.134 36.719 307.18 36.4018 307.225C36.0847 307.315 35.6315 307.405 35.1332 307.631C34.6348 307.812 34.0458 308.082 33.5021 308.443C32.9584 308.805 32.46 309.211 32.0069 309.662C31.1461 310.565 30.7383 311.648 30.6023 312.416C30.557 312.822 30.557 313.093 30.6023 313.318C30.6476 313.544 30.6477 313.634 30.6477 313.634C31.7351 314.402 32.1429 314.988 32.46 314.988C32.5959 314.988 32.9131 314.898 33.2755 314.718C33.9098 314.582 34.4536 314.356 34.9973 314.131Z" fill="#CEC927" stroke="#ACA824"/>
<path d="M35.7357 297.31L35.0052 295L27.4004 298.2C23.2438 299.952 23.6638 303.424 24.6755 307C28.73 305.287 37.6314 303.346 35.7357 297.31Z" fill="#CEC927" stroke="#ACA824"/>
<path d="M35.7357 304.31L35.0052 302L27.4004 305.2C23.2438 306.952 23.6638 310.424 24.6755 314C28.73 312.287 37.6314 310.346 35.7357 304.31Z" fill="#CEC927" stroke="#ACA824"/>
<path d="M35.7357 311.31L35.0052 309L27.4004 312.2C23.2438 313.952 23.6638 317.424 24.6755 321C28.73 319.287 37.6314 317.346 35.7357 311.31Z" fill="#CEC927" stroke="#ACA824"/>
<path d="M35.7357 318.31L35.0052 316L27.4004 319.2C23.2438 320.952 23.6638 324.424 24.6755 328C28.73 326.287 37.6314 324.346 35.7357 318.31Z" fill="#CEC927" stroke="#ACA824"/>
<path d="M35.7357 325.31L35.0052 323L27.4004 326.2C23.2438 327.952 23.6638 331.424 24.6755 335C28.73 333.287 37.6314 331.346 35.7357 325.31Z" fill="#CEC927" stroke="#ACA824"/>
<path d="M35.7357 332.31L35.0052 330L27.4004 333.2C23.2438 334.952 23.6638 338.424 24.6755 342C28.73 340.287 37.6314 338.346 35.7357 332.31Z" fill="#CEC927" stroke="#ACA824"/>
<path d="M16.1474 314.808C16.0568 314.492 16.0114 314.357 16.0114 314.357C14.2897 315.35 13.1117 317.471 13.0664 319.773C13.0664 325.35 19.0829 328.419 24.1669 327.086C24.5747 326.995 24.8918 326.905 25.1184 326.815C25.3449 326.725 25.4809 326.679 25.4809 326.679C25.1738 321.48 17.7347 320.343 16.1474 314.808Z" fill="#CEC927" stroke="#ACA824"/>
<path d="M25.4827 326.635C25.4827 326.635 25.3467 326.68 25.1202 326.77C24.8936 326.86 24.5765 326.951 24.1687 327.041C23.3532 327.221 22.1752 327.357 20.9066 327.267C20.2722 327.221 19.6832 327.086 19.0489 326.905C18.4599 326.725 17.9162 326.499 17.4178 326.319C16.9647 326.093 16.5569 325.867 16.2851 325.732C16.0132 325.551 15.832 325.461 15.832 325.461C15.6961 325.958 15.6508 326.454 15.6055 326.996C15.6055 327.537 15.6961 328.079 15.8773 328.666C16.0132 329.207 16.2851 329.749 16.5569 330.246C16.8288 330.742 17.2366 331.194 17.6443 331.645C18.0521 332.051 18.5052 332.412 19.0036 332.728C19.502 333.044 20.0004 333.27 20.5441 333.45C21.0878 333.631 21.5862 333.721 22.1299 333.766C22.6736 333.811 23.172 333.721 23.625 333.631C23.625 333.631 23.8063 333.586 24.0781 333.496C24.3953 333.405 24.803 333.27 25.3014 333.134C26.2529 332.773 27.4762 332.187 28.473 331.464C28.9714 331.103 29.4245 330.697 29.8322 330.336C30.24 329.93 30.5572 329.569 30.7837 329.207C31.2821 328.485 31.5086 328.034 31.5086 328.034C30.5118 326.905 29.7417 326.274 28.8355 326.093C27.9293 325.912 26.8872 326.093 25.4827 326.635Z" fill="#CEC927" stroke="#ACA824"/>
<path d="M31.5076 328.079C31.5076 328.079 31.2811 328.53 30.7827 329.253C30.5108 329.569 30.1937 329.975 29.8312 330.381C29.4234 330.742 28.9704 331.148 28.472 331.509C27.4752 332.232 26.2519 332.818 25.3004 333.179C24.802 333.36 24.3943 333.495 24.0771 333.541C23.7599 333.631 23.624 333.631 23.624 333.631C23.8506 334.082 24.1677 334.488 24.4848 334.85C24.8473 335.256 25.2551 335.572 25.7082 335.843C26.1613 336.159 26.6596 336.384 27.2033 336.565C27.747 336.745 28.2908 336.836 28.8798 336.926C30.0125 337.016 31.2358 336.836 32.2779 336.429C33.32 335.978 34.2261 335.346 34.8151 334.488C34.8151 334.488 34.9057 334.353 35.087 334.082C35.2682 333.857 35.4947 333.405 35.7213 332.954C36.2197 332.051 36.6728 330.742 36.854 329.523C37.0352 328.305 36.9899 327.131 36.8087 326.273C36.7181 325.867 36.6275 325.506 36.5821 325.28C36.4915 325.055 36.4462 324.919 36.4462 324.919C34.951 324.919 33.909 325.01 33.2293 325.461C33.0481 325.551 32.9122 325.687 32.731 325.867C32.595 326.003 32.4591 326.183 32.3232 326.409C32.1872 326.589 32.0513 326.86 31.9154 327.131C31.8248 327.447 31.6888 327.718 31.5076 328.079Z" fill="#CEC927" stroke="#ACA824"/>
<path d="M36.5335 325.01C36.5335 325.01 36.5788 325.145 36.6694 325.371C36.7147 325.596 36.8053 325.912 36.8959 326.364C37.0318 327.176 37.1224 328.35 36.9412 329.614C36.76 330.832 36.3069 332.141 35.8085 333.044C35.582 333.495 35.3102 333.902 35.1742 334.172C34.993 334.443 34.9023 334.579 34.9023 334.579C35.1289 334.669 35.4008 334.759 35.6726 334.804C35.9445 334.849 36.2163 334.849 36.4881 334.895C36.76 334.895 37.0318 334.895 37.349 334.895C37.6208 334.849 37.8927 334.804 38.1646 334.759C39.252 334.488 40.3393 333.947 41.2455 333.179C42.1517 332.412 42.8313 331.419 43.2391 330.426C43.6468 329.388 43.7828 328.305 43.6015 327.312C43.6015 327.312 43.5562 327.131 43.5109 326.815C43.4656 326.499 43.3297 326.093 43.1938 325.596C42.8766 324.603 42.3329 323.385 41.608 322.346C40.883 321.308 39.9769 320.541 39.2973 320.044C38.9348 319.819 38.6629 319.638 38.4364 319.503C38.2099 319.367 38.1193 319.322 38.1193 319.322C37.0319 320.36 36.3975 321.128 36.2163 321.895C35.8538 322.572 36.0804 323.565 36.5335 325.01Z" fill="#CEC927" stroke="#ACA824"/>
<path d="M43.3764 326.725C43.4218 327.041 43.467 327.221 43.467 327.221C44.3732 326.815 45.1888 326.048 45.8231 325.1C46.4574 324.152 46.8198 322.978 46.9105 321.805C47.0011 320.631 46.8199 319.412 46.3668 318.419C44.4823 314.101 41.8084 312.594 36.1511 313.699C35.0052 315.798 34.9491 316.614 35.3569 317.336C37.8162 321.147 42.4053 320.92 43.3764 326.725Z" fill="#CEC927" stroke="#ACA824"/>
<path d="M35.7386 360.31L35.0081 358L27.4034 361.2C23.2467 362.952 23.6667 366.424 24.6785 370C28.7329 368.287 37.6343 366.346 35.7386 360.31Z" fill="#CEC927" stroke="#ACA824"/>
<path d="M35.7386 367.31L35.0081 365L27.4034 368.2C23.2467 369.952 23.6667 373.424 24.6785 377C28.7329 375.287 37.6343 373.346 35.7386 367.31Z" fill="#CEC927" stroke="#ACA824"/>
<path d="M35.7386 374.31L35.0081 372L27.4034 375.2C23.2467 376.952 23.6667 380.424 24.6785 384C28.7329 382.287 37.6343 380.346 35.7386 374.31Z" fill="#CEC927" stroke="#ACA824"/>
<path d="M35.7386 381.31L35.0081 379L27.4034 382.2C23.2467 383.952 23.6667 387.424 24.6785 391C28.7329 389.287 37.6343 387.346 35.7386 381.31Z" fill="#CEC927" stroke="#ACA824"/>
<path d="M35.7386 388.31L35.0081 386L27.4034 389.2C23.2467 390.952 23.6667 394.424 24.6785 398C28.7329 396.287 37.6343 394.346 35.7386 388.31Z" fill="#CEC927" stroke="#ACA824"/>
<path d="M35.7386 395.31L35.0081 393L27.4034 396.2C23.2467 397.952 23.6667 401.424 24.6785 405C28.7329 403.287 37.6343 401.346 35.7386 395.31Z" fill="#CEC927" stroke="#ACA824"/>
<path d="M35.7386 402.31L35.0081 400L27.4034 403.2C23.2467 404.952 23.6667 408.424 24.6785 412C28.7329 410.287 37.6343 408.346 35.7386 402.31Z" fill="#CEC927" stroke="#ACA824"/>
<path d="M35.7386 409.31L35.0081 407L27.4034 410.2C23.2467 411.952 23.6667 415.424 24.6785 419C28.7329 417.287 37.6343 415.346 35.7386 409.31Z" fill="#CEC927" stroke="#ACA824"/>
<path d="M35.7386 416.31L35.0081 414L27.4034 417.2C23.2467 418.952 23.6667 422.424 24.6785 426C28.7329 424.287 37.6343 422.346 35.7386 416.31Z" fill="#CEC927" stroke="#ACA824"/>
<path d="M35.7386 423.31L35.0081 421L27.4034 424.2C23.2467 425.952 23.6667 429.424 24.6785 433C28.7329 431.287 37.6343 429.346 35.7386 423.31Z" fill="#CEC927" stroke="#ACA824"/>
<path d="M35.7386 430.31L35.0081 428L27.4034 431.2C23.2467 432.952 23.6667 436.424 24.6785 440C28.7329 438.287 37.6343 436.346 35.7386 430.31Z" fill="#CEC927" stroke="#ACA824"/>
<path d="M23.5451 460.226C23.2586 464.849 22.6856 469.464 21.7897 474.028C21.7897 474.062 21.7792 474.079 21.7792 474.096C21.2868 476.501 22.9765 476.31 24.6182 476.31C25.6027 472.28 26.4257 466.682 26.5091 461.762C26.5091 461.762 27.03 466.393 25.6964 474.639C25.7694 475.164 25.8736 475.792 26.0663 476.31H27.754C28.3999 470.338 28.8427 463.255 28.9052 456.519C28.9365 457.554 29.1657 464.917 28.2333 476.31H31.0253L31.3743 475.046L31.64 474.121C31.6348 474.113 31.6348 474.096 31.6348 474.079C31.4212 471.05 31.291 468.395 31.2024 466.113C30.9576 459.777 31.1347 456.401 31.1347 456.401C31.1816 463.043 31.6139 470.024 32.2599 476.539L34.6196 476.31C32.9943 467.199 33.4892 462.084 33.5257 461.77C33.6403 468.404 34.8956 474.147 35.479 476.505L37.2762 476.31C37.9794 476.301 38.4743 475.19 38.2555 474.07C37.3543 469.498 36.7761 464.858 36.4948 460.226C35.7508 449.322 24.456 445.827 23.5451 460.226Z" fill="#CEC927" stroke="#ACA824"/>
<path d="M35.7386 437.31L35.0081 435L27.4034 438.2C23.2467 439.953 23.6667 443.424 24.6785 447C28.7329 445.287 37.6343 443.346 35.7386 437.31Z" fill="#CEC927" stroke="#ACA824"/>
<path d="M32.5194 445.184C33.5968 445.541 34.6488 446.001 35.4935 446.444C36.3381 446.887 36.8456 447.265 36.8456 447.265C37.0751 446.615 37.0577 445.821 36.8463 445.098C35.2239 438.169 26.519 439.352 24.4632 443.346C24.194 443.869 24.0666 444.246 24.0666 444.246C25.25 445.034 27.1835 446.687 27.8318 446.778C28.169 446.843 28.4018 446.757 28.6733 446.657C29.9642 445.711 30.577 444.541 32.5194 445.184Z" fill="#CEC927" stroke="#ACA824"/>
<path d="M37.5725 452.907C40.2254 450.745 40.1809 447.438 37.5723 444.171C34.9637 440.904 29.4978 442.91 27.712 448.607C28.9642 451.81 36.4027 450.161 37.5725 452.907Z" fill="#CEC927" stroke="#ACA824"/>
<path d="M26.8229 442.456C26.8726 441.998 26.9222 441.586 26.9719 441.312C27.0711 441.037 27.0711 440.854 27.0711 440.854C26.0287 440.945 25.0359 441.449 24.192 442.09C19.9935 445.505 22.1959 450.287 26.0287 452.891C26.9719 453.531 27.9647 453.897 28.7093 454.081C29.0568 454.172 29.4043 454.218 29.6029 454.264C29.8014 454.309 29.9503 454.309 29.9503 454.309C32.5354 449.909 26.573 447.064 26.8229 442.456Z" fill="#CEC927" stroke="#ACA824"/>
<path d="M29.1329 450.533C29.1329 450.533 28.984 450.533 28.7854 450.482C28.5868 450.432 28.289 450.381 27.8919 450.28C27.1472 450.078 26.1544 449.623 25.2112 448.966C24.2681 448.309 23.4242 447.4 22.8285 446.642C22.2328 445.884 21.8853 445.328 21.8853 445.328C21.2399 445.985 20.7932 446.844 20.5946 447.804C20.3464 448.764 20.3464 449.876 20.6443 450.987C20.8925 452.048 21.4385 453.109 22.1831 453.918C22.9278 454.726 23.8213 455.282 24.7148 455.535C24.7148 455.535 24.8638 455.585 25.1616 455.636C25.4595 455.686 25.8566 455.787 26.353 455.838C27.3458 455.939 28.5868 455.888 29.7286 455.585C30.8703 455.282 31.7142 454.676 32.2603 454.12C32.5085 453.867 32.707 453.615 32.8063 453.463C32.9056 453.312 33.0049 453.211 33.0049 453.211C32.4092 451.998 32.3596 451.392 31.8631 451.038C31.3171 450.785 30.4732 450.684 29.1329 450.533Z" fill="#CEC927" stroke="#ACA824"/>
<path d="M29.6458 451.524C29.6458 451.524 29.5694 451.606 29.3836 451.707C29.2453 451.822 28.9688 452.054 28.6736 452.174C28.0399 452.558 27.0118 452.874 25.8328 452.827C24.6868 452.842 23.4519 452.46 22.5308 452.07C22.0702 451.875 21.7191 451.66 21.4485 451.524C21.178 451.388 21.0499 451.295 21.0499 451.295C20.8233 452.228 20.8672 453.298 21.2725 454.374C21.6303 455.435 22.3494 456.502 23.3595 457.29C23.8574 457.708 24.3841 458.029 24.9871 458.268C25.2577 458.405 25.5427 458.493 25.8277 458.581C26.1126 458.669 26.4121 458.709 26.7115 458.749C27.3103 458.828 27.843 458.782 28.3757 458.735C28.8753 458.626 29.3894 458.468 29.8228 458.232C29.8228 458.232 29.9611 458.116 30.2563 457.996C30.504 457.862 30.8425 457.597 31.2429 457.298C31.9962 456.686 32.8361 455.784 33.4529 454.76C34.0697 453.736 34.4677 452.75 34.6986 451.977C34.814 451.59 34.8675 451.237 34.9252 451.044C34.9354 450.835 34.9787 450.69 34.9787 450.69C33.7064 450.086 32.6945 449.826 31.9286 449.959C31.1151 450.077 30.5951 450.603 29.6458 451.524Z" fill="#CEC927" stroke="#ACA824"/>
<path d="M30.4334 450.02C30.4333 451.51 30.5716 452.95 30.1715 454.444C29.8737 455.606 29.3276 456.717 28.7816 457.526C28.4837 457.93 28.2355 458.284 28.037 458.486C27.8384 458.688 27.6895 458.839 27.6895 458.839C28.583 459.294 29.6255 459.395 30.6679 459.294C31.7104 459.143 32.7529 458.789 33.5968 458.183C37.8792 455.194 36.3038 450.58 34.119 448.296C32.3638 447.29 30.9067 448.073 30.4334 450.02Z" fill="#CEC927" stroke="#ACA824"/>
<path d="M35.0295 457.482C39.1535 456.316 39.7284 450.193 36.3439 448.077C32.9593 445.962 30.4208 448.5 30.422 449.471C34.6539 450.274 36.3433 452.308 35.0295 457.482Z" fill="#CEC927" stroke="#ACA824"/>
</svg>
