<svg width="1920" height="20" viewBox="0 0 1920 20" fill="none" xmlns="http://www.w3.org/2000/svg">
<g clip-path="url(#clip0_206_17973)">
<path d="M1924.92 2.3485L1928 3.32253L1923.73 13.4622C1921.4 19.0044 1916.77 18.4444 1912 17.0954C1914.28 11.6895 1916.87 -0.179115 1924.92 2.3485Z" fill="#EDEDED" stroke="#D2D2D2"/>
<path d="M1914.92 2.3485L1918 3.32253L1913.73 13.4622C1911.4 19.0044 1906.77 18.4444 1902 17.0954C1904.28 11.6895 1906.87 -0.179115 1914.92 2.3485Z" fill="#EDEDED" stroke="#D2D2D2"/>
<path d="M1904.92 2.3485L1908 3.32253L1903.73 13.4622C1901.4 19.0044 1896.77 18.4444 1892 17.0954C1894.28 11.6895 1896.87 -0.179115 1904.92 2.3485Z" fill="#EDEDED" stroke="#D2D2D2"/>
<path d="M1894.92 2.3485L1898 3.32253L1893.73 13.4622C1891.4 19.0044 1886.77 18.4444 1882 17.0954C1884.28 11.6895 1886.87 -0.179115 1894.92 2.3485Z" fill="#EDEDED" stroke="#D2D2D2"/>
<path d="M1884.92 2.3485L1888 3.32253L1883.73 13.4622C1881.4 19.0044 1876.77 18.4444 1872 17.0954C1874.28 11.6895 1876.87 -0.179115 1884.92 2.3485Z" fill="#EDEDED" stroke="#D2D2D2"/>
<path d="M1874.92 2.3485L1878 3.32253L1873.73 13.4622C1871.4 19.0044 1866.77 18.4444 1862 17.0954C1864.28 11.6895 1866.87 -0.179115 1874.92 2.3485Z" fill="#EDEDED" stroke="#D2D2D2"/>
<path d="M1864.92 2.3485L1868 3.32253L1863.73 13.4622C1861.4 19.0044 1856.77 18.4444 1852 17.0954C1854.28 11.6895 1856.87 -0.179115 1864.92 2.3485Z" fill="#EDEDED" stroke="#D2D2D2"/>
<path d="M1854.92 2.3485L1858 3.32253L1853.73 13.4622C1851.4 19.0044 1846.77 18.4444 1842 17.0954C1844.28 11.6895 1846.87 -0.179115 1854.92 2.3485Z" fill="#EDEDED" stroke="#D2D2D2"/>
<path d="M1844.92 2.3485L1848 3.32253L1843.73 13.4622C1841.4 19.0044 1836.77 18.4444 1832 17.0954C1834.28 11.6895 1836.87 -0.179115 1844.92 2.3485Z" fill="#EDEDED" stroke="#D2D2D2"/>
<path d="M1834.92 2.3485L1838 3.32253L1833.73 13.4622C1831.4 19.0044 1826.77 18.4444 1822 17.0954C1824.28 11.6895 1826.87 -0.179115 1834.92 2.3485Z" fill="#EDEDED" stroke="#D2D2D2"/>
<path d="M1824.92 2.3485L1828 3.32253L1823.73 13.4622C1821.4 19.0044 1816.77 18.4444 1812 17.0954C1814.28 11.6895 1816.87 -0.179115 1824.92 2.3485Z" fill="#EDEDED" stroke="#D2D2D2"/>
<path d="M1814.92 2.3485L1818 3.32253L1813.73 13.4622C1811.4 19.0044 1806.77 18.4444 1802 17.0954C1804.28 11.6895 1806.87 -0.179115 1814.92 2.3485Z" fill="#EDEDED" stroke="#D2D2D2"/>
<path d="M1804.92 2.3485L1808 3.32253L1803.73 13.4622C1801.4 19.0044 1796.77 18.4444 1792 17.0954C1794.28 11.6895 1796.87 -0.179115 1804.92 2.3485Z" fill="#EDEDED" stroke="#D2D2D2"/>
<path d="M1794.92 2.3485L1798 3.32253L1793.73 13.4622C1791.4 19.0044 1786.77 18.4444 1782 17.0954C1784.28 11.6895 1786.87 -0.179115 1794.92 2.3485Z" fill="#EDEDED" stroke="#D2D2D2"/>
<path d="M1784.92 2.3485L1788 3.32253L1783.73 13.4622C1781.4 19.0044 1776.77 18.4444 1772 17.0954C1774.28 11.6895 1776.87 -0.179115 1784.92 2.3485Z" fill="#EDEDED" stroke="#D2D2D2"/>
<path d="M1774.92 2.3485L1778 3.32253L1773.73 13.4622C1771.4 19.0044 1766.77 18.4444 1762 17.0954C1764.28 11.6895 1766.87 -0.179115 1774.92 2.3485Z" fill="#EDEDED" stroke="#D2D2D2"/>
<path d="M1764.92 2.3485L1768 3.32253L1763.73 13.4622C1761.4 19.0044 1756.77 18.4444 1752 17.0954C1754.28 11.6895 1756.87 -0.179115 1764.92 2.3485Z" fill="#EDEDED" stroke="#D2D2D2"/>
<path d="M1754.92 2.3485L1758 3.32253L1753.73 13.4622C1751.4 19.0044 1746.77 18.4444 1742 17.0954C1744.28 11.6895 1746.87 -0.179115 1754.92 2.3485Z" fill="#EDEDED" stroke="#D2D2D2"/>
<path d="M1744.92 2.3485L1748 3.32253L1743.73 13.4622C1741.4 19.0044 1736.77 18.4444 1732 17.0954C1734.28 11.6895 1736.87 -0.179115 1744.92 2.3485Z" fill="#EDEDED" stroke="#D2D2D2"/>
<path d="M1734.92 2.3485L1738 3.32253L1733.73 13.4622C1731.4 19.0044 1726.77 18.4444 1722 17.0954C1724.28 11.6895 1726.87 -0.179115 1734.92 2.3485Z" fill="#EDEDED" stroke="#D2D2D2"/>
<path d="M1724.92 2.3485L1728 3.32253L1723.73 13.4622C1721.4 19.0044 1716.77 18.4444 1712 17.0954C1714.28 11.6895 1716.87 -0.179115 1724.92 2.3485Z" fill="#EDEDED" stroke="#D2D2D2"/>
<path d="M1714.92 2.3485L1718 3.32253L1713.73 13.4622C1711.4 19.0044 1706.77 18.4444 1702 17.0954C1704.28 11.6895 1706.87 -0.179115 1714.92 2.3485Z" fill="#EDEDED" stroke="#D2D2D2"/>
<path d="M1704.92 2.3485L1708 3.32253L1703.73 13.4622C1701.4 19.0044 1696.77 18.4444 1692 17.0954C1694.28 11.6895 1696.87 -0.179115 1704.92 2.3485Z" fill="#EDEDED" stroke="#D2D2D2"/>
<path d="M1694.92 2.3485L1698 3.32253L1693.73 13.4622C1691.4 19.0044 1686.77 18.4444 1682 17.0954C1684.28 11.6895 1686.87 -0.179115 1694.92 2.3485Z" fill="#EDEDED" stroke="#D2D2D2"/>
<path d="M1684.92 2.3485L1688 3.32253L1683.73 13.4622C1681.4 19.0044 1676.77 18.4444 1672 17.0954C1674.28 11.6895 1676.87 -0.179115 1684.92 2.3485Z" fill="#EDEDED" stroke="#D2D2D2"/>
<path d="M1674.92 2.3485L1678 3.32253L1673.73 13.4622C1671.4 19.0044 1666.77 18.4444 1662 17.0954C1664.28 11.6895 1666.87 -0.179115 1674.92 2.3485Z" fill="#EDEDED" stroke="#D2D2D2"/>
<path d="M1664.92 2.3485L1668 3.32253L1663.73 13.4622C1661.4 19.0044 1656.77 18.4444 1652 17.0954C1654.28 11.6895 1656.87 -0.179115 1664.92 2.3485Z" fill="#EDEDED" stroke="#D2D2D2"/>
<path d="M1654.92 2.3485L1658 3.32253L1653.73 13.4622C1651.4 19.0044 1646.77 18.4444 1642 17.0954C1644.28 11.6895 1646.87 -0.179115 1654.92 2.3485Z" fill="#EDEDED" stroke="#D2D2D2"/>
<path d="M1644.92 2.3485L1648 3.32253L1643.73 13.4622C1641.4 19.0044 1636.77 18.4444 1632 17.0954C1634.28 11.6895 1636.87 -0.179115 1644.92 2.3485Z" fill="#EDEDED" stroke="#D2D2D2"/>
<path d="M1634.92 2.3485L1638 3.32253L1633.73 13.4622C1631.4 19.0044 1626.77 18.4444 1622 17.0954C1624.28 11.6895 1626.87 -0.179115 1634.92 2.3485Z" fill="#EDEDED" stroke="#D2D2D2"/>
<path d="M1624.92 2.3485L1628 3.32253L1623.73 13.4622C1621.4 19.0044 1616.77 18.4444 1612 17.0954C1614.28 11.6895 1616.87 -0.179115 1624.92 2.3485Z" fill="#EDEDED" stroke="#D2D2D2"/>
<path d="M1614.92 2.3485L1618 3.32253L1613.73 13.4622C1611.4 19.0044 1606.77 18.4444 1602 17.0954C1604.28 11.6895 1606.87 -0.179115 1614.92 2.3485Z" fill="#EDEDED" stroke="#D2D2D2"/>
<path d="M1604.92 2.3485L1608 3.32253L1603.73 13.4622C1601.4 19.0044 1596.77 18.4444 1592 17.0954C1594.28 11.6895 1596.87 -0.179115 1604.92 2.3485Z" fill="#EDEDED" stroke="#D2D2D2"/>
<path d="M1594.92 2.3485L1598 3.32253L1593.73 13.4622C1591.4 19.0044 1586.77 18.4444 1582 17.0954C1584.28 11.6895 1586.87 -0.179115 1594.92 2.3485Z" fill="#EDEDED" stroke="#D2D2D2"/>
<path d="M1584.92 2.3485L1588 3.32253L1583.73 13.4622C1581.4 19.0044 1576.77 18.4444 1572 17.0954C1574.28 11.6895 1576.87 -0.179115 1584.92 2.3485Z" fill="#EDEDED" stroke="#D2D2D2"/>
<path d="M1574.92 2.3485L1578 3.32253L1573.73 13.4622C1571.4 19.0044 1566.77 18.4444 1562 17.0954C1564.28 11.6895 1566.87 -0.179115 1574.92 2.3485Z" fill="#EDEDED" stroke="#D2D2D2"/>
<path d="M1564.92 2.3485L1568 3.32253L1563.73 13.4622C1561.4 19.0044 1556.77 18.4444 1552 17.0954C1554.28 11.6895 1556.87 -0.179115 1564.92 2.3485Z" fill="#EDEDED" stroke="#D2D2D2"/>
<path d="M1554.92 2.3485L1558 3.32253L1553.73 13.4622C1551.4 19.0044 1546.77 18.4444 1542 17.0954C1544.28 11.6895 1546.87 -0.179115 1554.92 2.3485Z" fill="#EDEDED" stroke="#D2D2D2"/>
<path d="M1544.92 2.3485L1548 3.32253L1543.73 13.4622C1541.4 19.0044 1536.77 18.4444 1532 17.0954C1534.28 11.6895 1536.87 -0.179115 1544.92 2.3485Z" fill="#EDEDED" stroke="#D2D2D2"/>
<path d="M1534.92 2.3485L1538 3.32253L1533.73 13.4622C1531.4 19.0044 1526.77 18.4444 1522 17.0954C1524.28 11.6895 1526.87 -0.179115 1534.92 2.3485Z" fill="#EDEDED" stroke="#D2D2D2"/>
<path d="M1524.92 2.3485L1528 3.32253L1523.73 13.4622C1521.4 19.0044 1516.77 18.4444 1512 17.0954C1514.28 11.6895 1516.87 -0.179115 1524.92 2.3485Z" fill="#EDEDED" stroke="#D2D2D2"/>
<path d="M1514.92 2.3485L1518 3.32253L1513.73 13.4622C1511.4 19.0044 1506.77 18.4444 1502 17.0954C1504.28 11.6895 1506.87 -0.179115 1514.92 2.3485Z" fill="#EDEDED" stroke="#D2D2D2"/>
<path d="M1504.92 2.3485L1508 3.32253L1503.73 13.4622C1501.4 19.0044 1496.77 18.4444 1492 17.0954C1494.28 11.6895 1496.87 -0.179115 1504.92 2.3485Z" fill="#EDEDED" stroke="#D2D2D2"/>
<path d="M1494.92 2.3485L1498 3.32253L1493.73 13.4622C1491.4 19.0044 1486.77 18.4444 1482 17.0954C1484.28 11.6895 1486.87 -0.179115 1494.92 2.3485Z" fill="#EDEDED" stroke="#D2D2D2"/>
<path d="M1484.92 2.3485L1488 3.32253L1483.73 13.4622C1481.4 19.0044 1476.77 18.4444 1472 17.0954C1474.28 11.6895 1476.87 -0.179115 1484.92 2.3485Z" fill="#EDEDED" stroke="#D2D2D2"/>
<path d="M1474.92 2.3485L1478 3.32253L1473.73 13.4622C1471.4 19.0044 1466.77 18.4444 1462 17.0954C1464.28 11.6895 1466.87 -0.179115 1474.92 2.3485Z" fill="#EDEDED" stroke="#D2D2D2"/>
<path d="M1464.92 2.3485L1468 3.32253L1463.73 13.4622C1461.4 19.0044 1456.77 18.4444 1452 17.0954C1454.28 11.6895 1456.87 -0.179115 1464.92 2.3485Z" fill="#EDEDED" stroke="#D2D2D2"/>
<path d="M1454.92 2.3485L1458 3.32253L1453.73 13.4622C1451.4 19.0044 1446.77 18.4444 1442 17.0954C1444.28 11.6895 1446.87 -0.179115 1454.92 2.3485Z" fill="#EDEDED" stroke="#D2D2D2"/>
<path d="M1444.92 2.3485L1448 3.32253L1443.73 13.4622C1441.4 19.0044 1436.77 18.4444 1432 17.0954C1434.28 11.6895 1436.87 -0.179115 1444.92 2.3485Z" fill="#EDEDED" stroke="#D2D2D2"/>
<path d="M1434.92 2.3485L1438 3.32253L1433.73 13.4622C1431.4 19.0044 1426.77 18.4444 1422 17.0954C1424.28 11.6895 1426.87 -0.179115 1434.92 2.3485Z" fill="#EDEDED" stroke="#D2D2D2"/>
<path d="M1424.92 2.3485L1428 3.32253L1423.73 13.4622C1421.4 19.0044 1416.77 18.4444 1412 17.0954C1414.28 11.6895 1416.87 -0.179115 1424.92 2.3485Z" fill="#EDEDED" stroke="#D2D2D2"/>
<path d="M1414.92 2.3485L1418 3.32253L1413.73 13.4622C1411.4 19.0044 1406.77 18.4444 1402 17.0954C1404.28 11.6895 1406.87 -0.179115 1414.92 2.3485Z" fill="#EDEDED" stroke="#D2D2D2"/>
<path d="M1404.92 2.3485L1408 3.32253L1403.73 13.4622C1401.4 19.0044 1396.77 18.4444 1392 17.0954C1394.28 11.6895 1396.87 -0.179115 1404.92 2.3485Z" fill="#EDEDED" stroke="#D2D2D2"/>
<path d="M1394.92 2.3485L1398 3.32253L1393.73 13.4622C1391.4 19.0044 1386.77 18.4444 1382 17.0954C1384.28 11.6895 1386.87 -0.179115 1394.92 2.3485Z" fill="#EDEDED" stroke="#D2D2D2"/>
<path d="M1384.92 2.3485L1388 3.32253L1383.73 13.4622C1381.4 19.0044 1376.77 18.4444 1372 17.0954C1374.28 11.6895 1376.87 -0.179115 1384.92 2.3485Z" fill="#EDEDED" stroke="#D2D2D2"/>
<path d="M1374.92 2.3485L1378 3.32253L1373.73 13.4622C1371.4 19.0044 1366.77 18.4444 1362 17.0954C1364.28 11.6895 1366.87 -0.179115 1374.92 2.3485Z" fill="#EDEDED" stroke="#D2D2D2"/>
<path d="M1364.92 2.3485L1368 3.32253L1363.73 13.4622C1361.4 19.0044 1356.77 18.4444 1352 17.0954C1354.28 11.6895 1356.87 -0.179115 1364.92 2.3485Z" fill="#EDEDED" stroke="#D2D2D2"/>
<path d="M1354.92 2.3485L1358 3.32253L1353.73 13.4622C1351.4 19.0044 1346.77 18.4444 1342 17.0954C1344.28 11.6895 1346.87 -0.179115 1354.92 2.3485Z" fill="#EDEDED" stroke="#D2D2D2"/>
<path d="M1344.92 2.3485L1348 3.32253L1343.73 13.4622C1341.4 19.0044 1336.77 18.4444 1332 17.0954C1334.28 11.6895 1336.87 -0.179115 1344.92 2.3485Z" fill="#EDEDED" stroke="#D2D2D2"/>
<path d="M1334.92 2.3485L1338 3.32253L1333.73 13.4622C1331.4 19.0044 1326.77 18.4444 1322 17.0954C1324.28 11.6895 1326.87 -0.179115 1334.92 2.3485Z" fill="#EDEDED" stroke="#D2D2D2"/>
<path d="M1324.92 2.3485L1328 3.32253L1323.73 13.4622C1321.4 19.0044 1316.77 18.4444 1312 17.0954C1314.28 11.6895 1316.87 -0.179115 1324.92 2.3485Z" fill="#EDEDED" stroke="#D2D2D2"/>
<path d="M1314.92 2.3485L1318 3.32253L1313.73 13.4622C1311.4 19.0044 1306.77 18.4444 1302 17.0954C1304.28 11.6895 1306.87 -0.179115 1314.92 2.3485Z" fill="#EDEDED" stroke="#D2D2D2"/>
<path d="M1304.92 2.3485L1308 3.32253L1303.73 13.4622C1301.4 19.0044 1296.77 18.4444 1292 17.0954C1294.28 11.6895 1296.87 -0.179115 1304.92 2.3485Z" fill="#EDEDED" stroke="#D2D2D2"/>
<path d="M1294.92 2.3485L1298 3.32253L1293.73 13.4622C1291.4 19.0044 1286.77 18.4444 1282 17.0954C1284.28 11.6895 1286.87 -0.179115 1294.92 2.3485Z" fill="#EDEDED" stroke="#D2D2D2"/>
<path d="M1284.92 2.3485L1288 3.32253L1283.73 13.4622C1281.4 19.0044 1276.77 18.4444 1272 17.0954C1274.28 11.6895 1276.87 -0.179115 1284.92 2.3485Z" fill="#EDEDED" stroke="#D2D2D2"/>
<path d="M1274.92 2.3485L1278 3.32253L1273.73 13.4622C1271.4 19.0044 1266.77 18.4444 1262 17.0954C1264.28 11.6895 1266.87 -0.179115 1274.92 2.3485Z" fill="#EDEDED" stroke="#D2D2D2"/>
<path d="M1264.92 2.3485L1268 3.32253L1263.73 13.4622C1261.4 19.0044 1256.77 18.4444 1252 17.0954C1254.28 11.6895 1256.87 -0.179115 1264.92 2.3485Z" fill="#EDEDED" stroke="#D2D2D2"/>
<path d="M1254.92 2.3485L1258 3.32253L1253.73 13.4622C1251.4 19.0044 1246.77 18.4444 1242 17.0954C1244.28 11.6895 1246.87 -0.179115 1254.92 2.3485Z" fill="#EDEDED" stroke="#D2D2D2"/>
<path d="M1244.92 2.3485L1248 3.32253L1243.73 13.4622C1241.4 19.0044 1236.77 18.4444 1232 17.0954C1234.28 11.6895 1236.87 -0.179115 1244.92 2.3485Z" fill="#EDEDED" stroke="#D2D2D2"/>
<path d="M1234.92 2.3485L1238 3.32253L1233.73 13.4622C1231.4 19.0044 1226.77 18.4444 1222 17.0954C1224.28 11.6895 1226.87 -0.179115 1234.92 2.3485Z" fill="#EDEDED" stroke="#D2D2D2"/>
<path d="M1224.92 2.3485L1228 3.32253L1223.73 13.4622C1221.4 19.0044 1216.77 18.4444 1212 17.0954C1214.28 11.6895 1216.87 -0.179115 1224.92 2.3485Z" fill="#EDEDED" stroke="#D2D2D2"/>
<path d="M1214.92 2.3485L1218 3.32253L1213.73 13.4622C1211.4 19.0044 1206.77 18.4444 1202 17.0954C1204.28 11.6895 1206.87 -0.179115 1214.92 2.3485Z" fill="#EDEDED" stroke="#D2D2D2"/>
<path d="M1204.92 2.3485L1208 3.32253L1203.73 13.4622C1201.4 19.0044 1196.77 18.4444 1192 17.0954C1194.28 11.6895 1196.87 -0.179115 1204.92 2.3485Z" fill="#EDEDED" stroke="#D2D2D2"/>
<path d="M1194.92 2.3485L1198 3.32253L1193.73 13.4622C1191.4 19.0044 1186.77 18.4444 1182 17.0954C1184.28 11.6895 1186.87 -0.179115 1194.92 2.3485Z" fill="#EDEDED" stroke="#D2D2D2"/>
<path d="M1184.92 2.3485L1188 3.32253L1183.73 13.4622C1181.4 19.0044 1176.77 18.4444 1172 17.0954C1174.28 11.6895 1176.87 -0.179115 1184.92 2.3485Z" fill="#EDEDED" stroke="#D2D2D2"/>
<path d="M1174.92 2.3485L1178 3.32253L1173.73 13.4622C1171.4 19.0044 1166.77 18.4444 1162 17.0954C1164.28 11.6895 1166.87 -0.179115 1174.92 2.3485Z" fill="#EDEDED" stroke="#D2D2D2"/>
<path d="M1164.92 2.3485L1168 3.32253L1163.73 13.4622C1161.4 19.0044 1156.77 18.4444 1152 17.0954C1154.28 11.6895 1156.87 -0.179115 1164.92 2.3485Z" fill="#EDEDED" stroke="#D2D2D2"/>
<path d="M1154.92 2.3485L1158 3.32253L1153.73 13.4622C1151.4 19.0044 1146.77 18.4444 1142 17.0954C1144.28 11.6895 1146.87 -0.179115 1154.92 2.3485Z" fill="#EDEDED" stroke="#D2D2D2"/>
<path d="M1144.92 2.3485L1148 3.32253L1143.73 13.4622C1141.4 19.0044 1136.77 18.4444 1132 17.0954C1134.28 11.6895 1136.87 -0.179115 1144.92 2.3485Z" fill="#EDEDED" stroke="#D2D2D2"/>
<path d="M1134.92 2.3485L1138 3.32253L1133.73 13.4622C1131.4 19.0044 1126.77 18.4444 1122 17.0954C1124.28 11.6895 1126.87 -0.179115 1134.92 2.3485Z" fill="#EDEDED" stroke="#D2D2D2"/>
<path d="M1124.92 2.3485L1128 3.32253L1123.73 13.4622C1121.4 19.0044 1116.77 18.4444 1112 17.0954C1114.28 11.6895 1116.87 -0.179115 1124.92 2.3485Z" fill="#EDEDED" stroke="#D2D2D2"/>
<path d="M1114.92 2.3485L1118 3.32253L1113.73 13.4622C1111.4 19.0044 1106.77 18.4444 1102 17.0954C1104.28 11.6895 1106.87 -0.179115 1114.92 2.3485Z" fill="#EDEDED" stroke="#D2D2D2"/>
<path d="M1104.92 2.3485L1108 3.32253L1103.73 13.4622C1101.4 19.0044 1096.77 18.4444 1092 17.0954C1094.28 11.6895 1096.87 -0.179115 1104.92 2.3485Z" fill="#EDEDED" stroke="#D2D2D2"/>
<path d="M1094.92 2.3485L1098 3.32253L1093.73 13.4622C1091.4 19.0044 1086.77 18.4444 1082 17.0954C1084.28 11.6895 1086.87 -0.179115 1094.92 2.3485Z" fill="#EDEDED" stroke="#D2D2D2"/>
<path d="M1084.92 2.3485L1088 3.32253L1083.73 13.4622C1081.4 19.0044 1076.77 18.4444 1072 17.0954C1074.28 11.6895 1076.87 -0.179115 1084.92 2.3485Z" fill="#EDEDED" stroke="#D2D2D2"/>
<path d="M1074.92 2.3485L1078 3.32253L1073.73 13.4622C1071.4 19.0044 1066.77 18.4444 1062 17.0954C1064.28 11.6895 1066.87 -0.179115 1074.92 2.3485Z" fill="#EDEDED" stroke="#D2D2D2"/>
<path d="M1064.92 2.3485L1068 3.32253L1063.73 13.4622C1061.4 19.0044 1056.77 18.4444 1052 17.0954C1054.28 11.6895 1056.87 -0.179115 1064.92 2.3485Z" fill="#EDEDED" stroke="#D2D2D2"/>
<path d="M1054.92 2.3485L1058 3.32253L1053.73 13.4622C1051.4 19.0044 1046.77 18.4444 1042 17.0954C1044.28 11.6895 1046.87 -0.179115 1054.92 2.3485Z" fill="#EDEDED" stroke="#D2D2D2"/>
<path d="M1044.92 2.3485L1048 3.32253L1043.73 13.4622C1041.4 19.0044 1036.77 18.4444 1032 17.0954C1034.28 11.6895 1036.87 -0.179115 1044.92 2.3485Z" fill="#EDEDED" stroke="#D2D2D2"/>
<path d="M1034.92 2.3485L1038 3.32253L1033.73 13.4622C1031.4 19.0044 1026.77 18.4444 1022 17.0954C1024.28 11.6895 1026.87 -0.179115 1034.92 2.3485Z" fill="#EDEDED" stroke="#D2D2D2"/>
<path d="M1024.92 2.3485L1028 3.32253L1023.73 13.4622C1021.4 19.0044 1016.77 18.4444 1012 17.0954C1014.28 11.6895 1016.87 -0.179115 1024.92 2.3485Z" fill="#EDEDED" stroke="#D2D2D2"/>
<path d="M1014.92 2.3485L1018 3.32253L1013.73 13.4622C1011.4 19.0044 1006.77 18.4444 1002 17.0954C1004.28 11.6895 1006.87 -0.179115 1014.92 2.3485Z" fill="#EDEDED" stroke="#D2D2D2"/>
<path d="M1004.92 2.3485L1008 3.32253L1003.73 13.4622C1001.4 19.0044 996.768 18.4444 992 17.0954C994.284 11.6895 996.872 -0.179115 1004.92 2.3485Z" fill="#EDEDED" stroke="#D2D2D2"/>
<path d="M994.92 2.3485L998 3.32253L993.733 13.4622C991.397 19.0044 986.768 18.4444 982 17.0954C984.284 11.6895 986.872 -0.179115 994.92 2.3485Z" fill="#EDEDED" stroke="#D2D2D2"/>
<path d="M984.92 2.3485L988 3.32253L983.733 13.4622C981.397 19.0044 976.768 18.4444 972 17.0954C974.284 11.6895 976.872 -0.179115 984.92 2.3485Z" fill="#EDEDED" stroke="#D2D2D2"/>
<path d="M974.92 2.3485L978 3.32253L973.733 13.4622C971.397 19.0044 966.768 18.4444 962 17.0954C964.284 11.6895 966.872 -0.179115 974.92 2.3485Z" fill="#EDEDED" stroke="#D2D2D2"/>
<path d="M964.92 2.3485L968 3.32253L963.733 13.4622C961.397 19.0044 956.768 18.4444 952 17.0954C954.284 11.6895 956.872 -0.179115 964.92 2.3485Z" fill="#EDEDED" stroke="#D2D2D2"/>
<path d="M954.92 2.3485L958 3.32253L953.733 13.4622C951.397 19.0044 946.768 18.4444 942 17.0954C944.284 11.6895 946.872 -0.179115 954.92 2.3485Z" fill="#EDEDED" stroke="#D2D2D2"/>
<path d="M944.92 2.3485L948 3.32253L943.733 13.4622C941.397 19.0044 936.768 18.4444 932 17.0954C934.284 11.6895 936.872 -0.179115 944.92 2.3485Z" fill="#EDEDED" stroke="#D2D2D2"/>
<path d="M934.92 2.3485L938 3.32253L933.733 13.4622C931.397 19.0044 926.768 18.4444 922 17.0954C924.284 11.6895 926.872 -0.179115 934.92 2.3485Z" fill="#EDEDED" stroke="#D2D2D2"/>
<path d="M924.92 2.3485L928 3.32253L923.733 13.4622C921.397 19.0044 916.768 18.4444 912 17.0954C914.284 11.6895 916.872 -0.179115 924.92 2.3485Z" fill="#EDEDED" stroke="#D2D2D2"/>
<path d="M914.92 2.3485L918 3.32253L913.733 13.4622C911.397 19.0044 906.768 18.4444 902 17.0954C904.284 11.6895 906.872 -0.179115 914.92 2.3485Z" fill="#EDEDED" stroke="#D2D2D2"/>
<path d="M904.92 2.3485L908 3.32253L903.733 13.4622C901.397 19.0044 896.768 18.4444 892 17.0954C894.284 11.6895 896.872 -0.179115 904.92 2.3485Z" fill="#EDEDED" stroke="#D2D2D2"/>
<path d="M894.92 2.3485L898 3.32253L893.733 13.4622C891.397 19.0044 886.768 18.4444 882 17.0954C884.284 11.6895 886.872 -0.179115 894.92 2.3485Z" fill="#EDEDED" stroke="#D2D2D2"/>
<path d="M884.92 2.3485L888 3.32253L883.733 13.4622C881.397 19.0044 876.768 18.4444 872 17.0954C874.284 11.6895 876.872 -0.179115 884.92 2.3485Z" fill="#EDEDED" stroke="#D2D2D2"/>
<path d="M874.92 2.3485L878 3.32253L873.733 13.4622C871.397 19.0044 866.768 18.4444 862 17.0954C864.284 11.6895 866.872 -0.179115 874.92 2.3485Z" fill="#EDEDED" stroke="#D2D2D2"/>
<path d="M864.92 2.3485L868 3.32253L863.733 13.4622C861.397 19.0044 856.768 18.4444 852 17.0954C854.284 11.6895 856.872 -0.179115 864.92 2.3485Z" fill="#EDEDED" stroke="#D2D2D2"/>
<path d="M854.92 2.3485L858 3.32253L853.733 13.4622C851.397 19.0044 846.768 18.4444 842 17.0954C844.284 11.6895 846.872 -0.179115 854.92 2.3485Z" fill="#EDEDED" stroke="#D2D2D2"/>
<path d="M844.92 2.3485L848 3.32253L843.733 13.4622C841.397 19.0044 836.768 18.4444 832 17.0954C834.284 11.6895 836.872 -0.179115 844.92 2.3485Z" fill="#EDEDED" stroke="#D2D2D2"/>
<path d="M834.92 2.3485L838 3.32253L833.733 13.4622C831.397 19.0044 826.768 18.4444 822 17.0954C824.284 11.6895 826.872 -0.179115 834.92 2.3485Z" fill="#EDEDED" stroke="#D2D2D2"/>
<path d="M824.92 2.3485L828 3.32253L823.733 13.4622C821.397 19.0044 816.768 18.4444 812 17.0954C814.284 11.6895 816.872 -0.179115 824.92 2.3485Z" fill="#EDEDED" stroke="#D2D2D2"/>
<path d="M814.92 2.3485L818 3.32253L813.733 13.4622C811.397 19.0044 806.768 18.4444 802 17.0954C804.284 11.6895 806.872 -0.179115 814.92 2.3485Z" fill="#EDEDED" stroke="#D2D2D2"/>
<path d="M804.92 2.3485L808 3.32253L803.733 13.4622C801.397 19.0044 796.768 18.4444 792 17.0954C794.284 11.6895 796.872 -0.179115 804.92 2.3485Z" fill="#EDEDED" stroke="#D2D2D2"/>
<path d="M794.92 2.3485L798 3.32253L793.733 13.4622C791.397 19.0044 786.768 18.4444 782 17.0954C784.284 11.6895 786.872 -0.179115 794.92 2.3485Z" fill="#EDEDED" stroke="#D2D2D2"/>
<path d="M784.92 2.3485L788 3.32253L783.733 13.4622C781.397 19.0044 776.768 18.4444 772 17.0954C774.284 11.6895 776.872 -0.179115 784.92 2.3485Z" fill="#EDEDED" stroke="#D2D2D2"/>
<path d="M774.92 2.3485L778 3.32253L773.733 13.4622C771.397 19.0044 766.768 18.4444 762 17.0954C764.284 11.6895 766.872 -0.179115 774.92 2.3485Z" fill="#EDEDED" stroke="#D2D2D2"/>
<path d="M764.92 2.3485L768 3.32253L763.733 13.4622C761.397 19.0044 756.768 18.4444 752 17.0954C754.284 11.6895 756.872 -0.179115 764.92 2.3485Z" fill="#EDEDED" stroke="#D2D2D2"/>
<path d="M754.92 2.3485L758 3.32253L753.733 13.4622C751.397 19.0044 746.768 18.4444 742 17.0954C744.284 11.6895 746.872 -0.179115 754.92 2.3485Z" fill="#EDEDED" stroke="#D2D2D2"/>
<path d="M744.92 2.3485L748 3.32253L743.733 13.4622C741.397 19.0044 736.768 18.4444 732 17.0954C734.284 11.6895 736.872 -0.179115 744.92 2.3485Z" fill="#EDEDED" stroke="#D2D2D2"/>
<path d="M734.92 2.3485L738 3.32253L733.733 13.4622C731.397 19.0044 726.768 18.4444 722 17.0954C724.284 11.6895 726.872 -0.179115 734.92 2.3485Z" fill="#EDEDED" stroke="#D2D2D2"/>
<path d="M724.92 2.3485L728 3.32253L723.733 13.4622C721.397 19.0044 716.768 18.4444 712 17.0954C714.284 11.6895 716.872 -0.179115 724.92 2.3485Z" fill="#EDEDED" stroke="#D2D2D2"/>
<path d="M714.92 2.3485L718 3.32253L713.733 13.4622C711.397 19.0044 706.768 18.4444 702 17.0954C704.284 11.6895 706.872 -0.179115 714.92 2.3485Z" fill="#EDEDED" stroke="#D2D2D2"/>
<path d="M704.92 2.3485L708 3.32253L703.733 13.4622C701.397 19.0044 696.768 18.4444 692 17.0954C694.284 11.6895 696.872 -0.179115 704.92 2.3485Z" fill="#EDEDED" stroke="#D2D2D2"/>
<path d="M694.92 2.3485L698 3.32253L693.733 13.4622C691.397 19.0044 686.768 18.4444 682 17.0954C684.284 11.6895 686.872 -0.179115 694.92 2.3485Z" fill="#EDEDED" stroke="#D2D2D2"/>
<path d="M684.92 2.3485L688 3.32253L683.733 13.4622C681.397 19.0044 676.768 18.4444 672 17.0954C674.284 11.6895 676.872 -0.179115 684.92 2.3485Z" fill="#EDEDED" stroke="#D2D2D2"/>
<path d="M674.92 2.3485L678 3.32253L673.733 13.4622C671.397 19.0044 666.768 18.4444 662 17.0954C664.284 11.6895 666.872 -0.179115 674.92 2.3485Z" fill="#EDEDED" stroke="#D2D2D2"/>
<path d="M664.92 2.3485L668 3.32253L663.733 13.4622C661.397 19.0044 656.768 18.4444 652 17.0954C654.284 11.6895 656.872 -0.179115 664.92 2.3485Z" fill="#EDEDED" stroke="#D2D2D2"/>
<path d="M654.92 2.3485L658 3.32253L653.733 13.4622C651.397 19.0044 646.768 18.4444 642 17.0954C644.284 11.6895 646.872 -0.179115 654.92 2.3485Z" fill="#EDEDED" stroke="#D2D2D2"/>
<path d="M644.92 2.3485L648 3.32253L643.733 13.4622C641.397 19.0044 636.768 18.4444 632 17.0954C634.284 11.6895 636.872 -0.179115 644.92 2.3485Z" fill="#EDEDED" stroke="#D2D2D2"/>
<path d="M634.92 2.3485L638 3.32253L633.733 13.4622C631.397 19.0044 626.768 18.4444 622 17.0954C624.284 11.6895 626.872 -0.179115 634.92 2.3485Z" fill="#EDEDED" stroke="#D2D2D2"/>
<path d="M624.92 2.3485L628 3.32253L623.733 13.4622C621.397 19.0044 616.768 18.4444 612 17.0954C614.284 11.6895 616.872 -0.179115 624.92 2.3485Z" fill="#EDEDED" stroke="#D2D2D2"/>
<path d="M614.92 2.3485L618 3.32253L613.733 13.4622C611.397 19.0044 606.768 18.4444 602 17.0954C604.284 11.6895 606.872 -0.179115 614.92 2.3485Z" fill="#EDEDED" stroke="#D2D2D2"/>
<path d="M604.92 2.3485L608 3.32253L603.733 13.4622C601.397 19.0044 596.768 18.4444 592 17.0954C594.284 11.6895 596.872 -0.179115 604.92 2.3485Z" fill="#EDEDED" stroke="#D2D2D2"/>
<path d="M594.92 2.3485L598 3.32253L593.733 13.4622C591.397 19.0044 586.768 18.4444 582 17.0954C584.284 11.6895 586.872 -0.179115 594.92 2.3485Z" fill="#EDEDED" stroke="#D2D2D2"/>
<path d="M584.92 2.3485L588 3.32253L583.733 13.4622C581.397 19.0044 576.768 18.4444 572 17.0954C574.284 11.6895 576.872 -0.179115 584.92 2.3485Z" fill="#EDEDED" stroke="#D2D2D2"/>
<path d="M574.92 2.3485L578 3.32253L573.733 13.4622C571.397 19.0044 566.768 18.4444 562 17.0954C564.284 11.6895 566.872 -0.179115 574.92 2.3485Z" fill="#EDEDED" stroke="#D2D2D2"/>
<path d="M564.92 2.3485L568 3.32253L563.733 13.4622C561.397 19.0044 556.768 18.4444 552 17.0954C554.284 11.6895 556.872 -0.179115 564.92 2.3485Z" fill="#EDEDED" stroke="#D2D2D2"/>
<path d="M554.92 2.3485L558 3.32253L553.733 13.4622C551.397 19.0044 546.768 18.4444 542 17.0954C544.284 11.6895 546.872 -0.179115 554.92 2.3485Z" fill="#EDEDED" stroke="#D2D2D2"/>
<path d="M544.92 2.3485L548 3.32253L543.733 13.4622C541.397 19.0044 536.768 18.4444 532 17.0954C534.284 11.6895 536.872 -0.179115 544.92 2.3485Z" fill="#EDEDED" stroke="#D2D2D2"/>
<path d="M534.92 2.3485L538 3.32253L533.733 13.4622C531.397 19.0044 526.768 18.4444 522 17.0954C524.284 11.6895 526.872 -0.179115 534.92 2.3485Z" fill="#EDEDED" stroke="#D2D2D2"/>
<path d="M524.92 2.3485L528 3.32253L523.733 13.4622C521.397 19.0044 516.768 18.4444 512 17.0954C514.284 11.6895 516.872 -0.179115 524.92 2.3485Z" fill="#EDEDED" stroke="#D2D2D2"/>
<path d="M514.92 2.3485L518 3.32253L513.733 13.4622C511.397 19.0044 506.768 18.4444 502 17.0954C504.284 11.6895 506.872 -0.179115 514.92 2.3485Z" fill="#EDEDED" stroke="#D2D2D2"/>
<path d="M504.92 2.3485L508 3.32253L503.733 13.4622C501.397 19.0044 496.768 18.4444 492 17.0954C494.284 11.6895 496.872 -0.179115 504.92 2.3485Z" fill="#EDEDED" stroke="#D2D2D2"/>
<path d="M494.92 2.3485L498 3.32253L493.733 13.4622C491.397 19.0044 486.768 18.4444 482 17.0954C484.284 11.6895 486.872 -0.179115 494.92 2.3485Z" fill="#EDEDED" stroke="#D2D2D2"/>
<path d="M484.92 2.3485L488 3.32253L483.733 13.4622C481.397 19.0044 476.768 18.4444 472 17.0954C474.284 11.6895 476.872 -0.179115 484.92 2.3485Z" fill="#EDEDED" stroke="#D2D2D2"/>
<path d="M474.92 2.3485L478 3.32253L473.733 13.4622C471.397 19.0044 466.768 18.4444 462 17.0954C464.284 11.6895 466.872 -0.179115 474.92 2.3485Z" fill="#EDEDED" stroke="#D2D2D2"/>
<path d="M464.92 2.3485L468 3.32253L463.733 13.4622C461.397 19.0044 456.768 18.4444 452 17.0954C454.284 11.6895 456.872 -0.179115 464.92 2.3485Z" fill="#EDEDED" stroke="#D2D2D2"/>
<path d="M454.92 2.3485L458 3.32253L453.733 13.4622C451.397 19.0044 446.768 18.4444 442 17.0954C444.284 11.6895 446.872 -0.179115 454.92 2.3485Z" fill="#EDEDED" stroke="#D2D2D2"/>
<path d="M444.92 2.3485L448 3.32253L443.733 13.4622C441.397 19.0044 436.768 18.4444 432 17.0954C434.284 11.6895 436.872 -0.179115 444.92 2.3485Z" fill="#EDEDED" stroke="#D2D2D2"/>
<path d="M434.92 2.3485L438 3.32253L433.733 13.4622C431.397 19.0044 426.768 18.4444 422 17.0954C424.284 11.6895 426.872 -0.179115 434.92 2.3485Z" fill="#EDEDED" stroke="#D2D2D2"/>
<path d="M424.92 2.3485L428 3.32253L423.733 13.4622C421.397 19.0044 416.768 18.4444 412 17.0954C414.284 11.6895 416.872 -0.179115 424.92 2.3485Z" fill="#EDEDED" stroke="#D2D2D2"/>
<path d="M414.92 2.3485L418 3.32253L413.733 13.4622C411.397 19.0044 406.768 18.4444 402 17.0954C404.284 11.6895 406.872 -0.179115 414.92 2.3485Z" fill="#EDEDED" stroke="#D2D2D2"/>
<path d="M404.92 2.3485L408 3.32253L403.733 13.4622C401.397 19.0044 396.768 18.4444 392 17.0954C394.284 11.6895 396.872 -0.179115 404.92 2.3485Z" fill="#EDEDED" stroke="#D2D2D2"/>
<path d="M394.92 2.3485L398 3.32253L393.733 13.4622C391.397 19.0044 386.768 18.4444 382 17.0954C384.284 11.6895 386.872 -0.179115 394.92 2.3485Z" fill="#EDEDED" stroke="#D2D2D2"/>
<path d="M384.92 2.3485L388 3.32253L383.733 13.4622C381.397 19.0044 376.768 18.4444 372 17.0954C374.284 11.6895 376.872 -0.179115 384.92 2.3485Z" fill="#EDEDED" stroke="#D2D2D2"/>
<path d="M374.92 2.3485L378 3.32253L373.733 13.4622C371.397 19.0044 366.768 18.4444 362 17.0954C364.284 11.6895 366.872 -0.179115 374.92 2.3485Z" fill="#EDEDED" stroke="#D2D2D2"/>
<path d="M364.92 2.3485L368 3.32253L363.733 13.4622C361.397 19.0044 356.768 18.4444 352 17.0954C354.284 11.6895 356.872 -0.179115 364.92 2.3485Z" fill="#EDEDED" stroke="#D2D2D2"/>
<path d="M354.92 2.3485L358 3.32253L353.733 13.4622C351.397 19.0044 346.768 18.4444 342 17.0954C344.284 11.6895 346.872 -0.179115 354.92 2.3485Z" fill="#EDEDED" stroke="#D2D2D2"/>
<path d="M344.92 2.3485L348 3.32253L343.733 13.4622C341.397 19.0044 336.768 18.4444 332 17.0954C334.284 11.6895 336.872 -0.179115 344.92 2.3485Z" fill="#EDEDED" stroke="#D2D2D2"/>
<path d="M334.92 2.3485L338 3.32253L333.733 13.4622C331.397 19.0044 326.768 18.4444 322 17.0954C324.284 11.6895 326.872 -0.179115 334.92 2.3485Z" fill="#EDEDED" stroke="#D2D2D2"/>
<path d="M324.92 2.3485L328 3.32253L323.733 13.4622C321.397 19.0044 316.768 18.4444 312 17.0954C314.284 11.6895 316.872 -0.179115 324.92 2.3485Z" fill="#EDEDED" stroke="#D2D2D2"/>
<path d="M314.92 2.3485L318 3.32253L313.733 13.4622C311.397 19.0044 306.768 18.4444 302 17.0954C304.284 11.6895 306.872 -0.179115 314.92 2.3485Z" fill="#EDEDED" stroke="#D2D2D2"/>
<path d="M304.92 2.3485L308 3.32253L303.733 13.4622C301.397 19.0044 296.768 18.4444 292 17.0954C294.284 11.6895 296.872 -0.179115 304.92 2.3485Z" fill="#EDEDED" stroke="#D2D2D2"/>
<path d="M294.92 2.3485L298 3.32253L293.733 13.4622C291.397 19.0044 286.768 18.4444 282 17.0954C284.284 11.6895 286.872 -0.179115 294.92 2.3485Z" fill="#EDEDED" stroke="#D2D2D2"/>
<path d="M284.92 2.3485L288 3.32253L283.733 13.4622C281.397 19.0044 276.768 18.4444 272 17.0954C274.284 11.6895 276.872 -0.179115 284.92 2.3485Z" fill="#EDEDED" stroke="#D2D2D2"/>
<path d="M274.92 2.3485L278 3.32253L273.733 13.4622C271.397 19.0044 266.768 18.4444 262 17.0954C264.284 11.6895 266.872 -0.179115 274.92 2.3485Z" fill="#EDEDED" stroke="#D2D2D2"/>
<path d="M264.92 2.3485L268 3.32253L263.733 13.4622C261.397 19.0044 256.768 18.4444 252 17.0954C254.284 11.6895 256.872 -0.179115 264.92 2.3485Z" fill="#EDEDED" stroke="#D2D2D2"/>
<path d="M254.92 2.3485L258 3.32253L253.733 13.4622C251.397 19.0044 246.768 18.4444 242 17.0954C244.284 11.6895 246.872 -0.179115 254.92 2.3485Z" fill="#EDEDED" stroke="#D2D2D2"/>
<path d="M244.92 2.3485L248 3.32253L243.733 13.4622C241.397 19.0044 236.768 18.4444 232 17.0954C234.284 11.6895 236.872 -0.179115 244.92 2.3485Z" fill="#EDEDED" stroke="#D2D2D2"/>
<path d="M234.92 2.3485L238 3.32253L233.733 13.4622C231.397 19.0044 226.768 18.4444 222 17.0954C224.284 11.6895 226.872 -0.179115 234.92 2.3485Z" fill="#EDEDED" stroke="#D2D2D2"/>
<path d="M224.92 2.3485L228 3.32253L223.733 13.4622C221.397 19.0044 216.768 18.4444 212 17.0954C214.284 11.6895 216.872 -0.179115 224.92 2.3485Z" fill="#EDEDED" stroke="#D2D2D2"/>
<path d="M214.92 2.3485L218 3.32253L213.733 13.4622C211.397 19.0044 206.768 18.4444 202 17.0954C204.284 11.6895 206.872 -0.179115 214.92 2.3485Z" fill="#EDEDED" stroke="#D2D2D2"/>
<path d="M204.92 2.3485L208 3.32253L203.733 13.4622C201.397 19.0044 196.768 18.4444 192 17.0954C194.284 11.6895 196.872 -0.179115 204.92 2.3485Z" fill="#EDEDED" stroke="#D2D2D2"/>
<path d="M194.92 2.3485L198 3.32253L193.733 13.4622C191.397 19.0044 186.768 18.4444 182 17.0954C184.284 11.6895 186.872 -0.179115 194.92 2.3485Z" fill="#EDEDED" stroke="#D2D2D2"/>
<path d="M184.92 2.3485L188 3.32253L183.733 13.4622C181.397 19.0044 176.768 18.4444 172 17.0954C174.284 11.6895 176.872 -0.179115 184.92 2.3485Z" fill="#EDEDED" stroke="#D2D2D2"/>
<path d="M174.92 2.3485L178 3.32253L173.733 13.4622C171.397 19.0044 166.768 18.4444 162 17.0954C164.284 11.6895 166.872 -0.179115 174.92 2.3485Z" fill="#EDEDED" stroke="#D2D2D2"/>
<path d="M164.92 2.3485L168 3.32253L163.733 13.4622C161.397 19.0044 156.768 18.4444 152 17.0954C154.284 11.6895 156.872 -0.179115 164.92 2.3485Z" fill="#EDEDED" stroke="#D2D2D2"/>
<path d="M154.92 2.3485L158 3.32253L153.733 13.4622C151.397 19.0044 146.768 18.4444 142 17.0954C144.284 11.6895 146.872 -0.179115 154.92 2.3485Z" fill="#EDEDED" stroke="#D2D2D2"/>
<path d="M144.92 2.3485L148 3.32253L143.733 13.4622C141.397 19.0044 136.768 18.4444 132 17.0954C134.284 11.6895 136.872 -0.179115 144.92 2.3485Z" fill="#EDEDED" stroke="#D2D2D2"/>
<path d="M134.92 2.3485L138 3.32253L133.733 13.4622C131.397 19.0044 126.768 18.4444 122 17.0954C124.284 11.6895 126.872 -0.179115 134.92 2.3485Z" fill="#EDEDED" stroke="#D2D2D2"/>
<path d="M124.92 2.3485L128 3.32253L123.733 13.4622C121.397 19.0044 116.768 18.4444 112 17.0954C114.284 11.6895 116.872 -0.179115 124.92 2.3485Z" fill="#EDEDED" stroke="#D2D2D2"/>
<path d="M114.92 2.3485L118 3.32253L113.733 13.4622C111.397 19.0044 106.768 18.4444 102 17.0954C104.284 11.6895 106.872 -0.179115 114.92 2.3485Z" fill="#EDEDED" stroke="#D2D2D2"/>
<path d="M104.92 2.3485L108 3.32253L103.733 13.4622C101.397 19.0044 96.7676 18.4444 92 17.0954C94.2837 11.6895 96.8725 -0.179115 104.92 2.3485Z" fill="#EDEDED" stroke="#D2D2D2"/>
<path d="M94.9201 2.3485L98 3.32253L93.733 13.4622C91.3969 19.0044 86.7676 18.4444 82 17.0954C84.2837 11.6895 86.8725 -0.179115 94.9201 2.3485Z" fill="#EDEDED" stroke="#D2D2D2"/>
<path d="M84.9201 2.3485L88 3.32253L83.733 13.4622C81.3969 19.0044 76.7676 18.4444 72 17.0954C74.2837 11.6895 76.8725 -0.179115 84.9201 2.3485Z" fill="#EDEDED" stroke="#D2D2D2"/>
<path d="M74.9201 2.3485L78 3.32253L73.733 13.4622C71.3969 19.0044 66.7676 18.4444 62 17.0954C64.2837 11.6895 66.8725 -0.179115 74.9201 2.3485Z" fill="#EDEDED" stroke="#D2D2D2"/>
<path d="M64.9201 2.3485L68 3.32253L63.733 13.4622C61.3969 19.0044 56.7676 18.4444 52 17.0954C54.2837 11.6895 56.8725 -0.179115 64.9201 2.3485Z" fill="#EDEDED" stroke="#D2D2D2"/>
<path d="M54.9201 2.3485L58 3.32253L53.733 13.4622C51.3969 19.0044 46.7676 18.4444 42 17.0954C44.2837 11.6895 46.8725 -0.179115 54.9201 2.3485Z" fill="#EDEDED" stroke="#D2D2D2"/>
<path d="M44.9201 2.3485L48 3.32253L43.733 13.4622C41.3969 19.0044 36.7676 18.4444 32 17.0954C34.2837 11.6895 36.8725 -0.179115 44.9201 2.3485Z" fill="#EDEDED" stroke="#D2D2D2"/>
<path d="M34.9201 2.3485L38 3.32253L33.733 13.4622C31.3969 19.0044 26.7676 18.4444 22 17.0954C24.2837 11.6895 26.8725 -0.179115 34.9201 2.3485Z" fill="#EDEDED" stroke="#D2D2D2"/>
<path d="M24.9201 2.3485L28 3.32253L23.733 13.4622C21.3969 19.0044 16.7676 18.4444 12 17.0954C14.2837 11.6895 16.8725 -0.179115 24.9201 2.3485Z" fill="#EDEDED" stroke="#D2D2D2"/>
<path d="M14.9201 2.3485L18 3.32253L13.733 13.4622C11.3969 19.0044 6.76758 18.4444 2 17.0954C4.28367 11.6895 6.87246 -0.179115 14.9201 2.3485Z" fill="#EDEDED" stroke="#D2D2D2"/>
<path d="M4.92013 2.3485L8 3.32253L3.73301 13.4622C1.3969 19.0044 -3.23242 18.4444 -8 17.0954C-5.71633 11.6895 -3.12754 -0.179115 4.92013 2.3485Z" fill="#EDEDED" stroke="#D2D2D2"/>
</g>
<defs>
<clipPath id="clip0_206_17973">
<rect width="1920" height="20" fill="white"/>
</clipPath>
</defs>
</svg>
