<svg width="60" height="456" viewBox="0 0 60 456" fill="none" xmlns="http://www.w3.org/2000/svg">
<path d="M35.7386 3.3099L35.0081 1L27.4034 4.20024C23.2467 5.95233 23.6667 9.42431 24.6785 13C28.7329 11.2872 37.6343 9.34566 35.7386 3.3099Z" fill="#5173E3" stroke="#3551AD"/>
<path d="M35.7386 10.3099L35.0081 8L27.4034 11.2002C23.2467 12.9523 23.6667 16.4243 24.6785 20C28.7329 18.2872 37.6343 16.3457 35.7386 10.3099Z" fill="#5173E3" stroke="#3551AD"/>
<path d="M35.7386 17.3099L35.0081 15L27.4034 18.2002C23.2467 19.9523 23.6667 23.4243 24.6785 27C28.7329 25.2872 37.6343 23.3457 35.7386 17.3099Z" fill="#5173E3" stroke="#3551AD"/>
<path d="M35.7386 24.3099L35.0081 22L27.4034 25.2002C23.2467 26.9523 23.6667 30.4243 24.6785 34C28.7329 32.2872 37.6343 30.3457 35.7386 24.3099Z" fill="#5173E3" stroke="#3551AD"/>
<path d="M35.7386 31.3099L35.0081 29L27.4034 32.2002C23.2467 33.9523 23.6667 37.4243 24.6785 41C28.7329 39.2872 37.6343 37.3457 35.7386 31.3099Z" fill="#5173E3" stroke="#3551AD"/>
<path d="M35.4975 68.2769C35.0897 67.2388 34.1836 66.2006 33.0055 65.5687C31.8275 64.8916 30.4683 64.5757 29.1543 64.5757C23.2222 64.6776 21.0123 71.4316 22.63 76.2662C22.7659 76.6725 22.9018 76.9884 22.9924 77.2141C23.0831 77.4398 23.1283 77.5752 23.1283 77.5752C24.6235 77.3495 25.6656 77.0787 26.2999 76.537C30.0849 73.709 29.4806 68.2769 35.4975 68.2769Z" fill="#5173E3" stroke="#3551AD"/>
<path d="M40.5664 72.5813C40.4966 71.4687 39.9522 70.2043 39.0244 69.244C38.1104 68.2407 36.9131 67.526 35.662 67.1261C30.2305 65.4918 24.8531 70.9442 26.8051 76.1517C35.422 79.3508 35.0165 70.8069 40.5664 72.5813Z" fill="#5173E3" stroke="#3551AD"/>
<path d="M22.9896 68.9088C23.0802 68.7282 23.1708 68.5477 23.2161 68.3671C23.3521 68.0963 23.4427 67.9157 23.4427 67.9157C22.4459 67.7352 21.3132 67.8706 20.2711 68.322C19.229 68.7282 18.2322 69.4504 17.5073 70.308C14.2348 74.3832 16.4423 79.8713 20.3164 82.7659C20.4976 82.9013 20.7242 83.0367 20.9054 83.1721C21.2679 83.3978 21.5397 83.5784 21.7662 83.6686C21.9928 83.7589 22.1287 83.804 22.1287 83.804C23.1708 82.7207 23.7598 81.9083 23.941 80.9604C24.5598 76.8509 21.8263 73.5442 22.9896 68.9088Z" fill="#5173E3" stroke="#3551AD"/>
<path d="M34.9973 76.1308C34.9973 76.1308 35.1332 76.0856 35.3597 75.9954C35.5862 75.9051 35.9034 75.8148 36.3112 75.7697C37.1268 75.5891 38.3048 75.5891 39.5281 75.8148C40.7514 76.0405 42.02 76.537 42.9262 76.9884C43.3793 77.214 43.7418 77.4397 44.0136 77.6203C44.2855 77.8008 44.4213 77.8911 44.4213 77.8911C44.7838 76.9432 44.8291 75.8599 44.6026 74.7766C44.376 73.6934 43.8323 72.5649 43.0621 71.6622C42.2918 70.7143 41.2951 69.9921 40.2077 69.5407C39.1203 69.0893 37.9423 68.9539 36.9002 69.1345C36.9002 69.1345 36.719 69.1796 36.4018 69.2248C36.0847 69.315 35.6315 69.4053 35.1332 69.631C34.6348 69.8115 34.0458 70.0824 33.5021 70.4435C32.9584 70.8046 32.46 71.2108 32.0069 71.6622C31.1461 72.5649 30.7383 73.6482 30.6023 74.4156C30.557 74.8218 30.557 75.0926 30.6023 75.3183C30.6476 75.544 30.6477 75.6342 30.6477 75.6342C31.7351 76.4016 32.1429 76.9884 32.46 76.9884C32.5959 76.9884 32.9131 76.8981 33.2755 76.7175C33.9098 76.5821 34.4536 76.3564 34.9973 76.1308Z" fill="#5173E3" stroke="#3551AD"/>
<path d="M35.7357 59.3098L35.0052 56.9999L27.4004 60.2001C23.2438 61.9522 23.6638 65.4242 24.6755 68.9999C28.73 67.2871 37.6314 65.3456 35.7357 59.3098Z" fill="#5173E3" stroke="#3551AD"/>
<path d="M35.7357 66.3098L35.0052 63.9999L27.4004 67.2001C23.2438 68.9522 23.6638 72.4242 24.6755 75.9999C28.73 74.2871 37.6314 72.3456 35.7357 66.3098Z" fill="#5173E3" stroke="#3551AD"/>
<path d="M35.7357 73.3098L35.0052 70.9999L27.4004 74.2001C23.2438 75.9522 23.6638 79.4242 24.6755 82.9999C28.73 81.2871 37.6314 79.3456 35.7357 73.3098Z" fill="#5173E3" stroke="#3551AD"/>
<path d="M35.7357 80.3098L35.0052 77.9999L27.4004 81.2001C23.2438 82.9522 23.6638 86.4242 24.6755 89.9999C28.73 88.2871 37.6314 86.3456 35.7357 80.3098Z" fill="#5173E3" stroke="#3551AD"/>
<path d="M35.7357 87.3098L35.0052 84.9999L27.4004 88.2001C23.2438 89.9522 23.6638 93.4242 24.6755 96.9999C28.73 95.2871 37.6314 93.3456 35.7357 87.3098Z" fill="#5173E3" stroke="#3551AD"/>
<path d="M35.7357 94.3098L35.0052 91.9999L27.4004 95.2001C23.2438 96.9522 23.6638 100.424 24.6755 104C28.73 102.287 37.6314 100.346 35.7357 94.3098Z" fill="#5173E3" stroke="#3551AD"/>
<path d="M16.1474 76.8084C16.0568 76.4924 16.0114 76.357 16.0114 76.357C14.2897 77.35 13.1117 79.4715 13.0664 81.7735C13.0664 87.3495 19.0829 90.4186 24.1669 89.0857C24.5747 88.9954 24.8918 88.9052 25.1184 88.8149C25.3449 88.7246 25.4809 88.6795 25.4809 88.6795C25.1738 83.4799 17.7347 82.343 16.1474 76.8084Z" fill="#5173E3" stroke="#3551AD"/>
<path d="M25.4827 88.6347C25.4827 88.6347 25.3467 88.6798 25.1202 88.7701C24.8936 88.8604 24.5765 88.9506 24.1687 89.0409C23.3532 89.2214 22.1752 89.3569 20.9066 89.2666C20.2722 89.2214 19.6832 89.086 19.0489 88.9055C18.4599 88.7249 17.9162 88.4993 17.4178 88.3187C16.9647 88.093 16.5569 87.8673 16.2851 87.7319C16.0132 87.5514 15.832 87.4611 15.832 87.4611C15.6961 87.9576 15.6508 88.4541 15.6055 88.9958C15.6055 89.5374 15.6961 90.0791 15.8773 90.6658C16.0132 91.2075 16.2851 91.7491 16.5569 92.2456C16.8288 92.7422 17.2366 93.1935 17.6443 93.6449C18.0521 94.0511 18.5052 94.4122 19.0036 94.7282C19.502 95.0442 20.0004 95.2698 20.5441 95.4504C21.0878 95.6309 21.5862 95.7212 22.1299 95.7663C22.6736 95.8115 23.172 95.7212 23.625 95.6309C23.625 95.6309 23.8063 95.5858 24.0781 95.4955C24.3953 95.4052 24.803 95.2698 25.3014 95.1344C26.2529 94.7733 27.4762 94.1865 28.473 93.4643C28.9714 93.1032 29.4245 92.697 29.8322 92.3359C30.24 91.9297 30.5572 91.5686 30.7837 91.2075C31.2821 90.4853 31.5086 90.0339 31.5086 90.0339C30.5118 88.9055 29.7417 88.2736 28.8355 88.093C27.9293 87.9125 26.8872 88.093 25.4827 88.6347Z" fill="#5173E3" stroke="#3551AD"/>
<path d="M31.5076 90.079C31.5076 90.079 31.2811 90.5304 30.7827 91.2526C30.5108 91.5685 30.1937 91.9748 29.8312 92.381C29.4234 92.7421 28.9704 93.1483 28.472 93.5094C27.4752 94.2316 26.2519 94.8184 25.3004 95.1795C24.802 95.36 24.3943 95.4955 24.0771 95.5406C23.7599 95.6309 23.624 95.6309 23.624 95.6309C23.8506 96.0822 24.1677 96.4885 24.4848 96.8496C24.8473 97.2558 25.2551 97.5718 25.7082 97.8426C26.1613 98.1585 26.6596 98.3842 27.2033 98.5648C27.747 98.7453 28.2908 98.8356 28.8798 98.9259C30.0125 99.0162 31.2358 98.8356 32.2779 98.4294C33.32 97.978 34.2261 97.3461 34.8151 96.4885C34.8151 96.4885 34.9057 96.3531 35.087 96.0822C35.2682 95.8566 35.4947 95.4052 35.7213 94.9538C36.2197 94.0511 36.6728 92.7421 36.854 91.5234C37.0352 90.3047 36.9899 89.1311 36.8087 88.2735C36.7181 87.8673 36.6275 87.5062 36.5821 87.2805C36.4915 87.0548 36.4462 86.9194 36.4462 86.9194C34.951 86.9194 33.909 87.0097 33.2293 87.461C33.0481 87.5513 32.9122 87.6867 32.731 87.8673C32.595 88.0027 32.4591 88.1832 32.3232 88.4089C32.1872 88.5895 32.0513 88.8603 31.9154 89.1311C31.8248 89.4471 31.6888 89.7179 31.5076 90.079Z" fill="#5173E3" stroke="#3551AD"/>
<path d="M36.5335 87.0095C36.5335 87.0095 36.5788 87.1449 36.6694 87.3706C36.7147 87.5963 36.8053 87.9123 36.8959 88.3636C37.0318 89.1761 37.1224 90.3497 36.9412 91.6135C36.76 92.8322 36.3069 94.1412 35.8085 95.0439C35.582 95.4953 35.3102 95.9015 35.1742 96.1724C34.993 96.4432 34.9023 96.5786 34.9023 96.5786C35.1289 96.6689 35.4008 96.7592 35.6726 96.8043C35.9445 96.8494 36.2163 96.8494 36.4881 96.8946C36.76 96.8946 37.0318 96.8946 37.349 96.8946C37.6208 96.8494 37.8927 96.8043 38.1646 96.7592C39.252 96.4883 40.3393 95.9467 41.2455 95.1794C42.1517 94.412 42.8313 93.419 43.2391 92.426C43.6468 91.3878 43.7828 90.3045 43.6015 89.3115C43.6015 89.3115 43.5562 89.131 43.5109 88.815C43.4656 88.499 43.3297 88.0928 43.1938 87.5963C42.8766 86.6033 42.3329 85.3846 41.608 84.3464C40.883 83.3083 39.9769 82.5409 39.2973 82.0444C38.9348 81.8187 38.6629 81.6382 38.4364 81.5028C38.2099 81.3674 38.1193 81.3222 38.1193 81.3222C37.0319 82.3604 36.3975 83.1277 36.2163 83.8951C35.8538 84.5721 36.0804 85.5651 36.5335 87.0095Z" fill="#5173E3" stroke="#3551AD"/>
<path d="M43.3764 88.7247C43.4218 89.0406 43.467 89.2212 43.467 89.2212C44.3732 88.815 45.1888 88.0476 45.8231 87.0997C46.4574 86.1519 46.8198 84.9783 46.9105 83.8047C47.0011 82.6312 46.8199 81.4125 46.3668 80.4194C44.4823 76.1015 41.8084 74.5937 36.1511 75.6988C35.0052 77.798 34.9491 78.614 35.3569 79.3361C37.8162 83.1474 42.4053 82.9197 43.3764 88.7247Z" fill="#5173E3" stroke="#3551AD"/>
<path d="M35.4975 47.2769C35.0897 46.2388 34.1836 45.2006 33.0055 44.5687C31.8275 43.8916 30.4683 43.5757 29.1543 43.5757C23.2222 43.6776 21.0123 50.4316 22.63 55.2662C22.7659 55.6725 22.9018 55.9884 22.9924 56.2141C23.0831 56.4398 23.1283 56.5752 23.1283 56.5752C24.6235 56.3495 25.6656 56.0787 26.2999 55.537C30.0849 52.709 29.4806 47.2769 35.4975 47.2769Z" fill="#5173E3" stroke="#3551AD"/>
<path d="M40.5664 51.5813C40.4966 50.4687 39.9522 49.2043 39.0244 48.244C38.1104 47.2407 36.9131 46.526 35.662 46.1261C30.2305 44.4918 24.8531 49.9442 26.8051 55.1517C35.422 58.3508 35.0165 49.8069 40.5664 51.5813Z" fill="#5173E3" stroke="#3551AD"/>
<path d="M22.9896 47.9088C23.0802 47.7282 23.1708 47.5477 23.2161 47.3671C23.3521 47.0963 23.4427 46.9157 23.4427 46.9157C22.4459 46.7352 21.3132 46.8706 20.2711 47.322C19.229 47.7282 18.2322 48.4504 17.5073 49.308C14.2348 53.3832 16.4423 58.8713 20.3164 61.7659C20.4976 61.9013 20.7242 62.0367 20.9054 62.1721C21.2679 62.3978 21.5397 62.5784 21.7662 62.6686C21.9928 62.7589 22.1287 62.804 22.1287 62.804C23.1708 61.7207 23.7598 60.9083 23.941 59.9604C24.5598 55.8509 21.8263 52.5442 22.9896 47.9088Z" fill="#5173E3" stroke="#3551AD"/>
<path d="M34.9973 55.1308C34.9973 55.1308 35.1332 55.0856 35.3597 54.9954C35.5862 54.9051 35.9034 54.8148 36.3112 54.7697C37.1268 54.5891 38.3048 54.5891 39.5281 54.8148C40.7514 55.0405 42.02 55.537 42.9262 55.9884C43.3793 56.214 43.7418 56.4397 44.0136 56.6203C44.2855 56.8008 44.4213 56.8911 44.4213 56.8911C44.7838 55.9432 44.8291 54.8599 44.6026 53.7766C44.376 52.6934 43.8323 51.5649 43.0621 50.6622C42.2918 49.7143 41.2951 48.9921 40.2077 48.5407C39.1203 48.0893 37.9423 47.9539 36.9002 48.1345C36.9002 48.1345 36.719 48.1796 36.4018 48.2248C36.0847 48.315 35.6315 48.4053 35.1332 48.631C34.6348 48.8115 34.0458 49.0824 33.5021 49.4435C32.9584 49.8046 32.46 50.2108 32.0069 50.6622C31.1461 51.5649 30.7383 52.6482 30.6023 53.4156C30.557 53.8218 30.557 54.0926 30.6023 54.3183C30.6476 54.544 30.6477 54.6342 30.6477 54.6342C31.7351 55.4016 32.1429 55.9884 32.46 55.9884C32.5959 55.9884 32.9131 55.8981 33.2755 55.7175C33.9098 55.5821 34.4536 55.3564 34.9973 55.1308Z" fill="#5173E3" stroke="#3551AD"/>
<path d="M35.7357 38.3098L35.0052 35.9999L27.4004 39.2001C23.2438 40.9522 23.6638 44.4242 24.6755 47.9999C28.73 46.2871 37.6314 44.3456 35.7357 38.3098Z" fill="#5173E3" stroke="#3551AD"/>
<path d="M35.7357 45.3098L35.0052 42.9999L27.4004 46.2001C23.2438 47.9522 23.6638 51.4242 24.6755 54.9999C28.73 53.2871 37.6314 51.3456 35.7357 45.3098Z" fill="#5173E3" stroke="#3551AD"/>
<path d="M35.7357 52.3098L35.0052 49.9999L27.4004 53.2001C23.2438 54.9522 23.6638 58.4242 24.6755 61.9999C28.73 60.2871 37.6314 58.3456 35.7357 52.3098Z" fill="#5173E3" stroke="#3551AD"/>
<path d="M35.7357 59.3098L35.0052 56.9999L27.4004 60.2001C23.2438 61.9522 23.6638 65.4242 24.6755 68.9999C28.73 67.2871 37.6314 65.3456 35.7357 59.3098Z" fill="#5173E3" stroke="#3551AD"/>
<path d="M35.7357 66.3098L35.0052 63.9999L27.4004 67.2001C23.2438 68.9522 23.6638 72.4242 24.6755 75.9999C28.73 74.2871 37.6314 72.3456 35.7357 66.3098Z" fill="#5173E3" stroke="#3551AD"/>
<path d="M35.7357 73.3098L35.0052 70.9999L27.4004 74.2001C23.2438 75.9522 23.6638 79.4242 24.6755 82.9999C28.73 81.2871 37.6314 79.3456 35.7357 73.3098Z" fill="#5173E3" stroke="#3551AD"/>
<path d="M16.1474 55.8084C16.0568 55.4924 16.0114 55.357 16.0114 55.357C14.2897 56.35 13.1117 58.4715 13.0664 60.7735C13.0664 66.3495 19.0829 69.4186 24.1669 68.0857C24.5747 67.9954 24.8918 67.9052 25.1184 67.8149C25.3449 67.7246 25.4809 67.6795 25.4809 67.6795C25.1738 62.4799 17.7347 61.343 16.1474 55.8084Z" fill="#5173E3" stroke="#3551AD"/>
<path d="M25.4827 67.6347C25.4827 67.6347 25.3467 67.6798 25.1202 67.7701C24.8936 67.8604 24.5765 67.9506 24.1687 68.0409C23.3532 68.2214 22.1752 68.3569 20.9066 68.2666C20.2722 68.2214 19.6832 68.086 19.0489 67.9055C18.4599 67.7249 17.9162 67.4993 17.4178 67.3187C16.9647 67.093 16.5569 66.8673 16.2851 66.7319C16.0132 66.5514 15.832 66.4611 15.832 66.4611C15.6961 66.9576 15.6508 67.4541 15.6055 67.9958C15.6055 68.5374 15.6961 69.0791 15.8773 69.6658C16.0132 70.2075 16.2851 70.7491 16.5569 71.2456C16.8288 71.7422 17.2366 72.1935 17.6443 72.6449C18.0521 73.0511 18.5052 73.4122 19.0036 73.7282C19.502 74.0442 20.0004 74.2698 20.5441 74.4504C21.0878 74.6309 21.5862 74.7212 22.1299 74.7663C22.6736 74.8115 23.172 74.7212 23.625 74.6309C23.625 74.6309 23.8063 74.5858 24.0781 74.4955C24.3953 74.4052 24.803 74.2698 25.3014 74.1344C26.2529 73.7733 27.4762 73.1865 28.473 72.4643C28.9714 72.1032 29.4245 71.697 29.8322 71.3359C30.24 70.9297 30.5572 70.5686 30.7837 70.2075C31.2821 69.4853 31.5086 69.0339 31.5086 69.0339C30.5118 67.9055 29.7417 67.2736 28.8355 67.093C27.9293 66.9125 26.8872 67.093 25.4827 67.6347Z" fill="#5173E3" stroke="#3551AD"/>
<path d="M31.5076 69.079C31.5076 69.079 31.2811 69.5304 30.7827 70.2526C30.5108 70.5685 30.1937 70.9748 29.8312 71.381C29.4234 71.7421 28.9704 72.1483 28.472 72.5094C27.4752 73.2316 26.2519 73.8184 25.3004 74.1795C24.802 74.36 24.3943 74.4955 24.0771 74.5406C23.7599 74.6309 23.624 74.6309 23.624 74.6309C23.8506 75.0822 24.1677 75.4885 24.4848 75.8496C24.8473 76.2558 25.2551 76.5718 25.7082 76.8426C26.1613 77.1585 26.6596 77.3842 27.2033 77.5648C27.747 77.7453 28.2908 77.8356 28.8798 77.9259C30.0125 78.0162 31.2358 77.8356 32.2779 77.4294C33.32 76.978 34.2261 76.3461 34.8151 75.4885C34.8151 75.4885 34.9057 75.3531 35.087 75.0822C35.2682 74.8566 35.4947 74.4052 35.7213 73.9538C36.2197 73.0511 36.6728 71.7421 36.854 70.5234C37.0352 69.3047 36.9899 68.1311 36.8087 67.2735C36.7181 66.8673 36.6275 66.5062 36.5821 66.2805C36.4915 66.0548 36.4462 65.9194 36.4462 65.9194C34.951 65.9194 33.909 66.0097 33.2293 66.461C33.0481 66.5513 32.9122 66.6867 32.731 66.8673C32.595 67.0027 32.4591 67.1832 32.3232 67.4089C32.1872 67.5895 32.0513 67.8603 31.9154 68.1311C31.8248 68.4471 31.6888 68.7179 31.5076 69.079Z" fill="#5173E3" stroke="#3551AD"/>
<path d="M36.5335 66.0095C36.5335 66.0095 36.5788 66.1449 36.6694 66.3706C36.7147 66.5963 36.8053 66.9123 36.8959 67.3636C37.0318 68.1761 37.1224 69.3497 36.9412 70.6135C36.76 71.8322 36.3069 73.1412 35.8085 74.0439C35.582 74.4953 35.3102 74.9015 35.1742 75.1724C34.993 75.4432 34.9023 75.5786 34.9023 75.5786C35.1289 75.6689 35.4008 75.7592 35.6726 75.8043C35.9445 75.8494 36.2163 75.8494 36.4881 75.8946C36.76 75.8946 37.0318 75.8946 37.349 75.8946C37.6208 75.8494 37.8927 75.8043 38.1646 75.7592C39.252 75.4883 40.3393 74.9467 41.2455 74.1794C42.1517 73.412 42.8313 72.419 43.2391 71.426C43.6468 70.3878 43.7828 69.3045 43.6015 68.3115C43.6015 68.3115 43.5562 68.131 43.5109 67.815C43.4656 67.499 43.3297 67.0928 43.1938 66.5963C42.8766 65.6033 42.3329 64.3846 41.608 63.3464C40.883 62.3083 39.9769 61.5409 39.2973 61.0444C38.9348 60.8187 38.6629 60.6382 38.4364 60.5028C38.2099 60.3674 38.1193 60.3222 38.1193 60.3222C37.0319 61.3604 36.3975 62.1277 36.2163 62.8951C35.8538 63.5721 36.0804 64.5651 36.5335 66.0095Z" fill="#5173E3" stroke="#3551AD"/>
<path d="M43.3764 67.7247C43.4218 68.0406 43.467 68.2212 43.467 68.2212C44.3732 67.815 45.1888 67.0476 45.8231 66.0997C46.4574 65.1519 46.8198 63.9783 46.9105 62.8047C47.0011 61.6312 46.8199 60.4125 46.3668 59.4194C44.4823 55.1015 41.8084 53.5937 36.1511 54.6988C35.0052 56.798 34.9491 57.614 35.3569 58.3361C37.8162 62.1474 42.4053 61.9197 43.3764 67.7247Z" fill="#5173E3" stroke="#3551AD"/>
<path d="M35.7386 101.31L35.0081 99L27.4034 102.2C23.2467 103.952 23.6667 107.424 24.6785 111C28.7329 109.287 37.6343 107.346 35.7386 101.31Z" fill="#5173E3" stroke="#3551AD"/>
<path d="M35.7386 108.31L35.0081 106L27.4034 109.2C23.2467 110.952 23.6667 114.424 24.6785 118C28.7329 116.287 37.6343 114.346 35.7386 108.31Z" fill="#5173E3" stroke="#3551AD"/>
<path d="M35.7386 115.31L35.0081 113L27.4034 116.2C23.2467 117.952 23.6667 121.424 24.6785 125C28.7329 123.287 37.6343 121.346 35.7386 115.31Z" fill="#5173E3" stroke="#3551AD"/>
<path d="M35.7386 122.31L35.0081 120L27.4034 123.2C23.2467 124.952 23.6667 128.424 24.6785 132C28.7329 130.287 37.6343 128.346 35.7386 122.31Z" fill="#5173E3" stroke="#3551AD"/>
<path d="M35.7386 129.31L35.0081 127L27.4034 130.2C23.2467 131.952 23.6667 135.424 24.6785 139C28.7329 137.287 37.6343 135.346 35.7386 129.31Z" fill="#5173E3" stroke="#3551AD"/>
<path d="M35.7386 136.31L35.0081 134L27.4034 137.2C23.2467 138.952 23.6667 142.424 24.6785 146C28.7329 144.287 37.6343 142.346 35.7386 136.31Z" fill="#5173E3" stroke="#3551AD"/>
<path d="M35.7386 143.31L35.0081 141L27.4034 144.2C23.2467 145.952 23.6667 149.424 24.6785 153C28.7329 151.287 37.6343 149.346 35.7386 143.31Z" fill="#5173E3" stroke="#3551AD"/>
<path d="M35.7386 150.31L35.0081 148L27.4034 151.2C23.2467 152.952 23.6667 156.424 24.6785 160C28.7329 158.287 37.6343 156.346 35.7386 150.31Z" fill="#5173E3" stroke="#3551AD"/>
<path d="M35.7386 157.31L35.0081 155L27.4034 158.2C23.2467 159.952 23.6667 163.424 24.6785 167C28.7329 165.287 37.6343 163.346 35.7386 157.31Z" fill="#5173E3" stroke="#3551AD"/>
<path d="M35.7386 164.31L35.0081 162L27.4034 165.2C23.2467 166.952 23.6667 170.424 24.6785 174C28.7329 172.287 37.6343 170.346 35.7386 164.31Z" fill="#5173E3" stroke="#3551AD"/>
<path d="M35.4975 201.277C35.0897 200.239 34.1836 199.201 33.0055 198.569C31.8275 197.892 30.4683 197.576 29.1543 197.576C23.2222 197.678 21.0123 204.432 22.63 209.266C22.7659 209.672 22.9018 209.988 22.9924 210.214C23.0831 210.44 23.1283 210.575 23.1283 210.575C24.6235 210.35 25.6656 210.079 26.2999 209.537C30.0849 206.709 29.4806 201.277 35.4975 201.277Z" fill="#5173E3" stroke="#3551AD"/>
<path d="M40.5664 205.581C40.4966 204.469 39.9522 203.204 39.0244 202.244C38.1104 201.241 36.9131 200.526 35.662 200.126C30.2305 198.492 24.8531 203.944 26.8051 209.152C35.422 212.351 35.0165 203.807 40.5664 205.581Z" fill="#5173E3" stroke="#3551AD"/>
<path d="M22.9896 201.909C23.0802 201.728 23.1708 201.548 23.2161 201.367C23.3521 201.096 23.4427 200.916 23.4427 200.916C22.4459 200.735 21.3132 200.871 20.2711 201.322C19.229 201.728 18.2322 202.45 17.5073 203.308C14.2348 207.383 16.4423 212.871 20.3164 215.766C20.4976 215.901 20.7242 216.037 20.9054 216.172C21.2679 216.398 21.5397 216.578 21.7662 216.669C21.9928 216.759 22.1287 216.804 22.1287 216.804C23.1708 215.721 23.7598 214.908 23.941 213.96C24.5598 209.851 21.8263 206.544 22.9896 201.909Z" fill="#5173E3" stroke="#3551AD"/>
<path d="M34.9973 209.131C34.9973 209.131 35.1332 209.086 35.3597 208.995C35.5862 208.905 35.9034 208.815 36.3112 208.77C37.1268 208.589 38.3048 208.589 39.5281 208.815C40.7514 209.04 42.02 209.537 42.9262 209.988C43.3793 210.214 43.7418 210.44 44.0136 210.62C44.2855 210.801 44.4213 210.891 44.4213 210.891C44.7838 209.943 44.8291 208.86 44.6026 207.777C44.376 206.693 43.8323 205.565 43.0621 204.662C42.2918 203.714 41.2951 202.992 40.2077 202.541C39.1203 202.089 37.9423 201.954 36.9002 202.134C36.9002 202.134 36.719 202.18 36.4018 202.225C36.0847 202.315 35.6315 202.405 35.1332 202.631C34.6348 202.812 34.0458 203.082 33.5021 203.443C32.9584 203.805 32.46 204.211 32.0069 204.662C31.1461 205.565 30.7383 206.648 30.6023 207.416C30.557 207.822 30.557 208.093 30.6023 208.318C30.6476 208.544 30.6477 208.634 30.6477 208.634C31.7351 209.402 32.1429 209.988 32.46 209.988C32.5959 209.988 32.9131 209.898 33.2755 209.718C33.9098 209.582 34.4536 209.356 34.9973 209.131Z" fill="#5173E3" stroke="#3551AD"/>
<path d="M35.7357 192.31L35.0052 190L27.4004 193.2C23.2438 194.952 23.6638 198.424 24.6755 202C28.73 200.287 37.6314 198.346 35.7357 192.31Z" fill="#5173E3" stroke="#3551AD"/>
<path d="M35.7357 199.31L35.0052 197L27.4004 200.2C23.2438 201.952 23.6638 205.424 24.6755 209C28.73 207.287 37.6314 205.346 35.7357 199.31Z" fill="#5173E3" stroke="#3551AD"/>
<path d="M35.7357 206.31L35.0052 204L27.4004 207.2C23.2438 208.952 23.6638 212.424 24.6755 216C28.73 214.287 37.6314 212.346 35.7357 206.31Z" fill="#5173E3" stroke="#3551AD"/>
<path d="M35.7357 213.31L35.0052 211L27.4004 214.2C23.2438 215.952 23.6638 219.424 24.6755 223C28.73 221.287 37.6314 219.346 35.7357 213.31Z" fill="#5173E3" stroke="#3551AD"/>
<path d="M35.7357 220.31L35.0052 218L27.4004 221.2C23.2438 222.952 23.6638 226.424 24.6755 230C28.73 228.287 37.6314 226.346 35.7357 220.31Z" fill="#5173E3" stroke="#3551AD"/>
<path d="M35.7357 227.31L35.0052 225L27.4004 228.2C23.2438 229.952 23.6638 233.424 24.6755 237C28.73 235.287 37.6314 233.346 35.7357 227.31Z" fill="#5173E3" stroke="#3551AD"/>
<path d="M16.1474 209.808C16.0568 209.492 16.0114 209.357 16.0114 209.357C14.2897 210.35 13.1117 212.471 13.0664 214.773C13.0664 220.35 19.0829 223.419 24.1669 222.086C24.5747 221.995 24.8918 221.905 25.1184 221.815C25.3449 221.725 25.4809 221.679 25.4809 221.679C25.1738 216.48 17.7347 215.343 16.1474 209.808Z" fill="#5173E3" stroke="#3551AD"/>
<path d="M25.4827 221.635C25.4827 221.635 25.3467 221.68 25.1202 221.77C24.8936 221.86 24.5765 221.951 24.1687 222.041C23.3532 222.221 22.1752 222.357 20.9066 222.267C20.2722 222.221 19.6832 222.086 19.0489 221.905C18.4599 221.725 17.9162 221.499 17.4178 221.319C16.9647 221.093 16.5569 220.867 16.2851 220.732C16.0132 220.551 15.832 220.461 15.832 220.461C15.6961 220.958 15.6508 221.454 15.6055 221.996C15.6055 222.537 15.6961 223.079 15.8773 223.666C16.0132 224.207 16.2851 224.749 16.5569 225.246C16.8288 225.742 17.2366 226.194 17.6443 226.645C18.0521 227.051 18.5052 227.412 19.0036 227.728C19.502 228.044 20.0004 228.27 20.5441 228.45C21.0878 228.631 21.5862 228.721 22.1299 228.766C22.6736 228.811 23.172 228.721 23.625 228.631C23.625 228.631 23.8063 228.586 24.0781 228.496C24.3953 228.405 24.803 228.27 25.3014 228.134C26.2529 227.773 27.4762 227.187 28.473 226.464C28.9714 226.103 29.4245 225.697 29.8322 225.336C30.24 224.93 30.5572 224.569 30.7837 224.207C31.2821 223.485 31.5086 223.034 31.5086 223.034C30.5118 221.905 29.7417 221.274 28.8355 221.093C27.9293 220.912 26.8872 221.093 25.4827 221.635Z" fill="#5173E3" stroke="#3551AD"/>
<path d="M31.5076 223.079C31.5076 223.079 31.2811 223.53 30.7827 224.253C30.5108 224.569 30.1937 224.975 29.8312 225.381C29.4234 225.742 28.9704 226.148 28.472 226.509C27.4752 227.232 26.2519 227.818 25.3004 228.179C24.802 228.36 24.3943 228.495 24.0771 228.541C23.7599 228.631 23.624 228.631 23.624 228.631C23.8506 229.082 24.1677 229.488 24.4848 229.85C24.8473 230.256 25.2551 230.572 25.7082 230.843C26.1613 231.159 26.6596 231.384 27.2033 231.565C27.747 231.745 28.2908 231.836 28.8798 231.926C30.0125 232.016 31.2358 231.836 32.2779 231.429C33.32 230.978 34.2261 230.346 34.8151 229.488C34.8151 229.488 34.9057 229.353 35.087 229.082C35.2682 228.857 35.4947 228.405 35.7213 227.954C36.2197 227.051 36.6728 225.742 36.854 224.523C37.0352 223.305 36.9899 222.131 36.8087 221.273C36.7181 220.867 36.6275 220.506 36.5821 220.28C36.4915 220.055 36.4462 219.919 36.4462 219.919C34.951 219.919 33.909 220.01 33.2293 220.461C33.0481 220.551 32.9122 220.687 32.731 220.867C32.595 221.003 32.4591 221.183 32.3232 221.409C32.1872 221.589 32.0513 221.86 31.9154 222.131C31.8248 222.447 31.6888 222.718 31.5076 223.079Z" fill="#5173E3" stroke="#3551AD"/>
<path d="M36.5335 220.01C36.5335 220.01 36.5788 220.145 36.6694 220.371C36.7147 220.596 36.8053 220.912 36.8959 221.364C37.0318 222.176 37.1224 223.35 36.9412 224.614C36.76 225.832 36.3069 227.141 35.8085 228.044C35.582 228.495 35.3102 228.902 35.1742 229.172C34.993 229.443 34.9023 229.579 34.9023 229.579C35.1289 229.669 35.4008 229.759 35.6726 229.804C35.9445 229.849 36.2163 229.849 36.4881 229.895C36.76 229.895 37.0318 229.895 37.349 229.895C37.6208 229.849 37.8927 229.804 38.1646 229.759C39.252 229.488 40.3393 228.947 41.2455 228.179C42.1517 227.412 42.8313 226.419 43.2391 225.426C43.6468 224.388 43.7828 223.305 43.6015 222.312C43.6015 222.312 43.5562 222.131 43.5109 221.815C43.4656 221.499 43.3297 221.093 43.1938 220.596C42.8766 219.603 42.3329 218.385 41.608 217.346C40.883 216.308 39.9769 215.541 39.2973 215.044C38.9348 214.819 38.6629 214.638 38.4364 214.503C38.2099 214.367 38.1193 214.322 38.1193 214.322C37.0319 215.36 36.3975 216.128 36.2163 216.895C35.8538 217.572 36.0804 218.565 36.5335 220.01Z" fill="#5173E3" stroke="#3551AD"/>
<path d="M43.3764 221.725C43.4218 222.041 43.467 222.221 43.467 222.221C44.3732 221.815 45.1888 221.048 45.8231 220.1C46.4574 219.152 46.8198 217.978 46.9105 216.805C47.0011 215.631 46.8199 214.412 46.3668 213.419C44.4823 209.101 41.8084 207.594 36.1511 208.699C35.0052 210.798 34.9491 211.614 35.3569 212.336C37.8162 216.147 42.4053 215.92 43.3764 221.725Z" fill="#5173E3" stroke="#3551AD"/>
<path d="M35.4975 180.277C35.0897 179.239 34.1836 178.201 33.0055 177.569C31.8275 176.892 30.4683 176.576 29.1543 176.576C23.2222 176.678 21.0123 183.432 22.63 188.266C22.7659 188.672 22.9018 188.988 22.9924 189.214C23.0831 189.44 23.1283 189.575 23.1283 189.575C24.6235 189.35 25.6656 189.079 26.2999 188.537C30.0849 185.709 29.4806 180.277 35.4975 180.277Z" fill="#5173E3" stroke="#3551AD"/>
<path d="M40.5664 184.581C40.4966 183.469 39.9522 182.204 39.0244 181.244C38.1104 180.241 36.9131 179.526 35.662 179.126C30.2305 177.492 24.8531 182.944 26.8051 188.152C35.422 191.351 35.0165 182.807 40.5664 184.581Z" fill="#5173E3" stroke="#3551AD"/>
<path d="M22.9896 180.909C23.0802 180.728 23.1708 180.548 23.2161 180.367C23.3521 180.096 23.4427 179.916 23.4427 179.916C22.4459 179.735 21.3132 179.871 20.2711 180.322C19.229 180.728 18.2322 181.45 17.5073 182.308C14.2348 186.383 16.4423 191.871 20.3164 194.766C20.4976 194.901 20.7242 195.037 20.9054 195.172C21.2679 195.398 21.5397 195.578 21.7662 195.669C21.9928 195.759 22.1287 195.804 22.1287 195.804C23.1708 194.721 23.7598 193.908 23.941 192.96C24.5598 188.851 21.8263 185.544 22.9896 180.909Z" fill="#5173E3" stroke="#3551AD"/>
<path d="M34.9973 188.131C34.9973 188.131 35.1332 188.086 35.3597 187.995C35.5862 187.905 35.9034 187.815 36.3112 187.77C37.1268 187.589 38.3048 187.589 39.5281 187.815C40.7514 188.04 42.02 188.537 42.9262 188.988C43.3793 189.214 43.7418 189.44 44.0136 189.62C44.2855 189.801 44.4213 189.891 44.4213 189.891C44.7838 188.943 44.8291 187.86 44.6026 186.777C44.376 185.693 43.8323 184.565 43.0621 183.662C42.2918 182.714 41.2951 181.992 40.2077 181.541C39.1203 181.089 37.9423 180.954 36.9002 181.134C36.9002 181.134 36.719 181.18 36.4018 181.225C36.0847 181.315 35.6315 181.405 35.1332 181.631C34.6348 181.812 34.0458 182.082 33.5021 182.443C32.9584 182.805 32.46 183.211 32.0069 183.662C31.1461 184.565 30.7383 185.648 30.6023 186.416C30.557 186.822 30.557 187.093 30.6023 187.318C30.6476 187.544 30.6477 187.634 30.6477 187.634C31.7351 188.402 32.1429 188.988 32.46 188.988C32.5959 188.988 32.9131 188.898 33.2755 188.718C33.9098 188.582 34.4536 188.356 34.9973 188.131Z" fill="#5173E3" stroke="#3551AD"/>
<path d="M35.7357 171.31L35.0052 169L27.4004 172.2C23.2438 173.952 23.6638 177.424 24.6755 181C28.73 179.287 37.6314 177.346 35.7357 171.31Z" fill="#5173E3" stroke="#3551AD"/>
<path d="M35.7357 178.31L35.0052 176L27.4004 179.2C23.2438 180.952 23.6638 184.424 24.6755 188C28.73 186.287 37.6314 184.346 35.7357 178.31Z" fill="#5173E3" stroke="#3551AD"/>
<path d="M35.7357 185.31L35.0052 183L27.4004 186.2C23.2438 187.952 23.6638 191.424 24.6755 195C28.73 193.287 37.6314 191.346 35.7357 185.31Z" fill="#5173E3" stroke="#3551AD"/>
<path d="M35.7357 192.31L35.0052 190L27.4004 193.2C23.2438 194.952 23.6638 198.424 24.6755 202C28.73 200.287 37.6314 198.346 35.7357 192.31Z" fill="#5173E3" stroke="#3551AD"/>
<path d="M35.7357 199.31L35.0052 197L27.4004 200.2C23.2438 201.952 23.6638 205.424 24.6755 209C28.73 207.287 37.6314 205.346 35.7357 199.31Z" fill="#5173E3" stroke="#3551AD"/>
<path d="M35.7357 206.31L35.0052 204L27.4004 207.2C23.2438 208.952 23.6638 212.424 24.6755 216C28.73 214.287 37.6314 212.346 35.7357 206.31Z" fill="#5173E3" stroke="#3551AD"/>
<path d="M16.1474 188.808C16.0568 188.492 16.0114 188.357 16.0114 188.357C14.2897 189.35 13.1117 191.471 13.0664 193.773C13.0664 199.35 19.0829 202.419 24.1669 201.086C24.5747 200.995 24.8918 200.905 25.1184 200.815C25.3449 200.725 25.4809 200.679 25.4809 200.679C25.1738 195.48 17.7347 194.343 16.1474 188.808Z" fill="#5173E3" stroke="#3551AD"/>
<path d="M25.4827 200.635C25.4827 200.635 25.3467 200.68 25.1202 200.77C24.8936 200.86 24.5765 200.951 24.1687 201.041C23.3532 201.221 22.1752 201.357 20.9066 201.267C20.2722 201.221 19.6832 201.086 19.0489 200.905C18.4599 200.725 17.9162 200.499 17.4178 200.319C16.9647 200.093 16.5569 199.867 16.2851 199.732C16.0132 199.551 15.832 199.461 15.832 199.461C15.6961 199.958 15.6508 200.454 15.6055 200.996C15.6055 201.537 15.6961 202.079 15.8773 202.666C16.0132 203.207 16.2851 203.749 16.5569 204.246C16.8288 204.742 17.2366 205.194 17.6443 205.645C18.0521 206.051 18.5052 206.412 19.0036 206.728C19.502 207.044 20.0004 207.27 20.5441 207.45C21.0878 207.631 21.5862 207.721 22.1299 207.766C22.6736 207.811 23.172 207.721 23.625 207.631C23.625 207.631 23.8063 207.586 24.0781 207.496C24.3953 207.405 24.803 207.27 25.3014 207.134C26.2529 206.773 27.4762 206.187 28.473 205.464C28.9714 205.103 29.4245 204.697 29.8322 204.336C30.24 203.93 30.5572 203.569 30.7837 203.207C31.2821 202.485 31.5086 202.034 31.5086 202.034C30.5118 200.905 29.7417 200.274 28.8355 200.093C27.9293 199.912 26.8872 200.093 25.4827 200.635Z" fill="#5173E3" stroke="#3551AD"/>
<path d="M31.5076 202.079C31.5076 202.079 31.2811 202.53 30.7827 203.253C30.5108 203.569 30.1937 203.975 29.8312 204.381C29.4234 204.742 28.9704 205.148 28.472 205.509C27.4752 206.232 26.2519 206.818 25.3004 207.179C24.802 207.36 24.3943 207.495 24.0771 207.541C23.7599 207.631 23.624 207.631 23.624 207.631C23.8506 208.082 24.1677 208.488 24.4848 208.85C24.8473 209.256 25.2551 209.572 25.7082 209.843C26.1613 210.159 26.6596 210.384 27.2033 210.565C27.747 210.745 28.2908 210.836 28.8798 210.926C30.0125 211.016 31.2358 210.836 32.2779 210.429C33.32 209.978 34.2261 209.346 34.8151 208.488C34.8151 208.488 34.9057 208.353 35.087 208.082C35.2682 207.857 35.4947 207.405 35.7213 206.954C36.2197 206.051 36.6728 204.742 36.854 203.523C37.0352 202.305 36.9899 201.131 36.8087 200.273C36.7181 199.867 36.6275 199.506 36.5821 199.28C36.4915 199.055 36.4462 198.919 36.4462 198.919C34.951 198.919 33.909 199.01 33.2293 199.461C33.0481 199.551 32.9122 199.687 32.731 199.867C32.595 200.003 32.4591 200.183 32.3232 200.409C32.1872 200.589 32.0513 200.86 31.9154 201.131C31.8248 201.447 31.6888 201.718 31.5076 202.079Z" fill="#5173E3" stroke="#3551AD"/>
<path d="M36.5335 199.01C36.5335 199.01 36.5788 199.145 36.6694 199.371C36.7147 199.596 36.8053 199.912 36.8959 200.364C37.0318 201.176 37.1224 202.35 36.9412 203.614C36.76 204.832 36.3069 206.141 35.8085 207.044C35.582 207.495 35.3102 207.902 35.1742 208.172C34.993 208.443 34.9023 208.579 34.9023 208.579C35.1289 208.669 35.4008 208.759 35.6726 208.804C35.9445 208.849 36.2163 208.849 36.4881 208.895C36.76 208.895 37.0318 208.895 37.349 208.895C37.6208 208.849 37.8927 208.804 38.1646 208.759C39.252 208.488 40.3393 207.947 41.2455 207.179C42.1517 206.412 42.8313 205.419 43.2391 204.426C43.6468 203.388 43.7828 202.305 43.6015 201.312C43.6015 201.312 43.5562 201.131 43.5109 200.815C43.4656 200.499 43.3297 200.093 43.1938 199.596C42.8766 198.603 42.3329 197.385 41.608 196.346C40.883 195.308 39.9769 194.541 39.2973 194.044C38.9348 193.819 38.6629 193.638 38.4364 193.503C38.2099 193.367 38.1193 193.322 38.1193 193.322C37.0319 194.36 36.3975 195.128 36.2163 195.895C35.8538 196.572 36.0804 197.565 36.5335 199.01Z" fill="#5173E3" stroke="#3551AD"/>
<path d="M43.3764 200.725C43.4218 201.041 43.467 201.221 43.467 201.221C44.3732 200.815 45.1888 200.048 45.8231 199.1C46.4574 198.152 46.8198 196.978 46.9105 195.805C47.0011 194.631 46.8199 193.412 46.3668 192.419C44.4823 188.101 41.8084 186.594 36.1511 187.699C35.0052 189.798 34.9491 190.614 35.3569 191.336C37.8162 195.147 42.4053 194.92 43.3764 200.725Z" fill="#5173E3" stroke="#3551AD"/>
<path d="M35.7386 234.31L35.0081 232L27.4034 235.2C23.2467 236.952 23.6667 240.424 24.6785 244C28.7329 242.287 37.6343 240.346 35.7386 234.31Z" fill="#5173E3" stroke="#3551AD"/>
<path d="M35.7386 241.31L35.0081 239L27.4034 242.2C23.2467 243.952 23.6667 247.424 24.6785 251C28.7329 249.287 37.6343 247.346 35.7386 241.31Z" fill="#5173E3" stroke="#3551AD"/>
<path d="M35.7386 248.31L35.0081 246L27.4034 249.2C23.2467 250.952 23.6667 254.424 24.6785 258C28.7329 256.287 37.6343 254.346 35.7386 248.31Z" fill="#5173E3" stroke="#3551AD"/>
<path d="M35.7386 255.31L35.0081 253L27.4034 256.2C23.2467 257.952 23.6667 261.424 24.6785 265C28.7329 263.287 37.6343 261.346 35.7386 255.31Z" fill="#5173E3" stroke="#3551AD"/>
<path d="M35.7386 262.31L35.0081 260L27.4034 263.2C23.2467 264.952 23.6667 268.424 24.6785 272C28.7329 270.287 37.6343 268.346 35.7386 262.31Z" fill="#5173E3" stroke="#3551AD"/>
<path d="M35.7386 269.31L35.0081 267L27.4034 270.2C23.2467 271.952 23.6667 275.424 24.6785 279C28.7329 277.287 37.6343 275.346 35.7386 269.31Z" fill="#5173E3" stroke="#3551AD"/>
<path d="M35.4975 285.277C35.0897 284.239 34.1836 283.201 33.0055 282.569C31.8275 281.892 30.4683 281.576 29.1543 281.576C23.2222 281.678 21.0123 288.432 22.63 293.266C22.7659 293.672 22.9018 293.988 22.9924 294.214C23.0831 294.44 23.1283 294.575 23.1283 294.575C24.6235 294.35 25.6656 294.079 26.2999 293.537C30.0849 290.709 29.4806 285.277 35.4975 285.277Z" fill="#5173E3" stroke="#3551AD"/>
<path d="M40.5664 289.581C40.4966 288.469 39.9522 287.204 39.0244 286.244C38.1104 285.241 36.9131 284.526 35.662 284.126C30.2305 282.492 24.8531 287.944 26.8051 293.152C35.422 296.351 35.0165 287.807 40.5664 289.581Z" fill="#5173E3" stroke="#3551AD"/>
<path d="M22.9896 285.909C23.0802 285.728 23.1708 285.548 23.2161 285.367C23.3521 285.096 23.4427 284.916 23.4427 284.916C22.4459 284.735 21.3132 284.871 20.2711 285.322C19.229 285.728 18.2322 286.45 17.5073 287.308C14.2348 291.383 16.4423 296.871 20.3164 299.766C20.4976 299.901 20.7242 300.037 20.9054 300.172C21.2679 300.398 21.5397 300.578 21.7662 300.669C21.9928 300.759 22.1287 300.804 22.1287 300.804C23.1708 299.721 23.7598 298.908 23.941 297.96C24.5598 293.851 21.8263 290.544 22.9896 285.909Z" fill="#5173E3" stroke="#3551AD"/>
<path d="M34.9973 293.131C34.9973 293.131 35.1332 293.086 35.3597 292.995C35.5862 292.905 35.9034 292.815 36.3112 292.77C37.1268 292.589 38.3048 292.589 39.5281 292.815C40.7514 293.04 42.02 293.537 42.9262 293.988C43.3793 294.214 43.7418 294.44 44.0136 294.62C44.2855 294.801 44.4213 294.891 44.4213 294.891C44.7838 293.943 44.8291 292.86 44.6026 291.777C44.376 290.693 43.8323 289.565 43.0621 288.662C42.2918 287.714 41.2951 286.992 40.2077 286.541C39.1203 286.089 37.9423 285.954 36.9002 286.134C36.9002 286.134 36.719 286.18 36.4018 286.225C36.0847 286.315 35.6315 286.405 35.1332 286.631C34.6348 286.812 34.0458 287.082 33.5021 287.443C32.9584 287.805 32.46 288.211 32.0069 288.662C31.1461 289.565 30.7383 290.648 30.6023 291.416C30.557 291.822 30.557 292.093 30.6023 292.318C30.6476 292.544 30.6477 292.634 30.6477 292.634C31.7351 293.402 32.1429 293.988 32.46 293.988C32.5959 293.988 32.9131 293.898 33.2755 293.718C33.9098 293.582 34.4536 293.356 34.9973 293.131Z" fill="#5173E3" stroke="#3551AD"/>
<path d="M35.7357 276.31L35.0052 274L27.4004 277.2C23.2438 278.952 23.6638 282.424 24.6755 286C28.73 284.287 37.6314 282.346 35.7357 276.31Z" fill="#5173E3" stroke="#3551AD"/>
<path d="M35.7357 283.31L35.0052 281L27.4004 284.2C23.2438 285.952 23.6638 289.424 24.6755 293C28.73 291.287 37.6314 289.346 35.7357 283.31Z" fill="#5173E3" stroke="#3551AD"/>
<path d="M35.7357 290.31L35.0052 288L27.4004 291.2C23.2438 292.952 23.6638 296.424 24.6755 300C28.73 298.287 37.6314 296.346 35.7357 290.31Z" fill="#5173E3" stroke="#3551AD"/>
<path d="M35.7357 297.31L35.0052 295L27.4004 298.2C23.2438 299.952 23.6638 303.424 24.6755 307C28.73 305.287 37.6314 303.346 35.7357 297.31Z" fill="#5173E3" stroke="#3551AD"/>
<path d="M35.7357 304.31L35.0052 302L27.4004 305.2C23.2438 306.952 23.6638 310.424 24.6755 314C28.73 312.287 37.6314 310.346 35.7357 304.31Z" fill="#5173E3" stroke="#3551AD"/>
<path d="M35.7357 311.31L35.0052 309L27.4004 312.2C23.2438 313.952 23.6638 317.424 24.6755 321C28.73 319.287 37.6314 317.346 35.7357 311.31Z" fill="#5173E3" stroke="#3551AD"/>
<path d="M16.1474 293.808C16.0568 293.492 16.0114 293.357 16.0114 293.357C14.2897 294.35 13.1117 296.471 13.0664 298.773C13.0664 304.35 19.0829 307.419 24.1669 306.086C24.5747 305.995 24.8918 305.905 25.1184 305.815C25.3449 305.725 25.4809 305.679 25.4809 305.679C25.1738 300.48 17.7347 299.343 16.1474 293.808Z" fill="#5173E3" stroke="#3551AD"/>
<path d="M25.4827 305.635C25.4827 305.635 25.3467 305.68 25.1202 305.77C24.8936 305.86 24.5765 305.951 24.1687 306.041C23.3532 306.221 22.1752 306.357 20.9066 306.267C20.2722 306.221 19.6832 306.086 19.0489 305.905C18.4599 305.725 17.9162 305.499 17.4178 305.319C16.9647 305.093 16.5569 304.867 16.2851 304.732C16.0132 304.551 15.832 304.461 15.832 304.461C15.6961 304.958 15.6508 305.454 15.6055 305.996C15.6055 306.537 15.6961 307.079 15.8773 307.666C16.0132 308.207 16.2851 308.749 16.5569 309.246C16.8288 309.742 17.2366 310.194 17.6443 310.645C18.0521 311.051 18.5052 311.412 19.0036 311.728C19.502 312.044 20.0004 312.27 20.5441 312.45C21.0878 312.631 21.5862 312.721 22.1299 312.766C22.6736 312.811 23.172 312.721 23.625 312.631C23.625 312.631 23.8063 312.586 24.0781 312.496C24.3953 312.405 24.803 312.27 25.3014 312.134C26.2529 311.773 27.4762 311.187 28.473 310.464C28.9714 310.103 29.4245 309.697 29.8322 309.336C30.24 308.93 30.5572 308.569 30.7837 308.207C31.2821 307.485 31.5086 307.034 31.5086 307.034C30.5118 305.905 29.7417 305.274 28.8355 305.093C27.9293 304.912 26.8872 305.093 25.4827 305.635Z" fill="#5173E3" stroke="#3551AD"/>
<path d="M31.5076 307.079C31.5076 307.079 31.2811 307.53 30.7827 308.253C30.5108 308.569 30.1937 308.975 29.8312 309.381C29.4234 309.742 28.9704 310.148 28.472 310.509C27.4752 311.232 26.2519 311.818 25.3004 312.179C24.802 312.36 24.3943 312.495 24.0771 312.541C23.7599 312.631 23.624 312.631 23.624 312.631C23.8506 313.082 24.1677 313.488 24.4848 313.85C24.8473 314.256 25.2551 314.572 25.7082 314.843C26.1613 315.159 26.6596 315.384 27.2033 315.565C27.747 315.745 28.2908 315.836 28.8798 315.926C30.0125 316.016 31.2358 315.836 32.2779 315.429C33.32 314.978 34.2261 314.346 34.8151 313.488C34.8151 313.488 34.9057 313.353 35.087 313.082C35.2682 312.857 35.4947 312.405 35.7213 311.954C36.2197 311.051 36.6728 309.742 36.854 308.523C37.0352 307.305 36.9899 306.131 36.8087 305.273C36.7181 304.867 36.6275 304.506 36.5821 304.28C36.4915 304.055 36.4462 303.919 36.4462 303.919C34.951 303.919 33.909 304.01 33.2293 304.461C33.0481 304.551 32.9122 304.687 32.731 304.867C32.595 305.003 32.4591 305.183 32.3232 305.409C32.1872 305.589 32.0513 305.86 31.9154 306.131C31.8248 306.447 31.6888 306.718 31.5076 307.079Z" fill="#5173E3" stroke="#3551AD"/>
<path d="M36.5335 304.01C36.5335 304.01 36.5788 304.145 36.6694 304.371C36.7147 304.596 36.8053 304.912 36.8959 305.364C37.0318 306.176 37.1224 307.35 36.9412 308.614C36.76 309.832 36.3069 311.141 35.8085 312.044C35.582 312.495 35.3102 312.902 35.1742 313.172C34.993 313.443 34.9023 313.579 34.9023 313.579C35.1289 313.669 35.4008 313.759 35.6726 313.804C35.9445 313.849 36.2163 313.849 36.4881 313.895C36.76 313.895 37.0318 313.895 37.349 313.895C37.6208 313.849 37.8927 313.804 38.1646 313.759C39.252 313.488 40.3393 312.947 41.2455 312.179C42.1517 311.412 42.8313 310.419 43.2391 309.426C43.6468 308.388 43.7828 307.305 43.6015 306.312C43.6015 306.312 43.5562 306.131 43.5109 305.815C43.4656 305.499 43.3297 305.093 43.1938 304.596C42.8766 303.603 42.3329 302.385 41.608 301.346C40.883 300.308 39.9769 299.541 39.2973 299.044C38.9348 298.819 38.6629 298.638 38.4364 298.503C38.2099 298.367 38.1193 298.322 38.1193 298.322C37.0319 299.36 36.3975 300.128 36.2163 300.895C35.8538 301.572 36.0804 302.565 36.5335 304.01Z" fill="#5173E3" stroke="#3551AD"/>
<path d="M43.3764 305.725C43.4218 306.041 43.467 306.221 43.467 306.221C44.3732 305.815 45.1888 305.048 45.8231 304.1C46.4574 303.152 46.8198 301.978 46.9105 300.805C47.0011 299.631 46.8199 298.412 46.3668 297.419C44.4823 293.101 41.8084 291.594 36.1511 292.699C35.0052 294.798 34.9491 295.614 35.3569 296.336C37.8162 300.147 42.4053 299.92 43.3764 305.725Z" fill="#5173E3" stroke="#3551AD"/>
<path d="M35.7386 318.31L35.0081 316L27.4034 319.2C23.2467 320.952 23.6667 324.424 24.6785 328C28.7329 326.287 37.6343 324.346 35.7386 318.31Z" fill="#5173E3" stroke="#3551AD"/>
<path d="M35.7386 325.31L35.0081 323L27.4034 326.2C23.2467 327.952 23.6667 331.424 24.6785 335C28.7329 333.287 37.6343 331.346 35.7386 325.31Z" fill="#5173E3" stroke="#3551AD"/>
<path d="M35.7386 332.31L35.0081 330L27.4034 333.2C23.2467 334.952 23.6667 338.424 24.6785 342C28.7329 340.287 37.6343 338.346 35.7386 332.31Z" fill="#5173E3" stroke="#3551AD"/>
<path d="M35.7386 339.31L35.0081 337L27.4034 340.2C23.2467 341.952 23.6667 345.424 24.6785 349C28.7329 347.287 37.6343 345.346 35.7386 339.31Z" fill="#5173E3" stroke="#3551AD"/>
<path d="M35.7386 346.31L35.0081 344L27.4034 347.2C23.2467 348.952 23.6667 352.424 24.6785 356C28.7329 354.287 37.6343 352.346 35.7386 346.31Z" fill="#5173E3" stroke="#3551AD"/>
<path d="M35.7386 353.31L35.0081 351L27.4034 354.2C23.2467 355.952 23.6667 359.424 24.6785 363C28.7329 361.287 37.6343 359.346 35.7386 353.31Z" fill="#5173E3" stroke="#3551AD"/>
<path d="M35.7386 360.31L35.0081 358L27.4034 361.2C23.2467 362.952 23.6667 366.424 24.6785 370C28.7329 368.287 37.6343 366.346 35.7386 360.31Z" fill="#5173E3" stroke="#3551AD"/>
<path d="M35.7386 367.31L35.0081 365L27.4034 368.2C23.2467 369.952 23.6667 373.424 24.6785 377C28.7329 375.287 37.6343 373.346 35.7386 367.31Z" fill="#5173E3" stroke="#3551AD"/>
<path d="M35.7386 374.31L35.0081 372L27.4034 375.2C23.2467 376.952 23.6667 380.424 24.6785 384C28.7329 382.287 37.6343 380.346 35.7386 374.31Z" fill="#5173E3" stroke="#3551AD"/>
<path d="M35.7386 381.31L35.0081 379L27.4034 382.2C23.2467 383.952 23.6667 387.424 24.6785 391C28.7329 389.287 37.6343 387.346 35.7386 381.31Z" fill="#5173E3" stroke="#3551AD"/>
<path d="M35.7386 388.31L35.0081 386L27.4034 389.2C23.2467 390.952 23.6667 394.424 24.6785 398C28.7329 396.287 37.6343 394.346 35.7386 388.31Z" fill="#5173E3" stroke="#3551AD"/>
<path d="M35.7386 395.31L35.0081 393L27.4034 396.2C23.2467 397.952 23.6667 401.424 24.6785 405C28.7329 403.287 37.6343 401.346 35.7386 395.31Z" fill="#5173E3" stroke="#3551AD"/>
<path d="M35.7386 402.31L35.0081 400L27.4034 403.2C23.2467 404.952 23.6667 408.424 24.6785 412C28.7329 410.287 37.6343 408.346 35.7386 402.31Z" fill="#5173E3" stroke="#3551AD"/>
<path d="M35.7386 409.31L35.0081 407L27.4034 410.2C23.2467 411.952 23.6667 415.424 24.6785 419C28.7329 417.287 37.6343 415.346 35.7386 409.31Z" fill="#5173E3" stroke="#3551AD"/>
<path d="M23.5451 439.226C23.2586 443.849 22.6856 448.464 21.7897 453.028C21.7897 453.062 21.7792 453.079 21.7792 453.096C21.2868 455.501 22.9765 455.31 24.6182 455.31C25.6027 451.28 26.4257 445.682 26.5091 440.762C26.5091 440.762 27.03 445.393 25.6964 453.639C25.7694 454.164 25.8736 454.792 26.0663 455.31H27.754C28.3999 449.338 28.8427 442.255 28.9052 435.519C28.9365 436.554 29.1657 443.917 28.2333 455.31H31.0253L31.3743 454.046L31.64 453.121C31.6348 453.113 31.6348 453.096 31.6348 453.079C31.4212 450.05 31.291 447.395 31.2024 445.113C30.9576 438.777 31.1347 435.401 31.1347 435.401C31.1816 442.043 31.6139 449.024 32.2599 455.539L34.6196 455.31C32.9943 446.199 33.4892 441.084 33.5257 440.77C33.6403 447.404 34.8956 453.147 35.479 455.505L37.2762 455.31C37.9794 455.301 38.4743 454.19 38.2555 453.07C37.3543 448.498 36.7761 443.858 36.4948 439.226C35.7508 428.322 24.456 424.827 23.5451 439.226Z" fill="#5173E3" stroke="#3551AD"/>
<path d="M35.7386 416.31L35.0081 414L27.4034 417.2C23.2467 418.953 23.6667 422.424 24.6785 426C28.7329 424.287 37.6343 422.346 35.7386 416.31Z" fill="#5173E3" stroke="#3551AD"/>
<path d="M32.5194 424.184C33.5968 424.541 34.6488 425.001 35.4935 425.444C36.3381 425.887 36.8456 426.265 36.8456 426.265C37.0751 425.615 37.0577 424.821 36.8463 424.098C35.2239 417.169 26.519 418.352 24.4632 422.346C24.194 422.869 24.0666 423.246 24.0666 423.246C25.25 424.034 27.1835 425.687 27.8318 425.778C28.169 425.843 28.4018 425.757 28.6733 425.657C29.9642 424.711 30.577 423.541 32.5194 424.184Z" fill="#5173E3" stroke="#3551AD"/>
<path d="M37.5725 431.907C40.2254 429.745 40.1809 426.438 37.5723 423.171C34.9637 419.904 29.4978 421.91 27.712 427.607C28.9642 430.81 36.4027 429.161 37.5725 431.907Z" fill="#5173E3" stroke="#3551AD"/>
<path d="M26.8229 421.456C26.8726 420.998 26.9222 420.586 26.9719 420.312C27.0711 420.037 27.0711 419.854 27.0711 419.854C26.0287 419.945 25.0359 420.449 24.192 421.09C19.9935 424.505 22.1959 429.287 26.0287 431.891C26.9719 432.531 27.9647 432.897 28.7093 433.081C29.0568 433.172 29.4043 433.218 29.6029 433.264C29.8014 433.309 29.9503 433.309 29.9503 433.309C32.5354 428.909 26.573 426.064 26.8229 421.456Z" fill="#5173E3" stroke="#3551AD"/>
<path d="M29.1329 429.533C29.1329 429.533 28.984 429.533 28.7854 429.482C28.5868 429.432 28.289 429.381 27.8919 429.28C27.1472 429.078 26.1544 428.623 25.2112 427.966C24.2681 427.309 23.4242 426.4 22.8285 425.642C22.2328 424.884 21.8853 424.328 21.8853 424.328C21.2399 424.985 20.7932 425.844 20.5946 426.804C20.3464 427.764 20.3464 428.876 20.6443 429.987C20.8925 431.048 21.4385 432.109 22.1831 432.918C22.9278 433.726 23.8213 434.282 24.7148 434.535C24.7148 434.535 24.8638 434.585 25.1616 434.636C25.4595 434.686 25.8566 434.787 26.353 434.838C27.3458 434.939 28.5868 434.888 29.7286 434.585C30.8703 434.282 31.7142 433.676 32.2603 433.12C32.5085 432.867 32.707 432.615 32.8063 432.463C32.9056 432.312 33.0049 432.211 33.0049 432.211C32.4092 430.998 32.3596 430.392 31.8631 430.038C31.3171 429.785 30.4732 429.684 29.1329 429.533Z" fill="#5173E3" stroke="#3551AD"/>
<path d="M29.6458 430.524C29.6458 430.524 29.5694 430.606 29.3836 430.707C29.2453 430.822 28.9688 431.054 28.6736 431.174C28.0399 431.558 27.0118 431.874 25.8328 431.827C24.6868 431.842 23.4519 431.46 22.5308 431.07C22.0702 430.875 21.7191 430.66 21.4485 430.524C21.178 430.388 21.0499 430.295 21.0499 430.295C20.8233 431.228 20.8672 432.298 21.2725 433.374C21.6303 434.435 22.3494 435.502 23.3595 436.29C23.8574 436.708 24.3841 437.029 24.9871 437.268C25.2577 437.405 25.5427 437.493 25.8277 437.581C26.1126 437.669 26.4121 437.709 26.7115 437.749C27.3103 437.828 27.843 437.782 28.3757 437.735C28.8753 437.626 29.3894 437.468 29.8228 437.232C29.8228 437.232 29.9611 437.116 30.2563 436.996C30.504 436.862 30.8425 436.597 31.2429 436.298C31.9962 435.686 32.8361 434.784 33.4529 433.76C34.0697 432.736 34.4677 431.75 34.6986 430.977C34.814 430.59 34.8675 430.237 34.9252 430.044C34.9354 429.835 34.9787 429.69 34.9787 429.69C33.7064 429.086 32.6945 428.826 31.9286 428.959C31.1151 429.077 30.5951 429.603 29.6458 430.524Z" fill="#5173E3" stroke="#3551AD"/>
<path d="M30.4334 429.02C30.4333 430.51 30.5716 431.95 30.1715 433.444C29.8737 434.606 29.3276 435.717 28.7816 436.526C28.4837 436.93 28.2355 437.284 28.037 437.486C27.8384 437.688 27.6895 437.839 27.6895 437.839C28.583 438.294 29.6255 438.395 30.6679 438.294C31.7104 438.143 32.7529 437.789 33.5968 437.183C37.8792 434.194 36.3038 429.58 34.119 427.296C32.3638 426.29 30.9067 427.073 30.4334 429.02Z" fill="#5173E3" stroke="#3551AD"/>
<path d="M35.0295 436.482C39.1535 435.316 39.7284 429.193 36.3439 427.077C32.9593 424.962 30.4208 427.5 30.422 428.471C34.6539 429.274 36.3433 431.308 35.0295 436.482Z" fill="#5173E3" stroke="#3551AD"/>
</svg>
