<svg width="60" height="51" viewBox="0 0 60 51" fill="none" xmlns="http://www.w3.org/2000/svg">
<path d="M28.5888 41.8392C29.9353 42.426 31.3355 42.3196 32.6892 41.8183C37.5704 40.0109 37.6385 33.7495 34.0919 30.7421C32.9332 29.6691 31.239 29.5452 30.7018 31.0535C29.3805 34.7639 31.0078 38.3666 28.5888 41.8392Z" fill="#CEC927" stroke="#ACA824"/>
<path d="M35.713 40.5022C37.1803 40.5686 38.4498 39.9683 39.5346 39.0161C43.4464 35.5824 41.2705 29.7108 36.8829 28.1709C35.417 27.5833 33.7905 28.0736 33.8284 29.6742C33.9216 33.6118 36.7299 36.3941 35.713 40.5022Z" fill="#CEC927" stroke="#ACA824"/>
<path d="M41.8791 36.7065C43.2731 36.2437 44.244 35.2291 44.9164 33.9518C47.3413 29.3461 43.2092 24.6413 38.5611 24.7726C36.982 24.7482 35.6385 25.7877 36.2464 27.2689C37.7418 30.9127 41.3594 32.5064 41.8791 36.7065Z" fill="#CEC927" stroke="#ACA824"/>
<path d="M46.2862 30.9553C47.4224 30.0245 47.9661 28.7298 48.1373 27.2965C48.7544 22.1282 43.2128 19.2125 38.9191 20.9976C37.4358 21.5396 36.553 22.9909 37.6504 24.1567C40.3502 27.0246 44.2986 27.219 46.2862 30.9553Z" fill="#CEC927" stroke="#ACA824"/>
<path d="M48.3423 24.0086C49.0705 22.7329 49.1151 21.3294 48.7623 19.9297C47.49 14.8826 41.2722 14.1419 37.901 17.3446C36.7097 18.3813 36.4043 20.0524 37.8462 20.7485C41.3931 22.461 45.1498 21.2303 48.3423 24.0086Z" fill="#CEC927" stroke="#ACA824"/>
<path d="M47.7814 16.7857C48.0051 15.334 47.5448 14.0073 46.7147 12.8265C43.7213 8.56826 37.6499 10.1005 35.6473 14.2972C34.9056 15.6914 35.2181 17.3611 36.8136 17.4955C40.7384 17.8261 43.8064 15.3331 47.7814 16.7857Z" fill="#CEC927" stroke="#ACA824"/>
<path d="M44.6646 10.2429C44.3542 8.80721 43.4499 7.73296 42.2523 6.92712C37.9339 4.02126 32.8122 7.62374 32.4431 12.2591C32.2491 13.8263 33.1382 15.2738 34.6762 14.8287C38.4596 13.7335 40.433 10.3082 44.6646 10.2429Z" fill="#CEC927" stroke="#ACA824"/>
<path d="M14.3338 35.8849C14.8557 37.2579 15.9108 38.1845 17.2156 38.8018C21.9207 41.0279 26.4448 36.6987 26.1152 32.0604C26.0722 30.4817 24.9762 29.1838 23.5223 29.8544C19.9457 31.504 18.5079 35.1864 14.3338 35.8849Z" fill="#CEC927" stroke="#ACA824"/>
<path d="M20.2736 40.0414C21.2521 41.1369 22.5688 41.6248 24.0081 41.7346C29.1981 42.1305 31.8745 36.4695 29.9077 32.256C29.3028 30.7971 27.8152 29.9771 26.6973 31.1233C23.9473 33.9431 23.9216 37.8961 20.2736 40.0414Z" fill="#CEC927" stroke="#ACA824"/>
<path d="M35.7386 26.3099L35.0081 24L27.4034 27.2002C23.2467 28.9523 23.6667 32.4243 24.6785 36C28.7329 34.2872 37.6343 32.3457 35.7386 26.3099Z" fill="#CEC927" stroke="#ACA824"/>
<path d="M35.7386 33.3099L35.0081 31L27.4034 34.2002C23.2467 35.9523 23.6667 39.4243 24.6785 43C28.7329 41.2872 37.6343 39.3457 35.7386 33.3099Z" fill="#CEC927" stroke="#ACA824"/>
<path d="M35.7386 40.3099L35.0081 38L27.4034 41.2002C23.2467 42.9523 23.6667 46.4243 24.6785 50C28.7329 48.2872 37.6343 46.3457 35.7386 40.3099Z" fill="#CEC927" stroke="#ACA824"/>
<path d="M54.9201 14.2753L58 15.2493L53.733 25.3889C51.3969 30.9312 46.7676 30.3712 42 29.0221C44.2837 23.6162 46.8725 11.7476 54.9201 14.2753Z" fill="#D5C9BD" stroke="#988E82"/>
<path d="M44.9201 14.2753L48 15.2493L43.733 25.3889C41.3969 30.9312 36.7676 30.3712 32 29.0221C34.2837 23.6162 36.8725 11.7476 44.9201 14.2753Z" fill="#D5C9BD" stroke="#988E82"/>
<path d="M34.9201 14.2753L38 15.2493L33.733 25.3889C31.3969 30.9312 26.7676 30.3712 22 29.0221C24.2837 23.6162 26.8725 11.7476 34.9201 14.2753Z" fill="#D5C9BD" stroke="#988E82"/>
<path d="M24.9201 14.2753L28 15.2493L23.733 25.3889C21.3969 30.9312 16.7676 30.3712 12 29.0221C14.2837 23.6162 16.8725 11.7476 24.9201 14.2753Z" fill="#D5C9BD" stroke="#988E82"/>
<path d="M39.4152 5.24564C38.6119 4.01594 37.3832 3.33622 35.9766 3.01203C30.9045 1.843 27.4101 7.03906 28.7234 11.4997C29.1028 13.0327 30.4508 14.0664 31.7278 13.1006C34.8693 10.7247 35.4869 6.82014 39.4152 5.24564Z" fill="#CEC927" stroke="#ACA824"/>
<path d="M32.7335 2.45542C31.5434 1.5944 30.1529 1.39914 28.7234 1.59949C23.5687 2.32195 22.164 8.42413 24.9858 12.12C25.8885 13.4158 27.5171 13.899 28.3641 12.5404C30.4479 9.19803 29.6282 5.33083 32.7335 2.45542Z" fill="#CEC927" stroke="#ACA824"/>
<path d="M25.4931 2.23969C24.0739 1.86126 22.7055 2.1763 21.4422 2.87469C16.8869 5.39306 17.7577 11.594 21.7148 14.036C23.0213 14.9233 24.7149 14.792 25.02 13.2203C25.7705 9.35372 23.6217 6.03557 25.4931 2.23969Z" fill="#CEC927" stroke="#ACA824"/>
<path d="M18.6551 4.62856C17.1943 4.78281 16.0291 5.56646 15.0992 6.67048C11.746 10.6516 14.7771 16.1308 19.3459 16.9959C20.8833 17.3573 22.418 16.6289 22.1407 15.052C21.4586 11.1728 18.2651 8.84269 18.6551 4.62856Z" fill="#CEC927" stroke="#ACA824"/>
<path d="M13.1233 9.30423C11.8144 9.97074 11.0065 11.1193 10.533 12.4829C8.82561 17.4 13.616 21.4326 18.192 20.6064C19.7569 20.3939 20.9295 19.1648 20.1065 17.7914C18.082 14.4128 14.2665 13.379 13.1233 9.30423Z" fill="#CEC927" stroke="#ACA824"/>
<path d="M9.62926 15.6495C8.64532 16.7401 8.30173 18.1017 8.34728 19.5444C8.51151 24.7469 14.4274 26.7993 18.4051 24.391C19.7905 23.6329 20.4459 22.0657 19.1862 21.0775C16.0872 18.6465 12.1542 19.0459 9.62926 15.6495Z" fill="#CEC927" stroke="#ACA824"/>
<path d="M8.63676 22.8248C8.10798 24.1952 8.27411 25.5895 8.83268 26.9206C10.8468 31.7201 17.1054 31.5208 19.9587 27.8491C20.9812 26.6457 21.0327 24.9477 19.5029 24.4755C15.7394 23.3137 12.2095 25.0934 8.63676 22.8248Z" fill="#CEC927" stroke="#ACA824"/>
<path d="M10.2744 29.8813C10.2707 31.3501 10.9246 32.5928 11.9223 33.636C15.5199 37.3976 21.2932 34.973 22.6444 30.5237C23.1688 29.034 22.6096 27.43 21.0121 27.5362C17.082 27.7974 14.4222 30.7219 10.2744 29.8813Z" fill="#CEC927" stroke="#ACA824"/>
</svg>
