<svg width="40" height="45" viewBox="0 0 40 45" fill="none" xmlns="http://www.w3.org/2000/svg">
<path d="M19.8178 37.2851C20.7872 37.7946 21.8288 37.808 22.8544 37.5338C26.5525 36.5453 26.8959 32.0372 24.4111 29.6417C23.6035 28.7938 22.355 28.5955 21.8868 29.6479C20.735 32.237 21.7712 34.938 19.8178 37.2851Z" fill="#EDEDED" stroke="#D2D2D2"/>
<path d="M25.7313 36.013C26.8202 36.1307 27.7938 35.7604 28.6469 35.1286C31.7232 32.8505 30.3861 28.5315 27.1949 27.2165C26.1323 26.7247 24.8983 26.999 24.8495 28.1498C24.7295 30.981 26.6857 33.1124 25.7313 36.013Z" fill="#EDEDED" stroke="#D2D2D2"/>
<path d="M30.7648 32.6573C31.8207 32.3667 32.5901 31.6646 33.1514 30.7635C35.1755 27.5144 32.3451 23.9888 28.894 23.9383C27.7249 23.8714 26.678 24.5798 27.0555 25.6681C27.9842 28.3453 30.5866 29.6089 30.7648 32.6573Z" fill="#EDEDED" stroke="#D2D2D2"/>
<path d="M34.2103 27.6876C35.0855 27.0293 35.5432 26.0936 35.7342 25.0494C36.4228 21.2838 32.495 19.0448 29.2667 20.2659C28.1549 20.6331 27.4415 21.6767 28.1925 22.5502C30.0398 24.6989 32.9245 24.9179 34.2103 27.6876Z" fill="#EDEDED" stroke="#D2D2D2"/>
<path d="M35.5921 21.7993C36.1643 20.8656 36.2461 19.8271 36.0401 18.7858C35.297 15.0306 30.8213 14.3913 28.2674 16.7132C27.3683 17.4632 27.0882 18.6959 28.1076 19.2324C30.6153 20.5521 33.3786 19.6958 35.5921 21.7993Z" fill="#EDEDED" stroke="#D2D2D2"/>
<path d="M34.7109 15.8145C34.9 14.7358 34.5946 13.7399 34.0203 12.8471C31.9495 9.62759 27.5519 10.6776 26.0298 13.7753C25.4692 14.8033 25.6617 16.0527 26.8068 16.1771C29.624 16.4831 31.8794 14.6714 34.7109 15.8145Z" fill="#EDEDED" stroke="#D2D2D2"/>
<path d="M31.6954 10.5729C31.4749 9.50014 30.825 8.68614 29.9628 8.06677C26.8539 5.83335 23.1497 8.42564 22.8723 11.866C22.7285 13.0281 23.3666 14.1193 24.4774 13.8143C27.2099 13.0638 28.6419 10.5501 31.6954 10.5729Z" fill="#EDEDED" stroke="#D2D2D2"/>
<path d="M26.9606 6.80559C26.3614 5.88891 25.4578 5.37065 24.4284 5.11139C20.7163 4.17648 18.2237 7.94845 19.2298 11.2501C19.5231 12.3837 20.5174 13.1642 21.4384 12.4723C23.7041 10.7703 24.1124 7.90631 26.9606 6.80559Z" fill="#EDEDED" stroke="#D2D2D2"/>
<path d="M10.0936 34.3218C10.5673 35.3092 11.395 35.9416 12.3815 36.3338C15.9387 37.748 18.905 34.336 18.3411 30.9308C18.1992 29.7685 17.3159 28.8642 16.3121 29.4291C13.8426 30.8189 13.0617 33.6046 10.0936 34.3218Z" fill="#EDEDED" stroke="#D2D2D2"/>
<path d="M15.5999 36.8307C16.4032 37.575 17.4054 37.8591 18.4669 37.8614C22.2949 37.8697 23.8001 33.6064 22.0245 30.6466C21.4655 29.6178 20.3117 29.1012 19.5856 29.9955C17.7995 32.1954 18.0968 35.0731 15.5999 36.8307Z" fill="#EDEDED" stroke="#D2D2D2"/>
<path d="M23.8258 22.5399L23.3387 21L18.2689 23.1335C15.4978 24.3016 15.7778 26.6162 16.4523 29C19.1553 27.8582 25.0896 26.5638 23.8258 22.5399Z" fill="#EDEDED" stroke="#D2D2D2"/>
<path d="M23.8258 27.5399L23.3387 26L18.2689 28.1335C15.4978 29.3016 15.7778 31.6162 16.4523 34C19.1553 32.8582 25.0896 31.5638 23.8258 27.5399Z" fill="#EDEDED" stroke="#D2D2D2"/>
<path d="M23.8258 32.5399L23.3387 31L18.2689 33.1335C15.4978 34.3016 15.7778 36.6162 16.4523 39C19.1553 37.8582 25.0896 36.5638 23.8258 32.5399Z" fill="#EDEDED" stroke="#D2D2D2"/>
<path d="M23.8258 37.5399L23.3387 36L18.2689 38.1335C15.4978 39.3016 15.7778 41.6162 16.4523 44C19.1553 42.8582 25.0896 41.5638 23.8258 37.5399Z" fill="#EDEDED" stroke="#D2D2D2"/>
<path d="M44.9201 12.3485L48 13.3225L43.733 23.4622C41.3969 29.0044 36.7676 28.4444 32 27.0954C34.2837 21.6895 36.8725 9.82089 44.9201 12.3485Z" fill="#D5C9BD" stroke="#988E82"/>
<path d="M34.9201 12.3485L38 13.3225L33.733 23.4622C31.3969 29.0044 26.7676 28.4444 22 27.0954C24.2837 21.6895 26.8725 9.82089 34.9201 12.3485Z" fill="#D5C9BD" stroke="#988E82"/>
<path d="M24.9201 12.3485L28 13.3225L23.733 23.4622C21.3969 29.0044 16.7676 28.4444 12 27.0954C14.2837 21.6895 16.8725 9.82089 24.9201 12.3485Z" fill="#D5C9BD" stroke="#988E82"/>
<path d="M14.9201 12.3485L18 13.3225L13.733 23.4622C11.3969 29.0044 6.76758 28.4444 2 27.0954C4.28367 21.6895 6.87246 9.82089 14.9201 12.3485Z" fill="#D5C9BD" stroke="#988E82"/>
<path d="M21.1756 5.04101C20.2815 4.40861 19.2507 4.2586 18.198 4.39571C14.402 4.89012 13.4697 9.31409 15.6185 12.0151C16.3078 12.9617 17.5194 13.3222 18.1217 12.3404C19.6035 9.92498 18.931 7.11125 21.1756 5.04101Z" fill="#EDEDED" stroke="#D2D2D2"/>
<path d="M15.1482 5.52522C14.0843 5.26558 13.0705 5.5048 12.1418 6.0191C8.79305 7.87365 9.55141 12.3307 12.5423 14.0533C13.5312 14.6804 14.7905 14.5706 14.99 13.4361C15.4807 10.6452 13.8213 8.27537 15.1482 5.52522Z" fill="#EDEDED" stroke="#D2D2D2"/>
<path d="M9.71707 8.19083C8.63215 8.34026 7.77716 8.93524 7.10241 9.75479C4.66927 12.71 7.01224 16.5767 10.4269 17.0799C11.577 17.2998 12.7079 16.7349 12.4765 15.6065C11.9074 12.8305 9.49344 11.2362 9.71707 8.19083Z" fill="#EDEDED" stroke="#D2D2D2"/>
<path d="M5.64636 12.6663C4.69223 13.2039 4.11566 14.0714 3.78922 15.0816C2.61211 18.7241 6.21192 21.4595 9.5726 20.6728C10.723 20.4547 11.5673 19.5139 10.9375 18.5494C9.38825 16.1767 6.5573 15.5808 5.64636 12.6663Z" fill="#EDEDED" stroke="#D2D2D2"/>
<path d="M3.50505 18.3236C2.81519 19.1741 2.59769 20.1928 2.66524 21.2522C2.90883 25.0725 7.26188 26.2939 10.0985 24.3274C11.0883 23.7019 11.5278 22.5167 10.5877 21.851C8.275 20.2135 5.42313 20.6995 3.50505 18.3236Z" fill="#EDEDED" stroke="#D2D2D2"/>
<path d="M3.5913 24.3721C3.26222 25.4167 3.43422 26.444 3.88631 27.4045C5.51652 30.8681 10.0138 30.4046 11.9295 27.5335C12.6203 26.588 12.5935 25.3242 11.4746 25.0505C8.72203 24.3773 6.24819 25.8771 3.5913 24.3721Z" fill="#EDEDED" stroke="#D2D2D2"/>
<path d="M5.89591 29.9659C5.97363 31.0583 6.51107 31.9505 7.28445 32.6778C10.0732 35.3001 14.0857 33.2166 14.8124 29.8424C15.1075 28.7093 14.6183 27.5437 13.477 27.7003C10.6696 28.0855 8.91992 30.3894 5.89591 29.9659Z" fill="#EDEDED" stroke="#D2D2D2"/>
</svg>
