<svg width="40" height="387" viewBox="0 0 40 387" fill="none" xmlns="http://www.w3.org/2000/svg">
<path d="M23.8258 2.53993L23.3387 1L18.2689 3.1335C15.4978 4.30155 15.7778 6.61621 16.4523 9C19.1553 7.85816 25.0896 6.56377 23.8258 2.53993Z" fill="#EDEDED" stroke="#D2D2D2"/>
<path d="M23.8258 7.53993L23.3387 6L18.2689 8.1335C15.4978 9.30155 15.7778 11.6162 16.4523 14C19.1553 12.8582 25.0896 11.5638 23.8258 7.53993Z" fill="#EDEDED" stroke="#D2D2D2"/>
<path d="M23.8258 12.5399L23.3387 11L18.2689 13.1335C15.4978 14.3016 15.7778 16.6162 16.4523 19C19.1553 17.8582 25.0896 16.5638 23.8258 12.5399Z" fill="#EDEDED" stroke="#D2D2D2"/>
<path d="M23.8258 17.5399L23.3387 16L18.2689 18.1335C15.4978 19.3016 15.7778 21.6162 16.4523 24C19.1553 22.8582 25.0896 21.5638 23.8258 17.5399Z" fill="#EDEDED" stroke="#D2D2D2"/>
<path d="M23.8258 22.5399L23.3387 21L18.2689 23.1335C15.4978 24.3016 15.7778 26.6162 16.4523 29C19.1553 27.8582 25.0896 26.5638 23.8258 22.5399Z" fill="#EDEDED" stroke="#D2D2D2"/>
<path d="M23.8258 27.5399L23.3387 26L18.2689 28.1335C15.4978 29.3016 15.7778 31.6162 16.4523 34C19.1553 32.8582 25.0896 31.5638 23.8258 27.5399Z" fill="#EDEDED" stroke="#D2D2D2"/>
<path d="M23.8258 32.5399L23.3387 31L18.2689 33.1335C15.4978 34.3016 15.7778 36.6162 16.4523 39C19.1553 37.8582 25.0896 36.5638 23.8258 32.5399Z" fill="#EDEDED" stroke="#D2D2D2"/>
<path d="M23.8258 37.5399L23.3387 36L18.2689 38.1335C15.4978 39.3016 15.7778 41.6162 16.4523 44C19.1553 42.8582 25.0896 41.5638 23.8258 37.5399Z" fill="#EDEDED" stroke="#D2D2D2"/>
<path d="M23.8258 42.5399L23.3387 41L18.2689 43.1335C15.4978 44.3016 15.7778 46.6162 16.4523 49C19.1553 47.8582 25.0896 46.5638 23.8258 42.5399Z" fill="#EDEDED" stroke="#D2D2D2"/>
<path d="M23.8258 47.5399L23.3387 46L18.2689 48.1335C15.4978 49.3016 15.7778 51.6162 16.4523 54C19.1553 52.8582 25.0896 51.5638 23.8258 47.5399Z" fill="#EDEDED" stroke="#D2D2D2"/>
<path d="M23.8258 52.5399L23.3387 51L18.2689 53.1335C15.4978 54.3016 15.7778 56.6162 16.4523 59C19.1553 57.8582 25.0896 56.5638 23.8258 52.5399Z" fill="#EDEDED" stroke="#D2D2D2"/>
<path d="M23.8258 57.5399L23.3387 56L18.2689 58.1335C15.4978 59.3016 15.7778 61.6162 16.4523 64C19.1553 62.8582 25.0896 61.5638 23.8258 57.5399Z" fill="#EDEDED" stroke="#D2D2D2"/>
<path d="M23.8258 62.5399L23.3387 61L18.2689 63.1335C15.4978 64.3016 15.7778 66.6162 16.4523 69C19.1553 67.8582 25.0896 66.5638 23.8258 62.5399Z" fill="#EDEDED" stroke="#D2D2D2"/>
<path d="M23.8258 67.5399L23.3387 66L18.2689 68.1335C15.4978 69.3016 15.7778 71.6162 16.4523 74C19.1553 72.8582 25.0896 71.5638 23.8258 67.5399Z" fill="#EDEDED" stroke="#D2D2D2"/>
<path d="M23.8258 72.5399L23.3387 71L18.2689 73.1335C15.4978 74.3016 15.7778 76.6162 16.4523 79C19.1553 77.8582 25.0896 76.5638 23.8258 72.5399Z" fill="#EDEDED" stroke="#D2D2D2"/>
<path d="M23.8258 77.5399L23.3387 76L18.2689 78.1335C15.4978 79.3016 15.7778 81.6162 16.4523 84C19.1553 82.8582 25.0896 81.5638 23.8258 77.5399Z" fill="#EDEDED" stroke="#D2D2D2"/>
<path d="M23.8258 82.5399L23.3387 81L18.2689 83.1335C15.4978 84.3016 15.7778 86.6162 16.4523 89C19.1553 87.8582 25.0896 86.5638 23.8258 82.5399Z" fill="#EDEDED" stroke="#D2D2D2"/>
<path d="M23.8258 87.5399L23.3387 86L18.2689 88.1335C15.4978 89.3016 15.7778 91.6162 16.4523 94C19.1553 92.8582 25.0896 91.5638 23.8258 87.5399Z" fill="#EDEDED" stroke="#D2D2D2"/>
<path d="M23.8258 92.5399L23.3387 91L18.2689 93.1335C15.4978 94.3016 15.7778 96.6162 16.4523 99C19.1553 97.8582 25.0896 96.5638 23.8258 92.5399Z" fill="#EDEDED" stroke="#D2D2D2"/>
<path d="M23.8258 97.5399L23.3387 96L18.2689 98.1335C15.4978 99.3016 15.7778 101.616 16.4523 104C19.1553 102.858 25.0896 101.564 23.8258 97.5399Z" fill="#EDEDED" stroke="#D2D2D2"/>
<path d="M23.8258 102.54L23.3387 101L18.2689 103.133C15.4978 104.302 15.7778 106.616 16.4523 109C19.1553 107.858 25.0896 106.564 23.8258 102.54Z" fill="#EDEDED" stroke="#D2D2D2"/>
<path d="M23.8258 107.54L23.3387 106L18.2689 108.133C15.4978 109.302 15.7778 111.616 16.4523 114C19.1553 112.858 25.0896 111.564 23.8258 107.54Z" fill="#EDEDED" stroke="#D2D2D2"/>
<path d="M23.8258 112.54L23.3387 111L18.2689 113.133C15.4978 114.302 15.7778 116.616 16.4523 119C19.1553 117.858 25.0896 116.564 23.8258 112.54Z" fill="#EDEDED" stroke="#D2D2D2"/>
<path d="M23.8258 117.54L23.3387 116L18.2689 118.133C15.4978 119.302 15.7778 121.616 16.4523 124C19.1553 122.858 25.0896 121.564 23.8258 117.54Z" fill="#EDEDED" stroke="#D2D2D2"/>
<path d="M23.8258 122.54L23.3387 121L18.2689 123.133C15.4978 124.302 15.7778 126.616 16.4523 129C19.1553 127.858 25.0896 126.564 23.8258 122.54Z" fill="#EDEDED" stroke="#D2D2D2"/>
<path d="M23.8258 127.54L23.3387 126L18.2689 128.133C15.4978 129.302 15.7778 131.616 16.4523 134C19.1553 132.858 25.0896 131.564 23.8258 127.54Z" fill="#EDEDED" stroke="#D2D2D2"/>
<path d="M23.8258 132.54L23.3387 131L18.2689 133.133C15.4978 134.302 15.7778 136.616 16.4523 139C19.1553 137.858 25.0896 136.564 23.8258 132.54Z" fill="#EDEDED" stroke="#D2D2D2"/>
<path d="M23.8258 137.54L23.3387 136L18.2689 138.133C15.4978 139.302 15.7778 141.616 16.4523 144C19.1553 142.858 25.0896 141.564 23.8258 137.54Z" fill="#EDEDED" stroke="#D2D2D2"/>
<path d="M23.8258 142.54L23.3387 141L18.2689 143.133C15.4978 144.302 15.7778 146.616 16.4523 149C19.1553 147.858 25.0896 146.564 23.8258 142.54Z" fill="#EDEDED" stroke="#D2D2D2"/>
<path d="M23.8258 147.54L23.3387 146L18.2689 148.133C15.4978 149.302 15.7778 151.616 16.4523 154C19.1553 152.858 25.0896 151.564 23.8258 147.54Z" fill="#EDEDED" stroke="#D2D2D2"/>
<path d="M23.8258 152.54L23.3387 151L18.2689 153.134C15.4978 154.302 15.7778 156.616 16.4523 159C19.1553 157.858 25.0896 156.564 23.8258 152.54Z" fill="#EDEDED" stroke="#D2D2D2"/>
<path d="M23.8258 157.54L23.3387 156L18.2689 158.133C15.4978 159.302 15.7778 161.616 16.4523 164C19.1553 162.858 25.0896 161.564 23.8258 157.54Z" fill="#EDEDED" stroke="#D2D2D2"/>
<path d="M23.8258 162.54L23.3387 161L18.2689 163.133C15.4978 164.302 15.7778 166.616 16.4523 169C19.1553 167.858 25.0896 166.564 23.8258 162.54Z" fill="#EDEDED" stroke="#D2D2D2"/>
<path d="M23.8258 167.54L23.3387 166L18.2689 168.133C15.4978 169.302 15.7778 171.616 16.4523 174C19.1553 172.858 25.0896 171.564 23.8258 167.54Z" fill="#EDEDED" stroke="#D2D2D2"/>
<path d="M23.8258 172.54L23.3387 171L18.2689 173.133C15.4978 174.302 15.7778 176.616 16.4523 179C19.1553 177.858 25.0896 176.564 23.8258 172.54Z" fill="#EDEDED" stroke="#D2D2D2"/>
<path d="M23.8258 177.54L23.3387 176L18.2689 178.133C15.4978 179.302 15.7778 181.616 16.4523 184C19.1553 182.858 25.0896 181.564 23.8258 177.54Z" fill="#EDEDED" stroke="#D2D2D2"/>
<path d="M23.8258 182.54L23.3387 181L18.2689 183.133C15.4978 184.302 15.7778 186.616 16.4523 189C19.1553 187.858 25.0896 186.564 23.8258 182.54Z" fill="#EDEDED" stroke="#D2D2D2"/>
<path d="M23.8258 187.54L23.3387 186L18.2689 188.133C15.4978 189.302 15.7778 191.616 16.4523 194C19.1553 192.858 25.0896 191.564 23.8258 187.54Z" fill="#EDEDED" stroke="#D2D2D2"/>
<path d="M18.3056 165.414L16.7129 165.146L18.12 159.829C18.8911 156.922 21.2222 156.877 23.6766 157.213C22.9221 160.049 22.4662 166.106 18.3056 165.414Z" fill="#EDEDED" stroke="#D2D2D2"/>
<path d="M23.1826 164.73L21.5898 164.462L22.997 159.144C23.768 156.238 26.7007 156.065 27.68 157.233C28.6594 158.401 27.3431 165.421 23.1826 164.73Z" fill="#EDEDED" stroke="#D2D2D2"/>
<path d="M17.0547 157.846L18.6474 158.114L17.2403 163.431C16.4693 166.338 13.5365 166.511 12.5572 165.343C11.5779 164.175 12.8941 157.154 17.0547 157.846Z" fill="#EDEDED" stroke="#D2D2D2"/>
<path d="M18.3037 172.952L16.7109 172.684L18.1181 167.367C18.8891 164.46 21.2202 164.415 23.6747 164.752C22.9201 167.587 22.4642 173.644 18.3037 172.952Z" fill="#EDEDED" stroke="#D2D2D2"/>
<path d="M23.1806 172.268L21.5879 172L22.995 166.683C23.7661 163.776 26.6988 163.603 27.6781 164.771C28.6574 165.939 27.3412 172.959 23.1806 172.268Z" fill="#EDEDED" stroke="#D2D2D2"/>
<path d="M17.0547 165.384L18.6474 165.652L17.2403 170.97C16.4693 173.876 13.5365 174.049 12.5572 172.881C11.5779 171.713 12.8941 164.693 17.0547 165.384Z" fill="#EDEDED" stroke="#D2D2D2"/>
<path d="M18.3056 180.491L16.7129 180.223L18.12 174.906C18.8911 171.999 21.2222 171.954 23.6766 172.291C22.9221 175.126 22.4662 181.183 18.3056 180.491Z" fill="#EDEDED" stroke="#D2D2D2"/>
<path d="M23.1806 179.806L21.5879 179.538L22.995 174.221C23.7661 171.314 26.6988 171.141 27.6781 172.309C28.6574 173.477 27.3412 180.498 23.1806 179.806Z" fill="#EDEDED" stroke="#D2D2D2"/>
<path d="M17.0557 172.922L18.6484 173.19L17.2413 178.508C16.4702 181.415 13.5375 181.587 12.5582 180.419C11.5789 179.251 12.8951 172.231 17.0557 172.922Z" fill="#EDEDED" stroke="#D2D2D2"/>
<path d="M18.3056 188.03L16.7129 187.762L18.12 182.444C18.8911 179.538 21.2222 179.493 23.6766 179.829C22.9221 182.665 22.4662 188.721 18.3056 188.03Z" fill="#EDEDED" stroke="#D2D2D2"/>
<path d="M23.1806 187.345L21.5879 187.077L22.995 181.76C23.7661 178.853 26.6988 178.68 27.6781 179.848C28.6574 181.016 27.3412 188.037 23.1806 187.345Z" fill="#EDEDED" stroke="#D2D2D2"/>
<path d="M17.0557 180.461L18.6484 180.729L17.2413 186.047C16.4702 188.953 13.5375 189.126 12.5582 187.958C11.5789 186.79 12.8951 179.77 17.0557 180.461Z" fill="#EDEDED" stroke="#D2D2D2"/>
<path d="M23.8258 192.54L23.3387 191L18.2689 193.133C15.4978 194.302 15.7778 196.616 16.4523 199C19.1553 197.858 25.0896 196.564 23.8258 192.54Z" fill="#EDEDED" stroke="#D2D2D2"/>
<path d="M23.8258 197.54L23.3387 196L18.2689 198.133C15.4978 199.302 15.7778 201.616 16.4523 204C19.1553 202.858 25.0896 201.564 23.8258 197.54Z" fill="#EDEDED" stroke="#D2D2D2"/>
<path d="M23.8258 202.54L23.3387 201L18.2689 203.133C15.4978 204.302 15.7778 206.616 16.4523 209C19.1553 207.858 25.0896 206.564 23.8258 202.54Z" fill="#EDEDED" stroke="#D2D2D2"/>
<path d="M23.8258 207.54L23.3387 206L18.2689 208.133C15.4978 209.302 15.7778 211.616 16.4523 214C19.1553 212.858 25.0896 211.564 23.8258 207.54Z" fill="#EDEDED" stroke="#D2D2D2"/>
<path d="M23.8258 212.54L23.3387 211L18.2689 213.133C15.4978 214.302 15.7778 216.616 16.4523 219C19.1553 217.858 25.0896 216.564 23.8258 212.54Z" fill="#EDEDED" stroke="#D2D2D2"/>
<path d="M23.8258 217.54L23.3387 216L18.2689 218.133C15.4978 219.302 15.7778 221.616 16.4523 224C19.1553 222.858 25.0896 221.564 23.8258 217.54Z" fill="#EDEDED" stroke="#D2D2D2"/>
<path d="M23.8258 222.54L23.3387 221L18.2689 223.133C15.4978 224.302 15.7778 226.616 16.4523 229C19.1553 227.858 25.0896 226.564 23.8258 222.54Z" fill="#EDEDED" stroke="#D2D2D2"/>
<path d="M23.8258 227.54L23.3387 226L18.2689 228.133C15.4978 229.302 15.7778 231.616 16.4523 234C19.1553 232.858 25.0896 231.564 23.8258 227.54Z" fill="#EDEDED" stroke="#D2D2D2"/>
<path d="M23.8258 232.54L23.3387 231L18.2689 233.133C15.4978 234.302 15.7778 236.616 16.4523 239C19.1553 237.858 25.0896 236.564 23.8258 232.54Z" fill="#EDEDED" stroke="#D2D2D2"/>
<path d="M23.8258 237.54L23.3387 236L18.2689 238.133C15.4978 239.302 15.7778 241.616 16.4523 244C19.1553 242.858 25.0896 241.564 23.8258 237.54Z" fill="#EDEDED" stroke="#D2D2D2"/>
<path d="M23.8258 242.54L23.3387 241L18.2689 243.133C15.4978 244.302 15.7778 246.616 16.4523 249C19.1553 247.858 25.0896 246.564 23.8258 242.54Z" fill="#EDEDED" stroke="#D2D2D2"/>
<path d="M23.8258 247.54L23.3387 246L18.2689 248.133C15.4978 249.302 15.7778 251.616 16.4523 254C19.1553 252.858 25.0896 251.564 23.8258 247.54Z" fill="#EDEDED" stroke="#D2D2D2"/>
<path d="M23.8258 252.54L23.3387 251L18.2689 253.133C15.4978 254.302 15.7778 256.616 16.4523 259C19.1553 257.858 25.0896 256.564 23.8258 252.54Z" fill="#EDEDED" stroke="#D2D2D2"/>
<path d="M23.8258 257.54L23.3387 256L18.2689 258.133C15.4978 259.302 15.7778 261.616 16.4523 264C19.1553 262.858 25.0896 261.564 23.8258 257.54Z" fill="#EDEDED" stroke="#D2D2D2"/>
<path d="M23.8258 262.54L23.3387 261L18.2689 263.133C15.4978 264.302 15.7778 266.616 16.4523 269C19.1553 267.858 25.0896 266.564 23.8258 262.54Z" fill="#EDEDED" stroke="#D2D2D2"/>
<path d="M23.8258 267.54L23.3387 266L18.2689 268.133C15.4978 269.302 15.7778 271.616 16.4523 274C19.1553 272.858 25.0896 271.564 23.8258 267.54Z" fill="#EDEDED" stroke="#D2D2D2"/>
<path d="M23.8258 272.54L23.3387 271L18.2689 273.133C15.4978 274.302 15.7778 276.616 16.4523 279C19.1553 277.858 25.0896 276.564 23.8258 272.54Z" fill="#EDEDED" stroke="#D2D2D2"/>
<path d="M23.8258 277.54L23.3387 276L18.2689 278.133C15.4978 279.302 15.7778 281.616 16.4523 284C19.1553 282.858 25.0896 281.564 23.8258 277.54Z" fill="#EDEDED" stroke="#D2D2D2"/>
<path d="M23.8258 282.54L23.3387 281L18.2689 283.133C15.4978 284.302 15.7778 286.616 16.4523 289C19.1553 287.858 25.0896 286.564 23.8258 282.54Z" fill="#EDEDED" stroke="#D2D2D2"/>
<path d="M23.8258 287.54L23.3387 286L18.2689 288.133C15.4978 289.302 15.7778 291.616 16.4523 294C19.1553 292.858 25.0896 291.564 23.8258 287.54Z" fill="#EDEDED" stroke="#D2D2D2"/>
<path d="M23.8258 292.54L23.3387 291L18.2689 293.133C15.4978 294.302 15.7778 296.616 16.4523 299C19.1553 297.858 25.0896 296.564 23.8258 292.54Z" fill="#EDEDED" stroke="#D2D2D2"/>
<path d="M23.8258 297.54L23.3387 296L18.2689 298.133C15.4978 299.302 15.7778 301.616 16.4523 304C19.1553 302.858 25.0896 301.564 23.8258 297.54Z" fill="#EDEDED" stroke="#D2D2D2"/>
<path d="M23.8258 302.54L23.3387 301L18.2689 303.133C15.4978 304.302 15.7778 306.616 16.4523 309C19.1553 307.858 25.0896 306.564 23.8258 302.54Z" fill="#EDEDED" stroke="#D2D2D2"/>
<path d="M23.8258 307.54L23.3387 306L18.2689 308.133C15.4978 309.302 15.7778 311.616 16.4523 314C19.1553 312.858 25.0896 311.564 23.8258 307.54Z" fill="#EDEDED" stroke="#D2D2D2"/>
<path d="M23.8258 312.54L23.3387 311L18.2689 313.133C15.4978 314.302 15.7778 316.616 16.4523 319C19.1553 317.858 25.0896 316.564 23.8258 312.54Z" fill="#EDEDED" stroke="#D2D2D2"/>
<path d="M23.8258 317.54L23.3387 316L18.2689 318.133C15.4978 319.302 15.7778 321.616 16.4523 324C19.1553 322.858 25.0896 321.564 23.8258 317.54Z" fill="#EDEDED" stroke="#D2D2D2"/>
<path d="M23.8258 322.54L23.3387 321L18.2689 323.133C15.4978 324.302 15.7778 326.616 16.4523 329C19.1553 327.858 25.0896 326.564 23.8258 322.54Z" fill="#EDEDED" stroke="#D2D2D2"/>
<path d="M23.8258 327.54L23.3387 326L18.2689 328.133C15.4978 329.302 15.7778 331.616 16.4523 334C19.1553 332.858 25.0896 331.564 23.8258 327.54Z" fill="#EDEDED" stroke="#D2D2D2"/>
<path d="M23.8258 332.54L23.3387 331L18.2689 333.133C15.4978 334.302 15.7778 336.616 16.4523 339C19.1553 337.858 25.0896 336.564 23.8258 332.54Z" fill="#EDEDED" stroke="#D2D2D2"/>
<path d="M23.8258 337.54L23.3387 336L18.2689 338.133C15.4978 339.302 15.7778 341.616 16.4523 344C19.1553 342.858 25.0896 341.564 23.8258 337.54Z" fill="#EDEDED" stroke="#D2D2D2"/>
<path d="M23.8258 342.54L23.3387 341L18.2689 343.133C15.4978 344.302 15.7778 346.616 16.4523 349C19.1553 347.858 25.0896 346.564 23.8258 342.54Z" fill="#EDEDED" stroke="#D2D2D2"/>
<path d="M23.8258 347.54L23.3387 346L18.2689 348.133C15.4978 349.302 15.7778 351.616 16.4523 354C19.1553 352.858 25.0896 351.564 23.8258 347.54Z" fill="#EDEDED" stroke="#D2D2D2"/>
<path d="M23.8258 352.54L23.3387 351L18.2689 353.133C15.4978 354.302 15.7778 356.616 16.4523 359C19.1553 357.858 25.0896 356.564 23.8258 352.54Z" fill="#EDEDED" stroke="#D2D2D2"/>
<path d="M23.8258 357.54L23.3387 356L18.2689 358.133C15.4978 359.302 15.7778 361.616 16.4523 364C19.1553 362.858 25.0896 361.564 23.8258 357.54Z" fill="#EDEDED" stroke="#D2D2D2"/>
<path d="M14.5611 372.992C14.3197 376.808 13.8369 380.616 13.082 384.382C13.082 384.41 13.0732 384.424 13.0732 384.438C12.6583 386.423 14.082 386.265 15.4652 386.265C16.2948 382.94 16.9883 378.32 17.0585 374.259C17.0585 374.259 17.4974 378.082 16.3738 384.886C16.4352 385.32 16.523 385.838 16.6854 386.265H18.1075C18.6517 381.337 19.0248 375.492 19.0775 369.933C19.1038 370.787 19.2969 376.864 18.5113 386.265H20.8639L21.1579 385.222L21.3818 384.459C21.3774 384.452 21.3774 384.438 21.3774 384.424C21.1974 381.925 21.0877 379.734 21.0131 377.851C20.8068 372.621 20.956 369.835 20.956 369.835C20.9955 375.317 21.3598 381.078 21.9041 386.454L23.8923 386.265C22.5229 378.747 22.9399 374.525 22.9706 374.266C23.0672 379.741 24.125 384.48 24.6165 386.426L26.1308 386.265C26.7233 386.258 27.1403 385.341 26.9559 384.417C26.1966 380.644 25.7094 376.815 25.4724 372.992C24.8455 363.993 15.3286 361.109 14.5611 372.992Z" fill="#EDEDED" stroke="#D2D2D2"/>
<path d="M23.8368 362.512L23.3585 361L18.3795 363.095C15.6581 364.242 15.3234 367.866 17.1074 368.431C18.8914 368.995 25.0779 366.464 23.8368 362.512Z" fill="#EDEDED" stroke="#D2D2D2"/>
</svg>
