<svg width="20" height="2814" viewBox="0 0 20 2814" fill="none" xmlns="http://www.w3.org/2000/svg">
<g clip-path="url(#clip0_206_24315)">
<path d="M15.7386 2817.69L15.0081 2820L7.40336 2816.8C3.24668 2815.05 3.6667 2811.58 4.67848 2808C8.73289 2809.71 17.6343 2811.65 15.7386 2817.69Z" fill="#58BF90" stroke="#329467"/>
<path d="M15.7386 2810.69L15.0081 2813L7.40336 2809.8C3.24668 2808.05 3.6667 2804.58 4.67848 2801C8.73289 2802.71 17.6343 2804.65 15.7386 2810.69Z" fill="#58BF90" stroke="#329467"/>
<path d="M15.7386 2803.69L15.0081 2806L7.40336 2802.8C3.24668 2801.05 3.6667 2797.58 4.67848 2794C8.73289 2795.71 17.6343 2797.65 15.7386 2803.69Z" fill="#58BF90" stroke="#329467"/>
<path d="M15.7386 2796.69L15.0081 2799L7.40336 2795.8C3.24668 2794.05 3.6667 2790.58 4.67848 2787C8.73289 2788.71 17.6343 2790.65 15.7386 2796.69Z" fill="#58BF90" stroke="#329467"/>
<path d="M15.7386 2789.69L15.0081 2792L7.40336 2788.8C3.24668 2787.05 3.6667 2783.58 4.67848 2780C8.73289 2781.71 17.6343 2783.65 15.7386 2789.69Z" fill="#58BF90" stroke="#329467"/>
<path d="M15.7386 2782.69L15.0081 2785L7.40336 2781.8C3.24668 2780.05 3.6667 2776.58 4.67848 2773C8.73289 2774.71 17.6343 2776.65 15.7386 2782.69Z" fill="#58BF90" stroke="#329467"/>
<path d="M15.7386 2775.69L15.0081 2778L7.40336 2774.8C3.24668 2773.05 3.6667 2769.58 4.67848 2766C8.73289 2767.71 17.6343 2769.65 15.7386 2775.69Z" fill="#58BF90" stroke="#329467"/>
<g clip-path="url(#clip1_206_24315)">
<path d="M15.7386 2775.69L15.0081 2778L7.40336 2774.8C3.24668 2773.05 3.6667 2769.58 4.67848 2766C8.73289 2767.71 17.6343 2769.65 15.7386 2775.69Z" fill="#58BF90" stroke="#329467"/>
<path d="M15.7386 2768.69L15.0081 2771L7.40336 2767.8C3.24668 2766.05 3.6667 2762.58 4.67848 2759C8.73289 2760.71 17.6343 2762.65 15.7386 2768.69Z" fill="#58BF90" stroke="#329467"/>
<path d="M15.7386 2761.69L15.0081 2764L7.40336 2760.8C3.24668 2759.05 3.6667 2755.58 4.67848 2752C8.73289 2753.71 17.6343 2755.65 15.7386 2761.69Z" fill="#58BF90" stroke="#329467"/>
<path d="M15.7386 2754.69L15.0081 2757L7.40336 2753.8C3.24668 2752.05 3.6667 2748.58 4.67848 2745C8.73289 2746.71 17.6343 2748.65 15.7386 2754.69Z" fill="#58BF90" stroke="#329467"/>
<path d="M15.7386 2747.69L15.0081 2750L7.40336 2746.8C3.24668 2745.05 3.6667 2741.58 4.67848 2738C8.73289 2739.71 17.6343 2741.65 15.7386 2747.69Z" fill="#58BF90" stroke="#329467"/>
<path d="M15.7386 2740.69L15.0081 2743L7.40336 2739.8C3.24668 2738.05 3.6667 2734.58 4.67848 2731C8.73289 2732.71 17.6343 2734.65 15.7386 2740.69Z" fill="#58BF90" stroke="#329467"/>
<path d="M15.7386 2733.69L15.0081 2736L7.40336 2732.8C3.24668 2731.05 3.6667 2727.58 4.67848 2724C8.73289 2725.71 17.6343 2727.65 15.7386 2733.69Z" fill="#58BF90" stroke="#329467"/>
</g>
<g clip-path="url(#clip2_206_24315)">
<path d="M15.7386 2733.69L15.0081 2736L7.40336 2732.8C3.24668 2731.05 3.6667 2727.58 4.67848 2724C8.73289 2725.71 17.6343 2727.65 15.7386 2733.69Z" fill="#58BF90" stroke="#329467"/>
<path d="M15.7386 2726.69L15.0081 2729L7.40336 2725.8C3.24668 2724.05 3.6667 2720.58 4.67848 2717C8.73289 2718.71 17.6343 2720.65 15.7386 2726.69Z" fill="#58BF90" stroke="#329467"/>
<path d="M15.7386 2719.69L15.0081 2722L7.40336 2718.8C3.24668 2717.05 3.6667 2713.58 4.67848 2710C8.73289 2711.71 17.6343 2713.65 15.7386 2719.69Z" fill="#58BF90" stroke="#329467"/>
<path d="M15.7386 2712.69L15.0081 2715L7.40336 2711.8C3.24668 2710.05 3.6667 2706.58 4.67848 2703C8.73289 2704.71 17.6343 2706.65 15.7386 2712.69Z" fill="#58BF90" stroke="#329467"/>
<path d="M15.7386 2705.69L15.0081 2708L7.40336 2704.8C3.24668 2703.05 3.6667 2699.58 4.67848 2696C8.73289 2697.71 17.6343 2699.65 15.7386 2705.69Z" fill="#58BF90" stroke="#329467"/>
<path d="M15.7386 2698.69L15.0081 2701L7.40336 2697.8C3.24668 2696.05 3.6667 2692.58 4.67848 2689C8.73289 2690.71 17.6343 2692.65 15.7386 2698.69Z" fill="#58BF90" stroke="#329467"/>
<path d="M15.7386 2691.69L15.0081 2694L7.40336 2690.8C3.24668 2689.05 3.6667 2685.58 4.67848 2682C8.73289 2683.71 17.6343 2685.65 15.7386 2691.69Z" fill="#58BF90" stroke="#329467"/>
</g>
<g clip-path="url(#clip3_206_24315)">
<path d="M15.7386 2691.69L15.0081 2694L7.40336 2690.8C3.24668 2689.05 3.6667 2685.58 4.67848 2682C8.73289 2683.71 17.6343 2685.65 15.7386 2691.69Z" fill="#58BF90" stroke="#329467"/>
<path d="M15.7386 2684.69L15.0081 2687L7.40336 2683.8C3.24668 2682.05 3.6667 2678.58 4.67848 2675C8.73289 2676.71 17.6343 2678.65 15.7386 2684.69Z" fill="#58BF90" stroke="#329467"/>
<path d="M15.7386 2677.69L15.0081 2680L7.40336 2676.8C3.24668 2675.05 3.6667 2671.58 4.67848 2668C8.73289 2669.71 17.6343 2671.65 15.7386 2677.69Z" fill="#58BF90" stroke="#329467"/>
<path d="M15.7386 2670.69L15.0081 2673L7.40336 2669.8C3.24668 2668.05 3.6667 2664.58 4.67848 2661C8.73289 2662.71 17.6343 2664.65 15.7386 2670.69Z" fill="#58BF90" stroke="#329467"/>
<path d="M15.7386 2663.69L15.0081 2666L7.40336 2662.8C3.24668 2661.05 3.6667 2657.58 4.67848 2654C8.73289 2655.71 17.6343 2657.65 15.7386 2663.69Z" fill="#58BF90" stroke="#329467"/>
<path d="M15.7386 2656.69L15.0081 2659L7.40336 2655.8C3.24668 2654.05 3.6667 2650.58 4.67848 2647C8.73289 2648.71 17.6343 2650.65 15.7386 2656.69Z" fill="#58BF90" stroke="#329467"/>
<path d="M15.7386 2649.69L15.0081 2652L7.40336 2648.8C3.24668 2647.05 3.6667 2643.58 4.67848 2640C8.73289 2641.71 17.6343 2643.65 15.7386 2649.69Z" fill="#58BF90" stroke="#329467"/>
</g>
<g clip-path="url(#clip4_206_24315)">
<path d="M15.7386 2649.69L15.0081 2652L7.40336 2648.8C3.24668 2647.05 3.6667 2643.58 4.67848 2640C8.73289 2641.71 17.6343 2643.65 15.7386 2649.69Z" fill="#58BF90" stroke="#329467"/>
<path d="M15.7386 2642.69L15.0081 2645L7.40336 2641.8C3.24668 2640.05 3.6667 2636.58 4.67848 2633C8.73289 2634.71 17.6343 2636.65 15.7386 2642.69Z" fill="#58BF90" stroke="#329467"/>
<path d="M15.7386 2635.69L15.0081 2638L7.40336 2634.8C3.24668 2633.05 3.6667 2629.58 4.67848 2626C8.73289 2627.71 17.6343 2629.65 15.7386 2635.69Z" fill="#58BF90" stroke="#329467"/>
<path d="M15.7386 2628.69L15.0081 2631L7.40336 2627.8C3.24668 2626.05 3.6667 2622.58 4.67848 2619C8.73289 2620.71 17.6343 2622.65 15.7386 2628.69Z" fill="#58BF90" stroke="#329467"/>
<path d="M15.7386 2621.69L15.0081 2624L7.40336 2620.8C3.24668 2619.05 3.6667 2615.58 4.67848 2612C8.73289 2613.71 17.6343 2615.65 15.7386 2621.69Z" fill="#58BF90" stroke="#329467"/>
<path d="M15.7386 2614.69L15.0081 2617L7.40336 2613.8C3.24668 2612.05 3.6667 2608.58 4.67848 2605C8.73289 2606.71 17.6343 2608.65 15.7386 2614.69Z" fill="#58BF90" stroke="#329467"/>
<path d="M15.7386 2607.69L15.0081 2610L7.40336 2606.8C3.24668 2605.05 3.6667 2601.58 4.67848 2598C8.73289 2599.71 17.6343 2601.65 15.7386 2607.69Z" fill="#58BF90" stroke="#329467"/>
</g>
<g clip-path="url(#clip5_206_24315)">
<path d="M15.7386 2607.69L15.0081 2610L7.40336 2606.8C3.24668 2605.05 3.6667 2601.58 4.67848 2598C8.73289 2599.71 17.6343 2601.65 15.7386 2607.69Z" fill="#58BF90" stroke="#329467"/>
<path d="M15.7386 2600.69L15.0081 2603L7.40336 2599.8C3.24668 2598.05 3.6667 2594.58 4.67848 2591C8.73289 2592.71 17.6343 2594.65 15.7386 2600.69Z" fill="#58BF90" stroke="#329467"/>
<path d="M15.7386 2593.69L15.0081 2596L7.40336 2592.8C3.24668 2591.05 3.6667 2587.58 4.67848 2584C8.73289 2585.71 17.6343 2587.65 15.7386 2593.69Z" fill="#58BF90" stroke="#329467"/>
<path d="M15.7386 2586.69L15.0081 2589L7.40336 2585.8C3.24668 2584.05 3.6667 2580.58 4.67848 2577C8.73289 2578.71 17.6343 2580.65 15.7386 2586.69Z" fill="#58BF90" stroke="#329467"/>
<path d="M15.7386 2579.69L15.0081 2582L7.40336 2578.8C3.24668 2577.05 3.6667 2573.58 4.67848 2570C8.73289 2571.71 17.6343 2573.65 15.7386 2579.69Z" fill="#58BF90" stroke="#329467"/>
<path d="M15.7386 2572.69L15.0081 2575L7.40336 2571.8C3.24668 2570.05 3.6667 2566.58 4.67848 2563C8.73289 2564.71 17.6343 2566.65 15.7386 2572.69Z" fill="#58BF90" stroke="#329467"/>
<path d="M15.7386 2565.69L15.0081 2568L7.40336 2564.8C3.24668 2563.05 3.6667 2559.58 4.67848 2556C8.73289 2557.71 17.6343 2559.65 15.7386 2565.69Z" fill="#58BF90" stroke="#329467"/>
</g>
<g clip-path="url(#clip6_206_24315)">
<path d="M15.7386 2565.69L15.0081 2568L7.40336 2564.8C3.24668 2563.05 3.6667 2559.58 4.67848 2556C8.73289 2557.71 17.6343 2559.65 15.7386 2565.69Z" fill="#58BF90" stroke="#329467"/>
<path d="M15.7386 2558.69L15.0081 2561L7.40336 2557.8C3.24668 2556.05 3.6667 2552.58 4.67848 2549C8.73289 2550.71 17.6343 2552.65 15.7386 2558.69Z" fill="#58BF90" stroke="#329467"/>
<path d="M15.7386 2551.69L15.0081 2554L7.40336 2550.8C3.24668 2549.05 3.6667 2545.58 4.67848 2542C8.73289 2543.71 17.6343 2545.65 15.7386 2551.69Z" fill="#58BF90" stroke="#329467"/>
<path d="M15.7386 2544.69L15.0081 2547L7.40336 2543.8C3.24668 2542.05 3.6667 2538.58 4.67848 2535C8.73289 2536.71 17.6343 2538.65 15.7386 2544.69Z" fill="#58BF90" stroke="#329467"/>
<path d="M15.7386 2537.69L15.0081 2540L7.40336 2536.8C3.24668 2535.05 3.6667 2531.58 4.67848 2528C8.73289 2529.71 17.6343 2531.65 15.7386 2537.69Z" fill="#58BF90" stroke="#329467"/>
<path d="M15.7386 2530.69L15.0081 2533L7.40336 2529.8C3.24668 2528.05 3.6667 2524.58 4.67848 2521C8.73289 2522.71 17.6343 2524.65 15.7386 2530.69Z" fill="#58BF90" stroke="#329467"/>
<path d="M15.7386 2523.69L15.0081 2526L7.40336 2522.8C3.24668 2521.05 3.6667 2517.58 4.67848 2514C8.73289 2515.71 17.6343 2517.65 15.7386 2523.69Z" fill="#58BF90" stroke="#329467"/>
</g>
<g clip-path="url(#clip7_206_24315)">
<path d="M15.7386 2523.69L15.0081 2526L7.40336 2522.8C3.24668 2521.05 3.6667 2517.58 4.67848 2514C8.73289 2515.71 17.6343 2517.65 15.7386 2523.69Z" fill="#58BF90" stroke="#329467"/>
<path d="M15.7386 2516.69L15.0081 2519L7.40336 2515.8C3.24668 2514.05 3.6667 2510.58 4.67848 2507C8.73289 2508.71 17.6343 2510.65 15.7386 2516.69Z" fill="#58BF90" stroke="#329467"/>
<path d="M15.7386 2509.69L15.0081 2512L7.40336 2508.8C3.24668 2507.05 3.6667 2503.58 4.67848 2500C8.73289 2501.71 17.6343 2503.65 15.7386 2509.69Z" fill="#58BF90" stroke="#329467"/>
<path d="M15.7386 2502.69L15.0081 2505L7.40336 2501.8C3.24668 2500.05 3.6667 2496.58 4.67848 2493C8.73289 2494.71 17.6343 2496.65 15.7386 2502.69Z" fill="#58BF90" stroke="#329467"/>
<path d="M15.7386 2495.69L15.0081 2498L7.40336 2494.8C3.24668 2493.05 3.6667 2489.58 4.67848 2486C8.73289 2487.71 17.6343 2489.65 15.7386 2495.69Z" fill="#58BF90" stroke="#329467"/>
<path d="M15.7386 2488.69L15.0081 2491L7.40336 2487.8C3.24668 2486.05 3.6667 2482.58 4.67848 2479C8.73289 2480.71 17.6343 2482.65 15.7386 2488.69Z" fill="#58BF90" stroke="#329467"/>
<path d="M15.7386 2481.69L15.0081 2484L7.40336 2480.8C3.24668 2479.05 3.6667 2475.58 4.67848 2472C8.73289 2473.71 17.6343 2475.65 15.7386 2481.69Z" fill="#58BF90" stroke="#329467"/>
</g>
<g clip-path="url(#clip8_206_24315)">
<path d="M15.7386 2481.69L15.0081 2484L7.40336 2480.8C3.24668 2479.05 3.6667 2475.58 4.67848 2472C8.73289 2473.71 17.6343 2475.65 15.7386 2481.69Z" fill="#58BF90" stroke="#329467"/>
<path d="M15.7386 2474.69L15.0081 2477L7.40336 2473.8C3.24668 2472.05 3.6667 2468.58 4.67848 2465C8.73289 2466.71 17.6343 2468.65 15.7386 2474.69Z" fill="#58BF90" stroke="#329467"/>
<path d="M15.7386 2467.69L15.0081 2470L7.40336 2466.8C3.24668 2465.05 3.6667 2461.58 4.67848 2458C8.73289 2459.71 17.6343 2461.65 15.7386 2467.69Z" fill="#58BF90" stroke="#329467"/>
<path d="M15.7386 2460.69L15.0081 2463L7.40336 2459.8C3.24668 2458.05 3.6667 2454.58 4.67848 2451C8.73289 2452.71 17.6343 2454.65 15.7386 2460.69Z" fill="#58BF90" stroke="#329467"/>
<path d="M15.7386 2453.69L15.0081 2456L7.40336 2452.8C3.24668 2451.05 3.6667 2447.58 4.67848 2444C8.73289 2445.71 17.6343 2447.65 15.7386 2453.69Z" fill="#58BF90" stroke="#329467"/>
<path d="M15.7386 2446.69L15.0081 2449L7.40336 2445.8C3.24668 2444.05 3.6667 2440.58 4.67848 2437C8.73289 2438.71 17.6343 2440.65 15.7386 2446.69Z" fill="#58BF90" stroke="#329467"/>
<path d="M15.7386 2439.69L15.0081 2442L7.40336 2438.8C3.24668 2437.05 3.6667 2433.58 4.67848 2430C8.73289 2431.71 17.6343 2433.65 15.7386 2439.69Z" fill="#58BF90" stroke="#329467"/>
</g>
<g clip-path="url(#clip9_206_24315)">
<path d="M15.7386 2439.69L15.0081 2442L7.40336 2438.8C3.24668 2437.05 3.6667 2433.58 4.67848 2430C8.73289 2431.71 17.6343 2433.65 15.7386 2439.69Z" fill="#58BF90" stroke="#329467"/>
<path d="M15.7386 2432.69L15.0081 2435L7.40336 2431.8C3.24668 2430.05 3.6667 2426.58 4.67848 2423C8.73289 2424.71 17.6343 2426.65 15.7386 2432.69Z" fill="#58BF90" stroke="#329467"/>
<path d="M15.7386 2425.69L15.0081 2428L7.40336 2424.8C3.24668 2423.05 3.6667 2419.58 4.67848 2416C8.73289 2417.71 17.6343 2419.65 15.7386 2425.69Z" fill="#58BF90" stroke="#329467"/>
<path d="M15.7386 2418.69L15.0081 2421L7.40336 2417.8C3.24668 2416.05 3.6667 2412.58 4.67848 2409C8.73289 2410.71 17.6343 2412.65 15.7386 2418.69Z" fill="#58BF90" stroke="#329467"/>
<path d="M15.7386 2411.69L15.0081 2414L7.40336 2410.8C3.24668 2409.05 3.6667 2405.58 4.67848 2402C8.73289 2403.71 17.6343 2405.65 15.7386 2411.69Z" fill="#58BF90" stroke="#329467"/>
<path d="M15.7386 2404.69L15.0081 2407L7.40336 2403.8C3.24668 2402.05 3.6667 2398.58 4.67848 2395C8.73289 2396.71 17.6343 2398.65 15.7386 2404.69Z" fill="#58BF90" stroke="#329467"/>
<path d="M15.7386 2397.69L15.0081 2400L7.40336 2396.8C3.24668 2395.05 3.6667 2391.58 4.67848 2388C8.73289 2389.71 17.6343 2391.65 15.7386 2397.69Z" fill="#58BF90" stroke="#329467"/>
</g>
<g clip-path="url(#clip10_206_24315)">
<path d="M15.7386 2397.69L15.0081 2400L7.40336 2396.8C3.24668 2395.05 3.6667 2391.58 4.67848 2388C8.73289 2389.71 17.6343 2391.65 15.7386 2397.69Z" fill="#58BF90" stroke="#329467"/>
<path d="M15.7386 2390.69L15.0081 2393L7.40336 2389.8C3.24668 2388.05 3.6667 2384.58 4.67848 2381C8.73289 2382.71 17.6343 2384.65 15.7386 2390.69Z" fill="#58BF90" stroke="#329467"/>
<path d="M15.7386 2383.69L15.0081 2386L7.40336 2382.8C3.24668 2381.05 3.6667 2377.58 4.67848 2374C8.73289 2375.71 17.6343 2377.65 15.7386 2383.69Z" fill="#58BF90" stroke="#329467"/>
<path d="M15.7386 2376.69L15.0081 2379L7.40336 2375.8C3.24668 2374.05 3.6667 2370.58 4.67848 2367C8.73289 2368.71 17.6343 2370.65 15.7386 2376.69Z" fill="#58BF90" stroke="#329467"/>
<path d="M15.7386 2369.69L15.0081 2372L7.40336 2368.8C3.24668 2367.05 3.6667 2363.58 4.67848 2360C8.73289 2361.71 17.6343 2363.65 15.7386 2369.69Z" fill="#58BF90" stroke="#329467"/>
<path d="M15.7386 2362.69L15.0081 2365L7.40336 2361.8C3.24668 2360.05 3.6667 2356.58 4.67848 2353C8.73289 2354.71 17.6343 2356.65 15.7386 2362.69Z" fill="#58BF90" stroke="#329467"/>
<path d="M15.7386 2355.69L15.0081 2358L7.40336 2354.8C3.24668 2353.05 3.6667 2349.58 4.67848 2346C8.73289 2347.71 17.6343 2349.65 15.7386 2355.69Z" fill="#58BF90" stroke="#329467"/>
</g>
<g clip-path="url(#clip11_206_24315)">
<path d="M15.7386 2355.69L15.0081 2358L7.40336 2354.8C3.24668 2353.05 3.6667 2349.58 4.67848 2346C8.73289 2347.71 17.6343 2349.65 15.7386 2355.69Z" fill="#58BF90" stroke="#329467"/>
<path d="M15.7386 2348.69L15.0081 2351L7.40336 2347.8C3.24668 2346.05 3.6667 2342.58 4.67848 2339C8.73289 2340.71 17.6343 2342.65 15.7386 2348.69Z" fill="#58BF90" stroke="#329467"/>
<path d="M15.7386 2341.69L15.0081 2344L7.40336 2340.8C3.24668 2339.05 3.6667 2335.58 4.67848 2332C8.73289 2333.71 17.6343 2335.65 15.7386 2341.69Z" fill="#58BF90" stroke="#329467"/>
<path d="M15.7386 2334.69L15.0081 2337L7.40336 2333.8C3.24668 2332.05 3.6667 2328.58 4.67848 2325C8.73289 2326.71 17.6343 2328.65 15.7386 2334.69Z" fill="#58BF90" stroke="#329467"/>
<path d="M15.7386 2327.69L15.0081 2330L7.40336 2326.8C3.24668 2325.05 3.6667 2321.58 4.67848 2318C8.73289 2319.71 17.6343 2321.65 15.7386 2327.69Z" fill="#58BF90" stroke="#329467"/>
<path d="M15.7386 2320.69L15.0081 2323L7.40336 2319.8C3.24668 2318.05 3.6667 2314.58 4.67848 2311C8.73289 2312.71 17.6343 2314.65 15.7386 2320.69Z" fill="#58BF90" stroke="#329467"/>
<path d="M15.7386 2313.69L15.0081 2316L7.40336 2312.8C3.24668 2311.05 3.6667 2307.58 4.67848 2304C8.73289 2305.71 17.6343 2307.65 15.7386 2313.69Z" fill="#58BF90" stroke="#329467"/>
</g>
<g clip-path="url(#clip12_206_24315)">
<path d="M15.7386 2313.69L15.0081 2316L7.40336 2312.8C3.24668 2311.05 3.6667 2307.58 4.67848 2304C8.73289 2305.71 17.6343 2307.65 15.7386 2313.69Z" fill="#58BF90" stroke="#329467"/>
<path d="M15.7386 2306.69L15.0081 2309L7.40336 2305.8C3.24668 2304.05 3.6667 2300.58 4.67848 2297C8.73289 2298.71 17.6343 2300.65 15.7386 2306.69Z" fill="#58BF90" stroke="#329467"/>
<path d="M15.7386 2299.69L15.0081 2302L7.40336 2298.8C3.24668 2297.05 3.6667 2293.58 4.67848 2290C8.73289 2291.71 17.6343 2293.65 15.7386 2299.69Z" fill="#58BF90" stroke="#329467"/>
<path d="M15.7386 2292.69L15.0081 2295L7.40336 2291.8C3.24668 2290.05 3.6667 2286.58 4.67848 2283C8.73289 2284.71 17.6343 2286.65 15.7386 2292.69Z" fill="#58BF90" stroke="#329467"/>
<path d="M15.7386 2285.69L15.0081 2288L7.40336 2284.8C3.24668 2283.05 3.6667 2279.58 4.67848 2276C8.73289 2277.71 17.6343 2279.65 15.7386 2285.69Z" fill="#58BF90" stroke="#329467"/>
<path d="M15.7386 2278.69L15.0081 2281L7.40336 2277.8C3.24668 2276.05 3.6667 2272.58 4.67848 2269C8.73289 2270.71 17.6343 2272.65 15.7386 2278.69Z" fill="#58BF90" stroke="#329467"/>
<path d="M15.7386 2271.69L15.0081 2274L7.40336 2270.8C3.24668 2269.05 3.6667 2265.58 4.67848 2262C8.73289 2263.71 17.6343 2265.65 15.7386 2271.69Z" fill="#58BF90" stroke="#329467"/>
</g>
<g clip-path="url(#clip13_206_24315)">
<path d="M15.7386 2271.69L15.0081 2274L7.40336 2270.8C3.24668 2269.05 3.6667 2265.58 4.67848 2262C8.73289 2263.71 17.6343 2265.65 15.7386 2271.69Z" fill="#58BF90" stroke="#329467"/>
<path d="M15.7386 2264.69L15.0081 2267L7.40336 2263.8C3.24668 2262.05 3.6667 2258.58 4.67848 2255C8.73289 2256.71 17.6343 2258.65 15.7386 2264.69Z" fill="#58BF90" stroke="#329467"/>
<path d="M15.7386 2257.69L15.0081 2260L7.40336 2256.8C3.24668 2255.05 3.6667 2251.58 4.67848 2248C8.73289 2249.71 17.6343 2251.65 15.7386 2257.69Z" fill="#58BF90" stroke="#329467"/>
<path d="M15.7386 2250.69L15.0081 2253L7.40336 2249.8C3.24668 2248.05 3.6667 2244.58 4.67848 2241C8.73289 2242.71 17.6343 2244.65 15.7386 2250.69Z" fill="#58BF90" stroke="#329467"/>
<path d="M15.7386 2243.69L15.0081 2246L7.40336 2242.8C3.24668 2241.05 3.6667 2237.58 4.67848 2234C8.73289 2235.71 17.6343 2237.65 15.7386 2243.69Z" fill="#58BF90" stroke="#329467"/>
<path d="M15.7386 2236.69L15.0081 2239L7.40336 2235.8C3.24668 2234.05 3.6667 2230.58 4.67848 2227C8.73289 2228.71 17.6343 2230.65 15.7386 2236.69Z" fill="#58BF90" stroke="#329467"/>
<path d="M15.7386 2229.69L15.0081 2232L7.40336 2228.8C3.24668 2227.05 3.6667 2223.58 4.67848 2220C8.73289 2221.71 17.6343 2223.65 15.7386 2229.69Z" fill="#58BF90" stroke="#329467"/>
</g>
<g clip-path="url(#clip14_206_24315)">
<path d="M15.7386 2229.69L15.0081 2232L7.40336 2228.8C3.24668 2227.05 3.6667 2223.58 4.67848 2220C8.73289 2221.71 17.6343 2223.65 15.7386 2229.69Z" fill="#58BF90" stroke="#329467"/>
<path d="M15.7386 2222.69L15.0081 2225L7.40336 2221.8C3.24668 2220.05 3.6667 2216.58 4.67848 2213C8.73289 2214.71 17.6343 2216.65 15.7386 2222.69Z" fill="#58BF90" stroke="#329467"/>
<path d="M15.7386 2215.69L15.0081 2218L7.40336 2214.8C3.24668 2213.05 3.6667 2209.58 4.67848 2206C8.73289 2207.71 17.6343 2209.65 15.7386 2215.69Z" fill="#58BF90" stroke="#329467"/>
<path d="M15.7386 2208.69L15.0081 2211L7.40336 2207.8C3.24668 2206.05 3.6667 2202.58 4.67848 2199C8.73289 2200.71 17.6343 2202.65 15.7386 2208.69Z" fill="#58BF90" stroke="#329467"/>
<path d="M15.7386 2201.69L15.0081 2204L7.40336 2200.8C3.24668 2199.05 3.6667 2195.58 4.67848 2192C8.73289 2193.71 17.6343 2195.65 15.7386 2201.69Z" fill="#58BF90" stroke="#329467"/>
<path d="M15.7386 2194.69L15.0081 2197L7.40336 2193.8C3.24668 2192.05 3.6667 2188.58 4.67848 2185C8.73289 2186.71 17.6343 2188.65 15.7386 2194.69Z" fill="#58BF90" stroke="#329467"/>
<path d="M15.7386 2187.69L15.0081 2190L7.40336 2186.8C3.24668 2185.05 3.6667 2181.58 4.67848 2178C8.73289 2179.71 17.6343 2181.65 15.7386 2187.69Z" fill="#58BF90" stroke="#329467"/>
</g>
<g clip-path="url(#clip15_206_24315)">
<path d="M15.7386 2187.69L15.0081 2190L7.40336 2186.8C3.24668 2185.05 3.6667 2181.58 4.67848 2178C8.73289 2179.71 17.6343 2181.65 15.7386 2187.69Z" fill="#58BF90" stroke="#329467"/>
<path d="M15.7386 2180.69L15.0081 2183L7.40336 2179.8C3.24668 2178.05 3.6667 2174.58 4.67848 2171C8.73289 2172.71 17.6343 2174.65 15.7386 2180.69Z" fill="#58BF90" stroke="#329467"/>
<path d="M15.7386 2173.69L15.0081 2176L7.40336 2172.8C3.24668 2171.05 3.6667 2167.58 4.67848 2164C8.73289 2165.71 17.6343 2167.65 15.7386 2173.69Z" fill="#58BF90" stroke="#329467"/>
<path d="M15.7386 2166.69L15.0081 2169L7.40336 2165.8C3.24668 2164.05 3.6667 2160.58 4.67848 2157C8.73289 2158.71 17.6343 2160.65 15.7386 2166.69Z" fill="#58BF90" stroke="#329467"/>
<path d="M15.7386 2159.69L15.0081 2162L7.40336 2158.8C3.24668 2157.05 3.6667 2153.58 4.67848 2150C8.73289 2151.71 17.6343 2153.65 15.7386 2159.69Z" fill="#58BF90" stroke="#329467"/>
<path d="M15.7386 2152.69L15.0081 2155L7.40336 2151.8C3.24668 2150.05 3.6667 2146.58 4.67848 2143C8.73289 2144.71 17.6343 2146.65 15.7386 2152.69Z" fill="#58BF90" stroke="#329467"/>
<path d="M15.7386 2145.69L15.0081 2148L7.40336 2144.8C3.24668 2143.05 3.6667 2139.58 4.67848 2136C8.73289 2137.71 17.6343 2139.65 15.7386 2145.69Z" fill="#58BF90" stroke="#329467"/>
</g>
<g clip-path="url(#clip16_206_24315)">
<path d="M15.7386 2145.69L15.0081 2148L7.40336 2144.8C3.24668 2143.05 3.6667 2139.58 4.67848 2136C8.73289 2137.71 17.6343 2139.65 15.7386 2145.69Z" fill="#58BF90" stroke="#329467"/>
<path d="M15.7386 2138.69L15.0081 2141L7.40336 2137.8C3.24668 2136.05 3.6667 2132.58 4.67848 2129C8.73289 2130.71 17.6343 2132.65 15.7386 2138.69Z" fill="#58BF90" stroke="#329467"/>
<path d="M15.7386 2131.69L15.0081 2134L7.40336 2130.8C3.24668 2129.05 3.6667 2125.58 4.67848 2122C8.73289 2123.71 17.6343 2125.65 15.7386 2131.69Z" fill="#58BF90" stroke="#329467"/>
<path d="M15.7386 2124.69L15.0081 2127L7.40336 2123.8C3.24668 2122.05 3.6667 2118.58 4.67848 2115C8.73289 2116.71 17.6343 2118.65 15.7386 2124.69Z" fill="#58BF90" stroke="#329467"/>
<path d="M15.7386 2117.69L15.0081 2120L7.40336 2116.8C3.24668 2115.05 3.6667 2111.58 4.67848 2108C8.73289 2109.71 17.6343 2111.65 15.7386 2117.69Z" fill="#58BF90" stroke="#329467"/>
<path d="M15.7386 2110.69L15.0081 2113L7.40336 2109.8C3.24668 2108.05 3.6667 2104.58 4.67848 2101C8.73289 2102.71 17.6343 2104.65 15.7386 2110.69Z" fill="#58BF90" stroke="#329467"/>
<path d="M15.7386 2103.69L15.0081 2106L7.40336 2102.8C3.24668 2101.05 3.6667 2097.58 4.67848 2094C8.73289 2095.71 17.6343 2097.65 15.7386 2103.69Z" fill="#58BF90" stroke="#329467"/>
</g>
<g clip-path="url(#clip17_206_24315)">
<path d="M15.7386 2103.69L15.0081 2106L7.40336 2102.8C3.24668 2101.05 3.6667 2097.58 4.67848 2094C8.73289 2095.71 17.6343 2097.65 15.7386 2103.69Z" fill="#58BF90" stroke="#329467"/>
<path d="M15.7386 2096.69L15.0081 2099L7.40336 2095.8C3.24668 2094.05 3.6667 2090.58 4.67848 2087C8.73289 2088.71 17.6343 2090.65 15.7386 2096.69Z" fill="#58BF90" stroke="#329467"/>
<path d="M15.7386 2089.69L15.0081 2092L7.40336 2088.8C3.24668 2087.05 3.6667 2083.58 4.67848 2080C8.73289 2081.71 17.6343 2083.65 15.7386 2089.69Z" fill="#58BF90" stroke="#329467"/>
<path d="M15.7386 2082.69L15.0081 2085L7.40336 2081.8C3.24668 2080.05 3.6667 2076.58 4.67848 2073C8.73289 2074.71 17.6343 2076.65 15.7386 2082.69Z" fill="#58BF90" stroke="#329467"/>
<path d="M15.7386 2075.69L15.0081 2078L7.40336 2074.8C3.24668 2073.05 3.6667 2069.58 4.67848 2066C8.73289 2067.71 17.6343 2069.65 15.7386 2075.69Z" fill="#58BF90" stroke="#329467"/>
<path d="M15.7386 2068.69L15.0081 2071L7.40336 2067.8C3.24668 2066.05 3.6667 2062.58 4.67848 2059C8.73289 2060.71 17.6343 2062.65 15.7386 2068.69Z" fill="#58BF90" stroke="#329467"/>
<path d="M15.7386 2061.69L15.0081 2064L7.40336 2060.8C3.24668 2059.05 3.6667 2055.58 4.67848 2052C8.73289 2053.71 17.6343 2055.65 15.7386 2061.69Z" fill="#58BF90" stroke="#329467"/>
</g>
<g clip-path="url(#clip18_206_24315)">
<path d="M15.7386 2061.69L15.0081 2064L7.40336 2060.8C3.24668 2059.05 3.6667 2055.58 4.67848 2052C8.73289 2053.71 17.6343 2055.65 15.7386 2061.69Z" fill="#58BF90" stroke="#329467"/>
<path d="M15.7386 2054.69L15.0081 2057L7.40336 2053.8C3.24668 2052.05 3.6667 2048.58 4.67848 2045C8.73289 2046.71 17.6343 2048.65 15.7386 2054.69Z" fill="#58BF90" stroke="#329467"/>
<path d="M15.7386 2047.69L15.0081 2050L7.40336 2046.8C3.24668 2045.05 3.6667 2041.58 4.67848 2038C8.73289 2039.71 17.6343 2041.65 15.7386 2047.69Z" fill="#58BF90" stroke="#329467"/>
<path d="M15.7386 2040.69L15.0081 2043L7.40336 2039.8C3.24668 2038.05 3.6667 2034.58 4.67848 2031C8.73289 2032.71 17.6343 2034.65 15.7386 2040.69Z" fill="#58BF90" stroke="#329467"/>
<path d="M15.7386 2033.69L15.0081 2036L7.40336 2032.8C3.24668 2031.05 3.6667 2027.58 4.67848 2024C8.73289 2025.71 17.6343 2027.65 15.7386 2033.69Z" fill="#58BF90" stroke="#329467"/>
<path d="M15.7386 2026.69L15.0081 2029L7.40336 2025.8C3.24668 2024.05 3.6667 2020.58 4.67848 2017C8.73289 2018.71 17.6343 2020.65 15.7386 2026.69Z" fill="#58BF90" stroke="#329467"/>
<path d="M15.7386 2019.69L15.0081 2022L7.40336 2018.8C3.24668 2017.05 3.6667 2013.58 4.67848 2010C8.73289 2011.71 17.6343 2013.65 15.7386 2019.69Z" fill="#58BF90" stroke="#329467"/>
</g>
<g clip-path="url(#clip19_206_24315)">
<path d="M15.7386 2019.69L15.0081 2022L7.40336 2018.8C3.24668 2017.05 3.6667 2013.58 4.67848 2010C8.73289 2011.71 17.6343 2013.65 15.7386 2019.69Z" fill="#58BF90" stroke="#329467"/>
<path d="M15.7386 2012.69L15.0081 2015L7.40336 2011.8C3.24668 2010.05 3.6667 2006.58 4.67848 2003C8.73289 2004.71 17.6343 2006.65 15.7386 2012.69Z" fill="#58BF90" stroke="#329467"/>
<path d="M15.7386 2005.69L15.0081 2008L7.40336 2004.8C3.24668 2003.05 3.6667 1999.58 4.67848 1996C8.73289 1997.71 17.6343 1999.65 15.7386 2005.69Z" fill="#58BF90" stroke="#329467"/>
<path d="M15.7386 1998.69L15.0081 2001L7.40336 1997.8C3.24668 1996.05 3.6667 1992.58 4.67848 1989C8.73289 1990.71 17.6343 1992.65 15.7386 1998.69Z" fill="#58BF90" stroke="#329467"/>
<path d="M15.7386 1991.69L15.0081 1994L7.40336 1990.8C3.24668 1989.05 3.6667 1985.58 4.67848 1982C8.73289 1983.71 17.6343 1985.65 15.7386 1991.69Z" fill="#58BF90" stroke="#329467"/>
<path d="M15.7386 1984.69L15.0081 1987L7.40336 1983.8C3.24668 1982.05 3.6667 1978.58 4.67848 1975C8.73289 1976.71 17.6343 1978.65 15.7386 1984.69Z" fill="#58BF90" stroke="#329467"/>
<path d="M15.7386 1977.69L15.0081 1980L7.40336 1976.8C3.24668 1975.05 3.6667 1971.58 4.67848 1968C8.73289 1969.71 17.6343 1971.65 15.7386 1977.69Z" fill="#58BF90" stroke="#329467"/>
</g>
<g clip-path="url(#clip20_206_24315)">
<path d="M15.7386 1977.69L15.0081 1980L7.40336 1976.8C3.24668 1975.05 3.6667 1971.58 4.67848 1968C8.73289 1969.71 17.6343 1971.65 15.7386 1977.69Z" fill="#58BF90" stroke="#329467"/>
<path d="M15.7386 1970.69L15.0081 1973L7.40336 1969.8C3.24668 1968.05 3.6667 1964.58 4.67848 1961C8.73289 1962.71 17.6343 1964.65 15.7386 1970.69Z" fill="#58BF90" stroke="#329467"/>
<path d="M15.7386 1963.69L15.0081 1966L7.40336 1962.8C3.24668 1961.05 3.6667 1957.58 4.67848 1954C8.73289 1955.71 17.6343 1957.65 15.7386 1963.69Z" fill="#58BF90" stroke="#329467"/>
<path d="M15.7386 1956.69L15.0081 1959L7.40336 1955.8C3.24668 1954.05 3.6667 1950.58 4.67848 1947C8.73289 1948.71 17.6343 1950.65 15.7386 1956.69Z" fill="#58BF90" stroke="#329467"/>
<path d="M15.7386 1949.69L15.0081 1952L7.40336 1948.8C3.24668 1947.05 3.6667 1943.58 4.67848 1940C8.73289 1941.71 17.6343 1943.65 15.7386 1949.69Z" fill="#58BF90" stroke="#329467"/>
<path d="M15.7386 1942.69L15.0081 1945L7.40336 1941.8C3.24668 1940.05 3.6667 1936.58 4.67848 1933C8.73289 1934.71 17.6343 1936.65 15.7386 1942.69Z" fill="#58BF90" stroke="#329467"/>
<path d="M15.7386 1935.69L15.0081 1938L7.40336 1934.8C3.24668 1933.05 3.6667 1929.58 4.67848 1926C8.73289 1927.71 17.6343 1929.65 15.7386 1935.69Z" fill="#58BF90" stroke="#329467"/>
</g>
<g clip-path="url(#clip21_206_24315)">
<path d="M15.7386 1935.69L15.0081 1938L7.40336 1934.8C3.24668 1933.05 3.6667 1929.58 4.67848 1926C8.73289 1927.71 17.6343 1929.65 15.7386 1935.69Z" fill="#58BF90" stroke="#329467"/>
<path d="M15.7386 1928.69L15.0081 1931L7.40336 1927.8C3.24668 1926.05 3.6667 1922.58 4.67848 1919C8.73289 1920.71 17.6343 1922.65 15.7386 1928.69Z" fill="#58BF90" stroke="#329467"/>
<path d="M15.7386 1921.69L15.0081 1924L7.40336 1920.8C3.24668 1919.05 3.6667 1915.58 4.67848 1912C8.73289 1913.71 17.6343 1915.65 15.7386 1921.69Z" fill="#58BF90" stroke="#329467"/>
<path d="M15.7386 1914.69L15.0081 1917L7.40336 1913.8C3.24668 1912.05 3.6667 1908.58 4.67848 1905C8.73289 1906.71 17.6343 1908.65 15.7386 1914.69Z" fill="#58BF90" stroke="#329467"/>
<path d="M15.7386 1907.69L15.0081 1910L7.40336 1906.8C3.24668 1905.05 3.6667 1901.58 4.67848 1898C8.73289 1899.71 17.6343 1901.65 15.7386 1907.69Z" fill="#58BF90" stroke="#329467"/>
<path d="M15.7386 1900.69L15.0081 1903L7.40336 1899.8C3.24668 1898.05 3.6667 1894.58 4.67848 1891C8.73289 1892.71 17.6343 1894.65 15.7386 1900.69Z" fill="#58BF90" stroke="#329467"/>
<path d="M15.7386 1893.69L15.0081 1896L7.40336 1892.8C3.24668 1891.05 3.6667 1887.58 4.67848 1884C8.73289 1885.71 17.6343 1887.65 15.7386 1893.69Z" fill="#58BF90" stroke="#329467"/>
</g>
<g clip-path="url(#clip22_206_24315)">
<path d="M15.7386 1893.69L15.0081 1896L7.40336 1892.8C3.24668 1891.05 3.6667 1887.58 4.67848 1884C8.73289 1885.71 17.6343 1887.65 15.7386 1893.69Z" fill="#58BF90" stroke="#329467"/>
<path d="M15.7386 1886.69L15.0081 1889L7.40336 1885.8C3.24668 1884.05 3.6667 1880.58 4.67848 1877C8.73289 1878.71 17.6343 1880.65 15.7386 1886.69Z" fill="#58BF90" stroke="#329467"/>
<path d="M15.7386 1879.69L15.0081 1882L7.40336 1878.8C3.24668 1877.05 3.6667 1873.58 4.67848 1870C8.73289 1871.71 17.6343 1873.65 15.7386 1879.69Z" fill="#58BF90" stroke="#329467"/>
<path d="M15.7386 1872.69L15.0081 1875L7.40336 1871.8C3.24668 1870.05 3.6667 1866.58 4.67848 1863C8.73289 1864.71 17.6343 1866.65 15.7386 1872.69Z" fill="#58BF90" stroke="#329467"/>
<path d="M15.7386 1865.69L15.0081 1868L7.40336 1864.8C3.24668 1863.05 3.6667 1859.58 4.67848 1856C8.73289 1857.71 17.6343 1859.65 15.7386 1865.69Z" fill="#58BF90" stroke="#329467"/>
<path d="M15.7386 1858.69L15.0081 1861L7.40336 1857.8C3.24668 1856.05 3.6667 1852.58 4.67848 1849C8.73289 1850.71 17.6343 1852.65 15.7386 1858.69Z" fill="#58BF90" stroke="#329467"/>
<path d="M15.7386 1851.69L15.0081 1854L7.40336 1850.8C3.24668 1849.05 3.6667 1845.58 4.67848 1842C8.73289 1843.71 17.6343 1845.65 15.7386 1851.69Z" fill="#58BF90" stroke="#329467"/>
</g>
<g clip-path="url(#clip23_206_24315)">
<path d="M15.7386 1851.69L15.0081 1854L7.40336 1850.8C3.24668 1849.05 3.6667 1845.58 4.67848 1842C8.73289 1843.71 17.6343 1845.65 15.7386 1851.69Z" fill="#58BF90" stroke="#329467"/>
<path d="M15.7386 1844.69L15.0081 1847L7.40336 1843.8C3.24668 1842.05 3.6667 1838.58 4.67848 1835C8.73289 1836.71 17.6343 1838.65 15.7386 1844.69Z" fill="#58BF90" stroke="#329467"/>
<path d="M15.7386 1837.69L15.0081 1840L7.40336 1836.8C3.24668 1835.05 3.6667 1831.58 4.67848 1828C8.73289 1829.71 17.6343 1831.65 15.7386 1837.69Z" fill="#58BF90" stroke="#329467"/>
<path d="M15.7386 1830.69L15.0081 1833L7.40336 1829.8C3.24668 1828.05 3.6667 1824.58 4.67848 1821C8.73289 1822.71 17.6343 1824.65 15.7386 1830.69Z" fill="#58BF90" stroke="#329467"/>
<path d="M15.7386 1823.69L15.0081 1826L7.40336 1822.8C3.24668 1821.05 3.6667 1817.58 4.67848 1814C8.73289 1815.71 17.6343 1817.65 15.7386 1823.69Z" fill="#58BF90" stroke="#329467"/>
<path d="M15.7386 1816.69L15.0081 1819L7.40336 1815.8C3.24668 1814.05 3.6667 1810.58 4.67848 1807C8.73289 1808.71 17.6343 1810.65 15.7386 1816.69Z" fill="#58BF90" stroke="#329467"/>
<path d="M15.7386 1809.69L15.0081 1812L7.40336 1808.8C3.24668 1807.05 3.6667 1803.58 4.67848 1800C8.73289 1801.71 17.6343 1803.65 15.7386 1809.69Z" fill="#58BF90" stroke="#329467"/>
</g>
<g clip-path="url(#clip24_206_24315)">
<path d="M15.7386 1809.69L15.0081 1812L7.40336 1808.8C3.24668 1807.05 3.6667 1803.58 4.67848 1800C8.73289 1801.71 17.6343 1803.65 15.7386 1809.69Z" fill="#58BF90" stroke="#329467"/>
<path d="M15.7386 1802.69L15.0081 1805L7.40336 1801.8C3.24668 1800.05 3.6667 1796.58 4.67848 1793C8.73289 1794.71 17.6343 1796.65 15.7386 1802.69Z" fill="#58BF90" stroke="#329467"/>
<path d="M15.7386 1795.69L15.0081 1798L7.40336 1794.8C3.24668 1793.05 3.6667 1789.58 4.67848 1786C8.73289 1787.71 17.6343 1789.65 15.7386 1795.69Z" fill="#58BF90" stroke="#329467"/>
<path d="M15.7386 1788.69L15.0081 1791L7.40336 1787.8C3.24668 1786.05 3.6667 1782.58 4.67848 1779C8.73289 1780.71 17.6343 1782.65 15.7386 1788.69Z" fill="#58BF90" stroke="#329467"/>
<path d="M15.7386 1781.69L15.0081 1784L7.40336 1780.8C3.24668 1779.05 3.6667 1775.58 4.67848 1772C8.73289 1773.71 17.6343 1775.65 15.7386 1781.69Z" fill="#58BF90" stroke="#329467"/>
<path d="M15.7386 1774.69L15.0081 1777L7.40336 1773.8C3.24668 1772.05 3.6667 1768.58 4.67848 1765C8.73289 1766.71 17.6343 1768.65 15.7386 1774.69Z" fill="#58BF90" stroke="#329467"/>
<path d="M15.7386 1767.69L15.0081 1770L7.40336 1766.8C3.24668 1765.05 3.6667 1761.58 4.67848 1758C8.73289 1759.71 17.6343 1761.65 15.7386 1767.69Z" fill="#58BF90" stroke="#329467"/>
</g>
<g clip-path="url(#clip25_206_24315)">
<path d="M15.7386 1767.69L15.0081 1770L7.40336 1766.8C3.24668 1765.05 3.6667 1761.58 4.67848 1758C8.73289 1759.71 17.6343 1761.65 15.7386 1767.69Z" fill="#58BF90" stroke="#329467"/>
<path d="M15.7386 1760.69L15.0081 1763L7.40336 1759.8C3.24668 1758.05 3.6667 1754.58 4.67848 1751C8.73289 1752.71 17.6343 1754.65 15.7386 1760.69Z" fill="#58BF90" stroke="#329467"/>
<path d="M15.7386 1753.69L15.0081 1756L7.40336 1752.8C3.24668 1751.05 3.6667 1747.58 4.67848 1744C8.73289 1745.71 17.6343 1747.65 15.7386 1753.69Z" fill="#58BF90" stroke="#329467"/>
<path d="M15.7386 1746.69L15.0081 1749L7.40336 1745.8C3.24668 1744.05 3.6667 1740.58 4.67848 1737C8.73289 1738.71 17.6343 1740.65 15.7386 1746.69Z" fill="#58BF90" stroke="#329467"/>
<path d="M15.7386 1739.69L15.0081 1742L7.40336 1738.8C3.24668 1737.05 3.6667 1733.58 4.67848 1730C8.73289 1731.71 17.6343 1733.65 15.7386 1739.69Z" fill="#58BF90" stroke="#329467"/>
<path d="M15.7386 1732.69L15.0081 1735L7.40336 1731.8C3.24668 1730.05 3.6667 1726.58 4.67848 1723C8.73289 1724.71 17.6343 1726.65 15.7386 1732.69Z" fill="#58BF90" stroke="#329467"/>
<path d="M15.7386 1725.69L15.0081 1728L7.40336 1724.8C3.24668 1723.05 3.6667 1719.58 4.67848 1716C8.73289 1717.71 17.6343 1719.65 15.7386 1725.69Z" fill="#58BF90" stroke="#329467"/>
</g>
<g clip-path="url(#clip26_206_24315)">
<path d="M15.7386 1725.69L15.0081 1728L7.40336 1724.8C3.24668 1723.05 3.6667 1719.58 4.67848 1716C8.73289 1717.71 17.6343 1719.65 15.7386 1725.69Z" fill="#58BF90" stroke="#329467"/>
<path d="M15.7386 1718.69L15.0081 1721L7.40336 1717.8C3.24668 1716.05 3.6667 1712.58 4.67848 1709C8.73289 1710.71 17.6343 1712.65 15.7386 1718.69Z" fill="#58BF90" stroke="#329467"/>
<path d="M15.7386 1711.69L15.0081 1714L7.40336 1710.8C3.24668 1709.05 3.6667 1705.58 4.67848 1702C8.73289 1703.71 17.6343 1705.65 15.7386 1711.69Z" fill="#58BF90" stroke="#329467"/>
<path d="M15.7386 1704.69L15.0081 1707L7.40336 1703.8C3.24668 1702.05 3.6667 1698.58 4.67848 1695C8.73289 1696.71 17.6343 1698.65 15.7386 1704.69Z" fill="#58BF90" stroke="#329467"/>
<path d="M15.7386 1697.69L15.0081 1700L7.40336 1696.8C3.24668 1695.05 3.6667 1691.58 4.67848 1688C8.73289 1689.71 17.6343 1691.65 15.7386 1697.69Z" fill="#58BF90" stroke="#329467"/>
<path d="M15.7386 1690.69L15.0081 1693L7.40336 1689.8C3.24668 1688.05 3.6667 1684.58 4.67848 1681C8.73289 1682.71 17.6343 1684.65 15.7386 1690.69Z" fill="#58BF90" stroke="#329467"/>
<path d="M15.7386 1683.69L15.0081 1686L7.40336 1682.8C3.24668 1681.05 3.6667 1677.58 4.67848 1674C8.73289 1675.71 17.6343 1677.65 15.7386 1683.69Z" fill="#58BF90" stroke="#329467"/>
</g>
<g clip-path="url(#clip27_206_24315)">
<path d="M15.7386 1683.69L15.0081 1686L7.40336 1682.8C3.24668 1681.05 3.6667 1677.58 4.67848 1674C8.73289 1675.71 17.6343 1677.65 15.7386 1683.69Z" fill="#58BF90" stroke="#329467"/>
<path d="M15.7386 1676.69L15.0081 1679L7.40336 1675.8C3.24668 1674.05 3.6667 1670.58 4.67848 1667C8.73289 1668.71 17.6343 1670.65 15.7386 1676.69Z" fill="#58BF90" stroke="#329467"/>
<path d="M15.7386 1669.69L15.0081 1672L7.40336 1668.8C3.24668 1667.05 3.6667 1663.58 4.67848 1660C8.73289 1661.71 17.6343 1663.65 15.7386 1669.69Z" fill="#58BF90" stroke="#329467"/>
<path d="M15.7386 1662.69L15.0081 1665L7.40336 1661.8C3.24668 1660.05 3.6667 1656.58 4.67848 1653C8.73289 1654.71 17.6343 1656.65 15.7386 1662.69Z" fill="#58BF90" stroke="#329467"/>
<path d="M15.7386 1655.69L15.0081 1658L7.40336 1654.8C3.24668 1653.05 3.6667 1649.58 4.67848 1646C8.73289 1647.71 17.6343 1649.65 15.7386 1655.69Z" fill="#58BF90" stroke="#329467"/>
<path d="M15.7386 1648.69L15.0081 1651L7.40336 1647.8C3.24668 1646.05 3.6667 1642.58 4.67848 1639C8.73289 1640.71 17.6343 1642.65 15.7386 1648.69Z" fill="#58BF90" stroke="#329467"/>
<path d="M15.7386 1641.69L15.0081 1644L7.40336 1640.8C3.24668 1639.05 3.6667 1635.58 4.67848 1632C8.73289 1633.71 17.6343 1635.65 15.7386 1641.69Z" fill="#58BF90" stroke="#329467"/>
</g>
<g clip-path="url(#clip28_206_24315)">
<path d="M15.7386 1641.69L15.0081 1644L7.40336 1640.8C3.24668 1639.05 3.6667 1635.58 4.67848 1632C8.73289 1633.71 17.6343 1635.65 15.7386 1641.69Z" fill="#58BF90" stroke="#329467"/>
<path d="M15.7386 1634.69L15.0081 1637L7.40336 1633.8C3.24668 1632.05 3.6667 1628.58 4.67848 1625C8.73289 1626.71 17.6343 1628.65 15.7386 1634.69Z" fill="#58BF90" stroke="#329467"/>
<path d="M15.7386 1627.69L15.0081 1630L7.40336 1626.8C3.24668 1625.05 3.6667 1621.58 4.67848 1618C8.73289 1619.71 17.6343 1621.65 15.7386 1627.69Z" fill="#58BF90" stroke="#329467"/>
<path d="M15.7386 1620.69L15.0081 1623L7.40336 1619.8C3.24668 1618.05 3.6667 1614.58 4.67848 1611C8.73289 1612.71 17.6343 1614.65 15.7386 1620.69Z" fill="#58BF90" stroke="#329467"/>
<path d="M15.7386 1613.69L15.0081 1616L7.40336 1612.8C3.24668 1611.05 3.6667 1607.58 4.67848 1604C8.73289 1605.71 17.6343 1607.65 15.7386 1613.69Z" fill="#58BF90" stroke="#329467"/>
<path d="M15.7386 1606.69L15.0081 1609L7.40336 1605.8C3.24668 1604.05 3.6667 1600.58 4.67848 1597C8.73289 1598.71 17.6343 1600.65 15.7386 1606.69Z" fill="#58BF90" stroke="#329467"/>
<path d="M15.7386 1599.69L15.0081 1602L7.40336 1598.8C3.24668 1597.05 3.6667 1593.58 4.67848 1590C8.73289 1591.71 17.6343 1593.65 15.7386 1599.69Z" fill="#58BF90" stroke="#329467"/>
</g>
<g clip-path="url(#clip29_206_24315)">
<path d="M15.7386 1599.69L15.0081 1602L7.40336 1598.8C3.24668 1597.05 3.6667 1593.58 4.67848 1590C8.73289 1591.71 17.6343 1593.65 15.7386 1599.69Z" fill="#58BF90" stroke="#329467"/>
<path d="M15.7386 1592.69L15.0081 1595L7.40336 1591.8C3.24668 1590.05 3.6667 1586.58 4.67848 1583C8.73289 1584.71 17.6343 1586.65 15.7386 1592.69Z" fill="#58BF90" stroke="#329467"/>
<path d="M15.7386 1585.69L15.0081 1588L7.40336 1584.8C3.24668 1583.05 3.6667 1579.58 4.67848 1576C8.73289 1577.71 17.6343 1579.65 15.7386 1585.69Z" fill="#58BF90" stroke="#329467"/>
<path d="M15.7386 1578.69L15.0081 1581L7.40336 1577.8C3.24668 1576.05 3.6667 1572.58 4.67848 1569C8.73289 1570.71 17.6343 1572.65 15.7386 1578.69Z" fill="#58BF90" stroke="#329467"/>
<path d="M15.7386 1571.69L15.0081 1574L7.40336 1570.8C3.24668 1569.05 3.6667 1565.58 4.67848 1562C8.73289 1563.71 17.6343 1565.65 15.7386 1571.69Z" fill="#58BF90" stroke="#329467"/>
<path d="M15.7386 1564.69L15.0081 1567L7.40336 1563.8C3.24668 1562.05 3.6667 1558.58 4.67848 1555C8.73289 1556.71 17.6343 1558.65 15.7386 1564.69Z" fill="#58BF90" stroke="#329467"/>
<path d="M15.7386 1557.69L15.0081 1560L7.40336 1556.8C3.24668 1555.05 3.6667 1551.58 4.67848 1548C8.73289 1549.71 17.6343 1551.65 15.7386 1557.69Z" fill="#58BF90" stroke="#329467"/>
</g>
<g clip-path="url(#clip30_206_24315)">
<path d="M15.7386 1557.69L15.0081 1560L7.40336 1556.8C3.24668 1555.05 3.6667 1551.58 4.67848 1548C8.73289 1549.71 17.6343 1551.65 15.7386 1557.69Z" fill="#58BF90" stroke="#329467"/>
<path d="M15.7386 1550.69L15.0081 1553L7.40336 1549.8C3.24668 1548.05 3.6667 1544.58 4.67848 1541C8.73289 1542.71 17.6343 1544.65 15.7386 1550.69Z" fill="#58BF90" stroke="#329467"/>
<path d="M15.7386 1543.69L15.0081 1546L7.40336 1542.8C3.24668 1541.05 3.6667 1537.58 4.67848 1534C8.73289 1535.71 17.6343 1537.65 15.7386 1543.69Z" fill="#58BF90" stroke="#329467"/>
<path d="M15.7386 1536.69L15.0081 1539L7.40336 1535.8C3.24668 1534.05 3.6667 1530.58 4.67848 1527C8.73289 1528.71 17.6343 1530.65 15.7386 1536.69Z" fill="#58BF90" stroke="#329467"/>
<path d="M15.7386 1529.69L15.0081 1532L7.40336 1528.8C3.24668 1527.05 3.6667 1523.58 4.67848 1520C8.73289 1521.71 17.6343 1523.65 15.7386 1529.69Z" fill="#58BF90" stroke="#329467"/>
<path d="M15.7386 1522.69L15.0081 1525L7.40336 1521.8C3.24668 1520.05 3.6667 1516.58 4.67848 1513C8.73289 1514.71 17.6343 1516.65 15.7386 1522.69Z" fill="#58BF90" stroke="#329467"/>
<path d="M15.7386 1515.69L15.0081 1518L7.40336 1514.8C3.24668 1513.05 3.6667 1509.58 4.67848 1506C8.73289 1507.71 17.6343 1509.65 15.7386 1515.69Z" fill="#58BF90" stroke="#329467"/>
</g>
<g clip-path="url(#clip31_206_24315)">
<path d="M15.7386 1515.69L15.0081 1518L7.40336 1514.8C3.24668 1513.05 3.6667 1509.58 4.67848 1506C8.73289 1507.71 17.6343 1509.65 15.7386 1515.69Z" fill="#58BF90" stroke="#329467"/>
<path d="M15.7386 1508.69L15.0081 1511L7.40336 1507.8C3.24668 1506.05 3.6667 1502.58 4.67848 1499C8.73289 1500.71 17.6343 1502.65 15.7386 1508.69Z" fill="#58BF90" stroke="#329467"/>
<path d="M15.7386 1501.69L15.0081 1504L7.40336 1500.8C3.24668 1499.05 3.6667 1495.58 4.67848 1492C8.73289 1493.71 17.6343 1495.65 15.7386 1501.69Z" fill="#58BF90" stroke="#329467"/>
<path d="M15.7386 1494.69L15.0081 1497L7.40336 1493.8C3.24668 1492.05 3.6667 1488.58 4.67848 1485C8.73289 1486.71 17.6343 1488.65 15.7386 1494.69Z" fill="#58BF90" stroke="#329467"/>
<path d="M15.7386 1487.69L15.0081 1490L7.40336 1486.8C3.24668 1485.05 3.6667 1481.58 4.67848 1478C8.73289 1479.71 17.6343 1481.65 15.7386 1487.69Z" fill="#58BF90" stroke="#329467"/>
<path d="M15.7386 1480.69L15.0081 1483L7.40336 1479.8C3.24668 1478.05 3.6667 1474.58 4.67848 1471C8.73289 1472.71 17.6343 1474.65 15.7386 1480.69Z" fill="#58BF90" stroke="#329467"/>
<path d="M15.7386 1473.69L15.0081 1476L7.40336 1472.8C3.24668 1471.05 3.6667 1467.58 4.67848 1464C8.73289 1465.71 17.6343 1467.65 15.7386 1473.69Z" fill="#58BF90" stroke="#329467"/>
</g>
<g clip-path="url(#clip32_206_24315)">
<path d="M15.7386 1473.69L15.0081 1476L7.40336 1472.8C3.24668 1471.05 3.6667 1467.58 4.67848 1464C8.73289 1465.71 17.6343 1467.65 15.7386 1473.69Z" fill="#58BF90" stroke="#329467"/>
<path d="M15.7386 1466.69L15.0081 1469L7.40336 1465.8C3.24668 1464.05 3.6667 1460.58 4.67848 1457C8.73289 1458.71 17.6343 1460.65 15.7386 1466.69Z" fill="#58BF90" stroke="#329467"/>
<path d="M15.7386 1459.69L15.0081 1462L7.40336 1458.8C3.24668 1457.05 3.6667 1453.58 4.67848 1450C8.73289 1451.71 17.6343 1453.65 15.7386 1459.69Z" fill="#58BF90" stroke="#329467"/>
<path d="M15.7386 1452.69L15.0081 1455L7.40336 1451.8C3.24668 1450.05 3.6667 1446.58 4.67848 1443C8.73289 1444.71 17.6343 1446.65 15.7386 1452.69Z" fill="#58BF90" stroke="#329467"/>
<path d="M15.7386 1445.69L15.0081 1448L7.40336 1444.8C3.24668 1443.05 3.6667 1439.58 4.67848 1436C8.73289 1437.71 17.6343 1439.65 15.7386 1445.69Z" fill="#58BF90" stroke="#329467"/>
<path d="M15.7386 1438.69L15.0081 1441L7.40336 1437.8C3.24668 1436.05 3.6667 1432.58 4.67848 1429C8.73289 1430.71 17.6343 1432.65 15.7386 1438.69Z" fill="#58BF90" stroke="#329467"/>
<path d="M15.7386 1431.69L15.0081 1434L7.40336 1430.8C3.24668 1429.05 3.6667 1425.58 4.67848 1422C8.73289 1423.71 17.6343 1425.65 15.7386 1431.69Z" fill="#58BF90" stroke="#329467"/>
</g>
<g clip-path="url(#clip33_206_24315)">
<path d="M15.7386 1431.69L15.0081 1434L7.40336 1430.8C3.24668 1429.05 3.6667 1425.58 4.67848 1422C8.73289 1423.71 17.6343 1425.65 15.7386 1431.69Z" fill="#58BF90" stroke="#329467"/>
<path d="M15.7386 1424.69L15.0081 1427L7.40336 1423.8C3.24668 1422.05 3.6667 1418.58 4.67848 1415C8.73289 1416.71 17.6343 1418.65 15.7386 1424.69Z" fill="#58BF90" stroke="#329467"/>
<path d="M15.7386 1417.69L15.0081 1420L7.40336 1416.8C3.24668 1415.05 3.6667 1411.58 4.67848 1408C8.73289 1409.71 17.6343 1411.65 15.7386 1417.69Z" fill="#58BF90" stroke="#329467"/>
<path d="M15.7386 1410.69L15.0081 1413L7.40336 1409.8C3.24668 1408.05 3.6667 1404.58 4.67848 1401C8.73289 1402.71 17.6343 1404.65 15.7386 1410.69Z" fill="#58BF90" stroke="#329467"/>
<path d="M15.7386 1403.69L15.0081 1406L7.40336 1402.8C3.24668 1401.05 3.6667 1397.58 4.67848 1394C8.73289 1395.71 17.6343 1397.65 15.7386 1403.69Z" fill="#58BF90" stroke="#329467"/>
<path d="M15.7386 1396.69L15.0081 1399L7.40336 1395.8C3.24668 1394.05 3.6667 1390.58 4.67848 1387C8.73289 1388.71 17.6343 1390.65 15.7386 1396.69Z" fill="#58BF90" stroke="#329467"/>
<path d="M15.7386 1389.69L15.0081 1392L7.40336 1388.8C3.24668 1387.05 3.6667 1383.58 4.67848 1380C8.73289 1381.71 17.6343 1383.65 15.7386 1389.69Z" fill="#58BF90" stroke="#329467"/>
</g>
<g clip-path="url(#clip34_206_24315)">
<path d="M15.7386 1389.69L15.0081 1392L7.40336 1388.8C3.24668 1387.05 3.6667 1383.58 4.67848 1380C8.73289 1381.71 17.6343 1383.65 15.7386 1389.69Z" fill="#58BF90" stroke="#329467"/>
<path d="M15.7386 1382.69L15.0081 1385L7.40336 1381.8C3.24668 1380.05 3.6667 1376.58 4.67848 1373C8.73289 1374.71 17.6343 1376.65 15.7386 1382.69Z" fill="#58BF90" stroke="#329467"/>
<path d="M15.7386 1375.69L15.0081 1378L7.40336 1374.8C3.24668 1373.05 3.6667 1369.58 4.67848 1366C8.73289 1367.71 17.6343 1369.65 15.7386 1375.69Z" fill="#58BF90" stroke="#329467"/>
<path d="M15.7386 1368.69L15.0081 1371L7.40336 1367.8C3.24668 1366.05 3.6667 1362.58 4.67848 1359C8.73289 1360.71 17.6343 1362.65 15.7386 1368.69Z" fill="#58BF90" stroke="#329467"/>
<path d="M15.7386 1361.69L15.0081 1364L7.40336 1360.8C3.24668 1359.05 3.6667 1355.58 4.67848 1352C8.73289 1353.71 17.6343 1355.65 15.7386 1361.69Z" fill="#58BF90" stroke="#329467"/>
<path d="M15.7386 1354.69L15.0081 1357L7.40336 1353.8C3.24668 1352.05 3.6667 1348.58 4.67848 1345C8.73289 1346.71 17.6343 1348.65 15.7386 1354.69Z" fill="#58BF90" stroke="#329467"/>
<path d="M15.7386 1347.69L15.0081 1350L7.40336 1346.8C3.24668 1345.05 3.6667 1341.58 4.67848 1338C8.73289 1339.71 17.6343 1341.65 15.7386 1347.69Z" fill="#58BF90" stroke="#329467"/>
</g>
<g clip-path="url(#clip35_206_24315)">
<path d="M15.7386 1347.69L15.0081 1350L7.40336 1346.8C3.24668 1345.05 3.6667 1341.58 4.67848 1338C8.73289 1339.71 17.6343 1341.65 15.7386 1347.69Z" fill="#58BF90" stroke="#329467"/>
<path d="M15.7386 1340.69L15.0081 1343L7.40336 1339.8C3.24668 1338.05 3.6667 1334.58 4.67848 1331C8.73289 1332.71 17.6343 1334.65 15.7386 1340.69Z" fill="#58BF90" stroke="#329467"/>
<path d="M15.7386 1333.69L15.0081 1336L7.40336 1332.8C3.24668 1331.05 3.6667 1327.58 4.67848 1324C8.73289 1325.71 17.6343 1327.65 15.7386 1333.69Z" fill="#58BF90" stroke="#329467"/>
<path d="M15.7386 1326.69L15.0081 1329L7.40336 1325.8C3.24668 1324.05 3.6667 1320.58 4.67848 1317C8.73289 1318.71 17.6343 1320.65 15.7386 1326.69Z" fill="#58BF90" stroke="#329467"/>
<path d="M15.7386 1319.69L15.0081 1322L7.40336 1318.8C3.24668 1317.05 3.6667 1313.58 4.67848 1310C8.73289 1311.71 17.6343 1313.65 15.7386 1319.69Z" fill="#58BF90" stroke="#329467"/>
<path d="M15.7386 1312.69L15.0081 1315L7.40336 1311.8C3.24668 1310.05 3.6667 1306.58 4.67848 1303C8.73289 1304.71 17.6343 1306.65 15.7386 1312.69Z" fill="#58BF90" stroke="#329467"/>
<path d="M15.7386 1305.69L15.0081 1308L7.40336 1304.8C3.24668 1303.05 3.6667 1299.58 4.67848 1296C8.73289 1297.71 17.6343 1299.65 15.7386 1305.69Z" fill="#58BF90" stroke="#329467"/>
</g>
<g clip-path="url(#clip36_206_24315)">
<path d="M15.7386 1305.69L15.0081 1308L7.40336 1304.8C3.24668 1303.05 3.6667 1299.58 4.67848 1296C8.73289 1297.71 17.6343 1299.65 15.7386 1305.69Z" fill="#58BF90" stroke="#329467"/>
<path d="M15.7386 1298.69L15.0081 1301L7.40336 1297.8C3.24668 1296.05 3.6667 1292.58 4.67848 1289C8.73289 1290.71 17.6343 1292.65 15.7386 1298.69Z" fill="#58BF90" stroke="#329467"/>
<path d="M15.7386 1291.69L15.0081 1294L7.40336 1290.8C3.24668 1289.05 3.6667 1285.58 4.67848 1282C8.73289 1283.71 17.6343 1285.65 15.7386 1291.69Z" fill="#58BF90" stroke="#329467"/>
<path d="M15.7386 1284.69L15.0081 1287L7.40336 1283.8C3.24668 1282.05 3.6667 1278.58 4.67848 1275C8.73289 1276.71 17.6343 1278.65 15.7386 1284.69Z" fill="#58BF90" stroke="#329467"/>
<path d="M15.7386 1277.69L15.0081 1280L7.40336 1276.8C3.24668 1275.05 3.6667 1271.58 4.67848 1268C8.73289 1269.71 17.6343 1271.65 15.7386 1277.69Z" fill="#58BF90" stroke="#329467"/>
<path d="M15.7386 1270.69L15.0081 1273L7.40336 1269.8C3.24668 1268.05 3.6667 1264.58 4.67848 1261C8.73289 1262.71 17.6343 1264.65 15.7386 1270.69Z" fill="#58BF90" stroke="#329467"/>
<path d="M15.7386 1263.69L15.0081 1266L7.40336 1262.8C3.24668 1261.05 3.6667 1257.58 4.67848 1254C8.73289 1255.71 17.6343 1257.65 15.7386 1263.69Z" fill="#58BF90" stroke="#329467"/>
</g>
<g clip-path="url(#clip37_206_24315)">
<path d="M15.7386 1263.69L15.0081 1266L7.40336 1262.8C3.24668 1261.05 3.6667 1257.58 4.67848 1254C8.73289 1255.71 17.6343 1257.65 15.7386 1263.69Z" fill="#58BF90" stroke="#329467"/>
<path d="M15.7386 1256.69L15.0081 1259L7.40336 1255.8C3.24668 1254.05 3.6667 1250.58 4.67848 1247C8.73289 1248.71 17.6343 1250.65 15.7386 1256.69Z" fill="#58BF90" stroke="#329467"/>
<path d="M15.7386 1249.69L15.0081 1252L7.40336 1248.8C3.24668 1247.05 3.6667 1243.58 4.67848 1240C8.73289 1241.71 17.6343 1243.65 15.7386 1249.69Z" fill="#58BF90" stroke="#329467"/>
<path d="M15.7386 1242.69L15.0081 1245L7.40336 1241.8C3.24668 1240.05 3.6667 1236.58 4.67848 1233C8.73289 1234.71 17.6343 1236.65 15.7386 1242.69Z" fill="#58BF90" stroke="#329467"/>
<path d="M15.7386 1235.69L15.0081 1238L7.40336 1234.8C3.24668 1233.05 3.6667 1229.58 4.67848 1226C8.73289 1227.71 17.6343 1229.65 15.7386 1235.69Z" fill="#58BF90" stroke="#329467"/>
<path d="M15.7386 1228.69L15.0081 1231L7.40336 1227.8C3.24668 1226.05 3.6667 1222.58 4.67848 1219C8.73289 1220.71 17.6343 1222.65 15.7386 1228.69Z" fill="#58BF90" stroke="#329467"/>
<path d="M15.7386 1221.69L15.0081 1224L7.40336 1220.8C3.24668 1219.05 3.6667 1215.58 4.67848 1212C8.73289 1213.71 17.6343 1215.65 15.7386 1221.69Z" fill="#58BF90" stroke="#329467"/>
</g>
<g clip-path="url(#clip38_206_24315)">
<path d="M15.7386 1221.69L15.0081 1224L7.40336 1220.8C3.24668 1219.05 3.6667 1215.58 4.67848 1212C8.73289 1213.71 17.6343 1215.65 15.7386 1221.69Z" fill="#58BF90" stroke="#329467"/>
<path d="M15.7386 1214.69L15.0081 1217L7.40336 1213.8C3.24668 1212.05 3.6667 1208.58 4.67848 1205C8.73289 1206.71 17.6343 1208.65 15.7386 1214.69Z" fill="#58BF90" stroke="#329467"/>
<path d="M15.7386 1207.69L15.0081 1210L7.40336 1206.8C3.24668 1205.05 3.6667 1201.58 4.67848 1198C8.73289 1199.71 17.6343 1201.65 15.7386 1207.69Z" fill="#58BF90" stroke="#329467"/>
<path d="M15.7386 1200.69L15.0081 1203L7.40336 1199.8C3.24668 1198.05 3.6667 1194.58 4.67848 1191C8.73289 1192.71 17.6343 1194.65 15.7386 1200.69Z" fill="#58BF90" stroke="#329467"/>
<path d="M15.7386 1193.69L15.0081 1196L7.40336 1192.8C3.24668 1191.05 3.6667 1187.58 4.67848 1184C8.73289 1185.71 17.6343 1187.65 15.7386 1193.69Z" fill="#58BF90" stroke="#329467"/>
<path d="M15.7386 1186.69L15.0081 1189L7.40336 1185.8C3.24668 1184.05 3.6667 1180.58 4.67848 1177C8.73289 1178.71 17.6343 1180.65 15.7386 1186.69Z" fill="#58BF90" stroke="#329467"/>
<path d="M15.7386 1179.69L15.0081 1182L7.40336 1178.8C3.24668 1177.05 3.6667 1173.58 4.67848 1170C8.73289 1171.71 17.6343 1173.65 15.7386 1179.69Z" fill="#58BF90" stroke="#329467"/>
</g>
<g clip-path="url(#clip39_206_24315)">
<path d="M15.7386 1179.69L15.0081 1182L7.40336 1178.8C3.24668 1177.05 3.6667 1173.58 4.67848 1170C8.73289 1171.71 17.6343 1173.65 15.7386 1179.69Z" fill="#58BF90" stroke="#329467"/>
<path d="M15.7386 1172.69L15.0081 1175L7.40336 1171.8C3.24668 1170.05 3.6667 1166.58 4.67848 1163C8.73289 1164.71 17.6343 1166.65 15.7386 1172.69Z" fill="#58BF90" stroke="#329467"/>
<path d="M15.7386 1165.69L15.0081 1168L7.40336 1164.8C3.24668 1163.05 3.6667 1159.58 4.67848 1156C8.73289 1157.71 17.6343 1159.65 15.7386 1165.69Z" fill="#58BF90" stroke="#329467"/>
<path d="M15.7386 1158.69L15.0081 1161L7.40336 1157.8C3.24668 1156.05 3.6667 1152.58 4.67848 1149C8.73289 1150.71 17.6343 1152.65 15.7386 1158.69Z" fill="#58BF90" stroke="#329467"/>
<path d="M15.7386 1151.69L15.0081 1154L7.40336 1150.8C3.24668 1149.05 3.6667 1145.58 4.67848 1142C8.73289 1143.71 17.6343 1145.65 15.7386 1151.69Z" fill="#58BF90" stroke="#329467"/>
<path d="M15.7386 1144.69L15.0081 1147L7.40336 1143.8C3.24668 1142.05 3.6667 1138.58 4.67848 1135C8.73289 1136.71 17.6343 1138.65 15.7386 1144.69Z" fill="#58BF90" stroke="#329467"/>
<path d="M15.7386 1137.69L15.0081 1140L7.40336 1136.8C3.24668 1135.05 3.6667 1131.58 4.67848 1128C8.73289 1129.71 17.6343 1131.65 15.7386 1137.69Z" fill="#58BF90" stroke="#329467"/>
</g>
<g clip-path="url(#clip40_206_24315)">
<path d="M15.7386 1137.69L15.0081 1140L7.40336 1136.8C3.24668 1135.05 3.6667 1131.58 4.67848 1128C8.73289 1129.71 17.6343 1131.65 15.7386 1137.69Z" fill="#58BF90" stroke="#329467"/>
<path d="M15.7386 1130.69L15.0081 1133L7.40336 1129.8C3.24668 1128.05 3.6667 1124.58 4.67848 1121C8.73289 1122.71 17.6343 1124.65 15.7386 1130.69Z" fill="#58BF90" stroke="#329467"/>
<path d="M15.7386 1123.69L15.0081 1126L7.40336 1122.8C3.24668 1121.05 3.6667 1117.58 4.67848 1114C8.73289 1115.71 17.6343 1117.65 15.7386 1123.69Z" fill="#58BF90" stroke="#329467"/>
<path d="M15.7386 1116.69L15.0081 1119L7.40336 1115.8C3.24668 1114.05 3.6667 1110.58 4.67848 1107C8.73289 1108.71 17.6343 1110.65 15.7386 1116.69Z" fill="#58BF90" stroke="#329467"/>
<path d="M15.7386 1109.69L15.0081 1112L7.40336 1108.8C3.24668 1107.05 3.6667 1103.58 4.67848 1100C8.73289 1101.71 17.6343 1103.65 15.7386 1109.69Z" fill="#58BF90" stroke="#329467"/>
<path d="M15.7386 1102.69L15.0081 1105L7.40336 1101.8C3.24668 1100.05 3.6667 1096.58 4.67848 1093C8.73289 1094.71 17.6343 1096.65 15.7386 1102.69Z" fill="#58BF90" stroke="#329467"/>
<path d="M15.7386 1095.69L15.0081 1098L7.40336 1094.8C3.24668 1093.05 3.6667 1089.58 4.67848 1086C8.73289 1087.71 17.6343 1089.65 15.7386 1095.69Z" fill="#58BF90" stroke="#329467"/>
</g>
<g clip-path="url(#clip41_206_24315)">
<path d="M15.7386 1095.69L15.0081 1098L7.40336 1094.8C3.24668 1093.05 3.6667 1089.58 4.67848 1086C8.73289 1087.71 17.6343 1089.65 15.7386 1095.69Z" fill="#58BF90" stroke="#329467"/>
<path d="M15.7386 1088.69L15.0081 1091L7.40336 1087.8C3.24668 1086.05 3.6667 1082.58 4.67848 1079C8.73289 1080.71 17.6343 1082.65 15.7386 1088.69Z" fill="#58BF90" stroke="#329467"/>
<path d="M15.7386 1081.69L15.0081 1084L7.40336 1080.8C3.24668 1079.05 3.6667 1075.58 4.67848 1072C8.73289 1073.71 17.6343 1075.65 15.7386 1081.69Z" fill="#58BF90" stroke="#329467"/>
<path d="M15.7386 1074.69L15.0081 1077L7.40336 1073.8C3.24668 1072.05 3.6667 1068.58 4.67848 1065C8.73289 1066.71 17.6343 1068.65 15.7386 1074.69Z" fill="#58BF90" stroke="#329467"/>
<path d="M15.7386 1067.69L15.0081 1070L7.40336 1066.8C3.24668 1065.05 3.6667 1061.58 4.67848 1058C8.73289 1059.71 17.6343 1061.65 15.7386 1067.69Z" fill="#58BF90" stroke="#329467"/>
<path d="M15.7386 1060.69L15.0081 1063L7.40336 1059.8C3.24668 1058.05 3.6667 1054.58 4.67848 1051C8.73289 1052.71 17.6343 1054.65 15.7386 1060.69Z" fill="#58BF90" stroke="#329467"/>
<path d="M15.7386 1053.69L15.0081 1056L7.40336 1052.8C3.24668 1051.05 3.6667 1047.58 4.67848 1044C8.73289 1045.71 17.6343 1047.65 15.7386 1053.69Z" fill="#58BF90" stroke="#329467"/>
</g>
<g clip-path="url(#clip42_206_24315)">
<path d="M15.7386 1053.69L15.0081 1056L7.40336 1052.8C3.24668 1051.05 3.6667 1047.58 4.67848 1044C8.73289 1045.71 17.6343 1047.65 15.7386 1053.69Z" fill="#58BF90" stroke="#329467"/>
<path d="M15.7386 1046.69L15.0081 1049L7.40336 1045.8C3.24668 1044.05 3.6667 1040.58 4.67848 1037C8.73289 1038.71 17.6343 1040.65 15.7386 1046.69Z" fill="#58BF90" stroke="#329467"/>
<path d="M15.7386 1039.69L15.0081 1042L7.40336 1038.8C3.24668 1037.05 3.6667 1033.58 4.67848 1030C8.73289 1031.71 17.6343 1033.65 15.7386 1039.69Z" fill="#58BF90" stroke="#329467"/>
<path d="M15.7386 1032.69L15.0081 1035L7.40336 1031.8C3.24668 1030.05 3.6667 1026.58 4.67848 1023C8.73289 1024.71 17.6343 1026.65 15.7386 1032.69Z" fill="#58BF90" stroke="#329467"/>
<path d="M15.7386 1025.69L15.0081 1028L7.40336 1024.8C3.24668 1023.05 3.6667 1019.58 4.67848 1016C8.73289 1017.71 17.6343 1019.65 15.7386 1025.69Z" fill="#58BF90" stroke="#329467"/>
<path d="M15.7386 1018.69L15.0081 1021L7.40336 1017.8C3.24668 1016.05 3.6667 1012.58 4.67848 1009C8.73289 1010.71 17.6343 1012.65 15.7386 1018.69Z" fill="#58BF90" stroke="#329467"/>
<path d="M15.7386 1011.69L15.0081 1014L7.40336 1010.8C3.24668 1009.05 3.6667 1005.58 4.67848 1002C8.73289 1003.71 17.6343 1005.65 15.7386 1011.69Z" fill="#58BF90" stroke="#329467"/>
</g>
<g clip-path="url(#clip43_206_24315)">
<path d="M15.7386 1011.69L15.0081 1014L7.40336 1010.8C3.24668 1009.05 3.6667 1005.58 4.67848 1002C8.73289 1003.71 17.6343 1005.65 15.7386 1011.69Z" fill="#58BF90" stroke="#329467"/>
<path d="M15.7386 1004.69L15.0081 1007L7.40336 1003.8C3.24668 1002.05 3.6667 998.576 4.67848 995C8.73289 996.713 17.6343 998.654 15.7386 1004.69Z" fill="#58BF90" stroke="#329467"/>
<path d="M15.7386 997.69L15.0081 1000L7.40336 996.8C3.24668 995.048 3.6667 991.576 4.67848 988C8.73289 989.713 17.6343 991.654 15.7386 997.69Z" fill="#58BF90" stroke="#329467"/>
<path d="M15.7386 990.69L15.0081 993L7.40336 989.8C3.24668 988.048 3.6667 984.576 4.67848 981C8.73289 982.713 17.6343 984.654 15.7386 990.69Z" fill="#58BF90" stroke="#329467"/>
<path d="M15.7386 983.69L15.0081 986L7.40336 982.8C3.24668 981.048 3.6667 977.576 4.67848 974C8.73289 975.713 17.6343 977.654 15.7386 983.69Z" fill="#58BF90" stroke="#329467"/>
<path d="M15.7386 976.69L15.0081 979L7.40336 975.8C3.24668 974.048 3.6667 970.576 4.67848 967C8.73289 968.713 17.6343 970.654 15.7386 976.69Z" fill="#58BF90" stroke="#329467"/>
<path d="M15.7386 969.69L15.0081 972L7.40336 968.8C3.24668 967.048 3.6667 963.576 4.67848 960C8.73289 961.713 17.6343 963.654 15.7386 969.69Z" fill="#58BF90" stroke="#329467"/>
</g>
<g clip-path="url(#clip44_206_24315)">
<path d="M15.7386 969.69L15.0081 972L7.40336 968.8C3.24668 967.048 3.6667 963.576 4.67848 960C8.73289 961.713 17.6343 963.654 15.7386 969.69Z" fill="#58BF90" stroke="#329467"/>
<path d="M15.7386 962.69L15.0081 965L7.40336 961.8C3.24668 960.048 3.6667 956.576 4.67848 953C8.73289 954.713 17.6343 956.654 15.7386 962.69Z" fill="#58BF90" stroke="#329467"/>
<path d="M15.7386 955.69L15.0081 958L7.40336 954.8C3.24668 953.048 3.6667 949.576 4.67848 946C8.73289 947.713 17.6343 949.654 15.7386 955.69Z" fill="#58BF90" stroke="#329467"/>
<path d="M15.7386 948.69L15.0081 951L7.40336 947.8C3.24668 946.048 3.6667 942.576 4.67848 939C8.73289 940.713 17.6343 942.654 15.7386 948.69Z" fill="#58BF90" stroke="#329467"/>
<path d="M15.7386 941.69L15.0081 944L7.40336 940.8C3.24668 939.048 3.6667 935.576 4.67848 932C8.73289 933.713 17.6343 935.654 15.7386 941.69Z" fill="#58BF90" stroke="#329467"/>
<path d="M15.7386 934.69L15.0081 937L7.40336 933.8C3.24668 932.048 3.6667 928.576 4.67848 925C8.73289 926.713 17.6343 928.654 15.7386 934.69Z" fill="#58BF90" stroke="#329467"/>
<path d="M15.7386 927.69L15.0081 930L7.40336 926.8C3.24668 925.048 3.6667 921.576 4.67848 918C8.73289 919.713 17.6343 921.654 15.7386 927.69Z" fill="#58BF90" stroke="#329467"/>
</g>
<g clip-path="url(#clip45_206_24315)">
<path d="M15.7386 927.69L15.0081 930L7.40336 926.8C3.24668 925.048 3.6667 921.576 4.67848 918C8.73289 919.713 17.6343 921.654 15.7386 927.69Z" fill="#58BF90" stroke="#329467"/>
<path d="M15.7386 920.69L15.0081 923L7.40336 919.8C3.24668 918.048 3.6667 914.576 4.67848 911C8.73289 912.713 17.6343 914.654 15.7386 920.69Z" fill="#58BF90" stroke="#329467"/>
<path d="M15.7386 913.69L15.0081 916L7.40336 912.8C3.24668 911.048 3.6667 907.576 4.67848 904C8.73289 905.713 17.6343 907.654 15.7386 913.69Z" fill="#58BF90" stroke="#329467"/>
<path d="M15.7386 906.69L15.0081 909L7.40336 905.8C3.24668 904.048 3.6667 900.576 4.67848 897C8.73289 898.713 17.6343 900.654 15.7386 906.69Z" fill="#58BF90" stroke="#329467"/>
<path d="M15.7386 899.69L15.0081 902L7.40336 898.8C3.24668 897.048 3.6667 893.576 4.67848 890C8.73289 891.713 17.6343 893.654 15.7386 899.69Z" fill="#58BF90" stroke="#329467"/>
<path d="M15.7386 892.69L15.0081 895L7.40336 891.8C3.24668 890.048 3.6667 886.576 4.67848 883C8.73289 884.713 17.6343 886.654 15.7386 892.69Z" fill="#58BF90" stroke="#329467"/>
<path d="M15.7386 885.69L15.0081 888L7.40336 884.8C3.24668 883.048 3.6667 879.576 4.67848 876C8.73289 877.713 17.6343 879.654 15.7386 885.69Z" fill="#58BF90" stroke="#329467"/>
</g>
<g clip-path="url(#clip46_206_24315)">
<path d="M15.7386 885.69L15.0081 888L7.40336 884.8C3.24668 883.048 3.6667 879.576 4.67848 876C8.73289 877.713 17.6343 879.654 15.7386 885.69Z" fill="#58BF90" stroke="#329467"/>
<path d="M15.7386 878.69L15.0081 881L7.40336 877.8C3.24668 876.048 3.6667 872.576 4.67848 869C8.73289 870.713 17.6343 872.654 15.7386 878.69Z" fill="#58BF90" stroke="#329467"/>
<path d="M15.7386 871.69L15.0081 874L7.40336 870.8C3.24668 869.048 3.6667 865.576 4.67848 862C8.73289 863.713 17.6343 865.654 15.7386 871.69Z" fill="#58BF90" stroke="#329467"/>
<path d="M15.7386 864.69L15.0081 867L7.40336 863.8C3.24668 862.048 3.6667 858.576 4.67848 855C8.73289 856.713 17.6343 858.654 15.7386 864.69Z" fill="#58BF90" stroke="#329467"/>
<path d="M15.7386 857.69L15.0081 860L7.40336 856.8C3.24668 855.048 3.6667 851.576 4.67848 848C8.73289 849.713 17.6343 851.654 15.7386 857.69Z" fill="#58BF90" stroke="#329467"/>
<path d="M15.7386 850.69L15.0081 853L7.40336 849.8C3.24668 848.048 3.6667 844.576 4.67848 841C8.73289 842.713 17.6343 844.654 15.7386 850.69Z" fill="#58BF90" stroke="#329467"/>
<path d="M15.7386 843.69L15.0081 846L7.40336 842.8C3.24668 841.048 3.6667 837.576 4.67848 834C8.73289 835.713 17.6343 837.654 15.7386 843.69Z" fill="#58BF90" stroke="#329467"/>
</g>
<g clip-path="url(#clip47_206_24315)">
<path d="M15.7386 843.69L15.0081 846L7.40336 842.8C3.24668 841.048 3.6667 837.576 4.67848 834C8.73289 835.713 17.6343 837.654 15.7386 843.69Z" fill="#58BF90" stroke="#329467"/>
<path d="M15.7386 836.69L15.0081 839L7.40336 835.8C3.24668 834.048 3.6667 830.576 4.67848 827C8.73289 828.713 17.6343 830.654 15.7386 836.69Z" fill="#58BF90" stroke="#329467"/>
<path d="M15.7386 829.69L15.0081 832L7.40336 828.8C3.24668 827.048 3.6667 823.576 4.67848 820C8.73289 821.713 17.6343 823.654 15.7386 829.69Z" fill="#58BF90" stroke="#329467"/>
<path d="M15.7386 822.69L15.0081 825L7.40336 821.8C3.24668 820.048 3.6667 816.576 4.67848 813C8.73289 814.713 17.6343 816.654 15.7386 822.69Z" fill="#58BF90" stroke="#329467"/>
<path d="M15.7386 815.69L15.0081 818L7.40336 814.8C3.24668 813.048 3.6667 809.576 4.67848 806C8.73289 807.713 17.6343 809.654 15.7386 815.69Z" fill="#58BF90" stroke="#329467"/>
<path d="M15.7386 808.69L15.0081 811L7.40336 807.8C3.24668 806.048 3.6667 802.576 4.67848 799C8.73289 800.713 17.6343 802.654 15.7386 808.69Z" fill="#58BF90" stroke="#329467"/>
<path d="M15.7386 801.69L15.0081 804L7.40336 800.8C3.24668 799.048 3.6667 795.576 4.67848 792C8.73289 793.713 17.6343 795.654 15.7386 801.69Z" fill="#58BF90" stroke="#329467"/>
</g>
<g clip-path="url(#clip48_206_24315)">
<path d="M15.7386 801.69L15.0081 804L7.40336 800.8C3.24668 799.048 3.6667 795.576 4.67848 792C8.73289 793.713 17.6343 795.654 15.7386 801.69Z" fill="#58BF90" stroke="#329467"/>
<path d="M15.7386 794.69L15.0081 797L7.40336 793.8C3.24668 792.048 3.6667 788.576 4.67848 785C8.73289 786.713 17.6343 788.654 15.7386 794.69Z" fill="#58BF90" stroke="#329467"/>
<path d="M15.7386 787.69L15.0081 790L7.40336 786.8C3.24668 785.048 3.6667 781.576 4.67848 778C8.73289 779.713 17.6343 781.654 15.7386 787.69Z" fill="#58BF90" stroke="#329467"/>
<path d="M15.7386 780.69L15.0081 783L7.40336 779.8C3.24668 778.048 3.6667 774.576 4.67848 771C8.73289 772.713 17.6343 774.654 15.7386 780.69Z" fill="#58BF90" stroke="#329467"/>
<path d="M15.7386 773.69L15.0081 776L7.40336 772.8C3.24668 771.048 3.6667 767.576 4.67848 764C8.73289 765.713 17.6343 767.654 15.7386 773.69Z" fill="#58BF90" stroke="#329467"/>
<path d="M15.7386 766.69L15.0081 769L7.40336 765.8C3.24668 764.048 3.6667 760.576 4.67848 757C8.73289 758.713 17.6343 760.654 15.7386 766.69Z" fill="#58BF90" stroke="#329467"/>
<path d="M15.7386 759.69L15.0081 762L7.40336 758.8C3.24668 757.048 3.6667 753.576 4.67848 750C8.73289 751.713 17.6343 753.654 15.7386 759.69Z" fill="#58BF90" stroke="#329467"/>
</g>
<g clip-path="url(#clip49_206_24315)">
<path d="M15.7386 759.69L15.0081 762L7.40336 758.8C3.24668 757.048 3.6667 753.576 4.67848 750C8.73289 751.713 17.6343 753.654 15.7386 759.69Z" fill="#58BF90" stroke="#329467"/>
<path d="M15.7386 752.69L15.0081 755L7.40336 751.8C3.24668 750.048 3.6667 746.576 4.67848 743C8.73289 744.713 17.6343 746.654 15.7386 752.69Z" fill="#58BF90" stroke="#329467"/>
<path d="M15.7386 745.69L15.0081 748L7.40336 744.8C3.24668 743.048 3.6667 739.576 4.67848 736C8.73289 737.713 17.6343 739.654 15.7386 745.69Z" fill="#58BF90" stroke="#329467"/>
<path d="M15.7386 738.69L15.0081 741L7.40336 737.8C3.24668 736.048 3.6667 732.576 4.67848 729C8.73289 730.713 17.6343 732.654 15.7386 738.69Z" fill="#58BF90" stroke="#329467"/>
<path d="M15.7386 731.69L15.0081 734L7.40336 730.8C3.24668 729.048 3.6667 725.576 4.67848 722C8.73289 723.713 17.6343 725.654 15.7386 731.69Z" fill="#58BF90" stroke="#329467"/>
<path d="M15.7386 724.69L15.0081 727L7.40336 723.8C3.24668 722.048 3.6667 718.576 4.67848 715C8.73289 716.713 17.6343 718.654 15.7386 724.69Z" fill="#58BF90" stroke="#329467"/>
<path d="M15.7386 717.69L15.0081 720L7.40336 716.8C3.24668 715.048 3.6667 711.576 4.67848 708C8.73289 709.713 17.6343 711.654 15.7386 717.69Z" fill="#58BF90" stroke="#329467"/>
</g>
<g clip-path="url(#clip50_206_24315)">
<path d="M15.7386 717.69L15.0081 720L7.40336 716.8C3.24668 715.048 3.6667 711.576 4.67848 708C8.73289 709.713 17.6343 711.654 15.7386 717.69Z" fill="#58BF90" stroke="#329467"/>
<path d="M15.7386 710.69L15.0081 713L7.40336 709.8C3.24668 708.048 3.6667 704.576 4.67848 701C8.73289 702.713 17.6343 704.654 15.7386 710.69Z" fill="#58BF90" stroke="#329467"/>
<path d="M15.7386 703.69L15.0081 706L7.40336 702.8C3.24668 701.048 3.6667 697.576 4.67848 694C8.73289 695.713 17.6343 697.654 15.7386 703.69Z" fill="#58BF90" stroke="#329467"/>
<path d="M15.7386 696.69L15.0081 699L7.40336 695.8C3.24668 694.048 3.6667 690.576 4.67848 687C8.73289 688.713 17.6343 690.654 15.7386 696.69Z" fill="#58BF90" stroke="#329467"/>
<path d="M15.7386 689.69L15.0081 692L7.40336 688.8C3.24668 687.048 3.6667 683.576 4.67848 680C8.73289 681.713 17.6343 683.654 15.7386 689.69Z" fill="#58BF90" stroke="#329467"/>
<path d="M15.7386 682.69L15.0081 685L7.40336 681.8C3.24668 680.048 3.6667 676.576 4.67848 673C8.73289 674.713 17.6343 676.654 15.7386 682.69Z" fill="#58BF90" stroke="#329467"/>
<path d="M15.7386 675.69L15.0081 678L7.40336 674.8C3.24668 673.048 3.6667 669.576 4.67848 666C8.73289 667.713 17.6343 669.654 15.7386 675.69Z" fill="#58BF90" stroke="#329467"/>
</g>
<g clip-path="url(#clip51_206_24315)">
<path d="M15.7386 675.69L15.0081 678L7.40336 674.8C3.24668 673.048 3.6667 669.576 4.67848 666C8.73289 667.713 17.6343 669.654 15.7386 675.69Z" fill="#58BF90" stroke="#329467"/>
<path d="M15.7386 668.69L15.0081 671L7.40336 667.8C3.24668 666.048 3.6667 662.576 4.67848 659C8.73289 660.713 17.6343 662.654 15.7386 668.69Z" fill="#58BF90" stroke="#329467"/>
<path d="M15.7386 661.69L15.0081 664L7.40336 660.8C3.24668 659.048 3.6667 655.576 4.67848 652C8.73289 653.713 17.6343 655.654 15.7386 661.69Z" fill="#58BF90" stroke="#329467"/>
<path d="M15.7386 654.69L15.0081 657L7.40336 653.8C3.24668 652.048 3.6667 648.576 4.67848 645C8.73289 646.713 17.6343 648.654 15.7386 654.69Z" fill="#58BF90" stroke="#329467"/>
<path d="M15.7386 647.69L15.0081 650L7.40336 646.8C3.24668 645.048 3.6667 641.576 4.67848 638C8.73289 639.713 17.6343 641.654 15.7386 647.69Z" fill="#58BF90" stroke="#329467"/>
<path d="M15.7386 640.69L15.0081 643L7.40336 639.8C3.24668 638.048 3.6667 634.576 4.67848 631C8.73289 632.713 17.6343 634.654 15.7386 640.69Z" fill="#58BF90" stroke="#329467"/>
<path d="M15.7386 633.69L15.0081 636L7.40336 632.8C3.24668 631.048 3.6667 627.576 4.67848 624C8.73289 625.713 17.6343 627.654 15.7386 633.69Z" fill="#58BF90" stroke="#329467"/>
</g>
<g clip-path="url(#clip52_206_24315)">
<path d="M15.7386 633.69L15.0081 636L7.40336 632.8C3.24668 631.048 3.6667 627.576 4.67848 624C8.73289 625.713 17.6343 627.654 15.7386 633.69Z" fill="#58BF90" stroke="#329467"/>
<path d="M15.7386 626.69L15.0081 629L7.40336 625.8C3.24668 624.048 3.6667 620.576 4.67848 617C8.73289 618.713 17.6343 620.654 15.7386 626.69Z" fill="#58BF90" stroke="#329467"/>
<path d="M15.7386 619.69L15.0081 622L7.40336 618.8C3.24668 617.048 3.6667 613.576 4.67848 610C8.73289 611.713 17.6343 613.654 15.7386 619.69Z" fill="#58BF90" stroke="#329467"/>
<path d="M15.7386 612.69L15.0081 615L7.40336 611.8C3.24668 610.048 3.6667 606.576 4.67848 603C8.73289 604.713 17.6343 606.654 15.7386 612.69Z" fill="#58BF90" stroke="#329467"/>
<path d="M15.7386 605.69L15.0081 608L7.40336 604.8C3.24668 603.048 3.6667 599.576 4.67848 596C8.73289 597.713 17.6343 599.654 15.7386 605.69Z" fill="#58BF90" stroke="#329467"/>
<path d="M15.7386 598.69L15.0081 601L7.40336 597.8C3.24668 596.048 3.6667 592.576 4.67848 589C8.73289 590.713 17.6343 592.654 15.7386 598.69Z" fill="#58BF90" stroke="#329467"/>
<path d="M15.7386 591.69L15.0081 594L7.40336 590.8C3.24668 589.048 3.6667 585.576 4.67848 582C8.73289 583.713 17.6343 585.654 15.7386 591.69Z" fill="#58BF90" stroke="#329467"/>
</g>
<g clip-path="url(#clip53_206_24315)">
<path d="M15.7386 591.69L15.0081 594L7.40336 590.8C3.24668 589.048 3.6667 585.576 4.67848 582C8.73289 583.713 17.6343 585.654 15.7386 591.69Z" fill="#58BF90" stroke="#329467"/>
<path d="M15.7386 584.69L15.0081 587L7.40336 583.8C3.24668 582.048 3.6667 578.576 4.67848 575C8.73289 576.713 17.6343 578.654 15.7386 584.69Z" fill="#58BF90" stroke="#329467"/>
<path d="M15.7386 577.69L15.0081 580L7.40336 576.8C3.24668 575.048 3.6667 571.576 4.67848 568C8.73289 569.713 17.6343 571.654 15.7386 577.69Z" fill="#58BF90" stroke="#329467"/>
<path d="M15.7386 570.69L15.0081 573L7.40336 569.8C3.24668 568.048 3.6667 564.576 4.67848 561C8.73289 562.713 17.6343 564.654 15.7386 570.69Z" fill="#58BF90" stroke="#329467"/>
<path d="M15.7386 563.69L15.0081 566L7.40336 562.8C3.24668 561.048 3.6667 557.576 4.67848 554C8.73289 555.713 17.6343 557.654 15.7386 563.69Z" fill="#58BF90" stroke="#329467"/>
<path d="M15.7386 556.69L15.0081 559L7.40336 555.8C3.24668 554.048 3.6667 550.576 4.67848 547C8.73289 548.713 17.6343 550.654 15.7386 556.69Z" fill="#58BF90" stroke="#329467"/>
<path d="M15.7386 549.69L15.0081 552L7.40336 548.8C3.24668 547.048 3.6667 543.576 4.67848 540C8.73289 541.713 17.6343 543.654 15.7386 549.69Z" fill="#58BF90" stroke="#329467"/>
</g>
<g clip-path="url(#clip54_206_24315)">
<path d="M15.7386 549.69L15.0081 552L7.40336 548.8C3.24668 547.048 3.6667 543.576 4.67848 540C8.73289 541.713 17.6343 543.654 15.7386 549.69Z" fill="#58BF90" stroke="#329467"/>
<path d="M15.7386 542.69L15.0081 545L7.40336 541.8C3.24668 540.048 3.6667 536.576 4.67848 533C8.73289 534.713 17.6343 536.654 15.7386 542.69Z" fill="#58BF90" stroke="#329467"/>
<path d="M15.7386 535.69L15.0081 538L7.40336 534.8C3.24668 533.048 3.6667 529.576 4.67848 526C8.73289 527.713 17.6343 529.654 15.7386 535.69Z" fill="#58BF90" stroke="#329467"/>
<path d="M15.7386 528.69L15.0081 531L7.40336 527.8C3.24668 526.048 3.6667 522.576 4.67848 519C8.73289 520.713 17.6343 522.654 15.7386 528.69Z" fill="#58BF90" stroke="#329467"/>
<path d="M15.7386 521.69L15.0081 524L7.40336 520.8C3.24668 519.048 3.6667 515.576 4.67848 512C8.73289 513.713 17.6343 515.654 15.7386 521.69Z" fill="#58BF90" stroke="#329467"/>
<path d="M15.7386 514.69L15.0081 517L7.40336 513.8C3.24668 512.048 3.6667 508.576 4.67848 505C8.73289 506.713 17.6343 508.654 15.7386 514.69Z" fill="#58BF90" stroke="#329467"/>
<path d="M15.7386 507.69L15.0081 510L7.40336 506.8C3.24668 505.048 3.6667 501.576 4.67848 498C8.73289 499.713 17.6343 501.654 15.7386 507.69Z" fill="#58BF90" stroke="#329467"/>
</g>
<g clip-path="url(#clip55_206_24315)">
<path d="M15.7386 507.69L15.0081 510L7.40336 506.8C3.24668 505.048 3.6667 501.576 4.67848 498C8.73289 499.713 17.6343 501.654 15.7386 507.69Z" fill="#58BF90" stroke="#329467"/>
<path d="M15.7386 500.69L15.0081 503L7.40336 499.8C3.24668 498.048 3.6667 494.576 4.67848 491C8.73289 492.713 17.6343 494.654 15.7386 500.69Z" fill="#58BF90" stroke="#329467"/>
<path d="M15.7386 493.69L15.0081 496L7.40336 492.8C3.24668 491.048 3.6667 487.576 4.67848 484C8.73289 485.713 17.6343 487.654 15.7386 493.69Z" fill="#58BF90" stroke="#329467"/>
<path d="M15.7386 486.69L15.0081 489L7.40336 485.8C3.24668 484.048 3.6667 480.576 4.67848 477C8.73289 478.713 17.6343 480.654 15.7386 486.69Z" fill="#58BF90" stroke="#329467"/>
<path d="M15.7386 479.69L15.0081 482L7.40336 478.8C3.24668 477.048 3.6667 473.576 4.67848 470C8.73289 471.713 17.6343 473.654 15.7386 479.69Z" fill="#58BF90" stroke="#329467"/>
<path d="M15.7386 472.69L15.0081 475L7.40336 471.8C3.24668 470.048 3.6667 466.576 4.67848 463C8.73289 464.713 17.6343 466.654 15.7386 472.69Z" fill="#58BF90" stroke="#329467"/>
<path d="M15.7386 465.69L15.0081 468L7.40336 464.8C3.24668 463.048 3.6667 459.576 4.67848 456C8.73289 457.713 17.6343 459.654 15.7386 465.69Z" fill="#58BF90" stroke="#329467"/>
</g>
<g clip-path="url(#clip56_206_24315)">
<path d="M15.7386 465.69L15.0081 468L7.40336 464.8C3.24668 463.048 3.6667 459.576 4.67848 456C8.73289 457.713 17.6343 459.654 15.7386 465.69Z" fill="#58BF90" stroke="#329467"/>
<path d="M15.7386 458.69L15.0081 461L7.40336 457.8C3.24668 456.048 3.6667 452.576 4.67848 449C8.73289 450.713 17.6343 452.654 15.7386 458.69Z" fill="#58BF90" stroke="#329467"/>
<path d="M15.7386 451.69L15.0081 454L7.40336 450.8C3.24668 449.048 3.6667 445.576 4.67848 442C8.73289 443.713 17.6343 445.654 15.7386 451.69Z" fill="#58BF90" stroke="#329467"/>
<path d="M15.7386 444.69L15.0081 447L7.40336 443.8C3.24668 442.048 3.6667 438.576 4.67848 435C8.73289 436.713 17.6343 438.654 15.7386 444.69Z" fill="#58BF90" stroke="#329467"/>
<path d="M15.7386 437.69L15.0081 440L7.40336 436.8C3.24668 435.048 3.6667 431.576 4.67848 428C8.73289 429.713 17.6343 431.654 15.7386 437.69Z" fill="#58BF90" stroke="#329467"/>
<path d="M15.7386 430.69L15.0081 433L7.40336 429.8C3.24668 428.048 3.6667 424.576 4.67848 421C8.73289 422.713 17.6343 424.654 15.7386 430.69Z" fill="#58BF90" stroke="#329467"/>
<path d="M15.7386 423.69L15.0081 426L7.40336 422.8C3.24668 421.048 3.6667 417.576 4.67848 414C8.73289 415.713 17.6343 417.654 15.7386 423.69Z" fill="#58BF90" stroke="#329467"/>
</g>
<g clip-path="url(#clip57_206_24315)">
<path d="M15.7386 423.69L15.0081 426L7.40336 422.8C3.24668 421.048 3.6667 417.576 4.67848 414C8.73289 415.713 17.6343 417.654 15.7386 423.69Z" fill="#58BF90" stroke="#329467"/>
<path d="M15.7386 416.69L15.0081 419L7.40336 415.8C3.24668 414.048 3.6667 410.576 4.67848 407C8.73289 408.713 17.6343 410.654 15.7386 416.69Z" fill="#58BF90" stroke="#329467"/>
<path d="M15.7386 409.69L15.0081 412L7.40336 408.8C3.24668 407.048 3.6667 403.576 4.67848 400C8.73289 401.713 17.6343 403.654 15.7386 409.69Z" fill="#58BF90" stroke="#329467"/>
<path d="M15.7386 402.69L15.0081 405L7.40336 401.8C3.24668 400.048 3.6667 396.576 4.67848 393C8.73289 394.713 17.6343 396.654 15.7386 402.69Z" fill="#58BF90" stroke="#329467"/>
<path d="M15.7386 395.69L15.0081 398L7.40336 394.8C3.24668 393.048 3.6667 389.576 4.67848 386C8.73289 387.713 17.6343 389.654 15.7386 395.69Z" fill="#58BF90" stroke="#329467"/>
<path d="M15.7386 388.69L15.0081 391L7.40336 387.8C3.24668 386.048 3.6667 382.576 4.67848 379C8.73289 380.713 17.6343 382.654 15.7386 388.69Z" fill="#58BF90" stroke="#329467"/>
<path d="M15.7386 381.69L15.0081 384L7.40336 380.8C3.24668 379.048 3.6667 375.576 4.67848 372C8.73289 373.713 17.6343 375.654 15.7386 381.69Z" fill="#58BF90" stroke="#329467"/>
</g>
<g clip-path="url(#clip58_206_24315)">
<path d="M15.7386 381.69L15.0081 384L7.40336 380.8C3.24668 379.048 3.6667 375.576 4.67848 372C8.73289 373.713 17.6343 375.654 15.7386 381.69Z" fill="#58BF90" stroke="#329467"/>
<path d="M15.7386 374.69L15.0081 377L7.40336 373.8C3.24668 372.048 3.6667 368.576 4.67848 365C8.73289 366.713 17.6343 368.654 15.7386 374.69Z" fill="#58BF90" stroke="#329467"/>
<path d="M15.7386 367.69L15.0081 370L7.40336 366.8C3.24668 365.048 3.6667 361.576 4.67848 358C8.73289 359.713 17.6343 361.654 15.7386 367.69Z" fill="#58BF90" stroke="#329467"/>
<path d="M15.7386 360.69L15.0081 363L7.40336 359.8C3.24668 358.048 3.6667 354.576 4.67848 351C8.73289 352.713 17.6343 354.654 15.7386 360.69Z" fill="#58BF90" stroke="#329467"/>
<path d="M15.7386 353.69L15.0081 356L7.40336 352.8C3.24668 351.048 3.6667 347.576 4.67848 344C8.73289 345.713 17.6343 347.654 15.7386 353.69Z" fill="#58BF90" stroke="#329467"/>
<path d="M15.7386 346.69L15.0081 349L7.40336 345.8C3.24668 344.048 3.6667 340.576 4.67848 337C8.73289 338.713 17.6343 340.654 15.7386 346.69Z" fill="#58BF90" stroke="#329467"/>
<path d="M15.7386 339.69L15.0081 342L7.40336 338.8C3.24668 337.048 3.6667 333.576 4.67848 330C8.73289 331.713 17.6343 333.654 15.7386 339.69Z" fill="#58BF90" stroke="#329467"/>
</g>
<g clip-path="url(#clip59_206_24315)">
<path d="M15.7386 339.69L15.0081 342L7.40336 338.8C3.24668 337.048 3.6667 333.576 4.67848 330C8.73289 331.713 17.6343 333.654 15.7386 339.69Z" fill="#58BF90" stroke="#329467"/>
<path d="M15.7386 332.69L15.0081 335L7.40336 331.8C3.24668 330.048 3.6667 326.576 4.67848 323C8.73289 324.713 17.6343 326.654 15.7386 332.69Z" fill="#58BF90" stroke="#329467"/>
<path d="M15.7386 325.69L15.0081 328L7.40336 324.8C3.24668 323.048 3.6667 319.576 4.67848 316C8.73289 317.713 17.6343 319.654 15.7386 325.69Z" fill="#58BF90" stroke="#329467"/>
<path d="M15.7386 318.69L15.0081 321L7.40336 317.8C3.24668 316.048 3.6667 312.576 4.67848 309C8.73289 310.713 17.6343 312.654 15.7386 318.69Z" fill="#58BF90" stroke="#329467"/>
<path d="M15.7386 311.69L15.0081 314L7.40336 310.8C3.24668 309.048 3.6667 305.576 4.67848 302C8.73289 303.713 17.6343 305.654 15.7386 311.69Z" fill="#58BF90" stroke="#329467"/>
<path d="M15.7386 304.69L15.0081 307L7.40336 303.8C3.24668 302.048 3.6667 298.576 4.67848 295C8.73289 296.713 17.6343 298.654 15.7386 304.69Z" fill="#58BF90" stroke="#329467"/>
<path d="M15.7386 297.69L15.0081 300L7.40336 296.8C3.24668 295.048 3.6667 291.576 4.67848 288C8.73289 289.713 17.6343 291.654 15.7386 297.69Z" fill="#58BF90" stroke="#329467"/>
</g>
<g clip-path="url(#clip60_206_24315)">
<path d="M15.7386 297.69L15.0081 300L7.40336 296.8C3.24668 295.048 3.6667 291.576 4.67848 288C8.73289 289.713 17.6343 291.654 15.7386 297.69Z" fill="#58BF90" stroke="#329467"/>
<path d="M15.7386 290.69L15.0081 293L7.40336 289.8C3.24668 288.048 3.6667 284.576 4.67848 281C8.73289 282.713 17.6343 284.654 15.7386 290.69Z" fill="#58BF90" stroke="#329467"/>
<path d="M15.7386 283.69L15.0081 286L7.40336 282.8C3.24668 281.048 3.6667 277.576 4.67848 274C8.73289 275.713 17.6343 277.654 15.7386 283.69Z" fill="#58BF90" stroke="#329467"/>
<path d="M15.7386 276.69L15.0081 279L7.40336 275.8C3.24668 274.048 3.6667 270.576 4.67848 267C8.73289 268.713 17.6343 270.654 15.7386 276.69Z" fill="#58BF90" stroke="#329467"/>
<path d="M15.7386 269.69L15.0081 272L7.40336 268.8C3.24668 267.048 3.6667 263.576 4.67848 260C8.73289 261.713 17.6343 263.654 15.7386 269.69Z" fill="#58BF90" stroke="#329467"/>
<path d="M15.7386 262.69L15.0081 265L7.40336 261.8C3.24668 260.048 3.6667 256.576 4.67848 253C8.73289 254.713 17.6343 256.654 15.7386 262.69Z" fill="#58BF90" stroke="#329467"/>
<path d="M15.7386 255.69L15.0081 258L7.40336 254.8C3.24668 253.048 3.6667 249.576 4.67848 246C8.73289 247.713 17.6343 249.654 15.7386 255.69Z" fill="#58BF90" stroke="#329467"/>
</g>
<g clip-path="url(#clip61_206_24315)">
<path d="M15.7386 255.69L15.0081 258L7.40336 254.8C3.24668 253.048 3.6667 249.576 4.67848 246C8.73289 247.713 17.6343 249.654 15.7386 255.69Z" fill="#58BF90" stroke="#329467"/>
<path d="M15.7386 248.69L15.0081 251L7.40336 247.8C3.24668 246.048 3.6667 242.576 4.67848 239C8.73289 240.713 17.6343 242.654 15.7386 248.69Z" fill="#58BF90" stroke="#329467"/>
<path d="M15.7386 241.69L15.0081 244L7.40336 240.8C3.24668 239.048 3.6667 235.576 4.67848 232C8.73289 233.713 17.6343 235.654 15.7386 241.69Z" fill="#58BF90" stroke="#329467"/>
<path d="M15.7386 234.69L15.0081 237L7.40336 233.8C3.24668 232.048 3.6667 228.576 4.67848 225C8.73289 226.713 17.6343 228.654 15.7386 234.69Z" fill="#58BF90" stroke="#329467"/>
<path d="M15.7386 227.69L15.0081 230L7.40336 226.8C3.24668 225.048 3.6667 221.576 4.67848 218C8.73289 219.713 17.6343 221.654 15.7386 227.69Z" fill="#58BF90" stroke="#329467"/>
<path d="M15.7386 220.69L15.0081 223L7.40336 219.8C3.24668 218.048 3.6667 214.576 4.67848 211C8.73289 212.713 17.6343 214.654 15.7386 220.69Z" fill="#58BF90" stroke="#329467"/>
<path d="M15.7386 213.69L15.0081 216L7.40336 212.8C3.24668 211.048 3.6667 207.576 4.67848 204C8.73289 205.713 17.6343 207.654 15.7386 213.69Z" fill="#58BF90" stroke="#329467"/>
</g>
<g clip-path="url(#clip62_206_24315)">
<path d="M15.7386 213.69L15.0081 216L7.40336 212.8C3.24668 211.048 3.6667 207.576 4.67848 204C8.73289 205.713 17.6343 207.654 15.7386 213.69Z" fill="#58BF90" stroke="#329467"/>
<path d="M15.7386 206.69L15.0081 209L7.40336 205.8C3.24668 204.048 3.6667 200.576 4.67848 197C8.73289 198.713 17.6343 200.654 15.7386 206.69Z" fill="#58BF90" stroke="#329467"/>
<path d="M15.7386 199.69L15.0081 202L7.40336 198.8C3.24668 197.048 3.6667 193.576 4.67848 190C8.73289 191.713 17.6343 193.654 15.7386 199.69Z" fill="#58BF90" stroke="#329467"/>
<path d="M15.7386 192.69L15.0081 195L7.40336 191.8C3.24668 190.048 3.6667 186.576 4.67848 183C8.73289 184.713 17.6343 186.654 15.7386 192.69Z" fill="#58BF90" stroke="#329467"/>
<path d="M15.7386 185.69L15.0081 188L7.40336 184.8C3.24668 183.048 3.6667 179.576 4.67848 176C8.73289 177.713 17.6343 179.654 15.7386 185.69Z" fill="#58BF90" stroke="#329467"/>
<path d="M15.7386 178.69L15.0081 181L7.40336 177.8C3.24668 176.048 3.6667 172.576 4.67848 169C8.73289 170.713 17.6343 172.654 15.7386 178.69Z" fill="#58BF90" stroke="#329467"/>
<path d="M15.7386 171.69L15.0081 174L7.40336 170.8C3.24668 169.048 3.6667 165.576 4.67848 162C8.73289 163.713 17.6343 165.654 15.7386 171.69Z" fill="#58BF90" stroke="#329467"/>
</g>
<g clip-path="url(#clip63_206_24315)">
<path d="M15.7386 171.69L15.0081 174L7.40336 170.8C3.24668 169.048 3.6667 165.576 4.67848 162C8.73289 163.713 17.6343 165.654 15.7386 171.69Z" fill="#58BF90" stroke="#329467"/>
<path d="M15.7386 164.69L15.0081 167L7.40336 163.8C3.24668 162.048 3.6667 158.576 4.67848 155C8.73289 156.713 17.6343 158.654 15.7386 164.69Z" fill="#58BF90" stroke="#329467"/>
<path d="M15.7386 157.69L15.0081 160L7.40336 156.8C3.24668 155.048 3.6667 151.576 4.67848 148C8.73289 149.713 17.6343 151.654 15.7386 157.69Z" fill="#58BF90" stroke="#329467"/>
<path d="M15.7386 150.69L15.0081 153L7.40336 149.8C3.24668 148.048 3.6667 144.576 4.67848 141C8.73289 142.713 17.6343 144.654 15.7386 150.69Z" fill="#58BF90" stroke="#329467"/>
<path d="M15.7386 143.69L15.0081 146L7.40336 142.8C3.24668 141.048 3.6667 137.576 4.67848 134C8.73289 135.713 17.6343 137.654 15.7386 143.69Z" fill="#58BF90" stroke="#329467"/>
<path d="M15.7386 136.69L15.0081 139L7.40336 135.8C3.24668 134.048 3.6667 130.576 4.67848 127C8.73289 128.713 17.6343 130.654 15.7386 136.69Z" fill="#58BF90" stroke="#329467"/>
<path d="M15.7386 129.69L15.0081 132L7.40336 128.8C3.24668 127.048 3.6667 123.576 4.67848 120C8.73289 121.713 17.6343 123.654 15.7386 129.69Z" fill="#58BF90" stroke="#329467"/>
</g>
<g clip-path="url(#clip64_206_24315)">
<path d="M15.7386 129.69L15.0081 132L7.40336 128.8C3.24668 127.048 3.6667 123.576 4.67848 120C8.73289 121.713 17.6343 123.654 15.7386 129.69Z" fill="#58BF90" stroke="#329467"/>
<path d="M15.7386 122.69L15.0081 125L7.40336 121.8C3.24668 120.048 3.6667 116.576 4.67848 113C8.73289 114.713 17.6343 116.654 15.7386 122.69Z" fill="#58BF90" stroke="#329467"/>
<path d="M15.7386 115.69L15.0081 118L7.40336 114.8C3.24668 113.048 3.6667 109.576 4.67848 106C8.73289 107.713 17.6343 109.654 15.7386 115.69Z" fill="#58BF90" stroke="#329467"/>
<path d="M15.7386 108.69L15.0081 111L7.40336 107.8C3.24668 106.048 3.6667 102.576 4.67848 99C8.73289 100.713 17.6343 102.654 15.7386 108.69Z" fill="#58BF90" stroke="#329467"/>
<path d="M15.7386 101.69L15.0081 104L7.40336 100.8C3.24668 99.0477 3.6667 95.5757 4.67848 92C8.73289 93.7128 17.6343 95.6543 15.7386 101.69Z" fill="#58BF90" stroke="#329467"/>
<path d="M15.7386 94.6901L15.0081 97L7.40336 93.7998C3.24668 92.0477 3.6667 88.5757 4.67848 85C8.73289 86.7128 17.6343 88.6543 15.7386 94.6901Z" fill="#58BF90" stroke="#329467"/>
<path d="M15.7386 87.6901L15.0081 90L7.40336 86.7998C3.24668 85.0477 3.6667 81.5757 4.67848 78C8.73289 79.7128 17.6343 81.6543 15.7386 87.6901Z" fill="#58BF90" stroke="#329467"/>
</g>
<g clip-path="url(#clip65_206_24315)">
<path d="M15.7386 87.6901L15.0081 90L7.40336 86.7998C3.24668 85.0477 3.6667 81.5757 4.67848 78C8.73289 79.7128 17.6343 81.6543 15.7386 87.6901Z" fill="#58BF90" stroke="#329467"/>
<path d="M15.7386 80.6901L15.0081 83L7.40336 79.7998C3.24668 78.0477 3.6667 74.5757 4.67848 71C8.73289 72.7128 17.6343 74.6543 15.7386 80.6901Z" fill="#58BF90" stroke="#329467"/>
<path d="M15.7386 73.6901L15.0081 76L7.40336 72.7998C3.24668 71.0477 3.6667 67.5757 4.67848 64C8.73289 65.7128 17.6343 67.6543 15.7386 73.6901Z" fill="#58BF90" stroke="#329467"/>
<path d="M15.7386 66.6901L15.0081 69L7.40336 65.7998C3.24668 64.0477 3.6667 60.5757 4.67848 57C8.73289 58.7128 17.6343 60.6543 15.7386 66.6901Z" fill="#58BF90" stroke="#329467"/>
<path d="M15.7386 59.6901L15.0081 62L7.40336 58.7998C3.24668 57.0477 3.6667 53.5757 4.67848 50C8.73289 51.7128 17.6343 53.6543 15.7386 59.6901Z" fill="#58BF90" stroke="#329467"/>
<path d="M15.7386 52.6901L15.0081 55L7.40336 51.7998C3.24668 50.0477 3.6667 46.5757 4.67848 43C8.73289 44.7128 17.6343 46.6543 15.7386 52.6901Z" fill="#58BF90" stroke="#329467"/>
<path d="M15.7386 45.6901L15.0081 48L7.40336 44.7998C3.24668 43.0477 3.6667 39.5757 4.67848 36C8.73289 37.7128 17.6343 39.6543 15.7386 45.6901Z" fill="#58BF90" stroke="#329467"/>
</g>
<g clip-path="url(#clip66_206_24315)">
<path d="M15.7386 45.6901L15.0081 48L7.40336 44.7998C3.24668 43.0477 3.6667 39.5757 4.67848 36C8.73289 37.7128 17.6343 39.6543 15.7386 45.6901Z" fill="#58BF90" stroke="#329467"/>
<path d="M15.7386 38.6901L15.0081 41L7.40336 37.7998C3.24668 36.0477 3.6667 32.5757 4.67848 29C8.73289 30.7128 17.6343 32.6543 15.7386 38.6901Z" fill="#58BF90" stroke="#329467"/>
<path d="M15.7386 31.6901L15.0081 34L7.40336 30.7998C3.24668 29.0477 3.6667 25.5757 4.67848 22C8.73289 23.7128 17.6343 25.6543 15.7386 31.6901Z" fill="#58BF90" stroke="#329467"/>
<path d="M15.7386 24.6901L15.0081 27L7.40336 23.7998C3.24668 22.0477 3.6667 18.5757 4.67848 15C8.73289 16.7128 17.6343 18.6543 15.7386 24.6901Z" fill="#58BF90" stroke="#329467"/>
<path d="M15.7386 17.6901L15.0081 20L7.40336 16.7998C3.24668 15.0477 3.6667 11.5757 4.67848 8C8.73289 9.71275 17.6343 11.6543 15.7386 17.6901Z" fill="#58BF90" stroke="#329467"/>
<path d="M15.7386 10.6901L15.0081 13L7.40336 9.79976C3.24668 8.04767 3.6667 4.57568 4.67848 1C8.73289 2.71275 17.6343 4.65434 15.7386 10.6901Z" fill="#58BF90" stroke="#329467"/>
<path d="M15.7386 3.6901L15.0081 6L7.40336 2.79976C3.24668 1.04767 3.6667 -2.42432 4.67848 -6C8.73289 -4.28725 17.6343 -2.34566 15.7386 3.6901Z" fill="#58BF90" stroke="#329467"/>
</g>
</g>
<defs>
<clipPath id="clip0_206_24315">
<rect width="2814" height="20" fill="white" transform="translate(20) rotate(90)"/>
</clipPath>
<clipPath id="clip1_206_24315">
<rect width="42" height="16" fill="white" transform="translate(18 2730) rotate(90)"/>
</clipPath>
<clipPath id="clip2_206_24315">
<rect width="42" height="16" fill="white" transform="translate(18 2688) rotate(90)"/>
</clipPath>
<clipPath id="clip3_206_24315">
<rect width="42" height="16" fill="white" transform="translate(18 2646) rotate(90)"/>
</clipPath>
<clipPath id="clip4_206_24315">
<rect width="42" height="16" fill="white" transform="translate(18 2604) rotate(90)"/>
</clipPath>
<clipPath id="clip5_206_24315">
<rect width="42" height="16" fill="white" transform="translate(18 2562) rotate(90)"/>
</clipPath>
<clipPath id="clip6_206_24315">
<rect width="42" height="16" fill="white" transform="translate(18 2520) rotate(90)"/>
</clipPath>
<clipPath id="clip7_206_24315">
<rect width="42" height="16" fill="white" transform="translate(18 2478) rotate(90)"/>
</clipPath>
<clipPath id="clip8_206_24315">
<rect width="42" height="16" fill="white" transform="translate(18 2436) rotate(90)"/>
</clipPath>
<clipPath id="clip9_206_24315">
<rect width="42" height="16" fill="white" transform="translate(18 2394) rotate(90)"/>
</clipPath>
<clipPath id="clip10_206_24315">
<rect width="42" height="16" fill="white" transform="translate(18 2352) rotate(90)"/>
</clipPath>
<clipPath id="clip11_206_24315">
<rect width="42" height="16" fill="white" transform="translate(18 2310) rotate(90)"/>
</clipPath>
<clipPath id="clip12_206_24315">
<rect width="42" height="16" fill="white" transform="translate(18 2268) rotate(90)"/>
</clipPath>
<clipPath id="clip13_206_24315">
<rect width="42" height="16" fill="white" transform="translate(18 2226) rotate(90)"/>
</clipPath>
<clipPath id="clip14_206_24315">
<rect width="42" height="16" fill="white" transform="translate(18 2184) rotate(90)"/>
</clipPath>
<clipPath id="clip15_206_24315">
<rect width="42" height="16" fill="white" transform="translate(18 2142) rotate(90)"/>
</clipPath>
<clipPath id="clip16_206_24315">
<rect width="42" height="16" fill="white" transform="translate(18 2100) rotate(90)"/>
</clipPath>
<clipPath id="clip17_206_24315">
<rect width="42" height="16" fill="white" transform="translate(18 2058) rotate(90)"/>
</clipPath>
<clipPath id="clip18_206_24315">
<rect width="42" height="16" fill="white" transform="translate(18 2016) rotate(90)"/>
</clipPath>
<clipPath id="clip19_206_24315">
<rect width="42" height="16" fill="white" transform="translate(18 1974) rotate(90)"/>
</clipPath>
<clipPath id="clip20_206_24315">
<rect width="42" height="16" fill="white" transform="translate(18 1932) rotate(90)"/>
</clipPath>
<clipPath id="clip21_206_24315">
<rect width="42" height="16" fill="white" transform="translate(18 1890) rotate(90)"/>
</clipPath>
<clipPath id="clip22_206_24315">
<rect width="42" height="16" fill="white" transform="translate(18 1848) rotate(90)"/>
</clipPath>
<clipPath id="clip23_206_24315">
<rect width="42" height="16" fill="white" transform="translate(18 1806) rotate(90)"/>
</clipPath>
<clipPath id="clip24_206_24315">
<rect width="42" height="16" fill="white" transform="translate(18 1764) rotate(90)"/>
</clipPath>
<clipPath id="clip25_206_24315">
<rect width="42" height="16" fill="white" transform="translate(18 1722) rotate(90)"/>
</clipPath>
<clipPath id="clip26_206_24315">
<rect width="42" height="16" fill="white" transform="translate(18 1680) rotate(90)"/>
</clipPath>
<clipPath id="clip27_206_24315">
<rect width="42" height="16" fill="white" transform="translate(18 1638) rotate(90)"/>
</clipPath>
<clipPath id="clip28_206_24315">
<rect width="42" height="16" fill="white" transform="translate(18 1596) rotate(90)"/>
</clipPath>
<clipPath id="clip29_206_24315">
<rect width="42" height="16" fill="white" transform="translate(18 1554) rotate(90)"/>
</clipPath>
<clipPath id="clip30_206_24315">
<rect width="42" height="16" fill="white" transform="translate(18 1512) rotate(90)"/>
</clipPath>
<clipPath id="clip31_206_24315">
<rect width="42" height="16" fill="white" transform="translate(18 1470) rotate(90)"/>
</clipPath>
<clipPath id="clip32_206_24315">
<rect width="42" height="16" fill="white" transform="translate(18 1428) rotate(90)"/>
</clipPath>
<clipPath id="clip33_206_24315">
<rect width="42" height="16" fill="white" transform="translate(18 1386) rotate(90)"/>
</clipPath>
<clipPath id="clip34_206_24315">
<rect width="42" height="16" fill="white" transform="translate(18 1344) rotate(90)"/>
</clipPath>
<clipPath id="clip35_206_24315">
<rect width="42" height="16" fill="white" transform="translate(18 1302) rotate(90)"/>
</clipPath>
<clipPath id="clip36_206_24315">
<rect width="42" height="16" fill="white" transform="translate(18 1260) rotate(90)"/>
</clipPath>
<clipPath id="clip37_206_24315">
<rect width="42" height="16" fill="white" transform="translate(18 1218) rotate(90)"/>
</clipPath>
<clipPath id="clip38_206_24315">
<rect width="42" height="16" fill="white" transform="translate(18 1176) rotate(90)"/>
</clipPath>
<clipPath id="clip39_206_24315">
<rect width="42" height="16" fill="white" transform="translate(18 1134) rotate(90)"/>
</clipPath>
<clipPath id="clip40_206_24315">
<rect width="42" height="16" fill="white" transform="translate(18 1092) rotate(90)"/>
</clipPath>
<clipPath id="clip41_206_24315">
<rect width="42" height="16" fill="white" transform="translate(18 1050) rotate(90)"/>
</clipPath>
<clipPath id="clip42_206_24315">
<rect width="42" height="16" fill="white" transform="translate(18 1008) rotate(90)"/>
</clipPath>
<clipPath id="clip43_206_24315">
<rect width="42" height="16" fill="white" transform="translate(18 966) rotate(90)"/>
</clipPath>
<clipPath id="clip44_206_24315">
<rect width="42" height="16" fill="white" transform="translate(18 924) rotate(90)"/>
</clipPath>
<clipPath id="clip45_206_24315">
<rect width="42" height="16" fill="white" transform="translate(18 882) rotate(90)"/>
</clipPath>
<clipPath id="clip46_206_24315">
<rect width="42" height="16" fill="white" transform="translate(18 840) rotate(90)"/>
</clipPath>
<clipPath id="clip47_206_24315">
<rect width="42" height="16" fill="white" transform="translate(18 798) rotate(90)"/>
</clipPath>
<clipPath id="clip48_206_24315">
<rect width="42" height="16" fill="white" transform="translate(18 756) rotate(90)"/>
</clipPath>
<clipPath id="clip49_206_24315">
<rect width="42" height="16" fill="white" transform="translate(18 714) rotate(90)"/>
</clipPath>
<clipPath id="clip50_206_24315">
<rect width="42" height="16" fill="white" transform="translate(18 672) rotate(90)"/>
</clipPath>
<clipPath id="clip51_206_24315">
<rect width="42" height="16" fill="white" transform="translate(18 630) rotate(90)"/>
</clipPath>
<clipPath id="clip52_206_24315">
<rect width="42" height="16" fill="white" transform="translate(18 588) rotate(90)"/>
</clipPath>
<clipPath id="clip53_206_24315">
<rect width="42" height="16" fill="white" transform="translate(18 546) rotate(90)"/>
</clipPath>
<clipPath id="clip54_206_24315">
<rect width="42" height="16" fill="white" transform="translate(18 504) rotate(90)"/>
</clipPath>
<clipPath id="clip55_206_24315">
<rect width="42" height="16" fill="white" transform="translate(18 462) rotate(90)"/>
</clipPath>
<clipPath id="clip56_206_24315">
<rect width="42" height="16" fill="white" transform="translate(18 420) rotate(90)"/>
</clipPath>
<clipPath id="clip57_206_24315">
<rect width="42" height="16" fill="white" transform="translate(18 378) rotate(90)"/>
</clipPath>
<clipPath id="clip58_206_24315">
<rect width="42" height="16" fill="white" transform="translate(18 336) rotate(90)"/>
</clipPath>
<clipPath id="clip59_206_24315">
<rect width="42" height="16" fill="white" transform="translate(18 294) rotate(90)"/>
</clipPath>
<clipPath id="clip60_206_24315">
<rect width="42" height="16" fill="white" transform="translate(18 252) rotate(90)"/>
</clipPath>
<clipPath id="clip61_206_24315">
<rect width="42" height="16" fill="white" transform="translate(18 210) rotate(90)"/>
</clipPath>
<clipPath id="clip62_206_24315">
<rect width="42" height="16" fill="white" transform="translate(18 168) rotate(90)"/>
</clipPath>
<clipPath id="clip63_206_24315">
<rect width="42" height="16" fill="white" transform="translate(18 126) rotate(90)"/>
</clipPath>
<clipPath id="clip64_206_24315">
<rect width="42" height="16" fill="white" transform="translate(18 84) rotate(90)"/>
</clipPath>
<clipPath id="clip65_206_24315">
<rect width="42" height="16" fill="white" transform="translate(18 42) rotate(90)"/>
</clipPath>
<clipPath id="clip66_206_24315">
<rect width="42" height="16" fill="white" transform="translate(18) rotate(90)"/>
</clipPath>
</defs>
</svg>
