<svg width="37" height="18" viewBox="0 0 37 18" fill="none" xmlns="http://www.w3.org/2000/svg">
<path d="M22.023 3.62035C25.8756 3.3816 29.7211 2.90411 33.5242 2.15748C33.5525 2.15748 33.5666 2.14879 33.5807 2.14879C35.5854 1.73846 35.4257 3.14653 35.4257 4.51457C32.068 5.335 27.4025 6.02086 23.3025 6.09031C23.3025 6.09031 27.1621 6.5244 34.0331 5.41314C34.4714 5.47391 34.9945 5.56073 35.4257 5.72134L35.4257 7.12778C30.4492 7.66605 24.5466 8.03503 18.9339 8.08712C19.7963 8.11316 25.9321 8.30416 35.4257 7.52714L35.4257 9.85385L34.3725 10.1447L33.6019 10.3661C33.5949 10.3617 33.5807 10.3617 33.5666 10.3617C31.043 10.1838 28.8304 10.0752 26.9288 10.0014C21.6483 9.79742 18.8349 9.94501 18.8349 9.94501C24.3699 9.98408 30.1876 10.3444 35.6166 10.8826L35.4257 12.8491C27.8337 11.4947 23.5711 11.9071 23.3095 11.9375C28.8375 12.033 33.6231 13.0791 35.5883 13.5653L35.4257 15.0629C35.4187 15.6489 34.4926 16.0613 33.5595 15.879C29.7494 15.128 25.8826 14.6462 22.023 14.4118C12.936 13.7918 10.0233 4.37941 22.023 3.62035Z" fill="#EDEDED" stroke="#D2D2D2"/>
<path d="M2.92492 13.7822L1 13.1734L3.66687 6.83614C5.12694 3.37223 8.02026 3.72225 11 4.5654C9.57271 7.94407 7.95471 15.3619 2.92492 13.7822Z" fill="#EDEDED" stroke="#D2D2D2"/>
<path d="M9.48768 11.0987C9.78508 11.9966 10.1687 12.8733 10.5375 13.5771C10.9063 14.281 11.2216 14.7039 11.2216 14.7039C10.6803 14.8952 10.0185 14.8806 9.41619 14.7045C3.64199 13.3525 4.62773 6.09841 7.95608 4.38522C8.39181 4.16094 8.7056 4.05471 8.7056 4.05471C9.36289 5.04093 10.7404 6.65213 10.8163 7.19241C10.8698 7.47343 10.7984 7.66737 10.7151 7.89363C9.92654 8.96942 8.95148 9.48006 9.48768 11.0987Z" fill="#EDEDED" stroke="#D2D2D2"/>
<path d="M15.9228 15.3097C14.1217 17.5205 11.3658 17.4834 8.64323 15.3096C5.92066 13.1357 7.59238 8.58082 12.34 7.09261C15.0086 8.13614 13.6345 14.3349 15.9228 15.3097Z" fill="#EDEDED" stroke="#D2D2D2"/>
<path d="M7.21377 6.35139C6.83238 6.39276 6.48913 6.43412 6.2603 6.47549C6.03146 6.55822 5.87891 6.55823 5.87891 6.55823C5.95518 5.68951 6.3747 4.86216 6.90864 4.15892C9.75485 0.660165 13.7396 2.49549 15.9095 5.68952C16.4434 6.4755 16.7485 7.30284 16.9011 7.92335C16.9774 8.21292 17.0155 8.50252 17.0536 8.66799C17.0918 8.83346 17.0918 8.95754 17.0918 8.95754C13.4251 11.1118 11.0538 6.14314 7.21377 6.35139Z" fill="#EDEDED" stroke="#D2D2D2"/>
<path d="M13.9424 8.277C13.9424 8.277 13.9424 8.15289 13.9003 7.98742C13.8582 7.82195 13.8161 7.57375 13.7319 7.24281C13.5634 6.6223 13.1845 5.79494 12.6371 5.00896C12.0897 4.22297 11.3318 3.51973 10.7002 3.02332C10.0687 2.52691 9.60547 2.23733 9.60547 2.23733C10.1528 1.69955 10.8687 1.32725 11.6687 1.16178C12.4687 0.954945 13.395 0.954935 14.3214 1.20314C15.2056 1.40998 16.0898 1.86504 16.7635 2.48555C17.4372 3.10606 17.9004 3.85067 18.1109 4.59528C18.1109 4.59528 18.153 4.71939 18.1951 4.9676C18.2373 5.2158 18.3215 5.54673 18.3636 5.9604C18.4478 6.78776 18.4057 7.82194 18.153 8.77339C17.9004 9.72484 17.3951 10.4281 16.932 10.8831C16.7214 11.09 16.5109 11.2554 16.3846 11.3382C16.2583 11.4209 16.1741 11.5037 16.1741 11.5037C15.1635 11.0073 14.6582 10.9659 14.3635 10.5522C14.1529 10.0972 14.0687 9.39392 13.9424 8.277Z" fill="#EDEDED" stroke="#D2D2D2"/>
<path d="M14.768 8.70411C14.768 8.70411 14.8363 8.64047 14.9205 8.48566C15.0169 8.37042 15.2096 8.13997 15.3096 7.89397C15.6304 7.3659 15.8936 6.50916 15.8539 5.52664C15.8667 4.57168 15.5485 3.54253 15.2232 2.77494C15.0605 2.39114 14.882 2.09855 14.7683 1.87308C14.6546 1.64762 14.5776 1.54089 14.5776 1.54089C15.3553 1.35203 16.2468 1.38865 17.1433 1.72638C18.0276 2.02454 18.9169 2.62382 19.5732 3.46558C19.9215 3.88045 20.1892 4.31937 20.3886 4.82191C20.5023 5.04738 20.5758 5.28487 20.6492 5.52236C20.7226 5.75985 20.7558 6.00935 20.7889 6.25887C20.8552 6.75789 20.8164 7.20181 20.7776 7.64572C20.6863 8.06207 20.5547 8.49045 20.3583 8.85168C20.3583 8.85168 20.262 8.96691 20.162 9.21291C20.0498 9.41933 19.8289 9.7014 19.5801 10.0351C19.07 10.6628 18.3183 11.3627 17.4651 11.8768C16.6119 12.3908 15.7903 12.7224 15.1457 12.9148C14.8234 13.011 14.5291 13.0555 14.368 13.1036C14.1946 13.1121 14.0737 13.1482 14.0737 13.1482C13.5699 12.088 13.3532 11.2448 13.4639 10.6065C13.5623 9.92856 14.0004 9.4952 14.768 8.70411Z" fill="#EDEDED" stroke="#D2D2D2"/>
<path d="M13.5178 9.36067C14.7592 9.36058 15.9596 9.47583 17.2038 9.14246C18.1722 8.89425 19.0986 8.43921 19.7723 7.98417C20.1091 7.73597 20.4039 7.52913 20.5723 7.36366C20.7407 7.19819 20.867 7.07408 20.867 7.07408C21.246 7.8187 21.3302 8.68741 21.246 9.55613C21.1197 10.4249 20.8249 11.2936 20.3197 11.9968C17.8289 15.5655 13.9838 14.2527 12.0805 12.432C11.2428 10.9693 11.8952 9.75507 13.5178 9.36067Z" fill="#EDEDED" stroke="#D2D2D2"/>
<path d="M19.735 13.1909C18.7633 16.6276 13.6604 17.1067 11.8974 14.2862C10.1344 11.4658 12.2498 9.35036 13.0586 9.35136C13.7277 12.8779 15.4231 14.2858 19.735 13.1909Z" fill="#EDEDED" stroke="#D2D2D2"/>
</svg>
