<svg width="20" height="20" viewBox="0 0 20 20" fill="none" xmlns="http://www.w3.org/2000/svg">
<path d="M12.4817 5.48357C13.5427 5.83505 14.5788 6.28847 15.4107 6.72432C16.2425 7.16017 16.7423 7.53274 16.7423 7.53274C16.9684 6.893 16.9512 6.11088 16.743 5.39909C15.1452 -1.42497 6.57219 -0.260002 4.54751 3.6735C4.28245 4.18846 4.15691 4.5593 4.15691 4.5593C5.32244 5.3361 7.22659 6.96411 7.8651 7.05373C8.19721 7.11699 8.42641 7.03263 8.69382 6.93421C9.96521 6.00222 10.5687 4.84989 12.4817 5.48357Z" fill="#58BF90" stroke="#329467"/>
<path d="M17.4588 13.089C20.0715 10.9605 20.0277 7.70353 17.4586 4.48595C14.8895 1.26836 9.50646 3.24403 7.74767 8.85482C8.98093 12.0087 16.3067 10.3847 17.4588 13.089Z" fill="#58BF90" stroke="#329467"/>
<path d="M6.87042 2.79632C6.91931 2.34559 6.9682 1.93992 7.01709 1.66948C7.11486 1.39904 7.11487 1.21875 7.11487 1.21875C6.0882 1.3089 5.11043 1.80468 4.27932 2.43571C0.14443 5.7994 2.31345 10.5087 6.08821 13.0731C7.0171 13.7041 7.99486 14.0647 8.7282 14.245C9.07042 14.3351 9.41266 14.3802 9.60822 14.4253C9.80378 14.4703 9.95042 14.4703 9.95042 14.4703C12.4964 10.1369 6.62431 7.33453 6.87042 2.79632Z" fill="#58BF90" stroke="#329467"/>
<path d="M9.14761 10.751C9.14761 10.751 9.00094 10.751 8.80538 10.7012C8.60983 10.6514 8.3165 10.6017 7.92539 10.5021C7.19205 10.3031 6.21426 9.85526 5.28538 9.20835C4.35649 8.56145 3.52538 7.66574 2.93871 6.91932C2.35205 6.17289 2.00981 5.62549 2.00981 5.62549C1.37426 6.27239 0.93427 7.11836 0.738714 8.06383C0.49427 9.00931 0.494258 10.1041 0.787591 11.1988C1.03204 12.2438 1.56983 13.2888 2.30316 14.085C3.0365 14.8812 3.91649 15.4286 4.79649 15.6774C4.79649 15.6774 4.94316 15.7272 5.2365 15.7769C5.52983 15.8267 5.92092 15.9262 6.40981 15.976C7.38759 16.0755 8.60981 16.0257 9.73425 15.7271C10.8587 15.4286 11.6898 14.8315 12.2276 14.2841C12.472 14.0353 12.6676 13.7865 12.7654 13.6372C12.8631 13.4879 12.9609 13.3884 12.9609 13.3884C12.3743 12.1941 12.3254 11.5969 11.8365 11.2486C11.2987 10.9998 10.4676 10.9002 9.14761 10.751Z" fill="#58BF90" stroke="#329467"/>
<path d="M9.65234 11.7267C9.65234 11.7267 9.57713 11.8075 9.39417 11.9069C9.25799 12.0209 8.98563 12.2487 8.6949 12.3668C8.07082 12.746 7.05831 13.057 5.89715 13.0101C4.76856 13.0252 3.5523 12.6492 2.64514 12.2647C2.19157 12.0724 1.84578 11.8615 1.57931 11.7271C1.31285 11.5927 1.18671 11.5017 1.18671 11.5017C0.963526 12.4209 1.0068 13.4744 1.40594 14.5339C1.7583 15.579 2.46655 16.63 3.46136 17.4057C3.95165 17.8173 4.47037 18.1337 5.06429 18.3693C5.33075 18.5037 5.61142 18.5905 5.89209 18.6772C6.17276 18.764 6.46763 18.8032 6.76251 18.8423C7.35227 18.9207 7.87689 18.8748 8.40151 18.829C8.89357 18.7211 9.39983 18.5656 9.82674 18.3335C9.82674 18.3335 9.96293 18.2196 10.2537 18.1015C10.4976 17.9689 10.831 17.7079 11.2253 17.4137C11.9672 16.811 12.7944 15.9226 13.4018 14.9142C14.0093 13.9059 14.4012 12.9349 14.6286 12.1731C14.7422 11.7922 14.7949 11.4444 14.8518 11.254C14.8618 11.049 14.9044 10.9062 14.9044 10.9062C13.6515 10.3108 12.6549 10.0547 11.9006 10.1855C11.0994 10.3019 10.5873 10.8196 9.65234 11.7267Z" fill="#58BF90" stroke="#329467"/>
<path d="M10.4285 10.2465C10.4284 11.7136 10.5646 13.1322 10.1706 14.6027C9.87729 15.7472 9.33952 16.8419 8.80174 17.6381C8.50841 18.0362 8.26396 18.3846 8.06841 18.5836C7.87285 18.7827 7.72618 18.9319 7.72618 18.9319C8.60618 19.3798 9.63285 19.4793 10.6595 19.3798C11.6862 19.2305 12.7129 18.8822 13.544 18.2851C17.7615 15.3414 16.21 10.7972 14.0583 8.5479C12.3297 7.55789 10.8946 8.32888 10.4285 10.2465Z" fill="#58BF90" stroke="#329467"/>
<path d="M14.9558 17.5957C19.0174 16.4473 19.5836 10.4166 16.2503 8.33301C12.917 6.24946 10.417 8.74951 10.4182 9.70536C14.5859 10.4961 16.2497 12.4998 14.9558 17.5957Z" fill="#58BF90" stroke="#329467"/>
</svg>
