<svg width="26" height="26" viewBox="0 0 26 26" fill="none" xmlns="http://www.w3.org/2000/svg">
<path d="M3.13891 18.8089C3.27643 19.93 3.91331 21.1849 4.92864 22.1169C5.93219 23.0929 7.21161 23.7657 8.52813 24.1185C14.4985 25.6118 18.4762 19.6239 18.1177 14.4786C18.0875 14.0463 18.0338 13.7019 18.0019 13.4577C17.9701 13.2135 17.9601 13.0693 17.9601 13.0693C16.403 12.8878 15.2882 12.872 14.5112 13.2295C9.98042 14.969 9.16765 20.4243 3.13891 18.8089Z" fill="#58BF90" stroke="#329467"/>
<path d="M11.8115 24.3422C12.7963 24.8954 14.1846 25.1254 15.5369 24.8593C16.9177 24.6287 18.2175 23.9963 19.2815 23.1444C24.0206 19.2181 21.5516 12.4667 17.1934 9.70839C16.8272 9.47662 16.5179 9.31595 16.3023 9.19698C16.0866 9.07801 15.9645 9.00071 15.9645 9.00071C14.8961 10.1478 14.2231 11.0367 14.051 11.8745C12.7693 16.5554 16.6836 20.4412 11.8115 24.3422Z" fill="#58BF90" stroke="#329467"/>
<path d="M21.4032 20.6347C22.4322 20.1688 23.4397 19.1864 24.0262 17.9391C24.6581 16.69 24.9184 15.2681 24.8621 13.9063C24.5052 7.76237 17.6029 5.75337 12.7993 7.63137C12.3957 7.78917 12.083 7.94323 11.8594 8.04656C11.6358 8.14988 11.5013 8.20244 11.5013 8.20244C11.7928 9.74267 12.1104 10.8114 12.6836 11.4463C15.6962 15.2513 21.1454 14.3986 21.4032 20.6347Z" fill="#58BF90" stroke="#329467"/>
<path d="M24.0971 10.7047C24.3311 9.59974 24.1362 8.20605 23.4786 6.99483C22.8464 5.74583 21.8548 4.69402 20.7241 3.93287C15.5623 0.58169 9.85567 4.95345 8.52394 9.93628C8.41204 10.355 8.35103 10.6981 8.30186 10.9395C8.25268 11.1808 8.21534 11.3204 8.21534 11.3204C9.62905 11.9977 10.6783 12.3747 11.5293 12.2889C16.3794 12.1149 18.9197 7.21914 24.0971 10.7047Z" fill="#58BF90" stroke="#329467"/>
<path d="M17.6913 2.65698C16.9395 1.81403 15.7011 1.14565 14.3357 0.958215C12.9549 0.727924 11.5201 0.903984 10.2372 1.3642C4.47984 3.53871 4.62272 10.726 7.84897 14.7501C8.12006 15.0882 8.36041 15.3406 8.52577 15.5232C8.69112 15.7057 8.78146 15.8185 8.78146 15.8185C10.1644 15.0805 11.0897 14.4583 11.5245 13.7218C14.2568 9.71078 11.8164 4.76445 17.6913 2.65698Z" fill="#58BF90" stroke="#329467"/>
<path d="M7.41329 3.04973C6.28885 3.15624 5.01686 3.75824 4.05716 4.74745C3.05382 5.72367 2.34594 6.98403 1.95696 8.2903C0.299348 14.2172 5.0536 17.0482 10.2068 16.8318C10.6398 16.8137 10.9855 16.7695 11.2305 16.7444C11.4756 16.7192 11.6199 16.7132 11.6199 16.7132C11.8443 15.1618 13.0125 15.3583 12.6766 14.5718C11.0629 9.99467 5.63205 9.03158 7.41329 3.04973Z" fill="#58BF90" stroke="#329467"/>
<path d="M1.64294 11.5672C1.06282 12.5363 0.794554 13.9177 1.02324 15.2769C1.21562 16.6635 1.91365 17.7652 2.73582 18.8522C5.41367 21.5063 12.1248 20.1141 13.5139 14.911C13.3089 13.1907 13.286 13.1971 12.5643 12.1044C9.17292 16.855 5.40793 16.5451 1.64294 11.5672Z" fill="#58BF90" stroke="#329467"/>
</svg>
