<svg width="60" height="369" viewBox="0 0 60 369" fill="none" xmlns="http://www.w3.org/2000/svg">
<path d="M35.7386 3.3099L35.0081 1L27.4034 4.20024C23.2467 5.95233 23.6667 9.42431 24.6785 13C28.7329 11.2872 37.6343 9.34566 35.7386 3.3099Z" fill="#EDEDED" stroke="#D2D2D2"/>
<path d="M35.7386 10.3099L35.0081 8L27.4034 11.2002C23.2467 12.9523 23.6667 16.4243 24.6785 20C28.7329 18.2872 37.6343 16.3457 35.7386 10.3099Z" fill="#EDEDED" stroke="#D2D2D2"/>
<path d="M35.7386 17.3099L35.0081 15L27.4034 18.2002C23.2467 19.9523 23.6667 23.4243 24.6785 27C28.7329 25.2872 37.6343 23.3457 35.7386 17.3099Z" fill="#EDEDED" stroke="#D2D2D2"/>
<path d="M35.7386 24.3099L35.0081 22L27.4034 25.2002C23.2467 26.9523 23.6667 30.4243 24.6785 34C28.7329 32.2872 37.6343 30.3457 35.7386 24.3099Z" fill="#EDEDED" stroke="#D2D2D2"/>
<path d="M35.7386 31.3099L35.0081 29L27.4034 32.2002C23.2467 33.9523 23.6667 37.4243 24.6785 41C28.7329 39.2872 37.6343 37.3457 35.7386 31.3099Z" fill="#EDEDED" stroke="#D2D2D2"/>
<path d="M35.7386 38.3099L35.0081 36L27.4034 39.2002C23.2467 40.9523 23.6667 44.4243 24.6785 48C28.7329 46.2872 37.6343 44.3457 35.7386 38.3099Z" fill="#EDEDED" stroke="#D2D2D2"/>
<path d="M35.7386 45.3099L35.0081 43L27.4034 46.2002C23.2467 47.9523 23.6667 51.4243 24.6785 55C28.7329 53.2872 37.6343 51.3457 35.7386 45.3099Z" fill="#EDEDED" stroke="#D2D2D2"/>
<path d="M35.7386 52.3099L35.0081 50L27.4034 53.2002C23.2467 54.9523 23.6667 58.4243 24.6785 62C28.7329 60.2872 37.6343 58.3457 35.7386 52.3099Z" fill="#EDEDED" stroke="#D2D2D2"/>
<path d="M35.4985 68.2769C35.0907 67.2388 34.1845 66.2006 33.0065 65.5687C31.8285 64.8916 30.4693 64.5757 29.1553 64.5757C23.2232 64.6776 21.0133 71.4316 22.6309 76.2662C22.7669 76.6725 22.9028 76.9884 22.9934 77.2141C23.084 77.4398 23.1293 77.5752 23.1293 77.5752C24.6245 77.3495 25.6666 77.0787 26.3009 76.537C30.0859 73.709 29.4815 68.2769 35.4985 68.2769Z" fill="#EDEDED" stroke="#D2D2D2"/>
<path d="M40.5674 72.5813C40.4976 71.4687 39.9532 70.2043 39.0254 69.244C38.1114 68.2407 36.9141 67.526 35.663 67.1261C30.2315 65.4918 24.854 70.9442 26.8061 76.1517C35.423 79.3508 35.0175 70.8069 40.5674 72.5813Z" fill="#EDEDED" stroke="#D2D2D2"/>
<path d="M22.9896 68.9088C23.0802 68.7282 23.1708 68.5477 23.2161 68.3671C23.3521 68.0963 23.4427 67.9157 23.4427 67.9157C22.4459 67.7352 21.3132 67.8706 20.2711 68.322C19.229 68.7282 18.2322 69.4504 17.5073 70.308C14.2348 74.3832 16.4423 79.8713 20.3164 82.7659C20.4976 82.9013 20.7242 83.0367 20.9054 83.1721C21.2679 83.3978 21.5397 83.5784 21.7662 83.6686C21.9928 83.7589 22.1287 83.804 22.1287 83.804C23.1708 82.7207 23.7598 81.9083 23.941 80.9604C24.5598 76.8509 21.8263 73.5442 22.9896 68.9088Z" fill="#EDEDED" stroke="#D2D2D2"/>
<path d="M34.9973 76.1308C34.9973 76.1308 35.1332 76.0856 35.3597 75.9954C35.5862 75.9051 35.9034 75.8148 36.3112 75.7697C37.1268 75.5891 38.3048 75.5891 39.5281 75.8148C40.7514 76.0405 42.02 76.537 42.9262 76.9884C43.3793 77.214 43.7418 77.4397 44.0136 77.6203C44.2855 77.8008 44.4213 77.8911 44.4213 77.8911C44.7838 76.9432 44.8291 75.8599 44.6026 74.7766C44.376 73.6934 43.8323 72.5649 43.0621 71.6622C42.2918 70.7143 41.2951 69.9921 40.2077 69.5407C39.1203 69.0893 37.9423 68.9539 36.9002 69.1345C36.9002 69.1345 36.719 69.1796 36.4018 69.2248C36.0847 69.315 35.6315 69.4053 35.1332 69.631C34.6348 69.8115 34.0458 70.0824 33.5021 70.4435C32.9584 70.8046 32.46 71.2108 32.0069 71.6622C31.1461 72.5649 30.7383 73.6482 30.6023 74.4156C30.557 74.8218 30.557 75.0926 30.6023 75.3183C30.6476 75.544 30.6477 75.6342 30.6477 75.6342C31.7351 76.4016 32.1429 76.9884 32.46 76.9884C32.5959 76.9884 32.9131 76.8981 33.2755 76.7175C33.9098 76.5821 34.4536 76.3564 34.9973 76.1308Z" fill="#EDEDED" stroke="#D2D2D2"/>
<path d="M35.7347 59.3098L35.0042 56.9999L27.3995 60.2001C23.2428 61.9522 23.6628 65.4242 24.6746 68.9999C28.729 67.2871 37.6304 65.3456 35.7347 59.3098Z" fill="#EDEDED" stroke="#D2D2D2"/>
<path d="M35.7347 66.3098L35.0042 63.9999L27.3995 67.2001C23.2428 68.9522 23.6628 72.4242 24.6746 75.9999C28.729 74.2871 37.6304 72.3456 35.7347 66.3098Z" fill="#EDEDED" stroke="#D2D2D2"/>
<path d="M35.7347 73.3098L35.0042 70.9999L27.3995 74.2001C23.2428 75.9522 23.6628 79.4242 24.6746 82.9999C28.729 81.2871 37.6304 79.3456 35.7347 73.3098Z" fill="#EDEDED" stroke="#D2D2D2"/>
<path d="M35.7347 80.3098L35.0042 77.9999L27.3995 81.2001C23.2428 82.9522 23.6628 86.4242 24.6746 89.9999C28.729 88.2871 37.6304 86.3456 35.7347 80.3098Z" fill="#EDEDED" stroke="#D2D2D2"/>
<path d="M35.7347 87.3098L35.0042 84.9999L27.3995 88.2001C23.2428 89.9522 23.6628 93.4242 24.6746 96.9999C28.729 95.2871 37.6304 93.3456 35.7347 87.3098Z" fill="#EDEDED" stroke="#D2D2D2"/>
<path d="M35.7347 94.3098L35.0042 91.9999L27.3995 95.2001C23.2428 96.9522 23.6628 100.424 24.6746 104C28.729 102.287 37.6304 100.346 35.7347 94.3098Z" fill="#EDEDED" stroke="#D2D2D2"/>
<path d="M16.1474 76.8084C16.0568 76.4924 16.0114 76.357 16.0114 76.357C14.2897 77.35 13.1117 79.4715 13.0664 81.7735C13.0664 87.3495 19.0829 90.4186 24.1669 89.0857C24.5747 88.9954 24.8918 88.9052 25.1184 88.8149C25.3449 88.7246 25.4809 88.6795 25.4809 88.6795C25.1738 83.4799 17.7347 82.343 16.1474 76.8084Z" fill="#EDEDED" stroke="#D2D2D2"/>
<path d="M25.4827 88.6347C25.4827 88.6347 25.3467 88.6798 25.1202 88.7701C24.8936 88.8604 24.5765 88.9506 24.1687 89.0409C23.3532 89.2214 22.1752 89.3569 20.9066 89.2666C20.2722 89.2214 19.6832 89.086 19.0489 88.9055C18.4599 88.7249 17.9162 88.4993 17.4178 88.3187C16.9647 88.093 16.5569 87.8673 16.2851 87.7319C16.0132 87.5514 15.832 87.4611 15.832 87.4611C15.6961 87.9576 15.6508 88.4541 15.6055 88.9958C15.6055 89.5374 15.6961 90.0791 15.8773 90.6658C16.0132 91.2075 16.2851 91.7491 16.5569 92.2456C16.8288 92.7422 17.2366 93.1935 17.6443 93.6449C18.0521 94.0511 18.5052 94.4122 19.0036 94.7282C19.502 95.0442 20.0004 95.2698 20.5441 95.4504C21.0878 95.6309 21.5862 95.7212 22.1299 95.7663C22.6736 95.8115 23.172 95.7212 23.625 95.6309C23.625 95.6309 23.8063 95.5858 24.0781 95.4955C24.3953 95.4052 24.803 95.2698 25.3014 95.1344C26.2529 94.7733 27.4762 94.1865 28.473 93.4643C28.9714 93.1032 29.4245 92.697 29.8322 92.3359C30.24 91.9297 30.5572 91.5686 30.7837 91.2075C31.2821 90.4853 31.5086 90.0339 31.5086 90.0339C30.5118 88.9055 29.7417 88.2736 28.8355 88.093C27.9293 87.9125 26.8872 88.093 25.4827 88.6347Z" fill="#EDEDED" stroke="#D2D2D2"/>
<path d="M31.5066 90.079C31.5066 90.079 31.2801 90.5304 30.7817 91.2526C30.5099 91.5685 30.1927 91.9748 29.8302 92.381C29.4225 92.7421 28.9694 93.1483 28.471 93.5094C27.4742 94.2316 26.2509 94.8184 25.2994 95.1795C24.801 95.36 24.3933 95.4955 24.0761 95.5406C23.759 95.6309 23.623 95.6309 23.623 95.6309C23.8496 96.0822 24.1667 96.4885 24.4839 96.8496C24.8463 97.2558 25.2541 97.5718 25.7072 97.8426C26.1603 98.1585 26.6586 98.3842 27.2023 98.5648C27.746 98.7453 28.2898 98.8356 28.8788 98.9259C30.0115 99.0162 31.2348 98.8356 32.2769 98.4294C33.319 97.978 34.2251 97.3461 34.8141 96.4885C34.8141 96.4885 34.9047 96.3531 35.086 96.0822C35.2672 95.8566 35.4938 95.4052 35.7203 94.9538C36.2187 94.0511 36.6718 92.7421 36.853 91.5234C37.0342 90.3047 36.9889 89.1311 36.8077 88.2735C36.7171 87.8673 36.6265 87.5062 36.5812 87.2805C36.4906 87.0548 36.4452 86.9194 36.4452 86.9194C34.9501 86.9194 33.908 87.0097 33.2284 87.461C33.0471 87.5513 32.9112 87.6867 32.73 87.8673C32.5941 88.0027 32.4581 88.1832 32.3222 88.4089C32.1863 88.5895 32.0503 88.8603 31.9144 89.1311C31.8238 89.4471 31.6879 89.7179 31.5066 90.079Z" fill="#EDEDED" stroke="#D2D2D2"/>
<path d="M36.5335 87.0095C36.5335 87.0095 36.5788 87.1449 36.6694 87.3706C36.7147 87.5963 36.8053 87.9123 36.8959 88.3636C37.0318 89.1761 37.1224 90.3497 36.9412 91.6135C36.76 92.8322 36.3069 94.1412 35.8085 95.0439C35.582 95.4953 35.3102 95.9015 35.1742 96.1724C34.993 96.4432 34.9023 96.5786 34.9023 96.5786C35.1289 96.6689 35.4008 96.7592 35.6726 96.8043C35.9445 96.8494 36.2163 96.8494 36.4881 96.8946C36.76 96.8946 37.0318 96.8946 37.349 96.8946C37.6208 96.8494 37.8927 96.8043 38.1646 96.7592C39.252 96.4883 40.3393 95.9467 41.2455 95.1794C42.1517 94.412 42.8313 93.419 43.2391 92.426C43.6468 91.3878 43.7828 90.3045 43.6015 89.3115C43.6015 89.3115 43.5562 89.131 43.5109 88.815C43.4656 88.499 43.3297 88.0928 43.1938 87.5963C42.8766 86.6033 42.3329 85.3846 41.608 84.3464C40.883 83.3083 39.9769 82.5409 39.2973 82.0444C38.9348 81.8187 38.6629 81.6382 38.4364 81.5028C38.2099 81.3674 38.1193 81.3222 38.1193 81.3222C37.0319 82.3604 36.3975 83.1277 36.2163 83.8951C35.8538 84.5721 36.0804 85.5651 36.5335 87.0095Z" fill="#EDEDED" stroke="#D2D2D2"/>
<path d="M43.3774 88.7247C43.4227 89.0406 43.468 89.2212 43.468 89.2212C44.3742 88.815 45.1898 88.0476 45.8241 87.0997C46.4584 86.1519 46.8208 84.9783 46.9114 83.8047C47.002 82.6312 46.8208 81.4125 46.3678 80.4194C44.4833 76.1015 41.8094 74.5937 36.1521 75.6988C35.0062 77.798 34.9501 78.614 35.3578 79.3361C37.8172 83.1474 42.4063 82.9197 43.3774 88.7247Z" fill="#EDEDED" stroke="#D2D2D2"/>
<path d="M35.7386 101.31L35.0081 99L27.4034 102.2C23.2467 103.952 23.6667 107.424 24.6785 111C28.7329 109.287 37.6343 107.346 35.7386 101.31Z" fill="#EDEDED" stroke="#D2D2D2"/>
<path d="M35.7386 108.31L35.0081 106L27.4034 109.2C23.2467 110.952 23.6667 114.424 24.6785 118C28.7329 116.287 37.6343 114.346 35.7386 108.31Z" fill="#EDEDED" stroke="#D2D2D2"/>
<path d="M35.7386 115.31L35.0081 113L27.4034 116.2C23.2467 117.952 23.6667 121.424 24.6785 125C28.7329 123.287 37.6343 121.346 35.7386 115.31Z" fill="#EDEDED" stroke="#D2D2D2"/>
<path d="M35.7386 122.31L35.0081 120L27.4034 123.2C23.2467 124.952 23.6667 128.424 24.6785 132C28.7329 130.287 37.6343 128.346 35.7386 122.31Z" fill="#EDEDED" stroke="#D2D2D2"/>
<path d="M35.7386 129.31L35.0081 127L27.4034 130.2C23.2467 131.952 23.6667 135.424 24.6785 139C28.7329 137.287 37.6343 135.346 35.7386 129.31Z" fill="#EDEDED" stroke="#D2D2D2"/>
<path d="M35.7386 136.31L35.0081 134L27.4034 137.2C23.2467 138.952 23.6667 142.424 24.6785 146C28.7329 144.287 37.6343 142.346 35.7386 136.31Z" fill="#EDEDED" stroke="#D2D2D2"/>
<path d="M35.7386 143.31L35.0081 141L27.4034 144.2C23.2467 145.952 23.6667 149.424 24.6785 153C28.7329 151.287 37.6343 149.346 35.7386 143.31Z" fill="#EDEDED" stroke="#D2D2D2"/>
<path d="M35.7386 150.31L35.0081 148L27.4034 151.2C23.2467 152.952 23.6667 156.424 24.6785 160C28.7329 158.287 37.6343 156.346 35.7386 150.31Z" fill="#EDEDED" stroke="#D2D2D2"/>
<path d="M35.7386 157.31L35.0081 155L27.4034 158.2C23.2467 159.952 23.6667 163.424 24.6785 167C28.7329 165.287 37.6343 163.346 35.7386 157.31Z" fill="#EDEDED" stroke="#D2D2D2"/>
<path d="M35.7386 164.31L35.0081 162L27.4034 165.2C23.2467 166.952 23.6667 170.424 24.6785 174C28.7329 172.287 37.6343 170.346 35.7386 164.31Z" fill="#EDEDED" stroke="#D2D2D2"/>
<path d="M35.7386 171.31L35.0081 169L27.4034 172.2C23.2467 173.952 23.6667 177.424 24.6785 181C28.7329 179.287 37.6343 177.346 35.7386 171.31Z" fill="#EDEDED" stroke="#D2D2D2"/>
<path d="M35.7386 178.31L35.0081 176L27.4034 179.2C23.2467 180.952 23.6667 184.424 24.6785 188C28.7329 186.287 37.6343 184.346 35.7386 178.31Z" fill="#EDEDED" stroke="#D2D2D2"/>
<path d="M35.7386 185.31L35.0081 183L27.4034 186.2C23.2467 187.952 23.6667 191.424 24.6785 195C28.7329 193.287 37.6343 191.346 35.7386 185.31Z" fill="#EDEDED" stroke="#D2D2D2"/>
<path d="M35.7386 192.31L35.0081 190L27.4034 193.2C23.2467 194.952 23.6667 198.424 24.6785 202C28.7329 200.287 37.6343 198.346 35.7386 192.31Z" fill="#EDEDED" stroke="#D2D2D2"/>
<path d="M35.7386 199.31L35.0081 197L27.4034 200.2C23.2467 201.952 23.6667 205.424 24.6785 209C28.7329 207.287 37.6343 205.346 35.7386 199.31Z" fill="#EDEDED" stroke="#D2D2D2"/>
<path d="M35.7386 206.31L35.0081 204L27.4034 207.2C23.2467 208.952 23.6667 212.424 24.6785 216C28.7329 214.287 37.6343 212.346 35.7386 206.31Z" fill="#EDEDED" stroke="#D2D2D2"/>
<path d="M35.7386 213.31L35.0081 211L27.4034 214.2C23.2467 215.952 23.6667 219.424 24.6785 223C28.7329 221.287 37.6343 219.346 35.7386 213.31Z" fill="#EDEDED" stroke="#D2D2D2"/>
<path d="M35.7386 220.31L35.0081 218L27.4034 221.2C23.2467 222.952 23.6667 226.424 24.6785 230C28.7329 228.287 37.6343 226.346 35.7386 220.31Z" fill="#EDEDED" stroke="#D2D2D2"/>
<path d="M35.7386 227.31L35.0081 225L27.4034 228.2C23.2467 229.952 23.6667 233.424 24.6785 237C28.7329 235.287 37.6343 233.346 35.7386 227.31Z" fill="#EDEDED" stroke="#D2D2D2"/>
<path d="M35.7386 234.31L35.0081 232L27.4034 235.2C23.2467 236.952 23.6667 240.424 24.6785 244C28.7329 242.287 37.6343 240.346 35.7386 234.31Z" fill="#EDEDED" stroke="#D2D2D2"/>
<path d="M35.7386 241.31L35.0081 239L27.4034 242.2C23.2467 243.952 23.6667 247.424 24.6785 251C28.7329 249.287 37.6343 247.346 35.7386 241.31Z" fill="#EDEDED" stroke="#D2D2D2"/>
<path d="M35.7386 248.31L35.0081 246L27.4034 249.2C23.2467 250.952 23.6667 254.424 24.6785 258C28.7329 256.287 37.6343 254.346 35.7386 248.31Z" fill="#EDEDED" stroke="#D2D2D2"/>
<path d="M35.7386 255.31L35.0081 253L27.4034 256.2C23.2467 257.952 23.6667 261.424 24.6785 265C28.7329 263.287 37.6343 261.346 35.7386 255.31Z" fill="#EDEDED" stroke="#D2D2D2"/>
<path d="M35.7386 262.31L35.0081 260L27.4034 263.2C23.2467 264.952 23.6667 268.424 24.6785 272C28.7329 270.287 37.6343 268.346 35.7386 262.31Z" fill="#EDEDED" stroke="#D2D2D2"/>
<path d="M35.7386 269.31L35.0081 267L27.4034 270.2C23.2467 271.952 23.6667 275.424 24.6785 279C28.7329 277.287 37.6343 275.346 35.7386 269.31Z" fill="#EDEDED" stroke="#D2D2D2"/>
<path d="M35.7386 276.31L35.0081 274L27.4034 277.2C23.2467 278.952 23.6667 282.424 24.6785 286C28.7329 284.287 37.6343 282.346 35.7386 276.31Z" fill="#EDEDED" stroke="#D2D2D2"/>
<path d="M35.7386 283.31L35.0081 281L27.4034 284.2C23.2467 285.952 23.6667 289.424 24.6785 293C28.7329 291.287 37.6343 289.346 35.7386 283.31Z" fill="#EDEDED" stroke="#D2D2D2"/>
<path d="M35.7386 290.31L35.0081 288L27.4034 291.2C23.2467 292.952 23.6667 296.424 24.6785 300C28.7329 298.287 37.6343 296.346 35.7386 290.31Z" fill="#EDEDED" stroke="#D2D2D2"/>
<path d="M35.7386 297.31L35.0081 295L27.4034 298.2C23.2467 299.952 23.6667 303.424 24.6785 307C28.7329 305.287 37.6343 303.346 35.7386 297.31Z" fill="#EDEDED" stroke="#D2D2D2"/>
<path d="M35.7386 304.31L35.0081 302L27.4034 305.2C23.2467 306.952 23.6667 310.424 24.6785 314C28.7329 312.287 37.6343 310.346 35.7386 304.31Z" fill="#EDEDED" stroke="#D2D2D2"/>
<path d="M35.7386 311.31L35.0081 309L27.4034 312.2C23.2467 313.952 23.6667 317.424 24.6785 321C28.7329 319.287 37.6343 317.346 35.7386 311.31Z" fill="#EDEDED" stroke="#D2D2D2"/>
<path d="M35.7386 318.31L35.0081 316L27.4034 319.2C23.2467 320.952 23.6667 324.424 24.6785 328C28.7329 326.287 37.6343 324.346 35.7386 318.31Z" fill="#EDEDED" stroke="#D2D2D2"/>
<path d="M23.0071 350.328C22.6967 355.337 22.076 360.336 21.1054 365.28C21.1054 365.317 21.0941 365.335 21.0941 365.353C20.5607 367.959 22.3912 367.752 24.1696 367.752C25.2362 363.387 26.1278 357.322 26.2181 351.992C26.2181 351.992 26.7824 357.009 25.3377 365.942C25.4167 366.511 25.5296 367.191 25.7384 367.752H27.5668C28.2665 361.282 28.7462 353.609 28.8139 346.312C28.8478 347.434 29.0961 355.41 28.0859 367.752H31.1107L31.4888 366.383L31.7766 365.381C31.7709 365.372 31.7709 365.353 31.7709 365.335C31.5395 362.054 31.3985 359.178 31.3025 356.706C31.0373 349.841 31.2292 346.184 31.2292 346.184C31.28 353.379 31.7483 360.942 32.4481 368L35.0044 367.752C33.2438 357.882 33.7799 352.341 33.8194 352.001C33.9435 359.187 35.3035 365.409 35.9356 367.963L37.8824 367.752C38.6443 367.743 39.1804 366.539 38.9434 365.326C37.9671 360.373 37.3407 355.346 37.036 350.328C36.2299 338.515 23.9939 334.729 23.0071 350.328Z" fill="#EDEDED" stroke="#D2D2D2"/>
<path d="M36.2168 325.502L35.4254 323L27.187 326.467C22.6839 328.365 23.1389 332.126 24.235 336C28.6273 334.145 38.2705 332.041 36.2168 325.502Z" fill="#EDEDED" stroke="#D2D2D2"/>
<path d="M32.7314 334.032C33.8986 334.419 35.0383 334.918 35.9533 335.397C36.8684 335.877 37.4181 336.286 37.4181 336.286C37.6668 335.583 37.6479 334.722 37.4189 333.939C35.6612 326.433 26.231 327.714 24.0038 332.041C23.7123 332.608 23.5742 333.016 23.5742 333.016C24.8563 333.87 26.9508 335.661 27.6532 335.759C28.0185 335.829 28.2706 335.736 28.5648 335.628C29.9633 334.603 30.6271 333.335 32.7314 334.032Z" fill="#EDEDED" stroke="#D2D2D2"/>
<path d="M38.2047 342.398C41.0786 340.057 41.0304 336.474 38.2045 332.935C35.3785 329.395 29.4571 331.569 27.5224 337.741C28.879 341.21 36.9374 339.423 38.2047 342.398Z" fill="#EDEDED" stroke="#D2D2D2"/>
<path d="M26.5588 331.076C26.6126 330.58 26.6664 330.134 26.7202 329.837C26.8277 329.539 26.8277 329.341 26.8277 329.341C25.6984 329.44 24.6228 329.985 23.7086 330.68C19.1602 334.38 21.5462 339.56 25.6984 342.381C26.7202 343.075 27.7957 343.471 28.6024 343.67C28.9788 343.769 29.3553 343.818 29.5704 343.868C29.7855 343.918 29.9468 343.918 29.9468 343.918C32.7474 339.151 26.2881 336.068 26.5588 331.076Z" fill="#EDEDED" stroke="#D2D2D2"/>
<path d="M29.0632 339.826C29.0632 339.826 28.9018 339.826 28.6867 339.771C28.4716 339.717 28.1489 339.662 27.7187 339.552C26.912 339.333 25.8365 338.841 24.8147 338.129C23.7929 337.418 22.8787 336.432 22.2334 335.611C21.588 334.79 21.2116 334.188 21.2116 334.188C20.5125 334.9 20.0285 335.83 19.8134 336.87C19.5445 337.91 19.5445 339.114 19.8671 340.319C20.136 341.468 20.7276 342.618 21.5343 343.494C22.3409 344.369 23.3089 344.971 24.2769 345.245C24.2769 345.245 24.4383 345.3 24.7609 345.355C25.0836 345.409 25.5138 345.519 26.0516 345.574C27.1271 345.683 28.4716 345.628 29.7085 345.3C30.9453 344.971 31.8596 344.315 32.4511 343.712C32.72 343.439 32.9351 343.165 33.0427 343.001C33.1502 342.837 33.2578 342.727 33.2578 342.727C32.6125 341.413 32.5587 340.757 32.0209 340.373C31.4294 340.1 30.5152 339.99 29.0632 339.826Z" fill="#EDEDED" stroke="#D2D2D2"/>
<path d="M29.6184 340.9C29.6184 340.9 29.5356 340.989 29.3344 341.098C29.1846 341.223 28.885 341.474 28.5652 341.604C27.8787 342.021 26.7649 342.363 25.4876 342.311C24.2462 342.328 22.9083 341.914 21.9104 341.492C21.4115 341.28 21.0311 341.048 20.738 340.9C20.4449 340.752 20.3062 340.652 20.3062 340.652C20.0607 341.663 20.1083 342.822 20.5473 343.988C20.9349 345.137 21.714 346.293 22.8083 347.147C23.3476 347.599 23.9182 347.947 24.5715 348.207C24.8646 348.354 25.1733 348.45 25.4821 348.545C25.7908 348.641 26.1152 348.684 26.4395 348.727C27.0883 348.813 27.6654 348.763 28.2424 348.712C28.7837 348.594 29.3406 348.422 29.8102 348.167C29.8102 348.167 29.96 348.042 30.2798 347.912C30.5481 347.766 30.9148 347.479 31.3486 347.155C32.1647 346.492 33.0746 345.515 33.7428 344.406C34.411 343.297 34.8421 342.229 35.0922 341.391C35.2173 340.972 35.2752 340.589 35.3377 340.38C35.3488 340.154 35.3957 339.997 35.3957 339.997C34.0174 339.342 32.9212 339.061 32.0914 339.204C31.2101 339.332 30.6468 339.902 29.6184 340.9Z" fill="#EDEDED" stroke="#D2D2D2"/>
<path d="M30.472 339.271C30.4718 340.885 30.6217 342.446 30.1883 344.063C29.8656 345.322 29.2741 346.526 28.6825 347.402C28.3598 347.84 28.0909 348.223 27.8758 348.442C27.6607 348.661 27.4994 348.825 27.4994 348.825C28.4674 349.318 29.5967 349.427 30.726 349.318C31.8554 349.154 32.9847 348.771 33.899 348.114C38.5382 344.876 36.8316 339.877 34.4647 337.403C32.5632 336.314 30.9847 337.162 30.472 339.271Z" fill="#EDEDED" stroke="#D2D2D2"/>
<path d="M35.4512 347.355C39.9189 346.092 40.5418 339.458 36.8751 337.166C33.2085 334.875 30.4585 337.625 30.4598 338.676C35.0443 339.546 36.8745 341.75 35.4512 347.355Z" fill="#EDEDED" stroke="#D2D2D2"/>
</svg>
