<svg width="28" height="728" viewBox="0 0 28 728" fill="none" xmlns="http://www.w3.org/2000/svg">
<g clip-path="url(#clip0_206_22754)">
<path d="M18.304 19.7324L17.7561 18L12.0525 20.4002C8.93501 21.7142 9.25003 24.3182 10.0089 27C13.0497 25.7154 19.7258 24.2592 18.304 19.7324Z" fill="#EDEDED" stroke="#D2D2D2"/>
<path d="M18.304 24.7324L17.7561 23L12.0525 25.4002C8.93501 26.7142 9.25003 29.3182 10.0089 32C13.0497 30.7154 19.7258 29.2592 18.304 24.7324Z" fill="#EDEDED" stroke="#D2D2D2"/>
<path d="M18.304 29.7324L17.7561 28L12.0525 30.4002C8.93501 31.7142 9.25003 34.3182 10.0089 37C13.0497 35.7154 19.7258 34.2592 18.304 29.7324Z" fill="#EDEDED" stroke="#D2D2D2"/>
<path d="M18.304 34.7324L17.7561 33L12.0525 35.4002C8.93501 36.7142 9.25003 39.3182 10.0089 42C13.0497 40.7154 19.7258 39.2592 18.304 34.7324Z" fill="#EDEDED" stroke="#D2D2D2"/>
<path d="M18.304 39.7324L17.7561 38L12.0525 40.4002C8.93501 41.7142 9.25003 44.3182 10.0089 47C13.0497 45.7154 19.7258 44.2592 18.304 39.7324Z" fill="#EDEDED" stroke="#D2D2D2"/>
<path d="M18.304 44.7324L17.7561 43L12.0525 45.4002C8.93501 46.7142 9.25003 49.3182 10.0089 52C13.0497 50.7154 19.7258 49.2592 18.304 44.7324Z" fill="#EDEDED" stroke="#D2D2D2"/>
<path d="M18.304 49.7324L17.7561 48L12.0525 50.4002C8.93501 51.7142 9.25003 54.3182 10.0089 57C13.0497 55.7154 19.7258 54.2592 18.304 49.7324Z" fill="#EDEDED" stroke="#D2D2D2"/>
<path d="M18.304 54.7324L17.7561 53L12.0525 55.4002C8.93501 56.7142 9.25003 59.3182 10.0089 62C13.0497 60.7154 19.7258 59.2592 18.304 54.7324Z" fill="#EDEDED" stroke="#D2D2D2"/>
<path d="M18.304 59.7324L17.7561 58L12.0525 60.4002C8.93501 61.7142 9.25003 64.3182 10.0089 67C13.0497 65.7154 19.7258 64.2592 18.304 59.7324Z" fill="#EDEDED" stroke="#D2D2D2"/>
<path d="M18.304 64.7324L17.7561 63L12.0525 65.4002C8.93501 66.7142 9.25003 69.3182 10.0089 72C13.0497 70.7154 19.7258 69.2592 18.304 64.7324Z" fill="#EDEDED" stroke="#D2D2D2"/>
<path d="M18.304 69.7324L17.7561 68L12.0525 70.4002C8.93501 71.7142 9.25003 74.3182 10.0089 77C13.0497 75.7154 19.7258 74.2592 18.304 69.7324Z" fill="#EDEDED" stroke="#D2D2D2"/>
<path d="M18.1258 81.3328C17.82 80.5542 17.1403 79.7756 16.2568 79.3017C15.3733 78.7939 14.3539 78.5569 13.3684 78.5569C8.91936 78.6333 7.26192 83.6988 8.47515 87.3248C8.5771 87.6295 8.67906 87.8664 8.74702 88.0357C8.81498 88.205 8.84894 88.3065 8.84894 88.3065C9.97032 88.1373 10.7519 87.9341 11.2276 87.5279C14.0664 85.4069 13.6131 81.3328 18.1258 81.3328Z" fill="#EDEDED" stroke="#D2D2D2"/>
<path d="M21.9275 84.561C21.8751 83.7265 21.4669 82.7782 20.771 82.058C20.0855 81.3055 19.1875 80.7696 18.2492 80.4696C14.1756 79.2439 10.1425 83.3332 11.6065 87.2388C18.0692 89.6381 17.7651 83.2302 21.9275 84.561Z" fill="#EDEDED" stroke="#D2D2D2"/>
<path d="M8.74365 81.8067C8.81162 81.6713 8.87958 81.5359 8.91356 81.4005C9.0155 81.1973 9.08347 81.0619 9.08347 81.0619C8.33588 80.9265 7.48635 81.0281 6.70479 81.3666C5.92322 81.6713 5.17564 82.2129 4.63195 82.8561C2.17759 85.9125 3.8332 90.0286 6.73876 92.1995C6.87468 92.3011 7.04461 92.4027 7.18053 92.5042C7.45238 92.6735 7.65623 92.8089 7.82614 92.8766C7.99605 92.9443 8.098 92.9782 8.098 92.9782C8.87957 92.1657 9.32133 91.5563 9.45725 90.8454C9.92132 87.7633 7.87121 85.2833 8.74365 81.8067Z" fill="#EDEDED" stroke="#D2D2D2"/>
<path d="M17.7494 87.2232C17.7494 87.2232 17.8513 87.1894 18.0212 87.1216C18.1911 87.0539 18.429 86.9862 18.7349 86.9524C19.3465 86.817 20.23 86.817 21.1475 86.9862C22.065 87.1555 23.0165 87.5279 23.6961 87.8664C24.0359 88.0357 24.3078 88.2049 24.5117 88.3403C24.7156 88.4758 24.8175 88.5435 24.8175 88.5435C25.0893 87.8325 25.1233 87.0201 24.9534 86.2076C24.7835 85.3951 24.3757 84.5488 23.798 83.8718C23.2204 83.1608 22.4728 82.6192 21.6572 82.2807C20.8417 81.9421 19.9582 81.8406 19.1766 81.976C19.1766 81.976 19.0407 82.0099 18.8028 82.0437C18.565 82.1114 18.2251 82.1791 17.8513 82.3484C17.4775 82.4838 17.0358 82.6869 16.628 82.9577C16.2202 83.2285 15.8465 83.5332 15.5067 83.8718C14.861 84.5488 14.5552 85.3613 14.4532 85.9368C14.4192 86.2415 14.4192 86.4446 14.4532 86.6139C14.4872 86.7831 14.4872 86.8508 14.4872 86.8508C15.3028 87.4263 15.6086 87.8664 15.8465 87.8664C15.9484 87.8664 16.1863 87.7987 16.4581 87.6633C16.9339 87.5617 17.3416 87.3925 17.7494 87.2232Z" fill="#EDEDED" stroke="#D2D2D2"/>
<path d="M18.3001 74.6074L17.7522 72.875L12.0486 75.2752C8.9311 76.5892 9.24612 79.1932 10.005 81.875C13.0458 80.5904 19.7218 79.1342 18.3001 74.6074Z" fill="#EDEDED" stroke="#D2D2D2"/>
<path d="M18.3001 79.6074L17.7522 77.875L12.0486 80.2752C8.9311 81.5892 9.24612 84.1932 10.005 86.875C13.0458 85.5904 19.7218 84.1342 18.3001 79.6074Z" fill="#EDEDED" stroke="#D2D2D2"/>
<path d="M18.3001 84.6074L17.7522 82.875L12.0486 85.2752C8.9311 86.5892 9.24612 89.1932 10.005 91.875C13.0458 90.5904 19.7218 89.1342 18.3001 84.6074Z" fill="#EDEDED" stroke="#D2D2D2"/>
<path d="M18.3001 89.6074L17.7522 87.875L12.0486 90.2752C8.9311 91.5892 9.24612 94.1932 10.005 96.875C13.0458 95.5904 19.7218 94.1342 18.3001 89.6074Z" fill="#EDEDED" stroke="#D2D2D2"/>
<path d="M18.3001 94.6074L17.7522 92.875L12.0486 95.2752C8.9311 96.5892 9.24612 99.1932 10.005 101.875C13.0458 100.59 19.7218 99.1342 18.3001 94.6074Z" fill="#EDEDED" stroke="#D2D2D2"/>
<path d="M18.3001 99.6074L17.7522 97.875L12.0486 100.275C8.9311 101.589 9.24612 104.193 10.005 106.875C13.0458 105.59 19.7218 104.134 18.3001 99.6074Z" fill="#EDEDED" stroke="#D2D2D2"/>
<path d="M3.60956 87.7311C3.5416 87.4941 3.5076 87.3926 3.5076 87.3926C2.21632 88.1373 1.33281 89.7284 1.29883 91.4549C1.29883 95.6369 5.81119 97.9387 9.6242 96.9391C9.93003 96.8714 10.1679 96.8037 10.3378 96.736C10.5077 96.6683 10.6097 96.6344 10.6097 96.6344C10.3794 92.7347 4.80005 91.8821 3.60956 87.7311Z" fill="#EDEDED" stroke="#D2D2D2"/>
<path d="M10.611 96.6009C10.611 96.6009 10.5091 96.6347 10.3392 96.7024C10.1693 96.7702 9.9314 96.8378 9.62557 96.9056C9.01391 97.041 8.13041 97.1425 7.17894 97.0748C6.70321 97.041 6.26142 96.9394 5.78568 96.804C5.34393 96.6686 4.93616 96.4993 4.56237 96.3639C4.22256 96.1947 3.91673 96.0254 3.71284 95.9238C3.50896 95.7884 3.37303 95.7207 3.37303 95.7207C3.27109 96.0931 3.23711 96.4655 3.20312 96.8717C3.20312 97.2779 3.27108 97.6842 3.407 98.1243C3.50895 98.5305 3.71283 98.9367 3.91672 99.3091C4.12061 99.6815 4.42645 100.02 4.73228 100.359C5.03811 100.663 5.37792 100.934 5.75171 101.171C6.1255 101.408 6.4993 101.577 6.90708 101.713C7.31485 101.848 7.68864 101.916 8.09642 101.95C8.50419 101.983 8.878 101.916 9.21781 101.848C9.21781 101.848 9.35373 101.814 9.55762 101.747C9.79549 101.679 10.1013 101.577 10.4751 101.476C11.1887 101.205 12.1062 100.765 12.8538 100.223C13.2276 99.9523 13.5674 99.6476 13.8732 99.3768C14.179 99.0721 14.4169 98.8013 14.5868 98.5305C14.9606 97.9888 15.1305 97.6503 15.1305 97.6503C14.3829 96.804 13.8053 96.3301 13.1256 96.1947C12.446 96.0592 11.6644 96.1947 10.611 96.6009Z" fill="#EDEDED" stroke="#D2D2D2"/>
<path d="M15.1295 97.6842C15.1295 97.6842 14.9596 98.0227 14.5858 98.5643C14.3819 98.8013 14.144 99.106 13.8722 99.4107C13.5664 99.6815 13.2266 99.9862 12.8528 100.257C12.1052 100.799 11.1877 101.239 10.4741 101.51C10.1003 101.645 9.79448 101.747 9.55661 101.78C9.31874 101.848 9.2168 101.848 9.2168 101.848C9.3867 102.187 9.62454 102.491 9.86241 102.762C10.1343 103.067 10.4401 103.304 10.7799 103.507C11.1197 103.744 11.4935 103.913 11.9013 104.049C12.309 104.184 12.7168 104.252 13.1586 104.319C14.0081 104.387 14.9256 104.252 15.7072 103.947C16.4887 103.608 17.1684 103.134 17.6101 102.491C17.6101 102.491 17.6781 102.39 17.814 102.187C17.9499 102.017 18.1198 101.679 18.2897 101.34C18.6635 100.663 19.0033 99.6815 19.1393 98.7675C19.2752 97.8534 19.2412 96.9732 19.1053 96.33C19.0373 96.0254 18.9694 95.7546 18.9354 95.5853C18.8674 95.416 18.8334 95.3145 18.8334 95.3145C17.7121 95.3145 16.9305 95.3822 16.4208 95.7207C16.2849 95.7884 16.1829 95.89 16.047 96.0254C15.9451 96.1269 15.8431 96.2624 15.7412 96.4316C15.6392 96.567 15.5373 96.7701 15.4353 96.9733C15.3674 97.2102 15.2654 97.4133 15.1295 97.6842Z" fill="#EDEDED" stroke="#D2D2D2"/>
<path d="M18.8991 95.3822C18.8991 95.3822 18.9331 95.4837 19.0011 95.653C19.035 95.8222 19.103 96.0592 19.171 96.3977C19.2729 97.0071 19.3409 97.8873 19.2049 98.8352C19.069 99.7492 18.7292 100.731 18.3554 101.408C18.1855 101.746 17.9816 102.051 17.8797 102.254C17.7438 102.457 17.6758 102.559 17.6758 102.559C17.8457 102.627 18.0496 102.694 18.2535 102.728C18.4574 102.762 18.6612 102.762 18.8651 102.796C19.069 102.796 19.2729 102.796 19.5108 102.796C19.7147 102.762 19.9186 102.728 20.1224 102.694C20.938 102.491 21.7535 102.085 22.4331 101.51C23.1128 100.934 23.6225 100.189 23.9283 99.4445C24.2341 98.6659 24.3361 97.8534 24.2002 97.1087C24.2002 97.1087 24.1662 96.9732 24.1322 96.7363C24.0982 96.4993 23.9963 96.1946 23.8943 95.8222C23.6565 95.0775 23.2487 94.1635 22.705 93.3848C22.1613 92.6062 21.4817 92.0307 20.972 91.6583C20.7001 91.4891 20.4962 91.3537 20.3263 91.2521C20.1564 91.1505 20.0885 91.1167 20.0885 91.1167C19.2729 91.8953 18.7972 92.4708 18.6612 93.0463C18.3894 93.5541 18.5593 94.2989 18.8991 95.3822Z" fill="#EDEDED" stroke="#D2D2D2"/>
<path d="M24.0316 96.6684C24.0656 96.9054 24.0995 97.0408 24.0995 97.0408C24.7792 96.7361 25.3909 96.1606 25.8666 95.4497C26.3423 94.7388 26.6141 93.8586 26.6821 92.9784C26.7501 92.0983 26.6142 91.1842 26.2743 90.4395C24.861 87.201 22.8556 86.0702 18.6126 86.899C17.7532 88.4734 17.7111 89.0853 18.0169 89.627C19.8614 92.4854 23.3032 92.3146 24.0316 96.6684Z" fill="#EDEDED" stroke="#D2D2D2"/>
<path d="M18.304 105.732L17.7561 104L12.0525 106.4C8.93501 107.714 9.25003 110.318 10.0089 113C13.0497 111.715 19.7258 110.259 18.304 105.732Z" fill="#EDEDED" stroke="#D2D2D2"/>
<path d="M18.304 110.732L17.7561 109L12.0525 111.4C8.93501 112.714 9.25003 115.318 10.0089 118C13.0497 116.715 19.7258 115.259 18.304 110.732Z" fill="#EDEDED" stroke="#D2D2D2"/>
<path d="M18.304 115.732L17.7561 114L12.0525 116.4C8.93501 117.714 9.25003 120.318 10.0089 123C13.0497 121.715 19.7258 120.259 18.304 115.732Z" fill="#EDEDED" stroke="#D2D2D2"/>
<path d="M18.304 120.732L17.7561 119L12.0525 121.4C8.93501 122.714 9.25003 125.318 10.0089 128C13.0497 126.715 19.7258 125.259 18.304 120.732Z" fill="#EDEDED" stroke="#D2D2D2"/>
<path d="M18.304 125.732L17.7561 124L12.0525 126.4C8.93501 127.714 9.25003 130.318 10.0089 133C13.0497 131.715 19.7258 130.259 18.304 125.732Z" fill="#EDEDED" stroke="#D2D2D2"/>
<path d="M18.304 130.732L17.7561 129L12.0525 131.4C8.93501 132.714 9.25003 135.318 10.0089 138C13.0497 136.715 19.7258 135.259 18.304 130.732Z" fill="#EDEDED" stroke="#D2D2D2"/>
<path d="M18.304 135.732L17.7561 134L12.0525 136.4C8.93501 137.714 9.25003 140.318 10.0089 143C13.0497 141.715 19.7258 140.259 18.304 135.732Z" fill="#EDEDED" stroke="#D2D2D2"/>
<path d="M18.304 140.732L17.7561 139L12.0525 141.4C8.93501 142.714 9.25003 145.318 10.0089 148C13.0497 146.715 19.7258 145.259 18.304 140.732Z" fill="#EDEDED" stroke="#D2D2D2"/>
<path d="M18.304 145.732L17.7561 144L12.0525 146.4C8.93501 147.714 9.25003 150.318 10.0089 153C13.0497 151.715 19.7258 150.259 18.304 145.732Z" fill="#EDEDED" stroke="#D2D2D2"/>
<path d="M18.304 150.732L17.7561 149L12.0525 151.4C8.93501 152.714 9.25003 155.318 10.0089 158C13.0497 156.715 19.7258 155.259 18.304 150.732Z" fill="#EDEDED" stroke="#D2D2D2"/>
<path d="M18.304 155.732L17.7561 154L12.0525 156.4C8.93501 157.714 9.25003 160.318 10.0089 163C13.0497 161.715 19.7258 160.259 18.304 155.732Z" fill="#EDEDED" stroke="#D2D2D2"/>
<path d="M18.304 160.732L17.7561 159L12.0525 161.4C8.93501 162.714 9.25003 165.318 10.0089 168C13.0497 166.715 19.7258 165.259 18.304 160.732Z" fill="#EDEDED" stroke="#D2D2D2"/>
<path d="M18.304 165.732L17.7561 164L12.0525 166.4C8.93501 167.714 9.25003 170.318 10.0089 173C13.0497 171.715 19.7258 170.259 18.304 165.732Z" fill="#EDEDED" stroke="#D2D2D2"/>
<path d="M18.304 170.732L17.7561 169L12.0525 171.4C8.93501 172.714 9.25003 175.318 10.0089 178C13.0497 176.715 19.7258 175.259 18.304 170.732Z" fill="#EDEDED" stroke="#D2D2D2"/>
<path d="M18.304 175.732L17.7561 174L12.0525 176.4C8.93501 177.714 9.25003 180.318 10.0089 183C13.0497 181.715 19.7258 180.259 18.304 175.732Z" fill="#EDEDED" stroke="#D2D2D2"/>
<path d="M18.304 180.732L17.7561 179L12.0525 181.4C8.93501 182.714 9.25003 185.318 10.0089 188C13.0497 186.715 19.7258 185.259 18.304 180.732Z" fill="#EDEDED" stroke="#D2D2D2"/>
<path d="M18.304 185.732L17.7561 184L12.0525 186.4C8.93501 187.714 9.25003 190.318 10.0089 193C13.0497 191.715 19.7258 190.259 18.304 185.732Z" fill="#EDEDED" stroke="#D2D2D2"/>
<path d="M18.304 190.732L17.7561 189L12.0525 191.4C8.93501 192.714 9.25003 195.318 10.0089 198C13.0497 196.715 19.7258 195.259 18.304 190.732Z" fill="#EDEDED" stroke="#D2D2D2"/>
<path d="M18.304 195.732L17.7561 194L12.0525 196.4C8.93501 197.714 9.25003 200.318 10.0089 203C13.0497 201.715 19.7258 200.259 18.304 195.732Z" fill="#EDEDED" stroke="#D2D2D2"/>
<path d="M18.304 200.732L17.7561 199L12.0525 201.4C8.93501 202.714 9.25003 205.318 10.0089 208C13.0497 206.715 19.7258 205.259 18.304 200.732Z" fill="#EDEDED" stroke="#D2D2D2"/>
<path d="M18.304 205.732L17.7561 204L12.0525 206.4C8.93501 207.714 9.25003 210.318 10.0089 213C13.0497 211.715 19.7258 210.259 18.304 205.732Z" fill="#EDEDED" stroke="#D2D2D2"/>
<path d="M18.304 210.732L17.7561 209L12.0525 211.4C8.93501 212.714 9.25003 215.318 10.0089 218C13.0497 216.715 19.7258 215.259 18.304 210.732Z" fill="#EDEDED" stroke="#D2D2D2"/>
<path d="M18.304 215.732L17.7561 214L12.0525 216.4C8.93501 217.714 9.25003 220.318 10.0089 223C13.0497 221.715 19.7258 220.259 18.304 215.732Z" fill="#EDEDED" stroke="#D2D2D2"/>
<path d="M18.304 220.732L17.7561 219L12.0525 221.4C8.93501 222.714 9.25003 225.318 10.0089 228C13.0497 226.715 19.7258 225.259 18.304 220.732Z" fill="#EDEDED" stroke="#D2D2D2"/>
<path d="M18.304 225.732L17.7561 224L12.0525 226.4C8.93501 227.714 9.25003 230.318 10.0089 233C13.0497 231.715 19.7258 230.259 18.304 225.732Z" fill="#EDEDED" stroke="#D2D2D2"/>
<path d="M18.304 230.732L17.7561 229L12.0525 231.4C8.93501 232.714 9.25003 235.318 10.0089 238C13.0497 236.715 19.7258 235.259 18.304 230.732Z" fill="#EDEDED" stroke="#D2D2D2"/>
<path d="M18.304 235.732L17.7561 234L12.0525 236.4C8.93501 237.714 9.25003 240.318 10.0089 243C13.0497 241.715 19.7258 240.259 18.304 235.732Z" fill="#EDEDED" stroke="#D2D2D2"/>
<path d="M18.304 240.732L17.7561 239L12.0525 241.4C8.93501 242.714 9.25003 245.318 10.0089 248C13.0497 246.715 19.7258 245.259 18.304 240.732Z" fill="#EDEDED" stroke="#D2D2D2"/>
<path d="M18.304 245.732L17.7561 244L12.0525 246.4C8.93501 247.714 9.25003 250.318 10.0089 253C13.0497 251.715 19.7258 250.259 18.304 245.732Z" fill="#EDEDED" stroke="#D2D2D2"/>
<path d="M18.304 250.732L17.7561 249L12.0525 251.4C8.93501 252.714 9.25003 255.318 10.0089 258C13.0497 256.715 19.7258 255.259 18.304 250.732Z" fill="#EDEDED" stroke="#D2D2D2"/>
<path d="M18.304 255.732L17.7561 254L12.0525 256.4C8.93501 257.714 9.25003 260.318 10.0089 263C13.0497 261.715 19.7258 260.259 18.304 255.732Z" fill="#EDEDED" stroke="#D2D2D2"/>
<path d="M18.304 260.732L17.7561 259L12.0525 261.4C8.93501 262.714 9.25003 265.318 10.0089 268C13.0497 266.715 19.7258 265.259 18.304 260.732Z" fill="#EDEDED" stroke="#D2D2D2"/>
<path d="M18.304 265.732L17.7561 264L12.0525 266.4C8.93501 267.714 9.25003 270.318 10.0089 273C13.0497 271.715 19.7258 270.259 18.304 265.732Z" fill="#EDEDED" stroke="#D2D2D2"/>
<path d="M18.304 270.732L17.7561 269L12.0525 271.4C8.93501 272.714 9.25003 275.318 10.0089 278C13.0497 276.715 19.7258 275.259 18.304 270.732Z" fill="#EDEDED" stroke="#D2D2D2"/>
<path d="M18.304 275.732L17.7561 274L12.0525 276.4C8.93501 277.714 9.25003 280.318 10.0089 283C13.0497 281.715 19.7258 280.259 18.304 275.732Z" fill="#EDEDED" stroke="#D2D2D2"/>
<path d="M18.304 280.732L17.7561 279L12.0525 281.4C8.93501 282.714 9.25003 285.318 10.0089 288C13.0497 286.715 19.7258 285.259 18.304 280.732Z" fill="#EDEDED" stroke="#D2D2D2"/>
<path d="M18.304 285.732L17.7561 284L12.0525 286.4C8.93501 287.714 9.25003 290.318 10.0089 293C13.0497 291.715 19.7258 290.259 18.304 285.732Z" fill="#EDEDED" stroke="#D2D2D2"/>
<path d="M18.304 290.732L17.7561 289L12.0525 291.4C8.93501 292.714 9.25003 295.318 10.0089 298C13.0497 296.715 19.7258 295.259 18.304 290.732Z" fill="#EDEDED" stroke="#D2D2D2"/>
<path d="M18.304 295.732L17.7561 294L12.0525 296.4C8.93501 297.714 9.25003 300.318 10.0089 303C13.0497 301.715 19.7258 300.259 18.304 295.732Z" fill="#EDEDED" stroke="#D2D2D2"/>
<path d="M18.304 300.732L17.7561 299L12.0525 301.4C8.93501 302.714 9.25003 305.318 10.0089 308C13.0497 306.715 19.7258 305.259 18.304 300.732Z" fill="#EDEDED" stroke="#D2D2D2"/>
<path d="M18.304 305.732L17.7561 304L12.0525 306.4C8.93501 307.714 9.25003 310.318 10.0089 313C13.0497 311.715 19.7258 310.259 18.304 305.732Z" fill="#EDEDED" stroke="#D2D2D2"/>
<path d="M18.304 310.732L17.7561 309L12.0525 311.4C8.93501 312.714 9.25003 315.318 10.0089 318C13.0497 316.715 19.7258 315.259 18.304 310.732Z" fill="#EDEDED" stroke="#D2D2D2"/>
<path d="M18.304 315.732L17.7561 314L12.0525 316.4C8.93501 317.714 9.25003 320.318 10.0089 323C13.0497 321.715 19.7258 320.259 18.304 315.732Z" fill="#EDEDED" stroke="#D2D2D2"/>
<path d="M18.304 320.732L17.7561 319L12.0525 321.4C8.93501 322.714 9.25003 325.318 10.0089 328C13.0497 326.715 19.7258 325.259 18.304 320.732Z" fill="#EDEDED" stroke="#D2D2D2"/>
<path d="M18.304 325.732L17.7561 324L12.0525 326.4C8.93501 327.714 9.25003 330.318 10.0089 333C13.0497 331.715 19.7258 330.259 18.304 325.732Z" fill="#EDEDED" stroke="#D2D2D2"/>
<path d="M18.304 330.732L17.7561 329L12.0525 331.4C8.93501 332.714 9.25003 335.318 10.0089 338C13.0497 336.715 19.7258 335.259 18.304 330.732Z" fill="#EDEDED" stroke="#D2D2D2"/>
<path d="M18.304 335.732L17.7561 334L12.0525 336.4C8.93501 337.714 9.25003 340.318 10.0089 343C13.0497 341.715 19.7258 340.259 18.304 335.732Z" fill="#EDEDED" stroke="#D2D2D2"/>
<path d="M18.304 340.732L17.7561 339L12.0525 341.4C8.93501 342.714 9.25003 345.318 10.0089 348C13.0497 346.715 19.7258 345.259 18.304 340.732Z" fill="#EDEDED" stroke="#D2D2D2"/>
<path d="M18.304 345.732L17.7561 344L12.0525 346.4C8.93501 347.714 9.25003 350.318 10.0089 353C13.0497 351.715 19.7258 350.259 18.304 345.732Z" fill="#EDEDED" stroke="#D2D2D2"/>
<path d="M18.304 350.732L17.7561 349L12.0525 351.4C8.93501 352.714 9.25003 355.318 10.0089 358C13.0497 356.715 19.7258 355.259 18.304 350.732Z" fill="#EDEDED" stroke="#D2D2D2"/>
<path d="M18.304 355.732L17.7561 354L12.0525 356.4C8.93501 357.714 9.25003 360.318 10.0089 363C13.0497 361.715 19.7258 360.259 18.304 355.732Z" fill="#EDEDED" stroke="#D2D2D2"/>
<path d="M18.304 360.732L17.7561 359L12.0525 361.4C8.93501 362.714 9.25003 365.318 10.0089 368C13.0497 366.715 19.7258 365.259 18.304 360.732Z" fill="#EDEDED" stroke="#D2D2D2"/>
<path d="M18.304 365.732L17.7561 364L12.0525 366.4C8.93501 367.714 9.25003 370.318 10.0089 373C13.0497 371.715 19.7258 370.259 18.304 365.732Z" fill="#EDEDED" stroke="#D2D2D2"/>
<path d="M18.304 370.732L17.7561 369L12.0525 371.4C8.93501 372.714 9.25003 375.318 10.0089 378C13.0497 376.715 19.7258 375.259 18.304 370.732Z" fill="#EDEDED" stroke="#D2D2D2"/>
<path d="M18.304 375.732L17.7561 374L12.0525 376.4C8.93501 377.714 9.25003 380.318 10.0089 383C13.0497 381.715 19.7258 380.259 18.304 375.732Z" fill="#EDEDED" stroke="#D2D2D2"/>
<path d="M18.304 380.732L17.7561 379L12.0525 381.4C8.93501 382.714 9.25003 385.318 10.0089 388C13.0497 386.715 19.7258 385.259 18.304 380.732Z" fill="#EDEDED" stroke="#D2D2D2"/>
<path d="M18.304 385.732L17.7561 384L12.0525 386.4C8.93501 387.714 9.25003 390.318 10.0089 393C13.0497 391.715 19.7258 390.259 18.304 385.732Z" fill="#EDEDED" stroke="#D2D2D2"/>
<path d="M18.304 390.732L17.7561 389L12.0525 391.4C8.93501 392.714 9.25003 395.318 10.0089 398C13.0497 396.715 19.7258 395.259 18.304 390.732Z" fill="#EDEDED" stroke="#D2D2D2"/>
<path d="M18.304 395.732L17.7561 394L12.0525 396.4C8.93501 397.714 9.25003 400.318 10.0089 403C13.0497 401.715 19.7258 400.259 18.304 395.732Z" fill="#EDEDED" stroke="#D2D2D2"/>
<path d="M18.304 400.732L17.7561 399L12.0525 401.4C8.93501 402.714 9.25003 405.318 10.0089 408C13.0497 406.715 19.7258 405.259 18.304 400.732Z" fill="#EDEDED" stroke="#D2D2D2"/>
<path d="M18.304 405.732L17.7561 404L12.0525 406.4C8.93501 407.714 9.25003 410.318 10.0089 413C13.0497 411.715 19.7258 410.259 18.304 405.732Z" fill="#EDEDED" stroke="#D2D2D2"/>
<path d="M18.304 410.732L17.7561 409L12.0525 411.4C8.93501 412.714 9.25003 415.318 10.0089 418C13.0497 416.715 19.7258 415.259 18.304 410.732Z" fill="#EDEDED" stroke="#D2D2D2"/>
<path d="M18.304 415.732L17.7561 414L12.0525 416.4C8.93501 417.714 9.25003 420.318 10.0089 423C13.0497 421.715 19.7258 420.259 18.304 415.732Z" fill="#EDEDED" stroke="#D2D2D2"/>
<path d="M18.304 420.732L17.7561 419L12.0525 421.4C8.93501 422.714 9.25003 425.318 10.0089 428C13.0497 426.715 19.7258 425.259 18.304 420.732Z" fill="#EDEDED" stroke="#D2D2D2"/>
<path d="M18.304 425.732L17.7561 424L12.0525 426.4C8.93501 427.714 9.25003 430.318 10.0089 433C13.0497 431.715 19.7258 430.259 18.304 425.732Z" fill="#EDEDED" stroke="#D2D2D2"/>
<path d="M18.304 430.732L17.7561 429L12.0525 431.4C8.93501 432.714 9.25003 435.318 10.0089 438C13.0497 436.715 19.7258 435.259 18.304 430.732Z" fill="#EDEDED" stroke="#D2D2D2"/>
<path d="M18.304 435.732L17.7561 434L12.0525 436.4C8.93501 437.714 9.25003 440.318 10.0089 443C13.0497 441.715 19.7258 440.259 18.304 435.732Z" fill="#EDEDED" stroke="#D2D2D2"/>
<path d="M18.304 440.732L17.7561 439L12.0525 441.4C8.93501 442.714 9.25003 445.318 10.0089 448C13.0497 446.715 19.7258 445.259 18.304 440.732Z" fill="#EDEDED" stroke="#D2D2D2"/>
<path d="M18.304 445.732L17.7561 444L12.0525 446.4C8.93501 447.714 9.25003 450.318 10.0089 453C13.0497 451.715 19.7258 450.259 18.304 445.732Z" fill="#EDEDED" stroke="#D2D2D2"/>
<path d="M18.304 450.732L17.7561 449L12.0525 451.4C8.93501 452.714 9.25003 455.318 10.0089 458C13.0497 456.715 19.7258 455.259 18.304 450.732Z" fill="#EDEDED" stroke="#D2D2D2"/>
<path d="M18.304 455.732L17.7561 454L12.0525 456.4C8.93501 457.714 9.25003 460.318 10.0089 463C13.0497 461.715 19.7258 460.259 18.304 455.732Z" fill="#EDEDED" stroke="#D2D2D2"/>
<path d="M18.304 460.732L17.7561 459L12.0525 461.4C8.93501 462.714 9.25003 465.318 10.0089 468C13.0497 466.715 19.7258 465.259 18.304 460.732Z" fill="#EDEDED" stroke="#D2D2D2"/>
<path d="M18.304 465.732L17.7561 464L12.0525 466.4C8.93501 467.714 9.25003 470.318 10.0089 473C13.0497 471.715 19.7258 470.259 18.304 465.732Z" fill="#EDEDED" stroke="#D2D2D2"/>
<path d="M18.304 470.732L17.7561 469L12.0525 471.4C8.93501 472.714 9.25003 475.318 10.0089 478C13.0497 476.715 19.7258 475.259 18.304 470.732Z" fill="#EDEDED" stroke="#D2D2D2"/>
<path d="M18.304 475.732L17.7561 474L12.0525 476.4C8.93501 477.714 9.25003 480.318 10.0089 483C13.0497 481.715 19.7258 480.259 18.304 475.732Z" fill="#EDEDED" stroke="#D2D2D2"/>
<path d="M18.304 480.732L17.7561 479L12.0525 481.4C8.93501 482.714 9.25003 485.318 10.0089 488C13.0497 486.715 19.7258 485.259 18.304 480.732Z" fill="#EDEDED" stroke="#D2D2D2"/>
<path d="M18.304 485.732L17.7561 484L12.0525 486.4C8.93501 487.714 9.25003 490.318 10.0089 493C13.0497 491.715 19.7258 490.259 18.304 485.732Z" fill="#EDEDED" stroke="#D2D2D2"/>
<path d="M18.304 490.732L17.7561 489L12.0525 491.4C8.93501 492.714 9.25003 495.318 10.0089 498C13.0497 496.715 19.7258 495.259 18.304 490.732Z" fill="#EDEDED" stroke="#D2D2D2"/>
<path d="M18.304 495.732L17.7561 494L12.0525 496.4C8.93501 497.714 9.25003 500.318 10.0089 503C13.0497 501.715 19.7258 500.259 18.304 495.732Z" fill="#EDEDED" stroke="#D2D2D2"/>
<path d="M18.304 500.732L17.7561 499L12.0525 501.4C8.93501 502.714 9.25003 505.318 10.0089 508C13.0497 506.715 19.7258 505.259 18.304 500.732Z" fill="#EDEDED" stroke="#D2D2D2"/>
<path d="M18.304 505.732L17.7561 504L12.0525 506.4C8.93501 507.714 9.25003 510.318 10.0089 513C13.0497 511.715 19.7258 510.259 18.304 505.732Z" fill="#EDEDED" stroke="#D2D2D2"/>
<path d="M18.304 510.732L17.7561 509L12.0525 511.4C8.93501 512.714 9.25003 515.318 10.0089 518C13.0497 516.715 19.7258 515.259 18.304 510.732Z" fill="#EDEDED" stroke="#D2D2D2"/>
<path d="M18.304 515.732L17.7561 514L12.0525 516.4C8.93501 517.714 9.25003 520.318 10.0089 523C13.0497 521.715 19.7258 520.259 18.304 515.732Z" fill="#EDEDED" stroke="#D2D2D2"/>
<path d="M18.304 520.732L17.7561 519L12.0525 521.4C8.93501 522.714 9.25003 525.318 10.0089 528C13.0497 526.715 19.7258 525.259 18.304 520.732Z" fill="#EDEDED" stroke="#D2D2D2"/>
<path d="M18.304 525.732L17.7561 524L12.0525 526.4C8.93501 527.714 9.25003 530.318 10.0089 533C13.0497 531.715 19.7258 530.259 18.304 525.732Z" fill="#EDEDED" stroke="#D2D2D2"/>
<path d="M18.304 530.732L17.7561 529L12.0525 531.4C8.93501 532.714 9.25003 535.318 10.0089 538C13.0497 536.715 19.7258 535.259 18.304 530.732Z" fill="#EDEDED" stroke="#D2D2D2"/>
<path d="M18.304 535.732L17.7561 534L12.0525 536.4C8.93501 537.714 9.25003 540.318 10.0089 543C13.0497 541.715 19.7258 540.259 18.304 535.732Z" fill="#EDEDED" stroke="#D2D2D2"/>
<path d="M18.304 540.732L17.7561 539L12.0525 541.4C8.93501 542.714 9.25003 545.318 10.0089 548C13.0497 546.715 19.7258 545.259 18.304 540.732Z" fill="#EDEDED" stroke="#D2D2D2"/>
<path d="M18.304 545.732L17.7561 544L12.0525 546.4C8.93501 547.714 9.25003 550.318 10.0089 553C13.0497 551.715 19.7258 550.259 18.304 545.732Z" fill="#EDEDED" stroke="#D2D2D2"/>
<path d="M18.304 550.732L17.7561 549L12.0525 551.4C8.93501 552.714 9.25003 555.318 10.0089 558C13.0497 556.715 19.7258 555.259 18.304 550.732Z" fill="#EDEDED" stroke="#D2D2D2"/>
<path d="M18.304 555.732L17.7561 554L12.0525 556.4C8.93501 557.714 9.25003 560.318 10.0089 563C13.0497 561.715 19.7258 560.259 18.304 555.732Z" fill="#EDEDED" stroke="#D2D2D2"/>
<path d="M18.304 560.732L17.7561 559L12.0525 561.4C8.93501 562.714 9.25003 565.318 10.0089 568C13.0497 566.715 19.7258 565.259 18.304 560.732Z" fill="#EDEDED" stroke="#D2D2D2"/>
<path d="M18.304 565.732L17.7561 564L12.0525 566.4C8.93501 567.714 9.25003 570.318 10.0089 573C13.0497 571.715 19.7258 570.259 18.304 565.732Z" fill="#EDEDED" stroke="#D2D2D2"/>
<path d="M18.304 570.732L17.7561 569L12.0525 571.4C8.93501 572.714 9.25003 575.318 10.0089 578C13.0497 576.715 19.7258 575.259 18.304 570.732Z" fill="#EDEDED" stroke="#D2D2D2"/>
<path d="M18.304 575.732L17.7561 574L12.0525 576.4C8.93501 577.714 9.25003 580.318 10.0089 583C13.0497 581.715 19.7258 580.259 18.304 575.732Z" fill="#EDEDED" stroke="#D2D2D2"/>
<path d="M18.304 580.732L17.7561 579L12.0525 581.4C8.93501 582.714 9.25003 585.318 10.0089 588C13.0497 586.715 19.7258 585.259 18.304 580.732Z" fill="#EDEDED" stroke="#D2D2D2"/>
<path d="M18.304 585.732L17.7561 584L12.0525 586.4C8.93501 587.714 9.25003 590.318 10.0089 593C13.0497 591.715 19.7258 590.259 18.304 585.732Z" fill="#EDEDED" stroke="#D2D2D2"/>
<path d="M18.304 590.732L17.7561 589L12.0525 591.4C8.93501 592.714 9.25003 595.318 10.0089 598C13.0497 596.715 19.7258 595.259 18.304 590.732Z" fill="#EDEDED" stroke="#D2D2D2"/>
<path d="M18.304 595.732L17.7561 594L12.0525 596.4C8.93501 597.714 9.25003 600.318 10.0089 603C13.0497 601.715 19.7258 600.259 18.304 595.732Z" fill="#EDEDED" stroke="#D2D2D2"/>
<path d="M18.304 600.732L17.7561 599L12.0525 601.4C8.93501 602.714 9.25003 605.318 10.0089 608C13.0497 606.715 19.7258 605.259 18.304 600.732Z" fill="#EDEDED" stroke="#D2D2D2"/>
<path d="M18.304 605.732L17.7561 604L12.0525 606.4C8.93501 607.714 9.25003 610.318 10.0089 613C13.0497 611.715 19.7258 610.259 18.304 605.732Z" fill="#EDEDED" stroke="#D2D2D2"/>
<path d="M18.304 610.732L17.7561 609L12.0525 611.4C8.93501 612.714 9.25003 615.318 10.0089 618C13.0497 616.715 19.7258 615.259 18.304 610.732Z" fill="#EDEDED" stroke="#D2D2D2"/>
<path d="M18.304 615.732L17.7561 614L12.0525 616.4C8.93501 617.714 9.25003 620.318 10.0089 623C13.0497 621.715 19.7258 620.259 18.304 615.732Z" fill="#EDEDED" stroke="#D2D2D2"/>
<path d="M18.304 620.732L17.7561 619L12.0525 621.4C8.93501 622.714 9.25003 625.318 10.0089 628C13.0497 626.715 19.7258 625.259 18.304 620.732Z" fill="#EDEDED" stroke="#D2D2D2"/>
<path d="M18.304 625.732L17.7561 624L12.0525 626.4C8.93501 627.714 9.25003 630.318 10.0089 633C13.0497 631.715 19.7258 630.259 18.304 625.732Z" fill="#EDEDED" stroke="#D2D2D2"/>
<path d="M18.304 630.732L17.7561 629L12.0525 631.4C8.93501 632.714 9.25003 635.318 10.0089 638C13.0497 636.715 19.7258 635.259 18.304 630.732Z" fill="#EDEDED" stroke="#D2D2D2"/>
<path d="M18.304 635.732L17.7561 634L12.0525 636.4C8.93501 637.714 9.25003 640.318 10.0089 643C13.0497 641.715 19.7258 640.259 18.304 635.732Z" fill="#EDEDED" stroke="#D2D2D2"/>
<path d="M18.304 640.732L17.7561 639L12.0525 641.4C8.93501 642.714 9.25003 645.318 10.0089 648C13.0497 646.715 19.7258 645.259 18.304 640.732Z" fill="#EDEDED" stroke="#D2D2D2"/>
<path d="M18.304 645.732L17.7561 644L12.0525 646.4C8.93501 647.714 9.25003 650.318 10.0089 653C13.0497 651.715 19.7258 650.259 18.304 645.732Z" fill="#EDEDED" stroke="#D2D2D2"/>
<path d="M18.304 650.732L17.7561 649L12.0525 651.4C8.93501 652.714 9.25003 655.318 10.0089 658C13.0497 656.715 19.7258 655.259 18.304 650.732Z" fill="#EDEDED" stroke="#D2D2D2"/>
<path d="M18.304 655.732L17.7561 654L12.0525 656.4C8.93501 657.714 9.25003 660.318 10.0089 663C13.0497 661.715 19.7258 660.259 18.304 655.732Z" fill="#EDEDED" stroke="#D2D2D2"/>
<path d="M18.304 660.732L17.7561 659L12.0525 661.4C8.93501 662.714 9.25003 665.318 10.0089 668C13.0497 666.715 19.7258 665.259 18.304 660.732Z" fill="#EDEDED" stroke="#D2D2D2"/>
<path d="M18.304 665.732L17.7561 664L12.0525 666.4C8.93501 667.714 9.25003 670.318 10.0089 673C13.0497 671.715 19.7258 670.259 18.304 665.732Z" fill="#EDEDED" stroke="#D2D2D2"/>
<path d="M18.304 670.732L17.7561 669L12.0525 671.4C8.93501 672.714 9.25003 675.318 10.0089 678C13.0497 676.715 19.7258 675.259 18.304 670.732Z" fill="#EDEDED" stroke="#D2D2D2"/>
<path d="M18.304 675.732L17.7561 674L12.0525 676.4C8.93501 677.714 9.25003 680.318 10.0089 683C13.0497 681.715 19.7258 680.259 18.304 675.732Z" fill="#EDEDED" stroke="#D2D2D2"/>
<path d="M18.304 680.732L17.7561 679L12.0525 681.4C8.93501 682.714 9.25003 685.318 10.0089 688C13.0497 686.715 19.7258 685.259 18.304 680.732Z" fill="#EDEDED" stroke="#D2D2D2"/>
<path d="M18.304 685.732L17.7561 684L12.0525 686.4C8.93501 687.714 9.25003 690.318 10.0089 693C13.0497 691.715 19.7258 690.259 18.304 685.732Z" fill="#EDEDED" stroke="#D2D2D2"/>
<path d="M18.304 690.732L17.7561 689L12.0525 691.4C8.93501 692.714 9.25003 695.318 10.0089 698C13.0497 696.715 19.7258 695.259 18.304 690.732Z" fill="#EDEDED" stroke="#D2D2D2"/>
<path d="M8.75534 714.746C8.52256 718.503 8.057 722.252 7.32903 725.96C7.32903 725.987 7.32057 726.001 7.32057 726.015C6.92049 727.97 8.29336 727.814 9.6272 727.814C10.4271 724.54 11.0958 719.991 11.1635 715.994C11.1635 715.994 11.5868 719.757 10.5033 726.456C10.5626 726.883 10.6472 727.393 10.8038 727.814H12.1751C12.6999 722.962 13.0596 717.207 13.1104 711.734C13.1358 712.575 13.322 718.558 12.5645 727.814H14.833L15.1166 726.787L15.3324 726.036C15.3282 726.029 15.3282 726.015 15.3282 726.001C15.1547 723.541 15.0489 721.383 14.9769 719.529C14.778 714.381 14.9219 711.638 14.9219 711.638C14.96 717.034 15.3113 722.707 15.8361 728L17.7533 727.814C16.4328 720.412 16.8349 716.256 16.8645 716.001C16.9576 721.39 17.9776 726.056 18.4517 727.972L19.9118 727.814C20.4832 727.807 20.8853 726.904 20.7075 725.994C19.9753 722.279 19.5055 718.509 19.277 714.746C18.6725 705.886 9.49542 703.047 8.75534 714.746Z" fill="#EDEDED" stroke="#D2D2D2"/>
<path d="M18.6626 696.127L18.0691 694.25L11.8902 696.85C8.51293 698.274 8.85419 701.095 9.67626 704C12.9705 702.608 20.2029 701.031 18.6626 696.127Z" fill="#EDEDED" stroke="#D2D2D2"/>
<path d="M16.0476 702.524C16.9229 702.814 17.7777 703.188 18.464 703.548C19.1503 703.907 19.5626 704.215 19.5626 704.215C19.7491 703.687 19.7349 703.042 19.5632 702.454C18.2449 696.825 11.1722 697.786 9.50189 701.031C9.28321 701.456 9.17965 701.762 9.17965 701.762C10.1412 702.402 11.7121 703.746 12.2389 703.819C12.5129 703.872 12.702 703.802 12.9226 703.721C13.9715 702.952 14.4694 702.001 16.0476 702.524Z" fill="#EDEDED" stroke="#D2D2D2"/>
<path d="M20.153 708.798C22.3085 707.042 22.2723 704.355 20.1529 701.701C18.0334 699.046 13.5923 700.676 12.1413 705.305C13.1588 707.907 19.2026 706.567 20.153 708.798Z" fill="#EDEDED" stroke="#D2D2D2"/>
<path d="M11.4181 700.307C11.4585 699.935 11.4988 699.601 11.5391 699.378C11.6198 699.155 11.6198 699.006 11.6198 699.006C10.7728 699.08 9.96615 699.489 9.28049 700.01C5.8692 702.785 7.65864 706.67 10.7728 708.786C11.5392 709.306 12.3458 709.604 12.9508 709.752C13.2331 709.827 13.5155 709.864 13.6768 709.901C13.8382 709.938 13.9591 709.938 13.9591 709.938C16.0595 706.363 11.2151 704.051 11.4181 700.307Z" fill="#EDEDED" stroke="#D2D2D2"/>
<path d="M13.2974 706.87C13.2974 706.87 13.1764 706.87 13.015 706.829C12.8537 706.788 12.6117 706.746 12.289 706.664C11.684 706.5 10.8774 706.131 10.111 705.597C9.34469 705.063 8.65903 704.324 8.17503 703.709C7.69103 703.093 7.40868 702.641 7.40868 702.641C6.88435 703.175 6.52136 703.873 6.36003 704.653C6.15836 705.433 6.15835 706.336 6.40035 707.239C6.60202 708.101 7.0457 708.963 7.6507 709.62C8.2557 710.277 8.98169 710.729 9.70769 710.934C9.70769 710.934 9.8287 710.975 10.0707 711.016C10.3127 711.057 10.6353 711.139 11.0387 711.18C11.8453 711.262 12.8537 711.221 13.7813 710.975C14.709 710.729 15.3947 710.236 15.8384 709.784C16.04 709.579 16.2013 709.374 16.282 709.251C16.3627 709.128 16.4434 709.045 16.4434 709.045C15.9594 708.06 15.919 707.568 15.5157 707.28C15.072 707.075 14.3864 706.993 13.2974 706.87Z" fill="#EDEDED" stroke="#D2D2D2"/>
<path d="M13.7128 707.675C13.7128 707.675 13.6507 707.741 13.4998 707.823C13.3874 707.917 13.1628 708.105 12.9229 708.203C12.408 708.516 11.5727 708.772 10.6148 708.733C9.68367 708.746 8.68025 708.436 7.93185 708.118C7.55765 707.96 7.27237 707.786 7.05254 707.675C6.83271 707.564 6.72865 707.489 6.72865 707.489C6.54452 708.247 6.58022 709.116 6.90951 709.991C7.20021 710.853 7.78451 711.72 8.60523 712.36C9.00972 712.699 9.43767 712.96 9.92764 713.155C10.1475 713.266 10.379 713.337 10.6106 713.409C10.8421 713.48 11.0854 713.513 11.3287 713.545C11.8152 713.61 12.248 713.572 12.6809 713.534C13.0868 713.445 13.5045 713.317 13.8567 713.125C13.8567 713.125 13.969 713.031 14.2089 712.934C14.4101 712.824 14.6852 712.609 15.0105 712.366C15.6226 711.869 16.305 711.136 16.8061 710.304C17.3073 709.472 17.6306 708.671 17.8182 708.043C17.912 707.729 17.9554 707.442 18.0023 707.285C18.0106 707.116 18.0458 706.998 18.0458 706.998C17.0121 706.507 16.1899 706.295 15.5676 706.403C14.9066 706.499 14.4841 706.926 13.7128 707.675Z" fill="#EDEDED" stroke="#D2D2D2"/>
<path d="M14.3535 706.453C14.3534 707.664 14.4658 708.834 14.1407 710.047C13.8987 710.991 13.4551 711.894 13.0114 712.551C12.7694 712.88 12.5677 713.167 12.4064 713.331C12.2451 713.496 12.124 713.619 12.124 713.619C12.85 713.988 13.697 714.07 14.544 713.988C15.391 713.865 16.2381 713.578 16.9237 713.085C20.4032 710.657 19.1232 706.908 17.348 705.052C15.9219 704.235 14.738 704.871 14.3535 706.453Z" fill="#EDEDED" stroke="#D2D2D2"/>
<path d="M18.0874 712.517C21.4382 711.569 21.9053 706.594 19.1554 704.875C16.4054 703.156 14.3429 705.219 14.3439 706.007C17.7822 706.659 19.1549 708.313 18.0874 712.517Z" fill="#EDEDED" stroke="#D2D2D2"/>
<path d="M4.13891 18.8089C4.27642 19.93 4.91331 21.1849 5.92864 22.1169C6.93219 23.0929 8.21161 23.7657 9.52813 24.1185C15.4985 25.6118 19.4762 19.6239 19.1177 14.4786C19.0875 14.0463 19.0338 13.7019 19.0019 13.4577C18.9701 13.2135 18.9601 13.0693 18.9601 13.0693C17.403 12.8878 16.2882 12.872 15.5112 13.2295C10.9804 14.969 10.1677 20.4243 4.13891 18.8089Z" fill="#EDEDED" stroke="#D2D2D2"/>
<path d="M12.8115 24.3422C13.7963 24.8954 15.1846 25.1254 16.5369 24.8593C17.9177 24.6287 19.2175 23.9963 20.2815 23.1444C25.0206 19.2181 22.5516 12.4667 18.1934 9.70839C17.8272 9.47662 17.5179 9.31595 17.3023 9.19698C17.0866 9.07801 16.9645 9.00071 16.9645 9.00071C15.8961 10.1478 15.2231 11.0367 15.051 11.8745C13.7693 16.5554 17.6836 20.4412 12.8115 24.3422Z" fill="#EDEDED" stroke="#D2D2D2"/>
<path d="M22.4032 20.6347C23.4322 20.1688 24.4397 19.1864 25.0262 17.9391C25.6581 16.69 25.9184 15.2681 25.8621 13.9063C25.5052 7.76237 18.6029 5.75337 13.7993 7.63137C13.3957 7.78917 13.083 7.94323 12.8594 8.04656C12.6358 8.14988 12.5013 8.20244 12.5013 8.20244C12.7928 9.74267 13.1104 10.8114 13.6836 11.4463C16.6962 15.2513 22.1454 14.3986 22.4032 20.6347Z" fill="#EDEDED" stroke="#D2D2D2"/>
<path d="M25.0971 10.7047C25.3311 9.59974 25.1362 8.20605 24.4786 6.99483C23.8464 5.74583 22.8548 4.69402 21.7241 3.93287C16.5623 0.581689 10.8557 4.95345 9.52394 9.93627C9.41204 10.355 9.35103 10.6981 9.30186 10.9395C9.25268 11.1808 9.21534 11.3204 9.21534 11.3204C10.6291 11.9977 11.6783 12.3747 12.5293 12.2889C17.3794 12.1149 19.9197 7.21914 25.0971 10.7047Z" fill="#EDEDED" stroke="#D2D2D2"/>
<path d="M18.6913 2.65698C17.9395 1.81403 16.7011 1.14565 15.3357 0.958216C13.9549 0.727924 12.5201 0.903984 11.2372 1.3642C5.47984 3.53871 5.62272 10.726 8.84897 14.7501C9.12006 15.0882 9.36041 15.3406 9.52577 15.5232C9.69112 15.7057 9.78146 15.8185 9.78146 15.8185C11.1644 15.0805 12.0897 14.4583 12.5245 13.7218C15.2568 9.71078 12.8164 4.76445 18.6913 2.65698Z" fill="#EDEDED" stroke="#D2D2D2"/>
<path d="M8.41329 3.04973C7.28885 3.15624 6.01686 3.75824 5.05716 4.74745C4.05382 5.72367 3.34594 6.98403 2.95696 8.2903C1.29935 14.2172 6.0536 17.0482 11.2068 16.8318C11.6398 16.8137 11.9855 16.7695 12.2305 16.7444C12.4756 16.7192 12.6199 16.7132 12.6199 16.7132C12.8443 15.1618 14.0125 15.3583 13.6766 14.5718C12.0629 9.99467 6.63205 9.03158 8.41329 3.04973Z" fill="#EDEDED" stroke="#D2D2D2"/>
<path d="M2.64294 11.5672C2.06282 12.5363 1.79455 13.9177 2.02324 15.2769C2.21562 16.6635 2.91365 17.7652 3.73582 18.8522C6.41367 21.5063 13.1248 20.1141 14.5139 14.911C14.3089 13.1907 14.286 13.1971 13.5643 12.1044C10.1729 16.855 6.40793 16.5451 2.64294 11.5672Z" fill="#EDEDED" stroke="#D2D2D2"/>
</g>
<defs>
<clipPath id="clip0_206_22754">
<rect width="28" height="728" fill="white"/>
</clipPath>
</defs>
</svg>
