<svg width="2512" height="16" viewBox="0 0 2512 16" fill="none" xmlns="http://www.w3.org/2000/svg">
<g clip-path="url(#clip0_206_22296)">
<path d="M2516.19 2.26137L2518.5 2.9919L2515.3 10.5966C2513.55 14.7533 2510.08 14.3333 2506.5 13.3215C2508.21 9.26711 2510.15 0.365664 2516.19 2.26137Z" fill="#EDEDED" stroke="#D2D2D2"/>
<path d="M2509.19 2.26137L2511.5 2.9919L2508.3 10.5966C2506.55 14.7533 2503.08 14.3333 2499.5 13.3215C2501.21 9.26711 2503.15 0.365664 2509.19 2.26137Z" fill="#EDEDED" stroke="#D2D2D2"/>
<path d="M2502.19 2.26137L2504.5 2.9919L2501.3 10.5966C2499.55 14.7533 2496.08 14.3333 2492.5 13.3215C2494.21 9.26711 2496.15 0.365664 2502.19 2.26137Z" fill="#EDEDED" stroke="#D2D2D2"/>
<path d="M2495.19 2.26137L2497.5 2.9919L2494.3 10.5966C2492.55 14.7533 2489.08 14.3333 2485.5 13.3215C2487.21 9.26711 2489.15 0.365664 2495.19 2.26137Z" fill="#EDEDED" stroke="#D2D2D2"/>
<path d="M2488.19 2.26137L2490.5 2.9919L2487.3 10.5966C2485.55 14.7533 2482.08 14.3333 2478.5 13.3215C2480.21 9.26711 2482.15 0.365664 2488.19 2.26137Z" fill="#EDEDED" stroke="#D2D2D2"/>
<path d="M2481.19 2.26137L2483.5 2.9919L2480.3 10.5966C2478.55 14.7533 2475.08 14.3333 2471.5 13.3215C2473.21 9.26711 2475.15 0.365664 2481.19 2.26137Z" fill="#EDEDED" stroke="#D2D2D2"/>
<path d="M2474.19 2.26137L2476.5 2.9919L2473.3 10.5966C2471.55 14.7533 2468.08 14.3333 2464.5 13.3215C2466.21 9.26711 2468.15 0.365664 2474.19 2.26137Z" fill="#EDEDED" stroke="#D2D2D2"/>
<path d="M2467.19 2.26137L2469.5 2.9919L2466.3 10.5966C2464.55 14.7533 2461.08 14.3333 2457.5 13.3215C2459.21 9.26711 2461.15 0.365664 2467.19 2.26137Z" fill="#EDEDED" stroke="#D2D2D2"/>
<path d="M2460.19 2.26137L2462.5 2.9919L2459.3 10.5966C2457.55 14.7533 2454.08 14.3333 2450.5 13.3215C2452.21 9.26711 2454.15 0.365664 2460.19 2.26137Z" fill="#EDEDED" stroke="#D2D2D2"/>
<path d="M2453.19 2.26137L2455.5 2.9919L2452.3 10.5966C2450.55 14.7533 2447.08 14.3333 2443.5 13.3215C2445.21 9.26711 2447.15 0.365664 2453.19 2.26137Z" fill="#EDEDED" stroke="#D2D2D2"/>
<path d="M2446.19 2.26137L2448.5 2.9919L2445.3 10.5966C2443.55 14.7533 2440.08 14.3333 2436.5 13.3215C2438.21 9.26711 2440.15 0.365664 2446.19 2.26137Z" fill="#EDEDED" stroke="#D2D2D2"/>
<path d="M2439.19 2.26137L2441.5 2.9919L2438.3 10.5966C2436.55 14.7533 2433.08 14.3333 2429.5 13.3215C2431.21 9.26711 2433.15 0.365664 2439.19 2.26137Z" fill="#EDEDED" stroke="#D2D2D2"/>
<path d="M2432.19 2.26137L2434.5 2.9919L2431.3 10.5966C2429.55 14.7533 2426.08 14.3333 2422.5 13.3215C2424.21 9.26711 2426.15 0.365664 2432.19 2.26137Z" fill="#EDEDED" stroke="#D2D2D2"/>
<path d="M2425.19 2.26137L2427.5 2.9919L2424.3 10.5966C2422.55 14.7533 2419.08 14.3333 2415.5 13.3215C2417.21 9.26711 2419.15 0.365664 2425.19 2.26137Z" fill="#EDEDED" stroke="#D2D2D2"/>
<path d="M2418.19 2.26137L2420.5 2.9919L2417.3 10.5966C2415.55 14.7533 2412.08 14.3333 2408.5 13.3215C2410.21 9.26711 2412.15 0.365664 2418.19 2.26137Z" fill="#EDEDED" stroke="#D2D2D2"/>
<path d="M2411.19 2.26137L2413.5 2.9919L2410.3 10.5966C2408.55 14.7533 2405.08 14.3333 2401.5 13.3215C2403.21 9.26711 2405.15 0.365664 2411.19 2.26137Z" fill="#EDEDED" stroke="#D2D2D2"/>
<path d="M2404.19 2.26137L2406.5 2.9919L2403.3 10.5966C2401.55 14.7533 2398.08 14.3333 2394.5 13.3215C2396.21 9.26711 2398.15 0.365664 2404.19 2.26137Z" fill="#EDEDED" stroke="#D2D2D2"/>
<path d="M2397.19 2.26137L2399.5 2.9919L2396.3 10.5966C2394.55 14.7533 2391.08 14.3333 2387.5 13.3215C2389.21 9.26711 2391.15 0.365664 2397.19 2.26137Z" fill="#EDEDED" stroke="#D2D2D2"/>
<path d="M2390.19 2.26137L2392.5 2.9919L2389.3 10.5966C2387.55 14.7533 2384.08 14.3333 2380.5 13.3215C2382.21 9.26711 2384.15 0.365664 2390.19 2.26137Z" fill="#EDEDED" stroke="#D2D2D2"/>
<path d="M2383.19 2.26137L2385.5 2.9919L2382.3 10.5966C2380.55 14.7533 2377.08 14.3333 2373.5 13.3215C2375.21 9.26711 2377.15 0.365664 2383.19 2.26137Z" fill="#EDEDED" stroke="#D2D2D2"/>
<path d="M2376.19 2.26137L2378.5 2.9919L2375.3 10.5966C2373.55 14.7533 2370.08 14.3333 2366.5 13.3215C2368.21 9.26711 2370.15 0.365664 2376.19 2.26137Z" fill="#EDEDED" stroke="#D2D2D2"/>
<path d="M2369.19 2.26137L2371.5 2.9919L2368.3 10.5966C2366.55 14.7533 2363.08 14.3333 2359.5 13.3215C2361.21 9.26711 2363.15 0.365664 2369.19 2.26137Z" fill="#EDEDED" stroke="#D2D2D2"/>
<path d="M2362.19 2.26137L2364.5 2.9919L2361.3 10.5966C2359.55 14.7533 2356.08 14.3333 2352.5 13.3215C2354.21 9.26711 2356.15 0.365664 2362.19 2.26137Z" fill="#EDEDED" stroke="#D2D2D2"/>
<path d="M2355.19 2.26137L2357.5 2.9919L2354.3 10.5966C2352.55 14.7533 2349.08 14.3333 2345.5 13.3215C2347.21 9.26711 2349.15 0.365664 2355.19 2.26137Z" fill="#EDEDED" stroke="#D2D2D2"/>
<path d="M2348.19 2.26137L2350.5 2.9919L2347.3 10.5966C2345.55 14.7533 2342.08 14.3333 2338.5 13.3215C2340.21 9.26711 2342.15 0.365664 2348.19 2.26137Z" fill="#EDEDED" stroke="#D2D2D2"/>
<path d="M2341.19 2.26137L2343.5 2.9919L2340.3 10.5966C2338.55 14.7533 2335.08 14.3333 2331.5 13.3215C2333.21 9.26711 2335.15 0.365664 2341.19 2.26137Z" fill="#EDEDED" stroke="#D2D2D2"/>
<path d="M2334.19 2.26137L2336.5 2.9919L2333.3 10.5966C2331.55 14.7533 2328.08 14.3333 2324.5 13.3215C2326.21 9.26711 2328.15 0.365664 2334.19 2.26137Z" fill="#EDEDED" stroke="#D2D2D2"/>
<path d="M2327.19 2.26137L2329.5 2.9919L2326.3 10.5966C2324.55 14.7533 2321.08 14.3333 2317.5 13.3215C2319.21 9.26711 2321.15 0.365664 2327.19 2.26137Z" fill="#EDEDED" stroke="#D2D2D2"/>
<path d="M2320.19 2.26137L2322.5 2.9919L2319.3 10.5966C2317.55 14.7533 2314.08 14.3333 2310.5 13.3215C2312.21 9.26711 2314.15 0.365664 2320.19 2.26137Z" fill="#EDEDED" stroke="#D2D2D2"/>
<path d="M2313.19 2.26137L2315.5 2.9919L2312.3 10.5966C2310.55 14.7533 2307.08 14.3333 2303.5 13.3215C2305.21 9.26711 2307.15 0.365664 2313.19 2.26137Z" fill="#EDEDED" stroke="#D2D2D2"/>
<path d="M2306.19 2.26137L2308.5 2.9919L2305.3 10.5966C2303.55 14.7533 2300.08 14.3333 2296.5 13.3215C2298.21 9.26711 2300.15 0.365664 2306.19 2.26137Z" fill="#EDEDED" stroke="#D2D2D2"/>
<path d="M2299.19 2.26137L2301.5 2.9919L2298.3 10.5966C2296.55 14.7533 2293.08 14.3333 2289.5 13.3215C2291.21 9.26711 2293.15 0.365664 2299.19 2.26137Z" fill="#EDEDED" stroke="#D2D2D2"/>
<path d="M2292.19 2.26137L2294.5 2.9919L2291.3 10.5966C2289.55 14.7533 2286.08 14.3333 2282.5 13.3215C2284.21 9.26711 2286.15 0.365664 2292.19 2.26137Z" fill="#EDEDED" stroke="#D2D2D2"/>
<path d="M2285.19 2.26137L2287.5 2.9919L2284.3 10.5966C2282.55 14.7533 2279.08 14.3333 2275.5 13.3215C2277.21 9.26711 2279.15 0.365664 2285.19 2.26137Z" fill="#EDEDED" stroke="#D2D2D2"/>
<path d="M2278.19 2.26137L2280.5 2.9919L2277.3 10.5966C2275.55 14.7533 2272.08 14.3333 2268.5 13.3215C2270.21 9.26711 2272.15 0.365664 2278.19 2.26137Z" fill="#EDEDED" stroke="#D2D2D2"/>
<path d="M2271.19 2.26137L2273.5 2.9919L2270.3 10.5966C2268.55 14.7533 2265.08 14.3333 2261.5 13.3215C2263.21 9.26711 2265.15 0.365664 2271.19 2.26137Z" fill="#EDEDED" stroke="#D2D2D2"/>
<path d="M2264.19 2.26137L2266.5 2.9919L2263.3 10.5966C2261.55 14.7533 2258.08 14.3333 2254.5 13.3215C2256.21 9.26711 2258.15 0.365664 2264.19 2.26137Z" fill="#EDEDED" stroke="#D2D2D2"/>
<path d="M2257.19 2.26137L2259.5 2.9919L2256.3 10.5966C2254.55 14.7533 2251.08 14.3333 2247.5 13.3215C2249.21 9.26711 2251.15 0.365664 2257.19 2.26137Z" fill="#EDEDED" stroke="#D2D2D2"/>
<path d="M2250.19 2.26137L2252.5 2.9919L2249.3 10.5966C2247.55 14.7533 2244.08 14.3333 2240.5 13.3215C2242.21 9.26711 2244.15 0.365664 2250.19 2.26137Z" fill="#EDEDED" stroke="#D2D2D2"/>
<path d="M2243.19 2.26137L2245.5 2.9919L2242.3 10.5966C2240.55 14.7533 2237.08 14.3333 2233.5 13.3215C2235.21 9.26711 2237.15 0.365664 2243.19 2.26137Z" fill="#EDEDED" stroke="#D2D2D2"/>
<path d="M2236.19 2.26137L2238.5 2.9919L2235.3 10.5966C2233.55 14.7533 2230.08 14.3333 2226.5 13.3215C2228.21 9.26711 2230.15 0.365664 2236.19 2.26137Z" fill="#EDEDED" stroke="#D2D2D2"/>
<path d="M2229.19 2.26137L2231.5 2.9919L2228.3 10.5966C2226.55 14.7533 2223.08 14.3333 2219.5 13.3215C2221.21 9.26711 2223.15 0.365664 2229.19 2.26137Z" fill="#EDEDED" stroke="#D2D2D2"/>
<path d="M2222.19 2.26137L2224.5 2.9919L2221.3 10.5966C2219.55 14.7533 2216.08 14.3333 2212.5 13.3215C2214.21 9.26711 2216.15 0.365664 2222.19 2.26137Z" fill="#EDEDED" stroke="#D2D2D2"/>
<path d="M2215.19 2.26137L2217.5 2.9919L2214.3 10.5966C2212.55 14.7533 2209.08 14.3333 2205.5 13.3215C2207.21 9.26711 2209.15 0.365664 2215.19 2.26137Z" fill="#EDEDED" stroke="#D2D2D2"/>
<path d="M2208.19 2.26137L2210.5 2.9919L2207.3 10.5966C2205.55 14.7533 2202.08 14.3333 2198.5 13.3215C2200.21 9.26711 2202.15 0.365664 2208.19 2.26137Z" fill="#EDEDED" stroke="#D2D2D2"/>
<path d="M2201.19 2.26137L2203.5 2.9919L2200.3 10.5966C2198.55 14.7533 2195.08 14.3333 2191.5 13.3215C2193.21 9.26711 2195.15 0.365664 2201.19 2.26137Z" fill="#EDEDED" stroke="#D2D2D2"/>
<path d="M2194.19 2.26137L2196.5 2.9919L2193.3 10.5966C2191.55 14.7533 2188.08 14.3333 2184.5 13.3215C2186.21 9.26711 2188.15 0.365664 2194.19 2.26137Z" fill="#EDEDED" stroke="#D2D2D2"/>
<path d="M2187.19 2.26137L2189.5 2.9919L2186.3 10.5966C2184.55 14.7533 2181.08 14.3333 2177.5 13.3215C2179.21 9.26711 2181.15 0.365664 2187.19 2.26137Z" fill="#EDEDED" stroke="#D2D2D2"/>
<path d="M2180.19 2.26137L2182.5 2.9919L2179.3 10.5966C2177.55 14.7533 2174.08 14.3333 2170.5 13.3215C2172.21 9.26711 2174.15 0.365664 2180.19 2.26137Z" fill="#EDEDED" stroke="#D2D2D2"/>
<path d="M2173.19 2.26137L2175.5 2.9919L2172.3 10.5966C2170.55 14.7533 2167.08 14.3333 2163.5 13.3215C2165.21 9.26711 2167.15 0.365664 2173.19 2.26137Z" fill="#EDEDED" stroke="#D2D2D2"/>
<path d="M2166.19 2.26137L2168.5 2.9919L2165.3 10.5966C2163.55 14.7533 2160.08 14.3333 2156.5 13.3215C2158.21 9.26711 2160.15 0.365664 2166.19 2.26137Z" fill="#EDEDED" stroke="#D2D2D2"/>
<path d="M2159.19 2.26137L2161.5 2.9919L2158.3 10.5966C2156.55 14.7533 2153.08 14.3333 2149.5 13.3215C2151.21 9.26711 2153.15 0.365664 2159.19 2.26137Z" fill="#EDEDED" stroke="#D2D2D2"/>
<path d="M2152.19 2.26137L2154.5 2.9919L2151.3 10.5966C2149.55 14.7533 2146.08 14.3333 2142.5 13.3215C2144.21 9.26711 2146.15 0.365664 2152.19 2.26137Z" fill="#EDEDED" stroke="#D2D2D2"/>
<path d="M2145.19 2.26137L2147.5 2.9919L2144.3 10.5966C2142.55 14.7533 2139.08 14.3333 2135.5 13.3215C2137.21 9.26711 2139.15 0.365664 2145.19 2.26137Z" fill="#EDEDED" stroke="#D2D2D2"/>
<path d="M2138.19 2.26137L2140.5 2.9919L2137.3 10.5966C2135.55 14.7533 2132.08 14.3333 2128.5 13.3215C2130.21 9.26711 2132.15 0.365664 2138.19 2.26137Z" fill="#EDEDED" stroke="#D2D2D2"/>
<path d="M2131.19 2.26137L2133.5 2.9919L2130.3 10.5966C2128.55 14.7533 2125.08 14.3333 2121.5 13.3215C2123.21 9.26711 2125.15 0.365664 2131.19 2.26137Z" fill="#EDEDED" stroke="#D2D2D2"/>
<path d="M2124.19 2.26137L2126.5 2.9919L2123.3 10.5966C2121.55 14.7533 2118.08 14.3333 2114.5 13.3215C2116.21 9.26711 2118.15 0.365664 2124.19 2.26137Z" fill="#EDEDED" stroke="#D2D2D2"/>
<path d="M2117.19 2.26137L2119.5 2.9919L2116.3 10.5966C2114.55 14.7533 2111.08 14.3333 2107.5 13.3215C2109.21 9.26711 2111.15 0.365664 2117.19 2.26137Z" fill="#EDEDED" stroke="#D2D2D2"/>
<path d="M2110.19 2.26137L2112.5 2.9919L2109.3 10.5966C2107.55 14.7533 2104.08 14.3333 2100.5 13.3215C2102.21 9.26711 2104.15 0.365664 2110.19 2.26137Z" fill="#EDEDED" stroke="#D2D2D2"/>
<path d="M2103.19 2.26137L2105.5 2.9919L2102.3 10.5966C2100.55 14.7533 2097.08 14.3333 2093.5 13.3215C2095.21 9.26711 2097.15 0.365664 2103.19 2.26137Z" fill="#EDEDED" stroke="#D2D2D2"/>
<path d="M2096.19 2.26137L2098.5 2.9919L2095.3 10.5966C2093.55 14.7533 2090.08 14.3333 2086.5 13.3215C2088.21 9.26711 2090.15 0.365664 2096.19 2.26137Z" fill="#EDEDED" stroke="#D2D2D2"/>
<path d="M2089.19 2.26137L2091.5 2.9919L2088.3 10.5966C2086.55 14.7533 2083.08 14.3333 2079.5 13.3215C2081.21 9.26711 2083.15 0.365664 2089.19 2.26137Z" fill="#EDEDED" stroke="#D2D2D2"/>
<path d="M2082.19 2.26137L2084.5 2.9919L2081.3 10.5966C2079.55 14.7533 2076.08 14.3333 2072.5 13.3215C2074.21 9.26711 2076.15 0.365664 2082.19 2.26137Z" fill="#EDEDED" stroke="#D2D2D2"/>
<path d="M2075.19 2.26137L2077.5 2.9919L2074.3 10.5966C2072.55 14.7533 2069.08 14.3333 2065.5 13.3215C2067.21 9.26711 2069.15 0.365664 2075.19 2.26137Z" fill="#EDEDED" stroke="#D2D2D2"/>
<path d="M2068.19 2.26137L2070.5 2.9919L2067.3 10.5966C2065.55 14.7533 2062.08 14.3333 2058.5 13.3215C2060.21 9.26711 2062.15 0.365664 2068.19 2.26137Z" fill="#EDEDED" stroke="#D2D2D2"/>
<path d="M2061.19 2.26137L2063.5 2.9919L2060.3 10.5966C2058.55 14.7533 2055.08 14.3333 2051.5 13.3215C2053.21 9.26711 2055.15 0.365664 2061.19 2.26137Z" fill="#EDEDED" stroke="#D2D2D2"/>
<path d="M2054.19 2.26137L2056.5 2.9919L2053.3 10.5966C2051.55 14.7533 2048.08 14.3333 2044.5 13.3215C2046.21 9.26711 2048.15 0.365664 2054.19 2.26137Z" fill="#EDEDED" stroke="#D2D2D2"/>
<path d="M2047.19 2.26137L2049.5 2.9919L2046.3 10.5966C2044.55 14.7533 2041.08 14.3333 2037.5 13.3215C2039.21 9.26711 2041.15 0.365664 2047.19 2.26137Z" fill="#EDEDED" stroke="#D2D2D2"/>
<path d="M2040.19 2.26137L2042.5 2.9919L2039.3 10.5966C2037.55 14.7533 2034.08 14.3333 2030.5 13.3215C2032.21 9.26711 2034.15 0.365664 2040.19 2.26137Z" fill="#EDEDED" stroke="#D2D2D2"/>
<path d="M2033.19 2.26137L2035.5 2.9919L2032.3 10.5966C2030.55 14.7533 2027.08 14.3333 2023.5 13.3215C2025.21 9.26711 2027.15 0.365664 2033.19 2.26137Z" fill="#EDEDED" stroke="#D2D2D2"/>
<path d="M2026.19 2.26137L2028.5 2.9919L2025.3 10.5966C2023.55 14.7533 2020.08 14.3333 2016.5 13.3215C2018.21 9.26711 2020.15 0.365664 2026.19 2.26137Z" fill="#EDEDED" stroke="#D2D2D2"/>
<path d="M2019.19 2.26137L2021.5 2.9919L2018.3 10.5966C2016.55 14.7533 2013.08 14.3333 2009.5 13.3215C2011.21 9.26711 2013.15 0.365664 2019.19 2.26137Z" fill="#EDEDED" stroke="#D2D2D2"/>
<path d="M2012.19 2.26137L2014.5 2.9919L2011.3 10.5966C2009.55 14.7533 2006.08 14.3333 2002.5 13.3215C2004.21 9.26711 2006.15 0.365664 2012.19 2.26137Z" fill="#EDEDED" stroke="#D2D2D2"/>
<path d="M2005.19 2.26137L2007.5 2.9919L2004.3 10.5966C2002.55 14.7533 1999.08 14.3333 1995.5 13.3215C1997.21 9.26711 1999.15 0.365664 2005.19 2.26137Z" fill="#EDEDED" stroke="#D2D2D2"/>
<path d="M1998.19 2.26137L2000.5 2.9919L1997.3 10.5966C1995.55 14.7533 1992.08 14.3333 1988.5 13.3215C1990.21 9.26711 1992.15 0.365664 1998.19 2.26137Z" fill="#EDEDED" stroke="#D2D2D2"/>
<path d="M1991.19 2.26137L1993.5 2.9919L1990.3 10.5966C1988.55 14.7533 1985.08 14.3333 1981.5 13.3215C1983.21 9.26711 1985.15 0.365664 1991.19 2.26137Z" fill="#EDEDED" stroke="#D2D2D2"/>
<path d="M1984.19 2.26137L1986.5 2.9919L1983.3 10.5966C1981.55 14.7533 1978.08 14.3333 1974.5 13.3215C1976.21 9.26711 1978.15 0.365664 1984.19 2.26137Z" fill="#EDEDED" stroke="#D2D2D2"/>
<path d="M1977.19 2.26137L1979.5 2.9919L1976.3 10.5966C1974.55 14.7533 1971.08 14.3333 1967.5 13.3215C1969.21 9.26711 1971.15 0.365664 1977.19 2.26137Z" fill="#EDEDED" stroke="#D2D2D2"/>
<path d="M1970.19 2.26137L1972.5 2.9919L1969.3 10.5966C1967.55 14.7533 1964.08 14.3333 1960.5 13.3215C1962.21 9.26711 1964.15 0.365664 1970.19 2.26137Z" fill="#EDEDED" stroke="#D2D2D2"/>
<path d="M1963.19 2.26137L1965.5 2.9919L1962.3 10.5966C1960.55 14.7533 1957.08 14.3333 1953.5 13.3215C1955.21 9.26711 1957.15 0.365664 1963.19 2.26137Z" fill="#EDEDED" stroke="#D2D2D2"/>
<path d="M1956.19 2.26137L1958.5 2.9919L1955.3 10.5966C1953.55 14.7533 1950.08 14.3333 1946.5 13.3215C1948.21 9.26711 1950.15 0.365664 1956.19 2.26137Z" fill="#EDEDED" stroke="#D2D2D2"/>
<path d="M1949.19 2.26137L1951.5 2.9919L1948.3 10.5966C1946.55 14.7533 1943.08 14.3333 1939.5 13.3215C1941.21 9.26711 1943.15 0.365664 1949.19 2.26137Z" fill="#EDEDED" stroke="#D2D2D2"/>
<path d="M1942.19 2.26137L1944.5 2.9919L1941.3 10.5966C1939.55 14.7533 1936.08 14.3333 1932.5 13.3215C1934.21 9.26711 1936.15 0.365664 1942.19 2.26137Z" fill="#EDEDED" stroke="#D2D2D2"/>
<path d="M1935.19 2.26137L1937.5 2.9919L1934.3 10.5966C1932.55 14.7533 1929.08 14.3333 1925.5 13.3215C1927.21 9.26711 1929.15 0.365664 1935.19 2.26137Z" fill="#EDEDED" stroke="#D2D2D2"/>
<path d="M1928.19 2.26137L1930.5 2.9919L1927.3 10.5966C1925.55 14.7533 1922.08 14.3333 1918.5 13.3215C1920.21 9.26711 1922.15 0.365664 1928.19 2.26137Z" fill="#EDEDED" stroke="#D2D2D2"/>
<path d="M1921.19 2.26137L1923.5 2.9919L1920.3 10.5966C1918.55 14.7533 1915.08 14.3333 1911.5 13.3215C1913.21 9.26711 1915.15 0.365664 1921.19 2.26137Z" fill="#EDEDED" stroke="#D2D2D2"/>
<path d="M1914.19 2.26137L1916.5 2.9919L1913.3 10.5966C1911.55 14.7533 1908.08 14.3333 1904.5 13.3215C1906.21 9.26711 1908.15 0.365664 1914.19 2.26137Z" fill="#EDEDED" stroke="#D2D2D2"/>
<path d="M1907.19 2.26137L1909.5 2.9919L1906.3 10.5966C1904.55 14.7533 1901.08 14.3333 1897.5 13.3215C1899.21 9.26711 1901.15 0.365664 1907.19 2.26137Z" fill="#EDEDED" stroke="#D2D2D2"/>
<path d="M1900.19 2.26137L1902.5 2.9919L1899.3 10.5966C1897.55 14.7533 1894.08 14.3333 1890.5 13.3215C1892.21 9.26711 1894.15 0.365664 1900.19 2.26137Z" fill="#EDEDED" stroke="#D2D2D2"/>
<path d="M1893.19 2.26137L1895.5 2.9919L1892.3 10.5966C1890.55 14.7533 1887.08 14.3333 1883.5 13.3215C1885.21 9.26711 1887.15 0.365664 1893.19 2.26137Z" fill="#EDEDED" stroke="#D2D2D2"/>
<path d="M1886.19 2.26137L1888.5 2.9919L1885.3 10.5966C1883.55 14.7533 1880.08 14.3333 1876.5 13.3215C1878.21 9.26711 1880.15 0.365664 1886.19 2.26137Z" fill="#EDEDED" stroke="#D2D2D2"/>
<path d="M1879.19 2.26137L1881.5 2.9919L1878.3 10.5966C1876.55 14.7533 1873.08 14.3333 1869.5 13.3215C1871.21 9.26711 1873.15 0.365664 1879.19 2.26137Z" fill="#EDEDED" stroke="#D2D2D2"/>
<path d="M1872.19 2.26137L1874.5 2.9919L1871.3 10.5966C1869.55 14.7533 1866.08 14.3333 1862.5 13.3215C1864.21 9.26711 1866.15 0.365664 1872.19 2.26137Z" fill="#EDEDED" stroke="#D2D2D2"/>
<path d="M1865.19 2.26137L1867.5 2.9919L1864.3 10.5966C1862.55 14.7533 1859.08 14.3333 1855.5 13.3215C1857.21 9.26711 1859.15 0.365664 1865.19 2.26137Z" fill="#EDEDED" stroke="#D2D2D2"/>
<path d="M1858.19 2.26137L1860.5 2.9919L1857.3 10.5966C1855.55 14.7533 1852.08 14.3333 1848.5 13.3215C1850.21 9.26711 1852.15 0.365664 1858.19 2.26137Z" fill="#EDEDED" stroke="#D2D2D2"/>
<path d="M1851.19 2.26137L1853.5 2.9919L1850.3 10.5966C1848.55 14.7533 1845.08 14.3333 1841.5 13.3215C1843.21 9.26711 1845.15 0.365664 1851.19 2.26137Z" fill="#EDEDED" stroke="#D2D2D2"/>
<path d="M1844.19 2.26137L1846.5 2.9919L1843.3 10.5966C1841.55 14.7533 1838.08 14.3333 1834.5 13.3215C1836.21 9.26711 1838.15 0.365664 1844.19 2.26137Z" fill="#EDEDED" stroke="#D2D2D2"/>
<path d="M1837.19 2.26137L1839.5 2.9919L1836.3 10.5966C1834.55 14.7533 1831.08 14.3333 1827.5 13.3215C1829.21 9.26711 1831.15 0.365664 1837.19 2.26137Z" fill="#EDEDED" stroke="#D2D2D2"/>
<path d="M1830.19 2.26137L1832.5 2.9919L1829.3 10.5966C1827.55 14.7533 1824.08 14.3333 1820.5 13.3215C1822.21 9.26711 1824.15 0.365664 1830.19 2.26137Z" fill="#EDEDED" stroke="#D2D2D2"/>
<path d="M1823.19 2.26137L1825.5 2.9919L1822.3 10.5966C1820.55 14.7533 1817.08 14.3333 1813.5 13.3215C1815.21 9.26711 1817.15 0.365664 1823.19 2.26137Z" fill="#EDEDED" stroke="#D2D2D2"/>
<path d="M1816.19 2.26137L1818.5 2.9919L1815.3 10.5966C1813.55 14.7533 1810.08 14.3333 1806.5 13.3215C1808.21 9.26711 1810.15 0.365664 1816.19 2.26137Z" fill="#EDEDED" stroke="#D2D2D2"/>
<path d="M1809.19 2.26137L1811.5 2.9919L1808.3 10.5966C1806.55 14.7533 1803.08 14.3333 1799.5 13.3215C1801.21 9.26711 1803.15 0.365664 1809.19 2.26137Z" fill="#EDEDED" stroke="#D2D2D2"/>
<path d="M1802.19 2.26137L1804.5 2.9919L1801.3 10.5966C1799.55 14.7533 1796.08 14.3333 1792.5 13.3215C1794.21 9.26711 1796.15 0.365664 1802.19 2.26137Z" fill="#EDEDED" stroke="#D2D2D2"/>
<path d="M1795.19 2.26137L1797.5 2.9919L1794.3 10.5966C1792.55 14.7533 1789.08 14.3333 1785.5 13.3215C1787.21 9.26711 1789.15 0.365664 1795.19 2.26137Z" fill="#EDEDED" stroke="#D2D2D2"/>
<path d="M1788.19 2.26137L1790.5 2.9919L1787.3 10.5966C1785.55 14.7533 1782.08 14.3333 1778.5 13.3215C1780.21 9.26711 1782.15 0.365664 1788.19 2.26137Z" fill="#EDEDED" stroke="#D2D2D2"/>
<path d="M1781.19 2.26137L1783.5 2.9919L1780.3 10.5966C1778.55 14.7533 1775.08 14.3333 1771.5 13.3215C1773.21 9.26711 1775.15 0.365664 1781.19 2.26137Z" fill="#EDEDED" stroke="#D2D2D2"/>
<path d="M1774.19 2.26137L1776.5 2.9919L1773.3 10.5966C1771.55 14.7533 1768.08 14.3333 1764.5 13.3215C1766.21 9.26711 1768.15 0.365664 1774.19 2.26137Z" fill="#EDEDED" stroke="#D2D2D2"/>
<path d="M1767.19 2.26137L1769.5 2.9919L1766.3 10.5966C1764.55 14.7533 1761.08 14.3333 1757.5 13.3215C1759.21 9.26711 1761.15 0.365664 1767.19 2.26137Z" fill="#EDEDED" stroke="#D2D2D2"/>
<path d="M1760.19 2.26137L1762.5 2.9919L1759.3 10.5966C1757.55 14.7533 1754.08 14.3333 1750.5 13.3215C1752.21 9.26711 1754.15 0.365664 1760.19 2.26137Z" fill="#EDEDED" stroke="#D2D2D2"/>
<path d="M1753.19 2.26137L1755.5 2.9919L1752.3 10.5966C1750.55 14.7533 1747.08 14.3333 1743.5 13.3215C1745.21 9.26711 1747.15 0.365664 1753.19 2.26137Z" fill="#EDEDED" stroke="#D2D2D2"/>
<path d="M1746.19 2.26137L1748.5 2.9919L1745.3 10.5966C1743.55 14.7533 1740.08 14.3333 1736.5 13.3215C1738.21 9.26711 1740.15 0.365664 1746.19 2.26137Z" fill="#EDEDED" stroke="#D2D2D2"/>
<path d="M1739.19 2.26137L1741.5 2.9919L1738.3 10.5966C1736.55 14.7533 1733.08 14.3333 1729.5 13.3215C1731.21 9.26711 1733.15 0.365664 1739.19 2.26137Z" fill="#EDEDED" stroke="#D2D2D2"/>
<path d="M1732.19 2.26137L1734.5 2.9919L1731.3 10.5966C1729.55 14.7533 1726.08 14.3333 1722.5 13.3215C1724.21 9.26711 1726.15 0.365664 1732.19 2.26137Z" fill="#EDEDED" stroke="#D2D2D2"/>
<path d="M1725.19 2.26137L1727.5 2.9919L1724.3 10.5966C1722.55 14.7533 1719.08 14.3333 1715.5 13.3215C1717.21 9.26711 1719.15 0.365664 1725.19 2.26137Z" fill="#EDEDED" stroke="#D2D2D2"/>
<path d="M1718.19 2.26137L1720.5 2.9919L1717.3 10.5966C1715.55 14.7533 1712.08 14.3333 1708.5 13.3215C1710.21 9.26711 1712.15 0.365664 1718.19 2.26137Z" fill="#EDEDED" stroke="#D2D2D2"/>
<path d="M1711.19 2.26137L1713.5 2.9919L1710.3 10.5966C1708.55 14.7533 1705.08 14.3333 1701.5 13.3215C1703.21 9.26711 1705.15 0.365664 1711.19 2.26137Z" fill="#EDEDED" stroke="#D2D2D2"/>
<path d="M1704.19 2.26137L1706.5 2.9919L1703.3 10.5966C1701.55 14.7533 1698.08 14.3333 1694.5 13.3215C1696.21 9.26711 1698.15 0.365664 1704.19 2.26137Z" fill="#EDEDED" stroke="#D2D2D2"/>
<path d="M1697.19 2.26137L1699.5 2.9919L1696.3 10.5966C1694.55 14.7533 1691.08 14.3333 1687.5 13.3215C1689.21 9.26711 1691.15 0.365664 1697.19 2.26137Z" fill="#EDEDED" stroke="#D2D2D2"/>
<path d="M1690.19 2.26137L1692.5 2.9919L1689.3 10.5966C1687.55 14.7533 1684.08 14.3333 1680.5 13.3215C1682.21 9.26711 1684.15 0.365664 1690.19 2.26137Z" fill="#EDEDED" stroke="#D2D2D2"/>
<path d="M1683.19 2.26137L1685.5 2.9919L1682.3 10.5966C1680.55 14.7533 1677.08 14.3333 1673.5 13.3215C1675.21 9.26711 1677.15 0.365664 1683.19 2.26137Z" fill="#EDEDED" stroke="#D2D2D2"/>
<path d="M1676.19 2.26137L1678.5 2.9919L1675.3 10.5966C1673.55 14.7533 1670.08 14.3333 1666.5 13.3215C1668.21 9.26711 1670.15 0.365664 1676.19 2.26137Z" fill="#EDEDED" stroke="#D2D2D2"/>
<path d="M1669.19 2.26137L1671.5 2.9919L1668.3 10.5966C1666.55 14.7533 1663.08 14.3333 1659.5 13.3215C1661.21 9.26711 1663.15 0.365664 1669.19 2.26137Z" fill="#EDEDED" stroke="#D2D2D2"/>
<path d="M1662.19 2.26137L1664.5 2.9919L1661.3 10.5966C1659.55 14.7533 1656.08 14.3333 1652.5 13.3215C1654.21 9.26711 1656.15 0.365664 1662.19 2.26137Z" fill="#EDEDED" stroke="#D2D2D2"/>
<path d="M1655.19 2.26137L1657.5 2.9919L1654.3 10.5966C1652.55 14.7533 1649.08 14.3333 1645.5 13.3215C1647.21 9.26711 1649.15 0.365664 1655.19 2.26137Z" fill="#EDEDED" stroke="#D2D2D2"/>
<path d="M1648.19 2.26137L1650.5 2.9919L1647.3 10.5966C1645.55 14.7533 1642.08 14.3333 1638.5 13.3215C1640.21 9.26711 1642.15 0.365664 1648.19 2.26137Z" fill="#EDEDED" stroke="#D2D2D2"/>
<path d="M1641.19 2.26137L1643.5 2.9919L1640.3 10.5966C1638.55 14.7533 1635.08 14.3333 1631.5 13.3215C1633.21 9.26711 1635.15 0.365664 1641.19 2.26137Z" fill="#EDEDED" stroke="#D2D2D2"/>
<path d="M1634.19 2.26137L1636.5 2.9919L1633.3 10.5966C1631.55 14.7533 1628.08 14.3333 1624.5 13.3215C1626.21 9.26711 1628.15 0.365664 1634.19 2.26137Z" fill="#EDEDED" stroke="#D2D2D2"/>
<path d="M1627.19 2.26137L1629.5 2.9919L1626.3 10.5966C1624.55 14.7533 1621.08 14.3333 1617.5 13.3215C1619.21 9.26711 1621.15 0.365664 1627.19 2.26137Z" fill="#EDEDED" stroke="#D2D2D2"/>
<path d="M1620.19 2.26137L1622.5 2.9919L1619.3 10.5966C1617.55 14.7533 1614.08 14.3333 1610.5 13.3215C1612.21 9.26711 1614.15 0.365664 1620.19 2.26137Z" fill="#EDEDED" stroke="#D2D2D2"/>
<path d="M1613.19 2.26137L1615.5 2.9919L1612.3 10.5966C1610.55 14.7533 1607.08 14.3333 1603.5 13.3215C1605.21 9.26711 1607.15 0.365664 1613.19 2.26137Z" fill="#EDEDED" stroke="#D2D2D2"/>
<path d="M1606.19 2.26137L1608.5 2.9919L1605.3 10.5966C1603.55 14.7533 1600.08 14.3333 1596.5 13.3215C1598.21 9.26711 1600.15 0.365664 1606.19 2.26137Z" fill="#EDEDED" stroke="#D2D2D2"/>
<path d="M1599.19 2.26137L1601.5 2.9919L1598.3 10.5966C1596.55 14.7533 1593.08 14.3333 1589.5 13.3215C1591.21 9.26711 1593.15 0.365664 1599.19 2.26137Z" fill="#EDEDED" stroke="#D2D2D2"/>
<path d="M1592.19 2.26137L1594.5 2.9919L1591.3 10.5966C1589.55 14.7533 1586.08 14.3333 1582.5 13.3215C1584.21 9.26711 1586.15 0.365664 1592.19 2.26137Z" fill="#EDEDED" stroke="#D2D2D2"/>
<path d="M1585.19 2.26137L1587.5 2.9919L1584.3 10.5966C1582.55 14.7533 1579.08 14.3333 1575.5 13.3215C1577.21 9.26711 1579.15 0.365664 1585.19 2.26137Z" fill="#EDEDED" stroke="#D2D2D2"/>
<path d="M1578.19 2.26137L1580.5 2.9919L1577.3 10.5966C1575.55 14.7533 1572.08 14.3333 1568.5 13.3215C1570.21 9.26711 1572.15 0.365664 1578.19 2.26137Z" fill="#EDEDED" stroke="#D2D2D2"/>
<path d="M1571.19 2.26137L1573.5 2.9919L1570.3 10.5966C1568.55 14.7533 1565.08 14.3333 1561.5 13.3215C1563.21 9.26711 1565.15 0.365664 1571.19 2.26137Z" fill="#EDEDED" stroke="#D2D2D2"/>
<path d="M1564.19 2.26137L1566.5 2.9919L1563.3 10.5966C1561.55 14.7533 1558.08 14.3333 1554.5 13.3215C1556.21 9.26711 1558.15 0.365664 1564.19 2.26137Z" fill="#EDEDED" stroke="#D2D2D2"/>
<path d="M1557.19 2.26137L1559.5 2.9919L1556.3 10.5966C1554.55 14.7533 1551.08 14.3333 1547.5 13.3215C1549.21 9.26711 1551.15 0.365664 1557.19 2.26137Z" fill="#EDEDED" stroke="#D2D2D2"/>
<path d="M1550.19 2.26137L1552.5 2.9919L1549.3 10.5966C1547.55 14.7533 1544.08 14.3333 1540.5 13.3215C1542.21 9.26711 1544.15 0.365664 1550.19 2.26137Z" fill="#EDEDED" stroke="#D2D2D2"/>
<path d="M1543.19 2.26137L1545.5 2.9919L1542.3 10.5966C1540.55 14.7533 1537.08 14.3333 1533.5 13.3215C1535.21 9.26711 1537.15 0.365664 1543.19 2.26137Z" fill="#EDEDED" stroke="#D2D2D2"/>
<path d="M1536.19 2.26137L1538.5 2.9919L1535.3 10.5966C1533.55 14.7533 1530.08 14.3333 1526.5 13.3215C1528.21 9.26711 1530.15 0.365664 1536.19 2.26137Z" fill="#EDEDED" stroke="#D2D2D2"/>
<path d="M1529.19 2.26137L1531.5 2.9919L1528.3 10.5966C1526.55 14.7533 1523.08 14.3333 1519.5 13.3215C1521.21 9.26711 1523.15 0.365664 1529.19 2.26137Z" fill="#EDEDED" stroke="#D2D2D2"/>
<path d="M1522.19 2.26137L1524.5 2.9919L1521.3 10.5966C1519.55 14.7533 1516.08 14.3333 1512.5 13.3215C1514.21 9.26711 1516.15 0.365664 1522.19 2.26137Z" fill="#EDEDED" stroke="#D2D2D2"/>
<path d="M1515.19 2.26137L1517.5 2.9919L1514.3 10.5966C1512.55 14.7533 1509.08 14.3333 1505.5 13.3215C1507.21 9.26711 1509.15 0.365664 1515.19 2.26137Z" fill="#EDEDED" stroke="#D2D2D2"/>
<path d="M1508.19 2.26137L1510.5 2.9919L1507.3 10.5966C1505.55 14.7533 1502.08 14.3333 1498.5 13.3215C1500.21 9.26711 1502.15 0.365664 1508.19 2.26137Z" fill="#EDEDED" stroke="#D2D2D2"/>
<path d="M1501.19 2.26137L1503.5 2.9919L1500.3 10.5966C1498.55 14.7533 1495.08 14.3333 1491.5 13.3215C1493.21 9.26711 1495.15 0.365664 1501.19 2.26137Z" fill="#EDEDED" stroke="#D2D2D2"/>
<path d="M1494.19 2.26137L1496.5 2.9919L1493.3 10.5966C1491.55 14.7533 1488.08 14.3333 1484.5 13.3215C1486.21 9.26711 1488.15 0.365664 1494.19 2.26137Z" fill="#EDEDED" stroke="#D2D2D2"/>
<path d="M1487.19 2.26137L1489.5 2.9919L1486.3 10.5966C1484.55 14.7533 1481.08 14.3333 1477.5 13.3215C1479.21 9.26711 1481.15 0.365664 1487.19 2.26137Z" fill="#EDEDED" stroke="#D2D2D2"/>
<path d="M1480.19 2.26137L1482.5 2.9919L1479.3 10.5966C1477.55 14.7533 1474.08 14.3333 1470.5 13.3215C1472.21 9.26711 1474.15 0.365664 1480.19 2.26137Z" fill="#EDEDED" stroke="#D2D2D2"/>
<path d="M1473.19 2.26137L1475.5 2.9919L1472.3 10.5966C1470.55 14.7533 1467.08 14.3333 1463.5 13.3215C1465.21 9.26711 1467.15 0.365664 1473.19 2.26137Z" fill="#EDEDED" stroke="#D2D2D2"/>
<path d="M1466.19 2.26137L1468.5 2.9919L1465.3 10.5966C1463.55 14.7533 1460.08 14.3333 1456.5 13.3215C1458.21 9.26711 1460.15 0.365664 1466.19 2.26137Z" fill="#EDEDED" stroke="#D2D2D2"/>
<path d="M1459.19 2.26137L1461.5 2.9919L1458.3 10.5966C1456.55 14.7533 1453.08 14.3333 1449.5 13.3215C1451.21 9.26711 1453.15 0.365664 1459.19 2.26137Z" fill="#EDEDED" stroke="#D2D2D2"/>
<path d="M1452.19 2.26137L1454.5 2.9919L1451.3 10.5966C1449.55 14.7533 1446.08 14.3333 1442.5 13.3215C1444.21 9.26711 1446.15 0.365664 1452.19 2.26137Z" fill="#EDEDED" stroke="#D2D2D2"/>
<path d="M1445.19 2.26137L1447.5 2.9919L1444.3 10.5966C1442.55 14.7533 1439.08 14.3333 1435.5 13.3215C1437.21 9.26711 1439.15 0.365664 1445.19 2.26137Z" fill="#EDEDED" stroke="#D2D2D2"/>
<path d="M1438.19 2.26137L1440.5 2.9919L1437.3 10.5966C1435.55 14.7533 1432.08 14.3333 1428.5 13.3215C1430.21 9.26711 1432.15 0.365664 1438.19 2.26137Z" fill="#EDEDED" stroke="#D2D2D2"/>
<path d="M1431.19 2.26137L1433.5 2.9919L1430.3 10.5966C1428.55 14.7533 1425.08 14.3333 1421.5 13.3215C1423.21 9.26711 1425.15 0.365664 1431.19 2.26137Z" fill="#EDEDED" stroke="#D2D2D2"/>
<path d="M1424.19 2.26137L1426.5 2.9919L1423.3 10.5966C1421.55 14.7533 1418.08 14.3333 1414.5 13.3215C1416.21 9.26711 1418.15 0.365664 1424.19 2.26137Z" fill="#EDEDED" stroke="#D2D2D2"/>
<path d="M1417.19 2.26137L1419.5 2.9919L1416.3 10.5966C1414.55 14.7533 1411.08 14.3333 1407.5 13.3215C1409.21 9.26711 1411.15 0.365664 1417.19 2.26137Z" fill="#EDEDED" stroke="#D2D2D2"/>
<path d="M1410.19 2.26137L1412.5 2.9919L1409.3 10.5966C1407.55 14.7533 1404.08 14.3333 1400.5 13.3215C1402.21 9.26711 1404.15 0.365664 1410.19 2.26137Z" fill="#EDEDED" stroke="#D2D2D2"/>
<path d="M1403.19 2.26137L1405.5 2.9919L1402.3 10.5966C1400.55 14.7533 1397.08 14.3333 1393.5 13.3215C1395.21 9.26711 1397.15 0.365664 1403.19 2.26137Z" fill="#EDEDED" stroke="#D2D2D2"/>
<path d="M1396.19 2.26137L1398.5 2.9919L1395.3 10.5966C1393.55 14.7533 1390.08 14.3333 1386.5 13.3215C1388.21 9.26711 1390.15 0.365664 1396.19 2.26137Z" fill="#EDEDED" stroke="#D2D2D2"/>
<path d="M1389.19 2.26137L1391.5 2.9919L1388.3 10.5966C1386.55 14.7533 1383.08 14.3333 1379.5 13.3215C1381.21 9.26711 1383.15 0.365664 1389.19 2.26137Z" fill="#EDEDED" stroke="#D2D2D2"/>
<path d="M1382.19 2.26137L1384.5 2.9919L1381.3 10.5966C1379.55 14.7533 1376.08 14.3333 1372.5 13.3215C1374.21 9.26711 1376.15 0.365664 1382.19 2.26137Z" fill="#EDEDED" stroke="#D2D2D2"/>
<path d="M1375.19 2.26137L1377.5 2.9919L1374.3 10.5966C1372.55 14.7533 1369.08 14.3333 1365.5 13.3215C1367.21 9.26711 1369.15 0.365664 1375.19 2.26137Z" fill="#EDEDED" stroke="#D2D2D2"/>
<path d="M1368.19 2.26137L1370.5 2.9919L1367.3 10.5966C1365.55 14.7533 1362.08 14.3333 1358.5 13.3215C1360.21 9.26711 1362.15 0.365664 1368.19 2.26137Z" fill="#EDEDED" stroke="#D2D2D2"/>
<path d="M1361.19 2.26137L1363.5 2.9919L1360.3 10.5966C1358.55 14.7533 1355.08 14.3333 1351.5 13.3215C1353.21 9.26711 1355.15 0.365664 1361.19 2.26137Z" fill="#EDEDED" stroke="#D2D2D2"/>
<path d="M1354.19 2.26137L1356.5 2.9919L1353.3 10.5966C1351.55 14.7533 1348.08 14.3333 1344.5 13.3215C1346.21 9.26711 1348.15 0.365664 1354.19 2.26137Z" fill="#EDEDED" stroke="#D2D2D2"/>
<path d="M1347.19 2.26137L1349.5 2.9919L1346.3 10.5966C1344.55 14.7533 1341.08 14.3333 1337.5 13.3215C1339.21 9.26711 1341.15 0.365664 1347.19 2.26137Z" fill="#EDEDED" stroke="#D2D2D2"/>
<path d="M1340.19 2.26137L1342.5 2.9919L1339.3 10.5966C1337.55 14.7533 1334.08 14.3333 1330.5 13.3215C1332.21 9.26711 1334.15 0.365664 1340.19 2.26137Z" fill="#EDEDED" stroke="#D2D2D2"/>
<path d="M1333.19 2.26137L1335.5 2.9919L1332.3 10.5966C1330.55 14.7533 1327.08 14.3333 1323.5 13.3215C1325.21 9.26711 1327.15 0.365664 1333.19 2.26137Z" fill="#EDEDED" stroke="#D2D2D2"/>
<path d="M1326.19 2.26137L1328.5 2.9919L1325.3 10.5966C1323.55 14.7533 1320.08 14.3333 1316.5 13.3215C1318.21 9.26711 1320.15 0.365664 1326.19 2.26137Z" fill="#EDEDED" stroke="#D2D2D2"/>
<path d="M1319.19 2.26137L1321.5 2.9919L1318.3 10.5966C1316.55 14.7533 1313.08 14.3333 1309.5 13.3215C1311.21 9.26711 1313.15 0.365664 1319.19 2.26137Z" fill="#EDEDED" stroke="#D2D2D2"/>
<path d="M1312.19 2.26137L1314.5 2.9919L1311.3 10.5966C1309.55 14.7533 1306.08 14.3333 1302.5 13.3215C1304.21 9.26711 1306.15 0.365664 1312.19 2.26137Z" fill="#EDEDED" stroke="#D2D2D2"/>
<path d="M1305.19 2.26137L1307.5 2.9919L1304.3 10.5966C1302.55 14.7533 1299.08 14.3333 1295.5 13.3215C1297.21 9.26711 1299.15 0.365664 1305.19 2.26137Z" fill="#EDEDED" stroke="#D2D2D2"/>
<path d="M1298.19 2.26137L1300.5 2.9919L1297.3 10.5966C1295.55 14.7533 1292.08 14.3333 1288.5 13.3215C1290.21 9.26711 1292.15 0.365664 1298.19 2.26137Z" fill="#EDEDED" stroke="#D2D2D2"/>
<path d="M1291.19 2.26137L1293.5 2.9919L1290.3 10.5966C1288.55 14.7533 1285.08 14.3333 1281.5 13.3215C1283.21 9.26711 1285.15 0.365664 1291.19 2.26137Z" fill="#EDEDED" stroke="#D2D2D2"/>
<path d="M1284.19 2.26137L1286.5 2.9919L1283.3 10.5966C1281.55 14.7533 1278.08 14.3333 1274.5 13.3215C1276.21 9.26711 1278.15 0.365664 1284.19 2.26137Z" fill="#EDEDED" stroke="#D2D2D2"/>
<path d="M1277.19 2.26137L1279.5 2.9919L1276.3 10.5966C1274.55 14.7533 1271.08 14.3333 1267.5 13.3215C1269.21 9.26711 1271.15 0.365664 1277.19 2.26137Z" fill="#EDEDED" stroke="#D2D2D2"/>
<path d="M1270.19 2.26137L1272.5 2.9919L1269.3 10.5966C1267.55 14.7533 1264.08 14.3333 1260.5 13.3215C1262.21 9.26711 1264.15 0.365664 1270.19 2.26137Z" fill="#EDEDED" stroke="#D2D2D2"/>
<path d="M1263.19 2.26137L1265.5 2.9919L1262.3 10.5966C1260.55 14.7533 1257.08 14.3333 1253.5 13.3215C1255.21 9.26711 1257.15 0.365664 1263.19 2.26137Z" fill="#EDEDED" stroke="#D2D2D2"/>
<path d="M1256.19 2.26137L1258.5 2.9919L1255.3 10.5966C1253.55 14.7533 1250.08 14.3333 1246.5 13.3215C1248.21 9.26711 1250.15 0.365664 1256.19 2.26137Z" fill="#EDEDED" stroke="#D2D2D2"/>
<path d="M1249.19 2.26137L1251.5 2.9919L1248.3 10.5966C1246.55 14.7533 1243.08 14.3333 1239.5 13.3215C1241.21 9.26711 1243.15 0.365664 1249.19 2.26137Z" fill="#EDEDED" stroke="#D2D2D2"/>
<path d="M1242.19 2.26137L1244.5 2.9919L1241.3 10.5966C1239.55 14.7533 1236.08 14.3333 1232.5 13.3215C1234.21 9.26711 1236.15 0.365664 1242.19 2.26137Z" fill="#EDEDED" stroke="#D2D2D2"/>
<path d="M1235.19 2.26137L1237.5 2.9919L1234.3 10.5966C1232.55 14.7533 1229.08 14.3333 1225.5 13.3215C1227.21 9.26711 1229.15 0.365664 1235.19 2.26137Z" fill="#EDEDED" stroke="#D2D2D2"/>
<path d="M1228.19 2.26137L1230.5 2.9919L1227.3 10.5966C1225.55 14.7533 1222.08 14.3333 1218.5 13.3215C1220.21 9.26711 1222.15 0.365664 1228.19 2.26137Z" fill="#EDEDED" stroke="#D2D2D2"/>
<path d="M1221.19 2.26137L1223.5 2.9919L1220.3 10.5966C1218.55 14.7533 1215.08 14.3333 1211.5 13.3215C1213.21 9.26711 1215.15 0.365664 1221.19 2.26137Z" fill="#EDEDED" stroke="#D2D2D2"/>
<path d="M1214.19 2.26137L1216.5 2.9919L1213.3 10.5966C1211.55 14.7533 1208.08 14.3333 1204.5 13.3215C1206.21 9.26711 1208.15 0.365664 1214.19 2.26137Z" fill="#EDEDED" stroke="#D2D2D2"/>
<path d="M1207.19 2.26137L1209.5 2.9919L1206.3 10.5966C1204.55 14.7533 1201.08 14.3333 1197.5 13.3215C1199.21 9.26711 1201.15 0.365664 1207.19 2.26137Z" fill="#EDEDED" stroke="#D2D2D2"/>
<path d="M1200.19 2.26137L1202.5 2.9919L1199.3 10.5966C1197.55 14.7533 1194.08 14.3333 1190.5 13.3215C1192.21 9.26711 1194.15 0.365664 1200.19 2.26137Z" fill="#EDEDED" stroke="#D2D2D2"/>
<path d="M1193.19 2.26137L1195.5 2.9919L1192.3 10.5966C1190.55 14.7533 1187.08 14.3333 1183.5 13.3215C1185.21 9.26711 1187.15 0.365664 1193.19 2.26137Z" fill="#EDEDED" stroke="#D2D2D2"/>
<path d="M1186.19 2.26137L1188.5 2.9919L1185.3 10.5966C1183.55 14.7533 1180.08 14.3333 1176.5 13.3215C1178.21 9.26711 1180.15 0.365664 1186.19 2.26137Z" fill="#EDEDED" stroke="#D2D2D2"/>
<path d="M1179.19 2.26137L1181.5 2.9919L1178.3 10.5966C1176.55 14.7533 1173.08 14.3333 1169.5 13.3215C1171.21 9.26711 1173.15 0.365664 1179.19 2.26137Z" fill="#EDEDED" stroke="#D2D2D2"/>
<path d="M1172.19 2.26137L1174.5 2.9919L1171.3 10.5966C1169.55 14.7533 1166.08 14.3333 1162.5 13.3215C1164.21 9.26711 1166.15 0.365664 1172.19 2.26137Z" fill="#EDEDED" stroke="#D2D2D2"/>
<path d="M1165.19 2.26137L1167.5 2.9919L1164.3 10.5966C1162.55 14.7533 1159.08 14.3333 1155.5 13.3215C1157.21 9.26711 1159.15 0.365664 1165.19 2.26137Z" fill="#EDEDED" stroke="#D2D2D2"/>
<path d="M1158.19 2.26137L1160.5 2.9919L1157.3 10.5966C1155.55 14.7533 1152.08 14.3333 1148.5 13.3215C1150.21 9.26711 1152.15 0.365664 1158.19 2.26137Z" fill="#EDEDED" stroke="#D2D2D2"/>
<path d="M1151.19 2.26137L1153.5 2.9919L1150.3 10.5966C1148.55 14.7533 1145.08 14.3333 1141.5 13.3215C1143.21 9.26711 1145.15 0.365664 1151.19 2.26137Z" fill="#EDEDED" stroke="#D2D2D2"/>
<path d="M1144.19 2.26137L1146.5 2.9919L1143.3 10.5966C1141.55 14.7533 1138.08 14.3333 1134.5 13.3215C1136.21 9.26711 1138.15 0.365664 1144.19 2.26137Z" fill="#EDEDED" stroke="#D2D2D2"/>
<path d="M1137.19 2.26137L1139.5 2.9919L1136.3 10.5966C1134.55 14.7533 1131.08 14.3333 1127.5 13.3215C1129.21 9.26711 1131.15 0.365664 1137.19 2.26137Z" fill="#EDEDED" stroke="#D2D2D2"/>
<path d="M1130.19 2.26137L1132.5 2.9919L1129.3 10.5966C1127.55 14.7533 1124.08 14.3333 1120.5 13.3215C1122.21 9.26711 1124.15 0.365664 1130.19 2.26137Z" fill="#EDEDED" stroke="#D2D2D2"/>
<path d="M1123.19 2.26137L1125.5 2.9919L1122.3 10.5966C1120.55 14.7533 1117.08 14.3333 1113.5 13.3215C1115.21 9.26711 1117.15 0.365664 1123.19 2.26137Z" fill="#EDEDED" stroke="#D2D2D2"/>
<path d="M1116.19 2.26137L1118.5 2.9919L1115.3 10.5966C1113.55 14.7533 1110.08 14.3333 1106.5 13.3215C1108.21 9.26711 1110.15 0.365664 1116.19 2.26137Z" fill="#EDEDED" stroke="#D2D2D2"/>
<path d="M1109.19 2.26137L1111.5 2.9919L1108.3 10.5966C1106.55 14.7533 1103.08 14.3333 1099.5 13.3215C1101.21 9.26711 1103.15 0.365664 1109.19 2.26137Z" fill="#EDEDED" stroke="#D2D2D2"/>
<path d="M1102.19 2.26137L1104.5 2.9919L1101.3 10.5966C1099.55 14.7533 1096.08 14.3333 1092.5 13.3215C1094.21 9.26711 1096.15 0.365664 1102.19 2.26137Z" fill="#EDEDED" stroke="#D2D2D2"/>
<path d="M1095.19 2.26137L1097.5 2.9919L1094.3 10.5966C1092.55 14.7533 1089.08 14.3333 1085.5 13.3215C1087.21 9.26711 1089.15 0.365664 1095.19 2.26137Z" fill="#EDEDED" stroke="#D2D2D2"/>
<path d="M1088.19 2.26137L1090.5 2.9919L1087.3 10.5966C1085.55 14.7533 1082.08 14.3333 1078.5 13.3215C1080.21 9.26711 1082.15 0.365664 1088.19 2.26137Z" fill="#EDEDED" stroke="#D2D2D2"/>
<path d="M1081.19 2.26137L1083.5 2.9919L1080.3 10.5966C1078.55 14.7533 1075.08 14.3333 1071.5 13.3215C1073.21 9.26711 1075.15 0.365664 1081.19 2.26137Z" fill="#EDEDED" stroke="#D2D2D2"/>
<path d="M1074.19 2.26137L1076.5 2.9919L1073.3 10.5966C1071.55 14.7533 1068.08 14.3333 1064.5 13.3215C1066.21 9.26711 1068.15 0.365664 1074.19 2.26137Z" fill="#EDEDED" stroke="#D2D2D2"/>
<path d="M1067.19 2.26137L1069.5 2.9919L1066.3 10.5966C1064.55 14.7533 1061.08 14.3333 1057.5 13.3215C1059.21 9.26711 1061.15 0.365664 1067.19 2.26137Z" fill="#EDEDED" stroke="#D2D2D2"/>
<path d="M1060.19 2.26137L1062.5 2.9919L1059.3 10.5966C1057.55 14.7533 1054.08 14.3333 1050.5 13.3215C1052.21 9.26711 1054.15 0.365664 1060.19 2.26137Z" fill="#EDEDED" stroke="#D2D2D2"/>
<path d="M1053.19 2.26137L1055.5 2.9919L1052.3 10.5966C1050.55 14.7533 1047.08 14.3333 1043.5 13.3215C1045.21 9.26711 1047.15 0.365664 1053.19 2.26137Z" fill="#EDEDED" stroke="#D2D2D2"/>
<path d="M1046.19 2.26137L1048.5 2.9919L1045.3 10.5966C1043.55 14.7533 1040.08 14.3333 1036.5 13.3215C1038.21 9.26711 1040.15 0.365664 1046.19 2.26137Z" fill="#EDEDED" stroke="#D2D2D2"/>
<path d="M1039.19 2.26137L1041.5 2.9919L1038.3 10.5966C1036.55 14.7533 1033.08 14.3333 1029.5 13.3215C1031.21 9.26711 1033.15 0.365664 1039.19 2.26137Z" fill="#EDEDED" stroke="#D2D2D2"/>
<path d="M1032.19 2.26137L1034.5 2.9919L1031.3 10.5966C1029.55 14.7533 1026.08 14.3333 1022.5 13.3215C1024.21 9.26711 1026.15 0.365664 1032.19 2.26137Z" fill="#EDEDED" stroke="#D2D2D2"/>
<path d="M1025.19 2.26137L1027.5 2.9919L1024.3 10.5966C1022.55 14.7533 1019.08 14.3333 1015.5 13.3215C1017.21 9.26711 1019.15 0.365664 1025.19 2.26137Z" fill="#EDEDED" stroke="#D2D2D2"/>
<path d="M1018.19 2.26137L1020.5 2.9919L1017.3 10.5966C1015.55 14.7533 1012.08 14.3333 1008.5 13.3215C1010.21 9.26711 1012.15 0.365664 1018.19 2.26137Z" fill="#EDEDED" stroke="#D2D2D2"/>
<path d="M1011.19 2.26137L1013.5 2.9919L1010.3 10.5966C1008.55 14.7533 1005.08 14.3333 1001.5 13.3215C1003.21 9.26711 1005.15 0.365664 1011.19 2.26137Z" fill="#EDEDED" stroke="#D2D2D2"/>
<path d="M1004.19 2.26137L1006.5 2.9919L1003.3 10.5966C1001.55 14.7533 998.076 14.3333 994.5 13.3215C996.213 9.26711 998.154 0.365664 1004.19 2.26137Z" fill="#EDEDED" stroke="#D2D2D2"/>
<path d="M997.19 2.26137L999.5 2.9919L996.3 10.5966C994.548 14.7533 991.076 14.3333 987.5 13.3215C989.213 9.26711 991.154 0.365664 997.19 2.26137Z" fill="#EDEDED" stroke="#D2D2D2"/>
<path d="M990.19 2.26137L992.5 2.9919L989.3 10.5966C987.548 14.7533 984.076 14.3333 980.5 13.3215C982.213 9.26711 984.154 0.365664 990.19 2.26137Z" fill="#EDEDED" stroke="#D2D2D2"/>
<path d="M983.19 2.26137L985.5 2.9919L982.3 10.5966C980.548 14.7533 977.076 14.3333 973.5 13.3215C975.213 9.26711 977.154 0.365664 983.19 2.26137Z" fill="#EDEDED" stroke="#D2D2D2"/>
<path d="M976.19 2.26137L978.5 2.9919L975.3 10.5966C973.548 14.7533 970.076 14.3333 966.5 13.3215C968.213 9.26711 970.154 0.365664 976.19 2.26137Z" fill="#EDEDED" stroke="#D2D2D2"/>
<path d="M969.19 2.26137L971.5 2.9919L968.3 10.5966C966.548 14.7533 963.076 14.3333 959.5 13.3215C961.213 9.26711 963.154 0.365664 969.19 2.26137Z" fill="#EDEDED" stroke="#D2D2D2"/>
<path d="M962.19 2.26137L964.5 2.9919L961.3 10.5966C959.548 14.7533 956.076 14.3333 952.5 13.3215C954.213 9.26711 956.154 0.365664 962.19 2.26137Z" fill="#EDEDED" stroke="#D2D2D2"/>
<path d="M955.19 2.26137L957.5 2.9919L954.3 10.5966C952.548 14.7533 949.076 14.3333 945.5 13.3215C947.213 9.26711 949.154 0.365664 955.19 2.26137Z" fill="#EDEDED" stroke="#D2D2D2"/>
<path d="M948.19 2.26137L950.5 2.9919L947.3 10.5966C945.548 14.7533 942.076 14.3333 938.5 13.3215C940.213 9.26711 942.154 0.365664 948.19 2.26137Z" fill="#EDEDED" stroke="#D2D2D2"/>
<path d="M941.19 2.26137L943.5 2.9919L940.3 10.5966C938.548 14.7533 935.076 14.3333 931.5 13.3215C933.213 9.26711 935.154 0.365664 941.19 2.26137Z" fill="#EDEDED" stroke="#D2D2D2"/>
<path d="M934.19 2.26137L936.5 2.9919L933.3 10.5966C931.548 14.7533 928.076 14.3333 924.5 13.3215C926.213 9.26711 928.154 0.365664 934.19 2.26137Z" fill="#EDEDED" stroke="#D2D2D2"/>
<path d="M927.19 2.26137L929.5 2.9919L926.3 10.5966C924.548 14.7533 921.076 14.3333 917.5 13.3215C919.213 9.26711 921.154 0.365664 927.19 2.26137Z" fill="#EDEDED" stroke="#D2D2D2"/>
<path d="M920.19 2.26137L922.5 2.9919L919.3 10.5966C917.548 14.7533 914.076 14.3333 910.5 13.3215C912.213 9.26711 914.154 0.365664 920.19 2.26137Z" fill="#EDEDED" stroke="#D2D2D2"/>
<path d="M913.19 2.26137L915.5 2.9919L912.3 10.5966C910.548 14.7533 907.076 14.3333 903.5 13.3215C905.213 9.26711 907.154 0.365664 913.19 2.26137Z" fill="#EDEDED" stroke="#D2D2D2"/>
<path d="M906.19 2.26137L908.5 2.9919L905.3 10.5966C903.548 14.7533 900.076 14.3333 896.5 13.3215C898.213 9.26711 900.154 0.365664 906.19 2.26137Z" fill="#EDEDED" stroke="#D2D2D2"/>
<path d="M899.19 2.26137L901.5 2.9919L898.3 10.5966C896.548 14.7533 893.076 14.3333 889.5 13.3215C891.213 9.26711 893.154 0.365664 899.19 2.26137Z" fill="#EDEDED" stroke="#D2D2D2"/>
<path d="M892.19 2.26137L894.5 2.9919L891.3 10.5966C889.548 14.7533 886.076 14.3333 882.5 13.3215C884.213 9.26711 886.154 0.365664 892.19 2.26137Z" fill="#EDEDED" stroke="#D2D2D2"/>
<path d="M885.19 2.26137L887.5 2.9919L884.3 10.5966C882.548 14.7533 879.076 14.3333 875.5 13.3215C877.213 9.26711 879.154 0.365664 885.19 2.26137Z" fill="#EDEDED" stroke="#D2D2D2"/>
<path d="M878.19 2.26137L880.5 2.9919L877.3 10.5966C875.548 14.7533 872.076 14.3333 868.5 13.3215C870.213 9.26711 872.154 0.365664 878.19 2.26137Z" fill="#EDEDED" stroke="#D2D2D2"/>
<path d="M871.19 2.26137L873.5 2.9919L870.3 10.5966C868.548 14.7533 865.076 14.3333 861.5 13.3215C863.213 9.26711 865.154 0.365664 871.19 2.26137Z" fill="#EDEDED" stroke="#D2D2D2"/>
<path d="M864.19 2.26137L866.5 2.9919L863.3 10.5966C861.548 14.7533 858.076 14.3333 854.5 13.3215C856.213 9.26711 858.154 0.365664 864.19 2.26137Z" fill="#EDEDED" stroke="#D2D2D2"/>
<path d="M857.19 2.26137L859.5 2.9919L856.3 10.5966C854.548 14.7533 851.076 14.3333 847.5 13.3215C849.213 9.26711 851.154 0.365664 857.19 2.26137Z" fill="#EDEDED" stroke="#D2D2D2"/>
<path d="M850.19 2.26137L852.5 2.9919L849.3 10.5966C847.548 14.7533 844.076 14.3333 840.5 13.3215C842.213 9.26711 844.154 0.365664 850.19 2.26137Z" fill="#EDEDED" stroke="#D2D2D2"/>
<path d="M843.19 2.26137L845.5 2.9919L842.3 10.5966C840.548 14.7533 837.076 14.3333 833.5 13.3215C835.213 9.26711 837.154 0.365664 843.19 2.26137Z" fill="#EDEDED" stroke="#D2D2D2"/>
<path d="M836.19 2.26137L838.5 2.9919L835.3 10.5966C833.548 14.7533 830.076 14.3333 826.5 13.3215C828.213 9.26711 830.154 0.365664 836.19 2.26137Z" fill="#EDEDED" stroke="#D2D2D2"/>
<path d="M829.19 2.26137L831.5 2.9919L828.3 10.5966C826.548 14.7533 823.076 14.3333 819.5 13.3215C821.213 9.26711 823.154 0.365664 829.19 2.26137Z" fill="#EDEDED" stroke="#D2D2D2"/>
<path d="M822.19 2.26137L824.5 2.9919L821.3 10.5966C819.548 14.7533 816.076 14.3333 812.5 13.3215C814.213 9.26711 816.154 0.365664 822.19 2.26137Z" fill="#EDEDED" stroke="#D2D2D2"/>
<path d="M815.19 2.26137L817.5 2.9919L814.3 10.5966C812.548 14.7533 809.076 14.3333 805.5 13.3215C807.213 9.26711 809.154 0.365664 815.19 2.26137Z" fill="#EDEDED" stroke="#D2D2D2"/>
<path d="M808.19 2.26137L810.5 2.9919L807.3 10.5966C805.548 14.7533 802.076 14.3333 798.5 13.3215C800.213 9.26711 802.154 0.365664 808.19 2.26137Z" fill="#EDEDED" stroke="#D2D2D2"/>
<path d="M801.19 2.26137L803.5 2.9919L800.3 10.5966C798.548 14.7533 795.076 14.3333 791.5 13.3215C793.213 9.26711 795.154 0.365664 801.19 2.26137Z" fill="#EDEDED" stroke="#D2D2D2"/>
<path d="M794.19 2.26137L796.5 2.9919L793.3 10.5966C791.548 14.7533 788.076 14.3333 784.5 13.3215C786.213 9.26711 788.154 0.365664 794.19 2.26137Z" fill="#EDEDED" stroke="#D2D2D2"/>
<path d="M787.19 2.26137L789.5 2.9919L786.3 10.5966C784.548 14.7533 781.076 14.3333 777.5 13.3215C779.213 9.26711 781.154 0.365664 787.19 2.26137Z" fill="#EDEDED" stroke="#D2D2D2"/>
<path d="M780.19 2.26137L782.5 2.9919L779.3 10.5966C777.548 14.7533 774.076 14.3333 770.5 13.3215C772.213 9.26711 774.154 0.365664 780.19 2.26137Z" fill="#EDEDED" stroke="#D2D2D2"/>
<path d="M773.19 2.26137L775.5 2.9919L772.3 10.5966C770.548 14.7533 767.076 14.3333 763.5 13.3215C765.213 9.26711 767.154 0.365664 773.19 2.26137Z" fill="#EDEDED" stroke="#D2D2D2"/>
<path d="M766.19 2.26137L768.5 2.9919L765.3 10.5966C763.548 14.7533 760.076 14.3333 756.5 13.3215C758.213 9.26711 760.154 0.365664 766.19 2.26137Z" fill="#EDEDED" stroke="#D2D2D2"/>
<path d="M759.19 2.26137L761.5 2.9919L758.3 10.5966C756.548 14.7533 753.076 14.3333 749.5 13.3215C751.213 9.26711 753.154 0.365664 759.19 2.26137Z" fill="#EDEDED" stroke="#D2D2D2"/>
<path d="M752.19 2.26137L754.5 2.9919L751.3 10.5966C749.548 14.7533 746.076 14.3333 742.5 13.3215C744.213 9.26711 746.154 0.365664 752.19 2.26137Z" fill="#EDEDED" stroke="#D2D2D2"/>
<path d="M745.19 2.26137L747.5 2.9919L744.3 10.5966C742.548 14.7533 739.076 14.3333 735.5 13.3215C737.213 9.26711 739.154 0.365664 745.19 2.26137Z" fill="#EDEDED" stroke="#D2D2D2"/>
<path d="M738.19 2.26137L740.5 2.9919L737.3 10.5966C735.548 14.7533 732.076 14.3333 728.5 13.3215C730.213 9.26711 732.154 0.365664 738.19 2.26137Z" fill="#EDEDED" stroke="#D2D2D2"/>
<path d="M731.19 2.26137L733.5 2.9919L730.3 10.5966C728.548 14.7533 725.076 14.3333 721.5 13.3215C723.213 9.26711 725.154 0.365664 731.19 2.26137Z" fill="#EDEDED" stroke="#D2D2D2"/>
<path d="M724.19 2.26137L726.5 2.9919L723.3 10.5966C721.548 14.7533 718.076 14.3333 714.5 13.3215C716.213 9.26711 718.154 0.365664 724.19 2.26137Z" fill="#EDEDED" stroke="#D2D2D2"/>
<path d="M717.19 2.26137L719.5 2.9919L716.3 10.5966C714.548 14.7533 711.076 14.3333 707.5 13.3215C709.213 9.26711 711.154 0.365664 717.19 2.26137Z" fill="#EDEDED" stroke="#D2D2D2"/>
<path d="M710.19 2.26137L712.5 2.9919L709.3 10.5966C707.548 14.7533 704.076 14.3333 700.5 13.3215C702.213 9.26711 704.154 0.365664 710.19 2.26137Z" fill="#EDEDED" stroke="#D2D2D2"/>
<path d="M703.19 2.26137L705.5 2.9919L702.3 10.5966C700.548 14.7533 697.076 14.3333 693.5 13.3215C695.213 9.26711 697.154 0.365664 703.19 2.26137Z" fill="#EDEDED" stroke="#D2D2D2"/>
<path d="M696.19 2.26137L698.5 2.9919L695.3 10.5966C693.548 14.7533 690.076 14.3333 686.5 13.3215C688.213 9.26711 690.154 0.365664 696.19 2.26137Z" fill="#EDEDED" stroke="#D2D2D2"/>
<path d="M689.19 2.26137L691.5 2.9919L688.3 10.5966C686.548 14.7533 683.076 14.3333 679.5 13.3215C681.213 9.26711 683.154 0.365664 689.19 2.26137Z" fill="#EDEDED" stroke="#D2D2D2"/>
<path d="M682.19 2.26137L684.5 2.9919L681.3 10.5966C679.548 14.7533 676.076 14.3333 672.5 13.3215C674.213 9.26711 676.154 0.365664 682.19 2.26137Z" fill="#EDEDED" stroke="#D2D2D2"/>
<path d="M675.19 2.26137L677.5 2.9919L674.3 10.5966C672.548 14.7533 669.076 14.3333 665.5 13.3215C667.213 9.26711 669.154 0.365664 675.19 2.26137Z" fill="#EDEDED" stroke="#D2D2D2"/>
<path d="M668.19 2.26137L670.5 2.9919L667.3 10.5966C665.548 14.7533 662.076 14.3333 658.5 13.3215C660.213 9.26711 662.154 0.365664 668.19 2.26137Z" fill="#EDEDED" stroke="#D2D2D2"/>
<path d="M661.19 2.26137L663.5 2.9919L660.3 10.5966C658.548 14.7533 655.076 14.3333 651.5 13.3215C653.213 9.26711 655.154 0.365664 661.19 2.26137Z" fill="#EDEDED" stroke="#D2D2D2"/>
<path d="M654.19 2.26137L656.5 2.9919L653.3 10.5966C651.548 14.7533 648.076 14.3333 644.5 13.3215C646.213 9.26711 648.154 0.365664 654.19 2.26137Z" fill="#EDEDED" stroke="#D2D2D2"/>
<path d="M647.19 2.26137L649.5 2.9919L646.3 10.5966C644.548 14.7533 641.076 14.3333 637.5 13.3215C639.213 9.26711 641.154 0.365664 647.19 2.26137Z" fill="#EDEDED" stroke="#D2D2D2"/>
<path d="M640.19 2.26137L642.5 2.9919L639.3 10.5966C637.548 14.7533 634.076 14.3333 630.5 13.3215C632.213 9.26711 634.154 0.365664 640.19 2.26137Z" fill="#EDEDED" stroke="#D2D2D2"/>
<path d="M633.19 2.26137L635.5 2.9919L632.3 10.5966C630.548 14.7533 627.076 14.3333 623.5 13.3215C625.213 9.26711 627.154 0.365664 633.19 2.26137Z" fill="#EDEDED" stroke="#D2D2D2"/>
<path d="M626.19 2.26137L628.5 2.9919L625.3 10.5966C623.548 14.7533 620.076 14.3333 616.5 13.3215C618.213 9.26711 620.154 0.365664 626.19 2.26137Z" fill="#EDEDED" stroke="#D2D2D2"/>
<path d="M619.19 2.26137L621.5 2.9919L618.3 10.5966C616.548 14.7533 613.076 14.3333 609.5 13.3215C611.213 9.26711 613.154 0.365664 619.19 2.26137Z" fill="#EDEDED" stroke="#D2D2D2"/>
<path d="M612.19 2.26137L614.5 2.9919L611.3 10.5966C609.548 14.7533 606.076 14.3333 602.5 13.3215C604.213 9.26711 606.154 0.365664 612.19 2.26137Z" fill="#EDEDED" stroke="#D2D2D2"/>
<path d="M605.19 2.26137L607.5 2.9919L604.3 10.5966C602.548 14.7533 599.076 14.3333 595.5 13.3215C597.213 9.26711 599.154 0.365664 605.19 2.26137Z" fill="#EDEDED" stroke="#D2D2D2"/>
<path d="M598.19 2.26137L600.5 2.9919L597.3 10.5966C595.548 14.7533 592.076 14.3333 588.5 13.3215C590.213 9.26711 592.154 0.365664 598.19 2.26137Z" fill="#EDEDED" stroke="#D2D2D2"/>
<path d="M591.19 2.26137L593.5 2.9919L590.3 10.5966C588.548 14.7533 585.076 14.3333 581.5 13.3215C583.213 9.26711 585.154 0.365664 591.19 2.26137Z" fill="#EDEDED" stroke="#D2D2D2"/>
<path d="M584.19 2.26137L586.5 2.9919L583.3 10.5966C581.548 14.7533 578.076 14.3333 574.5 13.3215C576.213 9.26711 578.154 0.365664 584.19 2.26137Z" fill="#EDEDED" stroke="#D2D2D2"/>
<path d="M577.19 2.26137L579.5 2.9919L576.3 10.5966C574.548 14.7533 571.076 14.3333 567.5 13.3215C569.213 9.26711 571.154 0.365664 577.19 2.26137Z" fill="#EDEDED" stroke="#D2D2D2"/>
<path d="M570.19 2.26137L572.5 2.9919L569.3 10.5966C567.548 14.7533 564.076 14.3333 560.5 13.3215C562.213 9.26711 564.154 0.365664 570.19 2.26137Z" fill="#EDEDED" stroke="#D2D2D2"/>
<path d="M563.19 2.26137L565.5 2.9919L562.3 10.5966C560.548 14.7533 557.076 14.3333 553.5 13.3215C555.213 9.26711 557.154 0.365664 563.19 2.26137Z" fill="#EDEDED" stroke="#D2D2D2"/>
<path d="M556.19 2.26137L558.5 2.9919L555.3 10.5966C553.548 14.7533 550.076 14.3333 546.5 13.3215C548.213 9.26711 550.154 0.365664 556.19 2.26137Z" fill="#EDEDED" stroke="#D2D2D2"/>
<path d="M549.19 2.26137L551.5 2.9919L548.3 10.5966C546.548 14.7533 543.076 14.3333 539.5 13.3215C541.213 9.26711 543.154 0.365664 549.19 2.26137Z" fill="#EDEDED" stroke="#D2D2D2"/>
<path d="M542.19 2.26137L544.5 2.9919L541.3 10.5966C539.548 14.7533 536.076 14.3333 532.5 13.3215C534.213 9.26711 536.154 0.365664 542.19 2.26137Z" fill="#EDEDED" stroke="#D2D2D2"/>
<path d="M535.19 2.26137L537.5 2.9919L534.3 10.5966C532.548 14.7533 529.076 14.3333 525.5 13.3215C527.213 9.26711 529.154 0.365664 535.19 2.26137Z" fill="#EDEDED" stroke="#D2D2D2"/>
<path d="M528.19 2.26137L530.5 2.9919L527.3 10.5966C525.548 14.7533 522.076 14.3333 518.5 13.3215C520.213 9.26711 522.154 0.365664 528.19 2.26137Z" fill="#EDEDED" stroke="#D2D2D2"/>
<path d="M521.19 2.26137L523.5 2.9919L520.3 10.5966C518.548 14.7533 515.076 14.3333 511.5 13.3215C513.213 9.26711 515.154 0.365664 521.19 2.26137Z" fill="#EDEDED" stroke="#D2D2D2"/>
<path d="M514.19 2.26137L516.5 2.9919L513.3 10.5966C511.548 14.7533 508.076 14.3333 504.5 13.3215C506.213 9.26711 508.154 0.365664 514.19 2.26137Z" fill="#EDEDED" stroke="#D2D2D2"/>
<path d="M507.19 2.26137L509.5 2.9919L506.3 10.5966C504.548 14.7533 501.076 14.3333 497.5 13.3215C499.213 9.26711 501.154 0.365664 507.19 2.26137Z" fill="#EDEDED" stroke="#D2D2D2"/>
<path d="M500.19 2.26137L502.5 2.9919L499.3 10.5966C497.548 14.7533 494.076 14.3333 490.5 13.3215C492.213 9.26711 494.154 0.365664 500.19 2.26137Z" fill="#EDEDED" stroke="#D2D2D2"/>
<path d="M493.19 2.26137L495.5 2.9919L492.3 10.5966C490.548 14.7533 487.076 14.3333 483.5 13.3215C485.213 9.26711 487.154 0.365664 493.19 2.26137Z" fill="#EDEDED" stroke="#D2D2D2"/>
<path d="M486.19 2.26137L488.5 2.9919L485.3 10.5966C483.548 14.7533 480.076 14.3333 476.5 13.3215C478.213 9.26711 480.154 0.365664 486.19 2.26137Z" fill="#EDEDED" stroke="#D2D2D2"/>
<path d="M479.19 2.26137L481.5 2.9919L478.3 10.5966C476.548 14.7533 473.076 14.3333 469.5 13.3215C471.213 9.26711 473.154 0.365664 479.19 2.26137Z" fill="#EDEDED" stroke="#D2D2D2"/>
<path d="M472.19 2.26137L474.5 2.9919L471.3 10.5966C469.548 14.7533 466.076 14.3333 462.5 13.3215C464.213 9.26711 466.154 0.365664 472.19 2.26137Z" fill="#EDEDED" stroke="#D2D2D2"/>
<path d="M465.19 2.26137L467.5 2.9919L464.3 10.5966C462.548 14.7533 459.076 14.3333 455.5 13.3215C457.213 9.26711 459.154 0.365664 465.19 2.26137Z" fill="#EDEDED" stroke="#D2D2D2"/>
<path d="M458.19 2.26137L460.5 2.9919L457.3 10.5966C455.548 14.7533 452.076 14.3333 448.5 13.3215C450.213 9.26711 452.154 0.365664 458.19 2.26137Z" fill="#EDEDED" stroke="#D2D2D2"/>
<path d="M451.19 2.26137L453.5 2.9919L450.3 10.5966C448.548 14.7533 445.076 14.3333 441.5 13.3215C443.213 9.26711 445.154 0.365664 451.19 2.26137Z" fill="#EDEDED" stroke="#D2D2D2"/>
<path d="M444.19 2.26137L446.5 2.9919L443.3 10.5966C441.548 14.7533 438.076 14.3333 434.5 13.3215C436.213 9.26711 438.154 0.365664 444.19 2.26137Z" fill="#EDEDED" stroke="#D2D2D2"/>
<path d="M437.19 2.26137L439.5 2.9919L436.3 10.5966C434.548 14.7533 431.076 14.3333 427.5 13.3215C429.213 9.26711 431.154 0.365664 437.19 2.26137Z" fill="#EDEDED" stroke="#D2D2D2"/>
<path d="M430.19 2.26137L432.5 2.9919L429.3 10.5966C427.548 14.7533 424.076 14.3333 420.5 13.3215C422.213 9.26711 424.154 0.365664 430.19 2.26137Z" fill="#EDEDED" stroke="#D2D2D2"/>
<path d="M423.19 2.26137L425.5 2.9919L422.3 10.5966C420.548 14.7533 417.076 14.3333 413.5 13.3215C415.213 9.26711 417.154 0.365664 423.19 2.26137Z" fill="#EDEDED" stroke="#D2D2D2"/>
<path d="M416.19 2.26137L418.5 2.9919L415.3 10.5966C413.548 14.7533 410.076 14.3333 406.5 13.3215C408.213 9.26711 410.154 0.365664 416.19 2.26137Z" fill="#EDEDED" stroke="#D2D2D2"/>
<path d="M409.19 2.26137L411.5 2.9919L408.3 10.5966C406.548 14.7533 403.076 14.3333 399.5 13.3215C401.213 9.26711 403.154 0.365664 409.19 2.26137Z" fill="#EDEDED" stroke="#D2D2D2"/>
<path d="M402.19 2.26137L404.5 2.9919L401.3 10.5966C399.548 14.7533 396.076 14.3333 392.5 13.3215C394.213 9.26711 396.154 0.365664 402.19 2.26137Z" fill="#EDEDED" stroke="#D2D2D2"/>
<path d="M395.19 2.26137L397.5 2.9919L394.3 10.5966C392.548 14.7533 389.076 14.3333 385.5 13.3215C387.213 9.26711 389.154 0.365664 395.19 2.26137Z" fill="#EDEDED" stroke="#D2D2D2"/>
<path d="M388.19 2.26137L390.5 2.9919L387.3 10.5966C385.548 14.7533 382.076 14.3333 378.5 13.3215C380.213 9.26711 382.154 0.365664 388.19 2.26137Z" fill="#EDEDED" stroke="#D2D2D2"/>
<path d="M381.19 2.26137L383.5 2.9919L380.3 10.5966C378.548 14.7533 375.076 14.3333 371.5 13.3215C373.213 9.26711 375.154 0.365664 381.19 2.26137Z" fill="#EDEDED" stroke="#D2D2D2"/>
<path d="M374.19 2.26137L376.5 2.9919L373.3 10.5966C371.548 14.7533 368.076 14.3333 364.5 13.3215C366.213 9.26711 368.154 0.365664 374.19 2.26137Z" fill="#EDEDED" stroke="#D2D2D2"/>
<path d="M367.19 2.26137L369.5 2.9919L366.3 10.5966C364.548 14.7533 361.076 14.3333 357.5 13.3215C359.213 9.26711 361.154 0.365664 367.19 2.26137Z" fill="#EDEDED" stroke="#D2D2D2"/>
<path d="M360.19 2.26137L362.5 2.9919L359.3 10.5966C357.548 14.7533 354.076 14.3333 350.5 13.3215C352.213 9.26711 354.154 0.365664 360.19 2.26137Z" fill="#EDEDED" stroke="#D2D2D2"/>
<path d="M353.19 2.26137L355.5 2.9919L352.3 10.5966C350.548 14.7533 347.076 14.3333 343.5 13.3215C345.213 9.26711 347.154 0.365664 353.19 2.26137Z" fill="#EDEDED" stroke="#D2D2D2"/>
<path d="M346.19 2.26137L348.5 2.9919L345.3 10.5966C343.548 14.7533 340.076 14.3333 336.5 13.3215C338.213 9.26711 340.154 0.365664 346.19 2.26137Z" fill="#EDEDED" stroke="#D2D2D2"/>
<path d="M339.19 2.26137L341.5 2.9919L338.3 10.5966C336.548 14.7533 333.076 14.3333 329.5 13.3215C331.213 9.26711 333.154 0.365664 339.19 2.26137Z" fill="#EDEDED" stroke="#D2D2D2"/>
<path d="M332.19 2.26137L334.5 2.9919L331.3 10.5966C329.548 14.7533 326.076 14.3333 322.5 13.3215C324.213 9.26711 326.154 0.365664 332.19 2.26137Z" fill="#EDEDED" stroke="#D2D2D2"/>
<path d="M325.19 2.26137L327.5 2.9919L324.3 10.5966C322.548 14.7533 319.076 14.3333 315.5 13.3215C317.213 9.26711 319.154 0.365664 325.19 2.26137Z" fill="#EDEDED" stroke="#D2D2D2"/>
<path d="M318.19 2.26137L320.5 2.9919L317.3 10.5966C315.548 14.7533 312.076 14.3333 308.5 13.3215C310.213 9.26711 312.154 0.365664 318.19 2.26137Z" fill="#EDEDED" stroke="#D2D2D2"/>
<path d="M311.19 2.26137L313.5 2.9919L310.3 10.5966C308.548 14.7533 305.076 14.3333 301.5 13.3215C303.213 9.26711 305.154 0.365664 311.19 2.26137Z" fill="#EDEDED" stroke="#D2D2D2"/>
<path d="M304.19 2.26137L306.5 2.9919L303.3 10.5966C301.548 14.7533 298.076 14.3333 294.5 13.3215C296.213 9.26711 298.154 0.365664 304.19 2.26137Z" fill="#EDEDED" stroke="#D2D2D2"/>
<path d="M297.19 2.26137L299.5 2.9919L296.3 10.5966C294.548 14.7533 291.076 14.3333 287.5 13.3215C289.213 9.26711 291.154 0.365664 297.19 2.26137Z" fill="#EDEDED" stroke="#D2D2D2"/>
<path d="M290.19 2.26137L292.5 2.9919L289.3 10.5966C287.548 14.7533 284.076 14.3333 280.5 13.3215C282.213 9.26711 284.154 0.365664 290.19 2.26137Z" fill="#EDEDED" stroke="#D2D2D2"/>
<path d="M283.19 2.26137L285.5 2.9919L282.3 10.5966C280.548 14.7533 277.076 14.3333 273.5 13.3215C275.213 9.26711 277.154 0.365664 283.19 2.26137Z" fill="#EDEDED" stroke="#D2D2D2"/>
<path d="M276.19 2.26137L278.5 2.9919L275.3 10.5966C273.548 14.7533 270.076 14.3333 266.5 13.3215C268.213 9.26711 270.154 0.365664 276.19 2.26137Z" fill="#EDEDED" stroke="#D2D2D2"/>
<path d="M269.19 2.26137L271.5 2.9919L268.3 10.5966C266.548 14.7533 263.076 14.3333 259.5 13.3215C261.213 9.26711 263.154 0.365664 269.19 2.26137Z" fill="#EDEDED" stroke="#D2D2D2"/>
<path d="M262.19 2.26137L264.5 2.9919L261.3 10.5966C259.548 14.7533 256.076 14.3333 252.5 13.3215C254.213 9.26711 256.154 0.365664 262.19 2.26137Z" fill="#EDEDED" stroke="#D2D2D2"/>
<path d="M255.19 2.26137L257.5 2.9919L254.3 10.5966C252.548 14.7533 249.076 14.3333 245.5 13.3215C247.213 9.26711 249.154 0.365664 255.19 2.26137Z" fill="#EDEDED" stroke="#D2D2D2"/>
<path d="M248.19 2.26137L250.5 2.9919L247.3 10.5966C245.548 14.7533 242.076 14.3333 238.5 13.3215C240.213 9.26711 242.154 0.365664 248.19 2.26137Z" fill="#EDEDED" stroke="#D2D2D2"/>
<path d="M241.19 2.26137L243.5 2.9919L240.3 10.5966C238.548 14.7533 235.076 14.3333 231.5 13.3215C233.213 9.26711 235.154 0.365664 241.19 2.26137Z" fill="#EDEDED" stroke="#D2D2D2"/>
<path d="M234.19 2.26137L236.5 2.9919L233.3 10.5966C231.548 14.7533 228.076 14.3333 224.5 13.3215C226.213 9.26711 228.154 0.365664 234.19 2.26137Z" fill="#EDEDED" stroke="#D2D2D2"/>
<path d="M227.19 2.26137L229.5 2.9919L226.3 10.5966C224.548 14.7533 221.076 14.3333 217.5 13.3215C219.213 9.26711 221.154 0.365664 227.19 2.26137Z" fill="#EDEDED" stroke="#D2D2D2"/>
<path d="M220.19 2.26137L222.5 2.9919L219.3 10.5966C217.548 14.7533 214.076 14.3333 210.5 13.3215C212.213 9.26711 214.154 0.365664 220.19 2.26137Z" fill="#EDEDED" stroke="#D2D2D2"/>
<path d="M213.19 2.26137L215.5 2.9919L212.3 10.5966C210.548 14.7533 207.076 14.3333 203.5 13.3215C205.213 9.26711 207.154 0.365664 213.19 2.26137Z" fill="#EDEDED" stroke="#D2D2D2"/>
<path d="M206.19 2.26137L208.5 2.9919L205.3 10.5966C203.548 14.7533 200.076 14.3333 196.5 13.3215C198.213 9.26711 200.154 0.365664 206.19 2.26137Z" fill="#EDEDED" stroke="#D2D2D2"/>
<path d="M199.19 2.26137L201.5 2.9919L198.3 10.5966C196.548 14.7533 193.076 14.3333 189.5 13.3215C191.213 9.26711 193.154 0.365664 199.19 2.26137Z" fill="#EDEDED" stroke="#D2D2D2"/>
<path d="M192.19 2.26137L194.5 2.9919L191.3 10.5966C189.548 14.7533 186.076 14.3333 182.5 13.3215C184.213 9.26711 186.154 0.365664 192.19 2.26137Z" fill="#EDEDED" stroke="#D2D2D2"/>
<path d="M185.19 2.26137L187.5 2.9919L184.3 10.5966C182.548 14.7533 179.076 14.3333 175.5 13.3215C177.213 9.26711 179.154 0.365664 185.19 2.26137Z" fill="#EDEDED" stroke="#D2D2D2"/>
<path d="M178.19 2.26137L180.5 2.9919L177.3 10.5966C175.548 14.7533 172.076 14.3333 168.5 13.3215C170.213 9.26711 172.154 0.365664 178.19 2.26137Z" fill="#EDEDED" stroke="#D2D2D2"/>
<path d="M171.19 2.26137L173.5 2.9919L170.3 10.5966C168.548 14.7533 165.076 14.3333 161.5 13.3215C163.213 9.26711 165.154 0.365664 171.19 2.26137Z" fill="#EDEDED" stroke="#D2D2D2"/>
<path d="M164.19 2.26137L166.5 2.9919L163.3 10.5966C161.548 14.7533 158.076 14.3333 154.5 13.3215C156.213 9.26711 158.154 0.365664 164.19 2.26137Z" fill="#EDEDED" stroke="#D2D2D2"/>
<path d="M157.19 2.26137L159.5 2.9919L156.3 10.5966C154.548 14.7533 151.076 14.3333 147.5 13.3215C149.213 9.26711 151.154 0.365664 157.19 2.26137Z" fill="#EDEDED" stroke="#D2D2D2"/>
<path d="M150.19 2.26137L152.5 2.9919L149.3 10.5966C147.548 14.7533 144.076 14.3333 140.5 13.3215C142.213 9.26711 144.154 0.365664 150.19 2.26137Z" fill="#EDEDED" stroke="#D2D2D2"/>
<path d="M143.19 2.26137L145.5 2.9919L142.3 10.5966C140.548 14.7533 137.076 14.3333 133.5 13.3215C135.213 9.26711 137.154 0.365664 143.19 2.26137Z" fill="#EDEDED" stroke="#D2D2D2"/>
<path d="M136.19 2.26137L138.5 2.9919L135.3 10.5966C133.548 14.7533 130.076 14.3333 126.5 13.3215C128.213 9.26711 130.154 0.365664 136.19 2.26137Z" fill="#EDEDED" stroke="#D2D2D2"/>
<path d="M129.19 2.26137L131.5 2.9919L128.3 10.5966C126.548 14.7533 123.076 14.3333 119.5 13.3215C121.213 9.26711 123.154 0.365664 129.19 2.26137Z" fill="#EDEDED" stroke="#D2D2D2"/>
<path d="M122.19 2.26137L124.5 2.9919L121.3 10.5966C119.548 14.7533 116.076 14.3333 112.5 13.3215C114.213 9.26711 116.154 0.365664 122.19 2.26137Z" fill="#EDEDED" stroke="#D2D2D2"/>
<path d="M115.19 2.26137L117.5 2.9919L114.3 10.5966C112.548 14.7533 109.076 14.3333 105.5 13.3215C107.213 9.26711 109.154 0.365664 115.19 2.26137Z" fill="#EDEDED" stroke="#D2D2D2"/>
<path d="M108.19 2.26137L110.5 2.9919L107.3 10.5966C105.548 14.7533 102.076 14.3333 98.5 13.3215C100.213 9.26711 102.154 0.365664 108.19 2.26137Z" fill="#EDEDED" stroke="#D2D2D2"/>
<path d="M101.19 2.26137L103.5 2.9919L100.3 10.5966C98.5477 14.7533 95.0757 14.3333 91.5 13.3215C93.2128 9.26711 95.1543 0.365664 101.19 2.26137Z" fill="#EDEDED" stroke="#D2D2D2"/>
<path d="M94.1901 2.26137L96.5 2.9919L93.2998 10.5966C91.5477 14.7533 88.0757 14.3333 84.5 13.3215C86.2128 9.26711 88.1543 0.365664 94.1901 2.26137Z" fill="#EDEDED" stroke="#D2D2D2"/>
<path d="M87.1901 2.26137L89.5 2.9919L86.2998 10.5966C84.5477 14.7533 81.0757 14.3333 77.5 13.3215C79.2128 9.26711 81.1543 0.365664 87.1901 2.26137Z" fill="#EDEDED" stroke="#D2D2D2"/>
<path d="M80.1901 2.26137L82.5 2.9919L79.2998 10.5966C77.5477 14.7533 74.0757 14.3333 70.5 13.3215C72.2128 9.26711 74.1543 0.365664 80.1901 2.26137Z" fill="#EDEDED" stroke="#D2D2D2"/>
<path d="M73.1901 2.26137L75.5 2.9919L72.2998 10.5966C70.5477 14.7533 67.0757 14.3333 63.5 13.3215C65.2128 9.26711 67.1543 0.365664 73.1901 2.26137Z" fill="#EDEDED" stroke="#D2D2D2"/>
<path d="M66.1901 2.26137L68.5 2.9919L65.2998 10.5966C63.5477 14.7533 60.0757 14.3333 56.5 13.3215C58.2128 9.26711 60.1543 0.365664 66.1901 2.26137Z" fill="#EDEDED" stroke="#D2D2D2"/>
<path d="M59.1901 2.26137L61.5 2.9919L58.2998 10.5966C56.5477 14.7533 53.0757 14.3333 49.5 13.3215C51.2128 9.26711 53.1543 0.365664 59.1901 2.26137Z" fill="#EDEDED" stroke="#D2D2D2"/>
<path d="M52.1901 2.26137L54.5 2.9919L51.2998 10.5966C49.5477 14.7533 46.0757 14.3333 42.5 13.3215C44.2128 9.26711 46.1543 0.365664 52.1901 2.26137Z" fill="#EDEDED" stroke="#D2D2D2"/>
<path d="M45.1901 2.26137L47.5 2.9919L44.2998 10.5966C42.5477 14.7533 39.0757 14.3333 35.5 13.3215C37.2128 9.26711 39.1543 0.365664 45.1901 2.26137Z" fill="#EDEDED" stroke="#D2D2D2"/>
<path d="M38.1901 2.26137L40.5 2.9919L37.2998 10.5966C35.5477 14.7533 32.0757 14.3333 28.5 13.3215C30.2128 9.26711 32.1543 0.365664 38.1901 2.26137Z" fill="#EDEDED" stroke="#D2D2D2"/>
<path d="M31.1901 2.26137L33.5 2.9919L30.2998 10.5966C28.5477 14.7533 25.0757 14.3333 21.5 13.3215C23.2128 9.26711 25.1543 0.365664 31.1901 2.26137Z" fill="#EDEDED" stroke="#D2D2D2"/>
<path d="M24.1901 2.26137L26.5 2.9919L23.2998 10.5966C21.5477 14.7533 18.0757 14.3333 14.5 13.3215C16.2128 9.26711 18.1543 0.365664 24.1901 2.26137Z" fill="#EDEDED" stroke="#D2D2D2"/>
<path d="M17.1901 2.26137L19.5 2.9919L16.2998 10.5966C14.5477 14.7533 11.0757 14.3333 7.5 13.3215C9.21275 9.26711 11.1543 0.365664 17.1901 2.26137Z" fill="#EDEDED" stroke="#D2D2D2"/>
<path d="M10.1901 2.26137L12.5 2.9919L9.29976 10.5966C7.54767 14.7533 4.07569 14.3333 0.5 13.3215C2.21275 9.26711 4.15434 0.365664 10.1901 2.26137Z" fill="#EDEDED" stroke="#D2D2D2"/>
<path d="M3.1901 2.26137L5.5 2.9919L2.29976 10.5966C0.547671 14.7533 -2.92431 14.3333 -6.5 13.3215C-4.78725 9.26711 -2.84566 0.365664 3.1901 2.26137Z" fill="#EDEDED" stroke="#D2D2D2"/>
</g>
<defs>
<clipPath id="clip0_206_22296">
<rect width="2512" height="16" fill="white"/>
</clipPath>
</defs>
</svg>
